<svg width="48" height="50" viewBox="0 0 48 50" fill="none" xmlns="http://www.w3.org/2000/svg">
<path d="M31.7917 41.457C31.6328 41.2508 31.4653 41.0522 31.2921 40.8592C31.1684 40.7214 31.0399 40.5883 30.9092 40.4576C30.4007 41.275 29.6988 41.9689 28.8554 42.4013C26.8513 43.4287 24.5043 43.2059 22.4043 42.6335C20.5657 42.1324 18.7867 41.3545 17.0977 40.4521C16.966 40.5837 16.837 40.7194 16.7111 40.8597C16.5377 41.0527 16.3692 41.2506 16.2103 41.4569C15.0069 43.0184 14.2254 44.9475 14.0488 47.0546C14.0236 47.3556 14.0107 47.6602 14.0107 47.9679V49.5426H33.9913V47.968C33.9913 45.5062 33.167 43.2416 31.7917 41.457V41.457Z" fill="#8288CB"/>
<path d="M17.0756 40.4735C16.9513 40.5987 16.8292 40.7275 16.71 40.8603C16.5366 41.0534 16.3681 41.2512 16.2092 41.4576C15.0058 43.019 14.2243 44.9481 14.0477 47.0552C14.0225 47.3562 14.0096 47.6609 14.0096 47.9685V49.5431H17.9792V47.9685C17.9792 46.6702 18.2108 45.4265 18.6303 44.2781C18.7063 44.0701 18.7886 43.8653 18.8768 43.6638C18.1429 42.6911 17.5644 41.5612 17.0756 40.4735V40.4735Z" fill="#676FB2"/>
<path d="M25.9831 37.7603C25.3576 37.6284 24.6946 37.5541 23.9999 37.5541C21.2877 37.5541 18.6515 38.6982 16.7101 40.8597C17.1386 42.11 17.7885 43.2679 18.6304 44.2775C18.763 44.4366 18.8993 44.5929 19.0413 44.7443C20.1575 45.9345 21.5464 46.8536 23.058 47.4023C23.6676 47.6237 24.3321 47.6237 24.9419 47.4023C26.4537 46.8535 27.8432 45.9341 28.9598 44.7433C30.0036 43.6303 30.7951 42.3059 31.291 40.8591C29.8977 39.3072 28.0564 38.1974 25.9831 37.7603Z" fill="#88C5FD"/>
<path d="M25.9831 37.7603C25.3576 37.6284 24.6946 37.5541 23.9999 37.5541C21.2877 37.5541 18.6515 38.6982 16.7101 40.8597C17.1386 42.11 17.7885 43.2679 18.6304 44.2775C19.8351 40.9802 22.602 38.4743 25.9831 37.7603Z" fill="#64B3FB"/>
<path d="M23.9999 35.9733L19.1176 38.8861C19.4161 40.3478 20.1083 41.6621 21.0822 42.7006C21.8842 43.5557 22.8768 44.2239 23.9999 44.6316C25.1233 44.2238 26.1165 43.5553 26.9187 42.6998C27.8926 41.6613 28.5849 40.3472 28.8834 38.8858L23.9999 35.9733Z" fill="#EFEDFF"/>
<path d="M19.1176 38.8861C19.4161 40.3478 20.1083 41.6621 21.0822 42.7006C21.8842 43.5557 22.8768 44.2239 23.9999 44.6316V35.9733L19.1176 38.8861Z" fill="#D4D4FF"/>
<path d="M23.9999 44.6315C25.1233 44.2237 26.1165 43.5552 26.9188 42.6997C26.1168 41.8446 25.1242 41.1763 24.0011 40.7686C22.8777 41.1764 21.8844 41.845 21.0822 42.7005C21.8841 43.5557 22.8768 44.2239 23.9999 44.6315Z" fill="#676FB2"/>
<path d="M5.29194 25.027C7.86073 25.027 9.94314 22.8752 9.94314 20.2208C9.94314 17.5663 7.86073 15.4145 5.29194 15.4145C2.72316 15.4145 0.640747 17.5663 0.640747 20.2208C0.640747 22.8752 2.72316 25.027 5.29194 25.027Z" fill="#FFBF9D"/>
<path d="M42.7081 25.027C45.2769 25.027 47.3593 22.8751 47.3593 20.2207C47.3593 17.5663 45.2769 15.4145 42.7081 15.4145C40.1393 15.4145 38.0569 17.5663 38.0569 20.2207C38.0569 22.8751 40.1393 25.027 42.7081 25.027Z" fill="#FFBF9D"/>
<path d="M29.2446 38.781C37.0238 36.4378 42.7081 29.0156 42.7081 20.2206C42.7081 10.6355 35.9573 2.67967 27.1007 1.1531C26.0921 0.97934 25.0563 0.888885 23.9999 0.888885C13.668 0.888885 5.29199 9.54395 5.29199 20.2207C5.29199 29.0156 10.9764 36.4378 18.7554 38.7811C20.4196 39.2824 22.1791 39.5523 23.9999 39.5523C25.0564 39.5523 26.0922 39.4614 27.1008 39.2873C27.8304 39.1611 28.5459 38.9915 29.2446 38.781V38.781Z" fill="#FFD4BD"/>
<path d="M11.4936 20.2207C11.4936 10.6358 18.2447 2.67997 27.1007 1.1532C26.0921 0.97934 25.0563 0.888885 23.9999 0.888885C13.668 0.888885 5.29199 9.54405 5.29199 20.2207C5.29199 29.0156 10.9764 36.4378 18.7554 38.7811C20.4196 39.2824 22.1791 39.5523 23.9999 39.5523C25.0564 39.5523 26.0922 39.4614 27.1008 39.2873C18.2447 37.7604 11.4936 29.8054 11.4936 20.2207V20.2207Z" fill="#FFBF9D"/>
<path d="M14.2084 28.1387C16.0397 28.1387 17.5242 26.9334 17.5242 25.4466C17.5242 23.9598 16.0397 22.7545 14.2084 22.7545C12.3772 22.7545 10.8926 23.9598 10.8926 25.4466C10.8926 26.9334 12.3772 28.1387 14.2084 28.1387Z" fill="#FFBF9D"/>
<path d="M33.7612 28.1387C35.5925 28.1387 37.077 26.9334 37.077 25.4466C37.077 23.9598 35.5925 22.7545 33.7612 22.7545C31.93 22.7545 30.4454 23.9598 30.4454 25.4466C30.4454 26.9334 31.93 28.1387 33.7612 28.1387Z" fill="#FFBF9D"/>
<path d="M17.3685 21.9833C16.9761 21.9833 16.658 22.312 16.658 22.7175V24.0343C16.658 24.4397 16.9761 24.7685 17.3685 24.7685C17.7609 24.7685 18.079 24.4397 18.079 24.0343V22.7175C18.079 22.312 17.7609 21.9833 17.3685 21.9833Z" fill="#313D40"/>
<path d="M30.6317 21.9832C30.2393 21.9832 29.9211 22.312 29.9211 22.7175V24.0342C29.9211 24.4397 30.2393 24.7684 30.6317 24.7684C31.0241 24.7684 31.3422 24.4397 31.3422 24.0342V22.7175C31.3422 22.312 31.0241 21.9832 30.6317 21.9832Z" fill="#313D40"/>
<path d="M26.2152 23.4415C25.9193 23.1751 25.4706 23.2069 25.2127 23.5127C24.9065 23.8757 24.4646 24.0839 24 24.0839C23.5354 24.0839 23.0934 23.8757 22.7873 23.5127C22.5294 23.2069 22.0807 23.1752 21.7847 23.4415C21.4889 23.708 21.4581 24.1717 21.7159 24.4774C22.2921 25.1605 23.1245 25.5523 23.9999 25.5523C24.8752 25.5523 25.7078 25.1605 26.2839 24.4774C26.5419 24.1717 26.511 23.708 26.2152 23.4415Z" fill="#313D40"/>
<path d="M30.5886 49.1509C31.3734 49.1509 32.0097 48.4935 32.0097 47.6825C32.0097 46.8715 31.3734 46.2141 30.5886 46.2141C29.8038 46.2141 29.1675 46.8715 29.1675 47.6825C29.1675 48.4935 29.8038 49.1509 30.5886 49.1509Z" fill="#88C5FD"/>
<path d="M42.7082 20.2194C42.7079 16.3026 41.5804 12.6575 39.6425 9.61254C38.781 8.25895 37.7589 7.0243 36.605 5.9364L32.5393 15.7267C35.1501 18.5062 38.8236 20.2188 42.7082 20.2194V20.2194Z" fill="#D6948C"/>
<path d="M39.1602 2.73665C37.9562 3.54996 36.6804 4.25685 35.3443 4.84736C32.9768 2.97913 30.1646 1.68125 27.1007 1.1532C26.0921 0.97934 25.0563 0.888885 23.9999 0.888885C18.6649 0.888885 13.8514 3.19675 10.4432 6.89884C7.25115 10.3663 5.29209 15.0569 5.29199 20.2204L22.2696 20.2165C31.5399 20.0358 39.2492 13.4747 41.6871 4.66811C42.1148 3.12265 40.4623 1.85706 39.1602 2.73665V2.73665Z" fill="#CE857A"/>
<path d="M27.1007 1.1532C26.0921 0.97934 25.0563 0.888885 23.9999 0.888885C18.6649 0.888885 13.8514 3.19675 10.4432 6.89884C7.25115 10.3663 5.29209 15.0569 5.29199 20.2204L15.556 20.2181C14.7431 18.9515 14.5029 17.3851 14.8848 15.9175C15.8393 12.2487 17.99 9.07269 20.9237 6.89639C22.8428 5.4728 25.0961 4.47624 27.5683 4.0501L32.7839 3.15094C31.036 2.18824 29.124 1.5019 27.1007 1.1532V1.1532Z" fill="#C77464"/>
</svg>
