<svg width="336" height="625" viewBox="0 0 336 625" fill="none" xmlns="http://www.w3.org/2000/svg">
<path d="M130.135 623.114C115.764 623.114 104.621 612.398 104.621 598.015L104.213 507.881C104.213 500.98 106.954 494.361 111.834 489.481C116.714 484.601 123.333 481.86 130.234 481.86C137.135 481.86 143.754 484.601 148.634 489.481C153.513 494.361 156.255 500.98 156.255 507.881L155.671 597.904C155.665 612.287 144.505 623.114 130.135 623.114Z" fill="#FFD3BC"/>
<path d="M201.346 623.114C186.975 623.114 175.832 612.398 175.832 598.015L175.424 507.881C175.424 500.98 178.165 494.361 183.045 489.481C187.925 484.601 194.544 481.86 201.445 481.86C208.346 481.86 214.965 484.601 219.845 489.481C224.725 494.361 227.466 500.98 227.466 507.881L226.882 597.904C226.877 612.287 215.716 623.114 201.346 623.114Z" fill="#FFD3BC"/>
<path d="M104.289 564.353V582.15C104.289 605.27 104.021 624.013 130.135 624.013C156.25 624.013 155.981 605.649 155.981 582.15V564.353H104.289Z" fill="#841E5F"/>
<path d="M175.5 564.353V582.15C175.5 605.27 175.232 624.013 201.346 624.013C227.461 624.013 227.192 605.649 227.192 582.15V564.353H175.5Z" fill="#841E5F"/>
<path d="M307.461 358.863L243.806 271.275C235.057 259.599 219.83 256.216 209.809 263.727C199.789 271.238 198.778 286.774 207.53 298.439L271.164 386.059C279.913 397.735 295.135 401.116 305.161 393.606C315.187 386.096 316.21 370.539 307.461 358.863Z" fill="#EC5858"/>
<path d="M29.388 356.968L93.0425 269.38C101.792 257.704 117.019 254.321 127.039 261.832C137.06 269.343 138.071 284.879 129.319 296.544L65.6843 384.164C56.9351 395.84 41.714 399.221 31.6876 391.711C21.6613 384.201 20.6388 368.644 29.388 356.968Z" fill="#EC5858"/>
<path d="M248.716 398H95.481L59 522.327H275.551L248.716 398Z" fill="#CE2489"/>
<path d="M248.525 349.645C248.525 287.272 217.213 236 170.47 236C123.727 236 92.2053 287.272 92.2053 349.645C92.2053 370.64 92.2053 399.915 92.2053 399.915L248.525 399.915C248.525 399.915 248.525 368.915 248.525 349.645Z" fill="#FF7E7E"/>
<path d="M296.145 342.462L307.843 358.7C318.233 372.838 315.87 386.2 305.828 393.579C295.786 400.958 280.776 399.17 270.392 385.027L259.484 369.59L296.145 342.462Z" fill="#FFD3BC"/>
<path d="M39.8774 342.723L28.0026 358.832C17.4585 372.856 19.6755 386.243 29.6367 393.731C39.5978 401.22 54.6265 399.596 65.1637 385.567L76.2402 370.25L39.8774 342.723Z" fill="#FFD3BC"/>
<path d="M310.545 167.093C308.974 157.319 308.127 147.442 308.011 137.543C308.011 61.7041 246.313 0 170.468 0C94.622 0 32.9623 61.7041 32.9623 137.524C32.8578 147.429 32.0213 157.312 30.4596 167.093C29.5785 172.933 29.9673 178.894 31.5997 184.57C33.2321 190.245 36.0695 195.502 39.9185 199.982C43.7675 204.461 48.5374 208.057 53.9028 210.525C59.2682 212.993 65.1028 214.274 71.0086 214.282H269.952C295.099 214.282 314.226 191.936 310.545 167.093Z" fill="#5C586F"/>
<path d="M119.11 28.3929L106.533 15.8164C62.8228 38.8723 32.9623 84.7876 32.9623 137.527C32.8578 147.431 32.0213 157.314 30.4596 167.096C29.5785 172.935 29.9673 178.896 31.5997 184.572C33.2321 190.248 36.0695 195.505 39.9185 199.984C43.7675 204.463 48.5374 208.059 53.9028 210.527C59.2682 212.995 65.1028 214.277 71.0086 214.284H110.341C92.4679 190.209 81.8301 159.797 81.8301 126.667C81.8301 88.4687 96.0412 53.8057 119.135 28.3929H119.11Z" fill="#4F4C5F"/>
<path d="M271.486 170.972C288.875 170.972 302.972 156.875 302.972 139.486C302.972 122.097 288.875 108 271.486 108C254.097 108 240 122.097 240 139.486C240 156.875 254.097 170.972 271.486 170.972Z" fill="#FFBE9C"/>
<path d="M238.806 103.59L227.68 89.9495C226.773 88.8389 225.63 87.944 224.334 87.3294C223.038 86.7148 221.622 86.396 220.188 86.396C218.754 86.396 217.338 86.7148 216.042 87.3294C214.746 87.944 213.603 88.8389 212.696 89.9495L201.564 103.59C200.66 104.697 199.521 105.59 198.231 106.205C196.94 106.819 195.53 107.14 194.1 107.145H146.937C145.503 107.144 144.088 106.825 142.792 106.21C141.497 105.596 140.355 104.701 139.448 103.59L128.31 89.9495C127.403 88.839 126.261 87.9441 124.965 87.3296C123.67 86.715 122.254 86.3962 120.821 86.3962C119.387 86.3962 117.972 86.715 116.676 87.3296C115.381 87.9441 114.239 88.839 113.332 89.9495L102.194 103.59C101.287 104.701 100.144 105.596 98.8492 106.21C97.554 106.825 96.1384 107.144 94.7048 107.145H75.1716C71.7045 107.139 68.3481 108.365 65.7003 110.603C63.0525 112.841 61.2852 115.947 60.7134 119.366C59.704 125.507 59.2102 131.72 59.2371 137.943C59.4525 199.577 110.386 249.624 172.014 248.819C188.033 248.587 203.814 244.901 218.278 238.013C232.743 231.124 245.551 221.196 255.827 208.905C266.104 196.614 273.607 182.25 277.825 166.795C282.043 151.339 282.876 135.155 280.267 119.347C279.693 115.93 277.925 112.828 275.277 110.593C272.629 108.358 269.274 107.136 265.809 107.145H246.294C244.861 107.144 243.445 106.825 242.15 106.21C240.855 105.596 239.713 104.701 238.806 103.59Z" fill="#FFD3BC"/>
<path d="M118.979 236.292C104.643 222.381 93.2512 205.73 85.4796 187.328C77.7079 168.926 73.7156 149.149 73.7399 129.173C73.7396 122.81 74.1405 116.452 74.9402 110.139H56.2532C55.3338 110.046 54.4103 110 53.4862 110C45.1355 110 37.1269 113.317 31.2221 119.222C25.3173 125.127 22 133.136 22 141.486C22 149.837 25.3173 157.845 31.2221 163.75C37.1269 169.655 45.1355 172.972 53.4862 172.972C55.6887 173.003 57.8842 172.718 60.0058 172.126C65.1247 186.178 72.9697 199.081 83.0902 210.093C93.2107 221.105 105.407 230.008 118.979 236.292Z" fill="#FFBE9C"/>
<path d="M227.852 176.379C238.749 176.379 247.581 169.2 247.581 160.356C247.581 151.511 238.749 144.333 227.852 144.333C216.954 144.333 208.116 151.505 208.116 160.337C208.116 169.169 216.954 176.379 227.852 176.379Z" fill="#FFBF9D"/>
<path d="M111.484 176.379C122.388 176.379 131.22 169.2 131.22 160.356C131.22 151.511 122.388 144.333 111.484 144.333C100.58 144.333 91.7542 151.505 91.7542 160.337C91.7542 169.169 100.586 176.379 111.484 176.379Z" fill="#FFBF9D"/>
<path d="M130.294 139.745C129.73 139.753 129.172 139.873 128.654 140.097C128.135 140.321 127.666 140.645 127.273 141.05C126.88 141.456 126.571 141.935 126.363 142.46C126.155 142.985 126.053 143.546 126.062 144.11V151.948C126.04 152.517 126.133 153.085 126.336 153.617C126.538 154.149 126.846 154.635 127.241 155.046C127.636 155.456 128.11 155.783 128.634 156.006C129.158 156.229 129.722 156.344 130.291 156.344C130.861 156.344 131.424 156.229 131.949 156.006C132.473 155.783 132.946 155.456 133.341 155.046C133.736 154.635 134.044 154.149 134.247 153.617C134.449 153.085 134.542 152.517 134.52 151.948V144.11C134.529 143.546 134.427 142.986 134.22 142.461C134.013 141.936 133.704 141.458 133.312 141.052C132.919 140.647 132.451 140.323 131.933 140.099C131.415 139.874 130.858 139.754 130.294 139.745Z" fill="#313D40"/>
<path d="M209.225 139.745C208.661 139.754 208.104 139.874 207.586 140.099C207.068 140.323 206.6 140.647 206.208 141.052C205.815 141.458 205.506 141.936 205.299 142.461C205.092 142.986 204.99 143.546 204.999 144.11V151.948C204.977 152.517 205.07 153.085 205.273 153.617C205.475 154.149 205.783 154.635 206.178 155.046C206.573 155.456 207.047 155.783 207.571 156.006C208.095 156.229 208.658 156.344 209.228 156.344C209.798 156.344 210.361 156.229 210.885 156.006C211.41 155.783 211.883 155.456 212.278 155.046C212.673 154.635 212.981 154.149 213.184 153.617C213.386 153.085 213.479 152.517 213.457 151.948V144.11C213.466 143.546 213.364 142.985 213.156 142.46C212.949 141.935 212.639 141.456 212.246 141.05C211.853 140.645 211.384 140.321 210.865 140.097C210.347 139.873 209.79 139.753 209.225 139.745Z" fill="#313D40"/>
<path d="M182.947 182.912C182.534 182.535 182.048 182.246 181.519 182.063C180.991 181.88 180.43 181.806 179.872 181.845C179.314 181.885 178.77 182.038 178.272 182.294C177.775 182.55 177.335 182.905 176.979 183.337C176.1 184.399 174.998 185.255 173.75 185.842C172.503 186.429 171.141 186.733 169.763 186.733C168.384 186.733 167.022 186.429 165.775 185.842C164.527 185.255 163.425 184.399 162.546 183.337C162.19 182.905 161.75 182.55 161.253 182.294C160.755 182.038 160.211 181.885 159.653 181.845C159.095 181.806 158.534 181.88 158.006 182.063C157.477 182.246 156.991 182.535 156.578 182.912C155.729 183.69 155.213 184.764 155.137 185.912C155.06 187.06 155.428 188.194 156.166 189.077C157.821 191.078 159.898 192.69 162.247 193.796C164.597 194.902 167.162 195.475 169.759 195.475C172.356 195.475 174.922 194.902 177.271 193.796C179.621 192.69 181.698 191.078 183.353 189.077C184.1 188.198 184.476 187.063 184.4 185.912C184.324 184.761 183.803 183.685 182.947 182.912Z" fill="#313D40"/>
<path d="M76.4642 31.2591C75.5212 29.3867 74.2509 27.6981 72.7134 26.2729C69.3491 23.105 64.9901 21.2043 59.7567 20.6911C57.1911 20.3961 54.8439 19.1056 53.2203 17.0972C51.5967 15.0889 50.8266 12.5234 51.0758 9.9529C51.3249 7.38243 52.5734 5.01255 54.5525 3.35342C56.5316 1.69429 59.083 0.878577 61.6575 1.08186C81.3681 3.01427 91.7017 16.2877 94.6922 23.8336L76.3945 31.1071L76.4642 31.2591Z" fill="#FF748F"/>
<path d="M58.6058 79.5004C53.2355 75.78 49.563 70.0788 48.3962 63.6507C47.2294 57.2226 48.6639 50.5943 52.3841 45.2239C66.2209 25.1468 85.9839 9.89371 108.912 1.59573C111.964 0.440202 115.215 -0.097302 118.477 0.0144451C121.739 0.126192 124.946 0.884963 127.912 2.24668C130.878 3.60839 133.544 5.5459 135.754 7.94666C137.965 10.3474 139.677 13.1635 140.79 16.2314C141.903 19.2994 142.396 22.5579 142.239 25.8177C142.082 29.0776 141.279 32.2737 139.876 35.2206C138.473 38.1674 136.499 40.8061 134.068 42.9834C131.637 45.1608 128.797 46.8333 125.714 47.9039C112.393 52.7363 100.914 61.6101 92.8823 73.285C89.1599 78.6529 83.4583 82.3231 77.0308 83.4886C70.6033 84.6541 63.976 83.2196 58.6058 79.5004Z" fill="#FF889E"/>
<path d="M69.4546 25.5815C63.0615 31.4823 57.3375 38.069 52.386 45.2224C48.6649 50.5928 47.2295 57.2215 48.3957 63.6502C49.5619 70.0789 53.2341 75.781 58.6046 79.5021C63.975 83.2233 70.6036 84.6586 77.0323 83.4924C83.461 82.3262 89.1631 78.654 92.8843 73.2836C94.3005 71.2392 95.8254 69.2723 97.4523 67.3913C82.0564 59.9721 71.0005 44.2277 69.4546 25.5815Z" fill="#FF748F"/>
</svg>
