
<svg width="200" height="375" viewBox="0 0 200 375" fill="none" xmlns="http://www.w3.org/2000/svg">
<path d="M100.506 0L118.872 85.56L107.402 151.097H96.908L81.4925 151.72L71.898 160.443C71.898 160.443 64.7022 158.885 59.6051 163.87C54.5079 168.855 52.4091 172.905 52.4091 172.905C12.8223 156.474 18.9544 145.914 18.9544 84.7414C18.9544 38.0122 55.5414 0 100.506 0Z" fill="#50E1CD"/>
<path d="M149.674 172.905C149.674 172.905 145.496 166.985 141.617 163.247C137.738 160.443 133.262 158.885 129.682 160.131C127.859 160.766 121.923 148.916 116.079 152.966C110.601 150.743 100.861 151.72 100.861 151.72V0C145.595 0 182.022 38.0122 182.022 84.7414C182.022 145.914 189.06 156.474 149.674 172.905Z" fill="#5C586F"/>
<path d="M78.588 373.426C69.9674 373.426 63.2832 363.861 63.2832 351.024L63.0381 270.575C63.0381 264.415 64.6826 258.508 67.61 254.152C70.5373 249.796 74.5076 247.35 78.6475 247.35C82.7874 247.35 86.7577 249.796 89.6851 254.152C92.6124 258.508 94.257 264.415 94.257 270.575L93.9068 350.925C93.9033 363.762 87.2086 373.426 78.588 373.426Z" fill="#3F3F3F"/>
<path d="M63.0382 348.211V355.911C63.0382 365.916 62.876 374.026 78.6475 374.026C94.4191 374.026 94.2569 366.08 94.2569 355.911V348.211H63.0382Z" fill="#CE2489"/>
<path d="M121.214 373.426C112.593 373.426 105.909 363.861 105.909 351.024L105.664 270.575C105.664 264.415 107.309 258.508 110.236 254.152C113.163 249.796 117.134 247.35 121.273 247.35C125.413 247.35 129.384 249.796 132.311 254.152C135.238 258.508 136.883 264.415 136.883 270.575L136.533 350.925C136.529 363.762 129.835 373.426 121.214 373.426Z" fill="#3F3F3F"/>
<path d="M105.664 348.211V355.911C105.664 365.916 105.502 374.026 121.273 374.026C137.045 374.026 136.883 366.08 136.883 355.911V348.211H105.664Z" fill="#CE2489"/>
<path d="M54.0327 238.944C54.0327 261.758 64.5391 271.964 100.561 271.964C136.583 271.964 147.089 261.758 147.089 238.944H54.0327Z" fill="#3F3F3F"/>
<path d="M182.2 214.418L144.567 162.635C139.394 155.732 130.392 153.733 124.468 158.173C118.543 162.614 117.946 171.798 123.12 178.695L160.741 230.496C165.914 237.399 174.913 239.398 180.84 234.958C186.768 230.519 187.372 221.321 182.2 214.418Z" fill="#FFD3BC"/>
<path d="M130.257 184.596L123.718 174.735C117.905 166.145 119.607 158.305 125.709 154.176C131.811 150.047 140.638 151.448 146.447 160.042L152.537 169.412L130.257 184.596Z" fill="#41B7A0"/>
<path d="M17.8001 214.768L55.4332 162.985C60.6057 156.082 69.608 154.082 75.5323 158.523C81.4565 162.963 82.0543 172.148 76.8801 179.044L39.2588 230.846C34.0862 237.749 25.0874 239.748 19.1597 235.308C13.2321 230.868 12.6276 221.671 17.8001 214.768Z" fill="#FFD3BC"/>
<path d="M69.7429 184.947L76.2811 175.086C82.0949 166.495 80.3922 158.656 74.2903 154.527C68.1883 150.398 59.362 151.799 53.5524 160.392L47.4624 169.762L69.7429 184.947Z" fill="#41B7A0"/>
<path d="M145.955 209.669C145.955 172.793 127.443 142.481 99.8078 142.481C72.1729 142.481 53.5371 172.793 53.5371 209.669C53.5371 222.081 53.5371 239.389 53.5371 239.389H145.955C145.955 239.389 145.955 221.062 145.955 209.669Z" fill="#46CCB2"/>
<path d="M99.9516 181.999C111.084 181.999 120.108 172.975 120.108 161.842C120.108 150.71 111.084 141.686 99.9516 141.686C88.8194 141.686 79.7949 150.71 79.7949 161.842C79.7949 172.975 88.8194 181.999 99.9516 181.999Z" fill="#F6BDA0"/>
<path d="M168.019 75.8075C167.677 71.9107 166.197 68.2006 163.762 65.1389C161.327 62.0771 158.046 59.7991 154.326 58.5883C133.02 51.6642 119.145 51.7628 100.617 26.6715C82.09 51.7514 68.2153 51.6642 46.9084 58.5883C43.186 59.7944 39.9011 62.0697 37.4634 65.1305C35.0257 68.1913 33.5431 71.902 33.2005 75.7999C32.9947 78.1956 32.9162 80.6005 32.9654 83.0046C33.6859 119.559 63.7105 149.121 100.269 149.307C109.182 149.351 118.016 147.633 126.264 144.253C134.511 140.873 142.01 135.896 148.328 129.61C154.647 123.323 159.661 115.85 163.084 107.62C166.506 99.3895 168.268 90.5642 168.269 81.6509C168.269 79.6841 168.186 77.7363 168.019 75.8075Z" fill="#FFD3BC"/>
<path d="M65.8334 101.653C72.3555 101.653 77.6453 97.3602 77.6453 92.0629C77.6453 86.7656 72.3555 82.4769 65.8334 82.4769C59.3112 82.4769 54.0215 86.7693 54.0215 92.0629C54.0215 97.3565 59.3112 101.653 65.8334 101.653Z" fill="#FFBF9D"/>
<path d="M135.479 101.653C142.001 101.653 147.287 97.3602 147.287 92.0629C147.287 86.7656 142.001 82.4769 135.479 82.4769C128.957 82.4769 123.667 86.7693 123.667 92.0629C123.667 97.3565 128.953 101.653 135.479 101.653Z" fill="#FFBF9D"/>
<path d="M77.0873 79.728C76.405 79.7399 75.7555 80.0222 75.2812 80.5128C74.807 81.0034 74.5469 81.6621 74.558 82.3444V87.035C74.5449 87.3757 74.6006 87.7155 74.7218 88.034C74.8431 88.3526 75.0274 88.6435 75.2637 88.8891C75.5001 89.1348 75.7836 89.3302 76.0972 89.4637C76.4109 89.5972 76.7483 89.666 77.0892 89.666C77.4301 89.666 77.7674 89.5972 78.0811 89.4637C78.3948 89.3302 78.6783 89.1348 78.9146 88.8891C79.1509 88.6435 79.3353 88.3526 79.4565 88.034C79.5778 87.7155 79.6335 87.3757 79.6203 87.035V82.3444C79.6258 82.0063 79.5647 81.6704 79.4404 81.3559C79.316 81.0414 79.131 80.7544 78.8958 80.5115C78.6605 80.2685 78.3798 80.0743 78.0695 79.9398C77.7592 79.8054 77.4254 79.7334 77.0873 79.728Z" fill="#313D40"/>
<path d="M124.331 79.728C123.993 79.7334 123.659 79.8054 123.349 79.9398C123.039 80.0743 122.758 80.2685 122.523 80.5115C122.288 80.7544 122.103 81.0414 121.978 81.3559C121.854 81.6704 121.793 82.0063 121.798 82.3444V87.035C121.785 87.3757 121.841 87.7155 121.962 88.034C122.083 88.3526 122.268 88.6435 122.504 88.8891C122.74 89.1348 123.024 89.3302 123.337 89.4637C123.651 89.5972 123.989 89.666 124.329 89.666C124.67 89.666 125.008 89.5972 125.321 89.4637C125.635 89.3302 125.918 89.1348 126.155 88.8891C126.391 88.6435 126.575 88.3526 126.697 88.034C126.818 87.7155 126.874 87.3757 126.861 87.035V82.3444C126.872 81.6621 126.612 81.0034 126.137 80.5128C125.663 80.0222 125.014 79.7399 124.331 79.728Z" fill="#313D40"/>
<path d="M108.599 105.562C108.352 105.337 108.061 105.165 107.745 105.056C107.429 104.946 107.095 104.902 106.761 104.926C106.427 104.95 106.102 105.041 105.805 105.194C105.508 105.347 105.244 105.559 105.031 105.816C104.506 106.454 103.846 106.967 103.099 107.319C102.352 107.671 101.536 107.854 100.71 107.854C99.8844 107.854 99.0688 107.671 98.3217 107.319C97.5747 106.967 96.9149 106.454 96.3894 105.816C96.1763 105.559 95.9131 105.347 95.6158 105.194C95.3185 105.041 94.9932 104.95 94.6597 104.926C94.3261 104.902 93.9912 104.946 93.6752 105.056C93.3592 105.165 93.0687 105.337 92.8212 105.562C92.3134 106.028 92.0045 106.671 91.9586 107.358C91.9127 108.045 92.1333 108.723 92.5747 109.252C93.5652 110.45 94.8081 111.414 96.2144 112.076C97.6208 112.738 99.156 113.081 100.71 113.081C102.265 113.081 103.8 112.738 105.206 112.076C106.613 111.414 107.855 110.45 108.846 109.252C109.287 108.723 109.508 108.045 109.462 107.358C109.416 106.671 109.107 106.028 108.599 105.562Z" fill="#313D40"/>
<path d="M168.099 8.12559C170.881 8.41986 173.511 9.54292 175.647 11.3492C177.783 13.1555 179.328 15.5618 180.081 18.2563C187.174 43.306 171.346 63.9627 171.346 63.9627L127.088 21.9029C140.84 7.92238 157.946 7.06523 168.099 8.12559Z" fill="#6A647F"/>
<path d="M164.467 21.5002H164.493C165.185 21.541 165.845 21.8067 166.373 22.2568C166.9 22.7069 167.266 23.3169 167.416 23.9941C171.055 40.5867 161.449 54.3566 160.499 55.6645L136.854 31.4794C145.817 22.3536 156.989 21.0716 164.475 21.5039L164.467 21.5002Z" fill="#FF9DB0"/>
<path d="M33.0229 8.12559C30.2426 8.42148 27.6152 9.54531 25.4809 11.3515C23.3466 13.1578 21.8038 15.5632 21.0523 18.2563C13.9327 43.306 29.7605 63.9627 29.7605 63.9627L74.0076 21.9029C60.2672 7.92238 43.161 7.06523 33.0229 8.12559Z" fill="#5C586F"/>
<path d="M36.6397 21.5002H36.6139C35.9217 21.5411 35.2617 21.8068 34.7343 22.2569C34.2068 22.707 33.8406 23.3169 33.6914 23.9941C30.0596 40.5867 39.6509 54.3567 40.6078 55.6646L64.2535 31.4794C55.2977 22.3537 44.1251 21.0716 36.6397 21.5002Z" fill="#FF9DB0"/>
</svg>
