<svg width="103" height="95" viewBox="0 0 103 95" fill="none" xmlns="http://www.w3.org/2000/svg">
<path d="M87.9726 64.9282C93.7015 64.9282 98.3456 60.2841 98.3456 54.5552C98.3456 48.8264 93.7015 44.1822 87.9726 44.1822C82.2438 44.1822 77.5996 48.8264 77.5996 54.5552C77.5996 60.2841 82.2438 64.9282 87.9726 64.9282Z" fill="#FFBE9C"/>
<path d="M10.373 64.5601C16.1019 64.5601 20.746 59.9159 20.746 54.1871C20.746 48.4582 16.1019 43.8141 10.373 43.8141C4.64415 43.8141 0 48.4582 0 54.1871C0 59.9159 4.64415 64.5601 10.373 64.5601Z" fill="#FFBE9C"/>
<path d="M87.4904 36.4672C88.0232 36.5915 88.5467 36.7526 89.0572 36.9493C94.689 39.1227 99.0523 34.9065 101.667 31.1172C101.934 30.7249 102.102 30.2734 102.156 29.8018C102.209 29.3301 102.147 28.8525 101.975 28.4101C101.803 27.9677 101.526 27.5739 101.168 27.2626C100.809 26.9513 100.381 26.7318 99.9184 26.6232C97.2629 25.9573 94.9607 23.8471 93.4144 22.0802C92.4765 20.9789 91.6416 19.7939 90.9202 18.5401C89.8395 16.7293 88.2928 15.2417 86.4412 14.2323C84.5897 13.223 82.5013 12.729 80.3938 12.8018C78.2863 12.8747 76.2369 13.5116 74.4595 14.6464C72.6821 15.7811 71.2417 17.372 70.2886 19.253L87.4904 36.4672Z" fill="#E27858"/>
<path d="M85.4081 57.387H92.86C92.8661 51.096 91.5004 44.8792 88.8583 39.1699C81.9558 24.2416 66.8335 13.8604 49.3354 13.8604C31.8373 13.8604 16.715 24.2416 9.80439 39.1699C7.16204 44.8791 5.79707 51.096 5.80472 57.387H85.4081Z" fill="#E7886E"/>
<path d="M80.4844 39.1695H68.6121L63.5052 31.4071L58.3984 39.1695H40.2589L35.1521 31.4071L30.0452 39.1695H18.1974C14.9925 44.6502 13.2908 50.8798 13.2645 57.2287C13.2381 63.5777 14.8879 69.8211 18.0471 75.3283C21.2064 80.8355 25.7632 85.4113 31.2572 88.5934C36.7513 91.7755 42.9878 93.4512 49.3368 93.4512C55.6858 93.4512 61.9224 91.7755 67.4164 88.5934C72.9104 85.4113 77.4672 80.8355 80.6265 75.3283C83.7858 69.8211 85.4355 63.5777 85.4092 57.2287C85.3828 50.8798 83.6812 44.6502 80.4763 39.1695H80.4844Z" fill="#FFD3BC"/>
<path d="M30.577 66.7945C34.0905 66.7945 36.9381 64.4822 36.9381 61.6305C36.9381 58.7788 34.0905 56.4644 30.577 56.4644C27.0635 56.4644 24.2139 58.7768 24.2139 61.6305C24.2139 64.4842 27.0635 66.7945 30.577 66.7945Z" fill="#FFBF9D"/>
<path d="M68.0935 66.7945C71.607 66.7945 74.4566 64.4822 74.4566 61.6305C74.4566 58.7788 71.607 56.4644 68.0935 56.4644C64.58 56.4644 61.7324 58.7768 61.7324 61.6305C61.7324 64.4842 64.58 66.7945 68.0935 66.7945Z" fill="#FFBF9D"/>
<path d="M36.6394 54.9835C36.2719 54.9899 35.922 55.142 35.6665 55.4063C35.411 55.6706 35.2709 56.0255 35.2769 56.393V58.9198C35.2698 59.1033 35.2998 59.2864 35.3651 59.458C35.4305 59.6296 35.5297 59.7863 35.6571 59.9187C35.7844 60.051 35.9371 60.1563 36.1061 60.2282C36.275 60.3001 36.4568 60.3372 36.6404 60.3372C36.8241 60.3372 37.0058 60.3001 37.1748 60.2282C37.3438 60.1563 37.4965 60.051 37.6238 59.9187C37.7511 59.7863 37.8504 59.6296 37.9157 59.458C37.981 59.2864 38.0111 59.1033 38.004 58.9198V56.393C38.0069 56.2108 37.974 56.0299 37.907 55.8605C37.8401 55.691 37.7404 55.5365 37.6136 55.4056C37.4869 55.2747 37.3357 55.17 37.1685 55.0976C37.0013 55.0252 36.8216 54.9864 36.6394 54.9835Z" fill="#313D40"/>
<path d="M62.0995 54.9835C61.9173 54.9864 61.7375 55.0252 61.5703 55.0976C61.4032 55.17 61.2519 55.2747 61.1252 55.4056C60.9985 55.5365 60.8988 55.691 60.8318 55.8605C60.7649 56.0299 60.7319 56.2108 60.7349 56.393V58.9198C60.7278 59.1033 60.7578 59.2864 60.8231 59.458C60.8885 59.6296 60.9878 59.7863 61.1151 59.9187C61.2424 60.051 61.3951 60.1563 61.5641 60.2282C61.733 60.3001 61.9148 60.3372 62.0984 60.3372C62.2821 60.3372 62.4638 60.3001 62.6328 60.2282C62.8018 60.1563 62.9545 60.051 63.0818 59.9187C63.2091 59.7863 63.3084 59.6296 63.3737 59.458C63.4391 59.2864 63.4691 59.1033 63.462 58.9198V56.393C63.468 56.0255 63.3278 55.6706 63.0724 55.4063C62.8169 55.142 62.467 54.9899 62.0995 54.9835Z" fill="#313D40"/>
<path d="M53.6152 68.9021C53.482 68.7805 53.3254 68.6872 53.1551 68.6279C52.9847 68.5686 52.8041 68.5445 52.6241 68.5571C52.4442 68.5697 52.2687 68.6188 52.1083 68.7012C51.9479 68.7837 51.8059 68.8979 51.6909 69.0369C51.408 69.3801 51.0527 69.6565 50.6505 69.8462C50.2482 70.036 49.809 70.1343 49.3642 70.1343C48.9195 70.1343 48.4802 70.036 48.078 69.8462C47.6757 69.6565 47.3204 69.3801 47.0376 69.0369C46.9228 68.898 46.781 68.7838 46.6207 68.7013C46.4605 68.6189 46.2851 68.5699 46.1054 68.5573C45.9256 68.5447 45.7451 68.5687 45.575 68.628C45.4048 68.6873 45.2484 68.7805 45.1154 68.9021C44.8418 69.1527 44.6754 69.4991 44.6507 69.8693C44.6259 70.2394 44.7448 70.6049 44.9826 70.8897C45.5166 71.5343 46.1862 72.0532 46.9438 72.4094C47.7013 72.7656 48.5281 72.9503 49.3653 72.9503C50.2024 72.9503 51.0292 72.7656 51.7867 72.4094C52.5443 72.0532 53.2139 71.5343 53.7479 70.8897C53.9857 70.6049 54.1046 70.2394 54.0799 69.8693C54.0551 69.4991 53.8887 69.1527 53.6152 68.9021Z" fill="#313D40"/>
<path d="M74.5053 21.4358C72.9192 20.5499 71.5988 19.2562 70.6806 17.6886C69.7625 16.1211 69.2799 14.3366 69.283 12.5199V10.4809C69.3035 9.11196 69.0517 7.75264 68.5421 6.48199C68.0324 5.21133 67.2752 4.0547 66.3144 3.07939C65.3537 2.10408 64.2085 1.32957 62.9457 0.800908C61.6828 0.272249 60.3274 0 58.9584 0C57.5893 0 56.234 0.272249 54.9711 0.800908C53.7082 1.32957 52.5631 2.10408 51.6024 3.07939C50.6416 4.0547 49.8844 5.21133 49.3747 6.48199C48.8651 7.75264 48.6133 9.11196 48.6338 10.4809C48.6544 9.11196 48.4025 7.75264 47.8929 6.48199C47.3833 5.21133 46.626 4.0547 45.6653 3.07939C44.7045 2.10408 43.5594 1.32957 42.2965 0.800908C41.0337 0.272249 39.6783 0 38.3092 0C36.9402 0 35.5848 0.272249 34.322 0.800908C33.0591 1.32957 31.914 2.10408 30.9532 3.07939C29.9924 4.0547 29.2352 5.21133 28.7256 6.48199C28.216 7.75264 27.9641 9.11196 27.9847 10.4809V12.5199C27.9877 14.3366 27.5052 16.1211 26.587 17.6886C25.6688 19.2562 24.3484 20.5499 22.7624 21.4358C11.6863 27.5926 4.47852 38.2795 4.47852 53.0026C4.47852 77.3896 24.2468 95 48.6338 95C73.0208 95 92.7984 77.3896 92.7984 53.0026C92.7984 38.2795 85.5744 27.5926 74.5053 21.4358ZM68.2576 79.4986L53.0172 82.3602H44.2505L29.0123 79.4986C25.4504 77.5887 22.4289 74.8097 20.2283 71.4196C18.0277 68.0296 16.7193 64.1385 16.4248 60.1076C16.1302 56.0767 16.859 52.0367 18.5435 48.3628C20.2279 44.6889 22.8134 41.5002 26.0598 39.0928L40.6664 34.3529H56.6036L71.2078 39.0928C74.4544 41.5 77.04 44.6886 78.7246 48.3624C80.4092 52.0362 81.1382 56.0761 80.8439 60.107C80.5496 64.1379 79.2415 68.029 77.0411 71.4192C74.8407 74.8093 71.8194 77.5884 68.2576 79.4986Z" fill="#50E1CD"/>
<path d="M40.6661 34.3529L37.2918 44.3733C35.7654 48.9012 29.3687 48.9012 27.8353 44.3733L26.0596 39.1021C30.1898 36.0149 35.209 34.3487 40.3655 34.3529H40.6661Z" fill="white"/>
<path d="M71.2078 39.0928L69.432 44.3663C67.908 48.8919 61.5089 48.8919 59.9779 44.3663L56.6035 34.3459H56.9111C62.0658 34.3393 67.084 36.0022 71.2148 39.0858L71.2078 39.0928Z" fill="white"/>
<path d="M44.2503 82.3602H40.3656C36.402 82.3659 32.4996 81.3823 29.0122 79.4985L31.4218 72.349C32.9458 67.8212 39.3449 67.8212 40.876 72.349L44.2503 82.3602Z" fill="white"/>
<path d="M68.2575 79.4985C64.7721 81.3809 60.8723 82.3644 56.9111 82.3601H53.0171L56.3938 72.3397C57.9178 67.8118 64.3169 67.8118 65.848 72.3397L68.2575 79.4985Z" fill="white"/>
<path d="M54.6366 16.7681C53.49 16.7676 52.3574 17.0203 51.3197 17.5081C50.282 17.9959 49.3648 18.7069 48.6337 19.5902C47.6099 18.354 46.2297 17.4639 44.6813 17.0413C43.1329 16.6188 41.4918 16.6843 39.9821 17.229C38.4723 17.7737 37.1675 18.7711 36.2456 20.0849C35.3237 21.3988 34.8297 22.9651 34.8311 24.5701C34.8478 25.0363 35.0448 25.4779 35.3806 25.8018C35.7164 26.1257 36.1647 26.3067 36.6312 26.3067C37.0978 26.3067 37.5461 26.1257 37.8819 25.8018C38.2176 25.4779 38.4147 25.0363 38.4314 24.5701C38.4314 23.4558 38.8741 22.3871 39.6621 21.5991C40.45 20.8112 41.5187 20.3685 42.633 20.3685C43.7474 20.3685 44.8161 20.8112 45.604 21.5991C46.392 22.3871 46.8346 23.4558 46.8346 24.5701C46.8514 25.0363 47.0484 25.4779 47.3842 25.8018C47.72 26.1257 48.1683 26.3067 48.6348 26.3067C49.1014 26.3067 49.5497 26.1257 49.8855 25.8018C50.2212 25.4779 50.4182 25.0363 50.435 24.5701C50.435 23.4576 50.877 22.3907 51.6636 21.6041C52.4502 20.8174 53.5172 20.3755 54.6296 20.3755C55.7421 20.3755 56.809 20.8174 57.5957 21.6041C58.3823 22.3907 58.8243 23.4576 58.8243 24.5701C58.8243 25.0478 59.014 25.506 59.3519 25.8438C59.6897 26.1817 60.1479 26.3715 60.6256 26.3715C61.1034 26.3715 61.5615 26.1817 61.8994 25.8438C62.2372 25.506 62.427 25.0478 62.427 24.5701C62.4245 22.5037 61.6033 20.5224 60.1432 19.0601C58.6831 17.5978 56.7031 16.7737 54.6366 16.7681Z" fill="#00D1B3"/>
<path d="M38.3101 14.468C38.7875 14.4674 39.2451 14.2774 39.5824 13.9396C39.9197 13.6019 40.1092 13.144 40.1092 12.6667V9.24341C40.0924 8.77718 39.8954 8.33564 39.5596 8.01174C39.2238 7.68784 38.7755 7.50684 38.309 7.50684C37.8424 7.50684 37.3941 7.68784 37.0583 8.01174C36.7226 8.33564 36.5256 8.77718 36.5088 9.24341V12.6667C36.5088 13.1444 36.6986 13.6026 37.0364 13.9404C37.3742 14.2782 37.8324 14.468 38.3101 14.468Z" fill="#423E4F"/>
<path d="M42.6329 22.7431C42.3964 22.7428 42.1623 22.7891 41.9437 22.8793C41.7252 22.9696 41.5266 23.1021 41.3593 23.2692C41.192 23.4363 41.0593 23.6347 40.9687 23.8531C40.8782 24.0715 40.8315 24.3057 40.8315 24.5421V26.5369C40.8315 27.0146 41.0213 27.4728 41.3591 27.8106C41.697 28.1484 42.1551 28.3382 42.6329 28.3382C43.1106 28.3382 43.5688 28.1484 43.9066 27.8106C44.2445 27.4728 44.4343 27.0146 44.4343 26.5369V24.5421C44.4336 24.0648 44.2436 23.6072 43.9058 23.2699C43.5681 22.9325 43.1102 22.7431 42.6329 22.7431Z" fill="#00D1B3"/>
<path d="M54.6365 22.7431C54.4001 22.7428 54.1659 22.7891 53.9473 22.8793C53.7288 22.9696 53.5302 23.1021 53.3629 23.2692C53.1956 23.4363 53.0629 23.6347 52.9723 23.8531C52.8818 24.0715 52.8351 24.3057 52.8351 24.5421V26.5369C52.8264 26.7787 52.8666 27.0198 52.9531 27.2459C53.0397 27.4719 53.1709 27.6781 53.3389 27.8523C53.5069 28.0265 53.7083 28.165 53.9311 28.2596C54.1538 28.3542 54.3933 28.403 54.6353 28.403C54.8773 28.403 55.1169 28.3542 55.3396 28.2596C55.5624 28.165 55.7638 28.0265 55.9318 27.8523C56.0998 27.6781 56.231 27.4719 56.3176 27.2459C56.4041 27.0198 56.4442 26.7787 56.4355 26.5369V24.5421C56.4355 24.065 56.246 23.6074 55.9086 23.27C55.5712 22.9326 55.1136 22.7431 54.6365 22.7431Z" fill="#00D1B3"/>
<path d="M58.9596 14.468C59.196 14.468 59.4301 14.4214 59.6486 14.3309C59.867 14.2403 60.0654 14.1076 60.2325 13.9403C60.3996 13.773 60.532 13.5744 60.6223 13.3559C60.7126 13.1373 60.7589 12.9031 60.7586 12.6667V9.24341C60.7418 8.77718 60.5448 8.33564 60.209 8.01174C59.8733 7.68784 59.4249 7.50684 58.9584 7.50684C58.4919 7.50684 58.0435 7.68784 57.7078 8.01174C57.372 8.33564 57.175 8.77718 57.1582 9.24341V12.6667C57.1582 13.1444 57.348 13.6026 57.6858 13.9404C58.0236 14.2782 58.4818 14.468 58.9596 14.468Z" fill="#423E4F"/>
<path d="M22.0378 56.0414C22.0364 50.1254 23.4617 44.2964 26.1928 39.0486L26.06 39.0928C22.8773 41.4527 20.3288 44.5643 18.6422 48.1495C16.9556 51.7348 16.1836 55.682 16.395 59.6385C16.6064 63.595 17.7948 67.4375 19.8538 70.8226C21.9129 74.2077 24.7785 77.03 28.1946 79.0372C24.1701 72.5938 22.0378 64.645 22.0378 56.0414Z" fill="#00D1B3"/>
</svg>
