<svg width="102" height="99" viewBox="0 0 102 99" fill="none" xmlns="http://www.w3.org/2000/svg">
<path d="M8.03906 62.9157C8.03906 39.3392 27.2192 20.1591 50.7957 20.1591C74.3721 20.1591 93.5522 39.3392 93.5522 62.9157H8.03906Z" fill="#5C586F"/>
<path d="M86.2307 75.0152C91.7569 75.0152 96.2367 70.5354 96.2367 65.0092C96.2367 59.483 91.7569 55.0031 86.2307 55.0031C80.7045 55.0031 76.2246 59.483 76.2246 65.0092C76.2246 70.5354 80.7045 75.0152 86.2307 75.0152Z" fill="#FFC69F"/>
<path d="M21.3474 59.489C21.3474 44.4213 27.803 30.974 37.9202 22.1454C20.6127 27.6241 8.03906 43.8295 8.03906 62.9163H21.4606C21.3871 61.7845 21.3474 60.6407 21.3474 59.489Z" fill="#4F4C5F"/>
<path d="M85.3575 55.0707C85.0528 53.7259 84.4228 52.4764 83.5226 51.4318C82.6225 50.3873 81.4797 49.5796 80.1946 49.0798C71.7751 45.7755 66.2151 37.5804 66.2151 37.5804C58.8242 50.1004 42.2295 50.4023 42.2295 50.4023C47.2077 45.4241 44.1894 37.5804 44.1894 37.5804C38.4408 44.2008 29.7195 46.7465 23.3751 47.7076C21.767 47.9463 20.2638 48.6496 19.0502 49.7313C17.8366 50.813 16.9655 52.2257 16.5442 53.7959C15.7333 56.8446 15.3327 59.9879 15.3528 63.1427C15.4779 82.4459 31.2386 98.2105 50.5378 98.3436C55.8788 98.3779 61.1585 97.2053 65.9828 94.9132C70.8071 92.6211 75.0512 89.2688 78.3984 85.1066C81.7455 80.9444 84.1091 76.0798 85.3128 70.8761C86.5164 65.6724 86.529 60.264 85.3495 55.0548L85.3575 55.0707Z" fill="#FFD3BC"/>
<path d="M36.0558 95.1226C27.0207 86.3159 21.3475 73.6112 21.3475 59.4888C21.3454 55.5737 21.7891 51.6711 22.67 47.8564C21.2066 48.2046 19.8646 48.9421 18.7861 49.9908C17.7077 51.0396 16.933 52.3604 16.544 53.8136C16.4342 54.2239 16.3329 54.639 16.2402 55.0586C15.948 55.0274 15.6544 55.0121 15.3605 55.0129C12.7068 55.0129 10.1617 56.0671 8.2852 57.9436C6.4087 59.8201 5.35449 62.3652 5.35449 65.019C5.35449 67.6728 6.4087 70.2178 8.2852 72.0943C10.1617 73.9708 12.7068 75.025 15.3605 75.025C16.0501 75.043 16.7377 74.9436 17.3939 74.7312C18.9943 79.201 21.4692 83.3072 24.674 86.81C27.8789 90.3128 31.7494 93.142 36.0597 95.1325L36.0558 95.1226Z" fill="#FFC69F"/>
<path d="M32.5591 70.5061C35.9745 70.5061 38.7426 68.2582 38.7426 65.4842C38.7426 62.7101 35.9765 60.4702 32.5591 60.4702C29.1416 60.4702 26.3735 62.7181 26.3735 65.4921C26.3735 68.2662 29.1456 70.5061 32.5591 70.5061Z" fill="#FFBE9C"/>
<path d="M69.0307 70.5061C72.4462 70.5061 75.2162 68.2582 75.2162 65.4842C75.2162 62.7101 72.4462 60.4702 69.0307 60.4702C65.6153 60.4702 62.8472 62.7181 62.8472 65.4921C62.8472 68.2662 65.6153 70.5061 69.0307 70.5061Z" fill="#FFBE9C"/>
<path d="M38.4551 59.0248C38.2781 59.0276 38.1034 59.0653 37.941 59.1358C37.7786 59.2062 37.6317 59.3079 37.5087 59.4352C37.3857 59.5625 37.289 59.7127 37.2241 59.8774C37.1592 60.0421 37.1274 60.218 37.1306 60.3949V62.8533C37.1306 63.2045 37.2701 63.5414 37.5185 63.7898C37.7669 64.0382 38.1038 64.1777 38.4551 64.1777C38.8063 64.1777 39.1432 64.0382 39.3916 63.7898C39.64 63.5414 39.7795 63.2045 39.7795 62.8533V60.3949C39.7827 60.218 39.7509 60.0421 39.686 59.8774C39.6212 59.7127 39.5244 59.5625 39.4014 59.4352C39.2784 59.3079 39.1315 59.2062 38.9691 59.1358C38.8067 59.0653 38.632 59.0276 38.4551 59.0248Z" fill="#313D40"/>
<path d="M63.1948 59.0248C63.0177 59.0276 62.843 59.0653 62.6805 59.1357C62.518 59.2061 62.3709 59.3078 62.2478 59.4351C62.1246 59.5623 62.0277 59.7126 61.9626 59.8773C61.8975 60.042 61.8655 60.2179 61.8683 60.3949V62.8533C61.8683 63.2061 62.0085 63.5445 62.258 63.794C62.5075 64.0435 62.8459 64.1837 63.1988 64.1837C63.5516 64.1837 63.89 64.0435 64.1395 63.794C64.389 63.5445 64.5292 63.2061 64.5292 62.8533V60.3949C64.5321 60.2172 64.4998 60.0407 64.4342 59.8755C64.3686 59.7102 64.271 59.5596 64.147 59.4323C64.023 59.305 63.875 59.2034 63.7116 59.1335C63.5482 59.0635 63.3725 59.0266 63.1948 59.0248Z" fill="#313D40"/>
<path d="M54.9558 72.5536C54.8261 72.4358 54.6738 72.3455 54.5081 72.2881C54.3425 72.2308 54.1669 72.2077 53.9921 72.2201C53.8173 72.2326 53.6468 72.2803 53.4909 72.3605C53.335 72.4407 53.197 72.5516 53.0853 72.6867C52.8099 73.0197 52.4644 73.2877 52.0734 73.4718C51.6824 73.6558 51.2556 73.7512 50.8235 73.7512C50.3914 73.7512 49.9646 73.6558 49.5737 73.4718C49.1827 73.2877 48.8372 73.0197 48.5618 72.6867C48.45 72.5516 48.312 72.4407 48.1562 72.3605C48.0003 72.2803 47.8298 72.2326 47.655 72.2201C47.4801 72.2077 47.3046 72.2308 47.1389 72.2881C46.9733 72.3455 46.821 72.4358 46.6912 72.5536C46.4261 72.7978 46.265 73.1346 46.2413 73.4942C46.2177 73.8539 46.3332 74.2089 46.5642 74.4857C47.0829 75.113 47.7337 75.618 48.4702 75.9647C49.2066 76.3113 50.0105 76.4911 50.8245 76.4911C51.6385 76.4911 52.4424 76.3113 53.1789 75.9647C53.9154 75.618 54.5662 75.113 55.0849 74.4857C55.316 74.2089 55.4316 73.8536 55.4075 73.4938C55.3835 73.134 55.2217 72.7972 54.9558 72.5536Z" fill="#313D40"/>
<path d="M97.1944 1.40227L92.5226 10.7461C90.7844 14.2226 87.2311 16.4185 83.3444 16.4185H18.6558C14.7689 16.4185 11.2158 14.2224 9.47768 10.7461L4.80587 1.40227C4.37603 0.542814 3.49759 0 2.53688 0C1.13578 0 0 1.13578 0 2.53688V12.3141C0 23.6487 9.18846 32.8372 20.5231 32.8372H81.4769C92.8115 32.8372 102 23.6487 102 12.3141V2.53688C102 1.13578 100.864 0 99.4634 0C98.5026 0 97.6242 0.542814 97.1944 1.40227Z" fill="#FCF2D0"/>
<path d="M81.4771 24.6276H20.5231C9.18846 24.6276 0 15.4391 0 4.10449V12.3137C0 23.6484 9.18846 32.8368 20.5231 32.8368H81.4769C92.8115 32.8368 102 23.6484 102 12.3137V4.10449C102 15.4391 92.8118 24.6276 81.4771 24.6276Z" fill="#EFDFB4"/>
<path d="M50.9996 8.69208C29.6637 8.69208 12.3677 25.9881 12.3677 47.324H89.6315C89.6312 25.9881 72.3352 8.69208 50.9996 8.69208Z" fill="#9AA3B1"/>
<path d="M50.9998 8.6922H50.9996C29.6639 8.6922 12.3677 25.9882 12.3677 47.3241H26.8547C26.8547 31.1116 36.8423 17.234 51 11.5035V8.6922H50.9998Z" fill="#7E8B9E"/>
<path d="M51.0005 0C48.3335 0 46.1714 2.16211 46.1714 4.82907V47.3242H55.8293V4.82907C55.8293 2.16211 53.6674 0 51.0005 0V0Z" fill="#FCF2D0"/>
<path d="M51.0005 29.4341C48.3335 29.4341 46.1714 27.272 46.1714 24.605V47.3238H55.8293V24.605C55.8293 27.2722 53.6674 29.4341 51.0005 29.4341Z" fill="#EFDFB4"/>
<path d="M96.875 52.1528H5.12448C2.45752 52.1528 0.29541 49.9907 0.29541 47.3238C0.29541 44.6568 2.45752 42.4947 5.12448 42.4947H96.8752C99.5422 42.4947 101.704 44.6568 101.704 47.3238C101.704 49.991 99.542 52.1528 96.875 52.1528Z" fill="#C6C6C6"/>
<path d="M41.6254 47.3238C41.6254 44.6568 43.7875 42.4947 46.4545 42.4947H5.12448C2.45752 42.4947 0.29541 44.6568 0.29541 47.3238C0.29541 49.9907 2.45752 52.1528 5.12448 52.1528H46.4545C43.7873 52.1528 41.6254 49.991 41.6254 47.3238Z" fill="#9AA3B1"/>
<path d="M69.3076 34.9118C71.9746 34.9118 74.1367 32.7498 74.1367 30.0827C74.1367 27.4157 71.9746 25.2537 69.3076 25.2537C66.6406 25.2537 64.4785 27.4157 64.4785 30.0827C64.4785 32.7498 66.6406 34.9118 69.3076 34.9118Z" fill="#7E8B9E"/>
<path d="M32.6919 34.9118C35.3589 34.9118 37.5209 32.7498 37.5209 30.0827C37.5209 27.4157 35.3589 25.2537 32.6919 25.2537C30.0248 25.2537 27.8628 27.4157 27.8628 30.0827C27.8628 32.7498 30.0248 34.9118 32.6919 34.9118Z" fill="#7E8B9E"/>
</svg>
