<svg width="102" height="95" viewBox="0 0 102 95" fill="none" xmlns="http://www.w3.org/2000/svg">
<path d="M2.96863 8.33829C2.96863 11.0433 2.03955 13.0454 0.656196 14.5253C0.421397 14.7837 0.242742 15.0879 0.131522 15.4189C0.0203018 15.7498 -0.0210645 16.1002 0.010037 16.4479C0.0411386 16.7956 0.144032 17.1331 0.312214 17.439C0.480396 17.7449 0.71021 18.0127 0.987131 18.2252C3.57911 20.2355 8.52258 22.661 16.0806 20.772L23.5298 8.97344C19.0138 -3.54864 2.96863 -2.21668 2.96863 8.33829Z" fill="#FBC072"/>
<path d="M30.4414 8.44384C29.7002 7.70325 28.817 7.12012 27.8449 6.72948C26.8727 6.33884 25.8315 6.14875 24.784 6.17064C23.7365 6.19253 22.7042 6.42594 21.7492 6.85685C20.7942 7.28775 19.9361 7.90727 19.2266 8.67817C17.1063 10.9789 15.2011 13.4689 13.5349 16.117C12.5965 17.6091 12.1924 19.3756 12.3888 21.1273C12.5852 22.879 13.3705 24.5121 14.6161 25.7593L16.1598 27.303L30.4414 8.44384Z" fill="#B08BD7"/>
<path d="M95.3929 82.0208C97.841 93.1842 84.6586 94.302 84.6586 94.302C84.6586 94.302 80.0064 88.0864 79.2398 87.1301C78.4733 86.1739 77.1376 83.3051 72.3564 82.9864C67.5751 82.6676 62.6345 75.6551 56.1001 75.4957C53.814 75.44 46.2189 77.0895 42.7126 80.4364C31.4139 84.7829 17.6328 89.2787 19.2244 82.0208C22.8955 65.0486 13.8657 67.6467 13.8657 43.5543C13.8777 32.0362 18.4585 20.9932 26.6031 12.8487C34.7476 4.70415 45.7905 0.123299 57.3086 0.111328C81.2655 0.111328 100.752 19.5995 100.752 43.5543C100.752 67.6467 91.7218 65.0486 95.3929 82.0208Z" fill="#FCCB88"/>
<path d="M26.5886 36.7374C26.5886 23.9337 33.2258 12.055 41.7726 2.25439C33.3975 5.30574 26.1637 10.8594 21.0526 18.1621C15.9414 25.4648 13.2004 34.1629 13.2012 43.0766C13.2012 67.169 22.231 64.5709 18.5599 81.5431C16.1118 92.7065 27.4125 92.7085 27.4125 92.7085C27.4125 92.7085 33.15 85.0584 34.1062 84.1022C35.0625 83.146 38.0906 82.0303 40.6406 82.3491L47.175 77.5678C21.0106 74.5606 26.5886 68.3242 26.5886 36.7374Z" fill="#FBC072"/>
<path d="M92.4028 56.9047C97.7031 56.9047 102 52.6079 102 47.3076C102 42.0072 97.7031 37.7104 92.4028 37.7104C87.1024 37.7104 82.8057 42.0072 82.8057 47.3076C82.8057 52.6079 87.1024 56.9047 92.4028 56.9047Z" fill="#FFBE9C"/>
<path d="M92.4033 43.0768C92.4111 37.9444 91.3081 32.8712 89.17 28.2053C88.3871 26.4877 87.0271 25.0987 85.3264 24.2797C83.6256 23.4606 81.6917 23.2634 79.8607 23.7223C73.0775 25.4366 65.1289 26.4211 56.6336 26.4211C48.1382 26.4211 40.2019 25.4366 33.4064 23.7223C31.5934 23.2605 29.676 23.4458 27.9848 24.2461C26.2937 25.0465 24.9348 26.4118 24.1423 28.1066C21.9715 32.7992 20.8492 37.9085 20.8535 43.0789C20.8535 62.6513 36.7918 78.7109 56.3643 78.8445C61.0835 78.8806 65.7633 77.9823 70.1338 76.2015C74.5042 74.4206 78.4791 71.7924 81.8291 68.4683C85.1792 65.1442 87.8383 61.19 89.6531 56.8335C91.4679 52.477 92.4026 47.8044 92.4033 43.085V43.0768Z" fill="#FFD3BC"/>
<path d="M36.5263 72.6032C30.2776 62.5456 26.588 50.1469 26.588 36.7327C26.6122 32.3782 27.3389 28.0561 28.7401 23.9331C27.7362 24.2855 26.8131 24.8356 26.0254 25.5509C25.2377 26.2662 24.6015 27.1321 24.1543 28.0975C22.7448 31.1526 21.776 34.3921 21.2766 37.7193C21.145 37.7193 21.0135 37.709 20.8655 37.709C19.5935 37.6904 18.3305 37.9249 17.1499 38.3988C15.9694 38.8727 14.8948 39.5765 13.9887 40.4695C13.0826 41.3624 12.3631 42.4266 11.872 43.6001C11.3808 44.7736 11.1279 46.033 11.1279 47.3051C11.1279 48.5773 11.3808 49.8367 11.872 51.0102C12.3631 52.1837 13.0826 53.2479 13.9887 54.1408C14.8948 55.0337 15.9694 55.7376 17.1499 56.2115C18.3305 56.6854 19.5935 56.9198 20.8655 56.9012C21.7568 56.9293 22.6433 56.7602 23.4616 56.4058C26.1317 62.9706 30.6756 68.6039 36.5263 72.6032Z" fill="#FFBE9C"/>
<path d="M37.7637 53.0196C41.2992 53.0196 44.1645 50.6928 44.1645 47.8233C44.1645 44.9538 41.3094 42.6249 37.7637 42.6249C34.218 42.6249 31.3608 44.9518 31.3608 47.8233C31.3608 50.6948 34.2283 53.0196 37.7637 53.0196Z" fill="#FFBF9D"/>
<path d="M75.5141 53.0196C79.0496 53.0196 81.917 50.6928 81.917 47.8233C81.917 44.9539 79.0496 42.625 75.5141 42.625C71.9786 42.625 69.1133 44.9518 69.1133 47.8233C69.1133 50.6949 71.9786 53.0196 75.5141 53.0196Z" fill="#FFBF9D"/>
<path d="M43.8642 41.1353C43.4944 41.1417 43.1423 41.2948 42.8852 41.5607C42.6282 41.8266 42.4872 42.1837 42.4932 42.5535V45.0962C42.4861 45.2808 42.5163 45.465 42.582 45.6377C42.6477 45.8104 42.7476 45.9681 42.8758 46.1013C43.0039 46.2344 43.1575 46.3404 43.3276 46.4127C43.4976 46.4851 43.6805 46.5224 43.8653 46.5224C44.05 46.5224 44.2329 46.4851 44.403 46.4127C44.573 46.3404 44.7267 46.2344 44.8548 46.1013C44.9829 45.9681 45.0828 45.8104 45.1485 45.6377C45.2143 45.465 45.2445 45.2808 45.2373 45.0962V42.5535C45.2403 42.3703 45.2072 42.1882 45.1398 42.0177C45.0724 41.8472 44.9721 41.6917 44.8446 41.56C44.7171 41.4283 44.5649 41.323 44.3966 41.2501C44.2284 41.1772 44.0475 41.1382 43.8642 41.1353Z" fill="#313D40"/>
<path d="M69.4698 41.1353C69.2865 41.1382 69.1056 41.1772 68.9374 41.2501C68.7692 41.323 68.617 41.4283 68.4895 41.56C68.362 41.6917 68.2617 41.8472 68.1943 42.0177C68.1269 42.1882 68.0937 42.3703 68.0967 42.5535V45.0962C68.0896 45.2808 68.1198 45.465 68.1855 45.6377C68.2512 45.8104 68.3512 45.9681 68.4793 46.1013C68.6074 46.2344 68.761 46.3404 68.9311 46.4127C69.1011 46.4851 69.284 46.5224 69.4688 46.5224C69.6536 46.5224 69.8364 46.4851 70.0065 46.4127C70.1765 46.3404 70.3302 46.2344 70.4583 46.1013C70.5864 45.9681 70.6863 45.8104 70.752 45.6377C70.8178 45.465 70.848 45.2808 70.8408 45.0962V42.5535C70.8469 42.1837 70.7059 41.8266 70.4488 41.5607C70.1917 41.2948 69.8396 41.1417 69.4698 41.1353Z" fill="#313D40"/>
<path d="M60.9456 55.1408C60.8117 55.0184 60.6544 54.9246 60.4831 54.865C60.3119 54.8053 60.1303 54.7811 59.9494 54.7938C59.7685 54.8065 59.5921 54.8558 59.4308 54.9388C59.2696 55.0217 59.1269 55.1366 59.0114 55.2764C58.7266 55.6218 58.3689 55.8999 57.9639 56.0909C57.559 56.2818 57.1168 56.3808 56.6692 56.3808C56.2215 56.3808 55.7793 56.2818 55.3744 56.0909C54.9694 55.8999 54.6117 55.6218 54.3269 55.2764C54.2114 55.1366 54.0687 55.0217 53.9075 54.9388C53.7462 54.8558 53.5698 54.8065 53.3889 54.7938C53.208 54.7811 53.0264 54.8053 52.8552 54.865C52.6839 54.9246 52.5266 55.0184 52.3927 55.1408C52.1175 55.393 51.95 55.7415 51.9251 56.114C51.9002 56.4865 52.0198 56.8542 52.2591 57.1408C52.7964 57.7894 53.4703 58.3116 54.2326 58.67C54.9948 59.0284 55.8268 59.2142 56.6692 59.2142C57.5115 59.2142 58.3435 59.0284 59.1057 58.67C59.868 58.3116 60.5419 57.7894 61.0792 57.1408C61.3185 56.8542 61.4381 56.4865 61.4132 56.114C61.3883 55.7415 61.2208 55.393 60.9456 55.1408Z" fill="#313D40"/>
<circle cx="42.0276" cy="42.8768" r="9.60186" fill="#5E6366" fill-opacity="0.9"/>
<circle cx="70.991" cy="42.8768" r="9.60186" fill="#5E6366" fill-opacity="0.9"/>
<path d="M71.7533 31.3862C69.2026 31.3901 66.7274 32.2528 64.7268 33.8352C62.7263 35.4177 61.3169 37.6277 60.7258 40.1091C59.4903 39.5724 58.1577 39.2955 56.8107 39.2955C55.4637 39.2955 54.1311 39.5724 52.8956 40.1091C52.2305 37.3015 50.5195 34.8534 48.1116 33.2639C45.7036 31.6744 42.78 31.0633 39.937 31.5552C37.094 32.0471 34.5457 33.605 32.8117 35.9111C31.0778 38.2172 30.2888 41.0979 30.6057 43.9657C30.9226 46.8335 32.3215 49.4724 34.5171 51.3443C36.7127 53.2162 39.5397 54.1801 42.4215 54.0394C45.3034 53.8987 48.023 52.664 50.0258 50.5872C52.0286 48.5103 53.1638 45.7476 53.1999 42.8626C54.2981 42.2264 55.5448 41.8913 56.8141 41.8913C58.0833 41.8913 59.33 42.2264 60.4283 42.8626C60.4568 45.0977 61.1457 47.2745 62.4084 49.119C63.671 50.9636 65.451 52.3934 67.5244 53.2288C69.5977 54.0641 71.8718 54.2676 74.0605 53.8137C76.2493 53.3597 78.2548 52.2685 79.8249 50.6775C81.395 49.0864 82.4594 47.0665 82.8843 44.872C83.3092 42.6774 83.0756 40.4062 82.2128 38.3442C81.35 36.2821 79.8966 34.5212 78.0355 33.2831C76.1744 32.0451 73.9886 31.3851 71.7533 31.3862ZM41.8697 51.456C40.1409 51.456 38.4508 50.9433 37.0133 49.9828C35.5758 49.0223 34.4554 47.6571 33.7938 46.0598C33.1322 44.4626 32.9591 42.705 33.2964 41.0093C33.6336 39.3137 34.4662 37.7561 35.6887 36.5336C36.9112 35.3111 38.4687 34.4786 40.1644 34.1413C41.86 33.804 43.6176 33.9771 45.2149 34.6387C46.8122 35.3003 48.1774 36.4207 49.1379 37.8582C50.0984 39.2957 50.6111 40.9858 50.6111 42.7147C50.6111 45.033 49.6901 47.2564 48.0508 48.8957C46.4115 50.535 44.1881 51.456 41.8697 51.456ZM71.7533 51.456C70.0245 51.456 68.3344 50.9433 66.8969 49.9828C65.4594 49.0223 64.339 47.6571 63.6774 46.0598C63.0158 44.4626 62.8427 42.705 63.18 41.0093C63.5172 39.3137 64.3498 37.7561 65.5723 36.5336C66.7948 35.3111 68.3523 34.4786 70.048 34.1413C71.7436 33.804 73.5012 33.9771 75.0985 34.6387C76.6958 35.3003 78.061 36.4207 79.0215 37.8582C79.982 39.2957 80.4947 40.9858 80.4947 42.7147C80.4947 45.033 79.5737 47.2564 77.9344 48.8957C76.2951 50.535 74.0717 51.456 71.7533 51.456Z" fill="#3F3F3F"/>
</svg>
