<svg width="158" height="158" viewBox="0 0 158 158" fill="none" xmlns="http://www.w3.org/2000/svg">
<path d="M151.109 63.4475H139.295C137.535 63.4475 135.908 62.5084 135.028 60.9836L122.617 39.487C121.737 37.9626 121.737 36.0841 122.617 34.5594L128.523 24.3283C130.427 21.0322 129.297 16.8174 126.001 14.9146L110.999 6.25331C107.703 4.35022 103.488 5.47967 101.585 8.77576L95.6786 19.0066C94.7985 20.531 93.1715 21.4704 91.4113 21.4704H66.5893C64.8288 21.4704 63.2022 20.5313 62.3221 19.0066L56.4153 8.77576C54.5122 5.47967 50.2977 4.35052 47.0016 6.25331L31.9996 14.9146C28.7035 16.8177 27.5741 21.0322 29.4772 24.3283L35.384 34.5594C36.2641 36.0838 36.2641 37.9622 35.384 39.487L22.973 60.9836C22.0928 62.5081 20.4659 63.4475 18.7057 63.4475H6.89121C3.08532 63.4475 0 66.5331 0 70.339V87.6616C0 91.4675 3.08532 94.5528 6.89121 94.5528H18.7048C20.4653 94.5528 22.0919 95.4921 22.972 97.0166L35.383 118.513C36.2632 120.038 36.2632 121.916 35.383 123.441L29.4763 133.672C27.5732 136.968 28.7026 141.183 31.9987 143.086L47.0007 151.747C50.2968 153.65 54.5115 152.521 56.4143 149.224L62.3211 138.994C63.2012 137.469 64.8281 136.53 66.5884 136.53H91.4104C93.1709 136.53 94.7975 137.469 95.6776 138.994L101.584 149.224C103.488 152.521 107.702 153.65 110.998 151.747L126 143.086C129.296 141.183 130.425 136.968 128.523 133.672L122.617 123.441C121.737 121.916 121.737 120.038 122.617 118.513L135.028 97.0163C135.908 95.4918 137.535 94.5525 139.295 94.5525H151.109C154.915 94.5525 158 91.4671 158 87.6613V70.3387C158 66.5331 154.915 63.4475 151.109 63.4475ZM79 95.8911C69.6712 95.8911 62.1088 88.3288 62.1088 79C62.1088 69.6712 69.6712 62.1091 79 62.1091C88.3288 62.1091 95.8912 69.6715 95.8912 79.0003C95.8912 88.3291 88.3288 95.8911 79 95.8911Z" fill="#5E6366"/>
<path d="M78.9997 44.8049C60.1143 44.8049 44.8047 60.1146 44.8047 78.9999C44.8047 97.8853 60.1143 113.195 78.9997 113.195C97.885 113.195 113.195 97.8853 113.195 78.9999C113.195 60.1146 97.885 44.8049 78.9997 44.8049ZM78.9997 95.8911C69.6709 95.8911 62.1085 88.3287 62.1085 78.9999C62.1085 69.6711 69.6709 62.109 78.9997 62.109C88.3285 62.109 95.8909 69.6714 95.8909 79.0002C95.8909 88.329 88.3285 95.8911 78.9997 95.8911Z" fill="#3F3F3F"/>
<path opacity="0.2" d="M56.4146 149.225L62.3214 138.994C63.2015 137.469 64.8285 136.53 66.5887 136.53H91.4107C93.1713 136.53 94.7979 137.469 95.678 138.994L101.585 149.225C103.488 152.521 107.702 153.65 110.998 151.747L126 143.086C128.04 141.908 129.249 139.845 129.424 137.662C102.472 128.372 85.4925 113.219 76.1483 95.6472C68.1782 94.2916 62.1085 87.3569 62.1085 79.0005C62.1085 74.1509 64.1551 69.7821 67.4284 66.7014C65.8156 51.4378 68.277 35.7797 73.6289 21.4709H66.5887C64.8281 21.4709 63.2015 20.5318 62.3214 19.007L56.4146 8.77623C54.5115 5.48014 50.2971 4.351 47.001 6.25379L31.999 14.9151C28.7029 16.8182 27.5735 21.0327 29.4766 24.3287L35.3834 34.5599C36.2635 36.0843 36.2635 37.9627 35.3834 39.4875L22.9723 60.9841C22.0922 62.5086 20.4653 63.4479 18.7048 63.4479H6.89121C3.08532 63.4476 0 66.5333 0 70.3392V87.6618C0 91.4676 3.08532 94.553 6.89121 94.553H18.7048C20.4653 94.553 22.0919 95.4923 22.9723 97.0168L35.3834 118.513C36.2635 120.038 36.2635 121.916 35.3834 123.441L29.4766 133.672C27.5735 136.968 28.7029 141.183 31.999 143.086L47.001 151.747C50.2971 153.65 54.5119 152.52 56.4146 149.225Z" fill="#3F3F3F"/>
<g opacity="0.15">
<path opacity="0.15" d="M104.242 37.5898C103.85 37.5898 103.452 37.4898 103.087 37.2794C101.98 36.6403 101.601 35.2247 102.24 34.1178L107.572 24.8822C108.211 23.775 109.627 23.396 110.734 24.0351C111.841 24.6742 112.22 26.0898 111.581 27.1967L106.249 36.4326C105.82 37.1751 105.042 37.5898 104.242 37.5898Z" fill="#3F3F3F"/>
<path opacity="0.15" d="M53.7566 37.5897C52.9567 37.5897 52.1787 37.1746 51.7501 36.4321L46.4179 27.1965C45.7788 26.0896 46.158 24.6741 47.265 24.035C48.3716 23.3962 49.7874 23.7749 50.4265 24.8821L55.7587 34.1177C56.3978 35.2246 56.0186 36.6401 54.9116 37.2792C54.5475 37.4897 54.1494 37.5897 53.7566 37.5897Z" fill="#3F3F3F"/>
<path opacity="0.15" d="M109.579 134.275C108.779 134.275 108.001 133.86 107.572 133.117L102.24 123.882C101.601 122.775 101.98 121.359 103.087 120.72C104.194 120.082 105.61 120.46 106.249 121.567L111.581 130.803C112.22 131.91 111.841 133.325 110.734 133.964C110.369 134.175 109.971 134.275 109.579 134.275Z" fill="#3F3F3F"/>
<path opacity="0.15" d="M48.42 134.275C48.0272 134.275 47.6294 134.175 47.265 133.964C46.158 133.325 45.7788 131.91 46.4179 130.803L51.7501 121.567C52.3892 120.46 53.8047 120.082 54.9116 120.72C56.0186 121.359 56.3978 122.775 55.7587 123.882L50.4265 133.117C49.9979 133.86 49.2199 134.275 48.42 134.275Z" fill="#3F3F3F"/>
<path opacity="0.15" d="M28.5104 81.3145H17.8457C16.5675 81.3145 15.5312 80.2785 15.5312 79C15.5312 77.7215 16.5675 76.6855 17.8457 76.6855H28.5101C29.7883 76.6855 30.8245 77.7215 30.8245 79C30.8245 80.2785 29.7886 81.3145 28.5104 81.3145Z" fill="#3F3F3F"/>
<path opacity="0.15" d="M140.153 81.3145H129.488C128.21 81.3145 127.174 80.2785 127.174 79C127.174 77.7215 128.21 76.6855 129.488 76.6855H140.153C141.431 76.6855 142.467 77.7215 142.467 79C142.467 80.2785 141.431 81.3145 140.153 81.3145Z" fill="#3F3F3F"/>
</g>
</svg>
