<svg width="71" height="70" viewBox="0 0 71 70" fill="none" xmlns="http://www.w3.org/2000/svg">
<circle cx="35.5" cy="35" r="35" fill="white"/>
<circle cx="35.5" cy="35" r="35" fill="#F4C222" fill-opacity="0.2"/>
<mask id="mask0_623_905" style="mask-type:alpha" maskUnits="userSpaceOnUse" x="0" y="0" width="71" height="70">
<circle cx="35.5" cy="35" r="35" fill="#EC5858"/>
</mask>
<g mask="url(#mask0_623_905)">
<path d="M45.8884 23.6062C45.4686 23.6064 45.0528 23.524 44.6649 23.3636C44.277 23.2032 43.9245 22.9679 43.6275 22.6714C43.3306 22.3748 43.0951 22.0226 42.9343 21.635C42.7736 21.2474 42.6909 20.8319 42.6909 20.4124V14.5706C42.7056 13.6384 42.5345 12.7126 42.1877 11.8471C41.8408 10.9816 41.3252 10.1937 40.6707 9.52934C40.0163 8.86493 39.2361 8.33728 38.3756 7.97712C37.5152 7.61695 36.5916 7.43147 35.6587 7.43147C34.7258 7.43147 33.8023 7.61695 32.9418 7.97712C32.0813 8.33728 31.3011 8.86493 30.6467 9.52934C29.9922 10.1937 29.4766 10.9816 29.1298 11.8471C28.7829 12.7126 28.6119 13.6384 28.6265 14.5706V20.4124C28.6071 21.2468 28.2617 22.0405 27.6644 22.6237C27.067 23.207 26.265 23.5335 25.4299 23.5335C24.5948 23.5335 23.7928 23.207 23.1954 22.6237C22.5981 22.0405 22.2527 21.2468 22.2333 20.4124V14.5706C22.2131 12.7958 22.5455 11.0346 23.2111 9.38909C23.8767 7.74354 24.8624 6.24633 26.1111 4.98415C27.3598 3.72198 28.8466 2.71993 30.4855 2.03603C32.1244 1.35214 33.8827 1 35.6587 1C37.4347 1 39.1931 1.35214 40.832 2.03603C42.4708 2.71993 43.9577 3.72198 45.2063 4.98415C46.455 6.24633 47.4407 7.74354 48.1063 9.38909C48.772 11.0346 49.1043 12.7958 49.0841 14.5706V20.4124C49.0841 21.2594 48.7475 22.0718 48.1481 22.6707C47.5488 23.2697 46.736 23.6062 45.8884 23.6062Z" fill="#CE2489"/>
<path d="M3.36507 46.8432C0.506557 48.0287 -1.95996 49.995 -3.75188 52.5168C-5.5438 55.0387 -6.58862 58.014 -6.76665 61.1018L-7.48105 73.4629C-7.57075 75.0204 -7.3413 76.5798 -6.80676 78.0456C-6.27221 79.5114 -5.44383 80.8527 -4.37237 81.9872C-3.30091 83.1218 -2.00893 84.0258 -0.575591 84.6438C0.857745 85.2618 2.40225 85.5808 3.96329 85.5813H11.7298L3.36507 46.8432Z" fill="#21B95C"/>
<path d="M67.9507 46.8432C70.8092 48.0287 73.2757 49.995 75.0677 52.5168C76.8596 55.0387 77.9044 58.014 78.0824 61.1018L78.7968 73.4629C78.8865 75.0204 78.6571 76.5798 78.1225 78.0456C77.588 79.5114 76.7596 80.8527 75.6881 81.9872C74.6167 83.1218 73.3247 84.0258 71.8914 84.6438C70.458 85.2618 68.9135 85.5808 67.3525 85.5813H59.5859L67.9507 46.8432Z" fill="#21B95C"/>
<path d="M25.4291 23.6063C26.2769 23.6063 27.0899 23.2698 27.6895 22.6709C28.2891 22.072 28.6262 21.2597 28.6266 20.4125V14.5707C28.6241 12.9227 29.2045 11.3269 30.2653 10.0651C27.7311 10.1916 25.2095 10.5026 22.7207 10.9957C22.3974 12.1593 22.2335 13.3614 22.2334 14.569V20.4107C22.2332 20.8303 22.3157 21.2458 22.4762 21.6335C22.6367 22.0212 22.872 22.3735 23.1688 22.6702C23.4656 22.967 23.8179 23.2024 24.2058 23.363C24.5936 23.5236 25.0093 23.6063 25.4291 23.6063Z" fill="#AA1A77"/>
<path d="M42.6904 14.5707V20.4124C42.7098 21.2468 43.0552 22.0405 43.6525 22.6237C44.2499 23.207 45.0519 23.5335 45.887 23.5335C46.7221 23.5335 47.5241 23.207 48.1215 22.6237C48.7188 22.0405 49.0642 21.2468 49.0836 20.4124V14.5707C49.0835 13.363 48.9196 12.161 48.5964 10.9973C46.1076 10.5035 43.586 10.1925 41.0518 10.0667C42.1115 11.3284 42.6918 12.9234 42.6904 14.5707Z" fill="#AA1A77"/>
<path d="M69.2964 77.024C69.2964 21.8715 60.8658 14.3869 35.657 14.3869C10.4482 14.3869 2.01758 21.8715 2.01758 77.024H69.2964Z" fill="#F7CB52"/>
<path d="M69.2973 77.0241C69.2973 67.1342 69.0251 58.7762 68.4303 51.7231C65.6386 47.8275 61.5897 44.8746 56.3877 42.9493C50.9291 40.9304 44.1475 39.9496 35.6527 39.9496C27.1578 39.9496 20.3762 40.9304 14.9193 42.9493C9.71736 44.8746 5.66675 47.8275 2.87676 51.7231C2.28547 58.7779 2.00977 67.1359 2.00977 77.0241H69.2973Z" fill="#F4C223"/>
<path d="M22.4392 38.9877L19.5092 52.1576C19.5092 52.1576 18.9192 56.0223 19.8507 63.6871C19.8507 63.6871 34.7412 67.8323 56.9597 62.5479C56.9597 62.5479 58.1712 41.6682 50.6543 32.9416C43.1374 24.215 22.4392 38.9877 22.4392 38.9877Z" fill="#75B1C9"/>
<path d="M22.3279 38.87C21.6896 39.1025 19.6786 50.6864 19.6786 50.6864C52.8394 46.466 47.7654 36.9438 47.7654 36.9438C47.7654 36.9438 22.9698 38.638 22.3279 38.87Z" fill="#FFD3AE"/>
<ellipse cx="17.7795" cy="20.6861" rx="3.62881" ry="3.6288" transform="rotate(-24.22 17.7795 20.6861)" fill="#FFE0C2"/>
<ellipse cx="18.5019" cy="20.6529" rx="2.91279" ry="2.91279" transform="rotate(-78.44 18.5019 20.6529)" fill="#FFD3AE"/>
<ellipse cx="55.4143" cy="19.554" rx="3.62881" ry="3.6288" transform="rotate(-24.22 55.4143 19.554)" fill="#FFE0C2"/>
<ellipse cx="54.6985" cy="19.5783" rx="2.91279" ry="2.91279" transform="rotate(-46.72 54.6985 19.5783)" fill="#FFD3AE"/>
<path d="M17.5638 23.4258C17.5638 23.4258 14.0514 6.64797 34.2882 6.03322C54.5251 5.41846 55.8891 22.2553 55.8891 22.2553C55.8891 22.2553 57.5764 33.7489 36.9896 34.38C16.4029 35.0112 17.5638 23.4258 17.5638 23.4258Z" fill="#FFE0C2"/>
<path d="M26.2267 18.2069C27.0144 18.1868 27.7972 18.3447 28.5136 18.6681C28.6043 18.2265 28.6415 17.7758 28.6244 17.3251C28.5687 15.6554 27.8483 14.3208 27.0119 14.3433C26.1754 14.3659 25.5499 15.7357 25.6061 17.4018C25.6162 17.6861 25.6459 17.9696 25.6951 18.2504C25.8718 18.2285 26.0477 18.2138 26.2267 18.2069Z" fill="#634E42"/>
<path d="M46.3129 17.5849C45.5257 17.6069 44.7551 17.8095 44.0627 18.1765C43.9426 17.7345 43.8745 17.2805 43.8598 16.8235C43.8063 15.1319 44.4376 13.7436 45.2706 13.7192C46.1036 13.6949 46.8258 15.0502 46.8797 16.7381C46.8886 17.0259 46.8773 17.3138 46.846 17.5999C46.6687 17.5857 46.4907 17.5807 46.3129 17.5849Z" fill="#634E42"/>
<path d="M17.5883 16.5514C17.5883 16.5514 17.5949 18.4841 18.9675 18.2768C20.3401 18.0694 20.5541 16.1483 20.5541 16.1483C20.5541 16.1483 22.0864 15.7259 22.0329 14.2404C22.0329 14.2404 24.6982 10.2121 19.9379 10.1562C19.9379 10.1562 15.7566 8.77389 16.6119 13.3731C16.6111 13.3807 13.7782 15.8187 17.5883 16.5514Z" fill="#EFEFEF"/>
<path d="M54.9129 15.5321C54.9129 15.5321 55.0139 17.4586 53.7449 17.3485C52.4759 17.2384 52.1679 15.3095 52.1679 15.3095C52.1679 15.3095 50.7226 14.9753 50.7013 13.4877C50.7013 13.4877 48.0254 9.61509 52.3934 9.29077C52.3934 9.29077 56.1506 7.66506 55.6286 12.3146C55.6298 12.3031 58.3665 14.5764 54.9129 15.5321Z" fill="#EFEFEF"/>
<path d="M36.8932 20.9667L37.7296 47.5676L37.3046 47.6586L36.8772 47.5911C34.7961 47.2291 29.6481 46.0207 29.2691 42.9538C29.2691 42.9538 21.45 42.3921 21.0394 38.5377C21.0394 38.5377 13.2542 34.7526 16.4684 28.8665C16.4684 28.8665 15.8292 17.7953 18.0784 15.7962L18.4048 16.8973C18.4048 16.8973 22.4648 19.5369 21.9876 22.6986C21.9876 22.6986 26.2763 21.7847 27.9813 24.746C27.9813 24.746 31.7522 20.4528 34.4305 20.5005C35.1109 20.4898 35.7906 20.5537 36.4572 20.6909C36.9632 20.8082 36.8932 20.9667 36.8932 20.9667Z" fill="#EFEFEF"/>
<path d="M52.9752 37.873C52.8051 41.7563 45.1001 42.7779 45.1001 42.7779C44.9147 45.8726 39.8935 47.3844 37.8589 47.8706L37.4375 47.9625L37.0138 47.8953L36.2128 21.2252C36.2128 21.2252 36.1268 21.0723 36.6258 20.8902C37.2771 20.7141 37.9456 20.6093 38.6194 20.5775C41.2664 20.3752 45.258 24.4538 45.258 24.4538C46.7432 21.3935 51.0694 22.0374 51.0694 22.0374C50.4019 18.8985 54.26 16.0158 54.26 16.0158L54.5125 14.9071C56.8627 16.7737 56.9057 27.9029 56.9057 27.9029C60.4502 33.6108 52.9752 37.873 52.9752 37.873Z" fill="#EFEFEF"/>
<path d="M41.925 9.67198C41.925 9.67198 40.7722 6.58433 44.2114 5.61831C47.6507 4.65229 48.6189 8.30642 48.6189 8.30642C48.6189 8.30642 46.1759 6.78518 44.6943 7.1968C43.2128 7.60843 42.7927 7.96104 41.925 9.67198Z" fill="#EFEFEF"/>
<path d="M23.0538 8.99195C23.0538 8.99195 23.3336 5.62438 26.8976 6.09078C30.4616 6.55718 29.7813 10.357 29.7813 10.357C29.7813 10.357 28.2028 7.9647 26.6709 7.76544C25.1389 7.56617 24.5945 7.73465 23.0538 8.99195Z" fill="#EFEFEF"/>
<path d="M40.688 18.519C40.5384 18.525 40.3895 18.5431 40.2428 18.5732C39.6311 17.9067 38.4954 17.4768 37.1961 17.5049C35.8968 17.5329 34.7891 18.0411 34.2161 18.7439C34.0675 18.7249 33.9177 18.7166 33.7679 18.7193C32.7963 18.7481 32.0248 19.2841 32.0438 19.9183C32.0628 20.5524 32.865 21.0369 33.8365 21.0081C33.9862 21.0026 34.1351 20.9844 34.2818 20.954C34.8972 21.6208 36.0292 22.0503 37.3285 22.0223C38.6278 21.9942 39.7359 21.4823 40.3089 20.7795C40.4559 20.8079 40.605 20.8235 40.7547 20.8263C41.7267 20.7939 42.4979 20.2615 42.4789 19.6273C42.4598 18.9932 41.678 18.4921 40.688 18.519Z" fill="#FFD3AE"/>
<path d="M16.039 45.6974C16.039 45.6974 7.96381 42.284 10.9287 34.2248C10.9287 34.2248 7.79479 29.2566 9.0032 27.8845C10.2116 26.5123 14.3511 27.6418 14.3511 27.6418C14.3511 27.6418 13.6249 26.1978 16.0539 25.815C18.4828 25.4321 15.4514 35.4459 21.9781 38.9381C26.3842 41.2831 21.4715 47.6459 16.039 45.6974Z" fill="#FFE0C2"/>
<path d="M16.6279 10.3959L16.4908 10.531C16.4489 10.574 16.3922 10.6075 16.3269 10.6278C16.2615 10.6481 16.19 10.6544 16.1202 10.6462C16.0504 10.6379 15.9849 10.6153 15.931 10.5808C15.877 10.5464 15.8366 10.5014 15.8141 10.4508C15.3935 9.4829 14.6432 8.61556 13.6386 7.93577C13.5686 7.88769 13.4774 7.86105 13.3828 7.86105C13.2881 7.86105 13.1969 7.88769 13.1269 7.93577C12.1226 8.61622 11.3717 9.48327 10.9486 10.4508C10.9276 10.5019 10.8884 10.5476 10.8351 10.5828C10.7818 10.6181 10.7167 10.6415 10.6468 10.6505C10.577 10.6594 10.5053 10.6536 10.4396 10.6336C10.3739 10.6137 10.3168 10.5803 10.2747 10.5374L10.1376 10.3959C10.1017 10.3596 10.0551 10.3302 10.0014 10.3099C9.94779 10.2896 9.88863 10.279 9.82865 10.279C9.76866 10.279 9.7095 10.2896 9.65586 10.3099C9.60223 10.3302 9.55559 10.3596 9.51966 10.3959C4.98685 14.9529 8.60247 18.0739 8.60247 18.0739H18.163C18.163 18.0739 21.7787 14.9529 17.2458 10.3959C17.2099 10.3596 17.1633 10.3302 17.1096 10.3099C17.056 10.2896 16.9968 10.279 16.9369 10.279C16.8769 10.279 16.8177 10.2896 16.7641 10.3099C16.7104 10.3302 16.6638 10.3596 16.6279 10.3959Z" fill="#EC631D"/>
<path d="M18.1631 18.0739H16.9327C16.9327 18.0739 20.4253 15.0669 16.2588 10.6493C16.3523 10.6358 16.4353 10.5957 16.4909 10.5374L16.6279 10.4022C16.6638 10.3659 16.7105 10.3365 16.7641 10.3162C16.8177 10.2959 16.8769 10.2854 16.9369 10.2854C16.9969 10.2854 17.056 10.2959 17.1097 10.3162C17.1633 10.3365 17.21 10.3659 17.2459 10.4022C21.7787 14.955 18.1631 18.0739 18.1631 18.0739Z" fill="#DD4429"/>
<path d="M19.9001 18.3231C19.8986 18.257 19.863 18.1939 19.8008 18.1473C19.7387 18.1008 19.6549 18.0744 19.5673 18.0739H7.19926C7.11171 18.0744 7.02791 18.1008 6.96574 18.1473C6.90357 18.1939 6.86795 18.257 6.8665 18.3231C6.83294 20.7431 9.76906 21.6236 9.76906 21.6236H16.9975C16.9975 21.6236 19.9336 20.7431 19.9001 18.3231Z" fill="#B7C1CA"/>
<path d="M19.9004 18.3231C19.934 20.7431 16.9979 21.6236 16.9979 21.6236H15.7451C15.7451 21.6236 18.6784 20.7431 18.6449 18.3231C18.6449 18.257 18.6101 18.1936 18.5482 18.1469C18.4864 18.1001 18.4024 18.0739 18.3149 18.0739H19.5677C19.6552 18.0744 19.739 18.1008 19.8012 18.1473C19.8634 18.1939 19.899 18.257 19.9004 18.3231Z" fill="#A3AEB7"/>
<path d="M13.3823 21.6237H9.80859L11.341 31.046C11.492 31.9772 12.3365 32.6657 13.3291 32.6657H13.455C14.4477 32.6657 15.2921 31.9772 15.4431 31.046L16.9671 21.6237H13.3823Z" fill="#B7C1CA"/>
<path d="M16.9589 21.6237L15.4349 31.046C15.2839 31.9772 14.4395 32.6657 13.4468 32.6657H13.3209C13.1372 32.6652 12.9548 32.6416 12.7812 32.596C13.5251 32.3996 14.1039 31.802 14.2269 31.046L15.7509 21.6237H16.9589Z" fill="#A3AEB7"/>
<path d="M13.0908 13.4746C9.3354 15.5356 11.8241 18.0738 11.8241 18.0738H14.942C14.942 18.0738 17.4307 15.5398 13.6753 13.4746C13.5896 13.4293 13.4876 13.4049 13.383 13.4049C13.2785 13.4049 13.1764 13.4293 13.0908 13.4746Z" fill="#F9AF2F"/>
<path d="M14.9429 18.0738H13.9055C13.9055 18.0738 16.2907 15.6412 12.8652 13.6055C12.9379 13.5612 13.0134 13.5189 13.0917 13.4746C13.1773 13.4293 13.2794 13.4049 13.3839 13.4049C13.4885 13.4049 13.5905 13.4293 13.6762 13.4746C17.4316 15.5356 14.9429 18.0738 14.9429 18.0738Z" fill="#F18415"/>
<path d="M17.1172 25.7499H9.66227C9.48504 25.7499 9.30955 25.7235 9.14584 25.6722C8.98213 25.6209 8.83343 25.5457 8.70823 25.451C8.58304 25.3562 8.48382 25.2438 8.41625 25.1201C8.34868 24.9963 8.31409 24.8637 8.31446 24.7299C8.31446 24.46 8.45646 24.2011 8.70922 24.0102C8.96199 23.8193 9.30481 23.7121 9.66227 23.7121H17.1172C17.4747 23.7121 17.8175 23.8193 18.0703 24.0102C18.323 24.2011 18.465 24.46 18.465 24.7299C18.4654 24.8637 18.4308 24.9963 18.3632 25.1201C18.2957 25.2438 18.1965 25.3562 18.0713 25.451C17.9461 25.5457 17.7974 25.6209 17.6337 25.6722C17.4699 25.7235 17.2944 25.7499 17.1172 25.7499Z" fill="#30B5AB"/>
<path d="M18.4655 24.7299C18.4655 25 18.3236 25.2592 18.0709 25.4504C17.8182 25.6416 17.4754 25.7493 17.1177 25.7499H16.125C16.4722 25.7379 16.8 25.6253 17.0401 25.4356C17.2802 25.2458 17.4142 24.9934 17.4142 24.731C17.4142 24.4685 17.2802 24.2161 17.0401 24.0263C16.8 23.8366 16.4722 23.724 16.125 23.7121H17.1177C17.4752 23.7121 17.818 23.8193 18.0707 24.0102C18.3235 24.2011 18.4655 24.46 18.4655 24.7299Z" fill="#11877C"/>
<path d="M35.6951 44.4101C2.68337 44.4101 2.05566 60.1521 2.05566 77.024C2.05566 87.9883 16.2744 89.8911 26.2171 89.879C32.5358 89.8721 38.8539 89.8721 45.1714 89.879C55.121 89.8911 69.3328 87.9883 69.3328 77.024C69.3345 60.1539 68.7086 44.4101 35.6951 44.4101Z" fill="#EC5858"/>
<path d="M45.1806 83.4897C42.0201 83.4897 38.8584 83.4897 35.6956 83.4897H26.2107H26.1275C20.5336 83.4897 15.8813 82.8346 12.6717 81.5921C8.45117 79.9597 8.45117 78.05 8.45117 77.0241C8.45117 68.9018 8.6922 62.3495 11.7145 58.083C15.1825 53.1823 23.0323 50.8047 35.6956 50.8047C48.359 50.8047 56.2053 53.1875 59.6768 58.083C62.7008 62.3495 62.9384 68.9104 62.9384 77.0241C62.9384 78.05 62.9384 79.9597 58.7179 81.5921C55.51 82.8329 50.8577 83.4897 45.2638 83.4897H45.1806Z" fill="#21BAAF"/>
<path d="M59.8396 43.8066C59.8396 43.8066 62.3384 52.1949 54.1698 55.3634C54.1698 55.3634 52.3013 61.0598 50.4595 61.0827C48.6177 61.1056 46.8556 57.2164 46.8556 57.2164C46.8556 57.2164 46.1986 58.7416 44.3454 57.1631C42.4922 55.5845 52.7343 46.5671 52.6317 40.314C52.5292 34.0609 58.0015 37.3362 59.8396 43.8066Z" fill="#FFE0C2"/>
</g>
</svg>
