<svg width="37" height="28" viewBox="0 0 37 28" fill="none" xmlns="http://www.w3.org/2000/svg">
<path d="M24.6285 21.7392H20.3082L19.3379 24.4334H17.9355L21.8734 14.1103H23.0633L27.0082 24.4334H25.613L24.6285 21.7392ZM20.719 20.6189H24.2248L22.4683 15.7906L20.719 20.6189Z" fill="#F4C222" stroke="#F4C222" stroke-width="2"/>
<path d="M8.93947 11.9725C8.81199 13.0644 8.40829 13.9081 7.72837 14.5036C7.05317 15.0945 6.15369 15.3899 5.02994 15.3899C3.81175 15.3899 2.83437 14.9527 2.09779 14.0782C1.36593 13.2038 1 12.0339 1 10.5687V9.57606C1 8.61655 1.16998 7.77283 1.50994 7.04492C1.85462 6.31701 2.34095 5.75926 2.96893 5.37168C3.59691 4.97936 4.32405 4.7832 5.15034 4.7832C6.24577 4.7832 7.12399 5.09044 7.78503 5.70491C8.44606 6.31465 8.83087 7.16073 8.93947 8.24314H7.57255C7.45451 7.42069 7.19718 6.82513 6.80056 6.45645C6.40866 6.08777 5.85859 5.90343 5.15034 5.90343C4.28155 5.90343 3.59927 6.22484 3.1035 6.86767C2.61245 7.5105 2.36692 8.42511 2.36692 9.61151V10.6112C2.36692 11.7314 2.60064 12.6224 3.06809 13.2841C3.53553 13.9459 4.18948 14.2768 5.02994 14.2768C5.7854 14.2768 6.36381 14.1066 6.76515 13.7663C7.17121 13.4212 7.44035 12.8233 7.57255 11.9725H8.93947Z" fill="#CE2489" stroke="#CE2489" stroke-width="2"/>
<path d="M28.5624 14.4328L19.082 11.817L19.0568 11.9085L28.5372 14.5243L28.5624 14.4328Z" fill="#CCD4D2"/>
<path d="M28.4364 14.8958L18.9561 12.28L18.9309 12.3715L28.4112 14.9874L28.4364 14.8958Z" fill="#CCD4D2"/>
<path d="M28.3065 15.3648L18.8262 12.7489L18.801 12.8404L28.2813 15.4563L28.3065 15.3648Z" fill="#CCD4D2"/>
<path d="M28.243 15.5997L18.7627 12.9838L18.7375 13.0753L28.2178 15.6912L28.243 15.5997Z" fill="#CCD4D2"/>
<path d="M28.1805 15.8312L18.7002 13.2153L18.675 13.3068L28.1553 15.9227L28.1805 15.8312Z" fill="#CCD4D2"/>
<path d="M28.37 15.1298L18.8896 12.5139L18.8645 12.6054L28.3448 15.2213L28.37 15.1298Z" fill="#CCD4D2"/>
<path d="M28.4999 14.6643L19.0195 12.0485L18.9943 12.14L28.4747 14.7559L28.4999 14.6643Z" fill="#CCD4D2"/>
<path d="M28.5441 14.1851L20.115 11.8541C19.8652 11.7957 19.6026 11.8364 19.382 11.9674C19.1614 12.0985 19 12.3098 18.9315 12.5572C18.8958 12.6805 18.8852 12.8097 18.9001 12.9371C18.915 13.0646 18.9552 13.1878 19.0184 13.2995C19.0815 13.4112 19.1663 13.5091 19.2678 13.5875C19.3693 13.6659 19.4854 13.7233 19.6093 13.7561C19.6725 13.7561 19.7428 13.7983 19.806 13.8124L28.0172 16.0801C27.6098 15.8692 27.5466 15.4332 27.666 14.9691C27.7854 14.505 28.084 14.1359 28.5441 14.1851Z" fill="white"/>
<path d="M31.1786 2.85008L23.1921 0.64917H23.1605L20.0312 12.0264H20.0664L28.0423 14.2273C28.1318 14.2529 28.2255 14.2604 28.3179 14.2495C28.4103 14.2386 28.4996 14.2093 28.5807 14.1635C28.6617 14.1177 28.7328 14.0563 28.79 13.9827C28.8471 13.9092 28.889 13.825 28.9133 13.7351L31.6738 3.70091C31.719 3.52242 31.6924 3.33332 31.5998 3.17423C31.5073 3.01514 31.356 2.89876 31.1786 2.85008Z" fill="#26B824"/>
<path d="M19.648 13.7597H19.6129C19.7036 13.4736 19.7775 13.1825 19.8341 12.8878C19.9676 12.4096 20.1467 12.0721 20.094 12.051L20.1467 12.0721L22.7246 2.57935H22.7562L23.2795 0.677287H23.2268C22.9878 0.590887 22.7266 0.588366 22.486 0.670138C22.2454 0.751911 22.0398 0.91312 21.9027 1.12731C21.8539 1.25655 21.8152 1.38938 21.7868 1.5246C21.7868 1.5246 18.7278 12.5397 18.7138 12.5854C18.7022 12.6304 18.6939 12.6763 18.6892 12.7225V12.7542C18.6746 13.027 18.7563 13.2962 18.92 13.5147C19.0837 13.7333 19.3191 13.8872 19.5848 13.9495H19.6093L19.648 13.7597Z" fill="#3E992E"/>
<path d="M28.5656 14.3398C28.5656 14.3398 27.5506 15.1238 28.1265 16.0977L18.9951 13.5839L19.4692 11.6888L28.5656 14.3398Z" fill="#E7E5E5"/>
<path d="M19.1631 12.8737C19.3106 12.8139 21.021 12.1319 28.2945 14.6035C28.3552 14.4851 28.4543 14.3909 28.5755 14.3363L19.6302 11.6467L19.1631 12.8737Z" fill="#CECECD"/>
<path d="M19.3987 12.4975L19.4654 12.2549C19.5848 11.819 19.9114 11.9455 19.9114 11.9455L28.7514 14.3855L28.8883 13.8827L19.9571 11.4217C19.8107 11.3725 19.6511 11.3813 19.511 11.4463H19.4829H19.4654C19.2476 11.5799 18.3696 12.2162 18.8051 13.5769C18.8297 13.6822 18.8842 13.7781 18.9622 13.8529C19.0401 13.9278 19.138 13.9785 19.2441 13.9988L28.1754 16.4598L28.3124 15.9571L19.4689 13.5523C19.4689 13.5523 19.1177 13.496 19.2441 13.06L19.3109 12.8139L19.3987 12.4975Z" fill="#26B824"/>
<path d="M19.4693 13.5522C19.4693 13.5522 19.1181 13.496 19.2445 13.06L19.3112 12.8139L19.399 12.4975L19.4658 12.2549C19.5852 11.8189 19.9118 11.9455 19.9118 11.9455L21.4361 12.378L21.5765 11.8787L19.9434 11.4287C19.797 11.3795 19.6374 11.3883 19.4974 11.4533H19.4693H19.4517C19.234 11.5869 18.3559 12.2233 18.7914 13.5839C18.816 13.6892 18.8706 13.7851 18.9485 13.86C19.0264 13.9348 19.1244 13.9855 19.2305 14.0058L20.8706 14.4875L21.0111 13.9882L19.4693 13.5522Z" fill="#3E992E"/>
<path d="M21.8362 13.3553C21.5997 13.2492 21.3524 13.1691 21.0986 13.1163C21.2168 13.2776 21.294 13.4653 21.3233 13.6632C21.3527 13.8611 21.3334 14.0631 21.2672 14.2519L21.7554 13.8757L22.1593 14.3538C22.1593 14.3538 22.1944 13.619 21.8362 13.3553Z" fill="#EA5645"/>
<path d="M23.2023 0.650009L20.2168 11.4928L21.5914 11.8721L24.5769 1.02931L23.2023 0.650009Z" fill="#3E992E"/>
<path d="M24.8845 6.78079L23.6377 6.42921L23.1073 7.5156L22.0537 7.2273L24.8037 2.25592L26.0294 2.6075L25.8468 8.28908L24.7931 7.99375L24.8845 6.78079ZM24.9582 5.81745L25.1584 3.35637L24.0591 5.58541L24.9582 5.81745Z" fill="#CE2489"/>
<path d="M25.7451 5.39896L23.9775 11.8185L28.0846 12.9518L29.8521 6.53219L25.7451 5.39896Z" fill="#F4C222"/>
<path d="M28.1331 10.3529C27.8592 11.3478 27.1392 11.4498 26.2612 11.2072L25.1338 10.8943L26.3525 6.52765L27.3394 6.79837C28.2771 7.05854 28.7723 7.50153 28.5475 8.33478C28.5067 8.54506 28.3953 8.73504 28.2317 8.87318C28.0682 9.01132 27.8624 9.08931 27.6484 9.0942C27.8741 9.2028 28.0499 9.39349 28.14 9.62737C28.23 9.86126 28.2276 10.1207 28.1331 10.3529ZM26.9636 7.48747L26.6826 8.50003L26.9917 8.58792C27.0607 8.61735 27.1357 8.63032 27.2106 8.62581C27.2855 8.6213 27.3584 8.59944 27.4234 8.56194C27.4884 8.52445 27.5439 8.47234 27.5854 8.40974C27.6269 8.34714 27.6533 8.27574 27.6625 8.20118C27.7643 7.8496 27.6028 7.66326 27.2059 7.55427L26.9636 7.48747ZM27.2972 10.0611C27.331 9.98186 27.346 9.89592 27.3412 9.80995C27.3363 9.72398 27.3117 9.64029 27.2692 9.56542C27.2267 9.49055 27.1675 9.42652 27.0962 9.37833C27.0249 9.33013 26.9435 9.29907 26.8582 9.28757L26.507 9.18913L26.1804 10.374L26.4824 10.4583C26.8617 10.5638 27.1638 10.5392 27.2972 10.0611Z" fill="#22B1B6"/>
<path d="M15.6324 11.9639L7.49858 14.2434C6.89153 14.4135 6.53719 15.0441 6.70713 15.6518L9.70386 26.3674C9.87381 26.9751 10.5037 27.3298 11.1107 27.1597L19.2446 24.8801C19.8516 24.71 20.206 24.0794 20.036 23.4717L17.0393 12.7561C16.8694 12.1484 16.2395 11.7937 15.6324 11.9639Z" fill="#A685E2"/>
<g style="mix-blend-mode:multiply" opacity="0.52">
<path d="M15.4775 12.4362L8.09105 14.5063C7.74736 14.6026 7.54675 14.9596 7.64297 15.3037L10.5261 25.613C10.6223 25.9571 10.9789 26.1579 11.3226 26.0616L18.709 23.9915C19.0527 23.8952 19.2533 23.5382 19.1571 23.1941L16.274 12.8848C16.1778 12.5407 15.8211 12.3399 15.4775 12.4362Z" fill="#FE487C"/>
</g>
<path d="M14.6664 13.2205L8.97441 14.8157C8.43087 14.9681 8.11359 15.5327 8.26576 16.0768L10.6537 24.6154C10.8058 25.1595 11.3698 25.4771 11.9134 25.3248L17.6054 23.7296C18.1489 23.5773 18.4662 23.0127 18.314 22.4685L15.9261 13.9299C15.7739 13.3858 15.21 13.0682 14.6664 13.2205Z" fill="white"/>
<path d="M13.5452 11.905L9.25 13.1088L9.74993 14.8964L14.0451 13.6926L13.5452 11.905Z" fill="#0F0B49"/>
<g opacity="0.33">
<path opacity="0.33" d="M10.0343 15.9933C10.3411 15.9334 10.6525 15.9005 10.965 15.8949C11.1554 15.8742 11.3428 15.8317 11.5235 15.7683C11.6614 15.7188 11.7934 15.654 11.9168 15.5749C12.0187 15.5116 12.1943 15.3042 12.3242 15.255C12.5225 15.2149 12.7276 15.2246 12.9213 15.2831C13.1072 15.2847 13.2925 15.2622 13.4727 15.2163C13.6683 15.1719 13.8581 15.1047 14.0381 15.0159C14.1902 14.9308 14.3327 14.8294 14.4631 14.7136C14.7651 14.7522 15.1655 14.4569 14.874 14.4182C14.1962 14.3303 13.8204 14.9632 13.2057 14.9737C12.9704 14.9737 12.9178 14.8753 12.6157 14.914C12.4063 14.939 12.203 15.0009 12.0151 15.0968C11.7798 15.2198 11.7201 15.3605 11.5059 15.4765C11.1125 15.6839 10.7227 15.589 10.3504 15.6417C9.83414 15.7156 9.33191 15.9722 9.3881 16.1726C9.4443 16.373 10.0905 16.1445 10.0343 15.9933Z" fill="#0F0B49"/>
</g>
<g opacity="0.33">
<path opacity="0.33" d="M10.238 16.7106C10.5448 16.6517 10.8563 16.6199 11.1687 16.6156C11.3578 16.5945 11.544 16.5521 11.7236 16.4891C11.8612 16.4389 11.9931 16.374 12.1169 16.2957C12.2223 16.2289 12.3944 16.0215 12.5279 15.9722C12.7562 15.8879 12.9634 15.9968 13.1214 16.0004C13.3071 16.0017 13.4923 15.9805 13.6728 15.9371C13.868 15.8911 14.0576 15.8239 14.2383 15.7367C14.3912 15.6514 14.5338 15.5488 14.6632 15.4308C14.9688 15.473 15.3656 15.1777 15.0741 15.139C14.3998 15.0511 14.0205 15.6839 13.4059 15.6945C13.1706 15.6945 13.1214 15.5925 12.8159 15.6312C12.6065 15.6584 12.4033 15.7215 12.2153 15.8175C11.98 15.9371 11.9203 16.0777 11.706 16.1937C11.3127 16.4047 10.9228 16.3062 10.5506 16.3625C10.0343 16.4363 9.53205 16.693 9.59176 16.8934C9.65146 17.0938 10.2942 16.8617 10.238 16.7106Z" fill="#0F0B49"/>
</g>
<g opacity="0.33">
<path opacity="0.33" d="M10.4171 17.3996C10.7239 17.3397 11.0353 17.3068 11.3478 17.3012C11.5382 17.2805 11.7256 17.238 11.9063 17.1746C12.0442 17.1251 12.1762 17.0603 12.2996 16.9812C12.4015 16.918 12.5771 16.7105 12.707 16.6613C12.9053 16.6212 13.1104 16.6309 13.3041 16.6894C13.49 16.691 13.6753 16.6686 13.8555 16.6226C14.0512 16.5782 14.2409 16.511 14.4209 16.4222C14.5731 16.3371 14.7155 16.2357 14.8459 16.1199C15.1479 16.1585 15.5483 15.8632 15.2568 15.8245C14.579 15.7366 14.2032 16.3695 13.5886 16.38C13.3532 16.38 13.3006 16.2816 12.9985 16.3203C12.7891 16.3453 12.5858 16.4072 12.398 16.5031C12.1626 16.6261 12.1029 16.7668 11.8887 16.8793C11.4954 17.0902 11.1055 16.9953 10.7332 17.048C10.217 17.1219 9.71472 17.3785 9.77091 17.5789C9.82711 17.7793 10.4733 17.5508 10.4171 17.3996Z" fill="#0F0B49"/>
</g>
<g opacity="0.33">
<path opacity="0.33" d="M10.7022 18.1063C11.0091 18.0474 11.3205 18.0156 11.6329 18.0114C11.8173 17.9893 11.9987 17.9468 12.1738 17.8848C12.3114 17.8346 12.4433 17.7698 12.5671 17.6914C12.6951 17.5726 12.8325 17.4644 12.9781 17.368C13.2063 17.2836 13.4171 17.3926 13.5716 17.3961C13.7575 17.401 13.9431 17.3797 14.123 17.3328C14.3182 17.2868 14.5078 17.2196 14.6885 17.1324C14.8414 17.0468 14.985 16.9455 15.1169 16.8301C15.419 16.8687 15.8193 16.5734 15.5243 16.5347C14.85 16.4468 14.4707 17.0797 13.8561 17.0902C13.6208 17.0902 13.5716 16.9883 13.2661 17.027C13.057 17.0558 12.8542 17.1188 12.6655 17.2133C12.4302 17.3328 12.3705 17.477 12.1562 17.5895C11.7629 17.8004 11.373 17.7055 11.0043 17.7582C10.4845 17.8321 9.98225 18.0887 10.042 18.2891C10.1017 18.4895 10.7444 18.2575 10.6882 18.1063H10.7022Z" fill="#0F0B49"/>
</g>
<g opacity="0.33">
<path opacity="0.33" d="M10.9024 18.8271C11.2055 18.767 11.5136 18.7353 11.8226 18.7321C12.0118 18.7114 12.198 18.669 12.3775 18.6056C12.517 18.5556 12.6502 18.4896 12.7744 18.4087C12.8762 18.3454 13.0483 18.138 13.1818 18.0887C13.41 18.0044 13.6208 18.1133 13.7753 18.1169C13.9624 18.1187 14.1489 18.0962 14.3302 18.0501C14.5252 18.0048 14.7147 17.9388 14.8957 17.8532C15.0521 17.7666 15.1992 17.6641 15.3347 17.5473C15.6367 17.586 16.0371 17.2906 15.7456 17.252C15.0678 17.1641 14.692 17.7969 14.0773 17.811C13.8385 17.811 13.7894 17.709 13.4838 17.7477C13.2746 17.7737 13.0715 17.8355 12.8832 17.9305C12.6479 18.0536 12.5917 18.1942 12.374 18.3102C11.9806 18.5177 11.5908 18.4227 11.222 18.4755C10.7057 18.5493 10.2 18.8095 10.2597 19.0064C10.3194 19.2032 10.9621 18.9782 10.9059 18.8271H10.9024Z" fill="#0F0B49"/>
</g>
<g opacity="0.33">
<path opacity="0.33" d="M11.0954 19.5126C11.4023 19.4537 11.7137 19.422 12.0261 19.4177C12.2153 19.3966 12.4014 19.3541 12.581 19.2911C12.7187 19.2409 12.8505 19.1761 12.9744 19.0978C13.1023 18.9789 13.2398 18.8708 13.3853 18.7743C13.6136 18.6899 13.8243 18.7989 13.9788 18.8024C14.1647 18.8073 14.3503 18.786 14.5302 18.7391C14.7254 18.6932 14.915 18.626 15.0957 18.5387C15.2486 18.4532 15.3922 18.3518 15.5242 18.2364C15.8262 18.2751 16.2266 17.9797 15.9316 17.9411C15.2572 17.8532 14.8779 18.486 14.2633 18.4966C14.028 18.4966 13.9788 18.3946 13.6733 18.4333C13.4643 18.4621 13.2614 18.5251 13.0727 18.6196C12.8374 18.7391 12.7777 18.8798 12.5635 18.9958C12.1701 19.2068 11.7803 19.1118 11.4115 19.1646C10.8917 19.2384 10.3895 19.495 10.4492 19.6954C10.5089 19.8959 11.1516 19.6638 11.0954 19.5126Z" fill="#0F0B49"/>
</g>
<g opacity="0.33">
<path opacity="0.33" d="M11.2917 20.2017C11.5985 20.1428 11.91 20.111 12.2224 20.1068C12.4116 20.0861 12.5978 20.0436 12.7773 19.9802C12.916 19.9298 13.049 19.865 13.1741 19.7868C13.276 19.72 13.4481 19.5126 13.5815 19.4634C13.8098 19.379 14.0206 19.488 14.1751 19.4915C14.3619 19.4929 14.5483 19.4716 14.73 19.4282C14.925 19.3817 15.1146 19.3145 15.2954 19.2278C15.4478 19.1417 15.5903 19.0391 15.7204 18.922C16.0225 18.9641 16.4228 18.6688 16.1313 18.6301C15.4535 18.5422 15.0777 19.1751 14.4631 19.1856C14.2243 19.1856 14.1751 19.0837 13.8695 19.1224C13.6602 19.1496 13.457 19.2126 13.269 19.3087C13.0337 19.4282 12.9775 19.5689 12.7597 19.6849C12.3664 19.8958 11.9765 19.8009 11.6078 19.8536C11.0915 19.9275 10.5857 20.1841 10.6454 20.3845C10.7051 20.5849 11.3479 20.3529 11.2917 20.2017Z" fill="#0F0B49"/>
</g>
<g opacity="0.33">
<path opacity="0.33" d="M11.4923 20.9225C11.7991 20.8626 12.1105 20.8296 12.423 20.824C12.6134 20.8033 12.8008 20.7609 12.9815 20.6974C13.12 20.6494 13.2521 20.5845 13.3748 20.5041C13.4767 20.4408 13.6488 20.2334 13.7822 20.1841C13.9793 20.1439 14.1833 20.1536 14.3758 20.2123C14.5628 20.2141 14.7494 20.1916 14.9307 20.1455C15.1263 20.1011 15.3161 20.0338 15.4961 19.9451C15.6483 19.8599 15.7907 19.7585 15.9211 19.6427C16.2231 19.6814 16.6235 19.386 16.332 19.3474C15.6542 19.2595 15.2784 19.8923 14.6638 19.9029C14.4284 19.9029 14.3758 19.8044 14.0737 19.8431C13.8643 19.8681 13.661 19.93 13.4732 20.0259C13.2343 20.149 13.1781 20.2896 12.9639 20.4056C12.5705 20.6131 12.1807 20.5181 11.8084 20.5709C11.2921 20.6447 10.7899 20.9049 10.8461 21.1018C10.9023 21.2986 11.5485 21.0736 11.4923 20.9225Z" fill="#0F0B49"/>
</g>
<g opacity="0.33">
<path opacity="0.33" d="M11.6858 21.6081C11.9927 21.5492 12.3041 21.5174 12.6165 21.5132C12.8057 21.4925 12.9919 21.45 13.1714 21.3866C13.3137 21.3369 13.4503 21.2721 13.5788 21.1932C13.6807 21.1264 13.8528 20.919 13.9862 20.8698C14.2145 20.7854 14.4252 20.8944 14.5798 20.8979C14.7666 20.8993 14.9529 20.878 15.1347 20.8346C15.3249 20.7871 15.5097 20.7199 15.6861 20.6342C15.8384 20.548 15.9809 20.4455 16.111 20.3283C16.4131 20.3705 16.8135 20.0752 16.522 20.0365C15.8441 19.9486 15.4683 20.5815 14.8537 20.592C14.6149 20.592 14.5657 20.4901 14.2602 20.5287C14.0508 20.556 13.8477 20.619 13.6596 20.7151C13.4243 20.8346 13.3681 20.9752 13.1503 21.0913C12.757 21.3022 12.3671 21.2073 11.9984 21.26C11.4821 21.3339 10.9764 21.5905 11.0361 21.7909C11.0958 21.9913 11.7385 21.7593 11.6823 21.6081H11.6858Z" fill="#0F0B49"/>
</g>
<g opacity="0.33">
<path opacity="0.33" d="M11.9556 22.3183C12.2588 22.2586 12.5668 22.2269 12.8758 22.2233C13.0661 22.2027 13.2535 22.1602 13.4342 22.0968C13.5723 22.0462 13.7043 21.9801 13.8276 21.8999C13.9329 21.8366 14.105 21.6292 14.235 21.5799C14.4335 21.5433 14.6378 21.5529 14.832 21.6081C15.0179 21.6097 15.2033 21.5872 15.3834 21.5413C15.5785 21.4964 15.7681 21.4304 15.9489 21.3444C16.1059 21.2587 16.2531 21.1561 16.3879 21.0385C16.6934 21.0772 17.0903 20.7818 16.7988 20.7432C16.121 20.6553 15.7452 21.2881 15.1305 21.3022C14.8952 21.3022 14.8461 21.2002 14.5405 21.2389C14.3311 21.2639 14.1278 21.3258 13.9399 21.4217C13.7046 21.5448 13.6449 21.6854 13.4307 21.8014C13.0373 22.0089 12.6475 21.9139 12.2752 21.9667C11.7589 22.0405 11.2567 22.3007 11.3129 22.4976C11.3691 22.6945 12.0153 22.4694 11.9591 22.3183H11.9556Z" fill="#0F0B49"/>
</g>
<g opacity="0.33">
<path opacity="0.33" d="M12.1735 23.0355C12.4804 22.9766 12.7918 22.9449 13.1042 22.9406C13.2934 22.9195 13.4795 22.877 13.6591 22.814C13.7968 22.7638 13.9286 22.699 14.0525 22.6206C14.1805 22.5018 14.3179 22.3936 14.4634 22.2972C14.6917 22.2128 14.9024 22.3218 15.057 22.3253C15.2428 22.3302 15.4284 22.3089 15.6083 22.262C15.8036 22.216 15.9932 22.1488 16.1738 22.0616C16.3262 21.9751 16.4697 21.8739 16.6023 21.7593C16.9043 21.7979 17.3047 21.5026 17.0097 21.4639C16.3354 21.376 15.956 22.0089 15.3414 22.0194C15.1061 22.0194 15.0569 21.9175 14.7514 21.9562C14.5424 21.985 14.3395 22.048 14.1508 22.1425C13.9155 22.262 13.8558 22.4062 13.6416 22.5187C13.2482 22.7296 12.8584 22.6347 12.4896 22.6874C11.9698 22.7613 11.4676 23.0179 11.5273 23.2183C11.587 23.4187 12.2297 23.1867 12.1735 23.0355Z" fill="#0F0B49"/>
</g>
<g opacity="0.33">
<path opacity="0.33" d="M12.3488 23.7246C12.6554 23.6643 12.967 23.6325 13.2795 23.6296C13.4698 23.609 13.6572 23.5665 13.8379 23.5031C13.976 23.4525 14.108 23.3864 14.2313 23.3062C14.3331 23.2429 14.5087 23.0355 14.6387 22.9863C14.8372 22.9496 15.0415 22.9592 15.2357 23.0144C15.4216 23.016 15.607 22.9935 15.7871 22.9476C15.9822 22.9027 16.1718 22.8367 16.3526 22.7507C16.5047 22.6642 16.6471 22.5616 16.7775 22.4448C17.0796 22.4835 17.4799 22.1882 17.1884 22.1495C16.5106 22.0616 16.1348 22.6944 15.5202 22.7085C15.2849 22.7085 15.2357 22.6065 14.9302 22.6452C14.7208 22.6702 14.5174 22.7321 14.3296 22.828C14.0943 22.9511 14.0346 23.0917 13.8203 23.2078C13.427 23.4152 13.0371 23.3203 12.6649 23.373C12.1486 23.4468 11.6464 23.707 11.7026 23.9039C11.7587 24.1008 12.405 23.8758 12.3488 23.7246Z" fill="#0F0B49"/>
</g>
<path d="M28.9814 21.2425V10.9194H32.3527C33.4718 10.9194 34.3122 11.151 34.8741 11.6143C35.4407 12.0775 35.724 12.7628 35.724 13.6704C35.724 14.1525 35.5871 14.5803 35.3132 14.9537C35.0393 15.3223 34.6663 15.6083 34.1942 15.8116C34.7513 15.9675 35.1904 16.2653 35.5115 16.7049C35.8373 17.1398 36.0002 17.6597 36.0002 18.2647C36.0002 19.1911 35.7004 19.919 35.1007 20.4484C34.5011 20.9778 33.6535 21.2425 32.5581 21.2425H28.9814ZM30.3413 16.4142V20.1294H32.5864C33.2191 20.1294 33.7173 19.9663 34.0808 19.6402C34.4491 19.3093 34.6333 18.8555 34.6333 18.2789C34.6333 17.0358 33.9581 16.4142 32.6077 16.4142H30.3413ZM30.3413 15.3223H32.3952C32.9901 15.3223 33.4647 15.1735 33.8188 14.8757C34.1776 14.5779 34.3571 14.1738 34.3571 13.6633C34.3571 13.0961 34.1918 12.6849 33.8613 12.4296C33.5308 12.1696 33.0279 12.0397 32.3527 12.0397H30.3413V15.3223Z" fill="#1771B9" stroke="#1771B9" stroke-width="2"/>
<g style="mix-blend-mode:color">
<path d="M24.6285 21.7392H20.3082L19.3379 24.4334H17.9355L21.8734 14.1103H23.0633L27.0082 24.4334H25.613L24.6285 21.7392ZM20.719 20.6189H24.2248L22.4683 15.7906L20.719 20.6189Z" fill="#F4C222" stroke="#F4C222" stroke-width="2"/>
<path d="M8.93947 11.9725C8.81199 13.0644 8.40829 13.9081 7.72837 14.5036C7.05317 15.0945 6.15369 15.3899 5.02994 15.3899C3.81175 15.3899 2.83437 14.9527 2.09779 14.0782C1.36593 13.2038 1 12.0339 1 10.5687V9.57606C1 8.61655 1.16998 7.77283 1.50994 7.04492C1.85462 6.31701 2.34095 5.75926 2.96893 5.37168C3.59691 4.97936 4.32405 4.7832 5.15034 4.7832C6.24577 4.7832 7.12399 5.09044 7.78503 5.70491C8.44606 6.31465 8.83087 7.16073 8.93947 8.24314H7.57255C7.45451 7.42069 7.19718 6.82513 6.80056 6.45645C6.40866 6.08777 5.85859 5.90343 5.15034 5.90343C4.28155 5.90343 3.59927 6.22484 3.1035 6.86767C2.61245 7.5105 2.36692 8.42511 2.36692 9.61151V10.6112C2.36692 11.7314 2.60064 12.6224 3.06809 13.2841C3.53553 13.9459 4.18948 14.2768 5.02994 14.2768C5.7854 14.2768 6.36381 14.1066 6.76515 13.7663C7.17121 13.4212 7.44035 12.8233 7.57255 11.9725H8.93947Z" fill="#F4C222" stroke="#F4C222" stroke-width="2"/>
<path d="M28.5624 14.4328L19.082 11.817L19.0568 11.9085L28.5372 14.5243L28.5624 14.4328Z" fill="#F4C222"/>
<path d="M28.4364 14.8958L18.9561 12.28L18.9309 12.3715L28.4112 14.9874L28.4364 14.8958Z" fill="#F4C222"/>
<path d="M28.3065 15.3648L18.8262 12.7489L18.801 12.8404L28.2813 15.4563L28.3065 15.3648Z" fill="#F4C222"/>
<path d="M28.243 15.5997L18.7627 12.9838L18.7375 13.0753L28.2178 15.6912L28.243 15.5997Z" fill="#F4C222"/>
<path d="M28.1805 15.8312L18.7002 13.2153L18.675 13.3068L28.1553 15.9227L28.1805 15.8312Z" fill="#F4C222"/>
<path d="M28.37 15.1298L18.8896 12.5139L18.8645 12.6054L28.3448 15.2213L28.37 15.1298Z" fill="#F4C222"/>
<path d="M28.4999 14.6643L19.0195 12.0485L18.9943 12.14L28.4747 14.7559L28.4999 14.6643Z" fill="#F4C222"/>
<path d="M28.5441 14.1851L20.115 11.8541C19.8652 11.7957 19.6026 11.8364 19.382 11.9674C19.1614 12.0985 19 12.3098 18.9315 12.5572C18.8958 12.6805 18.8852 12.8097 18.9001 12.9371C18.915 13.0646 18.9552 13.1878 19.0184 13.2995C19.0815 13.4112 19.1663 13.5091 19.2678 13.5875C19.3693 13.6659 19.4854 13.7233 19.6093 13.7561C19.6725 13.7561 19.7428 13.7983 19.806 13.8124L28.0172 16.0801C27.6098 15.8692 27.5466 15.4332 27.666 14.9691C27.7854 14.505 28.084 14.1359 28.5441 14.1851Z" fill="#F4C222"/>
<path d="M31.1786 2.85008L23.1921 0.64917H23.1605L20.0312 12.0264H20.0664L28.0423 14.2273C28.1318 14.2529 28.2255 14.2604 28.3179 14.2495C28.4103 14.2386 28.4996 14.2093 28.5807 14.1635C28.6617 14.1177 28.7328 14.0563 28.79 13.9827C28.8471 13.9092 28.889 13.825 28.9133 13.7351L31.6738 3.70091C31.719 3.52242 31.6924 3.33332 31.5998 3.17423C31.5073 3.01514 31.356 2.89876 31.1786 2.85008Z" fill="#F4C222"/>
<path d="M19.648 13.7597H19.6129C19.7036 13.4736 19.7775 13.1825 19.8341 12.8878C19.9676 12.4096 20.1467 12.0721 20.094 12.051L20.1467 12.0721L22.7246 2.57935H22.7562L23.2795 0.677287H23.2268C22.9878 0.590887 22.7266 0.588366 22.486 0.670138C22.2454 0.751911 22.0398 0.91312 21.9027 1.12731C21.8539 1.25655 21.8152 1.38938 21.7868 1.5246C21.7868 1.5246 18.7278 12.5397 18.7138 12.5854C18.7022 12.6304 18.6939 12.6763 18.6892 12.7225V12.7542C18.6746 13.027 18.7563 13.2962 18.92 13.5147C19.0837 13.7333 19.3191 13.8872 19.5848 13.9495H19.6093L19.648 13.7597Z" fill="#F4C222"/>
<path d="M28.5656 14.3398C28.5656 14.3398 27.5506 15.1238 28.1265 16.0977L18.9951 13.5839L19.4692 11.6888L28.5656 14.3398Z" fill="#F4C222"/>
<path d="M19.1631 12.8737C19.3106 12.8139 21.021 12.1319 28.2945 14.6035C28.3552 14.4851 28.4543 14.3909 28.5755 14.3363L19.6302 11.6467L19.1631 12.8737Z" fill="#F4C222"/>
<path d="M19.3987 12.4975L19.4654 12.2549C19.5848 11.819 19.9114 11.9455 19.9114 11.9455L28.7514 14.3855L28.8883 13.8827L19.9571 11.4217C19.8107 11.3725 19.6511 11.3813 19.511 11.4463H19.4829H19.4654C19.2476 11.5799 18.3696 12.2162 18.8051 13.5769C18.8297 13.6822 18.8842 13.7781 18.9622 13.8529C19.0401 13.9278 19.138 13.9785 19.2441 13.9988L28.1754 16.4598L28.3124 15.9571L19.4689 13.5523C19.4689 13.5523 19.1177 13.496 19.2441 13.06L19.3109 12.8139L19.3987 12.4975Z" fill="#F4C222"/>
<path d="M19.4693 13.5522C19.4693 13.5522 19.1181 13.496 19.2445 13.06L19.3112 12.8139L19.399 12.4975L19.4658 12.2549C19.5852 11.8189 19.9118 11.9455 19.9118 11.9455L21.4361 12.378L21.5765 11.8787L19.9434 11.4287C19.797 11.3795 19.6374 11.3883 19.4974 11.4533H19.4693H19.4517C19.234 11.5869 18.3559 12.2233 18.7914 13.5839C18.816 13.6892 18.8706 13.7851 18.9485 13.86C19.0264 13.9348 19.1244 13.9855 19.2305 14.0058L20.8706 14.4875L21.0111 13.9882L19.4693 13.5522Z" fill="#F4C222"/>
<path d="M21.8362 13.3553C21.5997 13.2492 21.3524 13.1691 21.0986 13.1163C21.2168 13.2776 21.294 13.4653 21.3233 13.6632C21.3527 13.8611 21.3334 14.0631 21.2672 14.2519L21.7554 13.8757L22.1593 14.3538C22.1593 14.3538 22.1944 13.619 21.8362 13.3553Z" fill="#F4C222"/>
<path d="M23.2023 0.650009L20.2168 11.4928L21.5914 11.8721L24.5769 1.02931L23.2023 0.650009Z" fill="#F4C222"/>
<path d="M24.8845 6.78079L23.6377 6.42921L23.1073 7.5156L22.0537 7.2273L24.8037 2.25592L26.0294 2.6075L25.8468 8.28908L24.7931 7.99375L24.8845 6.78079ZM24.9582 5.81745L25.1584 3.35637L24.0591 5.58541L24.9582 5.81745Z" fill="#F4C222"/>
<path d="M25.7451 5.39896L23.9775 11.8185L28.0846 12.9518L29.8521 6.53219L25.7451 5.39896Z" fill="#F4C222"/>
<path d="M28.1331 10.3529C27.8592 11.3478 27.1392 11.4498 26.2612 11.2072L25.1338 10.8943L26.3525 6.52765L27.3394 6.79837C28.2771 7.05854 28.7723 7.50153 28.5475 8.33478C28.5067 8.54506 28.3953 8.73504 28.2317 8.87318C28.0682 9.01132 27.8624 9.08931 27.6484 9.0942C27.8741 9.2028 28.0499 9.39349 28.14 9.62737C28.23 9.86126 28.2276 10.1207 28.1331 10.3529ZM26.9636 7.48747L26.6826 8.50003L26.9917 8.58792C27.0607 8.61735 27.1357 8.63032 27.2106 8.62581C27.2855 8.6213 27.3584 8.59944 27.4234 8.56194C27.4884 8.52445 27.5439 8.47234 27.5854 8.40974C27.6269 8.34714 27.6533 8.27574 27.6625 8.20118C27.7643 7.8496 27.6028 7.66326 27.2059 7.55427L26.9636 7.48747ZM27.2972 10.0611C27.331 9.98186 27.346 9.89592 27.3412 9.80995C27.3363 9.72398 27.3117 9.64029 27.2692 9.56542C27.2267 9.49055 27.1675 9.42652 27.0962 9.37833C27.0249 9.33013 26.9435 9.29907 26.8582 9.28757L26.507 9.18913L26.1804 10.374L26.4824 10.4583C26.8617 10.5638 27.1638 10.5392 27.2972 10.0611Z" fill="#F4C222"/>
<path d="M15.6324 11.9639L7.49858 14.2434C6.89153 14.4135 6.53719 15.0441 6.70713 15.6518L9.70386 26.3674C9.87381 26.9751 10.5037 27.3298 11.1107 27.1597L19.2446 24.8801C19.8516 24.71 20.206 24.0794 20.036 23.4717L17.0393 12.7561C16.8694 12.1484 16.2395 11.7937 15.6324 11.9639Z" fill="#F4C222"/>
<g style="mix-blend-mode:multiply" opacity="0.52">
<path d="M15.4775 12.4362L8.09105 14.5063C7.74736 14.6026 7.54675 14.9596 7.64297 15.3037L10.5261 25.613C10.6223 25.9571 10.9789 26.1579 11.3226 26.0616L18.709 23.9915C19.0527 23.8952 19.2533 23.5382 19.1571 23.1941L16.274 12.8848C16.1778 12.5407 15.8211 12.3399 15.4775 12.4362Z" fill="#F4C222"/>
</g>
<path d="M14.6664 13.2205L8.97441 14.8157C8.43087 14.9681 8.11359 15.5327 8.26576 16.0768L10.6537 24.6154C10.8058 25.1595 11.3698 25.4771 11.9134 25.3248L17.6054 23.7296C18.1489 23.5773 18.4662 23.0127 18.314 22.4685L15.9261 13.9299C15.7739 13.3858 15.21 13.0682 14.6664 13.2205Z" fill="#F4C222"/>
<path d="M13.5452 11.905L9.25 13.1088L9.74993 14.8964L14.0451 13.6926L13.5452 11.905Z" fill="#F4C222"/>
<g opacity="0.33">
<path opacity="0.33" d="M10.0343 15.9933C10.3411 15.9334 10.6525 15.9005 10.965 15.8949C11.1554 15.8742 11.3428 15.8317 11.5235 15.7683C11.6614 15.7188 11.7934 15.654 11.9168 15.5749C12.0187 15.5116 12.1943 15.3042 12.3242 15.255C12.5225 15.2149 12.7276 15.2246 12.9213 15.2831C13.1072 15.2847 13.2925 15.2622 13.4727 15.2163C13.6683 15.1719 13.8581 15.1047 14.0381 15.0159C14.1902 14.9308 14.3327 14.8294 14.4631 14.7136C14.7651 14.7522 15.1655 14.4569 14.874 14.4182C14.1962 14.3303 13.8204 14.9632 13.2057 14.9737C12.9704 14.9737 12.9178 14.8753 12.6157 14.914C12.4063 14.939 12.203 15.0009 12.0151 15.0968C11.7798 15.2198 11.7201 15.3605 11.5059 15.4765C11.1125 15.6839 10.7227 15.589 10.3504 15.6417C9.83414 15.7156 9.33191 15.9722 9.3881 16.1726C9.4443 16.373 10.0905 16.1445 10.0343 15.9933Z" fill="#F4C222"/>
</g>
<g opacity="0.33">
<path opacity="0.33" d="M10.238 16.7106C10.5448 16.6517 10.8563 16.6199 11.1687 16.6156C11.3578 16.5945 11.544 16.5521 11.7236 16.4891C11.8612 16.4389 11.9931 16.374 12.1169 16.2957C12.2223 16.2289 12.3944 16.0215 12.5279 15.9722C12.7562 15.8879 12.9634 15.9968 13.1214 16.0004C13.3071 16.0017 13.4923 15.9805 13.6728 15.9371C13.868 15.8911 14.0576 15.8239 14.2383 15.7367C14.3912 15.6514 14.5338 15.5488 14.6632 15.4308C14.9688 15.473 15.3656 15.1777 15.0741 15.139C14.3998 15.0511 14.0205 15.6839 13.4059 15.6945C13.1706 15.6945 13.1214 15.5925 12.8159 15.6312C12.6065 15.6584 12.4033 15.7215 12.2153 15.8175C11.98 15.9371 11.9203 16.0777 11.706 16.1937C11.3127 16.4047 10.9228 16.3062 10.5506 16.3625C10.0343 16.4363 9.53205 16.693 9.59176 16.8934C9.65146 17.0938 10.2942 16.8617 10.238 16.7106Z" fill="#F4C222"/>
</g>
<g opacity="0.33">
<path opacity="0.33" d="M10.4171 17.3996C10.7239 17.3397 11.0353 17.3068 11.3478 17.3012C11.5382 17.2805 11.7256 17.238 11.9063 17.1746C12.0442 17.1251 12.1762 17.0603 12.2996 16.9812C12.4015 16.918 12.5771 16.7105 12.707 16.6613C12.9053 16.6212 13.1104 16.6309 13.3041 16.6894C13.49 16.691 13.6753 16.6686 13.8555 16.6226C14.0512 16.5782 14.2409 16.511 14.4209 16.4222C14.5731 16.3371 14.7155 16.2357 14.8459 16.1199C15.1479 16.1585 15.5483 15.8632 15.2568 15.8245C14.579 15.7366 14.2032 16.3695 13.5886 16.38C13.3532 16.38 13.3006 16.2816 12.9985 16.3203C12.7891 16.3453 12.5858 16.4072 12.398 16.5031C12.1626 16.6261 12.1029 16.7668 11.8887 16.8793C11.4954 17.0902 11.1055 16.9953 10.7332 17.048C10.217 17.1219 9.71472 17.3785 9.77091 17.5789C9.82711 17.7793 10.4733 17.5508 10.4171 17.3996Z" fill="#F4C222"/>
</g>
<g opacity="0.33">
<path opacity="0.33" d="M10.7022 18.1063C11.0091 18.0474 11.3205 18.0156 11.6329 18.0114C11.8173 17.9893 11.9987 17.9468 12.1738 17.8848C12.3114 17.8346 12.4433 17.7698 12.5671 17.6914C12.6951 17.5726 12.8325 17.4644 12.9781 17.368C13.2063 17.2836 13.4171 17.3926 13.5716 17.3961C13.7575 17.401 13.9431 17.3797 14.123 17.3328C14.3182 17.2868 14.5078 17.2196 14.6885 17.1324C14.8414 17.0468 14.985 16.9455 15.1169 16.8301C15.419 16.8687 15.8193 16.5734 15.5243 16.5347C14.85 16.4468 14.4707 17.0797 13.8561 17.0902C13.6208 17.0902 13.5716 16.9883 13.2661 17.027C13.057 17.0558 12.8542 17.1188 12.6655 17.2133C12.4302 17.3328 12.3705 17.477 12.1562 17.5895C11.7629 17.8004 11.373 17.7055 11.0043 17.7582C10.4845 17.8321 9.98225 18.0887 10.042 18.2891C10.1017 18.4895 10.7444 18.2575 10.6882 18.1063H10.7022Z" fill="#F4C222"/>
</g>
<g opacity="0.33">
<path opacity="0.33" d="M10.9024 18.8271C11.2055 18.767 11.5136 18.7353 11.8226 18.7321C12.0118 18.7114 12.198 18.669 12.3775 18.6056C12.517 18.5556 12.6502 18.4896 12.7744 18.4087C12.8762 18.3454 13.0483 18.138 13.1818 18.0887C13.41 18.0044 13.6208 18.1133 13.7753 18.1169C13.9624 18.1187 14.1489 18.0962 14.3302 18.0501C14.5252 18.0048 14.7147 17.9388 14.8957 17.8532C15.0521 17.7666 15.1992 17.6641 15.3347 17.5473C15.6367 17.586 16.0371 17.2906 15.7456 17.252C15.0678 17.1641 14.692 17.7969 14.0773 17.811C13.8385 17.811 13.7894 17.709 13.4838 17.7477C13.2746 17.7737 13.0715 17.8355 12.8832 17.9305C12.6479 18.0536 12.5917 18.1942 12.374 18.3102C11.9806 18.5177 11.5908 18.4227 11.222 18.4755C10.7057 18.5493 10.2 18.8095 10.2597 19.0064C10.3194 19.2032 10.9621 18.9782 10.9059 18.8271H10.9024Z" fill="#F4C222"/>
</g>
<g opacity="0.33">
<path opacity="0.33" d="M11.0954 19.5126C11.4023 19.4537 11.7137 19.422 12.0261 19.4177C12.2153 19.3966 12.4014 19.3541 12.581 19.2911C12.7187 19.2409 12.8505 19.1761 12.9744 19.0978C13.1023 18.9789 13.2398 18.8708 13.3853 18.7743C13.6136 18.6899 13.8243 18.7989 13.9788 18.8024C14.1647 18.8073 14.3503 18.786 14.5302 18.7391C14.7254 18.6932 14.915 18.626 15.0957 18.5387C15.2486 18.4532 15.3922 18.3518 15.5242 18.2364C15.8262 18.2751 16.2266 17.9797 15.9316 17.9411C15.2572 17.8532 14.8779 18.486 14.2633 18.4966C14.028 18.4966 13.9788 18.3946 13.6733 18.4333C13.4643 18.4621 13.2614 18.5251 13.0727 18.6196C12.8374 18.7391 12.7777 18.8798 12.5635 18.9958C12.1701 19.2068 11.7803 19.1118 11.4115 19.1646C10.8917 19.2384 10.3895 19.495 10.4492 19.6954C10.5089 19.8959 11.1516 19.6638 11.0954 19.5126Z" fill="#F4C222"/>
</g>
<g opacity="0.33">
<path opacity="0.33" d="M11.2917 20.2017C11.5985 20.1428 11.91 20.111 12.2224 20.1068C12.4116 20.0861 12.5978 20.0436 12.7773 19.9802C12.916 19.9298 13.049 19.865 13.1741 19.7868C13.276 19.72 13.4481 19.5126 13.5815 19.4634C13.8098 19.379 14.0206 19.488 14.1751 19.4915C14.3619 19.4929 14.5483 19.4716 14.73 19.4282C14.925 19.3817 15.1146 19.3145 15.2954 19.2278C15.4478 19.1417 15.5903 19.0391 15.7204 18.922C16.0225 18.9641 16.4228 18.6688 16.1313 18.6301C15.4535 18.5422 15.0777 19.1751 14.4631 19.1856C14.2243 19.1856 14.1751 19.0837 13.8695 19.1224C13.6602 19.1496 13.457 19.2126 13.269 19.3087C13.0337 19.4282 12.9775 19.5689 12.7597 19.6849C12.3664 19.8958 11.9765 19.8009 11.6078 19.8536C11.0915 19.9275 10.5857 20.1841 10.6454 20.3845C10.7051 20.5849 11.3479 20.3529 11.2917 20.2017Z" fill="#F4C222"/>
</g>
<g opacity="0.33">
<path opacity="0.33" d="M11.4923 20.9225C11.7991 20.8626 12.1105 20.8296 12.423 20.824C12.6134 20.8033 12.8008 20.7609 12.9815 20.6974C13.12 20.6494 13.2521 20.5845 13.3748 20.5041C13.4767 20.4408 13.6488 20.2334 13.7822 20.1841C13.9793 20.1439 14.1833 20.1536 14.3758 20.2123C14.5628 20.2141 14.7494 20.1916 14.9307 20.1455C15.1263 20.1011 15.3161 20.0338 15.4961 19.9451C15.6483 19.8599 15.7907 19.7585 15.9211 19.6427C16.2231 19.6814 16.6235 19.386 16.332 19.3474C15.6542 19.2595 15.2784 19.8923 14.6638 19.9029C14.4284 19.9029 14.3758 19.8044 14.0737 19.8431C13.8643 19.8681 13.661 19.93 13.4732 20.0259C13.2343 20.149 13.1781 20.2896 12.9639 20.4056C12.5705 20.6131 12.1807 20.5181 11.8084 20.5709C11.2921 20.6447 10.7899 20.9049 10.8461 21.1018C10.9023 21.2986 11.5485 21.0736 11.4923 20.9225Z" fill="#F4C222"/>
</g>
<g opacity="0.33">
<path opacity="0.33" d="M11.6858 21.6081C11.9927 21.5492 12.3041 21.5174 12.6165 21.5132C12.8057 21.4925 12.9919 21.45 13.1714 21.3866C13.3137 21.3369 13.4503 21.2721 13.5788 21.1932C13.6807 21.1264 13.8528 20.919 13.9862 20.8698C14.2145 20.7854 14.4252 20.8944 14.5798 20.8979C14.7666 20.8993 14.9529 20.878 15.1347 20.8346C15.3249 20.7871 15.5097 20.7199 15.6861 20.6342C15.8384 20.548 15.9809 20.4455 16.111 20.3283C16.4131 20.3705 16.8135 20.0752 16.522 20.0365C15.8441 19.9486 15.4683 20.5815 14.8537 20.592C14.6149 20.592 14.5657 20.4901 14.2602 20.5287C14.0508 20.556 13.8477 20.619 13.6596 20.7151C13.4243 20.8346 13.3681 20.9752 13.1503 21.0913C12.757 21.3022 12.3671 21.2073 11.9984 21.26C11.4821 21.3339 10.9764 21.5905 11.0361 21.7909C11.0958 21.9913 11.7385 21.7593 11.6823 21.6081H11.6858Z" fill="#F4C222"/>
</g>
<g opacity="0.33">
<path opacity="0.33" d="M11.9556 22.3183C12.2588 22.2586 12.5668 22.2269 12.8758 22.2233C13.0661 22.2027 13.2535 22.1602 13.4342 22.0968C13.5723 22.0462 13.7043 21.9801 13.8276 21.8999C13.9329 21.8366 14.105 21.6292 14.235 21.5799C14.4335 21.5433 14.6378 21.5529 14.832 21.6081C15.0179 21.6097 15.2033 21.5872 15.3834 21.5413C15.5785 21.4964 15.7681 21.4304 15.9489 21.3444C16.1059 21.2587 16.2531 21.1561 16.3879 21.0385C16.6934 21.0772 17.0903 20.7818 16.7988 20.7432C16.121 20.6553 15.7452 21.2881 15.1305 21.3022C14.8952 21.3022 14.8461 21.2002 14.5405 21.2389C14.3311 21.2639 14.1278 21.3258 13.9399 21.4217C13.7046 21.5448 13.6449 21.6854 13.4307 21.8014C13.0373 22.0089 12.6475 21.9139 12.2752 21.9667C11.7589 22.0405 11.2567 22.3007 11.3129 22.4976C11.3691 22.6945 12.0153 22.4694 11.9591 22.3183H11.9556Z" fill="#F4C222"/>
</g>
<g opacity="0.33">
<path opacity="0.33" d="M12.1735 23.0355C12.4804 22.9766 12.7918 22.9449 13.1042 22.9406C13.2934 22.9195 13.4795 22.877 13.6591 22.814C13.7968 22.7638 13.9286 22.699 14.0525 22.6206C14.1805 22.5018 14.3179 22.3936 14.4634 22.2972C14.6917 22.2128 14.9024 22.3218 15.057 22.3253C15.2428 22.3302 15.4284 22.3089 15.6083 22.262C15.8036 22.216 15.9932 22.1488 16.1738 22.0616C16.3262 21.9751 16.4697 21.8739 16.6023 21.7593C16.9043 21.7979 17.3047 21.5026 17.0097 21.4639C16.3354 21.376 15.956 22.0089 15.3414 22.0194C15.1061 22.0194 15.0569 21.9175 14.7514 21.9562C14.5424 21.985 14.3395 22.048 14.1508 22.1425C13.9155 22.262 13.8558 22.4062 13.6416 22.5187C13.2482 22.7296 12.8584 22.6347 12.4896 22.6874C11.9698 22.7613 11.4676 23.0179 11.5273 23.2183C11.587 23.4187 12.2297 23.1867 12.1735 23.0355Z" fill="#F4C222"/>
</g>
<g opacity="0.33">
<path opacity="0.33" d="M12.3488 23.7246C12.6554 23.6643 12.967 23.6325 13.2795 23.6296C13.4698 23.609 13.6572 23.5665 13.8379 23.5031C13.976 23.4525 14.108 23.3864 14.2313 23.3062C14.3331 23.2429 14.5087 23.0355 14.6387 22.9863C14.8372 22.9496 15.0415 22.9592 15.2357 23.0144C15.4216 23.016 15.607 22.9935 15.7871 22.9476C15.9822 22.9027 16.1718 22.8367 16.3526 22.7507C16.5047 22.6642 16.6471 22.5616 16.7775 22.4448C17.0796 22.4835 17.4799 22.1882 17.1884 22.1495C16.5106 22.0616 16.1348 22.6944 15.5202 22.7085C15.2849 22.7085 15.2357 22.6065 14.9302 22.6452C14.7208 22.6702 14.5174 22.7321 14.3296 22.828C14.0943 22.9511 14.0346 23.0917 13.8203 23.2078C13.427 23.4152 13.0371 23.3203 12.6649 23.373C12.1486 23.4468 11.6464 23.707 11.7026 23.9039C11.7587 24.1008 12.405 23.8758 12.3488 23.7246Z" fill="#F4C222"/>
</g>
<path d="M28.9814 21.2425V10.9194H32.3527C33.4718 10.9194 34.3122 11.151 34.8741 11.6143C35.4407 12.0775 35.724 12.7628 35.724 13.6704C35.724 14.1525 35.5871 14.5803 35.3132 14.9537C35.0393 15.3223 34.6663 15.6083 34.1942 15.8116C34.7513 15.9675 35.1904 16.2653 35.5115 16.7049C35.8373 17.1398 36.0002 17.6597 36.0002 18.2647C36.0002 19.1911 35.7004 19.919 35.1007 20.4484C34.5011 20.9778 33.6535 21.2425 32.5581 21.2425H28.9814ZM30.3413 16.4142V20.1294H32.5864C33.2191 20.1294 33.7173 19.9663 34.0808 19.6402C34.4491 19.3093 34.6333 18.8555 34.6333 18.2789C34.6333 17.0358 33.9581 16.4142 32.6077 16.4142H30.3413ZM30.3413 15.3223H32.3952C32.9901 15.3223 33.4647 15.1735 33.8188 14.8757C34.1776 14.5779 34.3571 14.1738 34.3571 13.6633C34.3571 13.0961 34.1918 12.6849 33.8613 12.4296C33.5308 12.1696 33.0279 12.0397 32.3527 12.0397H30.3413V15.3223Z" fill="#F4C222" stroke="#F4C222" stroke-width="2"/>
</g>
</svg>
