<svg width="152" height="112" viewBox="0 0 152 112" fill="none" xmlns="http://www.w3.org/2000/svg">
<path d="M101.405 87.8424H83.4807L79.4552 99.0105H73.6372L89.9745 56.2192H94.911L111.278 99.0105H105.489L101.405 87.8424ZM85.185 83.1989H99.7299L92.4428 63.1846L85.185 83.1989Z" fill="#F4C222" stroke="#F4C222" stroke-width="5"/>
<path d="M36.3127 47.3577C35.7838 51.8837 34.1089 55.3811 31.288 57.8498C28.4868 60.2989 24.7551 61.5235 20.0929 61.5235C15.0389 61.5235 10.9839 59.7111 7.92801 56.0864C4.89169 52.4617 3.37354 47.6124 3.37354 41.5386V37.424C3.37354 33.4466 4.07874 29.9493 5.48916 26.9319C6.91917 23.9146 8.93685 21.6026 11.5422 19.996C14.1476 18.3698 17.1643 17.5566 20.5924 17.5566C25.1371 17.5566 28.7806 18.8302 31.5231 21.3773C34.2656 23.9048 35.8621 27.412 36.3127 31.8988H30.6416C30.1519 28.4896 29.0843 26.0208 27.4388 24.4926C25.8129 22.9643 23.5308 22.2002 20.5924 22.2002C16.988 22.2002 14.1574 23.5325 12.1005 26.1972C10.0632 28.8618 9.04459 32.6531 9.04459 37.571V41.7149C9.04459 46.3584 10.0143 50.0517 11.9536 52.7948C13.8929 55.5378 16.606 56.9093 20.0929 56.9093C23.2271 56.9093 25.6268 56.204 27.2919 54.7933C28.9765 53.363 30.0931 50.8844 30.6416 47.3577H36.3127Z" fill="#CE2489" stroke="#CE2489" stroke-width="5"/>
<path d="M117.726 57.5562L78.394 46.7129L78.2895 47.0922L117.621 57.9356L117.726 57.5562Z" fill="#CCD4D2"/>
<path d="M117.204 59.4757L77.8721 48.6323L77.7675 49.0117L117.099 59.855L117.204 59.4757Z" fill="#CCD4D2"/>
<path d="M116.665 61.4195L77.3335 50.5762L77.229 50.9555L116.561 61.7989L116.665 61.4195Z" fill="#CCD4D2"/>
<path d="M116.401 62.3932L77.0688 51.5498L76.9643 51.9292L116.296 62.7725L116.401 62.3932Z" fill="#CCD4D2"/>
<path d="M116.14 63.3526L76.8081 52.5093L76.7036 52.8886L116.035 63.7319L116.14 63.3526Z" fill="#CCD4D2"/>
<path d="M116.926 60.4454L77.5942 49.6021L77.4897 49.9814L116.821 60.8247L116.926 60.4454Z" fill="#CCD4D2"/>
<path d="M117.465 58.5157L78.1333 47.6724L78.0288 48.0517L117.361 58.8951L117.465 58.5157Z" fill="#CCD4D2"/>
<path d="M117.651 56.5291L82.681 46.8666C81.6446 46.6248 80.5549 46.7932 79.6397 47.3364C78.7246 47.8796 78.0548 48.7557 77.7706 49.7814C77.6227 50.2924 77.5785 50.8278 77.6404 51.3561C77.7024 51.8845 77.8692 52.3951 78.1312 52.8581C78.3932 53.321 78.745 53.7269 79.166 54.052C79.587 54.3771 80.0686 54.6148 80.5827 54.7511C80.845 54.7511 81.1364 54.9259 81.3987 54.9842L115.465 64.3844C113.775 63.5099 113.513 61.7028 114.008 59.779C114.504 57.8553 115.742 56.325 117.651 56.5291Z" fill="white"/>
<path d="M128.58 9.54362L95.4458 0.42041H95.3147L82.332 47.5813H82.4777L115.568 56.7045C115.939 56.8106 116.328 56.8419 116.711 56.7965C117.095 56.7512 117.465 56.63 117.802 56.4402C118.138 56.2504 118.433 55.9956 118.67 55.6907C118.907 55.3858 119.081 55.0369 119.182 54.6642L130.635 13.0705C130.822 12.3306 130.712 11.5468 130.328 10.8873C129.943 10.2278 129.316 9.7454 128.58 9.54362Z" fill="#26B824"/>
<path d="M80.7426 54.7659H80.5969C80.9736 53.5802 81.2801 52.3733 81.5149 51.1516C82.0686 49.1695 82.8117 47.7705 82.5931 47.683L82.8117 47.7705L93.5067 8.42114H93.6378L95.8089 0.536703H95.5904C94.5989 0.178556 93.5152 0.168106 92.5171 0.50707C91.5189 0.846034 90.6656 1.51428 90.0971 2.40215C89.8946 2.93786 89.7338 3.48845 89.6163 4.04899C89.6163 4.04899 76.925 49.7088 76.8667 49.8982C76.8187 50.0849 76.7846 50.2749 76.7647 50.4666V50.5978C76.7041 51.7286 77.0431 52.8446 77.7224 53.7506C78.4017 54.6565 79.378 55.2945 80.4803 55.5529H80.5823L80.7426 54.7659Z" fill="#3E992E"/>
<path d="M117.739 57.1703C117.739 57.1703 113.528 60.4203 115.918 64.4572L78.0332 54.0369L80.0003 46.1816L117.739 57.1703Z" fill="#E7E5E5"/>
<path d="M78.7319 51.0931C79.3439 50.8453 86.4399 48.018 116.616 58.2634C116.868 57.7728 117.279 57.3822 117.782 57.1558L80.6699 46.0068L78.7319 51.0931Z" fill="#CECECD"/>
<path d="M79.7085 49.5341L79.9854 48.5285C80.4808 46.7213 81.8359 47.246 81.8359 47.246L118.511 57.3602L119.079 55.2762L82.0253 45.0745C81.4181 44.8708 80.756 44.9073 80.1748 45.1765H80.0582H79.9854C79.082 45.7303 75.4393 48.3682 77.246 54.0083C77.348 54.4447 77.5743 54.8422 77.8976 55.1526C78.2209 55.4631 78.6272 55.673 79.0674 55.7571L116.121 65.9588L116.689 63.8747L79.9999 53.9062C79.9999 53.9062 78.5429 53.6731 79.0674 51.8659L79.3443 50.8457L79.7085 49.5341Z" fill="#26B824"/>
<path d="M80.0006 53.9059C80.0006 53.9059 78.5435 53.6727 79.0681 51.8656L79.3449 50.8454L79.7092 49.5338L79.986 48.5282C80.4815 46.721 81.8366 47.2457 81.8366 47.2457L88.1603 49.0382L88.7432 46.9688L81.9677 45.1033C81.3605 44.8996 80.6983 44.9361 80.1172 45.2053H80.0006H79.9278C79.0244 45.7591 75.3816 48.397 77.1884 54.0371C77.2904 54.4735 77.5167 54.871 77.84 55.1815C78.1633 55.4919 78.5696 55.7018 79.0098 55.7859L85.8144 57.7825L86.3972 55.7131L80.0006 53.9059Z" fill="#3E992E"/>
<path d="M89.8212 53.0897C88.8399 52.6498 87.814 52.3175 86.7612 52.0986C87.2516 52.7673 87.5716 53.5455 87.6935 54.3657C87.8153 55.186 87.7354 56.0236 87.4607 56.806L89.486 55.2466L91.1617 57.2286C91.1617 57.2286 91.3074 54.1827 89.8212 53.0897Z" fill="#EA5645"/>
<path d="M95.4886 0.423587L83.1025 45.3691L88.8056 46.9414L101.192 1.99587L95.4886 0.423587Z" fill="#3E992E"/>
<path d="M102.468 25.8371L97.2956 24.3797L95.0954 28.883L90.7241 27.688L102.133 7.08057L107.218 8.53795L106.461 32.0892L102.089 30.865L102.468 25.8371ZM102.774 21.8438L103.605 11.6422L99.0441 20.882L102.774 21.8438Z" fill="#CE2489"/>
<path d="M106.039 20.1088L98.7061 46.7192L115.745 51.4167L123.078 24.8063L106.039 20.1088Z" fill="#F4C222"/>
<path d="M115.946 40.6439C114.81 44.7683 111.823 45.1909 108.18 44.1853L103.503 42.8883L108.559 24.7876L112.653 25.9098C116.544 26.9882 118.598 28.8245 117.666 32.2785C117.496 33.1502 117.034 33.9377 116.356 34.5103C115.677 35.0829 114.823 35.4062 113.936 35.4265C114.872 35.8766 115.601 36.6671 115.975 37.6366C116.349 38.6061 116.338 39.6817 115.946 40.6439ZM111.094 28.7662L109.929 32.9635L111.211 33.3279C111.497 33.4498 111.808 33.5036 112.119 33.4849C112.43 33.4662 112.732 33.3756 113.002 33.2202C113.272 33.0647 113.502 32.8488 113.674 32.5892C113.846 32.3297 113.956 32.0338 113.994 31.7247C114.417 30.2674 113.746 29.4949 112.1 29.0432L111.094 28.7662ZM112.479 39.4343C112.619 39.106 112.681 38.7498 112.661 38.3934C112.641 38.037 112.538 37.6901 112.362 37.3798C112.186 37.0694 111.94 36.804 111.645 36.6042C111.349 36.4045 111.011 36.2757 110.657 36.228L109.2 35.82L107.845 40.7313L109.098 41.0811C110.672 41.5183 111.925 41.4163 112.479 39.4343Z" fill="#22B1B6"/>
<path d="M64.0826 47.3217L30.3371 56.7709C27.8185 57.4762 26.3484 60.0899 27.0535 62.609L39.4863 107.027C40.1914 109.546 42.8046 111.017 45.3231 110.311L79.0687 100.862C81.5872 100.157 83.0573 97.5433 82.3522 95.0242L69.9195 50.6059C69.2144 48.0869 66.6011 46.6165 64.0826 47.3217Z" fill="#A685E2"/>
<g style="mix-blend-mode:multiply" opacity="0.52">
<path d="M63.4417 49.2801L32.7971 57.8611C31.3712 58.2603 30.5389 59.7401 30.9381 61.1663L42.8995 103.9C43.2987 105.327 44.7782 106.159 46.204 105.76L76.8486 97.1789C78.2745 96.7797 79.1068 95.2999 78.7076 93.8737L66.7462 51.1395C66.3471 49.7133 64.8676 48.8809 63.4417 49.2801Z" fill="#FE487C"/>
</g>
<path d="M60.073 52.5308L36.4581 59.1433C34.2031 59.7747 32.8868 62.1151 33.5181 64.3706L43.425 99.7649C44.0563 102.02 46.3962 103.337 48.6513 102.706L72.2661 96.093C74.5212 95.4616 75.8375 93.1212 75.2061 90.8657L65.2992 55.4714C64.6679 53.2159 62.328 51.8994 60.073 52.5308Z" fill="white"/>
<path d="M55.4239 47.0781L37.604 52.0679L39.6781 59.4779L57.498 54.4881L55.4239 47.0781Z" fill="#0F0B49"/>
<g opacity="0.33">
<path opacity="0.33" d="M40.8586 64.0247C42.1314 63.7765 43.4234 63.6399 44.7199 63.6166C45.5097 63.5309 46.287 63.3549 47.0367 63.092C47.609 62.8869 48.1564 62.618 48.6686 62.2904C49.0912 62.0281 49.8197 61.1682 50.3588 60.9642C51.1815 60.798 52.0325 60.8381 52.8359 61.0808C53.6072 61.0874 54.3761 60.9943 55.1235 60.8039C55.9353 60.6199 56.7227 60.3411 57.4694 59.9732C58.1006 59.6202 58.6917 59.2 59.2325 58.7198C60.4856 58.8802 62.1467 57.656 60.9373 57.4956C58.1251 57.1313 56.566 59.7546 54.0161 59.7983C53.0399 59.7983 52.8213 59.3902 51.5682 59.5505C50.6995 59.6542 49.8559 59.9108 49.0766 60.3084C48.1003 60.8185 47.8526 61.4014 46.9638 61.8824C45.3319 62.7422 43.7145 62.3487 42.17 62.5673C40.0281 62.8734 37.9444 63.9373 38.1776 64.768C38.4107 65.5987 41.0917 64.6514 40.8586 64.0247Z" fill="#0F0B49"/>
</g>
<g opacity="0.33">
<path opacity="0.33" d="M41.7026 66.9979C42.9757 66.7538 44.2677 66.6221 45.5639 66.6044C46.3486 66.517 47.1209 66.341 47.8661 66.0798C48.4371 65.8717 48.9842 65.6029 49.498 65.2782C49.9352 65.0013 50.6491 64.1415 51.2028 63.9374C52.1499 63.5877 53.0096 64.0394 53.6653 64.054C54.4357 64.0597 55.2038 63.9716 55.9529 63.7917C56.7628 63.6011 57.5495 63.3225 58.2989 62.961C58.9333 62.6076 59.5249 62.1821 60.0619 61.6931C61.3296 61.868 62.9761 60.6438 61.7667 60.4834C58.9691 60.1191 57.3955 62.7424 54.8456 62.7861C53.8693 62.7861 53.6653 62.3635 52.3976 62.5238C51.529 62.6367 50.6862 62.8979 49.906 63.2962C48.9298 63.7917 48.6821 64.3746 47.7932 64.8556C46.1613 65.73 44.5439 65.3219 42.9994 65.5551C40.8575 65.8612 38.7739 66.9251 39.0216 67.7558C39.2693 68.5865 41.9357 67.6246 41.7026 66.9979Z" fill="#0F0B49"/>
</g>
<g opacity="0.33">
<path opacity="0.33" d="M42.447 69.8543C43.7197 69.6061 45.0118 69.4695 46.3083 69.4462C47.098 69.3605 47.8754 69.1845 48.625 68.9216C49.1974 68.7165 49.7448 68.4476 50.257 68.12C50.6795 67.8577 51.4081 66.9978 51.9472 66.7938C52.7698 66.6276 53.6208 66.6677 54.4243 66.9104C55.1955 66.917 55.9644 66.8239 56.7119 66.6335C57.5237 66.4495 58.3111 66.1707 59.0578 65.8028C59.689 65.4498 60.2801 65.0296 60.8209 64.5494C62.074 64.7098 63.735 63.4855 62.5257 63.3252C59.7135 62.9609 58.1544 65.5842 55.6045 65.6279C54.6282 65.6279 54.4097 65.2198 53.1566 65.3801C52.2879 65.4838 51.4443 65.7404 50.665 66.138C49.6887 66.6481 49.441 67.231 48.5522 67.6974C46.9202 68.5718 45.3029 68.1783 43.7584 68.3969C41.6164 68.703 39.5328 69.7669 39.7659 70.5976C39.9991 71.4283 42.6801 70.481 42.447 69.8543Z" fill="#0F0B49"/>
</g>
<g opacity="0.33">
<path opacity="0.33" d="M43.6276 72.7836C44.9007 72.5394 46.1927 72.4078 47.4889 72.3901C48.2539 72.2984 49.0064 72.1224 49.7328 71.8654C50.3038 71.6573 50.8509 71.3886 51.3647 71.0639C51.8956 70.5713 52.4658 70.1229 53.0695 69.7231C54.0166 69.3733 54.8909 69.8251 55.532 69.8397C56.3031 69.8598 57.0731 69.7715 57.8196 69.5773C58.6295 69.3867 59.4162 69.1082 60.1656 68.7466C60.8001 68.3918 61.3959 67.9718 61.9432 67.4933C63.1963 67.6536 64.8574 66.4294 63.6334 66.2691C60.8358 65.9047 59.2622 68.528 56.7122 68.5717C55.736 68.5717 55.532 68.1491 54.2643 68.3094C53.3972 68.4291 52.5555 68.69 51.7727 69.0818C50.7965 69.5773 50.5488 70.1749 49.6599 70.6412C48.028 71.5157 46.4106 71.1222 44.8807 71.3408C42.7242 71.6468 40.6406 72.7107 40.8883 73.5414C41.136 74.3721 43.8024 73.4103 43.5693 72.7836H43.6276Z" fill="#0F0B49"/>
</g>
<g opacity="0.33">
<path opacity="0.33" d="M44.4579 75.7713C45.7156 75.5225 46.9936 75.3908 48.2755 75.3778C49.0605 75.292 49.833 75.116 50.5777 74.8532C51.1565 74.6462 51.7091 74.3723 52.2242 74.037C52.6468 73.7747 53.3608 72.9148 53.9145 72.7108C54.8616 72.361 55.7358 72.8128 56.3769 72.8274C57.1531 72.8349 57.9269 72.7418 58.6791 72.5505C59.4879 72.3628 60.2744 72.0892 61.025 71.7343C61.6742 71.3756 62.2846 70.9507 62.8464 70.4664C64.0995 70.6267 65.7606 69.4025 64.5512 69.2422C61.739 68.8779 60.1799 71.5012 57.63 71.5595C56.6392 71.5595 56.4352 71.1368 55.1676 71.2971C54.2997 71.4049 53.4568 71.6612 52.6759 72.055C51.6997 72.5651 51.4665 73.148 50.5631 73.6289C48.9312 74.4888 47.3138 74.0953 45.7839 74.3139C43.642 74.62 41.5437 75.6984 41.7915 76.5146C42.0392 77.3307 44.7056 76.398 44.4725 75.7713H44.4579Z" fill="#0F0B49"/>
</g>
<g opacity="0.33">
<path opacity="0.33" d="M45.2588 78.6132C46.5318 78.369 47.8239 78.2373 49.12 78.2197C49.9048 78.1322 50.6771 77.9562 51.4223 77.695C51.9933 77.4869 52.5404 77.2182 53.0542 76.8934C53.5851 76.4009 54.1552 75.9525 54.759 75.5527C55.7061 75.2029 56.5803 75.6547 57.2215 75.6693C57.9925 75.6894 58.7626 75.6011 59.5091 75.4069C60.319 75.2163 61.1056 74.9377 61.855 74.5762C62.4896 74.2214 63.0853 73.8014 63.6327 73.3229C64.8858 73.4832 66.5468 72.259 65.3229 72.0987C62.5253 71.7343 60.9516 74.3576 58.4017 74.4013C57.4255 74.4013 57.2215 73.9787 55.9538 74.139C55.0867 74.2586 54.245 74.5196 53.4622 74.9114C52.4859 75.4069 52.2382 75.9899 51.3494 76.4708C49.7175 77.3452 48.1001 76.9517 46.5701 77.1704C44.4136 77.4764 42.33 78.5403 42.5777 79.371C42.8254 80.2017 45.4919 79.2398 45.2588 78.6132Z" fill="#0F0B49"/>
</g>
<g opacity="0.33">
<path opacity="0.33" d="M46.0736 81.4696C47.3466 81.2255 48.6387 81.0938 49.9349 81.0761C50.7199 80.9903 51.4924 80.8143 52.2371 80.5515C52.8124 80.3427 53.3643 80.074 53.8836 79.7499C54.3061 79.473 55.0201 78.6131 55.5738 78.4091C56.5209 78.0593 57.3952 78.5111 58.0363 78.5257C58.8114 78.5314 59.5845 78.4433 60.3385 78.2634C61.1477 78.0704 61.934 77.7919 62.6844 77.4327C63.3165 77.0755 63.9077 76.6503 64.4475 76.1647C65.7006 76.3396 67.3617 75.1154 66.1523 74.9551C63.3401 74.5908 61.781 77.2141 59.2311 77.2578C58.2403 77.2578 58.0363 76.8351 56.7686 76.9955C55.9 77.1083 55.0572 77.3696 54.277 77.7679C53.3007 78.2634 53.0676 78.8463 52.1642 79.3273C50.5323 80.2017 48.9149 79.8082 47.385 80.0268C45.243 80.3328 43.1448 81.3967 43.3925 82.2274C43.6402 83.0581 46.3067 82.0963 46.0736 81.4696Z" fill="#0F0B49"/>
</g>
<g opacity="0.33">
<path opacity="0.33" d="M46.9045 84.4573C48.1773 84.2091 49.4693 84.0726 50.7658 84.0493C51.5556 83.9636 52.3329 83.7875 53.0826 83.5246C53.6574 83.3255 54.2055 83.0563 54.7145 82.723C55.1371 82.4607 55.851 81.6009 56.4047 81.3968C57.2225 81.23 58.0689 81.2701 58.8672 81.5134C59.6433 81.5209 60.4172 81.4278 61.1694 81.2365C61.9812 81.0525 62.7686 80.7737 63.5153 80.4058C64.1465 80.0529 64.7376 79.6326 65.2784 79.1525C66.5315 79.3128 68.1926 78.0886 66.9832 77.9283C64.171 77.5639 62.6119 80.1872 60.062 80.2309C59.0858 80.2309 58.8672 79.8229 57.6141 79.9832C56.7454 80.0868 55.9018 80.3434 55.1225 80.741C54.1317 81.2511 53.8985 81.834 53.0097 82.315C51.3778 83.1748 49.7604 82.7813 48.2159 83C46.074 83.306 43.9903 84.3845 44.2235 85.2006C44.4566 86.0167 47.1376 85.084 46.9045 84.4573Z" fill="#0F0B49"/>
</g>
<g opacity="0.33">
<path opacity="0.33" d="M47.7073 87.2992C48.9804 87.0551 50.2724 86.9234 51.5686 86.9057C52.3536 86.8199 53.1261 86.6439 53.8708 86.3811C54.4612 86.1751 55.0279 85.9064 55.561 85.5795C55.9836 85.3026 56.6975 84.4427 57.2512 84.2387C58.1983 83.8889 59.0726 84.3407 59.7137 84.3553C60.4889 84.361 61.2619 84.2729 62.0159 84.093C62.8052 83.8961 63.5718 83.6177 64.3035 83.2623C64.9357 82.9051 65.5269 82.4799 66.0666 81.9943C67.3197 82.1692 68.9808 80.945 67.7714 80.7847C64.9592 80.4204 63.4001 83.0437 60.8502 83.0874C59.8594 83.0874 59.6554 82.6647 58.3878 82.825C57.5191 82.9379 56.6763 83.1992 55.8961 83.5975C54.9199 84.093 54.6867 84.6759 53.7834 85.1569C52.1514 86.0313 50.534 85.6378 49.0041 85.8564C46.8622 86.1625 44.764 87.2263 45.0117 88.0571C45.2594 88.8878 47.9258 87.9259 47.6927 87.2992H47.7073Z" fill="#0F0B49"/>
</g>
<g opacity="0.33">
<path opacity="0.33" d="M48.8284 90.243C50.0863 89.9959 51.3641 89.8641 52.646 89.8495C53.4357 89.7638 54.2131 89.5877 54.9627 89.3248C55.5357 89.115 56.0831 88.8412 56.5947 88.5087C57.0318 88.2464 57.7458 87.3865 58.2849 87.1825C59.1086 87.0304 59.9562 87.0703 60.762 87.2991C61.5332 87.3056 62.3021 87.2126 63.0496 87.0222C63.8589 86.8363 64.6456 86.5627 65.3955 86.206C66.0469 85.8509 66.6576 85.4257 67.2169 84.9381C68.4845 85.0984 70.131 83.8742 68.9217 83.7139C66.1095 83.3496 64.5504 85.9728 62.0005 86.0311C61.0242 86.0311 60.8202 85.6085 59.5526 85.7688C58.6838 85.8725 57.8403 86.129 57.061 86.5267C56.0847 87.0367 55.837 87.6197 54.9482 88.1006C53.3162 88.9605 51.6989 88.567 50.1544 88.7856C48.0124 89.0917 45.9288 90.1701 46.1619 90.9863C46.3951 91.8024 49.0761 90.8697 48.843 90.243H48.8284Z" fill="#0F0B49"/>
</g>
<g opacity="0.33">
<path opacity="0.33" d="M49.7314 93.2157C51.0045 92.9716 52.2965 92.8399 53.5927 92.8222C54.3774 92.7348 55.1497 92.5588 55.8949 92.2976C56.4659 92.0894 57.013 91.8207 57.5268 91.496C58.0577 91.0035 58.6278 90.555 59.2316 90.1552C60.1787 89.8054 61.053 90.2572 61.6941 90.2718C62.4652 90.292 63.2352 90.2037 63.9817 90.0095C64.7916 89.8188 65.5782 89.5403 66.3276 89.1788C66.9598 88.8202 67.5552 88.4005 68.1053 87.9254C69.3584 88.0857 71.0194 86.8615 69.7955 86.7012C66.9979 86.3369 65.4242 88.9602 62.8743 89.0039C61.8981 89.0039 61.6941 88.5812 60.4264 88.7415C59.5593 88.8612 58.7176 89.1221 57.9348 89.514C56.9586 90.0095 56.7109 90.607 55.822 91.0734C54.1901 91.9478 52.5727 91.5543 51.0428 91.7729C48.8863 92.079 46.8027 93.1428 47.0504 93.9735C47.2981 94.8043 49.9645 93.8424 49.7314 93.2157Z" fill="#0F0B49"/>
</g>
<g opacity="0.33">
<path opacity="0.33" d="M50.4597 96.0726C51.7319 95.8228 53.0245 95.6911 54.321 95.6791C55.1107 95.5934 55.8881 95.4173 56.6377 95.1544C57.2107 94.9446 57.7581 94.6708 58.2697 94.3383C58.6922 94.076 59.4208 93.2161 59.9599 93.0121C60.7836 92.86 61.6312 92.8999 62.437 93.1287C63.2082 93.1352 63.9771 93.0421 64.7246 92.8518C65.5339 92.6659 66.3206 92.3922 67.0705 92.0356C67.7016 91.6769 68.2927 91.2519 68.8336 90.7677C70.0867 90.928 71.7478 89.7038 70.5384 89.5435C67.7262 89.1791 66.1671 91.8024 63.6172 91.8607C62.6409 91.8607 62.4369 91.4381 61.1693 91.5984C60.3006 91.702 59.457 91.9586 58.6777 92.3562C57.7014 92.8663 57.4537 93.4493 56.5649 93.9302C54.9329 94.7901 53.3156 94.3966 51.7711 94.6152C49.6291 94.9212 47.5455 95.9997 47.7786 96.8158C48.0118 97.632 50.6928 96.6992 50.4597 96.0726Z" fill="#0F0B49"/>
</g>
<path d="M119.461 85.7839V42.9927H133.448C138.091 42.9927 141.578 43.9527 143.909 45.8729C146.259 47.793 147.435 50.634 147.435 54.3958C147.435 56.3943 146.867 58.1675 145.73 59.7154C144.594 61.2436 143.047 62.429 141.088 63.2715C143.399 63.9181 145.221 65.1524 146.553 66.9746C147.905 68.7772 148.581 70.9324 148.581 73.4403C148.581 77.2805 147.337 80.2979 144.849 82.4923C142.361 84.6867 138.845 85.7839 134.3 85.7839H119.461ZM125.103 65.7696V81.1698H134.418C137.043 81.1698 139.109 80.4938 140.618 79.1419C142.146 77.7704 142.91 75.8894 142.91 73.4991C142.91 68.3461 140.108 65.7696 134.506 65.7696H125.103ZM125.103 61.2436H133.624C136.093 61.2436 138.061 60.6264 139.531 59.3921C141.019 58.1577 141.764 56.4825 141.764 54.3665C141.764 52.0153 141.078 50.3107 139.707 49.2527C138.336 48.175 136.249 47.6362 133.448 47.6362H125.103V61.2436Z" fill="#1771B9" stroke="#1771B9" stroke-width="5"/>
</svg>
