<svg width="37" height="28" viewBox="0 0 37 28" fill="none" xmlns="http://www.w3.org/2000/svg">
<path d="M24.6285 21.7H20.3082L19.3379 24.3942H17.9355L21.8734 14.0711H23.0633L27.0082 24.3942H25.613L24.6285 21.7ZM20.719 20.5797H24.2248L22.4683 15.7514L20.719 20.5797Z" fill="#F4C222" stroke="#F4C222" stroke-width="2"/>
<path d="M8.93947 11.9333C8.81199 13.0252 8.40829 13.8689 7.72837 14.4644C7.05317 15.0553 6.15369 15.3507 5.02994 15.3507C3.81175 15.3507 2.83437 14.9135 2.09779 14.039C1.36593 13.1646 1 11.9948 1 10.5295V9.53688C1 8.57736 1.16998 7.73365 1.50994 7.00574C1.85462 6.27783 2.34095 5.72008 2.96893 5.33249C3.59691 4.94018 4.32405 4.74402 5.15034 4.74402C6.24577 4.74402 7.12399 5.05125 7.78503 5.66572C8.44606 6.27546 8.83087 7.12154 8.93947 8.20395H7.57255C7.45451 7.38151 7.19718 6.78595 6.80056 6.41727C6.40866 6.04858 5.85859 5.86424 5.15034 5.86424C4.28155 5.86424 3.59927 6.18566 3.1035 6.82849C2.61245 7.47132 2.36692 8.38593 2.36692 9.57233V10.572C2.36692 11.6922 2.60064 12.5832 3.06809 13.245C3.53553 13.9067 4.18948 14.2376 5.02994 14.2376C5.7854 14.2376 6.36381 14.0674 6.76515 13.7271C7.17121 13.382 7.44035 12.7841 7.57255 11.9333H8.93947Z" fill="#CE2489" stroke="#CE2489" stroke-width="2"/>
<path d="M28.5624 14.3936L19.082 11.7778L19.0568 11.8693L28.5372 14.4852L28.5624 14.3936Z" fill="#CCD4D2"/>
<path d="M28.4364 14.8567L18.9561 12.2408L18.9309 12.3323L28.4112 14.9482L28.4364 14.8567Z" fill="#CCD4D2"/>
<path d="M28.3065 15.3256L18.8262 12.7097L18.801 12.8012L28.2813 15.4171L28.3065 15.3256Z" fill="#CCD4D2"/>
<path d="M28.243 15.5605L18.7627 12.9446L18.7375 13.0362L28.2178 15.652L28.243 15.5605Z" fill="#CCD4D2"/>
<path d="M28.1805 15.792L18.7002 13.1761L18.675 13.2677L28.1553 15.8835L28.1805 15.792Z" fill="#CCD4D2"/>
<path d="M28.37 15.0906L18.8896 12.4747L18.8645 12.5662L28.3448 15.1821L28.37 15.0906Z" fill="#CCD4D2"/>
<path d="M28.4999 14.6252L19.0195 12.0093L18.9943 12.1008L28.4747 14.7167L28.4999 14.6252Z" fill="#CCD4D2"/>
<path d="M28.5441 14.1459L20.115 11.8149C19.8652 11.7566 19.6026 11.7972 19.382 11.9282C19.1614 12.0593 19 12.2706 18.9315 12.5181C18.8958 12.6413 18.8852 12.7705 18.9001 12.898C18.915 13.0254 18.9552 13.1486 19.0184 13.2603C19.0815 13.372 19.1663 13.4699 19.2678 13.5483C19.3693 13.6267 19.4854 13.6841 19.6093 13.717C19.6725 13.717 19.7428 13.7591 19.806 13.7732L28.0172 16.0409C27.6098 15.83 27.5466 15.394 27.666 14.9299C27.7854 14.4658 28.084 14.0967 28.5441 14.1459Z" fill="white"/>
<path d="M31.1786 2.81089L23.1921 0.609985H23.1605L20.0312 11.9872H20.0664L28.0423 14.1881C28.1318 14.2137 28.2255 14.2213 28.3179 14.2103C28.4103 14.1994 28.4996 14.1702 28.5807 14.1244C28.6617 14.0786 28.7328 14.0171 28.79 13.9435C28.8471 13.87 28.889 13.7858 28.9133 13.6959L31.6738 3.66173C31.719 3.48324 31.6924 3.29414 31.5998 3.13505C31.5073 2.97596 31.356 2.85957 31.1786 2.81089Z" fill="#26B824"/>
<path d="M19.648 13.7205H19.6129C19.7036 13.4345 19.7775 13.1433 19.8341 12.8486C19.9676 12.3704 20.1467 12.0329 20.094 12.0118L20.1467 12.0329L22.7246 2.54017H22.7562L23.2795 0.638103H23.2268C22.9878 0.551702 22.7266 0.549181 22.486 0.630954C22.2454 0.712726 22.0398 0.873935 21.9027 1.08813C21.8539 1.21736 21.8152 1.35019 21.7868 1.48542C21.7868 1.48542 18.7278 12.5005 18.7138 12.5462C18.7022 12.5912 18.6939 12.6371 18.6892 12.6833V12.715C18.6746 12.9878 18.7563 13.257 18.92 13.4756C19.0837 13.6941 19.3191 13.848 19.5848 13.9104H19.6093L19.648 13.7205Z" fill="#3E992E"/>
<path d="M28.5656 14.3006C28.5656 14.3006 27.5506 15.0846 28.1265 16.0585L18.9951 13.5447L19.4692 11.6497L28.5656 14.3006Z" fill="#E7E5E5"/>
<path d="M19.1631 12.8345C19.3106 12.7747 21.021 12.0927 28.2945 14.5643C28.3552 14.4459 28.4543 14.3517 28.5755 14.2971L19.6302 11.6075L19.1631 12.8345Z" fill="#CECECD"/>
<path d="M19.3987 12.4583L19.4654 12.2157C19.5848 11.7798 19.9114 11.9063 19.9114 11.9063L28.7514 14.3463L28.8883 13.8436L19.9571 11.3825C19.8107 11.3333 19.6511 11.3421 19.511 11.4071H19.4829H19.4654C19.2476 11.5407 18.3696 12.1771 18.8051 13.5377C18.8297 13.643 18.8842 13.7389 18.9622 13.8138C19.0401 13.8886 19.138 13.9393 19.2441 13.9596L28.1754 16.4207L28.3124 15.9179L19.4689 13.5131C19.4689 13.5131 19.1177 13.4568 19.2441 13.0209L19.3109 12.7747L19.3987 12.4583Z" fill="#26B824"/>
<path d="M19.4693 13.5131C19.4693 13.5131 19.1181 13.4568 19.2445 13.0208L19.3112 12.7747L19.399 12.4583L19.4658 12.2157C19.5852 11.7798 19.9118 11.9063 19.9118 11.9063L21.4361 12.3388L21.5765 11.8395L19.9434 11.3895C19.797 11.3403 19.6374 11.3491 19.4974 11.4141H19.4693H19.4517C19.234 11.5477 18.3559 12.1841 18.7914 13.5447C18.816 13.65 18.8706 13.7459 18.9485 13.8208C19.0264 13.8957 19.1244 13.9463 19.2305 13.9666L20.8706 14.4483L21.0111 13.949L19.4693 13.5131Z" fill="#3E992E"/>
<path d="M21.8362 13.3162C21.5997 13.21 21.3524 13.1299 21.0986 13.0771C21.2168 13.2384 21.294 13.4261 21.3233 13.624C21.3527 13.8219 21.3334 14.024 21.2672 14.2127L21.7554 13.8365L22.1593 14.3147C22.1593 14.3147 22.1944 13.5799 21.8362 13.3162Z" fill="#EA5645"/>
<path d="M23.2023 0.610825L20.2168 11.4536L21.5914 11.8329L24.5769 0.990127L23.2023 0.610825Z" fill="#3E992E"/>
<path d="M24.8845 6.74161L23.6377 6.39002L23.1073 7.47642L22.0537 7.18812L24.8037 2.21674L26.0294 2.56832L25.8468 8.2499L24.7931 7.95457L24.8845 6.74161ZM24.9582 5.77827L25.1584 3.31719L24.0591 5.54623L24.9582 5.77827Z" fill="#CE2489"/>
<path d="M25.7451 5.35977L23.9775 11.7794L28.0846 12.9126L29.8521 6.49301L25.7451 5.35977Z" fill="#F4C222"/>
<path d="M28.1331 10.3137C27.8592 11.3087 27.1392 11.4106 26.2612 11.168L25.1338 10.8551L26.3525 6.48846L27.3394 6.75918C28.2771 7.01935 28.7723 7.46235 28.5475 8.2956C28.5067 8.50588 28.3953 8.69586 28.2317 8.834C28.0682 8.97214 27.8624 9.05013 27.6484 9.05502C27.8741 9.16361 28.0499 9.3543 28.14 9.58819C28.23 9.82208 28.2276 10.0815 28.1331 10.3137ZM26.9636 7.44828L26.6826 8.46084L26.9917 8.54874C27.0607 8.57816 27.1357 8.59113 27.2106 8.58662C27.2855 8.58212 27.3584 8.56025 27.4234 8.52276C27.4884 8.48526 27.5439 8.43316 27.5854 8.37056C27.6269 8.30795 27.6533 8.23656 27.6625 8.162C27.7643 7.81042 27.6028 7.62408 27.2059 7.51509L26.9636 7.44828ZM27.2972 10.0219C27.331 9.94267 27.346 9.85674 27.3412 9.77076C27.3363 9.68479 27.3117 9.60111 27.2692 9.52624C27.2267 9.45137 27.1675 9.38734 27.0962 9.33914C27.0249 9.29095 26.9435 9.25989 26.8582 9.24839L26.507 9.14995L26.1804 10.3348L26.4824 10.4192C26.8617 10.5246 27.1638 10.5 27.2972 10.0219Z" fill="#22B1B6"/>
<path d="M15.6324 11.9247L7.49858 14.2042C6.89153 14.3744 6.53719 15.0049 6.70713 15.6126L9.70386 26.3282C9.87381 26.9359 10.5037 27.2906 11.1107 27.1205L19.2446 24.8409C19.8516 24.6708 20.206 24.0403 20.036 23.4326L17.0393 12.717C16.8694 12.1093 16.2395 11.7545 15.6324 11.9247Z" fill="#A685E2"/>
<g style="mix-blend-mode:multiply" opacity="0.52">
<path d="M15.4775 12.3971L8.09105 14.4671C7.74736 14.5635 7.54675 14.9204 7.64297 15.2645L10.5261 25.5738C10.6223 25.9179 10.9789 26.1187 11.3226 26.0224L18.709 23.9523C19.0527 23.856 19.2533 23.499 19.1571 23.1549L16.274 12.8456C16.1778 12.5016 15.8211 12.3007 15.4775 12.3971Z" fill="#FE487C"/>
</g>
<path d="M14.6664 13.1813L8.97441 14.7765C8.43087 14.9289 8.11359 15.4935 8.26576 16.0376L10.6537 24.5762C10.8058 25.1203 11.3698 25.438 11.9134 25.2856L17.6054 23.6904C18.1489 23.5381 18.4662 22.9735 18.314 22.4294L15.9261 13.8907C15.7739 13.3466 15.21 13.029 14.6664 13.1813Z" fill="white"/>
<path d="M13.5452 11.8658L9.25 13.0696L9.74993 14.8572L14.0451 13.6534L13.5452 11.8658Z" fill="#0F0B49"/>
<g opacity="0.33">
<path opacity="0.33" d="M10.0343 15.9541C10.3411 15.8942 10.6525 15.8613 10.965 15.8557C11.1554 15.835 11.3428 15.7925 11.5235 15.7291C11.6614 15.6796 11.7934 15.6148 11.9168 15.5357C12.0187 15.4725 12.1943 15.265 12.3242 15.2158C12.5225 15.1757 12.7276 15.1854 12.9213 15.2439C13.1072 15.2455 13.2925 15.2231 13.4727 15.1771C13.6683 15.1327 13.8581 15.0655 14.0381 14.9767C14.1902 14.8916 14.3327 14.7902 14.4631 14.6744C14.7651 14.713 15.1655 14.4177 14.874 14.379C14.1962 14.2911 13.8204 14.924 13.2057 14.9345C12.9704 14.9345 12.9178 14.8361 12.6157 14.8748C12.4063 14.8998 12.203 14.9617 12.0151 15.0576C11.7798 15.1806 11.7201 15.3213 11.5059 15.4373C11.1125 15.6447 10.7227 15.5498 10.3504 15.6025C9.83414 15.6764 9.33191 15.933 9.3881 16.1334C9.4443 16.3338 10.0905 16.1053 10.0343 15.9541Z" fill="#0F0B49"/>
</g>
<g opacity="0.33">
<path opacity="0.33" d="M10.238 16.6714C10.5448 16.6125 10.8563 16.5807 11.1687 16.5764C11.3578 16.5554 11.544 16.5129 11.7236 16.4499C11.8612 16.3997 11.9931 16.3348 12.1169 16.2565C12.2223 16.1897 12.3944 15.9823 12.5279 15.9331C12.7562 15.8487 12.9634 15.9577 13.1214 15.9612C13.3071 15.9625 13.4923 15.9413 13.6728 15.8979C13.868 15.8519 14.0576 15.7847 14.2383 15.6975C14.3912 15.6122 14.5338 15.5096 14.6632 15.3916C14.9688 15.4338 15.3656 15.1385 15.0741 15.0998C14.3998 15.0119 14.0205 15.6448 13.4059 15.6553C13.1706 15.6553 13.1214 15.5533 12.8159 15.592C12.6065 15.6193 12.4033 15.6823 12.2153 15.7784C11.98 15.8979 11.9203 16.0385 11.706 16.1546C11.3127 16.3655 10.9228 16.2671 10.5506 16.3233C10.0343 16.3971 9.53205 16.6538 9.59176 16.8542C9.65146 17.0546 10.2942 16.8226 10.238 16.6714Z" fill="#0F0B49"/>
</g>
<g opacity="0.33">
<path opacity="0.33" d="M10.4171 17.3604C10.7239 17.3006 11.0353 17.2676 11.3478 17.262C11.5382 17.2413 11.7256 17.1989 11.9063 17.1354C12.0442 17.086 12.1762 17.0211 12.2996 16.9421C12.4015 16.8788 12.5771 16.6713 12.707 16.6221C12.9053 16.582 13.1104 16.5917 13.3041 16.6502C13.49 16.6518 13.6753 16.6294 13.8555 16.5834C14.0512 16.5391 14.2409 16.4718 14.4209 16.383C14.5731 16.2979 14.7155 16.1965 14.8459 16.0807C15.1479 16.1194 15.5483 15.824 15.2568 15.7854C14.579 15.6975 14.2032 16.3303 13.5886 16.3409C13.3532 16.3409 13.3006 16.2424 12.9985 16.2811C12.7891 16.3061 12.5858 16.368 12.398 16.4639C12.1626 16.587 12.1029 16.7276 11.8887 16.8401C11.4954 17.051 11.1055 16.9561 10.7332 17.0089C10.217 17.0827 9.71472 17.3393 9.77091 17.5398C9.82711 17.7402 10.4733 17.5116 10.4171 17.3604Z" fill="#0F0B49"/>
</g>
<g opacity="0.33">
<path opacity="0.33" d="M10.7022 18.0671C11.0091 18.0082 11.3205 17.9765 11.6329 17.9722C11.8173 17.9501 11.9987 17.9076 12.1738 17.8456C12.3114 17.7954 12.4433 17.7306 12.5671 17.6523C12.6951 17.5334 12.8325 17.4253 12.9781 17.3288C13.2063 17.2444 13.4171 17.3534 13.5716 17.3569C13.7575 17.3618 13.9431 17.3405 14.123 17.2936C14.3182 17.2477 14.5078 17.1805 14.6885 17.0932C14.8414 17.0077 14.985 16.9063 15.1169 16.7909C15.419 16.8296 15.8193 16.5342 15.5243 16.4956C14.85 16.4077 14.4707 17.0405 13.8561 17.0511C13.6208 17.0511 13.5716 16.9491 13.2661 16.9878C13.057 17.0166 12.8542 17.0796 12.6655 17.1741C12.4302 17.2936 12.3705 17.4378 12.1562 17.5503C11.7629 17.7613 11.373 17.6663 11.0043 17.7191C10.4845 17.7929 9.98225 18.0496 10.042 18.25C10.1017 18.4504 10.7444 18.2183 10.6882 18.0671H10.7022Z" fill="#0F0B49"/>
</g>
<g opacity="0.33">
<path opacity="0.33" d="M10.9024 18.7879C11.2055 18.7279 11.5136 18.6961 11.8226 18.6929C12.0118 18.6722 12.198 18.6298 12.3775 18.5664C12.517 18.5165 12.6502 18.4504 12.7744 18.3695C12.8762 18.3062 13.0483 18.0988 13.1818 18.0495C13.41 17.9652 13.6208 18.0742 13.7753 18.0777C13.9624 18.0795 14.1489 18.057 14.3302 18.0109C14.5252 17.9656 14.7147 17.8996 14.8957 17.814C15.0521 17.7274 15.1992 17.6249 15.3347 17.5081C15.6367 17.5468 16.0371 17.2515 15.7456 17.2128C15.0678 17.1249 14.692 17.7577 14.0773 17.7718C13.8385 17.7718 13.7894 17.6698 13.4838 17.7085C13.2746 17.7345 13.0715 17.7963 12.8832 17.8913C12.6479 18.0144 12.5917 18.155 12.374 18.271C11.9806 18.4785 11.5908 18.3836 11.222 18.4363C10.7057 18.5101 10.2 18.7703 10.2597 18.9672C10.3194 19.1641 10.9621 18.9391 10.9059 18.7879H10.9024Z" fill="#0F0B49"/>
</g>
<g opacity="0.33">
<path opacity="0.33" d="M11.0954 19.4734C11.4023 19.4145 11.7137 19.3828 12.0261 19.3785C12.2153 19.3574 12.4014 19.315 12.581 19.2519C12.7187 19.2017 12.8505 19.1369 12.9744 19.0586C13.1023 18.9398 13.2398 18.8316 13.3853 18.7351C13.6136 18.6507 13.8243 18.7597 13.9788 18.7632C14.1647 18.7681 14.3503 18.7468 14.5302 18.7C14.7254 18.654 14.915 18.5868 15.0957 18.4996C15.2486 18.414 15.3922 18.3126 15.5242 18.1972C15.8262 18.2359 16.2266 17.9405 15.9316 17.9019C15.2572 17.814 14.8779 18.4468 14.2633 18.4574C14.028 18.4574 13.9788 18.3554 13.6733 18.3941C13.4643 18.4229 13.2614 18.4859 13.0727 18.5804C12.8374 18.7 12.7777 18.8406 12.5635 18.9566C12.1701 19.1676 11.7803 19.0726 11.4115 19.1254C10.8917 19.1992 10.3895 19.4559 10.4492 19.6563C10.5089 19.8567 11.1516 19.6246 11.0954 19.4734Z" fill="#0F0B49"/>
</g>
<g opacity="0.33">
<path opacity="0.33" d="M11.2917 20.1625C11.5985 20.1036 11.91 20.0719 12.2224 20.0676C12.4116 20.0469 12.5978 20.0044 12.7773 19.941C12.916 19.8907 13.049 19.8258 13.1741 19.7477C13.276 19.6809 13.4481 19.4734 13.5815 19.4242C13.8098 19.3398 14.0206 19.4488 14.1751 19.4523C14.3619 19.4537 14.5483 19.4325 14.73 19.389C14.925 19.3425 15.1146 19.2753 15.2954 19.1886C15.4478 19.1025 15.5903 18.9999 15.7204 18.8828C16.0225 18.925 16.4228 18.6296 16.1313 18.591C15.4535 18.5031 15.0777 19.1359 14.4631 19.1465C14.2243 19.1465 14.1751 19.0445 13.8695 19.0832C13.6602 19.1104 13.457 19.1734 13.269 19.2695C13.0337 19.389 12.9775 19.5297 12.7597 19.6457C12.3664 19.8567 11.9765 19.7617 11.6078 19.8145C11.0915 19.8883 10.5857 20.1449 10.6454 20.3453C10.7051 20.5458 11.3479 20.3137 11.2917 20.1625Z" fill="#0F0B49"/>
</g>
<g opacity="0.33">
<path opacity="0.33" d="M11.4923 20.8833C11.7991 20.8234 12.1105 20.7904 12.423 20.7848C12.6134 20.7641 12.8008 20.7217 12.9815 20.6583C13.12 20.6102 13.2521 20.5453 13.3748 20.4649C13.4767 20.4016 13.6488 20.1942 13.7822 20.1449C13.9793 20.1047 14.1833 20.1144 14.3758 20.1731C14.5628 20.1749 14.7494 20.1524 14.9307 20.1063C15.1263 20.0619 15.3161 19.9946 15.4961 19.9059C15.6483 19.8207 15.7907 19.7193 15.9211 19.6035C16.2231 19.6422 16.6235 19.3469 16.332 19.3082C15.6542 19.2203 15.2784 19.8531 14.6638 19.8637C14.4284 19.8637 14.3758 19.7652 14.0737 19.8039C13.8643 19.8289 13.661 19.8908 13.4732 19.9867C13.2343 20.1098 13.1781 20.2504 12.9639 20.3664C12.5705 20.5739 12.1807 20.4789 11.8084 20.5317C11.2921 20.6055 10.7899 20.8657 10.8461 21.0626C10.9023 21.2595 11.5485 21.0345 11.4923 20.8833Z" fill="#0F0B49"/>
</g>
<g opacity="0.33">
<path opacity="0.33" d="M11.6858 21.5689C11.9927 21.51 12.3041 21.4782 12.6165 21.474C12.8057 21.4533 12.9919 21.4108 13.1714 21.3474C13.3137 21.2977 13.4503 21.2329 13.5788 21.154C13.6807 21.0872 13.8528 20.8798 13.9862 20.8306C14.2145 20.7462 14.4252 20.8552 14.5798 20.8587C14.7666 20.8601 14.9529 20.8388 15.1347 20.7954C15.3249 20.7479 15.5097 20.6808 15.6861 20.595C15.8384 20.5089 15.9809 20.4063 16.111 20.2891C16.4131 20.3313 16.8135 20.036 16.522 19.9973C15.8441 19.9094 15.4683 20.5423 14.8537 20.5528C14.6149 20.5528 14.5657 20.4509 14.2602 20.4895C14.0508 20.5168 13.8477 20.5798 13.6596 20.6759C13.4243 20.7954 13.3681 20.9361 13.1503 21.0521C12.757 21.263 12.3671 21.1681 11.9984 21.2208C11.4821 21.2947 10.9764 21.5513 11.0361 21.7517C11.0958 21.9521 11.7385 21.7201 11.6823 21.5689H11.6858Z" fill="#0F0B49"/>
</g>
<g opacity="0.33">
<path opacity="0.33" d="M11.9556 22.2791C12.2588 22.2195 12.5668 22.1877 12.8758 22.1842C13.0661 22.1635 13.2535 22.121 13.4342 22.0576C13.5723 22.007 13.7043 21.9409 13.8276 21.8607C13.9329 21.7974 14.105 21.59 14.235 21.5408C14.4335 21.5041 14.6378 21.5137 14.832 21.5689C15.0179 21.5705 15.2033 21.548 15.3834 21.5021C15.5785 21.4573 15.7681 21.3912 15.9489 21.3052C16.1059 21.2195 16.2531 21.117 16.3879 20.9993C16.6934 21.038 17.0903 20.7427 16.7988 20.704C16.121 20.6161 15.7452 21.2489 15.1305 21.263C14.8952 21.263 14.8461 21.161 14.5405 21.1997C14.3311 21.2247 14.1278 21.2866 13.9399 21.3825C13.7046 21.5056 13.6449 21.6462 13.4307 21.7623C13.0373 21.9697 12.6475 21.8748 12.2752 21.9275C11.7589 22.0013 11.2567 22.2615 11.3129 22.4584C11.3691 22.6553 12.0153 22.4303 11.9591 22.2791H11.9556Z" fill="#0F0B49"/>
</g>
<g opacity="0.33">
<path opacity="0.33" d="M12.1735 22.9963C12.4804 22.9374 12.7918 22.9057 13.1042 22.9014C13.2934 22.8803 13.4795 22.8379 13.6591 22.7748C13.7968 22.7246 13.9286 22.6598 14.0525 22.5815C14.1805 22.4626 14.3179 22.3545 14.4634 22.258C14.6917 22.1736 14.9024 22.2826 15.057 22.2861C15.2428 22.291 15.4284 22.2697 15.6083 22.2228C15.8036 22.1769 15.9932 22.1097 16.1738 22.0224C16.3262 21.936 16.4697 21.8347 16.6023 21.7201C16.9043 21.7588 17.3047 21.4634 17.0097 21.4248C16.3354 21.3369 15.956 21.9697 15.3414 21.9803C15.1061 21.9803 15.0569 21.8783 14.7514 21.917C14.5424 21.9458 14.3395 22.0088 14.1508 22.1033C13.9155 22.2228 13.8558 22.367 13.6416 22.4795C13.2482 22.6905 12.8584 22.5955 12.4896 22.6483C11.9698 22.7221 11.4676 22.9788 11.5273 23.1792C11.587 23.3796 12.2297 23.1475 12.1735 22.9963Z" fill="#0F0B49"/>
</g>
<g opacity="0.33">
<path opacity="0.33" d="M12.3488 23.6854C12.6554 23.6251 12.967 23.5934 13.2795 23.5905C13.4698 23.5698 13.6572 23.5273 13.8379 23.4639C13.976 23.4133 14.108 23.3472 14.2313 23.267C14.3331 23.2037 14.5087 22.9963 14.6387 22.9471C14.8372 22.9104 15.0415 22.92 15.2357 22.9752C15.4216 22.9768 15.607 22.9543 15.7871 22.9084C15.9822 22.8636 16.1718 22.7975 16.3526 22.7115C16.5047 22.625 16.6471 22.5224 16.7775 22.4056C17.0796 22.4443 17.4799 22.149 17.1884 22.1103C16.5106 22.0224 16.1348 22.6553 15.5202 22.6693C15.2849 22.6693 15.2357 22.5674 14.9302 22.606C14.7208 22.631 14.5174 22.6929 14.3296 22.7889C14.0943 22.9119 14.0346 23.0525 13.8203 23.1686C13.427 23.376 13.0371 23.2811 12.6649 23.3338C12.1486 23.4076 11.6464 23.6678 11.7026 23.8647C11.7587 24.0616 12.405 23.8366 12.3488 23.6854Z" fill="#0F0B49"/>
</g>
<path d="M28.9814 21.2033V10.8802H32.3527C33.4718 10.8802 34.3122 11.1119 34.8741 11.5751C35.4407 12.0383 35.724 12.7237 35.724 13.6312C35.724 14.1133 35.5871 14.5411 35.3132 14.9145C35.0393 15.2832 34.6663 15.5691 34.1942 15.7724C34.7513 15.9283 35.1904 16.2261 35.5115 16.6657C35.8373 17.1006 36.0002 17.6205 36.0002 18.2255C36.0002 19.1519 35.7004 19.8799 35.1007 20.4092C34.5011 20.9386 33.6535 21.2033 32.5581 21.2033H28.9814ZM30.3413 16.375V20.0902H32.5864C33.2191 20.0902 33.7173 19.9271 34.0808 19.601C34.4491 19.2701 34.6333 18.8164 34.6333 18.2397C34.6333 16.9966 33.9581 16.375 32.6077 16.375H30.3413ZM30.3413 15.2832H32.3952C32.9901 15.2832 33.4647 15.1343 33.8188 14.8365C34.1776 14.5387 34.3571 14.1346 34.3571 13.6241C34.3571 13.0569 34.1918 12.6457 33.8613 12.3904C33.5308 12.1305 33.0279 12.0005 32.3527 12.0005H30.3413V15.2832Z" fill="#1771B9" stroke="#1771B9" stroke-width="2"/>
<g style="mix-blend-mode:color">
<path d="M24.6285 21.7H20.3082L19.3379 24.3942H17.9355L21.8734 14.0711H23.0633L27.0082 24.3942H25.613L24.6285 21.7ZM20.719 20.5797H24.2248L22.4683 15.7514L20.719 20.5797Z" fill="#22BAAF" stroke="#22BAAF" stroke-width="2"/>
<path d="M8.93947 11.9333C8.81199 13.0252 8.40829 13.8689 7.72837 14.4644C7.05317 15.0553 6.15369 15.3507 5.02994 15.3507C3.81175 15.3507 2.83437 14.9135 2.09779 14.039C1.36593 13.1646 1 11.9948 1 10.5295V9.53688C1 8.57736 1.16998 7.73365 1.50994 7.00574C1.85462 6.27783 2.34095 5.72008 2.96893 5.33249C3.59691 4.94018 4.32405 4.74402 5.15034 4.74402C6.24577 4.74402 7.12399 5.05125 7.78503 5.66572C8.44606 6.27546 8.83087 7.12154 8.93947 8.20395H7.57255C7.45451 7.38151 7.19718 6.78595 6.80056 6.41727C6.40866 6.04858 5.85859 5.86424 5.15034 5.86424C4.28155 5.86424 3.59927 6.18566 3.1035 6.82849C2.61245 7.47132 2.36692 8.38593 2.36692 9.57233V10.572C2.36692 11.6922 2.60064 12.5832 3.06809 13.245C3.53553 13.9067 4.18948 14.2376 5.02994 14.2376C5.7854 14.2376 6.36381 14.0674 6.76515 13.7271C7.17121 13.382 7.44035 12.7841 7.57255 11.9333H8.93947Z" fill="#22BAAF" stroke="#22BAAF" stroke-width="2"/>
<path d="M28.5624 14.3936L19.082 11.7778L19.0568 11.8693L28.5372 14.4852L28.5624 14.3936Z" fill="#22BAAF"/>
<path d="M28.4364 14.8567L18.9561 12.2408L18.9309 12.3323L28.4112 14.9482L28.4364 14.8567Z" fill="#22BAAF"/>
<path d="M28.3065 15.3256L18.8262 12.7097L18.801 12.8012L28.2813 15.4171L28.3065 15.3256Z" fill="#22BAAF"/>
<path d="M28.243 15.5605L18.7627 12.9446L18.7375 13.0362L28.2178 15.652L28.243 15.5605Z" fill="#22BAAF"/>
<path d="M28.1805 15.792L18.7002 13.1761L18.675 13.2677L28.1553 15.8835L28.1805 15.792Z" fill="#22BAAF"/>
<path d="M28.37 15.0906L18.8896 12.4747L18.8645 12.5662L28.3448 15.1821L28.37 15.0906Z" fill="#22BAAF"/>
<path d="M28.4999 14.6252L19.0195 12.0093L18.9943 12.1008L28.4747 14.7167L28.4999 14.6252Z" fill="#22BAAF"/>
<path d="M28.5441 14.1459L20.115 11.8149C19.8652 11.7566 19.6026 11.7972 19.382 11.9282C19.1614 12.0593 19 12.2706 18.9315 12.5181C18.8958 12.6413 18.8852 12.7705 18.9001 12.898C18.915 13.0254 18.9552 13.1486 19.0184 13.2603C19.0815 13.372 19.1663 13.4699 19.2678 13.5483C19.3693 13.6267 19.4854 13.6841 19.6093 13.717C19.6725 13.717 19.7428 13.7591 19.806 13.7732L28.0172 16.0409C27.6098 15.83 27.5466 15.394 27.666 14.9299C27.7854 14.4658 28.084 14.0967 28.5441 14.1459Z" fill="#22BAAF"/>
<path d="M31.1786 2.81089L23.1921 0.609985H23.1605L20.0312 11.9872H20.0664L28.0423 14.1881C28.1318 14.2137 28.2255 14.2213 28.3179 14.2103C28.4103 14.1994 28.4996 14.1702 28.5807 14.1244C28.6617 14.0786 28.7328 14.0171 28.79 13.9435C28.8471 13.87 28.889 13.7858 28.9133 13.6959L31.6738 3.66173C31.719 3.48324 31.6924 3.29414 31.5998 3.13505C31.5073 2.97596 31.356 2.85957 31.1786 2.81089Z" fill="#22BAAF"/>
<path d="M19.648 13.7205H19.6129C19.7036 13.4345 19.7775 13.1433 19.8341 12.8486C19.9676 12.3704 20.1467 12.0329 20.094 12.0118L20.1467 12.0329L22.7246 2.54017H22.7562L23.2795 0.638103H23.2268C22.9878 0.551702 22.7266 0.549181 22.486 0.630954C22.2454 0.712726 22.0398 0.873935 21.9027 1.08813C21.8539 1.21736 21.8152 1.35019 21.7868 1.48542C21.7868 1.48542 18.7278 12.5005 18.7138 12.5462C18.7022 12.5912 18.6939 12.6371 18.6892 12.6833V12.715C18.6746 12.9878 18.7563 13.257 18.92 13.4756C19.0837 13.6941 19.3191 13.848 19.5848 13.9104H19.6093L19.648 13.7205Z" fill="#22BAAF"/>
<path d="M28.5656 14.3006C28.5656 14.3006 27.5506 15.0846 28.1265 16.0585L18.9951 13.5447L19.4692 11.6497L28.5656 14.3006Z" fill="#22BAAF"/>
<path d="M19.1631 12.8345C19.3106 12.7747 21.021 12.0927 28.2945 14.5643C28.3552 14.4459 28.4543 14.3517 28.5755 14.2971L19.6302 11.6075L19.1631 12.8345Z" fill="#22BAAF"/>
<path d="M19.3987 12.4583L19.4654 12.2157C19.5848 11.7798 19.9114 11.9063 19.9114 11.9063L28.7514 14.3463L28.8883 13.8436L19.9571 11.3825C19.8107 11.3333 19.6511 11.3421 19.511 11.4071H19.4829H19.4654C19.2476 11.5407 18.3696 12.1771 18.8051 13.5377C18.8297 13.643 18.8842 13.7389 18.9622 13.8138C19.0401 13.8886 19.138 13.9393 19.2441 13.9596L28.1754 16.4207L28.3124 15.9179L19.4689 13.5131C19.4689 13.5131 19.1177 13.4568 19.2441 13.0209L19.3109 12.7747L19.3987 12.4583Z" fill="#22BAAF"/>
<path d="M19.4693 13.5131C19.4693 13.5131 19.1181 13.4568 19.2445 13.0208L19.3112 12.7747L19.399 12.4583L19.4658 12.2157C19.5852 11.7798 19.9118 11.9063 19.9118 11.9063L21.4361 12.3388L21.5765 11.8395L19.9434 11.3895C19.797 11.3403 19.6374 11.3491 19.4974 11.4141H19.4693H19.4517C19.234 11.5477 18.3559 12.1841 18.7914 13.5447C18.816 13.65 18.8706 13.7459 18.9485 13.8208C19.0264 13.8957 19.1244 13.9463 19.2305 13.9666L20.8706 14.4483L21.0111 13.949L19.4693 13.5131Z" fill="#22BAAF"/>
<path d="M21.8362 13.3162C21.5997 13.21 21.3524 13.1299 21.0986 13.0771C21.2168 13.2384 21.294 13.4261 21.3233 13.624C21.3527 13.8219 21.3334 14.024 21.2672 14.2127L21.7554 13.8365L22.1593 14.3147C22.1593 14.3147 22.1944 13.5799 21.8362 13.3162Z" fill="#22BAAF"/>
<path d="M23.2023 0.610825L20.2168 11.4536L21.5914 11.8329L24.5769 0.990127L23.2023 0.610825Z" fill="#22BAAF"/>
<path d="M24.8845 6.74161L23.6377 6.39002L23.1073 7.47642L22.0537 7.18812L24.8037 2.21674L26.0294 2.56832L25.8468 8.2499L24.7931 7.95457L24.8845 6.74161ZM24.9582 5.77827L25.1584 3.31719L24.0591 5.54623L24.9582 5.77827Z" fill="#22BAAF"/>
<path d="M25.7451 5.35977L23.9775 11.7794L28.0846 12.9126L29.8521 6.49301L25.7451 5.35977Z" fill="#22BAAF"/>
<path d="M28.1331 10.3137C27.8592 11.3087 27.1392 11.4106 26.2612 11.168L25.1338 10.8551L26.3525 6.48846L27.3394 6.75918C28.2771 7.01935 28.7723 7.46235 28.5475 8.2956C28.5067 8.50588 28.3953 8.69586 28.2317 8.834C28.0682 8.97214 27.8624 9.05013 27.6484 9.05502C27.8741 9.16361 28.0499 9.3543 28.14 9.58819C28.23 9.82208 28.2276 10.0815 28.1331 10.3137ZM26.9636 7.44828L26.6826 8.46084L26.9917 8.54874C27.0607 8.57816 27.1357 8.59113 27.2106 8.58662C27.2855 8.58212 27.3584 8.56025 27.4234 8.52276C27.4884 8.48526 27.5439 8.43316 27.5854 8.37056C27.6269 8.30795 27.6533 8.23656 27.6625 8.162C27.7643 7.81042 27.6028 7.62408 27.2059 7.51509L26.9636 7.44828ZM27.2972 10.0219C27.331 9.94267 27.346 9.85674 27.3412 9.77076C27.3363 9.68479 27.3117 9.60111 27.2692 9.52624C27.2267 9.45137 27.1675 9.38734 27.0962 9.33914C27.0249 9.29095 26.9435 9.25989 26.8582 9.24839L26.507 9.14995L26.1804 10.3348L26.4824 10.4192C26.8617 10.5246 27.1638 10.5 27.2972 10.0219Z" fill="#22BAAF"/>
<path d="M15.6324 11.9247L7.49858 14.2042C6.89153 14.3744 6.53719 15.0049 6.70713 15.6126L9.70386 26.3282C9.87381 26.9359 10.5037 27.2906 11.1107 27.1205L19.2446 24.8409C19.8516 24.6708 20.206 24.0403 20.036 23.4326L17.0393 12.717C16.8694 12.1093 16.2395 11.7545 15.6324 11.9247Z" fill="#22BAAF"/>
<g style="mix-blend-mode:multiply" opacity="0.52">
<path d="M15.4775 12.3971L8.09105 14.4671C7.74736 14.5635 7.54675 14.9204 7.64297 15.2645L10.5261 25.5738C10.6223 25.9179 10.9789 26.1187 11.3226 26.0224L18.709 23.9523C19.0527 23.856 19.2533 23.499 19.1571 23.1549L16.274 12.8456C16.1778 12.5016 15.8211 12.3007 15.4775 12.3971Z" fill="#22BAAF"/>
</g>
<path d="M14.6664 13.1813L8.97441 14.7765C8.43087 14.9289 8.11359 15.4935 8.26576 16.0376L10.6537 24.5762C10.8058 25.1203 11.3698 25.438 11.9134 25.2856L17.6054 23.6904C18.1489 23.5381 18.4662 22.9735 18.314 22.4294L15.9261 13.8907C15.7739 13.3466 15.21 13.029 14.6664 13.1813Z" fill="#22BAAF"/>
<path d="M13.5452 11.8658L9.25 13.0696L9.74993 14.8572L14.0451 13.6534L13.5452 11.8658Z" fill="#22BAAF"/>
<g opacity="0.33">
<path opacity="0.33" d="M10.0343 15.9541C10.3411 15.8942 10.6525 15.8613 10.965 15.8557C11.1554 15.835 11.3428 15.7925 11.5235 15.7291C11.6614 15.6796 11.7934 15.6148 11.9168 15.5357C12.0187 15.4725 12.1943 15.265 12.3242 15.2158C12.5225 15.1757 12.7276 15.1854 12.9213 15.2439C13.1072 15.2455 13.2925 15.2231 13.4727 15.1771C13.6683 15.1327 13.8581 15.0655 14.0381 14.9767C14.1902 14.8916 14.3327 14.7902 14.4631 14.6744C14.7651 14.713 15.1655 14.4177 14.874 14.379C14.1962 14.2911 13.8204 14.924 13.2057 14.9345C12.9704 14.9345 12.9178 14.8361 12.6157 14.8748C12.4063 14.8998 12.203 14.9617 12.0151 15.0576C11.7798 15.1806 11.7201 15.3213 11.5059 15.4373C11.1125 15.6447 10.7227 15.5498 10.3504 15.6025C9.83414 15.6764 9.33191 15.933 9.3881 16.1334C9.4443 16.3338 10.0905 16.1053 10.0343 15.9541Z" fill="#22BAAF"/>
</g>
<g opacity="0.33">
<path opacity="0.33" d="M10.238 16.6714C10.5448 16.6125 10.8563 16.5807 11.1687 16.5764C11.3578 16.5554 11.544 16.5129 11.7236 16.4499C11.8612 16.3997 11.9931 16.3348 12.1169 16.2565C12.2223 16.1897 12.3944 15.9823 12.5279 15.9331C12.7562 15.8487 12.9634 15.9577 13.1214 15.9612C13.3071 15.9625 13.4923 15.9413 13.6728 15.8979C13.868 15.8519 14.0576 15.7847 14.2383 15.6975C14.3912 15.6122 14.5338 15.5096 14.6632 15.3916C14.9688 15.4338 15.3656 15.1385 15.0741 15.0998C14.3998 15.0119 14.0205 15.6448 13.4059 15.6553C13.1706 15.6553 13.1214 15.5533 12.8159 15.592C12.6065 15.6193 12.4033 15.6823 12.2153 15.7784C11.98 15.8979 11.9203 16.0385 11.706 16.1546C11.3127 16.3655 10.9228 16.2671 10.5506 16.3233C10.0343 16.3971 9.53205 16.6538 9.59176 16.8542C9.65146 17.0546 10.2942 16.8226 10.238 16.6714Z" fill="#22BAAF"/>
</g>
<g opacity="0.33">
<path opacity="0.33" d="M10.4171 17.3604C10.7239 17.3006 11.0353 17.2676 11.3478 17.262C11.5382 17.2413 11.7256 17.1989 11.9063 17.1354C12.0442 17.086 12.1762 17.0211 12.2996 16.9421C12.4015 16.8788 12.5771 16.6713 12.707 16.6221C12.9053 16.582 13.1104 16.5917 13.3041 16.6502C13.49 16.6518 13.6753 16.6294 13.8555 16.5834C14.0512 16.5391 14.2409 16.4718 14.4209 16.383C14.5731 16.2979 14.7155 16.1965 14.8459 16.0807C15.1479 16.1194 15.5483 15.824 15.2568 15.7854C14.579 15.6975 14.2032 16.3303 13.5886 16.3409C13.3532 16.3409 13.3006 16.2424 12.9985 16.2811C12.7891 16.3061 12.5858 16.368 12.398 16.4639C12.1626 16.587 12.1029 16.7276 11.8887 16.8401C11.4954 17.051 11.1055 16.9561 10.7332 17.0089C10.217 17.0827 9.71472 17.3393 9.77091 17.5398C9.82711 17.7402 10.4733 17.5116 10.4171 17.3604Z" fill="#22BAAF"/>
</g>
<g opacity="0.33">
<path opacity="0.33" d="M10.7022 18.0671C11.0091 18.0082 11.3205 17.9765 11.6329 17.9722C11.8173 17.9501 11.9987 17.9076 12.1738 17.8456C12.3114 17.7954 12.4433 17.7306 12.5671 17.6523C12.6951 17.5334 12.8325 17.4253 12.9781 17.3288C13.2063 17.2444 13.4171 17.3534 13.5716 17.3569C13.7575 17.3618 13.9431 17.3405 14.123 17.2936C14.3182 17.2477 14.5078 17.1805 14.6885 17.0932C14.8414 17.0077 14.985 16.9063 15.1169 16.7909C15.419 16.8296 15.8193 16.5342 15.5243 16.4956C14.85 16.4077 14.4707 17.0405 13.8561 17.0511C13.6208 17.0511 13.5716 16.9491 13.2661 16.9878C13.057 17.0166 12.8542 17.0796 12.6655 17.1741C12.4302 17.2936 12.3705 17.4378 12.1562 17.5503C11.7629 17.7613 11.373 17.6663 11.0043 17.7191C10.4845 17.7929 9.98225 18.0496 10.042 18.25C10.1017 18.4504 10.7444 18.2183 10.6882 18.0671H10.7022Z" fill="#22BAAF"/>
</g>
<g opacity="0.33">
<path opacity="0.33" d="M10.9024 18.7879C11.2055 18.7279 11.5136 18.6961 11.8226 18.6929C12.0118 18.6722 12.198 18.6298 12.3775 18.5664C12.517 18.5165 12.6502 18.4504 12.7744 18.3695C12.8762 18.3062 13.0483 18.0988 13.1818 18.0495C13.41 17.9652 13.6208 18.0742 13.7753 18.0777C13.9624 18.0795 14.1489 18.057 14.3302 18.0109C14.5252 17.9656 14.7147 17.8996 14.8957 17.814C15.0521 17.7274 15.1992 17.6249 15.3347 17.5081C15.6367 17.5468 16.0371 17.2515 15.7456 17.2128C15.0678 17.1249 14.692 17.7577 14.0773 17.7718C13.8385 17.7718 13.7894 17.6698 13.4838 17.7085C13.2746 17.7345 13.0715 17.7963 12.8832 17.8913C12.6479 18.0144 12.5917 18.155 12.374 18.271C11.9806 18.4785 11.5908 18.3836 11.222 18.4363C10.7057 18.5101 10.2 18.7703 10.2597 18.9672C10.3194 19.1641 10.9621 18.9391 10.9059 18.7879H10.9024Z" fill="#22BAAF"/>
</g>
<g opacity="0.33">
<path opacity="0.33" d="M11.0954 19.4734C11.4023 19.4145 11.7137 19.3828 12.0261 19.3785C12.2153 19.3574 12.4014 19.315 12.581 19.2519C12.7187 19.2017 12.8505 19.1369 12.9744 19.0586C13.1023 18.9398 13.2398 18.8316 13.3853 18.7351C13.6136 18.6507 13.8243 18.7597 13.9788 18.7632C14.1647 18.7681 14.3503 18.7468 14.5302 18.7C14.7254 18.654 14.915 18.5868 15.0957 18.4996C15.2486 18.414 15.3922 18.3126 15.5242 18.1972C15.8262 18.2359 16.2266 17.9405 15.9316 17.9019C15.2572 17.814 14.8779 18.4468 14.2633 18.4574C14.028 18.4574 13.9788 18.3554 13.6733 18.3941C13.4643 18.4229 13.2614 18.4859 13.0727 18.5804C12.8374 18.7 12.7777 18.8406 12.5635 18.9566C12.1701 19.1676 11.7803 19.0726 11.4115 19.1254C10.8917 19.1992 10.3895 19.4559 10.4492 19.6563C10.5089 19.8567 11.1516 19.6246 11.0954 19.4734Z" fill="#22BAAF"/>
</g>
<g opacity="0.33">
<path opacity="0.33" d="M11.2917 20.1625C11.5985 20.1036 11.91 20.0719 12.2224 20.0676C12.4116 20.0469 12.5978 20.0044 12.7773 19.941C12.916 19.8907 13.049 19.8258 13.1741 19.7477C13.276 19.6809 13.4481 19.4734 13.5815 19.4242C13.8098 19.3398 14.0206 19.4488 14.1751 19.4523C14.3619 19.4537 14.5483 19.4325 14.73 19.389C14.925 19.3425 15.1146 19.2753 15.2954 19.1886C15.4478 19.1025 15.5903 18.9999 15.7204 18.8828C16.0225 18.925 16.4228 18.6296 16.1313 18.591C15.4535 18.5031 15.0777 19.1359 14.4631 19.1465C14.2243 19.1465 14.1751 19.0445 13.8695 19.0832C13.6602 19.1104 13.457 19.1734 13.269 19.2695C13.0337 19.389 12.9775 19.5297 12.7597 19.6457C12.3664 19.8567 11.9765 19.7617 11.6078 19.8145C11.0915 19.8883 10.5857 20.1449 10.6454 20.3453C10.7051 20.5458 11.3479 20.3137 11.2917 20.1625Z" fill="#22BAAF"/>
</g>
<g opacity="0.33">
<path opacity="0.33" d="M11.4923 20.8833C11.7991 20.8234 12.1105 20.7904 12.423 20.7848C12.6134 20.7641 12.8008 20.7217 12.9815 20.6583C13.12 20.6102 13.2521 20.5453 13.3748 20.4649C13.4767 20.4016 13.6488 20.1942 13.7822 20.1449C13.9793 20.1047 14.1833 20.1144 14.3758 20.1731C14.5628 20.1749 14.7494 20.1524 14.9307 20.1063C15.1263 20.0619 15.3161 19.9946 15.4961 19.9059C15.6483 19.8207 15.7907 19.7193 15.9211 19.6035C16.2231 19.6422 16.6235 19.3469 16.332 19.3082C15.6542 19.2203 15.2784 19.8531 14.6638 19.8637C14.4284 19.8637 14.3758 19.7652 14.0737 19.8039C13.8643 19.8289 13.661 19.8908 13.4732 19.9867C13.2343 20.1098 13.1781 20.2504 12.9639 20.3664C12.5705 20.5739 12.1807 20.4789 11.8084 20.5317C11.2921 20.6055 10.7899 20.8657 10.8461 21.0626C10.9023 21.2595 11.5485 21.0345 11.4923 20.8833Z" fill="#22BAAF"/>
</g>
<g opacity="0.33">
<path opacity="0.33" d="M11.6858 21.5689C11.9927 21.51 12.3041 21.4782 12.6165 21.474C12.8057 21.4533 12.9919 21.4108 13.1714 21.3474C13.3137 21.2977 13.4503 21.2329 13.5788 21.154C13.6807 21.0872 13.8528 20.8798 13.9862 20.8306C14.2145 20.7462 14.4252 20.8552 14.5798 20.8587C14.7666 20.8601 14.9529 20.8388 15.1347 20.7954C15.3249 20.7479 15.5097 20.6808 15.6861 20.595C15.8384 20.5089 15.9809 20.4063 16.111 20.2891C16.4131 20.3313 16.8135 20.036 16.522 19.9973C15.8441 19.9094 15.4683 20.5423 14.8537 20.5528C14.6149 20.5528 14.5657 20.4509 14.2602 20.4895C14.0508 20.5168 13.8477 20.5798 13.6596 20.6759C13.4243 20.7954 13.3681 20.9361 13.1503 21.0521C12.757 21.263 12.3671 21.1681 11.9984 21.2208C11.4821 21.2947 10.9764 21.5513 11.0361 21.7517C11.0958 21.9521 11.7385 21.7201 11.6823 21.5689H11.6858Z" fill="#22BAAF"/>
</g>
<g opacity="0.33">
<path opacity="0.33" d="M11.9556 22.2791C12.2588 22.2195 12.5668 22.1877 12.8758 22.1842C13.0661 22.1635 13.2535 22.121 13.4342 22.0576C13.5723 22.007 13.7043 21.9409 13.8276 21.8607C13.9329 21.7974 14.105 21.59 14.235 21.5408C14.4335 21.5041 14.6378 21.5137 14.832 21.5689C15.0179 21.5705 15.2033 21.548 15.3834 21.5021C15.5785 21.4573 15.7681 21.3912 15.9489 21.3052C16.1059 21.2195 16.2531 21.117 16.3879 20.9993C16.6934 21.038 17.0903 20.7427 16.7988 20.704C16.121 20.6161 15.7452 21.2489 15.1305 21.263C14.8952 21.263 14.8461 21.161 14.5405 21.1997C14.3311 21.2247 14.1278 21.2866 13.9399 21.3825C13.7046 21.5056 13.6449 21.6462 13.4307 21.7623C13.0373 21.9697 12.6475 21.8748 12.2752 21.9275C11.7589 22.0013 11.2567 22.2615 11.3129 22.4584C11.3691 22.6553 12.0153 22.4303 11.9591 22.2791H11.9556Z" fill="#22BAAF"/>
</g>
<g opacity="0.33">
<path opacity="0.33" d="M12.1735 22.9963C12.4804 22.9374 12.7918 22.9057 13.1042 22.9014C13.2934 22.8803 13.4795 22.8379 13.6591 22.7748C13.7968 22.7246 13.9286 22.6598 14.0525 22.5815C14.1805 22.4626 14.3179 22.3545 14.4634 22.258C14.6917 22.1736 14.9024 22.2826 15.057 22.2861C15.2428 22.291 15.4284 22.2697 15.6083 22.2228C15.8036 22.1769 15.9932 22.1097 16.1738 22.0224C16.3262 21.936 16.4697 21.8347 16.6023 21.7201C16.9043 21.7588 17.3047 21.4634 17.0097 21.4248C16.3354 21.3369 15.956 21.9697 15.3414 21.9803C15.1061 21.9803 15.0569 21.8783 14.7514 21.917C14.5424 21.9458 14.3395 22.0088 14.1508 22.1033C13.9155 22.2228 13.8558 22.367 13.6416 22.4795C13.2482 22.6905 12.8584 22.5955 12.4896 22.6483C11.9698 22.7221 11.4676 22.9788 11.5273 23.1792C11.587 23.3796 12.2297 23.1475 12.1735 22.9963Z" fill="#22BAAF"/>
</g>
<g opacity="0.33">
<path opacity="0.33" d="M12.3488 23.6854C12.6554 23.6251 12.967 23.5934 13.2795 23.5905C13.4698 23.5698 13.6572 23.5273 13.8379 23.4639C13.976 23.4133 14.108 23.3472 14.2313 23.267C14.3331 23.2037 14.5087 22.9963 14.6387 22.9471C14.8372 22.9104 15.0415 22.92 15.2357 22.9752C15.4216 22.9768 15.607 22.9543 15.7871 22.9084C15.9822 22.8636 16.1718 22.7975 16.3526 22.7115C16.5047 22.625 16.6471 22.5224 16.7775 22.4056C17.0796 22.4443 17.4799 22.149 17.1884 22.1103C16.5106 22.0224 16.1348 22.6553 15.5202 22.6693C15.2849 22.6693 15.2357 22.5674 14.9302 22.606C14.7208 22.631 14.5174 22.6929 14.3296 22.7889C14.0943 22.9119 14.0346 23.0525 13.8203 23.1686C13.427 23.376 13.0371 23.2811 12.6649 23.3338C12.1486 23.4076 11.6464 23.6678 11.7026 23.8647C11.7587 24.0616 12.405 23.8366 12.3488 23.6854Z" fill="#22BAAF"/>
</g>
<path d="M28.9814 21.2033V10.8802H32.3527C33.4718 10.8802 34.3122 11.1119 34.8741 11.5751C35.4407 12.0383 35.724 12.7237 35.724 13.6312C35.724 14.1133 35.5871 14.5411 35.3132 14.9145C35.0393 15.2832 34.6663 15.5691 34.1942 15.7724C34.7513 15.9283 35.1904 16.2261 35.5115 16.6657C35.8373 17.1006 36.0002 17.6205 36.0002 18.2255C36.0002 19.1519 35.7004 19.8799 35.1007 20.4092C34.5011 20.9386 33.6535 21.2033 32.5581 21.2033H28.9814ZM30.3413 16.375V20.0902H32.5864C33.2191 20.0902 33.7173 19.9271 34.0808 19.601C34.4491 19.2701 34.6333 18.8164 34.6333 18.2397C34.6333 16.9966 33.9581 16.375 32.6077 16.375H30.3413ZM30.3413 15.2832H32.3952C32.9901 15.2832 33.4647 15.1343 33.8188 14.8365C34.1776 14.5387 34.3571 14.1346 34.3571 13.6241C34.3571 13.0569 34.1918 12.6457 33.8613 12.3904C33.5308 12.1305 33.0279 12.0005 32.3527 12.0005H30.3413V15.2832Z" fill="#22BAAF" stroke="#22BAAF" stroke-width="2"/>
</g>
</svg>
