<svg width="192" height="129" viewBox="0 0 192 129" fill="none" xmlns="http://www.w3.org/2000/svg">
<path opacity="0.5" d="M17.1678 70.7096C17.1678 70.7096 22.7038 78.287 27.6899 78.3291C32.676 78.3712 40.2151 74.6217 40.2151 74.6217C40.2151 74.6217 44.6603 64.3685 41.5043 60.4207C41.5043 60.4207 38.3711 59.0981 35.1467 61.5492C34.5293 62.026 33.971 62.5746 33.4836 63.1835C32.8218 64.0335 31.9179 64.6632 30.8908 64.9897C27.3458 66.1098 23.0917 63.6404 21.5433 66.1035C20.7853 67.3112 19.8751 68.4165 18.835 69.3922C18.3177 69.8778 17.76 70.3186 17.1678 70.7096Z" fill="#AEC3FF"/>
<path opacity="0.5" d="M88.7769 124.966C88.7769 124.966 68.9516 78.6801 34.3445 78.2413C34.3445 78.2413 2.45566 82.1991 1.2521 126.098L88.7769 124.966Z" fill="#AEC3FF"/>
<path d="M43.8418 79.5423C43.8418 79.5423 30.0139 82.8065 25.7129 81.0474C25.7129 81.0474 24.9892 75.2617 30.8406 75.9995C34.8446 76.5087 37.4243 74.5511 38.9522 73.7516C41.0963 72.6215 44.3857 77.109 43.8418 79.5423Z" fill="#8C9DF4"/>
<path opacity="0.5" d="M31.6591 70.9652C32.5462 71.6185 35.1466 61.5491 35.1466 61.5491C34.5293 62.026 33.971 62.5746 33.4836 63.1834C32.8219 64.0334 31.9179 64.6632 30.8909 64.9896C30.8835 65.2842 30.789 70.3285 31.6591 70.9652Z" fill="#AEC3FF"/>
<path opacity="0.5" d="M18.8343 69.3923C19.0322 69.5047 25.4954 73.261 26.3655 73.2497C27.2356 73.2385 21.5426 66.1036 21.5426 66.1036C20.7846 67.3112 19.8743 68.4165 18.8343 69.3923Z" fill="#AEC3FF"/>
<path opacity="0.5" d="M69.8303 112.21C70.1828 111.899 55.9621 91.8515 52.1149 91.7526C48.2678 91.6537 39.6938 96.345 33.4482 97.0176C27.2025 97.6902 21.1169 95.9962 19.9834 99.7161C18.85 103.436 15.767 116.561 17.7898 118.63C19.8126 120.699 62.2391 118.857 69.8303 112.21Z" fill="#AEC3FF"/>
<path d="M158.439 31.3528C163.438 34.7278 170.23 33.4136 173.609 28.4174C176.988 23.4212 175.674 16.635 170.674 13.26C165.675 9.88494 158.883 11.1991 155.504 16.1953C152.125 21.1915 153.439 27.9777 158.439 31.3528Z" fill="#E2810E"/>
<path d="M162.241 32.9746C162.085 32.955 161.928 32.9318 161.771 32.9051C161.719 32.8963 161.666 32.8865 161.613 32.8771C161.493 32.8546 161.374 32.8308 161.256 32.8053C158.582 32.2143 156.228 30.6416 154.66 28.3986C153.092 26.1556 152.424 23.4058 152.789 20.6938C153.153 17.9817 154.524 15.5052 156.629 13.7545C158.734 12.0038 161.42 11.1066 164.155 11.2406C164.595 11.2628 165.032 11.3111 165.466 11.3853C165.624 11.4119 165.781 11.4422 165.935 11.4761C166.085 11.5084 166.235 11.5445 166.383 11.5825C167.485 11.8693 168.535 12.3266 169.496 12.9378C171.588 14.2717 173.163 16.2776 173.963 18.6254C174.762 20.9732 174.737 23.523 173.893 25.8553C173.048 28.1875 171.434 30.1632 169.317 31.4572C167.199 32.7512 164.703 33.2863 162.241 32.9746Z" fill="#FFB93E"/>
<path d="M157.498 29.9305C156.775 29.353 156.138 28.6765 155.604 27.9211C154.19 25.9111 153.59 23.4403 153.926 21.0061C154.262 18.5719 155.509 16.3551 157.415 14.8022C159.321 13.2492 161.745 12.4753 164.199 12.6364C166.653 12.7975 168.955 13.8816 170.64 15.6704C172.326 17.4592 173.271 19.8198 173.284 22.277C173.297 24.7341 172.379 27.1053 170.713 28.913C169.047 30.7207 166.757 31.8307 164.305 32.0195C161.853 32.2083 159.421 31.4618 157.498 29.9305ZM169.526 14.8236C167.892 13.5254 165.876 12.7997 163.789 12.7582C161.701 12.7168 159.658 13.3618 157.973 14.594C156.288 15.8262 155.055 17.5774 154.463 19.5781C153.872 21.5788 153.955 23.7182 154.699 25.667C155.443 27.6159 156.808 29.2662 158.583 30.3642C160.358 31.4621 162.445 31.9467 164.523 31.7436C166.601 31.5404 168.555 30.6606 170.084 29.2397C171.612 27.8187 172.632 25.9352 172.985 23.8791C173.279 22.1982 173.112 20.4692 172.504 18.8751C171.895 17.281 170.866 15.8811 169.526 14.8236Z" fill="#FFA412"/>
<path d="M166.769 26.0173C166.785 25.962 166.8 25.9069 166.814 25.8524C166.916 25.4773 166.941 25.0853 166.886 24.7004C166.822 24.2981 166.675 23.9136 166.454 23.5711C166.208 23.1925 165.912 22.849 165.574 22.5499C165.211 22.2229 164.801 21.8869 164.343 21.542C164.098 21.3623 163.865 21.1683 163.644 20.9609C163.482 20.8123 163.343 20.6413 163.231 20.453C163.142 20.3029 163.09 20.1344 163.077 19.9607C163.07 19.7852 163.093 19.6096 163.145 19.4419C163.195 19.2681 163.273 19.1036 163.376 18.955C163.472 18.8163 163.598 18.7008 163.744 18.6169C163.901 18.5312 164.075 18.4815 164.253 18.4714C164.472 18.4586 164.691 18.4865 164.9 18.5537C165.342 18.6842 165.65 18.935 165.826 19.3062C166.002 19.6774 166.001 20.1587 165.823 20.7501L168.126 21.431C168.267 20.9784 168.33 20.5049 168.311 20.0311C168.295 19.614 168.195 19.2044 168.017 18.8267C167.839 18.449 167.587 18.1108 167.276 17.8321C166.94 17.5281 166.557 17.2816 166.141 17.1025L166.617 15.4976L165.342 15.1203L164.872 16.7031C164.417 16.6081 163.95 16.5824 163.486 16.6269C163.077 16.6665 162.679 16.7789 162.309 16.9587C161.961 17.1303 161.652 17.3735 161.404 17.6723C160.868 18.3527 160.623 19.2171 160.721 20.0773C160.785 20.4787 160.933 20.8622 161.155 21.2031C161.403 21.5803 161.701 21.9216 162.042 22.2175C162.44 22.57 162.856 22.9018 163.289 23.2117C163.527 23.3769 163.752 23.5593 163.964 23.7573C164.124 23.9059 164.262 24.0767 164.373 24.2646C164.464 24.4217 164.519 24.5974 164.532 24.7785C164.54 24.972 164.514 25.1653 164.455 25.3496C164.406 25.5237 164.322 25.6862 164.21 25.8278C164.101 25.9639 163.961 26.0729 163.803 26.1462C163.629 26.2251 163.441 26.2681 163.249 26.2727C163.017 26.2773 162.785 26.244 162.564 26.1741C162.347 26.11 162.14 26.0177 161.947 25.8995C161.757 25.7827 161.595 25.6247 161.473 25.4372C161.345 25.2322 161.267 24.9995 161.246 24.7585C161.222 24.4473 161.26 24.1345 161.358 23.8382L159.055 23.1567C158.879 23.7481 158.824 24.2844 158.89 24.7654C158.946 25.2194 159.1 25.6558 159.341 26.0442C159.579 26.42 159.887 26.7471 160.247 27.008C160.616 27.2786 161.017 27.5028 161.441 27.6753L161.006 29.1398L162.276 29.5166L162.712 28.0449C163.171 28.1397 163.64 28.1693 164.107 28.1327C164.487 28.1041 164.859 28.0118 165.209 27.8596C165.235 27.8473 165.262 27.8351 165.286 27.8236C165.635 27.6553 165.944 27.4149 166.193 27.1184C166.46 26.7954 166.656 26.4204 166.769 26.0173Z" fill="#FFA412"/>
<path d="M134.679 33.0958L131.094 32.1366C130.132 31.8794 129.144 32.4499 128.886 33.4107L127.544 38.4117C127.286 39.3726 127.856 40.36 128.818 40.6172L132.403 41.5764C133.364 41.8336 134.353 41.2631 134.61 40.3022L135.952 35.3013C136.21 34.3404 135.64 33.353 134.679 33.0958Z" fill="#22BAAF"/>
<path d="M134.679 33.0959L131.093 32.1366C130.132 31.8794 129.143 32.4499 128.886 33.4108L128.138 36.1976C127.88 37.1585 128.45 38.146 129.411 38.4032L132.997 39.3625C133.958 39.6197 134.947 39.0492 135.204 38.0882L135.952 35.3015C136.21 34.3405 135.64 33.3531 134.679 33.0959Z" fill="#45E0D5"/>
<path d="M175.001 48.4316C174.337 50.9147 173.177 53.2385 171.593 55.2632C166.972 61.179 159.071 64.1126 151.393 62.0584L146.071 60.6345C139.277 58.8168 134.292 53.5314 132.51 47.1914C131.697 44.2985 131.576 41.2545 132.158 38.3054C132.739 35.3564 134.007 32.5852 135.858 30.2157C140.484 24.3026 148.381 21.3625 156.059 23.4167L161.381 24.8406C168.363 26.7085 173.434 32.2405 175.081 38.8159C175.876 41.9751 175.848 45.2853 175.001 48.4316Z" fill="#22BAAF"/>
<path d="M156.669 55.0022L151.908 65.8063C151.8 65.9957 151.736 66.2074 151.722 66.4251C151.709 66.6428 151.745 66.8607 151.829 67.0621C151.913 67.2635 152.042 67.4429 152.206 67.5866C152.37 67.7303 152.565 67.8344 152.776 67.8909L157.339 69.1117C157.818 69.24 158.324 69.2339 158.801 69.094C159.277 68.954 159.706 68.6857 160.04 68.3184L170.928 56.0743L156.669 55.0022Z" fill="#22BAAF"/>
<path d="M146.222 52.4088L144.643 63.8576C144.642 64.0758 144.591 64.2908 144.494 64.4862C144.397 64.6816 144.256 64.8521 144.082 64.9847C143.909 65.1172 143.708 65.2082 143.493 65.2507C143.279 65.2932 143.058 65.286 142.848 65.2298L138.284 64.0089C137.806 63.8797 137.373 63.6216 137.031 63.2629C136.69 62.9042 136.454 62.4586 136.348 61.9748L132.512 47.1846L146.222 52.4088Z" fill="#22BAAF"/>
<path d="M178.083 54.6816C177.977 54.6535 177.874 54.6113 177.779 54.5562C177.028 54.1278 176.824 53.0381 177.247 51.7137C177.663 50.415 178.585 49.1773 179.781 48.3077C180.307 47.926 180.883 47.6186 181.492 47.394C181.347 46.893 181.107 46.4248 180.784 46.015C180.188 45.256 179.46 44.8891 178.561 44.8923C176.141 44.901 173.364 47.6136 173.111 47.9333C173.046 48.0048 172.957 48.0503 172.861 48.0613C172.765 48.0723 172.668 48.048 172.589 47.9931C172.509 47.9381 172.452 47.8562 172.429 47.7624C172.405 47.6687 172.416 47.5695 172.46 47.4833C172.581 47.3006 173.396 46.4932 174.433 45.7437C176.237 44.447 177.589 44.1335 178.406 44.0998C179.618 44.0504 180.627 44.5286 181.407 45.5216C181.789 46.0069 182.076 46.5606 182.25 47.1531C183.176 46.9256 184.135 46.8607 185.083 46.9612C185.176 46.984 185.258 47.0394 185.313 47.1173C185.369 47.1953 185.395 47.2906 185.386 47.386C185.377 47.4813 185.334 47.5703 185.265 47.6368C185.196 47.7032 185.105 47.7427 185.01 47.748C184.142 47.6552 183.265 47.7164 182.419 47.9286C182.493 48.5365 182.473 49.1524 182.36 49.7544C182.111 51.0965 181.514 52.3501 180.63 53.3907C179.745 54.4178 178.819 54.8785 178.083 54.6816ZM181.643 48.1841C181.146 48.3796 180.676 48.6368 180.243 48.9496C179.182 49.7187 178.364 50.8147 178 51.9564C177.71 52.8616 177.779 53.6507 178.174 53.8749C178.569 54.099 179.334 53.6932 180.034 52.8826C180.823 51.9483 181.357 50.8263 181.584 49.6253C181.669 49.1498 181.688 48.6649 181.643 48.1841ZM173.117 47.9279L173.115 47.9343C173.115 47.9343 173.116 47.9262 173.118 47.9253L173.117 47.9279Z" fill="#22BAAF"/>
<path d="M175.08 38.8205C174.947 41.084 173.776 44.0595 172.774 45.5323C166.118 55.3299 156.766 54.9147 147.518 53.3212C140.95 52.1895 132.509 47.1924 132.509 47.1924C131.695 44.2993 131.574 41.2552 132.156 38.3061C132.738 35.357 134.005 32.5856 135.857 30.2161C140.482 24.3028 148.38 21.3626 156.058 23.4168L161.38 24.8408C168.362 26.7088 173.433 32.2448 175.08 38.8205Z" fill="#45E0D5"/>
<path d="M152.605 27.4978L145.284 25.5391C144.546 25.3415 144.068 24.734 144.216 24.1811L146.897 14.1895C146.942 14.0247 147.036 13.8776 147.167 13.7684C147.663 13.3497 148.662 13.3814 149.257 13.9663C151.615 16.284 155.249 20.9252 154.227 26.7865C154.122 27.3785 153.378 27.7046 152.605 27.4978Z" fill="#45E0D5"/>
<path d="M145.582 25.6174L145.283 25.5376C144.545 25.34 144.067 24.7326 144.215 24.1797L146.896 14.1893C146.941 14.0245 147.035 13.8774 147.166 13.7682C147.191 13.8039 147.213 13.8412 147.233 13.8798C148.348 16.0743 149.707 20.1643 147.754 24.8607C147.47 25.544 146.531 25.8714 145.582 25.6174Z" fill="#22BAAF"/>
<path d="M139.932 31.2614C139.99 31.0457 140.11 30.852 140.278 30.7047C140.446 30.5575 140.654 30.4633 140.876 30.4341C141.097 30.4049 141.322 30.442 141.523 30.5407C141.723 30.6394 141.89 30.7952 142.001 30.9886C142.113 31.1819 142.165 31.404 142.15 31.6268C142.135 31.8496 142.055 32.0631 141.919 32.2402C141.783 32.4174 141.597 32.5503 141.386 32.6221C141.174 32.694 140.946 32.7015 140.73 32.6438C140.441 32.5663 140.194 32.3772 140.045 32.118C139.895 31.8587 139.854 31.5506 139.932 31.2614Z" fill="#2B478B"/>
<path d="M161.651 125.921L97.9707 115.091L97.8139 116.012L161.494 126.842L161.651 125.921Z" fill="#CCE7FF"/>
<path d="M162.148 126.953L97.1621 115.901L97.0053 116.821L161.991 127.873L162.148 126.953Z" fill="#4D98D3"/>
<path d="M162.886 128.024L96.1084 116.667L95.9516 117.588L162.729 128.945L162.886 128.024Z" fill="#4EA3E7"/>
<path d="M165.001 90.3102L105.454 80.1914L99.4566 115.356L159.004 125.475L165.001 90.3102Z" fill="#4EA3E7"/>
<path d="M168.926 91.6781L101.799 80.2694L138.926 68.7608L168.926 91.6781Z" fill="#CCE7FF"/>
<path d="M112.383 79.6899L159.148 87.5367L138.38 71.817L112.383 79.6899Z" fill="#1771B9"/>
<path d="M167.504 91.4339L103.551 80.5581L103.299 82.0414L167.251 92.9172L167.504 91.4339Z" fill="#4EA3E7"/>
<path d="M114.714 81.7668L108.415 80.6963L108.027 82.9687L114.326 84.0392L114.714 81.7668Z" fill="#CCE7FF"/>
<path d="M112.913 83.7978L109.443 83.208L103.838 116.092L107.307 116.681L112.913 83.7978Z" fill="#CCE7FF"/>
<path d="M128.325 84.0817L122.026 83.0112L121.638 85.2837L127.937 86.3541L128.325 84.0817Z" fill="#CCE7FF"/>
<path d="M126.524 86.1132L123.055 85.5234L117.449 118.407L120.918 118.997L126.524 86.1132Z" fill="#CCE7FF"/>
<path d="M149.723 87.7214L143.424 86.6509L143.037 88.9233L149.336 89.9938L149.723 87.7214Z" fill="#CCE7FF"/>
<path d="M147.922 89.7524L144.453 89.1626L138.848 122.046L142.317 122.636L147.922 89.7524Z" fill="#CCE7FF"/>
<path d="M162.54 89.901L156.241 88.8306L155.853 91.103L162.152 92.1735L162.54 89.901Z" fill="#CCE7FF"/>
<path d="M160.739 91.9326L157.27 91.3428L151.664 124.226L155.133 124.816L160.739 91.9326Z" fill="#CCE7FF"/>
<path d="M137.86 79.4594C137.88 79.3651 137.882 79.268 137.868 79.1727C137.851 79.084 137.815 79.0001 137.762 78.9272C137.699 78.8404 137.624 78.7634 137.538 78.6983C137.422 78.6113 137.299 78.5329 137.171 78.4637C136.942 78.3337 136.719 78.1918 136.504 78.0386C136.321 77.9105 136.155 77.7576 136.013 77.5842C135.886 77.427 135.794 77.2451 135.741 77.0499C135.647 76.6306 135.722 76.1912 135.95 75.8265C136.058 75.6679 136.199 75.5336 136.362 75.4322C136.535 75.3242 136.727 75.248 136.927 75.2072C137.153 75.1608 137.385 75.1492 137.614 75.1728L137.765 74.367L138.414 74.4866L138.262 75.3038C138.476 75.3675 138.679 75.4655 138.862 75.594C139.031 75.7154 139.173 75.8695 139.28 76.0471C139.388 76.2247 139.458 76.4222 139.488 76.6276C139.521 76.8605 139.515 77.0974 139.468 77.3281L138.296 77.1105C138.36 76.8717 138.333 76.6175 138.22 76.3978C138.166 76.3105 138.094 76.2361 138.008 76.1802C137.922 76.1242 137.825 76.0879 137.724 76.074C137.617 76.0511 137.507 76.0485 137.4 76.0664C137.313 76.0808 137.23 76.1149 137.158 76.166C137.09 76.2144 137.034 76.2779 136.995 76.3514C136.952 76.4288 136.922 76.5126 136.906 76.5994C136.888 76.6857 136.886 76.7744 136.9 76.8614C136.915 76.9467 136.949 77.0274 137.001 77.0969C137.066 77.184 137.144 77.261 137.231 77.3255C137.351 77.4168 137.477 77.5009 137.607 77.5774C137.845 77.7219 138.071 77.868 138.266 78.0104C138.449 78.1404 138.614 78.2949 138.755 78.4697C138.881 78.6277 138.974 78.81 139.027 79.0053C139.12 79.4276 139.043 79.87 138.81 80.2353C138.704 80.4004 138.562 80.5402 138.396 80.6449C138.223 80.7503 138.032 80.8231 137.833 80.8597C137.605 80.9019 137.373 80.9115 137.142 80.8884L137.003 81.6381L136.357 81.5179L136.496 80.772C136.278 80.7091 136.068 80.6195 135.872 80.5054C135.68 80.3947 135.512 80.2491 135.374 80.0762C135.234 79.8963 135.135 79.6883 135.083 79.4664C135.025 79.202 135.025 78.9283 135.08 78.6635L136.254 78.8801C136.222 79.0315 136.219 79.1878 136.246 79.3403C136.269 79.4558 136.319 79.5642 136.392 79.6572C136.461 79.7437 136.549 79.8135 136.649 79.8614C136.75 79.9098 136.858 79.9445 136.968 79.9643C137.081 79.9875 137.197 79.9921 137.312 79.978C137.405 79.967 137.495 79.9376 137.577 79.8914C137.651 79.8474 137.714 79.7865 137.761 79.7136C137.811 79.6365 137.845 79.55 137.86 79.4594Z" fill="#CCE7FF"/>
<path d="M131.249 106.874L132.017 107.005C133.029 107.177 133.932 107.744 134.526 108.582C135.12 109.419 135.356 110.459 135.184 111.471L133.534 121.141L124.896 119.673L126.505 110.237C126.689 109.162 127.291 108.204 128.181 107.574C129.071 106.943 130.174 106.692 131.249 106.874Z" fill="#1771B9"/>
<path d="M128.76 92.7782L129.123 92.8399C129.361 92.8791 129.588 92.9648 129.793 93.0921C129.997 93.2194 130.174 93.3858 130.314 93.5818C130.454 93.7778 130.553 93.9995 130.607 94.2341C130.661 94.4687 130.668 94.7116 130.627 94.9489L129.848 99.5141L125.767 98.8206L126.527 94.3666C126.614 93.8611 126.898 93.4106 127.316 93.1131C127.735 92.8156 128.254 92.6952 128.76 92.7782Z" fill="#1771B9"/>
<path d="M116.817 90.7465L117.18 90.8082C117.658 90.8895 118.084 91.1571 118.364 91.5524C118.645 91.9476 118.756 92.438 118.675 92.9157L117.896 97.481L113.818 96.7879L114.577 92.3339C114.665 91.8273 114.95 91.376 115.369 91.0785C115.789 90.7811 116.309 90.6617 116.817 90.7465Z" fill="#1771B9"/>
<path d="M114.489 104.412L114.852 104.474C115.33 104.555 115.756 104.823 116.036 105.218C116.316 105.613 116.428 106.104 116.347 106.581L115.568 111.146L111.489 110.453L112.249 105.999C112.337 105.493 112.622 105.041 113.041 104.744C113.461 104.447 113.981 104.327 114.489 104.412Z" fill="#1771B9"/>
<path d="M151.428 96.6337L151.787 96.6948C152.265 96.776 152.691 97.0437 152.972 97.4389C153.252 97.8341 153.364 98.3246 153.282 98.8023L152.504 103.368L148.429 102.675L149.188 98.2211C149.276 97.7145 149.561 97.2632 149.981 96.9657C150.4 96.6683 150.921 96.5489 151.428 96.6337Z" fill="#1771B9"/>
<path d="M149.1 110.299L149.459 110.36C149.937 110.442 150.363 110.709 150.644 111.104C150.924 111.5 151.036 111.99 150.954 112.468L150.176 117.033L146.101 116.341L146.86 111.887C146.948 111.38 147.233 110.929 147.653 110.631C148.072 110.334 148.593 110.214 149.1 110.299Z" fill="#1771B9"/>
<path d="M139.083 94.5336L139.447 94.5954C139.924 94.6766 140.35 94.9442 140.631 95.3395C140.911 95.7347 141.023 96.2251 140.941 96.7029L140.163 101.268L136.084 100.575L136.844 96.121C136.932 95.6144 137.216 95.1631 137.636 94.8656C138.056 94.5682 138.576 94.4488 139.083 94.5336Z" fill="#1771B9"/>
<path d="M87.9933 6.41458C87.9933 6.41458 86.7715 9.47434 85.08 9.92203C83.3884 10.3697 80.4952 9.75225 80.4952 9.75225C80.4952 9.75225 78.0898 6.65288 78.818 5.03446C78.818 5.03446 79.7677 4.31353 81.0769 4.86541C81.3304 4.97295 81.57 5.11066 81.7905 5.27557C82.0901 5.50684 82.4526 5.64236 82.8304 5.66437C84.1331 5.73919 85.3627 4.52216 86.1043 5.2299C86.4675 5.57478 86.8734 5.87162 87.3122 6.11313C87.5303 6.23265 87.7582 6.33349 87.9933 6.41458Z" fill="#FFEDDC"/>
<path d="M68.3793 31.0955C68.3793 31.0955 71.0797 13.6268 82.8081 10.4698C82.8081 10.4698 93.9961 9.04169 98.2351 23.8651L68.3793 31.0955Z" fill="#FFEDDC"/>
<path d="M79.6948 11.7399C79.6948 11.7399 84.6799 11.6459 85.9901 10.6743C85.9901 10.6743 85.7303 8.64333 83.805 9.40295C82.4883 9.92311 81.4411 9.48447 80.8545 9.34424C80.0225 9.14438 79.2967 10.96 79.6948 11.7399Z" fill="#DB6A1D"/>
<path d="M83.0882 7.76303C82.8418 8.06813 81.0806 4.86475 81.0806 4.86475C81.334 4.97227 81.5736 5.10996 81.794 5.27486C82.0936 5.5061 82.456 5.6416 82.8338 5.66361C82.8546 5.75921 83.3278 7.47061 83.0882 7.76303Z" fill="#E5C1A1"/>
<path d="M87.3119 6.11287C87.2539 6.16741 85.3847 8.00688 85.0878 8.07877C84.7909 8.15067 86.104 5.22967 86.104 5.22967C86.4671 5.57453 86.8731 5.87136 87.3119 6.11287Z" fill="#E5C1A1"/>
<path d="M73.7073 25.1086C73.5605 25.035 76.6454 16.9789 77.9448 16.6103C79.2442 16.2416 82.5672 17.0864 84.7505 16.7773C86.9338 16.4683 88.8534 15.3566 89.5629 16.5189C90.2725 17.6812 92.4672 21.8799 91.9601 22.76C91.4529 23.6401 76.8677 26.7096 73.7073 25.1086Z" fill="#F9DDBF"/>
<path d="M109.124 54.7774L109.554 56.5481C109.587 56.6876 109.57 56.834 109.506 56.9624C109.436 57.1063 109.325 57.2269 109.188 57.3097C109.143 57.3376 109.097 57.3616 109.048 57.3816C109.002 57.4001 108.955 57.4152 108.907 57.4268L75.3313 65.5601C74.9253 65.6584 74.5253 65.4877 74.3856 65.1753C74.3767 65.1538 74.3689 65.132 74.3623 65.1097C74.3595 65.0981 74.3567 65.0865 74.3539 65.0749L73.924 63.3043C73.9212 63.2927 73.9187 63.2822 73.9159 63.2706C73.9115 63.2478 73.9084 63.2248 73.9065 63.2017C73.8874 62.8601 74.1648 62.5253 74.5707 62.4269L108.146 54.2937C108.194 54.2814 108.243 54.2733 108.293 54.2693C108.345 54.2644 108.397 54.264 108.449 54.2681C108.609 54.2789 108.763 54.3354 108.892 54.4311C109.007 54.5162 109.089 54.6386 109.124 54.7774Z" fill="#FFB93E"/>
<path d="M93.2308 61.2241L75.2434 65.5809C75.0889 65.6202 74.9258 65.6087 74.7783 65.548C74.6308 65.4873 74.5068 65.3806 74.4248 65.2439C74.4106 65.2217 74.3979 65.1985 74.387 65.1745C74.3781 65.1531 74.3703 65.1312 74.3638 65.1089C74.3609 65.0974 74.3581 65.0858 74.3553 65.0742L73.9255 63.3037C73.9227 63.2921 73.9201 63.2817 73.9173 63.2701C73.913 63.2473 73.9098 63.2243 73.908 63.2011C73.9066 63.1744 73.907 63.1477 73.9094 63.121C73.9197 62.962 73.9811 62.8107 74.0844 62.6894C74.1878 62.5682 74.3275 62.4835 74.4829 62.4481L90.2572 58.6273C90.9042 59.8218 91.9598 60.7436 93.2308 61.2241Z" fill="#FFA412"/>
<path d="M104.873 55.0863L104.491 55.1787L105.251 58.3102L105.633 58.2178L104.873 55.0863Z" fill="#FFA412"/>
<path d="M103.58 55.3993L103.199 55.4917L103.959 58.6231L104.34 58.5308L103.58 55.3993Z" fill="#FFA412"/>
<path d="M102.032 55.7748L101.65 55.8672L102.411 58.9986L102.792 58.9062L102.032 55.7748Z" fill="#FFA412"/>
<path d="M99.6573 56.35L99.2759 56.4424L100.036 59.5738L100.417 59.4814L99.6573 56.35Z" fill="#FFA412"/>
<path d="M97.147 56.9584L96.7656 57.0508L97.5258 60.1822L97.9072 60.0898L97.147 56.9584Z" fill="#FFA412"/>
<path d="M93.2979 57.891L92.9165 57.9834L93.6767 61.1148L94.0581 61.0225L93.2979 57.891Z" fill="#FFA412"/>
<path d="M89.6934 58.7641L89.312 58.8564L90.0722 61.9879L90.4536 61.8955L89.6934 58.7641Z" fill="#FFA412"/>
<path d="M86.4757 59.5438L86.0942 59.6362L86.8544 62.7677L87.2358 62.6753L86.4757 59.5438Z" fill="#FFA412"/>
<path d="M106.103 54.7885L105.721 54.8809L106.481 58.0123L106.863 57.9199L106.103 54.7885Z" fill="#FFA412"/>
<path d="M106.915 54.5917L106.534 54.6841L107.294 57.8155L107.675 57.7231L106.915 54.5917Z" fill="#FFA412"/>
<path d="M107.699 54.4018L107.317 54.4941L108.078 57.6256L108.459 57.5332L107.699 54.4018Z" fill="#FFA412"/>
<path d="M108.292 54.2689L109.047 57.3783C109.001 57.3978 108.954 57.4133 108.906 57.4247L108.668 57.4823L107.909 54.3532L108.146 54.2956C108.194 54.2832 108.243 54.2742 108.292 54.2689Z" fill="#FFA412"/>
<path d="M108.891 54.4304L109.505 56.9604C109.435 57.1047 109.324 57.2254 109.187 57.3075L108.449 54.2676C108.609 54.2783 108.762 54.3349 108.891 54.4304Z" fill="#FFA412"/>
<path d="M104.773 52.5159L105.202 54.2854C105.235 54.4249 105.219 54.5713 105.157 54.7003C105.087 54.8454 104.976 54.9665 104.837 55.0479C104.792 55.0751 104.745 55.0989 104.696 55.1189C104.651 55.1378 104.604 55.1532 104.556 55.1651L70.9795 63.2986C70.5747 63.3966 70.1744 63.2247 70.0361 62.9132C70.027 62.8923 70.0189 62.8709 70.012 62.8491C70.0092 62.8375 70.0063 62.8259 70.0033 62.8131L69.5734 61.0425C69.5706 61.0309 69.5678 61.0193 69.565 61.0077C69.5612 60.9852 69.5585 60.9624 69.5571 60.9396C69.5368 60.5983 69.8142 60.2635 70.219 60.1654L103.796 52.0319L103.861 52.0162L103.883 52.0109L103.913 52.0035L103.934 51.9985C103.986 51.9928 104.039 51.9923 104.092 51.997C104.121 51.9994 104.151 52.0033 104.18 52.0087L104.239 52.0204L104.273 52.0305L104.304 52.0402C104.344 52.0523 104.383 52.0688 104.42 52.0894L104.455 52.1079L104.475 52.1202C104.475 52.1202 104.482 52.1185 104.486 52.1275L104.495 52.1325C104.509 52.1406 104.522 52.1498 104.534 52.16C104.653 52.2467 104.738 52.3728 104.773 52.5159Z" fill="#FFB93E"/>
<path d="M88.8812 58.9623L70.8926 63.3193C70.7379 63.3586 70.5747 63.3469 70.4271 63.286C70.2796 63.2251 70.1556 63.1182 70.0737 62.9812C70.0608 62.9586 70.048 62.9359 70.0371 62.9115C70.028 62.8906 70.0199 62.8692 70.013 62.8474C70.0101 62.8358 70.0073 62.8242 70.0042 62.8115L69.5747 61.0422C69.5719 61.0306 69.5691 61.019 69.5663 61.0074C69.5624 60.9848 69.5598 60.9621 69.5583 60.9393C69.5521 60.9138 69.5575 60.8855 69.5586 60.8595C69.5687 60.7003 69.6299 60.5487 69.7332 60.4273C69.8365 60.3058 69.9763 60.221 70.1318 60.1854L85.9061 56.3646C85.9193 56.3884 85.9324 56.4123 85.947 56.437C86.5966 57.5982 87.6359 58.4926 88.8812 58.9623Z" fill="#FFA412"/>
<path d="M100.522 52.8236L100.141 52.916L100.901 56.0475L101.282 55.9551L100.522 52.8236Z" fill="#FFA412"/>
<path d="M99.2305 53.1371L98.8491 53.2295L99.6093 56.3609L99.9907 56.2686L99.2305 53.1371Z" fill="#FFA412"/>
<path d="M97.6822 53.5121L97.3008 53.6045L98.061 56.7359L98.4424 56.6436L97.6822 53.5121Z" fill="#FFA412"/>
<path d="M95.3072 54.0873L94.9258 54.1797L95.686 57.3111L96.0674 57.2187L95.3072 54.0873Z" fill="#FFA412"/>
<path d="M92.7965 54.6957L92.415 54.7881L93.1752 57.9195L93.5566 57.8272L92.7965 54.6957Z" fill="#FFA412"/>
<path d="M88.9473 55.6283L88.5659 55.7207L89.3261 58.8521L89.7075 58.7598L88.9473 55.6283Z" fill="#FFA412"/>
<path d="M85.3433 56.5014L84.9619 56.5938L85.7221 59.7252L86.1035 59.6328L85.3433 56.5014Z" fill="#FFA412"/>
<path d="M82.1251 57.2811L81.7437 57.3735L82.5038 60.505L82.8853 60.4126L82.1251 57.2811Z" fill="#FFA412"/>
<path d="M101.751 52.5258L101.37 52.6182L102.13 55.7496L102.511 55.6572L101.751 52.5258Z" fill="#FFA412"/>
<path d="M102.565 52.329L102.183 52.4214L102.943 55.5528L103.325 55.4604L102.565 52.329Z" fill="#FFA412"/>
<path d="M103.349 52.1391L102.968 52.2314L103.728 55.3629L104.109 55.2705L103.349 52.1391Z" fill="#FFA412"/>
<path d="M103.942 52.0062L104.697 55.1168C104.651 55.1353 104.604 55.1504 104.556 55.162L104.318 55.2196L103.559 52.0905L103.796 52.0329C103.844 52.0205 103.893 52.0115 103.942 52.0062Z" fill="#FFA412"/>
<path d="M104.54 52.1646L105.154 54.6945C105.084 54.8384 104.973 54.9589 104.836 55.0416L104.099 52.0063C104.258 52.0151 104.412 52.0701 104.54 52.1646Z" fill="#FFA412"/>
<path d="M105.768 49.0451L106.198 50.8157C106.23 50.955 106.214 51.1013 106.151 51.2298C106.08 51.3739 105.969 51.4946 105.831 51.5773C105.745 51.6314 105.65 51.6709 105.551 51.6942L71.9745 59.8277C71.8456 59.8589 71.7117 59.8633 71.581 59.8408C71.4649 59.8242 71.3546 59.78 71.2592 59.7118C71.1638 59.6437 71.0861 59.5537 71.0328 59.4493C71.0291 59.4342 71.0257 59.4203 71.0163 59.4067C71.0132 59.3968 71.0108 59.3867 71.009 59.3765C71.0062 59.3649 71.0033 59.3533 71.0005 59.3417L70.5707 57.5711C70.5674 57.56 70.5647 57.5488 70.5625 57.5374C70.5583 57.515 70.5552 57.4924 70.5535 57.4697C70.5341 57.1269 70.8117 56.7932 71.2165 56.6952L104.791 48.5622C104.838 48.55 104.887 48.5419 104.936 48.5381C104.988 48.5327 105.04 48.5319 105.093 48.5358C105.253 48.5475 105.407 48.6043 105.536 48.6996C105.651 48.7847 105.733 48.9067 105.768 49.0451Z" fill="#FFB93E"/>
<path d="M89.8742 55.4869L71.8857 59.844C71.7698 59.8719 71.6491 59.873 71.5327 59.8472C71.4235 59.8239 71.3212 59.7753 71.2341 59.7054C71.147 59.6355 71.0774 59.5462 71.031 59.4446C71.0273 59.4295 71.0239 59.4156 71.0145 59.4019C71.0114 59.3921 71.009 59.382 71.0071 59.3718C71.0043 59.3602 71.0015 59.3486 70.9987 59.337L70.57 57.5712C70.5667 57.5601 70.564 57.5489 70.5618 57.5376C70.5576 57.5152 70.5545 57.4925 70.5528 57.4698C70.5514 57.4438 70.552 57.4178 70.5547 57.392C70.5637 57.2323 70.6245 57.08 70.7278 56.9579C70.8311 56.8359 70.9714 56.7508 71.1274 56.7156L86.9017 52.8948C87.5257 54.0465 88.5297 54.9465 89.7428 55.4414C89.7861 55.453 89.8297 55.4707 89.8742 55.4869Z" fill="#FFA412"/>
<path d="M101.516 49.3485L101.134 49.4409L101.894 52.5724L102.276 52.48L101.516 49.3485Z" fill="#FFA412"/>
<path d="M100.224 49.6615L99.8428 49.7539L100.603 52.8854L100.984 52.793L100.224 49.6615Z" fill="#FFA412"/>
<path d="M98.6759 50.0365L98.2944 50.1289L99.0546 53.2604L99.436 53.168L98.6759 50.0365Z" fill="#FFA412"/>
<path d="M96.3013 50.6122L95.9199 50.7046L96.6801 53.836L97.0615 53.7437L96.3013 50.6122Z" fill="#FFA412"/>
<path d="M93.7901 51.2206L93.4087 51.313L94.1689 54.4444L94.5503 54.3521L93.7901 51.2206Z" fill="#FFA412"/>
<path d="M89.94 52.1532L89.5586 52.2456L90.3188 55.3771L90.7002 55.2847L89.94 52.1532Z" fill="#FFA412"/>
<path d="M86.3365 53.0263L85.9551 53.1187L86.7153 56.2501L87.0967 56.1577L86.3365 53.0263Z" fill="#FFA412"/>
<path d="M83.1187 53.806L82.7373 53.8984L83.4975 57.0299L83.8789 56.9375L83.1187 53.806Z" fill="#FFA412"/>
<path d="M102.746 49.0507L102.364 49.1431L103.124 52.2745L103.506 52.1821L102.746 49.0507Z" fill="#FFA412"/>
<path d="M103.558 48.8539L103.177 48.9463L103.937 52.0777L104.318 51.9854L103.558 48.8539Z" fill="#FFA412"/>
<path d="M104.344 48.6635L103.962 48.7559L104.723 51.8873L105.104 51.7949L104.344 48.6635Z" fill="#FFA412"/>
<path d="M104.935 48.5323L105.69 51.6406C105.644 51.6594 105.597 51.6748 105.55 51.6867L105.311 51.7446L104.551 48.6154L104.79 48.5576C104.838 48.545 104.886 48.5365 104.935 48.5323Z" fill="#FFA412"/>
<path d="M105.535 48.6938L106.149 51.2238C106.078 51.3679 105.967 51.4885 105.83 51.5711L105.092 48.5312C105.252 48.5411 105.406 48.5976 105.535 48.6938Z" fill="#FFA412"/>
<path d="M105.812 45.7143L106.241 47.4838C106.274 47.6233 106.257 47.7698 106.193 47.8981C106.186 47.9155 106.177 47.9323 106.167 47.9486C106.118 48.0349 106.054 48.1114 105.976 48.1741C105.943 48.2005 105.908 48.225 105.871 48.2474C105.827 48.2743 105.78 48.2979 105.731 48.3181L105.663 48.3434L105.59 48.3611L72.0176 56.4935C71.6116 56.5918 71.2113 56.4199 71.0719 56.1087C71.0631 56.0876 71.0554 56.0661 71.0489 56.0443L70.6027 54.2064C70.5428 53.8685 70.7834 53.5242 71.1613 53.3909C71.1937 53.383 71.2262 53.3752 71.2587 53.3673L104.834 45.2341L104.907 45.2164C104.931 45.2125 104.956 45.2099 104.98 45.2085C105.193 45.1879 105.406 45.245 105.579 45.3691C105.694 45.4541 105.776 45.576 105.812 45.7143Z" fill="#FFB93E"/>
<path d="M89.9184 52.161L71.931 56.5178C71.7763 56.5569 71.6131 56.5451 71.4656 56.4842C71.3181 56.4233 71.1942 56.3165 71.1121 56.1797C71.0979 56.1574 71.0853 56.1342 71.0744 56.1102C71.0656 56.0892 71.0579 56.0677 71.0514 56.0458L70.6047 54.2058C70.5789 54.0376 70.613 53.8656 70.7011 53.72C70.7892 53.5744 70.9256 53.4643 71.0867 53.409C71.1157 53.4019 71.1435 53.3952 71.1737 53.3879L86.948 49.5671C87.595 50.7597 88.6493 51.6802 89.9184 52.161Z" fill="#FFA412"/>
<path d="M101.56 46.0224L101.179 46.1147L101.939 49.2462L102.32 49.1538L101.56 46.0224Z" fill="#FFA412"/>
<path d="M100.268 46.3349L99.8867 46.4272L100.647 49.5587L101.028 49.4663L100.268 46.3349Z" fill="#FFA412"/>
<path d="M98.7193 46.7103L98.3379 46.8027L99.0981 49.9342L99.4795 49.8418L98.7193 46.7103Z" fill="#FFA412"/>
<path d="M96.3458 47.286L95.9644 47.3784L96.7245 50.5099L97.106 50.4175L96.3458 47.286Z" fill="#FFA412"/>
<path d="M93.8341 47.8944L93.4526 47.9868L94.2128 51.1183L94.5942 51.0259L93.8341 47.8944Z" fill="#FFA412"/>
<path d="M89.9854 48.8266L89.604 48.9189L90.3642 52.0504L90.7456 51.958L89.9854 48.8266Z" fill="#FFA412"/>
<path d="M86.3819 49.7001L86.0005 49.7925L86.7607 52.9239L87.1421 52.8315L86.3819 49.7001Z" fill="#FFA412"/>
<path d="M83.1627 50.4799L82.7812 50.5723L83.5414 53.7037L83.9228 53.6113L83.1627 50.4799Z" fill="#FFA412"/>
<path d="M102.79 45.7245L102.409 45.8169L103.169 48.9483L103.55 48.856L102.79 45.7245Z" fill="#FFA412"/>
<path d="M103.603 45.5272L103.222 45.6196L103.982 48.7511L104.363 48.6587L103.603 45.5272Z" fill="#FFA412"/>
<path d="M104.387 45.3378L104.005 45.4302L104.766 48.5616L105.147 48.4692L104.387 45.3378Z" fill="#FFA412"/>
<path d="M104.98 45.2048L105.735 48.3166C105.689 48.3351 105.642 48.3502 105.594 48.3618L105.362 48.418L104.603 45.2889L104.834 45.2327C104.882 45.2199 104.931 45.2106 104.98 45.2048Z" fill="#FFA412"/>
<path d="M105.58 45.3673L106.194 47.8962C106.123 48.0403 106.012 48.1609 105.874 48.2435L105.136 45.2036C105.297 45.2143 105.451 45.2712 105.58 45.3673Z" fill="#FFA412"/>
<path d="M102.586 43.19L103.015 44.9584C103.048 45.0978 103.032 45.2443 102.97 45.3733C102.899 45.518 102.788 45.6389 102.649 45.7211C102.605 45.7491 102.559 45.7727 102.51 45.7916C102.496 45.7988 102.48 45.805 102.465 45.8101L102.459 45.8115L102.433 45.8177L68.7963 53.9658C68.3625 54.0709 67.9366 53.8695 67.8273 53.5154C67.8245 53.5038 67.8216 53.4922 67.8185 53.4795L67.3904 51.7158C67.3876 51.7042 67.3845 51.6914 67.3817 51.6798C67.3789 51.6707 67.3766 51.6614 67.3749 51.652C67.3652 51.495 67.4047 51.339 67.4878 51.2055C67.571 51.072 67.6937 50.9678 67.8389 50.9073L67.8633 50.9014C67.9187 50.8761 67.9763 50.856 68.0354 50.8413L101.61 42.7084C101.633 42.7014 101.657 42.6955 101.682 42.691L101.713 42.6834L101.751 42.6741C101.803 42.6699 101.855 42.6696 101.907 42.6732C102.068 42.6836 102.222 42.7404 102.352 42.8367C102.469 42.9235 102.552 43.0485 102.586 43.19Z" fill="#FFB93E"/>
<path d="M86.69 49.6313L68.7038 53.9878C68.5244 54.0361 68.3334 54.0142 68.1695 53.9266C68.0057 53.839 67.8813 53.6924 67.8218 53.5164C67.819 53.5048 67.8162 53.4932 67.8131 53.4805L67.385 51.717C67.3822 51.7054 67.3791 51.6926 67.3762 51.681C67.3734 51.6719 67.3712 51.6626 67.3695 51.6532C67.3515 51.502 67.3822 51.3491 67.4572 51.2166C67.5321 51.0841 67.6474 50.9789 67.7862 50.9164C67.7955 50.9104 67.8054 50.9055 67.8159 50.9018C67.8566 50.8841 67.8987 50.8698 67.9418 50.8591L83.7161 47.0383C83.7203 47.0453 83.7241 47.0526 83.7275 47.0601C84.3735 48.2413 85.4192 49.154 86.6773 49.6344C86.6773 49.6344 86.6883 49.6293 86.69 49.6313Z" fill="#FFA412"/>
<path d="M98.3326 43.4935L97.9512 43.5859L98.7114 46.7174L99.0928 46.625L98.3326 43.4935Z" fill="#FFA412"/>
<path d="M97.0411 43.8065L96.6597 43.8989L97.4199 47.0304L97.8013 46.938L97.0411 43.8065Z" fill="#FFA412"/>
<path d="M95.4918 44.182L95.1104 44.2744L95.8705 47.4059L96.2519 47.3135L95.4918 44.182Z" fill="#FFA412"/>
<path d="M93.1187 44.7572L92.7373 44.8496L93.4975 47.9811L93.8789 47.8887L93.1187 44.7572Z" fill="#FFA412"/>
<path d="M90.607 45.3656L90.2256 45.458L90.9858 48.5895L91.3672 48.4971L90.607 45.3656Z" fill="#FFA412"/>
<path d="M86.7589 46.2982L86.3774 46.3906L87.1376 49.5221L87.519 49.4297L86.7589 46.2982Z" fill="#FFA412"/>
<path d="M83.1539 47.1713L82.7725 47.2637L83.5326 50.3951L83.9141 50.3027L83.1539 47.1713Z" fill="#FFA412"/>
<path d="M79.9346 47.9511L79.5532 48.0435L80.3134 51.1749L80.6948 51.0825L79.9346 47.9511Z" fill="#FFA412"/>
<path d="M99.5626 43.1957L99.1812 43.2881L99.9413 46.4195L100.323 46.3271L99.5626 43.1957Z" fill="#FFA412"/>
<path d="M100.375 42.9989L99.9937 43.0913L100.754 46.2228L101.135 46.1304L100.375 42.9989Z" fill="#FFA412"/>
<path d="M101.16 42.809L100.778 42.9014L101.539 46.0328L101.92 45.9404L101.16 42.809Z" fill="#FFA412"/>
<path d="M101.751 42.6767L102.506 45.7861C102.46 45.8046 102.413 45.8196 102.366 45.8311L102.127 45.8889L101.367 42.7598L101.607 42.7017C101.654 42.6898 101.702 42.6815 101.751 42.6767Z" fill="#FFA412"/>
<path d="M102.352 42.8377L102.966 45.3676C102.896 45.5119 102.785 45.6326 102.648 45.7147L101.91 42.6748C102.07 42.6855 102.223 42.7421 102.352 42.8377Z" fill="#FFA412"/>
<path d="M101.759 40.0932L102.188 41.8615C102.221 42.0009 102.205 42.1475 102.142 42.2764C102.125 42.3107 102.106 42.344 102.086 42.3761C102.017 42.4765 101.927 42.561 101.823 42.624C101.788 42.6455 101.751 42.665 101.714 42.6822L101.683 42.6898C101.638 42.7093 101.591 42.7247 101.543 42.736L67.964 50.87C67.9303 50.8782 67.8944 50.8869 67.8596 50.8953L67.8187 50.8991C67.4639 50.9298 67.1368 50.761 67.018 50.4792C67.0098 50.4604 67.0027 50.4413 66.9967 50.4217C66.9936 50.409 66.9908 50.3974 66.988 50.3858L66.5593 48.6197C66.5562 48.607 66.5534 48.5954 66.5506 48.5838C66.5467 48.5613 66.5441 48.5385 66.5426 48.5157C66.5224 48.1744 66.7997 47.8396 67.2045 47.7415L100.781 39.608L100.846 39.5923L100.873 39.5858L100.903 39.5785C100.91 39.5756 100.917 39.5739 100.924 39.5735C100.976 39.5684 101.029 39.5679 101.082 39.572C101.112 39.5744 101.141 39.5782 101.171 39.5837C101.283 39.6033 101.39 39.6454 101.486 39.7075L101.524 39.735C101.642 39.8232 101.725 39.95 101.759 40.0932Z" fill="#FFB93E"/>
<path d="M85.8667 46.5391L67.8364 50.9063L67.79 50.9176C67.6327 50.9396 67.4726 50.9098 67.3337 50.8326C67.1949 50.7555 67.085 50.6352 67.0206 50.4901C67.0124 50.4714 67.0053 50.4522 66.9993 50.4327C66.9962 50.4199 66.9934 50.4083 66.9906 50.3967L66.5594 48.6205C66.5563 48.6077 66.5534 48.5961 66.5506 48.5845C66.5468 48.562 66.5442 48.5393 66.5427 48.5165C66.5365 48.4909 66.5422 48.4638 66.5432 48.4378C66.5532 48.2785 66.6144 48.1268 66.7176 48.0051C66.8209 47.8835 66.9606 47.7984 67.1162 47.7625L82.8905 43.9417C82.9039 43.9667 82.9171 43.9906 82.9314 44.0141C83.5763 45.163 84.6029 46.0505 85.8332 46.5227C85.8413 46.5305 85.8543 46.5335 85.8667 46.5391Z" fill="#FFA412"/>
<path d="M97.5074 40.4013L97.126 40.4937L97.8862 43.6251L98.2676 43.5327L97.5074 40.4013Z" fill="#FFA412"/>
<path d="M96.2159 40.7143L95.8345 40.8066L96.5947 43.9381L96.9761 43.8457L96.2159 40.7143Z" fill="#FFA412"/>
<path d="M94.6666 41.0897L94.2852 41.1821L95.0453 44.3136L95.4268 44.2212L94.6666 41.0897Z" fill="#FFA412"/>
<path d="M92.2925 41.6649L91.9111 41.7573L92.6713 44.8888L93.0527 44.7964L92.2925 41.6649Z" fill="#FFA412"/>
<path d="M89.7808 42.2733L89.3994 42.3657L90.1596 45.4972L90.541 45.4048L89.7808 42.2733Z" fill="#FFA412"/>
<path d="M85.9327 43.2055L85.5513 43.2979L86.3115 46.4293L86.6929 46.3369L85.9327 43.2055Z" fill="#FFA412"/>
<path d="M82.3292 44.079L81.9478 44.1714L82.7079 47.3028L83.0893 47.2105L82.3292 44.079Z" fill="#FFA412"/>
<path d="M79.1104 44.8588L78.729 44.9512L79.4892 48.0826L79.8706 47.9902L79.1104 44.8588Z" fill="#FFA412"/>
<path d="M98.7364 40.1034L98.355 40.1958L99.1152 43.3272L99.4966 43.2349L98.7364 40.1034Z" fill="#FFA412"/>
<path d="M99.5499 39.9066L99.1685 39.999L99.9286 43.1305L100.31 43.0381L99.5499 39.9066Z" fill="#FFA412"/>
<path d="M100.335 39.7167L99.9531 39.8091L100.713 42.9405L101.095 42.8481L100.335 39.7167Z" fill="#FFA412"/>
<path d="M100.927 39.5838L101.682 42.6933C101.637 42.7127 101.589 42.7282 101.541 42.7397L101.304 42.7972L100.544 39.6681L100.782 39.6105C100.83 39.5981 100.878 39.5892 100.927 39.5838Z" fill="#FFA412"/>
<path d="M101.527 39.7454L102.141 42.2753C102.071 42.4197 101.96 42.5403 101.822 42.6224L101.084 39.5825C101.244 39.5933 101.398 39.6498 101.527 39.7454Z" fill="#FFA412"/>
<path d="M102.752 36.6181L103.18 38.3841C103.213 38.5238 103.197 38.6705 103.134 38.7993C103.063 38.9431 102.951 39.0634 102.814 39.1457C102.77 39.1739 102.723 39.1976 102.674 39.2165C102.629 39.2359 102.582 39.2513 102.534 39.2626L68.9573 47.3961C68.8284 47.4278 68.6944 47.4322 68.5638 47.4092C68.4476 47.3928 68.3372 47.3486 68.2418 47.2805C68.1463 47.2124 68.0687 47.1222 68.0156 47.0177C68.0122 47.0038 68.0085 46.9887 67.9991 46.9751C67.9961 46.9652 67.9936 46.9551 67.9918 46.9449C67.9889 46.9333 67.9861 46.9217 67.9833 46.9101L67.5546 45.1441C67.5518 45.1325 67.5487 45.1198 67.5459 45.1082C67.5417 45.0858 67.5387 45.0631 67.5368 45.0404C67.5177 44.6988 67.7951 44.364 68.1999 44.2659L101.774 36.133C101.822 36.1217 101.871 36.114 101.92 36.11C101.972 36.1056 102.024 36.1052 102.077 36.1088C102.237 36.1186 102.392 36.1756 102.52 36.2726C102.635 36.3576 102.717 36.4797 102.752 36.6181Z" fill="#FFB93E"/>
<path d="M86.8599 43.0635L68.8714 47.4206C68.7556 47.4491 68.6348 47.4502 68.5185 47.4238C68.409 47.401 68.3065 47.3526 68.2193 47.2827C68.1321 47.2127 68.0627 47.1231 68.0167 47.0212C68.0133 47.0073 68.0097 46.9922 68.0002 46.9785C67.9972 46.9686 67.9947 46.9586 67.9929 46.9484C67.9901 46.9368 67.9873 46.9252 67.9844 46.9136L67.5549 45.1443C67.5521 45.1327 67.549 45.1199 67.5462 45.1083C67.542 45.0859 67.5389 45.0633 67.5371 45.0406C67.536 45.0146 67.5367 44.9886 67.5391 44.9628C67.5484 44.8032 67.6093 44.6511 67.7126 44.5291C67.8158 44.4071 67.9559 44.322 68.1117 44.2864L83.8861 40.4656C84.5095 41.618 85.5138 42.5185 86.7274 43.0134C86.7722 43.0308 86.8155 43.0473 86.8599 43.0635Z" fill="#FFA412"/>
<path d="M98.501 36.9262L98.1196 37.0186L98.8798 40.15L99.2612 40.0576L98.501 36.9262Z" fill="#FFA412"/>
<path d="M97.2095 37.2392L96.8281 37.3315L97.5883 40.463L97.9697 40.3706L97.2095 37.2392Z" fill="#FFA412"/>
<path d="M95.6612 37.6142L95.2798 37.7065L96.04 40.838L96.4214 40.7456L95.6612 37.6142Z" fill="#FFA412"/>
<path d="M93.2857 38.1893L92.9043 38.2817L93.6645 41.4132L94.0459 41.3208L93.2857 38.1893Z" fill="#FFA412"/>
<path d="M90.7755 38.7982L90.394 38.8906L91.1542 42.0221L91.5356 41.9297L90.7755 38.7982Z" fill="#FFA412"/>
<path d="M86.9254 39.7309L86.5439 39.8232L87.3041 42.9547L87.6856 42.8623L86.9254 39.7309Z" fill="#FFA412"/>
<path d="M83.3209 40.6039L82.9395 40.6963L83.6996 43.8277L84.0811 43.7353L83.3209 40.6039Z" fill="#FFA412"/>
<path d="M80.1041 41.3832L79.7227 41.4756L80.4828 44.607L80.8643 44.5146L80.1041 41.3832Z" fill="#FFA412"/>
<path d="M99.73 36.6283L99.3486 36.7207L100.109 39.8521L100.49 39.7598L99.73 36.6283Z" fill="#FFA412"/>
<path d="M100.543 36.4315L100.161 36.5239L100.921 39.6554L101.303 39.563L100.543 36.4315Z" fill="#FFA412"/>
<path d="M101.328 36.2411L100.947 36.3335L101.707 39.4649L102.088 39.3726L101.328 36.2411Z" fill="#FFA412"/>
<path d="M101.921 36.1112L102.676 39.2218C102.63 39.2402 102.583 39.2553 102.536 39.2667L102.297 39.3246L101.537 36.1955L101.776 36.1376C101.823 36.1252 101.872 36.1164 101.921 36.1112Z" fill="#FFA412"/>
<path d="M102.52 36.2705L103.135 38.8004C103.064 38.9449 102.953 39.0657 102.815 39.1478L102.077 36.1079C102.237 36.1187 102.391 36.1751 102.52 36.2705Z" fill="#FFA412"/>
<path d="M104.735 32.8208L105.165 34.5903C105.197 34.7296 105.181 34.8758 105.118 35.0044L105.092 35.0548C105.053 35.123 105.004 35.185 104.947 35.2387C104.917 35.2665 104.885 35.2922 104.852 35.3156C104.836 35.3284 104.819 35.3399 104.8 35.3502C104.756 35.3782 104.709 35.4019 104.66 35.4209C104.615 35.4399 104.568 35.455 104.52 35.4659L70.9414 43.6C70.5366 43.6981 70.1365 43.5273 69.9968 43.2149C69.9873 43.1937 69.9796 43.1718 69.9735 43.1494C69.9707 43.1378 69.9679 43.1262 69.9651 43.1146L69.5361 41.3474C69.5333 41.3358 69.5305 41.3242 69.5277 41.3126C69.4672 40.9774 69.7072 40.6307 70.0865 40.4983C70.1174 40.4863 70.1491 40.4766 70.1814 40.4692L103.758 32.3357C103.806 32.3247 103.854 32.3166 103.903 32.3116C103.956 32.3082 104.008 32.3082 104.06 32.3115C104.202 32.3201 104.34 32.3645 104.46 32.4406C104.476 32.4506 104.492 32.4616 104.506 32.4736C104.62 32.5597 104.701 32.6823 104.735 32.8208Z" fill="#FFB93E"/>
<path d="M88.8424 39.2664L70.8551 43.6232C70.7004 43.6628 70.537 43.6513 70.3893 43.5904C70.2417 43.5294 70.1178 43.4223 70.0361 43.285C70.0229 43.2628 70.0108 43.2399 69.9998 43.2165C69.9903 43.1953 69.9826 43.1734 69.9765 43.1509C69.9737 43.1393 69.9709 43.1277 69.9681 43.1161L69.5386 41.3468C69.5358 41.3353 69.5329 41.3237 69.5301 41.3121C69.5039 41.1441 69.5378 40.9722 69.6258 40.8268C69.7138 40.6813 69.8503 40.5715 70.0112 40.5167C70.039 40.5054 70.0676 40.4964 70.0968 40.4898L85.8712 36.669C85.8717 36.6709 85.8722 36.6729 85.8726 36.6748C86.5191 37.8671 87.5733 38.787 88.8424 39.2664Z" fill="#FFA412"/>
<path d="M100.483 33.1288L100.102 33.2212L100.862 36.3526L101.244 36.2603L100.483 33.1288Z" fill="#FFA412"/>
<path d="M99.1939 33.4418L98.8125 33.5342L99.5727 36.6656L99.9541 36.5732L99.1939 33.4418Z" fill="#FFA412"/>
<path d="M97.6436 33.8173L97.2622 33.9097L98.0224 37.0411L98.4038 36.9487L97.6436 33.8173Z" fill="#FFA412"/>
<path d="M95.2691 34.3925L94.8877 34.4849L95.6479 37.6163L96.0293 37.5239L95.2691 34.3925Z" fill="#FFA412"/>
<path d="M92.7589 35.0004L92.3774 35.0928L93.1376 38.2242L93.5191 38.1318L92.7589 35.0004Z" fill="#FFA412"/>
<path d="M88.9088 35.9335L88.5273 36.0259L89.2875 39.1573L89.6689 39.065L88.9088 35.9335Z" fill="#FFA412"/>
<path d="M85.3062 36.8065L84.9248 36.8989L85.685 40.0304L86.0664 39.938L85.3062 36.8065Z" fill="#FFA412"/>
<path d="M82.0865 37.5863L81.7051 37.6787L82.4653 40.8102L82.8467 40.7178L82.0865 37.5863Z" fill="#FFA412"/>
<path d="M101.715 32.831L101.334 32.9233L102.094 36.0548L102.476 35.9624L101.715 32.831Z" fill="#FFA412"/>
<path d="M102.527 32.6342L102.146 32.7266L102.906 35.858L103.287 35.7656L102.527 32.6342Z" fill="#FFA412"/>
<path d="M103.312 32.4442L102.93 32.5366L103.69 35.6681L104.072 35.5757L103.312 32.4442Z" fill="#FFA412"/>
<path d="M103.905 32.317L104.66 35.4264C104.614 35.4452 104.568 35.4606 104.52 35.4725L104.281 35.5304L103.522 32.4012L103.76 32.3434C103.808 32.3304 103.856 32.3216 103.905 32.317Z" fill="#FFA412"/>
<path d="M104.504 32.4741L105.118 35.0041C105.047 35.1482 104.936 35.2688 104.799 35.3514L104.061 32.3115C104.221 32.3214 104.375 32.3779 104.504 32.4741Z" fill="#FFA412"/>
<path d="M99.5696 30.7633L99.9983 32.5293C100.031 32.6684 100.015 32.8145 99.9526 32.9431C99.8823 33.0883 99.7708 33.2097 99.632 33.292C99.5881 33.32 99.5416 33.3436 99.4931 33.3625L99.447 33.3798L99.4412 33.3812L99.4099 33.3888L65.7729 41.5369C65.6405 41.5733 65.5013 41.578 65.3667 41.5507C65.2321 41.5234 65.1057 41.4648 64.9979 41.3797C64.9058 41.3032 64.8384 41.2012 64.804 41.0866C64.8009 41.0738 64.798 41.0622 64.7952 41.0506L64.3679 39.2904C64.3648 39.2776 64.362 39.2661 64.3592 39.2545C64.306 38.9592 64.4858 38.6578 64.7894 38.4971C64.8604 38.4589 64.9358 38.4299 65.0141 38.4107L98.6336 30.2668L98.6545 30.2618C98.6815 30.2562 98.7089 30.2524 98.7365 30.2505C98.7882 30.2452 98.8404 30.2449 98.8922 30.2496C98.9177 30.2504 98.943 30.2533 98.968 30.2583C99.0621 30.2731 99.1528 30.3043 99.236 30.3505L99.2476 30.3575C99.2755 30.3733 99.3027 30.3905 99.3288 30.4091C99.448 30.4954 99.5332 30.6207 99.5696 30.7633Z" fill="#FFB93E"/>
<path d="M83.6757 37.2089L65.6895 41.5654C65.5712 41.5949 65.4474 41.5956 65.3288 41.5673C65.2101 41.539 65.1 41.4825 65.0077 41.4028C64.9135 41.3207 64.8448 41.2133 64.8098 41.0935C64.8067 41.0807 64.8039 41.0691 64.8011 41.0575L64.3718 39.2894C64.3688 39.2766 64.3659 39.265 64.3631 39.2534C64.3377 39.0955 64.3658 38.9337 64.4431 38.7937C64.5205 38.6537 64.6424 38.5436 64.7897 38.4811C64.8356 38.459 64.8837 38.442 64.9333 38.4303L80.7076 34.6095C80.7193 34.6325 80.7331 34.6537 80.746 34.6764C81.3919 35.8368 82.4269 36.7321 83.6685 37.2045C83.6712 37.2054 83.6737 37.2069 83.6757 37.2089Z" fill="#FFA412"/>
<path d="M95.3179 31.0702L94.9365 31.1626L95.6967 34.294L96.0781 34.2017L95.3179 31.0702Z" fill="#FFA412"/>
<path d="M94.0255 31.3832L93.644 31.4756L94.4042 34.607L94.7856 34.5146L94.0255 31.3832Z" fill="#FFA412"/>
<path d="M92.4771 31.7582L92.0957 31.8506L92.8559 34.982L93.2373 34.8896L92.4771 31.7582Z" fill="#FFA412"/>
<path d="M90.1021 32.3334L89.7207 32.4258L90.4809 35.5572L90.8623 35.4648L90.1021 32.3334Z" fill="#FFA412"/>
<path d="M87.5914 32.9418L87.21 33.0342L87.9701 36.1656L88.3516 36.0732L87.5914 32.9418Z" fill="#FFA412"/>
<path d="M83.7423 33.8744L83.3608 33.9668L84.121 37.0982L84.5024 37.0059L83.7423 33.8744Z" fill="#FFA412"/>
<path d="M80.1383 34.7479L79.7568 34.8403L80.517 37.9718L80.8984 37.8794L80.1383 34.7479Z" fill="#FFA412"/>
<path d="M76.92 35.5272L76.5386 35.6196L77.2988 38.7511L77.6802 38.6587L76.92 35.5272Z" fill="#FFA412"/>
<path d="M96.5479 30.7719L96.1665 30.8643L96.9267 33.9957L97.3081 33.9033L96.5479 30.7719Z" fill="#FFA412"/>
<path d="M97.3585 30.5756L96.9771 30.668L97.7372 33.7994L98.1186 33.707L97.3585 30.5756Z" fill="#FFA412"/>
<path d="M98.1441 30.3851L97.7627 30.4775L98.5229 33.609L98.9043 33.5166L98.1441 30.3851Z" fill="#FFA412"/>
<path d="M98.7369 30.2562L99.4921 33.3668C99.4466 33.3852 99.3997 33.4003 99.352 33.4117L99.1132 33.4696L98.3535 30.3405L98.5935 30.2823C98.6406 30.2701 98.6886 30.2614 98.7369 30.2562Z" fill="#FFA412"/>
<path d="M99.3367 30.4153L99.9509 32.9453C99.8803 33.0891 99.7698 33.2096 99.6325 33.2923L98.8945 30.2524C99.0547 30.2624 99.2084 30.319 99.3367 30.4153Z" fill="#FFA412"/>
<path d="M101.295 27.1043L101.724 28.8738C101.757 29.0135 101.74 29.16 101.678 29.289C101.607 29.4332 101.496 29.5538 101.358 29.6365C101.314 29.6641 101.267 29.6877 101.218 29.7073C101.172 29.7258 101.125 29.7409 101.077 29.7526L67.5014 37.8858C67.377 37.9166 67.2476 37.9221 67.1209 37.9018C66.9941 37.887 66.8736 37.8386 66.7718 37.7616C66.6699 37.6846 66.5905 37.5818 66.5418 37.4638C66.539 37.4547 66.5367 37.4454 66.535 37.436C66.532 37.4233 66.5291 37.4117 66.5263 37.4001L66.0968 35.6306C66.094 35.619 66.0912 35.6074 66.0883 35.5958C66.0287 35.2591 66.2691 34.9136 66.6481 34.78C66.6797 34.7705 66.7118 34.7627 66.7443 34.7567L100.317 26.6241C100.366 26.6124 100.414 26.6042 100.464 26.5997C100.516 26.5952 100.569 26.5952 100.621 26.5996C100.781 26.6101 100.935 26.6666 101.065 26.7623C101.178 26.8471 101.259 26.9676 101.295 27.1043Z" fill="#FFB93E"/>
<path d="M85.4018 33.5497L67.4144 37.9065C67.3023 37.9343 67.1854 37.9366 67.0722 37.9133C66.9526 37.8903 66.8409 37.8368 66.748 37.758C66.655 37.6792 66.584 37.5778 66.5418 37.4636C66.539 37.4544 66.5367 37.4452 66.535 37.4357C66.5319 37.423 66.5291 37.4114 66.5263 37.3998L66.0968 35.6305C66.094 35.6189 66.0912 35.6073 66.0883 35.5957C66.0625 35.4273 66.0968 35.2552 66.1851 35.1094C66.2734 34.9637 66.4102 34.8537 66.5715 34.7986C66.5996 34.7899 66.6283 34.7829 66.6573 34.7778L82.4317 30.957C83.0562 32.1101 84.0623 33.0104 85.2777 33.5037L85.4018 33.5497Z" fill="#FFA412"/>
<path d="M97.044 27.4125L96.6626 27.5049L97.4228 30.6363L97.8042 30.5439L97.044 27.4125Z" fill="#FFA412"/>
<path d="M95.7525 27.7255L95.3711 27.8179L96.1313 30.9493L96.5127 30.8569L95.7525 27.7255Z" fill="#FFA412"/>
<path d="M94.2022 28.101L93.8208 28.1934L94.581 31.3248L94.9624 31.2324L94.2022 28.101Z" fill="#FFA412"/>
<path d="M91.8287 28.6762L91.4473 28.7686L92.2074 31.9L92.5889 31.8076L91.8287 28.6762Z" fill="#FFA412"/>
<path d="M89.3165 29.2846L88.9351 29.377L89.6952 32.5084L90.0767 32.416L89.3165 29.2846Z" fill="#FFA412"/>
<path d="M85.4693 30.2167L85.0879 30.3091L85.8481 33.4405L86.2295 33.3481L85.4693 30.2167Z" fill="#FFA412"/>
<path d="M81.8648 31.0902L81.4834 31.1826L82.2436 34.3141L82.625 34.2217L81.8648 31.0902Z" fill="#FFA412"/>
<path d="M78.6461 31.87L78.2646 31.9624L79.0248 35.0939L79.4063 35.0015L78.6461 31.87Z" fill="#FFA412"/>
<path d="M98.273 27.1146L97.8916 27.207L98.6518 30.3385L99.0332 30.2461L98.273 27.1146Z" fill="#FFA412"/>
<path d="M99.086 26.9179L98.7046 27.0103L99.4648 30.1417L99.8462 30.0493L99.086 26.9179Z" fill="#FFA412"/>
<path d="M99.8702 26.7279L99.4888 26.8203L100.249 29.9518L100.63 29.8594L99.8702 26.7279Z" fill="#FFA412"/>
<path d="M100.463 26.595L101.218 29.7056C101.172 29.7241 101.125 29.7392 101.077 29.7508L100.845 29.807L100.085 26.6779L100.317 26.6217C100.365 26.6093 100.414 26.6003 100.463 26.595Z" fill="#FFA412"/>
<path d="M101.064 26.7573L101.679 29.2873C101.607 29.431 101.496 29.5514 101.359 29.6346L100.621 26.5947C100.781 26.6052 100.935 26.6616 101.064 26.7573Z" fill="#FFA412"/>
<path d="M101.588 23.7228L102.017 25.4923C102.05 25.6318 102.033 25.7784 101.969 25.9067C101.899 26.051 101.788 26.172 101.651 26.2551C101.606 26.2821 101.559 26.3058 101.511 26.3258L101.463 26.3374L101.437 26.3438L67.7916 34.4939C67.3578 34.599 66.9319 34.3977 66.8226 34.0435C66.8198 34.0319 66.817 34.0203 66.8142 34.0088L66.3872 32.2497C66.3844 32.2381 66.3816 32.2265 66.3787 32.2149C66.3135 31.8501 66.5998 31.4763 67.0336 31.3712L100.609 23.238C100.657 23.2263 100.706 23.2181 100.755 23.2136C100.808 23.2093 100.86 23.2089 100.912 23.2124C101.073 23.2234 101.226 23.2804 101.355 23.3765C101.47 23.4615 101.553 23.5839 101.588 23.7228Z" fill="#FFB93E"/>
<path d="M85.6946 30.1685L67.7072 34.5253C67.5278 34.5736 67.3368 34.5517 67.1729 34.4641C67.0091 34.3765 66.8847 34.2299 66.8252 34.0539C66.8224 34.0423 66.8196 34.0307 66.8168 34.0191L66.3872 32.2498C66.3844 32.2383 66.3816 32.2267 66.3788 32.2151C66.351 32.0314 66.3943 31.8442 66.4998 31.6914C66.6053 31.5386 66.7651 31.4317 66.9467 31.3925L82.721 27.5717C83.3655 28.7644 84.4174 29.686 85.6848 30.1684L85.6946 30.1685Z" fill="#FFA412"/>
<path d="M97.3355 24.0311L96.9541 24.1235L97.7143 27.255L98.0957 27.1626L97.3355 24.0311Z" fill="#FFA412"/>
<path d="M96.043 24.3441L95.6616 24.4365L96.4218 27.568L96.8032 27.4756L96.043 24.3441Z" fill="#FFA412"/>
<path d="M94.4957 24.7191L94.1143 24.8115L94.8744 27.943L95.2559 27.8506L94.4957 24.7191Z" fill="#FFA412"/>
<path d="M92.1202 25.2948L91.7388 25.3872L92.499 28.5187L92.8804 28.4263L92.1202 25.2948Z" fill="#FFA412"/>
<path d="M89.6099 25.9032L89.2285 25.9956L89.9887 29.1271L90.3701 29.0347L89.6099 25.9032Z" fill="#FFA412"/>
<path d="M85.7608 26.8353L85.3794 26.9277L86.1396 30.0592L86.521 29.9668L85.7608 26.8353Z" fill="#FFA412"/>
<path d="M82.1563 27.7089L81.7749 27.8013L82.5351 30.9327L82.9165 30.8403L82.1563 27.7089Z" fill="#FFA412"/>
<path d="M78.9385 28.4887L78.5571 28.5811L79.3173 31.7125L79.6987 31.6201L78.9385 28.4887Z" fill="#FFA412"/>
<path d="M98.5645 23.7333L98.1831 23.8257L98.9433 26.9571L99.3247 26.8647L98.5645 23.7333Z" fill="#FFA412"/>
<path d="M99.378 23.5365L98.9966 23.6289L99.7568 26.7604L100.138 26.668L99.378 23.5365Z" fill="#FFA412"/>
<path d="M100.162 23.3461L99.7803 23.4385L100.54 26.5699L100.922 26.4775L100.162 23.3461Z" fill="#FFA412"/>
<path d="M100.755 23.2137L101.51 26.3243C101.464 26.3428 101.417 26.3579 101.369 26.3696L101.131 26.4271L100.372 23.298L100.609 23.2404C100.657 23.228 100.706 23.2191 100.755 23.2137Z" fill="#FFA412"/>
<path d="M101.356 23.3761L101.97 25.9049C101.899 26.0494 101.789 26.1705 101.651 26.2535L100.913 23.2124C101.073 23.2231 101.227 23.28 101.356 23.3761Z" fill="#FFA412"/>
<path opacity="0.5" d="M82.6536 47.2924C82.6558 47.3016 82.6575 47.3086 82.6592 47.3155C82.856 48.3794 82.94 49.461 82.9098 50.5424C82.9062 50.6991 82.8999 50.8553 82.8901 51.0123C82.8328 52.01 82.681 53.0001 82.4367 53.9691C82.125 55.2078 81.6658 56.4046 81.0689 57.5339C81.0542 57.5645 81.0375 57.5968 81.0205 57.6279C80.2382 59.0854 79.2431 60.4183 78.0677 61.5827C77.8147 61.8354 77.5513 62.082 77.2774 62.3226C77.0933 62.4899 76.9056 62.6421 76.7155 62.7949C76.5255 62.9477 76.3492 63.1168 76.1761 63.2937C75.6006 63.8409 74.9552 64.3096 74.2566 64.6875L73.9214 63.3072C73.9186 63.2956 73.9161 63.2851 73.9132 63.2735C73.9089 63.2508 73.9058 63.2278 73.9039 63.2046C73.9025 63.1779 73.9029 63.1512 73.9053 63.1245C73.9156 62.9656 73.977 62.8143 74.0803 62.6931C74.1836 62.5719 74.3233 62.4873 74.4787 62.4519L70.8838 63.3224C70.7292 63.3617 70.5659 63.35 70.4184 63.2891C70.2709 63.2282 70.147 63.1214 70.0651 62.9845C70.0522 62.9618 70.0393 62.9392 70.0285 62.9148C70.0194 62.8938 70.0113 62.8725 70.0044 62.8507C70.0015 62.8391 69.9987 62.8275 69.9956 62.8147L69.5662 61.0461C69.5634 61.0345 69.5606 61.0229 69.5578 61.0113C69.5539 60.9888 69.5513 60.9661 69.5498 60.9433C69.5436 60.9178 69.549 60.8895 69.5501 60.8635C69.5602 60.7044 69.6214 60.5529 69.7247 60.4314C69.8279 60.31 69.9677 60.2252 70.1232 60.1896L71.524 59.8504C71.4148 59.8271 71.3125 59.7785 71.2254 59.7086C71.1383 59.6387 71.0687 59.5494 71.0223 59.4479C71.0187 59.4328 71.0153 59.4189 71.0058 59.4053C71.0028 59.3954 71.0003 59.3853 70.9985 59.3751C70.9957 59.3635 70.9929 59.3519 70.9901 59.3404L70.5615 57.5752C70.5582 57.5641 70.5554 57.5529 70.5533 57.5416C70.549 57.5192 70.546 57.4966 70.5442 57.4738C70.5428 57.4479 70.5435 57.4219 70.5462 57.396C70.5552 57.2365 70.6159 57.0841 70.7192 56.9622C70.8225 56.8402 70.9627 56.7551 71.1187 56.7199L71.9235 56.525C71.7688 56.5641 71.6057 56.5523 71.4582 56.4914C71.3107 56.4305 71.1868 56.3238 71.1047 56.187C71.0905 56.1648 71.0779 56.1416 71.067 56.1176C71.0582 56.0965 71.0506 56.0751 71.044 56.0532L70.5963 54.2092C70.5705 54.041 70.6046 53.8692 70.6927 53.7236C70.7808 53.578 70.9172 53.468 71.0782 53.4127L68.7056 53.9873C68.5263 54.0355 68.3352 54.0136 68.1714 53.9261C68.0076 53.8385 67.8833 53.6919 67.8238 53.5161C67.821 53.5045 67.8182 53.4929 67.8151 53.4801L67.387 51.7173C67.3842 51.7057 67.3811 51.6929 67.3783 51.6814C67.3755 51.6722 67.3732 51.6629 67.3716 51.6535C67.3536 51.5024 67.3843 51.3495 67.4592 51.2171C67.5342 51.0846 67.6494 50.9795 67.7882 50.917C67.631 50.939 67.4708 50.9092 67.332 50.8321C67.1932 50.755 67.0833 50.6348 67.019 50.4897C67.0108 50.471 67.0037 50.4518 66.9977 50.4323C66.9946 50.4195 66.9918 50.4079 66.989 50.3963L66.5578 48.6207C66.5547 48.608 66.5519 48.5964 66.5491 48.5848C66.5453 48.5623 66.5426 48.5396 66.5412 48.5168C66.535 48.4913 66.5407 48.4641 66.5417 48.4381C66.5517 48.2789 66.6129 48.1272 66.7161 48.0056C66.8193 47.884 66.959 47.7989 67.1145 47.7631L68.5153 47.4239C68.4059 47.401 68.3034 47.3527 68.2162 47.2827C68.129 47.2128 68.0596 47.1232 68.0137 47.0214C68.0103 47.0074 68.0066 46.9924 67.9972 46.9787C67.9942 46.9688 67.9917 46.9588 67.9899 46.9486C67.987 46.937 67.9842 46.9254 67.9814 46.9138L67.552 45.1452C67.5492 45.1336 67.5461 45.1208 67.5432 45.1092C67.539 45.0868 67.536 45.0642 67.5342 45.0415C67.5331 45.0155 67.5338 44.9895 67.5361 44.9637C67.5455 44.8042 67.6064 44.6521 67.7096 44.5302C67.8128 44.4083 67.9529 44.3231 68.1087 44.2875L70.8523 43.6231C70.6977 43.6628 70.5343 43.6513 70.3867 43.5903C70.2391 43.5294 70.1152 43.4223 70.0336 43.2851C70.0203 43.2629 70.0082 43.24 69.9973 43.2166C69.9878 43.1954 69.98 43.1735 69.974 43.151C69.9712 43.1394 69.9684 43.1279 69.9656 43.1163L69.5361 41.3476C69.5333 41.336 69.5305 41.3244 69.5277 41.3129C69.5015 41.1449 69.5354 40.9732 69.6233 40.8277C69.7113 40.6823 69.8478 40.5726 70.0087 40.5177L65.6891 41.5639C65.5708 41.5934 65.4471 41.594 65.3285 41.5657C65.2098 41.5374 65.0997 41.481 65.0075 41.4013L65.0035 41.385L64.7827 38.4933L64.7791 38.4783L64.4649 34.3575C65.2397 34.2766 66.0191 34.2465 66.7979 34.2674L66.9336 34.2701L66.9429 34.2678C67.396 34.2833 67.8477 34.3162 68.2979 34.3668L68.3095 34.3639C70.3866 34.5936 72.4042 35.2013 74.2626 36.157C74.2961 36.1735 74.3287 36.1913 74.3612 36.2092C75.3397 36.7216 76.2632 37.3326 77.1172 38.0329C77.2902 38.1739 77.4603 38.318 77.6254 38.467C77.6812 38.5148 77.7358 38.563 77.7899 38.6137C77.791 38.6154 77.7915 38.6174 77.7913 38.6195C78.0601 38.8636 78.3213 39.1182 78.5747 39.3833C79.1604 39.9956 79.6963 40.6537 80.1772 41.3513C80.7954 42.2462 81.3162 43.2045 81.7308 44.2099C81.7431 44.2351 81.7527 44.2598 81.7624 44.2844C82.1611 45.2542 82.4597 46.262 82.6536 47.2924Z" fill="#E2810E"/>
<path d="M67.3498 66.7114C76.2651 63.7874 81.1167 54.1928 78.1861 45.2811C75.2556 36.3695 65.6526 31.5155 56.7373 34.4395C47.822 37.3635 42.9704 46.9582 45.9009 55.8698C48.8315 64.7815 58.4345 69.6354 67.3498 66.7114Z" fill="#E2810E"/>
<path d="M72.9658 63.588C72.793 63.7612 72.6147 63.932 72.4329 64.0987C72.3718 64.1552 72.3091 64.2109 72.2477 64.2663C72.1053 64.3928 71.9632 64.5156 71.8194 64.6363C68.5456 67.3572 64.3681 68.7496 60.1143 68.5379C55.8605 68.3262 51.8404 66.5257 48.8502 63.493C45.8599 60.4603 44.1175 56.4165 43.9678 52.1623C43.8182 47.9082 45.2724 43.7538 48.0423 40.5219C48.4882 40.0033 48.9645 39.5118 49.4689 39.0498C49.6522 38.8811 49.8384 38.7177 50.0276 38.5598C50.2101 38.4064 50.3973 38.2568 50.5844 38.1121C51.987 37.0318 53.5501 36.1775 55.2172 35.5802C58.8513 34.2817 62.8202 34.2586 66.4705 35.5148C70.1209 36.771 73.2354 39.2316 75.3013 42.4916C77.3672 45.7517 78.2615 49.617 77.837 53.4514C77.4125 57.2857 75.6945 60.8607 72.9658 63.588Z" fill="#FFB93E"/>
<path d="M64.7017 66.513C63.3028 66.8503 61.8632 66.9885 60.4254 66.9236C56.605 66.745 52.9934 65.1263 50.3179 62.3936C47.6423 59.6608 46.1015 56.0169 46.0057 52.1956C45.9099 48.3743 47.2662 44.6594 49.8015 41.7989C52.3369 38.9384 55.8629 37.1449 59.6697 36.7794C63.4765 36.4138 67.2812 37.5035 70.3178 39.8289C73.3544 42.1544 75.3974 45.5429 76.0353 49.3121C76.6732 53.0814 75.8586 56.9515 73.7557 60.1431C71.6528 63.3347 68.4176 65.6108 64.7017 66.513ZM57.5662 37.341C54.4123 38.1107 51.5995 39.895 49.5604 42.4193C47.5213 44.9436 46.369 48.0681 46.2808 51.312C46.1925 54.5559 47.1732 57.7395 49.072 60.373C50.9707 63.0064 53.6823 64.9438 56.7896 65.887C59.8968 66.8303 63.2275 66.727 66.2692 65.5933C69.3108 64.4595 71.895 62.358 73.6239 59.6122C75.3529 56.8663 76.1309 53.6282 75.8383 50.3961C75.5456 47.1639 74.1985 44.1169 72.0042 41.7238C70.2158 39.7604 67.9297 38.3166 65.3881 37.5451C62.8465 36.7736 60.1438 36.7031 57.5662 37.341Z" fill="#FFA412"/>
<path d="M68.7154 51.3973C68.6632 51.324 68.6093 51.2536 68.5556 51.1844C68.1912 50.7014 67.7322 50.2977 67.2067 49.9978C66.6505 49.6933 66.0372 49.5075 65.4056 49.452C64.7055 49.3935 64.0007 49.43 63.3104 49.5604C62.5628 49.694 61.7587 49.8776 60.8979 50.1114C60.4441 50.2403 59.983 50.3421 59.5171 50.4163C59.1805 50.4729 58.8376 50.4807 58.4988 50.4394C58.2298 50.4051 57.9724 50.3091 57.7468 50.1588C57.5236 50.0007 57.3295 49.8053 57.173 49.581C57.0065 49.3542 56.8784 49.1017 56.7938 48.8334C56.7145 48.5833 56.6921 48.3186 56.7285 48.0588C56.7722 47.7847 56.8766 47.5238 57.0341 47.2951C57.2267 47.014 57.47 46.7712 57.7515 46.579C58.3326 46.1609 58.9353 46.0207 59.5597 46.1584C60.1841 46.296 60.7751 46.7563 61.3327 47.5393L64.3638 45.3597C63.9416 44.7545 63.4188 44.2261 62.818 43.7974C62.289 43.4202 61.6896 43.1528 61.0555 43.0112C60.4213 42.8697 59.7653 42.8567 59.1261 42.973C58.4325 43.0955 57.7639 43.3316 57.1473 43.6718L55.6258 41.5574L53.9471 42.7641L55.448 44.8491C54.8972 45.3179 54.4205 45.8674 54.0341 46.4788C53.6934 47.0189 53.452 47.6155 53.3214 48.2406C53.2008 48.8322 53.2064 49.4427 53.3379 50.0321C53.6647 51.339 54.4944 52.4644 55.6466 53.1636C56.2019 53.4671 56.8145 53.6511 57.4451 53.7038C58.1451 53.7589 58.8494 53.7177 59.5381 53.5812C60.3511 53.4279 61.1557 53.2331 61.9488 52.9975C62.3788 52.8625 62.8182 52.759 63.2634 52.6879C63.5985 52.6331 63.9398 52.6269 64.2767 52.6695C64.557 52.707 64.8252 52.8074 65.0613 52.9631C65.307 53.1376 65.52 53.354 65.6905 53.6024C65.8576 53.8289 65.9781 54.0863 66.0451 54.3597C66.1087 54.6233 66.1103 54.8981 66.0497 55.1624C65.9809 55.4515 65.8546 55.7238 65.6782 55.9629C65.4624 56.2529 65.2008 56.5057 64.9035 56.7114C64.6185 56.9163 64.3076 57.0828 63.979 57.2064C63.6537 57.3291 63.3051 57.3774 62.9587 57.3479C62.5839 57.3104 62.2234 57.1844 61.9069 56.9803C61.5012 56.7133 61.1525 56.3685 60.8809 55.9659L57.8495 58.1443C58.4097 58.9242 59.0172 59.5029 59.672 59.8802C60.2834 60.2449 60.967 60.4718 61.6751 60.5452C62.3642 60.6111 63.0594 60.5452 63.7237 60.3511C64.4081 60.156 65.0657 59.8773 65.6817 59.5212L67.0699 61.4506L68.7428 60.2503L67.3474 58.3116C67.9006 57.839 68.3841 57.2906 68.7836 56.6826C69.1102 56.1886 69.3513 55.6432 69.4967 55.0691C69.5068 55.0249 69.5169 54.9808 69.5265 54.9392C69.6516 54.3504 69.6502 53.7416 69.5224 53.1533C69.3786 52.5182 69.1037 51.9202 68.7154 51.3973Z" fill="#FFA412"/>
</svg>
