<svg width="35" height="30" viewBox="0 0 35 30" fill="none" xmlns="http://www.w3.org/2000/svg">
<g style="mix-blend-mode:color">
<path opacity="0.5" d="M3.11284 15.9838C3.11284 15.9838 4.14046 17.3915 5.06604 17.3993C5.99162 17.4071 7.39112 16.7105 7.39112 16.7105C7.39112 16.7105 8.21634 14.8056 7.63049 14.0722C7.63049 14.0722 7.04888 13.8265 6.45031 14.2818C6.33571 14.3704 6.23207 14.4724 6.14159 14.5855C6.01874 14.7434 5.85093 14.8604 5.66027 14.9211C5.00221 15.1292 4.21253 14.6704 3.92508 15.128C3.78437 15.3524 3.6154 15.5577 3.42232 15.739C3.3263 15.8292 3.22276 15.9111 3.11284 15.9838Z" fill="#F4C222"/>
<path opacity="0.5" d="M16.4055 26.0636C16.4055 26.0636 12.7255 17.4647 6.30132 17.3833C6.30132 17.3833 0.381764 18.1187 0.158165 26.2742L16.4055 26.0636Z" fill="#F4C222"/>
<path d="M8.06359 17.6246C8.06359 17.6246 5.49669 18.2311 4.6983 17.9043C4.6983 17.9043 4.56399 16.8295 5.65018 16.9665C6.39345 17.0611 6.87232 16.6974 7.15596 16.5489C7.55396 16.3389 8.16456 17.1726 8.06359 17.6246Z" fill="#F4C222"/>
<path opacity="0.5" d="M5.80266 16.0312C5.96734 16.1525 6.45011 14.2818 6.45011 14.2818C6.33551 14.3704 6.23187 14.4723 6.14139 14.5854C6.01855 14.7433 5.85073 14.8603 5.66007 14.921C5.6587 14.9757 5.64115 15.9129 5.80266 16.0312Z" fill="#F4C222"/>
<path opacity="0.5" d="M3.4219 15.739C3.45865 15.7598 4.65841 16.4577 4.81992 16.4556C4.98144 16.4535 3.92466 15.128 3.92466 15.128C3.78394 15.3523 3.61497 15.5577 3.4219 15.739Z" fill="#F4C222"/>
<path opacity="0.5" d="M12.8884 23.6939C12.9539 23.6363 10.3141 19.9118 9.6 19.8934C8.88585 19.8751 7.29425 20.7467 6.13485 20.8716C4.97546 20.9966 3.8458 20.6819 3.63538 21.373C3.42495 22.0641 2.85261 24.5025 3.2281 24.8869C3.60358 25.2713 11.4792 24.9289 12.8884 23.6939Z" fill="#F4C222"/>
<path d="M27.6411 7.61086C28.758 8.36547 30.2751 8.07182 31.0297 6.95497C31.7843 5.83813 31.4906 4.32102 30.3738 3.56641C29.2569 2.8118 27.7398 3.10545 26.9852 4.2223C26.2306 5.33914 26.5243 6.85625 27.6411 7.61086Z" fill="#F4C222"/>
<path d="M28.4905 7.97354C28.4556 7.96916 28.4205 7.96396 28.3856 7.958C28.3738 7.95603 28.3619 7.95383 28.3502 7.95172C28.3233 7.94669 28.2969 7.94137 28.2705 7.93567C27.6732 7.8035 27.1474 7.45186 26.797 6.95039C26.4467 6.44892 26.2975 5.83419 26.3788 5.2279C26.4602 4.62162 26.7663 4.068 27.2365 3.67667C27.7066 3.28534 28.3066 3.08482 28.9176 3.11483C29.0158 3.1198 29.1135 3.13062 29.2104 3.14721C29.2457 3.15317 29.2807 3.15994 29.3152 3.16752C29.3487 3.17473 29.3822 3.18281 29.4151 3.19131C29.6613 3.25545 29.8959 3.35771 30.1105 3.49437C30.5779 3.7926 30.9298 4.24106 31.1084 4.76594C31.2869 5.29083 31.2815 5.86086 31.0929 6.38223C30.9043 6.9036 30.5439 7.34524 30.0709 7.63447C29.5979 7.9237 29.0405 8.04328 28.4905 7.97354Z" fill="#F4C222"/>
<path d="M27.4312 7.29285C27.2697 7.16374 27.1273 7.0125 27.0082 6.84359C26.6922 6.39423 26.5583 5.84185 26.6333 5.29768C26.7083 4.75351 26.9867 4.25797 27.4124 3.91083C27.8381 3.5637 28.3795 3.39075 28.9277 3.42682C29.4758 3.46289 29.9899 3.70529 30.3665 4.10522C30.743 4.50514 30.9541 5.03289 30.9572 5.5822C30.9602 6.13151 30.755 6.66157 30.3829 7.06566C30.0108 7.46974 29.4994 7.71784 28.9517 7.76C28.404 7.80215 27.8607 7.63523 27.4312 7.29285ZM30.1175 3.91588C29.7525 3.62563 29.3022 3.46336 28.836 3.45404C28.3697 3.44472 27.9133 3.58887 27.537 3.86431C27.1606 4.13975 26.8853 4.53121 26.7532 4.97846C26.6211 5.42572 26.6396 5.90399 26.8059 6.33968C26.9722 6.77537 27.2771 7.14434 27.6736 7.38983C28.0701 7.63531 28.5363 7.7437 29.0005 7.69832C29.4646 7.65294 29.901 7.45631 30.2424 7.13868C30.5839 6.82104 30.8115 6.40001 30.8903 5.94036C30.956 5.56459 30.9188 5.17806 30.7828 4.82168C30.6467 4.46529 30.4169 4.15232 30.1175 3.91588Z" fill="#F4C222"/>
<path d="M29.5015 6.41835C29.5052 6.40598 29.5085 6.39366 29.5116 6.38148C29.5344 6.29761 29.5399 6.20998 29.5277 6.12393C29.5133 6.034 29.4805 5.94803 29.4312 5.87145C29.3762 5.78682 29.31 5.71003 29.2345 5.64315C29.1535 5.57004 29.0618 5.49492 28.9595 5.41778C28.9049 5.37761 28.8528 5.33423 28.8033 5.28787C28.7673 5.25465 28.7362 5.2164 28.7111 5.17431C28.6913 5.14077 28.6796 5.1031 28.6768 5.06425C28.6751 5.02501 28.6802 4.98577 28.6919 4.94828C28.703 4.90942 28.7204 4.87265 28.7435 4.83943C28.7649 4.80842 28.793 4.7826 28.8257 4.76386C28.8607 4.74469 28.8996 4.73358 28.9394 4.73134C28.9883 4.72847 29.0373 4.73471 29.0839 4.74975C29.1826 4.77893 29.2516 4.83501 29.2909 4.918C29.3302 5.00099 29.3299 5.10859 29.29 5.2408L29.8045 5.39306C29.8361 5.29188 29.8501 5.18602 29.8459 5.0801C29.8422 4.98685 29.8198 4.89529 29.7801 4.81084C29.7404 4.72639 29.6841 4.65078 29.6146 4.58847C29.5397 4.5205 29.454 4.46539 29.3611 4.42534L29.4674 4.06655L29.1825 3.98218L29.0777 4.33603C28.976 4.31477 28.8716 4.30901 28.7681 4.31896C28.6768 4.32781 28.5877 4.35292 28.5052 4.39311C28.4274 4.43148 28.3585 4.48583 28.3031 4.55263C28.1834 4.70473 28.1285 4.89795 28.1505 5.09028C28.1649 5.18002 28.1979 5.26576 28.2474 5.34197C28.3028 5.42629 28.3694 5.5026 28.4456 5.56877C28.5345 5.64757 28.6275 5.72177 28.7241 5.79106C28.7773 5.828 28.8277 5.86876 28.875 5.91303C28.9107 5.94625 28.9414 5.98445 28.9662 6.02645C28.9867 6.06157 28.9989 6.10085 29.0019 6.14135C29.0038 6.1846 28.9979 6.22782 28.9847 6.26903C28.9737 6.30794 28.955 6.34427 28.9299 6.37592C28.9055 6.40635 28.8744 6.43071 28.8391 6.44709C28.8002 6.46473 28.7581 6.47434 28.7154 6.47537C28.6635 6.47639 28.6117 6.46894 28.5622 6.45329C28.5138 6.43898 28.4675 6.41834 28.4245 6.39191C28.382 6.36579 28.3458 6.33047 28.3187 6.28854C28.2899 6.24271 28.2725 6.19069 28.2679 6.1368C28.2625 6.06724 28.271 5.99732 28.2928 5.93106L27.7785 5.77866C27.7392 5.91088 27.7269 6.03076 27.7417 6.1383C27.754 6.2398 27.7884 6.33737 27.8424 6.4242C27.8956 6.50822 27.9643 6.58135 28.0448 6.63967C28.1272 6.70019 28.2167 6.75031 28.3114 6.7889L28.2144 7.11627L28.498 7.20054L28.5955 6.87153C28.6979 6.89274 28.8027 6.89936 28.907 6.89121C28.9918 6.88482 29.075 6.86419 29.1531 6.83017C29.159 6.82743 29.1649 6.82469 29.1704 6.82212C29.2484 6.7845 29.3174 6.73077 29.373 6.66449C29.4325 6.59228 29.4763 6.50845 29.5015 6.41835Z" fill="#F4C222"/>
<path d="M22.3335 8.00102L21.5324 7.78639C21.3177 7.72884 21.0969 7.8563 21.0394 8.07107L20.7399 9.18883C20.6823 9.4036 20.8098 9.62436 21.0245 9.68191L21.8256 9.89654C22.0403 9.95409 22.2611 9.82664 22.3186 9.61187L22.6181 8.4941C22.6757 8.27933 22.5482 8.05857 22.3335 8.00102Z" fill="#F4C222"/>
<path d="M22.3335 8.00102L21.5324 7.78639C21.3177 7.72884 21.0969 7.8563 21.0394 8.07107L20.8725 8.6939C20.8149 8.90867 20.9424 9.12943 21.1571 9.18697L21.9582 9.40161C22.1729 9.45916 22.3937 9.3317 22.4513 9.11693L22.6181 8.4941C22.6757 8.27933 22.5482 8.05857 22.3335 8.00102Z" fill="#F4C222"/>
<path d="M31.341 11.4302C31.1928 11.9852 30.934 12.5045 30.5801 12.957C29.5482 14.279 27.7834 14.9342 26.0681 14.4746L24.879 14.156C23.3612 13.7493 22.2472 12.5676 21.8488 11.1504C21.6669 10.5037 21.6397 9.82331 21.7694 9.1642C21.8992 8.50508 22.1822 7.88574 22.5956 7.35625C23.6286 6.03487 25.3926 5.3782 27.1079 5.83782L28.2969 6.15642C29.8567 6.57437 30.9901 7.81116 31.3584 9.28098C31.5361 9.98714 31.5301 10.727 31.341 11.4302Z" fill="#F4C222"/>
<path d="M27.2449 12.8981L26.182 15.3127C26.1578 15.3551 26.1437 15.4024 26.1406 15.451C26.1376 15.4997 26.1457 15.5484 26.1645 15.5934C26.1832 15.6384 26.212 15.6786 26.2487 15.7107C26.2854 15.7428 26.3289 15.7661 26.376 15.7787L27.3955 16.0519C27.5026 16.0806 27.6156 16.0793 27.7221 16.048C27.8286 16.0168 27.9243 15.9568 27.999 15.8748L30.4304 13.1386L27.2449 12.8981Z" fill="#F4C222"/>
<path d="M24.9128 12.3189L24.5607 14.8778C24.5605 14.9266 24.5491 14.9746 24.5274 15.0183C24.5057 15.062 24.4743 15.1001 24.4356 15.1297C24.3969 15.1593 24.3518 15.1796 24.304 15.1891C24.2562 15.1986 24.2068 15.197 24.1597 15.1844L23.1403 14.9112C23.0334 14.8823 22.9366 14.8246 22.8603 14.7444C22.784 14.6642 22.7312 14.5646 22.7076 14.4564L21.8496 11.1503L24.9128 12.3189Z" fill="#F4C222"/>
<path d="M32.0291 12.8261C32.0053 12.8198 31.9824 12.8104 31.9611 12.798C31.7933 12.7022 31.7477 12.4587 31.8421 12.1627C31.935 11.8724 32.1409 11.5958 32.408 11.4015C32.5254 11.3163 32.654 11.2476 32.7902 11.1974C32.7577 11.0854 32.704 10.9808 32.6319 10.8892C32.4987 10.7195 32.3361 10.6374 32.1351 10.6381C31.5946 10.6399 30.9744 11.246 30.918 11.3174C30.9035 11.3334 30.8836 11.3436 30.8621 11.346C30.8407 11.3485 30.819 11.3431 30.8013 11.3308C30.7835 11.3185 30.7708 11.3002 30.7655 11.2792C30.7602 11.2582 30.7627 11.2361 30.7725 11.2168C30.7994 11.176 30.9815 10.9956 31.213 10.8281C31.616 10.5384 31.9181 10.4684 32.1006 10.4609C32.3713 10.45 32.5968 10.5569 32.7711 10.7789C32.8565 10.8874 32.9205 11.0112 32.9596 11.1436C33.1664 11.0928 33.3805 11.0784 33.5923 11.1009C33.6131 11.106 33.6314 11.1184 33.6438 11.1358C33.6562 11.1533 33.662 11.1746 33.66 11.1959C33.658 11.2172 33.6485 11.2371 33.633 11.2519C33.6176 11.2668 33.5974 11.2756 33.576 11.2768C33.3822 11.256 33.1863 11.2696 32.9972 11.317C33.0138 11.4529 33.0095 11.5905 32.9843 11.7251C32.9286 12.025 32.7955 12.3052 32.598 12.5377C32.4004 12.7672 32.1935 12.8702 32.0291 12.8261ZM32.8239 11.374C32.7129 11.4177 32.6079 11.4752 32.5113 11.545C32.2742 11.7169 32.0916 11.9618 32.0103 12.217C31.9456 12.4193 31.9612 12.5957 32.0494 12.6458C32.1376 12.6959 32.3085 12.6052 32.4649 12.4241C32.641 12.2153 32.7602 11.9646 32.8109 11.6962C32.8297 11.5899 32.8341 11.4815 32.8239 11.374ZM30.9193 11.3162L30.9189 11.3177C30.9189 11.3177 30.9191 11.3159 30.9194 11.3157L30.9193 11.3162Z" fill="#F4C222"/>
<path d="M31.3582 9.28184C31.3286 9.78775 31.0672 10.4527 30.8435 10.7819C29.3573 12.9713 27.2682 12.8779 25.2022 12.5211C23.7347 12.2678 21.8488 11.1504 21.8488 11.1504C21.6669 10.5037 21.6397 9.82331 21.7694 9.1642C21.8992 8.50508 22.1822 7.88574 22.5956 7.35625C23.6286 6.03487 25.3926 5.3782 27.1079 5.83782L28.2969 6.15642C29.8567 6.57437 30.9899 7.81202 31.3582 9.28184Z" fill="#F4C222"/>
<path d="M26.3381 6.74923L24.7024 6.31094C24.5374 6.26674 24.4306 6.13091 24.4637 6.00732L25.0621 3.77408C25.072 3.73724 25.0931 3.70437 25.1224 3.67997C25.2331 3.58641 25.4564 3.59356 25.5892 3.72434C26.1161 4.24257 26.9283 5.28022 26.7004 6.59032C26.677 6.72266 26.5108 6.79551 26.3381 6.74923Z" fill="#F4C222"/>
<path d="M24.7693 6.32876L24.7026 6.3109C24.5376 6.26669 24.4308 6.13086 24.4639 6.00727L25.0623 3.77404C25.0722 3.7372 25.0933 3.70432 25.1226 3.67992C25.1281 3.6879 25.1331 3.69623 25.1375 3.70486C25.3868 4.19553 25.6907 5.10995 25.2548 6.15973C25.1914 6.31248 24.9814 6.3856 24.7693 6.32876Z" fill="#F4C222"/>
<path d="M23.507 7.59053C23.5199 7.54233 23.5468 7.49903 23.5843 7.46613C23.6218 7.43322 23.6683 7.41218 23.7178 7.40567C23.7672 7.39916 23.8175 7.40746 23.8623 7.42953C23.907 7.45161 23.9443 7.48646 23.9692 7.52968C23.9942 7.57289 24.0057 7.62254 24.0025 7.67234C23.9992 7.72214 23.9813 7.76985 23.9509 7.80945C23.9205 7.84904 23.8791 7.87873 23.8318 7.89478C23.7845 7.91082 23.7336 7.91249 23.6854 7.89957C23.6207 7.88225 23.5656 7.83996 23.5322 7.782C23.4987 7.72405 23.4896 7.65517 23.507 7.59053Z" fill="#F4C222"/>
<path d="M29.3412 28.7529L15.1172 26.3315L15.0822 26.5369L29.3062 28.9584L29.3412 28.7529Z" fill="#F4C222"/>
<path d="M29.452 28.9834L14.9365 26.5124L14.9015 26.7179L29.417 29.1889L29.452 28.9834Z" fill="#F4C222"/>
<path d="M29.617 29.223L14.7012 26.6838L14.6662 26.8892L29.582 29.4284L29.617 29.223Z" fill="#F4C222"/>
<path d="M30.0896 20.7938L16.7871 18.5292L15.4492 26.3882L28.7517 28.6527L30.0896 20.7938Z" fill="#F4C222"/>
<path d="M30.9669 21.0973L15.9722 18.5447L24.2647 15.975L30.9669 21.0973Z" fill="#F4C222"/>
<path d="M18.3357 18.4158L28.782 20.1714L24.1423 16.6579L18.3357 18.4158Z" fill="#F4C222"/>
<path d="M30.6482 21.043L16.3633 18.6112L16.3069 18.9424L30.5918 21.3742L30.6482 21.043Z" fill="#F4C222"/>
<path d="M18.8573 18.8816L17.4502 18.6421L17.3638 19.1499L18.7708 19.3894L18.8573 18.8816Z" fill="#F4C222"/>
<path d="M18.4543 19.3356L17.6787 19.2036L16.4273 26.5548L17.2028 26.6868L18.4543 19.3356Z" fill="#F4C222"/>
<path d="M21.8973 19.3992L20.4902 19.1597L20.4038 19.6675L21.8109 19.907L21.8973 19.3992Z" fill="#F4C222"/>
<path d="M21.4953 19.8533L20.7197 19.7213L19.4683 27.0724L20.2439 27.2045L21.4953 19.8533Z" fill="#F4C222"/>
<path d="M26.6766 20.2129L25.2695 19.9733L25.1831 20.4811L26.5902 20.7207L26.6766 20.2129Z" fill="#F4C222"/>
<path d="M26.2746 20.6669L25.499 20.5349L24.2476 27.886L25.0232 28.0181L26.2746 20.6669Z" fill="#F4C222"/>
<path d="M29.5399 20.7002L28.1328 20.4607L28.0464 20.9685L29.4535 21.208L29.5399 20.7002Z" fill="#F4C222"/>
<path d="M29.1369 21.1542L28.3613 21.0222L27.1099 28.3734L27.8855 28.5054L29.1369 21.1542Z" fill="#F4C222"/>
<path d="M24.0266 18.3656C24.0311 18.3446 24.0317 18.3229 24.0284 18.3016C24.0248 18.2817 24.0167 18.263 24.0048 18.2467C23.9907 18.2273 23.9738 18.21 23.9547 18.1955C23.9287 18.176 23.9013 18.1585 23.8728 18.143C23.8215 18.114 23.7717 18.0822 23.7237 18.048C23.6826 18.0193 23.6457 17.9851 23.614 17.9464C23.5856 17.9112 23.5649 17.8706 23.5532 17.8269C23.5322 17.7332 23.5489 17.635 23.5997 17.5535C23.624 17.518 23.6553 17.488 23.6918 17.4653C23.7305 17.4412 23.7732 17.4242 23.8179 17.4151C23.8685 17.4047 23.9203 17.4021 23.9716 17.4074L24.0052 17.2273L24.1503 17.254L24.1162 17.4367C24.1642 17.451 24.2095 17.4729 24.2504 17.5016C24.2881 17.5288 24.3198 17.5632 24.3438 17.6029C24.3678 17.6426 24.3836 17.6868 24.3902 17.7327C24.3977 17.7848 24.3963 17.8377 24.3859 17.8893L24.1239 17.8406C24.1383 17.7872 24.1323 17.7304 24.1069 17.6813C24.095 17.6618 24.0788 17.6451 24.0596 17.6326C24.0405 17.6201 24.0188 17.612 23.9961 17.6089C23.9723 17.6038 23.9477 17.6032 23.9237 17.6071C23.9043 17.6104 23.8858 17.618 23.8697 17.6294C23.8545 17.6402 23.842 17.6544 23.8332 17.6708C23.8237 17.6882 23.8171 17.7069 23.8135 17.7263C23.8095 17.7456 23.809 17.7654 23.812 17.7848C23.8153 17.8039 23.823 17.8219 23.8345 17.8375C23.8491 17.857 23.8665 17.8742 23.8861 17.8886C23.913 17.909 23.941 17.9278 23.97 17.9449C24.0233 17.9772 24.0736 18.0099 24.1173 18.0418C24.1583 18.0708 24.195 18.1054 24.2266 18.1445C24.2548 18.1798 24.2755 18.2205 24.2873 18.2642C24.3083 18.3586 24.2909 18.4575 24.2391 18.5391C24.2152 18.576 24.1836 18.6073 24.1464 18.6307C24.1078 18.6542 24.0652 18.6705 24.0207 18.6787C23.9698 18.6881 23.9179 18.6902 23.8664 18.685L23.8352 18.8526L23.691 18.8257L23.722 18.659C23.6733 18.6449 23.6264 18.6249 23.5825 18.5994C23.5398 18.5746 23.502 18.5421 23.4712 18.5034C23.44 18.4632 23.4178 18.4167 23.4062 18.3671C23.3934 18.308 23.3931 18.2468 23.4056 18.1876L23.6679 18.2361C23.6606 18.2699 23.66 18.3049 23.666 18.3389C23.6712 18.3648 23.6824 18.389 23.6986 18.4098C23.7141 18.4291 23.7337 18.4447 23.7561 18.4554C23.7787 18.4663 23.8027 18.474 23.8275 18.4785C23.8527 18.4837 23.8787 18.4847 23.9043 18.4815C23.9251 18.4791 23.9452 18.4725 23.9634 18.4622C23.9801 18.4524 23.9942 18.4388 24.0046 18.4225C24.0157 18.4052 24.0232 18.3859 24.0266 18.3656Z" fill="#F4C222"/>
<path d="M22.5501 24.4947L22.7216 24.5239C22.9478 24.5625 23.1495 24.6893 23.2822 24.8766C23.4149 25.0638 23.4678 25.2961 23.4293 25.5224L23.0613 27.6838L21.1313 27.3553L21.4904 25.2461C21.5313 25.0059 21.6659 24.7918 21.8646 24.6509C22.0634 24.51 22.3099 24.4538 22.5501 24.4947Z" fill="#F4C222"/>
<path d="M21.9944 21.3432L22.0756 21.357C22.1287 21.3657 22.1795 21.3849 22.2252 21.4134C22.2708 21.4419 22.3104 21.4791 22.3416 21.5229C22.3729 21.5667 22.3951 21.6163 22.4071 21.6687C22.4192 21.7212 22.4207 21.7755 22.4117 21.8285L22.238 22.849L21.3261 22.6937L21.4956 21.6981C21.5151 21.5851 21.5785 21.4844 21.6719 21.418C21.7654 21.3515 21.8813 21.3246 21.9944 21.3432Z" fill="#F4C222"/>
<path d="M19.3269 20.8891L19.4081 20.9029C19.5149 20.9211 19.61 20.9809 19.6727 21.0693C19.7354 21.1576 19.7603 21.2673 19.7422 21.3741L19.5684 22.3945L18.6572 22.2394L18.8266 21.2438C18.8462 21.1305 18.9098 21.0297 19.0036 20.9632C19.0973 20.8967 19.2136 20.8701 19.3269 20.8891Z" fill="#F4C222"/>
<path d="M18.8064 23.9441L18.8876 23.9579C18.9943 23.9761 19.0895 24.036 19.1522 24.1243C19.2148 24.2127 19.2398 24.3223 19.2217 24.4291L19.0479 25.4496L18.1366 25.2944L18.3061 24.2988C18.3257 24.1856 18.3893 24.0847 18.4831 24.0183C18.5768 23.9518 18.6931 23.9251 18.8064 23.9441Z" fill="#F4C222"/>
<path d="M27.0574 22.2051L27.1377 22.2188C27.2445 22.2369 27.3397 22.2968 27.4023 22.3852C27.465 22.4735 27.49 22.5832 27.4718 22.6899L27.2981 23.7104L26.3876 23.5554L26.5571 22.5598C26.5767 22.4466 26.6403 22.3457 26.7341 22.2792C26.8278 22.2128 26.944 22.1861 27.0574 22.2051Z" fill="#F4C222"/>
<path d="M26.5369 25.2602L26.6172 25.2739C26.724 25.2921 26.8191 25.3519 26.8818 25.4403C26.9445 25.5286 26.9694 25.6383 26.9513 25.7451L26.7775 26.7655L25.8671 26.6105L26.0366 25.6149C26.0562 25.5017 26.1198 25.4008 26.2135 25.3344C26.3073 25.2679 26.4235 25.2412 26.5369 25.2602Z" fill="#F4C222"/>
<path d="M24.2996 21.7357L24.3807 21.7495C24.4875 21.7677 24.5827 21.8275 24.6454 21.9159C24.708 22.0043 24.733 22.1139 24.7148 22.2207L24.5411 23.2411L23.6298 23.086L23.7993 22.0904C23.8189 21.9772 23.8825 21.8763 23.9762 21.8098C24.07 21.7433 24.1862 21.7167 24.2996 21.7357Z" fill="#F4C222"/>
<path d="M16.2307 2.03573C16.2307 2.03573 15.9576 2.7197 15.5798 2.81984C15.2019 2.91997 14.5556 2.78207 14.5556 2.78207C14.5556 2.78207 14.0184 2.08938 14.1811 1.7276C14.1811 1.7276 14.3933 1.56642 14.6858 1.68972C14.7424 1.71375 14.7959 1.74452 14.8451 1.78138C14.9121 1.83306 14.993 1.86334 15.0774 1.86824C15.3684 1.88491 15.6431 1.61283 15.8088 1.771C15.8899 1.84807 15.9806 1.91441 16.0786 1.96837C16.1273 1.99508 16.1782 2.01761 16.2307 2.03573Z" fill="#F4C222"/>
<path d="M11.8486 7.55348C11.8486 7.55348 12.4525 3.64888 15.0725 2.94279C15.0725 2.94279 17.5716 2.62315 18.5179 5.93622L11.8486 7.55348Z" fill="#F4C222"/>
<path d="M14.3764 3.22645C14.3764 3.22645 15.4899 3.20524 15.7826 2.98805C15.7826 2.98805 15.7247 2.53412 15.2946 2.70397C15.0004 2.82028 14.7666 2.72228 14.6355 2.69097C14.4497 2.64633 14.2875 3.05215 14.3764 3.22645Z" fill="#F4C222"/>
<path d="M15.134 2.33735C15.0789 2.40556 14.6855 1.68951 14.6855 1.68951C14.7422 1.71354 14.7957 1.74431 14.8449 1.78117C14.9118 1.83285 14.9928 1.86313 15.0772 1.86803C15.0819 1.8894 15.1875 2.27197 15.134 2.33735Z" fill="#F4C222"/>
<path d="M16.0776 1.9684C16.0646 1.98059 15.647 2.39184 15.5807 2.40793C15.5144 2.42401 15.8078 1.77102 15.8078 1.77102C15.8889 1.84809 15.9796 1.91443 16.0776 1.9684Z" fill="#F4C222"/>
<path d="M13.0393 6.21527C13.0065 6.19881 13.6959 4.39806 13.9862 4.31561C14.2764 4.23315 15.0187 4.42185 15.5064 4.35269C15.9941 4.28352 16.4229 4.03497 16.5814 4.29473C16.7398 4.55449 17.2299 5.49287 17.1166 5.68961C17.0033 5.88634 13.7452 6.57298 13.0393 6.21527Z" fill="#F4C222"/>
<path d="M20.9503 12.8476L21.0463 13.2433C21.0535 13.2744 21.0497 13.3071 21.0355 13.3358C21.0198 13.368 20.995 13.3949 20.9644 13.4134C20.9544 13.4197 20.944 13.4251 20.9332 13.4295C20.9229 13.4337 20.9123 13.437 20.9016 13.4396L13.4019 15.2583C13.3112 15.2802 13.2219 15.2421 13.1907 15.1723C13.1887 15.1675 13.187 15.1626 13.1855 15.1577C13.1849 15.1551 13.1842 15.1525 13.1836 15.1499L13.0877 14.7543C13.087 14.7517 13.0865 14.7493 13.0858 14.7468C13.0849 14.7417 13.0842 14.7365 13.0838 14.7314C13.0795 14.655 13.1415 14.5802 13.2321 14.5582L20.7318 12.7396C20.7426 12.7368 20.7535 12.735 20.7645 12.7341C20.7762 12.733 20.7879 12.733 20.7996 12.7339C20.8353 12.7363 20.8696 12.7489 20.8984 12.7703C20.9241 12.7893 20.9425 12.8166 20.9503 12.8476Z" fill="#F4C222"/>
<path d="M17.3998 14.2887L13.3819 15.263C13.3474 15.2718 13.311 15.2692 13.2781 15.2556C13.2451 15.2421 13.2174 15.2183 13.1991 15.1877C13.1959 15.1827 13.1931 15.1776 13.1907 15.1722C13.1887 15.1674 13.187 15.1625 13.1855 15.1575C13.1849 15.1549 13.1842 15.1524 13.1836 15.1498L13.0877 14.7541C13.087 14.7516 13.0865 14.7492 13.0858 14.7466C13.0849 14.7415 13.0842 14.7364 13.0838 14.7312C13.0834 14.7253 13.0835 14.7193 13.0841 14.7133C13.0864 14.6778 13.1001 14.644 13.1232 14.6169C13.1463 14.5898 13.1775 14.5709 13.2122 14.5629L16.7357 13.7085C16.8802 13.9754 17.1159 14.1814 17.3998 14.2887Z" fill="#F4C222"/>
<path d="M20.0003 12.9169L19.915 12.9376L20.0848 13.6376L20.17 13.6169L20.0003 12.9169Z" fill="#F4C222"/>
<path d="M19.7112 12.9869L19.626 13.0076L19.7957 13.7076L19.881 13.6869L19.7112 12.9869Z" fill="#F4C222"/>
<path d="M19.3655 13.0708L19.2803 13.0914L19.45 13.7915L19.5353 13.7708L19.3655 13.0708Z" fill="#F4C222"/>
<path d="M18.8352 13.1994L18.75 13.22L18.9198 13.9201L19.005 13.8994L18.8352 13.1994Z" fill="#F4C222"/>
<path d="M18.2747 13.3353L18.1895 13.356L18.3592 14.0561L18.4444 14.0354L18.2747 13.3353Z" fill="#F4C222"/>
<path d="M17.4153 13.5438L17.3301 13.5645L17.4998 14.2646L17.5851 14.2439L17.4153 13.5438Z" fill="#F4C222"/>
<path d="M16.6097 13.739L16.5244 13.7597L16.6942 14.4597L16.7794 14.4391L16.6097 13.739Z" fill="#F4C222"/>
<path d="M15.8909 13.9134L15.8057 13.9341L15.9754 14.6341L16.0607 14.6135L15.8909 13.9134Z" fill="#F4C222"/>
<path d="M20.2747 12.8503L20.1895 12.871L20.3592 13.571L20.4444 13.5503L20.2747 12.8503Z" fill="#F4C222"/>
<path d="M20.4563 12.8062L20.3711 12.8269L20.5408 13.5269L20.6261 13.5063L20.4563 12.8062Z" fill="#F4C222"/>
<path d="M20.6321 12.7638L20.5469 12.7845L20.7166 13.4845L20.8019 13.4639L20.6321 12.7638Z" fill="#F4C222"/>
<path d="M20.7644 12.7342L20.933 13.4293C20.9228 13.4336 20.9122 13.4371 20.9015 13.4397L20.8483 13.4525L20.6787 12.753L20.7318 12.7401C20.7425 12.7374 20.7534 12.7354 20.7644 12.7342Z" fill="#F4C222"/>
<path d="M20.8976 12.7703L21.0348 13.3359C21.0192 13.3681 20.9944 13.3951 20.9636 13.4135L20.7988 12.7339C20.8346 12.7363 20.8689 12.7489 20.8976 12.7703Z" fill="#F4C222"/>
<path d="M19.9784 12.3421L20.0743 12.7375C20.0816 12.7686 20.078 12.8014 20.0641 12.8302C20.0486 12.8626 20.0237 12.8897 19.9927 12.9079C19.9826 12.914 19.972 12.9193 19.9611 12.9237C19.951 12.928 19.9406 12.9314 19.9299 12.9341L12.43 14.7527C12.3395 14.7747 12.2501 14.7363 12.2193 14.6667C12.2172 14.662 12.2154 14.6572 12.2139 14.6524C12.2132 14.6498 12.2126 14.6472 12.2119 14.6443L12.116 14.2487C12.1154 14.2461 12.1147 14.2435 12.1141 14.2409C12.1132 14.2359 12.1127 14.2308 12.1123 14.2257C12.1078 14.1495 12.1698 14.0746 12.2602 14.0527L19.7602 12.234L19.7747 12.2305L19.7796 12.2293L19.7863 12.2277L19.791 12.2265C19.8027 12.2253 19.8145 12.2252 19.8263 12.2262C19.8329 12.2267 19.8396 12.2276 19.8461 12.2288L19.8591 12.2314L19.8668 12.2337L19.8736 12.2359C19.8827 12.2386 19.8914 12.2422 19.8996 12.2468L19.9075 12.251L19.912 12.2537C19.912 12.2537 19.9135 12.2533 19.9143 12.2554L19.9165 12.2565C19.9195 12.2583 19.9224 12.2603 19.9251 12.2626C19.9517 12.282 19.9706 12.3102 19.9784 12.3421Z" fill="#F4C222"/>
<path d="M16.4285 13.7831L12.4103 14.7574C12.3758 14.7662 12.3393 14.7636 12.3064 14.75C12.2734 14.7364 12.2457 14.7125 12.2274 14.6819C12.2246 14.6768 12.2217 14.6718 12.2193 14.6663C12.2172 14.6616 12.2154 14.6569 12.2139 14.652C12.2132 14.6494 12.2126 14.6468 12.2119 14.644L12.116 14.2486C12.1154 14.246 12.1148 14.2434 12.1142 14.2408C12.1133 14.2358 12.1127 14.2307 12.1124 14.2256C12.111 14.2199 12.1122 14.2136 12.1125 14.2078C12.1147 14.1722 12.1284 14.1383 12.1515 14.1112C12.1745 14.084 12.2058 14.0651 12.2405 14.0571L15.7641 13.2027C15.767 13.208 15.7699 13.2133 15.7732 13.2189C15.9182 13.4783 16.1503 13.6782 16.4285 13.7831Z" fill="#F4C222"/>
<path d="M19.0286 12.411L18.9434 12.4317L19.1131 13.1317L19.1984 13.1111L19.0286 12.411Z" fill="#F4C222"/>
<path d="M18.7405 12.481L18.6553 12.5017L18.825 13.2018L18.9103 13.1811L18.7405 12.481Z" fill="#F4C222"/>
<path d="M18.3938 12.5649L18.3086 12.5856L18.4783 13.2856L18.5636 13.2649L18.3938 12.5649Z" fill="#F4C222"/>
<path d="M17.8636 12.6935L17.7783 12.7142L17.9481 13.4142L18.0333 13.3935L17.8636 12.6935Z" fill="#F4C222"/>
<path d="M17.303 12.8296L17.2178 12.8502L17.3875 13.5503L17.4728 13.5296L17.303 12.8296Z" fill="#F4C222"/>
<path d="M16.4436 13.038L16.3584 13.0587L16.5282 13.7587L16.6134 13.738L16.4436 13.038Z" fill="#F4C222"/>
<path d="M15.638 13.2332L15.5527 13.2538L15.7225 13.9539L15.8077 13.9332L15.638 13.2332Z" fill="#F4C222"/>
<path d="M14.9192 13.4076L14.834 13.4282L15.0037 14.1283L15.089 14.1076L14.9192 13.4076Z" fill="#F4C222"/>
<path d="M19.303 12.3444L19.2178 12.3651L19.3875 13.0652L19.4728 13.0445L19.303 12.3444Z" fill="#F4C222"/>
<path d="M19.4847 12.3004L19.3994 12.321L19.5692 13.0211L19.6544 13.0004L19.4847 12.3004Z" fill="#F4C222"/>
<path d="M19.6604 12.258L19.5752 12.2786L19.745 12.9787L19.8302 12.958L19.6604 12.258Z" fill="#F4C222"/>
<path d="M19.7927 12.2283L19.9613 12.9237C19.9511 12.9278 19.9405 12.9312 19.9298 12.9338L19.8767 12.9467L19.707 12.2472L19.7602 12.2343C19.7708 12.2315 19.7817 12.2295 19.7927 12.2283Z" fill="#F4C222"/>
<path d="M19.9267 12.2636L20.0638 12.8292C20.048 12.8614 20.0233 12.8883 19.9927 12.9068L19.8281 12.2283C19.8637 12.2302 19.898 12.2425 19.9267 12.2636Z" fill="#F4C222"/>
<path d="M20.2006 11.5662L20.2965 11.9618C20.3038 11.993 20.3001 12.0257 20.286 12.0544C20.2702 12.0866 20.2454 12.1136 20.2146 12.132C20.1954 12.1441 20.1742 12.153 20.1521 12.1582L12.6521 13.9768C12.6233 13.9838 12.5934 13.9848 12.5642 13.9798C12.5383 13.9761 12.5137 13.9662 12.4924 13.951C12.4711 13.9358 12.4537 13.9157 12.4418 13.8923C12.441 13.889 12.4402 13.8859 12.4381 13.8828C12.4375 13.8806 12.4369 13.8783 12.4365 13.8761C12.4359 13.8735 12.4352 13.8709 12.4346 13.8683L12.3387 13.4727C12.3379 13.4702 12.3373 13.4677 12.3369 13.4652C12.3359 13.4602 12.3352 13.4551 12.3348 13.45C12.3305 13.3734 12.3925 13.2989 12.483 13.2769L19.9824 11.4584C19.993 11.4557 20.0039 11.4538 20.0148 11.453C20.0265 11.4518 20.0382 11.4516 20.0498 11.4525C20.0856 11.4551 20.12 11.4678 20.1489 11.489C20.1745 11.5081 20.1928 11.5353 20.2006 11.5662Z" fill="#F4C222"/>
<path d="M16.6506 13.0061L12.6325 13.9805C12.6066 13.9867 12.5797 13.987 12.5537 13.9812C12.5293 13.976 12.5064 13.9651 12.487 13.9495C12.4675 13.9339 12.452 13.914 12.4416 13.8913C12.4408 13.8879 12.4401 13.8848 12.4379 13.8817C12.4373 13.8795 12.4367 13.8773 12.4363 13.875C12.4357 13.8724 12.4351 13.8698 12.4344 13.8672L12.3387 13.4726C12.338 13.4702 12.3374 13.4677 12.3369 13.4651C12.336 13.4601 12.3353 13.4551 12.3349 13.45C12.3346 13.4442 12.3347 13.4384 12.3353 13.4326C12.3374 13.3969 12.3509 13.3629 12.374 13.3356C12.3971 13.3083 12.4284 13.2893 12.4633 13.2814L15.9868 12.427C16.1261 12.6843 16.3504 12.8854 16.6213 12.996C16.631 12.9985 16.6407 13.0025 16.6506 13.0061Z" fill="#F4C222"/>
<path d="M19.2503 11.6341L19.165 11.6548L19.3348 12.3548L19.42 12.3342L19.2503 11.6341Z" fill="#F4C222"/>
<path d="M18.9622 11.7041L18.877 11.7247L19.0467 12.4248L19.1319 12.4041L18.9622 11.7041Z" fill="#F4C222"/>
<path d="M18.6165 11.788L18.5312 11.8087L18.701 12.5087L18.7862 12.488L18.6165 11.788Z" fill="#F4C222"/>
<path d="M18.0862 11.9166L18.001 11.9373L18.1707 12.6373L18.256 12.6166L18.0862 11.9166Z" fill="#F4C222"/>
<path d="M17.5247 12.0526L17.4395 12.0733L17.6092 12.7733L17.6944 12.7527L17.5247 12.0526Z" fill="#F4C222"/>
<path d="M16.6653 12.2611L16.5801 12.2818L16.7498 12.9818L16.8351 12.9612L16.6653 12.2611Z" fill="#F4C222"/>
<path d="M15.8606 12.4563L15.7754 12.477L15.9451 13.177L16.0304 13.1564L15.8606 12.4563Z" fill="#F4C222"/>
<path d="M15.1409 12.6306L15.0557 12.6512L15.2254 13.3513L15.3107 13.3306L15.1409 12.6306Z" fill="#F4C222"/>
<path d="M19.5257 11.5675L19.4404 11.5882L19.6102 12.2882L19.6954 12.2676L19.5257 11.5675Z" fill="#F4C222"/>
<path d="M19.7063 11.5235L19.6211 11.5442L19.7908 12.2442L19.8761 12.2236L19.7063 11.5235Z" fill="#F4C222"/>
<path d="M19.8821 11.481L19.7969 11.5017L19.9666 12.2018L20.0519 12.1811L19.8821 11.481Z" fill="#F4C222"/>
<path d="M20.0145 11.4517L20.183 12.1465C20.1728 12.1507 20.1624 12.1542 20.1517 12.1568L20.0983 12.1698L19.9287 11.4703L19.9821 11.4573C19.9927 11.4545 20.0035 11.4526 20.0145 11.4517Z" fill="#F4C222"/>
<path d="M20.1479 11.4877L20.285 12.0533C20.2692 12.0855 20.2444 12.1125 20.2136 12.131L20.0488 11.4514C20.0847 11.4536 20.1191 11.4662 20.1479 11.4877Z" fill="#F4C222"/>
<path d="M20.2099 10.8216L20.3058 11.2169C20.313 11.2481 20.3092 11.2808 20.295 11.3095C20.2934 11.3134 20.2914 11.3172 20.2893 11.3208C20.2783 11.3401 20.2638 11.3572 20.2466 11.3712C20.2391 11.3771 20.2313 11.3826 20.2232 11.3876C20.2131 11.3936 20.2027 11.3989 20.1919 11.4034L20.1765 11.409L20.1602 11.413L12.6613 13.2314C12.5706 13.2534 12.4812 13.215 12.4501 13.1455C12.4481 13.1408 12.4464 13.136 12.4449 13.1311L12.3454 12.7204C12.332 12.6449 12.3857 12.568 12.4701 12.5382C12.4774 12.5364 12.4847 12.5347 12.4919 12.5329L19.9916 10.7143L20.0079 10.7104C20.0133 10.7095 20.0188 10.7089 20.0242 10.7086C20.0717 10.704 20.1192 10.7167 20.158 10.7445C20.1837 10.7634 20.202 10.7907 20.2099 10.8216Z" fill="#F4C222"/>
<path d="M16.6604 12.2625L12.6425 13.2368C12.6079 13.2456 12.5715 13.243 12.5385 13.2294C12.5056 13.2158 12.4779 13.1919 12.4596 13.1613C12.4564 13.1564 12.4536 13.1512 12.4512 13.1458C12.4492 13.1411 12.4475 13.1363 12.446 13.1314L12.3463 12.7203C12.3406 12.6827 12.3482 12.6442 12.3679 12.6117C12.3876 12.5791 12.4181 12.5545 12.454 12.5422C12.4605 12.5406 12.4667 12.5391 12.4735 12.5375L15.997 11.683C16.1415 11.9495 16.3769 12.1552 16.6604 12.2625Z" fill="#F4C222"/>
<path d="M19.26 10.8905L19.1748 10.9112L19.3446 11.6112L19.4298 11.5906L19.26 10.8905Z" fill="#F4C222"/>
<path d="M18.972 10.9605L18.8867 10.9811L19.0565 11.6812L19.1417 11.6605L18.972 10.9605Z" fill="#F4C222"/>
<path d="M18.6263 11.0444L18.541 11.0651L18.7108 11.7651L18.796 11.7444L18.6263 11.0444Z" fill="#F4C222"/>
<path d="M18.096 11.173L18.0107 11.1937L18.1805 11.8937L18.2657 11.873L18.096 11.173Z" fill="#F4C222"/>
<path d="M17.5345 11.309L17.4492 11.3297L17.619 12.0298L17.7042 12.0091L17.5345 11.309Z" fill="#F4C222"/>
<path d="M16.6751 11.5175L16.5898 11.5381L16.7596 12.2382L16.8448 12.2175L16.6751 11.5175Z" fill="#F4C222"/>
<path d="M15.8704 11.7127L15.7852 11.7333L15.9549 12.4334L16.0402 12.4127L15.8704 11.7127Z" fill="#F4C222"/>
<path d="M15.1516 11.887L15.0664 11.9077L15.2362 12.6078L15.3214 12.5871L15.1516 11.887Z" fill="#F4C222"/>
<path d="M19.5354 10.8239L19.4502 10.8446L19.62 11.5446L19.7052 11.524L19.5354 10.8239Z" fill="#F4C222"/>
<path d="M19.7171 10.7799L19.6318 10.8005L19.8016 11.5006L19.8868 11.4799L19.7171 10.7799Z" fill="#F4C222"/>
<path d="M19.8919 10.7374L19.8066 10.7581L19.9764 11.4582L20.0616 11.4375L19.8919 10.7374Z" fill="#F4C222"/>
<path d="M20.0248 10.7078L20.1935 11.4034C20.1832 11.4075 20.1726 11.4109 20.1619 11.4135L20.1101 11.4261L19.9404 10.7266L19.9923 10.714C20.0029 10.7111 20.0138 10.7091 20.0248 10.7078Z" fill="#F4C222"/>
<path d="M20.1587 10.744L20.2958 11.3094C20.2799 11.3416 20.2551 11.3686 20.2244 11.387L20.0596 10.7075C20.0954 10.7099 20.1299 10.7226 20.1587 10.744Z" fill="#F4C222"/>
<path d="M19.4894 10.2573L19.5852 10.6524C19.5925 10.6835 19.5889 10.7163 19.575 10.7451C19.5592 10.7774 19.5343 10.8044 19.5033 10.8228C19.4935 10.8291 19.4831 10.8343 19.4723 10.8386C19.469 10.8402 19.4656 10.8416 19.4621 10.8427L19.4608 10.843L19.4551 10.8444L11.9416 12.6663C11.8447 12.6898 11.7496 12.6449 11.7252 12.5657C11.7246 12.5632 11.724 12.5606 11.7233 12.5577L11.6277 12.1636C11.6271 12.1611 11.6264 12.1582 11.6258 12.1556C11.6251 12.1536 11.6246 12.1515 11.6243 12.1494C11.6221 12.1143 11.6309 12.0794 11.6495 12.0496C11.6681 12.0198 11.6955 11.9965 11.7279 11.983L11.7334 11.9817C11.7457 11.976 11.7586 11.9715 11.7718 11.9682L19.2712 10.1497C19.2765 10.1481 19.2819 10.1468 19.2873 10.1458L19.2943 10.1441L19.3029 10.142C19.3144 10.1411 19.3261 10.141 19.3376 10.1418C19.3736 10.1441 19.4081 10.1568 19.437 10.1783C19.4632 10.1977 19.4817 10.2256 19.4894 10.2573Z" fill="#F4C222"/>
<path d="M15.939 11.697L11.9214 12.6713C11.8814 12.6821 11.8387 12.6772 11.8021 12.6576C11.7655 12.638 11.7377 12.6053 11.7244 12.566C11.7238 12.5634 11.7232 12.5608 11.7225 12.5579L11.6269 12.1639C11.6263 12.1613 11.6256 12.1584 11.625 12.1558C11.6244 12.1538 11.6239 12.1517 11.6235 12.1496C11.6195 12.1158 11.6263 12.0817 11.6431 12.052C11.6598 12.0224 11.6856 11.9989 11.7166 11.9849C11.7187 11.9836 11.7209 11.9825 11.7232 11.9817C11.7323 11.9777 11.7417 11.9745 11.7513 11.9721L15.2749 11.1177C15.2758 11.1193 15.2767 11.1209 15.2774 11.1226C15.4217 11.3865 15.6552 11.5904 15.9362 11.6977C15.9362 11.6977 15.9387 11.6966 15.939 11.697Z" fill="#F4C222"/>
<path d="M18.5393 10.3252L18.4541 10.3459L18.6239 11.0459L18.7091 11.0253L18.5393 10.3252Z" fill="#F4C222"/>
<path d="M18.2513 10.3952L18.166 10.4159L18.3358 11.1159L18.421 11.0953L18.2513 10.3952Z" fill="#F4C222"/>
<path d="M17.9046 10.4791L17.8193 10.4998L17.9891 11.1998L18.0743 11.1791L17.9046 10.4791Z" fill="#F4C222"/>
<path d="M17.3753 10.6077L17.29 10.6284L17.4598 11.3284L17.545 11.3077L17.3753 10.6077Z" fill="#F4C222"/>
<path d="M16.8138 10.7437L16.7285 10.7643L16.8983 11.4644L16.9835 11.4437L16.8138 10.7437Z" fill="#F4C222"/>
<path d="M15.9544 10.9522L15.8691 10.9728L16.0389 11.6729L16.1241 11.6522L15.9544 10.9522Z" fill="#F4C222"/>
<path d="M15.1487 11.1474L15.0635 11.1681L15.2332 11.8681L15.3185 11.8475L15.1487 11.1474Z" fill="#F4C222"/>
<path d="M14.43 11.3217L14.3447 11.3424L14.5145 12.0425L14.5997 12.0218L14.43 11.3217Z" fill="#F4C222"/>
<path d="M18.8147 10.2586L18.7295 10.2793L18.8992 10.9793L18.9845 10.9587L18.8147 10.2586Z" fill="#F4C222"/>
<path d="M18.9954 10.2146L18.9102 10.2353L19.0799 10.9353L19.1651 10.9147L18.9954 10.2146Z" fill="#F4C222"/>
<path d="M19.1712 10.1721L19.0859 10.1928L19.2557 10.8929L19.3409 10.8722L19.1712 10.1721Z" fill="#F4C222"/>
<path d="M19.3035 10.1425L19.4721 10.8377C19.4619 10.8418 19.4514 10.8452 19.4408 10.8477L19.3874 10.8607L19.2178 10.1611L19.2714 10.1481C19.282 10.1455 19.2927 10.1436 19.3035 10.1425Z" fill="#F4C222"/>
<path d="M19.4377 10.1785L19.5748 10.7441C19.5592 10.7764 19.5345 10.8034 19.5037 10.8217L19.3389 10.1422C19.3746 10.1445 19.4089 10.1572 19.4377 10.1785Z" fill="#F4C222"/>
<path d="M19.3047 9.565L19.4005 9.9601C19.4078 9.99126 19.4043 10.024 19.3903 10.0528C19.3865 10.0605 19.3823 10.0679 19.3776 10.0751C19.3622 10.0975 19.3422 10.1164 19.3189 10.1305C19.3111 10.1353 19.303 10.1397 19.2946 10.1435L19.2876 10.1452C19.2776 10.1496 19.2671 10.153 19.2564 10.1555L11.7559 11.9743C11.7484 11.9761 11.7404 11.9781 11.7326 11.98L11.7235 11.9808C11.6442 11.9877 11.5712 11.95 11.5447 11.887C11.5428 11.8828 11.5412 11.8786 11.5399 11.8742C11.5392 11.8713 11.5386 11.8688 11.5379 11.8662L11.4423 11.4716C11.4416 11.4687 11.4409 11.4661 11.4403 11.4635C11.4395 11.4585 11.4389 11.4534 11.4385 11.4483C11.434 11.3721 11.496 11.2972 11.5864 11.2753L19.0864 9.45664L19.1009 9.45312L19.1068 9.45167L19.1136 9.45004C19.1151 9.4494 19.1166 9.44901 19.1182 9.44891C19.13 9.44777 19.1418 9.44766 19.1536 9.44858C19.1602 9.4491 19.1668 9.44997 19.1734 9.45118C19.1985 9.45556 19.2224 9.46497 19.2437 9.47883L19.2524 9.48497C19.2787 9.50468 19.2972 9.53301 19.3047 9.565Z" fill="#F4C222"/>
<path d="M15.7549 11.0057L11.7274 11.9823L11.7171 11.9849C11.6819 11.9898 11.6462 11.9831 11.6152 11.9659C11.5841 11.9487 11.5596 11.9218 11.5452 11.8894C11.5434 11.8852 11.5418 11.8809 11.5405 11.8765C11.5398 11.8737 11.5392 11.8711 11.5385 11.8685L11.4423 11.4716C11.4416 11.4687 11.441 11.4661 11.4403 11.4635C11.4395 11.4585 11.4389 11.4534 11.4386 11.4483C11.4372 11.4426 11.4385 11.4366 11.4387 11.4308C11.4409 11.3952 11.4546 11.3613 11.4777 11.3341C11.5007 11.3069 11.5319 11.2879 11.5667 11.2798L15.0902 10.4254C15.0932 10.431 15.0962 10.4363 15.0994 10.4416C15.2434 10.6983 15.4726 10.8966 15.7474 11.002C15.7492 11.0038 15.7521 11.0045 15.7549 11.0057Z" fill="#F4C222"/>
<path d="M18.3557 9.63393L18.2705 9.6546L18.4403 10.3546L18.5255 10.334L18.3557 9.63393Z" fill="#F4C222"/>
<path d="M18.0667 9.70394L17.9814 9.72461L18.1512 10.4247L18.2364 10.404L18.0667 9.70394Z" fill="#F4C222"/>
<path d="M17.721 9.7878L17.6357 9.80847L17.8055 10.5085L17.8907 10.4878L17.721 9.7878Z" fill="#F4C222"/>
<path d="M17.1907 9.9164L17.1055 9.93707L17.2752 10.6371L17.3605 10.6164L17.1907 9.9164Z" fill="#F4C222"/>
<path d="M16.6292 10.0524L16.5439 10.0731L16.7137 10.7731L16.7989 10.7524L16.6292 10.0524Z" fill="#F4C222"/>
<path d="M15.7698 10.2609L15.6846 10.2816L15.8543 10.9816L15.9396 10.9609L15.7698 10.2609Z" fill="#F4C222"/>
<path d="M14.9651 10.4561L14.8799 10.4767L15.0496 11.1768L15.1349 11.1561L14.9651 10.4561Z" fill="#F4C222"/>
<path d="M14.2464 10.6304L14.1611 10.6511L14.3309 11.3511L14.4161 11.3304L14.2464 10.6304Z" fill="#F4C222"/>
<path d="M18.6302 9.56734L18.5449 9.58801L18.7147 10.2881L18.7999 10.2674L18.6302 9.56734Z" fill="#F4C222"/>
<path d="M18.8118 9.52328L18.7266 9.54395L18.8963 10.244L18.9816 10.2233L18.8118 9.52328Z" fill="#F4C222"/>
<path d="M18.9866 9.4808L18.9014 9.50146L19.0711 10.2015L19.1564 10.1808L18.9866 9.4808Z" fill="#F4C222"/>
<path d="M19.1189 9.45121L19.2875 10.1463C19.2773 10.1507 19.2667 10.1541 19.256 10.1567L19.2028 10.1696L19.0332 9.47006L19.0863 9.45718C19.097 9.4544 19.1079 9.4524 19.1189 9.45121Z" fill="#F4C222"/>
<path d="M19.2531 9.48732L19.3902 10.0529C19.3746 10.0852 19.3499 10.1121 19.3191 10.1305L19.1543 9.45093C19.19 9.45332 19.2243 9.46596 19.2531 9.48732Z" fill="#F4C222"/>
<path d="M19.5269 8.78805L19.6225 9.18263C19.6299 9.21383 19.6262 9.24662 19.6121 9.27541C19.5962 9.30754 19.5714 9.33442 19.5406 9.35282C19.5308 9.35911 19.5203 9.36441 19.5094 9.36863C19.4993 9.37297 19.4888 9.37642 19.4781 9.37895L11.9782 11.1976C11.9494 11.2047 11.9195 11.2057 11.8903 11.2006C11.8643 11.1969 11.8397 11.187 11.8184 11.1718C11.7971 11.1566 11.7797 11.1365 11.7679 11.1131C11.7671 11.11 11.7663 11.1066 11.7642 11.1036C11.7635 11.1014 11.763 11.0991 11.7625 11.0968C11.7619 11.0943 11.7613 11.0917 11.7607 11.0891L11.665 10.6945C11.6643 10.6919 11.6636 10.6891 11.663 10.6865C11.6621 10.6815 11.6614 10.6764 11.661 10.6713C11.6567 10.595 11.7187 10.5202 11.8091 10.4982L19.3086 8.67968C19.3193 8.67717 19.3301 8.67545 19.3411 8.67455C19.3527 8.67356 19.3644 8.67347 19.3761 8.67428C19.412 8.67646 19.4465 8.68918 19.4752 8.71087C19.5008 8.72985 19.5191 8.75712 19.5269 8.78805Z" fill="#F4C222"/>
<path d="M15.9771 10.2288L11.959 11.2031C11.9331 11.2095 11.9061 11.2098 11.8802 11.2039C11.8557 11.1988 11.8328 11.188 11.8133 11.1723C11.7939 11.1567 11.7784 11.1367 11.7681 11.1139C11.7674 11.1108 11.7665 11.1074 11.7644 11.1044C11.7638 11.1022 11.7632 11.0999 11.7628 11.0977C11.7622 11.0951 11.7615 11.0925 11.7609 11.0899L11.665 10.6945C11.6644 10.6919 11.6637 10.6891 11.6631 10.6865C11.6621 10.6815 11.6615 10.6764 11.6611 10.6713C11.6608 10.6655 11.661 10.6597 11.6615 10.654C11.6636 10.6183 11.6772 10.5843 11.7003 10.557C11.7233 10.5298 11.7546 10.5107 11.7894 10.5028L15.313 9.64835C15.4522 9.90585 15.6765 10.107 15.9475 10.2176C15.9575 10.2215 15.9672 10.2252 15.9771 10.2288Z" fill="#F4C222"/>
<path d="M18.5774 8.85702L18.4922 8.87769L18.6619 9.57773L18.7472 9.55706L18.5774 8.85702Z" fill="#F4C222"/>
<path d="M18.2884 8.92702L18.2031 8.94769L18.3729 9.64774L18.4581 9.62707L18.2884 8.92702Z" fill="#F4C222"/>
<path d="M17.9427 9.01082L17.8574 9.03149L18.0272 9.73154L18.1124 9.71087L17.9427 9.01082Z" fill="#F4C222"/>
<path d="M17.4124 9.13943L17.3271 9.1601L17.4969 9.86014L17.5821 9.83947L17.4124 9.13943Z" fill="#F4C222"/>
<path d="M16.8518 9.27547L16.7666 9.29614L16.9364 9.99619L17.0216 9.97552L16.8518 9.27547Z" fill="#F4C222"/>
<path d="M15.9915 9.48403L15.9062 9.5047L16.076 10.2047L16.1612 10.1841L15.9915 9.48403Z" fill="#F4C222"/>
<path d="M15.1868 9.67922L15.1016 9.69989L15.2713 10.3999L15.3566 10.3793L15.1868 9.67922Z" fill="#F4C222"/>
<path d="M14.4681 9.85348L14.3828 9.87415L14.5526 10.5742L14.6378 10.5535L14.4681 9.85348Z" fill="#F4C222"/>
<path d="M18.8518 8.79037L18.7666 8.81104L18.9364 9.51108L19.0216 9.49041L18.8518 8.79037Z" fill="#F4C222"/>
<path d="M19.0335 8.74642L18.9482 8.76709L19.118 9.46713L19.2032 9.44646L19.0335 8.74642Z" fill="#F4C222"/>
<path d="M19.2083 8.70388L19.123 8.72455L19.2928 9.42459L19.378 9.40392L19.2083 8.70388Z" fill="#F4C222"/>
<path d="M19.3406 8.67484L19.5092 9.37022C19.499 9.37435 19.4886 9.37771 19.4779 9.38028L19.4245 9.39322L19.2549 8.6937L19.3083 8.68076C19.3189 8.67798 19.3297 8.67601 19.3406 8.67484Z" fill="#F4C222"/>
<path d="M19.475 8.7104L19.6122 9.27598C19.5965 9.30828 19.5716 9.33528 19.5408 9.35365L19.376 8.67407C19.4118 8.67647 19.4462 8.68908 19.475 8.7104Z" fill="#F4C222"/>
<path d="M19.9697 7.93914L20.0655 8.3345C20.0727 8.36563 20.069 8.39829 20.0551 8.42702L20.0493 8.43829C20.0405 8.45354 20.0296 8.46739 20.0167 8.47938C20.0101 8.48561 20.0031 8.49135 19.9957 8.49656C19.992 8.49942 19.9881 8.50201 19.9841 8.5043C19.9742 8.51057 19.9637 8.51587 19.9528 8.52012C19.9427 8.52436 19.9322 8.52772 19.9215 8.53018L12.421 10.349C12.3306 10.3709 12.2413 10.3328 12.2101 10.263C12.208 10.2582 12.2062 10.2533 12.2049 10.2483C12.2043 10.2457 12.2036 10.2431 12.203 10.2406L12.1073 9.84571C12.1066 9.84312 12.106 9.84053 12.1054 9.83794C12.0919 9.76303 12.1455 9.68556 12.2302 9.65597C12.2371 9.65329 12.2442 9.65111 12.2514 9.64945L19.7514 7.83078C19.7621 7.82831 19.7729 7.82651 19.7838 7.82538C19.7955 7.82464 19.8072 7.82463 19.8189 7.82537C19.8506 7.82729 19.8813 7.8372 19.9082 7.85419C19.9118 7.85643 19.9152 7.85889 19.9185 7.86157C19.9439 7.8808 19.962 7.90818 19.9697 7.93914Z" fill="#F4C222"/>
<path d="M16.4201 9.37985L12.4022 10.3542C12.3676 10.363 12.3311 10.3605 12.2982 10.3469C12.2652 10.3332 12.2375 10.3093 12.2193 10.2786C12.2163 10.2737 12.2136 10.2686 12.2112 10.2633C12.2091 10.2586 12.2073 10.2537 12.206 10.2487C12.2054 10.2461 12.2047 10.2435 12.2041 10.2409L12.1082 9.84553C12.1076 9.84294 12.107 9.84035 12.1063 9.83776C12.1005 9.80022 12.1081 9.76182 12.1277 9.72931C12.1474 9.6968 12.1779 9.67225 12.2138 9.65999C12.22 9.65748 12.2264 9.65547 12.233 9.65399L15.7565 8.79956C15.7566 8.79998 15.7567 8.80041 15.7568 8.80085C15.9012 9.06726 16.1366 9.27279 16.4201 9.37985Z" fill="#F4C222"/>
<path d="M19.0198 8.00814L18.9346 8.02881L19.1043 8.72885L19.1896 8.70818L19.0198 8.00814Z" fill="#F4C222"/>
<path d="M18.7317 8.07802L18.6465 8.09869L18.8162 8.79874L18.9015 8.77807L18.7317 8.07802Z" fill="#F4C222"/>
<path d="M18.386 8.16195L18.3008 8.18262L18.4705 8.88266L18.5558 8.86199L18.386 8.16195Z" fill="#F4C222"/>
<path d="M17.8557 8.29055L17.7705 8.31122L17.9403 9.01126L18.0255 8.99059L17.8557 8.29055Z" fill="#F4C222"/>
<path d="M17.2942 8.42653L17.209 8.4472L17.3787 9.14725L17.464 9.12658L17.2942 8.42653Z" fill="#F4C222"/>
<path d="M16.4348 8.63509L16.3496 8.65576L16.5194 9.35581L16.6046 9.33514L16.4348 8.63509Z" fill="#F4C222"/>
<path d="M15.6302 8.83028L15.5449 8.85095L15.7147 9.551L15.7999 9.53033L15.6302 8.83028Z" fill="#F4C222"/>
<path d="M14.9104 9.0046L14.8252 9.02527L14.995 9.72531L15.0802 9.70464L14.9104 9.0046Z" fill="#F4C222"/>
<path d="M19.2952 7.94149L19.21 7.96216L19.3797 8.6622L19.465 8.64153L19.2952 7.94149Z" fill="#F4C222"/>
<path d="M19.4768 7.89748L19.3916 7.91815L19.5614 8.6182L19.6466 8.59753L19.4768 7.89748Z" fill="#F4C222"/>
<path d="M19.6516 7.855L19.5664 7.87567L19.7362 8.57572L19.8214 8.55505L19.6516 7.855Z" fill="#F4C222"/>
<path d="M19.7839 7.82662L19.9525 8.52174C19.9424 8.52596 19.9319 8.52941 19.9213 8.53206L19.8679 8.54501L19.6983 7.84548L19.7516 7.83254C19.7622 7.82964 19.773 7.82766 19.7839 7.82662Z" fill="#F4C222"/>
<path d="M19.9184 7.86171L20.0555 8.42729C20.0397 8.45951 20.0149 8.48647 19.9841 8.50495L19.8193 7.82538C19.8552 7.82757 19.8896 7.8402 19.9184 7.86171Z" fill="#F4C222"/>
<path d="M18.816 7.47912L18.9116 7.8737C18.9189 7.90478 18.9153 7.93742 18.9014 7.96616C18.8857 7.99862 18.8608 8.02574 18.8298 8.04415C18.82 8.05039 18.8096 8.05567 18.7988 8.0599L18.7885 8.06377L18.7872 8.06408L18.7802 8.06578L11.2668 9.88773C11.2372 9.89586 11.2061 9.89691 11.176 9.89082C11.1459 9.88472 11.1177 9.87163 11.0936 9.85262C11.0731 9.83553 11.058 9.81275 11.0503 9.78714C11.0496 9.78429 11.049 9.7817 11.0484 9.7791L10.953 9.38582C10.9523 9.38297 10.9517 9.38037 10.9511 9.37778C10.9392 9.31181 10.9794 9.24446 11.0472 9.20854C11.063 9.20001 11.0799 9.19353 11.0974 9.18924L18.6069 7.36823L18.6116 7.3671C18.6176 7.36585 18.6237 7.36501 18.6299 7.36458C18.6415 7.36338 18.6531 7.36331 18.6647 7.36437C18.6704 7.36455 18.676 7.3652 18.6816 7.3663C18.7026 7.36961 18.7229 7.37658 18.7415 7.3869L18.744 7.38847C18.7503 7.39199 18.7564 7.39583 18.7622 7.39998C18.7888 7.41926 18.8078 7.44726 18.816 7.47912Z" fill="#F4C222"/>
<path d="M15.2658 8.91996L11.2482 9.8942C11.2218 9.9008 11.1942 9.90095 11.1676 9.89463C11.1411 9.88831 11.1166 9.87571 11.0959 9.85788C11.0749 9.83955 11.0596 9.81556 11.0518 9.78877C11.0511 9.78592 11.0504 9.78333 11.0498 9.78074L10.954 9.38564C10.9533 9.38279 10.9527 9.3802 10.952 9.3776C10.9464 9.34232 10.9527 9.30615 10.9699 9.27487C10.9872 9.24358 11.0145 9.21898 11.0474 9.20499C11.0576 9.20006 11.0684 9.19625 11.0794 9.19364L14.603 8.33921C14.6056 8.34434 14.6087 8.34908 14.6115 8.35415C14.7558 8.61343 14.9869 8.81346 15.2642 8.91898C15.2648 8.91917 15.2654 8.91951 15.2658 8.91996Z" fill="#F4C222"/>
<path d="M17.8665 7.54781L17.7812 7.56848L17.951 8.26853L18.0362 8.24786L17.8665 7.54781Z" fill="#F4C222"/>
<path d="M17.5774 7.61782L17.4922 7.63849L17.6619 8.33853L17.7472 8.31786L17.5774 7.61782Z" fill="#F4C222"/>
<path d="M17.2317 7.70168L17.1465 7.72235L17.3162 8.42239L17.4015 8.40173L17.2317 7.70168Z" fill="#F4C222"/>
<path d="M16.7015 7.83028L16.6162 7.85095L16.786 8.551L16.8712 8.53033L16.7015 7.83028Z" fill="#F4C222"/>
<path d="M16.1399 7.96633L16.0547 7.987L16.2244 8.68704L16.3097 8.66637L16.1399 7.96633Z" fill="#F4C222"/>
<path d="M15.2806 8.17476L15.1953 8.19543L15.3651 8.89548L15.4503 8.87481L15.2806 8.17476Z" fill="#F4C222"/>
<path d="M14.4759 8.37008L14.3906 8.39075L14.5604 9.09079L14.6456 9.07012L14.4759 8.37008Z" fill="#F4C222"/>
<path d="M13.7571 8.54427L13.6719 8.56494L13.8416 9.26498L13.9269 9.24432L13.7571 8.54427Z" fill="#F4C222"/>
<path d="M18.1409 7.48122L18.0557 7.50189L18.2254 8.20194L18.3107 8.18127L18.1409 7.48122Z" fill="#F4C222"/>
<path d="M18.3216 7.43728L18.2363 7.45795L18.4061 8.15799L18.4913 8.13732L18.3216 7.43728Z" fill="#F4C222"/>
<path d="M18.4973 7.39474L18.4121 7.41541L18.5819 8.11545L18.6671 8.09478L18.4973 7.39474Z" fill="#F4C222"/>
<path d="M18.6296 7.36594L18.7983 8.06132C18.7881 8.06545 18.7776 8.06881 18.767 8.07138L18.7136 8.08432L18.544 7.38479L18.5976 7.37179C18.6081 7.36905 18.6188 7.3671 18.6296 7.36594Z" fill="#F4C222"/>
<path d="M18.7638 7.40144L18.901 7.96702C18.8852 7.99919 18.8605 8.02613 18.8298 8.04463L18.665 7.36505C18.7008 7.36727 18.7352 7.37992 18.7638 7.40144Z" fill="#F4C222"/>
<path d="M19.2017 6.66115L19.2976 7.05651C19.3048 7.08772 19.3012 7.12046 19.2872 7.14929C19.2714 7.18151 19.2466 7.20848 19.2158 7.22696C19.2058 7.23311 19.1954 7.2384 19.1845 7.24277C19.1742 7.24691 19.1637 7.25029 19.1529 7.25289L11.6532 9.07151C11.6254 9.0784 11.5965 9.07963 11.5683 9.07511C11.5399 9.07181 11.513 9.061 11.4903 9.0438C11.4675 9.02659 11.4498 9.00363 11.4389 8.97727C11.4383 8.97523 11.4378 8.97315 11.4374 8.97105C11.4367 8.9682 11.4361 8.96561 11.4355 8.96302L11.3396 8.56766C11.339 8.56507 11.3383 8.56248 11.3377 8.55989C11.3244 8.48466 11.3781 8.40745 11.4628 8.37759C11.4698 8.37545 11.477 8.37371 11.4843 8.37238L18.9834 6.55388C18.9942 6.55127 19.0051 6.54945 19.0161 6.54843C19.0278 6.54742 19.0396 6.54742 19.0512 6.54842C19.0871 6.55074 19.1215 6.56336 19.1503 6.58474C19.1756 6.60368 19.1937 6.6306 19.2017 6.66115Z" fill="#F4C222"/>
<path d="M15.6517 8.10192L11.6338 9.07622C11.6088 9.08242 11.5827 9.08295 11.5574 9.07775C11.5307 9.07261 11.5057 9.06066 11.485 9.04306C11.4642 9.02546 11.4483 9.0028 11.4389 8.97727C11.4383 8.97523 11.4378 8.97315 11.4374 8.97105C11.4367 8.9682 11.4361 8.96561 11.4355 8.96302L11.3396 8.56766C11.339 8.56507 11.3383 8.56248 11.3377 8.55989C11.332 8.52225 11.3396 8.48378 11.3593 8.45122C11.3791 8.41865 11.4096 8.39406 11.4457 8.38174C11.4519 8.37979 11.4583 8.37824 11.4648 8.37709L14.9884 7.52266C15.1278 7.7803 15.3525 7.98144 15.624 8.09164L15.6517 8.10192Z" fill="#F4C222"/>
<path d="M18.2522 6.73018L18.167 6.75085L18.3367 7.4509L18.422 7.43023L18.2522 6.73018Z" fill="#F4C222"/>
<path d="M17.9632 6.80013L17.8779 6.8208L18.0477 7.52084L18.1329 7.50017L17.9632 6.80013Z" fill="#F4C222"/>
<path d="M17.6175 6.88405L17.5322 6.90472L17.702 7.60477L17.7872 7.5841L17.6175 6.88405Z" fill="#F4C222"/>
<path d="M17.0872 7.01266L17.002 7.03333L17.1717 7.73337L17.2569 7.7127L17.0872 7.01266Z" fill="#F4C222"/>
<path d="M16.5257 7.14864L16.4404 7.16931L16.6102 7.86936L16.6954 7.84869L16.5257 7.14864Z" fill="#F4C222"/>
<path d="M15.6663 7.35714L15.5811 7.37781L15.7508 8.07785L15.836 8.05718L15.6663 7.35714Z" fill="#F4C222"/>
<path d="M14.8616 7.55233L14.7764 7.573L14.9461 8.27304L15.0314 8.25237L14.8616 7.55233Z" fill="#F4C222"/>
<path d="M14.1419 7.72664L14.0566 7.74731L14.2264 8.44736L14.3116 8.42669L14.1419 7.72664Z" fill="#F4C222"/>
<path d="M18.5266 6.6636L18.4414 6.68427L18.6112 7.38431L18.6964 7.36364L18.5266 6.6636Z" fill="#F4C222"/>
<path d="M18.7083 6.61953L18.623 6.6402L18.7928 7.34024L18.878 7.31957L18.7083 6.61953Z" fill="#F4C222"/>
<path d="M18.8831 6.57705L18.7979 6.59772L18.9676 7.29776L19.0528 7.27709L18.8831 6.57705Z" fill="#F4C222"/>
<path d="M19.0151 6.54741L19.1837 7.24279C19.1734 7.24693 19.1629 7.25031 19.1521 7.25291L19.1003 7.26547L18.9307 6.56595L18.9825 6.55338C18.9932 6.5506 19.0041 6.5486 19.0151 6.54741Z" fill="#F4C222"/>
<path d="M19.1498 6.58375L19.287 7.14933C19.271 7.18146 19.2463 7.20839 19.2156 7.227L19.0508 6.54742C19.0866 6.54975 19.121 6.56237 19.1498 6.58375Z" fill="#F4C222"/>
<path d="M19.2668 5.90525L19.3627 6.30061C19.37 6.33178 19.3662 6.36452 19.3519 6.39319C19.3362 6.42544 19.3115 6.45248 19.2808 6.47106C19.2708 6.4771 19.2604 6.48238 19.2496 6.48687L19.2389 6.48945L19.233 6.49089L11.7177 8.31328C11.6208 8.33678 11.5257 8.29181 11.5013 8.21269C11.5007 8.2101 11.5001 8.20751 11.4994 8.20492L11.4041 7.81189C11.4035 7.8093 11.4029 7.80671 11.4022 7.80411C11.3877 7.72261 11.4516 7.63906 11.5485 7.61557L19.0482 5.79695C19.059 5.79434 19.0699 5.79251 19.0809 5.79149C19.0926 5.79053 19.1043 5.79044 19.116 5.79122C19.1518 5.79368 19.1861 5.80641 19.2148 5.82787C19.2406 5.84687 19.259 5.87422 19.2668 5.90525Z" fill="#F4C222"/>
<path d="M15.7168 7.34601L11.6989 8.32031C11.6588 8.3311 11.6161 8.32622 11.5795 8.30666C11.543 8.28709 11.5152 8.25432 11.5019 8.21501C11.5013 8.21242 11.5006 8.20983 11.5 8.20724L11.4041 7.81188C11.4035 7.80929 11.4029 7.80669 11.4023 7.8041C11.3961 7.76307 11.4057 7.72122 11.4293 7.68707C11.4529 7.65292 11.4886 7.62903 11.5291 7.62027L15.0527 6.76584C15.1966 7.03234 15.4315 7.23824 15.7146 7.346L15.7168 7.34601Z" fill="#F4C222"/>
<path d="M18.3167 5.9742L18.2314 5.99487L18.4012 6.69492L18.4864 6.67425L18.3167 5.9742Z" fill="#F4C222"/>
<path d="M18.0286 6.04421L17.9434 6.06488L18.1131 6.76492L18.1984 6.74425L18.0286 6.04421Z" fill="#F4C222"/>
<path d="M17.6829 6.12807L17.5977 6.14874L17.7674 6.84879L17.8526 6.82812L17.6829 6.12807Z" fill="#F4C222"/>
<path d="M17.1516 6.25667L17.0664 6.27734L17.2362 6.97739L17.3214 6.95672L17.1516 6.25667Z" fill="#F4C222"/>
<path d="M16.5911 6.39272L16.5059 6.41339L16.6756 7.11344L16.7609 7.09277L16.5911 6.39272Z" fill="#F4C222"/>
<path d="M15.7317 6.60116L15.6465 6.62183L15.8162 7.32187L15.9015 7.3012L15.7317 6.60116Z" fill="#F4C222"/>
<path d="M14.9261 6.79635L14.8408 6.81702L15.0106 7.51706L15.0958 7.49639L14.9261 6.79635Z" fill="#F4C222"/>
<path d="M14.2073 6.97072L14.1221 6.99139L14.2918 7.69144L14.3771 7.67077L14.2073 6.97072Z" fill="#F4C222"/>
<path d="M18.5911 5.90761L18.5059 5.92828L18.6756 6.62833L18.7609 6.60766L18.5911 5.90761Z" fill="#F4C222"/>
<path d="M18.7727 5.86361L18.6875 5.88428L18.8573 6.58432L18.9425 6.56365L18.7727 5.86361Z" fill="#F4C222"/>
<path d="M18.9485 5.82113L18.8633 5.8418L19.033 6.54184L19.1183 6.52117L18.9485 5.82113Z" fill="#F4C222"/>
<path d="M19.0808 5.79148L19.2494 6.48686C19.2392 6.491 19.2286 6.49438 19.2179 6.49698L19.1648 6.50986L18.9951 5.81033L19.0482 5.79745C19.0589 5.79467 19.0698 5.79267 19.0808 5.79148Z" fill="#F4C222"/>
<path d="M19.2153 5.82779L19.3524 6.39311C19.3366 6.42541 19.3119 6.45248 19.2811 6.47103L19.1162 5.7912C19.1521 5.79359 19.1865 5.8063 19.2153 5.82779Z" fill="#F4C222"/>
<path opacity="0.5" d="M15.0376 11.1741C15.0381 11.1762 15.0385 11.1778 15.0389 11.1793C15.0828 11.4171 15.1015 11.6589 15.0947 11.9007C15.0939 11.9357 15.0925 11.9706 15.0903 12.0057C15.0775 12.2287 15.0435 12.4501 14.9889 12.6667C14.9192 12.9436 14.8166 13.2112 14.6832 13.4637C14.6799 13.4705 14.6761 13.4777 14.6723 13.4847C14.4975 13.8105 14.2751 14.1086 14.0125 14.3689C13.956 14.4254 13.8971 14.4805 13.8359 14.5343C13.7948 14.5717 13.7528 14.6058 13.7104 14.6399C13.6679 14.6741 13.6285 14.7119 13.5898 14.7515C13.4612 14.8738 13.317 14.9786 13.1609 15.0631L13.0861 14.7546C13.0855 14.752 13.0849 14.7496 13.0843 14.747C13.0833 14.7419 13.0826 14.7368 13.0822 14.7316C13.0819 14.7257 13.082 14.7197 13.0825 14.7137C13.0848 14.6782 13.0985 14.6444 13.1216 14.6173C13.1447 14.5902 13.1759 14.5713 13.2106 14.5633L12.4075 14.7581C12.3729 14.7669 12.3365 14.7643 12.3035 14.7507C12.2705 14.7371 12.2429 14.7132 12.2246 14.6826C12.2217 14.6775 12.2188 14.6724 12.2164 14.667C12.2144 14.6623 12.2126 14.6575 12.211 14.6527C12.2104 14.6501 12.2098 14.6475 12.2091 14.6446L12.1132 14.2493C12.1126 14.2467 12.1119 14.2441 12.1113 14.2415C12.1105 14.2365 12.1099 14.2314 12.1095 14.2263C12.1082 14.2206 12.1094 14.2143 12.1096 14.2084C12.1119 14.1729 12.1255 14.139 12.1486 14.1119C12.1717 14.0847 12.2029 14.0657 12.2377 14.0578L12.5506 13.9819C12.5262 13.9767 12.5034 13.9658 12.4839 13.9502C12.4645 13.9346 12.4489 13.9146 12.4386 13.8919C12.4378 13.8886 12.437 13.8855 12.4349 13.8824C12.4342 13.8802 12.4337 13.8779 12.4333 13.8757C12.4326 13.8731 12.432 13.8705 12.4314 13.8679L12.3357 13.4733C12.3349 13.4708 12.3343 13.4683 12.3339 13.4658C12.3329 13.4608 12.3322 13.4557 12.3318 13.4507C12.3315 13.4449 12.3317 13.439 12.3323 13.4333C12.3343 13.3976 12.3479 13.3635 12.3709 13.3363C12.394 13.309 12.4254 13.29 12.4602 13.2821L12.64 13.2385C12.6055 13.2472 12.569 13.2446 12.5361 13.231C12.5031 13.2174 12.4754 13.1935 12.4571 13.163C12.4539 13.158 12.4511 13.1528 12.4487 13.1474C12.4467 13.1427 12.445 13.1379 12.4436 13.1331L12.3436 12.7209C12.3378 12.6833 12.3455 12.6448 12.3652 12.6123C12.3848 12.5797 12.4153 12.5551 12.4513 12.5428L11.9212 12.6713C11.8811 12.6821 11.8385 12.6772 11.8019 12.6577C11.7653 12.6381 11.7375 12.6053 11.7242 12.566C11.7236 12.5634 11.723 12.5608 11.7223 12.558L11.6267 12.1639C11.6261 12.1613 11.6254 12.1585 11.6248 12.1559C11.6241 12.1538 11.6236 12.1518 11.6233 12.1497C11.6192 12.1159 11.6261 12.0817 11.6429 12.0521C11.6596 12.0225 11.6854 11.999 11.7164 11.985C11.6812 11.9899 11.6455 11.9833 11.6145 11.966C11.5834 11.9488 11.5589 11.9219 11.5445 11.8895C11.5427 11.8853 11.5411 11.881 11.5398 11.8767C11.5391 11.8738 11.5385 11.8712 11.5378 11.8686L11.4416 11.4717C11.4409 11.4689 11.4403 11.4663 11.4396 11.4637C11.4388 11.4586 11.4382 11.4536 11.4379 11.4485C11.4365 11.4428 11.4378 11.4367 11.438 11.4309C11.4402 11.3953 11.4539 11.3614 11.477 11.3342C11.5 11.307 11.5312 11.288 11.566 11.28L11.879 11.2041C11.8545 11.199 11.8316 11.1882 11.8121 11.1725C11.7927 11.1569 11.7772 11.1369 11.7669 11.1141C11.7661 11.111 11.7653 11.1076 11.7632 11.1046C11.7625 11.1024 11.762 11.1001 11.7616 11.0979C11.7609 11.0953 11.7603 11.0927 11.7597 11.0901L11.6638 10.6947C11.6632 10.6921 11.6625 10.6893 11.6619 10.6867C11.6609 10.6817 11.6603 10.6766 11.6598 10.6715C11.6596 10.6657 11.6598 10.6599 11.6603 10.6542C11.6624 10.6185 11.676 10.5845 11.6991 10.5572C11.7221 10.53 11.7534 10.5109 11.7882 10.503L12.4012 10.3543C12.3667 10.3632 12.3302 10.3606 12.2972 10.347C12.2642 10.3334 12.2365 10.3095 12.2183 10.2788C12.2154 10.2738 12.2126 10.2687 12.2102 10.2635C12.2081 10.2588 12.2063 10.2539 12.205 10.2488C12.2044 10.2462 12.2038 10.2437 12.2031 10.2411L12.1073 9.84571C12.1066 9.84311 12.106 9.84052 12.1054 9.83793C12.0995 9.80039 12.1071 9.76199 12.1268 9.72948C12.1464 9.69697 12.1769 9.67243 12.2129 9.66017L11.2478 9.89419C11.2213 9.9008 11.1937 9.90095 11.1672 9.89463C11.1407 9.88831 11.1161 9.8757 11.0955 9.85788L11.0946 9.85425L11.0454 9.20782L11.0446 9.20445L10.9745 8.28327C11.1477 8.26517 11.3218 8.25841 11.4958 8.26303L11.5261 8.26364L11.5282 8.26313C11.6294 8.26657 11.7303 8.27392 11.8309 8.28519L11.8335 8.28456C12.2975 8.33582 12.7483 8.4716 13.1634 8.68517C13.1709 8.68884 13.1782 8.69284 13.1854 8.69683C13.404 8.81133 13.6103 8.9479 13.8011 9.10441C13.8397 9.13591 13.8777 9.16813 13.9146 9.20143C13.9271 9.21212 13.9393 9.22287 13.9513 9.23421C13.9516 9.2346 13.9517 9.23505 13.9517 9.23551C14.0117 9.29007 14.07 9.34698 14.1266 9.40622C14.2575 9.54309 14.3772 9.69019 14.4846 9.84611C14.6227 10.0461 14.739 10.2603 14.8316 10.4851C14.8343 10.4907 14.8365 10.4962 14.8386 10.5017C14.9277 10.7185 14.9943 10.9438 15.0376 11.1741Z" fill="#F4C222"/>
<path d="M11.6179 15.515C13.6097 14.8608 14.6941 12.7159 14.04 10.7241C13.3859 8.73226 11.2409 7.64785 9.24908 8.30198C7.25726 8.95611 6.17286 11.1011 6.82699 13.0929C7.48112 15.0847 9.62608 16.1691 11.6179 15.515Z" fill="#F4C222"/>
<path d="M12.8731 14.8164C12.8345 14.8551 12.7947 14.8933 12.7541 14.9306C12.7404 14.9432 12.7264 14.9557 12.7127 14.968C12.6809 14.9963 12.6491 15.0238 12.617 15.0508C11.8854 15.6591 10.9521 15.9706 10.0018 15.9236C9.05151 15.8765 8.15353 15.4743 7.48569 14.7966C6.81784 14.1189 6.42882 13.2151 6.39565 12.2643C6.36249 11.3134 6.6876 10.3847 7.30661 9.66213C7.40624 9.54619 7.51268 9.43629 7.62538 9.33301C7.66634 9.29528 7.70796 9.25876 7.75024 9.22345C7.79102 9.18915 7.83284 9.15569 7.87464 9.12334C8.18805 8.88178 8.53732 8.69074 8.90978 8.55713C9.72173 8.26666 10.6084 8.26126 11.4238 8.54183C12.2392 8.82239 12.9348 9.3722 13.3962 10.1008C13.8575 10.8293 14.0571 11.6932 13.962 12.5503C13.8669 13.4074 13.4829 14.2066 12.8731 14.8164Z" fill="#F4C222"/>
<path d="M11.0264 15.4707C10.7138 15.5462 10.3922 15.5772 10.071 15.5627C9.21755 15.523 8.41081 15.1615 7.81325 14.5508C7.21569 13.9401 6.87169 13.1257 6.85052 12.2716C6.82935 11.4174 7.13258 10.587 7.69915 9.94748C8.26573 9.30796 9.05356 8.90685 9.90403 8.82491C10.7545 8.74298 11.6044 8.98631 12.2826 9.50592C12.9609 10.0255 13.4171 10.7828 13.5594 11.6253C13.7016 12.4677 13.5194 13.3328 13.0494 14.0463C12.5795 14.7599 11.8566 15.2688 11.0264 15.4707ZM9.43406 8.95059C8.72944 9.12282 8.10093 9.52181 7.64525 10.0862C7.18956 10.6505 6.93194 11.349 6.91203 12.0741C6.89212 12.7992 7.11102 13.5107 7.53504 14.0992C7.95907 14.6877 8.56473 15.1206 9.25883 15.3313C9.95294 15.5419 10.697 15.5186 11.3766 15.265C12.0562 15.0114 12.6336 14.5415 13.02 13.9277C13.4065 13.3138 13.5805 12.59 13.5153 11.8676C13.4501 11.1451 13.1493 10.4641 12.6593 9.92935C12.2599 9.49061 11.7492 9.16802 11.1815 8.99573C10.6137 8.82343 10.01 8.80783 9.43406 8.95059Z" fill="#F4C222"/>
<path d="M11.924 12.0918C11.9124 12.0754 11.9003 12.0597 11.8884 12.0442C11.807 11.9362 11.7044 11.846 11.587 11.779C11.4628 11.711 11.3258 11.6695 11.1847 11.6571C11.0283 11.6441 10.8708 11.6523 10.7166 11.6815C10.5495 11.7114 10.3699 11.7525 10.1775 11.8048C10.0761 11.8336 9.97312 11.8564 9.86901 11.873C9.79382 11.8857 9.7172 11.8875 9.6415 11.8783C9.58142 11.8706 9.52392 11.8492 9.47351 11.8156C9.42366 11.7803 9.3803 11.7366 9.34536 11.6865C9.30817 11.6358 9.27956 11.5793 9.26067 11.5194C9.24297 11.4635 9.238 11.4043 9.24612 11.3462C9.25591 11.2849 9.27925 11.2266 9.31445 11.1755C9.3575 11.1126 9.41187 11.0584 9.47477 11.0154C9.60463 10.9219 9.7393 10.8905 9.87879 10.9212C10.0183 10.952 10.1503 11.0548 10.2748 11.2298L10.9522 10.7424C10.8579 10.6072 10.7411 10.4891 10.6069 10.3933C10.4887 10.309 10.3548 10.2493 10.2132 10.2177C10.0715 10.186 9.92492 10.1832 9.78212 10.2092C9.62714 10.2367 9.47774 10.2895 9.33997 10.3656L9.00016 9.89301L8.62504 10.1628L8.96023 10.6288C8.83714 10.7337 8.73061 10.8565 8.64425 10.9932C8.56809 11.114 8.51413 11.2473 8.48492 11.3871C8.45793 11.5193 8.45915 11.6558 8.48849 11.7875C8.56142 12.0797 8.74672 12.3312 9.00411 12.4874C9.12815 12.5552 9.26501 12.5963 9.40589 12.608C9.56229 12.6203 9.71963 12.6111 9.87351 12.5805C10.0552 12.5462 10.2349 12.5026 10.4121 12.4499C10.5082 12.4197 10.6064 12.3965 10.7059 12.3806C10.7807 12.3683 10.857 12.3669 10.9323 12.3764C10.9949 12.3848 11.0548 12.4072 11.1076 12.442C11.1624 12.481 11.21 12.5294 11.2481 12.5849C11.2854 12.6355 11.3123 12.693 11.3273 12.7541C11.3415 12.8131 11.3418 12.8745 11.3282 12.9336C11.3129 12.9982 11.2846 13.0591 11.2452 13.1125C11.197 13.1774 11.1385 13.2339 11.0721 13.2799C11.0084 13.3257 10.9389 13.3629 10.8655 13.3906C10.7928 13.418 10.7149 13.4289 10.6375 13.4223C10.5538 13.4139 10.4733 13.3858 10.4025 13.3402C10.3119 13.2805 10.234 13.2035 10.1734 13.1135L9.49598 13.6006C9.62109 13.7749 9.75678 13.9042 9.90305 13.9886C10.0396 14.07 10.1923 14.1207 10.3505 14.1371C10.5045 14.1518 10.6598 14.137 10.8083 14.0936C10.9612 14.0499 11.1081 13.9876 11.2458 13.9079L11.5558 14.3391L11.9296 14.0707L11.618 13.6374C11.7416 13.5318 11.8497 13.4091 11.9389 13.2732C12.012 13.1628 12.0659 13.0408 12.0984 12.9125C12.1006 12.9026 12.1029 12.8928 12.105 12.8835C12.133 12.7518 12.1327 12.6158 12.1042 12.4842C12.0721 12.3423 12.0108 12.2086 11.924 12.0918Z" fill="#F4C222"/>
</g>
</svg>
