<svg width="131" height="108" viewBox="0 0 131 108" fill="none" xmlns="http://www.w3.org/2000/svg">
<path d="M75.5456 13.4095L116.251 16.907C118.105 17.0663 119.821 17.9547 121.02 19.3765C122.218 20.7984 122.802 22.6373 122.642 24.4887L118.304 74.7952C118.128 76.8327 117.149 78.7171 115.581 80.0339C114.013 81.3506 111.986 81.9918 109.944 81.8164L69.9424 78.3794C69.024 78.3005 68.1301 78.0418 67.3119 77.6181C66.4936 77.1943 65.7669 76.6139 65.1734 75.9099C64.5799 75.2058 64.1311 74.392 63.8526 73.5148C63.5742 72.6377 63.4716 71.7144 63.5506 70.7976L67.9497 19.7894C68.1094 17.938 68.9994 16.2257 70.4239 15.0292C71.8484 13.8328 73.6907 13.2501 75.5456 13.4095Z" fill="#22BAAF"/>
<path opacity="0.45" d="M113.362 27.1719C116.409 31.7902 118.435 37.0034 119.305 42.4643C119.713 44.6701 120.048 46.9315 120.512 49.1558L122.499 26.1154C122.7 23.8198 121.979 21.5385 120.496 19.7728C119.013 18.0071 116.888 16.9016 114.588 16.699L101.031 15.5312C105.913 18.5071 110.114 22.4729 113.362 27.1719Z" fill="white"/>
<g style="mix-blend-mode:multiply">
<path d="M79.5637 63.7253C73.2148 58.3555 68.4672 51.3468 65.8399 43.4653L63.63 69.1008C63.4395 71.3903 64.1646 73.662 65.647 75.4195C67.1294 77.177 69.2485 78.2774 71.5412 78.4801L108.924 81.6869C111.221 81.8822 113.502 81.1608 115.266 79.6806C117.031 78.2005 118.136 76.0824 118.339 73.7905L118.729 69.1194C105.637 73.9387 91.1147 73.3827 79.5637 63.7253Z" fill="#CDC3FF"/>
</g>
<g opacity="0.31">
<path opacity="0.31" d="M106.696 79.3698L74.234 76.5893C73.0455 76.4846 71.8893 76.1466 70.832 75.5947C69.7746 75.0428 68.8368 74.288 68.0725 73.3735C67.3081 72.459 66.7322 71.4029 66.3778 70.2656C66.0234 69.1284 65.8974 67.9326 66.0072 66.7467L69.7213 24.5769C69.9291 22.193 71.0766 19.9889 72.9118 18.4491C74.747 16.9094 77.1195 16.1599 79.5081 16.3654L111.97 19.1458C114.36 19.3533 116.569 20.4981 118.115 22.3292C119.661 24.1603 120.416 26.5284 120.215 28.9144L116.501 71.0841C116.405 72.2718 116.075 73.4289 115.53 74.4889C114.984 75.5489 114.235 76.4909 113.323 77.2608C112.412 78.0308 111.358 78.6134 110.22 78.9753C109.083 79.3372 107.885 79.4713 106.696 79.3698ZM79.3595 17.1254C77.1594 16.9455 74.9774 17.6418 73.2899 19.0622C71.6024 20.4827 70.5465 22.5118 70.3527 24.7067L66.6386 66.8764C66.4532 69.0705 67.1465 71.2486 68.5666 72.9336C69.9867 74.6185 72.0179 75.6732 74.2154 75.8664L106.696 78.6469C108.894 78.8319 111.076 78.1399 112.764 76.7224C114.452 75.305 115.509 73.2775 115.702 71.0841L119.417 28.9144C119.602 26.7203 118.909 24.5422 117.489 22.8572C116.068 21.1722 114.037 20.1176 111.84 19.9244L79.3595 17.1254Z" fill="#0F0B49"/>
</g>
<path opacity="0.44" d="M111.208 32.3064L76.7589 29.3406C75.3955 29.2178 74.1345 28.567 73.2459 27.5277C72.3574 26.4883 71.9118 25.143 72.0048 23.7798C72.1278 22.419 72.7798 21.1603 73.8211 20.2734C74.8624 19.3865 76.2102 18.9418 77.576 19.0345L112.025 22.0003C113.388 22.1231 114.649 22.7739 115.538 23.8133C116.426 24.8526 116.872 26.198 116.779 27.5612C116.656 28.922 116.004 30.1806 114.962 31.0675C113.921 31.9545 112.573 32.3992 111.208 32.3064Z" fill="#0F0B49"/>
<path d="M80.3418 39.1095C80.6384 37.3738 79.4691 35.7267 77.7302 35.4306C75.9912 35.1345 74.341 36.3016 74.0444 38.0373C73.7478 39.7731 74.917 41.4202 76.656 41.7163C78.395 42.0123 80.0452 40.8452 80.3418 39.1095Z" fill="#CE2489"/>
<path d="M90.9104 39.758C90.8532 40.385 90.6113 40.981 90.2153 41.4709C89.8192 41.9609 89.2867 42.3228 88.6849 42.5112C88.0831 42.6995 87.4389 42.7058 86.8335 42.5292C86.2281 42.3526 85.6886 42.0011 85.283 41.519C84.8775 41.0368 84.624 40.4457 84.5546 39.82C84.4851 39.1942 84.6028 38.562 84.8929 38.003C85.1829 37.444 85.6322 36.9831 86.1842 36.6786C86.7362 36.3741 87.3662 36.2395 87.9947 36.2918C88.4148 36.3267 88.8238 36.4443 89.1981 36.6378C89.5724 36.8313 89.9046 37.0967 90.1757 37.419C90.4467 37.7412 90.6512 38.1137 90.7773 38.5152C90.9034 38.9167 90.9486 39.339 90.9104 39.758Z" fill="#CE2489"/>
<path d="M101.402 40.9174C101.699 39.1816 100.529 37.5348 98.7902 37.239C97.0512 36.9432 95.4012 38.1106 95.1049 39.8463C94.8086 41.5821 95.9781 43.229 97.7171 43.5248C99.4562 43.8206 101.106 42.6532 101.402 40.9174Z" fill="#CE2489"/>
<path d="M113.344 41.6859C113.29 42.3177 113.05 42.9194 112.654 43.4151C112.258 43.9107 111.723 44.2781 111.118 44.4706C110.513 44.6631 109.864 44.6722 109.253 44.4968C108.643 44.3213 108.098 43.9692 107.688 43.4849C107.278 43.0005 107.021 42.4058 106.95 41.7757C106.879 41.1457 106.996 40.5086 107.287 39.9451C107.578 39.3816 108.03 38.9169 108.586 38.6098C109.142 38.3027 109.776 38.1669 110.409 38.2196C110.831 38.2522 111.242 38.3681 111.619 38.5606C111.995 38.753 112.329 39.0182 112.602 39.3406C112.875 39.6631 113.081 40.0364 113.209 40.439C113.336 40.8416 113.382 41.2654 113.344 41.6859Z" fill="#F5C40D"/>
<path d="M112.434 52.1959C112.383 52.8295 112.145 53.4339 111.75 53.9323C111.355 54.4307 110.82 54.8007 110.214 54.9951C109.607 55.1896 108.957 55.1998 108.345 55.0245C107.733 54.8492 107.187 54.4963 106.776 54.0105C106.365 53.5248 106.108 52.9282 106.038 52.2964C105.967 51.6647 106.087 51.0263 106.381 50.4624C106.674 49.8985 107.13 49.4345 107.688 49.1292C108.247 48.824 108.884 48.6914 109.518 48.7482C110.361 48.8237 111.14 49.2281 111.686 49.8737C112.232 50.5192 112.501 51.3538 112.434 52.1959Z" fill="#F5C40D"/>
<path d="M111.523 62.7246C111.481 63.354 111.253 63.9568 110.868 64.4568C110.483 64.9568 109.958 65.3316 109.359 65.5336C108.76 65.7357 108.115 65.7559 107.505 65.5919C106.895 65.4278 106.347 65.0868 105.931 64.6119C105.515 64.1371 105.25 63.5498 105.168 62.9243C105.087 62.2988 105.193 61.6632 105.474 61.098C105.754 60.5329 106.196 60.0634 106.744 59.7491C107.292 59.4349 107.921 59.2899 108.552 59.3325C109.394 59.3943 110.179 59.785 110.735 60.4199C111.291 61.0548 111.574 61.8828 111.523 62.7246Z" fill="#F5C40D"/>
<path d="M110.613 73.2528C110.559 73.8809 110.32 74.4791 109.926 74.9717C109.532 75.4643 109.001 75.8292 108.399 76.0203C107.797 76.2114 107.152 76.2202 106.545 76.0455C105.938 75.8707 105.397 75.5204 104.99 75.0386C104.582 74.5569 104.327 73.9655 104.256 73.339C104.186 72.7126 104.303 72.0793 104.592 71.5192C104.882 70.9591 105.332 70.4973 105.885 70.1922C106.437 69.8871 107.068 69.7524 107.697 69.8051C108.116 69.8401 108.523 69.9571 108.896 70.1494C109.269 70.3417 109.601 70.6055 109.871 70.9257C110.142 71.2459 110.347 71.6163 110.474 72.0156C110.602 72.4149 110.649 72.8353 110.613 73.2528Z" fill="#F5C40D"/>
<path d="M79.4514 49.3782C79.3942 50.0051 79.1524 50.6011 78.7563 51.0911C78.3603 51.581 77.8278 51.943 77.2259 52.1313C76.6241 52.3196 75.9799 52.3259 75.3745 52.1494C74.7691 51.9728 74.2296 51.6213 73.824 51.1391C73.4185 50.657 73.165 50.0658 73.0956 49.4401C73.0262 48.8144 73.1439 48.1821 73.4339 47.6231C73.7239 47.0641 74.1732 46.6032 74.7252 46.2987C75.2773 45.9942 75.9072 45.8596 76.5358 45.9119C76.9558 45.9469 77.3648 46.0645 77.7391 46.2579C78.1134 46.4514 78.4457 46.7169 78.7167 47.0391C78.9877 47.3613 79.1922 47.7339 79.3183 48.1353C79.4444 48.5368 79.4896 48.9592 79.4514 49.3782Z" fill="#CE2489"/>
<path d="M89.9762 50.5516C90.2807 48.8173 89.1189 47.1649 87.3813 46.8609C85.6437 46.557 83.9882 47.7166 83.6837 49.451C83.3792 51.1853 84.5409 52.8377 86.2786 53.1416C88.0162 53.4456 89.6716 52.286 89.9762 50.5516Z" fill="#CE2489"/>
<path d="M100.548 51.1762C100.494 51.8043 100.255 52.4024 99.861 52.895C99.4669 53.3876 98.9353 53.7525 98.3335 53.9437C97.7316 54.1348 97.0865 54.1435 96.4797 53.9688C95.8729 53.7941 95.3316 53.4437 94.9242 52.962C94.5168 52.4802 94.2617 51.8888 94.191 51.2624C94.1203 50.6359 94.2372 50.0026 94.527 49.4425C94.8169 48.8824 95.2665 48.4206 95.8192 48.1155C96.3719 47.8105 97.0027 47.6757 97.6321 47.7284C98.0504 47.7635 98.4578 47.8805 98.8308 48.0728C99.2038 48.265 99.5352 48.5288 99.806 48.849C100.077 49.1692 100.282 49.5396 100.409 49.9389C100.536 50.3382 100.583 50.7586 100.548 51.1762Z" fill="#CE2489"/>
<path d="M78.5599 59.9067C78.5059 60.5392 78.2651 61.1415 77.8679 61.6372C77.4707 62.133 76.935 62.4999 76.3288 62.6916C75.7225 62.8833 75.0728 62.891 74.4621 62.7139C73.8514 62.5367 73.3072 62.1826 72.8982 61.6964C72.4893 61.2103 72.2341 60.6139 72.165 59.9829C72.0959 59.3519 72.216 58.7146 72.5101 58.1517C72.8042 57.5889 73.259 57.1258 73.8169 56.8212C74.3748 56.5165 75.0108 56.384 75.6443 56.4404C76.0643 56.4754 76.4733 56.593 76.8476 56.7864C77.2219 56.9799 77.5542 57.2454 77.8252 57.5676C78.0962 57.8898 78.3007 58.2624 78.4268 58.6639C78.5529 59.0653 78.5981 59.4877 78.5599 59.9067Z" fill="#CE2489"/>
<path d="M89.0903 60.7961C89.0346 61.4276 88.7915 62.0281 88.3921 62.5211C87.9928 63.014 87.4553 63.3769 86.8483 63.5634C86.2413 63.75 85.5923 63.7516 84.9844 63.5682C84.3764 63.3848 83.8371 63.0247 83.4352 62.5338C83.0333 62.0429 82.7871 61.4436 82.7282 60.8124C82.6692 60.1812 82.8 59.5468 83.1041 58.9902C83.4081 58.4336 83.8715 57.9801 84.4349 57.6877C84.9984 57.3952 85.6365 57.2771 86.2676 57.3483C87.0957 57.4419 87.8544 57.8548 88.3818 58.4989C88.9091 59.143 89.1634 59.9674 89.0903 60.7961Z" fill="#CE2489"/>
<path d="M99.6385 61.7045C99.5849 62.3326 99.3459 62.9308 98.9518 63.4234C98.5577 63.916 98.0261 64.2809 97.4243 64.472C96.8224 64.6631 96.1773 64.6719 95.5705 64.4971C94.9637 64.3224 94.4224 63.972 94.015 63.4903C93.6076 63.0086 93.3525 62.4171 93.2818 61.7907C93.2111 61.1643 93.328 60.531 93.6178 59.9709C93.9076 59.4108 94.3573 58.949 94.91 58.6439C95.4627 58.3388 96.0936 58.2041 96.7229 58.2568C97.1413 58.2918 97.5486 58.4088 97.9216 58.6011C98.2946 58.7934 98.6259 59.0572 98.8967 59.3774C99.1675 59.6976 99.3724 60.0679 99.4997 60.4672C99.627 60.8665 99.6741 61.287 99.6385 61.7045Z" fill="#CE2489"/>
<path d="M77.6518 70.4537C77.6013 71.0874 77.3634 71.6917 76.9682 72.1901C76.5729 72.6885 76.0382 73.0585 75.4319 73.2529C74.8256 73.4474 74.1751 73.4576 73.563 73.2823C72.9509 73.107 72.4048 72.7541 71.994 72.2683C71.5832 71.7826 71.3264 71.186 71.256 70.5542C71.1856 69.9225 71.305 69.2841 71.5988 68.7202C71.8927 68.1563 72.3478 67.6923 72.9064 67.3871C73.465 67.0818 74.1018 66.9492 74.7361 67.006C75.5791 67.0815 76.3582 67.4859 76.9041 68.1315C77.4501 68.7771 77.7187 69.6116 77.6518 70.4537Z" fill="#CE2489"/>
<path d="M88.1239 71.3253C88.0735 71.9589 87.8356 72.5633 87.4404 73.0617C87.0451 73.5601 86.5104 73.9301 85.9041 74.1245C85.2978 74.319 84.6473 74.3292 84.0352 74.1539C83.4231 73.9786 82.8769 73.6257 82.4662 73.1399C82.0554 72.6542 81.7985 72.0576 81.7282 71.4258C81.6578 70.7941 81.7771 70.1557 82.071 69.5918C82.3648 69.0279 82.82 68.5639 83.3786 68.2586C83.9372 67.9534 84.574 67.8208 85.2083 67.8776C86.0513 67.9531 86.8304 68.3575 87.3763 69.0031C87.9222 69.6486 88.1909 70.4832 88.1239 71.3253Z" fill="#CE2489"/>
<path d="M98.7278 72.3072C98.6738 72.936 98.434 73.5346 98.0389 74.0273C97.6437 74.52 97.111 74.8846 96.5081 75.0748C95.9052 75.2651 95.2593 75.2724 94.6523 75.096C94.0452 74.9195 93.5042 74.5672 93.0979 74.0837C92.6916 73.6001 92.4382 73.0071 92.3698 72.3797C92.3014 71.7523 92.4211 71.1187 92.7138 70.5593C93.0064 69.9998 93.4588 69.5397 94.0137 69.2371C94.5686 68.9345 95.2009 68.803 95.8307 68.8594C96.6723 68.9348 97.4496 69.3399 97.9926 69.9861C98.5356 70.6323 98.7999 71.4669 98.7278 72.3072Z" fill="#CE2489"/>
<path d="M96.0537 26.7456C96.8528 26.1833 97.61 25.5638 98.3193 24.892C99.2293 24.0579 99.415 23.7613 99.2664 23.2608C99.1179 22.7604 98.5979 22.6677 98.0222 22.7233C97.847 22.7297 97.6809 22.8026 97.5579 22.9272C97.4921 22.9809 97.4395 23.0489 97.4041 23.126C97.3687 23.2031 97.3514 23.2873 97.3536 23.3721V23.7243C97.3536 23.7243 97.3536 23.7243 97.1865 23.8355C96.7594 23.8355 96.5736 23.6501 96.6851 23.1311C96.7965 22.6121 97.2979 22.2414 98.245 22.2784C98.5387 22.2691 98.8308 22.3261 99.0993 22.4453C99.4826 22.5415 99.8186 22.7717 100.046 23.094C100.078 23.278 100.078 23.4661 100.046 23.6501C100.052 23.7865 100.026 23.9224 99.9712 24.0475C99.9166 24.1727 99.8344 24.2839 99.7307 24.373C99.0022 25.1197 98.2269 25.8193 97.4093 26.4676C97.1238 26.6466 96.8508 26.8448 96.5922 27.0608H97.1308C97.8734 27.0859 98.6125 27.1727 99.3407 27.3203C99.7493 27.4315 99.9535 27.5798 99.8421 27.6725C99.7307 27.7651 99.4707 27.6725 98.5422 27.6725C97.7498 27.5504 96.9479 27.5008 96.1465 27.5242C95.8761 27.5701 95.5998 27.5701 95.3294 27.5242C95.2551 27.3573 95.4222 27.1905 96.0537 26.7456Z" fill="#0F0B49"/>
<path d="M103.482 27.3762C103.482 27.3762 103.482 26.8386 103.482 26.2269L101.625 26.0601C101.402 26.0601 101.272 25.9303 101.272 25.8562C101.272 25.782 101.402 25.6708 101.644 25.6523L103.501 25.782V25.2074C103.501 25.0221 103.501 24.5587 103.687 24.5772C104.225 24.5772 104.299 24.8367 104.318 25.0406C104.337 25.2445 104.318 25.4669 104.318 25.8377H105.544C105.859 25.8377 106.732 25.8377 106.714 26.023C106.695 26.2084 106.305 26.3011 105.934 26.3011H104.318C104.304 26.686 104.267 27.0698 104.207 27.4503C104.178 27.5036 104.135 27.5476 104.083 27.5772C104.03 27.6068 103.97 27.6206 103.909 27.6171C103.824 27.6136 103.741 27.5899 103.667 27.548C103.593 27.5061 103.529 27.4472 103.482 27.3762Z" fill="#0F0B49"/>
<path d="M108.645 27.8209C109.446 27.254 110.21 26.6348 110.929 25.9673C111.839 25.1332 112.006 24.8366 111.876 24.3547C111.745 24.1476 111.554 23.9853 111.329 23.8893C111.103 23.7932 110.854 23.7681 110.613 23.8171C110.44 23.8166 110.274 23.8831 110.149 24.0025C110.083 24.055 110.032 24.1234 109.999 24.2011C109.967 24.2789 109.954 24.3636 109.963 24.4474C109.944 24.5639 109.944 24.683 109.963 24.7995C109.963 24.7995 109.963 24.8922 109.778 24.9108C109.369 24.9108 109.165 24.7254 109.276 24.2064C109.388 23.6874 109.889 23.3352 110.855 23.3537C111.148 23.3551 111.437 23.4117 111.709 23.5206C112.085 23.6223 112.413 23.8517 112.638 24.1693C112.67 24.3595 112.67 24.5538 112.638 24.7439C112.643 24.8777 112.617 25.0108 112.562 25.1329C112.507 25.2551 112.425 25.363 112.322 25.4483C111.606 26.1765 110.85 26.8634 110.056 27.5058L109.239 28.099H109.759C110.501 28.1271 111.239 28.2076 111.969 28.3399C112.378 28.4697 112.6 28.5995 112.47 28.7107C112.341 28.8219 112.118 28.8034 111.171 28.7107C110.376 28.6068 109.576 28.5573 108.775 28.5624C108.505 28.6184 108.227 28.6184 107.958 28.5624C107.846 28.4326 108.014 28.2658 108.645 27.8209Z" fill="#0F0B49"/>
<path d="M15.2336 43.714L15.1661 43.2186L14.6707 43.2858L12.7987 43.5397L12.3033 43.6069L12.3707 44.1024L20.8968 106.715L20.9642 107.211L21.4597 107.144L23.3316 106.89L23.8271 106.822L23.7596 106.327L15.2336 43.714Z" fill="white" stroke="white"/>
<path d="M34.9738 98.1507L24.7983 53.4322L36.0042 52.7251L45.3209 96.9936L34.9738 98.1507Z" fill="#21B95C"/>
<path d="M42.5942 66.0316L47.1023 95.1082L56.4405 93.4155L52.3832 64.146C49.0988 64.7031 45.8358 65.4102 42.5942 66.0316Z" fill="#F4C222"/>
<path d="M60.1763 84.5017L62.8811 93.9725L70.0297 93.2654L67.1101 83.8589C64.4268 83.9017 62.8597 84.3946 60.1763 84.5017Z" fill="#21B95C"/>
<path d="M97.4784 88.3575L97.4135 87.8618L96.9177 87.9265L12.1572 98.9896L11.6614 99.0543L11.7264 99.5501L11.9713 101.42L12.0363 101.916L12.5321 101.851L97.2925 90.7877L97.7883 90.723L97.7234 90.2272L97.4784 88.3575Z" fill="white" stroke="white"/>
<path d="M84.5542 101.661L127.69 105.694L130.584 40.0269L84.5542 101.661ZM99.4093 93.1731L122.662 62.0391L121.198 95.1982L99.4093 93.1731Z" fill="#F4C222"/>
<g opacity="0.58">
<path opacity="0.58" d="M89.4442 94.7412L89.2007 95.269L92.5659 96.8161L92.8094 96.2883L89.4442 94.7412Z" fill="#0F0B49"/>
</g>
<g opacity="0.58">
<path opacity="0.58" d="M93.3236 89.2925L93.0801 89.8203L96.4452 91.3674L96.6888 90.8395L93.3236 89.2925Z" fill="#0F0B49"/>
</g>
<g opacity="0.58">
<path opacity="0.58" d="M97.8275 83.7959L97.584 84.3237L100.949 85.8708L101.193 85.343L97.8275 83.7959Z" fill="#0F0B49"/>
</g>
<g opacity="0.58">
<path opacity="0.58" d="M101.576 78.4213L101.333 78.9492L104.698 80.4957L104.941 79.9678L101.576 78.4213Z" fill="#0F0B49"/>
</g>
<g opacity="0.58">
<path opacity="0.58" d="M105.056 73.7681L104.812 74.2959L108.178 75.8429L108.421 75.3151L105.056 73.7681Z" fill="#0F0B49"/>
</g>
<g opacity="0.58">
<path opacity="0.58" d="M108.933 68.5601L108.689 69.0879L112.055 70.6349L112.298 70.1071L108.933 68.5601Z" fill="#0F0B49"/>
</g>
<g opacity="0.58">
<path opacity="0.58" d="M112.417 63.6548L112.173 64.1826L115.539 65.7297L115.782 65.2018L112.417 63.6548Z" fill="#0F0B49"/>
</g>
<g opacity="0.58">
<path opacity="0.58" d="M115.701 59.5449L115.458 60.0728L118.823 61.6198L119.066 61.092L115.701 59.5449Z" fill="#0F0B49"/>
</g>
<g opacity="0.58">
<path opacity="0.58" d="M118.584 55.7349L118.34 56.2627L121.706 57.8097L121.949 57.2819L118.584 55.7349Z" fill="#0F0B49"/>
</g>
<g opacity="0.58">
<path opacity="0.58" d="M121.907 51.19L121.664 51.7178L125.029 53.2648L125.272 52.737L121.907 51.19Z" fill="#0F0B49"/>
</g>
<g opacity="0.58">
<path opacity="0.58" d="M124.712 47.2505L124.469 47.7783L127.834 49.3254L128.077 48.7975L124.712 47.2505Z" fill="#0F0B49"/>
</g>
<path d="M43.7538 43.4737L5.20576 13.2265C4.80244 12.9106 4.46553 12.5183 4.21439 12.072C3.96324 11.6258 3.80284 11.1344 3.74235 10.6262C3.68185 10.1179 3.72249 9.6028 3.86191 9.11041C4.00133 8.61803 4.23679 8.15807 4.55477 7.75697L7.92222 3.46901C8.23822 3.06636 8.63081 2.73009 9.07741 2.47952C9.52402 2.22896 10.0158 2.06902 10.5246 2.00892C11.0334 1.94882 11.5492 1.98974 12.0422 2.12932C12.5352 2.26889 12.9959 2.50438 13.3976 2.82225L51.8814 33.0257L52.1207 33.3998L59.4789 44.4628L61.5908 47.6838C61.6941 47.8666 61.7403 48.0761 61.7232 48.2852C61.7061 48.4943 61.6267 48.6935 61.4951 48.857C61.3635 49.0205 61.1858 49.1407 60.9849 49.2022C60.7841 49.2637 60.5694 49.2636 60.3686 49.202L56.7554 47.9436L44.2498 43.5055L43.7538 43.4737Z" fill="#FFBE06"/>
<path d="M9.03371 16.2036L5.20481 13.2247C4.80154 12.9089 4.46466 12.5166 4.21355 12.0704C3.96243 11.6242 3.80205 11.1329 3.74156 10.6247C3.68108 10.1166 3.72171 9.60153 3.86111 9.10921C4.00052 8.6169 4.23595 8.15699 4.55389 7.75595L7.92095 3.46858C8.23692 3.06598 8.62946 2.72976 9.07601 2.47922C9.52257 2.22869 10.0143 2.06877 10.5231 2.00868C11.0318 1.94859 11.5475 1.98951 12.0405 2.12906C12.5335 2.26862 12.994 2.50407 13.3957 2.8219L17.1603 5.75697L9.03371 16.2036Z" fill="#F72872"/>
<path d="M44.1752 43.6188C44.7921 42.2295 42.9203 41.0744 43.8613 39.6237C44.8024 38.1729 46.7642 39.5066 47.747 38.2018C48.7299 36.8969 47.0234 35.3609 48.2056 34.0742C49.3879 32.7874 50.9915 34.3708 52.1866 33.4451L59.4801 44.4636L61.5918 47.6844C61.6952 47.8671 61.7413 48.0766 61.7242 48.2857C61.7072 48.4948 61.6277 48.694 61.4961 48.8575C61.3645 49.0209 61.1868 49.1412 60.986 49.2027C60.7852 49.2642 60.5705 49.2641 60.3697 49.2024L56.7567 47.9441L44.1752 43.6188Z" fill="#FFDC9C"/>
<g opacity="0.3">
<path opacity="0.3" d="M43.7546 43.4738L5.20612 13.2259C4.80279 12.91 4.46587 12.5177 4.21473 12.0714C3.96359 11.6251 3.80318 11.1338 3.74269 10.6255C3.6822 10.1173 3.72284 9.60213 3.86226 9.10973C4.00169 8.61734 4.23716 8.15736 4.55514 7.75624L6.71652 4.99726C6.39853 5.39838 6.16307 5.85836 6.02364 6.35075C5.88421 6.84315 5.84358 7.35827 5.90407 7.86653C5.96457 8.37479 6.125 8.86617 6.37614 9.31243C6.62728 9.75869 6.96418 10.151 7.3675 10.4669L45.5088 40.4145C45.7215 40.6169 45.966 40.7831 46.2325 40.9065L61.1081 49.2579C60.9704 49.3447 60.8143 49.3984 60.6522 49.4145C60.49 49.4307 60.3264 49.409 60.1741 49.3511L56.5608 48.0927L44.055 43.6545L43.7546 43.4738Z" fill="#390075"/>
</g>
<g opacity="0.55">
<path opacity="0.55" d="M60.7389 49.3841C60.7156 49.235 60.6599 49.0928 60.5755 48.9676L58.4797 45.7575L51.2134 34.6628L50.9741 34.2887L12.4901 4.08477C12.0883 3.76689 11.6277 3.5314 11.1347 3.39183C10.6416 3.25225 10.1259 3.21133 9.61706 3.27143C9.10827 3.33154 8.61645 3.49147 8.16984 3.74205C7.72322 3.99262 7.33063 4.3289 7.01462 4.73157L7.98595 3.51265C8.30196 3.10998 8.69455 2.77371 9.14116 2.52313C9.58777 2.27256 10.0796 2.11263 10.5884 2.05252C11.0972 1.99242 11.6129 2.03332 12.106 2.1729C12.599 2.31248 13.0597 2.54796 13.4614 2.86584L51.9455 33.0698L52.1848 33.4439L59.4787 44.4634L61.5906 47.6845C61.7069 47.843 61.7772 48.0305 61.7938 48.2263C61.8104 48.4222 61.7726 48.6188 61.6846 48.7944C61.5965 48.9701 61.4617 49.1181 61.2948 49.2222C61.128 49.3262 60.9356 49.3822 60.7389 49.3841Z" fill="white"/>
</g>
<path d="M17.2142 5.79851L9.02344 16.21L12.3264 18.8031L20.5172 8.39163L17.2142 5.79851Z" fill="#3F3F3F"/>
<path d="M56.7449 48.1006C56.9085 47.343 57.2413 46.6321 57.7186 46.0211C58.1958 45.4101 58.8051 44.9148 59.501 44.5721L61.6126 47.7927C61.716 47.9755 61.7621 48.1849 61.745 48.394C61.728 48.6031 61.6485 48.8023 61.5169 48.9657C61.3853 49.1292 61.2077 49.2495 61.0069 49.311C60.8061 49.3724 60.5914 49.3724 60.3906 49.3107L56.7449 48.1006Z" fill="#3F3F3F"/>
</svg>
