<svg width="35" height="30" viewBox="0 0 35 30" fill="none" xmlns="http://www.w3.org/2000/svg">
<path d="M20.2112 3.53606L31.1485 4.47662C31.6469 4.51948 32.1079 4.75837 32.4299 5.14075C32.752 5.52313 32.9089 6.01766 32.866 6.51556L31.7002 20.0444C31.653 20.5923 31.3898 21.0991 30.9686 21.4532C30.5473 21.8073 30.0026 21.9797 29.4541 21.9326L18.7057 21.0083C18.4589 20.987 18.2187 20.9175 17.9989 20.8035C17.779 20.6896 17.5838 20.5335 17.4243 20.3441C17.2648 20.1548 17.1442 19.9359 17.0694 19.7C16.9946 19.4641 16.967 19.2158 16.9883 18.9693L18.1703 5.25179C18.2132 4.75389 18.4523 4.29341 18.8351 3.97164C19.2178 3.64988 19.7128 3.4932 20.2112 3.53606V3.53606Z" fill="#22BAAF"/>
<path opacity="0.45" d="M30.3719 7.23713C31.1905 8.47912 31.7348 9.88108 31.9686 11.3497C32.0784 11.9429 32.1682 12.551 32.293 13.1492L32.8269 6.953C32.8809 6.33565 32.6873 5.72214 32.2887 5.2473C31.8901 4.77246 31.3191 4.47514 30.7012 4.42068L27.0586 4.10663C28.3702 4.90692 29.499 5.97344 30.3719 7.23713V7.23713Z" fill="white"/>
<g style="mix-blend-mode:multiply">
<path d="M21.2903 17.0674C19.5844 15.6233 18.3087 13.7384 17.6028 11.6189L17.009 18.513C16.9578 19.1287 17.1527 19.7396 17.551 20.2123C17.9493 20.6849 18.5187 20.9808 19.1347 21.0353L29.1793 21.8977C29.7965 21.9503 30.4093 21.7562 30.8835 21.3582C31.3577 20.9601 31.6546 20.3905 31.7092 19.7742L31.814 18.518C28.2961 19.814 24.394 19.6645 21.2903 17.0674Z" fill="#CDC3FF"/>
</g>
<g opacity="0.31">
<path opacity="0.31" d="M28.5808 21.2746L19.8585 20.5269C19.5392 20.4987 19.2285 20.4078 18.9444 20.2594C18.6603 20.111 18.4083 19.908 18.203 19.6621C17.9976 19.4161 17.8428 19.1321 17.7476 18.8263C17.6524 18.5204 17.6185 18.1988 17.648 17.8799L18.646 6.5393C18.7018 5.89819 19.0102 5.30546 19.5033 4.89137C19.9964 4.47728 20.6339 4.27572 21.2757 4.331L29.998 5.07873C30.6401 5.13453 31.2339 5.44239 31.6492 5.93483C32.0645 6.42727 32.2674 7.06411 32.2135 7.70576L31.2155 19.0464C31.1897 19.3658 31.101 19.677 30.9545 19.962C30.808 20.2471 30.6065 20.5004 30.3617 20.7075C30.1169 20.9145 29.8335 21.0712 29.5279 21.1685C29.2223 21.2659 28.9004 21.3019 28.5808 21.2746V21.2746ZM21.2357 4.53538C20.6446 4.48701 20.0583 4.67426 19.6049 5.05625C19.1514 5.43824 18.8677 5.98394 18.8156 6.5742L17.8177 17.9148C17.7679 18.5049 17.9541 19.0906 18.3357 19.5437C18.7173 19.9969 19.2631 20.2805 19.8535 20.3325L28.5808 21.0802C29.1715 21.13 29.7578 20.9439 30.2114 20.5627C30.665 20.1815 30.9489 19.6362 31.0009 19.0464L31.9989 7.70576C32.0487 7.1157 31.8624 6.52997 31.4808 6.07683C31.0993 5.62369 30.5535 5.34007 29.963 5.2881L21.2357 4.53538Z" fill="#0F0B49"/>
</g>
<path opacity="0.44" d="M29.7927 8.61795L20.5365 7.82037C20.1702 7.78734 19.8314 7.61233 19.5926 7.33282C19.3538 7.0533 19.2341 6.69151 19.2591 6.32491V6.32491C19.2922 5.95895 19.4674 5.62046 19.7471 5.38195C20.0269 5.14343 20.3891 5.02384 20.7561 5.04878L30.0123 5.84636C30.3786 5.87939 30.7174 6.0544 30.9562 6.33391C31.195 6.61343 31.3147 6.97522 31.2897 7.34182V7.34182C31.2566 7.70779 31.0814 8.04627 30.8017 8.28478C30.5219 8.5233 30.1597 8.64289 29.7927 8.61795Z" fill="#0F0B49"/>
<path d="M21.4995 10.4475C21.5792 9.98075 21.265 9.5378 20.7977 9.45817C20.3305 9.37855 19.8871 9.69241 19.8074 10.1592C19.7277 10.626 20.0419 11.0689 20.5091 11.1486C20.9764 11.2282 21.4198 10.9143 21.4995 10.4475Z" fill="#CE2489"/>
<path d="M24.339 10.6219C24.3236 10.7905 24.2586 10.9508 24.1522 11.0826C24.0458 11.2143 23.9027 11.3117 23.741 11.3623C23.5793 11.4129 23.4062 11.4146 23.2435 11.3671C23.0809 11.3197 22.9359 11.2251 22.8269 11.0955C22.7179 10.9658 22.6499 10.8068 22.6312 10.6386C22.6125 10.4703 22.6442 10.3003 22.7221 10.1499C22.8 9.99958 22.9207 9.87565 23.0691 9.79376C23.2174 9.71186 23.3867 9.67567 23.5555 9.68973C23.6684 9.69913 23.7783 9.73076 23.8789 9.78278C23.9795 9.83481 24.0687 9.90621 24.1416 9.99286C24.2144 10.0795 24.2693 10.1797 24.3032 10.2877C24.3371 10.3956 24.3492 10.5092 24.339 10.6219Z" fill="#CE2489"/>
<path d="M27.1586 10.9337C27.2382 10.4669 26.9239 10.024 26.4567 9.94444C25.9894 9.8649 25.5461 10.1788 25.4664 10.6456C25.3868 11.1124 25.7011 11.5553 26.1683 11.6349C26.6356 11.7144 27.0789 11.4005 27.1586 10.9337Z" fill="#CE2489"/>
<path d="M30.367 11.1404C30.3526 11.3103 30.2881 11.4721 30.1816 11.6054C30.0752 11.7387 29.9315 11.8375 29.7689 11.8893C29.6063 11.941 29.432 11.9435 29.2679 11.8963C29.1039 11.8491 28.9576 11.7544 28.8474 11.6242C28.7373 11.4939 28.6682 11.334 28.649 11.1645C28.6298 10.9951 28.6614 10.8238 28.7396 10.6722C28.8179 10.5207 28.9393 10.3957 29.0887 10.3131C29.238 10.2305 29.4085 10.194 29.5786 10.2082C29.6919 10.217 29.8023 10.2481 29.9034 10.2999C30.0046 10.3516 30.0944 10.4229 30.1678 10.5097C30.2411 10.5964 30.2965 10.6968 30.3307 10.8051C30.3649 10.9133 30.3772 11.0273 30.367 11.1404Z" fill="#F5C40D"/>
<path d="M30.1222 13.9668C30.1087 14.1372 30.0448 14.2997 29.9386 14.4337C29.8324 14.5678 29.6887 14.6673 29.5258 14.7196C29.3629 14.7718 29.1881 14.7746 29.0236 14.7275C28.8591 14.6803 28.7124 14.5854 28.602 14.4548C28.4917 14.3241 28.4226 14.1637 28.4037 13.9938C28.3848 13.8239 28.4169 13.6522 28.4958 13.5006C28.5748 13.3489 28.6971 13.2241 28.8472 13.1421C28.9973 13.06 29.1684 13.0243 29.3388 13.0396C29.5653 13.0599 29.7747 13.1687 29.9214 13.3423C30.0681 13.5159 30.1402 13.7403 30.1222 13.9668V13.9668Z" fill="#F5C40D"/>
<path d="M29.8777 16.7982C29.8665 16.9675 29.8052 17.1296 29.7017 17.2641C29.5982 17.3985 29.4571 17.4993 29.2963 17.5537C29.1354 17.608 28.962 17.6134 28.7981 17.5693C28.6341 17.5252 28.487 17.4335 28.3752 17.3058C28.2635 17.1781 28.1921 17.0201 28.1702 16.8519C28.1484 16.6837 28.1769 16.5128 28.2523 16.3608C28.3277 16.2088 28.4465 16.0826 28.5937 15.998C28.7409 15.9135 28.9099 15.8745 29.0793 15.886C29.3057 15.9026 29.5165 16.0077 29.6659 16.1784C29.8154 16.3492 29.8914 16.5718 29.8777 16.7982Z" fill="#F5C40D"/>
<path d="M29.6333 19.6297C29.6189 19.7986 29.5547 19.9594 29.4488 20.0919C29.3429 20.2244 29.2001 20.3225 29.0384 20.3739C28.8767 20.4253 28.7033 20.4277 28.5403 20.3807C28.3772 20.3337 28.2318 20.2395 28.1223 20.1099C28.0129 19.9804 27.9443 19.8213 27.9253 19.6528C27.9063 19.4844 27.9377 19.3141 28.0156 19.1634C28.0935 19.0128 28.2143 18.8886 28.3628 18.8066C28.5113 18.7245 28.6808 18.6883 28.8499 18.7025C28.9623 18.7119 29.0718 18.7433 29.172 18.7951C29.2722 18.8468 29.3613 18.9177 29.434 19.0038C29.5068 19.0899 29.5618 19.1895 29.596 19.2969C29.6302 19.4043 29.6429 19.5174 29.6333 19.6297Z" fill="#F5C40D"/>
<path d="M21.2609 13.2091C21.2455 13.3777 21.1805 13.538 21.0741 13.6697C20.9677 13.8015 20.8246 13.8988 20.6629 13.9495C20.5012 14.0001 20.3281 14.0018 20.1654 13.9543C20.0027 13.9068 19.8578 13.8123 19.7488 13.6826C19.6398 13.553 19.5717 13.394 19.5531 13.2257C19.5344 13.0574 19.566 12.8874 19.644 12.7371C19.7219 12.5867 19.8426 12.4628 19.9909 12.3809C20.1393 12.299 20.3085 12.2628 20.4774 12.2769C20.5903 12.2863 20.7002 12.3179 20.8008 12.3699C20.9013 12.422 20.9906 12.4934 21.0634 12.58C21.1363 12.6667 21.1912 12.7669 21.2251 12.8748C21.259 12.9828 21.2711 13.0964 21.2609 13.2091Z" fill="#CE2489"/>
<path d="M24.0879 13.5246C24.1698 13.0582 23.8576 12.6138 23.3907 12.5321C22.9238 12.4503 22.479 12.7622 22.3972 13.2286C22.3154 13.695 22.6275 14.1394 23.0944 14.2211C23.5613 14.3029 24.0061 13.991 24.0879 13.5246Z" fill="#CE2489"/>
<path d="M26.9292 13.6926C26.9148 13.8615 26.8506 14.0224 26.7447 14.1548C26.6388 14.2873 26.496 14.3854 26.3343 14.4368C26.1726 14.4882 25.9992 14.4906 25.8362 14.4436C25.6731 14.3966 25.5277 14.3024 25.4182 14.1728C25.3088 14.0433 25.2402 13.8842 25.2212 13.7158C25.2022 13.5473 25.2336 13.377 25.3115 13.2264C25.3894 13.0757 25.5102 12.9515 25.6587 12.8695C25.8072 12.7874 25.9767 12.7512 26.1458 12.7654C26.2582 12.7748 26.3677 12.8063 26.4679 12.858C26.5681 12.9097 26.6572 12.9806 26.7299 13.0667C26.8027 13.1529 26.8577 13.2525 26.8919 13.3598C26.9261 13.4672 26.9388 13.5803 26.9292 13.6926V13.6926Z" fill="#CE2489"/>
<path d="M21.0212 16.0405C21.0067 16.2106 20.942 16.3726 20.8353 16.5059C20.7286 16.6392 20.5846 16.7379 20.4217 16.7894C20.2588 16.841 20.0843 16.8431 19.9202 16.7954C19.7561 16.7478 19.6098 16.6526 19.5 16.5218C19.3901 16.3911 19.3215 16.2307 19.303 16.061C19.2844 15.8913 19.3167 15.7199 19.3957 15.5685C19.4747 15.4172 19.5969 15.2926 19.7468 15.2107C19.8967 15.1288 20.0676 15.0932 20.2378 15.1083C20.3507 15.1177 20.4606 15.1494 20.5612 15.2014C20.6617 15.2534 20.751 15.3248 20.8238 15.4115C20.8966 15.4981 20.9516 15.5983 20.9855 15.7063C21.0194 15.8142 21.0315 15.9278 21.0212 16.0405V16.0405Z" fill="#CE2489"/>
<path d="M23.8499 16.2797C23.8349 16.4495 23.7696 16.611 23.6623 16.7436C23.555 16.8761 23.4106 16.9737 23.2475 17.0239C23.0844 17.0741 22.91 17.0745 22.7467 17.0252C22.5833 16.9759 22.4384 16.879 22.3304 16.747C22.2224 16.615 22.1563 16.4538 22.1404 16.2841C22.1246 16.1143 22.1597 15.9437 22.2414 15.794C22.3231 15.6443 22.4476 15.5224 22.599 15.4437C22.7504 15.3651 22.9219 15.3333 23.0915 15.3525C23.314 15.3776 23.5178 15.4887 23.6595 15.6619C23.8012 15.8351 23.8696 16.0568 23.8499 16.2797V16.2797Z" fill="#CE2489"/>
<path d="M26.6851 16.5239C26.6707 16.6929 26.6065 16.8537 26.5006 16.9862C26.3947 17.1187 26.2519 17.2168 26.0901 17.2682C25.9284 17.3196 25.7551 17.322 25.592 17.275C25.429 17.228 25.2835 17.1337 25.1741 17.0042C25.0646 16.8746 24.9961 16.7156 24.9771 16.5471C24.9581 16.3787 24.9895 16.2083 25.0674 16.0577C25.1452 15.9071 25.2661 15.7829 25.4146 15.7009C25.5631 15.6188 25.7326 15.5826 25.9017 15.5968C26.0141 15.6062 26.1235 15.6376 26.2238 15.6893C26.324 15.7411 26.413 15.812 26.4858 15.8981C26.5585 15.9842 26.6136 16.0838 26.6478 16.1912C26.682 16.2986 26.6947 16.4117 26.6851 16.5239V16.5239Z" fill="#CE2489"/>
<path d="M20.7765 18.8769C20.763 19.0473 20.6991 19.2098 20.5929 19.3438C20.4867 19.4779 20.343 19.5774 20.1801 19.6297C20.0172 19.6819 19.8424 19.6847 19.6779 19.6376C19.5134 19.5904 19.3667 19.4955 19.2563 19.3649C19.1459 19.2342 19.0769 19.0738 19.058 18.9039C19.0391 18.734 19.0712 18.5623 19.1501 18.4107C19.2291 18.259 19.3514 18.1342 19.5015 18.0522C19.6516 17.9701 19.8227 17.9344 19.9931 17.9497C20.2196 17.97 20.429 18.0787 20.5757 18.2524C20.7223 18.426 20.7945 18.6504 20.7765 18.8769V18.8769Z" fill="#CE2489"/>
<path d="M23.591 19.1112C23.5774 19.2816 23.5135 19.4441 23.4073 19.5782C23.3011 19.7122 23.1574 19.8117 22.9945 19.864C22.8316 19.9163 22.6568 19.919 22.4924 19.8719C22.3279 19.8247 22.1811 19.7298 22.0708 19.5992C21.9604 19.4686 21.8914 19.3081 21.8725 19.1382C21.8536 18.9683 21.8856 18.7966 21.9646 18.645C22.0435 18.4933 22.1658 18.3686 22.3159 18.2865C22.466 18.2044 22.6371 18.1687 22.8076 18.184C23.0341 18.2043 23.2434 18.3131 23.3901 18.4867C23.5368 18.6603 23.609 18.8847 23.591 19.1112V19.1112Z" fill="#CE2489"/>
<path d="M26.44 19.3753C26.4254 19.5444 26.361 19.7054 26.2548 19.8379C26.1487 19.9704 26.0055 20.0685 25.8435 20.1196C25.6815 20.1708 25.508 20.1728 25.3449 20.1253C25.1818 20.0779 25.0364 19.9831 24.9272 19.8531C24.8181 19.723 24.75 19.5636 24.7316 19.3948C24.7132 19.2261 24.7454 19.0557 24.824 18.9053C24.9027 18.7548 25.0242 18.6311 25.1733 18.5497C25.3224 18.4683 25.4923 18.433 25.6615 18.4481C25.8876 18.4684 26.0965 18.5774 26.2424 18.7511C26.3883 18.9249 26.4593 19.1493 26.44 19.3753V19.3753Z" fill="#CE2489"/>
<path d="M25.7215 7.12245C25.9362 6.97121 26.1397 6.80461 26.3302 6.62397C26.5748 6.39965 26.6247 6.31989 26.5847 6.1853C26.5448 6.0507 26.4051 6.02578 26.2504 6.04073C26.2033 6.04245 26.1587 6.06207 26.1257 6.09557C26.108 6.11001 26.0938 6.12829 26.0843 6.14903C26.0748 6.16977 26.0702 6.1924 26.0708 6.2152V6.30992C26.0708 6.30992 26.0708 6.30992 26.0259 6.33983C25.9111 6.33983 25.8612 6.28998 25.8911 6.1504C25.9211 6.01082 26.0558 5.91113 26.3103 5.9211C26.3892 5.91858 26.4677 5.93392 26.5398 5.96596C26.6428 5.99185 26.7331 6.05375 26.7943 6.14043C26.8029 6.18991 26.8029 6.2405 26.7943 6.28998C26.7957 6.32667 26.7888 6.3632 26.7741 6.39686C26.7594 6.43052 26.7373 6.46044 26.7095 6.48439C26.5138 6.68519 26.3054 6.87334 26.0857 7.04768C26.009 7.09581 25.9357 7.14911 25.8662 7.2072H26.0109C26.2104 7.21396 26.409 7.2373 26.6047 7.27699C26.7145 7.30689 26.7694 7.34677 26.7394 7.3717C26.7095 7.39662 26.6396 7.3717 26.3901 7.3717C26.1772 7.33888 25.9618 7.32553 25.7464 7.33182C25.6738 7.34419 25.5995 7.34419 25.5269 7.33182C25.5069 7.28696 25.5518 7.24209 25.7215 7.12245Z" fill="#0F0B49"/>
<path d="M27.7178 7.29205C27.7178 7.29205 27.7178 7.14748 27.7178 6.98298L27.2188 6.93812C27.159 6.93812 27.124 6.90323 27.124 6.88329C27.124 6.86335 27.159 6.83344 27.2238 6.82845L27.7228 6.86335V6.70882C27.7228 6.65897 27.7228 6.53434 27.7727 6.53933C27.9174 6.53933 27.9374 6.60912 27.9424 6.66395C27.9474 6.71879 27.9424 6.7786 27.9424 6.8783H28.2717C28.3565 6.8783 28.591 6.8783 28.5861 6.92815C28.5811 6.978 28.4763 7.00292 28.3765 7.00292H27.9424C27.9386 7.10645 27.9287 7.20966 27.9124 7.31199C27.9048 7.32631 27.8932 7.33816 27.8791 7.34611C27.8649 7.35406 27.8488 7.35779 27.8326 7.35685C27.8097 7.3559 27.7873 7.34953 27.7674 7.33826C27.7474 7.327 27.7304 7.31116 27.7178 7.29205Z" fill="#0F0B49"/>
<path d="M29.1044 7.41169C29.3197 7.25922 29.5248 7.0927 29.7181 6.9132C29.9626 6.68888 30.0075 6.60912 29.9726 6.47952C29.9374 6.42384 29.8861 6.38018 29.8255 6.35435C29.7649 6.32853 29.6979 6.32176 29.6333 6.33495C29.5868 6.33482 29.5421 6.35269 29.5086 6.3848C29.4908 6.39894 29.477 6.41731 29.4682 6.43823C29.4595 6.45914 29.4562 6.48191 29.4587 6.50444C29.4533 6.53579 29.4533 6.5678 29.4587 6.59915C29.4587 6.59915 29.4587 6.62408 29.4088 6.62906C29.299 6.62906 29.2441 6.57921 29.274 6.43964C29.304 6.30006 29.4387 6.20535 29.6982 6.21033C29.7768 6.21069 29.8547 6.22592 29.9277 6.2552C30.0287 6.28255 30.1169 6.34425 30.1772 6.42967C30.1859 6.48081 30.1859 6.53306 30.1772 6.5842C30.1786 6.62016 30.1716 6.65595 30.1569 6.68881C30.1422 6.72166 30.1201 6.75068 30.0924 6.77362C29.9001 6.96945 29.6969 7.15419 29.4836 7.32695L29.264 7.48646H29.4038C29.603 7.49403 29.8014 7.51568 29.9976 7.55126C30.1073 7.58616 30.1672 7.62105 30.1323 7.65096C30.0974 7.68087 30.0375 7.67589 29.783 7.65096C29.5696 7.62304 29.3545 7.60972 29.1393 7.61108C29.0669 7.62614 28.9922 7.62614 28.9198 7.61108C28.8898 7.57619 28.9347 7.53133 29.1044 7.41169Z" fill="#0F0B49"/>
<path d="M3.30174 11.2768L2.80628 11.3441L2.87369 11.8395L5.16459 28.6779L5.232 29.1733L5.72745 29.106L6.23042 29.0377L6.72588 28.9705L6.65847 28.475L4.36757 11.6367L4.30016 11.1412L3.80471 11.2085L3.30174 11.2768Z" fill="white" stroke="white"/>
<path d="M9.30929 26.3254L6.5752 14.2994L9.58616 14.1092L12.0895 26.0142L9.30929 26.3254Z" fill="#21B95C"/>
<path d="M11.3574 17.6877L12.5687 25.5072L15.0779 25.052L13.9877 17.1806C13.1052 17.3304 12.2284 17.5206 11.3574 17.6877Z" fill="#F4C222"/>
<path d="M16.0811 22.6547L16.8078 25.2017L18.7286 25.0115L17.9442 22.4819C17.2231 22.4934 16.8021 22.6259 16.0811 22.6547Z" fill="#21B95C"/>
<path d="M3.13139 26.1885L2.63561 26.2533L2.7005 26.749L2.76632 27.2518L2.83121 27.7476L3.327 27.6828L26.1018 24.7077L26.5976 24.6429L26.5327 24.1471L26.4669 23.6443L26.402 23.1486L25.9062 23.2133L3.13139 26.1885Z" fill="white" stroke="white"/>
<path d="M22.6318 27.2694L34.2223 28.3539L34.9998 10.6943L22.6318 27.2694ZM26.6233 24.9868L32.8713 16.614L32.4778 25.5314L26.6233 24.9868Z" fill="#F4C222"/>
<g opacity="0.58">
<path opacity="0.58" d="M23.9463 25.4085L23.8809 25.5505L24.7851 25.9665L24.8505 25.8246L23.9463 25.4085Z" fill="#0F0B49"/>
</g>
<g opacity="0.58">
<path opacity="0.58" d="M24.9883 23.9432L24.9229 24.0851L25.8271 24.5012L25.8925 24.3592L24.9883 23.9432Z" fill="#0F0B49"/>
</g>
<g opacity="0.58">
<path opacity="0.58" d="M26.1983 22.465L26.1328 22.6069L27.037 23.023L27.1025 22.881L26.1983 22.465Z" fill="#0F0B49"/>
</g>
<g opacity="0.58">
<path opacity="0.58" d="M27.206 21.0196L27.1406 21.1616L28.0449 21.5774L28.1103 21.4355L27.206 21.0196Z" fill="#0F0B49"/>
</g>
<g opacity="0.58">
<path opacity="0.58" d="M28.1406 19.7683L28.0752 19.9102L28.9794 20.3263L29.0448 20.1843L28.1406 19.7683Z" fill="#0F0B49"/>
</g>
<g opacity="0.58">
<path opacity="0.58" d="M29.1826 18.3677L29.1172 18.5096L30.0214 18.9257L30.0868 18.7837L29.1826 18.3677Z" fill="#0F0B49"/>
</g>
<g opacity="0.58">
<path opacity="0.58" d="M30.1182 17.0485L30.0527 17.1904L30.9569 17.6065L31.0224 17.4645L30.1182 17.0485Z" fill="#0F0B49"/>
</g>
<g opacity="0.58">
<path opacity="0.58" d="M31.001 15.9432L30.9355 16.0851L31.8398 16.5012L31.9052 16.3592L31.001 15.9432Z" fill="#0F0B49"/>
</g>
<g opacity="0.58">
<path opacity="0.58" d="M31.7754 14.9186L31.71 15.0605L32.6142 15.4766L32.6796 15.3346L31.7754 14.9186Z" fill="#0F0B49"/>
</g>
<g opacity="0.58">
<path opacity="0.58" d="M32.669 13.6964L32.6035 13.8383L33.5077 14.2544L33.5732 14.1124L32.669 13.6964Z" fill="#0F0B49"/>
</g>
<g opacity="0.58">
<path opacity="0.58" d="M33.4219 12.6369L33.3564 12.7789L34.2607 13.1949L34.3261 13.053L33.4219 12.6369Z" fill="#0F0B49"/>
</g>
<path d="M11.6692 11.6209L1.31089 3.48621C1.20251 3.40125 1.11198 3.29573 1.04448 3.17573C0.976987 3.05573 0.93387 2.9236 0.917596 2.78694C0.901323 2.65027 0.91222 2.51176 0.949661 2.37937C0.987101 2.24698 1.05035 2.12331 1.13577 2.01547L2.04036 0.862608C2.12525 0.75435 2.23072 0.663946 2.3507 0.596589C2.47069 0.529231 2.60282 0.486244 2.73952 0.470104C2.87622 0.453964 3.01479 0.464988 3.14727 0.502539C3.27975 0.540089 3.40352 0.603427 3.51148 0.688915L13.8525 8.81189L13.9168 8.91249L15.8943 11.8875L16.4618 12.7537C16.4896 12.8029 16.502 12.8592 16.4974 12.9154C16.4928 12.9717 16.4715 13.0252 16.4361 13.0692C16.4008 13.1131 16.3531 13.1454 16.2991 13.162C16.2451 13.1785 16.1875 13.1785 16.1335 13.1619L15.1627 12.8234L11.8025 11.6295L11.6692 11.6209Z" fill="#FFBE06"/>
<path d="M2.33988 4.28744L1.31089 3.4862C1.20252 3.40124 1.11198 3.29573 1.04448 3.17573C0.976989 3.05572 0.933871 2.9236 0.917598 2.78693C0.901325 2.65027 0.912222 2.51176 0.949663 2.37937C0.987103 2.24698 1.05035 2.12331 1.13577 2.01547L2.04036 0.862607C2.12525 0.754349 2.23072 0.663946 2.3507 0.596588C2.47069 0.52923 2.60282 0.486243 2.73952 0.470103C2.87622 0.453963 3.01479 0.464988 3.14727 0.502538C3.27975 0.540088 3.40352 0.603426 3.51147 0.688914L4.52317 1.47838L2.33988 4.28744Z" fill="#F72872"/>
<path d="M11.7818 11.6599C11.9475 11.2863 11.4446 10.9756 11.6973 10.5855C11.9501 10.1954 12.4773 10.5542 12.7414 10.2033C13.0054 9.85245 12.5468 9.43935 12.8644 9.09337C13.182 8.74739 13.613 9.17326 13.9341 8.92437L15.8942 11.8877L16.4618 12.7538C16.4895 12.803 16.5019 12.8593 16.4974 12.9155C16.4928 12.9718 16.4714 13.0253 16.4361 13.0693C16.4007 13.1132 16.353 13.1456 16.299 13.1621C16.2451 13.1786 16.1874 13.1786 16.1334 13.162L15.1626 12.8235L11.7818 11.6599Z" fill="#FFDC9C"/>
<g opacity="0.3">
<path opacity="0.3" d="M11.6691 11.6211L1.31075 3.48638C1.20237 3.40142 1.11183 3.29591 1.04434 3.1759C0.976844 3.0559 0.933727 2.92377 0.917454 2.78711C0.90118 2.65044 0.912078 2.51194 0.949518 2.37954C0.986959 2.24715 1.0502 2.12348 1.13562 2.01564L1.71622 1.27388C1.6308 1.38172 1.56756 1.50539 1.53012 1.63779C1.49268 1.77018 1.48178 1.90868 1.49805 2.04535C1.51433 2.18201 1.55745 2.31414 1.62495 2.43415C1.69244 2.55415 1.78297 2.65966 1.89135 2.74462L12.1403 10.7986C12.1974 10.853 12.2631 10.8977 12.3347 10.9309V10.9309L16.3318 13.1771C16.2948 13.2004 16.2528 13.2148 16.2093 13.2192C16.1657 13.2235 16.1217 13.2177 16.0808 13.2021L15.11 12.8636L11.7498 11.6697L11.6691 11.6211Z" fill="#390075"/>
</g>
<g opacity="0.55">
<path opacity="0.55" d="M16.2325 13.2106C16.2262 13.1705 16.2113 13.1323 16.1886 13.0986L15.6254 12.2354L13.6726 9.25187L13.6083 9.15127L3.26731 1.02831C3.15935 0.942825 3.03558 0.879487 2.9031 0.841937C2.77063 0.804387 2.63205 0.793363 2.49535 0.809503C2.35865 0.825643 2.22652 0.868627 2.10654 0.935985C1.98655 1.00334 1.88109 1.09375 1.7962 1.202L2.05712 0.874296C2.14201 0.766038 2.24748 0.675634 2.36746 0.608277C2.48744 0.540919 2.61959 0.497936 2.75629 0.481796C2.89299 0.465656 3.03155 0.476676 3.16403 0.514226C3.2965 0.551776 3.42027 0.615114 3.52823 0.700602L13.8692 8.82356L13.9336 8.92417L15.8937 11.8874L16.4613 12.7536C16.4925 12.7963 16.5114 12.8467 16.5159 12.8993C16.5204 12.952 16.5102 13.0048 16.4866 13.0521C16.4629 13.0993 16.4267 13.1391 16.3819 13.1671C16.337 13.195 16.2854 13.2101 16.2325 13.2106V13.2106Z" fill="white"/>
</g>
<path d="M4.53754 1.4893L2.33691 4.28906L3.2246 4.98659L5.42523 2.18684L4.53754 1.4893Z" fill="#3F3F3F"/>
<path d="M15.1591 12.8655C15.203 12.6617 15.2924 12.4706 15.4206 12.3063C15.5488 12.142 15.7125 12.0088 15.8995 11.9167L16.467 12.7829C16.4948 12.832 16.5072 12.8883 16.5026 12.9446C16.4981 13.0008 16.4767 13.0544 16.4414 13.0983C16.406 13.1423 16.3583 13.1746 16.3043 13.1911C16.2504 13.2077 16.1927 13.2076 16.1387 13.191L15.1591 12.8655Z" fill="#3F3F3F"/>
<g style="mix-blend-mode:color">
<path d="M20.2112 3.53606L31.1485 4.47662C31.6469 4.51948 32.1079 4.75837 32.4299 5.14075C32.752 5.52313 32.9089 6.01766 32.866 6.51556L31.7002 20.0444C31.653 20.5923 31.3898 21.0991 30.9686 21.4532C30.5473 21.8073 30.0026 21.9797 29.4541 21.9326L18.7057 21.0083C18.4589 20.987 18.2187 20.9175 17.9989 20.8035C17.779 20.6896 17.5838 20.5335 17.4243 20.3441C17.2648 20.1548 17.1442 19.9359 17.0694 19.7C16.9946 19.4641 16.967 19.2158 16.9883 18.9693L18.1703 5.25179C18.2132 4.75389 18.4523 4.29341 18.8351 3.97164C19.2178 3.64988 19.7128 3.4932 20.2112 3.53606V3.53606Z" fill="#FFB703"/>
<path opacity="0.45" d="M30.3719 7.23713C31.1905 8.47912 31.7348 9.88108 31.9686 11.3497C32.0784 11.9429 32.1682 12.551 32.293 13.1492L32.8269 6.953C32.8809 6.33565 32.6873 5.72214 32.2887 5.2473C31.8901 4.77246 31.3191 4.47514 30.7012 4.42068L27.0586 4.10663C28.3702 4.90692 29.499 5.97344 30.3719 7.23713V7.23713Z" fill="#FFB703"/>
<g style="mix-blend-mode:multiply">
<path d="M21.2903 17.0674C19.5844 15.6233 18.3087 13.7384 17.6028 11.6189L17.009 18.513C16.9578 19.1287 17.1527 19.7396 17.551 20.2123C17.9493 20.6849 18.5187 20.9808 19.1347 21.0353L29.1793 21.8977C29.7965 21.9503 30.4093 21.7562 30.8835 21.3582C31.3577 20.9601 31.6546 20.3905 31.7092 19.7742L31.814 18.518C28.2961 19.814 24.394 19.6645 21.2903 17.0674Z" fill="#FFB703"/>
</g>
<g opacity="0.31">
<path opacity="0.31" d="M28.5808 21.2746L19.8585 20.5269C19.5392 20.4987 19.2285 20.4078 18.9444 20.2594C18.6603 20.111 18.4083 19.908 18.203 19.6621C17.9976 19.4161 17.8428 19.1321 17.7476 18.8263C17.6524 18.5204 17.6185 18.1988 17.648 17.8799L18.646 6.5393C18.7018 5.89819 19.0102 5.30546 19.5033 4.89137C19.9964 4.47728 20.6339 4.27572 21.2757 4.331L29.998 5.07873C30.6401 5.13453 31.2339 5.44239 31.6492 5.93483C32.0645 6.42727 32.2674 7.06411 32.2135 7.70576L31.2155 19.0464C31.1897 19.3658 31.101 19.677 30.9545 19.962C30.808 20.2471 30.6065 20.5004 30.3617 20.7075C30.1169 20.9145 29.8335 21.0712 29.5279 21.1685C29.2223 21.2659 28.9004 21.3019 28.5808 21.2746V21.2746ZM21.2357 4.53538C20.6446 4.48701 20.0583 4.67426 19.6049 5.05625C19.1514 5.43824 18.8677 5.98394 18.8156 6.5742L17.8177 17.9148C17.7679 18.5049 17.9541 19.0906 18.3357 19.5437C18.7173 19.9969 19.2631 20.2805 19.8535 20.3325L28.5808 21.0802C29.1715 21.13 29.7578 20.9439 30.2114 20.5627C30.665 20.1815 30.9489 19.6362 31.0009 19.0464L31.9989 7.70576C32.0487 7.1157 31.8624 6.52997 31.4808 6.07683C31.0993 5.62369 30.5535 5.34007 29.963 5.2881L21.2357 4.53538Z" fill="#FFB703"/>
</g>
<path opacity="0.44" d="M29.7927 8.61795L20.5365 7.82037C20.1702 7.78734 19.8314 7.61233 19.5926 7.33282C19.3538 7.0533 19.2341 6.69151 19.2591 6.32491V6.32491C19.2922 5.95895 19.4674 5.62046 19.7471 5.38195C20.0269 5.14343 20.3891 5.02384 20.7561 5.04878L30.0123 5.84636C30.3786 5.87939 30.7174 6.0544 30.9562 6.33391C31.195 6.61343 31.3147 6.97522 31.2897 7.34182V7.34182C31.2566 7.70779 31.0814 8.04627 30.8017 8.28478C30.5219 8.5233 30.1597 8.64289 29.7927 8.61795Z" fill="#FFB703"/>
<path d="M21.4995 10.4475C21.5792 9.98075 21.265 9.5378 20.7977 9.45817C20.3305 9.37855 19.8871 9.69241 19.8074 10.1592C19.7277 10.626 20.0419 11.0689 20.5091 11.1486C20.9764 11.2282 21.4198 10.9143 21.4995 10.4475Z" fill="#FFB703"/>
<path d="M24.339 10.6219C24.3236 10.7905 24.2586 10.9508 24.1522 11.0826C24.0458 11.2143 23.9027 11.3117 23.741 11.3623C23.5793 11.4129 23.4062 11.4146 23.2435 11.3671C23.0809 11.3197 22.9359 11.2251 22.8269 11.0955C22.7179 10.9658 22.6499 10.8068 22.6312 10.6386C22.6125 10.4703 22.6442 10.3003 22.7221 10.1499C22.8 9.99958 22.9207 9.87565 23.0691 9.79376C23.2174 9.71186 23.3867 9.67567 23.5555 9.68973C23.6684 9.69913 23.7783 9.73076 23.8789 9.78278C23.9795 9.83481 24.0687 9.90621 24.1416 9.99286C24.2144 10.0795 24.2693 10.1797 24.3032 10.2877C24.3371 10.3956 24.3492 10.5092 24.339 10.6219Z" fill="#FFB703"/>
<path d="M27.1586 10.9337C27.2382 10.4669 26.9239 10.024 26.4567 9.94444C25.9894 9.8649 25.5461 10.1788 25.4664 10.6456C25.3868 11.1124 25.7011 11.5553 26.1683 11.6349C26.6356 11.7144 27.0789 11.4005 27.1586 10.9337Z" fill="#FFB703"/>
<path d="M30.367 11.1404C30.3526 11.3103 30.2881 11.4721 30.1816 11.6054C30.0752 11.7387 29.9315 11.8375 29.7689 11.8893C29.6063 11.941 29.432 11.9435 29.2679 11.8963C29.1039 11.8491 28.9576 11.7544 28.8474 11.6242C28.7373 11.4939 28.6682 11.334 28.649 11.1645C28.6298 10.9951 28.6614 10.8238 28.7396 10.6722C28.8179 10.5207 28.9393 10.3957 29.0887 10.3131C29.238 10.2305 29.4085 10.194 29.5786 10.2082C29.6919 10.217 29.8023 10.2481 29.9034 10.2999C30.0046 10.3516 30.0944 10.4229 30.1678 10.5097C30.2411 10.5964 30.2965 10.6968 30.3307 10.8051C30.3649 10.9133 30.3772 11.0273 30.367 11.1404Z" fill="#FFB703"/>
<path d="M30.1222 13.9668C30.1087 14.1372 30.0448 14.2997 29.9386 14.4337C29.8324 14.5678 29.6887 14.6673 29.5258 14.7196C29.3629 14.7718 29.1881 14.7746 29.0236 14.7275C28.8591 14.6803 28.7124 14.5854 28.602 14.4548C28.4917 14.3241 28.4226 14.1637 28.4037 13.9938C28.3848 13.8239 28.4169 13.6522 28.4958 13.5006C28.5748 13.3489 28.6971 13.2241 28.8472 13.1421C28.9973 13.06 29.1684 13.0243 29.3388 13.0396C29.5653 13.0599 29.7747 13.1687 29.9214 13.3423C30.0681 13.5159 30.1402 13.7403 30.1222 13.9668V13.9668Z" fill="#FFB703"/>
<path d="M29.8777 16.7982C29.8665 16.9675 29.8052 17.1296 29.7017 17.2641C29.5982 17.3985 29.4571 17.4993 29.2963 17.5537C29.1354 17.608 28.962 17.6134 28.7981 17.5693C28.6341 17.5252 28.487 17.4335 28.3752 17.3058C28.2635 17.1781 28.1921 17.0201 28.1702 16.8519C28.1484 16.6837 28.1769 16.5128 28.2523 16.3608C28.3277 16.2088 28.4465 16.0826 28.5937 15.998C28.7409 15.9135 28.9099 15.8745 29.0793 15.886C29.3057 15.9026 29.5165 16.0077 29.6659 16.1784C29.8154 16.3492 29.8914 16.5718 29.8777 16.7982Z" fill="#FFB703"/>
<path d="M29.6333 19.6297C29.6189 19.7986 29.5547 19.9594 29.4488 20.0919C29.3429 20.2244 29.2001 20.3225 29.0384 20.3739C28.8767 20.4253 28.7033 20.4277 28.5403 20.3807C28.3772 20.3337 28.2318 20.2395 28.1223 20.1099C28.0129 19.9804 27.9443 19.8213 27.9253 19.6528C27.9063 19.4844 27.9377 19.3141 28.0156 19.1634C28.0935 19.0128 28.2143 18.8886 28.3628 18.8066C28.5113 18.7245 28.6808 18.6883 28.8499 18.7025C28.9623 18.7119 29.0718 18.7433 29.172 18.7951C29.2722 18.8468 29.3613 18.9177 29.434 19.0038C29.5068 19.0899 29.5618 19.1895 29.596 19.2969C29.6302 19.4043 29.6429 19.5174 29.6333 19.6297Z" fill="#FFB703"/>
<path d="M21.2609 13.2091C21.2455 13.3777 21.1805 13.538 21.0741 13.6697C20.9677 13.8015 20.8246 13.8988 20.6629 13.9495C20.5012 14.0001 20.3281 14.0018 20.1654 13.9543C20.0027 13.9068 19.8578 13.8123 19.7488 13.6826C19.6398 13.553 19.5717 13.394 19.5531 13.2257C19.5344 13.0574 19.566 12.8874 19.644 12.7371C19.7219 12.5867 19.8426 12.4628 19.9909 12.3809C20.1393 12.299 20.3085 12.2628 20.4774 12.2769C20.5903 12.2863 20.7002 12.3179 20.8008 12.3699C20.9013 12.422 20.9906 12.4934 21.0634 12.58C21.1363 12.6667 21.1912 12.7669 21.2251 12.8748C21.259 12.9828 21.2711 13.0964 21.2609 13.2091Z" fill="#FFB703"/>
<path d="M24.0879 13.5246C24.1698 13.0582 23.8576 12.6138 23.3907 12.5321C22.9238 12.4503 22.479 12.7622 22.3972 13.2286C22.3154 13.695 22.6275 14.1394 23.0944 14.2211C23.5613 14.3029 24.0061 13.991 24.0879 13.5246Z" fill="#FFB703"/>
<path d="M26.9292 13.6926C26.9148 13.8615 26.8506 14.0224 26.7447 14.1548C26.6388 14.2873 26.496 14.3854 26.3343 14.4368C26.1726 14.4882 25.9992 14.4906 25.8362 14.4436C25.6731 14.3966 25.5277 14.3024 25.4182 14.1728C25.3088 14.0433 25.2402 13.8842 25.2212 13.7158C25.2022 13.5473 25.2336 13.377 25.3115 13.2264C25.3894 13.0757 25.5102 12.9515 25.6587 12.8695C25.8072 12.7874 25.9767 12.7512 26.1458 12.7654C26.2582 12.7748 26.3677 12.8063 26.4679 12.858C26.5681 12.9097 26.6572 12.9806 26.7299 13.0667C26.8027 13.1529 26.8577 13.2525 26.8919 13.3598C26.9261 13.4672 26.9388 13.5803 26.9292 13.6926V13.6926Z" fill="#FFB703"/>
<path d="M21.0212 16.0405C21.0067 16.2106 20.942 16.3726 20.8353 16.5059C20.7286 16.6392 20.5846 16.7379 20.4217 16.7894C20.2588 16.841 20.0843 16.8431 19.9202 16.7954C19.7561 16.7478 19.6098 16.6526 19.5 16.5218C19.3901 16.3911 19.3215 16.2307 19.303 16.061C19.2844 15.8913 19.3167 15.7199 19.3957 15.5685C19.4747 15.4172 19.5969 15.2926 19.7468 15.2107C19.8967 15.1288 20.0676 15.0932 20.2378 15.1083C20.3507 15.1177 20.4606 15.1494 20.5612 15.2014C20.6617 15.2534 20.751 15.3248 20.8238 15.4115C20.8966 15.4981 20.9516 15.5983 20.9855 15.7063C21.0194 15.8142 21.0315 15.9278 21.0212 16.0405V16.0405Z" fill="#FFB703"/>
<path d="M23.8499 16.2797C23.8349 16.4495 23.7696 16.611 23.6623 16.7436C23.555 16.8761 23.4106 16.9737 23.2475 17.0239C23.0844 17.0741 22.91 17.0745 22.7467 17.0252C22.5833 16.9759 22.4384 16.879 22.3304 16.747C22.2224 16.615 22.1563 16.4538 22.1404 16.2841C22.1246 16.1143 22.1597 15.9437 22.2414 15.794C22.3231 15.6443 22.4476 15.5224 22.599 15.4437C22.7504 15.3651 22.9219 15.3333 23.0915 15.3525C23.314 15.3776 23.5178 15.4887 23.6595 15.6619C23.8012 15.8351 23.8696 16.0568 23.8499 16.2797V16.2797Z" fill="#FFB703"/>
<path d="M26.6851 16.5239C26.6707 16.6929 26.6065 16.8537 26.5006 16.9862C26.3947 17.1187 26.2519 17.2168 26.0901 17.2682C25.9284 17.3196 25.7551 17.322 25.592 17.275C25.429 17.228 25.2835 17.1337 25.1741 17.0042C25.0646 16.8746 24.9961 16.7156 24.9771 16.5471C24.9581 16.3787 24.9895 16.2083 25.0674 16.0577C25.1452 15.9071 25.2661 15.7829 25.4146 15.7009C25.5631 15.6188 25.7326 15.5826 25.9017 15.5968C26.0141 15.6062 26.1235 15.6376 26.2238 15.6893C26.324 15.7411 26.413 15.812 26.4858 15.8981C26.5585 15.9842 26.6136 16.0838 26.6478 16.1912C26.682 16.2986 26.6947 16.4117 26.6851 16.5239V16.5239Z" fill="#FFB703"/>
<path d="M20.7765 18.8769C20.763 19.0473 20.6991 19.2098 20.5929 19.3438C20.4867 19.4779 20.343 19.5774 20.1801 19.6297C20.0172 19.6819 19.8424 19.6847 19.6779 19.6376C19.5134 19.5904 19.3667 19.4955 19.2563 19.3649C19.1459 19.2342 19.0769 19.0738 19.058 18.9039C19.0391 18.734 19.0712 18.5623 19.1501 18.4107C19.2291 18.259 19.3514 18.1342 19.5015 18.0522C19.6516 17.9701 19.8227 17.9344 19.9931 17.9497C20.2196 17.97 20.429 18.0787 20.5757 18.2524C20.7223 18.426 20.7945 18.6504 20.7765 18.8769V18.8769Z" fill="#FFB703"/>
<path d="M23.591 19.1112C23.5774 19.2816 23.5135 19.4441 23.4073 19.5782C23.3011 19.7122 23.1574 19.8117 22.9945 19.864C22.8316 19.9163 22.6568 19.919 22.4924 19.8719C22.3279 19.8247 22.1811 19.7298 22.0708 19.5992C21.9604 19.4686 21.8914 19.3081 21.8725 19.1382C21.8536 18.9683 21.8856 18.7966 21.9646 18.645C22.0435 18.4933 22.1658 18.3686 22.3159 18.2865C22.466 18.2044 22.6371 18.1687 22.8076 18.184C23.0341 18.2043 23.2434 18.3131 23.3901 18.4867C23.5368 18.6603 23.609 18.8847 23.591 19.1112V19.1112Z" fill="#FFB703"/>
<path d="M26.44 19.3753C26.4254 19.5444 26.361 19.7054 26.2548 19.8379C26.1487 19.9704 26.0055 20.0685 25.8435 20.1196C25.6815 20.1708 25.508 20.1728 25.3449 20.1253C25.1818 20.0779 25.0364 19.9831 24.9272 19.8531C24.8181 19.723 24.75 19.5636 24.7316 19.3948C24.7132 19.2261 24.7454 19.0557 24.824 18.9053C24.9027 18.7548 25.0242 18.6311 25.1733 18.5497C25.3224 18.4683 25.4923 18.433 25.6615 18.4481C25.8876 18.4684 26.0965 18.5774 26.2424 18.7511C26.3883 18.9249 26.4593 19.1493 26.44 19.3753V19.3753Z" fill="#FFB703"/>
<path d="M25.7215 7.12245C25.9362 6.97121 26.1397 6.80461 26.3302 6.62397C26.5748 6.39965 26.6247 6.31989 26.5847 6.1853C26.5448 6.0507 26.4051 6.02578 26.2504 6.04073C26.2033 6.04245 26.1587 6.06207 26.1257 6.09557C26.108 6.11001 26.0938 6.12829 26.0843 6.14903C26.0748 6.16977 26.0702 6.1924 26.0708 6.2152V6.30992C26.0708 6.30992 26.0708 6.30992 26.0259 6.33983C25.9111 6.33983 25.8612 6.28998 25.8911 6.1504C25.9211 6.01082 26.0558 5.91113 26.3103 5.9211C26.3892 5.91858 26.4677 5.93392 26.5398 5.96596C26.6428 5.99185 26.7331 6.05375 26.7943 6.14043C26.8029 6.18991 26.8029 6.2405 26.7943 6.28998C26.7957 6.32667 26.7888 6.3632 26.7741 6.39686C26.7594 6.43052 26.7373 6.46044 26.7095 6.48439C26.5138 6.68519 26.3054 6.87334 26.0857 7.04768C26.009 7.09581 25.9357 7.14911 25.8662 7.2072H26.0109C26.2104 7.21396 26.409 7.2373 26.6047 7.27699C26.7145 7.30689 26.7694 7.34677 26.7394 7.3717C26.7095 7.39662 26.6396 7.3717 26.3901 7.3717C26.1772 7.33888 25.9618 7.32553 25.7464 7.33182C25.6738 7.34419 25.5995 7.34419 25.5269 7.33182C25.5069 7.28696 25.5518 7.24209 25.7215 7.12245Z" fill="#FFB703"/>
<path d="M27.7178 7.29205C27.7178 7.29205 27.7178 7.14748 27.7178 6.98298L27.2188 6.93812C27.159 6.93812 27.124 6.90323 27.124 6.88329C27.124 6.86335 27.159 6.83344 27.2238 6.82845L27.7228 6.86335V6.70882C27.7228 6.65897 27.7228 6.53434 27.7727 6.53933C27.9174 6.53933 27.9374 6.60912 27.9424 6.66395C27.9474 6.71879 27.9424 6.7786 27.9424 6.8783H28.2717C28.3565 6.8783 28.591 6.8783 28.5861 6.92815C28.5811 6.978 28.4763 7.00292 28.3765 7.00292H27.9424C27.9386 7.10645 27.9287 7.20966 27.9124 7.31199C27.9048 7.32631 27.8932 7.33816 27.8791 7.34611C27.8649 7.35406 27.8488 7.35779 27.8326 7.35685C27.8097 7.3559 27.7873 7.34953 27.7674 7.33826C27.7474 7.327 27.7304 7.31116 27.7178 7.29205Z" fill="#FFB703"/>
<path d="M29.1044 7.41169C29.3197 7.25922 29.5248 7.0927 29.7181 6.9132C29.9626 6.68888 30.0075 6.60912 29.9726 6.47952C29.9374 6.42384 29.8861 6.38018 29.8255 6.35435C29.7649 6.32853 29.6979 6.32176 29.6333 6.33495C29.5868 6.33482 29.5421 6.35269 29.5086 6.3848C29.4908 6.39894 29.477 6.41731 29.4682 6.43823C29.4595 6.45914 29.4562 6.48191 29.4587 6.50444C29.4533 6.53579 29.4533 6.5678 29.4587 6.59915C29.4587 6.59915 29.4587 6.62408 29.4088 6.62906C29.299 6.62906 29.2441 6.57921 29.274 6.43964C29.304 6.30006 29.4387 6.20535 29.6982 6.21033C29.7768 6.21069 29.8547 6.22592 29.9277 6.2552C30.0287 6.28255 30.1169 6.34425 30.1772 6.42967C30.1859 6.48081 30.1859 6.53306 30.1772 6.5842C30.1786 6.62016 30.1716 6.65595 30.1569 6.68881C30.1422 6.72166 30.1201 6.75068 30.0924 6.77362C29.9001 6.96945 29.6969 7.15419 29.4836 7.32695L29.264 7.48646H29.4038C29.603 7.49403 29.8014 7.51568 29.9976 7.55126C30.1073 7.58616 30.1672 7.62105 30.1323 7.65096C30.0974 7.68087 30.0375 7.67589 29.783 7.65096C29.5696 7.62304 29.3545 7.60972 29.1393 7.61108C29.0669 7.62614 28.9922 7.62614 28.9198 7.61108C28.8898 7.57619 28.9347 7.53133 29.1044 7.41169Z" fill="#FFB703"/>
<path d="M3.30174 11.2768L2.80628 11.3441L2.87369 11.8395L5.16459 28.6779L5.232 29.1733L5.72745 29.106L6.23042 29.0377L6.72588 28.9705L6.65847 28.475L4.36757 11.6367L4.30016 11.1412L3.80471 11.2085L3.30174 11.2768Z" fill="#FFB703" stroke="#FFB703"/>
<path d="M9.30929 26.3254L6.5752 14.2994L9.58616 14.1092L12.0895 26.0142L9.30929 26.3254Z" fill="#FFB703"/>
<path d="M11.3574 17.6877L12.5687 25.5072L15.0779 25.052L13.9877 17.1806C13.1052 17.3304 12.2284 17.5206 11.3574 17.6877Z" fill="#FFB703"/>
<path d="M16.0811 22.6547L16.8078 25.2017L18.7286 25.0115L17.9442 22.4819C17.2231 22.4934 16.8021 22.6259 16.0811 22.6547Z" fill="#FFB703"/>
<path d="M3.13139 26.1885L2.63561 26.2533L2.7005 26.749L2.76632 27.2518L2.83121 27.7476L3.327 27.6828L26.1018 24.7077L26.5976 24.6429L26.5327 24.1471L26.4669 23.6443L26.402 23.1486L25.9062 23.2133L3.13139 26.1885Z" fill="#FFB703" stroke="#FFB703"/>
<path d="M22.6318 27.2694L34.2223 28.3539L34.9998 10.6943L22.6318 27.2694ZM26.6233 24.9868L32.8713 16.614L32.4778 25.5314L26.6233 24.9868Z" fill="#FFB703"/>
<g opacity="0.58">
<path opacity="0.58" d="M23.9463 25.4085L23.8809 25.5505L24.7851 25.9665L24.8505 25.8246L23.9463 25.4085Z" fill="#FFB703"/>
</g>
<g opacity="0.58">
<path opacity="0.58" d="M24.9883 23.9432L24.9229 24.0851L25.8271 24.5012L25.8925 24.3592L24.9883 23.9432Z" fill="#FFB703"/>
</g>
<g opacity="0.58">
<path opacity="0.58" d="M26.1983 22.465L26.1328 22.6069L27.037 23.023L27.1025 22.881L26.1983 22.465Z" fill="#FFB703"/>
</g>
<g opacity="0.58">
<path opacity="0.58" d="M27.206 21.0196L27.1406 21.1616L28.0449 21.5774L28.1103 21.4355L27.206 21.0196Z" fill="#FFB703"/>
</g>
<g opacity="0.58">
<path opacity="0.58" d="M28.1406 19.7683L28.0752 19.9102L28.9794 20.3263L29.0448 20.1843L28.1406 19.7683Z" fill="#FFB703"/>
</g>
<g opacity="0.58">
<path opacity="0.58" d="M29.1826 18.3677L29.1172 18.5096L30.0214 18.9257L30.0868 18.7837L29.1826 18.3677Z" fill="#FFB703"/>
</g>
<g opacity="0.58">
<path opacity="0.58" d="M30.1182 17.0485L30.0527 17.1904L30.9569 17.6065L31.0224 17.4645L30.1182 17.0485Z" fill="#FFB703"/>
</g>
<g opacity="0.58">
<path opacity="0.58" d="M31.001 15.9432L30.9355 16.0851L31.8398 16.5012L31.9052 16.3592L31.001 15.9432Z" fill="#FFB703"/>
</g>
<g opacity="0.58">
<path opacity="0.58" d="M31.7754 14.9186L31.71 15.0605L32.6142 15.4766L32.6796 15.3346L31.7754 14.9186Z" fill="#FFB703"/>
</g>
<g opacity="0.58">
<path opacity="0.58" d="M32.669 13.6964L32.6035 13.8383L33.5077 14.2544L33.5732 14.1124L32.669 13.6964Z" fill="#FFB703"/>
</g>
<g opacity="0.58">
<path opacity="0.58" d="M33.4219 12.6369L33.3564 12.7789L34.2607 13.1949L34.3261 13.053L33.4219 12.6369Z" fill="#FFB703"/>
</g>
<path d="M11.6692 11.6209L1.31089 3.48621C1.20251 3.40125 1.11198 3.29573 1.04448 3.17573C0.976987 3.05573 0.93387 2.9236 0.917596 2.78694C0.901323 2.65027 0.91222 2.51176 0.949661 2.37937C0.987101 2.24698 1.05035 2.12331 1.13577 2.01547L2.04036 0.862608C2.12525 0.75435 2.23072 0.663946 2.3507 0.596589C2.47069 0.529231 2.60282 0.486244 2.73952 0.470104C2.87622 0.453964 3.01479 0.464988 3.14727 0.502539C3.27975 0.540089 3.40352 0.603427 3.51148 0.688915L13.8525 8.81189L13.9168 8.91249L15.8943 11.8875L16.4618 12.7537C16.4896 12.8029 16.502 12.8592 16.4974 12.9154C16.4928 12.9717 16.4715 13.0252 16.4361 13.0692C16.4008 13.1131 16.3531 13.1454 16.2991 13.162C16.2451 13.1785 16.1875 13.1785 16.1335 13.1619L15.1627 12.8234L11.8025 11.6295L11.6692 11.6209Z" fill="#FFB703"/>
<path d="M2.33988 4.28744L1.31089 3.4862C1.20252 3.40124 1.11198 3.29573 1.04448 3.17573C0.976989 3.05572 0.933871 2.9236 0.917598 2.78693C0.901325 2.65027 0.912222 2.51176 0.949663 2.37937C0.987103 2.24698 1.05035 2.12331 1.13577 2.01547L2.04036 0.862607C2.12525 0.754349 2.23072 0.663946 2.3507 0.596588C2.47069 0.52923 2.60282 0.486243 2.73952 0.470103C2.87622 0.453963 3.01479 0.464988 3.14727 0.502538C3.27975 0.540088 3.40352 0.603426 3.51147 0.688914L4.52317 1.47838L2.33988 4.28744Z" fill="#FFB703"/>
<path d="M11.7818 11.6599C11.9475 11.2863 11.4446 10.9756 11.6973 10.5855C11.9501 10.1954 12.4773 10.5542 12.7414 10.2033C13.0054 9.85245 12.5468 9.43935 12.8644 9.09337C13.182 8.74739 13.613 9.17326 13.9341 8.92437L15.8942 11.8877L16.4618 12.7538C16.4895 12.803 16.5019 12.8593 16.4974 12.9155C16.4928 12.9718 16.4714 13.0253 16.4361 13.0693C16.4007 13.1132 16.353 13.1456 16.299 13.1621C16.2451 13.1786 16.1874 13.1786 16.1334 13.162L15.1626 12.8235L11.7818 11.6599Z" fill="#FFB703"/>
<g opacity="0.3">
<path opacity="0.3" d="M11.6691 11.6211L1.31075 3.48638C1.20237 3.40142 1.11183 3.29591 1.04434 3.1759C0.976844 3.0559 0.933727 2.92377 0.917454 2.78711C0.90118 2.65044 0.912078 2.51194 0.949518 2.37954C0.986959 2.24715 1.0502 2.12348 1.13562 2.01564L1.71622 1.27388C1.6308 1.38172 1.56756 1.50539 1.53012 1.63779C1.49268 1.77018 1.48178 1.90868 1.49805 2.04535C1.51433 2.18201 1.55745 2.31414 1.62495 2.43415C1.69244 2.55415 1.78297 2.65966 1.89135 2.74462L12.1403 10.7986C12.1974 10.853 12.2631 10.8977 12.3347 10.9309V10.9309L16.3318 13.1771C16.2948 13.2004 16.2528 13.2148 16.2093 13.2192C16.1657 13.2235 16.1217 13.2177 16.0808 13.2021L15.11 12.8636L11.7498 11.6697L11.6691 11.6211Z" fill="#FFB703"/>
</g>
<g opacity="0.55">
<path opacity="0.55" d="M16.2325 13.2106C16.2262 13.1705 16.2113 13.1323 16.1886 13.0986L15.6254 12.2354L13.6726 9.25187L13.6083 9.15127L3.26731 1.02831C3.15935 0.942825 3.03558 0.879487 2.9031 0.841937C2.77063 0.804387 2.63205 0.793363 2.49535 0.809503C2.35865 0.825643 2.22652 0.868627 2.10654 0.935985C1.98655 1.00334 1.88109 1.09375 1.7962 1.202L2.05712 0.874296C2.14201 0.766038 2.24748 0.675634 2.36746 0.608277C2.48744 0.540919 2.61959 0.497936 2.75629 0.481796C2.89299 0.465656 3.03155 0.476676 3.16403 0.514226C3.2965 0.551776 3.42027 0.615114 3.52823 0.700602L13.8692 8.82356L13.9336 8.92417L15.8937 11.8874L16.4613 12.7536C16.4925 12.7963 16.5114 12.8467 16.5159 12.8993C16.5204 12.952 16.5102 13.0048 16.4866 13.0521C16.4629 13.0993 16.4267 13.1391 16.3819 13.1671C16.337 13.195 16.2854 13.2101 16.2325 13.2106V13.2106Z" fill="#FFB703"/>
</g>
<path d="M4.53754 1.4893L2.33691 4.28906L3.2246 4.98659L5.42523 2.18684L4.53754 1.4893Z" fill="#FFB703"/>
<path d="M15.1591 12.8655C15.203 12.6617 15.2924 12.4706 15.4206 12.3063C15.5488 12.142 15.7125 12.0088 15.8995 11.9167L16.467 12.7829C16.4948 12.832 16.5072 12.8883 16.5026 12.9446C16.4981 13.0008 16.4767 13.0544 16.4414 13.0983C16.406 13.1423 16.3583 13.1746 16.3043 13.1911C16.2504 13.2077 16.1927 13.2076 16.1387 13.191L15.1591 12.8655Z" fill="#FFB703"/>
</g>
</svg>
