<svg width="35" height="31" viewBox="0 0 35 31" fill="none" xmlns="http://www.w3.org/2000/svg">
<g style="mix-blend-mode:color">
<path d="M20.2112 4.23076L31.1485 5.17132C31.6469 5.21418 32.1079 5.45307 32.4299 5.83545C32.752 6.21783 32.9089 6.71236 32.866 7.21027L31.7002 20.7391C31.653 21.287 31.3898 21.7938 30.9686 22.1479C30.5473 22.502 30.0026 22.6744 29.4541 22.6273L18.7057 21.703C18.4589 21.6817 18.2187 21.6122 17.9989 21.4982C17.779 21.3843 17.5838 21.2282 17.4243 21.0388C17.2648 20.8495 17.1442 20.6306 17.0694 20.3947C16.9946 20.1589 16.967 19.9106 16.9883 19.664L18.1703 5.9465C18.2132 5.44859 18.4523 4.98811 18.8351 4.66635C19.2178 4.34458 19.7128 4.1879 20.2112 4.23076Z" fill="#22BAAF"/>
<path opacity="0.45" d="M30.3719 7.93184C31.1905 9.17382 31.7348 10.5758 31.9686 12.0444C32.0784 12.6376 32.1682 13.2457 32.293 13.8439L32.8269 7.6477C32.8809 7.03035 32.6873 6.41684 32.2887 5.942C31.8901 5.46716 31.3191 5.16984 30.7012 5.11538L27.0586 4.80133C28.3702 5.60163 29.499 6.66814 30.3719 7.93184Z" fill="#22BAAF"/>
<g style="mix-blend-mode:multiply">
<path d="M21.2903 17.7621C19.5844 16.318 18.3087 14.4331 17.6028 12.3136L17.009 19.2077C16.9578 19.8234 17.1527 20.4343 17.551 20.907C17.9493 21.3796 18.5187 21.6755 19.1347 21.73L29.1793 22.5924C29.7965 22.645 30.4093 22.4509 30.8835 22.0529C31.3577 21.6548 31.6546 21.0852 31.7092 20.4689L31.814 19.2127C28.2961 20.5087 24.394 20.3592 21.2903 17.7621Z" fill="#22BAAF"/>
</g>
<g opacity="0.31">
<path opacity="0.31" d="M28.5808 21.9693L19.8585 21.2216C19.5392 21.1934 19.2285 21.1025 18.9444 20.9541C18.6603 20.8057 18.4083 20.6027 18.203 20.3568C17.9976 20.1108 17.8428 19.8268 17.7476 19.521C17.6524 19.2151 17.6185 18.8935 17.648 18.5746L18.646 7.234C18.7018 6.5929 19.0102 6.00016 19.5033 5.58607C19.9964 5.17198 20.6339 4.97043 21.2757 5.0257L29.998 5.77343C30.6401 5.82923 31.2339 6.13709 31.6492 6.62953C32.0645 7.12197 32.2674 7.75881 32.2135 8.40047L31.2155 19.7411C31.1897 20.0605 31.101 20.3717 30.9545 20.6567C30.808 20.9418 30.6065 21.1951 30.3617 21.4022C30.1169 21.6092 29.8335 21.7659 29.5279 21.8632C29.2223 21.9606 28.9004 21.9966 28.5808 21.9693ZM21.2357 5.23008C20.6446 5.18171 20.0583 5.36896 19.6049 5.75095C19.1514 6.13295 18.8677 6.67865 18.8156 7.2689L17.8177 18.6095C17.7679 19.1996 17.9541 19.7853 18.3357 20.2384C18.7173 20.6916 19.2631 20.9752 19.8535 21.0272L28.5808 21.7749C29.1715 21.8247 29.7578 21.6386 30.2114 21.2574C30.665 20.8762 30.9489 20.3309 31.0009 19.7411L31.9989 8.40047C32.0487 7.81041 31.8624 7.22467 31.4808 6.77153C31.0993 6.31839 30.5535 6.03478 29.963 5.9828L21.2357 5.23008Z" fill="#22BAAF"/>
</g>
<path opacity="0.44" d="M29.7927 9.31266L20.5365 8.51507C20.1702 8.48204 19.8314 8.30703 19.5926 8.02752C19.3538 7.74801 19.2341 7.38621 19.2591 7.01961C19.2922 6.65365 19.4674 6.31517 19.7471 6.07665C20.0269 5.83813 20.3891 5.71854 20.7561 5.74348L30.0123 6.54106C30.3786 6.57409 30.7174 6.7491 30.9562 7.02862C31.195 7.30813 31.3147 7.66992 31.2897 8.03653C31.2566 8.40249 31.0814 8.74097 30.8017 8.97949C30.5219 9.218 30.1597 9.3376 29.7927 9.31266Z" fill="#22BAAF"/>
<path d="M21.4995 11.1422C21.5792 10.6755 21.265 10.2325 20.7977 10.1529C20.3305 10.0733 19.8871 10.3871 19.8074 10.8539C19.7277 11.3207 20.0419 11.7636 20.5091 11.8433C20.9764 11.9229 21.4198 11.609 21.4995 11.1422Z" fill="#22BAAF"/>
<path d="M24.339 11.3166C24.3236 11.4852 24.2586 11.6455 24.1522 11.7773C24.0458 11.909 23.9027 12.0064 23.741 12.057C23.5793 12.1076 23.4062 12.1093 23.2435 12.0619C23.0809 12.0144 22.9359 11.9198 22.8269 11.7902C22.7179 11.6605 22.6499 11.5015 22.6312 11.3333C22.6125 11.165 22.6442 10.995 22.7221 10.8446C22.8 10.6943 22.9207 10.5704 23.0691 10.4885C23.2174 10.4066 23.3867 10.3704 23.5555 10.3844C23.6684 10.3938 23.7783 10.4255 23.8789 10.4775C23.9795 10.5295 24.0687 10.6009 24.1416 10.6876C24.2144 10.7742 24.2693 10.8744 24.3032 10.9824C24.3371 11.0903 24.3492 11.2039 24.339 11.3166Z" fill="#22BAAF"/>
<path d="M27.1586 11.6284C27.2382 11.1616 26.9239 10.7187 26.4567 10.6391C25.9894 10.5596 25.5461 10.8735 25.4664 11.3403C25.3868 11.8071 25.7011 12.25 26.1683 12.3296C26.6356 12.4091 27.0789 12.0952 27.1586 11.6284Z" fill="#22BAAF"/>
<path d="M30.367 11.8351C30.3526 12.005 30.2881 12.1668 30.1816 12.3001C30.0752 12.4334 29.9315 12.5322 29.7689 12.584C29.6063 12.6357 29.432 12.6382 29.2679 12.591C29.1039 12.5438 28.9576 12.4491 28.8474 12.3189C28.7373 12.1886 28.6682 12.0287 28.649 11.8592C28.6298 11.6898 28.6614 11.5185 28.7396 11.3669C28.8179 11.2154 28.9393 11.0904 29.0887 11.0078C29.238 10.9252 29.4085 10.8887 29.5786 10.9029C29.6919 10.9117 29.8023 10.9428 29.9034 10.9946C30.0046 11.0463 30.0944 11.1176 30.1678 11.2044C30.2411 11.2911 30.2965 11.3915 30.3307 11.4998C30.3649 11.608 30.3772 11.722 30.367 11.8351Z" fill="#22BAAF"/>
<path d="M30.1222 14.6615C30.1087 14.8319 30.0448 14.9944 29.9386 15.1284C29.8324 15.2625 29.6887 15.362 29.5258 15.4143C29.3629 15.4666 29.1881 15.4693 29.0236 15.4222C28.8591 15.375 28.7124 15.2801 28.602 15.1495C28.4917 15.0188 28.4226 14.8584 28.4037 14.6885C28.3848 14.5186 28.4169 14.3469 28.4958 14.1953C28.5748 14.0436 28.6971 13.9188 28.8472 13.8368C28.9973 13.7547 29.1684 13.719 29.3388 13.7343C29.5653 13.7546 29.7747 13.8634 29.9214 14.037C30.0681 14.2106 30.1402 14.435 30.1222 14.6615Z" fill="#22BAAF"/>
<path d="M29.8777 17.4929C29.8665 17.6622 29.8052 17.8243 29.7017 17.9588C29.5982 18.0932 29.4571 18.194 29.2963 18.2484C29.1354 18.3027 28.962 18.3081 28.7981 18.264C28.6341 18.2199 28.487 18.1282 28.3752 18.0005C28.2635 17.8728 28.1921 17.7148 28.1702 17.5466C28.1484 17.3784 28.1769 17.2075 28.2523 17.0555C28.3277 16.9035 28.4465 16.7773 28.5937 16.6927C28.7409 16.6082 28.9099 16.5692 29.0793 16.5807C29.3057 16.5973 29.5165 16.7024 29.6659 16.8731C29.8154 17.0439 29.8914 17.2665 29.8777 17.4929Z" fill="#22BAAF"/>
<path d="M29.6333 20.3244C29.6189 20.4933 29.5547 20.6541 29.4488 20.7866C29.3429 20.9191 29.2001 21.0172 29.0384 21.0686C28.8767 21.12 28.7033 21.1224 28.5403 21.0754C28.3772 21.0284 28.2318 20.9342 28.1223 20.8046C28.0129 20.6751 27.9443 20.516 27.9253 20.3475C27.9063 20.1791 27.9377 20.0088 28.0156 19.8581C28.0935 19.7075 28.2143 19.5833 28.3628 19.5013C28.5113 19.4192 28.6808 19.383 28.8499 19.3972C28.9623 19.4066 29.0718 19.4381 29.172 19.4898C29.2722 19.5415 29.3613 19.6124 29.434 19.6985C29.5068 19.7846 29.5618 19.8842 29.596 19.9916C29.6302 20.099 29.6429 20.2121 29.6333 20.3244Z" fill="#22BAAF"/>
<path d="M21.2609 13.9038C21.2455 14.0724 21.1805 14.2327 21.0741 14.3644C20.9677 14.4962 20.8246 14.5935 20.6629 14.6442C20.5012 14.6948 20.3281 14.6965 20.1654 14.649C20.0027 14.6015 19.8578 14.507 19.7488 14.3773C19.6398 14.2477 19.5717 14.0887 19.5531 13.9204C19.5344 13.7521 19.566 13.5821 19.644 13.4318C19.7219 13.2814 19.8426 13.1575 19.9909 13.0756C20.1393 12.9937 20.3085 12.9575 20.4774 12.9716C20.5903 12.981 20.7002 13.0126 20.8008 13.0646C20.9013 13.1167 20.9906 13.1881 21.0634 13.2747C21.1363 13.3614 21.1912 13.4616 21.2251 13.5695C21.259 13.6775 21.2711 13.7911 21.2609 13.9038Z" fill="#22BAAF"/>
<path d="M24.0879 14.2193C24.1698 13.7529 23.8576 13.3085 23.3907 13.2268C22.9238 13.145 22.479 13.4569 22.3972 13.9233C22.3154 14.3897 22.6275 14.8341 23.0944 14.9158C23.5613 14.9976 24.0061 14.6857 24.0879 14.2193Z" fill="#22BAAF"/>
<path d="M26.9292 14.3873C26.9148 14.5562 26.8506 14.7171 26.7447 14.8495C26.6388 14.982 26.496 15.0801 26.3343 15.1315C26.1726 15.1829 25.9992 15.1853 25.8362 15.1383C25.6731 15.0913 25.5277 14.9971 25.4182 14.8675C25.3088 14.738 25.2402 14.5789 25.2212 14.4105C25.2022 14.242 25.2336 14.0717 25.3115 13.9211C25.3894 13.7704 25.5102 13.6462 25.6587 13.5642C25.8072 13.4821 25.9767 13.4459 26.1458 13.4601C26.2582 13.4695 26.3677 13.501 26.4679 13.5527C26.5681 13.6044 26.6572 13.6753 26.7299 13.7615C26.8027 13.8476 26.8577 13.9472 26.8919 14.0545C26.9261 14.1619 26.9388 14.275 26.9292 14.3873Z" fill="#22BAAF"/>
<path d="M21.0212 16.7352C21.0067 16.9053 20.942 17.0673 20.8353 17.2006C20.7286 17.3339 20.5846 17.4326 20.4217 17.4842C20.2588 17.5357 20.0843 17.5378 19.9202 17.4901C19.7561 17.4425 19.6098 17.3473 19.5 17.2165C19.3901 17.0858 19.3215 16.9254 19.303 16.7557C19.2844 16.586 19.3167 16.4146 19.3957 16.2632C19.4747 16.1119 19.5969 15.9874 19.7468 15.9054C19.8967 15.8235 20.0676 15.7879 20.2378 15.803C20.3507 15.8124 20.4606 15.8441 20.5612 15.8961C20.6617 15.9481 20.751 16.0195 20.8238 16.1062C20.8966 16.1928 20.9516 16.293 20.9855 16.401C21.0194 16.5089 21.0315 16.6225 21.0212 16.7352Z" fill="#22BAAF"/>
<path d="M23.8499 16.9744C23.8349 17.1442 23.7696 17.3057 23.6623 17.4383C23.555 17.5708 23.4106 17.6684 23.2475 17.7186C23.0844 17.7688 22.91 17.7692 22.7467 17.7199C22.5833 17.6706 22.4384 17.5737 22.3304 17.4417C22.2224 17.3097 22.1563 17.1485 22.1404 16.9788C22.1246 16.809 22.1597 16.6384 22.2414 16.4887C22.3231 16.339 22.4476 16.2171 22.599 16.1384C22.7504 16.0598 22.9219 16.028 23.0915 16.0472C23.314 16.0723 23.5178 16.1834 23.6595 16.3566C23.8012 16.5298 23.8696 16.7515 23.8499 16.9744Z" fill="#22BAAF"/>
<path d="M26.6851 17.2186C26.6707 17.3876 26.6065 17.5484 26.5006 17.6809C26.3947 17.8134 26.2519 17.9115 26.0901 17.9629C25.9284 18.0143 25.7551 18.0167 25.592 17.9697C25.429 17.9227 25.2835 17.8284 25.1741 17.6989C25.0646 17.5693 24.9961 17.4103 24.9771 17.2418C24.9581 17.0734 24.9895 16.903 25.0674 16.7524C25.1452 16.6018 25.2661 16.4776 25.4146 16.3956C25.5631 16.3135 25.7326 16.2773 25.9017 16.2915C26.0141 16.3009 26.1235 16.3323 26.2238 16.384C26.324 16.4358 26.413 16.5067 26.4858 16.5928C26.5585 16.6789 26.6136 16.7785 26.6478 16.8859C26.682 16.9933 26.6947 17.1064 26.6851 17.2186Z" fill="#22BAAF"/>
<path d="M20.7765 19.5716C20.763 19.742 20.6991 19.9045 20.5929 20.0385C20.4867 20.1726 20.343 20.2721 20.1801 20.3244C20.0172 20.3766 19.8424 20.3794 19.6779 20.3323C19.5134 20.2851 19.3667 20.1902 19.2563 20.0596C19.1459 19.9289 19.0769 19.7685 19.058 19.5986C19.0391 19.4287 19.0712 19.257 19.1501 19.1054C19.2291 18.9537 19.3514 18.8289 19.5015 18.7469C19.6516 18.6648 19.8227 18.6291 19.9931 18.6444C20.2196 18.6647 20.429 18.7735 20.5757 18.9471C20.7223 19.1207 20.7945 19.3451 20.7765 19.5716Z" fill="#22BAAF"/>
<path d="M23.591 19.8059C23.5774 19.9763 23.5135 20.1388 23.4073 20.2729C23.3011 20.4069 23.1574 20.5064 22.9945 20.5587C22.8316 20.611 22.6568 20.6137 22.4924 20.5666C22.3279 20.5194 22.1811 20.4245 22.0708 20.2939C21.9604 20.1633 21.8914 20.0028 21.8725 19.8329C21.8536 19.663 21.8856 19.4914 21.9646 19.3397C22.0435 19.188 22.1658 19.0633 22.3159 18.9812C22.466 18.8991 22.6371 18.8634 22.8076 18.8787C23.0341 18.899 23.2434 19.0078 23.3901 19.1814C23.5368 19.355 23.609 19.5794 23.591 19.8059Z" fill="#22BAAF"/>
<path d="M26.44 20.07C26.4254 20.2391 26.361 20.4001 26.2548 20.5326C26.1487 20.6651 26.0055 20.7632 25.8435 20.8143C25.6815 20.8655 25.508 20.8675 25.3449 20.82C25.1818 20.7726 25.0364 20.6778 24.9272 20.5478C24.8181 20.4177 24.75 20.2583 24.7316 20.0895C24.7132 19.9208 24.7454 19.7504 24.824 19.6C24.9027 19.4495 25.0242 19.3258 25.1733 19.2444C25.3224 19.163 25.4923 19.1277 25.6615 19.1428C25.8876 19.1631 26.0965 19.2721 26.2424 19.4458C26.3883 19.6196 26.4593 19.8441 26.44 20.07Z" fill="#22BAAF"/>
<path d="M25.7215 7.81716C25.9362 7.66591 26.1397 7.49931 26.3302 7.31867C26.5748 7.09435 26.6247 7.01459 26.5847 6.88C26.5448 6.74541 26.4051 6.72048 26.2504 6.73544C26.2033 6.73715 26.1587 6.75677 26.1257 6.79027C26.108 6.80471 26.0938 6.823 26.0843 6.84373C26.0748 6.86447 26.0702 6.8871 26.0708 6.90991V7.00462C26.0708 7.00462 26.0708 7.00462 26.0259 7.03453C25.9111 7.03453 25.8612 6.98468 25.8911 6.8451C25.9211 6.70553 26.0558 6.60583 26.3103 6.6158C26.3892 6.61328 26.4677 6.62862 26.5398 6.66066C26.6428 6.68655 26.7331 6.74845 26.7943 6.83513C26.8029 6.88462 26.8029 6.9352 26.7943 6.98468C26.7957 7.02137 26.7888 7.0579 26.7741 7.09156C26.7594 7.12522 26.7373 7.15514 26.7095 7.17909C26.5138 7.37989 26.3054 7.56804 26.0857 7.74238C26.009 7.79052 25.9357 7.84381 25.8662 7.9019H26.0109C26.2104 7.90866 26.409 7.93201 26.6047 7.97169C26.7145 8.0016 26.7694 8.04148 26.7394 8.0664C26.7095 8.09132 26.6396 8.0664 26.3901 8.0664C26.1772 8.03358 25.9618 8.02024 25.7464 8.02652C25.6738 8.03889 25.5995 8.03889 25.5269 8.02652C25.5069 7.98166 25.5518 7.93679 25.7215 7.81716Z" fill="#22BAAF"/>
<path d="M27.7178 7.98675C27.7178 7.98675 27.7178 7.84219 27.7178 7.67769L27.2188 7.63282C27.159 7.63282 27.124 7.59793 27.124 7.57799C27.124 7.55805 27.159 7.52814 27.2238 7.52316L27.7228 7.55805V7.40352C27.7228 7.35367 27.7228 7.22905 27.7727 7.23403C27.9174 7.23403 27.9374 7.30382 27.9424 7.35865C27.9474 7.41349 27.9424 7.47331 27.9424 7.573H28.2717C28.3565 7.573 28.591 7.573 28.5861 7.62285C28.5811 7.6727 28.4763 7.69763 28.3765 7.69763H27.9424C27.9386 7.80116 27.9287 7.90437 27.9124 8.00669C27.9048 8.02102 27.8932 8.03286 27.8791 8.04081C27.8649 8.04876 27.8488 8.05249 27.8326 8.05155C27.8097 8.0506 27.7873 8.04423 27.7674 8.03297C27.7474 8.0217 27.7304 8.00586 27.7178 7.98675Z" fill="#22BAAF"/>
<path d="M29.1044 8.10639C29.3197 7.95392 29.5248 7.7874 29.7181 7.6079C29.9626 7.38358 30.0075 7.30382 29.9726 7.17422C29.9374 7.11854 29.8861 7.07488 29.8255 7.04906C29.7649 7.02323 29.6979 7.01646 29.6333 7.02966C29.5868 7.02953 29.5421 7.04739 29.5086 7.07951C29.4908 7.09364 29.477 7.11201 29.4682 7.13293C29.4595 7.15384 29.4562 7.17662 29.4587 7.19914C29.4533 7.23049 29.4533 7.26251 29.4587 7.29386C29.4587 7.29386 29.4587 7.31878 29.4088 7.32376C29.299 7.32376 29.2441 7.27391 29.274 7.13434C29.304 6.99476 29.4387 6.90005 29.6982 6.90503C29.7768 6.9054 29.8547 6.92062 29.9277 6.9499C30.0287 6.97725 30.1169 7.03896 30.1772 7.12437C30.1859 7.17551 30.1859 7.22776 30.1772 7.2789C30.1786 7.31486 30.1716 7.35066 30.1569 7.38351C30.1422 7.41636 30.1201 7.44538 30.0924 7.46833C29.9001 7.66416 29.6969 7.8489 29.4836 8.02165L29.264 8.18116H29.4038C29.603 8.18873 29.8014 8.21039 29.9976 8.24597C30.1073 8.28086 30.1672 8.31576 30.1323 8.34567C30.0974 8.37557 30.0375 8.37059 29.783 8.34567C29.5696 8.31774 29.3545 8.30442 29.1393 8.30579C29.0669 8.32084 28.9922 8.32084 28.9198 8.30579C28.8898 8.27089 28.9347 8.22603 29.1044 8.10639Z" fill="#22BAAF"/>
<path d="M4.36757 12.3314L4.30016 11.8359L3.80471 11.9032L3.30174 11.9715L2.80628 12.0388L2.87369 12.5342L5.16459 29.3726L5.232 29.868L5.72745 29.8007L6.23042 29.7324L6.72588 29.6652L6.65847 29.1697L4.36757 12.3314Z" fill="#22BAAF" stroke="#22BAAF"/>
<path d="M9.30929 27.0201L6.5752 14.9941L9.58616 14.8039L12.0895 26.7089L9.30929 27.0201Z" fill="#22BAAF"/>
<path d="M11.3574 18.3824L12.5687 26.2019L15.0779 25.7467L13.9877 17.8753C13.1052 18.0251 12.2284 18.2153 11.3574 18.3824Z" fill="#22BAAF"/>
<path d="M16.0811 23.3494L16.8078 25.8964L18.7286 25.7062L17.9442 23.1766C17.2231 23.1881 16.8021 23.3206 16.0811 23.3494Z" fill="#22BAAF"/>
<path d="M26.4669 24.339L26.402 23.8433L25.9062 23.908L3.13139 26.8832L2.63561 26.948L2.7005 27.4437L2.76632 27.9465L2.83121 28.4423L3.327 28.3775L26.1018 25.4024L26.5976 25.3376L26.5327 24.8418L26.4669 24.339Z" fill="#22BAAF" stroke="#22BAAF"/>
<path d="M22.6318 27.9641L34.2223 29.0486L34.9998 11.389L22.6318 27.9641ZM26.6233 25.6815L32.8713 17.3087L32.4778 26.2261L26.6233 25.6815Z" fill="#22BAAF"/>
<g opacity="0.58">
<path opacity="0.58" d="M23.9463 26.1032L23.8809 26.2452L24.7851 26.6612L24.8505 26.5193L23.9463 26.1032Z" fill="#22BAAF"/>
</g>
<g opacity="0.58">
<path opacity="0.58" d="M24.9883 24.6379L24.9229 24.7798L25.8271 25.1959L25.8925 25.0539L24.9883 24.6379Z" fill="#22BAAF"/>
</g>
<g opacity="0.58">
<path opacity="0.58" d="M26.1983 23.1597L26.1328 23.3016L27.037 23.7177L27.1025 23.5757L26.1983 23.1597Z" fill="#22BAAF"/>
</g>
<g opacity="0.58">
<path opacity="0.58" d="M27.206 21.7143L27.1406 21.8563L28.0449 22.2721L28.1103 22.1302L27.206 21.7143Z" fill="#22BAAF"/>
</g>
<g opacity="0.58">
<path opacity="0.58" d="M28.1406 20.463L28.0752 20.6049L28.9794 21.021L29.0448 20.879L28.1406 20.463Z" fill="#22BAAF"/>
</g>
<g opacity="0.58">
<path opacity="0.58" d="M29.1826 19.0624L29.1172 19.2043L30.0214 19.6204L30.0868 19.4784L29.1826 19.0624Z" fill="#22BAAF"/>
</g>
<g opacity="0.58">
<path opacity="0.58" d="M30.1182 17.7432L30.0527 17.8851L30.9569 18.3012L31.0224 18.1592L30.1182 17.7432Z" fill="#22BAAF"/>
</g>
<g opacity="0.58">
<path opacity="0.58" d="M31.001 16.6379L30.9355 16.7798L31.8398 17.1959L31.9052 17.0539L31.001 16.6379Z" fill="#22BAAF"/>
</g>
<g opacity="0.58">
<path opacity="0.58" d="M31.7754 15.6133L31.71 15.7552L32.6142 16.1713L32.6796 16.0293L31.7754 15.6133Z" fill="#22BAAF"/>
</g>
<g opacity="0.58">
<path opacity="0.58" d="M32.669 14.3911L32.6035 14.533L33.5077 14.9491L33.5732 14.8071L32.669 14.3911Z" fill="#22BAAF"/>
</g>
<g opacity="0.58">
<path opacity="0.58" d="M33.4219 13.3316L33.3564 13.4736L34.2607 13.8896L34.3261 13.7477L33.4219 13.3316Z" fill="#22BAAF"/>
</g>
<path d="M11.6692 12.3156L1.31089 4.18091C1.20251 4.09595 1.11198 3.99044 1.04448 3.87043C0.976987 3.75043 0.93387 3.6183 0.917596 3.48164C0.901323 3.34497 0.91222 3.20647 0.949661 3.07407C0.987101 2.94168 1.05035 2.81801 1.13577 2.71017L2.04036 1.55731C2.12525 1.44905 2.23072 1.35865 2.3507 1.29129C2.47069 1.22393 2.60282 1.18095 2.73952 1.16481C2.87622 1.14867 3.01479 1.15969 3.14727 1.19724C3.27975 1.23479 3.40352 1.29813 3.51148 1.38362L13.8525 9.50659L13.9168 9.60719L15.8943 12.5822L16.4618 13.4484C16.4896 13.4976 16.502 13.5539 16.4974 13.6101C16.4928 13.6664 16.4715 13.7199 16.4361 13.7639C16.4008 13.8078 16.3531 13.8401 16.2991 13.8567C16.2451 13.8732 16.1875 13.8732 16.1335 13.8566L15.1627 13.5181L11.8025 12.3242L11.6692 12.3156Z" fill="#22BAAF"/>
<path d="M2.33988 4.98214L1.31089 4.1809C1.20252 4.09595 1.11198 3.99043 1.04448 3.87043C0.976989 3.75043 0.933871 3.6183 0.917598 3.48164C0.901325 3.34497 0.912222 3.20646 0.949663 3.07407C0.987103 2.94168 1.05035 2.81801 1.13577 2.71017L2.04036 1.55731C2.12525 1.44905 2.23072 1.35865 2.3507 1.29129C2.47069 1.22393 2.60282 1.18095 2.73952 1.16481C2.87622 1.14867 3.01479 1.15969 3.14727 1.19724C3.27975 1.23479 3.40352 1.29813 3.51147 1.38362L4.52317 2.17309L2.33988 4.98214Z" fill="#22BAAF"/>
<path d="M11.7818 12.3546C11.9475 11.981 11.4446 11.6703 11.6973 11.2802C11.9501 10.8901 12.4773 11.2489 12.7414 10.898C13.0054 10.5472 12.5468 10.134 12.8644 9.78807C13.182 9.44209 13.613 9.86796 13.9341 9.61908L15.8942 12.5824L16.4618 13.4485C16.4895 13.4977 16.5019 13.554 16.4974 13.6103C16.4928 13.6665 16.4714 13.72 16.4361 13.764C16.4007 13.8079 16.353 13.8403 16.299 13.8568C16.2451 13.8733 16.1874 13.8733 16.1334 13.8567L15.1626 13.5182L11.7818 12.3546Z" fill="#22BAAF"/>
<g opacity="0.3">
<path opacity="0.3" d="M11.6691 12.3158L1.31075 4.18108C1.20237 4.09612 1.11183 3.99061 1.04434 3.87061C0.976844 3.7506 0.933727 3.61848 0.917454 3.48181C0.90118 3.34515 0.912078 3.20664 0.949518 3.07425C0.986959 2.94185 1.0502 2.81818 1.13562 2.71034L1.71622 1.96858C1.6308 2.07642 1.56756 2.2001 1.53012 2.33249C1.49268 2.46488 1.48178 2.60339 1.49805 2.74005C1.51433 2.87672 1.55745 3.00885 1.62495 3.12885C1.69244 3.24885 1.78297 3.35436 1.89135 3.43932L12.1403 11.4933C12.1974 11.5477 12.2631 11.5924 12.3347 11.6256L16.3318 13.8718C16.2948 13.8951 16.2528 13.9095 16.2093 13.9139C16.1657 13.9182 16.1217 13.9124 16.0808 13.8968L15.11 13.5583L11.7498 12.3644L11.6691 12.3158Z" fill="#22BAAF"/>
</g>
<g opacity="0.55">
<path opacity="0.55" d="M16.2325 13.9053C16.2262 13.8652 16.2113 13.827 16.1886 13.7933L15.6254 12.9301L13.6726 9.94657L13.6083 9.84597L3.26731 1.72302C3.15935 1.63753 3.03558 1.57419 2.9031 1.53664C2.77063 1.49909 2.63205 1.48806 2.49535 1.50421C2.35865 1.52035 2.22652 1.56333 2.10654 1.63069C1.98655 1.69804 1.88109 1.78845 1.7962 1.89671L2.05712 1.569C2.14201 1.46074 2.24748 1.37034 2.36746 1.30298C2.48744 1.23562 2.61959 1.19264 2.75629 1.1765C2.89299 1.16036 3.03155 1.17138 3.16403 1.20893C3.2965 1.24648 3.42027 1.30982 3.52823 1.3953L13.8692 9.51827L13.9336 9.61887L15.8937 12.5822L16.4613 13.4483C16.4925 13.491 16.5114 13.5414 16.5159 13.594C16.5204 13.6467 16.5102 13.6996 16.4866 13.7468C16.4629 13.794 16.4267 13.8338 16.3819 13.8618C16.337 13.8897 16.2854 13.9048 16.2325 13.9053Z" fill="#22BAAF"/>
</g>
<path d="M4.53754 2.18401L2.33691 4.98376L3.2246 5.6813L5.42523 2.88154L4.53754 2.18401Z" fill="#22BAAF"/>
<path d="M15.1591 13.5602C15.203 13.3564 15.2924 13.1653 15.4206 13.001C15.5488 12.8367 15.7125 12.7035 15.8995 12.6114L16.467 13.4776C16.4948 13.5267 16.5072 13.583 16.5026 13.6393C16.4981 13.6955 16.4767 13.7491 16.4414 13.793C16.406 13.837 16.3583 13.8693 16.3043 13.8858C16.2504 13.9024 16.1927 13.9023 16.1387 13.8857L15.1591 13.5602Z" fill="#22BAAF"/>
</g>
</svg>
