<svg width="166" height="165" viewBox="0 0 166 165" fill="none" xmlns="http://www.w3.org/2000/svg">
<circle cx="83" cy="82.5" r="79.5" fill="white"/>
<circle cx="83" cy="82.5" r="79.5" fill="#26B824" fill-opacity="0.5"/>
<circle cx="83" cy="82.5" r="79.5" stroke="#21B95C" stroke-width="6"/>
<mask id="mask0_844_4226" style="mask-type:alpha" maskUnits="userSpaceOnUse" x="4" y="4" width="158" height="157">
<circle cx="83" cy="82.5" r="78.0605" fill="#EC5858"/>
</mask>
<g mask="url(#mask0_844_4226)">
<path d="M158.945 162.371H6.44702V91.3804H37.9986L82.6958 46.6829L127.394 91.3804H158.945V162.371Z" fill="#E6BE94"/>
<path d="M98.4716 130.819H66.9204V162.371H98.4716V130.819Z" fill="#996459"/>
<path d="M97.8143 120.302H67.5777C67.2146 120.302 66.9204 120.597 66.9204 120.96V130.82H98.4716V120.96C98.4716 120.597 98.1775 120.302 97.8143 120.302Z" fill="#4BB9EC"/>
<path d="M106.963 25.6489L111.248 19.2197C111.785 18.4135 111.836 17.3762 111.379 16.5211C110.922 15.6659 110.031 15.1318 109.061 15.1318H82.7679C81.3146 15.1318 80.1387 16.3078 80.1387 17.7611V33.5367C80.1387 34.99 81.3146 36.166 82.7679 36.166H109.061C110.031 36.166 110.922 35.6319 111.379 34.7767C111.836 33.9216 111.785 32.8843 111.248 32.0781L106.963 25.6489Z" fill="#FF4F19"/>
<path d="M82.7679 49.3122C81.3146 49.3122 80.1387 48.1362 80.1387 46.6829V12.5024C80.1387 11.0491 81.3146 9.87317 82.7679 9.87317C84.2213 9.87317 85.3972 11.0491 85.3972 12.5024V46.6829C85.3972 48.1362 84.2213 49.3122 82.7679 49.3122Z" fill="#5C546A"/>
<path d="M93.4136 58.8229C93.8192 57.8395 94.7795 57.2 95.8428 57.2H145.799C146.697 57.2 147.534 57.6594 148.017 58.417L166.422 87.3389C166.938 88.1504 166.969 89.1748 166.51 90.0168C166.047 90.8565 165.164 91.3801 164.204 91.3801H124.765C124.066 91.3801 123.399 91.1027 122.906 90.6097L93.9839 61.6878C93.2312 60.9358 93.0051 59.8062 93.4136 58.8229Z" fill="#FF4F19"/>
<path d="M72.0507 58.8229C71.6448 57.8392 70.6845 57.2 69.6216 57.2H19.6655C18.767 57.2 17.9299 57.6594 17.4471 58.417L-0.957799 87.3389C-1.47379 88.1504 -1.50469 89.1748 -1.04522 90.0168C-0.582799 90.8566 0.300306 91.3804 1.26065 91.3804H40.6997C41.3981 91.3804 42.0656 91.103 42.5585 90.6101L71.4805 61.6881C72.2328 60.9358 72.4589 59.8062 72.0507 58.8229Z" fill="#FF4F19"/>
<path d="M127.43 93.9738C126.757 93.9738 126.084 93.7172 125.571 93.2035L82.768 50.401L39.9655 93.2035C38.9384 94.2305 37.2744 94.2305 36.2473 93.2035C35.2203 92.1764 35.2203 90.5124 36.2473 89.4854L80.9091 44.8236C81.9361 43.7966 83.6001 43.7966 84.6272 44.8236L129.289 89.4854C130.316 90.5124 130.316 92.1764 129.289 93.2035C128.775 93.7168 128.102 93.9738 127.43 93.9738Z" fill="#E3001E"/>
<path d="M82.7683 113.166C88.9916 113.166 94.0366 108.121 94.0366 101.897C94.0366 95.6741 88.9916 90.6292 82.7683 90.6292C76.545 90.6292 71.5 95.6741 71.5 101.897C71.5 108.121 76.545 113.166 82.7683 113.166Z" fill="#FFEBB7"/>
<path d="M82.7678 94.3853C81.7297 94.3853 80.8898 95.2252 80.8898 96.2633V100.019H77.1337C76.0956 100.019 75.2556 100.859 75.2556 101.897C75.2556 102.936 76.0956 103.775 77.1337 103.775H82.7678C83.8059 103.775 84.6459 102.936 84.6459 101.897V96.2633C84.6459 95.2252 83.8059 94.3853 82.7678 94.3853Z" fill="#5C546A"/>
<path d="M122.135 108.471C122.135 104.84 119.192 101.897 115.562 101.897C111.931 101.897 108.989 104.84 108.989 108.471C108.989 108.921 109.035 109.36 109.121 109.785H108.989V120.302H122.135V109.785H122.002C122.089 109.36 122.135 108.921 122.135 108.471Z" fill="#4BB9EC"/>
<path d="M115.634 99.2683C110.56 99.2683 106.431 103.397 106.431 108.471V120.302C106.431 121.756 107.607 122.932 109.06 122.932H122.207C123.66 122.932 124.836 121.756 124.836 120.302V108.471C124.836 103.397 120.707 99.2683 115.634 99.2683ZM115.634 104.527C117.808 104.527 119.577 106.296 119.577 108.471V109.785H111.69V108.471C111.69 106.296 113.459 104.527 115.634 104.527ZM111.69 117.673V115.044H119.577V117.673H111.69Z" fill="#7E5C62"/>
<path d="M56.4757 133.449H43.3293V149.224H56.4757V133.449Z" fill="#4BB9EC"/>
<path d="M56.4753 130.819H43.329C41.8756 130.819 40.6997 131.995 40.6997 133.449V149.224C40.6997 150.678 41.8756 151.853 43.329 151.853H56.4753C57.9286 151.853 59.1046 150.678 59.1046 149.224V133.449C59.1046 131.995 57.9286 130.819 56.4753 130.819ZM53.846 136.078V138.707H45.9582V136.078H53.846ZM45.9582 146.595V143.966H53.846V146.595H45.9582Z" fill="#7E5C62"/>
<path d="M32.7401 133.449H19.5938V149.224H32.7401V133.449Z" fill="#4BB9EC"/>
<path d="M32.74 130.82H19.5936C18.1403 130.82 16.9644 131.996 16.9644 133.449V149.224C16.9644 150.678 18.1403 151.854 19.5936 151.854H32.74C34.1933 151.854 35.3692 150.678 35.3692 149.224V133.449C35.3692 131.996 34.1933 130.82 32.74 130.82ZM30.1107 136.078V138.707H22.2229V136.078H30.1107ZM22.2229 146.595V143.966H30.1107V146.595H22.2229Z" fill="#7E5C62"/>
<path d="M145.87 133.449H132.724V149.224H145.87V133.449Z" fill="#4BB9EC"/>
<path d="M145.87 130.819H132.724C131.271 130.819 130.095 131.995 130.095 133.449V149.224C130.095 150.678 131.271 151.853 132.724 151.853H145.87C147.324 151.853 148.5 150.678 148.5 149.224V133.449C148.5 131.995 147.324 130.819 145.87 130.819ZM143.241 136.078V138.707H135.353V136.078H143.241ZM135.353 146.595V143.966H143.241V146.595H135.353Z" fill="#7E5C62"/>
<path d="M122.135 133.449H108.989V149.224H122.135V133.449Z" fill="#4BB9EC"/>
<path d="M122.135 130.819H108.989C107.535 130.819 106.359 131.995 106.359 133.449V149.224C106.359 150.678 107.535 151.853 108.989 151.853H122.135C123.588 151.853 124.764 150.678 124.764 149.224V133.449C124.764 131.995 123.588 130.819 122.135 130.819ZM119.506 136.078V138.707H111.618V136.078H119.506ZM111.618 146.595V143.966H119.506V146.595H111.618Z" fill="#7E5C62"/>
<path d="M145.727 108.471C145.727 104.84 142.784 101.897 139.154 101.897C135.523 101.897 132.581 104.84 132.581 108.471C132.581 108.921 132.627 109.36 132.713 109.785H132.581V120.302H145.727V109.785H145.594C145.681 109.36 145.727 108.921 145.727 108.471Z" fill="#4BB9EC"/>
<path d="M139.225 99.2683C134.151 99.2683 130.023 103.397 130.023 108.471V120.302C130.023 121.756 131.199 122.932 132.652 122.932H145.798C147.252 122.932 148.428 121.756 148.428 120.302V108.471C148.428 103.397 144.299 99.2683 139.225 99.2683ZM139.225 104.527C141.4 104.527 143.169 106.296 143.169 108.471V109.785H135.281V108.471C135.281 106.296 137.05 104.527 139.225 104.527ZM135.281 117.673V115.044H143.169V117.673H135.281Z" fill="#7E5C62"/>
<path d="M32.6681 108.471C32.6681 104.84 29.7253 101.897 26.0949 101.897C22.4645 101.897 19.5217 104.84 19.5217 108.471C19.5217 108.921 19.5681 109.36 19.6542 109.785H19.5217V120.302H32.6681V109.785H32.5356C32.6217 109.36 32.6681 108.921 32.6681 108.471Z" fill="#4BB9EC"/>
<path d="M26.1668 99.2683C21.093 99.2683 16.9644 103.397 16.9644 108.471V120.302C16.9644 121.756 18.1403 122.932 19.5936 122.932H32.74C34.1933 122.932 35.3692 121.756 35.3692 120.302V108.471C35.3692 103.397 31.2406 99.2683 26.1668 99.2683ZM26.1668 104.527C28.3415 104.527 30.1107 106.296 30.1107 108.471V109.785H22.2229V108.471C22.2229 106.296 23.9921 104.527 26.1668 104.527ZM22.2229 117.673V115.044H30.1107V117.673H22.2229Z" fill="#7E5C62"/>
<path d="M56.2599 108.471C56.2599 104.841 53.3171 101.898 49.6867 101.898C46.0563 101.898 43.1135 104.841 43.1135 108.471C43.1135 108.921 43.1599 109.361 43.246 109.786H43.1135V120.303H56.2599V109.786H56.1274C56.2135 109.361 56.2599 108.921 56.2599 108.471Z" fill="#4BB9EC"/>
<path d="M49.7588 99.2683C44.685 99.2683 40.5564 103.397 40.5564 108.471V120.302C40.5564 121.756 41.7323 122.932 43.1857 122.932H56.332C57.7853 122.932 58.9613 121.756 58.9613 120.302V108.471C58.9613 103.397 54.8323 99.2683 49.7588 99.2683ZM49.7588 104.527C51.9336 104.527 53.7027 106.296 53.7027 108.471V109.785H45.8149V108.471C45.8149 106.296 47.5838 104.527 49.7588 104.527ZM45.8149 117.673V115.044H53.7027V117.673H45.8149Z" fill="#7E5C62"/>
<path d="M82.7679 115.044C75.5189 115.044 69.6216 109.147 69.6216 101.898C69.6216 94.6485 75.5189 88.7512 82.7679 88.7512C90.0169 88.7512 95.9143 94.6485 95.9143 101.898C95.9143 109.147 90.0169 115.044 82.7679 115.044ZM82.7679 92.5073C77.5904 92.5073 73.3777 96.7195 73.3777 101.898C73.3777 107.076 77.5904 111.288 82.7679 111.288C87.9455 111.288 92.1582 107.076 92.1582 101.898C92.1582 96.7195 87.9455 92.5073 82.7679 92.5073Z" fill="#7E5C62"/>
<path d="M93.2852 117.673H72.2511C67.9016 117.673 64.3633 121.212 64.3633 125.561V162.371C64.3633 163.824 65.5392 165 66.9925 165C68.4459 165 69.6218 163.824 69.6218 162.371V133.449H80.0669V162.371H85.3254V133.449H95.9145V162.371C95.9145 163.824 97.0904 165 98.5438 165C99.9971 165 101.173 163.824 101.173 162.371V125.561C101.173 121.212 97.6347 117.673 93.2852 117.673ZM95.9145 128.19H69.6218V125.561C69.6218 124.11 70.8004 122.932 72.2511 122.932H93.2852C94.7359 122.932 95.9145 124.11 95.9145 125.561V128.19Z" fill="#7E5C62"/>
<path d="M164.275 165H1.26062C-0.192712 165 -1.36865 163.824 -1.36865 162.371C-1.36865 160.917 -0.192712 159.741 1.26062 159.741H164.275C165.729 159.741 166.904 160.917 166.904 162.371C166.904 163.824 165.729 165 164.275 165Z" fill="#5C546A"/>
<path d="M74.9391 65.393L73.2558 72.9595C73.2558 72.9595 72.9168 75.18 73.4519 79.5837C73.4519 79.5837 82.0071 81.9653 94.7725 78.9292C94.7725 78.9292 95.4686 66.933 91.1498 61.9193C86.8311 56.9055 74.9391 65.393 74.9391 65.393Z" fill="#75B1C9"/>
<path d="M74.8758 65.3251C74.5091 65.4587 73.3537 72.1141 73.3537 72.1141C92.4059 69.6893 89.4907 64.2185 89.4907 64.2185C89.4907 64.2185 75.2447 65.1918 74.8758 65.3251Z" fill="#FFD3AE"/>
<ellipse cx="72.2625" cy="54.878" rx="2.08489" ry="2.08489" transform="rotate(-24.22 72.2625 54.878)" fill="#FFE0C2"/>
<ellipse cx="72.6776" cy="54.8589" rx="1.67351" ry="1.67351" transform="rotate(-78.44 72.6776 54.8589)" fill="#FFD3AE"/>
<ellipse cx="93.8848" cy="54.2275" rx="2.08489" ry="2.08489" transform="rotate(-24.22 93.8848 54.2275)" fill="#FFE0C2"/>
<ellipse cx="93.4743" cy="54.2416" rx="1.67351" ry="1.67351" transform="rotate(-46.72 93.4743 54.2416)" fill="#FFD3AE"/>
<path d="M72.1389 56.452C72.1389 56.452 70.1209 46.8126 81.7478 46.4594C93.3746 46.1062 94.1583 55.7795 94.1583 55.7795C94.1583 55.7795 95.1277 62.3831 83.2998 62.7457C71.4719 63.1083 72.1389 56.452 72.1389 56.452Z" fill="#FFE0C2"/>
<path d="M77.1158 53.4535C77.5683 53.442 78.0181 53.5327 78.4297 53.7185C78.4818 53.4648 78.5032 53.2059 78.4934 52.9469C78.4613 51.9877 78.0475 51.2209 77.5669 51.2338C77.0863 51.2467 76.727 52.0338 76.7592 52.991C76.765 53.1544 76.7821 53.3173 76.8104 53.4785C76.9119 53.4659 77.013 53.4575 77.1158 53.4535Z" fill="#634E42"/>
<path d="M88.6557 53.0961C88.2034 53.1087 87.7607 53.2251 87.3629 53.4359C87.2939 53.182 87.2548 52.9212 87.2463 52.6586C87.2155 51.6867 87.5783 50.8891 88.0569 50.8751C88.5355 50.8611 88.9504 51.6398 88.9813 52.6095C88.9864 52.7749 88.98 52.9403 88.962 53.1047C88.8601 53.0965 88.7579 53.0936 88.6557 53.0961Z" fill="#634E42"/>
<path d="M72.1531 52.5025C72.1531 52.5025 72.1568 53.6129 72.9455 53.4937C73.7341 53.3746 73.857 52.2709 73.857 52.2709C73.857 52.2709 74.7374 52.0282 74.7066 51.1747C74.7066 51.1747 76.238 48.8603 73.503 48.8281C73.503 48.8281 71.1007 48.034 71.5921 50.6764C71.5916 50.6808 69.964 52.0815 72.1531 52.5025Z" fill="#EFEFEF"/>
<path d="M93.5977 51.9169C93.5977 51.9169 93.6557 53.0237 92.9266 52.9605C92.1975 52.8972 92.0206 51.789 92.0206 51.789C92.0206 51.789 91.1902 51.597 91.1779 50.7423C91.1779 50.7423 89.6405 48.5174 92.1501 48.331C92.1501 48.331 94.3088 47.397 94.0088 50.0683C94.0095 50.0617 95.5819 51.3678 93.5977 51.9169Z" fill="#EFEFEF"/>
<path d="M83.2442 55.0392L83.7247 70.3224L83.4805 70.3747L83.235 70.3359C82.0393 70.1279 79.0816 69.4337 78.8638 67.6716C78.8638 67.6716 74.3714 67.3489 74.1356 65.1344C74.1356 65.1344 69.6626 62.9597 71.5093 59.5779C71.5093 59.5779 71.1421 53.2171 72.4344 52.0685L72.6219 52.7012C72.6219 52.7012 74.9545 54.2177 74.6803 56.0343C74.6803 56.0343 77.1443 55.5092 78.1239 57.2106C78.1239 57.2106 80.2905 54.7439 81.8292 54.7714C82.2202 54.7652 82.6107 54.8019 82.9936 54.8808C83.2844 54.9481 83.2442 55.0392 83.2442 55.0392Z" fill="#EFEFEF"/>
<path d="M92.4842 64.7525C92.3864 66.9837 87.9596 67.5706 87.9596 67.5706C87.8531 69.3486 84.9682 70.2172 83.7993 70.4965L83.5571 70.5494L83.3137 70.5107L82.8535 55.1877C82.8535 55.1877 82.8041 55.0999 83.0908 54.9953C83.465 54.8941 83.8491 54.8339 84.2362 54.8156C85.757 54.6994 88.0503 57.0427 88.0503 57.0427C88.9037 55.2845 91.3892 55.6544 91.3892 55.6544C91.0057 53.851 93.2223 52.1947 93.2223 52.1947L93.3674 51.5578C94.7177 52.6302 94.7424 59.0244 94.7424 59.0244C96.7788 62.3038 92.4842 64.7525 92.4842 64.7525Z" fill="#EFEFEF"/>
<path d="M86.1353 48.5499C86.1353 48.5499 85.4729 46.7759 87.4489 46.2209C89.4249 45.6659 89.9812 47.7653 89.9812 47.7653C89.9812 47.7653 88.5775 46.8913 87.7263 47.1278C86.8751 47.3643 86.6338 47.5669 86.1353 48.5499Z" fill="#EFEFEF"/>
<path d="M75.2928 48.1592C75.2928 48.1592 75.4535 46.2244 77.5012 46.4923C79.5488 46.7603 79.158 48.9434 79.158 48.9434C79.158 48.9434 78.2511 47.569 77.3709 47.4545C76.4908 47.34 76.178 47.4368 75.2928 48.1592Z" fill="#EFEFEF"/>
<path d="M85.4244 53.6328C85.3384 53.6363 85.2529 53.6467 85.1685 53.664C84.8171 53.281 84.1646 53.0341 83.4181 53.0502C82.6716 53.0663 82.0352 53.3583 81.706 53.7621C81.6206 53.7511 81.5346 53.7464 81.4485 53.7479C80.8903 53.7644 80.447 54.0724 80.4579 54.4368C80.4688 54.8011 80.9297 55.0795 81.4879 55.0629C81.5739 55.0597 81.6595 55.0493 81.7437 55.0318C82.0973 55.415 82.7477 55.6617 83.4942 55.6456C84.2407 55.6295 84.8773 55.3354 85.2065 54.9316C85.291 54.9479 85.3767 54.9569 85.4627 54.9585C86.0211 54.9398 86.4642 54.6339 86.4533 54.2696C86.4423 53.9053 85.9932 53.6174 85.4244 53.6328Z" fill="#FFD3AE"/>
<path d="M71.2627 69.2478C71.2627 69.2478 66.6232 67.2867 68.3267 62.6563C68.3267 62.6563 66.5261 59.8019 67.2204 59.0136C67.9147 58.2252 70.293 58.8741 70.293 58.8741C70.293 58.8741 69.8758 58.0445 71.2713 57.8246C72.6668 57.6046 70.9251 63.3579 74.675 65.3643C77.2064 66.7116 74.3839 70.3672 71.2627 69.2478Z" fill="#FFE0C2"/>
<path d="M71.6009 48.9657L71.5222 49.0434C71.4981 49.0681 71.4655 49.0873 71.4279 49.099C71.3904 49.1106 71.3493 49.1143 71.3092 49.1095C71.2691 49.1048 71.2315 49.0918 71.2005 49.072C71.1695 49.0522 71.1462 49.0264 71.1334 48.9973C70.8917 48.4412 70.4606 47.9429 69.8834 47.5523C69.8432 47.5247 69.7908 47.5094 69.7364 47.5094C69.6821 47.5094 69.6297 47.5247 69.5894 47.5523C69.0124 47.9433 68.581 48.4414 68.3379 48.9973C68.3259 49.0266 68.3033 49.0529 68.2727 49.0732C68.2421 49.0934 68.2047 49.1069 68.1646 49.112C68.1244 49.1172 68.0832 49.1138 68.0455 49.1024C68.0077 49.0909 67.9749 49.0717 67.9507 49.047L67.872 48.9657C67.8513 48.9449 67.8246 48.928 67.7937 48.9163C67.7629 48.9047 67.7289 48.8986 67.6945 48.8986C67.66 48.8986 67.626 48.9047 67.5952 48.9163C67.5644 48.928 67.5376 48.9449 67.5169 48.9657C64.9127 51.5839 66.99 53.3771 66.99 53.3771H72.4829C72.4829 53.3771 74.5602 51.5839 71.9559 48.9657C71.9353 48.9449 71.9085 48.928 71.8777 48.9163C71.8469 48.9047 71.8129 48.8986 71.7784 48.8986C71.7439 48.8986 71.7099 48.9047 71.6791 48.9163C71.6483 48.928 71.6215 48.9449 71.6009 48.9657Z" fill="#EC631D"/>
<path d="M72.4832 53.3771H71.7763C71.7763 53.3771 73.783 51.6494 71.3892 49.1113C71.4429 49.1035 71.4906 49.0805 71.5225 49.047L71.6012 48.9694C71.6219 48.9485 71.6487 48.9316 71.6795 48.9199C71.7103 48.9083 71.7443 48.9022 71.7788 48.9022C71.8132 48.9022 71.8472 48.9083 71.878 48.9199C71.9088 48.9316 71.9356 48.9485 71.9563 48.9694C74.5606 51.5851 72.4832 53.3771 72.4832 53.3771Z" fill="#DD4429"/>
<path d="M73.4806 53.5202C73.4798 53.4823 73.4593 53.446 73.4236 53.4193C73.3879 53.3925 73.3398 53.3774 73.2895 53.3771H66.1835C66.1332 53.3774 66.0851 53.3925 66.0494 53.4193C66.0136 53.446 65.9932 53.4823 65.9924 53.5202C65.9731 54.9106 67.66 55.4165 67.66 55.4165H71.813C71.813 55.4165 73.4999 54.9106 73.4806 53.5202Z" fill="#B7C1CA"/>
<path d="M73.4809 53.5202C73.5002 54.9106 71.8133 55.4165 71.8133 55.4165H71.0935C71.0935 55.4165 72.7788 54.9106 72.7595 53.5202C72.7595 53.4823 72.7396 53.4459 72.704 53.419C72.6685 53.3922 72.6202 53.3771 72.57 53.3771H73.2897C73.34 53.3774 73.3882 53.3925 73.4239 53.4193C73.4596 53.446 73.4801 53.4823 73.4809 53.5202Z" fill="#A3AEB7"/>
<path d="M69.7358 55.4166H67.6826L68.563 60.8301C68.6498 61.3651 69.135 61.7607 69.7053 61.7607H69.7776C70.3479 61.7607 70.8331 61.3651 70.9199 60.8301L71.7955 55.4166H69.7358Z" fill="#B7C1CA"/>
<path d="M71.7904 55.4166L70.9148 60.8301C70.828 61.3651 70.3428 61.7607 69.7725 61.7607H69.7002C69.5946 61.7604 69.4898 61.7468 69.3901 61.7206C69.8175 61.6078 70.1501 61.2644 70.2207 60.8301L71.0963 55.4166H71.7904Z" fill="#A3AEB7"/>
<path d="M69.5685 50.7345C67.4109 51.9186 68.8407 53.3769 68.8407 53.3769H70.6321C70.6321 53.3769 72.0619 51.921 69.9043 50.7345C69.8551 50.7084 69.7965 50.6945 69.7364 50.6945C69.6763 50.6945 69.6177 50.7084 69.5685 50.7345Z" fill="#F9AF2F"/>
<path d="M70.6322 53.3769H70.0361C70.0361 53.3769 71.4065 51.9793 69.4385 50.8097C69.4802 50.7842 69.5236 50.76 69.5686 50.7345C69.6178 50.7084 69.6764 50.6945 69.7365 50.6945C69.7966 50.6945 69.8552 50.7084 69.9044 50.7345C72.062 51.9186 70.6322 53.3769 70.6322 53.3769Z" fill="#F18415"/>
<path d="M71.882 57.7872H67.5988C67.497 57.7872 67.3962 57.7721 67.3021 57.7426C67.2081 57.7131 67.1226 57.67 67.0507 57.6155C66.9788 57.5611 66.9218 57.4965 66.8829 57.4254C66.8441 57.3543 66.8243 57.2781 66.8245 57.2012C66.8245 57.0461 66.9061 56.8974 67.0513 56.7877C67.1965 56.6781 67.3935 56.6165 67.5988 56.6165H71.882C72.0874 56.6165 72.2843 56.6781 72.4296 56.7877C72.5748 56.8974 72.6564 57.0461 72.6564 57.2012C72.6566 57.2781 72.6367 57.3543 72.5979 57.4254C72.5591 57.4965 72.502 57.5611 72.4301 57.6155C72.3582 57.67 72.2728 57.7131 72.1787 57.7426C72.0846 57.7721 71.9838 57.7872 71.882 57.7872Z" fill="#30B5AB"/>
<path d="M72.6567 57.2012C72.6567 57.3564 72.5752 57.5053 72.43 57.6152C72.2848 57.725 72.0879 57.7869 71.8823 57.7872H71.312C71.5115 57.7804 71.6998 57.7157 71.8378 57.6067C71.9757 57.4976 72.0527 57.3526 72.0527 57.2018C72.0527 57.051 71.9757 56.906 71.8378 56.797C71.6998 56.688 71.5115 56.6233 71.312 56.6165H71.8823C72.0877 56.6165 72.2847 56.6781 72.4299 56.7877C72.5751 56.8974 72.6567 57.0461 72.6567 57.2012Z" fill="#11877C"/>
<path d="M96.4278 68.1614C96.4278 68.1614 97.8635 72.9808 93.1703 74.8013C93.1703 74.8013 92.0968 78.0741 91.0386 78.0872C89.9804 78.1004 88.9681 75.8659 88.9681 75.8659C88.9681 75.8659 88.5906 76.7422 87.5258 75.8352C86.4611 74.9283 92.3456 69.7475 92.2867 66.1548C92.2278 62.5622 95.3718 64.4439 96.4278 68.1614Z" fill="#FFE0C2"/>
<rect x="67.9783" y="78.2341" width="30.2366" height="5.58719" rx="2.7936" fill="#7E5C62"/>
<path d="M39.8936 92.8892C38.3636 92.8892 36.8786 92.7002 35.4386 92.3222C33.9986 91.9442 32.8286 91.4402 31.9286 90.8102L33.6836 86.8682C34.5296 87.4262 35.5106 87.8762 36.6266 88.2182C37.7426 88.5602 38.8406 88.7312 39.9206 88.7312C41.9726 88.7312 42.9986 88.2182 42.9986 87.1922C42.9986 86.6522 42.7016 86.2562 42.1076 86.0042C41.5316 85.7342 40.5956 85.4552 39.2996 85.1672C37.8776 84.8612 36.6896 84.5372 35.7356 84.1952C34.7816 83.8352 33.9626 83.2682 33.2786 82.4942C32.5946 81.7202 32.2526 80.6762 32.2526 79.3622C32.2526 78.2102 32.5676 77.1752 33.1976 76.2572C33.8276 75.3212 34.7636 74.5832 36.0056 74.0432C37.2656 73.5032 38.8046 73.2332 40.6226 73.2332C41.8646 73.2332 43.0886 73.3772 44.2946 73.6652C45.5006 73.9352 46.5626 74.3402 47.4806 74.8802L45.8336 78.8492C44.0336 77.8772 42.2876 77.3912 40.5956 77.3912C39.5336 77.3912 38.7596 77.5532 38.2736 77.8772C37.7876 78.1832 37.5446 78.5882 37.5446 79.0922C37.5446 79.5962 37.8326 79.9742 38.4086 80.2262C38.9846 80.4782 39.9116 80.7392 41.1896 81.0092C42.6296 81.3152 43.8176 81.6482 44.7536 82.0082C45.7076 82.3502 46.5266 82.9082 47.2106 83.6822C47.9126 84.4382 48.2636 85.4732 48.2636 86.7872C48.2636 87.9212 47.9486 88.9472 47.3186 89.8652C46.6886 90.7832 45.7436 91.5212 44.4836 92.0792C43.2236 92.6192 41.6936 92.8892 39.8936 92.8892ZM59.049 92.7542C57.429 92.7542 55.98 92.4302 54.702 91.7822C53.424 91.1342 52.425 90.2342 51.705 89.0822C51.003 87.9302 50.652 86.6252 50.652 85.1672C50.652 83.7092 51.003 82.4132 51.705 81.2792C52.425 80.1272 53.424 79.2362 54.702 78.6062C55.98 77.9582 57.429 77.6342 59.049 77.6342C60.705 77.6342 62.136 77.9942 63.342 78.7142C64.548 79.4162 65.403 80.3972 65.907 81.6572L61.938 83.6822C61.272 82.3682 60.3 81.7112 59.022 81.7112C58.104 81.7112 57.339 82.0172 56.727 82.6292C56.133 83.2412 55.836 84.0872 55.836 85.1672C55.836 86.2652 56.133 87.1292 56.727 87.7592C57.339 88.3712 58.104 88.6772 59.022 88.6772C60.3 88.6772 61.272 88.0202 61.938 86.7062L65.907 88.7312C65.403 89.9912 64.548 90.9812 63.342 91.7012C62.136 92.4032 60.705 92.7542 59.049 92.7542ZM78.3968 77.6342C80.2148 77.6342 81.6728 78.1742 82.7708 79.2542C83.8868 80.3342 84.4448 81.9632 84.4448 84.1412V92.5112H79.3148V84.9782C79.3148 82.9802 78.5138 81.9812 76.9118 81.9812C76.0298 81.9812 75.3188 82.2692 74.7788 82.8452C74.2568 83.4212 73.9958 84.2852 73.9958 85.4372V92.5112H68.8658V72.4772H73.9958V79.2272C74.5538 78.7052 75.2108 78.3092 75.9668 78.0392C76.7228 77.7692 77.5328 77.6342 78.3968 77.6342ZM96.3006 92.7542C94.7346 92.7542 93.3216 92.4302 92.0616 91.7822C90.8016 91.1342 89.8116 90.2342 89.0916 89.0822C88.3896 87.9302 88.0386 86.6252 88.0386 85.1672C88.0386 83.7272 88.3896 82.4312 89.0916 81.2792C89.8116 80.1272 90.7926 79.2362 92.0346 78.6062C93.2946 77.9582 94.7166 77.6342 96.3006 77.6342C97.8846 77.6342 99.3066 77.9582 100.567 78.6062C101.827 79.2362 102.808 80.1272 103.51 81.2792C104.212 82.4132 104.563 83.7092 104.563 85.1672C104.563 86.6252 104.212 87.9302 103.51 89.0822C102.808 90.2342 101.827 91.1342 100.567 91.7822C99.3066 92.4302 97.8846 92.7542 96.3006 92.7542ZM96.3006 88.6772C97.2006 88.6772 97.9386 88.3712 98.5146 87.7592C99.0906 87.1292 99.3786 86.2652 99.3786 85.1672C99.3786 84.0872 99.0906 83.2412 98.5146 82.6292C97.9386 82.0172 97.2006 81.7112 96.3006 81.7112C95.4006 81.7112 94.6626 82.0172 94.0866 82.6292C93.5106 83.2412 93.2226 84.0872 93.2226 85.1672C93.2226 86.2652 93.5106 87.1292 94.0866 87.7592C94.6626 88.3712 95.4006 88.6772 96.3006 88.6772ZM115.363 92.7542C113.797 92.7542 112.384 92.4302 111.124 91.7822C109.864 91.1342 108.874 90.2342 108.154 89.0822C107.452 87.9302 107.101 86.6252 107.101 85.1672C107.101 83.7272 107.452 82.4312 108.154 81.2792C108.874 80.1272 109.855 79.2362 111.097 78.6062C112.357 77.9582 113.779 77.6342 115.363 77.6342C116.947 77.6342 118.369 77.9582 119.629 78.6062C120.889 79.2362 121.87 80.1272 122.572 81.2792C123.274 82.4132 123.625 83.7092 123.625 85.1672C123.625 86.6252 123.274 87.9302 122.572 89.0822C121.87 90.2342 120.889 91.1342 119.629 91.7822C118.369 92.4302 116.947 92.7542 115.363 92.7542ZM115.363 88.6772C116.263 88.6772 117.001 88.3712 117.577 87.7592C118.153 87.1292 118.441 86.2652 118.441 85.1672C118.441 84.0872 118.153 83.2412 117.577 82.6292C117.001 82.0172 116.263 81.7112 115.363 81.7112C114.463 81.7112 113.725 82.0172 113.149 82.6292C112.573 83.2412 112.285 84.0872 112.285 85.1672C112.285 86.2652 112.573 87.1292 113.149 87.7592C113.725 88.3712 114.463 88.6772 115.363 88.6772ZM127.081 72.4772H132.211V92.5112H127.081V72.4772Z" fill="white"/>
<path d="M35.4386 92.3222L35.9464 90.3878L35.4386 92.3222ZM31.9286 90.8102L30.1015 89.9968L29.4308 91.5031L30.7816 92.4487L31.9286 90.8102ZM33.6836 86.8682L34.7848 85.1987L32.8158 83.9L31.8565 86.0548L33.6836 86.8682ZM36.6266 88.2182L37.2126 86.306L36.6266 88.2182ZM42.1076 86.0042L41.2587 87.8151L41.2923 87.8309L41.3265 87.8454L42.1076 86.0042ZM39.2996 85.1672L39.7334 83.2148L39.7203 83.212L39.2996 85.1672ZM35.7356 84.1952L35.0295 86.0664L35.045 86.0723L35.0606 86.0779L35.7356 84.1952ZM33.1976 76.2572L34.8466 77.3889L34.8517 77.3815L34.8567 77.374L33.1976 76.2572ZM36.0056 74.0432L35.2177 72.2049L35.2081 72.2091L36.0056 74.0432ZM44.2946 73.6652L43.83 75.6105L43.8438 75.6138L43.8576 75.6169L44.2946 73.6652ZM47.4806 74.8802L49.3278 75.6468L49.995 74.039L48.4946 73.1564L47.4806 74.8802ZM45.8336 78.8492L44.8833 80.609L46.832 81.6614L47.6808 79.6158L45.8336 78.8492ZM38.2736 77.8772L39.3392 79.5697L39.3613 79.5558L39.383 79.5413L38.2736 77.8772ZM38.4086 80.2262L37.6069 82.0585L38.4086 80.2262ZM41.1896 81.0092L41.6053 79.0529L41.603 79.0524L41.1896 81.0092ZM44.7536 82.0082L44.0356 83.8749L44.057 83.8832L44.0786 83.8909L44.7536 82.0082ZM47.2106 83.6822L45.7119 85.0066L45.7282 85.0251L45.745 85.0431L47.2106 83.6822ZM47.3186 89.8652L45.6695 88.7335L47.3186 89.8652ZM44.4836 92.0792L45.2714 93.9175L45.2824 93.9128L45.2934 93.9079L44.4836 92.0792ZM39.8936 90.8892C38.5302 90.8892 37.2161 90.7211 35.9464 90.3878L34.9308 94.2567C36.5411 94.6794 38.197 94.8892 39.8936 94.8892V90.8892ZM35.9464 90.3878C34.6593 90.0499 33.7263 89.6273 33.0755 89.1718L30.7816 92.4487C31.9308 93.2531 33.3379 93.8386 34.9308 94.2567L35.9464 90.3878ZM33.7557 91.6237L35.5107 87.6817L31.8565 86.0548L30.1015 89.9968L33.7557 91.6237ZM32.5824 88.5378C33.6097 89.2153 34.7692 89.7408 36.0406 90.1305L37.2126 86.306C36.252 86.0116 35.4495 85.6371 34.7848 85.1987L32.5824 88.5378ZM36.0406 90.1305C37.3312 90.526 38.6266 90.7312 39.9206 90.7312V86.7312C39.0546 86.7312 38.154 86.5945 37.2126 86.306L36.0406 90.1305ZM39.9206 90.7312C41.0487 90.7312 42.1926 90.6008 43.1235 90.1353C43.6173 89.8885 44.1077 89.5188 44.4703 88.9749C44.8412 88.4186 44.9986 87.7987 44.9986 87.1922H40.9986C40.9986 87.0988 41.0277 86.9278 41.1421 86.7561C41.2482 86.597 41.3539 86.548 41.3346 86.5576C41.3076 86.5712 41.1922 86.62 40.9384 86.6623C40.69 86.7037 40.3556 86.7312 39.9206 86.7312V90.7312ZM44.9986 87.1922C44.9986 86.5311 44.8079 85.8663 44.3758 85.2902C43.9608 84.7369 43.4143 84.3861 42.8887 84.1631L41.3265 87.8454C41.3948 87.8744 41.2939 87.8476 41.1758 87.6902C41.1164 87.611 41.0679 87.5181 41.0365 87.4191C41.0057 87.322 40.9986 87.2421 40.9986 87.1922H44.9986ZM42.9564 84.1933C42.17 83.8247 41.053 83.5081 39.7334 83.2149L38.8657 87.1196C40.1381 87.4024 40.8931 87.6438 41.2587 87.8151L42.9564 84.1933ZM39.7203 83.212C38.3509 82.9173 37.2543 82.6151 36.4105 82.3126L35.0606 86.0779C36.1248 86.4594 37.4043 86.8052 38.8788 87.1225L39.7203 83.212ZM36.4417 82.324C35.7966 82.0806 35.2484 81.7031 34.7772 81.1698L31.7799 83.8186C32.6767 84.8334 33.7666 85.5899 35.0295 86.0664L36.4417 82.324ZM34.7772 81.1698C34.4967 80.8524 34.2526 80.3253 34.2526 79.3622H30.2526C30.2526 81.0272 30.6925 82.5881 31.7799 83.8186L34.7772 81.1698ZM34.2526 79.3622C34.2526 78.5994 34.4535 77.9617 34.8466 77.3889L31.5485 75.1255C30.6817 76.3887 30.2526 77.8211 30.2526 79.3622H34.2526ZM34.8567 77.374C35.2344 76.8129 35.84 76.2961 36.803 75.8774L35.2081 72.2091C33.6871 72.8704 32.4207 73.8296 31.5384 75.1405L34.8567 77.374ZM36.7934 75.8815C37.7375 75.4769 38.9916 75.2332 40.6226 75.2332V71.2332C38.6175 71.2332 36.7936 71.5296 35.2177 72.2049L36.7934 75.8815ZM40.6226 75.2332C41.7084 75.2332 42.7765 75.3589 43.83 75.6105L44.7591 71.7199C43.4007 71.3955 42.0208 71.2332 40.6226 71.2332V75.2332ZM43.8576 75.6169C44.8924 75.8486 45.754 76.185 46.4665 76.6041L48.4946 73.1564C47.3712 72.4955 46.1087 72.0219 44.7315 71.7135L43.8576 75.6169ZM45.6333 74.1137L43.9863 78.0827L47.6808 79.6158L49.3278 75.6468L45.6333 74.1137ZM46.7839 77.0894C44.7525 75.9925 42.682 75.3912 40.5956 75.3912V79.3912C41.8931 79.3912 43.3146 79.762 44.8833 80.609L46.7839 77.0894ZM40.5956 75.3912C39.418 75.3912 38.1523 75.5544 37.1642 76.2131L39.383 79.5413C39.3529 79.5614 39.4081 79.5164 39.6283 79.4703C39.8437 79.4252 40.1586 79.3912 40.5956 79.3912V75.3912ZM37.2079 76.1848C36.2361 76.7966 35.5446 77.795 35.5446 79.0922H39.5446C39.5446 79.1774 39.5194 79.3102 39.4418 79.4395C39.3707 79.558 39.3051 79.5911 39.3392 79.5697L37.2079 76.1848ZM35.5446 79.0922C35.5446 79.7538 35.7436 80.4066 36.1697 80.9658C36.5757 81.4987 37.1046 81.8388 37.6069 82.0585L39.2102 78.3939C39.1365 78.3617 39.2334 78.3867 39.3514 78.5416C39.4119 78.621 39.4645 78.7178 39.4998 78.8258C39.5346 78.9326 39.5446 79.0255 39.5446 79.0922H35.5446ZM37.6069 82.0585C38.3804 82.3969 39.4753 82.6912 40.7762 82.966L41.603 79.0524C40.3478 78.7872 39.5887 78.5595 39.2102 78.3939L37.6069 82.0585ZM40.7739 82.9655C42.1538 83.2588 43.2317 83.5657 44.0356 83.8749L45.4715 80.1415C44.4034 79.7307 43.1053 79.3717 41.6053 79.0529L40.7739 82.9655ZM44.0786 83.8909C44.7091 84.1169 45.2466 84.4801 45.7119 85.0066L48.7092 82.3578C47.8065 81.3364 46.706 80.5835 45.4285 80.1256L44.0786 83.8909ZM45.745 85.0431C46.017 85.336 46.2636 85.8347 46.2636 86.7872H50.2636C50.2636 85.1118 49.8082 83.5404 48.6762 82.3213L45.745 85.0431ZM46.2636 86.7872C46.2636 87.5252 46.0665 88.1552 45.6695 88.7335L48.9676 90.9969C49.8307 89.7393 50.2636 88.3173 50.2636 86.7872H46.2636ZM45.6695 88.7335C45.294 89.2808 44.6751 89.807 43.6737 90.2505L45.2934 93.9079C46.812 93.2354 48.0832 92.2857 48.9676 90.9969L45.6695 88.7335ZM43.6957 90.2409C42.7495 90.6465 41.5034 90.8892 39.8936 90.8892V94.8892C41.8837 94.8892 43.6977 94.592 45.2714 93.9175L43.6957 90.2409ZM54.702 91.7822L53.7976 93.566L54.702 91.7822ZM51.705 89.0822L49.9971 90.123L50.003 90.1326L50.009 90.1422L51.705 89.0822ZM51.705 81.2792L50.009 80.2192L50.0045 80.2265L51.705 81.2792ZM54.702 78.6062L55.5863 80.4001L55.5964 80.3951L55.6065 80.39L54.702 78.6062ZM63.342 78.7142L62.3168 80.4315L62.3263 80.4372L62.3359 80.4427L63.342 78.7142ZM65.907 81.6572L66.816 83.4388L68.4419 82.6092L67.764 80.9144L65.907 81.6572ZM61.938 83.6822L60.1541 84.5864L61.0607 86.3751L62.847 85.4638L61.938 83.6822ZM56.727 82.6292L55.3128 81.215L55.3022 81.2256L55.2919 81.2363L56.727 82.6292ZM56.727 87.7592L55.2718 89.1313L55.292 89.1527L55.3128 89.1734L56.727 87.7592ZM61.938 86.7062L62.847 84.9247L61.0607 84.0133L60.1541 85.802L61.938 86.7062ZM65.907 88.7312L67.764 89.474L68.4419 87.7793L66.816 86.9497L65.907 88.7312ZM63.342 91.7012L64.3481 93.4297L64.3577 93.4242L64.3672 93.4185L63.342 91.7012ZM59.049 90.7542C57.7019 90.7542 56.5694 90.4867 55.6065 89.9984L53.7976 93.566C55.3906 94.3738 57.1561 94.7542 59.049 94.7542V90.7542ZM55.6065 89.9984C54.6347 89.5057 53.9172 88.8482 53.401 88.0222L50.009 90.1422C50.9328 91.6202 52.2133 92.7627 53.7976 93.566L55.6065 89.9984ZM53.4129 88.0415C52.9173 87.2283 52.652 86.2888 52.652 85.1672H48.652C48.652 86.9616 49.0887 88.6322 49.9971 90.123L53.4129 88.0415ZM52.652 85.1672C52.652 84.0453 52.9174 83.1205 53.4055 82.3319L50.0045 80.2265C49.0886 81.7059 48.652 83.3732 48.652 85.1672H52.652ZM53.401 82.3392C53.9141 81.5183 54.6248 80.8741 55.5863 80.4001L53.8177 76.8124C52.2232 77.5984 50.9359 78.7362 50.009 80.2192L53.401 82.3392ZM55.6065 80.39C56.5694 79.9018 57.7019 79.6342 59.049 79.6342V75.6342C57.1561 75.6342 55.3906 76.0147 53.7976 76.8224L55.6065 80.39ZM59.049 79.6342C60.4092 79.6342 61.4723 79.9273 62.3168 80.4315L64.3672 76.997C62.7997 76.0611 61.0008 75.6342 59.049 75.6342V79.6342ZM62.3359 80.4427C63.168 80.9271 63.7168 81.5668 64.0501 82.4L67.764 80.9144C67.0893 79.2277 65.928 77.9053 64.3481 76.9857L62.3359 80.4427ZM64.9981 79.8757L61.0291 81.9007L62.847 85.4638L66.816 83.4388L64.9981 79.8757ZM63.722 82.778C63.2739 81.894 62.6604 81.1086 61.8295 80.547C60.9832 79.9749 60.0229 79.7112 59.022 79.7112V83.7112C59.2991 83.7112 59.4638 83.776 59.5895 83.861C59.7306 83.9563 59.9361 84.1565 60.1541 84.5864L63.722 82.778ZM59.022 79.7112C57.6093 79.7112 56.3244 80.2034 55.3128 81.215L58.1412 84.0434C58.3536 83.831 58.5987 83.7112 59.022 83.7112V79.7112ZM55.2919 81.2363C54.2458 82.314 53.836 83.7121 53.836 85.1672H57.836C57.836 84.4623 58.0202 84.1685 58.1622 84.0222L55.2919 81.2363ZM53.836 85.1672C53.836 86.6328 54.2411 88.038 55.2718 89.1313L58.1822 86.3872C58.0249 86.2204 57.836 85.8976 57.836 85.1672H53.836ZM55.3128 89.1734C56.3244 90.185 57.6093 90.6772 59.022 90.6772V86.6772C58.5987 86.6772 58.3536 86.5574 58.1412 86.345L55.3128 89.1734ZM59.022 90.6772C60.0229 90.6772 60.9832 90.4135 61.8295 89.8415C62.6604 89.2798 63.2739 88.4945 63.722 87.6104L60.1541 85.802C59.9361 86.232 59.7306 86.4321 59.5895 86.5275C59.4638 86.6124 59.2991 86.6772 59.022 86.6772V90.6772ZM61.0291 88.4878L64.9981 90.5128L66.816 86.9497L62.847 84.9247L61.0291 88.4878ZM64.0501 87.9884C63.715 88.8261 63.1604 89.4804 62.3168 89.984L64.3672 93.4185C65.9356 92.4821 67.091 91.1563 67.764 89.474L64.0501 87.9884ZM62.3359 89.9727C61.488 90.4663 60.4179 90.7542 59.049 90.7542V94.7542C60.9921 94.7542 62.784 94.3402 64.3481 93.4297L62.3359 89.9727ZM82.7708 79.2542L81.3684 80.6801L81.3742 80.6858L81.38 80.6914L82.7708 79.2542ZM84.4448 92.5112V94.5112H86.4448V92.5112H84.4448ZM79.3148 92.5112H77.3148V94.5112H79.3148V92.5112ZM74.7788 82.8452L73.3198 81.4773L73.3082 81.4897L73.2969 81.5022L74.7788 82.8452ZM73.9958 92.5112V94.5112H75.9958V92.5112H73.9958ZM68.8658 92.5112H66.8658V94.5112H68.8658V92.5112ZM68.8658 72.4772V70.4772H66.8658V72.4772H68.8658ZM73.9958 72.4772H75.9958V70.4772H73.9958V72.4772ZM73.9958 79.2272H71.9958V83.8369L75.3621 80.6878L73.9958 79.2272ZM75.9668 78.0392L75.2942 76.1557V76.1557L75.9668 78.0392ZM78.3968 79.6342C79.7917 79.6342 80.7111 80.0336 81.3684 80.6801L84.1733 77.8284C82.6346 76.3149 80.638 75.6342 78.3968 75.6342V79.6342ZM81.38 80.6914C81.9716 81.2639 82.4448 82.2828 82.4448 84.1412H86.4448C86.4448 81.6437 85.8021 79.4045 84.1617 77.817L81.38 80.6914ZM82.4448 84.1412V92.5112H86.4448V84.1412H82.4448ZM84.4448 90.5112H79.3148V94.5112H84.4448V90.5112ZM81.3148 92.5112V84.9782H77.3148V92.5112H81.3148ZM81.3148 84.9782C81.3148 83.7648 81.0803 82.4844 80.2744 81.4794C79.401 80.39 78.1527 79.9812 76.9118 79.9812V83.9812C77.108 83.9812 77.1876 84.0121 77.1954 84.0153C77.1987 84.0167 77.1908 84.0136 77.1779 84.004C77.1649 83.9942 77.1565 83.9851 77.1537 83.9816C77.1489 83.9756 77.3148 84.1937 77.3148 84.9782H81.3148ZM76.9118 79.9812C75.5486 79.9812 74.2842 80.4487 73.3198 81.4773L76.2379 84.2131C76.3535 84.0898 76.5111 83.9812 76.9118 83.9812V79.9812ZM73.2969 81.5022C72.312 82.5889 71.9958 84.023 71.9958 85.4372H75.9958C75.9958 84.5475 76.2016 84.2536 76.2608 84.1883L73.2969 81.5022ZM71.9958 85.4372V92.5112H75.9958V85.4372H71.9958ZM73.9958 90.5112H68.8658V94.5112H73.9958V90.5112ZM70.8658 92.5112V72.4772H66.8658V92.5112H70.8658ZM68.8658 74.4772H73.9958V70.4772H68.8658V74.4772ZM71.9958 72.4772V79.2272H75.9958V72.4772H71.9958ZM75.3621 80.6878C75.7103 80.3621 76.1279 80.1054 76.6395 79.9227L75.2942 76.1557C74.2937 76.513 73.3974 77.0483 72.6295 77.7667L75.3621 80.6878ZM76.6395 79.9227C77.1637 79.7355 77.7445 79.6342 78.3968 79.6342V75.6342C77.3211 75.6342 76.282 75.803 75.2942 76.1557L76.6395 79.9227ZM92.0616 91.7822L92.9763 90.0037L92.0616 91.7822ZM89.0916 89.0822L87.3837 90.123L87.3896 90.1326L87.3956 90.1422L89.0916 89.0822ZM89.0916 81.2792L87.3956 80.2192L87.3896 80.2288L87.3837 80.2385L89.0916 81.2792ZM92.0346 78.6062L92.9393 80.3899L92.9493 80.3848L92.0346 78.6062ZM100.567 78.6062L99.6519 80.3848L99.662 80.39L99.6721 80.3951L100.567 78.6062ZM103.51 81.2792L101.802 82.32L101.809 82.3319L103.51 81.2792ZM103.51 89.0822L101.802 88.0415V88.0415L103.51 89.0822ZM100.567 91.7822L99.6519 90.0037L100.567 91.7822ZM98.5146 87.7592L99.971 89.13L99.9809 89.1194L99.9906 89.1088L98.5146 87.7592ZM98.5146 82.6292L99.971 81.2585L98.5146 82.6292ZM94.0866 82.6292L92.6302 81.2585L94.0866 82.6292ZM94.0866 87.7592L92.6105 89.1088L92.6203 89.1194L92.6302 89.13L94.0866 87.7592ZM96.3006 90.7542C95.0187 90.7542 93.9245 90.4913 92.9763 90.0037L91.1469 93.5608C92.7186 94.3691 94.4504 94.7542 96.3006 94.7542V90.7542ZM92.9763 90.0037C92.0223 89.513 91.3082 88.8553 90.7876 88.0222L87.3956 90.1422C88.3149 91.6132 89.5809 92.7554 91.1469 93.5608L92.9763 90.0037ZM90.7995 88.0415C90.3039 87.2283 90.0386 86.2888 90.0386 85.1672H86.0386C86.0386 86.9616 86.4752 88.6322 87.3837 90.123L90.7995 88.0415ZM90.0386 85.1672C90.0386 84.0686 90.3015 83.1371 90.7995 82.32L87.3837 80.2385C86.4777 81.7253 86.0386 83.3858 86.0386 85.1672H90.0386ZM90.7876 82.3392C91.3096 81.504 92.0135 80.8595 92.9393 80.3899L91.1298 76.8226C89.5717 77.6129 88.3136 78.7504 87.3956 80.2192L90.7876 82.3392ZM92.9493 80.3848C93.8943 79.8988 94.9967 79.6342 96.3006 79.6342V75.6342C94.4364 75.6342 92.6948 76.0177 91.1199 76.8277L92.9493 80.3848ZM96.3006 79.6342C97.6044 79.6342 98.7068 79.8988 99.6519 80.3848L101.481 76.8277C99.9063 76.0177 98.1647 75.6342 96.3006 75.6342V79.6342ZM99.6721 80.3951C100.612 80.8649 101.304 81.5034 101.802 82.32L105.217 80.2385C104.311 78.7511 103.041 77.6076 101.461 76.8174L99.6721 80.3951ZM101.809 82.3319C102.297 83.1205 102.563 84.0453 102.563 85.1672H106.563C106.563 83.3732 106.126 81.7059 105.21 80.2265L101.809 82.3319ZM102.563 85.1672C102.563 86.2888 102.297 87.2283 101.802 88.0415L105.217 90.123C106.126 88.6322 106.563 86.9616 106.563 85.1672H102.563ZM101.802 88.0415C101.301 88.8631 100.602 89.5151 99.6519 90.0037L101.481 93.5608C103.051 92.7534 104.314 91.6053 105.217 90.123L101.802 88.0415ZM99.6519 90.0037C98.7068 90.4897 97.6044 90.7542 96.3006 90.7542V94.7542C98.1647 94.7542 99.9063 94.3708 101.481 93.5608L99.6519 90.0037ZM96.3006 90.6772C97.7083 90.6772 98.9881 90.1743 99.971 89.13L97.0582 86.3885C96.8891 86.5682 96.6928 86.6772 96.3006 86.6772V90.6772ZM99.9906 89.1088C100.992 88.014 101.379 86.6171 101.379 85.1672H97.3786C97.3786 85.9133 97.1896 86.2444 97.0385 86.4097L99.9906 89.1088ZM101.379 85.1672C101.379 83.7283 100.987 82.3383 99.971 81.2585L97.0582 84C97.1939 84.1442 97.3786 84.4461 97.3786 85.1672H101.379ZM99.971 81.2585C98.9881 80.2142 97.7083 79.7112 96.3006 79.7112V83.7112C96.6928 83.7112 96.8891 83.8203 97.0582 84L99.971 81.2585ZM96.3006 79.7112C94.8928 79.7112 93.6131 80.2142 92.6302 81.2585L95.543 84C95.7121 83.8203 95.9083 83.7112 96.3006 83.7112V79.7112ZM92.6302 81.2585C91.6139 82.3383 91.2226 83.7283 91.2226 85.1672H95.2226C95.2226 84.4461 95.4072 84.1442 95.543 84L92.6302 81.2585ZM91.2226 85.1672C91.2226 86.6171 91.6096 88.014 92.6105 89.1088L95.5626 86.4097C95.4115 86.2444 95.2226 85.9133 95.2226 85.1672H91.2226ZM92.6302 89.13C93.6131 90.1743 94.8928 90.6772 96.3006 90.6772V86.6772C95.9083 86.6772 95.7121 86.5682 95.543 86.3885L92.6302 89.13ZM111.124 91.7822L112.039 90.0037L111.124 91.7822ZM108.154 89.0822L106.446 90.123L106.452 90.1326L106.458 90.1422L108.154 89.0822ZM108.154 81.2792L106.458 80.2192L106.452 80.2288L106.446 80.2385L108.154 81.2792ZM111.097 78.6062L112.002 80.3899L112.012 80.3848L111.097 78.6062ZM119.629 78.6062L118.714 80.3848L118.724 80.39L118.735 80.3951L119.629 78.6062ZM122.572 81.2792L120.864 82.32L120.871 82.3319L122.572 81.2792ZM122.572 89.0822L120.864 88.0415V88.0415L122.572 89.0822ZM119.629 91.7822L118.714 90.0037L119.629 91.7822ZM117.577 87.7592L119.033 89.13L119.043 89.1194L119.053 89.1088L117.577 87.7592ZM117.577 82.6292L119.033 81.2585L117.577 82.6292ZM113.149 82.6292L111.693 81.2585L113.149 82.6292ZM113.149 87.7592L111.673 89.1088L111.683 89.1194L111.693 89.13L113.149 87.7592ZM115.363 90.7542C114.081 90.7542 112.987 90.4913 112.039 90.0037L110.209 93.5608C111.781 94.3691 113.513 94.7542 115.363 94.7542V90.7542ZM112.039 90.0037C111.085 89.513 110.371 88.8553 109.85 88.0222L106.458 90.1422C107.377 91.6132 108.643 92.7554 110.209 93.5608L112.039 90.0037ZM109.862 88.0415C109.366 87.2283 109.101 86.2888 109.101 85.1672H105.101C105.101 86.9616 105.538 88.6322 106.446 90.123L109.862 88.0415ZM109.101 85.1672C109.101 84.0686 109.364 83.1371 109.862 82.32L106.446 80.2385C105.54 81.7253 105.101 83.3858 105.101 85.1672H109.101ZM109.85 82.3392C110.372 81.504 111.076 80.8595 112.002 80.3899L110.192 76.8226C108.634 77.6129 107.376 78.7504 106.458 80.2192L109.85 82.3392ZM112.012 80.3848C112.957 79.8988 114.059 79.6342 115.363 79.6342V75.6342C113.499 75.6342 111.757 76.0177 110.182 76.8277L112.012 80.3848ZM115.363 79.6342C116.667 79.6342 117.769 79.8988 118.714 80.3848L120.544 76.8277C118.969 76.0177 117.227 75.6342 115.363 75.6342V79.6342ZM118.735 80.3951C119.674 80.8649 120.367 81.5034 120.864 82.32L124.28 80.2385C123.373 78.7511 122.104 77.6076 120.523 76.8174L118.735 80.3951ZM120.871 82.3319C121.36 83.1205 121.625 84.0453 121.625 85.1672H125.625C125.625 83.3732 125.188 81.7059 124.273 80.2265L120.871 82.3319ZM121.625 85.1672C121.625 86.2888 121.36 87.2283 120.864 88.0415L124.28 90.123C125.188 88.6322 125.625 86.9616 125.625 85.1672H121.625ZM120.864 88.0415C120.363 88.8631 119.664 89.5151 118.714 90.0037L120.544 93.5608C122.114 92.7534 123.377 91.6053 124.28 90.123L120.864 88.0415ZM118.714 90.0037C117.769 90.4897 116.667 90.7542 115.363 90.7542V94.7542C117.227 94.7542 118.969 94.3708 120.544 93.5608L118.714 90.0037ZM115.363 90.6772C116.771 90.6772 118.051 90.1743 119.033 89.13L116.121 86.3885C115.951 86.5682 115.755 86.6772 115.363 86.6772V90.6772ZM119.053 89.1088C120.054 88.014 120.441 86.6171 120.441 85.1672H116.441C116.441 85.9133 116.252 86.2444 116.101 86.4097L119.053 89.1088ZM120.441 85.1672C120.441 83.7283 120.05 82.3383 119.033 81.2585L116.121 84C116.256 84.1442 116.441 84.4461 116.441 85.1672H120.441ZM119.033 81.2585C118.051 80.2142 116.771 79.7112 115.363 79.7112V83.7112C115.755 83.7112 115.951 83.8203 116.121 84L119.033 81.2585ZM115.363 79.7112C113.955 79.7112 112.675 80.2142 111.693 81.2585L114.605 84C114.775 83.8203 114.971 83.7112 115.363 83.7112V79.7112ZM111.693 81.2585C110.676 82.3383 110.285 83.7283 110.285 85.1672H114.285C114.285 84.4461 114.47 84.1442 114.605 84L111.693 81.2585ZM110.285 85.1672C110.285 86.6171 110.672 88.014 111.673 89.1088L114.625 86.4097C114.474 86.2444 114.285 85.9133 114.285 85.1672H110.285ZM111.693 89.13C112.675 90.1743 113.955 90.6772 115.363 90.6772V86.6772C114.971 86.6772 114.775 86.5682 114.605 86.3885L111.693 89.13ZM127.081 72.4772V70.4772H125.081V72.4772H127.081ZM132.211 72.4772H134.211V70.4772H132.211V72.4772ZM132.211 92.5112V94.5112H134.211V92.5112H132.211ZM127.081 92.5112H125.081V94.5112H127.081V92.5112ZM127.081 74.4772H132.211V70.4772H127.081V74.4772ZM130.211 72.4772V92.5112H134.211V72.4772H130.211ZM132.211 90.5112H127.081V94.5112H132.211V90.5112ZM129.081 92.5112V72.4772H125.081V92.5112H129.081Z" fill="#3F3F3F"/>
</g>
</svg>
