<svg width="124" height="118" viewBox="0 0 124 118" fill="none" xmlns="http://www.w3.org/2000/svg">
<path opacity="0.22" d="M122.526 50.1294L106.057 43.4231C105.618 43.2924 105.145 43.336 104.737 43.5447C104.329 43.7535 104.018 44.1113 103.867 44.5438C103.667 44.9602 103.637 45.4381 103.783 45.8763C103.929 46.3145 104.24 46.6787 104.651 46.8919L105.932 47.4077L92.2591 80.9567C92.2591 80.9567 87.7192 91.0249 94.9831 94.1557H95.1789H95.3748C102.763 96.984 106.556 86.5956 106.556 86.5956L120.229 53.0645L121.119 53.4202C121.558 53.5509 122.031 53.5074 122.439 53.2987C122.847 53.0899 123.158 52.7321 123.309 52.2996C123.458 51.9038 123.461 51.4681 123.317 51.0704C123.174 50.6727 122.893 50.3391 122.526 50.1294Z" fill="white"/>
<path d="M104.313 56.978L93.6307 83.0736C93.2295 83.7623 92.9808 84.529 92.9016 85.3219C92.8224 86.1149 92.9144 86.9155 93.1715 87.6699C93.4287 88.4242 93.8448 89.1146 94.392 89.6944C94.9391 90.2742 95.6044 90.7299 96.343 91.0308C97.0815 91.3316 97.8761 91.4705 98.673 91.4381C99.4699 91.4058 100.251 91.2029 100.962 90.8431C101.674 90.4834 102.3 89.9752 102.798 89.353C103.296 88.7307 103.655 88.0088 103.85 87.2361L114.532 61.1405L104.313 56.978Z" fill="#F4C222"/>
<path d="M97.6537 73.29L93.6835 83.0203C93.2822 83.709 93.0335 84.4757 92.9543 85.2686C92.8751 86.0615 92.9672 86.8622 93.2243 87.6165C93.4814 88.3709 93.8976 89.0613 94.4447 89.6411C94.9918 90.2209 95.6571 90.6766 96.3957 90.9774C97.1342 91.2782 97.9288 91.4172 98.7257 91.3848C99.5226 91.3524 100.303 91.1495 101.015 90.7898C101.727 90.4301 102.353 89.9219 102.851 89.2996C103.349 88.6774 103.708 87.9555 103.903 87.1828L108.799 75.14C105.007 74.9977 101.339 73.7881 97.6537 73.29Z" fill="#CC5B1D"/>
<path opacity="0.56" d="M106.003 61.7279C105.907 61.8888 105.766 62.0186 105.598 62.1019C105.43 62.1852 105.242 62.2185 105.055 62.1978C104.869 62.1771 104.692 62.1032 104.546 61.9851C104.401 61.8669 104.292 61.7094 104.233 61.5313C104.174 61.3532 104.168 61.1619 104.215 60.9804C104.262 60.7989 104.36 60.6347 104.498 60.5073C104.636 60.38 104.808 60.2948 104.992 60.2621C105.177 60.2294 105.367 60.2504 105.541 60.3226C105.785 60.4517 105.969 60.6701 106.055 60.9321C106.142 61.1941 106.123 61.4793 106.003 61.7279Z" fill="white"/>
<path opacity="0.56" d="M109.208 70.0526C109.112 70.2135 108.971 70.3433 108.803 70.4266C108.635 70.5099 108.446 70.5432 108.26 70.5225C108.073 70.5018 107.897 70.4279 107.751 70.3098C107.605 70.1916 107.496 70.0341 107.438 69.856C107.379 69.6779 107.373 69.4867 107.42 69.3051C107.467 69.1236 107.565 68.9594 107.703 68.832C107.841 68.7047 108.012 68.6196 108.197 68.5868C108.382 68.5541 108.572 68.5751 108.745 68.6473C108.992 68.773 109.18 68.9913 109.267 69.2546C109.353 69.5179 109.332 69.8048 109.208 70.0526Z" fill="white"/>
<path opacity="0.56" d="M110.259 49.7562C110.162 49.9171 110.022 50.0469 109.854 50.1302C109.686 50.2136 109.497 50.2468 109.31 50.2261C109.124 50.2054 108.947 50.1316 108.802 50.0134C108.656 49.8952 108.547 49.7377 108.489 49.5596C108.43 49.3815 108.424 49.1903 108.471 49.0087C108.518 48.8272 108.616 48.663 108.754 48.5356C108.891 48.4083 109.063 48.3232 109.248 48.2904C109.432 48.2577 109.623 48.2787 109.796 48.3509C110.043 48.4766 110.231 48.695 110.317 48.9582C110.404 49.2215 110.383 49.5084 110.259 49.7562Z" fill="white"/>
<path opacity="0.56" d="M103.921 71.2089C103.825 71.3701 103.686 71.5007 103.519 71.5852C103.352 71.6697 103.164 71.7046 102.978 71.6856C102.791 71.6666 102.614 71.5947 102.468 71.4782C102.321 71.3618 102.211 71.2058 102.15 71.0287C102.09 70.8516 102.081 70.6608 102.126 70.4791C102.171 70.2973 102.266 70.1322 102.402 70.0032C102.538 69.8743 102.708 69.7869 102.892 69.7515C103.076 69.7162 103.266 69.7342 103.44 69.8036C103.687 69.9296 103.875 70.1467 103.965 70.409C104.055 70.6713 104.039 70.9581 103.921 71.2089Z" fill="white"/>
<path opacity="0.56" d="M114.122 56.0886C114.018 56.3783 113.855 56.6436 113.644 56.8681C113.433 57.0927 113.179 57.2718 112.896 57.3945C112.613 57.5172 112.309 57.5808 112 57.5814C111.692 57.5821 111.387 57.5198 111.104 57.3983C110.82 57.2769 110.565 57.0988 110.353 56.8751C110.141 56.6515 109.977 56.3869 109.872 56.0976C109.766 55.8084 109.72 55.5006 109.738 55.1931C109.756 54.8856 109.836 54.585 109.974 54.3097C110.079 54.02 110.241 53.7548 110.452 53.5302C110.663 53.3056 110.918 53.1265 111.201 53.0038C111.483 52.8812 111.788 52.8176 112.096 52.8169C112.405 52.8162 112.71 52.8786 112.993 53C113.276 53.1215 113.532 53.2995 113.744 53.5232C113.955 53.7469 114.119 54.0115 114.225 54.3007C114.331 54.59 114.376 54.8978 114.359 55.2052C114.341 55.5127 114.261 55.8133 114.122 56.0886Z" fill="white"/>
<path opacity="0.45" d="M95.874 93.4624H95.7315C95.6709 93.4286 95.6259 93.3725 95.606 93.3061C95.5861 93.2397 95.5928 93.1682 95.6247 93.1066C95.6488 93.045 95.6949 92.9945 95.7541 92.9649C95.8133 92.9353 95.8814 92.9288 95.9452 92.9465C97.0082 93.3811 98.1814 93.4688 99.2974 93.1973C100.413 92.9257 101.415 92.3088 102.159 91.4345C103.159 90.4949 104.012 89.4094 104.687 88.2148L118.093 55.1996C118.097 55.1613 118.11 55.1244 118.13 55.0918C118.151 55.0593 118.179 55.0319 118.212 55.012C118.245 54.9921 118.282 54.98 118.321 54.9769C118.359 54.9738 118.398 54.9796 118.434 54.9939C118.469 55.0082 118.501 55.0306 118.527 55.0594C118.553 55.0881 118.571 55.1225 118.581 55.1597C118.592 55.1968 118.593 55.2359 118.585 55.2737C118.578 55.3115 118.562 55.347 118.538 55.3775L105.114 88.3038C105.061 88.4817 101.126 95.597 95.874 93.4624Z" fill="white"/>
<path opacity="0.45" d="M121.903 51.3217L112.502 47.4972C112.473 47.4822 112.447 47.4615 112.426 47.4363C112.404 47.4111 112.388 47.3819 112.378 47.3505C112.368 47.3191 112.365 47.286 112.368 47.2531C112.371 47.2203 112.38 47.1884 112.396 47.1592C112.404 47.1258 112.419 47.0943 112.439 47.067C112.46 47.0396 112.487 47.0168 112.517 47.0001C112.547 46.9834 112.58 46.9731 112.614 46.9699C112.649 46.9666 112.683 46.9705 112.716 46.9813L122.116 50.8058C122.148 50.8207 122.176 50.8421 122.199 50.8686C122.222 50.8952 122.239 50.9262 122.25 50.9598C122.26 50.9934 122.262 51.0288 122.258 51.0635C122.253 51.0983 122.242 51.1317 122.223 51.1616C122.213 51.1935 122.197 51.223 122.175 51.2484C122.153 51.2738 122.127 51.2946 122.097 51.3095C122.067 51.3245 122.034 51.3332 122.001 51.3353C121.968 51.3374 121.934 51.3328 121.903 51.3217Z" fill="white"/>
<path d="M76.1884 29.7681C76.1884 30.5586 75.9538 31.3313 75.5143 31.9885C75.0748 32.6457 74.4501 33.158 73.7192 33.4605C72.9883 33.763 72.184 33.8421 71.4081 33.6879C70.6322 33.5337 69.9194 33.153 69.36 32.5941C68.8006 32.0352 68.4197 31.3231 68.2653 30.5478C68.111 29.7725 68.1902 28.969 68.493 28.2387C68.7957 27.5084 69.3084 26.8842 69.9662 26.4451C70.624 26.0059 71.3973 25.7715 72.1885 25.7715C72.7146 25.7686 73.236 25.87 73.7227 26.0698C74.2093 26.2696 74.6514 26.5638 75.0234 26.9355C75.3954 27.3073 75.69 27.749 75.8899 28.2352C76.0899 28.7214 76.1914 29.2425 76.1884 29.7681Z" fill="#EC5858"/>
<path d="M75.6099 39.4487C77.819 39.4487 79.6098 37.6594 79.6098 35.4521C79.6098 33.2449 77.819 31.4556 75.6099 31.4556C73.4007 31.4556 71.6099 33.2449 71.6099 35.4521C71.6099 37.6594 73.4007 39.4487 75.6099 39.4487Z" fill="#CE2489"/>
<path d="M72.1875 35.5639C72.17 36.3504 71.9206 37.1142 71.4706 37.7596C71.0205 38.405 70.3899 38.9034 69.6576 39.1924C68.9253 39.4813 68.124 39.5479 67.354 39.3838C66.5841 39.2197 65.8797 38.8322 65.3291 38.2699C64.7786 37.7076 64.4064 36.9955 64.2591 36.2227C64.1118 35.45 64.196 34.651 64.5012 33.9259C64.8064 33.2008 65.319 32.5818 65.9747 32.1464C66.6305 31.7111 67.4002 31.4788 68.1875 31.4786C68.7212 31.4754 69.2501 31.5796 69.7427 31.7849C70.2353 31.9902 70.6815 32.2924 71.0547 32.6736C71.4279 33.0548 71.7206 33.5072 71.9152 34.0037C72.1098 34.5003 72.2024 35.0309 72.1875 35.5639Z" fill="#F4C222"/>
<path d="M71.0561 64.4273C64.1005 64.4273 58.6338 50.7058 58.6338 33.2098C58.6338 15.7137 64.1005 1.99219 71.0561 1.99219C78.0117 1.99219 83.4784 15.6915 83.4784 33.2098C83.4784 50.728 78.0117 64.4273 71.0561 64.4273ZM71.0561 2.85811C64.7005 2.85811 59.5227 16.4686 59.5227 33.2098C59.5227 49.9509 64.7005 63.5392 71.0561 63.5392C77.4117 63.5392 82.6117 49.9287 82.6117 33.2098C82.6117 16.4908 77.4339 2.83591 71.0561 2.83591V2.85811Z" fill="white"/>
<path d="M71.0551 45.5767C53.5439 45.5767 39.8105 40.137 39.8105 33.1874C39.8105 26.2378 53.5439 20.7759 71.0551 20.7759C88.5662 20.7759 102.3 26.2378 102.3 33.1874C102.3 40.137 88.5662 45.5767 71.0551 45.5767ZM71.0551 21.6418C54.2995 21.6418 40.6772 26.8151 40.6772 33.1874C40.6772 39.5597 54.2995 44.7108 71.0551 44.7108C87.8107 44.7108 101.522 39.5375 101.522 33.1874C101.522 26.8373 87.8107 21.6418 71.0551 21.6418Z" fill="white"/>
<path d="M89.4762 54.9243C87.208 54.8631 84.9614 54.4665 82.8095 53.7475C75.7507 51.3192 69.1868 47.6415 63.4317 42.8902C57.488 38.372 52.407 32.8215 48.4317 26.5043C45.1873 20.9536 44.565 16.4463 46.6762 13.782C48.7873 11.1176 53.3428 10.7179 59.4762 12.6052C73.5623 17.769 85.6143 27.3198 93.854 39.8484C97.0984 45.3992 97.7207 49.9286 95.6318 52.5708C94.8596 53.4144 93.9011 54.0664 92.8326 54.4749C91.764 54.8835 90.6147 55.0374 89.4762 54.9243ZM52.6317 12.2944C51.6386 12.2005 50.6372 12.3359 49.7048 12.69C48.7723 13.0442 47.9338 13.6077 47.2539 14.337C45.3873 16.6906 46.0539 20.8426 49.0984 26.0603C53.024 32.2827 58.0282 37.7562 63.8762 42.2241C69.5594 46.8978 76.031 50.5218 82.9873 52.926C88.7651 54.7023 92.9873 54.3914 94.854 52.0379C96.7206 49.6844 96.0762 45.5102 93.0095 40.2925C89.0829 34.0772 84.0787 28.6111 78.2317 24.1508C72.5539 19.4693 66.0808 15.8444 59.1206 13.4489C57.0278 12.741 54.8404 12.3518 52.6317 12.2944Z" fill="white"/>
<path d="M54.7206 58.0549C53.1642 58.1285 51.6358 57.6221 50.4317 56.6339C47.8984 54.4136 47.6984 49.8398 49.8984 43.8005C52.6852 36.8777 56.689 30.5087 61.7206 24.9945C66.55 19.2964 72.3599 14.5066 78.8762 10.8511C84.5873 7.89813 89.1207 7.49847 91.6763 9.74098C96.8985 14.3148 91.9429 28.214 80.3873 41.3804C75.5645 47.0824 69.7625 51.8793 63.254 55.546C60.644 57.0351 57.7219 57.8943 54.7206 58.0549ZM87.3651 9.20811C84.5256 9.38321 81.7649 10.2115 79.2984 11.6282C72.885 15.2376 67.1661 19.9591 62.4095 25.5718C57.4517 31.0037 53.5012 37.274 50.7428 44.0892C48.6761 49.7732 48.765 53.9918 51.0317 55.9901C53.2984 57.9883 57.4984 57.5221 62.8762 54.7245C69.2869 51.1299 74.9997 46.4147 79.7429 40.8031C90.854 28.2362 95.8985 14.5813 91.1207 10.3849C90.066 9.52251 88.7258 9.08676 87.3651 9.1637V9.20811Z" fill="white"/>
<path d="M71.0551 5.89983C72.6138 5.89983 73.8774 4.63737 73.8774 3.08004C73.8774 1.52272 72.6138 0.260254 71.0551 0.260254C69.4964 0.260254 68.2329 1.52272 68.2329 3.08004C68.2329 4.63737 69.4964 5.89983 71.0551 5.89983Z" fill="#1771B9"/>
<path d="M94.498 55.435C96.0567 55.435 97.3203 54.1726 97.3203 52.6152C97.3203 51.0579 96.0567 49.7954 94.498 49.7954C92.9393 49.7954 91.6758 51.0579 91.6758 52.6152C91.6758 54.1726 92.9393 55.435 94.498 55.435Z" fill="#1771B9"/>
<path d="M50.7661 32.9208C52.3248 32.9208 53.5883 31.6584 53.5883 30.101C53.5883 28.5437 52.3248 27.2812 50.7661 27.2812C49.2074 27.2812 47.9438 28.5437 47.9438 30.101C47.9438 31.6584 49.2074 32.9208 50.7661 32.9208Z" fill="#1771B9"/>
<path d="M71.4846 66.0178C72.6278 66.0178 73.5545 65.0918 73.5545 63.9496C73.5545 62.8073 72.6278 61.8813 71.4846 61.8813C70.3413 61.8813 69.4146 62.8073 69.4146 63.9496C69.4146 65.0918 70.3413 66.0178 71.4846 66.0178Z" fill="#1771B9"/>
<path d="M87.5314 92.3385L60.7929 102.11C59.9079 102.433 59.4528 103.412 59.7765 104.296L60.0547 105.056C60.3783 105.94 61.3582 106.395 62.2432 106.072L88.9817 96.3004C89.8667 95.977 90.3217 94.998 89.998 94.1138L89.7199 93.354C89.3962 92.4697 88.4164 92.0151 87.5314 92.3385Z" fill="#1771B9"/>
<path d="M59.8794 100.843V113.273C59.8794 113.273 84.5904 108.988 91.9424 101.115L85.135 91.8311L59.8794 100.843Z" fill="#1771B9"/>
<g style="mix-blend-mode:multiply" opacity="0.61">
<path d="M69.1545 103.241C75.6046 100.996 82.0036 98.6327 88.4026 96.2181L85.2031 91.8311L59.8794 100.843V106.216C62.9938 105.247 66.1082 104.312 69.1545 103.241Z" fill="#0F0B49"/>
</g>
<path opacity="0.61" d="M63.063 81.3397L66.4497 87.9883L68.2537 86.866L65.5818 80.0645L63.063 81.3397Z" fill="#0F0B49"/>
<path opacity="0.61" d="M68.5249 78.8573L71.9116 85.5059L73.7155 84.3836L71.0607 77.582L68.5249 78.8573Z" fill="#0F0B49"/>
<path opacity="0.61" d="M73.2397 76.6296L77.2732 82.938L78.941 81.6287L75.6394 75.1162L73.2397 76.6296Z" fill="#0F0B49"/>
<path d="M61.0021 75.6603L53.548 57.7721C53.548 57.7721 52.7992 53.8102 57.7686 51.8207C62.738 49.8313 64.4059 53.8102 64.4059 53.8102L71.86 70.202C71.86 70.202 70.3794 74.9121 61.0021 75.6603Z" fill="#1771B9"/>
<path d="M60.1862 73.1779L58.4844 83.8564C58.4844 83.8564 72.8992 83.1082 78.9068 72.9229L70.7038 67.7026L60.1862 73.1779Z" fill="#1771B9"/>
<path d="M55.2164 58.7754C55.2164 58.7754 37.3128 65.2199 39.0487 83.108C40.7846 100.996 57.4458 100.996 58.1946 101.234L59.437 98.0035C59.437 98.0035 45.5158 95.2829 45.0222 82.853C44.8108 78.5424 45.8767 74.2653 48.0866 70.5571C50.2965 66.8489 53.5521 63.8745 57.4458 62.0061L55.2164 58.7754Z" fill="#1771B9"/>
<path d="M91.2313 100.363L59.7605 111.864C58.7189 112.245 58.1833 113.397 58.5643 114.438L58.8917 115.332C59.2727 116.373 60.4259 116.908 61.4675 116.527L92.9383 105.027C93.9799 104.646 94.5155 103.494 94.1345 102.453L93.8071 101.559C93.4262 100.518 92.2729 99.9828 91.2313 100.363Z" fill="#1771B9"/>
<path d="M60.8534 101.68C61.2478 99.2419 59.5892 96.9459 57.1489 96.5519C54.7086 96.1579 52.4107 97.815 52.0163 100.253C51.6219 102.691 53.2805 104.987 55.7208 105.381C58.1611 105.775 60.4591 104.118 60.8534 101.68Z" fill="#F5C40D"/>
<path opacity="0.55" d="M65.905 60.7308C65.8063 60.7316 65.7099 60.7006 65.6302 60.6424C65.5505 60.5842 65.4917 60.502 65.4625 60.4078C64.2201 56.8199 62.6544 54.6944 60.8844 54.2693C60.3335 54.1659 59.7661 54.1903 59.2261 54.3406C58.6861 54.491 58.1879 54.7633 57.77 55.1365C57.7271 55.1813 57.6756 55.2169 57.6185 55.2412C57.5615 55.2656 57.5001 55.2781 57.4381 55.2781C57.3761 55.2781 57.3147 55.2656 57.2577 55.2412C57.2006 55.2169 57.1491 55.1813 57.1062 55.1365C57.02 55.0477 56.9717 54.9288 56.9717 54.805C56.9717 54.6812 57.02 54.5622 57.1062 54.4734C57.6368 53.99 58.2737 53.6382 58.9655 53.4462C59.6573 53.2542 60.3846 53.2274 61.0886 53.3681C63.216 53.8782 64.986 56.1568 66.3304 60.1697C66.3695 60.2894 66.3613 60.4194 66.3075 60.5332C66.2537 60.647 66.1584 60.736 66.0411 60.7818L65.905 60.7308Z" fill="#CDC3FF"/>
<path opacity="0.55" d="M76.5909 73.6539C76.5189 73.6762 76.4417 73.6762 76.3697 73.6539L70.6514 70.6782C70.5874 70.6549 70.5292 70.6181 70.4807 70.5704C70.4321 70.5226 70.3944 70.4651 70.37 70.4015C70.3456 70.338 70.3351 70.27 70.3393 70.2021C70.3434 70.1342 70.3621 70.0679 70.394 70.0078C70.4259 69.9477 70.4703 69.8952 70.5243 69.8537C70.5783 69.8122 70.6405 69.7827 70.7068 69.7673C70.7732 69.7519 70.842 69.7508 70.9088 69.7642C70.9756 69.7776 71.0387 69.8052 71.0939 69.845L76.8121 72.8207C76.9224 72.8819 77.005 72.983 77.0429 73.1032C77.0809 73.2233 77.0714 73.3535 77.0164 73.4669C76.9663 73.5305 76.9013 73.5809 76.8271 73.6136C76.7529 73.6462 76.6718 73.66 76.5909 73.6539Z" fill="#CDC3FF"/>
<path opacity="0.57" d="M57.6063 103.746C59.1247 103.115 59.843 101.373 59.2106 99.8554C58.5782 98.3383 56.8347 97.6206 55.3162 98.2525C53.7978 98.8843 53.0795 100.626 53.7119 102.143C54.3443 103.661 56.0878 104.378 57.6063 103.746Z" fill="white"/>
<path opacity="0.55" d="M71.4524 108.478C71.3422 108.476 71.2359 108.437 71.1517 108.366C71.0675 108.295 71.0105 108.197 70.9904 108.088C70.9703 107.98 70.9884 107.868 71.0416 107.772C71.0949 107.675 71.1799 107.6 71.2822 107.56L90.7856 100.588C90.9054 100.553 91.0339 100.563 91.1468 100.616C91.2597 100.669 91.3491 100.762 91.3982 100.877C91.4373 100.997 91.4291 101.127 91.3753 101.24C91.3215 101.354 91.2262 101.443 91.1089 101.489L71.6056 108.529C71.5503 108.529 71.4966 108.511 71.4524 108.478Z" fill="#CDC3FF"/>
<path d="M82.689 86.8206L66.4751 92.9679C66.0094 93.1444 65.7751 93.6648 65.9518 94.1302L66.1028 94.5276C66.2795 94.993 66.8004 95.2271 67.2661 95.0505L83.48 88.9032C83.9457 88.7266 84.18 88.2062 84.0033 87.7409L83.8523 87.3434C83.6756 86.8781 83.1548 86.644 82.689 86.8206Z" fill="#CDC3FF"/>
<g style="mix-blend-mode:overlay" opacity="0.48">
<path d="M72.0648 90.8447L70.4481 91.4569C70.0056 92.4091 69.5802 93.3783 69.1377 94.3306L70.9587 93.6504C71.3161 92.7152 71.6904 91.78 72.0648 90.8447Z" fill="white"/>
</g>
<g style="mix-blend-mode:overlay" opacity="0.48">
<path d="M79.2816 88.1074L76.8649 89.0086C76.4905 89.9609 76.099 90.8961 75.7246 91.8483L78.4136 90.8281C78.6859 89.9098 78.9752 89.0086 79.2816 88.1074Z" fill="white"/>
</g>
<path opacity="0.22" d="M28.8194 80.8601C24.8803 81.2644 20.9361 80.1494 17.7938 77.7431C14.6514 75.3369 12.5484 71.8213 11.9149 67.9155C11.1178 63.9804 11.7965 59.8891 13.8219 56.4204C16.0199 52.7361 19.535 50.4783 23.0041 48.0802C24.8856 46.9094 26.5176 45.379 27.8064 43.5769C29.0952 41.7748 30.0154 39.7363 30.5143 37.5784C31.5184 33.1048 32.0458 28.5379 32.0879 23.9538L26.801 22.8657C26.6267 22.8305 26.4471 22.8311 26.2729 22.8673C26.0988 22.9036 25.9338 22.9748 25.788 23.0767C25.6423 23.1786 25.5187 23.3089 25.4248 23.4599C25.3309 23.6109 25.2686 23.7794 25.2418 23.9551C25.2016 24.1297 25.1985 24.3107 25.2326 24.4866C25.2668 24.6624 25.3375 24.8291 25.4402 24.9759C25.5429 25.1227 25.6752 25.2464 25.8287 25.3388C25.9822 25.4313 26.1534 25.4906 26.3313 25.5128L28.249 25.9049L23.8348 46.9503C14.7418 47.2725 7.10352 52.421 5.54292 60.0576C3.61548 69.379 11.4839 78.8585 23.0997 81.2391C34.7156 83.6198 45.6884 77.9924 47.595 68.6797C47.6738 68.2791 47.7317 67.8873 47.7896 67.4954C46.0379 71.1603 43.3732 74.3142 40.0513 76.6545C36.7294 78.9948 32.8617 80.443 28.8194 80.8601Z" fill="white"/>
<path opacity="0.47" d="M42.7481 27.5915L33.0275 25.6112C32.9232 25.5912 32.8311 25.5305 32.7715 25.4426C32.7119 25.3547 32.6898 25.2467 32.7099 25.1424C32.73 25.0381 32.7907 24.946 32.8787 24.8865C32.9667 24.8269 33.0747 24.8047 33.1791 24.8247L42.8936 26.8198C42.9486 26.8267 43.0017 26.8449 43.0493 26.8734C43.0969 26.9018 43.138 26.9398 43.1702 26.985C43.2023 27.0302 43.2247 27.0815 43.2359 27.1358C43.2472 27.1901 43.247 27.2461 43.2355 27.3003C43.2239 27.3546 43.2012 27.4058 43.1688 27.4508C43.1364 27.4958 43.095 27.5336 43.0472 27.5618C42.9994 27.59 42.9463 27.608 42.8912 27.6146C42.8361 27.6212 42.7803 27.6163 42.7272 27.6002L42.7481 27.5915Z" fill="white"/>
<path opacity="0.22" d="M35.9707 49.3721L40.3169 28.2816L42.2136 28.6824C42.5515 28.7461 42.901 28.6766 43.1887 28.4884C43.4765 28.3003 43.6802 28.008 43.7571 27.6731C43.8253 27.335 43.7576 26.9837 43.5688 26.6952C43.3799 26.4067 43.085 26.204 42.7478 26.1311L26.7713 22.8536C26.597 22.8184 26.4173 22.819 26.2432 22.8553C26.069 22.8915 25.9041 22.9628 25.7583 23.0646C25.6125 23.1665 25.4889 23.2969 25.395 23.4478C25.3011 23.5988 25.2389 23.7673 25.212 23.943C25.1718 24.1176 25.1687 24.2987 25.2029 24.4745C25.2371 24.6503 25.3078 24.817 25.4104 24.9638C25.5131 25.1106 25.6455 25.2343 25.799 25.3268C25.9525 25.4192 26.1237 25.4785 26.3015 25.5007L28.2192 25.8928L23.8347 46.9503C14.7417 47.2725 7.10347 52.421 5.54287 60.0576C3.61545 69.379 11.4838 78.8585 23.0996 81.2391C34.7154 83.6197 45.6882 77.9924 47.5947 68.6796C49.1946 60.99 44.202 53.233 35.9707 49.3721Z" fill="white"/>
<g opacity="0.47">
<path opacity="0.47" d="M34.5283 49.6285C34.425 49.6024 34.335 49.539 34.2756 49.4506C34.2162 49.3622 34.1916 49.2549 34.2064 49.1494L38.0245 30.597C38.0469 30.4937 38.1092 30.4035 38.1979 30.346C38.2866 30.2884 38.3944 30.2682 38.4979 30.2898C38.5491 30.2983 38.598 30.3171 38.6418 30.3449C38.6855 30.3728 38.7231 30.4093 38.7524 30.4521C38.7816 30.4949 38.8019 30.5432 38.812 30.594C38.8221 30.6449 38.8218 30.6973 38.8111 30.748L35.0078 49.3066C34.9816 49.4099 34.9181 49.4998 34.8296 49.5593C34.7411 49.6187 34.6338 49.6433 34.5283 49.6285Z" fill="white"/>
</g>
<g opacity="0.47">
<path opacity="0.47" d="M43.9871 74.1916L43.8983 74.155C43.8511 74.1312 43.8092 74.0983 43.7748 74.0582C43.7405 74.0181 43.7144 73.9717 43.6981 73.9215C43.6818 73.8713 43.6756 73.8184 43.6798 73.7658C43.684 73.7131 43.6987 73.6619 43.7228 73.6149C44.6983 71.9107 45.3172 70.0263 45.542 68.0762C45.7669 66.1261 45.5929 64.1508 45.0308 62.2704C42.9321 55.9831 36.4084 52.6878 36.3492 52.6634C36.2528 52.6148 36.1791 52.5307 36.1436 52.4288C36.1081 52.3269 36.1136 52.2152 36.1589 52.1173C36.1828 52.0701 36.2157 52.0282 36.2558 51.9938C36.2959 51.9595 36.3424 51.9334 36.3927 51.9171C36.4429 51.9007 36.4959 51.8945 36.5485 51.8987C36.6012 51.9029 36.6525 51.9175 36.6994 51.9416C36.9956 52.0637 43.5958 55.4252 45.7892 62.0286C46.3868 64.0076 46.5752 66.0876 46.343 68.142C46.1109 70.1965 45.463 72.1825 44.4388 73.9793C44.3986 74.0605 44.332 74.1258 44.25 74.1643C44.168 74.2029 44.0753 74.2125 43.9871 74.1916Z" fill="white"/>
</g>
<path d="M33.9526 67.2265C29.2086 67.3189 24.4989 66.4104 20.1308 64.5604C16.458 63.0463 12.897 61.0934 9.22835 59.7369C9.06663 60.1993 8.93515 60.6717 8.83473 61.1511C7.28849 69.089 13.7613 77.0411 23.4334 79.0534C33.1055 81.0656 42.2763 76.2361 43.9114 68.3349C44.0477 67.6407 44.1243 66.9362 44.1401 66.229C40.7671 66.7642 37.3652 67.0973 33.9526 67.2265Z" fill="#FE487C"/>
<path d="M9.22624 59.7377C9.22624 59.7377 16.1461 55.071 44.14 66.2305C44.14 66.2305 28.7319 75.8355 9.22624 59.7377Z" fill="#FE9BB8"/>
<path d="M20.0394 63.7268C19.999 63.9157 19.9035 64.0885 19.765 64.2232C19.6264 64.358 19.451 64.4486 19.2609 64.4837C19.0708 64.5189 18.8745 64.4969 18.697 64.4205C18.5195 64.3442 18.3686 64.217 18.2634 64.0549C18.1583 63.8929 18.1036 63.7033 18.1063 63.5101C18.109 63.317 18.1689 63.1289 18.2786 62.9698C18.3882 62.8107 18.5426 62.6875 18.7222 62.616C18.9018 62.5445 19.0985 62.5279 19.2876 62.5681C19.5411 62.6221 19.7627 62.7745 19.9037 62.9918C20.0447 63.2091 20.0935 63.4735 20.0394 63.7268Z" fill="white"/>
<path d="M22.2286 54.2723C22.1493 54.6645 21.9173 55.0093 21.5836 55.2308C21.25 55.4522 20.8421 55.5322 20.4496 55.4531C20.0571 55.374 19.7122 55.1423 19.4907 54.809C19.2693 54.4757 19.1894 54.068 19.2688 53.6758C19.3705 53.296 19.6085 52.9668 19.9374 52.751C20.2663 52.5352 20.663 52.4478 21.0521 52.5054C21.2463 52.5427 21.431 52.6183 21.5956 52.7276C21.7602 52.837 21.9013 52.978 22.0108 53.1424C22.1203 53.3069 22.196 53.4915 22.2334 53.6854C22.2707 53.8794 22.2691 54.0789 22.2286 54.2723Z" fill="white"/>
<path d="M34.2084 64.7191C34.1271 65.1106 33.8935 65.4538 33.5591 65.6733C33.2247 65.8927 32.8167 65.9705 32.425 65.8894C32.0333 65.8084 31.69 65.5751 31.4705 65.241C31.251 64.9069 31.1734 64.4992 31.2547 64.1078C31.2949 63.914 31.373 63.7299 31.4844 63.5662C31.5958 63.4025 31.7384 63.2623 31.904 63.1536C32.0696 63.045 32.2549 62.9699 32.4495 62.9328C32.6441 62.8958 32.8441 62.8973 33.038 62.9375C33.232 62.9776 33.4161 63.0555 33.5799 63.1668C33.7437 63.2781 33.8839 63.4205 33.9926 63.5859C34.1012 63.7514 34.1762 63.9366 34.2133 64.131C34.2503 64.3254 34.2486 64.5253 34.2084 64.7191Z" fill="white"/>
<path d="M30.1817 47.3154C30.1443 47.5055 30.0512 47.6802 29.9142 47.8173C29.7772 47.9544 29.6025 48.0477 29.4123 48.0854C29.2222 48.123 29.0251 48.1034 28.8463 48.0288C28.6674 47.9543 28.5147 47.8283 28.4077 47.6668C28.3007 47.5053 28.2442 47.3156 28.2454 47.1219C28.2465 46.9282 28.3053 46.7392 28.4142 46.5789C28.5231 46.4186 28.6773 46.2943 28.857 46.2217C29.0368 46.1492 29.2341 46.1317 29.4238 46.1715C29.6753 46.2242 29.8958 46.3738 30.0377 46.5879C30.1795 46.802 30.2313 47.0634 30.1817 47.3154Z" fill="white"/>
<path d="M36.8655 56.9823C36.8251 57.1712 36.7297 57.344 36.5911 57.4787C36.4525 57.6135 36.2771 57.7041 36.087 57.7393C35.8969 57.7744 35.7007 57.7524 35.5231 57.6761C35.3456 57.5997 35.1947 57.4725 35.0896 57.3104C34.9844 57.1484 34.9297 56.9588 34.9324 56.7657C34.9351 56.5725 34.9951 56.3845 35.1047 56.2253C35.2143 56.0662 35.3687 55.9431 35.5483 55.8716C35.7279 55.8001 35.9247 55.7834 36.1137 55.8236C36.3651 55.8813 36.5841 56.0345 36.7244 56.2508C36.8647 56.467 36.9153 56.7294 36.8655 56.9823Z" fill="white"/>
<path d="M28.8693 58.1705C28.8574 58.3077 28.8166 58.4408 28.7497 58.5612C28.6827 58.6815 28.591 58.7863 28.4807 58.8688C28.3704 58.9513 28.2438 59.0095 28.1094 59.0397C27.975 59.0699 27.8357 59.0713 27.7007 59.044C27.5657 59.0166 27.4381 58.961 27.3261 58.8808C27.2141 58.8006 27.1204 58.6977 27.0511 58.5788C26.9817 58.4599 26.9383 58.3276 26.9237 58.1908C26.9091 58.0539 26.9236 57.9154 26.9663 57.7845C27.0407 57.5566 27.1963 57.3639 27.4036 57.2431C27.6108 57.1223 27.8553 57.082 28.0904 57.1296C28.3254 57.1773 28.5347 57.3098 28.6784 57.5017C28.822 57.6936 28.8899 57.9317 28.8693 58.1705Z" fill="white"/>
<path d="M12.7295 66.4447C12.7053 66.5702 12.6562 66.6896 12.5853 66.7959C12.5143 66.9022 12.4228 66.9933 12.3162 67.0639C12.2096 67.1345 12.0899 67.1831 11.9643 67.2069C11.8386 67.2307 11.7095 67.2292 11.5845 67.2026C11.3564 67.1284 11.1636 66.9729 11.0429 66.7658C10.9221 66.5588 10.8818 66.3145 10.9296 66.0796C10.9775 65.8446 11.1101 65.6355 11.3022 65.4918C11.4943 65.3482 11.7326 65.2802 11.9716 65.3008C12.0971 65.3249 12.2166 65.3739 12.323 65.4448C12.4293 65.5156 12.5205 65.607 12.5911 65.7135C12.6616 65.8201 12.7102 65.9396 12.734 66.0651C12.7578 66.1907 12.7562 66.3197 12.7295 66.4447Z" fill="white"/>
<path d="M28.545 73.1396C28.5076 73.3297 28.4145 73.5044 28.2775 73.6415C28.1405 73.7786 27.9658 73.8719 27.7756 73.9096C27.5855 73.9473 27.3884 73.9276 27.2095 73.853C27.0306 73.7785 26.878 73.6525 26.771 73.491C26.664 73.3295 26.6075 73.1399 26.6087 72.9462C26.6098 72.7524 26.6686 72.5634 26.7775 72.4031C26.8864 72.2428 27.0406 72.1185 27.2203 72.046C27.4001 71.9734 27.5974 71.9559 27.7871 71.9957C28.0386 72.0484 28.2591 72.198 28.401 72.4121C28.5428 72.6262 28.5945 72.8876 28.545 73.1396Z" fill="white"/>
</svg>
