<svg width="35" height="34" viewBox="0 0 35 34" fill="none" xmlns="http://www.w3.org/2000/svg">
<path opacity="0.22" d="M34.7451 14.6452L30.0673 12.7387C29.9425 12.7015 29.8082 12.7139 29.6924 12.7733C29.5765 12.8326 29.488 12.9343 29.4453 13.0573C29.3884 13.1757 29.3799 13.3115 29.4214 13.4361C29.4629 13.5607 29.5513 13.6642 29.6678 13.7248L30.0319 13.8715L26.148 23.4092C26.148 23.4092 24.8584 26.2716 26.9218 27.1616H26.9774H27.033C29.1317 27.9657 30.2089 25.0124 30.2089 25.0124L34.0928 15.4797L34.3456 15.5808C34.4704 15.618 34.6047 15.6056 34.7205 15.5462C34.8364 15.4869 34.9249 15.3852 34.9676 15.2622C35.0099 15.1497 35.0107 15.0258 34.97 14.9128C34.9292 14.7997 34.8495 14.7049 34.7451 14.6452Z" fill="white"/>
<path d="M29.5715 16.5923L26.5372 24.0112C26.4232 24.2069 26.3526 24.4249 26.3301 24.6503C26.3076 24.8758 26.3337 25.1034 26.4068 25.3178C26.4798 25.5323 26.598 25.7286 26.7534 25.8934C26.9088 26.0582 27.0978 26.1878 27.3076 26.2733C27.5174 26.3588 27.7431 26.3983 27.9694 26.3891C28.1958 26.3799 28.4176 26.3222 28.6197 26.22C28.8219 26.1177 28.9997 25.9732 29.1412 25.7963C29.2827 25.6194 29.3846 25.4142 29.44 25.1945L32.4743 17.7757L29.5715 16.5923Z" fill="#F4C222"/>
<path d="M27.6806 21.2297L26.5528 23.996C26.4388 24.1918 26.3682 24.4097 26.3457 24.6352C26.3232 24.8606 26.3494 25.0882 26.4224 25.3027C26.4954 25.5171 26.6136 25.7134 26.7691 25.8782C26.9245 26.0431 27.1134 26.1726 27.3232 26.2581C27.533 26.3437 27.7587 26.3832 27.9851 26.374C28.2114 26.3648 28.4332 26.3071 28.6353 26.2048C28.8375 26.1025 29.0153 25.9581 29.1568 25.7812C29.2984 25.6043 29.4002 25.399 29.4556 25.1794L30.8463 21.7557C29.7692 21.7152 28.7274 21.3713 27.6806 21.2297Z" fill="#CC5B1D"/>
<path opacity="0.56" d="M30.0519 17.9426C30.0246 17.9883 29.9846 18.0252 29.9369 18.0489C29.8891 18.0726 29.8355 18.0821 29.7826 18.0762C29.7296 18.0703 29.6794 18.0493 29.638 18.0157C29.5966 17.9821 29.5658 17.9373 29.5491 17.8867C29.5324 17.8361 29.5307 17.7817 29.544 17.7301C29.5574 17.6785 29.5853 17.6318 29.6244 17.5956C29.6635 17.5594 29.7122 17.5352 29.7647 17.5259C29.8172 17.5166 29.8713 17.5225 29.9205 17.5431C29.9898 17.5798 30.0421 17.6419 30.0667 17.7164C30.0912 17.7908 30.0859 17.8719 30.0519 17.9426Z" fill="white"/>
<path opacity="0.56" d="M30.9621 20.3093C30.9347 20.355 30.8948 20.3919 30.847 20.4156C30.7993 20.4393 30.7457 20.4488 30.6927 20.4429C30.6397 20.437 30.5896 20.416 30.5482 20.3824C30.5068 20.3488 30.4759 20.304 30.4593 20.2534C30.4426 20.2028 30.4408 20.1484 30.4542 20.0968C30.4675 20.0452 30.4954 19.9985 30.5346 19.9623C30.5737 19.9261 30.6224 19.9019 30.6749 19.8926C30.7274 19.8833 30.7814 19.8892 30.8306 19.9098C30.9009 19.9455 30.9541 20.0076 30.9787 20.0824C31.0034 20.1573 30.9974 20.2388 30.9621 20.3093Z" fill="white"/>
<path opacity="0.56" d="M31.2609 14.5392C31.2336 14.5849 31.1936 14.6218 31.1459 14.6455C31.0981 14.6692 31.0445 14.6786 30.9916 14.6727C30.9386 14.6669 30.8884 14.6459 30.847 14.6123C30.8056 14.5787 30.7747 14.5339 30.7581 14.4833C30.7414 14.4326 30.7397 14.3783 30.753 14.3267C30.7664 14.275 30.7943 14.2284 30.8334 14.1921C30.8725 14.1559 30.9212 14.1317 30.9737 14.1224C31.0262 14.1131 31.0803 14.1191 31.1295 14.1396C31.1997 14.1754 31.2529 14.2374 31.2776 14.3123C31.3022 14.3871 31.2962 14.4687 31.2609 14.5392Z" fill="white"/>
<path opacity="0.56" d="M29.4602 20.638C29.4332 20.6839 29.3936 20.721 29.3461 20.745C29.2986 20.769 29.2453 20.7789 29.1923 20.7735C29.1394 20.7681 29.0891 20.7477 29.0475 20.7146C29.0058 20.6815 28.9745 20.6371 28.9573 20.5868C28.9401 20.5364 28.9377 20.4822 28.9504 20.4305C28.9631 20.3789 28.9903 20.3319 29.0289 20.2953C29.0674 20.2586 29.1157 20.2338 29.1679 20.2237C29.2202 20.2136 29.2742 20.2188 29.3236 20.2385C29.3938 20.2743 29.4473 20.3361 29.4728 20.4106C29.4983 20.4852 29.4937 20.5667 29.4602 20.638Z" fill="white"/>
<path opacity="0.56" d="M32.3587 16.3395C32.329 16.4218 32.2828 16.4973 32.2229 16.5611C32.163 16.625 32.0907 16.6759 32.0104 16.7107C31.9301 16.7456 31.8435 16.7637 31.7559 16.7639C31.6684 16.7641 31.5817 16.7464 31.5013 16.7118C31.4208 16.6773 31.3483 16.6267 31.2881 16.5631C31.2279 16.4995 31.1814 16.4243 31.1513 16.3421C31.1213 16.2598 31.1083 16.1723 31.1134 16.0849C31.1184 15.9975 31.1412 15.912 31.1804 15.8338C31.2101 15.7514 31.2563 15.676 31.3163 15.6121C31.3762 15.5483 31.4485 15.4974 31.5288 15.4625C31.6091 15.4276 31.6957 15.4096 31.7832 15.4094C31.8708 15.4092 31.9575 15.4269 32.0379 15.4614C32.1184 15.496 32.1909 15.5466 32.2511 15.6102C32.3113 15.6737 32.3578 15.749 32.3879 15.8312C32.4179 15.9134 32.4308 16.0009 32.4258 16.0884C32.4208 16.1758 32.398 16.2612 32.3587 16.3395Z" fill="white"/>
<path opacity="0.45" d="M27.175 26.9645H27.1346C27.1174 26.9549 27.1046 26.9389 27.0989 26.9201C27.0932 26.9012 27.0951 26.8808 27.1042 26.8634C27.1111 26.8458 27.1241 26.8315 27.141 26.8231C27.1578 26.8147 27.1771 26.8128 27.1952 26.8178C27.4972 26.9414 27.8305 26.9663 28.1474 26.8891C28.4644 26.8119 28.7489 26.6365 28.9602 26.388C29.2444 26.1209 29.4865 25.8123 29.6783 25.4726L33.4863 16.0866C33.4874 16.0757 33.4911 16.0652 33.4969 16.056C33.5028 16.0467 33.5107 16.039 33.5201 16.0333C33.5295 16.0276 33.5401 16.0242 33.551 16.0233C33.5619 16.0224 33.5729 16.0241 33.583 16.0281C33.5932 16.0322 33.6023 16.0386 33.6096 16.0468C33.6169 16.0549 33.6222 16.0647 33.6251 16.0753C33.6279 16.0858 33.6283 16.0969 33.6262 16.1077C33.6241 16.1184 33.6194 16.1285 33.6127 16.1372L29.7997 25.4979C29.7845 25.5485 28.6669 27.5713 27.175 26.9645Z" fill="white"/>
<path opacity="0.45" d="M34.5681 14.9842L31.8979 13.8969C31.8896 13.8927 31.8822 13.8868 31.8761 13.8796C31.8701 13.8725 31.8655 13.8642 31.8627 13.8552C31.8598 13.8463 31.8588 13.8369 31.8597 13.8276C31.8605 13.8182 31.8632 13.8091 31.8676 13.8009C31.8699 13.7913 31.8741 13.7824 31.88 13.7746C31.886 13.7668 31.8934 13.7604 31.902 13.7556C31.9106 13.7509 31.92 13.7479 31.9297 13.747C31.9395 13.7461 31.9493 13.7472 31.9586 13.7503L34.6288 14.8376C34.6378 14.8418 34.6458 14.8479 34.6523 14.8554C34.6589 14.863 34.6637 14.8718 34.6666 14.8813C34.6694 14.8909 34.6702 14.9009 34.669 14.9108C34.6677 14.9207 34.6643 14.9302 34.6591 14.9387C34.6563 14.9478 34.6516 14.9562 34.6454 14.9634C34.6393 14.9706 34.6317 14.9765 34.6232 14.9808C34.6147 14.985 34.6055 14.9875 34.596 14.9881C34.5865 14.9887 34.577 14.9874 34.5681 14.9842Z" fill="white"/>
<path d="M21.5829 8.85661C21.5829 9.08133 21.5163 9.301 21.3914 9.48785C21.2666 9.6747 21.0891 9.82033 20.8815 9.90632C20.6739 9.99232 20.4455 10.0148 20.2251 9.97098C20.0047 9.92714 19.8022 9.81893 19.6433 9.66003C19.4844 9.50113 19.3762 9.29868 19.3324 9.07827C19.2885 8.85787 19.311 8.62942 19.397 8.42181C19.483 8.2142 19.6287 8.03675 19.8155 7.9119C20.0023 7.78705 20.222 7.72042 20.4467 7.72042C20.5962 7.71958 20.7443 7.7484 20.8825 7.8052C21.0208 7.862 21.1463 7.94566 21.252 8.05133C21.3577 8.15701 21.4413 8.28259 21.4981 8.42082C21.5549 8.55905 21.5838 8.70717 21.5829 8.85661Z" fill="#EC5858"/>
<path d="M21.4184 11.6088C22.0459 11.6088 22.5546 11.1001 22.5546 10.4726C22.5546 9.84506 22.0459 9.33636 21.4184 9.33636C20.7909 9.33636 20.2822 9.84506 20.2822 10.4726C20.2822 11.1001 20.7909 11.6088 21.4184 11.6088Z" fill="#CE2489"/>
<path d="M20.4469 10.5042C20.4419 10.7278 20.3711 10.945 20.2433 11.1284C20.1154 11.3119 19.9363 11.4536 19.7283 11.5358C19.5203 11.6179 19.2927 11.6368 19.074 11.5902C18.8553 11.5435 18.6552 11.4334 18.4988 11.2735C18.3424 11.1137 18.2367 10.9112 18.1949 10.6915C18.153 10.4718 18.177 10.2447 18.2636 10.0386C18.3503 9.83241 18.4959 9.65643 18.6822 9.53266C18.8684 9.4089 19.0871 9.34285 19.3107 9.34279C19.4623 9.34189 19.6126 9.3715 19.7525 9.42987C19.8924 9.48824 20.0191 9.57416 20.1251 9.68254C20.2312 9.79091 20.3143 9.91951 20.3696 10.0607C20.4248 10.2018 20.4511 10.3527 20.4469 10.5042Z" fill="#F4C222"/>
<path d="M20.1252 18.7099C18.1495 18.7099 16.5967 14.809 16.5967 9.83498C16.5967 4.86096 18.1495 0.960022 20.1252 0.960022C22.1009 0.960022 23.6538 4.85465 23.6538 9.83498C23.6538 14.8153 22.1009 18.7099 20.1252 18.7099ZM20.1252 1.2062C18.3199 1.2062 16.8492 5.07558 16.8492 9.83498C16.8492 14.5944 18.3199 18.4574 20.1252 18.4574C21.9305 18.4574 23.4076 14.5881 23.4076 9.83498C23.4076 5.08189 21.9368 1.19989 20.1252 1.19989V1.2062Z" fill="white"/>
<path d="M20.125 13.3508C15.1509 13.3508 11.25 11.8043 11.25 9.82863C11.25 7.85291 15.1509 6.30011 20.125 6.30011C25.099 6.30011 28.9999 7.85291 28.9999 9.82863C28.9999 11.8043 25.099 13.3508 20.125 13.3508ZM20.125 6.54629C15.3656 6.54629 11.4962 8.01703 11.4962 9.82863C11.4962 11.6402 15.3656 13.1047 20.125 13.1047C24.8844 13.1047 28.779 11.6339 28.779 9.82863C28.779 8.02334 24.8844 6.54629 20.125 6.54629Z" fill="white"/>
<path d="M25.3571 16.0084C24.7128 15.9909 24.0747 15.8782 23.4634 15.6738C21.4584 14.9835 19.5939 13.9379 17.9592 12.5871C16.2709 11.3026 14.8276 9.72466 13.6984 7.92874C12.7769 6.35069 12.6001 5.06931 13.1998 4.31185C13.7994 3.55438 15.0934 3.44076 16.8356 3.9773C20.8368 5.44535 24.2601 8.16056 26.6006 11.7224C27.5222 13.3004 27.6989 14.5881 27.1056 15.3393C26.8862 15.5791 26.614 15.7644 26.3104 15.8806C26.0069 15.9968 25.6805 16.0405 25.3571 16.0084ZM14.8915 3.88893C14.6094 3.86224 14.3249 3.90073 14.0601 4.00142C13.7952 4.10211 13.557 4.26231 13.3639 4.46965C12.8337 5.13874 13.023 6.31913 13.8878 7.80249C15.0029 9.57148 16.4243 11.1276 18.0854 12.3978C19.6997 13.7265 21.538 14.7567 23.5139 15.4403C25.1551 15.9452 26.3544 15.8569 26.8846 15.1878C27.4149 14.5187 27.2318 13.332 26.3607 11.8486C25.2454 10.0816 23.8239 8.52767 22.1631 7.25964C20.5503 5.92871 18.7116 4.89819 16.7346 4.21716C16.1402 4.01591 15.5188 3.90526 14.8915 3.88893Z" fill="white"/>
<path d="M15.4848 16.8984C15.0427 16.9193 14.6086 16.7753 14.2665 16.4944C13.547 15.8632 13.4902 14.5629 14.1151 12.8459C14.9067 10.8778 16.0439 9.06715 17.4731 7.49951C18.8449 5.87957 20.4952 4.51787 22.3462 3.47863C23.9684 2.63911 25.2561 2.52549 25.982 3.16302C27.4654 4.46334 26.0577 8.41478 22.7754 12.1579C21.4055 13.7789 19.7574 15.1427 17.9087 16.1851C17.1673 16.6085 16.3373 16.8527 15.4848 16.8984ZM24.7574 3.01153C23.9509 3.06131 23.1667 3.29678 22.4661 3.69956C20.6444 4.72567 19.0199 6.06797 17.6688 7.66362C16.2606 9.20788 15.1384 10.9905 14.3549 12.928C13.7679 14.5439 13.7931 15.7432 14.437 16.3113C15.0808 16.8794 16.2738 16.7469 17.8014 15.9515C19.6223 14.9296 21.2451 13.5891 22.5923 11.9938C25.7484 8.42109 27.1813 4.53908 25.8242 3.34608C25.5246 3.10091 25.1439 2.97703 24.7574 2.99891V3.01153Z" fill="white"/>
<path d="M20.1249 2.07101C20.5676 2.07101 20.9265 1.7121 20.9265 1.26936C20.9265 0.826623 20.5676 0.467712 20.1249 0.467712C19.6821 0.467712 19.3232 0.826623 19.3232 1.26936C19.3232 1.7121 19.6821 2.07101 20.1249 2.07101Z" fill="#1771B9"/>
<path d="M26.7841 16.1536C27.2268 16.1536 27.5857 15.7947 27.5857 15.3519C27.5857 14.9092 27.2268 14.5503 26.7841 14.5503C26.3413 14.5503 25.9824 14.9092 25.9824 15.3519C25.9824 15.7947 26.3413 16.1536 26.7841 16.1536Z" fill="#1771B9"/>
<path d="M14.3622 9.75289C14.8049 9.75289 15.1638 9.39398 15.1638 8.95124C15.1638 8.50851 14.8049 8.1496 14.3622 8.1496C13.9195 8.1496 13.5605 8.50851 13.5605 8.95124C13.5605 9.39398 13.9195 9.75289 14.3622 9.75289Z" fill="#1771B9"/>
<path d="M20.2472 19.1622C20.5719 19.1622 20.8351 18.8989 20.8351 18.5742C20.8351 18.2495 20.5719 17.9862 20.2472 17.9862C19.9224 17.9862 19.6592 18.2495 19.6592 18.5742C19.6592 18.8989 19.9224 19.1622 20.2472 19.1622Z" fill="#1771B9"/>
<path d="M24.8051 26.6449L17.21 29.4228C16.9587 29.5148 16.8294 29.7931 16.9214 30.0445L17.0004 30.2605C17.0923 30.5118 17.3706 30.6411 17.622 30.5492L25.217 27.7713C25.4684 27.6793 25.5977 27.401 25.5057 27.1496L25.4267 26.9336C25.3348 26.6822 25.0565 26.553 24.8051 26.6449Z" fill="#1771B9"/>
<path d="M16.9502 29.0628V32.5965C16.9502 32.5965 23.9693 31.3784 26.0577 29.1402L24.124 26.5007L16.9502 29.0628Z" fill="#1771B9"/>
<g style="mix-blend-mode:multiply" opacity="0.61">
<path d="M19.5848 29.7444C21.4169 29.1063 23.2345 28.4344 25.0522 27.7479L24.1433 26.5007L16.9502 29.0628V30.5904C17.8348 30.3149 18.7195 30.049 19.5848 29.7444Z" fill="#0F0B49"/>
</g>
<path opacity="0.61" d="M17.8545 23.5181L18.8165 25.4083L19.3289 25.0892L18.5699 23.1556L17.8545 23.5181Z" fill="#0F0B49"/>
<path opacity="0.61" d="M19.4062 22.8124L20.3682 24.7025L20.8806 24.3835L20.1265 22.4498L19.4062 22.8124Z" fill="#0F0B49"/>
<path opacity="0.61" d="M20.7451 22.179L21.8908 23.9724L22.3646 23.6002L21.4267 21.7487L20.7451 22.179Z" fill="#0F0B49"/>
<path d="M17.2694 21.9034L15.152 16.818C15.152 16.818 14.9393 15.6916 16.3509 15.126C17.7625 14.5604 18.2362 15.6916 18.2362 15.6916L20.3535 20.3517C20.3535 20.3517 19.933 21.6907 17.2694 21.9034Z" fill="#1771B9"/>
<path d="M17.0381 21.1976L16.5547 24.2335C16.5547 24.2335 20.6492 24.0208 22.3556 21.1251L20.0256 19.6411L17.0381 21.1976Z" fill="#1771B9"/>
<path d="M15.6261 17.1032C15.6261 17.1032 10.5406 18.9353 11.0337 24.0208C11.5267 29.1063 16.2593 29.1063 16.472 29.174L16.8249 28.2555C16.8249 28.2555 12.8706 27.4821 12.7304 23.9483C12.6704 22.7228 12.9732 21.5069 13.6009 20.4527C14.2286 19.3985 15.1533 18.5528 16.2593 18.0217L15.6261 17.1032Z" fill="#1771B9"/>
<path d="M25.8558 28.9264L16.9166 32.196C16.6207 32.3042 16.4686 32.6318 16.5768 32.9276L16.6698 33.1819C16.778 33.4777 17.1056 33.6299 17.4014 33.5216L26.3407 30.2521C26.6365 30.1439 26.7887 29.8163 26.6804 29.5205L26.5875 29.2662C26.4792 28.9703 26.1517 28.8182 25.8558 28.9264Z" fill="#1771B9"/>
<path d="M17.2276 29.3007C17.3397 28.6075 16.8686 27.9548 16.1754 27.8428C15.4822 27.7308 14.8295 28.2019 14.7175 28.8951C14.6055 29.5882 15.0766 30.241 15.7697 30.353C16.4629 30.465 17.1156 29.9939 17.2276 29.3007Z" fill="#F5C40D"/>
<path opacity="0.55" d="M18.6625 17.6591C18.6344 17.6593 18.6071 17.6505 18.5844 17.6339C18.5618 17.6174 18.5451 17.594 18.5368 17.5672C18.1839 16.5472 17.7392 15.943 17.2364 15.8221C17.0799 15.7927 16.9188 15.7996 16.7654 15.8424C16.612 15.8851 16.4705 15.9625 16.3518 16.0686C16.3396 16.0814 16.3249 16.0915 16.3087 16.0984C16.2925 16.1053 16.2751 16.1089 16.2575 16.1089C16.2399 16.1089 16.2224 16.1053 16.2062 16.0984C16.19 16.0915 16.1754 16.0814 16.1632 16.0686C16.1387 16.0434 16.125 16.0096 16.125 15.9744C16.125 15.9392 16.1387 15.9054 16.1632 15.8801C16.3139 15.7427 16.4948 15.6427 16.6913 15.5881C16.8878 15.5335 17.0944 15.5259 17.2944 15.5659C17.8987 15.7109 18.4014 16.3587 18.7833 17.4996C18.7944 17.5336 18.7921 17.5705 18.7768 17.6029C18.7615 17.6352 18.7345 17.6605 18.7012 17.6736L18.6625 17.6591Z" fill="#CDC3FF"/>
<path opacity="0.55" d="M21.6979 21.333C21.6774 21.3393 21.6555 21.3393 21.6351 21.333L20.0108 20.487C19.9926 20.4804 19.9761 20.47 19.9623 20.4564C19.9485 20.4428 19.9378 20.4265 19.9309 20.4084C19.9239 20.3903 19.921 20.371 19.9221 20.3517C19.9233 20.3324 19.9286 20.3135 19.9377 20.2965C19.9467 20.2794 19.9594 20.2644 19.9747 20.2526C19.99 20.2408 20.0077 20.2325 20.0265 20.2281C20.0454 20.2237 20.0649 20.2234 20.0839 20.2272C20.1029 20.231 20.1208 20.2388 20.1365 20.2502L21.7607 21.0961C21.792 21.1136 21.8155 21.1423 21.8263 21.1764C21.8371 21.2106 21.8344 21.2476 21.8188 21.2798C21.8045 21.298 21.7861 21.3123 21.765 21.3215C21.7439 21.3308 21.7209 21.3348 21.6979 21.333Z" fill="#CDC3FF"/>
<path opacity="0.57" d="M16.3045 29.8882C16.7358 29.7086 16.9398 29.2133 16.7602 28.782C16.5806 28.3507 16.0853 28.1467 15.654 28.3263C15.2227 28.5059 15.0187 29.0012 15.1983 29.4325C15.3779 29.8638 15.8732 30.0678 16.3045 29.8882Z" fill="white"/>
<path opacity="0.55" d="M20.238 31.2333C20.2067 31.2329 20.1765 31.2216 20.1526 31.2014C20.1286 31.1812 20.1125 31.1534 20.1068 31.1226C20.1011 31.0918 20.1062 31.06 20.1213 31.0326C20.1364 31.0052 20.1606 30.9839 20.1896 30.9723L25.7295 28.9903C25.7636 28.9803 25.8001 28.9832 25.8322 28.9983C25.8642 29.0135 25.8896 29.0398 25.9036 29.0724C25.9147 29.1065 25.9123 29.1434 25.8971 29.1758C25.8818 29.2081 25.8547 29.2334 25.8214 29.2465L20.2815 31.2478C20.2658 31.2478 20.2505 31.2427 20.238 31.2333Z" fill="#CDC3FF"/>
<path d="M23.43 25.0763L18.8245 26.8239C18.6922 26.8741 18.6257 27.022 18.6759 27.1543L18.7187 27.2673C18.7689 27.3996 18.9169 27.4662 19.0492 27.416L23.6547 25.6683C23.787 25.6181 23.8535 25.4702 23.8033 25.3379L23.7605 25.2249C23.7103 25.0926 23.5623 25.0261 23.43 25.0763Z" fill="#CDC3FF"/>
<g style="mix-blend-mode:overlay" opacity="0.48">
<path d="M20.4115 26.2203L19.9523 26.3944C19.8266 26.6651 19.7058 26.9406 19.5801 27.2113L20.0973 27.018C20.1988 26.7521 20.3052 26.4862 20.4115 26.2203Z" fill="white"/>
</g>
<g style="mix-blend-mode:overlay" opacity="0.48">
<path d="M22.4615 25.4421L21.7751 25.6983C21.6687 25.969 21.5575 26.2349 21.4512 26.5056L22.215 26.2155C22.2923 25.9545 22.3745 25.6983 22.4615 25.4421Z" fill="white"/>
</g>
<path opacity="0.22" d="M8.12953 23.3812C7.01051 23.4959 5.88996 23.1787 4.99711 22.4944C4.10427 21.8102 3.50661 20.8107 3.32642 19.7003C3.09972 18.5816 3.29229 17.4186 3.86746 16.4326C4.49165 15.3854 5.4901 14.7437 6.47546 14.0622C7.00991 13.7295 7.47343 13.2946 7.83945 12.7823C8.20546 12.2701 8.46676 11.6907 8.60837 11.0773C8.89333 9.8056 9.04289 8.50734 9.05457 7.20419L7.55258 6.89454C7.50305 6.88453 7.45201 6.88468 7.40255 6.89498C7.35308 6.90528 7.30622 6.92552 7.26481 6.95447C7.2234 6.98342 7.1883 7.02047 7.16163 7.06339C7.13497 7.10631 7.11729 7.15419 7.10968 7.20414C7.09827 7.25377 7.0974 7.30524 7.10712 7.35523C7.11683 7.40522 7.13693 7.45262 7.16611 7.49436C7.19529 7.5361 7.2329 7.57125 7.27651 7.59755C7.32012 7.62385 7.36876 7.64071 7.41929 7.64703L7.9641 7.75862L6.71139 13.7411C4.12821 13.8321 1.95862 15.2953 1.51575 17.4661C0.968762 20.1158 3.20464 22.8111 6.50467 23.4886C9.8047 24.1661 12.9216 22.567 13.4626 19.9197C13.485 19.8059 13.5014 19.6945 13.5178 19.5831C13.0204 20.6248 12.2636 21.5212 11.3201 22.1863C10.3765 22.8514 9.27786 23.2629 8.12953 23.3812Z" fill="white"/>
<path opacity="0.47" d="M12.0847 8.23804L9.32357 7.67463C9.29393 7.66893 9.26777 7.65169 9.25084 7.6267C9.23392 7.6017 9.22761 7.57101 9.23331 7.54137C9.23902 7.51173 9.25626 7.48557 9.28125 7.46864C9.30624 7.45172 9.33694 7.44541 9.36658 7.45112L12.126 8.01873C12.1416 8.02069 12.1567 8.02588 12.1702 8.03397C12.1837 8.04205 12.1954 8.05285 12.2046 8.06569C12.2137 8.07854 12.2201 8.09313 12.2233 8.10856C12.2265 8.12399 12.2264 8.13992 12.2231 8.15533C12.2199 8.17074 12.2134 8.1853 12.2042 8.19809C12.195 8.21088 12.1832 8.22162 12.1697 8.22963C12.1561 8.23764 12.141 8.24274 12.1254 8.24461C12.1097 8.24649 12.0939 8.24509 12.0788 8.24052L12.0847 8.23804Z" fill="white"/>
<path opacity="0.22" d="M10.1593 14.4303L11.3927 8.43493L11.9316 8.54899C12.0276 8.56714 12.1269 8.5474 12.2086 8.49392C12.2903 8.44044 12.3482 8.35737 12.37 8.26216C12.3894 8.16605 12.3701 8.06619 12.3164 7.98416C12.2628 7.90212 12.179 7.8445 12.0832 7.82374L7.54428 6.89104C7.49475 6.88103 7.44371 6.88118 7.39425 6.89148C7.34478 6.90179 7.29792 6.92203 7.25651 6.95097C7.2151 6.97992 7.18 7.01698 7.15333 7.05989C7.12667 7.10281 7.109 7.1507 7.10139 7.20064C7.08997 7.25028 7.0891 7.30175 7.09882 7.35174C7.10854 7.40173 7.12863 7.44912 7.15781 7.49086C7.18699 7.5326 7.2246 7.56776 7.26821 7.59405C7.31182 7.62035 7.36046 7.63721 7.41099 7.64354L7.95579 7.75512L6.71151 13.741C4.12833 13.8321 1.95873 15.2952 1.51586 17.466C0.968876 20.1158 3.20476 22.8111 6.50478 23.4886C9.80481 24.166 12.9217 22.567 13.4627 19.9197C13.9168 17.7338 12.498 15.5283 10.1593 14.4303Z" fill="white"/>
<g opacity="0.47">
<path opacity="0.47" d="M9.75017 14.5028C9.72082 14.4954 9.69524 14.4773 9.67835 14.4522C9.66147 14.427 9.65446 14.3966 9.65868 14.3666L10.7422 9.09227C10.7486 9.06291 10.7663 9.03727 10.7915 9.02091C10.8167 9.00456 10.8473 8.99884 10.8767 9.00498C10.8913 9.00739 10.9052 9.01273 10.9176 9.02066C10.93 9.02859 10.9407 9.03895 10.9491 9.05112C10.9574 9.0633 10.9631 9.07703 10.966 9.09149C10.9689 9.10595 10.9688 9.12085 10.9658 9.13528L9.88641 14.4113C9.87896 14.4407 9.86094 14.4662 9.8358 14.4831C9.81066 14.5 9.78016 14.507 9.75017 14.5028Z" fill="white"/>
</g>
<g opacity="0.47">
<path opacity="0.47" d="M12.4376 21.4859L12.4123 21.4754C12.399 21.4687 12.387 21.4593 12.3773 21.4479C12.3675 21.4365 12.3601 21.4233 12.3555 21.4091C12.3508 21.3948 12.3491 21.3797 12.3503 21.3648C12.3515 21.3498 12.3556 21.3353 12.3625 21.3219C12.6394 20.8375 12.8151 20.3019 12.8788 19.7476C12.9426 19.1932 12.893 18.6317 12.7331 18.0971C12.1364 16.3097 10.2829 15.3725 10.2661 15.3655C10.2387 15.3517 10.2177 15.3278 10.2076 15.2988C10.1975 15.2699 10.1991 15.2381 10.212 15.2103C10.2187 15.1969 10.2281 15.185 10.2395 15.1752C10.2509 15.1654 10.2641 15.158 10.2783 15.1534C10.2926 15.1487 10.3077 15.147 10.3226 15.1482C10.3376 15.1494 10.3521 15.1535 10.3655 15.1604C10.4496 15.1951 12.3249 16.1512 12.9486 18.0285C13.1185 18.5911 13.1722 19.1824 13.1064 19.7664C13.0406 20.3504 12.8567 20.9149 12.5659 21.4256C12.5545 21.4486 12.5356 21.4672 12.5123 21.4781C12.489 21.4891 12.4626 21.4918 12.4376 21.4859Z" fill="white"/>
</g>
<path d="M9.58627 19.5065C8.23872 19.5325 6.90084 19.2739 5.65996 18.7478C4.61656 18.3172 3.60495 17.7619 2.56275 17.3761C2.51684 17.5075 2.47952 17.6418 2.45103 17.7781C2.01229 20.0343 3.85142 22.295 6.59896 22.8676C9.3465 23.4401 11.9512 22.068 12.4152 19.8221C12.4539 19.6248 12.4756 19.4246 12.4801 19.2236C11.522 19.3755 10.5556 19.47 9.58627 19.5065Z" fill="#FE487C"/>
<path d="M2.56275 17.3761C2.56275 17.3761 4.52799 16.0502 12.4801 19.2236C12.4801 19.2236 8.10414 21.9525 2.56275 17.3761Z" fill="#FE9BB8"/>
<path d="M5.63419 18.5108C5.62274 18.5646 5.59562 18.6137 5.55626 18.6519C5.5169 18.6902 5.46707 18.716 5.41307 18.726C5.35907 18.7359 5.30333 18.7297 5.25289 18.708C5.20245 18.6863 5.15958 18.6501 5.1297 18.604C5.09982 18.5579 5.08428 18.504 5.08503 18.4491C5.08579 18.3942 5.1028 18.3408 5.13393 18.2955C5.16507 18.2503 5.20891 18.2153 5.25993 18.195C5.31095 18.1747 5.36684 18.17 5.42055 18.1814C5.49256 18.1968 5.55553 18.2401 5.59559 18.3019C5.63566 18.3637 5.64954 18.4388 5.63419 18.5108Z" fill="white"/>
<path d="M6.25659 15.823C6.23408 15.9345 6.1682 16.0325 6.07344 16.0954C5.97868 16.1584 5.8628 16.1811 5.7513 16.1586C5.63979 16.136 5.5418 16.0702 5.47887 15.9754C5.41594 15.8806 5.39323 15.7648 5.41575 15.6533C5.44463 15.5453 5.51221 15.4517 5.60562 15.3904C5.69904 15.3291 5.81175 15.3043 5.92228 15.3207C5.97743 15.3313 6.02991 15.3528 6.07667 15.3839C6.12344 15.415 6.16354 15.4551 6.19466 15.5018C6.22577 15.5486 6.24727 15.601 6.25791 15.6562C6.26854 15.7113 6.26809 15.768 6.25659 15.823Z" fill="white"/>
<path d="M9.65901 18.7931C9.63595 18.9043 9.56962 19.0019 9.47462 19.0642C9.37963 19.1266 9.26375 19.1487 9.15248 19.1256C9.04121 19.1026 8.94365 19.0362 8.88128 18.9412C8.81891 18.8462 8.79683 18.7304 8.8199 18.6191C8.83132 18.564 8.85349 18.5117 8.88512 18.4652C8.91676 18.4186 8.95725 18.3788 9.00429 18.3479C9.05132 18.317 9.10398 18.2957 9.15925 18.2852C9.21453 18.2746 9.27134 18.2751 9.32643 18.2865C9.38153 18.2979 9.43384 18.3201 9.48037 18.3517C9.52691 18.3834 9.56675 18.4239 9.59763 18.4709C9.62852 18.5179 9.64983 18.5706 9.66036 18.6259C9.67089 18.6811 9.67044 18.738 9.65901 18.7931Z" fill="white"/>
<path d="M8.51496 13.8453C8.50435 13.8993 8.4779 13.949 8.439 13.9879C8.40009 14.0269 8.35047 14.0534 8.29645 14.0641C8.24244 14.0748 8.18646 14.0692 8.13564 14.048C8.08482 14.0268 8.04145 13.991 8.01104 13.9451C7.98064 13.8991 7.96457 13.8452 7.96489 13.7902C7.96521 13.7351 7.98189 13.6814 8.01282 13.6358C8.04375 13.5903 8.08753 13.5549 8.13859 13.5343C8.18965 13.5137 8.24569 13.5087 8.29958 13.52C8.37103 13.535 8.4337 13.5776 8.47401 13.6385C8.51432 13.6993 8.52903 13.7736 8.51496 13.8453Z" fill="white"/>
<path d="M10.4137 16.5934C10.4023 16.6471 10.3752 16.6963 10.3358 16.7345C10.2965 16.7728 10.2466 16.7986 10.1926 16.8086C10.1386 16.8185 10.0829 16.8123 10.0325 16.7906C9.98201 16.7689 9.93915 16.7327 9.90927 16.6866C9.87939 16.6405 9.86384 16.5866 9.86459 16.5317C9.86535 16.4768 9.88237 16.4234 9.9135 16.3781C9.94463 16.3329 9.98848 16.2979 10.0395 16.2776C10.0905 16.2573 10.1464 16.2526 10.2001 16.264C10.2715 16.2804 10.3337 16.324 10.3736 16.3855C10.4135 16.447 10.4279 16.5215 10.4137 16.5934Z" fill="white"/>
<path d="M8.14218 16.9313C8.13882 16.9703 8.12725 17.0082 8.10823 17.0424C8.08922 17.0766 8.06318 17.1064 8.03184 17.1298C8.00051 17.1533 7.96457 17.1698 7.92638 17.1784C7.8882 17.1869 7.84863 17.1873 7.81028 17.1796C7.77193 17.1718 7.73566 17.1559 7.70385 17.1332C7.67204 17.1104 7.64541 17.0811 7.62571 17.0473C7.606 17.0135 7.59366 16.9759 7.58951 16.937C7.58535 16.8981 7.58947 16.8587 7.60159 16.8215C7.62269 16.7567 7.66689 16.7019 7.72576 16.6676C7.78463 16.6333 7.85407 16.6218 7.92085 16.6354C7.98763 16.649 8.0471 16.6866 8.08791 16.7412C8.12872 16.7958 8.14804 16.8634 8.14218 16.9313Z" fill="white"/>
<path d="M3.55781 19.2836C3.55094 19.3193 3.53702 19.3532 3.51686 19.3834C3.49671 19.4136 3.47073 19.4395 3.44044 19.4596C3.41016 19.4797 3.37617 19.4935 3.34048 19.5002C3.30479 19.507 3.26811 19.5066 3.23259 19.499C3.16779 19.4779 3.11302 19.4337 3.07871 19.3748C3.04439 19.3159 3.03292 19.2465 3.04649 19.1797C3.06006 19.1129 3.09772 19.0535 3.15229 19.0126C3.20686 18.9718 3.27454 18.9525 3.34244 18.9584C3.37811 18.9652 3.41204 18.9792 3.44227 18.9993C3.47249 19.0195 3.49838 19.0455 3.51844 19.0757C3.5385 19.106 3.55231 19.14 3.55907 19.1757C3.56583 19.2114 3.5654 19.2481 3.55781 19.2836Z" fill="white"/>
<path d="M8.05011 21.1869C8.0395 21.2409 8.01306 21.2906 7.97415 21.3295C7.93525 21.3685 7.88563 21.395 7.83161 21.4057C7.7776 21.4164 7.72162 21.4108 7.6708 21.3896C7.61997 21.3684 7.57661 21.3326 7.5462 21.2867C7.5158 21.2408 7.49973 21.1868 7.50005 21.1318C7.50037 21.0767 7.51705 21.023 7.54798 20.9774C7.57891 20.9319 7.62269 20.8965 7.67375 20.8759C7.72481 20.8553 7.78085 20.8503 7.83474 20.8617C7.90619 20.8767 7.96885 20.9192 8.00916 20.9801C8.04947 21.0409 8.06418 21.1152 8.05011 21.1869Z" fill="white"/>
<g style="mix-blend-mode:color">
<path opacity="0.22" d="M34.7451 14.6452L30.0673 12.7387C29.9425 12.7015 29.8082 12.7139 29.6924 12.7733C29.5765 12.8326 29.488 12.9343 29.4453 13.0573C29.3884 13.1757 29.3799 13.3115 29.4214 13.4361C29.4629 13.5607 29.5513 13.6642 29.6678 13.7248L30.0319 13.8715L26.148 23.4092C26.148 23.4092 24.8584 26.2716 26.9218 27.1616H26.9774H27.033C29.1317 27.9657 30.2089 25.0124 30.2089 25.0124L34.0928 15.4797L34.3456 15.5808C34.4704 15.618 34.6047 15.6056 34.7205 15.5462C34.8364 15.4869 34.9249 15.3852 34.9676 15.2622C35.0099 15.1497 35.0107 15.0258 34.97 14.9128C34.9292 14.7997 34.8495 14.7049 34.7451 14.6452Z" fill="#F4C222"/>
<path d="M29.5715 16.5923L26.5372 24.0112C26.4232 24.2069 26.3526 24.4249 26.3301 24.6503C26.3076 24.8758 26.3337 25.1034 26.4068 25.3178C26.4798 25.5323 26.598 25.7286 26.7534 25.8934C26.9088 26.0582 27.0978 26.1878 27.3076 26.2733C27.5174 26.3588 27.7431 26.3983 27.9694 26.3891C28.1958 26.3799 28.4176 26.3222 28.6197 26.22C28.8219 26.1177 28.9997 25.9732 29.1412 25.7963C29.2827 25.6194 29.3846 25.4142 29.44 25.1945L32.4743 17.7757L29.5715 16.5923Z" fill="#F4C222"/>
<path d="M27.6806 21.2297L26.5528 23.996C26.4388 24.1918 26.3682 24.4097 26.3457 24.6352C26.3232 24.8606 26.3494 25.0882 26.4224 25.3027C26.4954 25.5171 26.6136 25.7134 26.7691 25.8782C26.9245 26.0431 27.1134 26.1726 27.3232 26.2581C27.533 26.3437 27.7587 26.3832 27.9851 26.374C28.2114 26.3648 28.4332 26.3071 28.6353 26.2048C28.8375 26.1025 29.0153 25.9581 29.1568 25.7812C29.2984 25.6043 29.4002 25.399 29.4556 25.1794L30.8463 21.7557C29.7692 21.7152 28.7274 21.3713 27.6806 21.2297Z" fill="#F4C222"/>
<path opacity="0.56" d="M30.0519 17.9426C30.0246 17.9883 29.9846 18.0252 29.9369 18.0489C29.8891 18.0726 29.8355 18.0821 29.7826 18.0762C29.7296 18.0703 29.6794 18.0493 29.638 18.0157C29.5966 17.9821 29.5658 17.9373 29.5491 17.8867C29.5324 17.8361 29.5307 17.7817 29.544 17.7301C29.5574 17.6785 29.5853 17.6318 29.6244 17.5956C29.6635 17.5594 29.7122 17.5352 29.7647 17.5259C29.8172 17.5166 29.8713 17.5225 29.9205 17.5431C29.9898 17.5798 30.0421 17.6419 30.0667 17.7164C30.0912 17.7908 30.0859 17.8719 30.0519 17.9426Z" fill="#F4C222"/>
<path opacity="0.56" d="M30.9621 20.3093C30.9347 20.355 30.8948 20.3919 30.847 20.4156C30.7993 20.4393 30.7457 20.4488 30.6927 20.4429C30.6397 20.437 30.5896 20.416 30.5482 20.3824C30.5068 20.3488 30.4759 20.304 30.4593 20.2534C30.4426 20.2028 30.4408 20.1484 30.4542 20.0968C30.4675 20.0452 30.4954 19.9985 30.5346 19.9623C30.5737 19.9261 30.6224 19.9019 30.6749 19.8926C30.7274 19.8833 30.7814 19.8892 30.8306 19.9098C30.9009 19.9455 30.9541 20.0076 30.9787 20.0824C31.0034 20.1573 30.9974 20.2388 30.9621 20.3093Z" fill="#F4C222"/>
<path opacity="0.56" d="M31.2609 14.5392C31.2336 14.5849 31.1936 14.6218 31.1459 14.6455C31.0981 14.6692 31.0445 14.6786 30.9916 14.6727C30.9386 14.6669 30.8884 14.6459 30.847 14.6123C30.8056 14.5787 30.7747 14.5339 30.7581 14.4833C30.7414 14.4326 30.7397 14.3783 30.753 14.3267C30.7664 14.275 30.7943 14.2284 30.8334 14.1921C30.8725 14.1559 30.9212 14.1317 30.9737 14.1224C31.0262 14.1131 31.0803 14.1191 31.1295 14.1396C31.1997 14.1754 31.2529 14.2374 31.2776 14.3123C31.3022 14.3871 31.2962 14.4687 31.2609 14.5392Z" fill="#F4C222"/>
<path opacity="0.56" d="M29.4602 20.638C29.4332 20.6839 29.3936 20.721 29.3461 20.745C29.2986 20.769 29.2453 20.7789 29.1923 20.7735C29.1394 20.7681 29.0891 20.7477 29.0475 20.7146C29.0058 20.6815 28.9745 20.6371 28.9573 20.5868C28.9401 20.5364 28.9377 20.4822 28.9504 20.4305C28.9631 20.3789 28.9903 20.3319 29.0289 20.2953C29.0674 20.2586 29.1157 20.2338 29.1679 20.2237C29.2202 20.2136 29.2742 20.2188 29.3236 20.2385C29.3938 20.2743 29.4473 20.3361 29.4728 20.4106C29.4983 20.4852 29.4937 20.5667 29.4602 20.638Z" fill="#F4C222"/>
<path opacity="0.56" d="M32.3587 16.3395C32.329 16.4218 32.2828 16.4973 32.2229 16.5611C32.163 16.625 32.0907 16.6759 32.0104 16.7107C31.9301 16.7456 31.8435 16.7637 31.7559 16.7639C31.6684 16.7641 31.5817 16.7464 31.5013 16.7118C31.4208 16.6773 31.3483 16.6267 31.2881 16.5631C31.2279 16.4995 31.1814 16.4243 31.1513 16.3421C31.1213 16.2598 31.1083 16.1723 31.1134 16.0849C31.1184 15.9975 31.1412 15.912 31.1804 15.8338C31.2101 15.7514 31.2563 15.676 31.3163 15.6121C31.3762 15.5483 31.4485 15.4974 31.5288 15.4625C31.6091 15.4276 31.6957 15.4096 31.7832 15.4094C31.8708 15.4092 31.9575 15.4269 32.0379 15.4614C32.1184 15.496 32.1909 15.5466 32.2511 15.6102C32.3113 15.6737 32.3578 15.749 32.3879 15.8312C32.4179 15.9134 32.4308 16.0009 32.4258 16.0884C32.4208 16.1758 32.398 16.2612 32.3587 16.3395Z" fill="#F4C222"/>
<path opacity="0.45" d="M27.175 26.9645H27.1346C27.1174 26.9549 27.1046 26.9389 27.0989 26.9201C27.0932 26.9012 27.0951 26.8808 27.1042 26.8634C27.1111 26.8458 27.1241 26.8315 27.141 26.8231C27.1578 26.8147 27.1771 26.8128 27.1952 26.8178C27.4972 26.9414 27.8305 26.9663 28.1474 26.8891C28.4644 26.8119 28.7489 26.6365 28.9602 26.388C29.2444 26.1209 29.4865 25.8123 29.6783 25.4726L33.4863 16.0866C33.4874 16.0757 33.4911 16.0652 33.4969 16.056C33.5028 16.0467 33.5107 16.039 33.5201 16.0333C33.5295 16.0276 33.5401 16.0242 33.551 16.0233C33.5619 16.0224 33.5729 16.0241 33.583 16.0281C33.5932 16.0322 33.6023 16.0386 33.6096 16.0468C33.6169 16.0549 33.6222 16.0647 33.6251 16.0753C33.6279 16.0858 33.6283 16.0969 33.6262 16.1077C33.6241 16.1184 33.6194 16.1285 33.6127 16.1372L29.7997 25.4979C29.7845 25.5485 28.6669 27.5713 27.175 26.9645Z" fill="#F4C222"/>
<path opacity="0.45" d="M34.5681 14.9842L31.8979 13.8969C31.8896 13.8927 31.8822 13.8868 31.8761 13.8796C31.8701 13.8725 31.8655 13.8642 31.8627 13.8552C31.8598 13.8463 31.8588 13.8369 31.8597 13.8276C31.8605 13.8182 31.8632 13.8091 31.8676 13.8009C31.8699 13.7913 31.8741 13.7824 31.88 13.7746C31.886 13.7668 31.8934 13.7604 31.902 13.7556C31.9106 13.7509 31.92 13.7479 31.9297 13.747C31.9395 13.7461 31.9493 13.7472 31.9586 13.7503L34.6288 14.8376C34.6378 14.8418 34.6458 14.8479 34.6523 14.8554C34.6589 14.863 34.6637 14.8718 34.6666 14.8813C34.6694 14.8909 34.6702 14.9009 34.669 14.9108C34.6677 14.9207 34.6643 14.9302 34.6591 14.9387C34.6563 14.9478 34.6516 14.9562 34.6454 14.9634C34.6393 14.9706 34.6317 14.9765 34.6232 14.9808C34.6147 14.985 34.6055 14.9875 34.596 14.9881C34.5865 14.9887 34.577 14.9874 34.5681 14.9842Z" fill="#F4C222"/>
<path d="M21.5829 8.85661C21.5829 9.08133 21.5163 9.301 21.3914 9.48785C21.2666 9.6747 21.0891 9.82033 20.8815 9.90632C20.6739 9.99232 20.4455 10.0148 20.2251 9.97098C20.0047 9.92714 19.8022 9.81893 19.6433 9.66003C19.4844 9.50113 19.3762 9.29868 19.3324 9.07827C19.2885 8.85787 19.311 8.62942 19.397 8.42181C19.483 8.2142 19.6287 8.03675 19.8155 7.9119C20.0023 7.78705 20.222 7.72042 20.4467 7.72042C20.5962 7.71958 20.7443 7.7484 20.8825 7.8052C21.0208 7.862 21.1463 7.94566 21.252 8.05133C21.3577 8.15701 21.4413 8.28259 21.4981 8.42082C21.5549 8.55905 21.5838 8.70717 21.5829 8.85661Z" fill="#F4C222"/>
<path d="M21.4184 11.6088C22.0459 11.6088 22.5546 11.1001 22.5546 10.4726C22.5546 9.84506 22.0459 9.33636 21.4184 9.33636C20.7909 9.33636 20.2822 9.84506 20.2822 10.4726C20.2822 11.1001 20.7909 11.6088 21.4184 11.6088Z" fill="#F4C222"/>
<path d="M20.4469 10.5042C20.4419 10.7278 20.3711 10.945 20.2433 11.1284C20.1154 11.3119 19.9363 11.4536 19.7283 11.5358C19.5203 11.6179 19.2927 11.6368 19.074 11.5902C18.8553 11.5435 18.6552 11.4334 18.4988 11.2735C18.3424 11.1137 18.2367 10.9112 18.1949 10.6915C18.153 10.4718 18.177 10.2447 18.2636 10.0386C18.3503 9.83241 18.4959 9.65643 18.6822 9.53266C18.8684 9.4089 19.0871 9.34285 19.3107 9.34279C19.4623 9.34189 19.6126 9.3715 19.7525 9.42987C19.8924 9.48824 20.0191 9.57416 20.1251 9.68254C20.2312 9.79091 20.3143 9.91951 20.3696 10.0607C20.4248 10.2018 20.4511 10.3527 20.4469 10.5042Z" fill="#F4C222"/>
<path d="M20.1252 18.7099C18.1495 18.7099 16.5967 14.809 16.5967 9.83498C16.5967 4.86096 18.1495 0.960022 20.1252 0.960022C22.1009 0.960022 23.6538 4.85465 23.6538 9.83498C23.6538 14.8153 22.1009 18.7099 20.1252 18.7099ZM20.1252 1.2062C18.3199 1.2062 16.8492 5.07558 16.8492 9.83498C16.8492 14.5944 18.3199 18.4574 20.1252 18.4574C21.9305 18.4574 23.4076 14.5881 23.4076 9.83498C23.4076 5.08189 21.9368 1.19989 20.1252 1.19989V1.2062Z" fill="#F4C222"/>
<path d="M20.125 13.3508C15.1509 13.3508 11.25 11.8043 11.25 9.82863C11.25 7.85291 15.1509 6.30011 20.125 6.30011C25.099 6.30011 28.9999 7.85291 28.9999 9.82863C28.9999 11.8043 25.099 13.3508 20.125 13.3508ZM20.125 6.54629C15.3656 6.54629 11.4962 8.01703 11.4962 9.82863C11.4962 11.6402 15.3656 13.1047 20.125 13.1047C24.8844 13.1047 28.779 11.6339 28.779 9.82863C28.779 8.02334 24.8844 6.54629 20.125 6.54629Z" fill="#F4C222"/>
<path d="M25.3571 16.0084C24.7128 15.9909 24.0747 15.8782 23.4634 15.6738C21.4584 14.9835 19.5939 13.9379 17.9592 12.5871C16.2709 11.3026 14.8276 9.72466 13.6984 7.92874C12.7769 6.35069 12.6001 5.06931 13.1998 4.31185C13.7994 3.55438 15.0934 3.44076 16.8356 3.9773C20.8368 5.44535 24.2601 8.16056 26.6006 11.7224C27.5222 13.3004 27.6989 14.5881 27.1056 15.3393C26.8862 15.5791 26.614 15.7644 26.3104 15.8806C26.0069 15.9968 25.6805 16.0405 25.3571 16.0084ZM14.8915 3.88893C14.6094 3.86224 14.3249 3.90073 14.0601 4.00142C13.7952 4.10211 13.557 4.26231 13.3639 4.46965C12.8337 5.13874 13.023 6.31913 13.8878 7.80249C15.0029 9.57148 16.4243 11.1276 18.0854 12.3978C19.6997 13.7265 21.538 14.7567 23.5139 15.4403C25.1551 15.9452 26.3544 15.8569 26.8846 15.1878C27.4149 14.5187 27.2318 13.332 26.3607 11.8486C25.2454 10.0816 23.8239 8.52767 22.1631 7.25964C20.5503 5.92871 18.7116 4.89819 16.7346 4.21716C16.1402 4.01591 15.5188 3.90526 14.8915 3.88893Z" fill="#F4C222"/>
<path d="M15.4848 16.8984C15.0427 16.9193 14.6086 16.7753 14.2665 16.4944C13.547 15.8632 13.4902 14.5629 14.1151 12.8459C14.9067 10.8778 16.0439 9.06715 17.4731 7.49951C18.8449 5.87957 20.4952 4.51787 22.3462 3.47863C23.9684 2.63911 25.2561 2.52549 25.982 3.16302C27.4654 4.46334 26.0577 8.41478 22.7754 12.1579C21.4055 13.7789 19.7574 15.1427 17.9087 16.1851C17.1673 16.6085 16.3373 16.8527 15.4848 16.8984ZM24.7574 3.01153C23.9509 3.06131 23.1667 3.29678 22.4661 3.69956C20.6444 4.72567 19.0199 6.06797 17.6688 7.66362C16.2606 9.20788 15.1384 10.9905 14.3549 12.928C13.7679 14.5439 13.7931 15.7432 14.437 16.3113C15.0808 16.8794 16.2738 16.7469 17.8014 15.9515C19.6223 14.9296 21.2451 13.5891 22.5923 11.9938C25.7484 8.42109 27.1813 4.53908 25.8242 3.34608C25.5246 3.10091 25.1439 2.97703 24.7574 2.99891V3.01153Z" fill="#F4C222"/>
<path d="M20.1249 2.07101C20.5676 2.07101 20.9265 1.7121 20.9265 1.26936C20.9265 0.826623 20.5676 0.467712 20.1249 0.467712C19.6821 0.467712 19.3232 0.826623 19.3232 1.26936C19.3232 1.7121 19.6821 2.07101 20.1249 2.07101Z" fill="#F4C222"/>
<path d="M26.7841 16.1536C27.2268 16.1536 27.5857 15.7947 27.5857 15.3519C27.5857 14.9092 27.2268 14.5503 26.7841 14.5503C26.3413 14.5503 25.9824 14.9092 25.9824 15.3519C25.9824 15.7947 26.3413 16.1536 26.7841 16.1536Z" fill="#F4C222"/>
<path d="M14.3622 9.75289C14.8049 9.75289 15.1638 9.39398 15.1638 8.95124C15.1638 8.50851 14.8049 8.1496 14.3622 8.1496C13.9195 8.1496 13.5605 8.50851 13.5605 8.95124C13.5605 9.39398 13.9195 9.75289 14.3622 9.75289Z" fill="#F4C222"/>
<path d="M20.2472 19.1622C20.5719 19.1622 20.8351 18.8989 20.8351 18.5742C20.8351 18.2495 20.5719 17.9862 20.2472 17.9862C19.9224 17.9862 19.6592 18.2495 19.6592 18.5742C19.6592 18.8989 19.9224 19.1622 20.2472 19.1622Z" fill="#F4C222"/>
<path d="M24.8051 26.6449L17.21 29.4228C16.9587 29.5148 16.8294 29.7931 16.9214 30.0445L17.0004 30.2605C17.0923 30.5118 17.3706 30.6411 17.622 30.5492L25.217 27.7713C25.4684 27.6793 25.5977 27.401 25.5057 27.1496L25.4267 26.9336C25.3348 26.6822 25.0565 26.553 24.8051 26.6449Z" fill="#F4C222"/>
<path d="M16.9502 29.0628V32.5965C16.9502 32.5965 23.9693 31.3784 26.0577 29.1402L24.124 26.5007L16.9502 29.0628Z" fill="#F4C222"/>
<g style="mix-blend-mode:multiply" opacity="0.61">
<path d="M19.5848 29.7444C21.4169 29.1063 23.2345 28.4344 25.0522 27.7479L24.1433 26.5007L16.9502 29.0628V30.5904C17.8348 30.3149 18.7195 30.049 19.5848 29.7444Z" fill="#F4C222"/>
</g>
<path opacity="0.61" d="M17.8545 23.5181L18.8165 25.4083L19.3289 25.0892L18.5699 23.1556L17.8545 23.5181Z" fill="#F4C222"/>
<path opacity="0.61" d="M19.4062 22.8124L20.3682 24.7025L20.8806 24.3835L20.1265 22.4498L19.4062 22.8124Z" fill="#F4C222"/>
<path opacity="0.61" d="M20.7451 22.179L21.8908 23.9724L22.3646 23.6002L21.4267 21.7487L20.7451 22.179Z" fill="#F4C222"/>
<path d="M17.2694 21.9034L15.152 16.818C15.152 16.818 14.9393 15.6916 16.3509 15.126C17.7625 14.5604 18.2362 15.6916 18.2362 15.6916L20.3535 20.3517C20.3535 20.3517 19.933 21.6907 17.2694 21.9034Z" fill="#F4C222"/>
<path d="M17.0381 21.1976L16.5547 24.2335C16.5547 24.2335 20.6492 24.0208 22.3556 21.1251L20.0256 19.6411L17.0381 21.1976Z" fill="#F4C222"/>
<path d="M15.6261 17.1032C15.6261 17.1032 10.5406 18.9353 11.0337 24.0208C11.5267 29.1063 16.2593 29.1063 16.472 29.174L16.8249 28.2555C16.8249 28.2555 12.8706 27.4821 12.7304 23.9483C12.6704 22.7228 12.9732 21.5069 13.6009 20.4527C14.2286 19.3985 15.1533 18.5528 16.2593 18.0217L15.6261 17.1032Z" fill="#F4C222"/>
<path d="M25.8558 28.9264L16.9166 32.196C16.6207 32.3042 16.4686 32.6318 16.5768 32.9276L16.6698 33.1819C16.778 33.4777 17.1056 33.6299 17.4014 33.5216L26.3407 30.2521C26.6365 30.1439 26.7887 29.8163 26.6804 29.5205L26.5875 29.2662C26.4792 28.9703 26.1517 28.8182 25.8558 28.9264Z" fill="#F4C222"/>
<path d="M17.2276 29.3007C17.3397 28.6075 16.8686 27.9548 16.1754 27.8428C15.4822 27.7308 14.8295 28.2019 14.7175 28.8951C14.6055 29.5882 15.0766 30.241 15.7697 30.353C16.4629 30.465 17.1156 29.9939 17.2276 29.3007Z" fill="#F4C222"/>
<path opacity="0.55" d="M18.6625 17.6591C18.6344 17.6593 18.6071 17.6505 18.5844 17.6339C18.5618 17.6174 18.5451 17.594 18.5368 17.5672C18.1839 16.5472 17.7392 15.943 17.2364 15.8221C17.0799 15.7927 16.9188 15.7996 16.7654 15.8424C16.612 15.8851 16.4705 15.9625 16.3518 16.0686C16.3396 16.0814 16.3249 16.0915 16.3087 16.0984C16.2925 16.1053 16.2751 16.1089 16.2575 16.1089C16.2399 16.1089 16.2224 16.1053 16.2062 16.0984C16.19 16.0915 16.1754 16.0814 16.1632 16.0686C16.1387 16.0434 16.125 16.0096 16.125 15.9744C16.125 15.9392 16.1387 15.9054 16.1632 15.8801C16.3139 15.7427 16.4948 15.6427 16.6913 15.5881C16.8878 15.5335 17.0944 15.5259 17.2944 15.5659C17.8987 15.7109 18.4014 16.3587 18.7833 17.4996C18.7944 17.5336 18.7921 17.5705 18.7768 17.6029C18.7615 17.6352 18.7345 17.6605 18.7012 17.6736L18.6625 17.6591Z" fill="#F4C222"/>
<path opacity="0.55" d="M21.6979 21.333C21.6774 21.3393 21.6555 21.3393 21.6351 21.333L20.0108 20.487C19.9926 20.4804 19.9761 20.47 19.9623 20.4564C19.9485 20.4428 19.9378 20.4265 19.9309 20.4084C19.9239 20.3903 19.921 20.371 19.9221 20.3517C19.9233 20.3324 19.9286 20.3135 19.9377 20.2965C19.9467 20.2794 19.9594 20.2644 19.9747 20.2526C19.99 20.2408 20.0077 20.2325 20.0265 20.2281C20.0454 20.2237 20.0649 20.2234 20.0839 20.2272C20.1029 20.231 20.1208 20.2388 20.1365 20.2502L21.7607 21.0961C21.792 21.1136 21.8155 21.1423 21.8263 21.1764C21.8371 21.2106 21.8344 21.2476 21.8188 21.2798C21.8045 21.298 21.7861 21.3123 21.765 21.3215C21.7439 21.3308 21.7209 21.3348 21.6979 21.333Z" fill="#F4C222"/>
<path opacity="0.57" d="M16.3045 29.8882C16.7358 29.7086 16.9398 29.2133 16.7602 28.782C16.5806 28.3507 16.0853 28.1467 15.654 28.3263C15.2227 28.5059 15.0187 29.0012 15.1983 29.4325C15.3779 29.8638 15.8732 30.0678 16.3045 29.8882Z" fill="#F4C222"/>
<path opacity="0.55" d="M20.238 31.2333C20.2067 31.2329 20.1765 31.2216 20.1526 31.2014C20.1286 31.1812 20.1125 31.1534 20.1068 31.1226C20.1011 31.0918 20.1062 31.06 20.1213 31.0326C20.1364 31.0052 20.1606 30.9839 20.1896 30.9723L25.7295 28.9903C25.7636 28.9803 25.8001 28.9832 25.8322 28.9983C25.8642 29.0135 25.8896 29.0398 25.9036 29.0724C25.9147 29.1065 25.9123 29.1434 25.8971 29.1758C25.8818 29.2081 25.8547 29.2334 25.8214 29.2465L20.2815 31.2478C20.2658 31.2478 20.2505 31.2427 20.238 31.2333Z" fill="#F4C222"/>
<path d="M23.43 25.0763L18.8245 26.8239C18.6922 26.8741 18.6257 27.022 18.6759 27.1543L18.7187 27.2673C18.7689 27.3996 18.9169 27.4662 19.0492 27.416L23.6547 25.6683C23.787 25.6181 23.8535 25.4702 23.8033 25.3379L23.7605 25.2249C23.7103 25.0926 23.5623 25.0261 23.43 25.0763Z" fill="#F4C222"/>
<g style="mix-blend-mode:overlay" opacity="0.48">
<path d="M20.4115 26.2203L19.9523 26.3944C19.8266 26.6651 19.7058 26.9406 19.5801 27.2113L20.0973 27.018C20.1988 26.7521 20.3052 26.4862 20.4115 26.2203Z" fill="#F4C222"/>
</g>
<g style="mix-blend-mode:overlay" opacity="0.48">
<path d="M22.4615 25.4421L21.7751 25.6983C21.6687 25.969 21.5575 26.2349 21.4512 26.5056L22.215 26.2155C22.2923 25.9545 22.3745 25.6983 22.4615 25.4421Z" fill="#F4C222"/>
</g>
<path opacity="0.22" d="M8.12953 23.3812C7.01051 23.4959 5.88996 23.1787 4.99711 22.4944C4.10427 21.8102 3.50661 20.8107 3.32642 19.7003C3.09972 18.5816 3.29229 17.4186 3.86746 16.4326C4.49165 15.3854 5.4901 14.7437 6.47546 14.0622C7.00991 13.7295 7.47343 13.2946 7.83945 12.7823C8.20546 12.2701 8.46676 11.6907 8.60837 11.0773C8.89333 9.8056 9.04289 8.50734 9.05457 7.20419L7.55258 6.89454C7.50305 6.88453 7.45201 6.88468 7.40255 6.89498C7.35308 6.90528 7.30622 6.92552 7.26481 6.95447C7.2234 6.98342 7.1883 7.02047 7.16163 7.06339C7.13497 7.10631 7.11729 7.15419 7.10968 7.20414C7.09827 7.25377 7.0974 7.30524 7.10712 7.35523C7.11683 7.40522 7.13693 7.45262 7.16611 7.49436C7.19529 7.5361 7.2329 7.57125 7.27651 7.59755C7.32012 7.62385 7.36876 7.64071 7.41929 7.64703L7.9641 7.75862L6.71139 13.7411C4.12821 13.8321 1.95862 15.2953 1.51575 17.4661C0.968762 20.1158 3.20464 22.8111 6.50467 23.4886C9.8047 24.1661 12.9216 22.567 13.4626 19.9197C13.485 19.8059 13.5014 19.6945 13.5178 19.5831C13.0204 20.6248 12.2636 21.5212 11.3201 22.1863C10.3765 22.8514 9.27786 23.2629 8.12953 23.3812Z" fill="#F4C222"/>
<path opacity="0.47" d="M12.0847 8.23804L9.32357 7.67463C9.29393 7.66893 9.26777 7.65169 9.25084 7.6267C9.23392 7.6017 9.22761 7.57101 9.23331 7.54137C9.23902 7.51173 9.25626 7.48557 9.28125 7.46864C9.30624 7.45172 9.33694 7.44541 9.36658 7.45112L12.126 8.01873C12.1416 8.02069 12.1567 8.02588 12.1702 8.03397C12.1837 8.04205 12.1954 8.05285 12.2046 8.06569C12.2137 8.07854 12.2201 8.09313 12.2233 8.10856C12.2265 8.12399 12.2264 8.13992 12.2231 8.15533C12.2199 8.17074 12.2134 8.1853 12.2042 8.19809C12.195 8.21088 12.1832 8.22162 12.1697 8.22963C12.1561 8.23764 12.141 8.24274 12.1254 8.24461C12.1097 8.24649 12.0939 8.24509 12.0788 8.24052L12.0847 8.23804Z" fill="#F4C222"/>
<path opacity="0.22" d="M10.1593 14.4303L11.3927 8.43493L11.9316 8.54899C12.0276 8.56714 12.1269 8.5474 12.2086 8.49392C12.2903 8.44044 12.3482 8.35737 12.37 8.26216C12.3894 8.16605 12.3701 8.06619 12.3164 7.98416C12.2628 7.90212 12.179 7.8445 12.0832 7.82374L7.54428 6.89104C7.49475 6.88103 7.44371 6.88118 7.39425 6.89148C7.34478 6.90179 7.29792 6.92203 7.25651 6.95097C7.2151 6.97992 7.18 7.01698 7.15333 7.05989C7.12667 7.10281 7.109 7.1507 7.10139 7.20064C7.08997 7.25028 7.0891 7.30175 7.09882 7.35174C7.10854 7.40173 7.12863 7.44912 7.15781 7.49086C7.18699 7.5326 7.2246 7.56776 7.26821 7.59405C7.31182 7.62035 7.36046 7.63721 7.41099 7.64354L7.95579 7.75512L6.71151 13.741C4.12833 13.8321 1.95873 15.2952 1.51586 17.466C0.968876 20.1158 3.20476 22.8111 6.50478 23.4886C9.80481 24.166 12.9217 22.567 13.4627 19.9197C13.9168 17.7338 12.498 15.5283 10.1593 14.4303Z" fill="#F4C222"/>
<g opacity="0.47">
<path opacity="0.47" d="M9.75017 14.5028C9.72082 14.4954 9.69524 14.4773 9.67835 14.4522C9.66147 14.427 9.65446 14.3966 9.65868 14.3666L10.7422 9.09227C10.7486 9.06291 10.7663 9.03727 10.7915 9.02091C10.8167 9.00456 10.8473 8.99884 10.8767 9.00498C10.8913 9.00739 10.9052 9.01273 10.9176 9.02066C10.93 9.02859 10.9407 9.03895 10.9491 9.05112C10.9574 9.0633 10.9631 9.07703 10.966 9.09149C10.9689 9.10595 10.9688 9.12085 10.9658 9.13528L9.88641 14.4113C9.87896 14.4407 9.86094 14.4662 9.8358 14.4831C9.81066 14.5 9.78016 14.507 9.75017 14.5028Z" fill="#F4C222"/>
</g>
<g opacity="0.47">
<path opacity="0.47" d="M12.4376 21.4859L12.4123 21.4754C12.399 21.4687 12.387 21.4593 12.3773 21.4479C12.3675 21.4365 12.3601 21.4233 12.3555 21.4091C12.3508 21.3948 12.3491 21.3797 12.3503 21.3648C12.3515 21.3498 12.3556 21.3353 12.3625 21.3219C12.6394 20.8375 12.8151 20.3019 12.8788 19.7476C12.9426 19.1932 12.893 18.6317 12.7331 18.0971C12.1364 16.3097 10.2829 15.3725 10.2661 15.3655C10.2387 15.3517 10.2177 15.3278 10.2076 15.2988C10.1975 15.2699 10.1991 15.2381 10.212 15.2103C10.2187 15.1969 10.2281 15.185 10.2395 15.1752C10.2509 15.1654 10.2641 15.158 10.2783 15.1534C10.2926 15.1487 10.3077 15.147 10.3226 15.1482C10.3376 15.1494 10.3521 15.1535 10.3655 15.1604C10.4496 15.1951 12.3249 16.1512 12.9486 18.0285C13.1185 18.5911 13.1722 19.1824 13.1064 19.7664C13.0406 20.3504 12.8567 20.9149 12.5659 21.4256C12.5545 21.4486 12.5356 21.4672 12.5123 21.4781C12.489 21.4891 12.4626 21.4918 12.4376 21.4859Z" fill="#F4C222"/>
</g>
<path d="M9.58627 19.5065C8.23872 19.5325 6.90084 19.2739 5.65996 18.7478C4.61656 18.3172 3.60495 17.7619 2.56275 17.3761C2.51684 17.5075 2.47952 17.6418 2.45103 17.7781C2.01229 20.0343 3.85142 22.295 6.59896 22.8676C9.3465 23.4401 11.9512 22.068 12.4152 19.8221C12.4539 19.6248 12.4756 19.4246 12.4801 19.2236C11.522 19.3755 10.5556 19.47 9.58627 19.5065Z" fill="#F4C222"/>
<path d="M2.56275 17.3761C2.56275 17.3761 4.52799 16.0502 12.4801 19.2236C12.4801 19.2236 8.10414 21.9525 2.56275 17.3761Z" fill="#F4C222"/>
<path d="M5.63419 18.5108C5.62274 18.5646 5.59562 18.6137 5.55626 18.6519C5.5169 18.6902 5.46707 18.716 5.41307 18.726C5.35907 18.7359 5.30333 18.7297 5.25289 18.708C5.20245 18.6863 5.15958 18.6501 5.1297 18.604C5.09982 18.5579 5.08428 18.504 5.08503 18.4491C5.08579 18.3942 5.1028 18.3408 5.13393 18.2955C5.16507 18.2503 5.20891 18.2153 5.25993 18.195C5.31095 18.1747 5.36684 18.17 5.42055 18.1814C5.49256 18.1968 5.55553 18.2401 5.59559 18.3019C5.63566 18.3637 5.64954 18.4388 5.63419 18.5108Z" fill="#F4C222"/>
<path d="M6.25659 15.823C6.23408 15.9345 6.1682 16.0325 6.07344 16.0954C5.97868 16.1584 5.8628 16.1811 5.7513 16.1586C5.63979 16.136 5.5418 16.0702 5.47887 15.9754C5.41594 15.8806 5.39323 15.7648 5.41575 15.6533C5.44463 15.5453 5.51221 15.4517 5.60562 15.3904C5.69904 15.3291 5.81175 15.3043 5.92228 15.3207C5.97743 15.3313 6.02991 15.3528 6.07667 15.3839C6.12344 15.415 6.16354 15.4551 6.19466 15.5018C6.22577 15.5486 6.24727 15.601 6.25791 15.6562C6.26854 15.7113 6.26809 15.768 6.25659 15.823Z" fill="#F4C222"/>
<path d="M9.65901 18.7931C9.63595 18.9043 9.56962 19.0019 9.47462 19.0642C9.37963 19.1266 9.26375 19.1487 9.15248 19.1256C9.04121 19.1026 8.94365 19.0362 8.88128 18.9412C8.81891 18.8462 8.79683 18.7304 8.8199 18.6191C8.83132 18.564 8.85349 18.5117 8.88512 18.4652C8.91676 18.4186 8.95725 18.3788 9.00429 18.3479C9.05132 18.317 9.10398 18.2957 9.15925 18.2852C9.21453 18.2746 9.27134 18.2751 9.32643 18.2865C9.38153 18.2979 9.43384 18.3201 9.48037 18.3517C9.52691 18.3834 9.56675 18.4239 9.59763 18.4709C9.62852 18.5179 9.64983 18.5706 9.66036 18.6259C9.67089 18.6811 9.67044 18.738 9.65901 18.7931Z" fill="#F4C222"/>
<path d="M8.51496 13.8453C8.50435 13.8993 8.4779 13.949 8.439 13.9879C8.40009 14.0269 8.35047 14.0534 8.29645 14.0641C8.24244 14.0748 8.18646 14.0692 8.13564 14.048C8.08482 14.0268 8.04145 13.991 8.01104 13.9451C7.98064 13.8991 7.96457 13.8452 7.96489 13.7902C7.96521 13.7351 7.98189 13.6814 8.01282 13.6358C8.04375 13.5903 8.08753 13.5549 8.13859 13.5343C8.18965 13.5137 8.24569 13.5087 8.29958 13.52C8.37103 13.535 8.4337 13.5776 8.47401 13.6385C8.51432 13.6993 8.52903 13.7736 8.51496 13.8453Z" fill="#F4C222"/>
<path d="M10.4137 16.5934C10.4023 16.6471 10.3752 16.6963 10.3358 16.7345C10.2965 16.7728 10.2466 16.7986 10.1926 16.8086C10.1386 16.8185 10.0829 16.8123 10.0325 16.7906C9.98201 16.7689 9.93915 16.7327 9.90927 16.6866C9.87939 16.6405 9.86384 16.5866 9.86459 16.5317C9.86535 16.4768 9.88237 16.4234 9.9135 16.3781C9.94463 16.3329 9.98848 16.2979 10.0395 16.2776C10.0905 16.2573 10.1464 16.2526 10.2001 16.264C10.2715 16.2804 10.3337 16.324 10.3736 16.3855C10.4135 16.447 10.4279 16.5215 10.4137 16.5934Z" fill="#F4C222"/>
<path d="M8.14218 16.9313C8.13882 16.9703 8.12725 17.0082 8.10823 17.0424C8.08922 17.0766 8.06318 17.1064 8.03184 17.1298C8.00051 17.1533 7.96457 17.1698 7.92638 17.1784C7.8882 17.1869 7.84863 17.1873 7.81028 17.1796C7.77193 17.1718 7.73566 17.1559 7.70385 17.1332C7.67204 17.1104 7.64541 17.0811 7.62571 17.0473C7.606 17.0135 7.59366 16.9759 7.58951 16.937C7.58535 16.8981 7.58947 16.8587 7.60159 16.8215C7.62269 16.7567 7.66689 16.7019 7.72576 16.6676C7.78463 16.6333 7.85407 16.6218 7.92085 16.6354C7.98763 16.649 8.0471 16.6866 8.08791 16.7412C8.12872 16.7958 8.14804 16.8634 8.14218 16.9313Z" fill="#F4C222"/>
<path d="M3.55781 19.2836C3.55094 19.3193 3.53702 19.3532 3.51686 19.3834C3.49671 19.4136 3.47073 19.4395 3.44044 19.4596C3.41016 19.4797 3.37617 19.4935 3.34048 19.5002C3.30479 19.507 3.26811 19.5066 3.23259 19.499C3.16779 19.4779 3.11302 19.4337 3.07871 19.3748C3.04439 19.3159 3.03292 19.2465 3.04649 19.1797C3.06006 19.1129 3.09772 19.0535 3.15229 19.0126C3.20686 18.9718 3.27454 18.9525 3.34244 18.9584C3.37811 18.9652 3.41204 18.9792 3.44227 18.9993C3.47249 19.0195 3.49838 19.0455 3.51844 19.0757C3.5385 19.106 3.55231 19.14 3.55907 19.1757C3.56583 19.2114 3.5654 19.2481 3.55781 19.2836Z" fill="#F4C222"/>
<path d="M8.05011 21.1869C8.0395 21.2409 8.01306 21.2906 7.97415 21.3295C7.93525 21.3685 7.88563 21.395 7.83161 21.4057C7.7776 21.4164 7.72162 21.4108 7.6708 21.3896C7.61997 21.3684 7.57661 21.3326 7.5462 21.2867C7.5158 21.2408 7.49973 21.1868 7.50005 21.1318C7.50037 21.0767 7.51705 21.023 7.54798 20.9774C7.57891 20.9319 7.62269 20.8965 7.67375 20.8759C7.72481 20.8553 7.78085 20.8503 7.83474 20.8617C7.90619 20.8767 7.96885 20.9192 8.00916 20.9801C8.04947 21.0409 8.06418 21.1152 8.05011 21.1869Z" fill="#F4C222"/>
</g>
</svg>
