<svg width="35" height="34" viewBox="0 0 35 34" fill="none" xmlns="http://www.w3.org/2000/svg">
<path opacity="0.22" d="M34.7451 14.1775L30.0673 12.271C29.9425 12.2338 29.8082 12.2462 29.6924 12.3055C29.5765 12.3649 29.488 12.4666 29.4453 12.5896C29.3884 12.708 29.3799 12.8438 29.4214 12.9684C29.4629 13.093 29.5513 13.1965 29.6678 13.2571L30.0319 13.4038L26.148 22.9415C26.148 22.9415 24.8584 25.8039 26.9218 26.6939H26.9774H27.033C29.1317 27.498 30.2089 24.5446 30.2089 24.5446L34.0928 15.0119L34.3456 15.1131C34.4704 15.1502 34.6047 15.1379 34.7205 15.0785C34.8364 15.0192 34.9249 14.9174 34.9676 14.7945C35.0099 14.682 35.0107 14.5581 34.97 14.445C34.9292 14.332 34.8495 14.2371 34.7451 14.1775Z" fill="white"/>
<path d="M29.5715 16.1246L26.5372 23.5434C26.4232 23.7392 26.3526 23.9572 26.3301 24.1826C26.3076 24.408 26.3337 24.6357 26.4068 24.8501C26.4798 25.0646 26.598 25.2609 26.7534 25.4257C26.9088 25.5905 27.0978 25.7201 27.3076 25.8056C27.5174 25.8911 27.7431 25.9306 27.9694 25.9214C28.1958 25.9122 28.4176 25.8545 28.6197 25.7523C28.8219 25.65 28.9997 25.5055 29.1412 25.3286C29.2827 25.1517 29.3846 24.9465 29.44 24.7268L32.4743 17.308L29.5715 16.1246Z" fill="#F4C222"/>
<path d="M27.6806 20.762L26.5528 23.5283C26.4388 23.7241 26.3682 23.942 26.3457 24.1675C26.3232 24.3929 26.3494 24.6205 26.4224 24.835C26.4954 25.0494 26.6136 25.2457 26.7691 25.4105C26.9245 25.5754 27.1134 25.7049 27.3232 25.7904C27.533 25.876 27.7587 25.9155 27.9851 25.9063C28.2114 25.897 28.4332 25.8394 28.6353 25.7371C28.8375 25.6348 29.0153 25.4904 29.1568 25.3134C29.2984 25.1365 29.4002 24.9313 29.4556 24.7116L30.8463 21.288C29.7692 21.2475 28.7274 20.9036 27.6806 20.762Z" fill="#CC5B1D"/>
<path opacity="0.56" d="M30.0519 17.4749C30.0246 17.5206 29.9846 17.5575 29.9369 17.5812C29.8891 17.6049 29.8355 17.6144 29.7826 17.6085C29.7296 17.6026 29.6794 17.5816 29.638 17.548C29.5966 17.5144 29.5658 17.4696 29.5491 17.419C29.5324 17.3683 29.5307 17.314 29.544 17.2624C29.5574 17.2108 29.5853 17.1641 29.6244 17.1279C29.6635 17.0917 29.7122 17.0675 29.7647 17.0582C29.8172 17.0489 29.8713 17.0548 29.9205 17.0754C29.9898 17.1121 30.0421 17.1742 30.0667 17.2486C30.0912 17.3231 30.0859 17.4042 30.0519 17.4749Z" fill="white"/>
<path opacity="0.56" d="M30.9621 19.8416C30.9347 19.8873 30.8948 19.9242 30.847 19.9479C30.7993 19.9716 30.7457 19.9811 30.6927 19.9752C30.6397 19.9693 30.5896 19.9483 30.5482 19.9147C30.5068 19.8811 30.4759 19.8363 30.4593 19.7857C30.4426 19.735 30.4408 19.6807 30.4542 19.6291C30.4675 19.5775 30.4954 19.5308 30.5346 19.4946C30.5737 19.4584 30.6224 19.4342 30.6749 19.4249C30.7274 19.4156 30.7814 19.4215 30.8306 19.4421C30.9009 19.4778 30.9541 19.5399 30.9787 19.6147C31.0034 19.6896 30.9974 19.7711 30.9621 19.8416Z" fill="white"/>
<path opacity="0.56" d="M31.2609 14.0714C31.2336 14.1172 31.1936 14.1541 31.1459 14.1778C31.0981 14.2015 31.0445 14.2109 30.9916 14.205C30.9386 14.1991 30.8884 14.1781 30.847 14.1446C30.8056 14.111 30.7747 14.0662 30.7581 14.0155C30.7414 13.9649 30.7397 13.9105 30.753 13.8589C30.7664 13.8073 30.7943 13.7606 30.8334 13.7244C30.8725 13.6882 30.9212 13.664 30.9737 13.6547C31.0262 13.6454 31.0803 13.6514 31.1295 13.6719C31.1997 13.7077 31.2529 13.7697 31.2776 13.8446C31.3022 13.9194 31.2962 14.001 31.2609 14.0714Z" fill="white"/>
<path opacity="0.56" d="M29.4602 20.1703C29.4332 20.2161 29.3936 20.2533 29.3461 20.2773C29.2986 20.3013 29.2453 20.3112 29.1923 20.3058C29.1394 20.3004 29.0891 20.28 29.0475 20.2469C29.0058 20.2138 28.9745 20.1694 28.9573 20.1191C28.9401 20.0687 28.9377 20.0145 28.9504 19.9628C28.9631 19.9112 28.9903 19.8642 29.0289 19.8275C29.0674 19.7909 29.1157 19.7661 29.1679 19.756C29.2202 19.7459 29.2742 19.7511 29.3236 19.7708C29.3938 19.8066 29.4473 19.8683 29.4728 19.9429C29.4983 20.0175 29.4937 20.099 29.4602 20.1703Z" fill="white"/>
<path opacity="0.56" d="M32.3587 15.8718C32.329 15.9541 32.2828 16.0296 32.2229 16.0934C32.163 16.1572 32.0907 16.2082 32.0104 16.243C31.9301 16.2779 31.8435 16.296 31.7559 16.2962C31.6684 16.2964 31.5817 16.2787 31.5013 16.2441C31.4208 16.2096 31.3483 16.159 31.2881 16.0954C31.2279 16.0318 31.1814 15.9566 31.1513 15.8743C31.1213 15.7921 31.1083 15.7046 31.1134 15.6172C31.1184 15.5298 31.1412 15.4443 31.1804 15.3661C31.2101 15.2837 31.2563 15.2083 31.3163 15.1444C31.3762 15.0806 31.4485 15.0297 31.5288 14.9948C31.6091 14.9599 31.6957 14.9418 31.7832 14.9417C31.8708 14.9415 31.9575 14.9592 32.0379 14.9937C32.1184 15.0282 32.1909 15.0789 32.2511 15.1424C32.3113 15.206 32.3578 15.2813 32.3879 15.3635C32.4179 15.4457 32.4308 15.5332 32.4258 15.6206C32.4208 15.708 32.398 15.7935 32.3587 15.8718Z" fill="white"/>
<path opacity="0.45" d="M27.175 26.4968H27.1346C27.1174 26.4872 27.1046 26.4712 27.0989 26.4524C27.0932 26.4335 27.0951 26.4131 27.1042 26.3956C27.1111 26.3781 27.1241 26.3638 27.141 26.3553C27.1578 26.3469 27.1771 26.3451 27.1952 26.3501C27.4972 26.4737 27.8305 26.4986 28.1474 26.4214C28.4644 26.3442 28.7489 26.1688 28.9602 25.9203C29.2444 25.6531 29.4865 25.3445 29.6783 25.0049L33.4863 15.6189C33.4874 15.608 33.4911 15.5975 33.4969 15.5883C33.5028 15.579 33.5107 15.5712 33.5201 15.5656C33.5295 15.5599 33.5401 15.5565 33.551 15.5556C33.5619 15.5547 33.5729 15.5564 33.583 15.5604C33.5932 15.5645 33.6023 15.5709 33.6096 15.579C33.6169 15.5872 33.6222 15.597 33.6251 15.6076C33.6279 15.6181 33.6283 15.6292 33.6262 15.64C33.6241 15.6507 33.6194 15.6608 33.6127 15.6695L29.7997 25.0302C29.7845 25.0808 28.6669 27.1036 27.175 26.4968Z" fill="white"/>
<path opacity="0.45" d="M34.5681 14.5165L31.8979 13.4292C31.8896 13.425 31.8822 13.4191 31.8761 13.4119C31.8701 13.4047 31.8655 13.3965 31.8627 13.3875C31.8598 13.3786 31.8588 13.3692 31.8597 13.3598C31.8605 13.3505 31.8632 13.3414 31.8676 13.3331C31.8699 13.3236 31.8741 13.3147 31.88 13.3069C31.886 13.2991 31.8934 13.2927 31.902 13.2879C31.9106 13.2831 31.92 13.2802 31.9297 13.2793C31.9395 13.2784 31.9493 13.2795 31.9586 13.2826L34.6288 14.3698C34.6378 14.3741 34.6458 14.3802 34.6523 14.3877C34.6589 14.3952 34.6637 14.4041 34.6666 14.4136C34.6694 14.4232 34.6702 14.4332 34.669 14.4431C34.6677 14.453 34.6643 14.4625 34.6591 14.471C34.6563 14.48 34.6516 14.4884 34.6454 14.4957C34.6393 14.5029 34.6317 14.5088 34.6232 14.513C34.6147 14.5173 34.6055 14.5198 34.596 14.5204C34.5865 14.521 34.577 14.5197 34.5681 14.5165Z" fill="white"/>
<path d="M21.5829 8.3889C21.5829 8.61362 21.5163 8.83329 21.3914 9.02014C21.2666 9.20699 21.0891 9.35261 20.8815 9.43861C20.6739 9.52461 20.4455 9.54711 20.2251 9.50327C20.0047 9.45943 19.8022 9.35121 19.6433 9.19231C19.4844 9.03341 19.3762 8.83096 19.3324 8.61056C19.2885 8.39016 19.311 8.16171 19.397 7.9541C19.483 7.74648 19.6287 7.56904 19.8155 7.44419C20.0023 7.31934 20.222 7.2527 20.4467 7.2527C20.5962 7.25187 20.7443 7.28068 20.8825 7.33749C21.0208 7.39429 21.1463 7.47795 21.252 7.58362C21.3577 7.68929 21.4413 7.81488 21.4981 7.95311C21.5549 8.09134 21.5838 8.23946 21.5829 8.3889Z" fill="#EC5858"/>
<path d="M21.4184 11.141C22.0459 11.141 22.5546 10.6324 22.5546 10.0048C22.5546 9.37734 22.0459 8.86865 21.4184 8.86865C20.7909 8.86865 20.2822 9.37734 20.2822 10.0048C20.2822 10.6324 20.7909 11.141 21.4184 11.141Z" fill="#CE2489"/>
<path d="M20.4469 10.0365C20.4419 10.2601 20.3711 10.4772 20.2433 10.6607C20.1154 10.8442 19.9363 10.9859 19.7283 11.0681C19.5203 11.1502 19.2927 11.1691 19.074 11.1225C18.8553 11.0758 18.6552 10.9657 18.4988 10.8058C18.3424 10.646 18.2367 10.4435 18.1949 10.2238C18.153 10.0041 18.177 9.77699 18.2636 9.57084C18.3503 9.3647 18.4959 9.18872 18.6822 9.06495C18.8684 8.94118 19.0871 8.87514 19.3107 8.87508C19.4623 8.87418 19.6126 8.90379 19.7525 8.96216C19.8924 9.02052 20.0191 9.10645 20.1251 9.21482C20.2312 9.3232 20.3143 9.4518 20.3696 9.59296C20.4248 9.73413 20.4511 9.88498 20.4469 10.0365Z" fill="#F4C222"/>
<path d="M20.1252 18.2422C18.1495 18.2422 16.5967 14.3413 16.5967 9.36726C16.5967 4.39325 18.1495 0.49231 20.1252 0.49231C22.1009 0.49231 23.6538 4.38694 23.6538 9.36726C23.6538 14.3476 22.1009 18.2422 20.1252 18.2422ZM20.1252 0.738486C18.3199 0.738486 16.8492 4.60786 16.8492 9.36726C16.8492 14.1267 18.3199 17.9897 20.1252 17.9897C21.9305 17.9897 23.4076 14.1204 23.4076 9.36726C23.4076 4.61418 21.9368 0.732174 20.1252 0.732174V0.738486Z" fill="white"/>
<path d="M20.125 12.8831C15.1509 12.8831 11.25 11.3366 11.25 9.36092C11.25 7.3852 15.1509 5.8324 20.125 5.8324C25.099 5.8324 28.9999 7.3852 28.9999 9.36092C28.9999 11.3366 25.099 12.8831 20.125 12.8831ZM20.125 6.07857C15.3656 6.07857 11.4962 7.54932 11.4962 9.36092C11.4962 11.1725 15.3656 12.6369 20.125 12.6369C24.8844 12.6369 28.779 11.1662 28.779 9.36092C28.779 7.55563 24.8844 6.07857 20.125 6.07857Z" fill="white"/>
<path d="M25.3571 15.5406C24.7128 15.5232 24.0747 15.4105 23.4634 15.2061C21.4584 14.5157 19.5939 13.4702 17.9592 12.1194C16.2709 10.8349 14.8276 9.25695 13.6984 7.46102C12.7769 5.88297 12.6001 4.6016 13.1998 3.84413C13.7994 3.08667 15.0934 2.97305 16.8356 3.50959C20.8368 4.97763 24.2601 7.69285 26.6006 11.2547C27.5222 12.8327 27.6989 14.1204 27.1056 14.8715C26.8862 15.1114 26.614 15.2967 26.3104 15.4129C26.0069 15.529 25.6805 15.5728 25.3571 15.5406ZM14.8915 3.42122C14.6094 3.39453 14.3249 3.43302 14.0601 3.53371C13.7952 3.6344 13.557 3.79459 13.3639 4.00194C12.8337 4.67103 13.023 5.85141 13.8878 7.33478C15.0029 9.10376 16.4243 10.6599 18.0854 11.9301C19.6997 13.2587 21.538 14.289 23.5139 14.9725C25.1551 15.4775 26.3544 15.3891 26.8846 14.7201C27.4149 14.051 27.2318 12.8643 26.3607 11.3809C25.2454 9.61393 23.8239 8.05996 22.1631 6.79193C20.5503 5.46099 18.7116 4.43048 16.7346 3.74945C16.1402 3.5482 15.5188 3.43755 14.8915 3.42122Z" fill="white"/>
<path d="M15.4848 16.4307C15.0427 16.4516 14.6086 16.3076 14.2665 16.0267C13.547 15.3955 13.4902 14.0951 14.1151 12.3782C14.9067 10.4101 16.0439 8.59944 17.4731 7.0318C18.8449 5.41186 20.4952 4.05015 22.3462 3.01092C23.9684 2.1714 25.2561 2.05778 25.982 2.69531C27.4654 3.99563 26.0577 7.94706 22.7754 11.6902C21.4055 13.3112 19.7574 14.675 17.9087 15.7174C17.1673 16.1407 16.3373 16.385 15.4848 16.4307ZM24.7574 2.54382C23.9509 2.5936 23.1667 2.82907 22.4661 3.23185C20.6444 4.25795 19.0199 5.60026 17.6688 7.19591C16.2606 8.74017 15.1384 10.5228 14.3549 12.4603C13.7679 14.0762 13.7931 15.2755 14.437 15.8436C15.0808 16.4117 16.2738 16.2792 17.8014 15.4838C19.6223 14.4619 21.2451 13.1214 22.5923 11.5261C25.7484 7.95338 27.1813 4.07137 25.8242 2.87836C25.5246 2.6332 25.1439 2.50932 24.7574 2.53119V2.54382Z" fill="white"/>
<path d="M20.1249 1.6033C20.5676 1.6033 20.9265 1.24439 20.9265 0.801649C20.9265 0.358911 20.5676 0 20.1249 0C19.6821 0 19.3232 0.358911 19.3232 0.801649C19.3232 1.24439 19.6821 1.6033 20.1249 1.6033Z" fill="#1771B9"/>
<path d="M26.7841 15.6859C27.2268 15.6859 27.5857 15.327 27.5857 14.8842C27.5857 14.4415 27.2268 14.0826 26.7841 14.0826C26.3413 14.0826 25.9824 14.4415 25.9824 14.8842C25.9824 15.327 26.3413 15.6859 26.7841 15.6859Z" fill="#1771B9"/>
<path d="M14.3622 9.28518C14.8049 9.28518 15.1638 8.92627 15.1638 8.48353C15.1638 8.04079 14.8049 7.68188 14.3622 7.68188C13.9195 7.68188 13.5605 8.04079 13.5605 8.48353C13.5605 8.92627 13.9195 9.28518 14.3622 9.28518Z" fill="#1771B9"/>
<path d="M20.2472 18.6944C20.5719 18.6944 20.8351 18.4312 20.8351 18.1065C20.8351 17.7817 20.5719 17.5185 20.2472 17.5185C19.9224 17.5185 19.6592 17.7817 19.6592 18.1065C19.6592 18.4312 19.9224 18.6944 20.2472 18.6944Z" fill="#1771B9"/>
<path d="M24.8051 26.1772L17.21 28.9551C16.9587 29.047 16.8294 29.3254 16.9214 29.5767L17.0004 29.7928C17.0923 30.0441 17.3706 30.1734 17.622 30.0814L25.217 27.3035C25.4684 27.2116 25.5977 26.9333 25.5057 26.6819L25.4267 26.4659C25.3348 26.2145 25.0565 26.0853 24.8051 26.1772Z" fill="#1771B9"/>
<path d="M16.9502 28.5951V32.1288C16.9502 32.1288 23.9693 30.9106 26.0577 28.6724L24.124 26.033L16.9502 28.5951Z" fill="#1771B9"/>
<g style="mix-blend-mode:multiply" opacity="0.61">
<path d="M19.5848 29.2767C21.4169 28.6386 23.2345 27.9667 25.0522 27.2802L24.1433 26.033L16.9502 28.5951V30.1227C17.8348 29.8471 18.7195 29.5813 19.5848 29.2767Z" fill="#0F0B49"/>
</g>
<path opacity="0.61" d="M17.8545 23.0504L18.8165 24.9406L19.3289 24.6215L18.5699 22.6879L17.8545 23.0504Z" fill="#0F0B49"/>
<path opacity="0.61" d="M19.4062 22.3447L20.3682 24.2348L20.8806 23.9158L20.1265 21.9821L19.4062 22.3447Z" fill="#0F0B49"/>
<path opacity="0.61" d="M20.7451 21.7112L21.8908 23.5047L22.3646 23.1325L21.4267 21.281L20.7451 21.7112Z" fill="#0F0B49"/>
<path d="M17.2694 21.4357L15.152 16.3502C15.152 16.3502 14.9393 15.2239 16.3509 14.6583C17.7625 14.0927 18.2362 15.2239 18.2362 15.2239L20.3535 19.884C20.3535 19.884 19.933 21.223 17.2694 21.4357Z" fill="#1771B9"/>
<path d="M17.0381 20.7299L16.5547 23.7658C16.5547 23.7658 20.6492 23.5531 22.3556 20.6574L20.0256 19.1733L17.0381 20.7299Z" fill="#1771B9"/>
<path d="M15.6261 16.6355C15.6261 16.6355 10.5406 18.4676 11.0337 23.5531C11.5267 28.6386 16.2593 28.6386 16.472 28.7063L16.8249 27.7878C16.8249 27.7878 12.8706 27.0143 12.7304 23.4806C12.6704 22.2551 12.9732 21.0392 13.6009 19.985C14.2286 18.9307 15.1533 18.0851 16.2593 17.554L15.6261 16.6355Z" fill="#1771B9"/>
<path d="M25.8558 28.4587L16.9166 31.7283C16.6207 31.8365 16.4686 32.164 16.5768 32.4599L16.6698 32.7142C16.778 33.01 17.1056 33.1621 17.4014 33.0539L26.3407 29.7844C26.6365 29.6762 26.7887 29.3486 26.6804 29.0527L26.5875 28.7985C26.4792 28.5026 26.1517 28.3505 25.8558 28.4587Z" fill="#1771B9"/>
<path d="M17.2276 28.833C17.3397 28.1398 16.8686 27.4871 16.1754 27.3751C15.4822 27.2631 14.8295 27.7342 14.7175 28.4273C14.6055 29.1205 15.0766 29.7732 15.7697 29.8853C16.4629 29.9973 17.1156 29.5262 17.2276 28.833Z" fill="#F5C40D"/>
<path opacity="0.55" d="M18.6625 17.1914C18.6344 17.1916 18.6071 17.1828 18.5844 17.1662C18.5618 17.1497 18.5451 17.1263 18.5368 17.0995C18.1839 16.0795 17.7392 15.4753 17.2364 15.3544C17.0799 15.325 16.9188 15.3319 16.7654 15.3747C16.612 15.4174 16.4705 15.4948 16.3518 15.6009C16.3396 15.6137 16.3249 15.6238 16.3087 15.6307C16.2925 15.6376 16.2751 15.6412 16.2575 15.6412C16.2399 15.6412 16.2224 15.6376 16.2062 15.6307C16.19 15.6238 16.1754 15.6137 16.1632 15.6009C16.1387 15.5757 16.125 15.5419 16.125 15.5067C16.125 15.4715 16.1387 15.4377 16.1632 15.4124C16.3139 15.275 16.4948 15.175 16.6913 15.1204C16.8878 15.0658 17.0944 15.0582 17.2944 15.0982C17.8987 15.2432 18.4014 15.891 18.7833 17.0318C18.7944 17.0659 18.7921 17.1028 18.7768 17.1352C18.7615 17.1675 18.7345 17.1928 18.7012 17.2059L18.6625 17.1914Z" fill="#CDC3FF"/>
<path opacity="0.55" d="M21.6979 20.8653C21.6774 20.8716 21.6555 20.8716 21.6351 20.8653L20.0108 20.0193C19.9926 20.0127 19.9761 20.0022 19.9623 19.9887C19.9485 19.9751 19.9378 19.9587 19.9309 19.9407C19.9239 19.9226 19.921 19.9033 19.9221 19.884C19.9233 19.8647 19.9286 19.8458 19.9377 19.8287C19.9467 19.8117 19.9594 19.7967 19.9747 19.7849C19.99 19.7731 20.0077 19.7647 20.0265 19.7604C20.0454 19.756 20.0649 19.7557 20.0839 19.7595C20.1029 19.7633 20.1208 19.7711 20.1365 19.7825L21.7607 20.6284C21.792 20.6458 21.8155 20.6746 21.8263 20.7087C21.8371 20.7429 21.8344 20.7799 21.8188 20.8121C21.8045 20.8302 21.7861 20.8446 21.765 20.8538C21.7439 20.8631 21.7209 20.8671 21.6979 20.8653Z" fill="#CDC3FF"/>
<path opacity="0.57" d="M16.3045 29.4205C16.7358 29.2409 16.9398 28.7456 16.7602 28.3143C16.5806 27.883 16.0853 27.679 15.654 27.8586C15.2227 28.0382 15.0187 28.5335 15.1983 28.9648C15.3779 29.3961 15.8732 29.6001 16.3045 29.4205Z" fill="white"/>
<path opacity="0.55" d="M20.238 30.7656C20.2067 30.7652 20.1765 30.7539 20.1526 30.7337C20.1286 30.7135 20.1125 30.6857 20.1068 30.6549C20.1011 30.6241 20.1062 30.5923 20.1213 30.5649C20.1364 30.5375 20.1606 30.5162 20.1896 30.5045L25.7295 28.5225C25.7636 28.5126 25.8001 28.5155 25.8322 28.5306C25.8642 28.5458 25.8896 28.5721 25.9036 28.6047C25.9147 28.6387 25.9123 28.6757 25.8971 28.7081C25.8818 28.7404 25.8547 28.7657 25.8214 28.7788L20.2815 30.7801C20.2658 30.7801 20.2505 30.775 20.238 30.7656Z" fill="#CDC3FF"/>
<path d="M23.43 24.6085L18.8245 26.3562C18.6922 26.4064 18.6257 26.5543 18.6759 26.6866L18.7187 26.7996C18.7689 26.9319 18.9169 26.9985 19.0492 26.9483L23.6547 25.2006C23.787 25.1504 23.8535 25.0025 23.8033 24.8702L23.7605 24.7572C23.7103 24.6249 23.5623 24.5583 23.43 24.6085Z" fill="#CDC3FF"/>
<g style="mix-blend-mode:overlay" opacity="0.48">
<path d="M20.4115 25.7526L19.9523 25.9267C19.8266 26.1974 19.7058 26.4729 19.5801 26.7436L20.0973 26.5503C20.1988 26.2844 20.3052 26.0185 20.4115 25.7526Z" fill="white"/>
</g>
<g style="mix-blend-mode:overlay" opacity="0.48">
<path d="M22.4615 24.9744L21.7751 25.2306C21.6687 25.5013 21.5575 25.7672 21.4512 26.0379L22.215 25.7478C22.2923 25.4868 22.3745 25.2306 22.4615 24.9744Z" fill="white"/>
</g>
<path opacity="0.22" d="M8.12953 22.9135C7.01051 23.0282 5.88996 22.711 4.99711 22.0267C4.10427 21.3425 3.50661 20.3429 3.32642 19.2326C3.09972 18.1139 3.29229 16.9508 3.86746 15.9649C4.49165 14.9177 5.4901 14.276 6.47546 13.5945C7.00991 13.2618 7.47343 12.8269 7.83945 12.3146C8.20546 11.8024 8.46676 11.223 8.60837 10.6096C8.89333 9.33789 9.04289 8.03963 9.05457 6.73648L7.55258 6.42682C7.50305 6.41682 7.45201 6.41697 7.40255 6.42727C7.35308 6.43757 7.30622 6.45781 7.26481 6.48676C7.2234 6.51571 7.1883 6.55276 7.16163 6.59568C7.13497 6.6386 7.11729 6.68648 7.10968 6.73643C7.09827 6.78606 7.0974 6.83753 7.10712 6.88752C7.11683 6.93751 7.13693 6.98491 7.16611 7.02665C7.19529 7.06838 7.2329 7.10354 7.27651 7.12984C7.32012 7.15614 7.36876 7.17299 7.41929 7.17932L7.9641 7.29091L6.71139 13.2734C4.12821 13.3644 1.95862 14.8275 1.51575 16.9984C0.968762 19.6481 3.20464 22.3434 6.50467 23.0209C9.8047 23.6984 12.9216 22.0993 13.4626 19.452C13.485 19.3381 13.5014 19.2268 13.5178 19.1154C13.0204 20.1571 12.2636 21.0535 11.3201 21.7186C10.3765 22.3837 9.27786 22.7952 8.12953 22.9135Z" fill="white"/>
<path opacity="0.47" d="M12.0847 7.77033L9.32357 7.20692C9.29393 7.20122 9.26777 7.18398 9.25084 7.15898C9.23392 7.13399 9.22761 7.1033 9.23331 7.07366C9.23902 7.04402 9.25626 7.01786 9.28125 7.00093C9.30624 6.98401 9.33694 6.9777 9.36658 6.9834L12.126 7.55102C12.1416 7.55298 12.1567 7.55817 12.1702 7.56625C12.1837 7.57434 12.1954 7.58514 12.2046 7.59798C12.2137 7.61082 12.2201 7.62542 12.2233 7.64085C12.2265 7.65628 12.2264 7.6722 12.2231 7.68761C12.2199 7.70303 12.2134 7.71759 12.2042 7.73038C12.195 7.74317 12.1832 7.75391 12.1697 7.76192C12.1561 7.76992 12.141 7.77503 12.1254 7.7769C12.1097 7.77878 12.0939 7.77738 12.0788 7.7728L12.0847 7.77033Z" fill="white"/>
<path opacity="0.22" d="M10.1593 13.9626L11.3927 7.96722L11.9316 8.08128C12.0276 8.09943 12.1269 8.07969 12.2086 8.02621C12.2903 7.97273 12.3482 7.88966 12.37 7.79444C12.3894 7.69834 12.3701 7.59848 12.3164 7.51645C12.2628 7.43441 12.179 7.37679 12.0832 7.35602L7.54428 6.42333C7.49475 6.41332 7.44371 6.41347 7.39425 6.42377C7.34478 6.43407 7.29792 6.45431 7.25651 6.48326C7.2151 6.51221 7.18 6.54926 7.15333 6.59218C7.12667 6.6351 7.109 6.68298 7.10139 6.73293C7.08997 6.78256 7.0891 6.83404 7.09882 6.88402C7.10854 6.93401 7.12863 6.98141 7.15781 7.02315C7.18699 7.06489 7.2246 7.10004 7.26821 7.12634C7.31182 7.15264 7.36046 7.1695 7.41099 7.17583L7.95579 7.28741L6.71151 13.2733C4.12833 13.3644 1.95873 14.8275 1.51586 16.9983C0.968876 19.6481 3.20476 22.3434 6.50478 23.0209C9.80481 23.6983 12.9217 22.0993 13.4627 19.452C13.9168 17.2661 12.498 15.0606 10.1593 13.9626Z" fill="white"/>
<g opacity="0.47">
<path opacity="0.47" d="M9.75017 14.0351C9.72082 14.0276 9.69524 14.0096 9.67835 13.9845C9.66147 13.9593 9.65446 13.9288 9.65868 13.8989L10.7422 8.62456C10.7486 8.5952 10.7663 8.56955 10.7915 8.5532C10.8167 8.53685 10.8473 8.53112 10.8767 8.53727C10.8913 8.53968 10.9052 8.54502 10.9176 8.55295C10.93 8.56088 10.9407 8.57124 10.9491 8.58341C10.9574 8.59558 10.9631 8.60932 10.966 8.62378C10.9689 8.63824 10.9688 8.65314 10.9658 8.66756L9.88641 13.9436C9.87896 13.973 9.86094 13.9985 9.8358 14.0154C9.81066 14.0323 9.78016 14.0393 9.75017 14.0351Z" fill="white"/>
</g>
<g opacity="0.47">
<path opacity="0.47" d="M12.4376 21.0181L12.4123 21.0077C12.399 21.001 12.387 20.9916 12.3773 20.9802C12.3675 20.9688 12.3601 20.9556 12.3555 20.9413C12.3508 20.9271 12.3491 20.912 12.3503 20.8971C12.3515 20.8821 12.3556 20.8675 12.3625 20.8542C12.6394 20.3698 12.8151 19.8342 12.8788 19.2799C12.9426 18.7255 12.893 18.164 12.7331 17.6294C12.1364 15.842 10.2829 14.9048 10.2661 14.8978C10.2387 14.884 10.2177 14.8601 10.2076 14.8311C10.1975 14.8021 10.1991 14.7704 10.212 14.7426C10.2187 14.7292 10.2281 14.7172 10.2395 14.7075C10.2509 14.6977 10.2641 14.6903 10.2783 14.6857C10.2926 14.681 10.3077 14.6793 10.3226 14.6805C10.3376 14.6817 10.3521 14.6858 10.3655 14.6927C10.4496 14.7274 12.3249 15.6835 12.9486 17.5608C13.1185 18.1234 13.1722 18.7147 13.1064 19.2986C13.0406 19.8826 12.8567 20.4472 12.5659 20.9578C12.5545 20.9809 12.5356 20.9995 12.5123 21.0104C12.489 21.0214 12.4626 21.0241 12.4376 21.0181Z" fill="white"/>
</g>
<path d="M9.58627 19.0388C8.23872 19.0647 6.90084 18.8062 5.65996 18.2801C4.61656 17.8495 3.60495 17.2942 2.56275 16.9084C2.51684 17.0398 2.47952 17.1741 2.45103 17.3103C2.01229 19.5666 3.85142 21.8273 6.59896 22.3999C9.3465 22.9724 11.9512 21.6002 12.4152 19.3544C12.4539 19.1571 12.4756 18.9569 12.4801 18.7559C11.522 18.9078 10.5556 19.0023 9.58627 19.0388Z" fill="#FE487C"/>
<path d="M2.56275 16.9084C2.56275 16.9084 4.52799 15.5825 12.4801 18.7559C12.4801 18.7559 8.10414 21.4848 2.56275 16.9084Z" fill="#FE9BB8"/>
<path d="M5.63419 18.0431C5.62274 18.0968 5.59562 18.1459 5.55626 18.1842C5.5169 18.2225 5.46707 18.2483 5.41307 18.2583C5.35907 18.2682 5.30333 18.262 5.25289 18.2403C5.20245 18.2185 5.15958 18.1824 5.1297 18.1363C5.09982 18.0902 5.08428 18.0363 5.08503 17.9814C5.08579 17.9265 5.1028 17.8731 5.13393 17.8278C5.16507 17.7826 5.20891 17.7476 5.25993 17.7273C5.31095 17.707 5.36684 17.7023 5.42055 17.7137C5.49256 17.7291 5.55553 17.7724 5.59559 17.8342C5.63566 17.896 5.64954 17.9711 5.63419 18.0431Z" fill="white"/>
<path d="M6.25659 15.3553C6.23408 15.4668 6.1682 15.5648 6.07344 15.6277C5.97868 15.6906 5.8628 15.7134 5.7513 15.6908C5.63979 15.6683 5.5418 15.6024 5.47887 15.5077C5.41594 15.4129 5.39323 15.297 5.41575 15.1855C5.44463 15.0776 5.51221 14.984 5.60562 14.9227C5.69904 14.8614 5.81175 14.8365 5.92228 14.853C5.97743 14.8636 6.02991 14.8851 6.07667 14.9162C6.12344 14.9473 6.16354 14.9873 6.19466 15.0341C6.22577 15.0809 6.24727 15.1333 6.25791 15.1885C6.26854 15.2436 6.26809 15.3003 6.25659 15.3553Z" fill="white"/>
<path d="M9.65901 18.3253C9.63595 18.4366 9.56962 18.5342 9.47462 18.5965C9.37963 18.6589 9.26375 18.681 9.15248 18.6579C9.04121 18.6348 8.94365 18.5685 8.88128 18.4735C8.81891 18.3785 8.79683 18.2627 8.8199 18.1514C8.83132 18.0963 8.85349 18.044 8.88512 17.9974C8.91676 17.9509 8.95725 17.9111 9.00429 17.8802C9.05132 17.8493 9.10398 17.828 9.15925 17.8175C9.21453 17.8069 9.27134 17.8074 9.32643 17.8188C9.38153 17.8302 9.43384 17.8524 9.48037 17.884C9.52691 17.9157 9.56675 17.9562 9.59763 18.0032C9.62852 18.0502 9.64983 18.1029 9.66036 18.1582C9.67089 18.2134 9.67044 18.2702 9.65901 18.3253Z" fill="white"/>
<path d="M8.51496 13.3776C8.50435 13.4316 8.4779 13.4812 8.439 13.5202C8.40009 13.5592 8.35047 13.5857 8.29645 13.5964C8.24244 13.6071 8.18646 13.6015 8.13564 13.5803C8.08482 13.5591 8.04145 13.5232 8.01104 13.4773C7.98064 13.4314 7.96457 13.3775 7.96489 13.3224C7.96521 13.2674 7.98189 13.2137 8.01282 13.1681C8.04375 13.1225 8.08753 13.0872 8.13859 13.0666C8.18965 13.046 8.24569 13.041 8.29958 13.0523C8.37103 13.0673 8.4337 13.1099 8.47401 13.1707C8.51432 13.2316 8.52903 13.3059 8.51496 13.3776Z" fill="white"/>
<path d="M10.4137 16.1257C10.4023 16.1794 10.3752 16.2285 10.3358 16.2668C10.2965 16.3051 10.2466 16.3309 10.1926 16.3409C10.1386 16.3508 10.0829 16.3446 10.0325 16.3229C9.98201 16.3011 9.93915 16.265 9.90927 16.2189C9.87939 16.1728 9.86384 16.1189 9.86459 16.064C9.86535 16.0091 9.88237 15.9557 9.9135 15.9104C9.94463 15.8652 9.98848 15.8302 10.0395 15.8099C10.0905 15.7896 10.1464 15.7849 10.2001 15.7963C10.2715 15.8127 10.3337 15.8563 10.3736 15.9178C10.4135 15.9793 10.4279 16.0538 10.4137 16.1257Z" fill="white"/>
<path d="M8.14218 16.4636C8.13882 16.5026 8.12725 16.5405 8.10823 16.5747C8.08922 16.6089 8.06318 16.6387 8.03184 16.6621C8.00051 16.6855 7.96457 16.7021 7.92638 16.7107C7.8882 16.7192 7.84863 16.7196 7.81028 16.7118C7.77193 16.704 7.73566 16.6882 7.70385 16.6654C7.67204 16.6426 7.64541 16.6134 7.62571 16.5796C7.606 16.5458 7.59366 16.5082 7.58951 16.4693C7.58535 16.4303 7.58947 16.391 7.60159 16.3538C7.62269 16.289 7.66689 16.2342 7.72576 16.1999C7.78463 16.1656 7.85407 16.1541 7.92085 16.1677C7.98763 16.1813 8.0471 16.2189 8.08791 16.2735C8.12872 16.3281 8.14804 16.3957 8.14218 16.4636Z" fill="white"/>
<path d="M3.55781 18.8159C3.55094 18.8515 3.53702 18.8855 3.51686 18.9157C3.49671 18.9459 3.47073 18.9718 3.44044 18.9919C3.41016 19.0119 3.37617 19.0258 3.34048 19.0325C3.30479 19.0393 3.26811 19.0388 3.23259 19.0313C3.16779 19.0101 3.11302 18.9659 3.07871 18.9071C3.04439 18.8482 3.03292 18.7788 3.04649 18.712C3.06006 18.6452 3.09772 18.5857 3.15229 18.5449C3.20686 18.5041 3.27454 18.4848 3.34244 18.4907C3.37811 18.4975 3.41204 18.5115 3.44227 18.5316C3.47249 18.5518 3.49838 18.5777 3.51844 18.608C3.5385 18.6383 3.55231 18.6723 3.55907 18.708C3.56583 18.7437 3.5654 18.7804 3.55781 18.8159Z" fill="white"/>
<path d="M8.05011 20.7192C8.0395 20.7732 8.01306 20.8229 7.97415 20.8618C7.93525 20.9008 7.88563 20.9273 7.83161 20.938C7.7776 20.9487 7.72162 20.9431 7.6708 20.9219C7.61997 20.9007 7.57661 20.8649 7.5462 20.819C7.5158 20.773 7.49973 20.7191 7.50005 20.6641C7.50037 20.609 7.51705 20.5553 7.54798 20.5097C7.57891 20.4642 7.62269 20.4288 7.67375 20.4082C7.72481 20.3876 7.78085 20.3826 7.83474 20.3939C7.90619 20.409 7.96885 20.4515 8.00916 20.5124C8.04947 20.5732 8.06418 20.6475 8.05011 20.7192Z" fill="white"/>
<g style="mix-blend-mode:color">
<path opacity="0.22" d="M34.7451 14.1775L30.0673 12.271C29.9425 12.2338 29.8082 12.2462 29.6924 12.3055C29.5765 12.3649 29.488 12.4666 29.4453 12.5896C29.3884 12.708 29.3799 12.8438 29.4214 12.9684C29.4629 13.093 29.5513 13.1965 29.6678 13.2571L30.0319 13.4038L26.148 22.9415C26.148 22.9415 24.8584 25.8039 26.9218 26.6939H26.9774H27.033C29.1317 27.498 30.2089 24.5446 30.2089 24.5446L34.0928 15.0119L34.3456 15.1131C34.4704 15.1502 34.6047 15.1379 34.7205 15.0785C34.8364 15.0192 34.9249 14.9174 34.9676 14.7945C35.0099 14.682 35.0107 14.5581 34.97 14.445C34.9292 14.332 34.8495 14.2371 34.7451 14.1775Z" fill="#22BAAF"/>
<path d="M29.5715 16.1246L26.5372 23.5434C26.4232 23.7392 26.3526 23.9572 26.3301 24.1826C26.3076 24.408 26.3337 24.6357 26.4068 24.8501C26.4798 25.0646 26.598 25.2609 26.7534 25.4257C26.9088 25.5905 27.0978 25.7201 27.3076 25.8056C27.5174 25.8911 27.7431 25.9306 27.9694 25.9214C28.1958 25.9122 28.4176 25.8545 28.6197 25.7523C28.8219 25.65 28.9997 25.5055 29.1412 25.3286C29.2827 25.1517 29.3846 24.9465 29.44 24.7268L32.4743 17.308L29.5715 16.1246Z" fill="#22BAAF"/>
<path d="M27.6806 20.762L26.5528 23.5283C26.4388 23.7241 26.3682 23.942 26.3457 24.1675C26.3232 24.3929 26.3494 24.6205 26.4224 24.835C26.4954 25.0494 26.6136 25.2457 26.7691 25.4105C26.9245 25.5754 27.1134 25.7049 27.3232 25.7904C27.533 25.876 27.7587 25.9155 27.9851 25.9063C28.2114 25.897 28.4332 25.8394 28.6353 25.7371C28.8375 25.6348 29.0153 25.4904 29.1568 25.3134C29.2984 25.1365 29.4002 24.9313 29.4556 24.7116L30.8463 21.288C29.7692 21.2475 28.7274 20.9036 27.6806 20.762Z" fill="#22BAAF"/>
<path opacity="0.56" d="M30.0519 17.4749C30.0246 17.5206 29.9846 17.5575 29.9369 17.5812C29.8891 17.6049 29.8355 17.6144 29.7826 17.6085C29.7296 17.6026 29.6794 17.5816 29.638 17.548C29.5966 17.5144 29.5658 17.4696 29.5491 17.419C29.5324 17.3683 29.5307 17.314 29.544 17.2624C29.5574 17.2108 29.5853 17.1641 29.6244 17.1279C29.6635 17.0917 29.7122 17.0675 29.7647 17.0582C29.8172 17.0489 29.8713 17.0548 29.9205 17.0754C29.9898 17.1121 30.0421 17.1742 30.0667 17.2486C30.0912 17.3231 30.0859 17.4042 30.0519 17.4749Z" fill="#22BAAF"/>
<path opacity="0.56" d="M30.9621 19.8416C30.9347 19.8873 30.8948 19.9242 30.847 19.9479C30.7993 19.9716 30.7457 19.9811 30.6927 19.9752C30.6397 19.9693 30.5896 19.9483 30.5482 19.9147C30.5068 19.8811 30.4759 19.8363 30.4593 19.7857C30.4426 19.735 30.4408 19.6807 30.4542 19.6291C30.4675 19.5775 30.4954 19.5308 30.5346 19.4946C30.5737 19.4584 30.6224 19.4342 30.6749 19.4249C30.7274 19.4156 30.7814 19.4215 30.8306 19.4421C30.9009 19.4778 30.9541 19.5399 30.9787 19.6147C31.0034 19.6896 30.9974 19.7711 30.9621 19.8416Z" fill="#22BAAF"/>
<path opacity="0.56" d="M31.2609 14.0714C31.2336 14.1172 31.1936 14.1541 31.1459 14.1778C31.0981 14.2015 31.0445 14.2109 30.9916 14.205C30.9386 14.1991 30.8884 14.1781 30.847 14.1446C30.8056 14.111 30.7747 14.0662 30.7581 14.0155C30.7414 13.9649 30.7397 13.9105 30.753 13.8589C30.7664 13.8073 30.7943 13.7606 30.8334 13.7244C30.8725 13.6882 30.9212 13.664 30.9737 13.6547C31.0262 13.6454 31.0803 13.6514 31.1295 13.6719C31.1997 13.7077 31.2529 13.7697 31.2776 13.8446C31.3022 13.9194 31.2962 14.001 31.2609 14.0714Z" fill="#22BAAF"/>
<path opacity="0.56" d="M29.4602 20.1703C29.4332 20.2161 29.3936 20.2533 29.3461 20.2773C29.2986 20.3013 29.2453 20.3112 29.1923 20.3058C29.1394 20.3004 29.0891 20.28 29.0475 20.2469C29.0058 20.2138 28.9745 20.1694 28.9573 20.1191C28.9401 20.0687 28.9377 20.0145 28.9504 19.9628C28.9631 19.9112 28.9903 19.8642 29.0289 19.8275C29.0674 19.7909 29.1157 19.7661 29.1679 19.756C29.2202 19.7459 29.2742 19.7511 29.3236 19.7708C29.3938 19.8066 29.4473 19.8683 29.4728 19.9429C29.4983 20.0175 29.4937 20.099 29.4602 20.1703Z" fill="#22BAAF"/>
<path opacity="0.56" d="M32.3587 15.8718C32.329 15.9541 32.2828 16.0296 32.2229 16.0934C32.163 16.1572 32.0907 16.2082 32.0104 16.243C31.9301 16.2779 31.8435 16.296 31.7559 16.2962C31.6684 16.2964 31.5817 16.2787 31.5013 16.2441C31.4208 16.2096 31.3483 16.159 31.2881 16.0954C31.2279 16.0318 31.1814 15.9566 31.1513 15.8743C31.1213 15.7921 31.1083 15.7046 31.1134 15.6172C31.1184 15.5298 31.1412 15.4443 31.1804 15.3661C31.2101 15.2837 31.2563 15.2083 31.3163 15.1444C31.3762 15.0806 31.4485 15.0297 31.5288 14.9948C31.6091 14.9599 31.6957 14.9418 31.7832 14.9417C31.8708 14.9415 31.9575 14.9592 32.0379 14.9937C32.1184 15.0282 32.1909 15.0789 32.2511 15.1424C32.3113 15.206 32.3578 15.2813 32.3879 15.3635C32.4179 15.4457 32.4308 15.5332 32.4258 15.6206C32.4208 15.708 32.398 15.7935 32.3587 15.8718Z" fill="#22BAAF"/>
<path opacity="0.45" d="M27.175 26.4968H27.1346C27.1174 26.4872 27.1046 26.4712 27.0989 26.4524C27.0932 26.4335 27.0951 26.4131 27.1042 26.3956C27.1111 26.3781 27.1241 26.3638 27.141 26.3553C27.1578 26.3469 27.1771 26.3451 27.1952 26.3501C27.4972 26.4737 27.8305 26.4986 28.1474 26.4214C28.4644 26.3442 28.7489 26.1688 28.9602 25.9203C29.2444 25.6531 29.4865 25.3445 29.6783 25.0049L33.4863 15.6189C33.4874 15.608 33.4911 15.5975 33.4969 15.5883C33.5028 15.579 33.5107 15.5712 33.5201 15.5656C33.5295 15.5599 33.5401 15.5565 33.551 15.5556C33.5619 15.5547 33.5729 15.5564 33.583 15.5604C33.5932 15.5645 33.6023 15.5709 33.6096 15.579C33.6169 15.5872 33.6222 15.597 33.6251 15.6076C33.6279 15.6181 33.6283 15.6292 33.6262 15.64C33.6241 15.6507 33.6194 15.6608 33.6127 15.6695L29.7997 25.0302C29.7845 25.0808 28.6669 27.1036 27.175 26.4968Z" fill="#22BAAF"/>
<path opacity="0.45" d="M34.5681 14.5165L31.8979 13.4292C31.8896 13.425 31.8822 13.4191 31.8761 13.4119C31.8701 13.4047 31.8655 13.3965 31.8627 13.3875C31.8598 13.3786 31.8588 13.3692 31.8597 13.3598C31.8605 13.3505 31.8632 13.3414 31.8676 13.3331C31.8699 13.3236 31.8741 13.3147 31.88 13.3069C31.886 13.2991 31.8934 13.2927 31.902 13.2879C31.9106 13.2831 31.92 13.2802 31.9297 13.2793C31.9395 13.2784 31.9493 13.2795 31.9586 13.2826L34.6288 14.3698C34.6378 14.3741 34.6458 14.3802 34.6523 14.3877C34.6589 14.3952 34.6637 14.4041 34.6666 14.4136C34.6694 14.4232 34.6702 14.4332 34.669 14.4431C34.6677 14.453 34.6643 14.4625 34.6591 14.471C34.6563 14.48 34.6516 14.4884 34.6454 14.4957C34.6393 14.5029 34.6317 14.5088 34.6232 14.513C34.6147 14.5173 34.6055 14.5198 34.596 14.5204C34.5865 14.521 34.577 14.5197 34.5681 14.5165Z" fill="#22BAAF"/>
<path d="M21.5829 8.3889C21.5829 8.61362 21.5163 8.83329 21.3914 9.02014C21.2666 9.20699 21.0891 9.35261 20.8815 9.43861C20.6739 9.52461 20.4455 9.54711 20.2251 9.50327C20.0047 9.45943 19.8022 9.35121 19.6433 9.19231C19.4844 9.03341 19.3762 8.83096 19.3324 8.61056C19.2885 8.39016 19.311 8.16171 19.397 7.9541C19.483 7.74648 19.6287 7.56904 19.8155 7.44419C20.0023 7.31934 20.222 7.2527 20.4467 7.2527C20.5962 7.25187 20.7443 7.28068 20.8825 7.33749C21.0208 7.39429 21.1463 7.47795 21.252 7.58362C21.3577 7.68929 21.4413 7.81488 21.4981 7.95311C21.5549 8.09134 21.5838 8.23946 21.5829 8.3889Z" fill="#22BAAF"/>
<path d="M21.4184 11.141C22.0459 11.141 22.5546 10.6324 22.5546 10.0048C22.5546 9.37734 22.0459 8.86865 21.4184 8.86865C20.7909 8.86865 20.2822 9.37734 20.2822 10.0048C20.2822 10.6324 20.7909 11.141 21.4184 11.141Z" fill="#22BAAF"/>
<path d="M20.4469 10.0365C20.4419 10.2601 20.3711 10.4772 20.2433 10.6607C20.1154 10.8442 19.9363 10.9859 19.7283 11.0681C19.5203 11.1502 19.2927 11.1691 19.074 11.1225C18.8553 11.0758 18.6552 10.9657 18.4988 10.8058C18.3424 10.646 18.2367 10.4435 18.1949 10.2238C18.153 10.0041 18.177 9.77699 18.2636 9.57084C18.3503 9.3647 18.4959 9.18872 18.6822 9.06495C18.8684 8.94118 19.0871 8.87514 19.3107 8.87508C19.4623 8.87418 19.6126 8.90379 19.7525 8.96216C19.8924 9.02052 20.0191 9.10645 20.1251 9.21482C20.2312 9.3232 20.3143 9.4518 20.3696 9.59296C20.4248 9.73413 20.4511 9.88498 20.4469 10.0365Z" fill="#22BAAF"/>
<path d="M20.1252 18.2422C18.1495 18.2422 16.5967 14.3413 16.5967 9.36726C16.5967 4.39325 18.1495 0.49231 20.1252 0.49231C22.1009 0.49231 23.6538 4.38694 23.6538 9.36726C23.6538 14.3476 22.1009 18.2422 20.1252 18.2422ZM20.1252 0.738486C18.3199 0.738486 16.8492 4.60786 16.8492 9.36726C16.8492 14.1267 18.3199 17.9897 20.1252 17.9897C21.9305 17.9897 23.4076 14.1204 23.4076 9.36726C23.4076 4.61418 21.9368 0.732174 20.1252 0.732174V0.738486Z" fill="#22BAAF"/>
<path d="M20.125 12.8831C15.1509 12.8831 11.25 11.3366 11.25 9.36092C11.25 7.3852 15.1509 5.8324 20.125 5.8324C25.099 5.8324 28.9999 7.3852 28.9999 9.36092C28.9999 11.3366 25.099 12.8831 20.125 12.8831ZM20.125 6.07857C15.3656 6.07857 11.4962 7.54932 11.4962 9.36092C11.4962 11.1725 15.3656 12.6369 20.125 12.6369C24.8844 12.6369 28.779 11.1662 28.779 9.36092C28.779 7.55563 24.8844 6.07857 20.125 6.07857Z" fill="#22BAAF"/>
<path d="M25.3571 15.5406C24.7128 15.5232 24.0747 15.4105 23.4634 15.2061C21.4584 14.5157 19.5939 13.4702 17.9592 12.1194C16.2709 10.8349 14.8276 9.25695 13.6984 7.46102C12.7769 5.88297 12.6001 4.6016 13.1998 3.84413C13.7994 3.08667 15.0934 2.97305 16.8356 3.50959C20.8368 4.97763 24.2601 7.69285 26.6006 11.2547C27.5222 12.8327 27.6989 14.1204 27.1056 14.8715C26.8862 15.1114 26.614 15.2967 26.3104 15.4129C26.0069 15.529 25.6805 15.5728 25.3571 15.5406ZM14.8915 3.42122C14.6094 3.39453 14.3249 3.43302 14.0601 3.53371C13.7952 3.6344 13.557 3.79459 13.3639 4.00194C12.8337 4.67103 13.023 5.85141 13.8878 7.33478C15.0029 9.10376 16.4243 10.6599 18.0854 11.9301C19.6997 13.2587 21.538 14.289 23.5139 14.9725C25.1551 15.4775 26.3544 15.3891 26.8846 14.7201C27.4149 14.051 27.2318 12.8643 26.3607 11.3809C25.2454 9.61393 23.8239 8.05996 22.1631 6.79193C20.5503 5.46099 18.7116 4.43048 16.7346 3.74945C16.1402 3.5482 15.5188 3.43755 14.8915 3.42122Z" fill="#22BAAF"/>
<path d="M15.4848 16.4307C15.0427 16.4516 14.6086 16.3076 14.2665 16.0267C13.547 15.3955 13.4902 14.0951 14.1151 12.3782C14.9067 10.4101 16.0439 8.59944 17.4731 7.0318C18.8449 5.41186 20.4952 4.05015 22.3462 3.01092C23.9684 2.1714 25.2561 2.05778 25.982 2.69531C27.4654 3.99563 26.0577 7.94706 22.7754 11.6902C21.4055 13.3112 19.7574 14.675 17.9087 15.7174C17.1673 16.1407 16.3373 16.385 15.4848 16.4307ZM24.7574 2.54382C23.9509 2.5936 23.1667 2.82907 22.4661 3.23185C20.6444 4.25795 19.0199 5.60026 17.6688 7.19591C16.2606 8.74017 15.1384 10.5228 14.3549 12.4603C13.7679 14.0762 13.7931 15.2755 14.437 15.8436C15.0808 16.4117 16.2738 16.2792 17.8014 15.4838C19.6223 14.4619 21.2451 13.1214 22.5923 11.5261C25.7484 7.95338 27.1813 4.07137 25.8242 2.87836C25.5246 2.6332 25.1439 2.50932 24.7574 2.53119V2.54382Z" fill="#22BAAF"/>
<path d="M20.1249 1.6033C20.5676 1.6033 20.9265 1.24439 20.9265 0.801649C20.9265 0.358911 20.5676 0 20.1249 0C19.6821 0 19.3232 0.358911 19.3232 0.801649C19.3232 1.24439 19.6821 1.6033 20.1249 1.6033Z" fill="#22BAAF"/>
<path d="M26.7841 15.6859C27.2268 15.6859 27.5857 15.327 27.5857 14.8842C27.5857 14.4415 27.2268 14.0826 26.7841 14.0826C26.3413 14.0826 25.9824 14.4415 25.9824 14.8842C25.9824 15.327 26.3413 15.6859 26.7841 15.6859Z" fill="#22BAAF"/>
<path d="M14.3622 9.28518C14.8049 9.28518 15.1638 8.92627 15.1638 8.48353C15.1638 8.04079 14.8049 7.68188 14.3622 7.68188C13.9195 7.68188 13.5605 8.04079 13.5605 8.48353C13.5605 8.92627 13.9195 9.28518 14.3622 9.28518Z" fill="#22BAAF"/>
<path d="M20.2472 18.6944C20.5719 18.6944 20.8351 18.4312 20.8351 18.1065C20.8351 17.7817 20.5719 17.5185 20.2472 17.5185C19.9224 17.5185 19.6592 17.7817 19.6592 18.1065C19.6592 18.4312 19.9224 18.6944 20.2472 18.6944Z" fill="#22BAAF"/>
<path d="M24.8051 26.1772L17.21 28.9551C16.9587 29.047 16.8294 29.3254 16.9214 29.5767L17.0004 29.7928C17.0923 30.0441 17.3706 30.1734 17.622 30.0814L25.217 27.3035C25.4684 27.2116 25.5977 26.9333 25.5057 26.6819L25.4267 26.4659C25.3348 26.2145 25.0565 26.0853 24.8051 26.1772Z" fill="#22BAAF"/>
<path d="M16.9502 28.5951V32.1288C16.9502 32.1288 23.9693 30.9106 26.0577 28.6724L24.124 26.033L16.9502 28.5951Z" fill="#22BAAF"/>
<g style="mix-blend-mode:multiply" opacity="0.61">
<path d="M19.5848 29.2767C21.4169 28.6386 23.2345 27.9667 25.0522 27.2802L24.1433 26.033L16.9502 28.5951V30.1227C17.8348 29.8471 18.7195 29.5813 19.5848 29.2767Z" fill="#22BAAF"/>
</g>
<path opacity="0.61" d="M17.8545 23.0504L18.8165 24.9406L19.3289 24.6215L18.5699 22.6879L17.8545 23.0504Z" fill="#22BAAF"/>
<path opacity="0.61" d="M19.4062 22.3447L20.3682 24.2348L20.8806 23.9158L20.1265 21.9821L19.4062 22.3447Z" fill="#22BAAF"/>
<path opacity="0.61" d="M20.7451 21.7112L21.8908 23.5047L22.3646 23.1325L21.4267 21.281L20.7451 21.7112Z" fill="#22BAAF"/>
<path d="M17.2694 21.4357L15.152 16.3502C15.152 16.3502 14.9393 15.2239 16.3509 14.6583C17.7625 14.0927 18.2362 15.2239 18.2362 15.2239L20.3535 19.884C20.3535 19.884 19.933 21.223 17.2694 21.4357Z" fill="#22BAAF"/>
<path d="M17.0381 20.7299L16.5547 23.7658C16.5547 23.7658 20.6492 23.5531 22.3556 20.6574L20.0256 19.1733L17.0381 20.7299Z" fill="#22BAAF"/>
<path d="M15.6261 16.6355C15.6261 16.6355 10.5406 18.4676 11.0337 23.5531C11.5267 28.6386 16.2593 28.6386 16.472 28.7063L16.8249 27.7878C16.8249 27.7878 12.8706 27.0143 12.7304 23.4806C12.6704 22.2551 12.9732 21.0392 13.6009 19.985C14.2286 18.9307 15.1533 18.0851 16.2593 17.554L15.6261 16.6355Z" fill="#22BAAF"/>
<path d="M25.8558 28.4587L16.9166 31.7283C16.6207 31.8365 16.4686 32.164 16.5768 32.4599L16.6698 32.7142C16.778 33.01 17.1056 33.1621 17.4014 33.0539L26.3407 29.7844C26.6365 29.6762 26.7887 29.3486 26.6804 29.0527L26.5875 28.7985C26.4792 28.5026 26.1517 28.3505 25.8558 28.4587Z" fill="#22BAAF"/>
<path d="M17.2276 28.833C17.3397 28.1398 16.8686 27.4871 16.1754 27.3751C15.4822 27.2631 14.8295 27.7342 14.7175 28.4273C14.6055 29.1205 15.0766 29.7732 15.7697 29.8853C16.4629 29.9973 17.1156 29.5262 17.2276 28.833Z" fill="#22BAAF"/>
<path opacity="0.55" d="M18.6625 17.1914C18.6344 17.1916 18.6071 17.1828 18.5844 17.1662C18.5618 17.1497 18.5451 17.1263 18.5368 17.0995C18.1839 16.0795 17.7392 15.4753 17.2364 15.3544C17.0799 15.325 16.9188 15.3319 16.7654 15.3747C16.612 15.4174 16.4705 15.4948 16.3518 15.6009C16.3396 15.6137 16.3249 15.6238 16.3087 15.6307C16.2925 15.6376 16.2751 15.6412 16.2575 15.6412C16.2399 15.6412 16.2224 15.6376 16.2062 15.6307C16.19 15.6238 16.1754 15.6137 16.1632 15.6009C16.1387 15.5757 16.125 15.5419 16.125 15.5067C16.125 15.4715 16.1387 15.4377 16.1632 15.4124C16.3139 15.275 16.4948 15.175 16.6913 15.1204C16.8878 15.0658 17.0944 15.0582 17.2944 15.0982C17.8987 15.2432 18.4014 15.891 18.7833 17.0318C18.7944 17.0659 18.7921 17.1028 18.7768 17.1352C18.7615 17.1675 18.7345 17.1928 18.7012 17.2059L18.6625 17.1914Z" fill="#22BAAF"/>
<path opacity="0.55" d="M21.6979 20.8653C21.6774 20.8716 21.6555 20.8716 21.6351 20.8653L20.0108 20.0193C19.9926 20.0127 19.9761 20.0022 19.9623 19.9887C19.9485 19.9751 19.9378 19.9587 19.9309 19.9407C19.9239 19.9226 19.921 19.9033 19.9221 19.884C19.9233 19.8647 19.9286 19.8458 19.9377 19.8287C19.9467 19.8117 19.9594 19.7967 19.9747 19.7849C19.99 19.7731 20.0077 19.7647 20.0265 19.7604C20.0454 19.756 20.0649 19.7557 20.0839 19.7595C20.1029 19.7633 20.1208 19.7711 20.1365 19.7825L21.7607 20.6284C21.792 20.6458 21.8155 20.6746 21.8263 20.7087C21.8371 20.7429 21.8344 20.7799 21.8188 20.8121C21.8045 20.8302 21.7861 20.8446 21.765 20.8538C21.7439 20.8631 21.7209 20.8671 21.6979 20.8653Z" fill="#22BAAF"/>
<path opacity="0.57" d="M16.3045 29.4205C16.7358 29.2409 16.9398 28.7456 16.7602 28.3143C16.5806 27.883 16.0853 27.679 15.654 27.8586C15.2227 28.0382 15.0187 28.5335 15.1983 28.9648C15.3779 29.3961 15.8732 29.6001 16.3045 29.4205Z" fill="#22BAAF"/>
<path opacity="0.55" d="M20.238 30.7656C20.2067 30.7652 20.1765 30.7539 20.1526 30.7337C20.1286 30.7135 20.1125 30.6857 20.1068 30.6549C20.1011 30.6241 20.1062 30.5923 20.1213 30.5649C20.1364 30.5375 20.1606 30.5162 20.1896 30.5045L25.7295 28.5225C25.7636 28.5126 25.8001 28.5155 25.8322 28.5306C25.8642 28.5458 25.8896 28.5721 25.9036 28.6047C25.9147 28.6387 25.9123 28.6757 25.8971 28.7081C25.8818 28.7404 25.8547 28.7657 25.8214 28.7788L20.2815 30.7801C20.2658 30.7801 20.2505 30.775 20.238 30.7656Z" fill="#22BAAF"/>
<path d="M23.43 24.6085L18.8245 26.3562C18.6922 26.4064 18.6257 26.5543 18.6759 26.6866L18.7187 26.7996C18.7689 26.9319 18.9169 26.9985 19.0492 26.9483L23.6547 25.2006C23.787 25.1504 23.8535 25.0025 23.8033 24.8702L23.7605 24.7572C23.7103 24.6249 23.5623 24.5583 23.43 24.6085Z" fill="#22BAAF"/>
<g style="mix-blend-mode:overlay" opacity="0.48">
<path d="M20.4115 25.7526L19.9523 25.9267C19.8266 26.1974 19.7058 26.4729 19.5801 26.7436L20.0973 26.5503C20.1988 26.2844 20.3052 26.0185 20.4115 25.7526Z" fill="#22BAAF"/>
</g>
<g style="mix-blend-mode:overlay" opacity="0.48">
<path d="M22.4615 24.9744L21.7751 25.2306C21.6687 25.5013 21.5575 25.7672 21.4512 26.0379L22.215 25.7478C22.2923 25.4868 22.3745 25.2306 22.4615 24.9744Z" fill="#22BAAF"/>
</g>
<path opacity="0.22" d="M8.12953 22.9135C7.01051 23.0282 5.88996 22.711 4.99711 22.0267C4.10427 21.3425 3.50661 20.3429 3.32642 19.2326C3.09972 18.1139 3.29229 16.9508 3.86746 15.9649C4.49165 14.9177 5.4901 14.276 6.47546 13.5945C7.00991 13.2618 7.47343 12.8269 7.83945 12.3146C8.20546 11.8024 8.46676 11.223 8.60837 10.6096C8.89333 9.33789 9.04289 8.03963 9.05457 6.73648L7.55258 6.42682C7.50305 6.41682 7.45201 6.41697 7.40255 6.42727C7.35308 6.43757 7.30622 6.45781 7.26481 6.48676C7.2234 6.51571 7.1883 6.55276 7.16163 6.59568C7.13497 6.6386 7.11729 6.68648 7.10968 6.73643C7.09827 6.78606 7.0974 6.83753 7.10712 6.88752C7.11683 6.93751 7.13693 6.98491 7.16611 7.02665C7.19529 7.06838 7.2329 7.10354 7.27651 7.12984C7.32012 7.15614 7.36876 7.17299 7.41929 7.17932L7.9641 7.29091L6.71139 13.2734C4.12821 13.3644 1.95862 14.8275 1.51575 16.9984C0.968762 19.6481 3.20464 22.3434 6.50467 23.0209C9.8047 23.6984 12.9216 22.0993 13.4626 19.452C13.485 19.3381 13.5014 19.2268 13.5178 19.1154C13.0204 20.1571 12.2636 21.0535 11.3201 21.7186C10.3765 22.3837 9.27786 22.7952 8.12953 22.9135Z" fill="#22BAAF"/>
<path opacity="0.47" d="M12.0847 7.77033L9.32357 7.20692C9.29393 7.20122 9.26777 7.18398 9.25084 7.15898C9.23392 7.13399 9.22761 7.1033 9.23331 7.07366C9.23902 7.04402 9.25626 7.01786 9.28125 7.00093C9.30624 6.98401 9.33694 6.9777 9.36658 6.9834L12.126 7.55102C12.1416 7.55298 12.1567 7.55817 12.1702 7.56625C12.1837 7.57434 12.1954 7.58514 12.2046 7.59798C12.2137 7.61082 12.2201 7.62542 12.2233 7.64085C12.2265 7.65628 12.2264 7.6722 12.2231 7.68761C12.2199 7.70303 12.2134 7.71759 12.2042 7.73038C12.195 7.74317 12.1832 7.75391 12.1697 7.76192C12.1561 7.76992 12.141 7.77503 12.1254 7.7769C12.1097 7.77878 12.0939 7.77738 12.0788 7.7728L12.0847 7.77033Z" fill="#22BAAF"/>
<path opacity="0.22" d="M10.1593 13.9626L11.3927 7.96722L11.9316 8.08128C12.0276 8.09943 12.1269 8.07969 12.2086 8.02621C12.2903 7.97273 12.3482 7.88966 12.37 7.79444C12.3894 7.69834 12.3701 7.59848 12.3164 7.51645C12.2628 7.43441 12.179 7.37679 12.0832 7.35602L7.54428 6.42333C7.49475 6.41332 7.44371 6.41347 7.39425 6.42377C7.34478 6.43407 7.29792 6.45431 7.25651 6.48326C7.2151 6.51221 7.18 6.54926 7.15333 6.59218C7.12667 6.6351 7.109 6.68298 7.10139 6.73293C7.08997 6.78256 7.0891 6.83404 7.09882 6.88402C7.10854 6.93401 7.12863 6.98141 7.15781 7.02315C7.18699 7.06489 7.2246 7.10004 7.26821 7.12634C7.31182 7.15264 7.36046 7.1695 7.41099 7.17583L7.95579 7.28741L6.71151 13.2733C4.12833 13.3644 1.95873 14.8275 1.51586 16.9983C0.968876 19.6481 3.20476 22.3434 6.50478 23.0209C9.80481 23.6983 12.9217 22.0993 13.4627 19.452C13.9168 17.2661 12.498 15.0606 10.1593 13.9626Z" fill="#22BAAF"/>
<g opacity="0.47">
<path opacity="0.47" d="M9.75017 14.0351C9.72082 14.0276 9.69524 14.0096 9.67835 13.9845C9.66147 13.9593 9.65446 13.9288 9.65868 13.8989L10.7422 8.62456C10.7486 8.5952 10.7663 8.56955 10.7915 8.5532C10.8167 8.53685 10.8473 8.53112 10.8767 8.53727C10.8913 8.53968 10.9052 8.54502 10.9176 8.55295C10.93 8.56088 10.9407 8.57124 10.9491 8.58341C10.9574 8.59558 10.9631 8.60932 10.966 8.62378C10.9689 8.63824 10.9688 8.65314 10.9658 8.66756L9.88641 13.9436C9.87896 13.973 9.86094 13.9985 9.8358 14.0154C9.81066 14.0323 9.78016 14.0393 9.75017 14.0351Z" fill="#22BAAF"/>
</g>
<g opacity="0.47">
<path opacity="0.47" d="M12.4376 21.0181L12.4123 21.0077C12.399 21.001 12.387 20.9916 12.3773 20.9802C12.3675 20.9688 12.3601 20.9556 12.3555 20.9413C12.3508 20.9271 12.3491 20.912 12.3503 20.8971C12.3515 20.8821 12.3556 20.8675 12.3625 20.8542C12.6394 20.3698 12.8151 19.8342 12.8788 19.2799C12.9426 18.7255 12.893 18.164 12.7331 17.6294C12.1364 15.842 10.2829 14.9048 10.2661 14.8978C10.2387 14.884 10.2177 14.8601 10.2076 14.8311C10.1975 14.8021 10.1991 14.7704 10.212 14.7426C10.2187 14.7292 10.2281 14.7172 10.2395 14.7075C10.2509 14.6977 10.2641 14.6903 10.2783 14.6857C10.2926 14.681 10.3077 14.6793 10.3226 14.6805C10.3376 14.6817 10.3521 14.6858 10.3655 14.6927C10.4496 14.7274 12.3249 15.6835 12.9486 17.5608C13.1185 18.1234 13.1722 18.7147 13.1064 19.2986C13.0406 19.8826 12.8567 20.4472 12.5659 20.9578C12.5545 20.9809 12.5356 20.9995 12.5123 21.0104C12.489 21.0214 12.4626 21.0241 12.4376 21.0181Z" fill="#22BAAF"/>
</g>
<path d="M9.58627 19.0388C8.23872 19.0647 6.90084 18.8062 5.65996 18.2801C4.61656 17.8495 3.60495 17.2942 2.56275 16.9084C2.51684 17.0398 2.47952 17.1741 2.45103 17.3103C2.01229 19.5666 3.85142 21.8273 6.59896 22.3999C9.3465 22.9724 11.9512 21.6002 12.4152 19.3544C12.4539 19.1571 12.4756 18.9569 12.4801 18.7559C11.522 18.9078 10.5556 19.0023 9.58627 19.0388Z" fill="#22BAAF"/>
<path d="M2.56275 16.9084C2.56275 16.9084 4.52799 15.5825 12.4801 18.7559C12.4801 18.7559 8.10414 21.4848 2.56275 16.9084Z" fill="#22BAAF"/>
<path d="M5.63419 18.0431C5.62274 18.0968 5.59562 18.1459 5.55626 18.1842C5.5169 18.2225 5.46707 18.2483 5.41307 18.2583C5.35907 18.2682 5.30333 18.262 5.25289 18.2403C5.20245 18.2185 5.15958 18.1824 5.1297 18.1363C5.09982 18.0902 5.08428 18.0363 5.08503 17.9814C5.08579 17.9265 5.1028 17.8731 5.13393 17.8278C5.16507 17.7826 5.20891 17.7476 5.25993 17.7273C5.31095 17.707 5.36684 17.7023 5.42055 17.7137C5.49256 17.7291 5.55553 17.7724 5.59559 17.8342C5.63566 17.896 5.64954 17.9711 5.63419 18.0431Z" fill="#22BAAF"/>
<path d="M6.25659 15.3553C6.23408 15.4668 6.1682 15.5648 6.07344 15.6277C5.97868 15.6906 5.8628 15.7134 5.7513 15.6908C5.63979 15.6683 5.5418 15.6024 5.47887 15.5077C5.41594 15.4129 5.39323 15.297 5.41575 15.1855C5.44463 15.0776 5.51221 14.984 5.60562 14.9227C5.69904 14.8614 5.81175 14.8365 5.92228 14.853C5.97743 14.8636 6.02991 14.8851 6.07667 14.9162C6.12344 14.9473 6.16354 14.9873 6.19466 15.0341C6.22577 15.0809 6.24727 15.1333 6.25791 15.1885C6.26854 15.2436 6.26809 15.3003 6.25659 15.3553Z" fill="#22BAAF"/>
<path d="M9.65901 18.3253C9.63595 18.4366 9.56962 18.5342 9.47462 18.5965C9.37963 18.6589 9.26375 18.681 9.15248 18.6579C9.04121 18.6348 8.94365 18.5685 8.88128 18.4735C8.81891 18.3785 8.79683 18.2627 8.8199 18.1514C8.83132 18.0963 8.85349 18.044 8.88512 17.9974C8.91676 17.9509 8.95725 17.9111 9.00429 17.8802C9.05132 17.8493 9.10398 17.828 9.15925 17.8175C9.21453 17.8069 9.27134 17.8074 9.32643 17.8188C9.38153 17.8302 9.43384 17.8524 9.48037 17.884C9.52691 17.9157 9.56675 17.9562 9.59763 18.0032C9.62852 18.0502 9.64983 18.1029 9.66036 18.1582C9.67089 18.2134 9.67044 18.2702 9.65901 18.3253Z" fill="#22BAAF"/>
<path d="M8.51496 13.3776C8.50435 13.4316 8.4779 13.4812 8.439 13.5202C8.40009 13.5592 8.35047 13.5857 8.29645 13.5964C8.24244 13.6071 8.18646 13.6015 8.13564 13.5803C8.08482 13.5591 8.04145 13.5232 8.01104 13.4773C7.98064 13.4314 7.96457 13.3775 7.96489 13.3224C7.96521 13.2674 7.98189 13.2137 8.01282 13.1681C8.04375 13.1225 8.08753 13.0872 8.13859 13.0666C8.18965 13.046 8.24569 13.041 8.29958 13.0523C8.37103 13.0673 8.4337 13.1099 8.47401 13.1707C8.51432 13.2316 8.52903 13.3059 8.51496 13.3776Z" fill="#22BAAF"/>
<path d="M10.4137 16.1257C10.4023 16.1794 10.3752 16.2285 10.3358 16.2668C10.2965 16.3051 10.2466 16.3309 10.1926 16.3409C10.1386 16.3508 10.0829 16.3446 10.0325 16.3229C9.98201 16.3011 9.93915 16.265 9.90927 16.2189C9.87939 16.1728 9.86384 16.1189 9.86459 16.064C9.86535 16.0091 9.88237 15.9557 9.9135 15.9104C9.94463 15.8652 9.98848 15.8302 10.0395 15.8099C10.0905 15.7896 10.1464 15.7849 10.2001 15.7963C10.2715 15.8127 10.3337 15.8563 10.3736 15.9178C10.4135 15.9793 10.4279 16.0538 10.4137 16.1257Z" fill="#22BAAF"/>
<path d="M8.14218 16.4636C8.13882 16.5026 8.12725 16.5405 8.10823 16.5747C8.08922 16.6089 8.06318 16.6387 8.03184 16.6621C8.00051 16.6855 7.96457 16.7021 7.92638 16.7107C7.8882 16.7192 7.84863 16.7196 7.81028 16.7118C7.77193 16.704 7.73566 16.6882 7.70385 16.6654C7.67204 16.6426 7.64541 16.6134 7.62571 16.5796C7.606 16.5458 7.59366 16.5082 7.58951 16.4693C7.58535 16.4303 7.58947 16.391 7.60159 16.3538C7.62269 16.289 7.66689 16.2342 7.72576 16.1999C7.78463 16.1656 7.85407 16.1541 7.92085 16.1677C7.98763 16.1813 8.0471 16.2189 8.08791 16.2735C8.12872 16.3281 8.14804 16.3957 8.14218 16.4636Z" fill="#22BAAF"/>
<path d="M3.55781 18.8159C3.55094 18.8515 3.53702 18.8855 3.51686 18.9157C3.49671 18.9459 3.47073 18.9718 3.44044 18.9919C3.41016 19.0119 3.37617 19.0258 3.34048 19.0325C3.30479 19.0393 3.26811 19.0388 3.23259 19.0313C3.16779 19.0101 3.11302 18.9659 3.07871 18.9071C3.04439 18.8482 3.03292 18.7788 3.04649 18.712C3.06006 18.6452 3.09772 18.5857 3.15229 18.5449C3.20686 18.5041 3.27454 18.4848 3.34244 18.4907C3.37811 18.4975 3.41204 18.5115 3.44227 18.5316C3.47249 18.5518 3.49838 18.5777 3.51844 18.608C3.5385 18.6383 3.55231 18.6723 3.55907 18.708C3.56583 18.7437 3.5654 18.7804 3.55781 18.8159Z" fill="#22BAAF"/>
<path d="M8.05011 20.7192C8.0395 20.7732 8.01306 20.8229 7.97415 20.8618C7.93525 20.9008 7.88563 20.9273 7.83161 20.938C7.7776 20.9487 7.72162 20.9431 7.6708 20.9219C7.61997 20.9007 7.57661 20.8649 7.5462 20.819C7.5158 20.773 7.49973 20.7191 7.50005 20.6641C7.50037 20.609 7.51705 20.5553 7.54798 20.5097C7.57891 20.4642 7.62269 20.4288 7.67375 20.4082C7.72481 20.3876 7.78085 20.3826 7.83474 20.3939C7.90619 20.409 7.96885 20.4515 8.00916 20.5124C8.04947 20.5732 8.06418 20.6475 8.05011 20.7192Z" fill="#22BAAF"/>
</g>
</svg>
