<svg width="157" height="108" viewBox="0 0 157 108" fill="none" xmlns="http://www.w3.org/2000/svg">
<path d="M58.5675 83.3421C59.4999 83.5716 60.4786 83.528 61.3866 83.2165C62.2946 82.905 63.0935 82.3387 63.688 81.5853C64.1951 81.0139 64.5693 80.3374 64.7838 79.6041C65.4503 77.0001 63.8368 73.538 62.1179 71.6366C64.2027 69.0809 65.7201 65.2672 63.6602 62.2123C63.6086 62.0302 63.427 61.885 63.3011 61.738C63.4072 59.8408 63.1117 57.9422 62.4341 56.1664C61.7564 54.3906 60.7118 52.7774 59.3683 51.4322C59.3217 51.3813 59.2643 51.3415 59.2002 51.3158C59.1361 51.2901 59.0671 51.2792 58.9983 51.2838C58.9294 51.2885 58.8625 51.3085 58.8025 51.3426C58.7425 51.3766 58.6909 51.4237 58.6516 51.4804C56.9889 53.6978 56.1342 56.417 56.2292 59.1874C54.3476 59.1694 52.5138 59.7768 51.0159 60.9143C49.5194 59.0535 47.7353 57.4435 45.731 56.145C45.675 56.1052 45.6107 56.0784 45.543 56.0667C45.4753 56.055 45.4058 56.0586 45.3396 56.0773C45.2735 56.096 45.2124 56.1293 45.1609 56.1748C45.1093 56.2202 45.0687 56.2766 45.0418 56.3399C44.3436 57.9861 44.1136 59.7933 44.3771 61.5624C44.6407 63.3316 45.3876 64.9939 46.5356 66.3663C46.8434 66.738 47.1811 67.0841 47.5453 67.4009C47.5167 68.0042 47.5653 68.6087 47.69 69.1998C48.3186 72.21 50.9445 73.6444 53.7207 74.2216C52.9919 77.3489 55.4282 82.3759 58.5675 83.3421Z" fill="#1E1E1E"/>
<path d="M59.5609 61.6718C58.949 61.6567 58.3526 61.864 57.8822 62.2552C57.4119 62.6465 57.0997 63.1952 57.0035 63.7994C56.7884 64.664 56.9023 65.5777 57.323 66.3635C57.4479 66.7679 57.666 67.1373 57.9598 67.4421C58.2536 67.7469 58.6148 67.9785 59.0144 68.1183C59.4447 68.2164 59.8905 68.2249 60.3241 68.1434C60.7577 68.0618 61.1699 67.892 61.5349 67.6444C61.9403 67.2991 62.2408 66.8472 62.4023 66.3398C62.5639 65.8324 62.58 65.2899 62.4489 64.7736C62.4221 63.9957 62.1151 63.2535 61.5845 62.6836C61.0538 62.1136 60.3352 61.7543 59.5609 61.6718Z" fill="white"/>
<path d="M52.8474 64.5538C52.4854 64.4121 52.0911 64.3746 51.709 64.4454C51.3269 64.5162 50.9723 64.6925 50.6854 64.9544C50.0357 65.3097 49.5414 65.8937 49.2984 66.5931C49.0553 67.2925 49.081 68.0573 49.3703 68.7391C50.0963 70.4579 53.0474 71.8004 54.2604 69.7861C54.6484 68.8849 54.696 67.8734 54.3945 66.9393C54.3665 66.4416 54.209 65.9597 53.9377 65.5414C53.6663 65.123 53.2905 64.7826 52.8474 64.5538Z" fill="white"/>
<path d="M59.7037 69.5095C59.7605 69.8524 59.7401 70.2037 59.6439 70.5377C59.5834 70.7962 59.4576 71.0349 59.2785 71.231L59.072 71.4439C58.6808 71.7665 58.2268 72.0044 57.7387 72.1424C57.2506 72.2804 56.7392 72.3156 56.2367 72.2456L56.0548 72.1987C55.8337 72.1538 55.6255 72.0597 55.4458 71.9232C55.266 71.7868 55.1193 71.6116 55.0166 71.4107C54.9503 71.1766 54.8766 70.9166 54.7192 70.7082L55.2654 70.5538L56.0978 70.3184C56.7741 70.1271 57.5544 69.9065 58.1919 69.6279L59.1544 69.3558C59.3094 69.3253 59.4616 69.2822 59.6096 69.227C59.63 69.2494 59.6705 69.3924 59.7037 69.5095Z" fill="#E7001F"/>
<path d="M59.2779 71.2307C59.3369 71.4387 59.3049 71.6725 59.3248 71.8915C59.2937 71.8507 59.2792 71.7996 59.2843 71.7485C59.2511 71.6315 59.2179 71.5145 59.1885 71.4105C58.9002 70.7898 58.5989 70.1728 58.3013 69.5688L59.2635 69.2968L59.2779 71.2307Z" fill="white"/>
<path d="M56.0771 70.2968C56.137 70.9539 56.1801 71.6018 56.2233 72.2496C56.2528 72.3536 56.2823 72.4576 56.3118 72.5616C56.2643 72.5257 56.2267 72.4784 56.2025 72.424L56.1325 72.177C55.8663 71.6343 55.6095 71.075 55.3433 70.5324L56.0771 70.2968Z" fill="white"/>
<path d="M53.9535 74.6073C52.2428 74.3039 50.6337 73.5815 49.2701 72.5048C46.3281 70.6155 44.0093 67.9 42.6047 64.6991C41.5708 61.2922 40.7387 57.8275 40.1128 54.3229C36.1325 54.4774 32.1502 54.0617 28.2871 53.0884C30.0651 54.8492 31.5803 56.8567 32.786 59.049C33.6915 60.7918 34.1052 62.7479 33.9827 64.7074C33.8686 65.9896 33.3799 66.198 34.6264 66.7303C35.39 67.0404 36.1233 67.4208 36.8166 67.8665C38.2602 68.8016 39.5148 70 40.5149 71.3992C40.7999 71.8101 43.0352 75.3351 42.509 75.7086C43.9762 74.5916 46.0567 74.9442 47.8455 75.4075C50.1371 76.0094 52.4248 76.6967 54.6436 77.4878L53.9535 74.6073Z" fill="#1E1E1E"/>
<path d="M61.6379 72.1088C63.0791 71.1469 64.2634 69.8478 65.0882 68.3243C67.0017 65.4075 68.0213 61.9952 68.022 58.5062C67.5799 54.9701 66.9327 51.4626 66.0836 48.0013C69.7891 46.5449 73.2617 44.5553 76.3913 42.0953C75.4769 44.4268 74.904 46.8783 74.6901 49.3738C74.5676 51.3334 74.9813 53.2896 75.8868 55.0325C76.512 56.1478 77.0357 56.1121 76.1163 57.1304C75.5518 57.7316 75.0346 58.3756 74.5693 59.0565C73.6297 60.5047 72.9765 62.1197 72.6451 63.814C72.5456 64.3056 71.9725 68.4282 72.5867 68.5635C70.7923 68.1299 69.0445 69.2982 67.6013 70.4507C65.7415 71.9175 63.9503 73.4773 62.2165 75.0911L61.6379 72.1088Z" fill="#1E1E1E"/>
<path d="M60.8063 63.7352C60.6147 63.5173 60.3706 63.3519 60.0972 63.2547C59.8238 63.1575 59.5302 63.1317 59.2441 63.1797C57.8006 63.5879 58.0565 65.4818 58.4071 66.5203C58.5766 67.1184 59.5444 66.915 59.3489 66.3242C59.1786 65.9028 59.0803 65.4558 59.0583 65.0019C58.9809 64.7288 59.0749 64.1686 59.4224 64.0563C60.3327 63.7989 60.5877 65.2436 60.6738 65.7951C60.7231 65.899 60.8077 65.9821 60.9125 66.0297C61.0172 66.0773 61.1355 66.0862 61.2461 66.0549C61.3568 66.0236 61.4528 65.9541 61.5171 65.8587C61.5813 65.7634 61.6097 65.6483 61.5972 65.534C61.503 64.8735 61.2294 64.2513 60.8063 63.7352Z" fill="black"/>
<path d="M51.1619 65.9432C49.7997 66.5391 49.9219 68.4567 50.7497 69.4445C51.1293 69.9411 51.8437 69.2897 51.4548 68.8098C51.0659 68.3299 50.8421 67.0449 51.628 66.7946C52.4139 66.5442 52.7244 68.0856 52.8274 68.5481C52.9304 69.0105 53.909 68.9445 53.7692 68.352C53.4763 67.2691 52.6839 65.3162 51.1619 65.9432Z" fill="black"/>
<path d="M155.931 88.0833C155.32 89.048 154.436 89.8094 153.391 90.2707C152.347 90.7321 151.188 90.8725 150.064 90.6742C148.939 90.4758 147.898 89.9477 147.075 89.1569C146.251 88.3661 145.681 87.3484 145.437 86.233C145.194 85.1177 145.287 83.9552 145.706 82.8931C146.125 81.8311 146.851 80.9176 147.791 80.2688C148.73 79.6199 149.842 79.265 150.984 79.2491C152.126 79.2332 153.247 79.5571 154.204 80.1795C155.474 81.0052 156.368 82.2978 156.691 83.7772C157.014 85.2566 156.741 86.8037 155.931 88.0833Z" fill="#404040"/>
<path opacity="0.2" d="M155.879 88.1624L146.205 81.8657C145.819 82.4862 145.555 83.1748 145.427 83.8944L154.363 89.7695C154.969 89.3381 155.483 88.7921 155.879 88.1624Z" fill="black"/>
<path d="M145.702 81.6564L145.524 81.9335C145.288 82.3008 145.395 82.7898 145.763 83.0256L155.057 88.9893C155.424 89.2251 155.913 89.1185 156.149 88.7512L156.327 88.474C156.563 88.1067 156.456 87.6178 156.089 87.3819L146.795 81.4183C146.428 81.1825 145.938 81.2891 145.702 81.6564Z" fill="#585859"/>
<path d="M139.997 101.625C139.101 103.114 138.179 104.589 137.177 105.998C136.993 106.318 136.704 106.564 136.36 106.696C136.016 106.829 135.636 106.838 135.285 106.724C134.935 106.61 134.634 106.378 134.434 106.069C134.233 105.759 134.146 105.39 134.185 105.024C134.298 104.129 134.496 103.246 134.778 102.389C135.49 98.9905 134.778 95.3811 130.745 95.1045C130.654 95.109 130.568 95.1458 130.501 95.2085C130.435 95.2711 130.393 95.3554 130.384 95.4461C130.374 95.5367 130.398 95.6278 130.449 95.7029C130.501 95.7779 130.578 95.832 130.666 95.8553C133.394 96.0398 134.409 97.8972 134.291 100.44C134.221 101.448 134.044 102.446 133.763 103.417C133.416 104.251 133.351 105.176 133.579 106.051C133.714 106.409 133.934 106.727 134.221 106.98C134.508 107.233 134.852 107.412 135.223 107.502C135.595 107.591 135.983 107.589 136.353 107.494C136.723 107.4 137.065 107.217 137.348 106.96C138.153 106.076 138.835 105.088 139.378 104.023C139.8 103.377 140.208 102.705 140.604 102.047C140.854 101.625 140.248 101.177 139.997 101.599V101.625Z" fill="#404040"/>
<path d="M141.869 103.904C141.803 103.994 141.705 104.057 141.595 104.079C141.486 104.1 141.372 104.081 141.276 104.023L137.862 101.823C137.768 101.761 137.7 101.666 137.67 101.557C137.641 101.447 137.653 101.331 137.704 101.23L145.137 87.82C145.243 87.6224 145.427 87.6883 145.612 87.82L150.791 91.0869C150.989 91.2055 151.147 91.3504 151.002 91.5348L141.869 103.904Z" fill="#EC5858"/>
<path d="M145.072 95.4073L144.136 94.8013C143.974 94.6913 143.86 94.5234 143.819 94.3322C143.777 94.141 143.81 93.9412 143.912 93.7738L144.992 92.1008C145.102 91.9386 145.271 91.8257 145.464 91.7863C145.656 91.7469 145.855 91.7842 146.02 91.8901L146.956 92.496C147.038 92.5481 147.108 92.6158 147.162 92.6953C147.217 92.7748 147.255 92.8644 147.275 92.9589C147.295 93.0533 147.295 93.1508 147.277 93.2455C147.258 93.3402 147.221 93.4303 147.167 93.5104L146.086 95.1833C145.981 95.3469 145.815 95.4621 145.625 95.5041C145.435 95.546 145.236 95.5112 145.072 95.4073ZM145.849 92.1535C145.753 92.0938 145.637 92.0741 145.526 92.0987C145.415 92.1234 145.318 92.1903 145.256 92.2853L144.189 93.9451C144.157 93.9915 144.134 94.0439 144.123 94.0991C144.112 94.1543 144.111 94.2112 144.123 94.2665C144.134 94.3218 144.156 94.3743 144.187 94.4209C144.219 94.4675 144.26 94.5072 144.307 94.5378L145.243 95.1438C145.337 95.2029 145.451 95.2222 145.56 95.1975C145.669 95.1728 145.763 95.1061 145.823 95.0121L146.903 93.3391C146.935 93.2937 146.957 93.2424 146.968 93.1882C146.98 93.134 146.98 93.0781 146.968 93.0239C146.957 92.9697 146.935 92.9183 146.904 92.8728C146.872 92.8274 146.832 92.7888 146.785 92.7595L145.849 92.1535Z" fill="#404040"/>
<path d="M145.066 92.1865L143.989 93.8589C143.815 94.128 143.893 94.4867 144.162 94.66L145.093 95.2591C145.362 95.4324 145.721 95.3547 145.895 95.0856L146.972 93.4132C147.146 93.1441 147.068 92.7854 146.799 92.6121L145.868 92.013C145.598 91.8397 145.24 91.9174 145.066 92.1865Z" fill="#404040"/>
<path d="M145.268 86.5979L144.798 87.3295C144.735 87.4274 144.764 87.5578 144.862 87.6207L151.25 91.7198C151.348 91.7827 151.478 91.7543 151.541 91.6563L152.011 90.9247C152.074 90.8268 152.045 90.6964 151.947 90.6335L145.559 86.5344C145.461 86.4715 145.331 86.4999 145.268 86.5979Z" fill="#585859"/>
<path opacity="0.1" d="M150.989 90.8363L145.072 87.0029L144.847 87.3586C144.828 87.3771 144.812 87.3995 144.801 87.4244C144.79 87.4494 144.784 87.4763 144.784 87.5035C144.784 87.5307 144.79 87.5576 144.801 87.5826C144.812 87.6075 144.828 87.6299 144.847 87.6484L151.226 91.7452C151.245 91.7651 151.267 91.7811 151.292 91.7919C151.317 91.8028 151.344 91.8084 151.371 91.8084C151.399 91.8084 151.425 91.8028 151.45 91.7919C151.475 91.7811 151.498 91.7651 151.516 91.7452L151.674 91.5081L151.174 91.0734L150.989 90.8363Z" fill="black"/>
<path d="M45.4861 13.3702C50.2776 16.2427 53.8086 20.8153 55.3737 26.1744L55.697 27.4139L58.0425 36.845L55.058 37.582L52.8045 28.6726C52.6014 27.8339 52.3983 26.9952 52.1487 26.147C50.5842 21.5697 47.339 17.7559 43.069 15.4766C38.799 13.1973 33.8228 12.6224 29.1462 13.8682C24.4695 15.114 20.4414 18.0875 17.876 22.1878C15.3106 26.288 14.3993 31.209 15.3263 35.9561C15.4277 36.45 15.5477 36.9439 15.6863 37.4565L17.8655 46.2725L14.881 47.0094L12.6649 38.0629C12.5634 37.6436 12.4525 37.2335 12.3603 36.8048C11.4795 32.5852 11.849 28.201 13.4235 24.1888C14.998 20.1767 17.7093 16.7107 21.2254 14.215C24.7416 11.7193 28.9101 10.3023 33.2207 10.1374C37.5313 9.97245 41.797 11.0668 45.4956 13.2864L45.4861 13.3702Z" fill="#7F60C6"/>
<path fill-rule="evenodd" clip-rule="evenodd" d="M48.1712 29.1724C49.417 28.8682 50.7147 28.8414 51.9723 29.0937C53.2299 29.346 54.4167 29.8714 55.4488 30.6327C56.4808 31.3939 57.3329 32.3724 57.9448 33.499C58.5566 34.6255 58.9132 35.8725 58.9893 37.1518C59.0655 38.4311 58.8593 39.7113 58.3854 40.902C57.9115 42.0926 57.1814 43.1646 56.2469 44.0419C55.3124 44.9193 54.1962 45.5807 52.9773 45.9792C51.7585 46.3778 50.4667 46.5038 49.1935 46.3483L45.2412 30.5428C46.1306 29.9117 47.1308 29.4532 48.1898 29.1911L48.1712 29.1724Z" fill="#A685E2"/>
<path fill-rule="evenodd" clip-rule="evenodd" d="M50.6138 28.9182C51.1612 28.9454 51.7044 29.028 52.2351 29.1647L56.0214 44.262C55.6175 44.6137 55.1797 44.9245 54.7143 45.1897L50.6419 28.8903L50.6138 28.9182Z" fill="#7F60C6"/>
<path fill-rule="evenodd" clip-rule="evenodd" d="M45.8778 29.203L49.4219 28.2999C49.8966 28.1865 50.397 28.2642 50.815 28.5162C51.233 28.7683 51.535 29.1745 51.6558 29.6471L55.2293 44.064C55.3441 44.5359 55.268 45.034 55.0175 45.45C54.767 45.8661 54.3622 46.1665 53.8912 46.2861L50.3285 47.1705C50.0945 47.229 49.8513 47.2408 49.6127 47.2052C49.3742 47.1696 49.145 47.0873 48.9383 46.963C48.7316 46.8388 48.5515 46.6749 48.4083 46.481C48.2651 46.287 48.1617 46.0667 48.1039 45.8327L44.4839 31.3878C44.3666 30.9132 44.4426 30.4116 44.6952 29.9932C44.9479 29.5748 45.3565 29.2738 45.8314 29.1563L45.8778 29.203Z" fill="#BFB8D3"/>
<g style="mix-blend-mode:multiply" opacity="0.45">
<path fill-rule="evenodd" clip-rule="evenodd" d="M48.8158 28.4572L46.9692 28.9179L51.4663 46.9321L53.3129 46.4714L48.8158 28.4572Z" fill="#334D5C"/>
</g>
<path fill-rule="evenodd" clip-rule="evenodd" d="M45.2291 27.5441L44.5763 27.7099C43.9397 27.8714 43.3928 28.2776 43.0546 28.84C42.7164 29.4024 42.6142 30.0756 42.7703 30.7131L46.2793 44.7666L46.8242 46.938C46.9851 47.5722 47.3906 48.1171 47.9522 48.4536C48.5138 48.7902 49.1857 48.8911 49.8213 48.7342L50.4742 48.5684C50.7903 48.4899 51.0878 48.35 51.3497 48.1566C51.6116 47.9632 51.8327 47.72 52.0005 47.4411C52.1682 47.1622 52.2792 46.8529 52.3272 46.531C52.3752 46.2091 52.3592 45.8809 52.2802 45.5652L51.606 42.8719L48.2356 29.3496C48.0737 28.7136 47.667 28.167 47.104 27.8289C46.5409 27.4907 45.8671 27.3884 45.2291 27.5441Z" fill="#404040"/>
<path fill-rule="evenodd" clip-rule="evenodd" d="M20.1263 36.2206C17.897 36.8023 15.9876 38.2391 14.8123 40.219C13.6371 42.199 13.2909 44.5624 13.8489 46.7964C14.4069 49.0305 15.824 50.9549 17.7927 52.152C19.7615 53.3492 22.1231 53.7225 24.3649 53.191C25.4195 52.9198 26.4156 52.4586 27.3042 51.83L23.3519 36.0245C22.2738 35.8864 21.1795 35.953 20.1263 36.2206Z" fill="#A685E2"/>
<path fill-rule="evenodd" clip-rule="evenodd" d="M17.8402 37.0806C17.3784 37.3514 16.9411 37.6618 16.5331 38.0084L20.3005 53.1987C20.8322 53.3308 21.3749 53.4133 21.9218 53.4453L17.8029 37.0991L17.8402 37.0806Z" fill="#7F60C6"/>
<path fill-rule="evenodd" clip-rule="evenodd" d="M22.1702 35.0994L18.6075 35.9838C18.1365 36.1034 17.7317 36.4038 17.4812 36.8199C17.2306 37.2359 17.1545 37.734 17.2694 38.206L20.88 52.6602C20.9999 53.1309 21.3008 53.5354 21.7173 53.7859C22.1338 54.0363 22.6323 54.1126 23.1046 53.998L26.6673 53.1136C27.1384 52.994 27.5431 52.6936 27.7937 52.2775C28.0442 51.8614 28.1203 51.3634 28.0054 50.8914L24.3948 36.4372C24.337 36.2032 24.2335 35.9829 24.0903 35.789C23.9471 35.595 23.767 35.4312 23.5604 35.3069C23.3537 35.1826 23.1245 35.1003 22.8859 35.0647C22.6474 35.0291 22.4041 35.0409 22.1702 35.0994Z" fill="#BFB8D3"/>
<g style="mix-blend-mode:multiply" opacity="0.45">
<path fill-rule="evenodd" clip-rule="evenodd" d="M19.2133 35.827L21.06 35.3664L25.5664 53.3899L23.7197 53.8506L19.2133 35.827Z" fill="#334D5C"/>
</g>
<path fill-rule="evenodd" clip-rule="evenodd" d="M21.9601 33.3387L22.6036 33.1821C23.2416 33.0264 23.9154 33.1288 24.4784 33.4669C25.0415 33.8051 25.4482 34.3516 25.61 34.9877L29.1471 49.0133L29.6826 51.194C29.8398 51.8291 29.7391 52.5005 29.4025 53.0614C29.0658 53.6224 28.5206 54.0274 27.886 54.1879L27.2331 54.3538C26.5951 54.5094 25.9213 54.4071 25.3583 54.0689C24.7953 53.7308 24.3886 53.1843 24.2267 52.5482L23.5432 49.8456L20.2008 36.2955C20.0447 35.6579 20.1469 34.9847 20.4851 34.4223C20.8234 33.8599 21.3702 33.4538 22.0068 33.2923L21.9601 33.3387Z" fill="#404040"/>
<path fill-rule="evenodd" clip-rule="evenodd" d="M73.3594 46.7095C73.5604 46.8588 73.7849 46.9736 74.0236 47.0492C74.2205 47.8847 74.7146 48.62 75.414 49.1182C76.2042 49.7089 77.0471 50.2258 77.932 50.6622C78.8589 51.1254 79.8166 51.5269 80.7744 51.9129L82.1956 52.4533L82.9062 52.6849H83.0298C83.0237 52.7465 83.0237 52.8086 83.0298 52.8702L83.1689 53.1481L83.277 53.3952L83.4006 53.7658C83.2607 53.8771 83.1314 54.0012 83.0144 54.1363C82.0113 55.2301 81.3228 56.5745 81.0216 58.0273C80.9993 58.1194 81.0103 58.2165 81.0527 58.3013C81.0951 58.386 81.1662 58.4531 81.2533 58.4905C81.3402 58.5306 81.4389 58.537 81.5302 58.5084C81.6215 58.4799 81.699 58.4185 81.7476 58.3361C81.7447 58.3001 81.7447 58.264 81.7476 58.228H81.8403C81.9343 58.1699 82.0222 58.1027 82.103 58.0273L82.5818 57.5795L83.3542 56.8538C83.1452 57.9006 82.8665 58.9322 82.52 59.9419C82.1032 61.016 81.843 62.1444 81.7476 63.2925C81.7298 64.1002 81.8287 64.9063 82.0411 65.6858C82.1924 66.5917 82.4304 67.481 82.7518 68.3415C83.1458 69.427 83.6641 70.4633 84.2966 71.4296C84.3422 71.4992 84.4083 71.553 84.4858 71.5834C84.5632 71.6138 84.6483 71.6194 84.7291 71.5994C84.8014 71.5855 84.8667 71.5474 84.9145 71.4914C84.9406 71.4781 84.9628 71.4584 84.9791 71.434C84.9953 71.4097 85.005 71.3816 85.0072 71.3524C85.061 71.0567 85.092 70.7573 85.0999 70.4568C85.0999 70.1789 85.0999 69.901 85.0999 69.6231V69.0055L85.347 69.1599C85.8376 69.4548 86.3548 69.7029 86.8918 69.901C87.8919 70.2495 88.9284 70.4826 89.9814 70.5958C91.1273 70.7598 92.2879 70.796 93.4418 70.7039C94.522 70.6411 95.5933 70.4704 96.6395 70.1944C97.1637 70.0664 97.6796 69.9066 98.1843 69.7157L98.6478 69.5304L98.9104 69.762C99.0799 69.9006 99.2351 70.0558 99.3738 70.2252C99.459 70.3054 99.5366 70.3932 99.6056 70.4877L99.6982 70.5958L100.054 71.1671V71.2598C100.04 71.3363 100.04 71.4148 100.054 71.4914C100.054 71.4914 100.054 71.6149 100.177 71.6303C100.205 71.7129 100.259 71.7838 100.332 71.8315C100.405 71.8791 100.492 71.9007 100.579 71.8928C100.683 71.8763 100.776 71.8211 100.841 71.7384C100.882 71.6997 100.914 71.6522 100.934 71.5994C100.981 71.5075 101.012 71.4083 101.027 71.3061V71.0127L101.119 70.4568L101.258 69.2525C101.258 68.8356 101.351 68.4033 101.382 67.9709C101.972 67.9303 102.554 67.8108 103.112 67.6158C103.819 67.3606 104.474 66.9786 105.043 66.4887C105.61 65.9964 106.067 65.3917 106.387 64.713C107.007 63.1629 107.301 61.5023 107.252 59.8338C107.252 59.4169 107.252 59.0001 107.252 58.5832V57.981V57.6567V57.5332C107.314 57.1303 107.407 56.7327 107.53 56.3443C107.557 56.2433 107.593 56.1451 107.639 56.0509V55.8965V55.7884C107.639 55.7884 107.716 55.6495 107.762 55.5723C107.844 55.4163 107.936 55.2667 108.04 55.1245L108.21 54.9392L108.581 54.5687C108.701 54.4689 108.83 54.381 108.967 54.3062C109.241 54.1294 109.544 54.0038 109.863 53.9356C110.017 53.9204 110.172 53.9204 110.326 53.9356C110.496 53.9356 110.666 53.9356 110.836 53.9356C111.006 53.9356 111.099 53.6886 110.929 53.6114C110.747 53.5162 110.547 53.4585 110.342 53.4415C110.152 53.4262 109.961 53.4262 109.77 53.4415C109.39 53.5004 109.02 53.6148 108.674 53.7812C108.079 54.0955 107.554 54.5261 107.129 55.0473C106.617 55.6652 106.233 56.3791 106.001 57.1472C105.625 58.6667 105.387 60.2171 105.29 61.7793C105.183 62.5927 104.981 63.3907 104.688 64.1572C104.523 64.5134 104.326 64.8544 104.101 65.1762C103.898 65.4253 103.67 65.6529 103.421 65.8556C103.112 66.0787 102.78 66.2701 102.433 66.4269C102.04 66.5817 101.63 66.6905 101.212 66.7512H101.104C101.189 64.4622 101.096 62.1701 100.826 59.8956C100.826 59.5868 100.826 59.2625 100.826 58.9537V58.5214C100.826 58.3207 100.826 58.1045 100.826 57.8883L101.706 58.4133L102.124 58.6758L102.324 58.9537C102.375 59.0291 102.451 59.0841 102.538 59.1092C102.625 59.1343 102.719 59.1278 102.802 59.091C102.885 59.0541 102.952 58.9892 102.992 58.9076C103.032 58.826 103.042 58.733 103.02 58.6449C102.865 58.1133 102.664 57.5965 102.417 57.1009C101.992 56.2487 101.474 55.4461 100.872 54.7076C100.579 54.3371 100.254 53.9819 99.9454 53.6268V53.5496C99.9454 53.3797 99.8373 53.2099 99.7909 53.0401C99.0595 50.7646 97.9752 48.618 96.5777 46.6786C96.9485 46.6168 97.3192 46.5396 97.69 46.447C98.6549 46.197 99.5486 45.7266 100.301 45.0728C100.666 44.7409 100.957 44.3354 101.154 43.8829C101.351 43.4305 101.45 42.9414 101.444 42.4479C101.351 40.3017 99.3275 39.0047 97.4892 38.3871C95.5771 37.7622 93.5156 37.7622 91.6035 38.3871C90.7176 38.673 89.8793 39.0893 89.1163 39.6223L88.9619 39.7304C88.9211 39.7221 88.8791 39.7221 88.8383 39.7304C88.6018 39.6076 88.3533 39.5093 88.0968 39.4371C87.2264 39.1672 86.2946 39.1672 85.4243 39.4371C84.593 39.7447 83.8649 40.2797 83.3233 40.9811C83.3183 41.0169 83.3183 41.0533 83.3233 41.0892C83.2169 41.1216 83.1208 41.1815 83.0449 41.2628C82.969 41.3441 82.9158 41.444 82.8908 41.5524C81.7783 41.7268 80.6827 41.9954 79.6158 42.3553C78.5126 42.715 77.4427 43.1696 76.4181 43.714C76.0164 43.9456 75.5993 44.1773 75.2131 44.4397C74.9936 44.2775 74.735 44.1764 74.4637 44.1465C74.1923 44.1167 73.9179 44.1593 73.6683 44.2699C73.4842 44.3452 73.3164 44.4553 73.174 44.5941C72.9304 44.7194 72.7221 44.9039 72.5683 45.1304C72.4144 45.357 72.32 45.6186 72.2935 45.8911C72.3732 46.1158 72.5162 46.3126 72.7054 46.4578C72.8945 46.603 73.1216 46.6904 73.3594 46.7095Z" fill="white"/>
<path fill-rule="evenodd" clip-rule="evenodd" d="M72.6948 45.5048C72.6875 45.866 72.8071 46.2183 73.033 46.5004C73.2588 46.7826 73.5764 46.9766 73.9306 47.0488C74.2795 47.1287 74.6453 47.0851 74.9656 46.9253C75.2738 46.7531 75.5137 46.4807 75.6453 46.1532C75.7847 45.812 75.8782 45.4537 75.9234 45.0879C75.9311 44.9748 75.9311 44.8613 75.9234 44.7482C75.9566 44.6978 75.9743 44.6387 75.9743 44.5783C75.9743 44.518 75.9566 44.4589 75.9234 44.4085C75.8204 44.2297 75.6825 44.0734 75.518 43.9487C75.3535 43.8241 75.1657 43.7336 74.9656 43.6828C74.5502 43.5815 74.1123 43.6308 73.7298 43.8217C73.4136 43.9731 73.1478 44.2124 72.9642 44.5109C72.7807 44.8094 72.6871 45.1544 72.6948 45.5048Z" fill="#F6ACC4"/>
<path fill-rule="evenodd" clip-rule="evenodd" d="M82.8288 59.1545C82.5971 67.693 98.7557 71.8619 101.783 61.9646C101.861 63.5077 101.861 65.0537 101.783 66.5967H101.892C102.31 66.5361 102.719 66.4273 103.112 66.2725C103.46 66.1157 103.791 65.9243 104.101 65.7012C104.35 65.4985 104.578 65.2709 104.78 65.0218C105.006 64.7 105.202 64.359 105.367 64.0028C105.66 63.2363 105.862 62.4383 105.97 61.6249C106.078 60.7757 106.14 59.911 106.248 59.0618C106.758 59.7577 107.179 60.5151 107.499 61.3161C107.452 62.5756 107.175 63.8159 106.681 64.9755C106.361 65.6542 105.903 66.2589 105.337 66.7512C104.767 67.2411 104.112 67.6231 103.406 67.8783C102.847 68.0733 102.265 68.1927 101.675 68.2334C101.675 68.6658 101.675 69.0981 101.552 69.515L101.413 70.7193L101.32 71.2752V71.5686C101.306 71.6708 101.274 71.77 101.227 71.8619C101.207 71.9147 101.176 71.9622 101.135 72.0009C101.07 72.0836 100.976 72.1388 100.872 72.1553C100.785 72.1632 100.698 72.1416 100.625 72.094C100.553 72.0463 100.498 71.9754 100.47 71.8928C100.47 71.8928 100.378 71.8928 100.347 71.7538C100.333 71.6773 100.333 71.5988 100.347 71.5222V71.4296L99.9915 70.8583L99.8988 70.7502C99.8299 70.6557 99.7523 70.5678 99.6671 70.4877C99.5284 70.3183 99.3732 70.1631 99.2037 70.0245L98.941 69.7929L98.4776 69.9782C97.9729 70.1691 97.457 70.3289 96.9328 70.4568C95.7814 70.6648 94.6108 70.7476 93.4416 70.7039C92.3804 70.7813 91.3141 70.7503 90.2593 70.6113C89.2063 70.498 88.1697 70.2649 87.1697 69.9164C86.6326 69.7183 86.1154 69.4702 85.6249 69.1753L85.3777 69.0209V69.6385C85.3777 69.9164 85.3777 70.1944 85.3777 70.4723C85.3698 70.7727 85.3388 71.0721 85.285 71.3678C85.2828 71.397 85.2732 71.4251 85.2569 71.4495C85.2407 71.4738 85.2184 71.4936 85.1923 71.5068C85.1446 71.5628 85.0792 71.6009 85.0069 71.6149C84.9261 71.6349 84.8411 71.6293 84.7636 71.5988C84.6861 71.5684 84.62 71.5147 84.5744 71.445C83.942 70.4787 83.4236 69.4425 83.0296 68.357C82.7082 67.4965 82.4703 66.6072 82.319 65.7012C82.1065 64.9217 82.0077 64.1156 82.0255 63.3079C82.0603 62.1474 82.2632 60.998 82.628 59.8956L82.8751 59.139L82.8288 59.1545ZM103.112 58.9537C103.255 58.727 103.432 58.5238 103.637 58.3516V58.5214C103.664 58.6117 103.657 58.7086 103.617 58.7939C103.577 58.8792 103.507 58.9471 103.421 58.9846C103.37 59.0002 103.316 59.0055 103.263 59.0002C103.21 58.9949 103.159 58.9791 103.112 58.9537Z" fill="#E6E7E8"/>
<path fill-rule="evenodd" clip-rule="evenodd" d="M84.8685 61.1153C84.8998 60.2806 85.0242 59.452 85.2392 58.6449C85.2898 58.3987 85.3569 58.1563 85.4401 57.9192C85.8135 56.9592 86.4508 56.1242 87.2784 55.5105C88.1075 54.9002 89.0629 54.4833 90.0744 54.2907C91.1582 54.0515 92.2811 54.0515 93.3648 54.2907C93.9318 54.4513 94.4583 54.7302 94.9096 55.109L95.0332 55.2017C95.5415 55.5734 95.9545 56.0602 96.2382 56.6222C96.6449 57.4434 96.9559 58.3086 97.1651 59.2007C97.3981 60.1415 97.5327 61.104 97.5667 62.0726C97.6113 63.0301 97.5386 63.9893 97.3504 64.9291C97.2999 65.1601 97.2328 65.3871 97.1496 65.6085C97.0743 66.0416 96.914 66.4555 96.6781 66.8265C96.4421 67.1975 96.1351 67.5182 95.7747 67.7701C95.0176 68.2085 94.1743 68.4771 93.3031 68.5576C92.2783 68.7023 91.2383 68.7023 90.2135 68.5576C89.3618 68.4494 88.5399 68.174 87.7949 67.7474C87.05 67.3208 86.3967 66.7514 85.8726 66.0717C84.9974 64.5765 84.6442 62.833 84.8685 61.1153Z" fill="#F6ACC4"/>
<path fill-rule="evenodd" clip-rule="evenodd" d="M82.5352 44.7483C82.6279 44.5476 82.8751 44.5012 83.0759 44.4549C83.2271 44.4092 83.3823 44.3782 83.5394 44.3623C83.8785 44.3311 84.2198 44.3311 84.5589 44.3623C84.8839 44.3799 85.2055 44.4369 85.5167 44.5321C85.6756 44.562 85.831 44.6086 85.9802 44.6711L86.181 44.7792L86.3509 44.9336V45.0262C86.2893 45.0332 86.2271 45.0332 86.1655 45.0262H85.5167C85.2078 45.0262 84.9142 45.0262 84.6053 45.0262H84.1573H84.0028H83.7711L83.3386 45.1188C83.1377 45.1188 82.9214 45.2578 82.7206 45.1188C82.6577 45.0811 82.6068 45.0261 82.574 44.9605C82.5411 44.8949 82.5277 44.8213 82.5352 44.7483Z" fill="#404041"/>
<path fill-rule="evenodd" clip-rule="evenodd" d="M99.6212 73.2049C99.7521 73.3949 99.9314 73.5466 100.14 73.6443C100.35 73.742 100.581 73.7822 100.811 73.7608C101.068 73.7881 101.327 73.7341 101.552 73.6064H101.645C101.866 73.7311 102.118 73.79 102.371 73.7762C102.613 73.7674 102.846 73.6807 103.035 73.5292C103.136 73.4409 103.21 73.3259 103.248 73.1975C103.286 73.0691 103.288 72.9325 103.252 72.8035C103.142 72.5609 102.95 72.3643 102.711 72.2476L102.201 71.8307L101.707 71.4756L101.46 71.3366L101.259 71.244H101.166C101.054 71.1758 100.926 71.1396 100.795 71.1396C100.664 71.1396 100.536 71.1758 100.425 71.244C100.213 71.4067 100.025 71.5991 99.8684 71.8153C99.711 72.006 99.6055 72.2342 99.5622 72.4777C99.5189 72.7211 99.5392 72.9716 99.6212 73.2049Z" fill="#E392AB"/>
<path fill-rule="evenodd" clip-rule="evenodd" d="M81.7164 71.5991C81.9476 71.4641 82.1906 71.3504 82.4424 71.2594C83.0359 71.028 83.6608 70.8875 84.2962 70.8425H84.4507H84.5897C84.694 70.8187 84.8035 70.8359 84.8955 70.8905C84.9875 70.9451 85.055 71.0329 85.084 71.1359C85.2231 71.5682 84.8678 71.9542 84.6361 72.2784C84.1726 72.8806 83.4466 73.6526 82.5969 73.421C82.3846 73.3606 82.196 73.2367 82.0562 73.0659C81.9853 72.9974 81.9322 72.9126 81.9018 72.8189C81.6237 72.8189 81.3456 72.7417 81.2529 72.4329C81.2129 72.2612 81.2381 72.0807 81.3238 71.9266C81.4095 71.7725 81.5494 71.6558 81.7164 71.5991Z" fill="#E392AB"/>
<path fill-rule="evenodd" clip-rule="evenodd" d="M102.71 59.3706C102.668 59.3729 102.626 59.3619 102.591 59.339C102.555 59.3162 102.528 59.2827 102.512 59.2433C102.497 59.204 102.494 59.1608 102.505 59.1198C102.516 59.0789 102.539 59.0424 102.571 59.0155C102.649 58.8765 102.834 58.7993 102.942 58.6912C102.905 58.4922 102.905 58.2881 102.942 58.0891C102.952 58.0479 102.973 58.0103 103.003 57.9804C103.033 57.9504 103.071 57.9293 103.112 57.9192H103.22C103.467 57.8111 103.699 58.1045 103.838 58.3052C103.994 58.4626 104.129 58.639 104.24 58.8302C104.349 59.0206 104.437 59.2225 104.502 59.4324C104.511 59.5454 104.511 59.659 104.502 59.7721C104.511 59.8284 104.511 59.8856 104.502 59.9419C104.513 60.0136 104.513 60.0864 104.502 60.1581C104.49 60.1954 104.469 60.2294 104.441 60.2575C104.413 60.2856 104.38 60.3071 104.343 60.3204C104.306 60.3338 104.266 60.3386 104.227 60.3346C104.188 60.3305 104.15 60.3177 104.116 60.297C104.122 60.3432 104.122 60.3899 104.116 60.436C104.079 60.481 104.038 60.5223 103.993 60.5595C103.962 60.5904 103.924 60.6115 103.881 60.6201C103.839 60.6287 103.795 60.6244 103.755 60.6078C103.715 60.5912 103.681 60.563 103.657 60.5269C103.634 60.4907 103.621 60.4483 103.622 60.4051C103.589 60.2891 103.589 60.1661 103.622 60.05C103.591 60.1206 103.547 60.1844 103.491 60.2375C103.435 60.2905 103.37 60.3318 103.297 60.3588C103.256 60.3779 103.209 60.3857 103.164 60.3814C103.118 60.3771 103.074 60.3609 103.036 60.3343C102.999 60.3077 102.969 60.2717 102.95 60.23C102.93 60.1882 102.923 60.1421 102.927 60.0963C102.931 59.9294 102.973 59.7657 103.05 59.6177C103.057 59.5355 103.057 59.4528 103.05 59.3706C102.998 59.399 102.94 59.4139 102.88 59.4139C102.821 59.4139 102.763 59.399 102.71 59.3706Z" fill="#F6ACC4"/>
<path fill-rule="evenodd" clip-rule="evenodd" d="M80.2643 58.9538L80.4497 58.6913C80.5712 58.5362 80.7055 58.3916 80.8513 58.259C80.8993 58.1806 80.9563 58.108 81.0213 58.0429C81.0894 57.9372 81.1832 57.8506 81.294 57.7912C81.4048 57.7317 81.5289 57.7015 81.6546 57.7032C81.6981 57.6826 81.7456 57.6719 81.7937 57.6719C81.8418 57.6719 81.8892 57.6826 81.9327 57.7032C81.9582 57.7156 81.9793 57.7357 81.9932 57.7605C82.007 57.7854 82.0128 57.8138 82.0099 57.8421C82.1239 58.0011 82.1932 58.1877 82.2107 58.3825C82.2602 58.5876 82.2269 58.804 82.1181 58.9847C82.0982 59.0134 82.0716 59.0368 82.0407 59.053C82.0097 59.0691 81.9753 59.0776 81.9404 59.0776C81.9055 59.0776 81.8711 59.0691 81.8402 59.053C81.8092 59.0368 81.7827 59.0134 81.7628 58.9847L81.6855 59.0928C81.6921 59.1181 81.6921 59.1447 81.6855 59.17C81.678 59.216 81.678 59.2629 81.6855 59.309V59.5714C81.693 59.6588 81.693 59.7466 81.6855 59.8339C81.6724 59.8833 81.6434 59.927 81.6029 59.9582C81.5623 59.9893 81.5126 60.0062 81.4615 60.0062C81.4104 60.0062 81.3607 59.9893 81.3202 59.9582C81.2797 59.927 81.2506 59.8833 81.2375 59.8339C81.2158 59.9631 81.1628 60.085 81.083 60.1891C81.0681 60.2147 81.0467 60.2359 81.0209 60.2507C80.9952 60.2655 80.966 60.2733 80.9363 60.2733C80.9066 60.2733 80.8774 60.2655 80.8517 60.2507C80.8259 60.2359 80.8045 60.2147 80.7895 60.1891C80.7057 59.9597 80.7057 59.7081 80.7895 59.4788C80.7949 59.4378 80.7949 59.3963 80.7895 59.3553C80.7567 59.398 80.7147 59.4327 80.6665 59.4568C80.6183 59.4808 80.5653 59.4936 80.5115 59.4942C80.4613 59.4971 80.4113 59.4856 80.3675 59.461C80.3237 59.4363 80.2879 59.3997 80.2643 59.3553C80.2318 59.2933 80.2148 59.2245 80.2148 59.1545C80.2148 59.0846 80.2318 59.0158 80.2643 58.9538Z" fill="#F6ACC4"/>
<path fill-rule="evenodd" clip-rule="evenodd" d="M85.208 64.5273C86.6953 65.8819 88.4957 66.8462 90.4477 67.334C92.3997 67.8218 94.4423 67.8177 96.3924 67.3221C96.2216 67.4978 96.0355 67.658 95.8363 67.8007C95.0791 68.239 94.2358 68.5077 93.3646 68.5882C92.3398 68.7328 91.2997 68.7328 90.275 68.5882C89.4233 68.4799 88.6014 68.2046 87.8564 67.778C87.1115 67.3514 86.4582 66.7819 85.9341 66.1023C85.6139 65.6169 85.3691 65.0859 85.208 64.5273Z" fill="#E392AB"/>
<path d="M134.013 61.6046C134.586 61.9503 135.242 62.133 135.911 62.133C136.581 62.133 137.237 61.9503 137.81 61.6046C138.947 60.9103 140.026 60.126 141.037 59.2592C141.475 58.8372 142.023 58.5469 142.618 58.4214C143.213 58.2959 143.831 58.3402 144.402 58.5494C144.618 58.6789 144.805 58.8502 144.953 59.0531C145.101 59.256 145.207 59.4864 145.264 59.7309C145.322 59.9753 145.33 60.2288 145.288 60.4764C145.246 60.724 145.155 60.9607 145.02 61.1725C144.248 62.3144 142.565 62.2218 141.346 62.8236C140.126 63.4254 139.308 64.845 138.057 65.5239C136.579 66.0998 134.954 66.181 133.426 65.7554C132.917 65.6628 132.268 65.385 132.376 64.8758L134.013 61.6046Z" fill="#EE772A"/>
<path d="M138.073 78.7011L140.296 78.3154C140.627 78.2091 140.977 78.1734 141.323 78.2106C141.668 78.2478 142.002 78.3571 142.303 78.5314C142.587 78.8223 142.756 79.2059 142.778 79.6115C142.801 80.0171 142.676 80.4172 142.427 80.7379C141.889 81.3592 141.188 81.8187 140.404 82.0649C138.155 82.9326 135.786 83.4529 133.38 83.608L138.073 78.7011Z" fill="#EE772A"/>
<path d="M128.192 48.273C127.188 46.9625 125.842 45.9536 124.302 45.3566C123.252 44.94 120.597 44.1222 119.563 44.94C118.528 45.7578 119.238 48.3964 119.563 49.3531C120.011 51.0148 120.94 52.5071 122.233 53.6428C122.511 53.8916 122.829 54.0901 123.175 54.2291L128.192 48.273Z" fill="#EE772A"/>
<path d="M140.821 46.4055C140.972 45.0301 140.807 43.6385 140.339 42.3364C139.871 41.0343 139.112 39.8559 138.12 38.8909C136.977 37.7954 136.344 37.8417 135.279 38.9989C134.167 40.2064 133.504 41.7599 133.403 43.3982C133.302 45.0366 133.768 46.6598 134.723 47.9949L140.821 46.4055Z" fill="#EE772A"/>
<path d="M124.904 54.3062L122.511 57.7317C119.701 61.759 116.83 65.9407 115.904 70.755C114.977 75.5693 116.614 81.2477 120.936 83.5468C122.923 84.4851 125.1 84.9499 127.297 84.9047C129.877 85.101 132.467 84.6723 134.846 83.6548C136.028 83.1315 137.056 82.3156 137.834 81.2841C138.612 80.2526 139.114 79.0398 139.292 77.7604C139.508 74.9212 137.748 72.3906 136.328 69.9063C133.944 65.6084 132.645 60.7935 132.546 55.8801L124.904 54.3062Z" fill="#F49E5A"/>
<path d="M125.321 62.499C127.236 63.5709 129.435 64.0287 131.62 63.8106C132.273 63.8354 132.923 63.6975 133.511 63.4093C134.098 63.1212 134.605 62.6917 134.985 62.1596C135.213 61.4865 135.243 60.7619 135.071 60.0725C134.898 59.383 134.531 58.7576 134.012 58.2711C132.838 56.955 131.311 56.0017 129.613 55.5233C127.915 55.045 126.115 55.0614 124.425 55.5708C120.273 56.8978 122.557 60.848 125.321 62.499Z" fill="#E74041"/>
<path d="M141.608 57.4072C140.713 58.5431 139.607 59.4965 138.351 60.2155C134.569 62.4838 129.891 63.3016 126.078 61.4345C124.097 60.4059 122.525 58.7365 121.616 56.699C120.708 54.6615 120.517 52.3763 121.076 50.2166C121.692 48.0528 122.913 46.1096 124.596 44.6154C126.979 42.6149 130.006 41.5458 133.118 41.6064C141.053 41.6373 148.556 48.0872 141.608 57.4072Z" fill="#F49E5A"/>
<path d="M120.118 82.0654C119.115 82.8061 115.41 80.7693 114.483 80.3063C112.851 79.5919 111.388 78.5401 110.192 77.2203C109.097 75.7335 108.493 73.943 108.463 72.0974C108.409 71.4453 108.409 70.7898 108.463 70.1377V69.6748C108.581 68.6363 108.761 67.6057 109.003 66.5887C109.188 65.74 109.404 64.9068 109.605 64.0581C109.806 63.2095 109.929 62.6077 110.053 61.8824V61.5738C110.109 61.3406 110.106 61.0969 110.044 60.8651C109.982 60.6333 109.863 60.4207 109.698 60.2468C109.507 60.1137 109.282 60.0387 109.049 60.0308H108.848C108.706 60.0452 108.566 60.0763 108.432 60.1234C107.877 60.32 107.356 60.6011 106.888 60.9566C106.517 61.2189 106.162 61.4813 105.776 61.7127C105.351 62.0221 104.844 62.1977 104.318 62.2169C103.793 62.2362 103.274 62.0982 102.828 61.8207C101.84 60.9721 102.21 59.3673 102.828 58.21C103.502 56.8794 104.407 55.678 105.498 54.661C106.21 54.0127 107.053 53.5235 107.969 53.226C109.234 52.8684 110.586 52.9723 111.782 53.5192C112.324 53.7529 112.817 54.0881 113.233 54.5067C113.865 55.1797 114.325 55.9947 114.576 56.883C115.031 58.6762 115.178 60.5339 115.008 62.3762C115.008 62.5305 115.008 62.7003 115.008 62.87C115.008 63.765 114.838 64.6599 114.73 65.5549C114.576 66.9436 114.391 68.3169 114.329 69.7057C114.329 70.2303 114.329 70.7395 114.329 71.2487C114.329 71.7579 114.329 72.2517 114.453 72.7917C114.594 74.1725 115.036 75.5055 115.749 76.6971C116.461 77.8887 117.425 78.91 118.574 79.6891C119.068 80.0749 121.353 81.2013 120.118 82.0654Z" fill="#EE772A"/>
<path d="M138.645 54.2131C138.903 54.6558 139.046 55.1555 139.062 55.6673C139.078 56.1791 138.967 56.6869 138.738 57.1449C138.4 57.1211 138.086 56.9651 137.863 56.7107C137.641 56.4563 137.528 56.1243 137.549 55.787C137.649 55.0656 137.711 54.3393 137.734 53.6113C138.305 53.8736 138.028 53.9354 138.645 54.2131Z" fill="#E74041"/>
<path d="M137.008 52.5471C137.233 52.919 137.372 53.3365 137.415 53.769C137.458 54.2015 137.403 54.6381 137.255 55.0468C137.119 55.324 136.89 55.5451 136.608 55.6718C136.327 55.7986 136.009 55.8231 135.711 55.7412C135.341 55.556 135.017 56.0961 135.387 56.2967C135.819 56.4999 136.313 56.5301 136.767 56.3808C137.22 56.2316 137.6 55.9144 137.826 55.4943C138.067 54.9803 138.135 54.4024 138.021 53.8465C137.907 53.2905 137.617 52.7862 137.194 52.4082L137.085 52.5008L137.008 52.5471Z" fill="#1D1D1B"/>
<path d="M137.193 52.6395C137.303 53.0555 137.506 53.4412 137.786 53.7673C138.067 54.0935 138.419 54.3515 138.814 54.522C139.174 54.6459 139.569 54.6231 139.913 54.4586C140.256 54.294 140.522 54.0009 140.651 53.6425C140.79 53.195 140.111 53.0253 139.956 53.4573C139.802 53.8894 139.138 54.0128 138.706 53.8431C138.273 53.6733 137.764 53.0098 137.332 52.5315C137.317 52.5226 137.3 52.5181 137.282 52.5186C137.265 52.519 137.248 52.5244 137.233 52.5341C137.219 52.5438 137.207 52.5574 137.2 52.5733C137.193 52.5892 137.19 52.6068 137.193 52.6241V52.6395Z" fill="#1D1D1B"/>
<path d="M134.615 44.9239C134.61 45.1977 134.515 45.4623 134.345 45.6769C134.175 45.8916 133.939 46.0445 133.673 46.112C132.855 46.2355 132.33 45.3251 131.836 44.6924C131.27 43.9428 130.472 43.4005 129.567 43.1494C129.567 43.9826 130.2 44.6924 130.74 45.2634C131.28 45.8343 131.713 46.8064 131.219 47.5162C130.725 48.226 129.567 47.9791 128.918 47.4236C128.27 46.8681 127.884 46.0349 127.22 45.4794C126.468 44.8976 125.547 44.5779 124.596 44.569C126.978 42.5685 130.006 41.4994 133.117 41.5601C133.53 42.1039 133.887 42.6881 134.183 43.3037C134.474 43.7935 134.623 44.3543 134.615 44.9239Z" fill="#EE772A"/>
<path d="M138.428 48.1179C138.383 47.8648 138.42 47.604 138.534 47.3735C138.648 47.1431 138.832 46.9551 139.061 46.8372C139.269 46.7567 139.498 46.7512 139.709 46.8217C139.921 46.8921 140.101 47.034 140.219 47.2229C140.28 47.3293 140.381 47.407 140.5 47.4388C140.619 47.4707 140.745 47.454 140.852 47.3927C140.958 47.3313 141.036 47.2301 141.068 47.1115C141.1 46.9928 141.083 46.8664 141.022 46.76C140.8 46.3597 140.43 46.0625 139.991 45.9326C139.552 45.8027 139.079 45.8505 138.675 46.0656C138.498 46.1728 138.345 46.3144 138.224 46.482C138.103 46.6496 138.017 46.8398 137.97 47.0412C137.924 47.2427 137.919 47.4514 137.955 47.6549C137.992 47.8584 138.068 48.0526 138.181 48.2259C138.181 48.3648 138.474 48.2259 138.428 48.1179Z" fill="#1D1D1B"/>
<path d="M130.662 51.5279C130.367 51.1473 129.957 50.8715 129.493 50.741C129.029 50.6105 128.535 50.6321 128.084 50.8026C127.892 50.8828 127.717 51.0013 127.571 51.1508C127.426 51.3003 127.312 51.4778 127.237 51.6725C127.162 51.8672 127.127 52.0751 127.135 52.2837C127.142 52.4922 127.192 52.697 127.281 52.8857C127.513 53.3486 128.239 52.8857 127.992 52.4691C127.745 52.0525 128.208 51.5433 128.609 51.4198C129.258 51.2347 129.829 51.6359 130.415 51.821C130.585 51.821 130.77 51.6667 130.662 51.5279Z" fill="#1D1D1B"/>
<path d="M137.008 51.3742C136.36 51.3742 134.955 52.2075 135.634 52.9173C135.774 53.0772 135.97 53.1786 136.181 53.2015C136.393 53.2243 136.605 53.167 136.777 53.0407C137.189 52.7552 137.489 52.3351 137.626 51.8526C137.654 51.7421 137.637 51.6249 137.579 51.5267C137.522 51.4284 137.427 51.357 137.317 51.3279C137.136 51.266 136.943 51.2465 136.753 51.271C136.563 51.2955 136.381 51.3633 136.221 51.4692C136.061 51.575 135.928 51.7161 135.832 51.8816C135.735 52.0471 135.678 52.2325 135.665 52.4235C135.663 52.5289 135.699 52.6315 135.767 52.712C135.835 52.7924 135.931 52.8452 136.035 52.8604C136.139 52.8756 136.246 52.8521 136.334 52.7944C136.422 52.7366 136.486 52.6486 136.514 52.5469C136.521 52.4812 136.542 52.4177 136.575 52.3607C136.609 52.3037 136.654 52.2545 136.708 52.2165C136.763 52.1785 136.824 52.1525 136.889 52.1403C136.954 52.1281 137.021 52.1299 137.085 52.1457L136.792 51.6211C136.749 51.8533 136.648 52.0709 136.499 52.2537C136.499 52.2537 136.205 52.5778 136.128 52.4543C136.051 52.3309 136.437 52.0531 136.499 52.0069C136.683 51.858 136.885 51.7335 137.101 51.6365C137.286 51.6365 137.193 51.2971 137.008 51.2971V51.3742Z" fill="#1D1D1B"/>
<path d="M141.207 50.6643C141.591 50.4949 141.959 50.2882 142.303 50.0471L143.461 49.3836C144.233 48.9515 145.005 48.5195 145.823 48.1337C146.641 47.748 145.823 46.8067 145.282 47.2079C144.742 47.6091 143.739 48.1954 143.075 48.7509L142.04 49.507C141.665 49.7508 141.318 50.0355 141.006 50.3557C140.898 50.4946 141.006 50.7723 141.207 50.6952V50.6643Z" fill="#EE772A"/>
<path d="M141.871 51.8835C142.551 51.6419 143.216 51.3584 143.862 51.0348C144.541 50.7416 145.236 50.5102 145.946 50.2633C146.002 50.239 146.052 50.2039 146.095 50.1601C146.137 50.1163 146.17 50.0647 146.192 50.0081C146.214 49.9515 146.225 49.8911 146.224 49.8303C146.223 49.7695 146.21 49.7095 146.186 49.6538C146.161 49.5981 146.126 49.5477 146.082 49.5055C146.039 49.4633 145.987 49.4302 145.93 49.408C145.874 49.3858 145.813 49.3749 145.752 49.3761C145.691 49.3772 145.632 49.3903 145.576 49.4146L143.615 50.3713C142.934 50.651 142.283 50.9973 141.67 51.4051C141.469 51.5749 141.577 51.9761 141.871 51.8835Z" fill="#EE772A"/>
<path d="M131.219 54.4907C130.873 54.493 130.529 54.5503 130.2 54.6605L129.058 54.9845C128.332 55.2314 127.637 55.5246 126.927 55.8177C126.217 56.1109 126.727 56.8516 127.251 56.5584C127.939 56.2054 128.651 55.9012 129.382 55.648L130.432 55.2777C130.77 55.2111 131.098 55.0968 131.404 54.9382C131.446 54.9089 131.477 54.8675 131.494 54.8197C131.511 54.7719 131.513 54.7201 131.499 54.6712C131.486 54.6223 131.458 54.5787 131.419 54.5465C131.379 54.5142 131.331 54.4947 131.281 54.4907H131.219Z" fill="#EE772A"/>
<path d="M131.774 55.5402C131.466 55.4322 131.218 55.5402 130.941 55.7408C130.663 55.9414 130.292 56.1112 129.983 56.2963L128.023 57.4999C127.529 57.8085 128.023 58.5955 128.486 58.2869L130.462 56.9753L131.435 56.2963C131.55 56.2287 131.649 56.1373 131.727 56.0282C131.804 55.9191 131.857 55.7949 131.882 55.6637C131.883 55.6334 131.872 55.6042 131.852 55.5814C131.832 55.5587 131.804 55.544 131.774 55.5402Z" fill="#EE772A"/>
<path d="M109.019 60.0304C108.877 60.0448 108.737 60.0759 108.602 60.123C108.048 60.3196 107.527 60.6007 107.058 60.9562C107.058 60.6168 107.058 60.2773 106.981 59.9378C106.862 59.1726 106.697 58.4151 106.487 57.6695C106.24 56.8054 105.993 55.9413 105.762 55.0772L105.669 54.6606C106.381 54.0123 107.223 53.5231 108.139 53.2256C108.216 53.6885 108.309 54.1514 108.401 54.6143C108.602 55.5093 108.818 56.3888 108.957 57.2992C109.088 58.2038 109.109 59.1209 109.019 60.0304Z" fill="#F49E5A"/>
<path d="M114.716 56.8827C114.114 57.4228 113.527 57.9937 112.956 58.5647C112.385 59.1356 111.829 59.7682 111.274 60.3854C110.934 60.7558 110.61 61.157 110.27 61.5273C110.327 61.2941 110.324 61.0504 110.262 60.8186C110.2 60.5867 110.08 60.3742 109.915 60.2003C109.724 60.0672 109.499 59.9922 109.267 59.9843C109.421 59.6911 109.591 59.4133 109.745 59.1356C110.178 58.4327 110.647 57.7529 111.15 57.0988C111.853 56.1792 112.61 55.3032 113.419 54.4756C114.039 55.1622 114.484 55.9879 114.716 56.8827Z" fill="#F49E5A"/>
<path d="M115.116 62.9004C115.116 63.7954 114.947 64.6903 114.838 65.5853C114.463 65.8204 114.065 66.0169 113.65 66.1716C112.714 66.4916 111.736 66.6685 110.747 66.6963C110.285 66.7428 109.82 66.7428 109.358 66.6963H109.126C109.312 65.8476 109.528 65.0144 109.729 64.1657H109.821H110.037H110.747C111.462 64.2198 112.181 64.1625 112.878 63.996C113.202 63.9034 113.526 63.8262 113.85 63.7028L114.082 63.5948L114.483 63.3633C114.777 63.1164 114.931 63.0238 115.116 62.9004Z" fill="#F49E5A"/>
<path d="M114.546 72.7763C113.442 73.304 112.206 73.4919 110.995 73.3163C110.149 73.163 109.359 72.7845 108.71 72.2208L108.509 72.0356C108.455 71.3835 108.455 70.7281 108.509 70.076C109.06 70.5876 109.756 70.9164 110.501 71.0172H110.609H110.825H111.257H111.875H112.091L112.539 70.8938H112.755H112.894C113.169 70.769 113.433 70.6192 113.681 70.4463H113.774H113.882L114.268 70.1068L114.407 69.9834C114.407 70.508 114.407 71.0172 114.407 71.5264C114.407 72.0356 114.484 72.2671 114.546 72.7763Z" fill="#F49E5A"/>
<path d="M135.418 83.284C138.274 81.3398 140.497 77.8525 139.247 74.3498C139.001 73.5924 138.6 72.8948 138.068 72.3021C137.536 71.7094 136.886 71.2347 136.159 70.9088C135.283 70.5815 134.341 70.464 133.411 70.5659C132.481 70.6677 131.587 70.986 130.802 71.4952C128.936 72.8004 127.394 74.516 126.294 76.5101C126.032 76.9113 126.68 77.2816 126.927 76.8804C127.87 75.2671 129.081 73.8268 130.509 72.6216C131.171 72.0789 131.944 71.6873 132.773 71.4741C133.602 71.2609 134.468 71.2312 135.31 71.3872C136.006 71.597 136.645 71.9614 137.179 72.4531C137.714 72.9448 138.131 73.551 138.398 74.2264C138.993 75.6432 139.053 77.2278 138.568 78.6858C137.966 80.5057 136.85 82.1131 135.356 83.3149L135.418 83.284Z" fill="#E28241"/>
<path d="M128.918 65.6163C130.009 67.8289 131.537 69.7974 133.41 71.4027C133.719 71.6804 134.198 71.2021 133.874 70.9398C132.007 69.3806 130.356 67.58 128.964 65.5854L128.918 65.6163Z" fill="#E28241"/>
<path d="M105.095 40.0047C105.489 40.9817 105.839 41.4629 105.97 41.4629C108.275 40.7338 111.091 39.7276 113.148 38.8818C112.958 38.3423 112.769 37.8028 112.594 37.2778C110.347 38.1673 107.633 39.1735 105.095 40.0047Z" fill="#58A3E0"/>
<path d="M146.907 22.9294C146.498 22.4336 143.157 25.0584 135.323 25.9771L122.747 33.2681C122.747 33.2681 123.36 34.493 135.527 33.1806C147.695 31.8682 148.978 25.35 146.907 22.9294Z" fill="#195C93"/>
<path d="M146.908 22.9293C146.528 22.4773 143.61 24.7083 136.899 25.7582C136.622 25.7582 133.894 29.1121 134.93 30.9348C135.732 32.393 139.584 32.743 143.683 30.8181C148.337 28.66 148.367 24.6208 146.908 22.9293Z" fill="#2072C4"/>
<path d="M146.907 22.9295C146.761 22.7399 146.206 22.9294 145.185 23.4107C146.483 25.2042 146.308 29.0393 141.83 31.1245C140.939 31.5506 140.005 31.8782 139.043 32.1015C140.659 31.9566 142.235 31.5219 143.697 30.8183C148.336 28.6602 148.365 24.621 146.907 22.9295Z" fill="#64A9E2"/>
<path d="M135.352 25.977C135.484 26.3416 132.303 29.0101 126.745 32.2619C123.433 24.7084 116.678 16.8924 111.907 16.8049C111.902 16.7516 111.902 16.6978 111.907 16.6445C129.721 7.85156 135.075 25.2771 135.352 25.977Z" fill="#E6F0FF"/>
<path d="M135.352 25.9769C135.425 26.181 134.433 27.1288 132.536 28.5141C129.706 30.5702 127.518 27.8142 125.636 24.8832C124.092 22.6017 122.058 20.6927 119.684 19.2953C117.309 17.8979 114.652 17.0471 111.907 16.8048V16.7027C129.706 7.77854 135.075 25.2769 135.352 25.9769Z" fill="white"/>
<path d="M126.715 32.2618C122.591 34.6763 118.301 36.796 113.877 38.6049C110.273 28.3975 109.792 21.2815 111.878 16.7319C116.649 16.8923 123.403 24.7083 126.715 32.2618Z" fill="#195C93"/>
<path d="M125.797 32.8596C122.306 34.9079 118.674 36.706 114.928 38.2404C111.864 29.6078 111.456 23.5271 113.235 19.7212C117.247 19.8087 122.981 26.4435 125.797 32.8596Z" fill="#2072C4"/>
<path d="M114.314 36.5488C114.49 37.103 114.679 37.6717 114.883 38.2403C118.644 36.7078 122.291 34.9097 125.796 32.8596C125.592 32.4076 125.388 31.9701 125.169 31.5181C122.061 33.1221 118.399 34.8573 114.314 36.5488Z" fill="#64A9E2"/>
<path d="M111.878 16.8047C109.792 21.2814 110.274 28.4703 113.877 38.6777C111.441 39.6693 108.844 40.6317 106.116 41.5066C105.313 41.7691 94.9841 25.3789 111.645 16.8776L111.878 16.8047Z" fill="#195C93"/>
<path d="M109.982 19.1816C108.217 22.9584 110.099 30.3369 113.148 38.9111C111.091 39.7569 108.275 40.763 105.97 41.4921C105.299 41.7109 98.6901 25.7144 109.982 19.1816Z" fill="#2072C4"/>
<path d="M113.468 16.0466C113.687 16.4841 113.177 17.1549 112.36 17.5048C111.543 17.8548 110.711 17.8256 110.507 17.3736C110.303 16.9215 110.799 16.2654 111.616 15.9154C112.433 15.5654 113.191 15.5946 113.468 16.0466Z" fill="#195C93"/>
<path d="M112.812 16.8338C112.9 17.0379 112.666 17.3587 112.287 17.5337C111.908 17.7087 111.514 17.6795 111.412 17.5337C111.31 17.3879 111.558 17.0088 111.937 16.8338C112.316 16.6588 112.71 16.6296 112.812 16.8338Z" fill="#2072C4"/>
</svg>
