<svg width="209" height="115" viewBox="0 0 209 115" fill="none" xmlns="http://www.w3.org/2000/svg">
<path fill-rule="evenodd" clip-rule="evenodd" d="M170.399 71.133C162.476 80.7669 183.076 81.6965 178.343 86.4289C169.343 95.2599 153.243 89.5345 145.067 94.7528C110.776 116.598 44.6456 126.95 37.0184 92.8092C28.9686 56.8091 12.4677 71.1542 2.85451 60.3584C-11.935 43.8372 34.2718 27.9709 60.5549 20.3653C85.676 13.0977 173.991 14.2385 174.392 39.8865C174.392 46.8161 217.979 52.0555 207.056 63.3795C200.739 69.8866 172.132 69.2105 170.399 71.133Z" fill="#ACF3FF"/>
<path fill-rule="evenodd" clip-rule="evenodd" d="M165.413 69.992C158.081 77.4709 181.512 78.8653 142.425 92.2175C95.9439 108.126 41.138 108.654 35.1166 79.9216C31.2079 61.2667 16.1014 66.1047 8.60102 56.0483C1.50203 46.4779 41.4972 31.2243 60.132 23.8933C87.8308 13.013 156.37 18.3369 170.906 40.5412C174.624 46.2244 204.563 52.0765 194.4 62.5976C188.59 68.661 171.159 64.2244 165.413 69.992Z" fill="#00D8E7"/>
<path fill-rule="evenodd" clip-rule="evenodd" d="M53.0752 31.9639C40.2928 38.0273 9.615 52.4146 31.4824 57.5062C55.6739 63.1259 25.144 70.8372 46.8635 72.802C53.3287 73.3725 64.6533 77.7035 67.421 83.8936C71.1184 92.1753 84.7459 94.457 103.339 85.3725C117.051 78.6964 130.805 83.8725 144.221 74.9359C145.425 74.133 174.096 63.4217 163.236 49.4358C149.693 31.7949 138.178 30.823 125.713 28.3089C111.156 21.1258 52.9484 31.9639 53.0752 31.9639Z" fill="#F1A90F"/>
<path fill-rule="evenodd" clip-rule="evenodd" d="M35.2651 50.7034C54.1535 57.0414 42.2796 70.3513 51.428 67.3302C80.5845 57.6964 53.3506 105.105 100.022 82.3936C113.713 75.7176 123.136 77.8302 128.165 74.9992C137.229 69.8654 124.045 62.5767 159.857 56.1964C167.97 54.7386 163.195 40.5203 153.687 35.471C116.227 15.7385 95.0994 21.1259 56.2452 29.7667C51.9984 30.7386 19.6516 45.2949 35.2651 50.7034Z" fill="#FFCC00"/>
<path fill-rule="evenodd" clip-rule="evenodd" d="M94.9512 38.8511C109.022 38.8511 120.453 44.8933 120.453 52.3722C120.453 59.8511 109.022 65.8934 94.9512 65.8934C80.88 65.8934 69.4498 59.83 69.4498 52.3722C69.4498 44.9145 80.8589 38.8511 94.9512 38.8511Z" fill="#E1A814"/>
<path fill-rule="evenodd" clip-rule="evenodd" d="M101.86 62.7244C91.951 64.4146 83.1618 61.7526 81.4716 56.7455C74.5439 43.7333 72.0023 28.8323 74.2247 14.2595L90.4087 11.513L93.092 11.0693L101.86 62.7244Z" fill="#473F26"/>
<path fill-rule="evenodd" clip-rule="evenodd" d="M119.122 50.3652C119.122 55.6469 111.748 61.0554 101.86 62.7244L93.0924 11.0693L95.7757 10.5623L112.002 7.87915C118.922 20.8938 121.45 35.7968 119.207 50.3652H119.122Z" fill="#9C8F69"/>
<path fill-rule="evenodd" clip-rule="evenodd" d="M91.9091 12.9497L78.1971 15.2948C77.035 31.1188 80.9437 46.478 87.4934 61.9006C91.7002 63.249 96.1624 63.6033 100.529 62.9358C99.6537 45.9903 96.7598 29.2097 91.9091 12.9497Z" fill="#595034"/>
<path fill-rule="evenodd" clip-rule="evenodd" d="M95.2888 12.3793L109.106 10.0342C115.297 24.5272 116.691 40.2244 115.614 56.7878C112.112 59.6141 107.969 61.5367 103.55 62.3865C98.8092 46.107 96.0357 29.3184 95.2888 12.3793Z" fill="#8F8157"/>
<path fill-rule="evenodd" clip-rule="evenodd" d="M86.6476 16.4779L100.465 14.1328C105.304 29.5765 106.994 45.485 108.156 61.0555C106.12 61.8712 103.991 62.4318 101.817 62.7245C99.5649 63.172 97.2651 63.3353 94.972 63.2104C90.8732 47.9357 87.3025 32.3653 86.6476 16.4779Z" fill="#73694B"/>
<path fill-rule="evenodd" clip-rule="evenodd" d="M91.296 0.505956C101.733 -1.2687 110.966 1.77357 112.001 7.30879C113.037 12.844 105.24 18.7807 94.8032 20.5342C84.366 22.2877 75.1542 19.2666 74.2035 13.7313C73.2527 8.19612 80.8588 2.28061 91.296 0.505956Z" fill="#BB9E68"/>
<path fill-rule="evenodd" clip-rule="evenodd" d="M91.5288 1.85798C100.55 0.336849 108.431 2.9777 109.34 7.75236C110.248 12.527 103.551 17.6608 94.4656 19.182C85.3806 20.7031 77.5632 18.0834 76.6547 13.2876C75.7462 8.4918 82.4226 3.37911 91.5288 1.85798Z" fill="#473F26"/>
<path fill-rule="evenodd" clip-rule="evenodd" d="M109.361 9.10469C108.875 13.4779 102.642 17.8089 94.571 19.1822C86.5002 20.5554 79.1054 18.5273 77.1827 14.5765C77.6898 10.2244 83.9225 5.89342 92.0779 4.52017C100.233 3.14693 107.459 5.15398 109.361 9.10469Z" fill="#9C8F69"/>
<path fill-rule="evenodd" clip-rule="evenodd" d="M73.4639 26.8088C79.3797 39.9919 114.579 34.2243 116.713 19.1609C116.29 17.8721 115.847 16.6045 115.361 15.3369C111.135 28.4778 81.1122 33.4637 73.4639 22.8581C73.4216 24.1891 73.4216 25.4989 73.4639 26.8088Z" fill="#B6CBD8"/>
<path fill-rule="evenodd" clip-rule="evenodd" d="M73.464 26.809C79.3798 39.9921 114.579 34.2245 116.713 19.1611C116.354 18.0202 115.952 16.9005 115.53 15.7808C111.473 29.1329 80.9433 34.2034 73.4428 23.2385C73.4217 24.485 73.4428 25.647 73.464 26.809Z" fill="#60869D"/>
<path fill-rule="evenodd" clip-rule="evenodd" d="M81.3026 56.5132C90.7256 63.1048 112.804 59.2386 119.333 49.2667C119.675 46.6953 119.873 44.1067 119.924 41.5132L119.734 40.9639C115.445 54.1047 85.4648 59.1541 77.8165 48.5907C78.8263 51.2959 79.9902 53.9411 81.3026 56.5132Z" fill="#B6CBD8"/>
<path fill-rule="evenodd" clip-rule="evenodd" d="M81.3024 56.5132C90.7255 63.1048 112.804 59.2386 119.333 49.2667C119.675 46.6954 119.873 44.1067 119.924 41.5132C115.91 54.7174 85.9928 59.809 78.091 49.4146C79.0423 51.8329 80.1142 54.2021 81.3024 56.5132Z" fill="#60869D"/>
<path fill-rule="evenodd" clip-rule="evenodd" d="M98.8391 6.33692C100.614 6.02002 102.177 6.54819 102.346 7.47777C102.515 8.40735 101.184 9.42144 99.4307 9.73834C97.6771 10.0552 96.0925 9.50595 95.9234 8.57637C95.7544 7.64679 97.0643 6.65382 98.8391 6.33692Z" fill="#73694B"/>
<path fill-rule="evenodd" clip-rule="evenodd" d="M101.712 7.98494C101.431 8.36269 101.073 8.67659 100.661 8.90599C100.25 9.13539 99.7943 9.2751 99.325 9.31593C98.8644 9.43265 98.384 9.44775 97.917 9.3602C97.45 9.27264 97.0076 9.08452 96.6206 8.80889C96.5032 8.71136 96.4093 8.58859 96.3459 8.44973C96.1769 7.35114 96.029 6.33705 95.8389 5.15395L101.269 4.22437C101.459 5.30183 101.67 6.33705 101.86 7.49902C101.861 7.67214 101.809 7.84139 101.712 7.98494Z" fill="#473F26"/>
<path fill-rule="evenodd" clip-rule="evenodd" d="M98.3106 3.18911C99.8107 2.93558 101.142 3.35812 101.268 4.16094C101.395 4.96376 100.297 5.80883 98.7965 6.06235C97.2965 6.31588 95.9654 5.87221 95.8386 5.09052C95.7119 4.30883 96.8105 3.44263 98.3106 3.18911Z" fill="#BB9E68"/>
<path fill-rule="evenodd" clip-rule="evenodd" d="M85.4016 29.8723C85.7602 30.0415 86.0489 30.3298 86.2184 30.6882C86.388 31.0466 86.4278 31.4527 86.3312 31.8371C86.3234 32.0168 86.2762 32.1926 86.1928 32.352C86.1094 32.5114 85.992 32.6505 85.8488 32.7594C85.7056 32.8683 85.5402 32.9443 85.3643 32.9821C85.1884 33.0199 85.0064 33.0185 84.8311 32.978C84.4752 32.8057 84.1889 32.5169 84.0198 32.1595C83.8507 31.8021 83.809 31.3976 83.9015 31.0132C84.0705 30.1681 84.7255 29.5766 85.4016 29.8723Z" fill="#96AEBE"/>
<path fill-rule="evenodd" clip-rule="evenodd" d="M81.2815 29.0061C81.6374 29.1783 81.9237 29.4671 82.0928 29.8245C82.2619 30.1819 82.3037 30.5864 82.2112 30.9709C82.0421 31.8159 81.366 32.323 80.7111 32.0906C80.3542 31.9253 80.0661 31.6408 79.8964 31.2861C79.7267 30.9313 79.686 30.5284 79.7814 30.1469C79.9293 29.2807 80.6054 28.7737 81.2815 29.0061Z" fill="#96AEBE"/>
<path fill-rule="evenodd" clip-rule="evenodd" d="M89.585 55.5835C89.9758 55.621 90.3413 55.7933 90.6189 56.0708C90.8965 56.3484 91.0688 56.7139 91.1063 57.1046C91.2542 57.9708 90.7893 58.668 90.0921 58.6891C89.6986 58.644 89.332 58.467 89.052 58.187C88.7719 57.9069 88.5949 57.5403 88.5498 57.1469C88.4019 56.3018 88.8667 55.5835 89.585 55.5835Z" fill="#96AEBE"/>
<path fill-rule="evenodd" clip-rule="evenodd" d="M85.5278 54.6963C85.9205 54.7505 86.2817 54.941 86.5482 55.2345C86.8146 55.528 86.9695 55.9058 86.9856 56.3019C86.9856 57.1681 86.5841 57.8442 85.8658 57.8231C85.4786 57.7606 85.1246 57.567 84.863 57.2747C84.6015 56.9824 84.4483 56.6092 84.4291 56.2174C84.3235 55.3512 84.8305 54.6752 85.5278 54.6963Z" fill="#96AEBE"/>
</svg>
