<svg width="393" height="419" viewBox="0 0 393 419" fill="none" xmlns="http://www.w3.org/2000/svg">
<path d="M149.434 311.044H252.149" stroke="#CB4120" stroke-width="4" stroke-miterlimit="10"/>
<path d="M200.826 340.39L200.793 0" stroke="#CB4120" stroke-width="4" stroke-miterlimit="10"/>
<path d="M245.98 31.7972H200.793V0H245.98L229.721 15.8823L245.98 31.7972Z" fill="#26B824"/>
<path d="M308.73 69.9668H272.947V44.8036H308.73L295.867 57.3852L308.73 69.9668Z" fill="#26B824"/>
<path d="M272.947 31.7971V239.279" stroke="#CB4120" stroke-width="4" stroke-miterlimit="10"/>
<path d="M228.121 252.58H36.2407C-12.0802 219.9 -12.0802 155.293 36.2407 122.646H228.121C179.832 155.326 179.832 219.933 228.121 252.58Z" fill="white"/>
<path d="M228.121 112.646H109.734C104.559 108.964 100.339 104.095 97.4275 98.4466C94.5157 92.7985 92.9963 86.535 92.9963 80.1792C92.9963 73.8235 94.5157 67.56 97.4275 61.9118C100.339 56.2637 104.559 51.3949 109.734 47.7121H228.121C222.952 51.3994 218.738 56.2697 215.831 61.9173C212.923 67.5648 211.406 73.826 211.406 80.1792C211.406 86.5324 212.923 92.7937 215.831 98.4412C218.738 104.089 222.952 108.959 228.121 112.646Z" fill="white"/>
<path d="M250.29 83.5943V219.868H380.985L304.292 83.5943H250.29Z" fill="white"/>
<path d="M282.611 8.85623H263.283C260.434 8.85623 258.124 11.1679 258.124 14.0196V26.6339C258.124 29.4855 260.434 31.7973 263.283 31.7973H282.611C285.46 31.7973 287.77 29.4855 287.77 26.6339V14.0196C287.77 11.1679 285.46 8.85623 282.611 8.85623Z" fill="#DD981F"/>
<path d="M138.924 305.292L137.748 317.71L142.874 321.174H126.941L121.979 302.351" fill="#FFD7B0"/>
<path d="M77.9982 305.292L79.1735 317.71L74.0476 321.174H89.9805L94.9432 302.351" fill="#FFD7B0"/>
<path d="M70.0652 287.58C70.0652 287.58 72.4486 311.403 88.2509 310.259C104.053 309.115 109.179 314.638 123.284 314.638C137.388 314.638 154.79 312.449 148.032 287.58C141.273 262.711 102.682 270.619 102.682 270.619" fill="#53D2F9"/>
<path d="M76.922 237.319L69.9677 264.704C68.9883 272.703 68.9883 280.791 69.9677 288.789C95.5702 282.446 122.332 282.446 147.934 288.789C147.934 288.789 151.754 245.26 136.507 226.698C121.26 208.136 76.922 237.319 76.922 237.319Z" fill="#53D2F9"/>
<path d="M77.0511 237.253C75.7125 237.711 70.5212 262.286 70.5212 262.286C140.587 255.293 130.596 234.672 130.596 234.672C130.596 234.672 78.3571 236.796 77.0511 237.253Z" fill="#F7CEAD"/>
<path d="M68.9865 206.796C73.1699 206.796 76.5611 203.402 76.5611 199.214C76.5611 195.027 73.1699 191.633 68.9865 191.633C64.8031 191.633 61.4119 195.027 61.4119 199.214C61.4119 203.402 64.8031 206.796 68.9865 206.796Z" fill="#FFD7B0"/>
<path d="M76.4299 200.619C77.2044 197.335 75.1719 194.043 71.8902 193.268C68.6084 192.493 65.3201 194.527 64.5455 197.812C63.771 201.097 65.8035 204.388 69.0852 205.163C72.367 205.939 75.6553 203.904 76.4299 200.619Z" fill="#EFC19E"/>
<path d="M147.705 206.796C151.888 206.796 155.28 203.402 155.28 199.214C155.28 195.027 151.888 191.633 147.705 191.633C143.522 191.633 140.13 195.027 140.13 199.214C140.13 203.402 143.522 206.796 147.705 206.796Z" fill="#FFD7B0"/>
<path d="M146.204 205.325C149.576 205.325 152.309 202.589 152.309 199.214C152.309 195.839 149.576 193.103 146.204 193.103C142.832 193.103 140.099 195.839 140.099 199.214C140.099 202.589 142.832 205.325 146.204 205.325Z" fill="#EFC19E"/>
<path d="M68.9885 204.737C68.9885 204.737 62.7198 169.705 104.903 169.705C147.086 169.705 148.816 204.737 148.816 204.737C148.816 204.737 151.624 228.757 108.755 228.757C65.8868 228.757 68.9885 204.737 68.9885 204.737Z" fill="#FFD7B0"/>
<path d="M86.814 194.509C88.447 194.5 90.0587 194.881 91.5155 195.62C91.7459 194.679 91.8556 193.712 91.842 192.744C91.842 189.182 90.438 186.208 88.577 186.208C86.716 186.208 85.3121 189.116 85.3121 192.744C85.2612 193.342 85.2612 193.943 85.3121 194.541L86.814 194.509Z" fill="#634E42"/>
<path d="M128.604 194.509C126.971 194.5 125.36 194.881 123.903 195.62C123.688 194.676 123.579 193.712 123.576 192.744C123.576 189.182 124.98 186.208 126.841 186.208C128.702 186.208 130.106 189.116 130.106 192.744C130.157 193.342 130.157 193.943 130.106 194.541L128.604 194.509Z" fill="#634E42"/>
<path d="M68.5631 190.227C68.5631 190.227 68.5631 194.149 71.1424 193.822C73.7217 193.495 74.4074 189.574 74.4074 189.574C75.2514 189.343 75.9989 188.847 76.5397 188.158C77.0806 187.47 77.386 186.626 77.4111 185.75C77.4111 185.75 82.9288 177.679 73.6238 177.319C73.6238 177.319 65.5267 174.313 66.898 183.855C66.996 183.724 61.2823 188.561 68.5631 190.227Z" fill="#DDDDDD"/>
<path d="M146.531 190.227C146.531 190.227 146.531 194.149 143.952 193.822C141.373 193.495 140.687 189.574 140.687 189.574C139.843 189.343 139.095 188.847 138.555 188.158C138.014 187.47 137.708 186.626 137.683 185.75C137.683 185.75 132.165 177.679 141.471 177.319C141.471 177.319 149.568 174.313 148.196 183.855C148.196 183.724 153.91 188.561 146.531 190.227Z" fill="#DDDDDD"/>
<path d="M108.136 200.62C106.774 200.308 105.385 200.133 103.989 200.097C98.4388 199.835 90.3744 208.593 90.3744 208.593C87.1095 202.319 78.1309 203.953 78.1309 203.953C79.3063 197.417 71.1113 191.633 71.1113 191.633L70.491 189.312C65.7242 193.332 66.3119 216.535 66.3119 216.535C59.2923 228.757 75.0945 237.025 75.0945 237.025C75.6822 245.096 91.811 246.828 91.811 246.828C92.3987 253.364 102.944 256.109 107.221 256.992V201.437C107.221 201.437 107.091 200.946 108.136 200.62Z" fill="#DDDDDD"/>
<path d="M149.992 216.535C149.992 216.535 150.58 193.332 145.813 189.312L145.192 191.633C145.192 191.633 137.128 197.384 138.173 203.953C138.173 203.953 129.227 202.319 125.929 208.593C125.929 208.593 117.865 199.835 112.315 200.097C110.919 200.133 109.53 200.308 108.168 200.62C107.123 200.946 107.287 201.273 107.287 201.273V256.828H108.168H109.05C113.294 255.946 123.872 253.103 124.46 246.665C124.46 246.665 140.589 245.031 141.177 236.861C141.177 237.025 157.011 228.757 149.992 216.535Z" fill="#DDDDDD"/>
<path d="M116.361 196.796C116.047 196.762 115.729 196.762 115.414 196.796C113.638 195.269 111.374 194.429 109.032 194.429C106.69 194.429 104.425 195.269 102.649 196.796C102.334 196.762 102.016 196.762 101.702 196.796C99.6448 196.796 97.9797 197.875 97.9797 199.214C97.9797 200.554 99.6448 201.633 101.702 201.633C102.016 201.667 102.334 201.667 102.649 201.633C104.425 203.16 106.69 204 109.032 204C111.374 204 113.638 203.16 115.414 201.633C115.729 201.667 116.047 201.667 116.361 201.633C118.418 201.633 120.083 200.554 120.083 199.214C120.083 197.875 118.418 196.796 116.361 196.796Z" fill="#F7CAA6"/>
<path d="M120.215 177.809C119.913 176.928 119.803 175.993 119.892 175.065C119.981 174.138 120.266 173.24 120.73 172.433C121.194 171.625 121.825 170.926 122.581 170.382C123.336 169.838 124.2 169.463 125.112 169.28C132.132 167.417 133.83 175.195 133.83 175.195C133.83 175.195 129.03 171.927 125.994 172.646C122.957 173.365 122.109 174.215 120.215 177.809Z" fill="#DDDDDD"/>
<path d="M81.1323 174.607C81.2209 173.684 81.5048 172.79 81.9651 171.985C82.4253 171.18 83.0515 170.482 83.802 169.938C84.5524 169.394 85.4099 169.016 86.3176 168.83C87.2252 168.643 88.1621 168.652 89.0661 168.855C96.2163 169.999 94.6165 177.809 94.6165 177.809C94.6165 177.809 91.5801 172.777 88.5111 172.287C85.442 171.796 84.332 172.09 81.1323 174.607Z" fill="#DDDDDD"/>
<path d="M62.9162 250.227C62.9162 250.227 48.1261 240.031 57.17 224.378C57.17 224.378 52.8276 212.809 55.766 210.423C58.7045 208.038 66.5403 211.927 66.5403 211.927C66.5403 211.927 65.6588 208.659 70.6541 208.659C75.6495 208.659 65.7241 228.757 77.4125 238.364C85.281 245.096 73.0049 256.338 62.9162 250.227Z" fill="#FFD7B0"/>
<path d="M159.099 269.541H49.756C47.1053 269.541 44.9565 271.691 44.9565 274.345V286.077C44.9565 288.73 47.1053 290.88 49.756 290.88H159.099C161.749 290.88 163.898 288.73 163.898 286.077V274.345C163.898 271.691 161.749 269.541 159.099 269.541Z" fill="#DD981F"/>
<path d="M340.044 256.436H275.79C272.422 256.432 269.086 257.092 265.972 258.38C262.859 259.667 260.03 261.556 257.646 263.938C255.263 266.321 253.372 269.15 252.082 272.265C250.792 275.38 250.128 278.718 250.128 282.09V294.116C249.32 306.957 243.546 318.978 234.032 327.629C224.517 336.28 212.009 340.882 199.161 340.456C186.314 340.031 174.137 334.614 165.214 325.352C156.29 316.091 151.323 303.714 151.364 290.848H67.6836C67.7069 314.443 73.9917 337.609 85.8951 357.976C97.7986 378.342 114.893 395.179 135.431 406.762C135.725 408.592 138.696 390.88 147.511 411.566C147.511 411.566 165.24 417.448 180.911 411.566C194.722 399.671 194.722 396.729 203.276 411.566C215.389 417.35 231.289 414.834 235.142 411.566C247.842 399.54 247.842 396.599 256.299 411.566C259.564 411.305 319.018 363.527 329.335 325.063H340.044C346.794 325.055 353.269 322.386 358.066 317.633C362.863 312.88 365.597 306.427 365.674 299.671V282.09C365.674 275.286 362.974 268.761 358.167 263.95C353.361 259.139 346.842 256.436 340.044 256.436Z" fill="#CB4120"/>
<path d="M168.992 379.867C168.992 381.806 168.417 383.701 167.341 385.313C166.265 386.926 164.735 388.182 162.945 388.924C161.156 389.666 159.186 389.86 157.286 389.482C155.386 389.104 153.641 388.17 152.271 386.799C150.901 385.428 149.968 383.681 149.591 381.779C149.213 379.878 149.407 377.906 150.148 376.115C150.889 374.323 152.145 372.792 153.755 371.715C155.366 370.638 157.26 370.063 159.197 370.063C161.795 370.063 164.286 371.096 166.123 372.934C167.96 374.773 168.992 377.267 168.992 379.867Z" fill="#DD981F"/>
<path d="M196.712 379.867C196.712 381.806 196.137 383.701 195.061 385.313C193.985 386.926 192.455 388.182 190.665 388.924C188.876 389.666 186.906 389.86 185.006 389.482C183.106 389.104 181.361 388.17 179.991 386.799C178.621 385.428 177.688 383.681 177.311 381.779C176.933 379.878 177.127 377.906 177.868 376.115C178.609 374.323 179.865 372.792 181.475 371.715C183.086 370.638 184.98 370.063 186.917 370.063C189.515 370.063 192.006 371.096 193.843 372.934C195.68 374.773 196.712 377.267 196.712 379.867Z" fill="#DD981F"/>
<path d="M224.432 379.867C224.432 381.806 223.857 383.701 222.781 385.313C221.705 386.926 220.175 388.182 218.385 388.924C216.596 389.666 214.626 389.86 212.726 389.482C210.826 389.104 209.081 388.17 207.711 386.799C206.341 385.428 205.408 383.681 205.03 381.779C204.653 379.878 204.847 377.906 205.588 376.115C206.329 374.323 207.585 372.792 209.195 371.715C210.806 370.638 212.7 370.063 214.637 370.063C217.235 370.063 219.726 371.096 221.563 372.934C223.4 374.773 224.432 377.267 224.432 379.867Z" fill="#DD981F"/>
<path d="M252.152 379.867C252.152 381.806 251.578 383.701 250.501 385.313C249.425 386.926 247.895 388.182 246.106 388.924C244.316 389.666 242.346 389.86 240.446 389.482C238.546 389.104 236.801 388.17 235.431 386.799C234.062 385.428 233.129 383.681 232.751 381.779C232.373 379.878 232.567 377.906 233.308 376.115C234.049 374.323 235.305 372.792 236.916 371.715C238.526 370.638 240.42 370.063 242.357 370.063C244.955 370.063 247.446 371.096 249.283 372.934C251.12 374.773 252.152 377.267 252.152 379.867Z" fill="#DD981F"/>
<path d="M299.752 292.547C299.752 294.486 299.177 296.381 298.101 297.994C297.025 299.606 295.495 300.863 293.705 301.605C291.916 302.347 289.946 302.541 288.046 302.162C286.146 301.784 284.401 300.85 283.031 299.479C281.661 298.108 280.728 296.361 280.351 294.46C279.973 292.558 280.167 290.587 280.908 288.795C281.649 287.004 282.905 285.473 284.515 284.395C286.126 283.318 288.02 282.743 289.957 282.743C292.555 282.743 295.046 283.776 296.883 285.615C298.72 287.453 299.752 289.947 299.752 292.547Z" fill="#DD981F"/>
<path d="M335.535 292.547C335.535 294.486 334.961 296.381 333.885 297.994C332.808 299.606 331.279 300.863 329.489 301.605C327.699 302.347 325.73 302.541 323.83 302.162C321.93 301.784 320.184 300.85 318.815 299.479C317.445 298.108 316.512 296.361 316.134 294.46C315.756 292.558 315.95 290.587 316.691 288.795C317.433 287.004 318.688 285.473 320.299 284.395C321.91 283.318 323.803 282.743 325.741 282.743C328.338 282.743 330.83 283.776 332.667 285.615C334.503 287.453 335.535 289.947 335.535 292.547Z" fill="#DD981F"/>
<path d="M385.295 239.28H253.653C249.397 239.28 245.948 242.733 245.948 246.992V265.848C245.948 270.108 249.397 273.561 253.653 273.561H385.295C389.55 273.561 393 270.108 393 265.848V246.992C393 242.733 389.55 239.28 385.295 239.28Z" fill="#DD981F"/>
<path d="M156.162 254.279C156.162 254.279 158.937 272.024 141.372 276.24C141.372 276.24 135.985 287.351 132.197 286.861C128.41 286.371 125.896 277.972 125.896 277.972C125.896 277.972 124.068 281.044 120.803 277.188C117.538 273.332 140.882 257.907 142.417 245.129C143.951 232.351 154.17 240.554 156.162 254.279Z" fill="#FFD7B0"/>
<path d="M139.022 394.115C139.639 397.424 139.241 400.842 137.879 403.919C136.435 407.119 134.267 409.939 131.545 412.154C125.99 416.546 119.117 418.935 112.037 418.935C104.958 418.935 98.0852 416.546 92.5295 412.154C89.8109 409.923 87.6434 407.093 86.1955 403.886C84.8344 400.809 84.436 397.391 85.0528 394.083C85.7342 397.018 87.0138 399.782 88.8116 402.2C90.6094 404.618 92.8866 406.638 95.5006 408.135C100.531 411.042 106.245 412.554 112.054 412.514C117.853 412.563 123.559 411.05 128.574 408.135C131.19 406.648 133.469 404.635 135.267 402.222C137.065 399.809 138.344 397.048 139.022 394.115Z" fill="#5DE2FF"/>
<path d="M192.99 394.115C193.627 397.423 193.228 400.847 191.847 403.919C190.403 407.119 188.234 409.939 185.513 412.154C179.944 416.587 173.039 419 165.923 419C158.808 419 151.903 416.587 146.334 412.154C143.615 409.923 141.448 407.093 140 403.886C138.639 400.809 138.24 397.391 138.857 394.083C139.538 397.023 140.822 399.79 142.626 402.208C144.429 404.627 146.715 406.645 149.337 408.135C154.371 411.006 160.065 412.516 165.858 412.516C171.651 412.516 177.345 411.006 182.379 408.135C185.024 406.665 187.335 404.66 189.162 402.246C190.989 399.832 192.293 397.062 192.99 394.115Z" fill="#5DE2FF"/>
<path d="M246.959 394.115C247.597 397.423 247.198 400.847 245.817 403.919C244.373 407.119 242.204 409.939 239.483 412.154C233.927 416.546 227.054 418.935 219.975 418.935C212.895 418.935 206.022 416.546 200.467 412.154C197.748 409.923 195.581 407.093 194.133 403.886C192.772 400.809 192.373 397.391 192.99 394.083C193.672 397.023 194.955 399.79 196.759 402.208C198.563 404.627 200.848 406.645 203.47 408.135C208.504 411.006 214.198 412.516 219.991 412.516C225.784 412.516 231.478 411.006 236.512 408.135C239.131 406.653 241.413 404.641 243.212 402.227C245.011 399.813 246.287 397.05 246.959 394.115Z" fill="#5DE2FF"/>
<path d="M300.963 394.115C301.59 397.426 301.18 400.851 299.787 403.919C298.366 407.133 296.193 409.957 293.453 412.154C287.903 416.544 281.036 418.931 273.962 418.931C266.888 418.931 260.021 416.544 254.47 412.154C251.68 409.945 249.444 407.114 247.94 403.886C246.579 400.809 246.181 397.391 246.797 394.083C247.484 397.02 248.77 399.785 250.573 402.203C252.377 404.621 254.659 406.64 257.278 408.135C262.299 411.037 268.001 412.548 273.798 412.514C279.684 412.628 285.488 411.125 290.58 408.167C293.184 406.667 295.451 404.645 297.238 402.227C299.024 399.809 300.292 397.047 300.963 394.115Z" fill="#5DE2FF"/>
</svg>
