<svg width="181" height="122" viewBox="0 0 181 122" fill="none" xmlns="http://www.w3.org/2000/svg">
<path fill-rule="evenodd" clip-rule="evenodd" d="M150.265 110.831C149.403 112.296 153.376 113.643 151.653 115.225C148.395 118.155 139.806 116.441 136.855 118.155C124.425 125.317 103.784 119.327 96.2324 117.613C84.7218 114.932 99.9281 112.808 95.7504 110.743C92.7267 108.927 86.8107 108.312 85.3353 106.803C80.0037 101.383 96.7144 96.1835 106.238 93.6201C115.397 91.3058 141.822 92.3019 147.533 100.094C148.994 102.101 163.324 104.078 159.365 107.799C157.028 109.879 150.893 110.201 150.265 110.831Z" fill="#ACF3FF"/>
<path fill-rule="evenodd" clip-rule="evenodd" d="M66.1851 89.6067C67.0469 91.0714 63.0737 92.419 64.7243 94.0009C67.9818 96.9304 76.5563 95.2167 79.5216 96.9304C91.9524 104.108 112.593 98.1169 120.144 96.4031C131.713 93.7812 116.449 91.5694 120.627 89.592C123.65 87.7611 129.566 87.1605 131.042 85.6518C136.373 80.2322 119.662 75.0177 110.138 72.4691C101.038 70.0962 74.5551 71.0043 68.902 78.8847C67.4413 80.8914 53.1115 82.8688 57.0701 86.5893C59.4219 88.7278 65.557 88.9768 66.1851 89.6067Z" fill="#ACF3FF"/>
<path fill-rule="evenodd" clip-rule="evenodd" d="M65.9515 65.5114C65.1043 66.9762 69.0629 68.3238 67.4123 69.9057C64.1694 72.8352 55.5803 71.1214 52.615 72.8352C40.1988 80.0125 19.5441 74.0216 11.9921 72.3079C0.350079 69.6274 15.6293 67.401 11.437 65.4382C8.41332 63.6073 2.49735 63.0067 1.02202 61.542C-4.29505 56.1224 12.4011 50.9079 21.9251 48.3592C31.0254 45.9863 57.5085 46.8945 63.1615 54.7748C64.6223 56.7815 78.952 58.7589 74.9934 62.4794C72.7147 64.6326 66.5796 64.8816 65.9515 65.5114Z" fill="#ACF3FF"/>
<path fill-rule="evenodd" clip-rule="evenodd" d="M116.946 52.3727C117.454 52.3189 117.936 52.1186 118.333 51.7959C118.73 51.4732 119.025 51.042 119.183 50.5546C119.341 50.0671 119.354 49.5443 119.222 49.0493C119.089 48.5543 118.817 48.1084 118.437 47.7655C118.057 47.4227 117.586 47.1976 117.081 47.1175C116.576 47.0374 116.059 47.1058 115.592 47.3143C115.126 47.5228 114.729 47.8625 114.451 48.2923C114.172 48.7222 114.024 49.2237 114.024 49.7362C114.043 50.1018 114.133 50.4602 114.29 50.7907C114.447 51.1212 114.668 51.4174 114.939 51.6623C115.211 51.9073 115.528 52.0961 115.872 52.218C116.216 52.3399 116.581 52.3925 116.946 52.3727Z" fill="#225B40"/>
<path fill-rule="evenodd" clip-rule="evenodd" d="M154.837 47.9344C129.771 46.2792 122.35 37.9448 107.188 61.2344C97.4595 76.1748 112.301 92.7265 112.067 109.469C122.087 114.815 128.544 115.459 130.253 109.879C131.115 104.767 130.005 98.9078 126.44 88.7277C117.136 62.0839 148.877 65.7458 154.837 47.9344Z" fill="#B7CC89"/>
<path fill-rule="evenodd" clip-rule="evenodd" d="M113.323 110.128C116.128 87.6586 95.7942 59.2424 131.319 54.5552C138.024 53.6764 143.706 56.474 147.139 48.6962C147.35 48.2288 147.502 47.7367 147.592 47.2314C127.96 44.7707 119.838 39.688 106.238 60.5753C97.2258 74.4319 105.683 89.6653 103.872 104.606C106.922 106.614 110.077 108.457 113.323 110.128Z" fill="#225B40"/>
<path fill-rule="evenodd" clip-rule="evenodd" d="M127.916 70.0523C125.082 71.7954 119.984 69.774 115.835 65.9364C115.087 65.2257 114.407 64.446 113.805 63.6074C112.987 62.3184 113.615 64.2958 113.922 64.6913C117.077 68.7487 124.395 77.3175 127.916 70.0523Z" fill="#5E995E"/>
<path fill-rule="evenodd" clip-rule="evenodd" d="M130.837 69.0709C127.667 69.5542 122.073 66.0535 119.531 61.4981C119.074 60.6723 118.697 59.804 118.406 58.9055C118.07 57.5872 117.997 59.4035 118.158 59.8283C119.78 64.2518 124.863 74.9299 130.837 69.0709Z" fill="#5E995E"/>
<path fill-rule="evenodd" clip-rule="evenodd" d="M126.353 73.4651C123.811 75.6915 118.304 74.5051 113.425 71.268C112.564 70.667 111.757 69.9905 111.015 69.2466C109.963 68.0748 111.015 69.9643 111.322 70.3159C115.207 73.9485 124.162 81.404 126.353 73.4651Z" fill="#5E995E"/>
<path fill-rule="evenodd" clip-rule="evenodd" d="M124.819 80.2763C122.569 82.034 117.705 81.0087 113.411 78.3428C112.634 77.8616 111.9 77.3126 111.22 76.7023C110.299 75.7502 111.22 77.2735 111.497 77.5665C114.974 80.5839 122.847 86.604 124.819 80.2763Z" fill="#5E995E"/>
<path fill-rule="evenodd" clip-rule="evenodd" d="M125.199 85.7398C122.891 87.9955 117.895 87.7611 113.513 85.7398C112.719 85.371 111.97 84.914 111.278 84.3775C110.314 83.528 111.278 85.0074 111.555 85.2418C115.061 87.7318 123.168 92.8145 125.199 85.7398Z" fill="#5E995E"/>
<path fill-rule="evenodd" clip-rule="evenodd" d="M127.2 91.8332C124.892 94.045 119.896 94.0889 115.514 92.4191C114.729 92.1067 113.976 91.7192 113.265 91.2619C112.315 90.5296 113.265 91.8478 113.557 92.0529C117.077 94.2207 125.17 98.4685 127.2 91.8332Z" fill="#5E995E"/>
<path fill-rule="evenodd" clip-rule="evenodd" d="M128.982 97.1502C126.411 99.567 120.831 99.611 115.835 97.7508C114.964 97.4138 114.127 96.9919 113.338 96.4911C112.271 95.6708 113.338 97.1209 113.644 97.3553C117.691 99.7428 126.718 104.459 128.982 97.1502Z" fill="#5E995E"/>
<path fill-rule="evenodd" clip-rule="evenodd" d="M130.194 104.313C127.565 106.129 121.868 105.279 116.814 102.848C115.924 102.404 115.074 101.885 114.273 101.295C113.177 100.387 114.185 101.867 114.579 102.145C118.655 104.899 127.887 110.655 130.194 104.313Z" fill="#5E995E"/>
<path fill-rule="evenodd" clip-rule="evenodd" d="M130.005 109.732C127.521 111.432 122.131 110.274 117.355 107.491C116.504 106.991 115.697 106.417 114.944 105.778C113.922 104.811 114.944 106.363 115.251 106.656C119.093 109.718 127.828 116.002 130.005 109.732Z" fill="#5E995E"/>
<path fill-rule="evenodd" clip-rule="evenodd" d="M32.8074 58.7591C33.0411 61.6007 28.5421 60.8097 26.3802 59.9602C17.0461 56.2837 13.8617 54.7896 6.66033 39.7759C-0.321969 25.2602 15.1034 20.9831 8.28174 5.50071C3.25682 -5.83647 11.2908 4.54862 13.146 9.14794C15.7315 15.4903 16.2281 20.2947 14.5045 26.1537C10.5167 39.8052 29.3163 46.4259 32.8074 58.7591Z" fill="#419150"/>
<path fill-rule="evenodd" clip-rule="evenodd" d="M7.30324 3.27417C19.1352 22.8872 -3.21402 28.4825 19.4273 50.6882C21.9216 53.1949 23.88 56.1853 25.1826 59.4767C16.7542 56.1224 13.4967 54.1304 6.66052 39.7758C-0.175704 25.4212 15.1035 20.983 8.28193 5.50059L8.07743 5.03187V4.87075L7.88753 4.5778L7.69764 4.13837L7.30324 3.27417Z" fill="#225B40"/>
<path fill-rule="evenodd" clip-rule="evenodd" d="M165.968 81.111C166.216 87.0872 165.851 93.2245 163.558 94.8358C156.02 100.124 150.046 95.4217 148.541 90.1632C147.709 87.2337 142.815 84.6997 140.011 82.8395C137.513 81.1989 136.68 78.328 135.132 75.8819C133.058 72.5862 123.446 74.8126 122.613 58.8175C122.292 52.3433 157.204 67.0494 165.968 81.111Z" fill="#225B40"/>
<path fill-rule="evenodd" clip-rule="evenodd" d="M155.684 66.449C159.102 73.304 165.486 74.2854 163.981 88.4203C163.309 94.8066 156.677 94.8945 152.894 90.2512C146.496 82.4294 137.863 75.2814 136.607 72.5716C135.526 70.228 135.029 64.4569 139.967 63.4023C144.539 62.4209 146.029 63.5195 150.425 64.6766C152.149 65.0868 153.537 66.449 155.684 66.449Z" fill="#B91E21"/>
<path fill-rule="evenodd" clip-rule="evenodd" d="M155.684 66.449C159.102 73.304 165.486 74.2854 163.981 88.4203C163.918 89.0871 163.766 89.7424 163.528 90.3684C161.425 93.708 155.947 93.4297 153.303 89.2845C144.539 75.1789 139.397 78.5918 137.118 70.4478C136.695 68.983 135.935 67.6061 136.724 65.4969C137.084 64.9514 137.55 64.4846 138.095 64.1246C138.64 63.7646 139.252 63.5189 139.894 63.4023C144.466 62.4209 145.956 63.5195 150.352 64.6766C152.149 65.0868 153.537 66.449 155.684 66.449Z" fill="#E30613"/>
<path fill-rule="evenodd" clip-rule="evenodd" d="M174.338 82.737C172.877 83.4694 168.261 85.7544 166.026 85.4908C160.096 84.8023 156.093 84.6119 145.313 74.3147C140.58 69.8033 134.445 70.5942 130.998 68.6022C123.767 64.4716 110.329 46.8946 126.294 36.1872C130.677 33.2577 137.148 35.9968 142.143 36.0261C146.862 36.0261 150.382 40.7573 156.196 45.9864C162.374 51.5378 168.042 59.799 171.796 66.4929C173.374 69.3199 177.362 70.0376 178.034 72.4545C179.421 77.376 177.216 81.2283 174.338 82.737Z" fill="#2B7235"/>
<path fill-rule="evenodd" clip-rule="evenodd" d="M175.492 78.3427C161.629 84.275 169.649 81.6384 148.716 64.5448C145.181 61.6153 133.247 59.1252 126.966 52.8268C121.781 47.6122 120.977 38.7066 127.419 34.8982C132.377 32.2954 137.891 30.9383 143.487 30.9434C149.169 30.9434 153.522 36.9049 158.971 43.965C160.753 46.2793 163.484 52.8561 165.588 55.229C178.676 70.0669 181.13 75.9259 175.492 78.3427Z" fill="#419150"/>
<path fill-rule="evenodd" clip-rule="evenodd" d="M124.746 46.2061C122.219 47.334 121.664 51.5671 123.49 55.6537C125.316 59.7404 128.836 62.1426 131.348 61.0001C133.861 59.8576 134.387 55.683 132.605 51.5524C130.822 47.4218 127.258 45.0782 124.746 46.2061Z" fill="#225B40"/>
<path fill-rule="evenodd" clip-rule="evenodd" d="M123.665 45.4297C121.153 46.5722 120.583 50.8053 122.409 54.8773C124.235 58.9493 127.755 61.3662 130.282 60.2383C132.809 59.1104 133.364 54.8773 131.538 50.7907C129.713 46.704 126.192 44.3018 123.665 45.4297Z" fill="#419150"/>
<path fill-rule="evenodd" clip-rule="evenodd" d="M123.65 43.4376C121.343 44.5654 120.831 48.7986 122.497 52.8852C124.162 56.9719 127.39 59.3594 129.698 58.2316C132.006 57.1037 132.532 52.8706 130.852 48.7839C129.172 44.6973 125.958 42.2951 123.65 43.4376Z" fill="#2B7235"/>
<path fill-rule="evenodd" clip-rule="evenodd" d="M124.293 43.9651C122.496 44.7707 122.087 47.7881 123.387 50.7176C124.688 53.6471 127.215 55.3462 129.011 54.5406C130.808 53.735 131.217 50.7029 129.917 47.7881C128.617 44.8732 126.09 43.1448 124.293 43.9651Z" fill="#225B40"/>
<path fill-rule="evenodd" clip-rule="evenodd" d="M123.197 44.5803C121.094 45.5324 120.276 48.4179 121.518 51.0398C122.759 53.6617 125.345 55.0239 127.448 54.0865C129.552 53.1491 130.37 50.2489 129.128 47.6269C127.886 45.005 125.301 43.6428 123.197 44.5803Z" fill="white"/>
<path d="M124.936 50.9665C126.323 50.9665 127.448 49.8385 127.448 48.4471C127.448 47.0557 126.323 45.9277 124.936 45.9277C123.548 45.9277 122.423 47.0557 122.423 48.4471C122.423 49.8385 123.548 50.9665 124.936 50.9665Z" fill="#3C3C3B"/>
<path fill-rule="evenodd" clip-rule="evenodd" d="M122.073 40.1712C119.604 41.4016 118.669 44.4336 118.772 47.2606C122.087 46.3524 127.025 44.9463 130.72 48.7253C130.72 47.7 131.013 48.1248 129.99 45.5907C128.967 43.0567 124.541 38.9261 122.073 40.1712Z" fill="#225B40"/>
<path fill-rule="evenodd" clip-rule="evenodd" d="M121.839 41.8117C120.816 42.3459 119.976 43.1761 119.429 44.1948C118.882 45.2134 118.653 46.3734 118.772 47.5242C121.81 47.3631 126.47 45.6054 130.72 48.8132C130.645 47.8398 130.398 46.8876 129.99 46.0009C128.383 42.3976 124.731 40.5227 121.839 41.8117Z" fill="#2B7235"/>
<path fill-rule="evenodd" clip-rule="evenodd" d="M148.994 33.8141C150.981 32.5398 154.749 33.8141 157.408 36.7436C160.066 39.6731 160.621 43.0274 158.635 44.3164C156.648 45.6054 152.88 44.3164 150.221 41.3869C147.563 38.4574 147.051 35.0885 148.994 33.8141Z" fill="#419150"/>
<path fill-rule="evenodd" clip-rule="evenodd" d="M133.802 61.1466C132.853 62.9043 129.712 62.4942 133.116 63.6806C136.538 65.1137 139.853 66.7928 143.034 68.7047C145.278 70.0758 147.682 71.1631 150.192 71.9418C152.149 72.3519 148.001 70.1548 146.964 69.6275C144.295 68.1934 141.702 66.624 139.193 64.9257C138.049 64.2542 136.968 63.4796 135.964 62.6113C135.687 62.333 133.846 60.8536 133.802 61.1466Z" fill="#225B40"/>
<path fill-rule="evenodd" clip-rule="evenodd" d="M179.348 68.7046C178.904 68.2769 178.341 67.9946 177.733 67.8952C177.125 67.7958 176.501 67.884 175.945 68.148C175.707 69.0957 175.665 70.082 175.82 71.0467C175.976 72.0114 176.327 72.934 176.85 73.758C177.012 73.9927 177.192 74.2132 177.391 74.4171C177.866 74.2054 178.301 73.9131 178.676 73.5529C179.401 72.9954 179.878 72.1742 180.004 71.2669C180.129 70.3596 179.894 69.4392 179.348 68.7046Z" fill="#419150"/>
<path fill-rule="evenodd" clip-rule="evenodd" d="M157.758 45.9424C152.66 45.9424 143.283 47.7733 140.931 52.0504C140.741 52.3873 138.258 56.2103 139.616 54.892L143.765 50.82C144.276 50.3366 145.094 50.5564 145.795 50.82C146.905 51.2594 146.92 50.6735 146.92 49.6043C146.92 48.535 148.95 49.6043 149.447 49.9119C150.338 50.3513 150.06 49.5457 150.06 48.784C150.06 48.0223 152.062 49.2088 152.281 49.2967C153.069 49.6043 152.587 48.0223 152.587 47.6708C152.587 46.6455 154.501 48.9451 155.027 47.3632C155.348 46.1767 161.177 45.9424 157.758 45.9424Z" fill="#2B7235"/>
<path fill-rule="evenodd" clip-rule="evenodd" d="M160.782 50.4099C156.4 50.4099 148.191 51.9918 146.175 55.7123C146.014 56.0199 143.852 59.3449 145.036 58.1877L148.658 54.6577C149.082 54.2329 149.798 54.4233 150.411 54.6577C151.39 55.0239 151.39 54.5259 151.39 53.5884C151.39 52.651 153.157 53.5884 153.596 53.8521C154.37 54.2476 154.121 53.5445 154.121 52.8853C154.121 52.2262 155.86 53.2515 156.064 53.3248C156.736 53.5884 156.327 52.2116 156.327 51.86C156.327 50.9665 157.992 52.9586 158.445 51.5817C158.752 50.615 163.806 50.4099 160.782 50.4099Z" fill="#2B7235"/>
<path fill-rule="evenodd" clip-rule="evenodd" d="M161.965 54.8188C158.854 54.8188 153.201 55.9173 151.74 58.5246C151.624 58.7297 150.119 61.0586 150.937 60.253L153.479 57.7776C153.785 57.4846 154.282 57.6165 154.706 57.7776C155.392 58.0412 155.392 57.6897 155.392 57.0452C155.392 56.4007 156.619 57.0452 156.853 57.221C157.393 57.4993 157.233 57.0013 157.233 56.5472C157.233 56.0931 158.445 56.7962 158.577 56.8548C159.059 57.0452 158.766 56.0785 158.766 55.8588C158.766 55.2436 159.935 56.6351 160.227 55.683C160.519 54.7309 164.084 54.8188 161.965 54.8188Z" fill="#2B7235"/>
<path fill-rule="evenodd" clip-rule="evenodd" d="M158.62 75.8233C157.927 76.1891 157.358 76.7537 156.986 77.445C156.614 78.1363 156.456 78.923 156.532 79.7049C157.571 80.3911 158.74 80.8568 159.966 81.0734C161.192 81.29 162.449 81.253 163.66 80.9646C164.016 80.8667 164.363 80.7393 164.697 80.5837C164.637 79.9243 164.464 79.2802 164.186 78.6796C163.09 76.1895 160.592 74.9298 158.62 75.8233Z" fill="#2B7235"/>
<path fill-rule="evenodd" clip-rule="evenodd" d="M157.613 75.2081C156.91 75.5722 156.334 76.1401 155.959 76.8379C155.583 77.5356 155.427 78.3306 155.509 79.119C157.481 80.4519 161.235 78.123 161.834 79.8221C162.433 81.5212 163.66 80.9792 163.675 79.9978C163.613 79.3356 163.445 78.6877 163.178 78.079C162.141 75.6036 159.585 74.3146 157.613 75.2081Z" fill="#419150"/>
<path fill-rule="evenodd" clip-rule="evenodd" d="M156.838 75.882C156.261 76.1864 155.787 76.6577 155.48 77.2349C155.173 77.8121 155.045 78.4685 155.114 79.1191C155.969 79.6776 156.926 80.0575 157.93 80.2362C158.934 80.4149 159.964 80.3887 160.957 80.1591C161.243 80.0792 161.521 79.9763 161.79 79.8515C161.744 79.3048 161.605 78.77 161.381 78.2696C161.082 77.3572 160.441 76.5976 159.592 76.1518C158.744 75.706 157.756 75.6093 156.838 75.882Z" fill="#2B7235"/>
<path fill-rule="evenodd" clip-rule="evenodd" d="M156.561 77.039C155.713 77.4638 154.647 78.3426 155.29 79.6463C155.713 80.4958 157.758 78.6502 161.761 81.7116C161.193 80.7556 160.574 79.8314 159.906 78.9432C159.219 77.3027 157.758 76.4531 156.561 77.039Z" fill="#225B40"/>
<path fill-rule="evenodd" clip-rule="evenodd" d="M177.931 69.2467C178.143 69.6875 178.254 70.1707 178.254 70.6602C178.254 71.1497 178.143 71.6329 177.931 72.0737C177.844 72.3373 176.865 73.5384 176.865 73.0404C176.865 72.5424 176.967 71.9858 176.967 71.4145C176.967 70.8433 176.456 70.1549 176.456 69.276C176.456 68.3972 177.873 69.1295 177.931 69.2467Z" fill="#2B7235"/>
<path fill-rule="evenodd" clip-rule="evenodd" d="M143.151 32.2469C145.868 32.4666 147.329 33.2869 147.329 36.0552C147.329 38.8236 148.527 38.6772 149.593 40.4495C151.536 43.5548 145.035 40.1419 144.13 40.1419C140.814 40.1419 145.152 43.5255 143.984 44.3311C142.523 45.3564 139.923 41.5188 137.834 41.5188C137.206 41.5188 137.206 46.2792 136.695 47.6121C135.073 51.8599 133.583 43.9942 132.751 42.881C130.896 40.3909 128.997 39.9515 126.221 39.2338C121.97 38.1352 134.036 33.4919 135.176 32.9939C137.736 32.1071 140.471 31.8508 143.151 32.2469Z" fill="#2B7235"/>
<path fill-rule="evenodd" clip-rule="evenodd" d="M126.265 42.7493C127.244 43.7893 125.798 47.0117 123.168 47.0264C122.219 47.0264 119.37 47.0264 119.268 46.6602C118.202 43.0715 124.352 40.7572 126.265 42.7493Z" fill="#419150"/>
<path fill-rule="evenodd" clip-rule="evenodd" d="M148.994 84.3922C149.578 83.6599 150.689 83.6452 151.039 82.5027C151.39 81.3602 151.828 79.8955 152.836 81.4042C153.493 82.4002 153.186 87.8344 152.471 87.8344C151.755 87.8344 148.235 86.3257 148.994 84.3922Z" fill="white"/>
<path fill-rule="evenodd" clip-rule="evenodd" d="M80.7195 10.9349C55.6388 9.27971 53.287 -2.58478 38.1392 20.7048C28.4107 35.6599 45.1507 53.3541 44.917 70.1108C52.9656 72.6009 55.8433 71.5756 57.5669 65.9949C60.3131 49.575 45.7642 28.4387 66.01 21.5836C74.7305 18.6248 77.652 20.1189 80.7195 10.9349Z" fill="#B7CC89"/>
<path fill-rule="evenodd" clip-rule="evenodd" d="M45.2821 70.3305C47.2103 54.892 38.2121 36.6412 43.9382 25.2015C49.3429 14.4209 55.6241 12.6339 59.2905 14.3038C65.6739 17.2333 70.5089 29.3321 72.2472 40.4789C74.7012 56.0931 69.9831 84.0699 75.7091 87.7611C90.6232 97.3552 100.206 93.6201 100.542 87.2924C102.251 58.4807 99.0078 45.254 96.4077 33.5359C87.7894 -4.91379 52.9217 -7.4771 37.1312 19.8845C29.55 33.0672 40.5347 51.6403 38.7088 66.5808C40.796 68.0055 42.9942 69.2594 45.2821 70.3305Z" fill="#419150"/>
<path fill-rule="evenodd" clip-rule="evenodd" d="M45.2822 70.3305C47.2104 54.892 38.2123 36.6412 43.9384 25.2015C49.3431 14.4209 55.6242 12.6339 59.2906 14.3037C65.674 17.2332 70.5091 29.3321 72.2473 40.4788C74.7014 56.0931 69.9832 84.0698 75.7093 87.761C78.9222 89.9071 82.4311 91.5701 86.1243 92.6972C87.585 62.7138 84.1961 48.4764 81.3331 35.7184C77.4183 18.1414 68.6539 7.25825 58.4288 2.51245C50.2633 4.5924 42.5653 10.4661 37.1167 19.8844C29.5355 33.0672 40.5202 51.6402 38.6943 66.5807C40.7863 68.0061 42.9894 69.2601 45.2822 70.3305Z" fill="#225B40"/>
<path fill-rule="evenodd" clip-rule="evenodd" d="M61.4523 23.4584C58.9836 24.9231 54.5576 23.2094 50.9788 19.8405C50.3291 19.2224 49.7375 18.5458 49.2113 17.8191C48.5102 16.7059 49.0361 18.405 49.3136 18.7565C52.0598 22.3452 58.4286 29.7861 61.4523 23.4584Z" fill="#5E995E"/>
<path fill-rule="evenodd" clip-rule="evenodd" d="M65.3964 21.6128C62.9424 21.9937 58.6479 19.2839 56.632 15.7538C56.2755 15.1151 55.9819 14.443 55.7556 13.7471C55.5073 12.7218 55.4489 14.1426 55.5657 14.4648C56.8219 17.8924 60.7659 26.1536 65.3964 21.6128Z" fill="#5E995E"/>
<path fill-rule="evenodd" clip-rule="evenodd" d="M57.9613 26.8568C55.8578 28.7024 51.315 27.721 47.2834 25.0405C46.5669 24.5462 45.8971 23.9873 45.2822 23.3707C44.4203 22.4186 45.2822 23.9712 45.5305 24.2642C48.7587 27.2669 56.1208 33.4042 57.9613 26.8568Z" fill="#5E995E"/>
<path fill-rule="evenodd" clip-rule="evenodd" d="M55.9746 32.2469C53.8419 33.9167 49.226 32.9499 45.136 30.4159C44.4002 29.9553 43.7061 29.4308 43.0617 28.8486C42.1853 27.9551 43.0617 29.4052 43.3247 29.6835C46.6259 32.5252 54.0464 38.2963 55.9746 32.2469Z" fill="#5E995E"/>
<path fill-rule="evenodd" clip-rule="evenodd" d="M55.0252 36.9048C52.9217 38.9554 48.3643 38.7504 44.3473 36.9048C43.6249 36.561 42.9396 36.1438 42.3022 35.6597C41.4404 34.8834 42.3022 36.231 42.5506 36.4507C45.808 38.7211 53.1701 43.3204 55.0252 36.9048Z" fill="#5E995E"/>
<path fill-rule="evenodd" clip-rule="evenodd" d="M55.5073 42.7199C53.433 44.7119 48.9194 44.7412 44.9316 43.2325C44.2209 42.9568 43.5405 42.6083 42.9012 42.1926C42.054 41.5334 42.9012 42.7199 43.1641 42.9103C46.4215 44.8584 53.7252 48.6961 55.5073 42.7199Z" fill="#5E995E"/>
<path fill-rule="evenodd" clip-rule="evenodd" d="M56.5006 48.6083C54.3972 50.6004 49.8543 50.6297 45.8227 49.1064C45.1104 48.8298 44.4257 48.4865 43.7777 48.081C42.9158 47.4219 43.7777 48.5937 44.0406 48.7841C47.2834 50.7322 54.6601 54.5699 56.5006 48.6083Z" fill="#5E995E"/>
<path fill-rule="evenodd" clip-rule="evenodd" d="M57.1141 54.2183C55.0107 56.3275 50.4678 56.6497 46.4362 55.3901C45.7263 55.1618 45.0412 54.8625 44.3912 54.4966C43.5293 53.8814 44.3912 55.0239 44.6541 55.185C47.8969 56.8988 55.2736 60.2823 57.1141 54.2183Z" fill="#5E995E"/>
<path fill-rule="evenodd" clip-rule="evenodd" d="M57.9614 59.8428C55.8726 62.1131 51.3151 62.7723 47.2835 61.7616C46.5891 61.5868 45.9175 61.3311 45.2823 60.9999C44.4058 60.458 45.2823 61.5272 45.5306 61.6737C48.7588 63.1824 56.1209 66.0533 57.9614 59.8428Z" fill="#5E995E"/>
<path fill-rule="evenodd" clip-rule="evenodd" d="M57.4209 65.8191C55.4197 68.0748 51.0667 68.7486 47.1958 67.7233C46.5288 67.5503 45.8859 67.2945 45.2822 66.9616C44.4496 66.4196 45.2822 67.4889 45.5159 67.6354C48.6127 69.1587 55.668 72.015 57.4209 65.8191Z" fill="#5E995E"/>
<path fill-rule="evenodd" clip-rule="evenodd" d="M111.015 58.0853C111.577 58.0287 112.11 57.8099 112.551 57.4556C112.992 57.1012 113.32 56.6265 113.497 56.0887C113.674 55.551 113.692 54.9733 113.548 54.4256C113.405 53.8779 113.106 53.3837 112.688 53.0028C112.27 52.6219 111.751 52.3706 111.194 52.2793C110.637 52.188 110.065 52.2606 109.548 52.4884C109.031 52.7162 108.591 53.0894 108.281 53.5628C107.971 54.0362 107.804 54.5895 107.802 55.1558C107.847 55.9692 108.209 56.7321 108.81 57.2801C109.411 57.8281 110.203 58.1173 111.015 58.0853Z" fill="#225B40"/>
<path fill-rule="evenodd" clip-rule="evenodd" d="M106.633 64.8962C107.241 64.8367 107.819 64.6014 108.296 64.2189C108.773 63.8365 109.13 63.3233 109.322 62.7417C109.514 62.1601 109.533 61.5351 109.378 60.9427C109.222 60.3502 108.899 59.8157 108.446 59.4041C107.994 58.9924 107.432 58.7214 106.829 58.6239C106.225 58.5263 105.607 58.6065 105.048 58.8546C104.49 59.1027 104.015 59.5081 103.682 60.0215C103.349 60.535 103.171 61.1344 103.171 61.747C103.22 62.6226 103.611 63.4437 104.259 64.0329C104.906 64.6221 105.759 64.9322 106.633 64.8962Z" fill="#225B40"/>
<path fill-rule="evenodd" clip-rule="evenodd" d="M104.442 72.6301C105.102 72.5676 105.729 72.314 106.248 71.9002C106.767 71.4864 107.155 70.9302 107.364 70.2994C107.573 69.6686 107.595 68.9904 107.426 68.3474C107.258 67.7045 106.907 67.1245 106.416 66.6781C105.924 66.2317 105.314 65.9381 104.66 65.8332C104.005 65.7283 103.334 65.8166 102.729 66.0872C102.123 66.3579 101.609 66.7993 101.249 67.3576C100.89 67.916 100.7 68.5672 100.702 69.2319C100.751 70.1788 101.172 71.0678 101.873 71.7045C102.574 72.3412 103.497 72.674 104.442 72.6301Z" fill="#225B40"/>
<path fill-rule="evenodd" clip-rule="evenodd" d="M104.661 81.0818C105.32 81.0194 105.946 80.7666 106.465 80.3541C106.983 79.9416 107.371 79.3872 107.581 78.758C107.791 78.1288 107.814 77.452 107.648 76.8097C107.482 76.1674 107.134 75.5872 106.646 75.1396C106.157 74.6919 105.55 74.396 104.897 74.2878C104.244 74.1796 103.574 74.2638 102.968 74.53C102.362 74.7963 101.846 75.2332 101.483 75.7878C101.119 76.3424 100.924 76.9908 100.922 77.6543C100.967 78.605 101.386 79.4991 102.086 80.1413C102.787 80.7835 103.713 81.1216 104.661 81.0818Z" fill="#225B40"/>
<path fill-rule="evenodd" clip-rule="evenodd" d="M105.873 89.3723C106.533 89.3099 107.16 89.0567 107.678 88.6436C108.197 88.2304 108.585 87.6751 108.794 87.0451C109.004 86.4151 109.027 85.7376 108.859 85.095C108.692 84.4523 108.343 83.8722 107.853 83.4252C107.363 82.9781 106.754 82.6834 106.1 82.5769C105.447 82.4703 104.776 82.5565 104.17 82.825C103.565 83.0934 103.05 83.5326 102.688 84.089C102.327 84.6455 102.134 85.2953 102.134 85.9595C102.183 86.9076 102.604 87.798 103.304 88.437C104.004 89.0761 104.927 89.4122 105.873 89.3723Z" fill="#225B40"/>
<path fill-rule="evenodd" clip-rule="evenodd" d="M86.3724 21.5542C82.8082 22.2719 80.2958 24.806 80.7778 27.2228C81.2599 29.6396 84.5465 31.0312 88.0815 30.3134C91.6164 29.5957 94.1581 27.0617 93.6761 24.6448C93.194 22.228 89.9512 20.8511 86.3724 21.5542Z" fill="#225B40"/>
<path fill-rule="evenodd" clip-rule="evenodd" d="M87.877 20.529C85.5836 20.9831 83.9914 22.609 84.2836 24.1616C84.5757 25.7142 86.6938 26.5931 88.9871 26.139C91.2805 25.6849 92.8727 24.0591 92.5659 22.5064C92.2592 20.9538 90.1557 20.0896 87.877 20.529Z" fill="#419150"/>
<path fill-rule="evenodd" clip-rule="evenodd" d="M79.6823 9.71911C76.5271 10.349 74.3214 12.6486 74.745 14.7139C75.1686 16.7792 78.0609 18.0682 81.2161 17.4384C84.3713 16.8085 86.577 14.5089 86.1533 12.4436C85.7297 10.3783 82.8375 9.08927 79.6823 9.71911Z" fill="#225B40"/>
<path fill-rule="evenodd" clip-rule="evenodd" d="M80.9969 8.81101C78.9811 9.22114 77.5788 10.642 77.8417 12.0042C78.1047 13.3664 79.9598 14.1574 81.9756 13.7619C83.9914 13.3664 85.4083 11.9163 85.1454 10.5541C84.8825 9.19185 83.0127 8.43018 80.9969 8.81101Z" fill="#419150"/>
<path fill-rule="evenodd" clip-rule="evenodd" d="M70.9473 1.48714C68.2741 2.08769 66.4044 4.02116 66.7696 5.8814C67.1347 7.74163 69.691 8.8109 72.481 8.28359C75.0081 7.78558 76.8632 6.11576 76.8632 4.402C76.4104 4.10905 75.4025 2.04375 74.9204 1.78009C73.4597 0.930537 72.5102 2.0291 70.9473 1.48714Z" fill="#225B40"/>
<path fill-rule="evenodd" clip-rule="evenodd" d="M71.5753 1.12104C69.7932 1.51653 68.5516 2.5858 68.7853 3.40606C69.019 4.22632 70.6551 4.63645 72.4372 4.22632C74.2193 3.81619 75.4609 2.76157 75.2272 1.95595C74.9934 1.15034 73.3282 0.725561 71.5753 1.12104Z" fill="#419150"/>
<path fill-rule="evenodd" clip-rule="evenodd" d="M90.8426 38.4428C87.2638 39.1459 84.7659 41.6946 85.2333 44.1114C85.7008 46.5282 89.002 47.9051 92.537 47.202C96.072 46.4989 98.6137 43.9503 98.1462 41.5334C97.6788 39.1166 94.4067 37.7251 90.8426 38.4428Z" fill="#225B40"/>
<path fill-rule="evenodd" clip-rule="evenodd" d="M92.1862 39.1312C89.9074 39.5853 88.3006 41.2112 88.6074 42.7638C88.9141 44.3164 91.0176 45.1953 93.2963 44.7412C95.5751 44.2871 97.1965 42.6613 96.8897 41.1086C96.583 39.556 94.4795 38.6771 92.1862 39.1312Z" fill="#419150"/>
<path fill-rule="evenodd" clip-rule="evenodd" d="M85.1455 26.7249C84.0061 26.9446 83.2027 27.7649 83.3488 28.5265C83.4949 29.2882 84.5612 29.7423 85.7006 29.5226C86.84 29.3029 87.6434 28.4826 87.4973 27.7063C87.3512 26.93 86.2849 26.4905 85.1455 26.7249Z" fill="#419150"/>
<path fill-rule="evenodd" clip-rule="evenodd" d="M92.6244 56.2396C88.8557 56.9719 86.1972 59.6378 86.6938 62.1864C87.1905 64.7351 90.6378 66.2145 94.4065 65.4821C98.1752 64.7498 100.834 62.0986 100.337 59.5352C99.8404 56.9719 96.4077 55.5072 92.6244 56.2396Z" fill="#225B40"/>
<path fill-rule="evenodd" clip-rule="evenodd" d="M94.6258 58.0265C92.2156 58.4806 90.5065 60.1944 90.8279 61.8203C91.1493 63.4461 93.355 64.3982 95.7652 63.9295C98.1754 63.4608 99.8698 61.7617 99.5631 60.1358C99.2563 58.5099 97.036 57.5578 94.6258 58.0265Z" fill="#419150"/>
<path fill-rule="evenodd" clip-rule="evenodd" d="M93.0041 77.8009C89.2354 78.5186 86.5769 81.1844 87.0735 83.6599C87.5702 86.1353 91.0175 87.7026 94.7862 86.9702C98.5549 86.2378 101.213 83.572 100.717 81.0233C100.22 78.4746 96.7728 77.0685 93.0041 77.8009Z" fill="#225B40"/>
<path fill-rule="evenodd" clip-rule="evenodd" d="M95.2537 80.4667C92.8435 80.9354 91.1491 82.6345 91.4704 84.275C91.7918 85.9156 93.9829 86.853 96.4077 86.4429C98.8325 86.0327 100.527 84.275 100.206 82.6345C99.8843 80.994 97.6785 79.998 95.2537 80.4667Z" fill="#419150"/>
<path fill-rule="evenodd" clip-rule="evenodd" d="M62.1829 0.0224318C60.3715 0.198202 58.9985 1.06241 59.1299 1.94126C59.2614 2.82011 60.839 3.40601 62.6503 3.21559C64.4616 3.02517 65.8347 2.21956 65.7324 1.34071C65.6302 0.461857 63.9942 -0.124043 62.1829 0.0224318Z" fill="#419150"/>
<path fill-rule="evenodd" clip-rule="evenodd" d="M27.5635 53.3834C25.9567 53.7056 24.8173 54.8481 25.0364 55.9467C25.2555 57.0453 26.7308 57.6605 28.3523 57.4115C29.9737 57.1625 31.0984 55.9467 30.8793 54.8481C30.6602 53.7496 29.2141 53.0611 27.5635 53.3834Z" fill="#225B40"/>
<path fill-rule="evenodd" clip-rule="evenodd" d="M28.2354 52.9294C27.2129 53.1345 26.4825 53.8668 26.6286 54.5553C26.7747 55.2437 27.7095 55.6685 28.7467 55.4634C29.7838 55.2583 30.4995 54.5113 30.3681 53.8229C30.2366 53.1345 29.2141 52.7536 28.2354 52.9294Z" fill="#419150"/>
<path fill-rule="evenodd" clip-rule="evenodd" d="M20.8149 45.4297C19.3542 45.7227 18.3025 46.7627 18.4924 47.7733C18.6823 48.784 20.0554 49.3406 21.5307 49.0477C23.006 48.7547 24.0432 47.7001 23.8387 46.7041C23.6342 45.7081 22.2903 45.0636 20.8149 45.4297Z" fill="#225B40"/>
<path fill-rule="evenodd" clip-rule="evenodd" d="M21.4285 44.9316C20.4937 45.122 19.8217 45.7958 19.9678 46.3964C20.1139 46.9969 20.9611 47.3924 21.9106 47.202C22.86 47.0116 23.5174 46.3524 23.3713 45.7372C23.2252 45.122 22.378 44.7412 21.4285 44.9316Z" fill="#419150"/>
<path fill-rule="evenodd" clip-rule="evenodd" d="M15.8194 40.0248C14.5486 40.2885 13.6575 41.1966 13.8182 42.0608C13.9789 42.925 15.1621 43.4231 16.4475 43.1594C17.733 42.8957 18.624 42.0022 18.4487 41.138C18.2735 40.2738 17.1049 39.7758 15.8194 40.0248Z" fill="#225B40"/>
<path fill-rule="evenodd" clip-rule="evenodd" d="M16.3597 39.6732C15.5417 39.8343 14.972 40.4056 15.0742 40.9622C15.1765 41.5188 15.9361 41.841 16.7541 41.6799C17.5721 41.5188 18.2148 40.9329 18.0395 40.3763C17.8642 39.8197 17.1777 39.5707 16.3597 39.6732Z" fill="#419150"/>
<path fill-rule="evenodd" clip-rule="evenodd" d="M12.4305 33.7118C11.408 33.9169 10.6922 34.6492 10.8237 35.3377C10.9551 36.0261 11.9046 36.4362 12.9271 36.2312C13.9496 36.0261 14.68 35.2937 14.5339 34.6053C14.3879 33.9169 13.453 33.5653 12.4305 33.7118Z" fill="#225B40"/>
<path fill-rule="evenodd" clip-rule="evenodd" d="M12.8687 33.4774C12.2113 33.6092 11.7439 34.078 11.8315 34.5174C11.9192 34.9568 12.5181 35.2205 13.1754 35.0886C13.8328 34.9568 14.3002 34.4881 14.2125 34.0487C14.1249 33.6092 13.5114 33.3456 12.8687 33.4774Z" fill="#419150"/>
</svg>
