<svg width="166" height="71" viewBox="0 0 166 71" fill="none" xmlns="http://www.w3.org/2000/svg">
<path fill-rule="evenodd" clip-rule="evenodd" d="M144.204 44.1803C142.324 47.8611 151.009 50.9593 147.222 54.7724C140.126 61.7897 121.351 57.7117 114.864 61.8162C87.7213 79.1342 42.546 64.676 26.0488 60.5451C0.760152 54.1898 34.1517 48.8938 24.9896 44.1009C18.5284 39.5728 5.47364 38.1163 2.24305 34.4621C-9.40827 21.3808 27.108 8.8027 47.9215 2.68576C67.8346 -2.92806 125.72 -0.650755 138.087 18.2826C141.264 23.1285 172.511 27.895 163.958 36.8188C158.874 42.0354 145.634 42.6709 144.204 44.1803Z" fill="#ACF3FF"/>
<path fill-rule="evenodd" clip-rule="evenodd" d="M127.867 41.7971C125.378 44.4451 132.872 46.4047 129.615 49.5823C123.445 55.6463 121.671 53.2366 110.92 58.1884C78.3224 73.2027 6.0578 55.1961 31.7701 49.1321C45.5663 45.8751 17.6826 38.9372 12.2277 31.5228C6.77277 24.1083 36.5101 13.2779 50.3063 7.82294C70.7226 -0.121135 121.273 3.7185 131.971 20.0833C134.619 24.2672 156.783 28.5835 149.316 36.3422C144.947 40.8173 132.024 37.5338 127.867 41.7971Z" fill="#00D8E7"/>
<path fill-rule="evenodd" clip-rule="evenodd" d="M108.562 16.7997C116.718 20.6393 136.34 29.8809 122.358 33.138C106.894 36.7393 126.41 41.6646 112.534 42.9092C108.403 43.2799 101.148 46.0603 99.294 50.0324C96.9108 55.3284 88.1988 56.7848 76.3091 50.9592C67.5442 46.6959 58.7263 50.0059 50.1467 44.2861C49.3787 43.783 31.0544 36.9246 37.9393 27.9743C46.5983 16.6937 53.8274 16.0847 61.9304 14.39C71.4897 9.83535 108.721 16.7997 108.562 16.7997Z" fill="#F1A90F"/>
<path fill-rule="evenodd" clip-rule="evenodd" d="M120.03 28.7423C107.955 32.8997 115.528 41.3469 109.702 39.3344C91.166 33.1645 108.458 63.4843 78.6674 48.9467C69.9024 44.6834 63.8914 46.0339 60.6608 44.2067C54.8616 40.9496 63.3088 36.2626 40.4299 32.1847C35.2662 31.2579 38.3115 22.1751 44.4019 18.9446C68.2341 6.31348 81.8185 9.70295 106.604 15.2903C109.331 15.9258 130.013 25.3263 120.03 28.7423Z" fill="#FFCC00"/>
</svg>
