<svg width="208" height="104" viewBox="0 0 208 104" fill="none" xmlns="http://www.w3.org/2000/svg">
<path fill-rule="evenodd" clip-rule="evenodd" d="M26.6834 63.4583C29.03 68.5243 18.1485 71.7292 22.8832 76.9605C31.8126 87.0303 55.3821 83.784 63.5017 89.9872C97.5788 115.958 146.566 98.0926 167.332 94.7636C183.675 92.1583 164.84 82.1092 176.345 76.8158C184.651 71.7499 200.848 71.295 204.898 66.8494C219.434 50.8866 173.749 30.1061 147.542 19.7675C122.519 9.88377 49.8376 6.20323 34.3668 29.8993C30.3798 35.9577 -8.97196 38.6871 1.8887 51.5276C8.13929 58.93 24.9183 61.2872 26.6834 63.4583Z" fill="#ACF3FF"/>
<path fill-rule="evenodd" clip-rule="evenodd" d="M50.0451 61.742C53.0354 65.2571 44.0645 67.0147 47.9685 71.3982C55.3405 79.6691 57.5001 76.8777 70.3336 84.2801C109.395 106.777 187.703 88.2295 156.471 78.9247C149.951 76.9811 163.739 77.6221 167.457 72.308C172.17 65.588 187.994 66.3323 188.513 61.4112C189.572 51.0726 159.441 35.6681 143.015 27.3559C118.552 15.0116 57.9985 14.474 45.1858 33.9312C41.9256 38.9144 15.4903 41.954 24.4198 52.5407C29.5905 58.6611 45.0612 55.9317 50.0451 61.742Z" fill="#00D8E7"/>
<path fill-rule="evenodd" clip-rule="evenodd" d="M113.839 21.6077C101.753 21.6077 95.7517 27.6661 87.383 32.2771C85.8048 32.794 65.8693 28.5552 65.9939 28.5759C53.9911 33.0835 26.9952 41.3544 47.4706 47.8056C70.0433 54.9806 39.9117 62.4864 60.2002 66.0429C66.2431 67.1181 76.8131 72.06 79.3881 78.0357C82.8352 86.0171 95.5233 89.2634 112.967 82.2952C125.759 77.1879 146.546 81.9437 151.135 75.8646C153.378 72.9077 137.575 69.1858 145.05 67.2422C156.14 64.3474 178.775 73.6935 168.994 53.6986C159.504 34.3035 145.57 34.3655 133.941 31.0158C123.724 25.0814 123.225 21.6077 113.839 21.6077Z" fill="#F1A90F"/>
<path fill-rule="evenodd" clip-rule="evenodd" d="M49.3599 44.518C59.0785 51.4655 55.9428 55.8284 53.9908 59.9638C54.6276 60.8022 55.4915 61.4422 56.4811 61.8085C57.4706 62.1748 58.5447 62.2522 59.5768 62.0315C94.983 54.7118 66.2428 96.5624 109.789 79.1729C122.56 74.0863 131.365 76.795 136.058 74.5619C144.531 70.4265 122.893 55.022 165.608 59.633C173.167 60.4394 168.703 45.3037 159.835 39.8656C151.392 34.7969 142.315 30.8552 132.84 28.1416C125.052 14.474 101.545 16.9139 87.3619 25.4122C79.7822 30.1473 75.8782 25.8465 68.9631 26.7976C64.9968 27.3559 36.2773 35.1512 49.3599 44.518Z" fill="#FFCC00"/>
<path fill-rule="evenodd" clip-rule="evenodd" d="M87.2579 17.679L82.6893 29.5477L89.2099 37.9219L94.2353 34.3448L87.2579 17.679Z" fill="#916245"/>
<path d="M89.1683 38.1493V38.0252L82.6063 29.5889L87.3617 17.1826L87.5278 17.5755L94.5675 34.3654L89.1683 38.1493ZM82.9385 29.5269L89.2929 37.6737L94.0691 34.2826L87.2163 18.1544L82.9385 29.5269Z" fill="#6E452B"/>
<path fill-rule="evenodd" clip-rule="evenodd" d="M88.5247 48.6947L79.4915 48.7981L79.803 41.7678L76.6258 39.7415V21.9798L91.1828 18.0718L90.0614 33.5383L88.5247 48.6947Z" fill="#96A499"/>
<path fill-rule="evenodd" clip-rule="evenodd" d="M72.1819 17.5548L72.3896 43.3806L62.3388 44.6212L63.2525 15.9006L72.1819 17.5548Z" fill="#57564A"/>
<path fill-rule="evenodd" clip-rule="evenodd" d="M79.4912 48.7981L72.3892 43.3807L69.648 30.2714L72.1815 17.5549L77.2692 25.1848L78.266 35.42L82.2531 36.5986L79.4912 48.7981Z" fill="#57564A"/>
<path fill-rule="evenodd" clip-rule="evenodd" d="M62.3388 44.6212L54.5515 41.0027L58.8086 21.1733L62.8995 21.5041L63.2525 15.9006L65.4122 24.9986L62.3388 44.6212Z" fill="#96A499"/>
<path fill-rule="evenodd" clip-rule="evenodd" d="M107.172 9.1394L109 15.3012L101.046 13.523L107.172 9.1394Z" fill="#57564A"/>
<path fill-rule="evenodd" clip-rule="evenodd" d="M103.56 49.9148L88.5252 48.6949L90.0619 33.5385L91.1832 18.072L97.6623 13.6677L103.726 33.5385L103.56 49.9148Z" fill="#57564A"/>
<path fill-rule="evenodd" clip-rule="evenodd" d="M110.142 14.9702L99.0325 18.1545L97.8073 27.3765L100.756 38.3768L103.56 49.9146L108.626 46.4202L110.08 35.3786L110.142 14.9702Z" fill="#96A499"/>
<path fill-rule="evenodd" clip-rule="evenodd" d="M113.922 44.9728L108.626 46.3995L109.851 36.8673L105.179 24.9573L110.142 14.9702L110.246 24.9986L116.04 29.2581L113.922 44.9728Z" fill="#96A499"/>
<path fill-rule="evenodd" clip-rule="evenodd" d="M95.7309 2.39855L107.173 9.13931L101.774 13.6263L110.143 14.9703L98.5966 21.5456L91.1831 18.0719L86.22 22.1453L96.3123 30.2921L90.0617 33.5384L77.2698 25.1848L72.1821 17.5549L63.2527 15.9008L65.7446 10.504L62.2352 8.72577L70.0847 6.74076L71.8499 3.90799L81.4853 0L95.7309 2.39855Z" fill="#B8C8BA"/>
<path fill-rule="evenodd" clip-rule="evenodd" d="M54.5515 41.0029L58.8086 21.1735L58.9747 11.021L62.235 8.72583L65.7444 10.5041L63.2525 15.9008L64.6023 21.3596L61.9858 32.5873L54.5515 41.0029Z" fill="#57564A"/>
<path fill-rule="evenodd" clip-rule="evenodd" d="M90.0619 33.5383L88.5252 48.6947L92.8653 51.941L98.6383 51.7136L96.3125 30.292L90.0619 33.5383Z" fill="#96A499"/>
<path fill-rule="evenodd" clip-rule="evenodd" d="M90.0619 33.5383L92.8653 51.941L88.5252 48.6947L90.0619 33.5383Z" fill="#57564A"/>
</svg>
