<svg width="100" height="69" viewBox="0 0 100 69" fill="none" xmlns="http://www.w3.org/2000/svg">
<path fill-rule="evenodd" clip-rule="evenodd" d="M14.0907 49.502C20.4965 53.549 31.0753 52.6528 23.6861 61.993C12.0308 76.7666 73.5366 62.6512 83.0522 56.0136C86.707 53.493 93.6842 51.1404 97.299 48.6478C101.698 45.581 91.6242 37.249 91.9831 33.6361C92.3419 29.6591 107.054 31.4236 94.2025 24.3798C86.388 20.1508 78.4141 18.7505 69.4168 16.3559C56.1268 10.3484 29.9855 15.1516 16.257 23.5816C-0.275678 33.8041 -9.1002 34.8264 14.0907 49.502Z" fill="#ACF3FF"/>
<path fill-rule="evenodd" clip-rule="evenodd" d="M17.5595 45.2029C23.0216 49.502 29.64 50.8043 29.8792 57.4699C30.2248 67.4824 67.8353 60.3546 75.1448 55.2574C78.5204 52.8908 76.1947 48.0316 90.3352 46.3792C95.1062 45.8191 88.5144 37.375 88.8201 34.0282C89.1524 30.3453 99.8773 30.6674 90.8933 25.4301C83.7168 21.2291 76.2744 20.1648 67.8885 17.9383C55.5953 12.3369 32.4442 18.4704 20.5098 26.6904C14.4363 30.8074 1.79759 32.7819 17.5595 45.2029Z" fill="#00D8E7"/>
<path fill-rule="evenodd" clip-rule="evenodd" d="M48.4318 18.6665L52.9903 31.2136L46.4915 40.0357L41.4679 36.2688L48.4318 18.6665Z" fill="#916245"/>
<path d="M46.5181 40.2458L41.2952 36.3108L48.4319 18.2744L53.1631 31.2416V31.3116L46.5181 40.2458ZM41.6274 36.2128L46.5181 39.8397L52.8973 31.1856L48.485 19.0586L41.6274 36.2128Z" fill="#6E452B"/>
<path fill-rule="evenodd" clip-rule="evenodd" d="M47.1694 51.4347L56.1933 51.5327L55.861 44.1109L59.0373 41.9543V23.2178L44.5114 19.0728L39.3948 31.9839L47.1694 51.4347Z" fill="#57564A"/>
<path fill-rule="evenodd" clip-rule="evenodd" d="M63.4894 18.5265L63.2635 45.8191L73.3107 47.1215L72.3937 16.79L63.4894 18.5265Z" fill="#57564A"/>
<path fill-rule="evenodd" clip-rule="evenodd" d="M56.1931 51.5327L63.2634 45.8193L66.0011 31.9559L63.4893 18.5266L58.3993 26.5926L57.4158 37.4032L53.4288 38.6635L56.1931 51.5327Z" fill="#96A499"/>
<path fill-rule="evenodd" clip-rule="evenodd" d="M73.3106 47.1215L81.072 43.2985L76.8192 22.3634L72.7392 22.7275L72.3936 16.79L70.2407 26.3964L73.3106 47.1215Z" fill="#57564A"/>
<path fill-rule="evenodd" clip-rule="evenodd" d="M28.5634 9.66235L26.7294 16.1599L34.6768 14.2975L28.5634 9.66235Z" fill="#57564A"/>
<path fill-rule="evenodd" clip-rule="evenodd" d="M32.1782 52.7089L47.1693 51.4345L39.3947 31.9838L44.5113 19.0726L38.0391 14.4375L31.9922 35.4286L32.1782 52.7089Z" fill="#96A499"/>
<path fill-rule="evenodd" clip-rule="evenodd" d="M25.5998 15.824L36.6703 19.1708L37.9063 28.9172L34.9559 40.526L32.1783 52.709L27.1148 49.0401L25.653 37.3612L25.5998 15.824Z" fill="#57564A"/>
<path fill-rule="evenodd" clip-rule="evenodd" d="M39.9662 2.52062L28.5634 9.66236L33.9592 14.3955L25.5998 15.8239L37.1222 22.7556L44.5114 19.0727L49.4552 23.3857L39.3947 31.9838L45.6277 35.4287L58.3994 26.5925L63.4894 18.5265L72.3937 16.7901L69.9084 11.0767L73.417 9.22825L65.5759 7.11374L63.8217 4.11701L54.1997 0L39.9662 2.52062Z" fill="#B8C8BA"/>
<path fill-rule="evenodd" clip-rule="evenodd" d="M81.072 43.2986L76.8192 22.3635L76.673 11.6369L73.417 9.22827L69.9084 11.0767L72.3937 16.7901L71.0381 22.5595L73.6562 34.4064L81.072 43.2986Z" fill="#96A499"/>
</svg>
