<svg width="178" height="88" viewBox="0 0 178 88" fill="none" xmlns="http://www.w3.org/2000/svg">
<path fill-rule="evenodd" clip-rule="evenodd" d="M22.8616 62.1262C24.8744 65.7652 15.5321 68.7246 19.6891 72.3417C27.3468 79.1375 47.5412 75.1916 54.4987 79.2032C83.6854 96.0172 132.213 81.9654 149.957 77.9318C177.131 71.7718 141.205 66.5982 151.095 61.9508C158.184 57.5665 172.077 56.2293 175.556 52.6999C187.961 39.9633 148.776 27.7529 126.328 21.9217C105.017 16.2878 42.7059 18.5239 29.4253 36.9381C26.0122 41.6513 -7.68161 46.2987 1.61699 55.0236C6.95549 60.0436 21.3738 60.6574 22.8616 62.1262Z" fill="#ACF3FF"/>
<path fill-rule="evenodd" clip-rule="evenodd" d="M40.4084 59.8025C43.0996 62.3016 35.0262 64.1869 38.5268 67.3874C45.0906 73.2844 47.0816 70.9388 58.6118 75.7615C93.6184 90.3614 171.333 72.824 143.656 66.9928C128.8 63.8142 158.796 57.0623 164.66 49.872C170.523 42.6816 138.602 32.0057 123.833 26.7664C101.954 18.9404 47.541 22.7767 36.0545 38.6919C33.1008 42.7693 9.38393 46.9783 17.5011 54.5194C22.0519 58.8599 35.9232 55.6593 40.4084 59.8025Z" fill="#00D8E7"/>
<path fill-rule="evenodd" clip-rule="evenodd" d="M80.885 9.31665L84.9107 15.389L78.719 20.3652L74.1025 18.7868L80.885 9.31665Z" fill="#916245"/>
<path d="M78.7628 20.7381L73.5555 18.9624L80.9507 8.7688L85.3265 15.4988L78.7628 20.7381ZM74.6057 18.5459L78.7628 19.9927L84.4732 15.3453L80.9507 9.88681L74.6057 18.5459Z" fill="#6E452B"/>
<path fill-rule="evenodd" clip-rule="evenodd" d="M79.1561 26.1525L88.214 25.2099L87.3826 21.7901L90.3582 20.4529L90.6864 10.8731L80.8846 9.31665L79.178 17.9757L77.8215 18.5895L71.6735 25.0126L79.1561 26.1525Z" fill="#57564A"/>
<path fill-rule="evenodd" clip-rule="evenodd" d="M96.5943 8.2206L94.2314 22.1409L103.552 22.0971L100.204 8.17676L96.5943 8.2206Z" fill="#9BA89E"/>
<path fill-rule="evenodd" clip-rule="evenodd" d="M87.5365 25.5608L94.2315 22.141L97.0102 14.863L96.5945 8.2207L90.6871 10.8732L88.0616 16.1783L87.2958 20.168L87.5365 25.5608Z" fill="#57564A"/>
<path fill-rule="evenodd" clip-rule="evenodd" d="M99.7012 28.4983L111.122 16.6606L107.643 11.1144L103.443 9.64561L103.224 6.64233L100.204 8.17686L99.7012 28.4983Z" fill="#57564A"/>
<path fill-rule="evenodd" clip-rule="evenodd" d="M62.5719 6.11621L61.0842 8.81258L64.6067 7.12461L62.5719 6.11621Z" fill="#9BA89E"/>
<path fill-rule="evenodd" clip-rule="evenodd" d="M83.9045 9.79893L81.1915 17.6688L83.1169 16.8358L81.8697 23.0616L82.7668 25.8895L79.1567 26.1525L73.9933 25.3634L74.4965 22.0751L75.5248 17.0989L76.8813 16.507L80.8852 9.31665L83.9045 9.79893Z" fill="#9BA89E"/>
<path fill-rule="evenodd" clip-rule="evenodd" d="M64.432 29.5944L79.1566 26.1527L77.822 18.5897L80.8851 9.31676L71.302 7.89185L65.3072 19.0281L64.432 29.5944Z" fill="#9BA89E"/>
<path fill-rule="evenodd" clip-rule="evenodd" d="M59.7058 9.47021L71.3017 7.89185L68.0417 16.529L67.9761 21.4395L64.4317 29.5944L60.931 28.4106L56.7084 22.974L59.7058 9.47021Z" fill="#57564A"/>
<path fill-rule="evenodd" clip-rule="evenodd" d="M60.9307 28.4106L59.5742 21.2641L64.1251 14.5122L59.7055 9.47021L53.7325 19.3131L52.7261 23.9166L60.9307 28.4106Z" fill="#57564A"/>
<path fill-rule="evenodd" clip-rule="evenodd" d="M88.6958 0L62.5722 6.11616L64.6069 7.12456L59.706 9.47019L69.9454 10.3909L80.8849 9.31674L90.6868 10.8732L96.5941 8.22065L100.204 8.17681L103.223 6.64229L88.6958 0Z" fill="#B8C8BA"/>
<path fill-rule="evenodd" clip-rule="evenodd" d="M40.9769 58.553C61.937 69.5139 85.3476 38.5604 81.5625 35.4475C73.3798 46.1672 52.7916 57.3035 40.9769 58.553Z" fill="#C6E8FB"/>
<path fill-rule="evenodd" clip-rule="evenodd" d="M83.1381 64.5815L96.2656 66.8833C99.3613 51.7103 101.271 36.3183 101.976 20.8477L86.2231 30.9755C83.2475 48.4471 64.0377 55.6813 83.1381 64.5815Z" fill="#9BA89E"/>
<path fill-rule="evenodd" clip-rule="evenodd" d="M101.866 20.9133L86.4417 48.184L89.4391 47.329L87.4044 59.4518L88.739 65.5679L83.1598 64.5814L75.1521 60.8767L76.0054 54.3659L77.6682 44.6984L79.7905 44.0189L86.1135 31.0412L101.866 20.9133Z" fill="#9BA89E"/>
<path fill-rule="evenodd" clip-rule="evenodd" d="M60.2745 65.4802L83.16 64.5814L81.2128 48.6662L86.1137 31.0411L71.2578 24.1577L61.8061 44.3696L60.2745 65.4802Z" fill="#9BA89E"/>
<path fill-rule="evenodd" clip-rule="evenodd" d="M53.2736 22.5574L71.2582 24.1577L66.0729 40.4017L65.9197 50.3541L60.2749 65.4801L54.8708 61.6L48.3946 48.7758L53.2736 22.5574Z" fill="#57564A"/>
<path fill-rule="evenodd" clip-rule="evenodd" d="M36.1644 57.1499L44.369 61.6219L54.871 61.6L52.88 46.4959L60.0344 34.6363L53.2738 22.5574L43.8439 40.0948L42.2249 49.0827L36.1644 57.1499Z" fill="#57564A"/>
<path fill-rule="evenodd" clip-rule="evenodd" d="M73.6425 14.249L64.2782 16.4193L60.9089 19.8391L53.2731 22.5574L60.0337 34.6362L67.1006 37.223L86.1136 31.0411L101.866 20.9132L110.487 35.3816L116.066 36.7626L120.77 34.9212L117.379 28.4324L122.498 27.3582L114.491 21.7463L104.755 20.2117L96.2873 15.2793L83.6412 15.8712L73.6425 14.249Z" fill="#B8C8BA"/>
<path fill-rule="evenodd" clip-rule="evenodd" d="M111.121 16.6604L107.249 62.8057L121.032 66.4885L121.864 43.3392L116.657 19.1156L111.121 16.6604Z" fill="#57564A"/>
<path fill-rule="evenodd" clip-rule="evenodd" d="M96.1569 66.8831L107.25 62.8057L111.385 38.3629L111.122 16.6604L101.867 20.9132L97.5353 36.0831L96.135 48.4469L96.1569 66.8831Z" fill="#57564A"/>
<path fill-rule="evenodd" clip-rule="evenodd" d="M132.388 63.7264L136.939 56.4264L127.815 9.90851L123.286 4.47192L118.145 5.94068L121.405 16.3973L119.129 25.2537L124.03 57.7198L132.388 63.7264Z" fill="#9BA89E"/>
<path fill-rule="evenodd" clip-rule="evenodd" d="M121.033 66.4886L132.388 63.7265L127.947 34.0664L121.558 26.2622L121.405 16.3975L116.657 19.1158L121.711 43.9531L121.033 66.4886Z" fill="#9BA89E"/>
<path fill-rule="evenodd" clip-rule="evenodd" d="M104.165 19.861L111.122 16.6604L116.657 19.1157L121.405 16.3974L118.43 5.853L123.506 4.55962L112.654 3.5293L90.4901 8.00133L96.2881 15.2793L104.165 19.861Z" fill="#B8C8BA"/>
</svg>
