<svg width="32" height="200" viewBox="0 0 32 200" fill="none" xmlns="http://www.w3.org/2000/svg">
<path d="M0.567962 18.2435C-0.402111 19.5867 -0.0996496 21.462 1.24353 22.432C2.5867 23.4021 4.46196 23.0996 5.43204 21.7565L0.567962 18.2435ZM26.568 21.7565C27.538 23.0996 29.4133 23.4021 30.7565 22.432C32.0997 21.462 32.4021 19.5867 31.432 18.2435L26.568 21.7565ZM14.3786 4.24496L11.9466 2.48848L14.3786 4.24496ZM17.6214 4.24496L15.1893 6.00143L17.6214 4.24496ZM5.43204 21.7565L16.8107 6.00143L11.9466 2.48848L0.567962 18.2435L5.43204 21.7565ZM15.1893 6.00143L26.568 21.7565L31.432 18.2435L20.0534 2.48849L15.1893 6.00143ZM16.8107 6.00143C16.4115 6.55411 15.5885 6.55411 15.1893 6.00143L20.0534 2.48849C18.0576 -0.274908 13.9424 -0.274914 11.9466 2.48848L16.8107 6.00143Z" fill="white"/>
<path d="M31.432 181.756C32.4021 180.413 32.0997 178.538 30.7565 177.568C29.4133 176.598 27.538 176.9 26.568 178.244L31.432 181.756ZM5.43204 178.244C4.46197 176.9 2.58671 176.598 1.24353 177.568C-0.099649 178.538 -0.402109 180.413 0.567963 181.756L5.43204 178.244ZM17.6214 195.755L20.0534 197.512L17.6214 195.755ZM14.3786 195.755L16.8107 193.999L14.3786 195.755ZM26.568 178.244L15.1893 193.999L20.0534 197.512L31.432 181.756L26.568 178.244ZM16.8107 193.999L5.43204 178.244L0.567963 181.756L11.9466 197.512L16.8107 193.999ZM15.1893 193.999C15.5885 193.446 16.4115 193.446 16.8107 193.999L11.9466 197.512C13.9424 200.275 18.0576 200.275 20.0534 197.512L15.1893 193.999Z" fill="white"/>
</svg>
