<svg width="48" height="34" viewBox="0 0 48 34" fill="none" xmlns="http://www.w3.org/2000/svg">
<path d="M46.8125 6.0833C47.963 4.53002 47.6366 2.33812 46.0833 1.18755C44.53 0.0369759 42.3381 0.36343 41.1876 1.9167L46.8125 6.0833ZM6.81245 1.9167C5.66188 0.363429 3.46998 0.0369761 1.91671 1.18755C0.363434 2.33812 0.0369829 4.53002 1.18755 6.0833L6.81245 1.9167ZM22.3929 28.8304L25.2053 26.7471L22.3929 28.8304ZM41.1876 1.9167L22.7947 26.7471L28.4196 30.9137L46.8125 6.0833L41.1876 1.9167ZM25.2053 26.7471L6.81245 1.9167L1.18755 6.0833L19.5804 30.9137L25.2053 26.7471ZM22.7947 26.7471C23.3943 25.9376 24.6057 25.9375 25.2053 26.7471L19.5804 30.9137C21.7792 33.882 26.2208 33.882 28.4196 30.9137L22.7947 26.7471Z" fill="white"/>
</svg>
