<svg width="69" height="101" viewBox="0 0 69 101" fill="none" xmlns="http://www.w3.org/2000/svg">
<path d="M0 10C0 4.47716 4.47715 0 10 0H59C64.5228 0 69 4.47715 69 10V100.284H0V10Z" fill="#C76D3C"/>
<path d="M9.01123 18.9539C9.01123 13.431 13.4884 8.95389 19.0112 8.95389H49.9889C55.5117 8.95389 59.9888 13.431 59.9888 18.9539V100.284H9.01123V18.9539Z" fill="#21B95C"/>
<path d="M28.8359 20C28.8359 8.95431 37.7902 0 48.8359 0H59.0001C64.523 0 69.0001 4.47715 69.0001 10V100.284H28.8359V20Z" fill="#CC5B1D" fill-opacity="0.34" style="mix-blend-mode:multiply"/>
<path d="M52.3482 16.3728H43.2101C41.5279 16.3728 40.1641 17.728 40.1641 19.3995V54.6703C40.1641 56.3418 41.5279 57.697 43.2101 57.697H52.3482C54.0304 57.697 55.3943 56.3418 55.3943 54.6703C55.3943 53.1329 55.3943 20.9534 55.3943 19.3995C55.3943 17.728 54.0304 16.3728 52.3482 16.3728Z" fill="#7CE3FF"/>
<path d="M55.3943 21.5259L40.1641 36.6593V52.5985L55.3943 37.4652C55.3943 28.5835 55.3943 22.9 55.3943 21.5259Z" fill="#B9F0FF"/>
<path d="M50.8252 72.8303C53.3486 72.8303 55.3942 70.7977 55.3942 68.2903C55.3942 65.7829 53.3486 63.7503 50.8252 63.7503C48.3017 63.7503 46.2561 65.7829 46.2561 68.2903C46.2561 70.7977 48.3017 72.8303 50.8252 72.8303Z" fill="#FFB703"/>
</svg>
