<svg width="94" height="64" viewBox="0 0 94 64" fill="none" xmlns="http://www.w3.org/2000/svg">
<path d="M92.4926 44.8993H65.7451V53.3193H92.4926V44.8993Z" fill="#A3C254"/>
<path d="M92.4926 46.3397H90.4783V48.0729H86.4147V49.2557H80.5124V52.2771H77.9009V48.0729H74.4931V49.5836H70.043V51.7384H65.7451V53.3194H92.4926V46.3397Z" fill="#8BA748"/>
<path d="M92.4926 53.331H65.7451V63.051H92.4926V53.331Z" fill="#7F4D2E"/>
<path d="M92.4926 60.8142V56.1767H91.9187V57.7928H88.6397V55.9542H85.63V54.4435H84.4473V55.6263H83.405V57.3595H81.1682V55.6263H78.2874V57.7928H76.0623V54.9822H71.8699V56.1767H68.3332V58.1207H65.7451V60.0647H68.8602V63.0509H70.5583V59.0927H73.0527V61.0367H74.8795V59.7368H78.9432V61.47H80.9106V59.8422H84.7049V61.7862H87.5975V60.3809H90.0801V60.8142H92.4926Z" fill="#945835"/>
<path d="M86.1101 57.4884H84.377V58.8937H86.1101V57.4884Z" fill="#7F4D2E"/>
<path d="M90.01 58.5774H88.2769V59.9827H90.01V58.5774Z" fill="#7F4D2E"/>
<path d="M82.6429 58.8936H80.9097V60.2989H82.6429V58.8936Z" fill="#7F4D2E"/>
<path d="M76.6253 58.9871H74.8921V60.3924H76.6253V58.9871Z" fill="#7F4D2E"/>
<path d="M73.5672 56.0829H71.834V57.4882H73.5672V56.0829Z" fill="#7F4D2E"/>
<path d="M69.0247 58.0739H67.2915V59.4792H69.0247V58.0739Z" fill="#7F4D2E"/>
<path d="M85.8877 52.031H83.7915V53.4363H85.8877V52.031Z" fill="#7F4D2E"/>
<path d="M75.8057 52.6282H73.7095V54.0335H75.8057V52.6282Z" fill="#7F4D2E"/>
<path d="M83.7906 52.7338H81.6943V54.1391H83.7906V52.7338Z" fill="#8BA748"/>
<path d="M90.0093 52.6634H87.9131V54.0687H90.0093V52.6634Z" fill="#8BA748"/>
<path d="M79.399 53.0265H77.3027V54.4318H79.399V53.0265Z" fill="#8BA748"/>
<path d="M71.2149 52.6282H69.1187V54.0335H71.2149V52.6282Z" fill="#8BA748"/>
<path d="M67.3956 44.8993H0V53.3193H67.3956V44.8993Z" fill="#A3C254"/>
<path d="M65.4633 47.1009V48.3891H64.1517V49.689H61.1421V50.7664H58.2612V48.9278H56.9496V48.3891H54.3264V47.745H51.9725V49.3611H50.7897V51.7384H49.4781V49.3611H47.3819V47.2063H45.9532V50.2277H41.2337V47.3117H36.9124V49.4782H34.5468V50.5556H31.5372V49.1503H30.4949V49.7944H27.4735V46.3397H24.7215V48.0729H20.6696V49.2557H14.7673V52.2771H12.1558V48.0729H8.74796V49.5836H4.29786V51.7384H0V53.3194H67.3956V47.1009H65.4633Z" fill="#8BA748"/>
<path d="M67.3956 53.331H0V63.051H67.3956V53.331Z" fill="#7F4D2E"/>
<path d="M65.2057 58.3315H67.3956V57.3595H65.9903V54.3381H62.3249V56.0596H58.2612V53.3193H56.8208V55.6263H54.9822V56.4929H52.6283V55.6263H49.0917V56.9262H45.6838V53.3193H45.028V55.4155H40.9761V57.6874H35.9873V55.9542H32.72V54.9822H31.666V58.3315H28.0005V56.1767H26.1736V57.7928H22.8946V55.9542H19.8849V54.4435H18.7021V55.6263H17.6599V57.3595H15.4231V55.6263H12.5423V57.7928H10.3172V54.9822H6.12475V56.1767H2.58809V58.1207H0V60.0647H3.11507V63.051H4.81314V59.0927H7.30754V61.0367H9.13442V59.7368H13.1981V61.47H15.1655V59.8422H18.9598V61.7862H21.8406V60.3809H24.335V60.8142H28.0005V59.7368H34.418V59.0927H42.4048V61.47H43.5876V60.1701H50.0051V63.051H52.4995V58.3315H55.111V60.6034H57.0784V58.9756H61.669V62.2195H64.8075V60.8142H65.2057V58.3315Z" fill="#945835"/>
<path d="M61.0137 52.031H58.9175V53.4363H61.0137V52.031Z" fill="#7F4D2E"/>
<path d="M40.1817 52.031H38.0854V53.4363H40.1817V52.031Z" fill="#7F4D2E"/>
<path d="M29.1841 52.031H27.0879V53.4363H29.1841V52.031Z" fill="#7F4D2E"/>
<path d="M20.365 57.4884H18.6318V58.8937H20.365V57.4884Z" fill="#7F4D2E"/>
<path d="M24.2649 58.5774H22.5317V59.9827H24.2649V58.5774Z" fill="#7F4D2E"/>
<path d="M34.8528 56.6332H33.1196V58.0385H34.8528V56.6332Z" fill="#7F4D2E"/>
<path d="M33.1419 58.7061H31.4087V60.1113H33.1419V58.7061Z" fill="#7F4D2E"/>
<path d="M39.6307 57.0901H37.8975V58.4954H39.6307V57.0901Z" fill="#7F4D2E"/>
<path d="M44.8641 57.4884H43.1309V58.8937H44.8641V57.4884Z" fill="#7F4D2E"/>
<path d="M47.8172 58.1909H46.084V59.5961H47.8172V58.1909Z" fill="#7F4D2E"/>
<path d="M51.9021 56.3873H50.1689V57.7926H51.9021V56.3873Z" fill="#7F4D2E"/>
<path d="M56.4124 56.8677H54.6792V58.273H56.4124V56.8677Z" fill="#7F4D2E"/>
<path d="M63.3909 56.3873H61.6577V57.7926H63.3909V56.3873Z" fill="#7F4D2E"/>
<path d="M64.7269 58.8936H62.9937V60.2989H64.7269V58.8936Z" fill="#7F4D2E"/>
<path d="M60.6507 58.1909H58.9175V59.5961H60.6507V58.1909Z" fill="#7F4D2E"/>
<path d="M53.1326 60.4744H51.3994V61.8797H53.1326V60.4744Z" fill="#7F4D2E"/>
<path d="M16.9002 58.8936H15.167V60.2989H16.9002V58.8936Z" fill="#7F4D2E"/>
<path d="M10.8685 58.9871H9.13525V60.3924H10.8685V58.9871Z" fill="#7F4D2E"/>
<path d="M7.81279 56.0829H6.07959V57.4882H7.81279V56.0829Z" fill="#7F4D2E"/>
<path d="M3.27958 58.0739H1.54639V59.4792H3.27958V58.0739Z" fill="#7F4D2E"/>
<path d="M20.1426 52.031H18.0464V53.4363H20.1426V52.031Z" fill="#7F4D2E"/>
<path d="M46.4693 52.6634H44.373V54.0687H46.4693V52.6634Z" fill="#7F4D2E"/>
<path d="M53.3194 52.6282H51.2231V54.0335H53.3194V52.6282Z" fill="#7F4D2E"/>
<path d="M10.0606 52.6282H7.96436V54.0335H10.0606V52.6282Z" fill="#7F4D2E"/>
<path d="M18.0474 52.7338H15.9512V54.1391H18.0474V52.7338Z" fill="#8BA748"/>
<path d="M24.2666 52.6634H22.1704V54.0687H24.2666V52.6634Z" fill="#8BA748"/>
<path d="M32.4507 53.0265H30.3545V54.4318H32.4507V53.0265Z" fill="#8BA748"/>
<path d="M36.7139 52.6634H34.6177V54.0687H36.7139V52.6634Z" fill="#8BA748"/>
<path d="M44.3741 53.0265H42.2778V54.4318H44.3741V53.0265Z" fill="#8BA748"/>
<path d="M50.17 53.0265H48.0737V54.4318H50.17V53.0265Z" fill="#8BA748"/>
<path d="M56.5879 53.0265H54.4917V54.4318H56.5879V53.0265Z" fill="#8BA748"/>
<path d="M64.3164 52.1951H62.2202V53.6004H64.3164V52.1951Z" fill="#8BA748"/>
<path d="M13.6563 53.0265H11.5601V54.4318H13.6563V53.0265Z" fill="#8BA748"/>
<path d="M5.46977 52.6282H3.37354V54.0335H5.46977V52.6282Z" fill="#8BA748"/>
<path d="M62.5354 42.9551H61.3877V43.4938H62.5354V42.9551Z" fill="#245760"/>
<path d="M55.6145 42.9551H54.4668V43.4938H55.6145V42.9551Z" fill="#22535D"/>
<path d="M4.91914 42.9551H3.77148V43.4938H4.91914V42.9551Z" fill="#22555E"/>
<path d="M92.4919 42.4164H91.3442V42.9551H92.4919V42.4164Z" fill="#6794A7"/>
<path d="M53.3088 42.4164H52.1611V42.9551H53.3088V42.4164Z" fill="#214C53"/>
<path d="M92.4919 41.8661H91.3442V42.4048H92.4919V41.8661Z" fill="#E6EBF0"/>
<path d="M7.22725 41.3275H6.07959V41.8661H7.22725V41.3275Z" fill="#23545D"/>
<path d="M91.3322 40.7771H90.1846V41.3158H91.3322V40.7771Z" fill="#5C8EA2"/>
<path d="M3.77119 40.7771H2.62354V41.3158H3.77119V40.7771Z" fill="#2E5157"/>
<path d="M91.3322 40.2382H90.1846V40.7769H91.3322V40.2382Z" fill="#DEE4EA"/>
<path d="M63.6838 40.2382H62.5361V40.7769H63.6838V40.2382Z" fill="#22535C"/>
<path d="M4.91914 39.6877H3.77148V40.2264H4.91914V39.6877Z" fill="#47646A"/>
<path d="M6.06758 38.6105H4.91992V39.1492H6.06758V38.6105Z" fill="#698089"/>
<path d="M89.0383 37.5214H87.8906V38.0601H89.0383V37.5214Z" fill="#7FA4B5"/>
<path d="M11.8293 37.5214H10.6816V38.0601H11.8293V37.5214Z" fill="#214E55"/>
<path d="M12.989 36.9711H11.8413V37.5098H12.989V36.9711Z" fill="#22535D"/>
<path d="M87.8786 36.4321H86.731V36.9708H87.8786V36.4321Z" fill="#6D97AA"/>
<path d="M67.1398 36.4321H65.9922V36.9708H67.1398V36.4321Z" fill="#215057"/>
<path d="M57.9221 36.4321H56.7744V36.9708H57.9221V36.4321Z" fill="#224F56"/>
<path d="M33.7273 36.4321H32.5796V36.9708H33.7273V36.4321Z" fill="#214C53"/>
<path d="M86.7302 35.3431H85.5825V35.8818H86.7302V35.3431Z" fill="#5C8EA2"/>
<path d="M9.52119 35.3431H8.37354V35.8818H9.52119V35.3431Z" fill="#567179"/>
<path d="M16.4426 34.2541H15.2949V34.7928H16.4426V34.2541Z" fill="#21525B"/>
<path d="M62.5354 33.7155H61.3877V34.2541H62.5354V33.7155Z" fill="#224B52"/>
<path d="M11.8293 33.7155H10.6816V34.2541H11.8293V33.7155Z" fill="#38595E"/>
<path d="M62.5354 33.165H61.3877V33.7037H62.5354V33.165Z" fill="#23525B"/>
<path d="M36.0354 33.165H34.8877V33.7037H36.0354V33.165Z" fill="#24555F"/>
<path d="M12.989 33.165H11.8413V33.7037H12.989V33.165Z" fill="#2F5056"/>
<path d="M57.9221 30.9867H56.7744V31.5254H57.9221V30.9867Z" fill="#245760"/>
<path d="M36.0354 30.9867H34.8877V31.5254H36.0354V30.9867Z" fill="#214E56"/>
<path d="M71.7531 30.4481H70.6055V30.9868H71.7531V30.4481Z" fill="#214A51"/>
<path d="M53.3088 30.4481H52.1611V30.9868H53.3088V30.4481Z" fill="#224D54"/>
<path d="M80.9685 29.359H79.8208V29.8977H80.9685V29.359Z" fill="#91AEBE"/>
<path d="M23.3522 28.8201H22.2046V29.3588H23.3522V28.8201Z" fill="#21525B"/>
<path d="M37.1833 27.7311H36.0356V28.2698H37.1833V27.7311Z" fill="#235660"/>
<path d="M70.5935 27.1807H69.4458V27.7194H70.5935V27.1807Z" fill="#224F57"/>
<path d="M51.0124 27.1807H49.8647V27.7194H51.0124V27.1807Z" fill="#214A51"/>
<path d="M21.0446 27.1807H19.897V27.7194H21.0446V27.1807Z" fill="#698089"/>
<path d="M22.2043 26.642H21.0566V27.1807H22.2043V26.642Z" fill="#506D74"/>
<path d="M77.5148 25.553H76.3672V26.0917H77.5148V25.553Z" fill="#588DA1"/>
<path d="M26.8063 25.553H25.6587V26.0917H26.8063V25.553Z" fill="#224D54"/>
<path d="M69.4455 25.0141H68.2979V25.5528H69.4455V25.0141Z" fill="#224F57"/>
<path d="M68.2858 25.0141H67.1382V25.5528H68.2858V25.0141Z" fill="#214E56"/>
<path d="M23.3522 25.0141H22.2046V25.5528H23.3522V25.0141Z" fill="#3B5C63"/>
<path d="M47.5471 24.4637H46.3994V25.0024H47.5471V24.4637Z" fill="#224B52"/>
<path d="M23.3522 24.4637H22.2046V25.0024H23.3522V24.4637Z" fill="#CDD5DD"/>
<path d="M46.3991 23.925H45.2515V24.4637H46.3991V23.925Z" fill="#22535C"/>
<path d="M27.966 23.3747H26.8184V23.9134H27.966V23.3747Z" fill="#23525B"/>
<path d="M45.2507 22.8361H44.103V23.3748H45.2507V22.8361Z" fill="#224D54"/>
<path d="M29.114 21.2081H27.9663V21.7468H29.114V21.2081Z" fill="#24555F"/>
<path d="M25.6604 21.2081H24.5127V21.7468H25.6604V21.2081Z" fill="#EBEDF1"/>
<path d="M44.091 20.1191H42.9434V20.6578H44.091V20.1191Z" fill="#455B5F"/>
<path d="M26.8063 20.1191H25.6587V20.6578H26.8063V20.1191Z" fill="#305359"/>
<path d="M26.8063 19.5687H25.6587V20.1074H26.8063V19.5687Z" fill="#BCC6CF"/>
<path d="M45.2507 19.03H44.103V19.5687H45.2507V19.03Z" fill="#2F4C4F"/>
<path d="M46.3991 17.941H45.2515V18.4797H46.3991V17.941Z" fill="#345053"/>
<path d="M27.966 17.941H26.8184V18.4797H27.966V17.941Z" fill="#7D919A"/>
<path d="M47.5471 17.4021H46.3994V17.9408H47.5471V17.4021Z" fill="#2F4D51"/>
<path d="M29.114 16.313H27.9663V16.8517H29.114V16.313Z" fill="#47656C"/>
<path d="M62.5354 15.7627H61.3877V16.3014H62.5354V15.7627Z" fill="#214C53"/>
<path d="M49.8527 15.2241H48.7051V15.7628H49.8527V15.2241Z" fill="#465D60"/>
<path d="M67.1398 14.6736H65.9922V15.2123H67.1398V14.6736Z" fill="#568C9F"/>
<path d="M65.9914 14.6736H64.8438V15.2123H65.9914V14.6736Z" fill="#4F8994"/>
<path d="M87.8897 41.866V41.3273V40.7769H86.7303V40.2382V39.6878V39.1491H85.5827V38.6104V38.06H84.4233V37.5213V36.9709H83.2757V36.4322V35.8818H82.128V35.3431V34.7927H80.9686V34.254V33.7153H79.821V33.1649V32.6262H78.6616V32.0758V31.5371V30.9867H77.5139V30.448V29.9093H76.3663V29.3589V28.8202H75.2069V28.2698V27.7311H74.0593V28.2698V28.8202V29.3589V29.9093H75.2069V30.448V30.9867V31.5371H76.3663V32.0758V32.6262V33.1649V33.7153V34.254V34.7927H75.2069H74.0593V34.254H72.8999V33.7153H71.7522V33.1649V32.6262H70.6046V32.0758H69.4452V31.5371V30.9867H68.2975V30.448V29.9093H67.1382V30.448V30.9867V31.5371H68.2975V32.0758V32.6262V33.1649H69.4452V33.7153V34.254H70.6046V34.7927V35.3431H71.7522V35.8818V36.4322H72.8999V36.9709V37.5213H74.0593V38.06V38.6104H75.2069V39.1491V39.6878V40.2382H76.3663V40.7769V41.3273V41.866H77.5139V42.4164V42.9551H78.6616V43.4938H79.821H80.9686H82.128H83.2757H84.4233H85.5827H86.7303H87.8897H89.0374V42.9551V42.4164V41.866H87.8897Z" fill="#296370"/>
<path d="M56.7741 40.2382H55.6265V40.7769H56.7741V40.2382Z" fill="#296370"/>
<path d="M64.8317 38.6105H63.6841V39.1492H64.8317V38.6105Z" fill="#296370"/>
<path d="M57.9221 36.9711H56.7744V37.5098H57.9221V36.9711Z" fill="#296370"/>
<path d="M34.8757 34.8044H33.728V35.3431H34.8757V34.8044Z" fill="#296370"/>
<path d="M62.5354 34.2541H61.3877V34.7928H62.5354V34.2541Z" fill="#296370"/>
<path d="M61.3877 32.6262V33.1648H62.5354V32.6262V32.0757H61.3877V32.6262Z" fill="#296370"/>
<path d="M61.3781 30.9867H60.2305V31.5254H61.3781V30.9867Z" fill="#296370"/>
<path d="M52.1608 30.4481V29.9094V29.359V28.8203H51.0132V28.2699V27.7312H49.8655V27.1808V26.6421H48.7061V26.1034V25.553H47.5585V25.0143H46.4108V24.4639H45.2514V23.9252V23.3748H44.1038V22.8361V22.2857V21.747H42.9444H41.7968V22.2857V22.8361V23.3748V23.9252V24.4639V25.0143V25.553V26.1034V26.6421V27.1808H42.9444V27.7312V28.2699V28.8203V29.359V29.9094H41.7968V30.4481V30.9868V31.5372V32.0759V32.6263H40.6374V33.165V33.7154V34.2541V34.7928H39.4897V35.3432V35.8819V36.4323H38.3421V36.971V37.5215H37.1827V38.0601V38.6106V39.1493H36.0351V39.6879V40.2384V40.7771H34.8757V41.3275V41.8662V42.4166H33.728V42.9553V43.494H34.8757H36.0351H37.1827H38.3421H39.4897H40.6374H41.7968H42.9444H44.1038H45.2514H46.4108H47.5585H48.7061H49.8655H51.0132H52.1608V42.9553V42.4166H53.3202V41.8662V41.3275V40.7771V40.2384V39.6879V39.1493V38.6106V38.0601V37.5215V36.971V36.4323V35.8819V35.3432V34.7928V34.2541V33.7154V33.165V32.6263V32.0759V31.5372V30.9868H52.1608V30.4481Z" fill="#296370"/>
<path d="M70.5935 28.8201H69.4458V29.3588H70.5935V28.8201Z" fill="#296370"/>
<path d="M56.7741 28.8201H55.6265V29.3588H56.7741V28.8201Z" fill="#296370"/>
<path d="M61.3895 28.2698V27.7311H60.2302V27.1807H59.0825V27.7311V28.2698H60.2302H61.3895Z" fill="#296370"/>
<path d="M37.1833 27.1807H36.0356V27.7194H37.1833V27.1807Z" fill="#296370"/>
<path d="M33.7285 27.1807V26.642V26.1033V25.5529V25.0142V24.4638V23.9251V23.3747V22.836V22.2856V21.7469V21.2082V20.6578V20.1191V19.5687V19.03H34.8761V18.4795V17.9408V17.4022V16.8517V16.313H33.7285V16.8517V17.4022V17.9408H32.5808V18.4795V19.03H31.4215V19.5687V20.1191H30.2738V20.6578H29.1261V21.2082V21.7469H27.9668V22.2856V22.836V23.3747V23.9251H26.8191V24.4638V25.0142V25.5529V26.1033H25.6597V26.642V27.1807H24.5121V27.7311V28.2698H23.3644V28.8202V29.3589H22.2051V29.9093H21.0574V30.448V30.9867H19.898V31.5371H18.7504V32.0758V32.6262H17.6027V33.1649V33.7153H16.4433V34.254V34.7927H15.2957V35.3431H14.148V35.8818V36.4322H12.9887V36.9709V37.5213H11.841V38.06H10.6816V38.6104V39.1491H9.53398V39.6878H8.37461V40.2382H7.22695V40.7769V41.3273V41.866H6.07929V42.4164H4.91992V42.9551V43.4938H6.07929H7.22695H8.37461H9.53398H10.6816H11.841H12.9887H14.148H15.2957H16.4433H17.6027H18.7504H19.898H21.0574H22.2051H23.3644H24.5121H25.6597V42.9551V42.4164V41.866H26.8191V41.3273V40.7769V40.2382H27.9668V39.6878V39.1491H29.1261V38.6104V38.06H30.2738V37.5213H31.4215V36.9709V36.4322V35.8818H32.5808V35.3431V34.7927V34.254V33.7153V33.1649V32.6262V32.0758V31.5371V30.9867V30.448V29.9093V29.3589V28.8202V28.2698V27.7311H33.7285V27.1807Z" fill="#296370"/>
<path d="M74.0593 26.6421V26.1034H72.8999V26.6421V27.1808V27.7312H74.0593V27.1808V26.6421Z" fill="#296370"/>
<path d="M72.9016 25.0141H71.7539V25.5528V26.1032H72.9016V25.5528V25.0141Z" fill="#296370"/>
<path d="M71.7531 23.925H70.6055V24.4637H71.7531V23.925Z" fill="#296370"/>
<path d="M59.0822 23.9252V23.3748V22.8361H57.9229V23.3748V23.9252V24.4639H59.0822V23.9252Z" fill="#296370"/>
<path d="M67.1398 23.3747H65.9922V23.9134H67.1398V23.3747Z" fill="#296370"/>
<path d="M68.2858 22.8361H67.1382V23.3748H68.2858V22.8361Z" fill="#296370"/>
<path d="M70.5935 22.2974H69.4458V22.8361H70.5935V22.2974Z" fill="#296370"/>
<path d="M65.9914 21.747H64.8438V22.2857H65.9914V21.747Z" fill="#296370"/>
<path d="M67.1398 20.6577H65.9922V21.1964H67.1398V20.6577Z" fill="#296370"/>
<path d="M55.6145 19.03H54.4668V19.5687H55.6145V19.03Z" fill="#296370"/>
<path d="M63.6838 18.4797H62.5361V19.0184H63.6838V18.4797Z" fill="#296370"/>
<path d="M64.8317 16.8517H63.6841V17.3904H64.8317V16.8517Z" fill="#296370"/>
<path d="M36.0353 15.7628V15.2241H34.876V15.7628V16.3132H36.0353V15.7628Z" fill="#296370"/>
<path d="M63.6838 15.2241H62.5361V15.7628H63.6838V15.2241Z" fill="#296370"/>
<path d="M37.1833 14.6737V14.135H36.0356V14.6737V15.2241H37.1833V14.6737Z" fill="#296370"/>
<path d="M31.4221 14.135H30.2744V14.6737H31.4221V14.135Z" fill="#8A9AA4"/>
<path d="M53.3088 13.5961H52.1611V14.1348H53.3088V13.5961Z" fill="#335555"/>
<path d="M51.0124 13.5961H49.8647V14.1348H51.0124V13.5961Z" fill="#687578"/>
<path d="M40.6374 13.5961H39.4897V14.1348H40.6374V13.5961Z" fill="#6A8E9C"/>
<path d="M91.345 42.9552V41.3274H90.174V39.1492H89.0029V38.0601H87.8318V36.971H86.6607V35.8819H85.4896V34.219H84.3186V33.165H83.1475V32.0759H81.9764V30.9868H80.8053V29.9094H79.6342V28.2699H78.4632V27.1925H77.2921V26.1151H76.121V24.4756H74.9499V23.3865H73.7788V22.3091H72.6078V21.22H71.4367V20.166H70.2656V18.9949H69.0945V17.4023H67.9234V16.3132H66.7524V15.2241H63.2391V16.8519H64.4102V18.9949H65.5813V20.6227H66.7524V22.8009H67.9234V24.9792H69.0945V27.1925H70.2656V29.3707H69.0945V27.1925H67.9234V25.553H66.7524V23.9252H65.5813V24.4639H63.2391V23.9252H62.068V23.3748H61.4474V22.2974H60.2763V21.2083H59.1052V20.166H57.9341V18.9949H56.7631V17.941H55.592V19.5688H54.4209V27.1925H55.592V28.832H56.7631V30.9985H57.9341V37.5331H56.7631V40.777H55.592V43.4939H61.4474V42.9552H62.6185V40.2383H63.7895V38.6105H64.9606V37.5214H66.1317V36.4323H67.3028V29.9094H68.4739V30.9868H69.6449V32.0759H70.816V32.6263H71.9871V33.7154H73.1582V34.219H74.3293V34.7694H76.6714V31.5372H75.5003V29.9094H74.3293V27.7312H73.1582V26.1034H71.9871V25.0143H73.1582V26.1034H74.3293V27.7312H75.5003V28.8203H76.6714V29.9094H77.8425V30.9868H79.0136V32.6263H80.1846V33.7154H81.3557V34.8045H82.5268V35.8819H83.6979V36.971H84.869V38.0601H86.04V39.1492H87.2111V40.777H88.3822V41.8661H89.5533V43.4939H93.0665V42.9552H91.345ZM69.4459 22.2974H70.6169V22.8361H69.4459V22.2974ZM61.4474 34.219V32.0759H62.6185V34.8045H61.4474V34.219ZM59.1052 23.3396V24.4287H57.9341V22.8361H59.1052V23.3396ZM60.2763 30.9517V28.2699H59.1052V25.553H60.2763V27.7312H61.4474V31.5372H60.2763V30.9517ZM70.6521 30.413V29.8743H71.8231V30.9517H70.6521V30.413ZM70.6521 24.4287V23.89H71.8231V24.4287H70.6521Z" fill="#377D93"/>
<path d="M64.8438 22.836V23.3747H65.9914V22.836V22.2856H64.8438V22.836Z" fill="#377D93"/>
<path d="M64.8317 20.6577H63.6841V21.1964H64.8317V20.6577Z" fill="#377D93"/>
<path d="M41.7975 20.1658V17.9408H40.6264V14.1348H39.4553V13.5961H38.2842V14.1348H37.1131V15.2239H35.9421V16.313H34.771V18.9947H33.5999V27.6959H32.4288V35.8934H31.2577V37.5329H30.0867V38.0716H28.9156V39.1607H27.7445V40.2498H26.5734V41.8776H25.4023V43.5054H33.4711V42.4163H34.6422V40.7768H35.8132V39.149H36.9843V37.5212H38.1554V36.4321H39.3265V34.8043H40.4976V32.6261H41.6686V29.9092H42.8397V27.1923H41.6686V21.7468H42.8397V20.6577H41.6686L41.7975 20.1658ZM33.7287 34.8043V33.7152H34.8998V30.9866H36.0709V27.1923H37.242V31.5487H36.0709V33.7269H34.8998V35.3899H33.7287V34.8043ZM32.5576 36.4321H33.7287V36.9708H32.5576V36.4321Z" fill="#377D93"/>
<path d="M63.6838 19.03H62.5361V19.5687H63.6838V19.03Z" fill="#377D93"/>
<path d="M61.3877 17.4022V17.9408V18.4795H62.5354V17.9408V17.4022V16.8517V16.313H61.3877V16.8517V17.4022Z" fill="#377D93"/>
<path d="M62.5375 14.6735V14.1348H61.3898V13.5844H60.2305V14.1348V14.6735V15.2239V15.7626V16.313H61.3898V15.7626V15.2239H62.5375H63.6852V14.6735H62.5375Z" fill="#377D93"/>
<path d="M38.3293 13.5961H37.1816V14.1348H38.3293V13.5961Z" fill="#7F96A0"/>
<path d="M34.8757 13.5961H33.728V14.1348H34.8757V13.5961Z" fill="#6A777C"/>
<path d="M32.5676 13.5961H31.4199V14.1348H32.5676V13.5961Z" fill="#47656C"/>
<path d="M77.5142 42.9551V42.4164V41.866H76.3666V41.3273V40.7769V40.2382H75.2072V39.6878V39.1491V38.6104H74.0596V38.06V37.5213H72.9002V36.9709V36.4322H71.7525V35.8818V35.3431H70.6049V34.7927V34.254H69.4455V33.7153V33.1649H68.2978V32.6262V32.0758V31.5371H67.1385V32.0758V32.6262V33.1649V33.7153V34.254V34.7927V35.3431V35.8818V36.4322V36.9709H65.9908V37.5213H64.8432V38.06V38.6104V39.1491H63.6838V39.6878V40.2382V40.7769H62.5361V41.3273V41.866V42.4164V42.9551V43.4938H63.6838H64.8432H65.9908H67.1385H68.2978H69.4455H70.6049H71.7525H72.9002H74.0596H75.2072H76.3666H77.5142H78.6619V42.9551H77.5142Z" fill="#214044"/>
<path d="M33.728 34.2541V34.7928H34.8757V34.2541V33.7155H33.728V34.2541Z" fill="#214044"/>
<path d="M34.876 32.0758V32.6262V33.1649H36.0353V32.6262V32.0758V31.5371H34.876V32.0758Z" fill="#214044"/>
<path d="M56.7738 30.9867V30.448V29.9093V29.3589H55.6261V28.8202V28.2697V27.7311V27.1806H54.4668V26.6419V26.1033V25.5528V25.0141V24.4637V23.925V23.3746V22.8359V22.2855V21.7468V21.2081V20.6577V20.119V19.5686V19.0299H55.6261V18.4795V17.9408V17.4021V16.8517V16.313H54.4668V15.7626V15.2239H53.3191V14.6735V14.1348H52.1598V13.5844V13.0457H51.0121V13.5844V14.1348H49.8644V14.6735V15.2239V15.7626H48.7051V16.313H47.5574V16.8517V17.4021V17.9408H46.4098V18.4795H45.2504V19.0299V19.5686H44.1027V20.119V20.6577H42.9434V21.2081V21.7468H44.1027V22.2855V22.8359H45.2504V23.3746V23.925H46.4098V24.4637H47.5574V25.0141V25.5528H48.7051V26.1033V26.6419H49.8644V27.1806H51.0121V27.7311V28.2697V28.8202H52.1598V29.3589V29.9093V30.448H53.3191V30.9867V31.5371V32.0758V32.6262V33.1649V33.7153V34.254V34.7927V35.3431V35.8818V36.4322V36.9709V37.5213V38.06V38.6104V39.1491V39.6878V40.2382V40.7769V41.3273V41.866V42.4164V42.9551H52.1598V43.4938H53.3191H54.4668V42.9551H55.6261V42.4164V41.866V41.3273V40.7769V40.2382H56.7738V39.6878V39.1491V38.6104V38.06V37.5213V36.9709V36.4322H57.9215V35.8818V35.3431V34.7927V34.254V33.7153V33.1649V32.6262V32.0758V31.5371H56.7738V30.9867Z" fill="#214044"/>
<path d="M71.7531 29.9094H70.6055V30.4481H71.7531V29.9094Z" fill="#214044"/>
<path d="M60.2305 28.8201V29.3588V29.9092V30.4479V30.9866H61.3898V30.4479V29.9092V29.3588V28.8201V28.2697H60.2305V28.8201Z" fill="#214044"/>
<path d="M36.0356 28.8201V29.3588V29.9092V30.4479V30.9866V31.537H37.1833V30.9866V30.4479V29.9092V29.3588V28.8201V28.2697H36.0356V28.8201Z" fill="#214044"/>
<path d="M69.4458 28.2698V28.8202H70.6052V28.2698V27.7311H69.4458V28.2698Z" fill="#214044"/>
<path d="M60.2302 26.6421V26.1034V25.553H59.0825V26.1034V26.6421V27.1808H60.2302V26.6421Z" fill="#214044"/>
<path d="M68.2979 26.1034V26.6421V27.1808H69.4455V26.6421V26.1034V25.553H68.2979V26.1034Z" fill="#214044"/>
<path d="M67.1382 24.4638V25.0142H68.2975V24.4638V23.9251V23.3747H67.1382V23.9251V24.4638Z" fill="#214044"/>
<path d="M33.7288 17.4021V16.8517V16.313H34.8764V15.7626V15.2239H36.0358V14.6735V14.1348H34.8764H33.7288V13.5844H32.5811V14.1348H31.4217V14.6735H30.2741V15.2239H29.1264V15.7626V16.313V16.8517H27.9671V17.4021V17.9408V18.4795H26.8194V19.0299V19.5686V20.119V20.6577H25.66V21.2081V21.7468H24.5124V22.2855V22.8359V23.3746H23.3647V23.925V24.4637V25.0141V25.5528H22.2053V26.1032V26.6419V27.1806H21.0577V27.731H19.8983V28.2697H18.7507V28.8201V29.3588H17.603V29.9092H16.4436V30.4479V30.9866H15.296V31.537H14.1483V32.0757V32.6261H12.989V33.1648V33.7152H11.8413V34.2539H10.6819V34.7926H9.53427V35.343V35.8817H8.3749V36.4321H7.22724V36.9708V37.5212H6.07958V38.0599V38.6103V39.149H4.92021V39.6877V40.2381H3.77256V40.7768V41.3272H2.6249V41.8659H1.46553V42.4163V42.955H0.317871V43.4937H1.46553H2.6249H3.77256V42.955H4.92021V42.4163H6.07958V41.8659V41.3272H7.22724V40.7768V40.2381H8.3749V39.6877H9.53427V39.149H10.6819V38.6103V38.0599V37.5212H11.8413V36.9708H12.989V36.4321H14.1483V35.8817V35.343H15.296V34.7926V34.2539H16.4436V33.7152H17.603V33.1648V32.6261H18.7507V32.0757V31.537H19.8983V30.9866H21.0577V30.4479V29.9092H22.2053V29.3588V28.8201H23.3647V28.2697H24.5124V27.731V27.1806H25.66V26.6419V26.1032V25.5528H26.8194V25.0141V24.4637V23.925V23.3746H27.9671V22.8359V22.2855V21.7468V21.2081H29.1264V20.6577H30.2741V20.119H31.4217V19.5686V19.0299H32.5811V18.4795V17.9408H33.7288V17.4021Z" fill="#214044"/>
<path d="M62.5361 16.8518V17.4022V17.9409V18.4796H63.6838V19.03V19.5687V20.1191V20.6578H64.8432V21.2082V21.7469H65.9908V22.2856V22.836V23.3747H67.1385V22.836V22.2856V21.7469V21.2082H65.9908V20.6578V20.1191V19.5687V19.03H64.8432V18.4796V17.9409V17.4022H63.6838V16.8518V16.3131V15.7627H62.5361V16.3131V16.8518Z" fill="#214044"/>
<path d="M62.5354 15.2241H61.3877V15.7628H62.5354V15.2241Z" fill="#214044"/>
<path d="M39.489 13.0457H38.3413V13.5844H39.489V13.0457Z" fill="#8798A1"/>
<path d="M33.7273 13.0457H32.5796V13.5844H33.7273V13.0457Z" fill="#6D7A7F"/>
<path d="M52.1604 12.507H51.0127V13.0457H52.1604V12.507Z" fill="#57686B"/>
<path d="M34.8757 11.418H33.728V11.9567H34.8757V11.418Z" fill="#D9DBE0"/>
<path d="M36.0354 10.8677H34.8877V11.4064H36.0354V10.8677Z" fill="#B9BCC3"/>
<path d="M38.3293 8.70105H37.1816V9.23975H38.3293V8.70105Z" fill="#DEDFE5"/>
<path d="M39.489 8.15063H38.3413V8.68933H39.489V8.15063Z" fill="#BFC1C8"/>
<path d="M41.7854 5.97235H40.6377V6.51105H41.7854V5.97235Z" fill="#B9BCC3"/>
<path d="M42.945 4.89502H41.7974V5.43371H42.945V4.89502Z" fill="#B9BCC3"/>
<path d="M44.091 3.80603H42.9434V4.34473H44.091V3.80603Z" fill="#B9BCC3"/>
<path d="M51.0124 8.15065V7.61195V7.06155V6.52285V5.97245V5.43375V4.89505H49.8647V4.34464V3.80595V3.25554H48.7054V2.71684V2.16643V1.62774V1.08904V0.538635H47.5577V1.08904H46.41V1.62774V2.16643H45.2507V2.71684V3.25554H44.103V3.80595V4.34464H42.9436V4.89505V5.43375H41.796V5.97245V6.52285H40.6366V7.06155H39.489V7.61195V8.15065V8.70106H38.3413V9.23975H37.1819V9.77845H36.0343V10.3289V10.8676V11.418H34.8749V11.9567H33.7273V12.5071H32.5796V13.0458H33.7273V13.5845H34.8749V14.1349H36.0343H37.1819V13.5845H38.3413V13.0458H39.489V13.5845H40.6366V14.1349V14.6736V15.224V15.7627V16.3131V16.8518V17.4022V17.9409H41.796V18.4796V19.03V19.5687V20.1191V20.6578H42.9436V20.1191H44.103V19.5687V19.03H45.2507V18.4796V17.9409H46.41V17.4022H47.5577V16.8518V16.3131H48.7054V15.7627V15.224H49.8647V14.6736V14.1349V13.5845H51.0124V13.0458V12.5071H52.16V11.9567V11.418V10.8676V10.3289V9.77845V9.23975V8.70106V8.15065H51.0124Z" fill="#A3A7A7"/>
<path d="M47.5471 0.538635H46.3994V1.07733H47.5471V0.538635Z" fill="#B9BCC3"/>
<path d="M64.8426 13.5845V13.0458V12.5071H63.6832V11.9567H62.5355V11.418H61.3879V10.8676V10.3289H60.2285V9.77846H59.0808V9.23976H57.9215V8.70107V8.15066H56.7738V7.61196V7.06156H55.6262V6.52286V5.97245H54.4668V5.43375V4.89506H53.3191V4.34465H52.1598V3.80596V3.25555H51.0121V2.71685V2.16644H49.8644V1.62775V1.08905H48.7051V1.62775V2.16644V2.71685V3.25555H49.8644V3.80596V4.34465V4.89506H51.0121V5.43375V5.97245V6.52286V7.06156V7.61196V8.15066H52.1598V8.70107V9.23976V9.77846V10.3289V10.8676V11.418V11.9567V12.5071V13.0458V13.5845H53.3191V14.1349V14.6736V15.224H54.4668V15.7627V16.3131H55.6262V16.8518V17.4022V17.9409H56.7738V18.4796V19.03H57.9215V19.5687V20.1191H59.0808V20.6578V21.2082H60.2285V21.7469V22.2856H61.3879V22.836V23.3747H62.5355V23.9251H63.6832V24.4638H64.8426H65.9902V23.9251V23.3747H64.8426V22.836V22.2856V21.7469V21.2082H63.6832V20.6578V20.1191V19.5687H62.5355V20.1191V19.5687V19.03V18.4796H61.3879V17.9409V17.4022V16.8518V16.3131H60.2285V15.7627V15.224V14.6736V14.1349V13.5845H61.3879V14.1349H62.5355V14.6736H63.6832V15.224H64.8426V14.6736H65.9902V14.1349V13.5845H64.8426Z" fill="white"/>
<path d="M48.7067 0H47.5591V0.538695H48.7067V0Z" fill="white"/>
<path d="M6.31212 45.7073V45.4965H6.12475V45.274H5.93737V44.8524H5.75V43.3417H5.55092V43.5525H5.36354V43.775H4.23931V43.5525H4.05194V43.3417H3.86456V43.1192H3.67719V43.3417H3.48982V43.775H3.30244V43.9858H3.11507V44.1966H2.9277V44.4191H2.55295V44.6299H1.04226V44.4191H0.667516V44.1966H0.480142V43.9858H0.29277V43.775H0V46.1406H6.31212V45.9298H6.49949V45.7073H6.31212Z" fill="#8BA748"/>
<path d="M6.87424 43.7748V43.3415H6.68686V43.119H6.49949V42.9082H6.31212V42.6974H5.75V42.0416H5.55092V41.3975H5.36354V41.1867H5.17617V40.9759H4.9888V40.7534H4.80143V40.5426H3.30244V40.7534H3.11507V40.3201H2.9277V40.1093H2.55295V39.8868H2.35387V39.676H1.22963V39.8868H0.854889V40.1093H0.667516V40.3201H0.480142V40.5426H0.29277V40.7534H0.105397V41.3975H0V43.7748H0.29277V43.9856H0.480142V44.1964H0.667516V44.4189H1.04226V44.6297H2.55295V44.4189H2.9277V44.1964H3.11507V43.9856H3.30244V43.7748H3.48982V43.3415H3.67719V43.119H3.86456V43.3415H4.05194V43.5523H4.23931V43.7748H5.36354V43.5523H5.55092V43.3415H5.75V44.8522H5.93737V45.2738H6.12475V45.4963H6.31212V45.7071H6.49949V45.9296H6.68686V45.4963H6.87424V45.2738H7.06161V43.7748H6.87424Z" fill="#A3C254"/>
<path d="M13.6201 45.7073V45.4965H13.4327V45.274H13.2454V45.0632V44.8524H13.0463V44.6299V44.4191V44.1966V43.9858V43.775V43.5525V43.3417H12.8589V43.5525H12.6715V43.775H12.4842H12.2968H12.1094H11.922H11.7347H11.5473V43.5525H11.3599V43.3417H11.1725V43.1192H10.9852V43.3417H10.7978V43.5525V43.775H10.6104V43.9858H10.4231V44.1966H10.2357V44.4191H10.0483H9.84922V44.6299H9.66185H9.47448H9.2871H9.09973H8.91236H8.72498H8.53761H8.35024V44.4191H8.16287H7.97549V44.1966H7.78812V43.9858H7.60075V43.775H7.41338H7.226V43.9858H7.03863V44.1966H6.85126H6.65217H6.4648H6.27743H6.09006H5.90268V43.9858H5.71531V43.775H5.52794V43.5525V43.3417H5.34057V43.1192V42.9084V42.6976V42.4751H5.15319V42.6976V42.9084V43.1192H4.96582V43.3417V43.5525V43.775V43.9858V44.1966V44.4191H5.15319V44.6299V44.8524V45.0632H5.34057V45.274V45.4965H5.52794V45.7073H5.71531V45.9298H5.90268H6.09006V46.1406H6.27743H6.4648H6.65217H6.85126H7.03863H7.226H7.41338H7.60075H7.78812H7.97549H8.16287H8.35024H8.53761H8.72498H8.91236H9.09973H9.2871H9.47448H9.66185H9.84922H10.0483H10.2357H10.4231H10.6104H10.7978H10.9852H11.1725H11.3599H11.5473H11.7347H11.922H12.1094H12.2968H12.4842H12.6715H12.8589H13.0463H13.2454H13.4327H13.6201V45.9298H13.8075V45.7073H13.6201Z" fill="#8BA748"/>
<path d="M14.1825 43.7748V43.5523V43.3415H13.9951V43.119H13.8077V42.9082H13.6204V42.6974H13.433H13.2456H13.0465V42.4749V42.2641V42.0416H12.8591V41.8308V41.62V41.3975H12.6718V41.1867H12.4844V40.9759H12.297V40.7534H12.1097V40.5426H11.9223H11.7349H11.5475H11.3602H11.1728H10.9854H10.798H10.6107V40.7534H10.4233V40.5426V40.3201H10.2359V40.1093H10.0486H9.84948V39.8868H9.6621V39.676H9.47473H9.28736H9.09998H8.91261H8.72524H8.53787V39.8868H8.35049H8.16312V40.1093H7.97575V40.3201H7.78838V40.5426H7.601V40.7534H7.41363V40.9759V41.1867V41.3975H7.22626H7.03889H6.85151H6.65243H6.46506H6.27768H6.09031V41.62H5.90294H5.71557V41.8308H5.52819V42.0416H5.34082V42.2641V42.4749V42.6974V42.9082V43.119V43.3415H5.52819V43.5523V43.7748H5.71557V43.9856H5.90294V44.1964H6.09031H6.27768H6.46506H6.65243H6.85151H7.03889V43.9856H7.22626V43.7748H7.41363H7.601V43.9856H7.78838V44.1964H7.97575V44.4189H8.16312H8.35049V44.6297H8.53787H8.72524H8.91261H9.09998H9.28736H9.47473H9.6621H9.84948V44.4189H10.0486H10.2359V44.1964H10.4233V43.9856H10.6107V43.7748H10.798V43.5523V43.3415H10.9854V43.119H11.1728V43.3415H11.3602V43.5523H11.5475V43.7748H11.7349H11.9223H12.1097H12.297H12.4844H12.6718V43.5523H12.8591V43.3415H13.0465V43.5523V43.7748V43.9856V44.1964V44.4189V44.6297V44.8522H13.2456V45.063V45.2738H13.433V45.4963H13.6204V45.7071H13.8077V45.9296H13.9951V45.7071V45.4963H14.1825V45.2738H14.3698V45.063V44.8522V44.6297V44.4189V44.1964V43.9856V43.7748H14.1825Z" fill="#A3C254"/>
<path d="M20.9277 45.7073V45.4965H20.7286V45.274H20.5413V45.0632V44.8524H20.3539V44.6299V44.4191V44.1966V43.9858V43.775V43.5525V43.3417H20.1665V43.5525H19.9791V43.775H19.7918H19.6044H19.417H19.2297H19.0423H18.8549V43.5525H18.6675V43.3417H18.4802V43.1192H18.2928V43.3417H18.1054V43.5525V43.775H17.918V43.9858H17.7307V44.1966H17.5316V44.4191H17.3442H17.1568V44.6299H16.9695H16.7821H16.5947H16.4073H16.22H16.0326H15.8452H15.6579V44.4191H15.4705H15.2831V44.1966H15.0957V43.9858H14.9084V43.775H14.721H14.5336V43.9858H14.3462V44.1966H14.1472H13.9598H13.7724H13.585H13.3977H13.2103V43.9858H13.0229V43.775H12.8356V43.5525V43.3417H12.6482V43.1192V42.9084V42.6976V42.4751H12.4608V42.6976V42.9084V43.1192H12.2734V43.3417V43.5525V43.775V43.9858V44.1966V44.4191H12.4608V44.6299V44.8524V45.0632H12.6482V45.274V45.4965H12.8356V45.7073H13.0229V45.9298H13.2103H13.3977V46.1406H13.585H13.7724H13.9598H14.1472H14.3462H14.5336H14.721H14.9084H15.0957H15.2831H15.4705H15.6579H15.8452H16.0326H16.22H16.4073H16.5947H16.7821H16.9695H17.1568H17.3442H17.5316H17.7307H17.918H18.1054H18.2928H18.4802H18.6675H18.8549H19.0423H19.2297H19.417H19.6044H19.7918H19.9791H20.1665H20.3539H20.5413H20.7286H20.9277V45.9298H21.1151V45.7073H20.9277Z" fill="#8BA748"/>
<path d="M21.4901 43.7748V43.5523V43.3415H21.3027V43.119H21.1153V42.9082H20.928V42.6974H20.7289H20.5415H20.3541V42.4749V42.2641V42.0416H20.1668V41.8308V41.62V41.3975H19.9794V41.1867H19.792V40.9759H19.6047V40.7534H19.4173V40.5426H19.2299H19.0425H18.8552H18.6678H18.4804H18.293H18.1057H17.9183V40.7534H17.7309V40.5426V40.3201H17.5318V40.1093H17.3445H17.1571V39.8868H16.9697V39.676H16.7823H16.595H16.4076H16.2202H16.0329H15.8455V39.8868H15.6581H15.4707V40.1093H15.2834V40.3201H15.096V40.5426H14.9086V40.7534H14.7212V40.9759V41.1867V41.3975H14.5339H14.3465H14.1474H13.96H13.7727H13.5853H13.3979V41.62H13.2106H13.0232V41.8308H12.8358V42.0416H12.6484V42.2641V42.4749V42.6974V42.9082V43.119V43.3415H12.8358V43.5523V43.7748H13.0232V43.9856H13.2106V44.1964H13.3979H13.5853H13.7727H13.96H14.1474H14.3465V43.9856H14.5339V43.7748H14.7212H14.9086V43.9856H15.096V44.1964H15.2834V44.4189H15.4707H15.6581V44.6297H15.8455H16.0329H16.2202H16.4076H16.595H16.7823H16.9697H17.1571V44.4189H17.3445H17.5318V44.1964H17.7309V43.9856H17.9183V43.7748H18.1057V43.5523V43.3415H18.293V43.119H18.4804V43.3415H18.6678V43.5523H18.8552V43.7748H19.0425H19.2299H19.4173H19.6047H19.792H19.9794V43.5523H20.1668V43.3415H20.3541V43.5523V43.7748V43.9856V44.1964V44.4189V44.6297V44.8522H20.5415V45.063V45.2738H20.7289V45.4963H20.928V45.7071H21.1153V45.9296H21.3027V45.7071V45.4963H21.4901V45.2738H21.6775V45.063V44.8522V44.6297V44.4189V44.1964V43.9856V43.7748H21.4901Z" fill="#A3C254"/>
<path d="M28.2353 45.7073V45.4965H28.048V45.274H27.8489V45.0632V44.8524H27.6615V44.6299V44.4191V44.1966V43.9858V43.775V43.5525V43.3417H27.4741V43.5525H27.2868V43.775H27.0994H26.912H26.7246H26.5373H26.3499H26.1625V43.5525H25.9751V43.3417H25.7878V43.1192H25.6004V43.3417H25.413V43.5525V43.775H25.2257V43.9858H25.0383V44.1966H24.8509V44.4191H24.6635H24.4645V44.6299H24.2771H24.0897H23.9023H23.715H23.5276H23.3402H23.1528H22.9655V44.4191H22.7781H22.5907V44.1966H22.4034V43.9858H22.216V43.775H22.0286H21.8412V43.9858H21.6539V44.1966H21.4665H21.2674H21.08H20.8927H20.7053H20.5179V43.9858H20.3305V43.775H20.1432V43.5525V43.3417H19.9558V43.1192V42.9084V42.6976V42.4751H19.7684V42.6976V42.9084V43.1192H19.5811V43.3417V43.5525V43.775V43.9858V44.1966V44.4191H19.7684V44.6299V44.8524V45.0632H19.9558V45.274V45.4965H20.1432V45.7073H20.3305V45.9298H20.5179H20.7053V46.1406H20.8927H21.08H21.2674H21.4665H21.6539H21.8412H22.0286H22.216H22.4034H22.5907H22.7781H22.9655H23.1528H23.3402H23.5276H23.715H23.9023H24.0897H24.2771H24.4645H24.6635H24.8509H25.0383H25.2257H25.413H25.6004H25.7878H25.9751H26.1625H26.3499H26.5373H26.7246H26.912H27.0994H27.2868H27.4741H27.6615H27.8489H28.048H28.2353V45.9298H28.4227V45.7073H28.2353Z" fill="#8BA748"/>
<path d="M28.7982 43.7748V43.5523V43.3415H28.6108V43.119H28.4234V42.9082H28.2361V42.6974H28.0487H27.8496H27.6622V42.4749V42.2641V42.0416H27.4749V41.8308V41.62V41.3975H27.2875V41.1867H27.1001V40.9759H26.9128V40.7534H26.7254V40.5426H26.538H26.3506H26.1633H25.9759H25.7885H25.6011H25.4138H25.2264V40.7534H25.039V40.5426V40.3201H24.8517V40.1093H24.6643H24.4652V39.8868H24.2778V39.676H24.0905H23.9031H23.7157H23.5283H23.341H23.1536V39.8868H22.9662H22.7788V40.1093H22.5915V40.3201H22.4041V40.5426H22.2167V40.7534H22.0294V40.9759V41.1867V41.3975H21.842H21.6546H21.4672H21.2682H21.0808H20.8934H20.706V41.62H20.5187H20.3313V41.8308H20.1439V42.0416H19.9565V42.2641V42.4749V42.6974V42.9082V43.119V43.3415H20.1439V43.5523V43.7748H20.3313V43.9856H20.5187V44.1964H20.706H20.8934H21.0808H21.2682H21.4672H21.6546V43.9856H21.842V43.7748H22.0294H22.2167V43.9856H22.4041V44.1964H22.5915V44.4189H22.7788H22.9662V44.6297H23.1536H23.341H23.5283H23.7157H23.9031H24.0905H24.2778H24.4652V44.4189H24.6643H24.8517V44.1964H25.039V43.9856H25.2264V43.7748H25.4138V43.5523V43.3415H25.6011V43.119H25.7885V43.3415H25.9759V43.5523H26.1633V43.7748H26.3506H26.538H26.7254H26.9128H27.1001H27.2875V43.5523H27.4749V43.3415H27.6622V43.5523V43.7748V43.9856V44.1964V44.4189V44.6297V44.8522H27.8496V45.063V45.2738H28.0487V45.4963H28.2361V45.7071H28.4234V45.9296H28.6108V45.7071V45.4963H28.7982V45.2738H28.9856V45.063V44.8522V44.6297V44.4189V44.1964V43.9856V43.7748H28.7982Z" fill="#A3C254"/>
<path d="M35.5434 45.7073V45.4965H35.3561V45.274H35.157V45.0632V44.8524H34.9696V44.6299V44.4191V44.1966V43.9858V43.775V43.5525V43.3417H34.7822V43.5525H34.5949V43.775H34.4075H34.2201H34.0327H33.8454H33.658H33.4706V43.5525H33.2833V43.3417H33.0959V43.1192H32.9085V43.3417H32.7211V43.5525V43.775H32.5338V43.9858H32.3464V44.1966H32.1473V44.4191H31.9599H31.7726V44.6299H31.5852H31.3978H31.2104H31.0231H30.8357H30.6483H30.461H30.2736V44.4191H30.0862H29.8988V44.1966H29.7115V43.9858H29.5241V43.775H29.3367H29.1493V43.9858H28.962V44.1966H28.7629H28.5755H28.3881H28.2008H28.0134H27.826V43.9858H27.6387V43.775H27.4513V43.5525V43.3417H27.2639V43.1192V42.9084V42.6976V42.4751H27.0765V42.6976V42.9084V43.1192H26.8892V43.3417V43.5525V43.775V43.9858V44.1966V44.4191H27.0765V44.6299V44.8524V45.0632H27.2639V45.274V45.4965H27.4513V45.7073H27.6387V45.9298H27.826H28.0134V46.1406H28.2008H28.3881H28.5755H28.7629H28.962H29.1493H29.3367H29.5241H29.7115H29.8988H30.0862H30.2736H30.461H30.6483H30.8357H31.0231H31.2104H31.3978H31.5852H31.7726H31.9599H32.1473H32.3464H32.5338H32.7211H32.9085H33.0959H33.2833H33.4706H33.658H33.8454H34.0327H34.2201H34.4075H34.5949H34.7822H34.9696H35.157H35.3561H35.5434V45.9298H35.7308V45.7073H35.5434Z" fill="#8BA748"/>
<path d="M36.1058 43.7748V43.5523V43.3415H35.9184V43.119H35.7311V42.9082H35.5437V42.6974H35.3563H35.1572H34.9699V42.4749V42.2641V42.0416H34.7825V41.8308V41.62V41.3975H34.5951V41.1867H34.4077V40.9759H34.2204V40.7534H34.033V40.5426H33.8456H33.6583H33.4709H33.2835H33.0961H32.9088H32.7214H32.534V40.7534H32.3466V40.5426V40.3201H32.1476V40.1093H31.9602H31.7728V39.8868H31.5854V39.676H31.3981H31.2107H31.0233H30.836H30.6486H30.4612V39.8868H30.2738H30.0865V40.1093H29.8991V40.3201H29.7117V40.5426H29.5243V40.7534H29.337V40.9759V41.1867V41.3975H29.1496H28.9622H28.7631H28.5758H28.3884H28.201H28.0137V41.62H27.8263H27.6389V41.8308H27.4515V42.0416H27.2642V42.2641V42.4749V42.6974V42.9082V43.119V43.3415H27.4515V43.5523V43.7748H27.6389V43.9856H27.8263V44.1964H28.0137H28.201H28.3884H28.5758H28.7631H28.9622V43.9856H29.1496V43.7748H29.337H29.5243V43.9856H29.7117V44.1964H29.8991V44.4189H30.0865H30.2738V44.6297H30.4612H30.6486H30.836H31.0233H31.2107H31.3981H31.5854H31.7728V44.4189H31.9602H32.1476V44.1964H32.3466V43.9856H32.534V43.7748H32.7214V43.5523V43.3415H32.9088V43.119H33.0961V43.3415H33.2835V43.5523H33.4709V43.7748H33.6583H33.8456H34.033H34.2204H34.4077H34.5951V43.5523H34.7825V43.3415H34.9699V43.5523V43.7748V43.9856V44.1964V44.4189V44.6297V44.8522H35.1572V45.063V45.2738H35.3563V45.4963H35.5437V45.7071H35.7311V45.9296H35.9184V45.7071V45.4963H36.1058V45.2738H36.2932V45.063V44.8522V44.6297V44.4189V44.1964V43.9856V43.7748H36.1058Z" fill="#A3C254"/>
<path d="M42.8511 45.7073V45.4965H42.652V45.274H42.4646V45.0632V44.8524H42.2772V44.6299V44.4191V44.1966V43.9858V43.775V43.5525V43.3417H42.0899V43.5525H41.9025V43.775H41.7151H41.5277H41.3404H41.153H40.9656H40.7782V43.5525H40.5909V43.3417H40.4035V43.1192H40.2161V43.3417H40.0288V43.5525V43.775H39.8414V43.9858H39.6423V44.1966H39.4666V44.4191H39.2676H39.0802V44.6299H38.8928H38.7054H38.5181H38.3307H38.1433H37.9559H37.7686H37.5812V44.4191H37.3938H37.2065V44.1966H37.0191V43.9858H36.8317V43.775H36.6443H36.457V43.9858H36.2579V44.1966H36.0705H35.8831H35.6958H35.5084H35.321H35.1336V43.9858H34.9463V43.775H34.7589V43.5525V43.3417H34.5715V43.1192V42.9084V42.6976V42.4751H34.3841V42.6976V42.9084V43.1192H34.1968V43.3417V43.5525V43.775V43.9858V44.1966V44.4191H34.3841V44.6299V44.8524V45.0632H34.5715V45.274V45.4965H34.7589V45.7073H34.9463V45.9298H35.1336H35.321V46.1406H35.5084H35.6958H35.8831H36.0705H36.2579H36.457H36.6443H36.8317H37.0191H37.2065H37.3938H37.5812H37.7686H37.9559H38.1433H38.3307H38.5181H38.7054H38.8928H39.0802H39.2676H39.4666H39.6423H39.8414H40.0288H40.2161H40.4035H40.5909H40.7782H40.9656H41.153H41.3404H41.5277H41.7151H41.9025H42.0899H42.2772H42.4646H42.652H42.8511V45.9298H43.0384V45.7073H42.8511Z" fill="#8BA748"/>
<path d="M43.4134 43.7748V43.5523V43.3415H43.2261V43.119H43.0387V42.9082H42.8513V42.6974H42.6522H42.4649H42.2775V42.4749V42.2641V42.0416H42.0901V41.8308V41.62V41.3975H41.9027V41.1867H41.7154V40.9759H41.528V40.7534H41.3406V40.5426H41.1532H40.9659H40.7785H40.5911H40.4038H40.2164H40.029H39.8416V40.7534H39.6426V40.5426V40.3201H39.4669V40.1093H39.2678H39.0804V39.8868H38.8931V39.676H38.7057H38.5183H38.3309H38.1436H37.9562H37.7688V39.8868H37.5815H37.3941V40.1093H37.2067V40.3201H37.0193V40.5426H36.832V40.7534H36.6446V40.9759V41.1867V41.3975H36.4572H36.2581H36.0708H35.8834H35.696H35.5086H35.3213V41.62H35.1339H34.9465V41.8308H34.7591V42.0416H34.5718V42.2641V42.4749V42.6974V42.9082V43.119V43.3415H34.7591V43.5523V43.7748H34.9465V43.9856H35.1339V44.1964H35.3213H35.5086H35.696H35.8834H36.0708H36.2581V43.9856H36.4572V43.7748H36.6446H36.832V43.9856H37.0193V44.1964H37.2067V44.4189H37.3941H37.5815V44.6297H37.7688H37.9562H38.1436H38.3309H38.5183H38.7057H38.8931H39.0804V44.4189H39.2678H39.4669V44.1964H39.6426V43.9856H39.8416V43.7748H40.029V43.5523V43.3415H40.2164V43.119H40.4038V43.3415H40.5911V43.5523H40.7785V43.7748H40.9659H41.1532H41.3406H41.528H41.7154H41.9027V43.5523H42.0901V43.3415H42.2775V43.5523V43.7748V43.9856V44.1964V44.4189V44.6297V44.8522H42.4649V45.063V45.2738H42.6522V45.4963H42.8513V45.7071H43.0387V45.9296H43.2261V45.7071V45.4963H43.4134V45.2738H43.6008V45.063V44.8522V44.6297V44.4189V44.1964V43.9856V43.7748H43.4134Z" fill="#A3C254"/>
<path d="M50.1474 45.7073V45.4965H49.9601V45.274H49.7727V45.0632V44.8524H49.5853V44.6299V44.4191V44.1966V43.9858V43.775V43.5525V43.3417H49.398V43.5525H49.2106V43.775H49.0232H48.8358H48.6485H48.4611H48.2737H48.0863V43.5525H47.899V43.3417H47.7116V43.1192H47.5242V43.3417H47.3369V43.5525V43.775H47.1495V43.9858H46.9621V44.1966H46.763V44.4191H46.5757H46.3883V44.6299H46.2009H46.0135H45.8262H45.6388H45.4514H45.264H45.0767H44.8893V44.4191H44.7019H44.5146V44.1966H44.3272V43.9858H44.1398V43.775H43.9524H43.7651V43.9858H43.566V44.1966H43.3786H43.1912H43.0039H42.8165H42.6291H42.4417V43.9858H42.2544V43.775H42.067V43.5525V43.3417H41.8796V43.1192V42.9084V42.6976V42.4751H41.6923V42.6976V42.9084V43.1192H41.5049V43.3417V43.5525V43.775V43.9858V44.1966V44.4191H41.6923V44.6299V44.8524V45.0632H41.8796V45.274V45.4965H42.067V45.7073H42.2544V45.9298H42.4417H42.6291V46.1406H42.8165H43.0039H43.1912H43.3786H43.566H43.7651H43.9524H44.1398H44.3272H44.5146H44.7019H44.8893H45.0767H45.264H45.4514H45.6388H45.8262H46.0135H46.2009H46.3883H46.5757H46.763H46.9621H47.1495H47.3369H47.5242H47.7116H47.899H48.0863H48.2737H48.4611H48.6485H48.8358H49.0232H49.2106H49.398H49.5853H49.7727H49.9601H50.1474V45.9298H50.3465V45.7073H50.1474Z" fill="#8BA748"/>
<path d="M50.7191 43.7748V43.5523V43.3415H50.5317V43.119H50.3443V42.9082H50.1453V42.6974H49.9579H49.7705H49.5831V42.4749V42.2641V42.0416H49.3958V41.8308V41.62V41.3975H49.2084V41.1867H49.021V40.9759H48.8337V40.7534H48.6463V40.5426H48.4589H48.2715H48.0842H47.8968H47.7094H47.522H47.3347H47.1473V40.7534H46.9599V40.5426V40.3201H46.7608V40.1093H46.5735H46.3861V39.8868H46.1987V39.676H46.0114H45.824H45.6366H45.4492H45.2619H45.0745V39.8868H44.8871H44.6997V40.1093H44.5124V40.3201H44.325V40.5426H44.1376V40.7534H43.9503V40.9759V41.1867V41.3975H43.7629H43.5638H43.3764H43.189H43.0017H42.8143H42.6269V41.62H42.4396H42.2522V41.8308H42.0648V42.0416H41.8774V42.2641V42.4749V42.6974V42.9082V43.119V43.3415H42.0648V43.5523V43.7748H42.2522V43.9856H42.4396V44.1964H42.6269H42.8143H43.0017H43.189H43.3764H43.5638V43.9856H43.7629V43.7748H43.9503H44.1376V43.9856H44.325V44.1964H44.5124V44.4189H44.6997H44.8871V44.6297H45.0745H45.2619H45.4492H45.6366H45.824H46.0114H46.1987H46.3861V44.4189H46.5735H46.7608V44.1964H46.9599V43.9856H47.1473V43.7748H47.3347V43.5523V43.3415H47.522V43.119H47.7094V43.3415H47.8968V43.5523H48.0842V43.7748H48.2715H48.4589H48.6463H48.8337H49.021H49.2084V43.5523H49.3958V43.3415H49.5831V43.5523V43.7748V43.9856V44.1964V44.4189V44.6297V44.8522H49.7705V45.063V45.2738H49.9579V45.4963H50.1453V45.7071H50.3443V45.9296H50.5317V45.7071V45.4963H50.7191V45.2738H50.9065V45.063V44.8522V44.6297V44.4189V44.1964V43.9856V43.7748H50.7191Z" fill="#A3C254"/>
<path d="M57.4551 45.7073V45.4965H57.2677V45.274H57.0803V45.0632V44.8524H56.893V44.6299V44.4191V44.1966V43.9858V43.775V43.5525V43.3417H56.7056V43.5525H56.5182V43.775H56.3308H56.1435H55.9561H55.7687H55.5813H55.394V43.5525H55.2066V43.3417H55.0192V43.1192H54.8318V43.3417H54.6445V43.5525V43.775H54.4454V43.9858H54.2697V44.1966H54.0706V44.4191H53.8833H53.6959V44.6299H53.5085H53.3212H53.1338H52.9464H52.759H52.5717H52.3843H52.1969V44.4191H52.0095H51.8222V44.1966H51.6348V43.9858H51.4474V43.775H51.2601H51.061V43.9858H50.8736V44.1966H50.6862H50.4989H50.3115H50.1241H49.9367H49.7494V43.9858H49.562V43.775H49.3746V43.5525V43.3417H49.1872V43.1192V42.9084V42.6976V42.4751H48.9999V42.6976V42.9084V43.1192H48.8125V43.3417V43.5525V43.775V43.9858V44.1966V44.4191H48.9999V44.6299V44.8524V45.0632H49.1872V45.274V45.4965H49.3746V45.7073H49.562V45.9298H49.7494H49.9367V46.1406H50.1241H50.3115H50.4989H50.6862H50.8736H51.061H51.2601H51.4474H51.6348H51.8222H52.0095H52.1969H52.3843H52.5717H52.759H52.9464H53.1338H53.3212H53.5085H53.6959H53.8833H54.0706H54.2697H54.4454H54.6445H54.8318H55.0192H55.2066H55.394H55.5813H55.7687H55.9561H56.1435H56.3308H56.5182H56.7056H56.893H57.0803H57.2677H57.4551V45.9298H57.6541V45.7073H57.4551Z" fill="#8BA748"/>
<path d="M58.0272 43.7748V43.5523V43.3415H57.8398V43.119H57.6525V42.9082H57.4534V42.6974H57.266H57.0786H56.8913V42.4749V42.2641V42.0416H56.7039V41.8308V41.62V41.3975H56.5165V41.1867H56.3291V40.9759H56.1418V40.7534H55.9544V40.5426H55.767H55.5796H55.3923H55.2049H55.0175H54.8301H54.6428H54.4437V40.7534H54.268V40.5426V40.3201H54.069V40.1093H53.8816H53.6942V39.8868H53.5068V39.676H53.3195H53.1321H52.9447H52.7573H52.57H52.3826V39.8868H52.1952H52.0078V40.1093H51.8205V40.3201H51.6331V40.5426H51.4457V40.7534H51.2584V40.9759V41.1867V41.3975H51.0593H50.8719H50.6845H50.4972H50.3098H50.1224H49.935V41.62H49.7477H49.5603V41.8308H49.3729V42.0416H49.1855V42.2641V42.4749V42.6974V42.9082V43.119V43.3415H49.3729V43.5523V43.7748H49.5603V43.9856H49.7477V44.1964H49.935H50.1224H50.3098H50.4972H50.6845H50.8719V43.9856H51.0593V43.7748H51.2584H51.4457V43.9856H51.6331V44.1964H51.8205V44.4189H52.0078H52.1952V44.6297H52.3826H52.57H52.7573H52.9447H53.1321H53.3195H53.5068H53.6942V44.4189H53.8816H54.069V44.1964H54.268V43.9856H54.4437V43.7748H54.6428V43.5523V43.3415H54.8301V43.119H55.0175V43.3415H55.2049V43.5523H55.3923V43.7748H55.5796H55.767H55.9544H56.1418H56.3291H56.5165V43.5523H56.7039V43.3415H56.8913V43.5523V43.7748V43.9856V44.1964V44.4189V44.6297V44.8522H57.0786V45.063V45.2738H57.266V45.4963H57.4534V45.7071H57.6525V45.9296H57.8398V45.7071V45.4963H58.0272V45.2738H58.2146V45.063V44.8522V44.6297V44.4189V44.1964V43.9856V43.7748H58.0272Z" fill="#A3C254"/>
<path d="M64.7607 45.7073V45.4965H64.5734V45.274H64.386V45.0632V44.8524H64.1986V44.6299V44.4191V44.1966V43.9858V43.775V43.5525V43.3417H64.0112V43.5525H63.8239V43.775H63.6365H63.4491H63.2617H63.0744H62.887H62.6996V43.5525H62.5123V43.3417H62.3249V43.1192H62.1375V43.3417H61.9501V43.5525V43.775H61.7628V43.9858H61.5637V44.1966H61.3763V44.4191H61.1889H61.0016V44.6299H60.8142H60.6268H60.4394H60.2521H60.0647H59.8773H59.69H59.5026V44.4191H59.3152H59.1278V44.1966H58.9405V43.9858H58.7531V43.775H58.554H58.3783V43.9858H58.1793V44.1966H57.9919H57.8045H57.6171H57.4298H57.2424H57.055V43.9858H56.8677V43.775H56.6803V43.5525V43.3417H56.4929V43.1192V42.9084V42.6976V42.4751H56.3055V42.6976V42.9084V43.1192H56.1182V43.3417V43.5525V43.775V43.9858V44.1966V44.4191H56.3055V44.6299V44.8524V45.0632H56.4929V45.274V45.4965H56.6803V45.7073H56.8677V45.9298H57.055H57.2424V46.1406H57.4298H57.6171H57.8045H57.9919H58.1793H58.3783H58.554H58.7531H58.9405H59.1278H59.3152H59.5026H59.69H59.8773H60.0647H60.2521H60.4394H60.6268H60.8142H61.0016H61.1889H61.3763H61.5637H61.7628H61.9501H62.1375H62.3249H62.5123H62.6996H62.887H63.0744H63.2617H63.4491H63.6365H63.8239H64.0112H64.1986H64.386H64.5734H64.7607V45.9298H64.9598V45.7073H64.7607Z" fill="#8BA748"/>
<path d="M65.3348 43.7748V43.5523V43.3415H65.1474V43.119H64.9601V42.9082H64.761V42.6974H64.5736H64.3862H64.1989V42.4749V42.2641V42.0416H64.0115V41.8308V41.62V41.3975H63.8241V41.1867H63.6367V40.9759H63.4494V40.7534H63.262V40.5426H63.0746H62.8873H62.6999H62.5125H62.3251H62.1378H61.9504H61.763V40.7534H61.5639V40.5426V40.3201H61.3766V40.1093H61.1892H61.0018V39.8868H60.8144V39.676H60.6271H60.4397H60.2523H60.065H59.8776H59.6902V39.8868H59.5028H59.3155V40.1093H59.1281V40.3201H58.9407V40.5426H58.7533V40.7534H58.5543V40.9759V41.1867V41.3975H58.3786H58.1795H57.9921H57.8048H57.6174H57.43H57.2427V41.62H57.0553H56.8679V41.8308H56.6805V42.0416H56.4932V42.2641V42.4749V42.6974V42.9082V43.119V43.3415H56.6805V43.5523V43.7748H56.8679V43.9856H57.0553V44.1964H57.2427H57.43H57.6174H57.8048H57.9921H58.1795V43.9856H58.3786V43.7748H58.5543H58.7533V43.9856H58.9407V44.1964H59.1281V44.4189H59.3155H59.5028V44.6297H59.6902H59.8776H60.065H60.2523H60.4397H60.6271H60.8144H61.0018V44.4189H61.1892H61.3766V44.1964H61.5639V43.9856H61.763V43.7748H61.9504V43.5523V43.3415H62.1378V43.119H62.3251V43.3415H62.5125V43.5523H62.6999V43.7748H62.8873H63.0746H63.262H63.4494H63.6367H63.8241V43.5523H64.0115V43.3415H64.1989V43.5523V43.7748V43.9856V44.1964V44.4189V44.6297V44.8522H64.3862V45.063V45.2738H64.5736V45.4963H64.761V45.7071H64.9601V45.9296H65.1474V45.7071V45.4963H65.3348V45.2738H65.5222V45.063V44.8522V44.6297V44.4189V44.1964V43.9856V43.7748H65.3348Z" fill="#A3C254"/>
<path d="M72.0683 45.7073V45.4965H71.881V45.274H71.6936V45.0632V44.8524H71.5062V44.6299V44.4191V44.1966V43.9858V43.775V43.5525V43.3417H71.3189V43.5525H71.1315V43.775H70.9441H70.7567H70.5694H70.382H70.1946H70.0072V43.5525H69.8199V43.3417H69.6325V43.1192H69.4451V43.3417H69.2578V43.5525V43.775H69.0587V43.9858H68.8713V44.1966H68.6839V44.4191H68.4966H68.3092V44.6299H68.1218H67.9344H67.7471H67.5597H67.3723H67.1849H66.9976H66.8102V44.4191H66.6228H66.4355V44.1966H66.2481V43.9858H66.0607V43.775H65.8733H65.6743V43.9858H65.4869V44.1966H65.2995H65.1121H64.9248H64.7374H64.55H64.3626V43.9858H64.1753V43.775H63.9879V43.5525V43.3417H63.8005V43.1192V42.9084V42.6976V42.4751H63.6132V42.6976V42.9084V43.1192H63.4258V43.3417V43.5525V43.775V43.9858V44.1966V44.4191H63.6132V44.6299V44.8524V45.0632H63.8005V45.274V45.4965H63.9879V45.7073H64.1753V45.9298H64.3626H64.55V46.1406H64.7374H64.9248H65.1121H65.2995H65.4869H65.6743H65.8733H66.0607H66.2481H66.4355H66.6228H66.8102H66.9976H67.1849H67.3723H67.5597H67.7471H67.9344H68.1218H68.3092H68.4966H68.6839H68.8713H69.0587H69.2578H69.4451H69.6325H69.8199H70.0072H70.1946H70.382H70.5694H70.7567H70.9441H71.1315H71.3189H71.5062H71.6936H71.881H72.0683V45.9298H72.2557V45.7073H72.0683Z" fill="#8BA748"/>
<path d="M72.6424 43.7748V43.5523V43.3415H72.4433V43.119H72.256V42.9082H72.0686V42.6974H71.8812H71.6939H71.5065V42.4749V42.2641V42.0416H71.3191V41.8308V41.62V41.3975H71.1317V41.1867H70.9444V40.9759H70.757V40.7534H70.5696V40.5426H70.3822H70.1949H70.0075H69.8201H69.6328H69.4454H69.258H69.0589V40.7534H68.8715V40.5426V40.3201H68.6842V40.1093H68.4968H68.3094V39.8868H68.1221V39.676H67.9347H67.7473H67.5599H67.3726H67.1852H66.9978V39.8868H66.8105H66.6231V40.1093H66.4357V40.3201H66.2483V40.5426H66.061V40.7534H65.8736V40.9759V41.1867V41.3975H65.6745H65.4871H65.2998H65.1124H64.925H64.7376H64.5503V41.62H64.3629H64.1755V41.8308H63.9881V42.0416H63.8008V42.2641V42.4749V42.6974V42.9082V43.119V43.3415H63.9881V43.5523V43.7748H64.1755V43.9856H64.3629V44.1964H64.5503H64.7376H64.925H65.1124H65.2998H65.4871V43.9856H65.6745V43.7748H65.8736H66.061V43.9856H66.2483V44.1964H66.4357V44.4189H66.6231H66.8105V44.6297H66.9978H67.1852H67.3726H67.5599H67.7473H67.9347H68.1221H68.3094V44.4189H68.4968H68.6842V44.1964H68.8715V43.9856H69.0589V43.7748H69.258V43.5523V43.3415H69.4454V43.119H69.6328V43.3415H69.8201V43.5523H70.0075V43.7748H70.1949H70.3822H70.5696H70.757H70.9444H71.1317V43.5523H71.3191V43.3415H71.5065V43.5523V43.7748V43.9856V44.1964V44.4189V44.6297V44.8522H71.6939V45.063V45.2738H71.8812V45.4963H72.0686V45.7071H72.256V45.9296H72.4433V45.7071V45.4963H72.6424V45.2738H72.8298V45.063V44.8522V44.6297V44.4189V44.1964V43.9856V43.7748H72.6424Z" fill="#A3C254"/>
<path d="M79.3764 45.7073V45.4965H79.1891V45.274H79.0017V45.0632V44.8524H78.8143V44.6299V44.4191V44.1966V43.9858V43.775V43.5525V43.3417H78.627V43.5525H78.4396V43.775H78.2522H78.0648H77.8775H77.6901H77.5027H77.3154V43.5525H77.128V43.3417H76.9406V43.1192H76.7532V43.3417H76.5659V43.5525V43.775H76.3785V43.9858H76.1794V44.1966H75.992V44.4191H75.8047H75.6173V44.6299H75.4299H75.2425H75.0552H74.8678H74.6804H74.4931H74.3057H74.1183V44.4191H73.9309H73.7436V44.1966H73.5562V43.9858H73.3571V43.775H73.1814H72.9824V43.9858H72.795V44.1966H72.6076H72.4202H72.2329H72.0455H71.8581H71.6708V43.9858H71.4834V43.775H71.296V43.5525V43.3417H71.1086V43.1192V42.9084V42.6976V42.4751H70.9213V42.6976V42.9084V43.1192H70.7339V43.3417V43.5525V43.775V43.9858V44.1966V44.4191H70.9213V44.6299V44.8524V45.0632H71.1086V45.274V45.4965H71.296V45.7073H71.4834V45.9298H71.6708H71.8581V46.1406H72.0455H72.2329H72.4202H72.6076H72.795H72.9824H73.1814H73.3571H73.5562H73.7436H73.9309H74.1183H74.3057H74.4931H74.6804H74.8678H75.0552H75.2425H75.4299H75.6173H75.8047H75.992H76.1794H76.3785H76.5659H76.7532H76.9406H77.128H77.3154H77.5027H77.6901H77.8775H78.0648H78.2522H78.4396H78.627H78.8143H79.0017H79.1891H79.3764V45.9298H79.5638V45.7073H79.3764Z" fill="#8BA748"/>
<path d="M79.9505 43.7748V43.5523V43.3415H79.7632V43.119H79.5641V42.9082H79.3767V42.6974H79.1893H79.002H78.8146V42.4749V42.2641V42.0416H78.6272V41.8308V41.62V41.3975H78.4398V41.1867H78.2525V40.9759H78.0651V40.7534H77.8777V40.5426H77.6904H77.503H77.3156H77.1282H76.9409H76.7535H76.5661H76.3787V40.7534H76.1797V40.5426V40.3201H75.9923V40.1093H75.8049H75.6175V39.8868H75.4302V39.676H75.2428H75.0554H74.8681H74.6807H74.4933H74.3059V39.8868H74.1186H73.9312V40.1093H73.7438V40.3201H73.5564V40.5426H73.3574V40.7534H73.1817V40.9759V41.1867V41.3975H72.9826H72.7952H72.6079H72.4205H72.2331H72.0458H71.8584V41.62H71.671H71.4836V41.8308H71.2963V42.0416H71.1089V42.2641V42.4749V42.6974V42.9082V43.119V43.3415H71.2963V43.5523V43.7748H71.4836V43.9856H71.671V44.1964H71.8584H72.0458H72.2331H72.4205H72.6079H72.7952V43.9856H72.9826V43.7748H73.1817H73.3574V43.9856H73.5564V44.1964H73.7438V44.4189H73.9312H74.1186V44.6297H74.3059H74.4933H74.6807H74.8681H75.0554H75.2428H75.4302H75.6175V44.4189H75.8049H75.9923V44.1964H76.1797V43.9856H76.3787V43.7748H76.5661V43.5523V43.3415H76.7535V43.119H76.9409V43.3415H77.1282V43.5523H77.3156V43.7748H77.503H77.6904H77.8777H78.0651H78.2525H78.4398V43.5523H78.6272V43.3415H78.8146V43.5523V43.7748V43.9856V44.1964V44.4189V44.6297V44.8522H79.002V45.063V45.2738H79.1893V45.4963H79.3767V45.7071H79.5641V45.9296H79.7632V45.7071V45.4963H79.9505V45.2738H80.1379V45.063V44.8522V44.6297V44.4189V44.1964V43.9856V43.7748H79.9505Z" fill="#A3C254"/>
<path d="M86.6841 45.7073V45.4965H86.4967V45.274H86.3093V45.0632V44.8524H86.122V44.6299V44.4191V44.1966V43.9858V43.775V43.5525V43.3417H85.9346V43.5525H85.7472V43.775H85.5598H85.3725H85.1851H84.9977H84.8103H84.623V43.5525H84.4356V43.3417H84.2482V43.1192H84.0609V43.3417H83.8618V43.5525V43.775H83.6744V43.9858H83.487V44.1966H83.2997V44.4191H83.1123H82.9249V44.6299H82.7375H82.5502H82.3628H82.1754H81.988H81.8007H81.6133H81.4259V44.4191H81.2386H81.0512V44.1966H80.8638V43.9858H80.6764V43.775H80.4774H80.29V43.9858H80.1026V44.1966H79.9152H79.7279H79.5405H79.3531H79.1657H78.9784V43.9858H78.791V43.775H78.6036V43.5525V43.3417H78.4162V43.1192V42.9084V42.6976V42.4751H78.2289V42.6976V42.9084V43.1192H78.0415V43.3417V43.5525V43.775V43.9858V44.1966V44.4191H78.2289V44.6299V44.8524V45.0632H78.4162V45.274V45.4965H78.6036V45.7073H78.791V45.9298H78.9784H79.1657V46.1406H79.3531H79.5405H79.7279H79.9152H80.1026H80.29H80.4774H80.6764H80.8638H81.0512H81.2386H81.4259H81.6133H81.8007H81.988H82.1754H82.3628H82.5502H82.7375H82.9249H83.1123H83.2997H83.487H83.6744H83.8618H84.0609H84.2482H84.4356H84.623H84.8103H84.9977H85.1851H85.3725H85.5598H85.7472H85.9346H86.122H86.3093H86.4967H86.6841V45.9298H86.8714V45.7073H86.6841Z" fill="#8BA748"/>
<path d="M87.2582 43.7748V43.5523V43.3415H87.0708V43.119H86.8717V42.9082H86.6843V42.6974H86.497H86.3096H86.1222V42.4749V42.2641V42.0416H85.9348V41.8308V41.62V41.3975H85.7475V41.1867H85.5601V40.9759H85.3727V40.7534H85.1853V40.5426H84.998H84.8106H84.6232H84.4359H84.2485H84.0611H83.862H83.6747V40.7534H83.4873V40.5426V40.3201H83.2999V40.1093H83.1125H82.9252V39.8868H82.7378V39.676H82.5504H82.363H82.1757H81.9883H81.8009H81.6136V39.8868H81.4262H81.2388V40.1093H81.0514V40.3201H80.8641V40.5426H80.6767V40.7534H80.4776V40.9759V41.1867V41.3975H80.2902H80.1029H79.9155H79.7281H79.5407H79.3534H79.166V41.62H78.9786H78.7912V41.8308H78.6039V42.0416H78.4165V42.2641V42.4749V42.6974V42.9082V43.119V43.3415H78.6039V43.5523V43.7748H78.7912V43.9856H78.9786V44.1964H79.166H79.3534H79.5407H79.7281H79.9155H80.1029V43.9856H80.2902V43.7748H80.4776H80.6767V43.9856H80.8641V44.1964H81.0514V44.4189H81.2388H81.4262V44.6297H81.6136H81.8009H81.9883H82.1757H82.363H82.5504H82.7378H82.9252V44.4189H83.1125H83.2999V44.1964H83.4873V43.9856H83.6747V43.7748H83.862V43.5523V43.3415H84.0611V43.119H84.2485V43.3415H84.4359V43.5523H84.6232V43.7748H84.8106H84.998H85.1853H85.3727H85.5601H85.7475V43.5523H85.9348V43.3415H86.1222V43.5523V43.7748V43.9856V44.1964V44.4189V44.6297V44.8522H86.3096V45.063V45.2738H86.497V45.4963H86.6843V45.7071H86.8717V45.9296H87.0708V45.7071V45.4963H87.2582V45.2738H87.4455V45.063V44.8522V44.6297V44.4189V44.1964V43.9856V43.7748H87.2582Z" fill="#A3C254"/>
<path d="M92.4927 46.1406V43.775H91.9306V43.5525H91.7432V43.3417H91.5558V43.1192H91.3685V43.3417H91.1811V43.775H90.982V43.9858H90.7946V44.1966H90.6073V44.4191H90.2325V44.6299H88.7335V44.4191H88.3588V44.1966H88.1714V43.9858H87.984V43.775H87.5976V43.9858H87.4102V44.1966H86.286V43.9858H86.0986V43.775H85.9112V43.3417H85.7239V42.4751H85.5365V43.1192H85.3491V44.4191H85.5365V45.0632H85.7239V45.4965H85.9112V45.7073H86.0986V45.9298H86.4734V46.1406H92.4927Z" fill="#8BA748"/>
<path d="M92.4934 43.7748V40.7534V40.5426H90.9828V40.7534H90.7954V40.3201H90.608V40.1093H90.2333V39.8868H90.0459V39.676H88.9217V39.8868H88.5469V40.1093H88.3595V40.3201H88.1722V40.5426H87.9848V40.7534H87.7857V41.3975H86.4741V41.62H86.0994V41.8308H85.912V42.0416H85.7246V43.3415H85.912V43.7748H86.0994V43.9856H86.2867V44.1964H87.411V43.9856H87.5983V43.7748H87.9848V43.9856H88.1722V44.1964H88.3595V44.4189H88.7343V44.6297H90.2333V44.4189H90.608V44.1964H90.7954V43.9856H90.9828V43.7748H91.1818V43.3415H91.3692V43.119H91.5566V43.3415H91.744V43.5523H91.9313V43.7748H92.4934Z" fill="#A3C254"/>
<path d="M90.7372 43.7748V43.5523V43.3415H90.5498V43.119H90.3624V42.9082H90.175V42.6974H89.9877H89.8003H89.6129V42.4749V42.2641V42.0416H89.4255V41.8308V41.62V41.3975H89.2265V41.1867H89.0391V40.9759H88.8517V40.7534H88.6643V40.5426H88.477H88.2896H88.1022H87.9149H87.7275H87.5401H87.3527H87.1654V40.7534H86.978V40.5426V40.3201H86.7906V40.1093H86.6033H86.4159V39.8868H86.2285V39.676H86.0411H85.842H85.6547H85.4673H85.2799H85.0926V39.8868H84.9052H84.7178V40.1093H84.5304V40.3201H84.3431V40.5426H84.1557V40.7534H83.9683V40.9759V41.1867V41.3975H83.7809H83.5936H83.4062H83.2188H83.0315H82.8441H82.6567V41.62H82.4576H82.2703V41.8308H82.0829V42.0416H81.8955V42.2641V42.4749V42.6974V42.9082V43.119V43.3415H82.0829V43.5523V43.7748H82.2703V43.9856H82.4576V44.1964H82.6567H82.8441H83.0315H83.2188H83.4062H83.5936V43.9856H83.7809V43.7748H83.9683H84.1557V43.9856H84.3431V44.1964H84.5304V44.4189H84.7178H84.9052V44.6297H85.0926H85.2799H85.4673H85.6547H85.842H86.0411H86.2285H86.4159V44.4189H86.6033H86.7906V44.1964H86.978V43.9856H87.1654V43.7748H87.3527V43.5523V43.3415H87.5401V43.119H87.7275V43.3415H87.9149V43.5523H88.1022V43.7748H88.2896H88.477H88.6643H88.8517H89.0391H89.2265V43.5523H89.4255V43.3415H89.6129V43.5523V43.7748V43.9856V44.1964V44.4189V44.6297V44.8522H89.8003V45.063V45.2738H89.9877V45.4963H90.175V45.7071H90.3624V45.9296H90.5498V45.7071V45.4963H90.7372V45.2738H90.9245V45.063V44.8522V44.6297V44.4189V44.1964V43.9856V43.7748H90.7372Z" fill="#A3C254"/>
<path d="M75.8402 43.1776V42.9551V42.7443H75.6528V42.5218H75.4654V42.311H75.2781V42.1002H75.0907H74.9033H74.716V41.8777V41.6669V41.4444H74.5286V41.2336V41.0228V40.8003H74.3412V40.5895H74.1421V40.3787H73.9665V40.1562H73.7674V39.9454H73.58H73.3926H73.2053H73.0179H72.8305H72.6431H72.4558H72.2684V40.1562H72.081V39.9454V39.7229H71.8936V39.5121H71.7063H71.5189V39.3013H71.3315V39.0788H71.1442H70.9568H70.7577H70.5703H70.383H70.1956V39.3013H70.0082H69.8208V39.5121H69.6335V39.7229H69.4461V39.9454H69.2587V40.1562H69.0714V40.3787V40.5895V40.8003H68.884H68.6966H68.5092H68.3219H68.1345H67.9471H67.7597V41.0228H67.5607H67.3733V41.2336H67.1859V41.4444H66.9985V41.6669V41.8777V42.1002V42.311V42.5218V42.7443H67.1859V42.9551V43.1776H67.3733V43.3884H67.5607V43.5992H67.7597H67.9471H68.1345H68.3219H68.5092H68.6966V43.3884H68.884V43.1776H69.0714H69.2587V43.3884H69.4461V43.5992H69.6335V43.8217H69.8208H70.0082V44.0325H70.1956H70.383H70.5703H70.7577H70.9568H71.1442H71.3315H71.5189V43.8217H71.7063H71.8936V43.5992H72.081V43.3884H72.2684V43.1776H72.4558V42.9551V42.7443H72.6431V42.5218H72.8305V42.7443H73.0179V42.9551H73.2053V43.1776H73.3926H73.58H73.7674H73.9665H74.1421H74.3412V42.9551H74.5286V42.7443H74.716V42.9551V43.1776V43.3884V43.5992V43.8217V44.0325V44.2433H74.9033V44.4658V44.6766H75.0907V44.8991H75.2781V45.1099H75.4654V45.3207H75.6528V45.1099V44.8991H75.8402V44.6766H76.0276V44.4658V44.2433V44.0325V43.8217V43.5992V43.3884V43.1776H75.8402Z" fill="#A3C254"/>
<path d="M46.8558 43.002V42.7795V42.5687H46.6684V42.3579H46.4811V42.1354H46.282V41.9246H46.0946H45.9072H45.7199V41.7021V41.4913V41.2805H45.5325V41.058V40.8472V40.6247H45.3451V40.4139H45.1577V40.2031H44.9704V39.9806H44.783V39.7698H44.5956H44.4083H44.2209H44.0335H43.8461H43.6588H43.4714H43.2723V39.9806H43.0966V39.7698V39.5473H42.8976V39.3365H42.7102H42.5228V39.1257H42.3354V38.9032H42.1481H41.9607H41.7733H41.586H41.3986H41.2112V39.1257H41.0238H40.8365V39.3365H40.6491V39.5473H40.4617V39.7698H40.2743V39.9806H40.087V40.2031V40.4139V40.6247H39.8879H39.7005H39.5131H39.3258H39.1384H38.951H38.7637V40.8472H38.5763H38.3889V41.058H38.2015V41.2805H38.0142V41.4913V41.7021V41.9246V42.1354V42.3579V42.5687H38.2015V42.7795V43.002H38.3889V43.2128H38.5763V43.4236H38.7637H38.951H39.1384H39.3258H39.5131H39.7005V43.2128H39.8879V43.002H40.087H40.2743V43.2128H40.4617V43.4236H40.6491V43.6461H40.8365H41.0238V43.8569H41.2112H41.3986H41.586H41.7733H41.9607H42.1481H42.3354H42.5228V43.6461H42.7102H42.8976V43.4236H43.0966V43.2128H43.2723V43.002H43.4714V42.7795V42.5687H43.6588V42.3579H43.8461V42.5687H44.0335V42.7795H44.2209V43.002H44.4083H44.5956H44.783H44.9704H45.1577H45.3451V42.7795H45.5325V42.5687H45.7199V42.7795V43.002V43.2128V43.4236V43.6461V43.8569V44.0794H45.9072V44.2902V44.501H46.0946V44.7235H46.282V44.9343H46.4811V45.1568H46.6684V44.9343V44.7235H46.8558V44.501H47.0432V44.2902V44.0794V43.8569V43.6461V43.4236V43.2128V43.002H46.8558Z" fill="#A3C254"/>
<path d="M31.808 42.2175V41.995V41.7842H31.6206V41.5617H31.4332V41.3509H31.2458V41.1401H31.0585H30.8711H30.6837V40.9176V40.7068V40.4843H30.4963V40.2735V40.0627V39.8402H30.309V39.6294H30.1099V39.4186H29.9342V39.1961H29.7351V38.9853H29.5478H29.3604H29.173H28.9857H28.7983H28.6109H28.4235H28.2362V39.1961H28.0488V38.9853V38.7628H27.8614V38.552H27.674H27.4867V38.3412H27.2993V38.1187H27.1119H26.9246H26.7255H26.5381H26.3507H26.1634V38.3412H25.976H25.7886V38.552H25.6012V38.7628H25.4139V38.9853H25.2265V39.1961H25.0391V39.4186V39.6294V39.8402H24.8517H24.6644H24.477H24.2896H24.1023H23.9149H23.7275V40.0627H23.5401H23.3411V40.2735H23.1537V40.4843H22.9663V40.7068V40.9176V41.1401V41.3509V41.5617V41.7842H23.1537V41.995V42.2175H23.3411V42.4283H23.5401V42.6391H23.7275H23.9149H24.1023H24.2896H24.477H24.6644V42.4283H24.8517V42.2175H25.0391H25.2265V42.4283H25.4139V42.6391H25.6012V42.8616H25.7886H25.976V43.0724H26.1634H26.3507H26.5381H26.7255H26.9246H27.1119H27.2993H27.4867V42.8616H27.674H27.8614V42.6391H28.0488V42.4283H28.2362V42.2175H28.4235V41.995V41.7842H28.6109V41.5617H28.7983V41.7842H28.9857V41.995H29.173V42.2175H29.3604H29.5478H29.7351H29.9342H30.1099H30.309V41.995H30.4963V41.7842H30.6837V41.995V42.2175V42.4283V42.6391V42.8616V43.0724V43.2949H30.8711V43.5057V43.7165H31.0585V43.939H31.2458V44.1498H31.4332V44.3723H31.6206V44.1498V43.939H31.808V43.7165H31.9953V43.5057V43.2949V43.0724V42.8616V42.6391V42.4283V42.2175H31.808Z" fill="#A3C254"/>
<path d="M11.0785 42.6037V42.3929V42.1704H10.8911V41.9596H10.7037V41.7488H10.5164V41.5263H10.329H10.1416H9.95424V41.3155V41.093V40.8822H9.76687V40.6714V40.4489V40.2382H9.57949V40.0156H9.39212V39.8049H9.20475V39.5941H9.01737V39.3716H8.83H8.64263H8.45526H8.26788H8.0688H7.88143H7.69406H7.50668V39.5941H7.31931V39.3716V39.1608H7.13194V38.9383H6.94456H6.75719V38.7275H6.56982V38.5167H6.38245H6.19507H6.0077H5.82033H5.63296H5.44558V38.7275H5.25821H5.07084V38.9383H4.87175V39.1608H4.68438V39.3716H4.49701V39.5941H4.30964V39.8049V40.0156V40.2382H4.12226H3.93489H3.74752H3.56014H3.37277H3.1854H2.99803V40.4489H2.81065H2.62328V40.6714H2.43591V40.8822H2.24854V41.093V41.3155V41.5263V41.7488V41.9596V42.1704H2.43591V42.3929V42.6037H2.62328V42.8145H2.81065V43.037H2.99803H3.1854H3.37277H3.56014H3.74752H3.93489V42.8145H4.12226V42.6037H4.30964H4.49701V42.8145H4.68438V43.037H4.87175V43.2478H5.07084H5.25821V43.4703H5.44558H5.63296H5.82033H6.0077H6.19507H6.38245H6.56982H6.75719V43.2478H6.94456H7.13194V43.037H7.31931V42.8145H7.50668V42.6037H7.69406V42.3929V42.1704H7.88143V41.9596H8.0688V42.1704H8.26788V42.3929H8.45526V42.6037H8.64263H8.83H9.01737H9.20475H9.39212H9.57949V42.3929H9.76687V42.1704H9.95424V42.3929V42.6037V42.8145V43.037V43.2478V43.4703V43.6811H10.1416V43.9036V44.1144H10.329V44.3252H10.5164V44.5477H10.7037V44.7585H10.8911V44.5477V44.3252H11.0785V44.1144H11.2658V43.9036V43.6811V43.4703V43.2478V43.037V42.8145V42.6037H11.0785Z" fill="#A3C254"/>
<path d="M44.4906 25.1548H35.6606V32.0642H44.4906V25.1548Z" fill="#9D5728"/>
<path d="M44.4906 28.024H43.706V25.8575H40.4387V26.771H37.6866V28.27H35.6606V29.7689H38.0848V32.0643H39.4198V29.0195H41.3638V30.5184H42.7925V29.5113H44.4906V28.024Z" fill="#AB5E2B"/>
<path d="M44.1509 28.9373H42.7925V30.0147H44.1509V28.9373Z" fill="#864C25"/>
<path d="M41.7608 26.7007H40.4023V27.7781H41.7608V26.7007Z" fill="#864C25"/>
<path d="M38.2247 28.2346H36.8662V29.312H38.2247V28.2346Z" fill="#864C25"/>
<path d="M35.6606 27.45H44.4906" stroke="#512F17" stroke-width="0.25" stroke-miterlimit="10"/>
<path d="M35.6606 30.1904H44.4906" stroke="#512F17" stroke-width="0.25" stroke-miterlimit="10"/>
<path d="M40.2285 25.1548V27.4501" stroke="#512F17" stroke-width="0.25" stroke-miterlimit="10"/>
<path d="M40.2285 30.0732V32.0641" stroke="#512F17" stroke-width="0.25" stroke-miterlimit="10"/>
<path d="M37.3945 27.4852V30.0733" stroke="#512F17" stroke-width="0.25" stroke-miterlimit="10"/>
<path d="M42.875 27.4852V30.0733" stroke="#512F17" stroke-width="0.25" stroke-miterlimit="10"/>
<path d="M44.4906 25.1548H35.6606V32.0642H44.4906V25.1548Z" stroke="#512F17" stroke-width="0.25" stroke-miterlimit="10"/>
<path d="M35.6136 25.1548H26.7837V32.0642H35.6136V25.1548Z" fill="#9D5728"/>
<path d="M35.6136 28.024H34.829V25.8575H31.5617V26.771H28.7979V28.27H26.7837V29.7689H29.2078V32.0643H30.5311V29.0195H32.4751V30.5184H33.9039V29.5113H35.6136V28.024Z" fill="#AB5E2B"/>
<path d="M35.2627 28.9373H33.9043V30.0147H35.2627V28.9373Z" fill="#864C25"/>
<path d="M32.8838 26.7007H31.5254V27.7781H32.8838V26.7007Z" fill="#864C25"/>
<path d="M29.3365 28.2346H27.978V29.312H29.3365V28.2346Z" fill="#864C25"/>
<path d="M26.7837 27.45H35.6136" stroke="#512F17" stroke-width="0.25" stroke-miterlimit="10"/>
<path d="M26.7837 30.1904H35.6136" stroke="#512F17" stroke-width="0.25" stroke-miterlimit="10"/>
<path d="M31.3516 25.1548V27.4501" stroke="#512F17" stroke-width="0.25" stroke-miterlimit="10"/>
<path d="M31.3516 30.0732V32.0641" stroke="#512F17" stroke-width="0.25" stroke-miterlimit="10"/>
<path d="M28.5039 27.4852V30.0733" stroke="#512F17" stroke-width="0.25" stroke-miterlimit="10"/>
<path d="M33.998 27.4852V30.0733" stroke="#512F17" stroke-width="0.25" stroke-miterlimit="10"/>
<path d="M35.6136 25.1548H26.7837V32.0642H35.6136V25.1548Z" stroke="#512F17" stroke-width="0.25" stroke-miterlimit="10"/>
<path d="M69.4813 25.1548H60.6514V32.0642H69.4813V25.1548Z" fill="#9D5728"/>
<path d="M69.4813 28.024H68.6967V25.8575H65.4294V26.771H62.6656V28.27H60.6514V29.7689H63.0755V32.0643H64.4105V29.0195H66.3428V30.5184H67.7715V29.5113H69.4813V28.024Z" fill="#AB5E2B"/>
<path d="M69.1299 28.9373H67.7715V30.0147H69.1299V28.9373Z" fill="#864C25"/>
<path d="M66.7515 26.7007H65.3931V27.7781H66.7515V26.7007Z" fill="#864C25"/>
<path d="M63.2154 28.2346H61.8569V29.312H63.2154V28.2346Z" fill="#864C25"/>
<path d="M60.6514 27.45H69.4813" stroke="#512F17" stroke-width="0.25" stroke-miterlimit="10"/>
<path d="M60.6514 30.1904H69.4813" stroke="#512F17" stroke-width="0.25" stroke-miterlimit="10"/>
<path d="M65.2192 25.1548V27.4501" stroke="#512F17" stroke-width="0.25" stroke-miterlimit="10"/>
<path d="M65.2192 30.0732V32.0641" stroke="#512F17" stroke-width="0.25" stroke-miterlimit="10"/>
<path d="M62.3853 27.4852V30.0733" stroke="#512F17" stroke-width="0.25" stroke-miterlimit="10"/>
<path d="M67.8652 27.4852V30.0733" stroke="#512F17" stroke-width="0.25" stroke-miterlimit="10"/>
<path d="M69.4813 25.1548H60.6514V32.0642H69.4813V25.1548Z" stroke="#512F17" stroke-width="0.25" stroke-miterlimit="10"/>
<path d="M60.6044 25.1548H51.7744V32.0642H60.6044V25.1548Z" fill="#9D5728"/>
<path d="M60.6044 28.024H59.808V25.8575H56.5407V26.771H53.7887V28.27H51.7744V29.7689H54.1985V32.0643H55.5219V29.0195H57.4659V30.5184H58.8946V29.5113H60.6044V28.024Z" fill="#AB5E2B"/>
<path d="M60.253 28.9373H58.8945V30.0147H60.253V28.9373Z" fill="#864C25"/>
<path d="M57.8628 26.7007H56.5044V27.7781H57.8628V26.7007Z" fill="#864C25"/>
<path d="M54.3267 28.2346H52.9683V29.312H54.3267V28.2346Z" fill="#864C25"/>
<path d="M51.7744 27.45H60.6044" stroke="#512F17" stroke-width="0.25" stroke-miterlimit="10"/>
<path d="M51.7744 30.1904H60.6044" stroke="#512F17" stroke-width="0.25" stroke-miterlimit="10"/>
<path d="M56.3306 25.1548V27.4501" stroke="#512F17" stroke-width="0.25" stroke-miterlimit="10"/>
<path d="M56.3306 30.0732V32.0641" stroke="#512F17" stroke-width="0.25" stroke-miterlimit="10"/>
<path d="M53.4971 27.4852V30.0733" stroke="#512F17" stroke-width="0.25" stroke-miterlimit="10"/>
<path d="M58.9888 27.4852V30.0733" stroke="#512F17" stroke-width="0.25" stroke-miterlimit="10"/>
<path d="M60.6044 25.1548H51.7744V32.0642H60.6044V25.1548Z" stroke="#512F17" stroke-width="0.25" stroke-miterlimit="10"/>
<path d="M51.6446 24.944H44.5127V32.2516H51.6446V24.944Z" fill="#B57A4A"/>
<path d="M50.8834 25.7286H45.2856V31.4669H50.8834V25.7286Z" fill="#FFCE00"/>
<path d="M46.0348 30.9047H45.4844V31.4785H46.0348V30.9047Z" fill="#F6B210"/>
<path d="M50.3803 25.7286V26.3024H49.8182V26.8762H49.2678V27.4501H48.7174V28.0356H48.1552V28.5977H47.6048V29.1833H47.0427V29.7571H46.4923V30.3309H45.9419V30.9047V31.4786H46.4923H47.0427H47.6048H48.1552H48.7174H49.2678H49.8182H50.3803H50.9307V30.9047V30.3309V29.7571V29.1833V28.5977V28.0356V27.4501V26.8762V26.3024V25.7286H50.3803Z" fill="#F6B210"/>
<path d="M45.5197 25.8458H44.9927V26.3728H45.5197V25.8458Z" fill="#B57A4A"/>
<path d="M45.5197 25.4475H44.9927V26.3727H45.5197V25.4475Z" fill="#B57A4A"/>
<path d="M46.0114 25.3772H45.4844V25.9042H46.0114V25.3772Z" fill="#B57A4A"/>
<path d="M51.1647 25.4124H50.6377V26.3375H51.1647V25.4124Z" fill="#B57A4A"/>
<path d="M50.673 25.3538H50.146V25.8807H50.673V25.3538Z" fill="#B57A4A"/>
<path d="M45.5197 30.7877H44.9927V31.7129H45.5197V30.7877Z" fill="#B57A4A"/>
<path d="M46.0114 31.256H45.4844V31.783H46.0114V31.256Z" fill="#B57A4A"/>
<path d="M51.1647 30.8229H50.6377V31.748H51.1647V30.8229Z" fill="#B57A4A"/>
<path d="M50.673 31.2912H50.146V31.8182H50.673V31.2912Z" fill="#B57A4A"/>
<path d="M46.4932 27.7898V27.2628H47.0202V27.7898H46.4932ZM47.5588 29.9212V28.8555H48.0858V28.3636H48.566V27.298H47.0202V26.7241H49.1515V27.2628H49.7371V28.3636H49.1515V28.8906H48.566V29.9563L47.5588 29.9212ZM47.5588 30.9751V30.4482H48.566V30.9751H47.5588Z" fill="#9D6B40"/>
</svg>
