<svg width="97" height="38" viewBox="0 0 97 38" fill="none" xmlns="http://www.w3.org/2000/svg">
<path d="M22.421 18.9136L35.1507 28.6102C32.9798 32.2453 29.6519 35.0468 25.6999 36.5662C21.7479 38.0856 17.4004 38.2349 13.3534 36.9903C9.30647 35.7457 5.79419 33.1791 3.37896 29.7016C0.963729 26.224 -0.214751 22.0366 0.0322147 17.8098C0.27918 13.583 1.93731 9.5613 4.7411 6.38867C7.54489 3.21604 11.3322 1.07598 15.4965 0.311156C19.6609 -0.453673 23.9614 0.200968 27.7096 2.17026C31.4578 4.13955 34.4367 7.30959 36.1695 11.1728L22.421 18.9136Z" fill="#F9C05B"/>
<path d="M41.6175 21.3611C42.9692 21.3611 44.065 20.2652 44.065 18.9135C44.065 17.5618 42.9692 16.4659 41.6175 16.4659C40.2657 16.4659 39.1699 17.5618 39.1699 18.9135C39.1699 20.2652 40.2657 21.3611 41.6175 21.3611Z" fill="#F9C05B"/>
<path d="M49.5889 18.9136C49.5889 18.4295 49.7324 17.9563 50.0014 17.5538C50.2703 17.1513 50.6526 16.8376 51.0998 16.6523C51.547 16.4671 52.0391 16.4186 52.5139 16.513C52.9887 16.6075 53.4248 16.8406 53.7671 17.1829C54.1094 17.5252 54.3425 17.9613 54.4369 18.4361C54.5314 18.9108 54.4829 19.403 54.2977 19.8502C54.1124 20.2974 53.7987 20.6797 53.3962 20.9486C52.9937 21.2176 52.5205 21.3611 52.0364 21.3611C51.3873 21.3611 50.7647 21.1033 50.3057 20.6442C49.8467 20.1852 49.5889 19.5627 49.5889 18.9136Z" fill="#F9C05B"/>
<path d="M62.4495 21.3611C63.8013 21.3611 64.8971 20.2652 64.8971 18.9135C64.8971 17.5618 63.8013 16.4659 62.4495 16.4659C61.0978 16.4659 60.002 17.5618 60.002 18.9135C60.002 20.2652 61.0978 21.3611 62.4495 21.3611Z" fill="#F9C05B"/>
<path d="M84.9694 0.165074C83.1739 0.0379229 81.3715 0.286103 79.6771 0.893809C77.9827 1.50151 76.4334 2.45543 75.128 3.69479C73.8225 4.93415 72.7895 6.4318 72.0946 8.09235C71.3998 9.75291 71.0584 11.54 71.0921 13.3397V36.5622C71.0918 36.6751 71.1254 36.7854 71.1886 36.8789C71.2518 36.9724 71.3417 37.0447 71.4466 37.0863C71.5514 37.128 71.6664 37.1372 71.7766 37.1127C71.8867 37.0881 71.9869 37.031 72.0641 36.9487L73.2352 35.7776L74.9098 34.0093C74.9689 33.9476 75.0398 33.8986 75.1183 33.8651C75.1968 33.8316 75.2812 33.8143 75.3666 33.8143C75.4519 33.8143 75.5364 33.8316 75.6149 33.8651C75.6934 33.8986 75.7643 33.9476 75.8233 34.0093L77.4628 35.719L79.2194 37.5342C79.271 37.5899 79.3334 37.6344 79.403 37.6648C79.4725 37.6951 79.5476 37.7108 79.6234 37.7108C79.6993 37.7108 79.7744 37.6951 79.8439 37.6648C79.9134 37.6344 79.9759 37.5899 80.0275 37.5342L81.749 35.719L83.4236 33.9507C83.4826 33.8891 83.5535 33.84 83.632 33.8065C83.7105 33.773 83.795 33.7557 83.8803 33.7557C83.9657 33.7557 84.0501 33.773 84.1286 33.8065C84.2071 33.84 84.278 33.8891 84.337 33.9507L86.0117 35.719L87.7449 37.5342C87.7964 37.5899 87.8589 37.6344 87.9284 37.6648C87.998 37.6951 88.073 37.7108 88.1489 37.7108C88.2248 37.7108 88.2998 37.6951 88.3694 37.6648C88.4389 37.6344 88.5014 37.5899 88.5529 37.5342L90.2744 35.719L91.9491 33.9507C92.0081 33.8891 92.079 33.84 92.1575 33.8065C92.236 33.773 92.3204 33.7557 92.4058 33.7557C92.4911 33.7557 92.5756 33.773 92.6541 33.8065C92.7326 33.84 92.8035 33.8891 92.8625 33.9507L94.5371 35.719L95.7082 36.8901C95.7861 36.9683 95.8853 37.0219 95.9935 37.0441C96.1016 37.0663 96.2139 37.0561 96.3163 37.0149C96.4188 36.9737 96.5068 36.9032 96.5694 36.8123C96.632 36.7214 96.6665 36.6141 96.6685 36.5037V12.9416C96.6745 9.73323 95.4755 6.63964 93.3088 4.27344C91.1421 1.90724 88.1659 0.44099 84.9694 0.165074Z" fill="#1C55A1"/>
<path d="M75.9648 14.1125C75.9648 13.4941 76.1482 12.8896 76.4918 12.3754C76.8354 11.8612 77.3237 11.4604 77.8951 11.2237C78.4664 10.9871 79.0951 10.9252 79.7016 11.0458C80.3082 11.1664 80.8653 11.4642 81.3026 11.9015C81.7399 12.3388 82.0377 12.896 82.1583 13.5025C82.279 14.109 82.2171 14.7377 81.9804 15.3091C81.7437 15.8804 81.343 16.3688 80.8288 16.7123C80.3146 17.0559 79.71 17.2393 79.0916 17.2393C78.2633 17.2362 77.4698 16.9058 76.8841 16.3201C76.2983 15.7343 75.9679 14.9408 75.9648 14.1125Z" fill="white"/>
<path d="M80.298 15.3537C80.9642 15.3537 81.5042 14.8137 81.5042 14.1475C81.5042 13.4813 80.9642 12.9413 80.298 12.9413C79.6318 12.9413 79.0918 13.4813 79.0918 14.1475C79.0918 14.8137 79.6318 15.3537 80.298 15.3537Z" fill="#1C55A1"/>
<path d="M85.5542 14.1125C85.5542 13.4941 85.7376 12.8896 86.0812 12.3754C86.4247 11.8612 86.9131 11.4604 87.4844 11.2237C88.0558 10.9871 88.6844 10.9252 89.291 11.0458C89.8975 11.1664 90.4547 11.4642 90.8919 11.9015C91.3292 12.3388 91.627 12.896 91.7477 13.5025C91.8683 14.109 91.8064 14.7377 91.5697 15.3091C91.3331 15.8804 90.9323 16.3688 90.4181 16.7123C89.9039 17.0559 89.2994 17.2393 88.681 17.2393C87.8517 17.2393 87.0564 16.9099 86.47 16.3235C85.8836 15.7371 85.5542 14.9418 85.5542 14.1125Z" fill="white"/>
<path d="M89.8869 15.3538C90.553 15.3538 91.0931 14.8137 91.0931 14.1476C91.0931 13.4814 90.553 12.9413 89.8869 12.9413C89.2207 12.9413 88.6807 13.4814 88.6807 14.1476C88.6807 14.8137 89.2207 15.3538 89.8869 15.3538Z" fill="#1C55A1"/>
</svg>
