<svg width="145" height="308" viewBox="0 0 145 308" fill="none" xmlns="http://www.w3.org/2000/svg">
<path d="M52.975 307.653C45.7922 307.653 40.2228 299.683 40.2228 288.987L40.0186 221.953C40.0186 216.82 41.3889 211.898 43.828 208.269C46.2671 204.64 49.5752 202.601 53.0246 202.601C56.474 202.601 59.7822 204.64 62.2213 208.269C64.6604 211.898 66.0307 216.82 66.0307 221.953L65.7389 288.904C65.736 299.6 60.1578 307.653 52.975 307.653Z" fill="#3F3F3F"/>
<path d="M88.4915 307.653C81.3087 307.653 75.7393 299.683 75.7393 288.987L75.5351 221.953C75.5351 216.82 76.9053 211.898 79.3445 208.269C81.7836 204.64 85.0917 202.601 88.5411 202.601C91.9905 202.601 95.2987 204.64 97.7378 208.269C100.177 211.898 101.547 216.82 101.547 221.953L101.255 288.904C101.252 299.6 95.6743 307.653 88.4915 307.653Z" fill="#3F3F3F"/>
<path d="M33.0153 195.097C33.0153 214.106 41.7694 222.611 71.7833 222.611C101.797 222.611 110.551 214.106 110.551 195.097H33.0153Z" fill="#3F3F3F"/>
<path d="M140.479 174.66L109.122 131.513C104.812 125.761 97.3114 124.094 92.3752 127.795C87.439 131.495 86.9409 139.148 91.2522 144.894L122.599 188.057C126.909 193.809 134.407 195.475 139.346 191.775C144.285 188.076 144.788 180.412 140.479 174.66Z" fill="#3F3F3F"/>
<path d="M3.49816 174.952L34.8546 131.804C39.1645 126.052 46.6653 124.386 51.6015 128.086C56.5377 131.786 57.0358 139.44 52.7245 145.186L21.3779 188.349C17.068 194.101 9.57 195.767 4.63098 192.067C-0.308051 188.368 -0.811718 180.704 3.49816 174.952Z" fill="#3F3F3F"/>
<path d="M110.279 170.703C110.279 139.977 94.8543 114.719 71.8285 114.719C48.8027 114.719 33.275 139.977 33.275 170.703C33.275 181.045 33.0153 195.467 33.0153 195.467H110.551C110.551 195.467 110.279 180.196 110.279 170.703Z" fill="#3F3F3F"/>
<path d="M119.925 19.675C119.925 19.675 134.813 38.0189 134.813 41.0204L72.1739 30.1843L9.75454 41.0204C16.5077 28.0139 24.42 19.675 24.42 19.675C37.1177 7.07223 54.2824 0 72.1723 0C90.0623 0 107.227 7.07223 119.925 19.675Z" fill="#3F3F3F"/>
<path d="M140.086 67.9131H4.2643C4.25305 58.5409 6.19287 49.2689 9.96033 40.6873L72.175 30.1843L134.39 40.6873C138.157 49.2689 140.097 58.5409 140.086 67.9131Z" fill="#3F3F3F"/>
<path d="M26.8528 65.3081C26.8286 55.5821 28.6845 45.9432 32.3186 36.9217L9.96033 40.6873C6.19373 49.267 4.25392 58.537 4.2643 67.9071H26.9002C26.8718 67.0492 26.8528 66.1786 26.8528 65.3081Z" fill="#3F3F3F"/>
<path d="M128.456 87.1314C137.234 87.1314 144.349 80.0157 144.349 71.2381C144.349 62.4605 137.234 55.3449 128.456 55.3449C119.679 55.3449 112.564 62.4605 112.564 71.2381C112.564 80.0157 119.679 87.1314 128.456 87.1314Z" fill="#3F3F3F"/>
<path d="M22.9003 40.6873C18.1703 49.2567 15.7568 58.9114 15.8981 68.6985C16.0393 78.4856 18.7303 88.0667 23.7055 96.496C28.6807 104.925 35.7681 111.911 44.268 116.765C52.7679 121.618 62.3865 124.17 72.1743 124.17C81.9622 124.17 91.5808 121.618 100.081 116.765C108.581 111.911 115.668 104.925 120.643 96.496C125.618 88.0667 128.309 78.4856 128.451 68.6985C128.592 58.9114 126.178 49.2567 121.448 40.6873L72.1739 30.1843L22.9003 40.6873Z" fill="#3F3F3F"/>
<path d="M51.4093 120.239C36.5069 107.774 26.8528 87.8122 26.8528 65.3081C26.8372 56.2756 28.4393 47.3133 31.5836 38.8457L22.9008 40.6877C20.3431 45.3043 18.4529 50.2603 17.2868 55.4076C16.8235 55.3612 16.3583 55.3381 15.8927 55.3382C11.6777 55.3382 7.63534 57.0127 4.65487 59.9933C1.67441 62.9738 0 67.0163 0 71.2315C0 75.4467 1.67441 79.4892 4.65487 82.4697C7.63534 85.4503 11.6777 87.1248 15.8927 87.1248C16.9789 87.1456 18.0627 87.015 19.1129 86.7368C21.8062 94.2956 26.0799 101.193 31.6489 106.97C37.2179 112.747 43.9544 117.271 51.4093 120.239Z" fill="#3F3F3F"/>
</svg>
