<svg width="505" height="780" viewBox="0 0 505 780" fill="none" xmlns="http://www.w3.org/2000/svg">
<path d="M360.333 23.5189C360.333 31.8443 352.382 40.0377 340.678 40.0377C328.974 40.0377 321.023 31.8443 321.023 23.5189C321.023 15.1934 328.974 7 340.678 7C352.382 7 360.333 15.1934 360.333 23.5189Z" fill="#3F3F3F" stroke="#3F3F3F" stroke-width="14"/>
<path d="M220.266 55.4006C220.266 59.5811 216.321 64.0798 210.019 64.0798C203.717 64.0798 199.771 59.5811 199.771 55.4006C199.771 51.22 203.717 46.7213 210.019 46.7213C216.321 46.7213 220.266 51.22 220.266 55.4006Z" fill="#3F3F3F" stroke="#3F3F3F" stroke-width="14"/>
<path d="M335.137 13.5885C368.178 120.69 227.882 143.791 212.633 60.3144" stroke="#3F3F3F" stroke-width="14" stroke-linecap="round" stroke-linejoin="round"/>
<path d="M461.551 55.4006C461.551 59.5811 465.496 64.0798 471.798 64.0798C478.1 64.0798 482.045 59.5811 482.045 55.4006C482.045 51.22 478.1 46.7213 471.798 46.7213C465.496 46.7213 461.551 51.22 461.551 55.4006Z" fill="#3F3F3F" stroke="#3F3F3F" stroke-width="14"/>
<path d="M348.231 13.5885C315.732 120.69 453.727 143.791 468.727 60.3144" stroke="#3F3F3F" stroke-width="14" stroke-linecap="round" stroke-linejoin="round"/>
<path d="M442.238 230.372C438.76 230.374 435.316 229.691 432.103 228.361C428.889 227.032 425.969 225.082 423.51 222.624C421.05 220.165 419.099 217.246 417.768 214.034C416.436 210.821 415.751 207.378 415.751 203.9V155.481C415.873 147.754 414.456 140.08 411.583 132.907C408.71 125.733 404.438 119.203 399.017 113.696C393.596 108.189 387.133 103.815 380.006 100.83C372.878 97.8448 365.228 96.3075 357.5 96.3075C349.772 96.3075 342.122 97.8448 334.994 100.83C327.867 103.815 321.404 108.189 315.983 113.696C310.562 119.203 306.29 125.733 303.417 132.907C300.544 140.08 299.127 147.754 299.249 155.481V203.9C299.088 210.816 296.227 217.394 291.279 222.229C286.331 227.063 279.687 229.77 272.77 229.77C265.852 229.77 259.208 227.063 254.26 222.229C249.312 217.394 246.451 210.816 246.29 203.9V155.481C246.123 140.77 248.876 126.172 254.39 112.533C259.904 98.8941 268.069 86.4843 278.412 76.0228C288.756 65.5612 301.072 57.2557 314.647 51.5872C328.223 45.9187 342.788 43 357.5 43C372.212 43 386.777 45.9187 400.353 51.5872C413.928 57.2557 426.244 65.5612 436.588 76.0228C446.931 86.4843 455.096 98.8941 460.61 112.533C466.124 126.172 468.877 140.77 468.71 155.481V203.9C468.71 210.921 465.921 217.654 460.956 222.619C455.992 227.583 449.258 230.372 442.238 230.372Z" fill="#979797"/>
<path d="M90.0008 422.973C66.3224 432.799 45.8909 449.097 31.0476 469.999C16.2042 490.901 7.54939 515.562 6.07473 541.156L0.156956 643.611C-0.586088 656.52 1.31457 669.446 5.74248 681.595C10.1704 693.744 17.0323 704.861 25.9077 714.265C34.7832 723.669 45.4853 731.162 57.3584 736.284C69.2314 741.407 82.0253 744.051 94.9562 744.055H159.29L90.0008 422.973Z" fill="#3F3F3F"/>
<path d="M272.763 230.372C279.785 230.372 286.52 227.584 291.487 222.62C296.453 217.656 299.246 210.922 299.249 203.9V155.481C299.228 141.821 304.036 128.594 312.823 118.136C291.831 119.184 270.944 121.762 250.327 125.849C247.65 135.494 246.292 145.457 246.291 155.466V203.886C246.289 207.363 246.972 210.807 248.302 214.021C249.631 217.234 251.581 220.154 254.039 222.614C256.498 225.073 259.417 227.024 262.629 228.356C265.842 229.687 269.285 230.372 272.763 230.372Z" fill="#3F3F3F"/>
<path d="M415.751 155.481V203.9C415.912 210.816 418.773 217.394 423.721 222.229C428.669 227.063 435.313 229.77 442.23 229.77C449.148 229.77 455.792 227.063 460.74 222.229C465.688 217.394 468.549 210.816 468.71 203.9V155.481C468.709 145.471 467.351 135.508 464.673 125.863C444.058 121.77 423.17 119.192 402.178 118.15C410.956 128.607 415.763 141.827 415.751 155.481Z" fill="#3F3F3F"/>
<path d="M636.145 673.128C636.145 215.994 566.309 153.958 357.492 153.958C148.675 153.958 78.8398 215.994 78.8398 673.128H636.145Z" fill="#5E6366"/>
<path d="M357.809 402.806C84.3558 402.806 79.1562 533.284 79.1562 673.128C79.1562 764.006 196.937 779.777 279.298 779.676C331.638 779.619 383.974 779.619 436.305 779.676C518.723 779.777 636.447 764.006 636.447 673.128C636.461 533.299 631.276 402.806 357.809 402.806Z" fill="#3F3F3F"/>
<path d="M436.377 726.718C410.197 726.718 384.008 726.718 357.809 726.718H279.24H278.551C232.214 726.718 193.677 721.289 167.09 710.99C132.129 697.46 132.129 681.631 132.129 673.128C132.129 605.806 134.125 551.498 159.161 516.135C187.888 475.515 252.912 455.808 357.809 455.808C462.706 455.808 527.701 475.558 556.456 516.135C581.506 551.498 583.474 605.878 583.474 673.128C583.474 681.631 583.474 697.46 548.513 710.99C521.941 721.274 483.403 726.718 437.067 726.718H436.377Z" fill="#5E6366"/>
</svg>
