<svg width="494" height="780" viewBox="0 0 494 780" fill="none" xmlns="http://www.w3.org/2000/svg">
<path d="M139.333 23.5189C139.333 31.8443 131.382 40.0377 119.678 40.0377C107.974 40.0377 100.023 31.8443 100.023 23.5189C100.023 15.1934 107.974 7 119.678 7C131.382 7 139.333 15.1934 139.333 23.5189Z" fill="#3F3F3F" stroke="#3F3F3F" stroke-width="14"/>
<path d="M-0.7342 55.4006C-0.7342 59.5811 -4.67924 64.0798 -10.9814 64.0798C-17.2835 64.0798 -21.2285 59.5811 -21.2285 55.4006C-21.2285 51.22 -17.2835 46.7213 -10.9814 46.7213C-4.67924 46.7213 -0.7342 51.22 -0.7342 55.4006Z" fill="#3F3F3F" stroke="#3F3F3F" stroke-width="14"/>
<path d="M114.137 13.5885C147.178 120.69 6.88231 143.791 -8.36719 60.3144" stroke="#3F3F3F" stroke-width="14" stroke-linecap="round" stroke-linejoin="round"/>
<path d="M240.551 55.4006C240.551 59.5811 244.496 64.0798 250.798 64.0798C257.1 64.0798 261.045 59.5811 261.045 55.4006C261.045 51.22 257.1 46.7213 250.798 46.7213C244.496 46.7213 240.551 51.22 240.551 55.4006Z" fill="#3F3F3F" stroke="#3F3F3F" stroke-width="14"/>
<path d="M127.231 13.5885C94.7316 120.69 232.727 143.791 247.727 60.3144" stroke="#3F3F3F" stroke-width="14" stroke-linecap="round" stroke-linejoin="round"/>
<path d="M221.238 230.372C217.76 230.374 214.316 229.691 211.103 228.361C207.889 227.032 204.969 225.082 202.51 222.624C200.05 220.165 198.099 217.246 196.768 214.034C195.436 210.821 194.751 207.378 194.751 203.9V155.481C194.873 147.754 193.456 140.08 190.583 132.907C187.71 125.733 183.438 119.203 178.017 113.696C172.596 108.189 166.133 103.815 159.006 100.83C151.878 97.8448 144.228 96.3075 136.5 96.3075C128.772 96.3075 121.122 97.8448 113.994 100.83C106.867 103.815 100.404 108.189 94.9829 113.696C89.5617 119.203 85.2903 125.733 82.4174 132.907C79.5444 140.08 78.1274 147.754 78.2487 155.481V203.9C78.0876 210.816 75.2271 217.394 70.2789 222.229C65.3306 227.063 58.6874 229.77 51.7695 229.77C44.8517 229.77 38.2085 227.063 33.2602 222.229C28.312 217.394 25.4515 210.816 25.2904 203.9V155.481C25.1232 140.77 27.8762 126.172 33.3901 112.533C38.9039 98.8941 47.0689 86.4843 57.4123 76.0228C67.7556 65.5612 80.0718 57.2557 93.6474 51.5872C107.223 45.9187 121.788 43 136.5 43C151.212 43 165.777 45.9187 179.353 51.5872C192.928 57.2557 205.244 65.5612 215.588 76.0228C225.931 86.4843 234.096 98.8941 239.61 112.533C245.124 126.172 247.877 140.77 247.71 155.481V203.9C247.71 210.921 244.921 217.654 239.956 222.619C234.992 227.583 228.258 230.372 221.238 230.372Z" fill="#979797"/>
<path d="M403.999 422.973C427.677 432.799 448.108 449.097 462.952 469.999C477.795 490.901 486.45 515.562 487.925 541.156L493.842 643.611C494.585 656.52 492.685 669.446 488.257 681.595C483.829 693.744 476.967 704.861 468.092 714.265C459.216 723.669 448.514 731.162 436.641 736.284C424.768 741.407 411.974 744.051 399.043 744.055H334.709L403.999 422.973Z" fill="#3F3F3F"/>
<path d="M51.763 230.372C58.7851 230.372 65.5199 227.584 70.4866 222.62C75.4533 217.656 78.2455 210.922 78.2493 203.9V155.481C78.2281 141.821 83.0358 128.594 91.8229 118.136C70.8312 119.184 49.9439 121.762 29.3272 125.849C26.6498 135.494 25.2921 145.457 25.291 155.466V203.886C25.2891 207.363 25.9725 210.807 27.3019 214.021C28.6314 217.234 30.5811 220.154 33.0394 222.614C35.4977 225.073 38.4166 227.024 41.6293 228.356C44.842 229.687 48.2854 230.372 51.763 230.372Z" fill="#3F3F3F"/>
<path d="M194.751 155.481V203.9C194.912 210.816 197.773 217.394 202.721 222.229C207.669 227.063 214.313 229.77 221.23 229.77C228.148 229.77 234.792 227.063 239.74 222.229C244.688 217.394 247.549 210.816 247.71 203.9V155.481C247.709 145.471 246.351 135.508 243.673 125.863C223.058 121.77 202.17 119.192 181.178 118.15C189.956 128.607 194.763 141.827 194.751 155.481Z" fill="#3F3F3F"/>
<path d="M415.145 673.128C415.145 215.994 345.309 153.958 136.492 153.958C-72.3247 153.958 -142.16 215.994 -142.16 673.128H415.145Z" fill="#5E6366"/>
<path d="M136.809 402.806C-136.644 402.806 -141.844 533.284 -141.844 673.128C-141.844 764.006 -24.0628 779.777 58.2977 779.676C110.638 779.619 162.974 779.619 215.305 779.676C297.723 779.777 415.447 764.006 415.447 673.128C415.461 533.299 410.276 402.806 136.809 402.806Z" fill="#3F3F3F"/>
<path d="M215.377 726.718C189.197 726.718 163.008 726.718 136.809 726.718H58.2402H57.5507C11.214 726.718 -27.3234 721.289 -53.9103 710.99C-88.8711 697.46 -88.8711 681.631 -88.8711 673.128C-88.8711 605.806 -86.8746 551.498 -61.8389 516.135C-33.1119 475.515 31.9118 455.808 136.809 455.808C241.706 455.808 306.701 475.558 335.456 516.135C360.506 551.498 362.474 605.878 362.474 673.128C362.474 681.631 362.474 697.46 327.513 710.99C300.941 721.274 262.403 726.718 216.067 726.718H215.377Z" fill="#5E6366"/>
</svg>
