<svg width="529" height="358" viewBox="0 0 529 358" fill="none" xmlns="http://www.w3.org/2000/svg">
<path d="M264.023 0.915649C4.9266 0.915649 0 124.544 0 257.045C0 343.152 111.597 358.095 189.634 357.999C239.226 357.945 288.814 357.945 338.398 357.999C416.489 358.095 528.032 343.152 528.032 257.045C528.045 124.557 523.132 0.915649 264.023 0.915649Z" fill="#EC5858"/>
<path d="M338.466 307.822C313.661 307.822 288.846 307.822 264.023 307.822H189.579H188.926C145.022 307.822 108.508 302.677 83.3167 292.919C50.1914 280.099 50.1914 265.102 50.1914 257.045C50.1914 193.258 52.0831 141.8 75.8043 108.294C103.023 69.8066 164.633 51.1345 264.023 51.1345C363.412 51.1345 424.995 69.8475 452.241 108.294C475.976 141.8 477.84 193.326 477.84 257.045C477.84 265.102 477.84 280.099 444.715 292.919C419.537 302.664 383.023 307.822 339.119 307.822H338.466Z" fill="#21BAAF"/>
<path d="M158.52 210.759C155.73 210.759 153.054 209.651 151.081 207.678C149.108 205.705 148 203.029 148 200.239V181.077C148.191 178.425 149.38 175.943 151.326 174.132C153.273 172.321 155.834 171.313 158.493 171.313C161.152 171.313 163.713 172.321 165.659 174.132C167.606 175.943 168.795 178.425 168.986 181.077V200.13C169 201.517 168.74 202.892 168.222 204.177C167.703 205.463 166.935 206.633 165.962 207.621C164.99 208.608 163.832 209.394 162.554 209.933C161.277 210.471 159.906 210.752 158.52 210.759Z" fill="#3A484A"/>
<path d="M369.697 210.76C366.91 210.756 364.237 209.646 362.267 207.673C360.297 205.701 359.191 203.027 359.191 200.239V181.077C359.289 178.355 360.439 175.776 362.4 173.884C364.361 171.993 366.98 170.936 369.704 170.936C372.429 170.936 375.047 171.993 377.008 173.884C378.969 175.776 380.119 178.355 380.217 181.077V200.131C380.232 201.521 379.97 202.901 379.448 204.19C378.926 205.479 378.153 206.651 377.175 207.64C376.197 208.628 375.032 209.413 373.749 209.948C372.465 210.484 371.088 210.76 369.697 210.76Z" fill="#3A484A"/>
<path d="M264.102 220.953C257.679 221.012 251.319 219.693 245.449 217.084C239.58 214.476 234.339 210.639 230.078 205.833C229.168 204.79 228.471 203.578 228.029 202.266C227.587 200.954 227.408 199.568 227.501 198.187C227.595 196.805 227.959 195.456 228.574 194.216C229.189 192.975 230.043 191.868 231.085 190.958C232.128 190.047 233.34 189.351 234.652 188.909C235.964 188.466 237.35 188.287 238.732 188.38C240.113 188.474 241.462 188.839 242.702 189.454C243.943 190.069 245.05 190.922 245.96 191.965C248.276 194.466 251.083 196.462 254.206 197.827C257.329 199.192 260.7 199.896 264.109 199.896C267.517 199.896 270.888 199.192 274.011 197.827C277.135 196.462 279.942 194.466 282.257 191.965C284.092 189.866 286.686 188.582 289.468 188.396C292.25 188.209 294.992 189.136 297.091 190.971C299.19 192.807 300.474 195.401 300.66 198.183C300.846 200.965 299.92 203.707 298.085 205.805C293.829 210.608 288.594 214.445 282.733 217.057C276.871 219.67 270.519 220.998 264.102 220.953Z" fill="#3A484A"/>
</svg>
