<svg width="133" height="55" viewBox="0 0 133 55" fill="none" xmlns="http://www.w3.org/2000/svg">
<path d="M73.0812 10.52C73.0812 12.9989 70.5883 16.04 66.1585 16.04C61.7288 16.04 59.2358 12.9989 59.2358 10.52C59.2358 8.04114 61.7288 5 66.1585 5C70.5883 5 73.0812 8.04114 73.0812 10.52Z" fill="#3F3F3F" stroke="#3F3F3F" stroke-width="10"/>
<mask id="path-2-inside-1" fill="white">
<ellipse cx="7.71467" cy="24.7807" rx="7.71467" ry="7.01334"/>
</mask>
<ellipse cx="7.71467" cy="24.7807" rx="7.71467" ry="7.01334" fill="#3F3F3F"/>
<path d="M5.42934 24.7807C5.42934 23.6292 5.96353 22.7764 6.44304 22.3405C6.90691 21.9188 7.38348 21.7941 7.71467 21.7941V41.7941C16.58 41.7941 25.4293 35.0525 25.4293 24.7807H5.42934ZM7.71467 21.7941C8.04586 21.7941 8.52243 21.9188 8.9863 22.3405C9.46581 22.7764 10 23.6292 10 24.7807H-10C-10 35.0525 -1.15063 41.7941 7.71467 41.7941V21.7941ZM10 24.7807C10 25.9323 9.46581 26.785 8.9863 27.2209C8.52243 27.6426 8.04586 27.7674 7.71467 27.7674V7.76738C-1.15063 7.76738 -10 14.509 -10 24.7807H10ZM7.71467 27.7674C7.38348 27.7674 6.90691 27.6426 6.44304 27.2209C5.96353 26.785 5.42934 25.9323 5.42934 24.7807H25.4293C25.4293 14.509 16.58 7.76738 7.71467 7.76738V27.7674Z" fill="#3F3F3F" mask="url(#path-2-inside-1)"/>
<path d="M63.6806 6.07816C78.4596 53.9849 15.7054 64.3178 8.88428 26.9787" stroke="#3F3F3F" stroke-width="10" stroke-linecap="round" stroke-linejoin="round"/>
<mask id="path-5-inside-2" fill="white">
<ellipse rx="7.71467" ry="7.01334" transform="matrix(-1 0 0 1 124.809 24.7807)"/>
</mask>
<ellipse rx="7.71467" ry="7.01334" transform="matrix(-1 0 0 1 124.809 24.7807)" fill="#3F3F3F"/>
<path d="M127.094 24.7807C127.094 23.6292 126.56 22.7764 126.08 22.3405C125.617 21.9188 125.14 21.7941 124.809 21.7941V41.7941C115.943 41.7941 107.094 35.0525 107.094 24.7807H127.094ZM124.809 21.7941C124.478 21.7941 124.001 21.9188 123.537 22.3405C123.058 22.7764 122.523 23.6292 122.523 24.7807H142.523C142.523 35.0525 133.674 41.7941 124.809 41.7941V21.7941ZM122.523 24.7807C122.523 25.9323 123.058 26.785 123.537 27.2209C124.001 27.6426 124.478 27.7674 124.809 27.7674V7.76738C133.674 7.76738 142.523 14.509 142.523 24.7807H122.523ZM124.809 27.7674C125.14 27.7674 125.617 27.6426 126.08 27.2209C126.56 26.785 127.094 25.9323 127.094 24.7807H107.094C107.094 14.509 115.943 7.76738 124.809 7.76738V27.7674Z" fill="#3F3F3F" mask="url(#path-5-inside-2)"/>
<path d="M69.5366 6.07816C54.9998 53.9849 116.725 64.3178 123.435 26.9787" stroke="#3F3F3F" stroke-width="10" stroke-linecap="round" stroke-linejoin="round"/>
</svg>
