<svg width="40" height="40" viewBox="0 0 187 199" fill="none" xmlns="http://www.w3.org/2000/svg">
<path d="M71.0771 147.104H119.582" stroke="#CB4120" stroke-width="4" stroke-miterlimit="10"/>
<path d="M95.3465 160.954L95.3311 0.312988" stroke="#CB4120" stroke-width="4" stroke-miterlimit="10"/>
<path d="M116.67 15.3191H95.3311V0.312988H116.67L108.991 7.80832L116.67 15.3191Z" fill="#26B824"/>
<path d="M146.303 33.3326H129.404V21.4572H146.303L140.228 27.3949L146.303 33.3326Z" fill="#26B824"/>
<path d="M129.404 15.319V113.237" stroke="#CB4120" stroke-width="4" stroke-miterlimit="10"/>
<path d="M108.236 119.513H17.6239C-5.19493 104.091 -5.19493 73.6007 17.6239 58.1936H108.236C85.4327 73.6161 85.4327 104.106 108.236 119.513Z" fill="white"/>
<path d="M108.236 53.4744H52.33C49.8861 51.7364 47.8934 49.4386 46.5183 46.7731C45.1433 44.1076 44.4258 41.1516 44.4258 38.1521C44.4258 35.1526 45.1433 32.1967 46.5183 29.5312C47.8934 26.8656 49.8861 24.5679 52.33 22.8299H108.236C105.795 24.57 103.805 26.8685 102.432 29.5337C101.059 32.199 100.343 35.1538 100.343 38.1521C100.343 41.1504 101.059 44.1053 102.432 46.7705C103.805 49.4358 105.795 51.7342 108.236 53.4744Z" fill="white"/>
<path d="M118.705 39.7638V104.076H180.424L144.207 39.7638H118.705Z" fill="white"/>
<path d="M133.968 4.49254H124.84C123.495 4.49254 122.404 5.58351 122.404 6.92929V12.8824C122.404 14.2282 123.495 15.3191 124.84 15.3191H133.968C135.313 15.3191 136.404 14.2282 136.404 12.8824V6.92929C136.404 5.58351 135.313 4.49254 133.968 4.49254Z" fill="#DD981F"/>
<path d="M66.1143 144.39L65.5592 150.251L67.9799 151.885H60.4559L58.1123 143.002" fill="#FFD7B0"/>
<path d="M37.3431 144.39L37.8982 150.251L35.4775 151.885H43.0016L45.3451 143.002" fill="#FFD7B0"/>
<path d="M33.5967 136.031C33.5967 136.031 34.7222 147.274 42.1846 146.734C49.6469 146.194 52.0676 148.801 58.7282 148.801C65.3888 148.801 73.6066 147.767 70.4151 136.031C67.2235 124.294 48.9994 128.027 48.9994 128.027" fill="#53D2F9"/>
<path d="M36.835 112.311L33.551 125.235C33.0885 129.01 33.0885 132.827 33.551 136.602C45.6413 133.608 58.2791 133.608 70.3694 136.602C70.3694 136.602 72.1733 116.059 64.9731 107.299C57.7728 98.539 36.835 112.311 36.835 112.311Z" fill="#53D2F9"/>
<path d="M36.8961 112.28C36.264 112.496 33.8125 124.094 33.8125 124.094C66.8997 120.794 62.1818 111.062 62.1818 111.062C62.1818 111.062 37.5128 112.064 36.8961 112.28Z" fill="#F7CEAD"/>
<path d="M33.0877 97.9066C35.0633 97.9066 36.6647 96.3046 36.6647 94.3285C36.6647 92.3525 35.0633 90.7505 33.0877 90.7505C31.1122 90.7505 29.5107 92.3525 29.5107 94.3285C29.5107 96.3046 31.1122 97.9066 33.0877 97.9066Z" fill="#FFD7B0"/>
<path d="M36.6026 94.9917C36.9684 93.4415 36.0086 91.8882 34.4588 91.5223C32.909 91.1564 31.3562 92.1165 30.9904 93.6667C30.6246 95.2169 31.5845 96.7702 33.1342 97.1361C34.684 97.5019 36.2368 96.5419 36.6026 94.9917Z" fill="#EFC19E"/>
<path d="M70.2616 97.9066C72.2371 97.9066 73.8386 96.3046 73.8386 94.3285C73.8386 92.3525 72.2371 90.7505 70.2616 90.7505C68.2861 90.7505 66.6846 92.3525 66.6846 94.3285C66.6846 96.3046 68.2861 97.9066 70.2616 97.9066Z" fill="#FFD7B0"/>
<path d="M69.5521 97.2126C71.1445 97.2126 72.4353 95.9214 72.4353 94.3286C72.4353 92.7358 71.1445 91.4446 69.5521 91.4446C67.9598 91.4446 66.6689 92.7358 66.6689 94.3286C66.6689 95.9214 67.9598 97.2126 69.5521 97.2126Z" fill="#EFC19E"/>
<path d="M33.088 96.935C33.088 96.935 30.1277 80.402 50.0479 80.402C69.9681 80.402 70.7853 96.935 70.7853 96.935C70.7853 96.935 72.1112 108.271 51.8673 108.271C31.6233 108.271 33.088 96.935 33.088 96.935Z" fill="#FFD7B0"/>
<path d="M41.5066 92.1077C42.2778 92.1037 43.0388 92.2835 43.7268 92.6321C43.8356 92.1881 43.8874 91.732 43.8809 91.2749C43.8809 89.5939 43.218 88.1904 42.3391 88.1904C41.4603 88.1904 40.7973 89.563 40.7973 91.2749C40.7733 91.5571 40.7733 91.8409 40.7973 92.1232L41.5066 92.1077Z" fill="#634E42"/>
<path d="M61.2416 92.1077C60.4704 92.1037 59.7093 92.2835 59.0214 92.6321C58.9199 92.1868 58.8682 91.7316 58.8672 91.2749C58.8672 89.5939 59.5302 88.1904 60.409 88.1904C61.2878 88.1904 61.9508 89.563 61.9508 91.2749C61.9748 91.5571 61.9748 91.8409 61.9508 92.1232L61.2416 92.1077Z" fill="#634E42"/>
<path d="M32.8872 90.0873C32.8872 90.0873 32.8872 91.938 34.1052 91.7838C35.3233 91.6296 35.647 89.7789 35.647 89.7789C36.0456 89.67 36.3986 89.4358 36.654 89.1109C36.9094 88.786 37.0537 88.3876 37.0655 87.9745C37.0655 87.9745 39.6712 84.1651 35.277 83.9955C35.277 83.9955 31.4533 82.5766 32.1009 87.08C32.1471 87.0183 29.449 89.3008 32.8872 90.0873Z" fill="#DDDDDD"/>
<path d="M69.707 90.0873C69.707 90.0873 69.707 91.938 68.489 91.7838C67.2709 91.6296 66.9471 89.7789 66.9471 89.7789C66.5486 89.67 66.1956 89.4358 65.9402 89.1109C65.6848 88.786 65.5405 88.3876 65.5287 87.9745C65.5287 87.9745 62.923 84.1651 67.3172 83.9955C67.3172 83.9955 71.1409 82.5766 70.4933 87.08C70.4933 87.0183 73.1915 89.3008 69.707 90.0873Z" fill="#DDDDDD"/>
<path d="M51.5751 94.9917C50.9322 94.8447 50.2763 94.762 49.617 94.7449C46.9959 94.6216 43.1877 98.7548 43.1877 98.7548C41.6458 95.7937 37.4059 96.5648 37.4059 96.5648C37.9609 93.4803 34.091 90.7505 34.091 90.7505L33.798 89.6555C31.547 91.5525 31.8245 102.502 31.8245 102.502C28.5096 108.27 35.972 112.172 35.972 112.172C36.2495 115.982 43.8661 116.799 43.8661 116.799C44.1436 119.884 49.1236 121.179 51.1434 121.596V95.3773C51.1434 95.3773 51.0817 95.1459 51.5751 94.9917Z" fill="#DDDDDD"/>
<path d="M71.3412 102.502C71.3412 102.502 71.6187 91.5525 69.3677 89.6555L69.0747 90.7505C69.0747 90.7505 65.2664 93.4649 65.7598 96.5648C65.7598 96.5648 61.5353 95.7937 59.978 98.7548C59.978 98.7548 56.1698 94.6216 53.5487 94.7449C52.8894 94.762 52.2335 94.8447 51.5906 94.9917C51.0972 95.1459 51.1743 95.3002 51.1743 95.3002V121.518H51.5906H52.0069C54.0112 121.102 59.0067 119.76 59.2842 116.722C59.2842 116.722 66.9008 115.951 67.1783 112.095C67.1783 112.172 74.6561 108.27 71.3412 102.502Z" fill="#DDDDDD"/>
<path d="M55.4597 93.1873C55.3111 93.1714 55.1612 93.1714 55.0126 93.1873C54.1737 92.4664 53.1043 92.07 51.9983 92.07C50.8923 92.07 49.823 92.4664 48.9841 93.1873C48.8355 93.1714 48.6856 93.1714 48.537 93.1873C47.5656 93.1873 46.7793 93.6962 46.7793 94.3286C46.7793 94.9609 47.5656 95.4698 48.537 95.4698C48.6856 95.4858 48.8355 95.4858 48.9841 95.4698C49.823 96.1908 50.8923 96.5872 51.9983 96.5872C53.1043 96.5872 54.1737 96.1908 55.0126 95.4698C55.1612 95.4858 55.3111 95.4858 55.4597 95.4698C56.431 95.4698 57.2173 94.9609 57.2173 94.3286C57.2173 93.6962 56.431 93.1873 55.4597 93.1873Z" fill="#F7CAA6"/>
<path d="M57.279 84.2268C57.1365 83.811 57.0844 83.3694 57.1264 82.9318C57.1684 82.4941 57.3034 82.0705 57.5224 81.6893C57.7414 81.3082 58.0393 80.9782 58.3962 80.7216C58.7531 80.465 59.1608 80.2877 59.5918 80.2016C62.9067 79.3225 63.7084 82.993 63.7084 82.993C63.7084 82.993 61.4419 81.4508 60.0081 81.7901C58.5742 82.1294 58.1733 82.5304 57.279 84.2268Z" fill="#DDDDDD"/>
<path d="M38.8232 82.7155C38.8651 82.2798 38.9991 81.858 39.2165 81.4781C39.4338 81.0982 39.7296 80.769 40.0839 80.5122C40.4383 80.2555 40.8433 80.0771 41.2719 79.989C41.7005 79.9009 42.1429 79.905 42.5698 80.0011C45.9464 80.5409 45.1909 84.2269 45.1909 84.2269C45.1909 84.2269 43.757 81.8518 42.3077 81.6205C40.8584 81.3891 40.3342 81.5279 38.8232 82.7155Z" fill="#DDDDDD"/>
<path d="M30.2206 118.403C30.2206 118.403 23.2362 113.591 27.507 106.204C27.507 106.204 25.4564 100.744 26.844 99.6185C28.2316 98.4926 31.932 100.328 31.932 100.328C31.932 100.328 31.5157 98.7857 33.8746 98.7857C36.2336 98.7857 31.5465 108.271 37.0662 112.805C40.7819 115.982 34.9847 121.287 30.2206 118.403Z" fill="#FFD7B0"/>
<path d="M75.6409 127.518H24.0057C22.754 127.518 21.7393 128.533 21.7393 129.785V135.322C21.7393 136.574 22.754 137.589 24.0057 137.589H75.6409C76.8927 137.589 77.9074 136.574 77.9074 135.322V129.785C77.9074 128.533 76.8927 127.518 75.6409 127.518Z" fill="#DD981F"/>
<path d="M161.09 121.333H130.748C129.157 121.331 127.581 121.643 126.111 122.251C124.641 122.858 123.305 123.749 122.179 124.874C121.054 125.998 120.161 127.334 119.552 128.803C118.943 130.273 118.629 131.849 118.629 133.44V139.116C118.248 145.176 115.521 150.849 111.028 154.932C106.535 159.014 100.628 161.186 94.5609 160.985C88.4938 160.785 82.7435 158.228 78.5296 153.857C74.3158 149.486 71.9698 143.645 71.9893 137.573H32.4727C32.4837 148.709 35.4516 159.641 41.0728 169.253C46.694 178.865 54.7667 186.81 64.4652 192.277C64.604 193.141 66.007 184.782 70.1699 194.544C70.1699 194.544 78.5419 197.32 85.9426 194.544C92.4645 188.93 92.4645 187.542 96.504 194.544C102.224 197.274 109.733 196.086 111.552 194.544C117.55 188.869 117.55 187.48 121.543 194.544C123.085 194.421 151.161 171.873 156.033 153.721H161.09C164.278 153.717 167.336 152.457 169.601 150.214C171.866 147.971 173.157 144.926 173.194 141.737V133.44C173.194 130.229 171.919 127.15 169.649 124.879C167.379 122.609 164.3 121.333 161.09 121.333Z" fill="#CB4120"/>
<path d="M80.3134 179.584C80.3134 180.499 80.0421 181.394 79.5338 182.155C79.0256 182.915 78.3032 183.508 77.458 183.859C76.6128 184.209 75.6828 184.3 74.7856 184.122C73.8883 183.943 73.0641 183.503 72.4173 182.856C71.7704 182.209 71.3299 181.384 71.1514 180.487C70.9729 179.589 71.0645 178.659 71.4146 177.814C71.7647 176.968 72.3575 176.246 73.1182 175.737C73.8788 175.229 74.7731 174.957 75.6879 174.957C76.9147 174.957 78.0912 175.445 78.9586 176.313C79.826 177.18 80.3134 178.357 80.3134 179.584Z" fill="#DD981F"/>
<path d="M93.4042 179.584C93.4042 180.499 93.1329 181.394 92.6246 182.155C92.1164 182.915 91.394 183.508 90.5488 183.859C89.7036 184.209 88.7736 184.3 87.8764 184.122C86.9791 183.943 86.155 183.503 85.5081 182.856C84.8612 182.209 84.4207 181.384 84.2422 180.487C84.0637 179.589 84.1553 178.659 84.5054 177.814C84.8555 176.968 85.4484 176.246 86.209 175.737C86.9696 175.229 87.8639 174.957 88.7787 174.957C90.0055 174.957 91.182 175.445 92.0494 176.313C92.9169 177.18 93.4042 178.357 93.4042 179.584Z" fill="#DD981F"/>
<path d="M106.494 179.584C106.494 180.499 106.223 181.394 105.714 182.155C105.206 182.915 104.484 183.508 103.639 183.859C102.793 184.209 101.863 184.3 100.966 184.122C100.069 183.943 99.2448 183.503 98.5979 182.856C97.951 182.209 97.5105 181.384 97.332 180.487C97.1536 179.589 97.2452 178.659 97.5953 177.814C97.9453 176.968 98.5382 176.246 99.2988 175.737C100.059 175.229 100.954 174.957 101.869 174.957C103.095 174.957 104.272 175.445 105.139 176.313C106.007 177.18 106.494 178.357 106.494 179.584Z" fill="#DD981F"/>
<path d="M119.585 179.584C119.585 180.499 119.314 181.394 118.805 182.155C118.297 182.915 117.575 183.508 116.729 183.859C115.884 184.209 114.954 184.3 114.057 184.122C113.16 183.943 112.336 183.503 111.689 182.856C111.042 182.209 110.601 181.384 110.423 180.487C110.244 179.589 110.336 178.659 110.686 177.814C111.036 176.968 111.629 176.246 112.39 175.737C113.15 175.229 114.045 174.957 114.959 174.957C116.186 174.957 117.363 175.445 118.23 176.313C119.098 177.18 119.585 178.357 119.585 179.584Z" fill="#DD981F"/>
<path d="M142.062 138.375C142.062 139.29 141.791 140.185 141.283 140.946C140.775 141.707 140.052 142.3 139.207 142.65C138.362 143 137.432 143.092 136.535 142.913C135.637 142.734 134.813 142.294 134.166 141.647C133.519 141 133.079 140.175 132.9 139.278C132.722 138.38 132.814 137.45 133.164 136.605C133.514 135.759 134.107 135.037 134.867 134.528C135.628 134.02 136.522 133.748 137.437 133.748C138.664 133.748 139.84 134.236 140.708 135.104C141.575 135.971 142.062 137.148 142.062 138.375Z" fill="#DD981F"/>
<path d="M158.961 138.375C158.961 139.29 158.69 140.185 158.181 140.946C157.673 141.707 156.951 142.3 156.105 142.65C155.26 143 154.33 143.092 153.433 142.913C152.536 142.734 151.712 142.294 151.065 141.647C150.418 141 149.977 140.175 149.799 139.278C149.62 138.38 149.712 137.45 150.062 136.605C150.412 135.759 151.005 135.037 151.766 134.528C152.526 134.02 153.421 133.748 154.335 133.748C155.562 133.748 156.739 134.236 157.606 135.104C158.473 135.971 158.961 137.148 158.961 138.375Z" fill="#DD981F"/>
<path d="M182.459 113.237H120.293C118.283 113.237 116.654 114.866 116.654 116.876V125.775C116.654 127.785 118.283 129.415 120.293 129.415H182.459C184.468 129.415 186.097 127.785 186.097 125.775V116.876C186.097 114.866 184.468 113.237 182.459 113.237Z" fill="#DD981F"/>
<path d="M74.2546 120.315C74.2546 120.315 75.5652 128.69 67.2702 130.679C67.2702 130.679 64.7263 135.923 62.9378 135.692C61.1493 135.46 59.9621 131.497 59.9621 131.497C59.9621 131.497 59.0987 132.947 57.5568 131.127C56.015 129.307 67.039 122.027 67.7636 115.997C68.4883 109.967 73.3141 113.838 74.2546 120.315Z" fill="#FFD7B0"/>
<path d="M66.1606 186.308C66.4518 187.87 66.2637 189.483 65.6209 190.935C64.9391 192.445 63.915 193.776 62.6298 194.822C60.0063 196.894 56.7607 198.022 53.4175 198.022C50.0743 198.022 46.8288 196.894 44.2052 194.822C42.9214 193.768 41.8978 192.433 41.2141 190.92C40.5713 189.467 40.3832 187.854 40.6744 186.293C40.9962 187.679 41.6005 188.983 42.4495 190.124C43.2984 191.265 44.3738 192.219 45.6082 192.925C47.9837 194.297 50.6822 195.01 53.4252 194.991C56.1639 195.014 58.8584 194.301 61.2268 192.925C62.4619 192.223 63.5381 191.273 64.3873 190.134C65.2365 188.995 65.8404 187.693 66.1606 186.308Z" fill="#5DE2FF"/>
<path d="M91.6459 186.308C91.9471 187.869 91.7586 189.485 91.1062 190.935C90.4243 192.445 89.4003 193.776 88.1151 194.822C85.4852 196.914 82.2243 198.052 78.8643 198.052C75.5042 198.052 72.2433 196.914 69.6134 194.822C68.3296 193.768 67.306 192.433 66.6223 190.92C65.9795 189.467 65.7914 187.854 66.0826 186.293C66.4044 187.681 67.0104 188.986 67.8623 190.128C68.7141 191.269 69.7934 192.222 71.0319 192.925C73.4089 194.28 76.0976 194.992 78.8334 194.992C81.5693 194.992 84.258 194.28 86.635 192.925C87.8844 192.231 88.9755 191.285 89.8383 190.145C90.7012 189.006 91.3168 187.699 91.6459 186.308Z" fill="#5DE2FF"/>
<path d="M117.132 186.308C117.433 187.869 117.245 189.485 116.593 190.935C115.911 192.445 114.887 193.776 113.601 194.822C110.978 196.894 107.732 198.022 104.389 198.022C101.046 198.022 97.8004 196.894 95.1769 194.822C93.8931 193.768 92.8695 192.433 92.1858 190.92C91.543 189.467 91.3549 187.854 91.6461 186.293C91.9679 187.681 92.5739 188.986 93.4258 190.128C94.2776 191.269 95.3569 192.222 96.5953 192.925C98.9723 194.28 101.661 194.992 104.397 194.992C107.133 194.992 109.821 194.28 112.198 192.925C113.435 192.225 114.513 191.276 115.362 190.137C116.212 188.997 116.815 187.694 117.132 186.308Z" fill="#5DE2FF"/>
<path d="M142.635 186.308C142.931 187.871 142.737 189.487 142.08 190.935C141.409 192.452 140.383 193.785 139.089 194.822C136.468 196.893 133.225 198.02 129.884 198.02C126.544 198.02 123.301 196.893 120.68 194.822C119.362 193.779 118.306 192.443 117.596 190.92C116.953 189.467 116.765 187.854 117.056 186.293C117.381 187.68 117.988 188.984 118.839 190.125C119.691 191.266 120.769 192.219 122.005 192.925C124.376 194.294 127.069 195.008 129.807 194.991C132.586 195.045 135.327 194.336 137.732 192.94C138.962 192.232 140.032 191.278 140.876 190.136C141.72 188.995 142.318 187.692 142.635 186.308Z" fill="#5DE2FF"/>
</svg>
