<svg width="295" height="189" viewBox="0 0 295 189" fill="none" xmlns="http://www.w3.org/2000/svg">
<rect x="207" y="21.8616" width="96" height="140" rx="9" transform="rotate(24 207 21.8616)" fill="#22BAAF"/>
<rect x="208.621" y="28.0562" width="88" height="130" rx="7" transform="rotate(24 208.621 28.0562)" fill="white"/>
<path d="M263.141 78.8588C259.57 69.3413 252.48 61.8138 243.204 57.6841C234.05 53.6085 223.623 53.3543 214.281 56.9766C204.951 60.594 197.575 67.6162 193.503 76.7625L193.304 77.2088C188.03 89.0551 186.856 102.322 189.967 114.91L236.299 135.539C247.736 129.427 256.809 119.678 262.084 107.831L262.158 107.665C266.214 98.5548 266.644 88.1954 263.141 78.8588Z" fill="#6A647F"/>
<path d="M203.618 87.0059C211.766 68.7045 230.928 58.7474 249.824 61.4644C247.772 60.001 245.559 58.7326 243.204 57.6841C234.05 53.6085 223.623 53.3543 214.281 56.9766C204.951 60.594 197.575 67.6162 193.503 76.7625L193.304 77.2089C188.03 89.0552 186.855 102.322 189.967 114.911L202.786 120.618C198.727 110.131 198.682 98.0911 203.618 87.0059Z" fill="#5C586F"/>
<path d="M239.112 136.257L239.342 135.723C239.243 133.613 238.942 131.685 238.552 129.996L192.579 109.527C188.061 112.033 182.492 116.523 179.013 124.338L229.746 146.925L239.112 136.257Z" fill="#5C586F"/>
<path d="M199.88 114.646C200.113 114.123 200.358 113.61 200.612 113.104L192.579 109.527C188.061 112.033 182.493 116.523 179.013 124.338L196.915 132.308C196.401 126.455 197.321 120.394 199.88 114.646Z" fill="#4F4C5F"/>
<path d="M232.198 120.975L199.937 106.611C199.937 106.611 196.693 107.247 192.578 109.527C193.87 112.147 195.449 114.625 197.283 116.889C201.162 121.679 206.206 125.544 211.868 128.065C217.531 130.586 223.778 131.748 229.933 131.426C230.981 131.371 232.028 131.272 233.07 131.132L232.198 120.975Z" fill="#B2B0BC"/>
<path d="M199.88 114.646C200.907 112.34 202.148 110.197 203.569 108.228L199.937 106.611C199.937 106.611 196.693 107.247 192.578 109.527C193.87 112.148 195.449 114.626 197.283 116.889C197.672 117.369 198.075 117.837 198.487 118.298C198.881 117.07 199.344 115.851 199.88 114.646Z" fill="#A19DAE"/>
<path d="M244.362 86.2477C244.514 86.3475 244.663 86.4478 244.811 86.5488C256.737 94.702 255.819 112.629 243.181 119.628C234.826 124.255 224.475 125.043 215.077 120.858C205.679 116.674 199.338 108.455 197.186 99.1499C193.931 85.075 206.639 72.397 220.678 75.8041C220.852 75.8462 221.027 75.8903 221.202 75.9364L234.384 77.4953L244.362 86.2477Z" fill="#FFDCCE"/>
<path d="M206.641 98.7693C209.749 100.153 213.161 99.2683 214.262 96.7939C215.364 94.3195 213.738 91.1922 210.631 89.8088C207.524 88.4254 204.112 89.3098 203.01 91.7842C201.909 94.2585 203.534 97.3859 206.641 98.7693Z" fill="#FF9DB0"/>
<path d="M237.137 112.347C240.244 113.73 243.656 112.846 244.757 110.371C245.859 107.897 244.233 104.769 241.126 103.386C238.019 102.003 234.607 102.887 233.505 105.361C232.404 107.836 234.029 110.963 237.137 112.347Z" fill="#FF9DB0"/>
<path d="M190.492 129.448L193.974 121.626C194.269 120.964 193.972 120.188 193.309 119.893C192.646 119.598 191.871 119.896 191.576 120.558L188.093 128.38L190.492 129.448Z" fill="#423E4F"/>
<path d="M226.369 95.4969C224.813 94.8042 223.033 94.8193 221.486 95.5384C220.828 95.844 220.543 96.6247 220.849 97.2824C221.154 97.9397 221.935 98.2251 222.593 97.9196C223.451 97.5205 224.438 97.5117 225.301 97.8957C226.163 98.2797 226.817 99.019 227.095 99.9242C227.211 100.302 227.482 100.589 227.816 100.738C228.096 100.863 228.42 100.891 228.735 100.794C229.428 100.581 229.818 99.8466 229.605 99.1534C229.104 97.5224 227.925 96.1897 226.369 95.4969Z" fill="#423E4F"/>
<path d="M218.315 88.3077L214.253 85.0183C213.689 84.5619 212.863 84.649 212.407 85.2125C211.95 85.776 212.037 86.6026 212.601 87.059L214.035 88.2202C213.847 88.3522 213.69 88.5339 213.59 88.7588L212.706 90.7456C212.411 91.4079 212.709 92.1839 213.371 92.4789C214.034 92.7739 214.81 92.4759 215.104 91.8135L215.989 89.8267C215.992 89.8207 215.994 89.8146 215.996 89.8084L216.663 90.3483C216.754 90.4224 216.853 90.4823 216.955 90.528C217.485 90.7638 218.127 90.6261 218.509 90.1541C218.966 89.5906 218.879 88.764 218.315 88.3077Z" fill="#423E4F"/>
<path d="M243.354 98.9908C243.467 98.2747 242.979 97.6022 242.262 97.4887L237.1 96.6711C236.384 96.5577 235.711 97.0464 235.598 97.7625C235.503 98.3623 235.83 98.9315 236.36 99.1672C236.462 99.213 236.573 99.2462 236.689 99.2647L237.536 99.3987C237.534 99.4048 237.53 99.4102 237.527 99.4162L236.643 101.403C236.348 102.065 236.646 102.841 237.308 103.136C237.971 103.431 238.747 103.133 239.042 102.471L239.926 100.484C240.026 100.259 240.057 100.022 240.029 99.7936L241.851 100.082C242.568 100.196 243.24 99.707 243.354 98.9908Z" fill="#423E4F"/>
<path d="M258.412 121.285L255.304 128.263C251.932 135.837 243.086 139.43 235.48 136.131C227.798 132.8 224.313 123.819 227.711 116.188L230.896 109.034C231.321 108.079 232.44 107.65 233.395 108.075C235.978 109.225 237.139 112.251 235.989 114.834L234.172 118.917C232.379 122.942 234.063 127.732 238.054 129.601C242.138 131.513 246.994 129.688 248.82 125.587L250.693 121.38C251.843 118.797 254.869 117.636 257.452 118.786C258.407 119.211 258.837 120.33 258.412 121.285Z" fill="#B2B0BC"/>
<path d="M233.585 131.942C234.209 130.541 234.97 129.243 235.843 128.056C233.508 125.739 232.759 122.091 234.172 118.917L235.99 114.834C237.14 112.251 235.978 109.225 233.395 108.075C232.44 107.65 231.322 108.079 230.896 109.034L227.711 116.188C224.767 122.802 226.992 130.427 232.637 134.512C232.893 133.647 233.208 132.789 233.585 131.942Z" fill="#A19DAE"/>
<path d="M236.774 134.575L235.498 134.006C231.93 132.418 227.751 134.022 226.162 137.59C224.574 141.157 226.178 145.337 229.746 146.925L231.022 147.494C234.59 149.082 238.769 147.478 240.358 143.91C241.946 140.343 240.342 136.163 236.774 134.575Z" fill="#FFDCCE"/>
<path d="M266.785 91.8722C266.78 90.9811 266.743 90.0896 266.676 89.199C266.597 88.1574 265.955 87.2419 265 86.8169L206.969 60.9799C206.015 60.555 204.905 60.6901 204.078 61.3285C203.371 61.8742 202.684 62.4439 202.018 63.0364C200.488 64.3991 200.895 66.895 202.767 67.7285L262.797 94.4553C264.669 95.2889 266.797 93.9214 266.785 91.8722Z" fill="#50E1CD"/>
<path d="M232.998 133.405C230.158 133.255 227.388 134.837 226.163 137.59C224.574 141.158 226.179 145.337 229.746 146.926L231.023 147.494C231.749 147.817 232.501 148.006 233.251 148.075C231.442 143.51 231.239 138.313 232.998 133.405Z" fill="#FFCABD"/>
<path d="M203.618 87.0059C205.437 82.9195 207.807 79.2503 210.599 76.0441C201.27 78.8436 194.748 88.6045 197.186 99.1498C197.772 101.684 198.672 104.137 199.856 106.451C199.609 99.9688 200.801 93.332 203.618 87.0059Z" fill="#FFCABD"/>
<path d="M221.092 67.2677L206.969 60.9799C206.015 60.555 204.905 60.6901 204.078 61.3285C203.371 61.8742 202.684 62.4439 202.018 63.0364C200.488 64.3989 200.895 66.8951 202.767 67.7287L213.872 72.6729C216.099 70.6145 218.521 68.8069 221.092 67.2677Z" fill="#50E1CD"/>
<path d="M185.206 131.693C185.377 131.769 185.498 131.899 185.569 132.084C185.652 132.264 185.652 132.448 185.568 132.635L182.163 140.284C182.071 140.467 181.928 140.593 181.735 140.66C181.554 140.722 181.374 140.714 181.195 140.634C180.999 140.547 180.863 140.415 180.789 140.239C180.726 140.058 180.737 139.873 180.82 139.686L184.225 132.038C184.309 131.85 184.441 131.725 184.622 131.663C184.807 131.592 185.002 131.602 185.206 131.693ZM190.975 134.261C191.179 134.352 191.313 134.488 191.375 134.669C191.441 134.842 191.433 135.022 191.349 135.209L187.944 142.857C187.86 143.045 187.726 143.174 187.541 143.245C187.369 143.312 187.18 143.299 186.976 143.208C186.797 143.128 186.67 143 186.595 142.824C186.524 142.639 186.53 142.453 186.614 142.265L190.019 134.617C190.103 134.429 190.235 134.304 190.416 134.242C190.609 134.175 190.795 134.181 190.975 134.261ZM183.458 135.481L189.29 138.078L188.731 139.3L182.899 136.703L183.458 135.481ZM197.536 139.174L191.583 144.8C191.471 144.913 191.347 144.986 191.211 145.017C191.074 145.048 190.942 145.035 190.814 144.978C190.626 144.895 190.509 144.781 190.46 144.637C190.416 144.484 190.425 144.325 190.489 144.159C190.516 144.1 190.559 144.037 190.619 143.972L197.363 137.565C197.488 137.447 197.622 137.374 197.767 137.347C197.921 137.323 198.064 137.346 198.197 137.415C198.324 137.472 198.427 137.563 198.503 137.69C198.58 137.816 198.614 137.958 198.604 138.118L198.369 147.285C198.365 147.385 198.344 147.478 198.306 147.563C198.223 147.751 198.091 147.876 197.91 147.938C197.741 147.996 197.58 147.99 197.426 147.922C197.298 147.865 197.196 147.774 197.119 147.648C197.055 147.517 197.026 147.376 197.032 147.225L197.186 139.065L197.536 139.174ZM192.903 143.211L194.026 142.24L197.645 143.851L197.316 145.176L192.903 143.211ZM208.428 142.032C209.05 142.309 209.547 142.673 209.918 143.124C210.293 143.567 210.545 144.068 210.675 144.626C210.817 145.179 210.847 145.765 210.766 146.383C210.689 146.992 210.516 147.599 210.246 148.205C209.878 149.032 209.397 149.722 208.803 150.275C208.214 150.82 207.548 151.167 206.807 151.317C206.066 151.467 205.277 151.356 204.442 150.984L201.321 149.595C201.142 149.515 201.015 149.387 200.94 149.211C200.869 149.026 200.876 148.84 200.959 148.652L204.364 141.004C204.448 140.816 204.58 140.691 204.761 140.629C204.946 140.558 205.128 140.562 205.307 140.642L208.428 142.032ZM204.861 149.7C205.466 149.969 206.023 150.038 206.531 149.907C207.039 149.775 207.486 149.505 207.873 149.095C208.272 148.68 208.603 148.178 208.865 147.59C209.058 147.155 209.189 146.723 209.258 146.294C209.339 145.86 209.339 145.446 209.259 145.053C209.191 144.655 209.033 144.298 208.785 143.984C208.549 143.664 208.205 143.404 207.753 143.202L205.336 142.126L205.502 142.062L202.501 148.802L202.482 148.64L204.861 149.7ZM215.832 145.328L220.258 147.299C220.437 147.378 220.559 147.504 220.626 147.677C220.7 147.853 220.698 148.031 220.618 148.21C220.538 148.389 220.41 148.506 220.233 148.559C220.064 148.617 219.89 148.606 219.711 148.526L215.849 146.807L216.073 146.646L214.798 149.511L214.74 149.332L218.014 150.79C218.193 150.869 218.315 150.996 218.382 151.168C218.456 151.344 218.452 151.526 218.369 151.714C218.289 151.893 218.16 152.009 217.983 152.063C217.814 152.121 217.64 152.11 217.461 152.03L214.213 150.584L214.354 150.509L213.038 153.463L212.994 153.321L216.818 155.024C216.997 155.103 217.118 155.234 217.181 155.415C217.255 155.591 217.257 155.76 217.185 155.922C217.105 156.101 216.974 156.222 216.793 156.284C216.625 156.342 216.451 156.331 216.272 156.251L211.846 154.281C211.667 154.201 211.541 154.073 211.466 153.897C211.395 153.712 211.401 153.526 211.485 153.338L214.89 145.69C214.973 145.503 215.106 145.378 215.287 145.315C215.471 145.244 215.653 145.249 215.832 145.328ZM222.564 159.206C221.95 158.933 221.442 158.605 221.041 158.221C220.639 157.838 220.308 157.354 220.048 156.768C219.985 156.658 219.948 156.545 219.939 156.428C219.942 156.307 219.966 156.195 220.012 156.093C220.084 155.931 220.208 155.812 220.384 155.738C220.561 155.663 220.738 155.665 220.917 155.745C221.054 155.806 221.161 155.91 221.238 156.057C221.429 156.499 221.666 156.875 221.947 157.184C222.237 157.497 222.62 157.76 223.098 157.973C223.439 158.124 223.775 158.208 224.105 158.222C224.445 158.24 224.741 158.194 224.995 158.082C225.249 157.97 225.432 157.791 225.542 157.543C225.678 157.237 225.701 156.945 225.609 156.669C225.53 156.389 225.352 156.11 225.076 155.835C224.813 155.554 224.472 155.264 224.054 154.965C223.661 154.699 223.325 154.421 223.045 154.133C222.773 153.849 222.563 153.551 222.416 153.24C222.272 152.921 222.201 152.587 222.202 152.241C222.203 151.894 222.289 151.528 222.46 151.145C222.691 150.625 223.027 150.238 223.467 149.984C223.907 149.73 224.407 149.606 224.967 149.61C225.527 149.614 226.101 149.747 226.689 150.009C227.227 150.248 227.692 150.557 228.085 150.937C228.482 151.307 228.762 151.698 228.927 152.109C229.052 152.379 229.069 152.616 228.978 152.821C228.909 152.974 228.781 153.091 228.592 153.17C228.416 153.245 228.247 153.246 228.085 153.174C227.965 153.121 227.878 153.041 227.823 152.935C227.751 152.729 227.625 152.52 227.444 152.307C227.267 152.085 227.063 151.877 226.833 151.682C226.612 151.491 226.382 151.343 226.143 151.237C225.759 151.066 225.406 150.975 225.084 150.965C224.766 150.945 224.492 150.997 224.264 151.12C224.039 151.235 223.872 151.416 223.761 151.663C223.632 151.953 223.607 152.228 223.686 152.487C223.773 152.751 223.939 153.009 224.184 153.261C224.433 153.505 224.729 153.759 225.071 154.024C225.494 154.335 225.861 154.636 226.17 154.927C226.488 155.222 226.73 155.529 226.895 155.847C227.063 156.157 227.149 156.492 227.153 156.851C227.156 157.21 227.059 157.611 226.862 158.055C226.634 158.566 226.29 158.949 225.829 159.204C225.368 159.459 224.852 159.586 224.279 159.587C223.716 159.591 223.144 159.464 222.564 159.206Z" fill="#3F3F3F"/>
<rect x="130" y="2.03156" width="96" height="140" rx="9" transform="rotate(7 130 2.03156)" fill="#22BAAF"/>
<rect x="133.361" y="7.48177" width="88" height="130" rx="7" transform="rotate(7 133.361 7.48177)" fill="white"/>
<path d="M191.369 101.388C188.751 95.4284 184.623 92.6369 184.623 92.6369L169.596 90.7918L151.454 110.454L188.849 115.046L191.369 101.388Z" fill="#FFF1E2"/>
<path d="M169.596 90.7918C164.351 105.298 151.454 110.454 151.454 110.454L136.524 108.621C138.466 92.8089 150.43 88.4385 150.43 88.4385L169.596 90.7918Z" fill="#FFD3BC"/>
<path d="M139.795 54.0645C135.375 53.5218 131.352 56.665 130.809 61.0852C130.267 65.5053 133.41 69.5286 137.83 70.0714L141.975 70.5803L143.94 54.5737L139.795 54.0647L139.795 54.0645Z" fill="#FFBE9C"/>
<path d="M203.258 61.8568C207.678 62.3995 210.822 66.4226 210.279 70.8429C209.736 75.263 205.713 78.4063 201.293 77.8636L197.148 77.3546L199.113 61.348L203.258 61.8569L203.258 61.8568Z" fill="#FFD3BC"/>
<path d="M184.623 92.6369L169.596 90.7918L158.69 102.612C160.776 104.058 163.183 104.978 165.716 105.289C168.626 105.647 171.569 105.184 174.229 103.951C178.179 102.12 181.549 100.665 184.523 99.3806C186.17 98.6689 187.697 98.0095 189.117 97.3728C186.881 94.166 184.623 92.6369 184.623 92.6369Z" fill="#FDE7CA"/>
<path d="M148.897 95.006C151.471 96.9713 154.389 99.1989 157.779 101.932C158.771 102.731 159.849 103.401 160.991 103.934C164.208 100.858 167.508 96.5662 169.596 90.7918L150.43 88.4385C150.43 88.4385 147.869 89.3754 144.925 91.9464C146.148 92.9074 147.47 93.9168 148.897 95.006Z" fill="#FFBE9C"/>
<path d="M175.482 25.7512C157.693 23.567 141.502 36.2171 139.317 54.0058C135.743 83.1157 138.026 79.2646 161.075 97.8428C164.169 100.337 168.414 100.858 172.02 99.1867C198.879 86.7364 200.162 91.0253 203.736 61.9155C205.92 44.1267 193.27 27.9354 175.482 25.7512V25.7512Z" fill="#C7C5CB"/>
<path d="M149.098 59.2304C151.142 42.579 163.574 29.7402 179.103 26.4057C177.922 26.1237 176.715 25.9026 175.482 25.7512C157.693 23.567 141.502 36.2171 139.317 54.0058C135.743 83.1155 138.026 79.2646 161.075 97.8428C164.169 100.337 168.414 100.858 172.02 99.1867C172.036 99.1792 172.052 99.1718 172.069 99.1641C156.77 92.6263 146.968 76.5715 149.098 59.2304Z" fill="#B2B0BC"/>
<path d="M195.92 66.1986C195.828 61.2121 192.957 56.6861 188.558 54.336C183.388 51.5741 179.939 48.7297 177.674 46.3518C175.243 43.7995 171.347 43.321 168.37 45.2094C165.597 46.9687 161.563 48.8941 155.878 50.3235C151.042 51.5396 147.16 55.2364 145.865 60.0526C145.122 62.8159 145.186 65.8286 147.269 68.4249C150.022 71.8569 154.881 72.75 158.762 70.6762C161.811 69.0468 166.246 67.2502 170.325 67.7511C174.404 68.2519 178.272 71.068 180.837 73.3867C184.1 76.3376 189.031 76.6466 192.533 73.9826C195.182 71.9674 195.973 69.0599 195.92 66.1986Z" fill="#FFD3BC"/>
<path d="M156.895 66.1495C156.175 66.0611 155.663 65.4061 155.752 64.6864L156.026 62.4548C156.114 61.7352 156.769 61.2234 157.489 61.3117C158.209 61.4001 158.72 62.0552 158.632 62.7748L158.358 65.0064C158.27 65.7261 157.615 66.2379 156.895 66.1495Z" fill="#423E4F"/>
<path d="M183.743 69.446C183.023 69.3576 182.512 68.7025 182.6 67.9829L182.874 65.7513C182.962 65.0316 183.617 64.5198 184.337 64.6082C185.057 64.6966 185.568 65.3516 185.48 66.0713L185.206 68.3029C185.118 69.0225 184.463 69.5343 183.743 69.446Z" fill="#423E4F"/>
<path d="M169.401 75.2705C167.927 75.0895 166.603 74.2786 165.769 73.0461C165.363 72.4454 165.521 71.6293 166.121 71.223C166.722 70.8168 167.538 70.9744 167.944 71.5751C168.353 72.1788 169 72.5758 169.721 72.6643C170.443 72.7529 171.167 72.5244 171.709 72.0372C172.249 71.5526 173.079 71.5974 173.563 72.1368C174.048 72.6763 174.003 73.5063 173.464 73.9908C172.357 74.985 170.876 75.4516 169.401 75.2705Z" fill="#423E4F"/>
<path d="M186.42 60.0314L183.423 59.6634C181.977 59.4859 180.661 60.5142 180.483 61.9603C180.306 63.4064 181.334 64.7226 182.78 64.9001L185.777 65.2681C187.223 65.4456 188.539 64.4173 188.717 62.9712C188.894 61.5251 187.866 60.2089 186.42 60.0314Z" fill="#B2B0BC"/>
<path d="M156.575 56.3669L159.572 56.7348C161.018 56.9124 162.046 58.2286 161.869 59.6747C161.691 61.1208 160.375 62.1491 158.929 61.9715L155.932 61.6036C154.486 61.426 153.458 60.1098 153.636 58.6638C153.813 57.2177 155.129 56.1893 156.575 56.3669Z" fill="#B2B0BC"/>
<path d="M153.173 36.2512C152.663 34.5898 150.969 33.577 149.264 33.9133C146.89 34.382 144.715 35.8154 143.375 38.0564C142.034 40.2976 141.799 42.8912 142.51 45.2053C143.02 46.8667 144.713 47.8795 146.418 47.5432C148.793 47.0745 150.967 45.6411 152.308 43.4001C153.648 41.1591 153.883 38.5654 153.173 36.2512Z" fill="#00CCAC"/>
<path d="M149.098 59.2305C149.356 57.1262 149.783 55.084 150.358 53.1128C148.212 54.8833 146.61 57.2822 145.865 60.0525C145.122 62.8159 145.186 65.8288 147.269 68.4248C147.87 69.1747 148.572 69.8032 149.343 70.3063C148.739 66.7322 148.633 63.0122 149.098 59.2305Z" fill="#FFBE9C"/>
<path d="M155.205 44.6454C153.194 43.2975 150.643 42.7735 148.11 43.4103C145.578 44.0471 143.578 45.7153 142.444 47.8538C141.63 49.3893 142.111 51.3028 143.554 52.2706C145.565 53.6185 148.116 54.1425 150.649 53.5057C153.181 52.8688 155.181 51.2007 156.315 49.0621C157.129 47.5265 156.648 45.6131 155.205 44.6454Z" fill="#00D6BC"/>
<path d="M145.351 41.7594C144.714 39.2267 143.046 37.2268 140.907 36.0928C139.372 35.2787 137.458 35.7599 136.491 37.2033C135.143 39.2139 134.619 41.7649 135.256 44.2976C135.892 46.8302 137.56 48.8301 139.699 49.9641C141.234 50.7784 143.148 50.2973 144.116 48.8537C145.463 46.843 145.987 44.2918 145.351 41.7594Z" fill="#50E1CD"/>
<path d="M203.658 45.4584C202.899 42.9596 201.136 41.0428 198.946 40.0135C197.372 39.2745 195.485 39.8478 194.588 41.3364C193.339 43.4098 192.939 45.9835 193.698 48.4822C194.456 50.981 196.219 52.8978 198.41 53.9271C199.983 54.6661 201.871 54.093 202.768 52.6041C204.017 50.5306 204.417 47.9571 203.658 45.4584Z" fill="#00CCAC"/>
<path d="M202.191 55.1895C201.608 52.8402 200.071 50.7378 197.768 49.5072C195.464 48.2766 192.862 48.1678 190.585 48.9893C188.95 49.579 188.021 51.3194 188.439 53.0062C189.022 55.3555 190.559 57.458 192.862 58.6886C195.166 59.9192 197.768 60.0279 200.045 59.2064C201.68 58.6167 202.609 56.8764 202.191 55.1895Z" fill="#00D6BC"/>
<path d="M210.544 46.2959C209.954 44.6612 208.214 43.7315 206.527 44.15C204.178 44.7329 202.076 46.27 200.845 48.5732C199.615 50.8766 199.506 53.4785 200.327 55.7554C200.917 57.3902 202.657 58.32 204.344 57.9013C206.693 57.3184 208.796 55.7815 210.026 53.4781C211.257 51.1749 211.366 48.5727 210.544 46.2959Z" fill="#50E1CD"/>
<path d="M144.409 109.589L145.365 101.803C145.453 101.083 146.108 100.572 146.828 100.66C147.548 100.748 148.059 101.403 147.971 102.123L147.015 109.909L144.409 109.589Z" fill="#FFBE9C"/>
<path d="M189.062 88.5154L203.668 74.7833C204.519 73.9826 205.872 74.867 205.48 75.9682L201.856 86.1522C201.616 86.8239 202.061 87.5443 202.769 87.6312L207.501 88.2122C208.438 88.3272 208.816 89.4826 208.128 90.1292L193.523 103.861C192.671 104.662 191.319 103.778 191.711 102.676L195.335 92.4924C195.574 91.8207 195.129 91.1003 194.422 91.0134L189.69 90.4324C188.753 90.3174 188.375 89.162 189.062 88.5154Z" fill="#FBE29F"/>
<path d="M196.943 89.8186C197.594 84.514 200.668 80.0983 204.92 77.5435L205.48 75.9682C205.872 74.867 204.52 73.9826 203.668 74.7833L189.062 88.5156C188.375 89.1622 188.753 90.3175 189.69 90.4326L194.422 91.0136C195.129 91.1005 195.574 91.8207 195.335 92.4926L191.711 102.677C191.319 103.778 192.671 104.662 193.523 103.861L198.509 99.1736C197.137 96.369 196.534 93.1484 196.943 89.8186Z" fill="#FCCB88"/>
<path d="M191.898 101.453L190.539 101.286C186.739 100.82 183.281 103.522 182.814 107.321C182.348 111.121 185.05 114.579 188.849 115.046L190.209 115.213C194.008 115.679 197.467 112.977 197.933 109.178C198.4 105.378 195.698 101.92 191.898 101.453Z" fill="#FFD3BC"/>
<path d="M151.92 114.743C152.096 114.765 152.254 114.85 152.396 114.999C152.548 115.14 152.611 115.312 152.586 115.516C152.568 115.664 152.499 115.806 152.379 115.942L145.821 122.598L145.706 122.5L150.792 123.124C150.986 123.148 151.141 123.228 151.256 123.364C151.38 123.502 151.43 123.673 151.405 123.876C151.382 124.062 151.293 124.211 151.138 124.323C150.993 124.437 150.823 124.482 150.628 124.458L144.333 123.685C144.13 123.66 143.962 123.569 143.831 123.412C143.71 123.247 143.661 123.076 143.682 122.9C143.7 122.752 143.774 122.615 143.902 122.49L150.46 115.833L150.561 115.93L145.85 115.352C145.656 115.328 145.496 115.247 145.372 115.11C145.258 114.964 145.214 114.789 145.239 114.586C145.263 114.391 145.347 114.242 145.492 114.137C145.645 114.034 145.819 113.994 146.014 114.018L151.92 114.743ZM156.541 115.311L161.349 115.901C161.544 115.925 161.698 116.009 161.812 116.155C161.935 116.302 161.984 116.472 161.96 116.667C161.937 116.862 161.848 117.011 161.694 117.114C161.55 117.218 161.38 117.259 161.185 117.235L156.989 116.72L157.157 116.5L156.775 119.613L156.667 119.459L160.224 119.895C160.419 119.919 160.573 120.004 160.687 120.15C160.81 120.296 160.859 120.472 160.834 120.676C160.81 120.87 160.721 121.019 160.567 121.122C160.423 121.227 160.253 121.267 160.059 121.243L156.529 120.81L156.642 120.697L156.248 123.907L156.164 123.784L160.319 124.294C160.513 124.318 160.667 124.407 160.78 124.562C160.903 124.709 160.953 124.87 160.932 125.046C160.908 125.241 160.818 125.394 160.663 125.507C160.519 125.611 160.349 125.652 160.155 125.628L155.347 125.037C155.153 125.014 154.994 124.928 154.871 124.781C154.749 124.625 154.7 124.446 154.725 124.242L155.746 115.932C155.771 115.728 155.861 115.57 156.016 115.458C156.172 115.336 156.347 115.287 156.541 115.311ZM172.168 117.215C172.372 117.24 172.525 117.329 172.629 117.483C172.733 117.628 172.773 117.802 172.748 118.006L172.101 123.272C172.01 124.013 171.767 124.656 171.371 125.199C170.975 125.743 170.474 126.147 169.868 126.411C169.263 126.666 168.59 126.748 167.849 126.657C167.117 126.567 166.484 126.325 165.949 125.93C165.425 125.527 165.032 125.014 164.77 124.389C164.518 123.766 164.437 123.083 164.528 122.342L165.175 117.076C165.2 116.872 165.29 116.714 165.445 116.601C165.601 116.479 165.79 116.432 166.012 116.459C166.188 116.481 166.337 116.57 166.459 116.726C166.591 116.874 166.645 117.049 166.62 117.253L165.973 122.52C165.913 123.011 165.967 123.455 166.134 123.851C166.312 124.24 166.569 124.563 166.904 124.82C167.24 125.068 167.612 125.218 168.02 125.268C168.464 125.322 168.884 125.27 169.28 125.112C169.677 124.944 170.008 124.694 170.275 124.36C170.552 124.018 170.721 123.601 170.781 123.11L171.428 117.844C171.453 117.64 171.529 117.48 171.656 117.364C171.793 117.24 171.964 117.19 172.168 117.215ZM178.227 127.988C177.56 127.906 176.979 127.741 176.483 127.492C175.987 127.243 175.529 126.876 175.109 126.392C175.016 126.305 174.948 126.208 174.905 126.099C174.872 125.982 174.863 125.868 174.876 125.757C174.898 125.581 174.982 125.431 175.129 125.308C175.276 125.185 175.446 125.136 175.641 125.16C175.789 125.178 175.922 125.246 176.039 125.364C176.351 125.731 176.687 126.021 177.046 126.235C177.415 126.449 177.859 126.588 178.377 126.652C178.748 126.698 179.093 126.679 179.414 126.596C179.744 126.514 180.014 126.383 180.224 126.202C180.434 126.021 180.556 125.796 180.589 125.527C180.63 125.194 180.566 124.909 180.398 124.672C180.24 124.427 179.989 124.212 179.645 124.029C179.311 123.838 178.9 123.66 178.412 123.497C177.959 123.357 177.557 123.19 177.204 122.996C176.861 122.803 176.574 122.58 176.341 122.326C176.111 122.062 175.945 121.765 175.845 121.433C175.744 121.101 175.72 120.726 175.771 120.309C175.84 119.744 176.048 119.276 176.395 118.905C176.741 118.534 177.183 118.268 177.72 118.108C178.257 117.949 178.845 117.908 179.484 117.986C180.067 118.058 180.603 118.218 181.089 118.466C181.577 118.704 181.96 118.996 182.237 119.34C182.436 119.562 182.521 119.784 182.494 120.006C182.474 120.173 182.385 120.322 182.228 120.453C182.081 120.576 181.919 120.627 181.743 120.605C181.614 120.589 181.507 120.539 181.424 120.453C181.295 120.278 181.113 120.114 180.877 119.963C180.643 119.803 180.387 119.663 180.111 119.544C179.843 119.427 179.579 119.352 179.32 119.32C178.903 119.269 178.539 119.286 178.228 119.37C177.918 119.444 177.671 119.574 177.489 119.759C177.308 119.934 177.2 120.156 177.167 120.424C177.129 120.739 177.185 121.009 177.336 121.235C177.496 121.461 177.73 121.659 178.039 121.829C178.348 121.989 178.705 122.146 179.109 122.299C179.605 122.473 180.044 122.653 180.425 122.841C180.816 123.03 181.136 123.253 181.387 123.51C181.639 123.757 181.819 124.052 181.927 124.394C182.035 124.736 182.06 125.148 182.001 125.63C181.933 126.186 181.715 126.653 181.349 127.031C180.983 127.409 180.527 127.682 179.979 127.85C179.441 128.019 178.857 128.065 178.227 127.988Z" fill="#3F3F3F"/>
<rect x="70" y="12.3859" width="96" height="140" rx="9" transform="rotate(-7 70 12.3859)" fill="#1771B9"/>
<rect x="74.5796" y="16.8612" width="88" height="130" rx="7" transform="rotate(-7 74.5796 16.8612)" fill="white"/>
<path d="M103.147 128.21C102.925 128.237 102.722 128.196 102.54 128.087C102.356 127.968 102.251 127.807 102.226 127.603L101.206 119.294C101.181 119.09 101.23 118.915 101.353 118.768C101.475 118.612 101.633 118.522 101.828 118.498L105.746 118.017C106.246 117.956 106.72 118.024 107.168 118.223C107.614 118.413 107.989 118.71 108.293 119.115C108.605 119.509 108.795 119.984 108.863 120.54C108.908 120.91 108.878 121.276 108.772 121.637C108.665 121.989 108.502 122.31 108.284 122.6C108.065 122.89 107.807 123.119 107.508 123.288L107.322 123.042C107.622 123.109 107.89 123.226 108.127 123.395C108.363 123.554 108.557 123.756 108.709 124C108.87 124.235 108.975 124.513 109.024 124.836C109.087 125.12 109.14 125.358 109.182 125.55C109.232 125.732 109.288 125.881 109.349 125.995C109.41 126.11 109.505 126.192 109.634 126.242C109.812 126.315 109.931 126.441 109.991 126.622C110.06 126.801 110.043 126.973 109.941 127.136C109.871 127.257 109.774 127.344 109.648 127.397C109.531 127.44 109.407 127.46 109.275 127.457C109.142 127.445 109.026 127.422 108.928 127.387C108.768 127.313 108.599 127.202 108.422 127.054C108.252 126.896 108.102 126.67 107.972 126.376C107.841 126.082 107.746 125.684 107.684 125.184C107.656 124.953 107.594 124.758 107.5 124.6C107.405 124.443 107.287 124.321 107.144 124.235C107.001 124.14 106.839 124.08 106.657 124.055C106.474 124.021 106.276 124.017 106.063 124.043L103.117 124.405L103.278 124.103L103.685 127.424C103.71 127.628 103.676 127.806 103.582 127.959C103.486 128.102 103.342 128.186 103.147 128.21ZM102.983 123.194L106.304 122.787C106.516 122.751 106.709 122.643 106.884 122.461C107.068 122.27 107.202 122.027 107.289 121.735C107.384 121.441 107.411 121.118 107.367 120.766C107.313 120.321 107.133 119.967 106.828 119.704C106.531 119.43 106.202 119.315 105.841 119.359L102.589 119.759L102.697 119.379L103.199 123.464L102.983 123.194ZM121.393 121.033C121.479 121.737 121.444 122.409 121.288 123.048C121.13 123.679 120.866 124.247 120.496 124.754C120.135 125.259 119.683 125.676 119.14 126.006C118.597 126.327 117.982 126.529 117.297 126.613C116.62 126.696 115.98 126.648 115.375 126.469C114.768 126.28 114.224 125.984 113.742 125.583C113.27 125.18 112.881 124.692 112.575 124.118C112.278 123.534 112.086 122.89 111.999 122.186C111.913 121.482 111.944 120.815 112.092 120.186C112.249 119.546 112.508 118.973 112.869 118.468C113.239 117.962 113.696 117.549 114.24 117.228C114.782 116.898 115.392 116.692 116.068 116.609C116.754 116.524 117.399 116.577 118.006 116.766C118.611 116.945 119.15 117.236 119.622 117.639C120.104 118.041 120.498 118.533 120.805 119.116C121.11 119.69 121.306 120.329 121.393 121.033ZM119.892 121.217C119.808 120.531 119.593 119.932 119.248 119.42C118.913 118.906 118.485 118.522 117.964 118.266C117.444 118.01 116.869 117.921 116.239 117.998C115.618 118.074 115.086 118.299 114.643 118.674C114.2 119.048 113.878 119.525 113.676 120.104C113.474 120.674 113.415 121.307 113.5 122.002C113.584 122.687 113.794 123.287 114.13 123.8C114.466 124.314 114.894 124.699 115.414 124.954C115.935 125.21 116.505 125.3 117.126 125.224C117.756 125.146 118.292 124.921 118.735 124.547C119.178 124.172 119.501 123.696 119.702 123.116C119.913 122.535 119.976 121.902 119.892 121.217ZM130.965 115.485C131.181 115.562 131.316 115.705 131.37 115.915C131.433 116.123 131.406 116.324 131.289 116.517C131.204 116.668 131.079 116.764 130.915 116.803C130.76 116.84 130.598 116.827 130.43 116.763C130.145 116.657 129.848 116.581 129.542 116.534C129.235 116.487 128.915 116.484 128.582 116.525C128.054 116.59 127.587 116.736 127.183 116.965C126.786 117.183 126.455 117.472 126.189 117.834C125.922 118.187 125.732 118.591 125.619 119.047C125.515 119.501 125.495 119.993 125.56 120.521C125.632 121.105 125.783 121.612 126.015 122.045C126.246 122.468 126.533 122.818 126.878 123.096C127.23 123.363 127.624 123.549 128.061 123.656C128.505 123.751 128.973 123.769 129.464 123.709C129.779 123.67 130.08 123.596 130.367 123.485C130.664 123.374 130.937 123.227 131.188 123.046C131.344 122.942 131.503 122.894 131.664 122.903C131.833 122.901 131.977 122.963 132.096 123.09C132.277 123.265 132.357 123.457 132.336 123.667C132.323 123.866 132.225 124.028 132.043 124.154C131.827 124.312 131.586 124.454 131.32 124.581C131.053 124.708 130.78 124.817 130.499 124.908C130.219 124.998 129.931 125.062 129.634 125.098C128.967 125.18 128.324 125.147 127.704 124.997C127.083 124.847 126.515 124.588 126 124.219C125.484 123.85 125.054 123.371 124.709 122.783C124.374 122.195 124.157 121.502 124.059 120.705C123.972 119.992 124.011 119.319 124.178 118.688C124.353 118.045 124.636 117.479 125.028 116.989C125.427 116.489 125.913 116.081 126.486 115.767C127.057 115.443 127.699 115.237 128.413 115.149C128.857 115.095 129.295 115.097 129.725 115.157C130.165 115.216 130.578 115.325 130.965 115.485ZM142.29 123.418C142.077 123.444 141.895 123.377 141.744 123.217L137.736 119.181L138.673 117.966L142.767 122.132C142.896 122.266 142.972 122.422 142.993 122.598C143.021 122.82 142.959 123.006 142.808 123.157C142.657 123.307 142.485 123.394 142.29 123.418ZM141.158 113.627C141.344 113.604 141.506 113.659 141.644 113.793C141.783 113.926 141.862 114.071 141.881 114.229C141.902 114.396 141.851 114.557 141.729 114.713L136.438 121.132L136.153 119.502L140.635 113.959C140.78 113.762 140.955 113.652 141.158 113.627ZM136.23 124.148C136.017 124.174 135.833 124.131 135.678 124.018C135.531 123.895 135.445 123.731 135.42 123.528L134.4 115.218C134.375 115.014 134.424 114.839 134.547 114.692C134.669 114.536 134.841 114.445 135.063 114.417C135.276 114.391 135.456 114.439 135.603 114.563C135.749 114.676 135.834 114.835 135.859 115.039L136.879 123.348C136.895 123.553 136.847 123.733 136.734 123.888C136.62 124.034 136.452 124.12 136.23 124.148ZM145.711 113.11L150.519 112.52C150.713 112.496 150.883 112.541 151.029 112.654C151.184 112.767 151.273 112.921 151.297 113.115C151.321 113.31 151.271 113.476 151.147 113.613C151.032 113.75 150.877 113.83 150.683 113.854L146.486 114.369L146.596 114.115L146.978 117.228L146.836 117.105L150.393 116.668C150.588 116.644 150.758 116.689 150.904 116.803C151.059 116.915 151.149 117.073 151.174 117.277C151.197 117.472 151.147 117.638 151.023 117.775C150.908 117.912 150.754 117.992 150.559 118.016L147.029 118.449L147.111 118.312L147.506 121.522L147.395 121.423L151.549 120.913C151.744 120.889 151.915 120.938 152.061 121.061C152.216 121.174 152.304 121.318 152.326 121.494C152.35 121.689 152.3 121.859 152.177 122.006C152.062 122.142 151.908 122.223 151.713 122.246L146.905 122.837C146.711 122.861 146.536 122.816 146.381 122.704C146.225 122.582 146.135 122.419 146.11 122.215L145.089 113.906C145.064 113.702 145.113 113.526 145.236 113.38C145.358 113.224 145.516 113.134 145.711 113.11ZM158.792 121.377C158.57 121.405 158.381 121.362 158.226 121.249C158.079 121.126 157.994 120.963 157.969 120.759L156.947 112.436L158.433 112.253L159.455 120.576C159.48 120.78 159.427 120.961 159.296 121.118C159.173 121.265 159.005 121.351 158.792 121.377ZM154.607 113.372C154.413 113.396 154.239 113.356 154.085 113.252C153.93 113.14 153.84 112.982 153.815 112.778C153.791 112.583 153.841 112.417 153.965 112.28C154.09 112.142 154.249 112.062 154.443 112.038L160.766 111.261C160.96 111.237 161.131 111.282 161.276 111.396C161.43 111.5 161.519 111.648 161.543 111.843C161.568 112.047 161.518 112.217 161.394 112.355C161.279 112.491 161.124 112.571 160.93 112.595L154.607 113.372Z" fill="#3F3F3F"/>
<path d="M126.309 91.4113L118.162 81.6344L105.474 80.6545C105.474 80.6545 87.4648 90.8553 97.7714 112.388C99.0549 115.069 101.97 116.574 104.899 116.068C128.422 112 126.309 91.4113 126.309 91.4113Z" fill="#FAE09D"/>
<path d="M117.846 82.2462C113.45 82.2 108.805 85.1593 106.254 90.1015C104.447 93.601 104.059 97.3804 104.903 100.552C105.538 102.937 108.105 104.262 110.418 103.399C113.492 102.251 116.348 99.7454 118.155 96.2457C120.707 91.3038 120.429 85.8034 117.846 82.2462Z" fill="#FD8B9B"/>
<path d="M155.224 57.1541L144.336 72.453C144.336 72.453 150.77 77.9331 150.816 85.4696C150.828 87.5453 152.496 89.227 154.571 89.1937L154.596 89.1932C155.779 89.1742 156.888 88.5939 157.562 87.6219C168.971 71.1805 155.224 57.1541 155.224 57.1541Z" fill="#FD8B9B"/>
<path d="M116.657 37.2431L110.49 54.9793C110.49 54.9793 102.296 52.9076 96.1255 57.2347C94.426 58.4264 92.0895 58.0411 90.9148 56.3299L90.9005 56.309C90.231 55.3336 90.0622 54.0938 90.464 52.9811C97.2609 34.1587 116.657 37.2431 116.657 37.2431Z" fill="#FD8B9B"/>
<path d="M162.15 49.3942L138.263 42.6999L118.973 27.103C128.411 17.3635 140.325 13.3713 147.752 11.7536C151.995 10.8294 156.294 13.0489 157.997 17.0424C160.979 24.0347 164.624 36.0596 162.15 49.3942Z" fill="#696EAF"/>
<path d="M161.028 67.2827C159.101 61.1101 155.224 57.1541 155.224 57.1541L144.336 72.453C144.336 72.453 148.375 75.8939 150.075 81.0718C152.385 78.8559 154.479 76.5569 156.349 74.1786C158.099 71.9529 159.66 69.6519 161.028 67.2827Z" fill="#E75B70"/>
<path d="M105.038 38.3766C103.899 40.8645 102.927 43.4691 102.126 46.1848C101.27 49.0866 100.608 52.1251 100.14 55.2916C105.346 53.6793 110.49 54.9793 110.49 54.9793L116.657 37.2431C116.657 37.2431 111.186 36.3732 105.038 38.3766Z" fill="#E75B70"/>
<path d="M143.741 22.1193C148.842 20.4919 154.012 19.7431 159.091 19.7819C158.724 18.8008 158.356 17.8843 157.997 17.0425C156.293 13.0489 151.994 10.8295 147.752 11.7537C140.325 13.3713 128.411 17.3635 118.973 27.103L125.661 32.511C130.719 27.9287 136.815 24.3289 143.741 22.1193Z" fill="#4C5696"/>
<path d="M126.309 91.4113L105.473 80.6545C101.886 53.8769 109.067 37.3256 118.972 27.103L162.15 49.3942C159.552 63.3899 150.217 78.8291 126.309 91.4113Z" fill="#C6A7EF"/>
<path d="M120.273 47.6502C124.869 44.6541 130.899 44.1466 136.124 46.8439C141.348 49.541 144.426 54.7511 144.646 60.2333L135.718 63.4299L123.936 57.3471L120.273 47.6502Z" fill="#696EAF"/>
<path d="M131.571 45.6816C131.819 45.6023 132.068 45.53 132.318 45.4621C128.132 44.5272 123.784 45.3615 120.273 47.6503L122.192 52.7299C124.354 49.5016 127.582 46.9543 131.571 45.6816Z" fill="#4C5696"/>
<path d="M144.646 60.2333C141.121 56.2663 137.009 55.896 134.179 56.284C132.292 56.5426 130.436 55.584 129.554 53.8964C128.231 51.3643 125.548 48.2262 120.273 47.6502C118.063 49.0914 116.185 51.1069 114.888 53.6198C110.895 61.354 113.927 70.8611 121.663 74.8549C129.398 78.8486 138.905 75.8146 142.898 68.0804C144.195 65.5674 144.75 62.8694 144.646 60.2333Z" fill="#FFDCCE"/>
<path d="M120.015 68.0646C117.794 61.1019 120.08 53.7816 125.244 49.2517C123.918 48.4626 122.284 47.8699 120.273 47.6502C118.063 49.0914 116.185 51.1069 114.888 53.6198C110.895 61.354 113.927 70.8612 121.663 74.8549C122.894 75.4906 124.171 75.9466 125.462 76.2356C122.997 74.149 121.069 71.3682 120.015 68.0646Z" fill="#FFCABD"/>
<path d="M119.361 59.2847C118.717 58.9521 118.464 58.1602 118.797 57.5158L119.607 55.947C119.94 55.3028 120.731 55.0501 121.376 55.3826C122.02 55.7152 122.273 56.5071 121.94 57.1515L121.13 58.7203C120.798 59.3646 120.006 59.6172 119.361 59.2847Z" fill="#303646"/>
<path d="M135.689 67.714C135.044 67.3815 134.791 66.5895 135.124 65.9451L135.934 64.3763C136.267 63.7321 137.059 63.4794 137.703 63.812C138.347 64.1445 138.6 64.9365 138.267 65.5809L137.457 67.1497C137.125 67.7941 136.333 68.0466 135.689 67.714Z" fill="#303646"/>
<path d="M127.043 64.433C125.881 63.8333 125.036 62.7596 124.724 61.4873C124.551 60.7831 124.983 60.072 125.687 59.8998C126.391 59.7272 127.102 60.1582 127.274 60.8624C127.405 61.3973 127.76 61.8483 128.247 62.1C128.735 62.3518 129.309 62.3799 129.82 62.1767C130.494 61.9074 131.257 62.2396 131.524 62.9135C131.791 63.5877 131.461 64.3506 130.787 64.6177C129.558 65.1045 128.195 65.028 127.043 64.433Z" fill="#303646"/>
<path d="M127.071 31.2843L118.972 27.103C109.067 37.3256 101.886 53.8769 105.473 80.6545L111.771 83.9058C105.561 64.3198 112.241 43.7242 127.071 31.2843Z" fill="#AF88E1"/>
<rect y="58.0468" width="96" height="140" rx="9" transform="rotate(-24 0 58.0468)" fill="#1771B9"/>
<rect x="5.68774" y="60.9876" width="88" height="130" rx="7" transform="rotate(-24 5.68774 60.9876)" fill="white"/>
<path d="M67.7709 147.392C67.8733 147.347 67.9912 147.325 68.1248 147.327C68.2585 147.328 68.376 147.363 68.4774 147.43L73.9297 150.933L73.3684 151.153L74.4886 144.754C74.5377 144.497 74.6688 144.321 74.882 144.226C75.0525 144.15 75.2302 144.148 75.415 144.219C75.6046 144.277 75.7411 144.4 75.8247 144.588L79.2355 152.249C79.3191 152.437 79.3296 152.621 79.2672 152.802C79.201 152.974 79.0698 153.104 78.8737 153.192C78.6691 153.283 78.4762 153.297 78.2952 153.235C78.1189 153.16 77.9889 153.029 77.9054 152.841L75.0184 146.357L75.4675 146.264L74.5614 151.801C74.5359 151.905 74.4895 152.007 74.4223 152.109C74.3513 152.201 74.2627 152.266 74.1566 152.303C74.0666 152.354 73.9591 152.376 73.834 152.37C73.7136 152.353 73.6065 152.318 73.5127 152.268L68.9221 149.255L69.0013 148.607L72.0478 155.449C72.1313 155.637 72.1418 155.821 72.0794 156.002C72.0217 156.171 71.8991 156.297 71.7115 156.38C71.5324 156.46 71.3567 156.467 71.1841 156.401C71.0163 156.322 70.8907 156.189 70.8072 156.002L67.3963 148.341C67.3166 148.161 67.3122 147.98 67.3831 147.795C67.4626 147.606 67.5919 147.472 67.7709 147.392ZM89.1512 143.252C89.4397 143.9 89.6026 144.553 89.64 145.211C89.6736 145.86 89.5873 146.48 89.3811 147.073C89.1834 147.662 88.8734 148.193 88.4511 148.667C88.0249 149.133 87.4964 149.506 86.8654 149.787C86.243 150.064 85.6162 150.205 84.9851 150.21C84.3502 150.207 83.7436 150.083 83.1653 149.84C82.5956 149.593 82.0808 149.24 81.6209 148.781C81.1657 148.309 80.7939 147.749 80.5054 147.101C80.2169 146.453 80.0515 145.807 80.0094 145.161C79.972 144.504 80.0522 143.881 80.2499 143.292C80.4561 142.7 80.7722 142.171 81.1984 141.705C81.6207 141.231 82.1431 140.855 82.7655 140.578C83.3965 140.297 84.0294 140.158 84.6644 140.162C85.2955 140.157 85.8959 140.278 86.4656 140.525C87.0438 140.768 87.5648 141.123 88.0285 141.591C88.4884 142.05 88.8627 142.604 89.1512 143.252ZM87.7699 143.867C87.489 143.236 87.1086 142.726 86.6289 142.337C86.1576 141.944 85.6358 141.701 85.0633 141.609C84.4909 141.516 83.9148 141.599 83.335 141.857C82.7637 142.111 82.3209 142.482 82.0066 142.97C81.6923 143.457 81.5235 144.007 81.5002 144.62C81.4731 145.225 81.6019 145.847 81.8867 146.486C82.1676 147.117 82.5437 147.629 83.0149 148.022C83.4861 148.415 84.008 148.658 84.5804 148.751C85.1529 148.843 85.7247 148.762 86.296 148.508C86.8758 148.25 87.3228 147.877 87.6371 147.39C87.9515 146.902 88.1202 146.352 88.1435 145.739C88.1754 145.122 88.0508 144.498 87.7699 143.867ZM100.251 138.31C100.54 138.958 100.703 139.611 100.74 140.269C100.774 140.918 100.687 141.538 100.481 142.131C100.283 142.72 99.9734 143.251 99.551 143.725C99.1249 144.191 98.5963 144.564 97.9654 144.845C97.3429 145.122 96.7162 145.263 96.085 145.268C95.4501 145.265 94.8435 145.141 94.2653 144.898C93.6956 144.651 93.1808 144.298 92.7208 143.839C92.2657 143.367 91.8938 142.807 91.6053 142.159C91.3168 141.511 91.1515 140.865 91.1094 140.219C91.072 139.562 91.1521 138.939 91.3498 138.35C91.556 137.758 91.8722 137.229 92.2983 136.763C92.7206 136.289 93.243 135.913 93.8655 135.636C94.4964 135.355 95.1294 135.216 95.7643 135.22C96.3954 135.215 96.9958 135.336 97.5655 135.583C98.1438 135.826 98.6647 136.181 99.1285 136.649C99.5884 137.108 99.9626 137.662 100.251 138.31ZM98.8698 138.925C98.5889 138.294 98.2086 137.784 97.7288 137.395C97.2575 137.002 96.7357 136.759 96.1633 136.667C95.5908 136.574 95.0147 136.657 94.4349 136.915C93.8636 137.169 93.4208 137.54 93.1065 138.028C92.7922 138.515 92.6234 139.065 92.6001 139.678C92.5731 140.283 92.7019 140.905 92.9866 141.544C93.2675 142.175 93.6436 142.687 94.1148 143.08C94.5861 143.473 95.1079 143.716 95.6804 143.809C96.2528 143.901 96.8247 143.82 97.3959 143.566C97.9757 143.308 98.4228 142.935 98.7371 142.448C99.0514 141.96 99.2202 141.41 99.2435 140.797C99.2753 140.18 99.1507 139.556 98.8698 138.925ZM107.913 129.535C108.083 129.459 108.246 129.458 108.402 129.532C108.562 129.593 108.68 129.709 108.756 129.88L112.184 137.579C112.267 137.767 112.274 137.953 112.203 138.138C112.137 138.311 112.01 138.439 111.822 138.522C111.737 138.56 111.635 138.585 111.518 138.596C111.409 138.604 111.316 138.589 111.238 138.552L102.946 134.076L103.166 133.779L106.099 140.365C106.171 140.527 106.178 140.693 106.121 140.861C106.059 141.021 105.943 141.14 105.773 141.215C105.594 141.295 105.424 141.304 105.264 141.243C105.108 141.169 104.994 141.051 104.922 140.889L101.489 133.177C101.401 132.981 101.395 132.795 101.47 132.618C101.545 132.442 101.671 132.314 101.851 132.234C101.944 132.192 102.052 132.17 102.173 132.167C102.299 132.152 102.405 132.171 102.49 132.225L110.591 136.618L110.479 136.883L107.592 130.398C107.516 130.228 107.509 130.062 107.57 129.902C107.628 129.733 107.742 129.611 107.913 129.535Z" fill="#3F3F3F"/>
<path d="M102.081 81.3467C105.403 88.8087 106.003 96.7927 104.307 104.185C101.844 114.926 94.693 122.695 83.8513 127.522C65.5475 135.672 45.4879 128.476 37.3385 110.172C32.6106 99.5528 31.8545 88.5632 36.9217 79.0393C40.5886 72.1471 46.498 66.3821 54.1829 62.9605C72.4867 54.8112 93.9311 63.0429 102.081 81.3467Z" fill="#E3E0E4"/>
<path d="M104.718 102.115C102.762 113.696 95.228 124.109 83.6943 129.244C65.391 137.393 43.9459 129.161 35.7967 110.858C30.6616 99.3244 32.0305 86.5448 38.3258 76.6292C37.1762 83.4261 37.949 90.6262 40.9638 97.3974C49.1129 115.701 70.5581 123.933 88.8614 115.784C95.6326 112.769 101.025 107.935 104.718 102.115Z" fill="#D4CFD5"/>
<path d="M79.126 46.0105L81.3992 47.8802C81.4561 47.9268 81.5264 47.9539 81.5998 47.9572L84.5402 48.0888C84.8199 48.1013 84.9653 48.4279 84.7874 48.6442L82.9178 50.9174C82.8711 50.9743 82.844 51.0446 82.8408 51.118L82.7092 54.0583C82.6966 54.3381 82.37 54.4835 82.1537 54.3056L79.8806 52.4361C79.8237 52.3895 79.7535 52.3624 79.68 52.3591L76.7397 52.2275C76.4599 52.215 76.3145 51.8884 76.4924 51.6721L78.362 49.3989C78.4087 49.342 78.4358 49.2717 78.439 49.1983L78.5707 46.258C78.5832 45.9781 78.9098 45.8326 79.126 46.0105Z" fill="#5D91B9"/>
<path d="M56.7153 147.101L54.4421 145.231C54.3852 145.184 54.3149 145.157 54.2415 145.154L51.3012 145.022C51.0214 145.01 50.876 144.683 51.0539 144.467L52.9235 142.194C52.9702 142.137 52.9973 142.067 53.0005 141.993L53.1322 139.053C53.1447 138.773 53.4713 138.628 53.6876 138.806L55.9608 140.675C56.0176 140.722 56.0879 140.749 56.1613 140.752L59.1017 140.884C59.3814 140.896 59.5268 141.223 59.349 141.439L57.4793 143.713C57.4327 143.769 57.4055 143.84 57.4023 143.913L57.2707 146.853C57.2582 147.133 56.9315 147.279 56.7153 147.101Z" fill="#5D91B9"/>
<path d="M115.793 97.6549L115.221 97.9096C115.135 97.9478 115.035 97.9092 114.997 97.8235L114.742 97.2513C114.458 96.6138 113.719 96.2766 113.074 96.5413C112.405 96.8151 112.1 97.5844 112.392 98.2393L112.668 98.8602C112.706 98.9459 112.668 99.0464 112.582 99.0845L112.01 99.3393C111.372 99.6231 111.035 100.362 111.3 101.008C111.573 101.676 112.343 101.981 112.998 101.689L113.619 101.413C113.704 101.375 113.805 101.413 113.843 101.499L114.098 102.071C114.382 102.709 115.12 103.046 115.766 102.781C116.434 102.508 116.74 101.738 116.448 101.083L116.172 100.462C116.133 100.377 116.172 100.276 116.258 100.238L116.879 99.9616C117.534 99.67 117.821 98.894 117.508 98.2434C117.205 97.6147 116.431 97.3711 115.793 97.6549Z" fill="#F3D332"/>
<path d="M24.1396 88.9848L23.5674 89.2395C23.4817 89.2777 23.3812 89.2391 23.3431 89.1534L23.0883 88.5812C22.8045 87.9437 22.0657 87.6065 21.4199 87.8712C20.7519 88.145 20.4466 88.9143 20.7381 89.5692L21.0146 90.1901C21.0528 90.2758 21.0142 90.3763 20.9285 90.4144L20.3563 90.6692C19.7188 90.9531 19.3816 91.6917 19.6462 92.3374C19.9198 93.0055 20.6892 93.311 21.3443 93.0194L21.9652 92.7429C22.0509 92.7048 22.1514 92.7433 22.1895 92.829L22.4443 93.4012C22.7281 94.0388 23.4669 94.3759 24.1127 94.1113C24.7807 93.8375 25.086 93.0682 24.7945 92.4133L24.518 91.7923C24.4798 91.7066 24.5184 91.6061 24.6041 91.568L25.225 91.2915C25.88 90.9999 26.1678 90.2239 25.8545 89.5733C25.5515 88.9446 24.777 88.701 24.1396 88.9848Z" fill="#F3D332"/>
<path d="M57.1026 95.4201C57.4652 96.2346 57.6457 97.0839 57.6613 97.9225C57.7084 100.438 55.9197 101.992 53.4764 103.08C50.2185 104.53 48.0118 103.65 46.5613 100.392C45.4776 97.9584 44.7651 95.4928 46.4679 93.6547C47.0445 93.0325 47.7537 92.5144 48.5775 92.1476C51.8353 90.6971 55.6521 92.1622 57.1026 95.4201Z" fill="#D4CFD5"/>
<path d="M82.7955 113.648C83.3959 114.997 83.4968 116.441 83.1778 117.773C82.7262 119.66 80.9715 120.288 79.062 121.138C75.8042 122.588 72.4484 122.159 70.9979 118.901C69.5474 115.643 71.0125 111.826 74.2704 110.376C77.5282 108.925 81.3451 110.39 82.7955 113.648Z" fill="#D4CFD5"/>
<path d="M83.1775 117.773C82.7271 119.661 81.4325 121.323 79.5231 122.173C76.2648 123.624 72.4487 122.159 70.998 118.901C70.9814 118.864 70.9648 118.826 70.9498 118.788C74.9829 119.145 79.1146 118.829 83.1775 117.773Z" fill="#C5BEC6"/>
<path d="M82.1836 74.6742C82.4894 75.3611 82.581 76.0891 82.4874 76.7833C82.3121 78.0819 81.4776 78.9679 80.1926 79.54C78.2207 80.4179 76.2904 79.6999 75.4125 77.728C74.7772 76.3011 74.6964 74.8224 75.6518 73.7122C76.0167 73.2882 76.4786 72.9362 77.0237 72.6935C78.9956 71.8156 81.3056 72.7023 82.1836 74.6742Z" fill="#D4CFD5"/>
<path d="M96.9864 100.82C97.1961 101.291 97.3052 101.782 97.3227 102.267C97.3786 103.814 96.2071 104.64 94.7065 105.308C92.7346 106.186 91.7703 105.544 90.8925 103.572C90.1243 101.847 89.6606 100.29 91.1393 99.2323C91.3505 99.0813 91.58 98.9492 91.8265 98.8395C93.7984 97.9613 96.1084 98.8481 96.9864 100.82Z" fill="#D4CFD5"/>
<path d="M57.6625 97.9515C57.6987 100.456 56.2643 102.861 53.8303 103.945C50.572 105.396 46.7559 103.931 45.3052 100.673C44.2215 98.2386 44.7652 95.4911 46.4677 93.6542C46.4807 94.5022 46.6605 95.3615 47.0275 96.1858C48.4782 99.4441 52.2943 100.909 55.5526 99.4582C56.3769 99.0912 57.0855 98.573 57.6625 97.9515Z" fill="#C5BEC6"/>
<path d="M82.5172 76.1215C82.5749 77.6675 81.7038 79.1658 80.2027 79.8341C78.2313 80.7119 75.9205 79.8248 75.0428 77.8534C74.2673 76.1117 74.8692 74.1046 76.3803 73.0579C76.3958 73.5439 76.5047 74.0349 76.7141 74.5052C77.5918 76.4767 79.9026 77.3637 81.874 76.486C82.1038 76.3837 82.3192 76.2617 82.5172 76.1215Z" fill="#C5BEC6"/>
<path d="M97.3201 102.267C97.3779 103.813 96.5068 105.312 95.0057 105.98C93.0342 106.858 90.7235 105.971 89.8457 103.999C89.0703 102.258 89.6721 100.25 91.1833 99.2037C91.1988 99.6897 91.3077 100.181 91.5171 100.651C92.3948 102.622 94.7056 103.509 96.677 102.632C96.9068 102.529 97.1222 102.408 97.3201 102.267Z" fill="#C5BEC6"/>
<path d="M61.2388 75.2573C62.5676 74.6656 63.1653 73.1088 62.5736 71.7799C61.982 70.4511 60.4251 69.8535 59.0963 70.4451C57.7674 71.0368 57.1698 72.5936 57.7614 73.9225C58.3531 75.2513 59.9099 75.8489 61.2388 75.2573Z" fill="#D4CFD5"/>
<path d="M68.9392 96.9392C70.4395 96.2712 71.1143 94.5135 70.4463 93.0132C69.7783 91.5129 68.0206 90.8381 66.5203 91.5061C65.02 92.1741 64.3452 93.9318 65.0132 95.4321C65.6812 96.9324 67.4389 97.6072 68.9392 96.9392Z" fill="#D4CFD5"/>
<path d="M47.6961 116.069C48.9392 115.516 49.4982 114.059 48.9448 112.816C48.3913 111.573 46.9349 111.014 45.6918 111.568C44.4487 112.121 43.8896 113.578 44.4431 114.821C44.9965 116.064 46.4529 116.623 47.6961 116.069Z" fill="#C5BEC6"/>
<path d="M93.3308 90.7294C94.5739 90.176 95.133 88.7195 94.5795 87.4764C94.0261 86.2333 92.5697 85.6742 91.3265 86.2277C90.0834 86.7812 89.5244 88.2376 90.0778 89.4807C90.6313 90.7238 92.0877 91.2829 93.3308 90.7294Z" fill="#D4CFD5"/>
<path d="M47.7258 87.1011C48.3542 86.8213 48.6368 86.0851 48.357 85.4567C48.0772 84.8282 47.341 84.5456 46.7126 84.8254C46.0841 85.1052 45.8015 85.8414 46.0813 86.4699C46.3611 87.0983 47.0973 87.3809 47.7258 87.1011Z" fill="#D4CFD5"/>
<path d="M59.9792 119.218C60.6076 118.938 60.8902 118.202 60.6104 117.574C60.3306 116.945 59.5944 116.663 58.966 116.942C58.3376 117.222 58.0549 117.958 58.3347 118.587C58.6145 119.215 59.3508 119.498 59.9792 119.218Z" fill="#C5BEC6"/>
<path d="M93.256 113.33C93.8844 113.051 94.1671 112.314 93.8873 111.686C93.6075 111.057 92.8712 110.775 92.2428 111.055C91.6144 111.334 91.3318 112.071 91.6116 112.699C91.8914 113.327 92.6276 113.61 93.256 113.33Z" fill="#D4CFD5"/>
<path d="M93.7861 79.4279C94.4145 79.1481 94.6971 78.4119 94.4173 77.7834C94.1375 77.155 93.4013 76.8724 92.7729 77.1522C92.1444 77.432 91.8618 78.1682 92.1416 78.7966C92.4214 79.4251 93.1576 79.7077 93.7861 79.4279Z" fill="#D4CFD5"/>
<path d="M69.9704 69.385C70.5988 69.1052 70.8814 68.369 70.6016 67.7406C70.3218 67.1122 69.5856 66.8295 68.9572 67.1093C68.3288 67.3891 68.0461 68.1254 68.3259 68.7538C68.6057 69.3822 69.342 69.6648 69.9704 69.385Z" fill="#D4CFD5"/>
</svg>
