<svg width="101" height="87" viewBox="0 0 101 87" fill="none" xmlns="http://www.w3.org/2000/svg">
<path d="M33.3042 77.5263C33.3042 79.1992 34.6604 80.5555 36.3333 80.5555C38.0062 80.5555 39.3625 79.1992 39.3625 77.5263V64.4498H33.3042V77.5263Z" fill="#C77464"/>
<path d="M61.1729 64.4489V77.5255C61.1729 79.1984 62.5291 80.5547 64.202 80.5547C65.8749 80.5547 67.2311 79.1984 67.2311 77.5255V64.4489H61.1729Z" fill="#CE857A"/>
<path d="M70.955 2.68618C68.1244 1.93798 65.2631 1.34831 62.3842 0.912517C51.4734 -0.73917 40.3085 -0.149296 29.5805 2.68618C26.3001 3.55332 24.0151 6.52066 24.0151 9.91349V36.2734H48.2482H76.5202V9.91349C76.5202 6.52066 74.2352 3.55332 70.955 2.68618Z" fill="#CE857A"/>
<path d="M53.8134 2.68618C56.644 1.93798 59.5055 1.34831 62.3842 0.912517C51.4734 -0.73917 40.3085 -0.149296 29.5805 2.68618C26.3001 3.55332 24.0151 6.52066 24.0151 9.91349V36.2734H48.2482V9.91349C48.2482 6.52066 50.5332 3.55332 53.8134 2.68618Z" fill="#C77464"/>
<path d="M18.2593 66.5671L22.803 62.5282L27.3467 66.5671V83.4291C27.3467 85.102 25.9904 86.4582 24.3175 86.4582H21.2884C19.6155 86.4582 18.2593 85.102 18.2593 83.4291V66.5671Z" fill="#CE857A"/>
<path d="M73.1875 66.5653L77.7312 62.5265L82.2749 66.5653V83.4273C82.2749 85.1002 80.9187 86.4565 79.2458 86.4565H76.2166C74.5437 86.4565 73.1875 85.1002 73.1875 83.4273V66.5653Z" fill="#E8B5B1"/>
<path d="M82.2758 66.5657H18.2601C11.5683 66.5657 6.14355 61.1409 6.14355 54.4491V36.2743L50.268 30.2158L94.3924 36.2741V54.4489C94.3924 61.1409 88.9676 66.5657 82.2758 66.5657Z" fill="#FFCE71"/>
<path d="M94.392 24.1573H6.14323C2.79725 24.1573 0.0849609 26.8696 0.0849609 30.2156C0.0849609 33.5613 2.79725 36.2738 6.14323 36.2738H94.392C97.738 36.2738 100.45 33.5613 100.45 30.2156C100.45 26.8696 97.738 24.1573 94.392 24.1573Z" fill="#E8B5B1"/>
<path d="M33.5064 24.1573H6.14323C2.79725 24.1573 0.0849609 26.8696 0.0849609 30.2156C0.0849609 33.5613 2.79725 36.2738 6.14323 36.2738H33.5064C30.1606 32.9278 30.1606 27.5031 33.5064 24.1573Z" fill="#CE857A"/>
<path d="M33.5067 54.4487V36.2738H33.5076C18.5259 36.2738 6.57026 36.2738 6.14436 36.2738H6.14355V54.4487C6.14355 61.1404 11.5683 66.5652 18.2601 66.5652H45.6233C38.9315 66.5652 33.5067 61.1406 33.5067 54.4487Z" fill="#FFB357"/>
<path d="M37.6464 9.18646C36.8098 9.18646 36.1318 9.86438 36.1318 10.701V13.1243C36.1318 13.961 36.8098 14.6389 37.6464 14.6389C38.4831 14.6389 39.161 13.961 39.161 13.1243V10.701C39.161 9.86438 38.4831 9.18646 37.6464 9.18646Z" fill="#313D40"/>
<path d="M62.8681 9.18481C62.0314 9.18481 61.3535 9.86274 61.3535 10.6994V13.1227C61.3535 13.9593 62.0314 14.6373 62.8681 14.6373C63.7047 14.6373 64.3827 13.9593 64.3827 13.1227V10.6994C64.3827 9.86274 63.7047 9.18481 62.8681 9.18481Z" fill="#313D40"/>
<path d="M54.5772 11.909C53.9464 11.3591 52.9898 11.4247 52.4403 12.0554C51.889 12.6881 51.0931 13.0507 50.2569 13.0507C49.4207 13.0507 48.6252 12.6881 48.0739 12.0556C47.524 11.4251 46.5674 11.3595 45.9369 11.9088C45.3063 12.4584 45.2408 13.4152 45.7901 14.0457C46.9168 15.3383 48.5448 16.0797 50.2567 16.0797C51.9686 16.0797 53.5964 15.3383 54.7233 14.0459C55.2731 13.4154 55.2077 12.4586 54.5772 11.909Z" fill="#313D40"/>
</svg>
