<svg width="68" height="100" viewBox="0 0 68 100" fill="none" xmlns="http://www.w3.org/2000/svg">
<path d="M0 10C0 4.47716 4.47715 0 10 0H58C63.5228 0 68 4.47715 68 10V99.7122H0V10Z" fill="#C76D3C"/>
<path d="M8.88062 18.9029C8.88062 13.38 13.3578 8.90289 18.8806 8.90289H49.1194C54.6423 8.90289 59.1194 13.38 59.1194 18.9029V99.7122H8.88062V18.9029Z" fill="#3B97E0"/>
<path d="M28.418 20C28.418 8.95432 37.3723 0 48.418 0H58C63.5229 0 68.0001 4.47715 68.0001 10V99.7122H28.418V20Z" fill="#CC5B1D" fill-opacity="0.34" style="mix-blend-mode:multiply"/>
<path d="M51.5896 16.2795H42.5839C40.9261 16.2795 39.582 17.627 39.582 19.289V54.3588C39.582 56.0208 40.9261 57.3682 42.5839 57.3682H51.5896C53.2475 57.3682 54.5915 56.0208 54.5915 54.3588C54.5915 52.8302 54.5915 20.834 54.5915 19.289C54.5915 17.627 53.2475 16.2795 51.5896 16.2795Z" fill="#7CE3FF"/>
<path d="M54.5915 21.4032L39.582 36.4503V52.2988L54.5915 37.2516C54.5915 28.4206 54.5915 22.7695 54.5915 21.4032Z" fill="#B9F0FF"/>
<path d="M50.0885 72.4153C52.5754 72.4153 54.5914 70.3943 54.5914 67.9012C54.5914 65.4081 52.5754 63.387 50.0885 63.387C47.6017 63.387 45.5857 65.4081 45.5857 67.9012C45.5857 70.3943 47.6017 72.4153 50.0885 72.4153Z" fill="#FFB703"/>
</svg>
