<svg width="51" height="50" viewBox="0 0 51 50" fill="none" xmlns="http://www.w3.org/2000/svg">
<g filter="url(#filter0_d)">
<path d="M40.3021 35.8498C33.9055 42.1655 24.4495 43.6174 16.6461 40.2035C14.8083 39.4003 13.0637 38.3272 11.4712 36.9842C11.0447 36.6256 10.631 36.2466 10.2281 35.8498C1.92398 27.6481 1.92398 14.3521 10.2281 6.15046C18.5332 -2.05015 31.997 -2.05015 40.3021 6.15046C40.7051 6.54837 41.0876 6.95694 41.4509 7.37808C42.8108 8.9496 43.8975 10.6734 44.7108 12.4885C48.1678 20.1937 46.6975 29.533 40.3021 35.8498Z" fill="#F4B74A"/>
<path d="M44.7102 12.4886L16.6456 40.2036C14.8078 39.4004 13.0632 38.3273 11.4707 36.9843L41.4504 7.37817C42.8102 8.9497 43.8969 10.6737 44.7102 12.4886Z" fill="#F9C662"/>
<path d="M40.3022 21.0006C40.3022 29.2017 33.5698 35.85 25.2653 35.85C20.5776 35.85 16.3915 33.7324 13.6333 30.4119C11.5049 27.8501 10.2285 24.5725 10.2285 21.0006C10.2285 12.7995 16.9609 6.15112 25.2653 6.15112C28.8831 6.15112 32.2022 7.4134 34.7962 9.51539C38.1577 12.2381 40.3022 16.3722 40.3022 21.0006Z" fill="#FFD488"/>
<path d="M34.7963 9.5149L13.6352 30.4123L13.6333 30.4114C13.012 29.6639 12.4635 28.8549 11.9988 27.9956C11.469 27.0191 11.0478 25.9785 10.7489 24.8865C10.4097 23.6476 10.2285 22.3442 10.2285 21.0001C10.2285 12.799 16.9609 6.15063 25.2653 6.15063C26.6275 6.15063 27.9471 6.32926 29.2008 6.66455C30.3066 6.95969 31.3604 7.37672 32.3492 7.89988C33.2194 8.35888 34.0385 8.90154 34.7963 9.5149Z" fill="#F9C662"/>
<path d="M32.3483 7.89988L11.9979 27.9958C11.4682 27.0193 11.0469 25.9786 10.748 24.8866L29.2 6.66455C30.3055 6.95968 31.3595 7.37672 32.3483 7.89988Z" fill="#FFD488"/>
<path d="M26.2889 20.0684V14.4947C27.7832 14.8386 28.8767 15.9134 28.8767 17.1834C28.8767 17.7423 29.3353 18.1954 29.9015 18.1954C30.4676 18.1954 30.9263 17.7423 30.9263 17.1834C30.9263 14.8193 28.9233 12.8482 26.2888 12.4357V11.8404C26.2888 11.2815 25.8301 10.8284 25.264 10.8284C24.6979 10.8284 24.2392 11.2815 24.2392 11.8404V12.4357C21.6047 12.8484 19.6016 14.8195 19.6016 17.1834C19.6016 19.5473 21.6047 21.5185 24.2392 21.931V27.5047C22.7449 27.1608 21.6513 26.086 21.6513 24.816C21.6513 24.2571 21.1927 23.804 20.6265 23.804C20.0604 23.804 19.6017 24.2571 19.6017 24.816C19.6017 27.1801 21.6048 29.1512 24.2393 29.5637V30.159C24.2393 30.7179 24.698 31.171 25.2641 31.171C25.8303 31.171 26.2889 30.7179 26.2889 30.159V29.5637C28.9234 29.1512 30.9264 27.1799 30.9264 24.816C30.9264 22.4521 28.9234 20.481 26.2889 20.0684ZM21.6515 17.1832C21.6515 15.9133 22.7449 14.8385 24.2393 14.4946V19.8719C22.745 19.5281 21.6515 18.4532 21.6515 17.1832ZM26.2889 27.5047V22.1274C27.7832 22.4713 28.8767 23.5461 28.8767 24.816C28.8767 26.086 27.7832 27.1608 26.2889 27.5047Z" fill="#E0A33F"/>
<path d="M25.2649 36.8619C20.4352 36.8619 15.9068 34.7449 12.8404 31.0534C10.495 28.2306 9.20312 24.6602 9.20312 21.0003C9.20312 12.2542 16.4084 5.13867 25.2649 5.13867C28.9699 5.13867 32.5856 6.41506 35.4459 8.7325C39.1832 11.7598 41.3265 16.2312 41.3265 21.0002C41.3264 29.7464 34.1213 36.8619 25.2649 36.8619ZM25.2649 7.1629C17.5386 7.1629 11.2529 13.3703 11.2529 21.0003C11.2529 24.1931 12.3795 27.3076 14.4251 29.7695C17.1005 32.9904 21.0514 34.8377 25.2649 34.8377C32.991 34.8377 39.2768 28.6303 39.2768 21.0003C39.2768 16.8399 37.4066 12.9389 34.1458 10.2976C31.6512 8.27607 28.4971 7.1629 25.2649 7.1629Z" fill="#E0A33F"/>
</g>
<defs>
<filter id="filter0_d" x="0" y="0" width="50.53" height="50" filterUnits="userSpaceOnUse" color-interpolation-filters="sRGB">
<feFlood flood-opacity="0" result="BackgroundImageFix"/>
<feColorMatrix in="SourceAlpha" type="matrix" values="0 0 0 0 0 0 0 0 0 0 0 0 0 0 0 0 0 0 127 0"/>
<feOffset dy="4"/>
<feGaussianBlur stdDeviation="2"/>
<feColorMatrix type="matrix" values="0 0 0 0 0 0 0 0 0 0 0 0 0 0 0 0 0 0 0.25 0"/>
<feBlend mode="normal" in2="BackgroundImageFix" result="effect1_dropShadow"/>
<feBlend mode="normal" in="SourceGraphic" in2="effect1_dropShadow" result="shape"/>
</filter>
</defs>
</svg>
