<svg width="55" height="50" viewBox="0 0 55 50" fill="none" xmlns="http://www.w3.org/2000/svg">
<path d="M39.6799 12.4827V17.5137C39.6799 18.8858 38.5536 19.9979 37.1641 19.9979H7.03498C5.64548 19.9979 4.51917 18.8858 4.51917 17.5137V12.4827C4.51917 11.1116 5.64548 9.99945 7.03498 9.99945H37.164C38.5536 9.99945 39.6799 11.1116 39.6799 12.4827Z" fill="#DD9F3A"/>
<path d="M35.1607 22.4836V27.5146C35.1607 28.8867 34.0344 29.9989 32.6449 29.9989H2.51582C1.12632 29.9989 0 28.8867 0 27.5146V22.4836C0 21.1126 1.12632 20.0004 2.51582 20.0004H32.6448C34.0344 20.0004 35.1607 21.1126 35.1607 22.4836Z" fill="#DD9F3A"/>
<path d="M36.8555 32.4837V37.5147C36.8555 38.8868 35.7291 39.999 34.3396 39.999H4.21055C2.82105 39.999 1.69473 38.8868 1.69473 37.5147V32.4837C1.69473 31.1127 2.82105 30.0005 4.21055 30.0005H34.3395C35.7291 30.0005 36.8555 31.1127 36.8555 32.4837Z" fill="#DD9F3A"/>
<path d="M35.1607 42.4838V47.5148C35.1607 48.8869 34.0344 49.9991 32.6449 49.9991H2.51582C1.12632 49.9991 0 48.8869 0 47.5148V42.4838C0 41.1128 1.12632 40.0006 2.51582 40.0006H32.6448C34.0344 40.0006 35.1607 41.1128 35.1607 42.4838Z" fill="#DD9F3A"/>
<path d="M35.1609 42.4839V45.9532C35.1609 47.2361 34.1758 48.2925 32.9117 48.4241C32.8236 48.433 32.7354 48.4375 32.6451 48.4375H8.70786C7.31943 48.4375 6.19312 47.3253 6.19312 45.9532V42.4839C6.19312 41.1129 7.31943 40.0007 8.70786 40.0007H32.6451C34.0346 40.0007 35.1609 41.1129 35.1609 42.4839Z" fill="#F4B74A"/>
<path d="M35.1609 42.4839V45.9532C35.1609 47.2361 34.1758 48.2925 32.9117 48.4241C32.8236 48.433 32.7354 48.4375 32.6451 48.4375H8.70786C7.31943 48.4375 6.19312 47.3253 6.19312 45.9532V42.4839C6.19312 41.1129 7.31943 40.0007 8.70786 40.0007H32.6451C34.0346 40.0007 35.1609 41.1129 35.1609 42.4839Z" fill="#F4B74A"/>
<path d="M35.1608 32.4836V35.9529C35.1608 37.2358 34.1758 38.2922 32.9116 38.4238C32.8235 38.4327 32.7353 38.4372 32.645 38.4372H8.70779C7.31937 38.4372 6.19305 37.325 6.19305 35.9529V32.4836C6.19305 31.1126 7.31937 30.0004 8.70779 30.0004H32.645C34.0346 30.0003 35.1608 31.1125 35.1608 32.4836Z" fill="#F4B74A"/>
<path d="M35.1608 22.4842V25.9535C35.1608 27.2364 34.1758 28.2928 32.9116 28.4244C32.8235 28.4333 32.7353 28.4378 32.645 28.4378H8.70779C7.31937 28.4378 6.19305 27.3256 6.19305 25.9535V22.4842C6.19305 21.1132 7.31937 20.001 8.70779 20.001H32.645C34.0346 20.001 35.1608 21.1132 35.1608 22.4842Z" fill="#F4B74A"/>
<path d="M39.6796 12.4831V15.9524C39.6796 17.2352 38.6946 18.2916 37.4304 18.4233C37.3424 18.4322 37.2542 18.4366 37.1638 18.4366H13.2266C11.8382 18.4366 10.7119 17.3244 10.7119 15.9524V12.4831C10.7119 11.1121 11.8382 9.99988 13.2266 9.99988H37.1638C38.5534 9.99988 39.6796 11.1121 39.6796 12.4831Z" fill="#F4B74A"/>
<path d="M35.1609 42.484V47.515C35.1609 48.7979 34.1758 49.8543 32.9117 49.9859C32.6823 49.9948 32.453 49.9993 32.2236 49.9993C29.7926 49.9993 27.3614 49.5051 25.0975 48.5146C23.578 47.8508 22.1365 46.9629 20.8193 45.8529C20.4669 45.5562 20.1257 45.2438 19.7925 44.9159C18.3047 43.4467 17.1399 41.7801 16.2972 40.0008H32.645C34.0345 40.0008 35.1609 41.113 35.1609 42.484Z" fill="#DD9F3A"/>
<path d="M35.1609 32.4833V37.5143C35.1609 38.8864 34.0346 39.9986 32.6451 39.9986H17.9895C16.5017 36.8584 16.0182 33.3679 16.5401 30.0001H32.6451C34.0346 30 35.1609 31.1123 35.1609 32.4833Z" fill="#DD9F3A"/>
<path d="M35.1607 2.48333V7.51435C35.1607 8.88642 34.0344 9.99862 32.6449 9.99862H2.51582C1.12632 9.99872 0 8.88653 0 7.51445V2.48333C0 1.11232 1.12632 0.00012207 2.51582 0.00012207H32.6448C34.0344 0.000228145 35.1607 1.11242 35.1607 2.48333Z" fill="#DD9F3A"/>
<path d="M35.1609 2.48321V5.95249C35.1609 7.23536 34.1758 8.29175 32.9117 8.42339C32.8236 8.4323 32.7354 8.43676 32.6451 8.43676H8.70786C7.31943 8.43676 6.19312 7.32456 6.19312 5.95249V2.48321C6.19312 1.11219 7.31943 0 8.70786 0H32.6451C34.0346 0.000106075 35.1609 1.1123 35.1609 2.48321Z" fill="#F4B74A"/>
<path d="M31.0248 0H27.3351V8.43676H31.0248V0Z" fill="#F9C662"/>
<path d="M24.6239 0H22.7791V8.43676H24.6239V0Z" fill="#F9C662"/>
<path d="M35.4695 10H31.7795V19.9997H35.4695V10Z" fill="#F9C662"/>
<path d="M29.0674 10H27.2224V19.9997H29.0674V10Z" fill="#F9C662"/>
<path d="M39.6797 15.8898V17.5152C39.6797 18.8873 38.5534 19.9995 37.1639 19.9995H22.9962C27.593 15.7201 33.9533 14.3504 39.6797 15.8898Z" fill="#DD9F3A"/>
<path d="M35.1608 22.4838V27.5148C35.1608 28.8869 34.0345 29.9991 32.645 29.9991H14.8455C15.3911 26.4718 17.0405 23.0794 19.7913 20.3632C19.9166 20.2394 20.0432 20.1189 20.1709 20.0006H32.645C34.0345 20.0006 35.1608 21.1128 35.1608 22.4838Z" fill="#DD9F3A"/>
<path d="M49.8513 44.9154C44.5632 50.1367 36.7458 51.3371 30.2945 48.5147C28.7752 47.8508 27.3329 46.9636 26.0164 45.8533C25.6638 45.5568 25.3218 45.2435 24.9886 44.9154C18.1235 38.135 18.1235 27.143 24.9886 20.3626C31.8546 13.583 42.9854 13.583 49.8513 20.3626C50.1844 20.6915 50.5007 21.0293 50.801 21.3775C51.9253 22.6767 52.8237 24.1018 53.496 25.6023C56.354 31.9723 55.1385 39.6933 49.8513 44.9154Z" fill="#F4B74A"/>
<path d="M53.496 25.6025L30.2946 48.5149C28.7752 47.8509 27.333 46.9637 26.0164 45.8535L50.8011 21.3776C51.9253 22.6768 52.8236 24.1021 53.496 25.6025Z" fill="#F9C662"/>
<path d="M49.8512 32.6394C49.8512 39.4194 44.2854 44.9156 37.42 44.9156C33.5446 44.9156 30.0838 43.1649 27.8036 40.4198C26.044 38.302 24.9888 35.5923 24.9888 32.6394C24.9888 25.8594 30.5546 20.3631 37.42 20.3631C40.4108 20.3631 43.1548 21.4066 45.2993 23.1444C48.0783 25.3953 49.8512 28.8131 49.8512 32.6394Z" fill="#FFD488"/>
<path d="M45.2993 23.144L27.8052 40.4202L27.8035 40.4195C27.29 39.8015 26.8364 39.1327 26.4523 38.4223C26.0143 37.615 25.6661 36.7547 25.419 35.8519C25.1385 34.8277 24.9888 33.7502 24.9888 32.639C24.9888 25.859 30.5545 20.3627 37.42 20.3627C38.5461 20.3627 39.637 20.5104 40.6734 20.7876C41.5876 21.0316 42.4588 21.3764 43.2763 21.8089C43.9957 22.1883 44.6729 22.6369 45.2993 23.144Z" fill="#F9C662"/>
<path d="M43.2764 21.8089L26.4524 38.4225C26.0144 37.6152 25.6662 36.7548 25.4191 35.8521L40.6736 20.7876C41.5876 21.0316 42.4589 21.3764 43.2764 21.8089Z" fill="#FFD488"/>
<path d="M38.2673 31.8688V27.2609C39.5027 27.5452 40.4066 28.4338 40.4066 29.4837C40.4066 29.9458 40.7858 30.3204 41.2539 30.3204C41.7219 30.3204 42.1011 29.9458 42.1011 29.4837C42.1011 27.5293 40.4452 25.8998 38.2672 25.5587V25.0666C38.2672 24.6045 37.888 24.2299 37.42 24.2299C36.952 24.2299 36.5728 24.6045 36.5728 25.0666V25.5587C34.3948 25.8999 32.7388 27.5294 32.7388 29.4837C32.7388 31.438 34.3948 33.0676 36.5728 33.4087V38.0165C35.3374 37.7322 34.4333 36.8436 34.4333 35.7937C34.4333 35.3316 34.0541 34.9571 33.5861 34.9571C33.1181 34.9571 32.7389 35.3316 32.7389 35.7937C32.7389 37.7481 34.3949 39.3777 36.5729 39.7187V40.2108C36.5729 40.6729 36.9521 41.0475 37.4201 41.0475C37.8881 41.0475 38.2673 40.6729 38.2673 40.2108V39.7187C40.4453 39.3777 42.1012 37.748 42.1012 35.7937C42.1012 33.8395 40.4453 32.2099 38.2673 31.8688ZM34.4335 29.4836C34.4335 28.4337 35.3374 27.5451 36.5729 27.2608V31.7063C35.3375 31.4222 34.4335 30.5335 34.4335 29.4836ZM38.2673 38.0165V33.571C39.5027 33.8553 40.4066 34.7438 40.4066 35.7937C40.4066 36.8436 39.5027 37.7322 38.2673 38.0165Z" fill="#E0A33F"/>
<path d="M37.4201 45.7523C33.4273 45.7523 29.6835 44.0021 27.1485 40.9503C25.2095 38.6166 24.1415 35.6649 24.1415 32.6392C24.1415 25.4087 30.0983 19.5262 37.4201 19.5262C40.4831 19.5262 43.4722 20.5814 45.8369 22.4973C48.9265 25 50.6985 28.6966 50.6985 32.6391C50.6983 39.8698 44.7418 45.7523 37.4201 45.7523ZM37.4201 21.1996C31.0326 21.1996 25.8361 26.3314 25.8361 32.6392C25.8361 35.2788 26.7675 37.8535 28.4586 39.8889C30.6704 42.5517 33.9367 44.0788 37.4201 44.0788C43.8073 44.0788 49.0039 38.9471 49.0039 32.6392C49.0039 29.1998 47.4578 25.9748 44.762 23.7912C42.6997 22.1199 40.0922 21.1996 37.4201 21.1996Z" fill="#E0A33F"/>
<path d="M32.0489 32.3283C31.7063 32.3283 31.4286 32.6117 31.4286 32.9612V34.0964C31.4286 34.446 31.7063 34.7294 32.0489 34.7294C32.3915 34.7294 32.6692 34.446 32.6692 34.0964V32.9612C32.6692 32.6117 32.3915 32.3283 32.0489 32.3283Z" fill="#313D40"/>
<path d="M43.6279 32.3282C43.2853 32.3282 43.0076 32.6116 43.0076 32.9612V34.0963C43.0076 34.4459 43.2853 34.7293 43.6279 34.7293C43.9704 34.7293 44.2482 34.4459 44.2482 34.0963V32.9612C44.2482 32.6116 43.9704 32.3282 43.6279 32.3282Z" fill="#313D40"/>
<path d="M39.7722 33.5854C39.5139 33.3558 39.1222 33.3832 38.897 33.6467C38.6297 33.9597 38.2439 34.1392 37.8383 34.1392C37.4327 34.1392 37.0469 33.9597 36.7796 33.6467C36.5544 33.3832 36.1627 33.3558 35.9044 33.5854C35.6461 33.8151 35.6192 34.2149 35.8442 34.4784C36.3473 35.0673 37.074 35.405 37.8382 35.405C38.6024 35.405 39.3293 35.0673 39.8322 34.4784C40.0574 34.2149 40.0304 33.8151 39.7722 33.5854Z" fill="#313D40"/>
</svg>
