<svg width="47" height="42" viewBox="0 0 47 42" fill="none" xmlns="http://www.w3.org/2000/svg">
<path d="M33.3311 10.4855V14.7116C33.3311 15.8641 32.385 16.7983 31.2178 16.7983H5.90931C4.74213 16.7983 3.79602 15.8641 3.79602 14.7116V10.4855C3.79602 9.33384 4.74213 8.3996 5.90931 8.3996H31.2177C32.385 8.3996 33.3311 9.33384 33.3311 10.4855Z" fill="#DD9F3A"/>
<path d="M29.535 18.8863V23.1124C29.535 24.2649 28.5889 25.1991 27.4217 25.1991H2.11329C0.946107 25.1991 0 24.2649 0 23.1124V18.8863C0 17.7347 0.946107 16.8004 2.11329 16.8004H27.4217C28.5889 16.8004 29.535 17.7347 29.535 18.8863Z" fill="#DD9F3A"/>
<path d="M30.9587 27.2863V31.5124C30.9587 32.6649 30.0126 33.5991 28.8455 33.5991H3.53699C2.36981 33.5991 1.42371 32.6649 1.42371 31.5124V27.2863C1.42371 26.1347 2.36981 25.2004 3.53699 25.2004H28.8454C30.0126 25.2004 30.9587 26.1347 30.9587 27.2863Z" fill="#DD9F3A"/>
<path d="M29.535 35.6864V39.9125C29.535 41.0651 28.5889 41.9993 27.4217 41.9993H2.11329C0.946107 41.9993 0 41.0651 0 39.9125V35.6864C0 34.5348 0.946107 33.6006 2.11329 33.6006H27.4217C28.5889 33.6006 29.535 34.5348 29.535 35.6864Z" fill="#DD9F3A"/>
<path d="M29.535 35.6865V38.6007C29.535 39.6783 28.7075 40.5657 27.6456 40.6763C27.5716 40.6838 27.4976 40.6875 27.4217 40.6875H7.31441C6.14813 40.6875 5.20203 39.7533 5.20203 38.6007V35.6865C5.20203 34.5349 6.14813 33.6006 7.31441 33.6006H27.4217C28.5889 33.6006 29.535 34.5349 29.535 35.6865Z" fill="#F4B74A"/>
<path d="M29.535 35.6865V38.6007C29.535 39.6783 28.7075 40.5657 27.6456 40.6763C27.5716 40.6838 27.4976 40.6875 27.4217 40.6875H7.31441C6.14813 40.6875 5.20203 39.7533 5.20203 38.6007V35.6865C5.20203 34.5349 6.14813 33.6006 7.31441 33.6006H27.4217C28.5889 33.6006 29.535 34.5349 29.535 35.6865Z" fill="#F4B74A"/>
<path d="M29.5351 27.2863V30.2005C29.5351 31.2781 28.7076 32.1655 27.6458 32.2761C27.5718 32.2835 27.4977 32.2873 27.4218 32.2873H7.31453C6.14825 32.2873 5.20215 31.353 5.20215 30.2005V27.2863C5.20215 26.1347 6.14825 25.2004 7.31453 25.2004H27.4218C28.5891 25.2003 29.5351 26.1346 29.5351 27.2863Z" fill="#F4B74A"/>
<path d="M29.5351 18.8868V21.801C29.5351 22.8786 28.7076 23.766 27.6458 23.8766C27.5718 23.8841 27.4977 23.8878 27.4218 23.8878H7.31453C6.14825 23.8878 5.20215 22.9536 5.20215 21.801V18.8868C5.20215 17.7352 6.14825 16.8009 7.31453 16.8009H27.4218C28.5891 16.8009 29.5351 17.7352 29.5351 18.8868Z" fill="#F4B74A"/>
<path d="M33.3311 10.4858V13.4C33.3311 14.4776 32.5037 15.365 31.4418 15.4755C31.3678 15.483 31.2937 15.4868 31.2178 15.4868H11.1106C9.94427 15.4868 8.99817 14.5525 8.99817 13.4V10.4858C8.99817 9.33413 9.94427 8.39989 11.1106 8.39989H31.2178C32.3851 8.39989 33.3311 9.33413 33.3311 10.4858Z" fill="#F4B74A"/>
<path d="M29.5353 35.6866V39.9126C29.5353 40.9902 28.7079 41.8776 27.646 41.9882C27.4533 41.9957 27.2607 41.9994 27.068 41.9994C25.026 41.9994 22.9838 41.5843 21.0821 40.7522C19.8057 40.1947 18.5949 39.4488 17.4884 38.5165C17.1924 38.2672 16.9058 38.0048 16.6259 37.7293C15.3761 36.4953 14.3977 35.0953 13.6898 33.6007H27.422C28.5892 33.6007 29.5353 34.5349 29.5353 35.6866Z" fill="#DD9F3A"/>
<path d="M29.5352 27.286V31.5121C29.5352 32.6646 28.5891 33.5989 27.4219 33.5989H15.1112C13.8615 30.9611 13.4553 28.0291 13.8937 25.2001H27.4219C28.5891 25.2001 29.5352 26.1344 29.5352 27.286Z" fill="#DD9F3A"/>
<path d="M29.535 2.08602V6.31208C29.535 7.46462 28.5889 8.39886 27.4217 8.39886H2.11329C0.946107 8.39895 0 7.46471 0 6.31217V2.08602C0 0.934365 0.946107 0.00012207 2.11329 0.00012207H27.4217C28.5889 0.000211173 29.535 0.934454 29.535 2.08602Z" fill="#DD9F3A"/>
<path d="M29.535 2.0859V5.00009C29.535 6.0777 28.7075 6.96508 27.6456 7.07566C27.5716 7.08314 27.4976 7.08688 27.4217 7.08688H7.31441C6.14813 7.08688 5.20203 6.15264 5.20203 5.00009V2.0859C5.20203 0.934243 6.14813 0 7.31441 0H27.4217C28.5889 8.91028e-05 29.535 0.934332 29.535 2.0859Z" fill="#F4B74A"/>
<path d="M26.0608 0H22.9615V7.08688H26.0608V0Z" fill="#F9C662"/>
<path d="M20.6842 0H19.1346V7.08688H20.6842V0Z" fill="#F9C662"/>
<path d="M29.7943 8.40005H26.6947V16.7998H29.7943V8.40005Z" fill="#F9C662"/>
<path d="M24.417 8.40005H22.8672V16.7998H24.417V8.40005Z" fill="#F9C662"/>
<path d="M33.3309 13.3474V14.7128C33.3309 15.8653 32.3848 16.7996 31.2176 16.7996H19.3168C23.1781 13.2049 28.5207 12.0543 33.3309 13.3474Z" fill="#DD9F3A"/>
<path d="M29.5349 18.8864V23.1124C29.5349 24.265 28.5888 25.1992 27.4216 25.1992H12.47C12.9283 22.2363 14.3138 19.3867 16.6244 17.105C16.7297 17.0011 16.836 16.8998 16.9433 16.8005H27.4216C28.5888 16.8005 29.5349 17.7347 29.5349 18.8864Z" fill="#DD9F3A"/>
<path d="M41.8752 37.729C37.4332 42.1149 30.8665 43.1232 25.4475 40.7524C24.1712 40.1947 22.9597 39.4494 21.8538 38.5168C21.5577 38.2677 21.2704 38.0046 20.9906 37.729C15.2239 32.0334 15.2239 22.8001 20.9906 17.1046C26.758 11.4097 36.1078 11.4097 41.8752 17.1046C42.155 17.3809 42.4207 17.6646 42.673 17.9571C43.6174 19.0484 44.372 20.2455 44.9368 21.506C47.3375 26.8568 46.3165 33.3424 41.8752 37.729Z" fill="#F4B74A"/>
<path d="M44.9369 21.5061L25.4477 40.7525C24.1714 40.1948 22.9599 39.4495 21.854 38.5169L42.6731 17.9572C43.6175 19.0485 44.3721 20.2457 44.9369 21.5061Z" fill="#F9C662"/>
<path d="M41.875 27.4171C41.875 33.1123 37.1998 37.7292 31.4328 37.7292C28.1774 37.7292 25.2704 36.2586 23.355 33.9527C21.877 32.1737 20.9906 29.8975 20.9906 27.4171C20.9906 21.7219 25.6658 17.105 31.4328 17.105C33.9451 17.105 36.2501 17.9816 38.0514 19.4413C40.3858 21.332 41.875 24.203 41.875 27.4171Z" fill="#FFD488"/>
<path d="M38.0515 19.441L23.3564 33.953L23.355 33.9524C22.9236 33.4334 22.5426 32.8715 22.22 32.2748C21.8521 31.5967 21.5595 30.874 21.352 30.1157C21.1164 29.2553 20.9906 28.3503 20.9906 27.4168C20.9906 21.7216 25.6658 17.1048 31.4328 17.1048C32.3787 17.1048 33.2951 17.2288 34.1657 17.4616C34.9336 17.6666 35.6654 17.9562 36.3521 18.3195C36.9564 18.6382 37.5253 19.0151 38.0515 19.441Z" fill="#F9C662"/>
<path d="M36.352 18.3194L22.2199 32.2749C21.852 31.5967 21.5595 30.8741 21.3519 30.1157L34.1658 17.4616C34.9335 17.6665 35.6654 17.9561 36.352 18.3194Z" fill="#FFD488"/>
<path d="M32.1445 26.7698V22.8992C33.1822 23.138 33.9415 23.8844 33.9415 24.7663C33.9415 25.1545 34.26 25.4691 34.6532 25.4691C35.0463 25.4691 35.3649 25.1545 35.3649 24.7663C35.3649 23.1246 33.9739 21.7558 32.1444 21.4693V21.0559C32.1444 20.6678 31.8259 20.3531 31.4327 20.3531C31.0396 20.3531 30.721 20.6678 30.721 21.0559V21.4693C28.8915 21.7559 27.5005 23.1247 27.5005 24.7663C27.5005 26.4079 28.8915 27.7768 30.721 28.0633V31.9339C29.6833 31.6951 28.9239 30.9487 28.9239 30.0668C28.9239 29.6786 28.6054 29.3639 28.2123 29.3639C27.8191 29.3639 27.5006 29.6786 27.5006 30.0668C27.5006 31.7084 28.8916 33.0772 30.7211 33.3637V33.7771C30.7211 34.1653 31.0397 34.4799 31.4328 34.4799C31.826 34.4799 32.1445 34.1653 32.1445 33.7771V33.3637C33.974 33.0772 35.3649 31.7083 35.3649 30.0668C35.3649 28.4252 33.974 27.0563 32.1445 26.7698ZM28.924 24.7662C28.924 23.8843 29.6833 23.1379 30.7211 22.8991V26.6333C29.6834 26.3946 28.924 25.6481 28.924 24.7662ZM32.1445 31.9339V28.1996C33.1822 28.4384 33.9415 29.1848 33.9415 30.0668C33.9415 30.9487 33.1822 31.6951 32.1445 31.9339Z" fill="#A4772D"/>
<path d="M31.4329 38.432C28.079 38.432 24.9342 36.9619 22.8048 34.3983C21.176 32.438 20.2789 29.9586 20.2789 27.417C20.2789 21.3434 25.2826 16.402 31.4329 16.402C34.0058 16.402 36.5167 17.2884 38.503 18.8977C41.0983 21 42.5868 24.1052 42.5868 27.4169C42.5867 33.4907 37.5832 38.432 31.4329 38.432ZM31.4329 17.8077C26.0675 17.8077 21.7024 22.1184 21.7024 27.417C21.7024 29.6342 22.4847 31.797 23.9053 33.5067C25.7632 35.7435 28.5069 37.0263 31.4329 37.0263C36.7982 37.0263 41.1633 32.7156 41.1633 27.417C41.1633 24.5279 39.8646 21.8189 37.6001 19.9846C35.8678 18.5808 33.6775 17.8077 31.4329 17.8077Z" fill="#E0A33F"/>
</svg>
