<svg width="88" height="75" viewBox="0 0 88 75" fill="none" xmlns="http://www.w3.org/2000/svg">
<path d="M50.8331 15.7927C50.6142 15.7928 50.3974 15.7498 50.1952 15.6661C49.993 15.5824 49.8092 15.4597 49.6544 15.305C49.4996 15.1503 49.3768 14.9666 49.293 14.7644C49.2092 14.5622 49.1661 14.3455 49.1661 14.1266V11.0792C49.1737 10.5929 49.0845 10.11 48.9037 9.65848C48.7229 9.20699 48.4541 8.79598 48.1129 8.44939C47.7717 8.10279 47.365 7.82754 46.9164 7.63966C46.4678 7.45178 45.9863 7.35502 45.4999 7.35502C45.0136 7.35502 44.5321 7.45178 44.0835 7.63966C43.6349 7.82754 43.2281 8.10279 42.8869 8.44939C42.5458 8.79598 42.2769 9.20699 42.0961 9.65848C41.9153 10.11 41.8261 10.5929 41.8337 11.0792V14.1266C41.8236 14.5619 41.6436 14.9759 41.3321 15.2802C41.0207 15.5844 40.6026 15.7548 40.1672 15.7548C39.7318 15.7548 39.3137 15.5844 39.0023 15.2802C38.6909 14.9759 38.5108 14.5619 38.5007 14.1266V11.0792C38.4902 10.1534 38.6634 9.23464 39.0105 8.37623C39.3575 7.51782 39.8714 6.73678 40.5224 6.07836C41.1733 5.41994 41.9485 4.89721 42.8029 4.54045C43.6573 4.1837 44.574 4 45.4999 4C46.4258 4 47.3425 4.1837 48.1969 4.54045C49.0514 4.89721 49.8265 5.41994 50.4775 6.07836C51.1285 6.73678 51.6423 7.51782 51.9894 8.37623C52.3364 9.23464 52.5097 10.1534 52.4991 11.0792V14.1266C52.4991 14.5685 52.3236 14.9922 52.0112 15.3047C51.6987 15.6171 51.2749 15.7927 50.8331 15.7927Z" fill="#CE2489"/>
<path d="M28.6644 27.9145C27.1741 28.5329 25.8882 29.5586 24.954 30.8742C24.0198 32.1897 23.4751 33.7418 23.3823 35.3526L23.0099 41.8008C22.9631 42.6133 23.0827 43.4268 23.3614 44.1914C23.6401 44.956 24.072 45.6557 24.6306 46.2476C25.1892 46.8394 25.8627 47.311 26.61 47.6334C27.3572 47.9558 28.1624 48.1222 28.9763 48.1225H33.0253L28.6644 27.9145Z" fill="#21B85C"/>
<path d="M62.3355 27.9145C63.8258 28.5329 65.1117 29.5586 66.0459 30.8742C66.9801 32.1897 67.5248 33.7418 67.6176 35.3526L67.99 41.8008C68.0368 42.6133 67.9172 43.4268 67.6385 44.1914C67.3598 44.956 66.9279 45.6557 66.3693 46.2476C65.8107 46.8394 65.1372 47.311 64.3899 47.6334C63.6427 47.9558 62.8375 48.1222 62.0236 48.1225H57.9746L62.3355 27.9145Z" fill="#21B85C"/>
<path d="M40.167 15.7925C40.609 15.7925 41.0329 15.617 41.3455 15.3045C41.6581 14.9921 41.8338 14.5683 41.834 14.1264V11.079C41.8327 10.2193 42.1353 9.38681 42.6883 8.72861C41.3671 8.7946 40.0526 8.95685 38.755 9.21406C38.5865 9.82107 38.501 10.4481 38.501 11.0781V14.1255C38.5009 14.3444 38.5439 14.5611 38.6275 14.7633C38.7112 14.9656 38.8339 15.1494 38.9886 15.3042C39.1434 15.459 39.3271 15.5818 39.5293 15.6656C39.7315 15.7493 39.9482 15.7925 40.167 15.7925Z" fill="#AA1A77"/>
<path d="M49.1663 11.0792V14.1266C49.1764 14.5619 49.3565 14.9759 49.6679 15.2802C49.9793 15.5844 50.3974 15.7548 50.8328 15.7548C51.2682 15.7548 51.6863 15.5844 51.9977 15.2802C52.3092 14.9759 52.4892 14.5619 52.4993 14.1266V11.0792C52.4993 10.4493 52.4138 9.8222 52.2453 9.21518C50.9478 8.95759 49.6332 8.79534 48.312 8.72974C48.8645 9.3879 49.167 10.2199 49.1663 11.0792Z" fill="#AA1A77"/>
<path d="M63.0371 43.6585C63.0371 14.8878 58.6419 10.9834 45.4995 10.9834C32.3572 10.9834 27.9619 14.8878 27.9619 43.6585H63.0371Z" fill="#F7CB52"/>
<path d="M63.0372 43.6584C63.0372 38.4993 62.8953 34.1393 62.5852 30.46C61.1298 28.4279 59.019 26.8874 56.307 25.8831C53.4612 24.8299 49.9256 24.3183 45.4969 24.3183C41.0682 24.3183 37.5327 24.8299 34.6878 25.8831C31.9758 26.8874 29.8641 28.4279 28.4095 30.46C28.1013 34.1402 27.9575 38.5002 27.9575 43.6584H63.0372Z" fill="#F4C223"/>
<path d="M45.4995 26.6451C28.2892 26.6451 27.9619 34.857 27.9619 43.6584C27.9619 49.378 35.3747 50.3706 40.5582 50.3642C43.8524 50.3606 47.1463 50.3606 50.4399 50.3642C55.627 50.3706 63.0362 49.378 63.0362 43.6584C63.0371 34.8579 62.7108 26.6451 45.4995 26.6451Z" fill="#EC5858"/>
<path d="M39.666 26.5087L38.2196 32.1867C38.2196 32.1867 37.9123 33.8555 38.2196 37.1949C38.2196 37.1949 44.6642 39.1927 54.4256 37.1949C54.4256 37.1949 55.222 28.1494 52.0526 24.2613C48.8832 20.3732 39.666 26.5087 39.666 26.5087Z" fill="#75B1C9"/>
<path d="M39.6943 26.4933C39.4104 26.5837 38.3708 31.6913 38.3708 31.6913C52.9352 30.2394 50.8533 25.9617 50.8533 25.9617C50.8533 25.9617 39.9782 26.3983 39.6943 26.4933Z" fill="#FFD3AE"/>
<path d="M38.6215 20.0517C39.4259 19.7185 39.8079 18.7963 39.4747 17.9919C39.1415 17.1874 38.2193 16.8054 37.4148 17.1386C36.6104 17.4718 36.2284 18.3941 36.5616 19.1985C36.8948 20.0029 37.817 20.385 38.6215 20.0517Z" fill="#FFE0C2"/>
<path d="M39.5606 18.8849C39.7212 18.2047 39.2999 17.523 38.6196 17.3625C37.9393 17.2019 37.2577 17.6232 37.0971 18.3035C36.9366 18.9838 37.3579 19.6654 38.0382 19.826C38.7184 19.9865 39.4001 19.5652 39.5606 18.8849Z" fill="#FFD3AE"/>
<path d="M54.9791 20.0512C55.7836 19.718 56.1656 18.7957 55.8324 17.9913C55.4992 17.1868 54.5769 16.8048 53.7725 17.138C52.968 17.4712 52.586 18.3935 52.9192 19.1979C53.2525 20.0024 54.1747 20.3844 54.9791 20.0512Z" fill="#FFE0C2"/>
<path d="M54.9606 19.4893C55.4549 18.995 55.4549 18.1937 54.9606 17.6994C54.4664 17.2052 53.665 17.2052 53.1708 17.6994C52.6765 18.1937 52.6765 18.995 53.1708 19.4893C53.665 19.9835 54.4664 19.9835 54.9606 19.4893Z" fill="#FFD3AE"/>
<path d="M38.0184 19.7449C38.0184 19.7449 36.7139 12.4668 45.4755 12.4668C54.237 12.4668 54.6059 19.7449 54.6059 19.7449C54.6059 19.7449 55.189 24.7232 46.2764 24.7232C37.3639 24.7232 38.0184 19.7449 38.0184 19.7449Z" fill="#FFE0C2"/>
<path d="M41.7192 17.6161C42.0597 17.616 42.3955 17.6953 42.7001 17.8475C42.746 17.652 42.7688 17.4517 42.7679 17.2509C42.7679 16.5087 42.4759 15.9075 42.1161 15.9075C41.7563 15.9075 41.4634 16.5087 41.4634 17.2509C41.4632 17.377 41.4719 17.503 41.4896 17.6278C41.5655 17.6206 41.6424 17.6161 41.7192 17.6161Z" fill="#634E42"/>
<path d="M50.411 17.6161C50.0707 17.6159 49.7352 17.6951 49.431 17.8475C49.3848 17.652 49.3617 17.4518 49.3623 17.2509C49.3623 16.5087 49.6543 15.9075 50.015 15.9075C50.3757 15.9075 50.6668 16.5087 50.6668 17.2509C50.667 17.377 50.6583 17.503 50.6406 17.6278C50.5646 17.6206 50.4887 17.6161 50.411 17.6161Z" fill="#634E42"/>
<path d="M37.9494 16.7355C37.9494 16.7355 37.925 17.5491 38.4846 17.4804C39.0442 17.4117 39.1599 16.5954 39.1599 16.5954C39.1599 16.5954 39.7927 16.4327 39.7927 15.8035C39.7927 15.8035 40.9344 14.1257 39.0008 14.0552C39.0008 14.0552 37.3229 13.4224 37.6023 15.3841C37.5987 15.3795 36.4126 16.3812 37.9494 16.7355Z" fill="#EFEFEF"/>
<path d="M54.1327 16.7355C54.1327 16.7355 54.1571 17.5491 53.5984 17.4804C53.0398 17.4117 52.9223 16.5909 52.9223 16.5909C52.9223 16.5909 52.2895 16.4282 52.2895 15.799C52.2895 15.799 51.1477 14.1212 53.0823 14.0507C53.0823 14.0507 54.7592 13.4179 54.4798 15.3795C54.4835 15.3795 55.6695 16.3812 54.1327 16.7355Z" fill="#EFEFEF"/>
<path d="M46.34 19.0217V30.5748L46.1592 30.61L45.9784 30.5748C45.0907 30.394 42.8949 29.8037 42.7746 28.4666C42.7746 28.4666 39.4226 28.1249 39.2988 26.4471C39.2988 26.4471 36.0046 24.7069 37.4654 22.1902C37.4654 22.1902 37.3407 17.3755 38.3351 16.5366L38.4598 17.0184C38.4598 17.0184 40.1684 18.2144 39.9189 19.5803C39.9189 19.5803 41.7838 19.2395 42.4673 20.5449C42.4673 20.5449 44.1451 18.727 45.2941 18.7812C45.5864 18.7852 45.8774 18.8213 46.1619 18.8888C46.3753 18.9548 46.34 19.0217 46.34 19.0217Z" fill="#EFEFEF"/>
<path d="M53.0209 26.4471C52.897 28.1249 49.545 28.4666 49.545 28.4666C49.4238 29.8037 47.2289 30.3904 46.3403 30.5748L46.1595 30.61L45.9787 30.5748V19.0217C45.9787 19.0217 45.9434 18.9548 46.1595 18.8888C46.444 18.8213 46.735 18.7853 47.0273 18.7812C48.1745 18.7242 49.8487 20.5449 49.8487 20.5449C50.5321 19.2395 52.3962 19.5803 52.3962 19.5803C52.1485 18.2144 53.8571 17.0184 53.8571 17.0184L53.9818 16.5366C54.9762 17.3755 54.8515 22.1902 54.8515 22.1902C56.3141 24.7069 53.0209 26.4471 53.0209 26.4471Z" fill="#EFEFEF"/>
<path d="M47.8601 18.0916C47.794 18.0917 47.7281 18.0975 47.663 18.1088C47.4017 17.8096 46.9064 17.6062 46.3377 17.6062C45.7691 17.6062 45.2728 17.8096 45.0116 18.1088C44.9468 18.0975 44.8812 18.0917 44.8154 18.0916C44.3878 18.0916 44.0425 18.3167 44.0425 18.5933C44.0425 18.87 44.3878 19.0942 44.8154 19.0942C44.8812 19.0941 44.9468 19.0883 45.0116 19.077C45.2728 19.3771 45.7682 19.5796 46.3377 19.5796C46.9073 19.5796 47.4017 19.3771 47.663 19.077C47.7281 19.0883 47.794 19.0941 47.8601 19.0942C48.2868 19.0942 48.633 18.87 48.633 18.5933C48.633 18.3167 48.2904 18.0916 47.8601 18.0916Z" fill="#FFD3AE"/>
<path d="M48.6628 14.1474C48.6628 14.1474 48.228 12.7679 49.6852 12.3819C51.1425 11.9959 51.4932 13.6104 51.4932 13.6104C51.4932 13.6104 50.4925 12.9143 49.866 13.0807C49.2395 13.247 49.0605 13.4016 48.6628 14.1474Z" fill="#EFEFEF"/>
<path d="M40.5376 13.4813C40.5376 13.4813 40.703 12.044 42.191 12.2844C43.679 12.5249 43.3445 14.1439 43.3445 14.1439C43.3445 14.1439 42.7117 13.1016 42.0735 12.9977C41.4353 12.8937 41.2047 12.9651 40.5376 13.4813Z" fill="#EFEFEF"/>
<path d="M36.7553 29.1889C36.7553 29.1889 33.6817 27.0753 35.5575 23.8182C35.5575 23.8182 34.6535 21.419 35.2673 20.92C35.8811 20.421 37.5074 21.2382 37.5074 21.2382C37.5074 21.2382 37.3266 20.5566 38.3608 20.581C39.395 20.6054 37.3357 24.7032 39.7638 26.7282C41.4037 28.0932 38.8535 30.4617 36.7553 29.1889Z" fill="#FFE0C2"/>
<path d="M50.4442 47.0314C48.7965 47.0314 47.1482 47.0314 45.4993 47.0314H40.5544H40.511C37.5947 47.0314 35.1693 46.6896 33.496 46.0415C31.2957 45.1899 31.2957 44.1937 31.2957 43.6585C31.2957 39.4215 31.4213 36.0035 32.997 33.7778C34.805 31.2213 38.8974 29.981 45.4993 29.981C52.1012 29.981 56.1918 31.224 58.0016 33.7778C59.5782 36.0035 59.702 39.426 59.702 43.6585C59.702 44.1937 59.702 45.1899 57.5017 46.0415C55.8293 46.6887 53.4039 47.0314 50.4876 47.0314H50.4442Z" fill="#21BAAF"/>
<path d="M56.1352 30.0243C56.1352 30.0243 56.7165 33.7108 53.0616 34.5886C53.0616 34.5886 51.9407 36.8938 51.1578 36.7934C50.375 36.6931 49.847 34.9493 49.847 34.9493C49.847 34.9493 49.48 35.5531 48.783 34.782C48.086 34.0109 52.9559 30.78 53.2723 28.1268C53.5887 25.4735 55.7248 27.1821 56.1352 30.0243Z" fill="#FFE0C2"/>
<path d="M38.4861 40.5838C38.3008 40.5838 38.1231 40.5102 37.992 40.3791C37.861 40.2481 37.7874 40.0703 37.7874 39.885V38.6122C37.8001 38.436 37.879 38.2711 38.0083 38.1508C38.1376 38.0305 38.3077 37.9636 38.4843 37.9636C38.661 37.9636 38.8311 38.0305 38.9604 38.1508C39.0897 38.2711 39.1686 38.436 39.1813 38.6122V39.8778C39.1823 39.9698 39.165 40.0612 39.1306 40.1466C39.0961 40.2319 39.0451 40.3097 38.9805 40.3753C38.9159 40.4409 38.839 40.4931 38.7541 40.5289C38.6693 40.5646 38.5782 40.5833 38.4861 40.5838Z" fill="#3A484A"/>
<path d="M52.5136 40.5838C52.3284 40.5836 52.1509 40.5099 52.02 40.3788C51.8892 40.2478 51.8157 40.0702 51.8157 39.885V38.6122C51.8222 38.4313 51.8986 38.2601 52.0289 38.1344C52.1591 38.0088 52.333 37.9385 52.514 37.9385C52.695 37.9385 52.8689 38.0088 52.9992 38.1344C53.1294 38.2601 53.2058 38.4313 53.2124 38.6122V39.8778C53.2133 39.9702 53.1959 40.0618 53.1613 40.1474C53.1266 40.2331 53.0752 40.3109 53.0103 40.3766C52.9453 40.4423 52.8679 40.4944 52.7827 40.5299C52.6974 40.5655 52.6059 40.5838 52.5136 40.5838Z" fill="#3A484A"/>
<path d="M45.4997 41.261C45.0731 41.2649 44.6506 41.1773 44.2607 41.004C43.8708 40.8308 43.5227 40.5759 43.2397 40.2566C43.1792 40.1874 43.1329 40.1068 43.1036 40.0197C43.0742 39.9326 43.0623 39.8405 43.0685 39.7487C43.0747 39.657 43.0989 39.5674 43.1398 39.485C43.1806 39.4026 43.2373 39.329 43.3066 39.2686C43.3758 39.2081 43.4564 39.1618 43.5435 39.1324C43.6306 39.1031 43.7227 39.0912 43.8145 39.0974C43.9062 39.1036 43.9958 39.1278 44.0782 39.1686C44.1606 39.2095 44.2342 39.2662 44.2947 39.3354C44.4484 39.5016 44.6349 39.6342 44.8423 39.7248C45.0498 39.8155 45.2737 39.8623 45.5001 39.8623C45.7265 39.8623 45.9505 39.8155 46.1579 39.7248C46.3654 39.6342 46.5518 39.5016 46.7056 39.3354C46.8275 39.196 46.9998 39.1108 47.1846 39.0984C47.3694 39.086 47.5516 39.1475 47.691 39.2695C47.8304 39.3914 47.9157 39.5637 47.928 39.7485C47.9404 39.9333 47.8789 40.1154 47.757 40.2548C47.4743 40.5738 47.1266 40.8287 46.7372 41.0022C46.3479 41.1758 45.9259 41.264 45.4997 41.261Z" fill="#3A484A"/>
<path d="M5.56327 72.072C4.93327 72.072 4.36327 71.934 3.85327 71.658C3.34927 71.376 2.95327 70.992 2.66527 70.506C2.37727 70.014 2.23327 69.462 2.23327 68.85C2.23327 68.238 2.37727 67.689 2.66527 67.203C2.95327 66.711 3.35227 66.327 3.86227 66.051C4.37227 65.769 4.94227 65.628 5.57227 65.628C6.06427 65.628 6.51427 65.712 6.92227 65.88C7.33027 66.042 7.67827 66.285 7.96627 66.609L7.38127 67.176C6.90727 66.678 6.31627 66.429 5.60827 66.429C5.14027 66.429 4.71727 66.534 4.33927 66.744C3.96127 66.954 3.66427 67.245 3.44827 67.617C3.23827 67.983 3.13327 68.394 3.13327 68.85C3.13327 69.306 3.23827 69.72 3.44827 70.092C3.66427 70.458 3.96127 70.746 4.33927 70.956C4.71727 71.166 5.14027 71.271 5.60827 71.271C6.31027 71.271 6.90127 71.019 7.38127 70.515L7.96627 71.082C7.67827 71.406 7.32727 71.652 6.91327 71.82C6.50527 71.988 6.05527 72.072 5.56327 72.072ZM13.4623 72.072C12.8263 72.072 12.2533 71.934 11.7433 71.658C11.2333 71.376 10.8313 70.989 10.5373 70.497C10.2493 70.005 10.1053 69.456 10.1053 68.85C10.1053 68.244 10.2493 67.695 10.5373 67.203C10.8313 66.711 11.2333 66.327 11.7433 66.051C12.2533 65.769 12.8263 65.628 13.4623 65.628C14.0923 65.628 14.6623 65.769 15.1723 66.051C15.6823 66.327 16.0813 66.711 16.3693 67.203C16.6573 67.689 16.8013 68.238 16.8013 68.85C16.8013 69.462 16.6573 70.014 16.3693 70.506C16.0813 70.992 15.6823 71.376 15.1723 71.658C14.6623 71.934 14.0923 72.072 13.4623 72.072ZM13.4623 71.271C13.9243 71.271 14.3383 71.166 14.7043 70.956C15.0763 70.746 15.3673 70.458 15.5773 70.092C15.7933 69.72 15.9013 69.306 15.9013 68.85C15.9013 68.394 15.7933 67.983 15.5773 67.617C15.3673 67.245 15.0763 66.954 14.7043 66.744C14.3383 66.534 13.9243 66.429 13.4623 66.429C13.0003 66.429 12.5803 66.534 12.2023 66.744C11.8303 66.954 11.5363 67.245 11.3203 67.617C11.1103 67.983 11.0053 68.394 11.0053 68.85C11.0053 69.306 11.1103 69.72 11.3203 70.092C11.5363 70.458 11.8303 70.746 12.2023 70.956C12.5803 71.166 13.0003 71.271 13.4623 71.271ZM19.6769 65.7H20.5769V71.217H23.9879V72H19.6769V65.7ZM26.5207 65.7H27.4207V71.217H30.8317V72H26.5207V65.7ZM37.9364 71.217V72H33.3644V65.7H37.8104V66.483H34.2644V68.418H37.4234V69.183H34.2644V71.217H37.9364ZM43.6844 72.072C43.0544 72.072 42.4844 71.934 41.9744 71.658C41.4704 71.376 41.0744 70.992 40.7864 70.506C40.4984 70.014 40.3544 69.462 40.3544 68.85C40.3544 68.238 40.4984 67.689 40.7864 67.203C41.0744 66.711 41.4734 66.327 41.9834 66.051C42.4934 65.769 43.0634 65.628 43.6934 65.628C44.1854 65.628 44.6354 65.712 45.0434 65.88C45.4514 66.042 45.7994 66.285 46.0874 66.609L45.5024 67.176C45.0284 66.678 44.4374 66.429 43.7294 66.429C43.2614 66.429 42.8384 66.534 42.4604 66.744C42.0824 66.954 41.7854 67.245 41.5694 67.617C41.3594 67.983 41.2544 68.394 41.2544 68.85C41.2544 69.306 41.3594 69.72 41.5694 70.092C41.7854 70.458 42.0824 70.746 42.4604 70.956C42.8384 71.166 43.2614 71.271 43.7294 71.271C44.4314 71.271 45.0224 71.019 45.5024 70.515L46.0874 71.082C45.7994 71.406 45.4484 71.652 45.0344 71.82C44.6264 71.988 44.1764 72.072 43.6844 72.072ZM50.052 66.483H47.892V65.7H53.103V66.483H50.943V72H50.052V66.483ZM55.5832 65.7H56.4832V72H55.5832V65.7ZM64.1083 68.733C64.4743 68.835 64.7623 69.021 64.9723 69.291C65.1823 69.555 65.2873 69.891 65.2873 70.299C65.2873 70.845 65.0803 71.265 64.6663 71.559C64.2583 71.853 63.6613 72 62.8753 72H59.8693V65.7H62.6953C63.4153 65.7 63.9703 65.844 64.3603 66.132C64.7563 66.42 64.9543 66.819 64.9543 67.329C64.9543 67.659 64.8763 67.944 64.7203 68.184C64.5703 68.424 64.3663 68.607 64.1083 68.733ZM60.7693 66.429V68.445H62.6143C63.0763 68.445 63.4303 68.361 63.6763 68.193C63.9283 68.019 64.0543 67.767 64.0543 67.437C64.0543 67.107 63.9283 66.858 63.6763 66.69C63.4303 66.516 63.0763 66.429 62.6143 66.429H60.7693ZM62.8393 71.271C63.3493 71.271 63.7333 71.187 63.9913 71.019C64.2493 70.851 64.3783 70.587 64.3783 70.227C64.3783 69.525 63.8653 69.174 62.8393 69.174H60.7693V71.271H62.8393ZM68.1808 65.7H69.0808V71.217H72.4918V72H68.1808V65.7ZM79.5966 71.217V72H75.0246V65.7H79.4706V66.483H75.9246V68.418H79.0836V69.183H75.9246V71.217H79.5966ZM84.3899 72.072C83.9159 72.072 83.4569 72 83.0129 71.856C82.5749 71.706 82.2299 71.514 81.9779 71.28L82.3109 70.578C82.5509 70.794 82.8569 70.971 83.2289 71.109C83.6069 71.241 83.9939 71.307 84.3899 71.307C84.9119 71.307 85.3019 71.22 85.5599 71.046C85.8179 70.866 85.9469 70.629 85.9469 70.335C85.9469 70.119 85.8749 69.945 85.7309 69.813C85.5929 69.675 85.4189 69.57 85.2089 69.498C85.0049 69.426 84.7139 69.345 84.3359 69.255C83.8619 69.141 83.4779 69.027 83.1839 68.913C82.8959 68.799 82.6469 68.625 82.4369 68.391C82.2329 68.151 82.1309 67.83 82.1309 67.428C82.1309 67.092 82.2179 66.789 82.3919 66.519C82.5719 66.249 82.8419 66.033 83.2019 65.871C83.5619 65.709 84.0089 65.628 84.5429 65.628C84.9149 65.628 85.2809 65.676 85.6409 65.772C86.0009 65.868 86.3099 66.006 86.5679 66.186L86.2709 66.906C86.0069 66.738 85.7249 66.612 85.4249 66.528C85.1249 66.438 84.8309 66.393 84.5429 66.393C84.0329 66.393 83.6489 66.486 83.3909 66.672C83.1389 66.858 83.0129 67.098 83.0129 67.392C83.0129 67.608 83.0849 67.785 83.2289 67.923C83.3729 68.055 83.5499 68.16 83.7599 68.238C83.9759 68.31 84.2669 68.388 84.6329 68.472C85.1069 68.586 85.4879 68.7 85.7759 68.814C86.0639 68.928 86.3099 69.102 86.5139 69.336C86.7239 69.57 86.8289 69.885 86.8289 70.281C86.8289 70.611 86.7389 70.914 86.5589 71.19C86.3789 71.46 86.1059 71.676 85.7399 71.838C85.3739 71.994 84.9239 72.072 84.3899 72.072Z" fill="black"/>
</svg>
