<svg width="236" height="158" viewBox="0 0 236 158" fill="none" xmlns="http://www.w3.org/2000/svg">
<path d="M73.44 21.1446L29.7676 21.1446L31.9403 7.59502C32.6423 3.21881 36.4181 1.52588e-05 40.85 1.52588e-05L62.3571 1.52588e-05C66.7889 1.52588e-05 70.5653 3.21881 71.2668 7.59502L73.44 21.1446Z" fill="#7F9AE6"/>
<path opacity="0.2" d="M52.4374 -1.52588e-05L40.8508 -1.52588e-05C36.4189 -1.52588e-05 32.6425 3.21878 31.941 7.59499L29.7683 21.1446L64.1823 21.1446C52.0349 15.9707 47.7272 8.82326 52.4374 -1.52588e-05Z" fill="#254A74"/>
<path d="M162.092 21.1445L205.765 21.1445L203.592 7.59498C202.89 3.21876 199.114 -3.05176e-05 194.682 -3.05176e-05L173.175 -3.05176e-05C168.743 -3.05176e-05 164.967 3.21876 164.265 7.59498L162.092 21.1445Z" fill="#7F9AE6"/>
<path opacity="0.2" d="M184.762 -4.57764e-05L173.175 -4.57764e-05C168.743 -4.57764e-05 164.967 3.21875 164.265 7.59496L162.093 21.1445L196.506 21.1445C184.359 15.9706 180.051 8.82323 184.762 -4.57764e-05Z" fill="#254A74"/>
<path d="M235.146 123.224L221.946 41.5409C219.324 25.3113 205.312 13.3819 188.872 13.3819H176.392C168.749 13.3819 161.267 15.5767 154.836 19.7054L151.866 21.6117C146.945 24.7707 141.221 26.4503 135.373 26.4503H100.157C94.3093 26.4503 88.5848 24.7707 83.6639 21.6117L80.6945 19.7054C74.2629 15.5767 66.781 13.3819 59.1382 13.3819L46.6582 13.3819C30.2179 13.3819 16.2064 25.3108 13.5838 41.5409L0.386206 123.224C-2.52391 141.234 11.3822 157.567 29.6258 157.567C43.9956 157.567 56.2925 147.253 58.7927 133.102L66.2028 91.1665L169.33 91.1665L176.74 133.102C179.24 147.253 191.537 157.567 205.907 157.567C224.15 157.568 238.056 141.234 235.146 123.224Z" fill="#6B7BAB"/>
<path d="M92.4971 58.6039C97.6465 58.6039 101.821 55.2797 101.821 51.1791C101.821 47.0785 97.6465 43.7543 92.4971 43.7543C87.3477 43.7543 83.1733 47.0785 83.1733 51.1791C83.1733 55.2797 87.3477 58.6039 92.4971 58.6039Z" fill="#E38892"/>
<path d="M143.035 58.6039C148.185 58.6039 152.359 55.2798 152.359 51.1792C152.359 47.0786 148.185 43.7544 143.035 43.7544C137.886 43.7544 133.711 47.0786 133.711 51.1792C133.711 55.2798 137.886 58.6039 143.035 58.6039Z" fill="#E38892"/>
<path d="M97.9311 47.2189C96.0257 47.2189 94.481 45.6746 94.481 43.7687V40.4767C94.481 38.5709 96.0257 37.0266 97.9311 37.0266C99.8366 37.0266 101.381 38.5709 101.381 40.4767V43.7687C101.381 45.6741 99.8366 47.2189 97.9311 47.2189Z" fill="#495059"/>
<path d="M137.601 47.2189C135.696 47.2189 134.151 45.6746 134.151 43.7688V40.4768C134.151 38.5709 135.696 37.0266 137.601 37.0266C139.506 37.0266 141.051 38.5709 141.051 40.4768V43.7688C141.051 45.6742 139.506 47.2189 137.601 47.2189Z" fill="#495059"/>
<path d="M117.766 49.7464C114.765 49.7464 111.911 48.4468 109.936 46.1807C108.684 44.7441 108.834 42.565 110.27 41.3128C111.706 40.0611 113.886 40.211 115.138 41.6472C115.802 42.409 116.76 42.846 117.766 42.846C118.772 42.846 119.73 42.409 120.394 41.6472C121.646 40.2106 123.825 40.0611 125.262 41.3128C126.699 42.565 126.848 44.7441 125.596 46.1807C123.622 48.4468 120.768 49.7464 117.766 49.7464Z" fill="#495059"/>
<path opacity="0.2" d="M88.836 24.2684C87.04 23.5512 85.3071 22.6657 83.6653 21.6117L80.6959 19.7054C74.2643 15.5767 66.7824 13.3819 59.1396 13.3819L46.6596 13.3819C30.2192 13.3819 16.2078 25.3108 13.5852 41.5409L0.386206 123.224C-2.52391 141.234 11.3822 157.567 29.6258 157.567C43.9956 157.567 56.2925 147.253 58.7927 133.102L66.2028 91.1665H122.551C95.8095 73.3267 88.0006 41.3247 88.836 24.2684Z" fill="#254A74"/>
<path d="M83.2415 114.864C96.3284 114.864 106.937 104.255 106.937 91.1677C106.937 78.0809 96.3284 67.4719 83.2415 67.4719C70.1546 67.4719 59.5457 78.0809 59.5457 91.1677C59.5457 104.255 70.1546 114.864 83.2415 114.864Z" fill="#7F9AE6"/>
<path opacity="0.2" d="M104.17 102.277C70.3505 110.617 65.3422 78.9371 75.2084 68.8713C66.0764 72.1619 59.5464 80.901 59.5464 91.1669C59.5464 104.253 70.155 114.861 83.2409 114.861C92.3116 114.861 100.188 109.763 104.17 102.277Z" fill="#254A74"/>
<path d="M83.2413 103.794C90.2141 103.794 95.8667 98.1419 95.8667 91.1691C95.8667 84.1963 90.2141 78.5437 83.2413 78.5437C76.2685 78.5437 70.616 84.1963 70.616 91.1691C70.616 98.1419 76.2685 103.794 83.2413 103.794Z" fill="#BBE0F1"/>
<path d="M152.291 114.863C165.378 114.863 175.987 104.255 175.987 91.1677C175.987 78.0808 165.378 67.4718 152.291 67.4718C139.204 67.4718 128.595 78.0808 128.595 91.1677C128.595 104.255 139.204 114.863 152.291 114.863Z" fill="#7F9AE6"/>
<path opacity="0.2" d="M173.22 102.277C139.401 110.617 134.392 78.9371 144.258 68.8713C135.126 72.1619 128.596 80.9009 128.596 91.1669C128.596 104.253 139.205 114.861 152.291 114.861C161.362 114.861 169.238 109.763 173.22 102.277Z" fill="#254A74"/>
<path d="M152.291 103.794C159.264 103.794 164.916 98.1419 164.916 91.1691C164.916 84.1963 159.264 78.5438 152.291 78.5438C145.318 78.5438 139.666 84.1963 139.666 91.1691C139.666 98.1419 145.318 103.794 152.291 103.794Z" fill="#BBE0F1"/>
<path d="M189.42 44.5156C194.113 44.5156 197.919 40.7105 197.919 36.0166C197.919 31.3228 194.113 27.5177 189.42 27.5177C184.726 27.5177 180.921 31.3228 180.921 36.0166C180.921 40.7105 184.726 44.5156 189.42 44.5156Z" fill="#BBE0F1"/>
<path d="M189.42 71.5654C194.113 71.5654 197.919 67.7603 197.919 63.0664C197.919 58.3726 194.113 54.5675 189.42 54.5675C184.726 54.5675 180.921 58.3726 180.921 63.0664C180.921 67.7603 184.726 71.5654 189.42 71.5654Z" fill="#BBE0F1"/>
<path d="M202.944 58.0393C207.638 58.0393 211.443 54.2342 211.443 49.5404C211.443 44.8465 207.638 41.0414 202.944 41.0414C198.25 41.0414 194.445 44.8465 194.445 49.5404C194.445 54.2342 198.25 58.0393 202.944 58.0393Z" fill="#BBE0F1"/>
<path d="M175.895 58.0394C180.589 58.0394 184.394 54.2343 184.394 49.5405C184.394 44.8466 180.589 41.0415 175.895 41.0415C171.201 41.0415 167.396 44.8466 167.396 49.5405C167.396 54.2343 171.201 58.0394 175.895 58.0394Z" fill="#BBE0F1"/>
<path d="M46.1115 44.514C41.4179 44.514 37.6125 40.7091 37.6125 36.0151V32.5626C37.6125 29.7753 39.8717 27.5161 42.659 27.5161H49.564C52.3513 27.5161 54.6104 29.7753 54.6104 32.5626V36.0151C54.6104 40.7087 50.8056 44.514 46.1115 44.514Z" fill="#BBE0F1"/>
<path d="M41.0855 49.5391C41.0855 54.2327 37.2807 58.038 32.5866 58.038H29.1341C26.3468 58.038 24.0876 55.7789 24.0876 52.9916V46.0866C24.0876 43.2993 26.3468 41.0401 29.1341 41.0401H32.5866C37.2807 41.0401 41.0855 44.8455 41.0855 49.5391Z" fill="#BBE0F1"/>
<path d="M46.1115 54.5671C50.8051 54.5671 54.6104 58.372 54.6104 63.0661V66.5186C54.6104 69.3059 52.3513 71.565 49.564 71.565H42.659C39.8717 71.565 37.6125 69.3059 37.6125 66.5186V63.0661C37.6125 58.3725 41.4179 54.5671 46.1115 54.5671Z" fill="#BBE0F1"/>
<path d="M51.1384 49.5391C51.1384 44.8455 54.9437 41.0402 59.6374 41.0402H63.0898C65.8771 41.0402 68.1363 43.2994 68.1363 46.0866V52.9916C68.1363 55.7789 65.8771 58.0381 63.0898 58.0381H59.6374C54.9433 58.0381 51.1384 54.2332 51.1384 49.5391Z" fill="#BBE0F1"/>
</svg>
