<svg width="143" height="133" viewBox="0 0 143 133" fill="none" xmlns="http://www.w3.org/2000/svg">
<path d="M123.124 90.8709C131.142 90.8709 137.641 84.3711 137.641 76.3532C137.641 68.3353 131.142 61.8354 123.124 61.8354C115.106 61.8354 108.606 68.3353 108.606 76.3532C108.606 84.3711 115.106 90.8709 123.124 90.8709Z" fill="#FFBE9C"/>
<path d="M14.5177 90.3556C22.5356 90.3556 29.0354 83.8558 29.0354 75.8379C29.0354 67.82 22.5356 61.3202 14.5177 61.3202C6.4998 61.3202 0 67.82 0 75.8379C0 83.8558 6.4998 90.3556 14.5177 90.3556Z" fill="#FFBE9C"/>
<path d="M122.449 51.038C123.194 51.212 123.927 51.4375 124.642 51.7128C132.524 54.7547 138.63 48.8538 142.29 43.5505C142.664 43.0013 142.898 42.3695 142.974 41.7094C143.049 41.0493 142.962 40.3808 142.721 39.7617C142.48 39.1425 142.092 38.5913 141.591 38.1556C141.089 37.7199 140.489 37.4128 139.843 37.2608C136.126 36.3288 132.904 33.3755 130.74 30.9025C129.427 29.3612 128.259 27.7027 127.249 25.9479C125.736 23.4136 123.572 21.3315 120.98 19.9189C118.389 18.5063 115.466 17.8149 112.516 17.9168C109.567 18.0187 106.699 18.9103 104.211 20.4984C101.723 22.0865 99.7075 24.313 98.3735 26.9457L122.449 51.038Z" fill="#E27858"/>
<path d="M119.534 80.3164H129.964C129.972 71.5117 128.061 62.811 124.363 54.8204C114.703 33.9272 93.5379 19.3981 69.0482 19.3981C44.5585 19.3981 23.3937 33.9272 13.7219 54.8204C10.0237 62.8108 8.11337 71.5118 8.12407 80.3164H119.534Z" fill="#E7886E"/>
<path d="M112.643 54.8202H96.0271L88.8797 43.9562L81.7323 54.8202H56.3449L49.1975 43.9562L42.0502 54.8202H25.4683C20.9828 62.4908 18.6013 71.2095 18.5644 80.0953C18.5275 88.9811 20.8365 97.7192 25.2581 105.427C29.6797 113.135 36.0573 119.539 43.7465 123.992C51.4357 128.446 60.1642 130.791 69.0501 130.791C77.9359 130.791 86.6644 128.446 94.3536 123.992C102.043 119.539 108.42 113.135 112.842 105.427C117.264 97.7192 119.573 88.9811 119.536 80.0953C119.499 71.2095 117.117 62.4908 112.632 54.8202H112.643Z" fill="#FFD3BC"/>
<path d="M42.7943 93.483C47.7117 93.483 51.697 90.2466 51.697 86.2555C51.697 82.2645 47.7117 79.0253 42.7943 79.0253C37.8769 79.0253 33.8887 82.2616 33.8887 86.2555C33.8887 90.2495 37.8769 93.483 42.7943 93.483Z" fill="#FFBF9D"/>
<path d="M95.3012 93.483C100.219 93.483 104.207 90.2466 104.207 86.2555C104.207 82.2645 100.219 79.0253 95.3012 79.0253C90.3838 79.0253 86.3984 82.2616 86.3984 86.2555C86.3984 90.2495 90.3838 93.483 95.3012 93.483Z" fill="#FFBF9D"/>
<path d="M51.279 76.9525C50.7646 76.9615 50.2748 77.1744 49.9173 77.5442C49.5597 77.9141 49.3636 78.4108 49.372 78.9252V82.4617C49.3621 82.7185 49.4041 82.9747 49.4955 83.2149C49.5869 83.4551 49.7259 83.6744 49.9041 83.8596C50.0823 84.0448 50.296 84.1922 50.5325 84.2928C50.769 84.3935 51.0234 84.4454 51.2804 84.4454C51.5374 84.4454 51.7918 84.3935 52.0283 84.2928C52.2647 84.1922 52.4785 84.0448 52.6567 83.8596C52.8349 83.6744 52.9738 83.4551 53.0652 83.2149C53.1567 82.9747 53.1987 82.7185 53.1887 82.4617V78.9252C53.1929 78.6703 53.1468 78.417 53.0531 78.1799C52.9593 77.9428 52.8198 77.7264 52.6425 77.5432C52.4651 77.3601 52.2534 77.2136 52.0195 77.1122C51.7855 77.0109 51.5339 76.9566 51.279 76.9525Z" fill="#313D40"/>
<path d="M86.9122 76.9525C86.6572 76.9566 86.4056 77.0109 86.1717 77.1122C85.9377 77.2136 85.726 77.3601 85.5487 77.5432C85.3713 77.7264 85.2318 77.9428 85.1381 78.1799C85.0443 78.417 84.9982 78.6703 85.0024 78.9252V82.4617C84.9925 82.7185 85.0345 82.9747 85.1259 83.2149C85.2173 83.4551 85.3563 83.6744 85.5345 83.8596C85.7126 84.0448 85.9264 84.1922 86.1629 84.2928C86.3994 84.3935 86.6537 84.4454 86.9107 84.4454C87.1678 84.4454 87.4221 84.3935 87.6586 84.2928C87.8951 84.1922 88.1088 84.0448 88.287 83.8596C88.4652 83.6744 88.6042 83.4551 88.6956 83.2149C88.787 82.9747 88.829 82.7185 88.8191 82.4617V78.9252C88.8275 78.4108 88.6314 77.9141 88.2738 77.5442C87.9163 77.1744 87.4265 76.9615 86.9122 76.9525Z" fill="#313D40"/>
<path d="M75.0377 96.4324C74.8513 96.2622 74.6322 96.1317 74.3938 96.0487C74.1554 95.9657 73.9026 95.932 73.6507 95.9496C73.3989 95.9673 73.1533 96.0359 72.9287 96.1513C72.7042 96.2667 72.5055 96.4266 72.3446 96.6211C71.9487 97.1014 71.4514 97.4883 70.8885 97.7538C70.3255 98.0194 69.7107 98.1571 69.0883 98.1571C68.4658 98.1571 67.851 98.0194 67.2881 97.7538C66.7251 97.4883 66.2278 97.1014 65.8319 96.6211C65.6713 96.4267 65.4728 96.2669 65.2485 96.1515C65.0243 96.0361 64.7789 95.9675 64.5273 95.9498C64.2757 95.9322 64.0231 95.9659 63.7849 96.0488C63.5467 96.1318 63.3279 96.2623 63.1417 96.4324C62.7588 96.7832 62.5259 97.268 62.4913 97.786C62.4567 98.3041 62.6231 98.8156 62.9558 99.2142C63.7032 100.116 64.6404 100.843 65.7007 101.341C66.7609 101.84 67.9181 102.098 69.0897 102.098C70.2613 102.098 71.4185 101.84 72.4787 101.341C73.539 100.843 74.4762 100.116 75.2236 99.2142C75.5563 98.8156 75.7227 98.3041 75.6881 97.786C75.6535 97.268 75.4205 96.7832 75.0377 96.4324Z" fill="#313D40"/>
<path d="M104.275 30.0008C102.055 28.7609 100.207 26.9503 98.9221 24.7564C97.6371 22.5625 96.9617 20.065 96.966 17.5224V14.6687C96.9948 12.7528 96.6423 10.8503 95.929 9.07197C95.2158 7.2936 94.156 5.67482 92.8113 4.30981C91.4667 2.9448 89.864 1.86082 88.0965 1.12092C86.3291 0.381031 84.4321 0 82.5161 0C80.6 0 78.703 0.381031 76.9356 1.12092C75.1681 1.86082 73.5654 2.9448 72.2208 4.30981C70.8761 5.67482 69.8163 7.2936 69.1031 9.07197C68.3898 10.8503 68.0373 12.7528 68.0661 14.6687C68.0949 12.7528 67.7424 10.8503 67.0292 9.07197C66.3159 7.2936 65.2561 5.67482 63.9115 4.30981C62.5668 2.9448 60.9641 1.86082 59.1967 1.12092C57.4292 0.381031 55.5323 0 53.6162 0C51.7001 0 49.8032 0.381031 48.0357 1.12092C46.2683 1.86082 44.6656 2.9448 43.3209 4.30981C41.9763 5.67482 40.9165 7.2936 40.2032 9.07197C39.49 10.8503 39.1375 12.7528 39.1663 14.6687V17.5224C39.1705 20.065 38.4952 22.5625 37.2101 24.7564C35.9251 26.9503 34.0771 28.7609 31.8573 30.0008C16.3555 38.6176 6.26782 53.5747 6.26782 74.1807C6.26782 108.312 33.9349 132.959 68.0661 132.959C102.197 132.959 129.877 108.312 129.877 74.1807C129.877 53.5747 119.767 38.6176 104.275 30.0008ZM95.531 111.264L74.2009 115.269H61.9313L40.6046 111.264C35.6194 108.591 31.3906 104.701 28.3107 99.9566C25.2308 95.212 23.3997 89.7661 22.9874 84.1246C22.5752 78.4831 23.5952 72.8289 25.9527 67.687C28.3101 62.5451 31.9287 58.0823 36.4723 54.713L56.9152 48.0791H79.2203L99.66 54.713C104.204 58.082 107.822 62.5446 110.18 67.6864C112.538 72.8281 113.558 78.4822 113.146 84.1237C112.734 89.7652 110.904 95.2112 107.824 99.9559C104.744 104.701 100.516 108.59 95.531 111.264V111.264Z" fill="#50E1CD"/>
<path d="M56.9148 48.0794L52.1922 62.1037C50.0559 68.4407 41.1032 68.4407 38.9572 62.1037L36.4719 54.7262C42.2525 50.4055 49.2772 48.0735 56.4941 48.0794H56.9148Z" fill="white"/>
<path d="M99.6598 54.7127L97.1746 62.0934C95.0416 68.4272 86.0856 68.4272 83.9428 62.0934L79.2202 48.0691H79.6507C86.8651 48.0599 93.8884 50.3873 99.6696 54.7029L99.6598 54.7127Z" fill="white"/>
<path d="M61.931 115.269H56.4941C50.9467 115.277 45.4851 113.9 40.6042 111.263L43.9766 101.257C46.1096 94.9203 55.0656 94.9203 57.2084 101.257L61.931 115.269Z" fill="white"/>
<path d="M95.5307 111.264C90.6526 113.898 85.1946 115.275 79.6506 115.269H74.2007L78.9266 101.244C81.0596 94.9073 90.0155 94.9073 92.1583 101.244L95.5307 111.264Z" fill="white"/>
<path d="M76.4675 23.468C74.8627 23.4672 73.2775 23.8209 71.8252 24.5036C70.3729 25.1864 69.0893 26.1814 68.066 27.4176C66.6332 25.6875 64.7014 24.4418 62.5344 23.8504C60.3673 23.2589 58.0705 23.3507 55.9575 24.113C53.8445 24.8754 52.0183 26.2712 50.728 28.1101C49.4378 29.9489 48.7464 32.141 48.7483 34.3874C48.7718 35.0399 49.0475 35.6578 49.5174 36.1112C49.9874 36.5645 50.6148 36.8178 51.2678 36.8178C51.9207 36.8178 52.5482 36.5645 53.0181 36.1112C53.4881 35.6578 53.7638 35.0399 53.7873 34.3874C53.7873 32.8278 54.4068 31.3321 55.5096 30.2293C56.6124 29.1265 58.1081 28.5069 59.6677 28.5069C61.2273 28.5069 62.723 29.1265 63.8258 30.2293C64.9286 31.3321 65.5481 32.8278 65.5481 34.3874C65.5716 35.0399 65.8473 35.6578 66.3172 36.1112C66.7872 36.5645 67.4147 36.8178 68.0676 36.8178C68.7205 36.8178 69.348 36.5645 69.818 36.1112C70.2879 35.6578 70.5636 35.0399 70.5871 34.3874C70.5871 32.8304 71.2056 31.3371 72.3066 30.2362C73.4075 29.1352 74.9007 28.5167 76.4577 28.5167C78.0147 28.5167 79.5079 29.1352 80.6089 30.2362C81.7099 31.3371 82.3284 32.8304 82.3284 34.3874C82.3284 35.056 82.594 35.6973 83.0668 36.1701C83.5396 36.6429 84.1808 36.9085 84.8495 36.9085C85.5181 36.9085 86.1594 36.6429 86.6322 36.1701C87.105 35.6973 87.3706 35.056 87.3706 34.3874C87.3672 31.4952 86.2179 28.7223 84.1743 26.6757C82.1308 24.6292 79.3596 23.4757 76.4675 23.468Z" fill="#00D1B3"/>
<path d="M53.6175 20.249C54.2856 20.2481 54.926 19.9821 55.3981 19.5094C55.8702 19.0367 56.1354 18.396 56.1354 17.7279V12.9368C56.1119 12.2843 55.8362 11.6663 55.3663 11.213C54.8963 10.7597 54.2689 10.5063 53.6159 10.5063C52.963 10.5063 52.3355 10.7597 51.8656 11.213C51.3956 11.6663 51.1199 12.2843 51.0964 12.9368V17.7279C51.0964 18.3965 51.3621 19.0378 51.8349 19.5106C52.3077 19.9834 52.9489 20.249 53.6175 20.249Z" fill="#423E4F"/>
<path d="M59.6674 31.8306C59.3364 31.8301 59.0087 31.8949 58.7028 32.0213C58.397 32.1476 58.119 32.333 57.8849 32.5669C57.6507 32.8007 57.465 33.0784 57.3382 33.3841C57.2115 33.6898 57.1462 34.0175 57.1462 34.3484V37.1402C57.1462 37.8089 57.4119 38.4501 57.8847 38.9229C58.3575 39.3957 58.9987 39.6614 59.6674 39.6614C60.336 39.6614 60.9773 39.3957 61.4501 38.9229C61.9229 38.4501 62.1885 37.8089 62.1885 37.1402V34.3484C62.1876 33.6803 61.9216 33.0399 61.4489 32.5678C60.9762 32.0957 60.3354 31.8306 59.6674 31.8306V31.8306Z" fill="#00D1B3"/>
<path d="M76.4673 31.8306C76.1364 31.8301 75.8086 31.8949 75.5028 32.0213C75.1969 32.1476 74.919 32.333 74.6848 32.5669C74.4507 32.8007 74.2649 33.0784 74.1382 33.3841C74.0114 33.6898 73.9462 34.0175 73.9462 34.3484V37.1402C73.934 37.4787 73.9902 37.8162 74.1113 38.1325C74.2324 38.4488 74.4161 38.7375 74.6512 38.9813C74.8864 39.225 75.1683 39.4189 75.48 39.5513C75.7917 39.6838 76.127 39.752 76.4657 39.752C76.8044 39.752 77.1396 39.6838 77.4514 39.5513C77.7631 39.4189 78.045 39.225 78.2802 38.9813C78.5153 38.7375 78.6989 38.4488 78.8201 38.1325C78.9412 37.8162 78.9974 37.4787 78.9852 37.1402V34.3484C78.9852 33.6806 78.7199 33.0402 78.2477 32.568C77.7755 32.0958 77.1351 31.8306 76.4673 31.8306V31.8306Z" fill="#00D1B3"/>
<path d="M82.5177 20.249C82.8486 20.249 83.1763 20.1838 83.482 20.057C83.7877 19.9303 84.0654 19.7445 84.2992 19.5104C84.5331 19.2762 84.7185 18.9983 84.8448 18.6924C84.9712 18.3866 85.036 18.0588 85.0355 17.7279V12.9368C85.0121 12.2843 84.7363 11.6663 84.2664 11.213C83.7965 10.7597 83.169 10.5063 82.5161 10.5063C81.8631 10.5063 81.2356 10.7597 80.7657 11.213C80.2958 11.6663 80.0201 12.2843 79.9966 12.9368V17.7279C79.9966 18.3965 80.2622 19.0378 80.735 19.5106C81.2078 19.9834 81.8491 20.249 82.5177 20.249V20.249Z" fill="#423E4F"/>
<path d="M30.8433 78.4334C30.8413 70.1536 32.8361 61.9954 36.6585 54.6508L36.4726 54.7127C32.0182 58.0155 28.4513 62.3704 26.0909 67.3882C23.7304 72.406 22.6499 77.9304 22.9458 83.4678C23.2417 89.0052 24.9049 94.383 27.7866 99.1207C30.6684 103.858 34.679 107.808 39.4601 110.618C33.8275 101.6 30.8433 90.4747 30.8433 78.4334V78.4334Z" fill="#00D1B3"/>
</svg>
