<svg width="73" height="55" viewBox="0 0 73 55" fill="none" xmlns="http://www.w3.org/2000/svg">
<path d="M48.758 42.6499H40.1173L38.1767 48.0383H35.3721L43.2478 27.3921H45.6275L53.5174 48.0383H50.7269L48.758 42.6499ZM40.9389 40.4094H47.9506L44.4377 30.7528L40.9389 40.4094Z" fill="#F4C222" stroke="#F4C222" stroke-width="2"/>
<path d="M17.3789 23.1165C17.124 25.3003 16.3166 26.9877 14.9567 28.1788C13.6063 29.3605 11.8074 29.9513 9.55988 29.9513C7.1235 29.9513 5.16873 29.0769 3.69557 27.328C2.23186 25.5791 1.5 23.2394 1.5 20.3089V18.3237C1.5 16.4046 1.83996 14.7172 2.51988 13.2614C3.20924 11.8056 4.1819 10.6901 5.43787 9.91489C6.69383 9.13026 8.1481 8.73795 9.80068 8.73795C11.9915 8.73795 13.748 9.35241 15.0701 10.5814C16.3921 11.8008 17.1617 13.493 17.3789 15.6578H14.6451C14.409 14.0129 13.8944 12.8218 13.1011 12.0844C12.3173 11.3471 11.2172 10.9784 9.80068 10.9784C8.06311 10.9784 6.69855 11.6212 5.707 12.9069C4.72489 14.1925 4.23384 16.0218 4.23384 18.3946V20.394C4.23384 22.6344 4.70129 24.4164 5.63617 25.7398C6.57106 27.0633 7.87896 27.725 9.55988 27.725C11.0708 27.725 12.2276 27.3847 13.0303 26.7041C13.8424 26.014 14.3807 24.8181 14.6451 23.1165H17.3789Z" fill="#CE2489" stroke="#CE2489" stroke-width="2"/>
<path d="M56.6247 28.0372L37.6641 22.8055L37.6137 22.9885L56.5743 28.2202L56.6247 28.0372Z" fill="#CCD4D2"/>
<path d="M56.3732 28.9632L37.4126 23.7315L37.3622 23.9145L56.3229 29.1463L56.3732 28.9632Z" fill="#CCD4D2"/>
<path d="M56.1135 29.9011L37.1528 24.6694L37.1024 24.8524L56.0631 30.0842L56.1135 29.9011Z" fill="#CCD4D2"/>
<path d="M55.986 30.371L37.0254 25.1392L36.975 25.3223L55.9356 30.554L55.986 30.371Z" fill="#CCD4D2"/>
<path d="M55.8601 30.8339L36.8994 25.6022L36.849 25.7852L55.8097 31.017L55.8601 30.8339Z" fill="#CCD4D2"/>
<path d="M56.239 29.4311L37.2783 24.1994L37.2279 24.3824L56.1886 29.6142L56.239 29.4311Z" fill="#CCD4D2"/>
<path d="M56.4992 28.5002L37.5386 23.2684L37.4882 23.4515L56.4488 28.6832L56.4992 28.5002Z" fill="#CCD4D2"/>
<path d="M56.5891 27.5417L39.7311 22.8797C39.2315 22.7631 38.7061 22.8443 38.265 23.1064C37.8238 23.3685 37.5009 23.7912 37.3639 24.2861C37.2926 24.5326 37.2713 24.7909 37.3012 25.0458C37.331 25.3008 37.4115 25.5471 37.5378 25.7705C37.664 25.9939 37.8336 26.1897 38.0366 26.3466C38.2395 26.5034 38.4717 26.6181 38.7196 26.6839C38.846 26.6839 38.9865 26.7682 39.1129 26.7964L55.5355 31.3318C54.7207 30.9099 54.5942 30.038 54.8331 29.1098C55.0719 28.1816 55.6689 27.4433 56.5891 27.5417Z" fill="white"/>
<path d="M61.8578 4.87173L45.8848 0.46991H45.8215L39.563 23.2244H39.6332L55.5852 27.6262C55.7641 27.6774 55.9514 27.6925 56.1363 27.6706C56.3211 27.6487 56.4997 27.5902 56.6618 27.4987C56.8239 27.4071 56.9662 27.2841 57.0804 27.137C57.1946 26.9899 57.2785 26.8216 57.3272 26.6417L62.8482 6.57339C62.9385 6.21642 62.8854 5.83822 62.7002 5.52004C62.515 5.20186 62.2125 4.96908 61.8578 4.87173Z" fill="#26B824"/>
<path d="M38.7964 26.6909H38.7262C38.9078 26.1188 39.0555 25.5365 39.1687 24.9471C39.4356 23.9908 39.7939 23.3157 39.6885 23.2735L39.7939 23.3157L44.9496 4.33024H45.0128L46.0594 0.526114H45.9541C45.4761 0.353312 44.9537 0.348271 44.4725 0.511816C43.9914 0.675361 43.58 0.997779 43.306 1.42617C43.2083 1.68464 43.1308 1.95029 43.0742 2.22074C43.0742 2.22074 36.9561 24.2509 36.928 24.3423C36.9048 24.4324 36.8884 24.5241 36.8788 24.6166V24.6799C36.8496 25.2254 37.013 25.7639 37.3405 26.201C37.668 26.6381 38.1386 26.946 38.67 27.0706H38.7192L38.7964 26.6909Z" fill="#3E992E"/>
<path d="M56.6316 27.8511C56.6316 27.8511 54.6016 29.4192 55.7536 31.3669L37.4907 26.3393L38.439 22.5492L56.6316 27.8511Z" fill="#E7E5E5"/>
<path d="M37.8271 24.9189C38.1222 24.7994 41.5429 23.4352 56.09 28.3785C56.2114 28.1418 56.4096 27.9533 56.652 27.8441L38.7614 22.4649L37.8271 24.9189Z" fill="#CECECD"/>
<path d="M38.2983 24.1666L38.4318 23.6814C38.6706 22.8095 39.3238 23.0626 39.3238 23.0626L57.0037 27.9426L57.2776 26.9371L39.4151 22.0149C39.1224 21.9166 38.8032 21.9342 38.5231 22.0641H38.4669H38.4318C37.9963 22.3313 36.2402 23.604 37.1112 26.3253C37.1604 26.5359 37.2695 26.7277 37.4253 26.8775C37.5811 27.0272 37.777 27.1285 37.9892 27.1691L55.8517 32.0913L56.1257 31.0857L38.4388 26.2761C38.4388 26.2761 37.7364 26.1636 37.9892 25.2916L38.1227 24.7994L38.2983 24.1666Z" fill="#26B824"/>
<path d="M38.439 26.2761C38.439 26.2761 37.7366 26.1636 37.9895 25.2916L38.1229 24.7994L38.2985 24.1666L38.432 23.6814C38.6708 22.8095 39.3241 23.0626 39.3241 23.0626L42.3726 23.9275L42.6535 22.929L39.3873 22.029C39.0946 21.9307 38.7754 21.9483 38.4952 22.0782H38.439H38.4039C37.9684 22.3454 36.2124 23.6181 37.0834 26.3394C37.1325 26.55 37.2416 26.7418 37.3975 26.8915C37.5533 27.0413 37.7492 27.1426 37.9614 27.1832L41.2417 28.1465L41.5226 27.148L38.439 26.2761Z" fill="#3E992E"/>
<path d="M43.1733 25.8823C42.7003 25.6701 42.2057 25.5097 41.6982 25.4041C41.9346 25.7268 42.0889 26.1022 42.1476 26.498C42.2064 26.8937 42.1679 27.2979 42.0354 27.6754L43.0118 26.923L43.8196 27.8793C43.8196 27.8793 43.8898 26.4097 43.1733 25.8823Z" fill="#EA5645"/>
<path d="M45.9055 0.471558L39.9346 22.1571L42.6839 22.9157L48.6548 1.23016L45.9055 0.471558Z" fill="#3E992E"/>
<path d="M49.2704 12.7331L46.7768 12.0299L45.7161 14.2027L43.6089 13.6261L49.1088 3.68335L51.5603 4.38652L51.195 15.7497L49.0877 15.159L49.2704 12.7331ZM49.4179 10.8064L49.8183 5.88426L47.6197 10.3423L49.4179 10.8064Z" fill="#CE2489"/>
<path d="M50.9917 9.96943L47.4565 22.8086L55.6706 25.0751L59.2057 12.2359L50.9917 9.96943Z" fill="#F4C222"/>
<path d="M55.7672 19.8773C55.2193 21.8672 53.7794 22.0712 52.0233 21.586L49.7686 20.9602L52.2059 12.2268L54.1797 12.7683C56.0552 13.2886 57.0456 14.1746 56.5961 15.8411C56.5144 16.2617 56.2916 16.6416 55.9645 16.9179C55.6374 17.1942 55.2257 17.3502 54.7979 17.3599C55.2492 17.5771 55.6008 17.9585 55.7809 18.4263C55.9611 18.8941 55.9562 19.413 55.7672 19.8773ZM53.4282 14.1465L52.8662 16.1716L53.4844 16.3474C53.6225 16.4062 53.7723 16.4322 53.9222 16.4232C54.072 16.4141 54.2177 16.3704 54.3478 16.2954C54.4778 16.2204 54.5887 16.1162 54.6717 15.991C54.7547 15.8658 54.8075 15.723 54.826 15.5739C55.0297 14.8707 54.7065 14.4981 53.9128 14.2801L53.4282 14.1465ZM54.0955 19.2937C54.163 19.1353 54.1931 18.9634 54.1833 18.7914C54.1736 18.6195 54.1243 18.4521 54.0393 18.3024C53.9543 18.1526 53.8359 18.0246 53.6934 17.9282C53.5508 17.8318 53.3879 17.7697 53.2174 17.7467L52.515 17.5498L51.8618 19.9195L52.4658 20.0882C53.2244 20.2992 53.8285 20.25 54.0955 19.2937Z" fill="#22B1B6"/>
<path d="M30.7658 23.0992L14.4981 27.6583C13.284 27.9986 12.5753 29.2597 12.9152 30.4751L18.9087 51.9063C19.2486 53.1217 20.5084 53.8311 21.7225 53.4909L37.9902 48.9318C39.2043 48.5915 39.913 47.3304 39.5731 46.115L33.5796 24.6838C33.2397 23.4684 31.9799 22.7589 30.7658 23.0992Z" fill="#A685E2"/>
<g style="mix-blend-mode:multiply" opacity="0.52">
<path d="M30.4569 24.044L15.684 28.1842C14.9967 28.3768 14.5955 29.0908 14.7879 29.7789L20.5541 50.3975C20.7465 51.0856 21.4598 51.4873 22.1471 51.2946L36.9199 47.1545C37.6073 46.9618 38.0085 46.2478 37.8161 45.5597L32.0499 24.9411C31.8575 24.253 31.1442 23.8513 30.4569 24.044Z" fill="#FE487C"/>
</g>
<path d="M28.8328 25.6125L17.4488 28.8029C16.3617 29.1076 15.7272 30.2368 16.0315 31.325L20.8073 48.4023C21.1117 49.4905 22.2397 50.1258 23.3268 49.8211L34.7107 46.6307C35.7978 46.326 36.4324 45.1968 36.128 44.1086L31.3522 27.0313C31.0479 25.9431 29.9199 25.3078 28.8328 25.6125Z" fill="white"/>
<path d="M26.5919 22.9815L18.0015 25.389L19.0013 28.9643L27.5917 26.5567L26.5919 22.9815Z" fill="#0F0B49"/>
<g opacity="0.33">
<path opacity="0.33" d="M19.5706 31.1581C20.1842 31.0383 20.807 30.9724 21.432 30.9612C21.8127 30.9198 22.1875 30.8349 22.5489 30.7081C22.8248 30.6091 23.0887 30.4794 23.3356 30.3213C23.5393 30.1947 23.8905 29.7799 24.1504 29.6814C24.5469 29.6013 24.9572 29.6206 25.3445 29.7377C25.7163 29.7408 26.087 29.6959 26.4473 29.6041C26.8386 29.5153 27.2182 29.3808 27.5782 29.2033C27.8824 29.033 28.1674 28.8302 28.4281 28.5986C29.0322 28.6759 29.8329 28.0852 29.2499 28.0079C27.8943 27.8321 27.1427 29.0978 25.9134 29.1189C25.4428 29.1189 25.3375 28.922 24.7334 28.9994C24.3146 29.0494 23.9079 29.1732 23.5322 29.365C23.0616 29.6111 22.9422 29.8924 22.5137 30.1244C21.727 30.5393 20.9473 30.3494 20.2028 30.4549C19.1702 30.6026 18.1658 31.1159 18.2782 31.5167C18.3905 31.9175 19.683 31.4604 19.5706 31.1581Z" fill="#0F0B49"/>
</g>
<g opacity="0.33">
<path opacity="0.33" d="M19.9769 32.5926C20.5906 32.4748 21.2135 32.4112 21.8383 32.4027C22.2166 32.3605 22.589 32.2756 22.9482 32.1496C23.2235 32.0492 23.4872 31.9195 23.7349 31.7628C23.9456 31.6292 24.2898 31.2144 24.5567 31.1159C25.0133 30.9472 25.4277 31.1651 25.7438 31.1722C26.1152 31.1749 26.4855 31.1324 26.8466 31.0456C27.237 30.9536 27.6162 30.8192 27.9775 30.6448C28.2834 30.4743 28.5685 30.269 28.8274 30.0331C29.4385 30.1174 30.2323 29.5268 29.6492 29.4494C28.3006 29.2736 27.542 30.5393 26.3128 30.5604C25.8421 30.5604 25.7438 30.3565 25.1327 30.4339C24.714 30.4883 24.3077 30.6144 23.9316 30.8065C23.4609 31.0456 23.3415 31.3269 22.913 31.5589C22.1263 31.9808 21.3467 31.7839 20.6021 31.8964C19.5695 32.0441 18.5651 32.5574 18.6845 32.9582C18.8039 33.359 20.0893 32.8949 19.9769 32.5926Z" fill="#0F0B49"/>
</g>
<g opacity="0.33">
<path opacity="0.33" d="M20.3357 33.9707C20.9493 33.851 21.5721 33.7851 22.1972 33.7738C22.5779 33.7325 22.9526 33.6476 23.314 33.5207C23.5899 33.4218 23.8538 33.292 24.1007 33.134C24.3044 33.0074 24.6556 32.5925 24.9155 32.4941C25.3121 32.4139 25.7223 32.4332 26.1096 32.5503C26.4814 32.5535 26.8521 32.5086 27.2124 32.4167C27.6038 32.328 27.9833 32.1934 28.3433 32.0159C28.6476 31.8456 28.9325 31.6429 29.1932 31.4112C29.7973 31.4886 30.5981 30.8979 30.0151 30.8205C28.6594 30.6448 27.9078 31.9105 26.6786 31.9316C26.208 31.9316 26.1026 31.7347 25.4985 31.812C25.0797 31.862 24.6731 31.9858 24.2974 32.1777C23.8268 32.4238 23.7074 32.705 23.2789 32.93C22.4922 33.3519 21.7125 33.1621 20.9679 33.2676C19.9354 33.4152 18.9309 33.9285 19.0433 34.3293C19.1557 34.7302 20.4481 34.2731 20.3357 33.9707Z" fill="#0F0B49"/>
</g>
<g opacity="0.33">
<path opacity="0.33" d="M20.9049 35.3841C21.5186 35.2663 22.1415 35.2028 22.7663 35.1943C23.1351 35.15 23.4979 35.0651 23.8481 34.9411C24.1234 34.8407 24.3871 34.7111 24.6348 34.5544C24.8907 34.3168 25.1656 34.1004 25.4566 33.9075C25.9132 33.7387 26.3346 33.9567 26.6437 33.9637C27.0154 33.9735 27.3866 33.9309 27.7465 33.8372C28.1369 33.7452 28.5161 33.6108 28.8774 33.4364C29.1833 33.2652 29.4705 33.0625 29.7343 32.8316C30.3384 32.909 31.1392 32.3183 30.5491 32.241C29.2005 32.0652 28.4419 33.3309 27.2127 33.352C26.742 33.352 26.6437 33.1481 26.0326 33.2254C25.6146 33.2831 25.2088 33.409 24.8315 33.5981C24.3608 33.8372 24.2414 34.1255 23.8129 34.3505C23.0262 34.7724 22.2466 34.5825 21.509 34.688C20.4694 34.8357 19.465 35.349 19.5844 35.7498C19.7038 36.1506 20.9892 35.6865 20.8768 35.3841H20.9049Z" fill="#0F0B49"/>
</g>
<g opacity="0.33">
<path opacity="0.33" d="M21.3053 36.8256C21.9116 36.7056 22.5277 36.642 23.1456 36.6358C23.5241 36.5944 23.8965 36.5094 24.2555 36.3826C24.5345 36.2828 24.8009 36.1506 25.0492 35.9889C25.2529 35.8623 25.5971 35.4474 25.864 35.349C26.3206 35.1802 26.742 35.3982 27.0511 35.4052C27.4252 35.4088 27.7983 35.3639 28.1609 35.2716C28.5508 35.1811 28.9299 35.0491 29.2918 34.8778C29.6047 34.7047 29.899 34.4997 30.1698 34.2661C30.7739 34.3434 31.5747 33.7528 30.9917 33.6754C29.636 33.4996 28.8844 34.7653 27.6552 34.7935C27.1775 34.7935 27.0792 34.5896 26.4681 34.6669C26.0497 34.7189 25.6434 34.8426 25.2669 35.0325C24.7963 35.2787 24.6839 35.5599 24.2484 35.792C23.4617 36.2068 22.682 36.017 21.9445 36.1225C20.912 36.2701 19.9005 36.7905 20.0199 37.1842C20.1393 37.578 21.4247 37.128 21.3123 36.8256H21.3053Z" fill="#0F0B49"/>
</g>
<g opacity="0.33">
<path opacity="0.33" d="M21.6913 38.1967C22.305 38.0789 22.9279 38.0154 23.5527 38.0069C23.931 37.9647 24.3033 37.8798 24.6625 37.7537C24.9378 37.6533 25.2015 37.5237 25.4492 37.367C25.7052 37.1293 25.98 36.913 26.2711 36.7201C26.7276 36.5513 27.1491 36.7693 27.4582 36.7763C27.8299 36.7861 28.2011 36.7435 28.561 36.6498C28.9514 36.5578 29.3306 36.4234 29.6918 36.249C29.9977 36.0778 30.2849 35.8751 30.5488 35.6442C31.1529 35.7216 31.9536 35.1309 31.3636 35.0536C30.015 34.8778 29.2563 36.1435 28.0271 36.1646C27.5565 36.1646 27.4582 35.9607 26.847 36.038C26.429 36.0957 26.0233 36.2216 25.6459 36.4107C25.1753 36.6498 25.0559 36.931 24.6274 37.1631C23.8407 37.585 23.061 37.3951 22.3235 37.5006C21.2839 37.6483 20.2794 38.1616 20.3988 38.5624C20.5183 38.9632 21.8037 38.4991 21.6913 38.1967Z" fill="#0F0B49"/>
</g>
<g opacity="0.33">
<path opacity="0.33" d="M22.0838 39.5749C22.6975 39.4571 23.3204 39.3936 23.9452 39.3851C24.3237 39.3437 24.6961 39.2587 25.055 39.1319C25.3324 39.0312 25.5985 38.9016 25.8488 38.7452C26.0525 38.6116 26.3967 38.1967 26.6636 38.0983C27.1202 37.9295 27.5416 38.1475 27.8507 38.1545C28.2244 38.1573 28.597 38.1148 28.9605 38.028C29.3506 37.9348 29.7297 37.8005 30.0914 37.6272C30.3961 37.4548 30.6811 37.2497 30.9413 37.0154C31.5454 37.0998 32.3461 36.5091 31.7631 36.4318C30.4075 36.256 29.6559 37.5217 28.4267 37.5428C27.949 37.5428 27.8507 37.3389 27.2396 37.4162C26.8208 37.4707 26.4145 37.5967 26.0384 37.7889C25.5678 38.028 25.4554 38.3092 25.0199 38.5413C24.2332 38.9632 23.4535 38.7733 22.716 38.8788C21.6834 39.0265 20.672 39.5398 20.7914 39.9406C20.9108 40.3414 22.1962 39.8773 22.0838 39.5749Z" fill="#0F0B49"/>
</g>
<g opacity="0.33">
<path opacity="0.33" d="M22.4847 41.0164C23.0982 40.8967 23.7211 40.8308 24.3461 40.8195C24.7268 40.7782 25.1015 40.6932 25.4629 40.5664C25.74 40.4703 26.0043 40.3404 26.2496 40.1796C26.4533 40.0531 26.7975 39.6382 27.0644 39.5398C27.4586 39.4593 27.8667 39.4786 28.2515 39.596C28.6257 39.5996 28.9987 39.5547 29.3613 39.4624C29.7527 39.3736 30.1323 39.2391 30.4922 39.0616C30.7965 38.8913 31.0815 38.6886 31.3422 38.4569C31.9462 38.5342 32.747 37.9436 32.164 37.8662C30.8083 37.6904 30.0567 38.9561 28.8275 38.9772C28.3569 38.9772 28.2515 38.7803 27.6474 38.8577C27.2287 38.9077 26.822 39.0315 26.4463 39.2233C25.9687 39.4695 25.8563 39.7507 25.4278 39.9828C24.6411 40.3976 23.8614 40.2078 23.1168 40.3133C22.0843 40.4609 21.0798 40.9813 21.1922 41.375C21.3046 41.7688 22.5971 41.3188 22.4847 41.0164Z" fill="#0F0B49"/>
</g>
<g opacity="0.33">
<path opacity="0.33" d="M22.8721 42.3877C23.4858 42.2699 24.1087 42.2064 24.7335 42.1978C25.1119 42.1564 25.4843 42.0715 25.8433 41.9447C26.128 41.8453 26.4011 41.7157 26.6581 41.5579C26.8618 41.4243 27.206 41.0095 27.4729 40.911C27.9295 40.7423 28.351 40.9603 28.66 40.9673C29.0337 40.97 29.4063 40.9275 29.7698 40.8407C30.1503 40.7457 30.5199 40.6114 30.8726 40.4399C31.1774 40.2676 31.4624 40.0625 31.7226 39.8282C32.3266 39.9125 33.1274 39.3219 32.5444 39.2445C31.1887 39.0687 30.4371 40.3344 29.2079 40.3555C28.7303 40.3555 28.6319 40.1516 28.0208 40.229C27.6021 40.2834 27.1958 40.4095 26.8197 40.6016C26.3491 40.8407 26.2367 41.122 25.8012 41.354C25.0145 41.7759 24.2348 41.5861 23.4972 41.6915C22.4647 41.8392 21.4532 42.3525 21.5726 42.7533C21.692 43.1541 22.9775 42.69 22.8651 42.3877H22.8721Z" fill="#0F0B49"/>
</g>
<g opacity="0.33">
<path opacity="0.33" d="M23.4122 43.808C24.0186 43.6887 24.6346 43.6252 25.2525 43.6181C25.6333 43.5768 26.008 43.4918 26.3694 43.365C26.6456 43.2638 26.9095 43.1317 27.1561 42.9712C27.3668 42.8446 27.711 42.4298 27.9709 42.3313C28.368 42.258 28.7766 42.2772 29.165 42.3876C29.5368 42.3908 29.9075 42.3458 30.2678 42.254C30.658 42.1643 31.0372 42.0323 31.3987 41.8602C31.7127 41.6889 32.0071 41.4837 32.2767 41.2485C32.8878 41.3258 33.6816 40.7351 33.0986 40.6578C31.7429 40.482 30.9913 41.7477 29.7621 41.7758C29.2915 41.7758 29.1931 41.5719 28.582 41.6493C28.1632 41.6993 27.7566 41.8231 27.3809 42.0149C26.9103 42.261 26.7908 42.5423 26.3624 42.7743C25.5757 43.1892 24.796 42.9993 24.0514 43.1048C23.0189 43.2525 22.0144 43.7728 22.1268 44.1666C22.2392 44.5604 23.5316 44.1103 23.4192 43.808H23.4122Z" fill="#0F0B49"/>
</g>
<g opacity="0.33">
<path opacity="0.33" d="M23.8475 45.2425C24.4612 45.1247 25.0841 45.0611 25.7089 45.0526C26.0872 45.0104 26.4596 44.9255 26.8188 44.7995C27.0941 44.6991 27.3578 44.5694 27.6055 44.4127C27.8614 44.1751 28.1362 43.9587 28.4273 43.7658C28.8839 43.5971 29.3053 43.815 29.6144 43.8221C29.9861 43.8318 30.3573 43.7892 30.7172 43.6955C31.1076 43.6035 31.4868 43.4691 31.8481 43.2947C32.1528 43.1217 32.4399 42.9192 32.705 42.69C33.3091 42.7673 34.1099 42.1767 33.5198 42.0993C32.1712 41.9235 31.4126 43.1892 30.1833 43.2103C29.7127 43.2103 29.6144 43.0064 29.0033 43.0838C28.5853 43.1415 28.1795 43.2674 27.8022 43.4564C27.3315 43.6955 27.2121 43.9838 26.7836 44.2088C25.9969 44.6307 25.2173 44.4409 24.4797 44.5463C23.4401 44.694 22.4357 45.2073 22.5551 45.6081C22.6745 46.0089 23.9599 45.5448 23.8475 45.2425Z" fill="#0F0B49"/>
</g>
<g opacity="0.33">
<path opacity="0.33" d="M24.1985 46.6207C24.8118 46.5001 25.435 46.4366 26.0599 46.4308C26.4407 46.3895 26.8154 46.3045 27.1768 46.1777C27.453 46.0764 27.7169 45.9443 27.9635 45.7839C28.1672 45.6573 28.5184 45.2425 28.7783 45.144C29.1754 45.0707 29.584 45.0899 29.9724 45.2003C30.3442 45.2034 30.7149 45.1585 31.0752 45.0667C31.4654 44.977 31.8446 44.845 32.2061 44.6729C32.5104 44.4998 32.7953 44.2948 33.056 44.0611C33.6601 44.1385 34.4609 43.5478 33.8779 43.4705C32.5222 43.2947 31.7706 44.5604 30.5414 44.5885C30.0707 44.5885 29.9724 44.3846 29.3613 44.4619C28.9425 44.512 28.5359 44.6357 28.1602 44.8276C27.6896 45.0737 27.5701 45.355 27.1417 45.587C26.355 46.0019 25.5753 45.812 24.8307 45.9175C23.7982 46.0652 22.7937 46.5855 22.9061 46.9793C23.0185 47.373 24.3109 46.923 24.1985 46.6207Z" fill="#0F0B49"/>
</g>
<path d="M57.4624 41.6566V21.0104H64.2049C66.443 21.0104 68.1239 21.4737 69.2477 22.4001C70.3809 23.3265 70.9475 24.6973 70.9475 26.5123C70.9475 27.4765 70.6736 28.3321 70.1259 29.0789C69.5782 29.8163 68.8322 30.3882 67.8878 30.7947C69.0022 31.1066 69.8804 31.7022 70.5225 32.5814C71.1741 33.4511 71.4999 34.4909 71.4999 35.701C71.4999 37.5538 70.9003 39.0097 69.701 40.0684C68.5017 41.1272 66.8066 41.6566 64.6157 41.6566H57.4624ZM60.1821 32V39.4303H64.6724C65.9378 39.4303 66.9341 39.1042 67.6612 38.4519C68.3978 37.7902 68.7661 36.8826 68.7661 35.7293C68.7661 33.2431 67.4157 32 64.7149 32H60.1821ZM60.1821 29.8163H64.2899C65.4798 29.8163 66.4289 29.5185 67.1371 28.9229C67.8548 28.3273 68.2136 27.5191 68.2136 26.4981C68.2136 25.3637 67.8831 24.5413 67.2221 24.0308C66.5611 23.5109 65.5553 23.2509 64.2049 23.2509H60.1821V29.8163Z" fill="#1771B9" stroke="#1771B9" stroke-width="2"/>
</svg>
