<svg width="69" height="34" viewBox="0 0 69 34" fill="none" xmlns="http://www.w3.org/2000/svg">
<path d="M10.6311 16.0949H3.58179V23.1876H10.6311C12.6094 23.1876 14.2129 21.5998 14.2129 19.6412C14.2129 17.6827 12.6094 16.0949 10.6311 16.0949Z" fill="#FF8080"/>
<path d="M7.16362 12.8081H14.065C16.0433 12.8081 17.6469 11.2203 17.6469 9.26176C17.6469 7.30318 16.0433 5.71542 14.065 5.71542H10.4672L6.03149 7.3409V11.2681L7.16362 12.8081Z" fill="#FF8080"/>
<path d="M14.0117 26.4743H7.16367V12.8081C7.16367 10.2066 8.24242 7.64032 10.4673 5.71542H3.58181C1.60363 5.71542 0 7.30318 0 9.26176V30.0206C0 31.9792 1.60363 33.5669 3.58181 33.5669H14.065C16.0591 33.5669 17.6725 31.9537 17.6466 29.9735C17.621 28.0247 15.9802 26.4743 14.0117 26.4743Z" fill="#EC5858"/>
<path d="M35.3708 28.0602C35.9909 28.0602 36.5036 28.2572 36.909 28.651C37.3383 29.0217 37.553 29.5082 37.553 30.1106C37.553 30.6898 37.3383 31.1763 36.909 31.5702C36.5036 31.9409 35.9909 32.1262 35.3708 32.1262H23.7446C23.1246 32.1262 22.5999 31.9293 22.1706 31.5354C21.7652 31.1184 21.5625 30.6087 21.5625 30.0063V9.91958C21.5625 9.31721 21.7771 8.81909 22.2064 8.42524C22.6357 8.00821 23.1842 7.7997 23.852 7.7997C24.4243 7.7997 24.9251 8.00821 25.3544 8.42524C25.8075 8.81909 26.0341 9.31721 26.0341 9.91958V28.651L25.2471 28.0602H35.3708Z" fill="#EC5858"/>
<path d="M54.063 13.2558L46.336 30.9099C46.1691 31.3501 45.9068 31.6976 45.549 31.9525C45.2151 32.1842 44.8455 32.3 44.4401 32.3C43.7962 32.3 43.3192 32.1262 43.0092 31.7787C42.6991 31.4312 42.5441 31.0026 42.5441 30.4929C42.5441 30.2844 42.5799 30.0643 42.6514 29.8326L51.5589 9.05077C51.7497 8.58741 52.0358 8.22831 52.4174 7.97346C52.8228 7.71861 53.2521 7.61435 53.7052 7.66069C54.1345 7.66069 54.528 7.78811 54.8857 8.04296C55.2673 8.27464 55.5416 8.61058 55.7085 9.05077L64.5086 29.4156C64.6279 29.7167 64.6875 29.9948 64.6875 30.2496C64.6875 30.8752 64.4729 31.3733 64.0436 31.744C63.6382 32.1146 63.185 32.3 62.6842 32.3C62.2549 32.3 61.8614 32.1726 61.5037 31.9177C61.1698 31.6629 60.9075 31.3153 60.7167 30.8752L53.0256 13.4643L54.063 13.2558ZM47.445 26.6701L49.4125 22.6736H59.0712L59.7508 26.6701H47.445Z" fill="#EC5858"/>
<path d="M35.3708 28.0602C35.9909 28.0602 36.5036 28.2572 36.909 28.651C37.3383 29.0217 37.553 29.5082 37.553 30.1106C37.553 30.6898 37.3383 31.1763 36.909 31.5702C36.5036 31.9409 35.9909 32.1262 35.3708 32.1262H23.7446C23.1246 32.1262 22.5999 31.9293 22.1706 31.5354C21.7652 31.1184 21.5625 30.6087 21.5625 30.0063V9.91958C21.5625 9.31721 21.7771 8.81909 22.2064 8.42524C22.6357 8.00821 23.1842 7.7997 23.852 7.7997C24.4243 7.7997 24.9251 8.00821 25.3544 8.42524C25.8075 8.81909 26.0341 9.31721 26.0341 9.91958V28.651L25.2471 28.0602H35.3708Z" stroke="#EC5858" stroke-width="2"/>
<path d="M54.063 13.2558L46.336 30.9099C46.1691 31.3501 45.9068 31.6976 45.549 31.9525C45.2151 32.1842 44.8455 32.3 44.4401 32.3C43.7962 32.3 43.3192 32.1262 43.0092 31.7787C42.6991 31.4312 42.5441 31.0026 42.5441 30.4929C42.5441 30.2844 42.5799 30.0643 42.6514 29.8326L51.5589 9.05077C51.7497 8.58741 52.0358 8.22831 52.4174 7.97346C52.8228 7.71861 53.2521 7.61435 53.7052 7.66069C54.1345 7.66069 54.528 7.78811 54.8857 8.04296C55.2673 8.27464 55.5416 8.61058 55.7085 9.05077L64.5086 29.4156C64.6279 29.7167 64.6875 29.9948 64.6875 30.2496C64.6875 30.8752 64.4729 31.3733 64.0436 31.744C63.6382 32.1146 63.185 32.3 62.6842 32.3C62.2549 32.3 61.8614 32.1726 61.5037 31.9177C61.1698 31.6629 60.9075 31.3153 60.7167 30.8752L53.0256 13.4643L54.063 13.2558ZM47.445 26.6701L49.4125 22.6736H59.0712L59.7508 26.6701H47.445Z" stroke="#EC5858" stroke-width="2"/>
</svg>
