<svg width="47" height="45" viewBox="0 0 47 45" fill="none" xmlns="http://www.w3.org/2000/svg">
<path d="M20.8865 1.63672C22.0341 -0.39921 24.9659 -0.39921 26.1135 1.63672L31.5544 11.29C31.9825 12.0495 32.7199 12.5852 33.5745 12.7577L44.4367 14.9493C46.7276 15.4116 47.6335 18.1999 46.0519 19.9204L38.5524 28.0781C37.9624 28.7199 37.6807 29.5868 37.7808 30.4529L39.053 41.4606C39.3213 43.7822 36.9494 45.5055 34.8244 44.5329L24.7485 39.9214C23.9557 39.5586 23.0443 39.5586 22.2515 39.9214L12.1756 44.5329C10.0506 45.5055 7.67866 43.7822 7.94698 41.4606L9.21918 30.4529C9.31927 29.5868 9.03763 28.7199 8.44757 28.0781L0.948132 19.9204C-0.633548 18.1999 0.272436 15.4116 2.56333 14.9493L13.4255 12.7577C14.2801 12.5852 15.0175 12.0495 15.4456 11.29L20.8865 1.63672Z" fill="#F4C222"/>
</svg>
