<svg width="70" height="58" viewBox="0 0 70 58" fill="none" xmlns="http://www.w3.org/2000/svg">
<path opacity="0.5" d="M6.2247 31.0322C6.2247 31.0322 8.27995 33.8476 10.1311 33.8632C11.9823 33.8788 14.7813 32.4856 14.7813 32.4856C14.7813 32.4856 16.4317 28.6758 15.26 27.2089C15.26 27.2089 14.0968 26.7175 12.8996 27.6283C12.6704 27.8055 12.4632 28.0093 12.2822 28.2356C12.0365 28.5514 11.7009 28.7854 11.3196 28.9067C10.0034 29.3229 8.42408 28.4054 7.84919 29.3206C7.56776 29.7694 7.22982 30.1801 6.84367 30.5426C6.65161 30.7231 6.44454 30.8868 6.2247 31.0322Z" fill="#AEC3FF"/>
<path opacity="0.5" d="M32.8104 51.1917C32.8104 51.1917 25.4505 33.9939 12.6022 33.8311C12.6022 33.8311 0.76304 35.302 0.315842 51.613L32.8104 51.1917Z" fill="#AEC3FF"/>
<path d="M16.1282 34.3138C16.1282 34.3138 10.9944 35.5268 9.39757 34.8732C9.39757 34.8732 9.12895 32.7235 11.3013 32.9976C12.7879 33.1868 13.7456 32.4594 14.3129 32.1623C15.1089 31.7424 16.3301 33.4097 16.1282 34.3138Z" fill="#8C9DF4"/>
<path opacity="0.5" d="M11.6048 31.127C11.9342 31.3697 12.8997 27.6282 12.8997 27.6282C12.6705 27.8054 12.4633 28.0092 12.2823 28.2355C12.0366 28.5513 11.701 28.7853 11.3197 28.9066C11.3169 29.0161 11.2818 30.8904 11.6048 31.127Z" fill="#AEC3FF"/>
<path opacity="0.5" d="M6.8438 30.5425C6.91729 30.5843 9.31682 31.9799 9.63985 31.9757C9.96288 31.9716 7.84931 29.3205 7.84931 29.3205C7.56789 29.7692 7.22995 30.1799 6.8438 30.5425Z" fill="#AEC3FF"/>
<path opacity="0.5" d="M25.7764 46.4523C25.9073 46.337 20.6278 38.8881 19.1995 38.8514C17.7712 38.8146 14.588 40.5578 12.2692 40.8078C9.95043 41.0578 7.69111 40.4284 7.27026 41.8106C6.84942 43.1928 5.70473 48.0695 6.45571 48.8383C7.20668 49.6071 22.958 48.9224 25.7764 46.4523Z" fill="#AEC3FF"/>
<path d="M55.2808 14.2864C57.5145 15.7956 60.5487 15.2083 62.0579 12.9746C63.5671 10.7409 62.9798 7.70667 60.7461 6.19746C58.5124 4.68824 55.4782 5.27554 53.969 7.50923C52.4598 9.74292 53.0471 12.7771 55.2808 14.2864Z" fill="#E2810E"/>
<path d="M56.9795 15.0117C56.9098 15.0029 56.8396 14.9925 56.7697 14.9806C56.7461 14.9766 56.7224 14.9722 56.699 14.968C56.6452 14.958 56.5923 14.9473 56.5395 14.9359C55.345 14.6716 54.2933 13.9683 53.5926 12.9654C52.892 11.9624 52.5935 10.733 52.7562 9.52039C52.919 8.30782 53.5312 7.20058 54.4715 6.41791C55.4118 5.63525 56.6118 5.23422 57.8337 5.29423C58.0301 5.30418 58.2256 5.32581 58.4193 5.359C58.49 5.37091 58.5598 5.38445 58.629 5.39961C58.696 5.41404 58.763 5.43019 58.8288 5.44719C59.3211 5.57548 59.7904 5.77999 60.2196 6.05331C61.1543 6.64978 61.8582 7.54669 62.2153 8.59646C62.5724 9.64623 62.5615 10.7863 62.1844 11.829C61.8072 12.8718 61.0863 13.7551 60.1403 14.3335C59.1943 14.912 58.0796 15.1511 56.9795 15.0117Z" fill="#FFB93E"/>
<path d="M54.8609 13.6504C54.538 13.3922 54.2532 13.0897 54.0148 12.7519C53.383 11.8532 53.115 10.7484 53.265 9.66007C53.4151 8.57173 53.9718 7.58064 54.8233 6.88637C55.6747 6.19209 56.7576 5.8462 57.8539 5.91833C58.9501 5.99047 59.9783 6.47527 60.7315 7.27513C61.4846 8.07499 61.9067 9.13049 61.9128 10.2291C61.9189 11.3277 61.5086 12.3878 60.7644 13.196C60.0202 14.0042 58.9974 14.5004 57.902 14.5847C56.8066 14.669 55.72 14.3352 54.8609 13.6504ZM60.2336 6.89645C59.5035 6.31595 58.603 5.99141 57.6705 5.97278C56.7379 5.95414 55.8251 6.24244 55.0725 6.79331C54.3198 7.34419 53.7691 8.12711 53.5049 9.02163C53.2407 9.91614 53.2778 10.8727 53.6104 11.7441C53.943 12.6154 54.5527 13.3534 55.3458 13.8444C56.1388 14.3353 57.0712 14.5521 57.9995 14.4613C58.9277 14.3706 59.8005 13.9773 60.4834 13.3421C61.1663 12.7068 61.6216 11.8647 61.7791 10.9454C61.9104 10.1939 61.8361 9.42081 61.5641 8.70805C61.292 7.99528 60.8323 7.36934 60.2336 6.89645Z" fill="#FFA412"/>
<path d="M59.002 11.9013C59.0095 11.8766 59.016 11.852 59.0222 11.8276C59.0679 11.6599 59.0788 11.4846 59.0544 11.3125C59.0257 11.1326 58.96 10.9607 58.8614 10.8075C58.7514 10.6383 58.6191 10.4847 58.4679 10.3509C58.306 10.2047 58.1227 10.0545 57.918 9.9002C57.8089 9.81986 57.7046 9.7331 57.6057 9.64037C57.5336 9.57394 57.4714 9.49745 57.4212 9.41326C57.3816 9.34617 57.3581 9.27083 57.3525 9.19314C57.3492 9.11466 57.3594 9.03618 57.3829 8.96119C57.4051 8.88347 57.4399 8.80993 57.486 8.74351C57.5289 8.68148 57.5851 8.62983 57.6505 8.59235C57.7205 8.55402 57.7982 8.5318 57.8778 8.52731C57.9756 8.52157 58.0736 8.53406 58.1669 8.56414C58.3642 8.62249 58.5021 8.73465 58.5808 8.90063C58.6594 9.06661 58.6588 9.28181 58.5791 9.54623L59.608 9.85076C59.6712 9.64839 59.6992 9.43668 59.6909 9.22483C59.6835 9.03833 59.6387 8.85521 59.5592 8.68631C59.4798 8.51742 59.3672 8.36619 59.2283 8.24157C59.0784 8.10565 58.907 7.99541 58.7212 7.91531L58.9338 7.19774L58.3641 7.02899L58.1545 7.73671C57.951 7.69418 57.7422 7.68266 57.5352 7.70255C57.3525 7.72025 57.1745 7.77047 57.0094 7.85085C56.8538 7.92759 56.716 8.0363 56.6052 8.16989C56.3658 8.4741 56.2561 8.86054 56.3 9.24519C56.3288 9.42467 56.3948 9.59615 56.4939 9.74858C56.6046 9.91722 56.7379 10.0698 56.8902 10.2022C57.0681 10.3598 57.254 10.5082 57.4472 10.6468C57.5536 10.7206 57.6544 10.8022 57.749 10.8907C57.8204 10.9571 57.8819 11.0335 57.9315 11.1175C57.9723 11.1878 57.9968 11.2663 58.0029 11.3473C58.0065 11.4338 57.9948 11.5203 57.9684 11.6027C57.9464 11.6805 57.9091 11.7532 57.8587 11.8165C57.81 11.8773 57.7479 11.9261 57.6771 11.9588C57.5993 11.9941 57.5152 12.0133 57.4298 12.0154C57.326 12.0174 57.2224 12.0025 57.1234 11.9712C57.0266 11.9426 56.9341 11.9013 56.8481 11.8485C56.763 11.7962 56.6906 11.7256 56.6364 11.6417C56.5789 11.55 56.5441 11.446 56.5347 11.3382C56.524 11.1991 56.541 11.0593 56.5847 10.9268L55.556 10.622C55.4774 10.8864 55.4528 11.1262 55.4823 11.3412C55.5071 11.5442 55.5759 11.7394 55.6838 11.913C55.7902 12.0811 55.9275 12.2273 56.0886 12.344C56.2534 12.465 56.4325 12.5653 56.6219 12.6424L56.4278 13.2972L56.995 13.4657L57.19 12.8077C57.3947 12.8501 57.6045 12.8634 57.8129 12.847C57.9827 12.8343 58.1491 12.793 58.3051 12.725C58.317 12.7195 58.3288 12.714 58.3399 12.7089C58.4957 12.6336 58.6338 12.5262 58.745 12.3936C58.864 12.2492 58.9515 12.0815 59.002 11.9013Z" fill="#FFA412"/>
<path d="M44.6659 15.0666L43.0639 14.6374C42.6343 14.5223 42.1928 14.7772 42.0777 15.2067L41.4787 17.4422C41.3636 17.8718 41.6185 18.3133 42.0481 18.4284L43.6501 18.8577C44.0797 18.9728 44.5212 18.7178 44.6363 18.2883L45.2353 16.0528C45.3504 15.6232 45.0955 15.1817 44.6659 15.0666Z" fill="#22BAAF"/>
<path d="M44.6659 15.0666L43.0639 14.6374C42.6343 14.5223 42.1928 14.7772 42.0777 15.2067L41.744 16.4524C41.6289 16.8819 41.8838 17.3234 42.3133 17.4385L43.9154 17.8678C44.3449 17.9829 44.7864 17.728 44.9015 17.2984L45.2353 16.0528C45.3504 15.6232 45.0955 15.1817 44.6659 15.0666Z" fill="#45E0D5"/>
<path d="M62.681 21.925C62.3847 23.035 61.8671 24.0736 61.1593 24.9785C59.0954 27.6225 55.5658 28.9329 52.1352 28.0137L49.7571 27.3765C46.7214 26.5631 44.4934 24.1997 43.6966 21.3653C43.3328 20.072 43.2784 18.7112 43.5379 17.393C43.7973 16.0747 44.3634 14.8361 45.1902 13.7771C47.2562 11.1343 50.7841 9.82098 54.2147 10.7402L56.5928 11.3774C59.7125 12.2133 61.9793 14.6869 62.7158 17.6265C63.0712 19.0389 63.0592 20.5186 62.681 21.925Z" fill="#22BAAF"/>
<path d="M54.4884 24.8607L52.3626 29.69C52.3142 29.7747 52.2859 29.8693 52.2798 29.9666C52.2737 30.064 52.29 30.1614 52.3275 30.2514C52.3649 30.3414 52.4226 30.4217 52.4959 30.4859C52.5693 30.5502 52.6564 30.5967 52.7506 30.622L54.7895 31.1684C55.0038 31.2258 55.2298 31.2231 55.4427 31.1606C55.6556 31.0981 55.8472 30.9782 55.9965 30.8141L60.8594 25.3418L54.4884 24.8607Z" fill="#22BAAF"/>
<path d="M49.8231 23.7024L49.119 28.8203C49.1186 28.9178 49.0958 29.0139 49.0524 29.1012C49.0091 29.1886 48.9462 29.2648 48.8687 29.324C48.7913 29.3832 48.7013 29.4239 48.6056 29.4429C48.51 29.4618 48.4112 29.4586 48.317 29.4334L46.2781 28.8871C46.0644 28.8293 45.8707 28.7139 45.7181 28.5535C45.5655 28.3931 45.4599 28.1938 45.4128 27.9775L43.6968 21.3653L49.8231 23.7024Z" fill="#22BAAF"/>
<path d="M64.0567 24.7168C64.0091 24.7042 63.9634 24.6853 63.9208 24.6606C63.5852 24.4691 63.494 23.9819 63.6828 23.3899C63.8685 22.8094 64.2804 22.2562 64.8146 21.8677C65.0494 21.6971 65.3066 21.5597 65.5789 21.4594C65.514 21.2355 65.4065 21.0261 65.2623 20.8429C64.9959 20.5035 64.6708 20.3394 64.2688 20.3407C63.1878 20.3443 61.9474 21.5566 61.8346 21.6994C61.8055 21.7314 61.7658 21.7517 61.7228 21.7566C61.6799 21.7615 61.6366 21.7507 61.6011 21.7261C61.5655 21.7015 61.5401 21.6649 61.5295 21.623C61.5189 21.5811 61.5239 21.5367 61.5435 21.4982C61.5974 21.4166 61.9615 21.0557 62.4246 20.7208C63.2304 20.1414 63.8348 20.0014 64.1998 19.9865C64.7411 19.9645 65.1921 20.1784 65.5407 20.6224C65.7115 20.8394 65.8394 21.0869 65.9176 21.3518C66.3314 21.2503 66.7596 21.2214 67.1832 21.2664C67.2248 21.2766 67.2613 21.3014 67.2862 21.3362C67.311 21.3711 67.3225 21.4137 67.3185 21.4563C67.3146 21.4989 67.2954 21.5387 67.2646 21.5684C67.2338 21.5981 67.1933 21.6157 67.1506 21.6181C66.763 21.5765 66.3711 21.6038 65.9929 21.6985C66.0262 21.9703 66.0175 22.2456 65.9671 22.5147C65.8558 23.1146 65.5895 23.6749 65.1946 24.14C64.7992 24.5991 64.3855 24.8049 64.0567 24.7168ZM65.6463 21.8127C65.4244 21.9 65.2143 22.0149 65.0211 22.1547C64.547 22.4983 64.1816 22.9882 64.019 23.4985C63.8897 23.9031 63.9208 24.2559 64.0973 24.3561C64.2737 24.4564 64.6156 24.2751 64.9283 23.9128C65.2806 23.4953 65.519 22.9937 65.6203 22.4569C65.658 22.2443 65.6668 22.0276 65.6463 21.8127ZM61.8371 21.697L61.8363 21.6999C61.8363 21.6999 61.8367 21.6963 61.8374 21.6959L61.8371 21.697Z" fill="#22BAAF"/>
<path d="M62.7154 17.6283C62.6562 18.6401 62.1335 19.97 61.686 20.6283C58.7137 25.0071 54.5354 24.8203 50.4034 24.1069C47.4685 23.6002 43.6966 21.3653 43.6966 21.3653C43.3328 20.072 43.2784 18.7112 43.5379 17.393C43.7973 16.0747 44.3634 14.8361 45.1902 13.7771C47.2562 11.1343 50.7841 9.82098 54.2147 10.7402L56.5928 11.3774C59.7125 12.2133 61.9788 14.6886 62.7154 17.6283Z" fill="#45E0D5"/>
<path d="M52.6757 12.563L49.4043 11.6864C49.0744 11.598 48.8607 11.3264 48.9269 11.0792L50.1237 6.61271C50.1436 6.53903 50.1857 6.47328 50.2444 6.42448C50.4658 6.23737 50.9123 6.25166 51.178 6.51323C52.2317 7.54968 53.856 9.62499 53.4004 12.2452C53.3535 12.5099 53.0212 12.6556 52.6757 12.563Z" fill="#45E0D5"/>
<path d="M49.5376 11.7221L49.4042 11.6864C49.0742 11.598 48.8606 11.3263 48.9268 11.0791L50.1236 6.61265C50.1434 6.53897 50.1856 6.47322 50.2442 6.42442C50.2552 6.44037 50.2652 6.45703 50.274 6.47429C50.7726 7.45564 51.3804 9.28447 50.5086 11.384C50.3817 11.6895 49.9618 11.8358 49.5376 11.7221Z" fill="#22BAAF"/>
<path d="M47.0129 14.2457C47.0388 14.1493 47.0926 14.0627 47.1677 13.9969C47.2427 13.9311 47.3356 13.889 47.4345 13.876C47.5335 13.863 47.6341 13.8796 47.7236 13.9237C47.8131 13.9679 47.8875 14.0376 47.9374 14.124C47.9874 14.2105 48.0105 14.3098 48.004 14.4094C47.9974 14.5089 47.9615 14.6044 47.9008 14.6836C47.84 14.7627 47.7571 14.8221 47.6626 14.8542C47.5681 14.8863 47.4662 14.8896 47.3698 14.8638C47.2405 14.8292 47.1303 14.7446 47.0634 14.6287C46.9964 14.5128 46.9783 14.375 47.0129 14.2457Z" fill="#2B478B"/>
<path d="M58.6815 56.5703L30.2334 51.7274L30.1634 52.1384L58.6115 56.9812L58.6815 56.5703Z" fill="#CCE7FF"/>
<path d="M58.9031 57.0313L29.8721 52.0893L29.8021 52.5002L58.8331 57.4423L58.9031 57.0313Z" fill="#4D98D3"/>
<path d="M59.2331 57.5104L29.4014 52.4321L29.3314 52.843L59.1631 57.9214L59.2331 57.5104Z" fill="#4EA3E7"/>
<path d="M60.1781 40.652L33.5732 36.123L30.8975 51.841L57.5024 56.37L60.1781 40.652Z" fill="#4EA3E7"/>
<path d="M61.9333 41.2591L31.9439 36.1539L48.5289 31.0145L61.9333 41.2591Z" fill="#CCE7FF"/>
<path d="M36.6719 35.896L57.5645 39.4074L48.2852 32.3803L36.6719 35.896Z" fill="#1771B9"/>
<path d="M61.2963 41.1505L32.7266 36.287L32.6138 36.9494L61.1836 41.8129L61.2963 41.1505Z" fill="#4EA3E7"/>
<path d="M37.7131 36.8278L34.8989 36.3487L34.726 37.3643L37.5402 37.8433L37.7131 36.8278Z" fill="#CCE7FF"/>
<path d="M36.9085 37.7358L35.3574 37.4718L32.8546 52.1742L34.4057 52.4382L36.9085 37.7358Z" fill="#CCE7FF"/>
<path d="M43.7937 37.8629L40.9795 37.3839L40.8066 38.3995L43.6208 38.8785L43.7937 37.8629Z" fill="#CCE7FF"/>
<path d="M42.9891 38.771L41.438 38.507L38.9351 53.2094L40.4863 53.4734L42.9891 38.771Z" fill="#CCE7FF"/>
<path d="M53.3527 39.4903L50.5386 39.0112L50.3657 40.0268L53.1799 40.5059L53.3527 39.4903Z" fill="#CCE7FF"/>
<path d="M52.5482 40.3983L50.9971 40.1342L48.4942 54.8366L50.0453 55.1007L52.5482 40.3983Z" fill="#CCE7FF"/>
<path d="M59.0783 40.4649L56.2642 39.9858L56.0913 41.0014L58.9054 41.4805L59.0783 40.4649Z" fill="#CCE7FF"/>
<path d="M58.2738 41.3731L56.7227 41.109L54.2198 55.8114L55.7709 56.0754L58.2738 41.3731Z" fill="#CCE7FF"/>
<path d="M48.0537 35.7958C48.0626 35.7537 48.0638 35.7103 48.0573 35.6677C48.05 35.628 48.0339 35.5905 48.0101 35.5579C47.9819 35.5191 47.9481 35.4846 47.9099 35.4556C47.8579 35.4166 47.8032 35.3815 47.7461 35.3506C47.6434 35.2925 47.5439 35.229 47.4479 35.1605C47.3658 35.1032 47.2919 35.0348 47.2285 34.9573C47.1717 34.887 47.1303 34.8056 47.1068 34.7184C47.0649 34.5309 47.0983 34.3345 47.1999 34.1715C47.2484 34.1006 47.3111 34.0405 47.384 33.9952C47.4615 33.947 47.5469 33.9129 47.6364 33.8947C47.7374 33.874 47.841 33.8688 47.9436 33.8793L48.0108 33.5191L48.301 33.5726L48.233 33.938C48.3288 33.9665 48.4195 34.0104 48.5014 34.0678C48.5766 34.1221 48.6402 34.191 48.6882 34.2704C48.7362 34.3498 48.7677 34.4381 48.7808 34.53C48.7959 34.6341 48.793 34.74 48.7722 34.8431L48.2484 34.7457C48.2771 34.639 48.265 34.5253 48.2144 34.4271C48.1904 34.388 48.1581 34.3548 48.1198 34.3298C48.0814 34.3047 48.038 34.2885 47.9926 34.2823C47.9451 34.2721 47.896 34.2709 47.848 34.2788C47.809 34.2853 47.772 34.3005 47.7398 34.3234C47.7095 34.345 47.6845 34.3734 47.6669 34.4062C47.648 34.4409 47.6346 34.4783 47.6274 34.5171C47.6195 34.5557 47.6185 34.5953 47.6246 34.6342C47.6311 34.6724 47.6465 34.7084 47.6696 34.7395C47.6987 34.7785 47.7335 34.8129 47.7727 34.8418C47.8264 34.8826 47.8824 34.9202 47.9405 34.9544C48.0472 35.019 48.1478 35.0844 48.2351 35.1481C48.317 35.2062 48.3906 35.2753 48.4536 35.3535C48.5102 35.4241 48.5515 35.5056 48.5752 35.5929C48.6171 35.7818 48.5824 35.9795 48.4786 36.1428C48.431 36.2166 48.3678 36.2791 48.2934 36.3259C48.2161 36.373 48.1308 36.4055 48.0418 36.4219C47.9401 36.4407 47.8362 36.445 47.7333 36.4346L47.6709 36.7698L47.3825 36.716L47.4446 36.3825C47.347 36.3544 47.2533 36.3143 47.1655 36.2633C47.08 36.2138 47.0045 36.1487 46.943 36.0713C46.8804 35.9909 46.8361 35.8979 46.813 35.7987C46.7872 35.6805 46.7868 35.5581 46.8117 35.4397L47.3363 35.5367C47.3217 35.6044 47.3204 35.6742 47.3324 35.7424C47.343 35.7941 47.3653 35.8425 47.3977 35.8841C47.4287 35.9228 47.468 35.954 47.5127 35.9754C47.558 35.9971 47.606 36.0126 47.6554 36.0215C47.7059 36.0319 47.7578 36.0339 47.809 36.0276C47.8506 36.0228 47.8909 36.0096 47.9273 35.989C47.9606 35.9693 47.9888 35.9421 48.0097 35.9095C48.032 35.875 48.047 35.8363 48.0537 35.7958Z" fill="#CCE7FF"/>
<path d="M45.0997 48.0538L45.4426 48.1122C45.8951 48.1894 46.2984 48.4431 46.5639 48.8176C46.8293 49.1921 46.9351 49.6567 46.8581 50.1092L46.1222 54.4322L42.2621 53.7751L42.9803 49.5567C43.062 49.0763 43.3313 48.6481 43.7287 48.3663C44.1262 48.0845 44.6194 47.9721 45.0997 48.0538Z" fill="#1771B9"/>
<path d="M43.9879 41.7509L44.1502 41.7785C44.2564 41.796 44.358 41.8344 44.4493 41.8913C44.5407 41.9483 44.6198 42.0227 44.6823 42.1103C44.7447 42.198 44.7893 42.2971 44.8133 42.402C44.8374 42.5068 44.8404 42.6155 44.8224 42.7215L44.475 44.7625L42.6512 44.452L42.9902 42.4608C43.0293 42.2348 43.156 42.0334 43.3429 41.9005C43.5298 41.7675 43.7616 41.7137 43.9879 41.7509Z" fill="#1771B9"/>
<path d="M38.6524 40.8426L38.8147 40.8702C39.0282 40.9066 39.2186 41.0263 39.3439 41.203C39.4692 41.3798 39.5192 41.599 39.4829 41.8126L39.1354 43.8535L37.3128 43.5432L37.6518 41.552C37.691 41.3256 37.8182 41.1238 38.0057 40.9909C38.1932 40.8579 38.4257 40.8046 38.6524 40.8426Z" fill="#1771B9"/>
<path d="M37.6123 46.9527L37.7746 46.9804C37.9882 47.0167 38.1786 47.1364 38.3039 47.3132C38.4292 47.4899 38.4792 47.7092 38.4428 47.9227L38.0954 49.9636L36.2728 49.6534L36.6118 47.6622C36.6509 47.4357 36.7782 47.234 36.9657 47.101C37.1532 46.9681 37.3856 46.9148 37.6123 46.9527Z" fill="#1771B9"/>
<path d="M54.1143 43.4747L54.2749 43.5021C54.4884 43.5384 54.6788 43.6581 54.8041 43.8349C54.9294 44.0116 54.9794 44.2309 54.9431 44.4444L54.5956 46.4853L52.7748 46.1754L53.1137 44.1842C53.1529 43.9577 53.2801 43.756 53.4676 43.623C53.6551 43.4901 53.8876 43.4368 54.1143 43.4747Z" fill="#1771B9"/>
<path d="M53.0742 49.5849L53.2348 49.6122C53.4484 49.6486 53.6388 49.7683 53.7641 49.945C53.8894 50.1217 53.9394 50.341 53.903 50.5546L53.5556 52.5955L51.7347 52.2855L52.0737 50.2943C52.1129 50.0679 52.2401 49.8661 52.4276 49.7332C52.6151 49.6002 52.8476 49.5469 53.0742 49.5849Z" fill="#1771B9"/>
<path d="M48.5996 42.5359L48.7619 42.5635C48.9755 42.5999 49.1659 42.7196 49.2912 42.8963C49.4165 43.073 49.4665 43.2923 49.4301 43.5059L49.0827 45.5468L47.2601 45.2365L47.5991 43.2453C47.6383 43.0188 47.7655 42.8171 47.953 42.6842C48.1405 42.5512 48.3729 42.4979 48.5996 42.5359Z" fill="#1771B9"/>
<path d="M32.4604 3.13606C32.4604 3.13606 31.9143 4.50401 31.1585 4.70428C30.4028 4.90455 29.1103 4.62875 29.1103 4.62875C29.1103 4.62875 28.0359 3.24337 28.3613 2.5198C28.3613 2.5198 28.7857 2.19744 29.3705 2.44405C29.4838 2.49211 29.5908 2.55365 29.6893 2.62736C29.8231 2.73072 29.9851 2.79128 30.1539 2.80109C30.7358 2.83444 31.2853 2.29027 31.6166 2.6066C31.7788 2.76075 31.9601 2.89342 32.1561 3.00135C32.2536 3.05477 32.3553 3.09983 32.4604 3.13606Z" fill="#FFEDDC"/>
<path d="M23.6967 14.1716C23.6967 14.1716 24.9045 6.36237 30.1444 4.95018C30.1444 4.95018 35.1427 4.31091 37.0354 10.9371L23.6967 14.1716Z" fill="#FFEDDC"/>
<path d="M28.7533 5.51748C28.7533 5.51748 30.9803 5.47506 31.5657 5.04068C31.5657 5.04068 31.4498 4.13281 30.5896 4.47252C30.0014 4.70514 29.5336 4.50914 29.2715 4.44651C28.8998 4.35723 28.5755 5.16887 28.7533 5.51748Z" fill="#DB6A1D"/>
<path d="M30.2689 3.73933C30.1588 3.87576 29.3721 2.44366 29.3721 2.44366C29.4853 2.49172 29.5923 2.55326 29.6908 2.62697C29.8247 2.73033 29.9866 2.79089 30.1554 2.8007C30.1647 2.84344 30.376 3.60857 30.2689 3.73933Z" fill="#E5C1A1"/>
<path d="M32.1557 3.00146C32.1298 3.02584 31.2945 3.84835 31.1619 3.88052C31.0292 3.91269 31.6161 2.6067 31.6161 2.6067C31.7783 2.76085 31.9597 2.89352 32.1557 3.00146Z" fill="#E5C1A1"/>
<path d="M26.0776 11.4951C26.0121 11.4622 27.3909 7.86067 27.9714 7.69576C28.5519 7.53085 30.0364 7.90824 31.0118 7.76992C31.9872 7.63159 32.8449 7.13448 33.1618 7.654C33.4787 8.17353 34.4589 10.0503 34.2322 10.4438C34.0056 10.8372 27.4894 12.2105 26.0776 11.4951Z" fill="#F9DDBF"/>
<path d="M41.9002 24.7599L42.0921 25.5512C42.1065 25.6135 42.0989 25.6789 42.0706 25.7363C42.039 25.8007 41.9896 25.8545 41.9283 25.8915C41.9084 25.904 41.8875 25.9148 41.8658 25.9237C41.8453 25.932 41.8242 25.9387 41.8027 25.9439L26.8033 29.5812C26.622 29.6252 26.4433 29.5489 26.3809 29.4093C26.3769 29.3997 26.3734 29.3899 26.3705 29.38C26.3692 29.3748 26.368 29.3696 26.3667 29.3644L26.1748 28.5732C26.1736 28.568 26.1725 28.5634 26.1712 28.5582C26.1693 28.548 26.1679 28.5377 26.167 28.5274C26.1585 28.3747 26.2824 28.2251 26.4638 28.1811L41.4632 24.5439C41.4846 24.5384 41.5065 24.5347 41.5286 24.5329C41.5519 24.5308 41.5753 24.5306 41.5987 24.5324C41.6702 24.5372 41.7388 24.5625 41.7963 24.6052C41.8477 24.6432 41.8844 24.6979 41.9002 24.7599Z" fill="#FFB93E"/>
<path d="M34.8001 27.642L26.7644 29.5906C26.6953 29.6082 26.6225 29.603 26.5566 29.5759C26.4907 29.5488 26.4353 29.5011 26.3987 29.44C26.3924 29.4301 26.3867 29.4197 26.3819 29.409C26.3779 29.3994 26.3744 29.3897 26.3715 29.3797C26.3702 29.3745 26.3689 29.3694 26.3677 29.3642L26.1758 28.5729C26.1746 28.5677 26.1734 28.5631 26.1722 28.5579C26.1702 28.5477 26.1688 28.5374 26.168 28.5271C26.1674 28.5152 26.1676 28.5032 26.1686 28.4913C26.1733 28.4202 26.2007 28.3526 26.2469 28.2984C26.293 28.2442 26.3555 28.2063 26.4249 28.1905L33.472 26.4816C33.7609 27.0154 34.2324 27.4273 34.8001 27.642Z" fill="#FFA412"/>
<path d="M40.001 24.8984L39.8306 24.9398L40.1701 26.3398L40.3406 26.2985L40.001 24.8984Z" fill="#FFA412"/>
<path d="M39.4234 25.0383L39.2529 25.0797L39.5924 26.4798L39.7629 26.4384L39.4234 25.0383Z" fill="#FFA412"/>
<path d="M38.7315 25.2061L38.561 25.2475L38.9005 26.6476L39.071 26.6062L38.7315 25.2061Z" fill="#FFA412"/>
<path d="M37.671 25.4633L37.5005 25.5046L37.84 26.9047L38.0105 26.8634L37.671 25.4633Z" fill="#FFA412"/>
<path d="M36.5494 25.7354L36.3789 25.7767L36.7184 27.1768L36.8889 27.1355L36.5494 25.7354Z" fill="#FFA412"/>
<path d="M34.8301 26.1524L34.6597 26.1937L34.9992 27.5938L35.1697 27.5524L34.8301 26.1524Z" fill="#FFA412"/>
<path d="M33.2198 26.5426L33.0493 26.584L33.3888 27.9841L33.5593 27.9427L33.2198 26.5426Z" fill="#FFA412"/>
<path d="M31.7823 26.8914L31.6118 26.9327L31.9513 28.3328L32.1218 28.2915L31.7823 26.8914Z" fill="#FFA412"/>
<path d="M40.5504 24.7652L40.3799 24.8066L40.7194 26.2067L40.8899 26.1653L40.5504 24.7652Z" fill="#FFA412"/>
<path d="M40.9132 24.6771L40.7427 24.7184L41.0822 26.1185L41.2527 26.0772L40.9132 24.6771Z" fill="#FFA412"/>
<path d="M41.2632 24.5922L41.0928 24.6335L41.4323 26.0336L41.6028 25.9923L41.2632 24.5922Z" fill="#FFA412"/>
<path d="M41.5283 24.5329L41.8654 25.9231C41.8451 25.9318 41.824 25.9388 41.8024 25.9439L41.6962 25.9697L41.3569 24.5706L41.4632 24.5449C41.4846 24.5393 41.5063 24.5353 41.5283 24.5329Z" fill="#FFA412"/>
<path d="M41.7957 24.6051L42.07 25.7363C42.0388 25.8008 41.9893 25.8548 41.9277 25.8915L41.5981 24.5323C41.6696 24.5371 41.7382 24.5624 41.7957 24.6051Z" fill="#FFA412"/>
<path d="M39.9563 23.7488L40.148 24.5396C40.1627 24.6019 40.1555 24.6673 40.1277 24.725C40.0966 24.7898 40.0469 24.8439 39.9849 24.8803C39.9647 24.8925 39.9436 24.9031 39.9218 24.9121C39.9015 24.9205 39.8806 24.9274 39.8593 24.9327L24.8594 28.5701C24.6786 28.6139 24.4998 28.5371 24.438 28.3979C24.4339 28.3886 24.4303 28.379 24.4272 28.3693C24.426 28.3641 24.4247 28.3589 24.4233 28.3532L24.2315 27.562C24.2302 27.5568 24.229 27.5516 24.2277 27.5464C24.226 27.5364 24.2248 27.5262 24.2242 27.516C24.2152 27.3635 24.3391 27.2138 24.5199 27.17L39.5198 23.5326L39.5488 23.5256L39.5587 23.5232L39.5722 23.5199L39.5815 23.5177C39.6049 23.5151 39.6286 23.5149 39.6521 23.517C39.6654 23.5181 39.6786 23.5198 39.6918 23.5222L39.7177 23.5274L39.7331 23.5319L39.7468 23.5363C39.7648 23.5417 39.7823 23.549 39.7987 23.5583L39.8144 23.5665L39.8234 23.572C39.8234 23.572 39.8266 23.5713 39.8281 23.5753L39.8325 23.5775C39.8385 23.5812 39.8443 23.5853 39.8497 23.5898C39.9029 23.6285 39.9407 23.6849 39.9563 23.7488Z" fill="#FFB93E"/>
<path d="M32.8569 26.6308L24.8207 28.5795C24.7516 28.5971 24.6786 28.5919 24.6127 28.5646C24.5468 28.5374 24.4914 28.4897 24.4549 28.4284C24.4491 28.4183 24.4434 28.4082 24.4385 28.3973C24.4344 28.3879 24.4308 28.3784 24.4277 28.3686C24.4265 28.3635 24.4252 28.3583 24.4238 28.3526L24.2321 27.5619C24.2308 27.5567 24.2296 27.5515 24.2283 27.5463C24.2266 27.5362 24.2254 27.5261 24.2248 27.5159C24.222 27.5045 24.2244 27.4918 24.2249 27.4802C24.2294 27.4091 24.2568 27.3413 24.3029 27.287C24.3491 27.2327 24.4116 27.1948 24.481 27.1789L31.5281 25.47C31.534 25.4807 31.5399 25.4913 31.5464 25.5024C31.8365 26.0213 32.3007 26.421 32.8569 26.6308Z" fill="#FFA412"/>
<path d="M38.0572 23.8867L37.8867 23.928L38.2262 25.3281L38.3967 25.2868L38.0572 23.8867Z" fill="#FFA412"/>
<path d="M37.4805 24.0267L37.3101 24.0681L37.6496 25.4681L37.82 25.4268L37.4805 24.0267Z" fill="#FFA412"/>
<path d="M36.7886 24.1944L36.6182 24.2358L36.9577 25.6359L37.1282 25.5945L36.7886 24.1944Z" fill="#FFA412"/>
<path d="M35.7276 24.4516L35.5571 24.493L35.8966 25.8931L36.0671 25.8517L35.7276 24.4516Z" fill="#FFA412"/>
<path d="M34.606 24.7237L34.4355 24.765L34.7751 26.1651L34.9455 26.1238L34.606 24.7237Z" fill="#FFA412"/>
<path d="M32.8868 25.1406L32.7163 25.1819L33.0558 26.582L33.2263 26.5407L32.8868 25.1406Z" fill="#FFA412"/>
<path d="M31.2764 25.531L31.106 25.5723L31.4455 26.9724L31.6159 26.9311L31.2764 25.531Z" fill="#FFA412"/>
<path d="M29.8389 25.8797L29.6685 25.921L30.008 27.3211L30.1784 27.2797L29.8389 25.8797Z" fill="#FFA412"/>
<path d="M38.6065 23.7535L38.436 23.7949L38.7755 25.1949L38.946 25.1536L38.6065 23.7535Z" fill="#FFA412"/>
<path d="M38.9698 23.6654L38.7993 23.7068L39.1388 25.1068L39.3093 25.0655L38.9698 23.6654Z" fill="#FFA412"/>
<path d="M39.3204 23.5805L39.1499 23.6219L39.4894 25.0219L39.6599 24.9806L39.3204 23.5805Z" fill="#FFA412"/>
<path d="M39.5849 23.5212L39.9222 24.9119C39.9017 24.9202 39.8806 24.927 39.8591 24.9322L39.7528 24.958L39.4136 23.5589L39.5198 23.5331C39.5412 23.5276 39.563 23.5236 39.5849 23.5212Z" fill="#FFA412"/>
<path d="M39.8524 23.5919L40.1267 24.723C40.0951 24.7873 40.0457 24.8412 39.9844 24.8782L39.6553 23.5211C39.7264 23.5251 39.7949 23.5496 39.8524 23.5919Z" fill="#FFA412"/>
<path d="M40.4007 22.197L40.5925 22.9883C40.6071 23.0505 40.5997 23.1159 40.5716 23.1733C40.5399 23.2378 40.4903 23.2917 40.4287 23.3286C40.3902 23.3528 40.348 23.3705 40.3037 23.3809L25.3038 27.0183C25.2462 27.0322 25.1864 27.0342 25.128 27.0241C25.0762 27.0167 25.0269 26.997 24.9843 26.9665C24.9416 26.9361 24.907 26.8959 24.8831 26.8492C24.8815 26.8425 24.88 26.8363 24.8758 26.8302C24.8744 26.8258 24.8733 26.8213 24.8725 26.8167C24.8713 26.8115 24.87 26.8064 24.8687 26.8012L24.6769 26.0099C24.6754 26.005 24.6742 26 24.6732 25.9949C24.6713 25.9849 24.67 25.9748 24.6692 25.9646C24.6606 25.8114 24.7846 25.6623 24.9654 25.6185L39.9643 21.9813C39.9856 21.9759 40.0073 21.9723 40.0292 21.9706C40.0524 21.9681 40.0758 21.9678 40.0992 21.9695C40.1708 21.9747 40.2395 22.0001 40.2974 22.0427C40.3486 22.0807 40.3851 22.1352 40.4007 22.197Z" fill="#FFB93E"/>
<path d="M33.3003 25.0769L25.2641 27.0256C25.2123 27.0381 25.1584 27.0386 25.1064 27.0271C25.0576 27.0166 25.0119 26.9949 24.973 26.9637C24.9341 26.9325 24.903 26.8925 24.8823 26.8471C24.8806 26.8404 24.8791 26.8342 24.8749 26.8281C24.8736 26.8237 24.8725 26.8192 24.8717 26.8146C24.8704 26.8094 24.8691 26.8043 24.8679 26.7991L24.6765 26.0099C24.675 26.005 24.6738 25.9999 24.6729 25.9949C24.671 25.9849 24.6696 25.9747 24.6688 25.9646C24.6682 25.953 24.6685 25.9414 24.6697 25.9298C24.6737 25.8585 24.7009 25.7904 24.747 25.7358C24.7932 25.6813 24.8559 25.6432 24.9256 25.6275L31.9726 23.9186C32.2513 24.4333 32.6997 24.8354 33.2416 25.0565C33.261 25.0617 33.2805 25.0696 33.3003 25.0769Z" fill="#FFA412"/>
<path d="M38.501 22.3328L38.3306 22.3741L38.6701 23.7742L38.8406 23.7329L38.501 22.3328Z" fill="#FFA412"/>
<path d="M37.9244 22.4728L37.7539 22.5141L38.0934 23.9142L38.2639 23.8729L37.9244 22.4728Z" fill="#FFA412"/>
<path d="M37.2325 22.6405L37.062 22.6819L37.4015 24.082L37.572 24.0406L37.2325 22.6405Z" fill="#FFA412"/>
<path d="M36.1719 22.8978L36.0015 22.9391L36.341 24.3392L36.5115 24.2979L36.1719 22.8978Z" fill="#FFA412"/>
<path d="M35.0499 23.1698L34.8794 23.2112L35.2189 24.6113L35.3894 24.5699L35.0499 23.1698Z" fill="#FFA412"/>
<path d="M33.3301 23.5868L33.1597 23.6281L33.4992 25.0282L33.6697 24.9869L33.3301 23.5868Z" fill="#FFA412"/>
<path d="M31.7203 23.9772L31.5498 24.0186L31.8893 25.4187L32.0598 25.3773L31.7203 23.9772Z" fill="#FFA412"/>
<path d="M30.2828 24.3258L30.1123 24.3672L30.4518 25.7672L30.6223 25.7259L30.2828 24.3258Z" fill="#FFA412"/>
<path d="M39.0504 22.1997L38.8799 22.241L39.2194 23.6411L39.3899 23.5997L39.0504 22.1997Z" fill="#FFA412"/>
<path d="M39.4136 22.1117L39.2432 22.153L39.5827 23.5531L39.7532 23.5118L39.4136 22.1117Z" fill="#FFA412"/>
<path d="M39.7647 22.0266L39.5942 22.068L39.9337 23.4681L40.1042 23.4267L39.7647 22.0266Z" fill="#FFA412"/>
<path d="M40.0284 21.9679L40.3654 23.3577C40.3452 23.3661 40.3243 23.373 40.303 23.3783L40.1962 23.4042L39.857 22.0051L39.9637 21.9792C39.9849 21.9736 40.0066 21.9698 40.0284 21.9679Z" fill="#FFA412"/>
<path d="M40.2968 22.0401L40.5711 23.1713C40.5394 23.2357 40.4898 23.2896 40.4282 23.3266L40.0986 21.9674C40.1703 21.9718 40.2392 21.9971 40.2968 22.0401Z" fill="#FFA412"/>
<path d="M40.4203 20.7077L40.6121 21.4984C40.6266 21.5608 40.619 21.6262 40.5906 21.6836C40.5872 21.6913 40.5834 21.6989 40.579 21.7061C40.5571 21.7447 40.5282 21.7789 40.4937 21.8069C40.4787 21.8187 40.4631 21.8297 40.4468 21.8397C40.4268 21.8517 40.4058 21.8623 40.3843 21.8713L40.3535 21.8826L40.3209 21.8905L25.3231 25.5274C25.1417 25.5714 24.9629 25.4946 24.9006 25.3555C24.8967 25.3461 24.8933 25.3365 24.8904 25.3267L24.6912 24.5054C24.6645 24.3544 24.772 24.2005 24.9408 24.141C24.9553 24.1374 24.9698 24.1339 24.9843 24.1304L39.9837 20.4932L40.0163 20.4852C40.0271 20.4835 40.038 20.4823 40.049 20.4817C40.1439 20.4725 40.2389 20.498 40.3165 20.5535C40.3678 20.5914 40.4045 20.6459 40.4203 20.7077Z" fill="#FFB93E"/>
<path d="M33.3203 23.5897L25.2845 25.5383C25.2154 25.5558 25.1425 25.5505 25.0766 25.5233C25.0107 25.4961 24.9553 25.4484 24.9187 25.3873C24.9124 25.3773 24.9067 25.367 24.9018 25.3562C24.8979 25.3468 24.8945 25.3372 24.8916 25.3274L24.6922 24.5051C24.6807 24.4299 24.6959 24.3531 24.7353 24.288C24.7746 24.2229 24.8356 24.1737 24.9076 24.1489C24.9205 24.1458 24.9329 24.1428 24.9464 24.1395L31.9935 22.4307C32.2825 22.9636 32.7533 23.3749 33.3203 23.5897Z" fill="#FFA412"/>
<path d="M38.5211 20.8457L38.3506 20.887L38.6901 22.2871L38.8606 22.2458L38.5211 20.8457Z" fill="#FFA412"/>
<path d="M37.9439 20.9855L37.7734 21.0269L38.1129 22.4269L38.2834 22.3856L37.9439 20.9855Z" fill="#FFA412"/>
<path d="M37.252 21.1534L37.0815 21.1947L37.4211 22.5948L37.5915 22.5535L37.252 21.1534Z" fill="#FFA412"/>
<path d="M36.1915 21.4106L36.021 21.4519L36.3605 22.852L36.531 22.8107L36.1915 21.4106Z" fill="#FFA412"/>
<path d="M35.0694 21.6827L34.8989 21.724L35.2384 23.1241L35.4089 23.0827L35.0694 21.6827Z" fill="#FFA412"/>
<path d="M33.3502 22.0996L33.1797 22.1409L33.5192 23.541L33.6897 23.4997L33.3502 22.0996Z" fill="#FFA412"/>
<path d="M31.7403 22.4899L31.5698 22.5313L31.9093 23.9314L32.0798 23.89L31.7403 22.4899Z" fill="#FFA412"/>
<path d="M30.3023 22.8387L30.1318 22.88L30.4713 24.2801L30.6418 24.2388L30.3023 22.8387Z" fill="#FFA412"/>
<path d="M39.0704 20.7125L38.8999 20.7538L39.2394 22.1539L39.4099 22.1126L39.0704 20.7125Z" fill="#FFA412"/>
<path d="M39.4337 20.6244L39.2632 20.6657L39.6027 22.0658L39.7732 22.0245L39.4337 20.6244Z" fill="#FFA412"/>
<path d="M39.7838 20.5395L39.6133 20.5808L39.9528 21.9809L40.1233 21.9396L39.7838 20.5395Z" fill="#FFA412"/>
<path d="M40.0486 20.4802L40.3859 21.8715C40.3654 21.8798 40.3443 21.8865 40.3228 21.8917L40.2192 21.9169L39.8799 20.5178L39.9836 20.4927C40.0049 20.4869 40.0266 20.4828 40.0486 20.4802Z" fill="#FFA412"/>
<path d="M40.3164 20.5528L40.5906 21.6834C40.5589 21.7478 40.5093 21.8018 40.4477 21.8387L40.1182 20.4796C40.1899 20.4844 40.2588 20.5098 40.3164 20.5528Z" fill="#FFA412"/>
<path d="M38.9797 19.5791L39.1713 20.3693C39.186 20.4316 39.1788 20.4971 39.151 20.5548C39.1193 20.6194 39.0695 20.6735 39.0076 20.7102C38.988 20.7227 38.9672 20.7333 38.9456 20.7417C38.939 20.745 38.9321 20.7477 38.9251 20.75L38.9225 20.7506L38.9111 20.7534L23.8843 24.3973C23.6905 24.4443 23.5002 24.3543 23.4514 24.1961C23.4502 24.1909 23.4489 24.1857 23.4475 24.18L23.2564 23.3919C23.2552 23.3867 23.2538 23.381 23.2525 23.3758C23.2513 23.3718 23.2503 23.3676 23.2495 23.3634C23.2452 23.2933 23.2628 23.2235 23.3 23.1639C23.3371 23.1042 23.392 23.0576 23.4568 23.0306L23.4677 23.0279C23.4925 23.0166 23.5182 23.0076 23.5446 23.0011L38.5435 19.364C38.554 19.3608 38.5648 19.3582 38.5756 19.3562L38.5896 19.3528L38.6067 19.3486C38.6298 19.3468 38.6531 19.3466 38.6763 19.3482C38.7482 19.3529 38.8172 19.3782 38.875 19.4213C38.9273 19.46 38.9643 19.5159 38.9797 19.5791Z" fill="#FFB93E"/>
<path d="M31.8781 22.4587L23.8429 24.4072C23.7627 24.4288 23.6774 24.419 23.6042 24.3799C23.531 24.3407 23.4755 24.2752 23.4489 24.1966C23.4476 24.1914 23.4464 24.1862 23.445 24.1805L23.2539 23.3924C23.2526 23.3872 23.2513 23.3815 23.25 23.3763C23.2487 23.3722 23.2477 23.3681 23.247 23.3639C23.239 23.2963 23.2527 23.2279 23.2862 23.1687C23.3197 23.1095 23.3712 23.0625 23.4332 23.0345C23.4373 23.0318 23.4418 23.0297 23.4464 23.028C23.4646 23.0201 23.4834 23.0137 23.5027 23.0089L30.5498 21.3C30.5516 21.3032 30.5533 21.3064 30.5549 21.3098C30.8433 21.8376 31.3104 22.2455 31.8724 22.4601C31.8724 22.4601 31.8773 22.4578 31.8781 22.4587Z" fill="#FFA412"/>
<path d="M37.0792 19.715L36.9087 19.7564L37.2482 21.1565L37.4187 21.1151L37.0792 19.715Z" fill="#FFA412"/>
<path d="M36.502 19.8551L36.3315 19.8964L36.6711 21.2965L36.8415 21.2551L36.502 19.8551Z" fill="#FFA412"/>
<path d="M35.8101 20.0228L35.6396 20.0641L35.9792 21.4642L36.1496 21.4229L35.8101 20.0228Z" fill="#FFA412"/>
<path d="M34.7496 20.28L34.5791 20.3213L34.9186 21.7214L35.0891 21.6801L34.7496 20.28Z" fill="#FFA412"/>
<path d="M33.628 20.552L33.4575 20.5933L33.797 21.9934L33.9675 21.9521L33.628 20.552Z" fill="#FFA412"/>
<path d="M31.9088 20.969L31.7383 21.0103L32.0778 22.4104L32.2483 22.3691L31.9088 20.969Z" fill="#FFA412"/>
<path d="M30.2984 21.3594L30.1279 21.4008L30.4674 22.8009L30.6379 22.7595L30.2984 21.3594Z" fill="#FFA412"/>
<path d="M28.8604 21.708L28.6899 21.7494L29.0295 23.1494L29.1999 23.1081L28.8604 21.708Z" fill="#FFA412"/>
<path d="M37.629 19.5819L37.4585 19.6232L37.798 21.0233L37.9685 20.9819L37.629 19.5819Z" fill="#FFA412"/>
<path d="M37.9918 19.4939L37.8213 19.5352L38.1608 20.9353L38.3313 20.894L37.9918 19.4939Z" fill="#FFA412"/>
<path d="M38.3424 19.4089L38.1719 19.4502L38.5114 20.8503L38.6819 20.809L38.3424 19.4089Z" fill="#FFA412"/>
<path d="M38.6061 19.3497L38.9432 20.74C38.9228 20.7482 38.9019 20.7549 38.8806 20.7601L38.7738 20.786L38.4346 19.3869L38.5418 19.3609C38.5629 19.3556 38.5844 19.3519 38.6061 19.3497Z" fill="#FFA412"/>
<path d="M38.8748 19.4218L39.1491 20.5529C39.1179 20.6174 39.0684 20.6714 39.0068 20.7081L38.6772 19.349C38.7487 19.3538 38.8173 19.379 38.8748 19.4218Z" fill="#FFA412"/>
<path d="M38.6098 18.1946L38.8015 18.9848C38.8162 19.0471 38.809 19.1126 38.7811 19.1702C38.7735 19.1855 38.765 19.2004 38.7557 19.2148C38.7249 19.2596 38.6849 19.2974 38.6383 19.3256C38.6227 19.3352 38.6064 19.3439 38.5898 19.3516L38.5758 19.355C38.5556 19.3637 38.5347 19.3706 38.5133 19.3756L23.5123 23.0132C23.4973 23.0169 23.4813 23.0208 23.4657 23.0245L23.4475 23.0262C23.2889 23.04 23.1428 22.9646 23.0898 22.8386C23.0861 22.8303 23.083 22.8217 23.0803 22.813C23.0789 22.8073 23.0776 22.8021 23.0764 22.7969L22.885 22.0077C22.8836 22.002 22.8824 21.9968 22.8811 21.9917C22.8794 21.9816 22.8782 21.9714 22.8776 21.9612C22.8686 21.8087 22.9925 21.6591 23.1733 21.6152L38.1732 17.9779L38.2023 17.9708L38.2142 17.9679L38.2277 17.9647C38.2306 17.9634 38.2338 17.9626 38.237 17.9624C38.2605 17.9601 38.2841 17.9599 38.3076 17.9617C38.3209 17.9628 38.3341 17.9645 38.3473 17.9669C38.3974 17.9757 38.4453 17.9945 38.488 18.0222L38.5052 18.0345C38.5578 18.0739 38.5948 18.1306 38.6098 18.1946Z" fill="#FFB93E"/>
<path d="M31.5103 21.076L23.4554 23.0293L23.4346 23.0343C23.3644 23.0441 23.2928 23.0308 23.2308 22.9964C23.1688 22.9619 23.1197 22.9082 23.091 22.8433C23.0873 22.8349 23.0841 22.8264 23.0814 22.8176C23.0801 22.8119 23.0788 22.8068 23.0775 22.8016L22.885 22.0077C22.8837 22.002 22.8824 21.9969 22.8812 21.9917C22.8795 21.9816 22.8783 21.9714 22.8776 21.9613C22.8749 21.9499 22.8774 21.9377 22.8779 21.9261C22.8823 21.8549 22.9097 21.7871 22.9558 21.7327C23.0019 21.6783 23.0644 21.6403 23.1339 21.6243L30.1809 19.9154C30.1869 19.9266 30.1928 19.9372 30.1992 19.9477C30.4872 20.4612 30.9457 20.8577 31.4953 21.0687C31.4989 21.0722 31.5047 21.0735 31.5103 21.076Z" fill="#FFA412"/>
<path d="M36.7105 18.3325L36.54 18.3738L36.8795 19.7739L37.05 19.7326L36.7105 18.3325Z" fill="#FFA412"/>
<path d="M36.1334 18.4724L35.9629 18.5138L36.3024 19.9139L36.4729 19.8725L36.1334 18.4724Z" fill="#FFA412"/>
<path d="M35.4415 18.6401L35.271 18.6815L35.6105 20.0816L35.781 20.0402L35.4415 18.6401Z" fill="#FFA412"/>
<path d="M34.3809 18.8974L34.2104 18.9387L34.55 20.3388L34.7204 20.2975L34.3809 18.8974Z" fill="#FFA412"/>
<path d="M33.2589 19.1694L33.0884 19.2108L33.4279 20.6108L33.5984 20.5695L33.2589 19.1694Z" fill="#FFA412"/>
<path d="M31.5396 19.5863L31.3691 19.6277L31.7087 21.0277L31.8791 20.9864L31.5396 19.5863Z" fill="#FFA412"/>
<path d="M29.9302 19.9767L29.7598 20.0181L30.0993 21.4182L30.2698 21.3768L29.9302 19.9767Z" fill="#FFA412"/>
<path d="M28.4923 20.3255L28.3218 20.3668L28.6613 21.7669L28.8318 21.7255L28.4923 20.3255Z" fill="#FFA412"/>
<path d="M37.2593 18.1993L37.0889 18.2406L37.4284 19.6407L37.5989 19.5993L37.2593 18.1993Z" fill="#FFA412"/>
<path d="M37.6231 18.1112L37.4526 18.1525L37.7921 19.5526L37.9626 19.5113L37.6231 18.1112Z" fill="#FFA412"/>
<path d="M37.9737 18.0262L37.8032 18.0676L38.1427 19.4677L38.3132 19.4263L37.9737 18.0262Z" fill="#FFA412"/>
<path d="M38.2383 17.967L38.5754 19.3572C38.555 19.3659 38.5339 19.3729 38.5124 19.378L38.4062 19.4038L38.0669 18.0047L38.1731 17.9789C38.1945 17.9734 38.2163 17.9694 38.2383 17.967Z" fill="#FFA412"/>
<path d="M38.5062 18.0392L38.7805 19.1703C38.7492 19.2349 38.6998 19.2888 38.6382 19.3256L38.3086 17.9664C38.3801 17.9712 38.4487 17.9965 38.5062 18.0392Z" fill="#FFA412"/>
<path d="M39.0537 16.6408L39.2451 17.4299C39.2598 17.4923 39.2524 17.5579 39.2243 17.6155C39.1925 17.6798 39.1428 17.7335 39.0813 17.7703C39.0615 17.7829 39.0406 17.7935 39.0187 17.8019C38.9985 17.8106 38.9776 17.8175 38.9563 17.8226L23.9563 21.4599C23.8988 21.4741 23.8389 21.4761 23.7806 21.4658C23.7287 21.4585 23.6794 21.4388 23.6367 21.4083C23.5941 21.3779 23.5595 21.3376 23.5357 21.2909C23.5342 21.2847 23.5326 21.2779 23.5283 21.2718C23.527 21.2674 23.5259 21.2629 23.5251 21.2584C23.5238 21.2532 23.5226 21.248 23.5213 21.2428L23.3299 20.4537C23.3287 20.4485 23.3273 20.4428 23.326 20.4376C23.3242 20.4276 23.3228 20.4175 23.322 20.4073C23.3135 20.2546 23.4374 20.105 23.6183 20.0611L38.6171 16.424C38.6385 16.419 38.6602 16.4156 38.6821 16.4138C38.7054 16.4118 38.7289 16.4116 38.7522 16.4132C38.8241 16.4176 38.893 16.443 38.9505 16.4864C39.0017 16.5244 39.0382 16.5789 39.0537 16.6408Z" fill="#FFB93E"/>
<path d="M31.9543 19.5222L23.918 21.4709C23.8663 21.4837 23.8123 21.4842 23.7603 21.4724C23.7114 21.4622 23.6656 21.4406 23.6267 21.4093C23.5877 21.3781 23.5567 21.338 23.5362 21.2925C23.5347 21.2863 23.5331 21.2795 23.5288 21.2734C23.5275 21.269 23.5264 21.2645 23.5256 21.2599C23.5243 21.2548 23.5231 21.2496 23.5218 21.2444L23.3301 20.4537C23.3288 20.4485 23.3274 20.4428 23.3262 20.4376C23.3243 20.4276 23.3229 20.4175 23.3221 20.4073C23.3216 20.3957 23.3219 20.3841 23.323 20.3725C23.3272 20.3013 23.3544 20.2332 23.4005 20.1787C23.4467 20.1242 23.5093 20.0861 23.5789 20.0702L30.626 18.3613C30.9044 18.8763 31.3529 19.2787 31.8951 19.4998C31.915 19.5076 31.9344 19.5149 31.9543 19.5222Z" fill="#FFA412"/>
<path d="M37.1544 16.7786L36.9839 16.8199L37.3234 18.22L37.4939 18.1787L37.1544 16.7786Z" fill="#FFA412"/>
<path d="M36.5772 16.9186L36.4067 16.96L36.7462 18.3601L36.9167 18.3187L36.5772 16.9186Z" fill="#FFA412"/>
<path d="M35.8858 17.0863L35.7153 17.1277L36.0548 18.5277L36.2253 18.4864L35.8858 17.0863Z" fill="#FFA412"/>
<path d="M34.8248 17.3435L34.6543 17.3849L34.9938 18.7849L35.1643 18.7436L34.8248 17.3435Z" fill="#FFA412"/>
<path d="M33.7032 17.6156L33.5327 17.6569L33.8722 19.057L34.0427 19.0157L33.7032 17.6156Z" fill="#FFA412"/>
<path d="M31.9835 18.0326L31.813 18.0739L32.1525 19.474L32.323 19.4327L31.9835 18.0326Z" fill="#FFA412"/>
<path d="M30.3731 18.423L30.2026 18.4644L30.5421 19.8644L30.7126 19.8231L30.3731 18.423Z" fill="#FFA412"/>
<path d="M28.9361 18.7715L28.7656 18.8129L29.1051 20.213L29.2756 20.1716L28.9361 18.7715Z" fill="#FFA412"/>
<path d="M37.7032 16.6454L37.5327 16.6867L37.8722 18.0868L38.0427 18.0455L37.7032 16.6454Z" fill="#FFA412"/>
<path d="M38.0665 16.5575L37.896 16.5988L38.2355 17.9989L38.406 17.9576L38.0665 16.5575Z" fill="#FFA412"/>
<path d="M38.4175 16.4724L38.2471 16.5137L38.5866 17.9138L38.7571 17.8725L38.4175 16.4724Z" fill="#FFA412"/>
<path d="M38.6821 16.4143L39.0194 17.805C38.999 17.8133 38.9781 17.82 38.9568 17.8251L38.85 17.851L38.5108 16.452L38.6175 16.4261C38.6387 16.4205 38.6603 16.4166 38.6821 16.4143Z" fill="#FFA412"/>
<path d="M38.9501 16.4853L39.2244 17.6165C39.1929 17.6811 39.1433 17.7351 39.0815 17.7718L38.752 16.4127C38.8236 16.4175 38.8923 16.4427 38.9501 16.4853Z" fill="#FFA412"/>
<path d="M39.9393 14.9429L40.1311 15.7336C40.1455 15.7959 40.1381 15.8612 40.1101 15.9186L40.0986 15.9412C40.0811 15.9717 40.0591 15.9994 40.0335 16.0234C40.0203 16.0358 40.0062 16.0473 39.9913 16.0577C39.984 16.0635 39.9763 16.0686 39.9682 16.0732C39.9484 16.0857 39.9275 16.0963 39.9056 16.1048C39.8854 16.1133 39.8644 16.1201 39.843 16.125L24.8421 19.7626C24.6612 19.8064 24.4826 19.7301 24.4202 19.5906C24.4159 19.5811 24.4125 19.5713 24.4098 19.5613C24.4085 19.5561 24.4073 19.5509 24.406 19.5457L24.2145 18.756C24.2133 18.7508 24.212 18.7457 24.2107 18.7405C24.1837 18.5907 24.291 18.4357 24.4604 18.3765C24.4742 18.3712 24.4884 18.3668 24.5028 18.3635L39.5027 14.7262C39.5241 14.7212 39.5458 14.7176 39.5676 14.7154C39.591 14.7139 39.6144 14.7139 39.6378 14.7153C39.7013 14.7192 39.7627 14.739 39.8164 14.773C39.8236 14.7775 39.8304 14.7824 39.837 14.7878C39.8879 14.8262 39.924 14.881 39.9393 14.9429Z" fill="#FFB93E"/>
<path d="M32.8396 17.8243L24.8039 19.7729C24.7348 19.7907 24.6618 19.7856 24.5958 19.7583C24.5299 19.7311 24.4746 19.6832 24.4381 19.6219C24.4322 19.612 24.4268 19.6017 24.4219 19.5913C24.4177 19.5818 24.4142 19.572 24.4115 19.562C24.4102 19.5568 24.409 19.5516 24.4077 19.5464L24.216 18.7557C24.2147 18.7505 24.2135 18.7453 24.2122 18.7402C24.2005 18.6651 24.2157 18.5883 24.255 18.5233C24.2943 18.4582 24.3553 18.4091 24.4272 18.3846C24.4396 18.3796 24.4524 18.3756 24.4654 18.3726L31.5125 16.6637C31.5128 16.6646 31.513 16.6655 31.5131 16.6663C31.8019 17.1991 32.2727 17.6102 32.8396 17.8243Z" fill="#FFA412"/>
<path d="M38.0401 15.0808L37.8696 15.1222L38.2091 16.5223L38.3796 16.4809L38.0401 15.0808Z" fill="#FFA412"/>
<path d="M37.4639 15.2207L37.2935 15.262L37.633 16.6621L37.8035 16.6207L37.4639 15.2207Z" fill="#FFA412"/>
<path d="M36.7716 15.3885L36.6011 15.4299L36.9406 16.83L37.1111 16.7886L36.7716 15.3885Z" fill="#FFA412"/>
<path d="M35.7105 15.6457L35.54 15.687L35.8796 17.0871L36.05 17.0458L35.7105 15.6457Z" fill="#FFA412"/>
<path d="M34.5889 15.9176L34.4185 15.959L34.758 17.3591L34.9284 17.3177L34.5889 15.9176Z" fill="#FFA412"/>
<path d="M32.8692 16.3347L32.6987 16.3761L33.0382 17.7762L33.2087 17.7348L32.8692 16.3347Z" fill="#FFA412"/>
<path d="M31.2598 16.7251L31.0894 16.7664L31.4289 18.1665L31.5993 18.1252L31.2598 16.7251Z" fill="#FFA412"/>
<path d="M29.8218 17.0738L29.6514 17.1152L29.9909 18.5153L30.1614 18.4739L29.8218 17.0738Z" fill="#FFA412"/>
<path d="M38.5904 14.9475L38.4199 14.9889L38.7594 16.3889L38.9299 16.3476L38.5904 14.9475Z" fill="#FFA412"/>
<path d="M38.9527 14.8595L38.7822 14.9009L39.1217 16.301L39.2922 16.2596L38.9527 14.8595Z" fill="#FFA412"/>
<path d="M39.3033 14.7746L39.1328 14.8159L39.4723 16.216L39.6428 16.1747L39.3033 14.7746Z" fill="#FFA412"/>
<path d="M39.5684 14.7179L39.9055 16.1081C39.8852 16.1166 39.8643 16.1234 39.843 16.1288L39.7363 16.1546L39.397 14.7556L39.5038 14.7297C39.5249 14.7239 39.5465 14.72 39.5684 14.7179Z" fill="#FFA412"/>
<path d="M39.8363 14.788L40.1106 15.9191C40.0789 15.9836 40.0293 16.0375 39.9678 16.0745L39.6382 14.7153C39.7099 14.7197 39.7788 14.7449 39.8363 14.788Z" fill="#FFA412"/>
<path d="M37.6319 14.0228L37.8233 14.812C37.8379 14.8742 37.8306 14.9395 37.8028 14.9969C37.7714 15.0618 37.7216 15.1161 37.6596 15.1529C37.64 15.1654 37.6192 15.1759 37.5976 15.1844L37.5769 15.1921L37.5743 15.1928L37.5604 15.1962L22.5335 18.8401C22.4743 18.8563 22.4122 18.8584 22.352 18.8462C22.2919 18.834 22.2355 18.8079 22.1873 18.7698C22.1462 18.7357 22.116 18.6901 22.1007 18.6389C22.0993 18.6332 22.098 18.628 22.0968 18.6228L21.906 17.8362C21.9047 17.8305 21.9034 17.8254 21.9021 17.8202C21.8784 17.6882 21.9587 17.5535 22.0944 17.4817C22.1261 17.4646 22.1598 17.4517 22.1947 17.4431L37.2138 13.8011L37.2232 13.7988C37.2352 13.7963 37.2475 13.7946 37.2598 13.7938C37.2829 13.7914 37.3062 13.7912 37.3294 13.7934C37.3407 13.7937 37.3521 13.795 37.3632 13.7972C37.4052 13.8038 37.4458 13.8178 37.4829 13.8384L37.4881 13.8416C37.5006 13.8486 37.5127 13.8563 37.5244 13.8646C37.5776 13.9031 37.6157 13.9591 37.6319 14.0228Z" fill="#FFB93E"/>
<path d="M30.5312 16.9045L22.496 18.853C22.4431 18.8662 22.3878 18.8665 22.3348 18.8538C22.2818 18.8412 22.2326 18.816 22.1914 18.7803C22.1493 18.7437 22.1186 18.6957 22.103 18.6421C22.1016 18.6364 22.1004 18.6312 22.0991 18.6261L21.9075 17.8358C21.9061 17.8301 21.9049 17.825 21.9036 17.8198C21.8923 17.7492 21.9048 17.6769 21.9394 17.6143C21.9739 17.5517 22.0284 17.5025 22.0942 17.4746C22.1147 17.4647 22.1362 17.4571 22.1584 17.4519L29.2055 15.743C29.2107 15.7533 29.2168 15.7627 29.2226 15.7729C29.511 16.2914 29.9733 16.6915 30.528 16.9025C30.5292 16.9029 30.5303 16.9036 30.5312 16.9045Z" fill="#FFA412"/>
<path d="M35.7325 14.1603L35.562 14.2016L35.9015 15.6017L36.072 15.5603L35.7325 14.1603Z" fill="#FFA412"/>
<path d="M35.1549 14.3003L34.9844 14.3416L35.3239 15.7417L35.4944 15.7004L35.1549 14.3003Z" fill="#FFA412"/>
<path d="M34.4634 14.468L34.293 14.5093L34.6325 15.9094L34.803 15.8681L34.4634 14.468Z" fill="#FFA412"/>
<path d="M33.4024 14.7252L33.2319 14.7665L33.5714 16.1666L33.7419 16.1253L33.4024 14.7252Z" fill="#FFA412"/>
<path d="M32.2808 14.9973L32.1104 15.0386L32.4499 16.4387L32.6203 16.3974L32.2808 14.9973Z" fill="#FFA412"/>
<path d="M30.5611 15.4142L30.3906 15.4555L30.7301 16.8556L30.9006 16.8143L30.5611 15.4142Z" fill="#FFA412"/>
<path d="M28.9512 15.8047L28.7808 15.846L29.1203 17.2461L29.2907 17.2048L28.9512 15.8047Z" fill="#FFA412"/>
<path d="M27.5137 16.1532L27.3433 16.1945L27.6828 17.5946L27.8533 17.5533L27.5137 16.1532Z" fill="#FFA412"/>
<path d="M36.2818 14.0271L36.1113 14.0684L36.4508 15.4685L36.6213 15.4272L36.2818 14.0271Z" fill="#FFA412"/>
<path d="M36.6441 13.9391L36.4736 13.9805L36.8131 15.3806L36.9836 15.3392L36.6441 13.9391Z" fill="#FFA412"/>
<path d="M36.9952 13.854L36.8247 13.8954L37.1642 15.2955L37.3347 15.2541L36.9952 13.854Z" fill="#FFA412"/>
<path d="M37.2598 13.7965L37.597 15.1872C37.5767 15.1955 37.5557 15.2022 37.5344 15.2073L37.4277 15.2332L37.0884 13.8342L37.1957 13.8082C37.2167 13.8027 37.2381 13.7988 37.2598 13.7965Z" fill="#FFA412"/>
<path d="M37.5277 13.8675L37.802 14.9987C37.7704 15.063 37.721 15.1169 37.6597 15.1539L37.3301 13.7947C37.4016 13.7992 37.4703 13.8245 37.5277 13.8675Z" fill="#FFA412"/>
<path d="M38.4025 12.3869L38.5943 13.1776C38.6087 13.24 38.6014 13.3055 38.5734 13.3632C38.5417 13.4276 38.4921 13.4816 38.4306 13.5185C38.4107 13.5308 38.3897 13.5414 38.368 13.5501C38.3475 13.5584 38.3264 13.5652 38.3049 13.5704L23.3055 17.2076C23.2499 17.2214 23.1921 17.2239 23.1355 17.2148C23.0789 17.2082 23.025 17.1866 22.9796 17.1522C22.9341 17.1178 22.8986 17.0719 22.8769 17.0191C22.8756 17.0151 22.8746 17.0109 22.8738 17.0067C22.8725 17.001 22.8712 16.9958 22.87 16.9906L22.6782 16.1999C22.677 16.1947 22.6757 16.1896 22.6744 16.1844C22.6478 16.0339 22.7552 15.8795 22.9245 15.8198C22.9387 15.8155 22.953 15.812 22.9675 15.8094L37.9659 12.1724C37.9874 12.1671 38.0093 12.1635 38.0313 12.1615C38.0546 12.1594 38.0781 12.1594 38.1015 12.1614C38.1732 12.1661 38.2419 12.1913 38.2996 12.2341C38.3502 12.272 38.3864 12.3258 38.4025 12.3869Z" fill="#FFB93E"/>
<path d="M31.3024 15.2684L23.2667 17.217C23.2166 17.2295 23.1643 17.2305 23.1138 17.2201C23.0603 17.2098 23.0104 17.1859 22.9689 17.1507C22.9274 17.1155 22.8957 17.0702 22.8769 17.0191C22.8756 17.0151 22.8746 17.0109 22.8739 17.0067C22.8725 17.001 22.8712 16.9958 22.87 16.9906L22.6782 16.1999C22.677 16.1947 22.6757 16.1896 22.6744 16.1844C22.6629 16.1091 22.6783 16.0322 22.7177 15.967C22.7572 15.9019 22.8183 15.8527 22.8903 15.8281C22.9029 15.8242 22.9157 15.8211 22.9287 15.8188L29.9758 14.1099C30.2547 14.6252 30.704 15.0275 31.2469 15.2479L31.3024 15.2684Z" fill="#FFA412"/>
<path d="M36.5035 12.525L36.333 12.5663L36.6725 13.9664L36.843 13.9251L36.5035 12.525Z" fill="#FFA412"/>
<path d="M35.9263 12.6648L35.7559 12.7061L36.0954 14.1062L36.2658 14.0649L35.9263 12.6648Z" fill="#FFA412"/>
<path d="M35.234 12.8327L35.0635 12.874L35.403 14.2741L35.5735 14.2328L35.234 12.8327Z" fill="#FFA412"/>
<path d="M34.1734 13.0899L34.0029 13.1312L34.3424 14.5313L34.5129 14.4899L34.1734 13.0899Z" fill="#FFA412"/>
<path d="M33.0513 13.3619L32.8809 13.4032L33.2204 14.8033L33.3908 14.762L33.0513 13.3619Z" fill="#FFA412"/>
<path d="M31.3326 13.7788L31.1621 13.8202L31.5016 15.2202L31.6721 15.1789L31.3326 13.7788Z" fill="#FFA412"/>
<path d="M29.7227 14.1692L29.5522 14.2105L29.8918 15.6106L30.0622 15.5693L29.7227 14.1692Z" fill="#FFA412"/>
<path d="M28.2847 14.5179L28.1143 14.5593L28.4538 15.9594L28.6242 15.918L28.2847 14.5179Z" fill="#FFA412"/>
<path d="M37.0528 12.3918L36.8823 12.4331L37.2218 13.8332L37.3923 13.7919L37.0528 12.3918Z" fill="#FFA412"/>
<path d="M37.4161 12.3037L37.2456 12.345L37.5851 13.7451L37.7556 13.7037L37.4161 12.3037Z" fill="#FFA412"/>
<path d="M37.7662 12.2187L37.5957 12.2601L37.9352 13.6602L38.1057 13.6188L37.7662 12.2187Z" fill="#FFA412"/>
<path d="M38.0311 12.1594L38.3683 13.5502C38.3478 13.5585 38.3267 13.5652 38.3052 13.5704L38.2016 13.5956L37.8623 12.1965L37.966 12.1714C37.9873 12.1658 38.0091 12.1618 38.0311 12.1594Z" fill="#FFA412"/>
<path d="M38.2997 12.2321L38.574 13.3632C38.542 13.4275 38.4925 13.4814 38.4311 13.5186L38.1016 12.1594C38.1732 12.1641 38.242 12.1893 38.2997 12.2321Z" fill="#FFA412"/>
<path d="M38.5331 10.8751L38.7249 11.6658C38.7395 11.7281 38.7319 11.7936 38.7034 11.851C38.6719 11.9155 38.6226 11.9695 38.5612 12.0067C38.5411 12.0188 38.5202 12.0293 38.4986 12.0383L38.4774 12.0435L38.4655 12.0464L23.435 15.6911C23.2412 15.7381 23.0509 15.6482 23.0022 15.49C23.0009 15.4848 22.9996 15.4796 22.9984 15.4744L22.8078 14.6883C22.8065 14.6832 22.8053 14.678 22.804 14.6728C22.7749 14.5098 22.9028 14.3427 23.0966 14.2957L38.096 10.6585C38.1175 10.6532 38.1393 10.6496 38.1614 10.6476C38.1847 10.6456 38.2081 10.6455 38.2315 10.647C38.3031 10.6519 38.3717 10.6774 38.4292 10.7203C38.4807 10.7583 38.5175 10.813 38.5331 10.8751Z" fill="#FFB93E"/>
<path d="M31.433 13.7566L23.3973 15.7052C23.3171 15.7268 23.2318 15.717 23.1586 15.6779C23.0854 15.6388 23.0299 15.5732 23.0033 15.4946C23.0021 15.4894 23.0008 15.4843 22.9995 15.4791L22.8078 14.6884C22.8065 14.6832 22.8053 14.678 22.804 14.6728C22.7916 14.5908 22.811 14.5071 22.8581 14.4387C22.9053 14.3704 22.9766 14.3227 23.0578 14.3051L30.1048 12.5963C30.3927 13.1293 30.8625 13.5411 31.4286 13.7566L31.433 13.7566Z" fill="#FFA412"/>
<path d="M36.6339 11.0131L36.4634 11.0544L36.8029 12.4545L36.9734 12.4132L36.6339 11.0131Z" fill="#FFA412"/>
<path d="M36.0562 11.1531L35.8857 11.1944L36.2253 12.5945L36.3957 12.5531L36.0562 11.1531Z" fill="#FFA412"/>
<path d="M35.3653 11.3208L35.1948 11.3621L35.5343 12.7622L35.7048 12.7209L35.3653 11.3208Z" fill="#FFA412"/>
<path d="M34.3038 11.578L34.1333 11.6194L34.4728 13.0194L34.6433 12.9781L34.3038 11.578Z" fill="#FFA412"/>
<path d="M33.1827 11.8501L33.0122 11.8914L33.3517 13.2915L33.5222 13.2502L33.1827 11.8501Z" fill="#FFA412"/>
<path d="M31.463 12.2669L31.2925 12.3083L31.632 13.7083L31.8025 13.667L31.463 12.2669Z" fill="#FFA412"/>
<path d="M29.8526 12.6574L29.6821 12.6987L30.0216 14.0988L30.1921 14.0574L29.8526 12.6574Z" fill="#FFA412"/>
<path d="M28.4151 13.006L28.2446 13.0474L28.5841 14.4475L28.7546 14.4061L28.4151 13.006Z" fill="#FFA412"/>
<path d="M37.1827 10.8799L37.0122 10.9212L37.3517 12.3213L37.5222 12.28L37.1827 10.8799Z" fill="#FFA412"/>
<path d="M37.546 10.7918L37.3755 10.8332L37.715 12.2332L37.8855 12.1919L37.546 10.7918Z" fill="#FFA412"/>
<path d="M37.8961 10.7069L37.7256 10.7482L38.0651 12.1483L38.2356 12.1069L37.8961 10.7069Z" fill="#FFA412"/>
<path d="M38.1616 10.6476L38.4989 12.0383C38.4783 12.0466 38.4572 12.0534 38.4357 12.0586L38.3295 12.0843L37.9902 10.6853L38.0965 10.6595C38.1179 10.6539 38.1396 10.65 38.1616 10.6476Z" fill="#FFA412"/>
<path d="M38.4297 10.7202L38.7039 11.8509C38.6723 11.9155 38.6227 11.9696 38.5612 12.0067L38.2314 10.647C38.3032 10.6518 38.372 10.6772 38.4297 10.7202Z" fill="#FFA412"/>
<path opacity="0.5" d="M30.0757 21.4128C30.0767 21.417 30.0775 21.4201 30.0782 21.4232C30.166 21.8988 30.2035 22.3824 30.1899 22.8659C30.1883 22.936 30.1855 23.0058 30.1811 23.076C30.1554 23.5221 30.0875 23.9647 29.9783 24.398C29.8389 24.9518 29.6336 25.487 29.3668 25.9919C29.3602 26.0056 29.3528 26.02 29.3452 26.0339C28.9955 26.6857 28.5508 27.2817 28.0255 27.8023C27.9124 27.9153 27.7947 28.0256 27.6723 28.1332C27.59 28.208 27.5062 28.2761 27.4212 28.3444C27.3363 28.4128 27.2575 28.4884 27.1801 28.5675C26.923 28.8122 26.6345 29.0218 26.3224 29.1908L26.1727 28.5737C26.1714 28.5685 26.1703 28.5638 26.1691 28.5587C26.1671 28.5485 26.1657 28.5382 26.1649 28.5278C26.1643 28.5159 26.1645 28.5039 26.1655 28.492C26.1701 28.421 26.1976 28.3533 26.2438 28.2991C26.2899 28.2449 26.3524 28.2071 26.4218 28.1912L24.8154 28.5808C24.7463 28.5983 24.6734 28.5931 24.6075 28.5659C24.5416 28.5387 24.4862 28.4909 24.4496 28.4297C24.4439 28.4196 24.4381 28.4095 24.4333 28.3986C24.4292 28.3892 24.4256 28.3796 24.4225 28.3699C24.4213 28.3647 24.42 28.3595 24.4186 28.3538L24.2269 27.5631C24.2256 27.5579 24.2244 27.5527 24.2231 27.5476C24.2214 27.5375 24.2202 27.5273 24.2196 27.5172C24.2168 27.5058 24.2192 27.4931 24.2197 27.4815C24.2242 27.4103 24.2516 27.3426 24.2977 27.2883C24.3439 27.234 24.4063 27.1961 24.4758 27.1802L25.1018 27.0284C25.053 27.0179 25.0073 26.9962 24.9683 26.965C24.9294 26.9337 24.8984 26.8938 24.8776 26.8484C24.876 26.8417 24.8745 26.8355 24.8703 26.8294C24.8689 26.825 24.8678 26.8205 24.867 26.8159C24.8657 26.8107 24.8645 26.8055 24.8632 26.8004L24.6719 26.0112C24.6704 26.0063 24.6692 26.0012 24.6682 25.9962C24.6663 25.9862 24.665 25.976 24.6642 25.9659C24.6635 25.9543 24.6638 25.9427 24.6651 25.9311C24.6691 25.8598 24.6962 25.7917 24.7424 25.7371C24.7885 25.6826 24.8512 25.6445 24.9209 25.6288L25.2805 25.5416C25.2114 25.559 25.1385 25.5538 25.0726 25.5266C25.0067 25.4994 24.9514 25.4517 24.9147 25.3905C24.9084 25.3806 24.9027 25.3702 24.8979 25.3595C24.8939 25.3501 24.8905 25.3405 24.8876 25.3307L24.6877 24.5063C24.6762 24.4311 24.6914 24.3542 24.7308 24.2892C24.7702 24.2241 24.8311 24.1749 24.9031 24.1501L23.8429 24.4072C23.7628 24.4288 23.6774 24.419 23.6042 24.3799C23.531 24.3408 23.4755 24.2752 23.4489 24.1966C23.4477 24.1914 23.4464 24.1862 23.445 24.1805L23.2539 23.3924C23.2527 23.3872 23.2513 23.3815 23.25 23.3763C23.2488 23.3723 23.2478 23.3681 23.247 23.3639C23.239 23.2963 23.2527 23.228 23.2862 23.1687C23.3197 23.1095 23.3712 23.0625 23.4332 23.0345C23.363 23.0444 23.2914 23.0311 23.2294 22.9966C23.1674 22.9622 23.1183 22.9084 23.0896 22.8436C23.0859 22.8352 23.0827 22.8266 23.08 22.8179C23.0787 22.8122 23.0774 22.807 23.0761 22.8018L22.8836 22.008C22.8823 22.0023 22.881 21.9971 22.8797 21.9919C22.878 21.9819 22.8769 21.9717 22.8762 21.9615C22.8734 21.9501 22.876 21.938 22.8765 21.9263C22.8809 21.8552 22.9083 21.7874 22.9544 21.733C23.0005 21.6786 23.063 21.6406 23.1325 21.6245L23.7584 21.4727C23.7095 21.4625 23.6637 21.4409 23.6248 21.4097C23.5858 21.3784 23.5548 21.3384 23.5343 21.2928C23.5328 21.2866 23.5311 21.2799 23.5269 21.2738C23.5256 21.2693 23.5245 21.2648 23.5236 21.2603C23.5224 21.2551 23.5211 21.2499 23.5199 21.2447L23.3281 20.454C23.3269 20.4488 23.3255 20.4431 23.3242 20.4379C23.3224 20.4279 23.321 20.4178 23.3202 20.4077C23.3197 20.3961 23.32 20.3844 23.3211 20.3729C23.3253 20.3016 23.3525 20.2336 23.3986 20.1791C23.4447 20.1245 23.5073 20.0865 23.5769 20.0705L24.8029 19.7732C24.7338 19.791 24.6608 19.7859 24.5949 19.7586C24.5289 19.7314 24.4736 19.6835 24.4371 19.6222C24.4312 19.6123 24.4258 19.602 24.4209 19.5916C24.4167 19.5821 24.4132 19.5723 24.4105 19.5623C24.4092 19.5571 24.408 19.5519 24.4067 19.5467L24.215 18.756C24.2137 18.7508 24.2125 18.7456 24.2112 18.7404C24.1995 18.6654 24.2147 18.5886 24.254 18.5235C24.2933 18.4585 24.3543 18.4094 24.4262 18.3849L22.496 18.853C22.4432 18.8662 22.3879 18.8665 22.3349 18.8538C22.2819 18.8412 22.2327 18.816 22.1915 18.7803L22.1897 18.7731L22.0913 17.4802L22.0897 17.4735L21.9496 15.6311C22.2958 15.5949 22.644 15.5814 22.992 15.5906L23.0527 15.5918L23.0568 15.5908C23.2593 15.5977 23.4611 15.6124 23.6623 15.635L23.6674 15.6337C24.5955 15.7362 25.497 16.0078 26.3273 16.4349C26.3422 16.4423 26.3568 16.4503 26.3714 16.4582C26.8085 16.6872 27.2211 16.9604 27.6027 17.2734C27.6799 17.3364 27.7559 17.4008 27.8297 17.4674C27.8546 17.4888 27.879 17.5103 27.9032 17.533C27.9037 17.5338 27.9039 17.5347 27.9038 17.5356C28.0239 17.6447 28.1406 17.7585 28.2538 17.877C28.5154 18.1508 28.7548 18.445 28.9697 18.7568C29.2458 19.1569 29.4784 19.5853 29.6636 20.0347C29.6691 20.046 29.6734 20.057 29.6777 20.0681C29.8558 20.5016 29.9892 20.9522 30.0757 21.4128Z" fill="#E2810E"/>
<path d="M23.2363 30.0946C27.2199 28.7863 29.3887 24.4964 28.0805 20.5128C26.7722 16.5291 22.4823 14.3603 18.4986 15.6686C14.515 16.9768 12.3462 21.2668 13.6545 25.2504C14.9627 29.234 19.2526 31.4028 23.2363 30.0946Z" fill="#E2810E"/>
<path d="M25.7463 28.6974C25.6691 28.7748 25.5894 28.8512 25.5081 28.9258C25.4808 28.9511 25.4528 28.9759 25.4254 29.0007C25.3617 29.0573 25.2982 29.1122 25.234 29.1662C23.7709 30.3829 21.9042 31.0059 20.0036 30.9118C18.103 30.8176 16.3071 30.0132 14.9714 28.6578C13.6357 27.3025 12.8576 25.4949 12.7913 23.5932C12.725 21.6914 13.3752 19.834 14.6132 18.3889C14.8125 18.157 15.0254 17.9372 15.2508 17.7307C15.3327 17.6552 15.4159 17.5822 15.5005 17.5115C15.582 17.4429 15.6657 17.376 15.7493 17.3113C16.3761 16.8282 17.0746 16.4461 17.8196 16.1789C19.4435 15.598 21.2168 15.5872 22.8476 16.1483C24.4785 16.7094 25.8697 17.809 26.7924 19.2662C27.715 20.7233 28.1141 22.4511 27.924 24.1653C27.7339 25.8795 26.9658 27.4779 25.7463 28.6974Z" fill="#FFB93E"/>
<path d="M22.0537 30.006C21.4287 30.1569 20.7854 30.2189 20.143 30.1901C18.4361 30.1107 16.8226 29.3875 15.6275 28.1661C14.4324 26.9448 13.7444 25.316 13.702 23.6077C13.6597 21.8995 14.2661 20.2386 15.3993 18.9595C16.5324 17.6805 18.1081 16.8783 19.809 16.7144C21.5099 16.5505 23.2098 17.0372 24.5663 18.0764C25.9228 19.1156 26.8351 20.6302 27.1197 22.3151C27.4042 24 27.0398 25.7302 26.0999 27.1573C25.1599 28.5843 23.7141 29.6022 22.0537 30.006ZM18.8691 16.9658C17.4599 17.3102 16.2028 18.1082 15.2915 19.2369C14.3801 20.3656 13.8649 21.7625 13.825 23.2127C13.7852 24.6629 14.223 26.086 15.0711 27.263C15.9191 28.44 17.1304 29.3058 18.5186 29.7271C19.9068 30.1484 21.395 30.1018 22.7542 29.5946C24.1134 29.0874 25.2682 28.1477 26.0411 26.9199C26.8139 25.6922 27.1619 24.2445 27.0315 22.7997C26.9012 21.3548 26.2997 19.9928 25.3195 18.9233C24.5207 18.0458 23.4995 17.4006 22.3639 17.056C21.2284 16.7114 20.0209 16.6802 18.8691 16.9658Z" fill="#FFA412"/>
<path d="M23.849 23.2482C23.8257 23.2154 23.8016 23.184 23.7777 23.153C23.6149 22.9371 23.4099 22.7567 23.1751 22.6227C22.9266 22.4866 22.6526 22.4036 22.3703 22.3789C22.0575 22.3528 21.7426 22.3692 21.4341 22.4276C21.1 22.4874 20.7407 22.5696 20.356 22.6742C20.1533 22.7319 19.9472 22.7775 19.739 22.8107C19.5886 22.8361 19.4354 22.8396 19.284 22.8212C19.1638 22.8059 19.0488 22.763 18.948 22.6958C18.8483 22.6252 18.7616 22.5378 18.6917 22.4376C18.6173 22.3362 18.5601 22.2233 18.5223 22.1034C18.4869 21.9916 18.477 21.8733 18.4932 21.7571C18.5128 21.6345 18.5595 21.5179 18.6299 21.4156C18.716 21.2899 18.8247 21.1813 18.9505 21.0954C19.2102 20.9084 19.4796 20.8457 19.7586 20.9071C20.0375 20.9686 20.3016 21.1743 20.5507 21.5243L21.9053 20.5495C21.7168 20.279 21.4832 20.0428 21.2148 19.8512C20.9784 19.6826 20.7107 19.5632 20.4273 19.5C20.144 19.4367 19.8508 19.431 19.5652 19.4831C19.2552 19.5379 18.9565 19.6436 18.6809 19.7958L18.0013 18.8507L17.2511 19.3903L17.9214 20.3223C17.6753 20.532 17.4622 20.7777 17.2895 21.051C17.1372 21.2925 17.0292 21.5593 16.9708 21.8388C16.9168 22.1033 16.9193 22.3762 16.9779 22.6397C17.1238 23.224 17.4944 23.727 18.0092 24.0394C18.2573 24.175 18.531 24.2572 18.8128 24.2807C19.1256 24.3053 19.4402 24.2867 19.748 24.2256C20.1113 24.157 20.4709 24.0698 20.8253 23.9644C21.0174 23.904 21.2138 23.8577 21.4127 23.8258C21.5625 23.8013 21.715 23.7985 21.8655 23.8175C21.9908 23.8342 22.1106 23.8791 22.2161 23.9487C22.3258 24.0266 22.421 24.1233 22.4971 24.2344C22.5718 24.3356 22.6256 24.4507 22.6555 24.5729C22.6839 24.6908 22.6846 24.8136 22.6575 24.9318C22.6267 25.061 22.5702 25.1828 22.4913 25.2897C22.3949 25.4194 22.278 25.5324 22.1451 25.6244C22.0177 25.7161 21.8788 25.7905 21.7319 25.8458C21.5866 25.9007 21.4308 25.9224 21.276 25.9092C21.1086 25.8925 20.9475 25.8362 20.8061 25.745C20.6248 25.6257 20.469 25.4716 20.3477 25.2916L18.9929 26.2659C19.2432 26.6145 19.5145 26.8731 19.8071 27.0417C20.0802 27.2047 20.3857 27.3061 20.7021 27.3388C21.01 27.3682 21.3206 27.3386 21.6175 27.2518C21.9233 27.1645 22.2172 27.0398 22.4925 26.8805L23.1126 27.7429L23.8602 27.2061L23.2369 26.3395C23.4842 26.1282 23.7003 25.8829 23.8789 25.6111C24.0249 25.3902 24.1327 25.1463 24.1977 24.8896C24.2022 24.8699 24.2068 24.8501 24.211 24.8315C24.267 24.5683 24.2665 24.2962 24.2095 24.0331C24.1453 23.7492 24.0225 23.4819 23.849 23.2482Z" fill="#FFA412"/>
</svg>
