<svg width="192" height="252" viewBox="0 0 192 252" fill="none" xmlns="http://www.w3.org/2000/svg">
<path d="M3.71105 102.489C7.21054 116.971 13.4608 130.857 22.5759 142.636C24.2856 138.802 27.0143 135.534 29.5348 132.179C35.6197 124.079 40.6372 115.229 44.4637 105.847C45.0883 104.31 45.6809 102.563 45.0243 101.039C44.6719 100.226 44.0033 99.5965 43.3366 99.0136C35.5208 92.1786 23.3306 89.1918 19.0163 79.7486C14.8882 70.7341 18.3497 54.1894 20.4858 44.2915C20.3877 44.7422 3.66901 53.5564 2.53988 54.3597C1.58693 55.0408 0.537885 59.2396 0.359707 62.1983C-0.14749 70.7775 0.103065 79.3847 1.10845 87.9197C1.69081 92.8229 2.55983 97.6878 3.71105 102.489Z" fill="#13705F"/>
<path d="M19.9707 68.3148C15.8105 61.8962 9.71307 56.5388 2.4082 54.2667C7.79656 50.4033 13.2762 46.6672 18.8471 43.0582C19.2988 42.7266 19.8068 42.4795 20.3465 42.3288C21.0522 42.177 21.7819 42.3588 22.4736 42.5666C32.9871 45.724 40.6818 54.5185 47.6108 63.0312C49.2501 65.0455 50.9034 67.1078 51.849 69.5257C52.1143 70.1111 52.2409 70.7498 52.2188 71.3921C52.1549 72.1515 51.751 72.8369 51.3392 73.4804C46.7872 80.5783 40.076 86.0397 32.9691 90.5798C27.1976 94.2647 27.4774 86.9509 26.4339 83.2001C24.9785 77.9746 22.9294 72.8809 19.9707 68.3148Z" fill="#21B85C"/>
<path d="M187.397 102.492C183.898 116.972 177.648 130.858 168.534 142.636C166.824 138.802 164.096 135.535 161.573 132.18C155.49 124.08 150.475 115.23 146.65 105.849C146.023 104.312 145.431 102.566 146.087 101.041C146.44 100.228 147.108 99.5992 147.775 99.0163C155.582 92.1777 167.771 89.1911 172.095 79.7464C176.223 70.7325 172.762 54.1888 170.626 44.2915C170.724 44.7422 187.441 53.5558 188.57 54.3591C189.523 55.0401 190.572 59.2386 190.75 62.1972C191.259 70.7783 191.011 79.3877 190.007 87.9251C189.423 92.8276 188.552 97.6915 187.397 102.492Z" fill="#13705F"/>
<path d="M170.853 68.3148C175.014 61.8962 181.111 56.5388 188.416 54.2667C183.026 50.4033 177.546 46.6672 171.977 43.0582C171.525 42.7266 171.017 42.4795 170.478 42.3288C169.772 42.177 169.042 42.3588 168.35 42.5666C157.837 45.724 150.142 54.5185 143.213 63.0312C141.574 65.0455 139.921 67.1078 138.975 69.5257C138.71 70.1114 138.584 70.7499 138.605 71.3921C138.669 72.1515 139.073 72.8369 139.485 73.4804C144.037 80.5783 150.748 86.0397 157.855 90.5798C163.626 94.2647 163.347 86.9509 164.39 83.2001C165.845 77.9746 167.905 72.8809 170.853 68.3148Z" fill="#21B85C"/>
<path d="M125.83 42.0227C125.586 39.7637 124.589 37.4729 122.708 36.1989C121.659 35.4891 120.417 35.1322 119.192 34.8132C111.943 32.9275 104.488 31.9458 96.9967 31.8903C89.5056 31.9458 82.0503 32.9275 74.8011 34.8132C73.5767 35.1322 72.3343 35.4891 71.2856 36.2088C69.4041 37.4729 68.4073 39.7637 68.1616 42.0227C67.6024 47.2065 69.464 53.0283 70.1591 58.1722C70.8682 63.4397 76.2553 61.5058 79.8487 59.7413C80.1043 59.6157 80.376 59.4642 80.4818 59.201C80.6117 58.878 80.4439 58.5171 80.2821 58.2141C79.0517 56.007 77.5396 53.9594 76.4191 51.6944C75.2985 49.4295 74.5774 46.8516 75.0868 44.3773C75.2525 43.5638 75.5801 42.7364 76.2293 42.2161C76.7107 41.8293 77.3219 41.6478 77.9191 41.4943C84.1252 39.8993 109.878 39.8993 116.09 41.4943C116.689 41.6478 117.299 41.8293 117.78 42.2161C118.429 42.7364 118.755 43.5638 118.923 44.3773C119.43 46.8516 118.711 49.4315 117.59 51.6944C116.47 53.9574 114.958 56.007 113.727 58.2141C113.557 58.5171 113.39 58.878 113.527 59.201C113.633 59.4642 113.905 59.6157 114.161 59.7413C117.756 61.5058 123.149 63.4397 123.85 58.1722C124.529 53.0243 126.391 47.2005 125.83 42.0227Z" fill="#2F455E"/>
<path d="M176.696 123.257C170.506 49.1944 96.8518 49.1944 96.8518 49.1944C96.8518 49.1944 23.1978 49.1944 17.0071 123.257C15.0029 147.246 14.7709 203.657 14.7909 232.409C14.7986 242.083 22.6358 249.921 32.3008 249.921H161.403C171.068 249.921 178.905 242.083 178.913 232.409C178.933 203.657 178.701 147.246 176.696 123.257Z" fill="#26B824"/>
<path d="M176.696 123.209C170.506 49.1944 96.8518 49.1944 96.8518 49.1944C96.8518 49.1944 23.1978 49.1944 17.0071 123.209C15.0029 147.182 14.7709 203.555 14.7909 232.288C14.7905 237.732 17.3263 242.865 21.6496 246.172C21.6496 215.636 21.9137 160.871 23.6819 137.06C29.3545 60.6488 96.8518 60.6488 96.8518 60.6488C96.8518 60.6488 164.349 60.6488 170.022 137.06C171.79 160.869 172.054 215.636 172.054 246.172C176.377 242.865 178.913 237.732 178.913 232.288C178.933 203.555 178.701 147.182 176.696 123.209Z" fill="#18AD4D"/>
<path d="M161.403 241.431H32.2981C22.6791 241.431 14.8612 233.632 14.7898 223.965C14.7898 227.382 14.7898 230.579 14.7898 233.49C14.7975 243.204 22.6349 251.074 32.3001 251.074H161.403C171.069 251.074 178.906 243.204 178.914 233.49C178.914 230.579 178.914 227.382 178.914 223.965C178.843 233.633 171.024 241.433 161.403 241.431Z" fill="#26B824"/>
<path d="M170.055 138.598C169.339 138.597 168.745 138.044 168.692 137.329C166.381 106.117 153.613 83.9647 130.773 71.4861C113.68 62.1533 97.0159 62.027 96.8498 62.027C96.6837 62.027 80.0195 62.1533 62.9269 71.4861C40.0789 83.9647 27.321 106.117 25.0076 137.329C24.9367 138.071 24.287 138.621 23.5449 138.566C22.8028 138.512 22.2401 137.873 22.2779 137.129C23.5907 119.425 28.3196 104.31 36.3366 92.2048C42.7685 82.4891 51.3098 74.692 61.7222 69.0261C79.4151 59.4026 96.1434 59.2883 96.8498 59.2883C97.5563 59.2883 114.283 59.4006 131.977 69.0261C142.384 74.692 150.931 82.4891 157.363 92.2048C165.38 104.308 170.109 119.423 171.424 137.127C171.479 137.881 170.914 138.538 170.161 138.594L170.055 138.598Z" fill="#717D89"/>
<path d="M170.166 138.017C169.809 138.017 169.512 137.741 169.486 137.385C166.579 98.1741 147.022 79.6395 131.128 70.9962C113.897 61.6258 97.155 61.5176 96.9969 61.5176C96.8389 61.5176 80.0464 61.6338 62.8139 71.0243C46.9475 79.6716 27.4106 98.2122 24.5062 137.385C24.4743 137.76 24.1477 138.041 23.7721 138.015C23.3962 137.987 23.1144 137.659 23.142 137.282C24.4442 119.715 29.1429 104.724 37.0801 92.7277C43.447 83.1129 51.9023 75.399 62.2118 69.7924C79.7524 60.2577 96.8269 60.1535 96.9969 60.1535C97.167 60.1535 114.247 60.2637 131.782 69.7984C142.092 75.407 150.545 83.1209 156.912 92.7337C164.859 104.73 169.548 119.721 170.85 137.288C170.877 137.665 170.596 137.993 170.22 138.021L170.166 138.017Z" fill="#566068"/>
<path fill-rule="evenodd" clip-rule="evenodd" d="M95.591 61.0188L97.98 75.8472C98.0658 76.3932 97.9123 76.9501 97.56 77.3709C97.2078 77.7917 96.6921 78.0342 96.1492 78.0343H93.5246C93.0133 78.0347 92.5245 77.8201 92.1737 77.4411C91.823 77.0621 91.6415 76.5525 91.672 76.0326C91.6849 75.8169 91.6987 75.5873 91.7131 75.3458C91.9954 70.6256 92.5509 61.3392 92.5904 61.2203L95.591 61.0188ZM93.7288 64.5747L93.4695 71.4567H96.0565L94.8234 64.5747H93.7288Z" fill="#566068"/>
<path fill-rule="evenodd" clip-rule="evenodd" d="M105.151 61.0188L108.046 75.691C108.152 76.2326 108.019 76.7945 107.681 77.2277C107.343 77.6608 106.834 77.9216 106.289 77.941L103.666 78.0333C103.155 78.0506 102.659 77.8535 102.296 77.4884C101.933 77.1234 101.735 76.6227 101.747 76.1044C101.858 71.6867 102.122 61.4603 102.157 61.3339L105.151 61.0188ZM103.41 64.6176L103.387 71.476L105.972 71.3837L104.505 64.5795L103.41 64.6176Z" fill="#566068"/>
<path d="M137.585 109.179C126.411 91.1373 100.291 88.4466 96.7639 88.1584V88.1283L96.5638 88.1423L96.3636 88.1283V88.1584C92.8364 88.4426 66.715 91.1333 55.543 109.179C41.6024 131.685 38.7118 195.537 38.1153 219.412C38.0554 221.823 38.9712 224.155 40.6551 225.881C42.3389 227.607 44.6482 228.58 47.0593 228.579H146.068C148.479 228.579 150.788 227.606 152.472 225.881C154.156 224.155 155.072 221.823 155.012 219.412C154.416 195.537 151.525 131.685 137.585 109.179Z" fill="#26B824"/>
<path d="M55.4183 109.924L46.8223 148.562C46.8223 148.562 45.0912 159.901 47.824 182.388C47.824 182.388 91.5104 194.55 156.696 179.046C156.696 179.046 160.25 117.789 138.197 92.1861C116.143 66.5837 55.4183 109.924 55.4183 109.924Z" fill="#75B1C9"/>
<path d="M55.0935 109.579C53.2209 110.261 47.3209 144.247 47.3209 144.247C144.609 131.865 129.723 103.928 129.723 103.928C129.723 103.928 56.977 108.899 55.0935 109.579Z" fill="#FFD3AE"/>
<ellipse cx="41.7498" cy="56.2311" rx="10.6463" ry="10.6463" transform="rotate(-24.22 41.7498 56.2311)" fill="#FFE0C2"/>
<ellipse cx="43.869" cy="56.1337" rx="8.54564" ry="8.54565" transform="rotate(-78.44 43.869 56.1337)" fill="#FFD3AE"/>
<ellipse cx="152.162" cy="52.9094" rx="10.6463" ry="10.6463" transform="rotate(-24.22 152.162 52.9094)" fill="#FFE0C2"/>
<ellipse cx="150.065" cy="52.9811" rx="8.54563" ry="8.54563" transform="rotate(-46.72 150.065 52.9811)" fill="#FFD3AE"/>
<path d="M41.1174 64.2688C41.1174 64.2688 30.8126 15.0456 90.1841 13.242C149.556 11.4385 153.558 60.8348 153.558 60.8348C153.558 60.8348 158.508 94.5551 98.1096 96.4068C37.7115 98.2585 41.1174 64.2688 41.1174 64.2688Z" fill="#FFE0C2"/>
<path d="M66.5325 48.9576C68.8434 48.8988 71.1402 49.362 73.242 50.3108C73.508 49.0152 73.6171 47.6929 73.5671 46.3707C73.4035 41.4722 71.2901 37.5566 68.8361 37.6227C66.3821 37.6887 64.5471 41.7077 64.7119 46.5956C64.7414 47.4299 64.8286 48.2617 64.973 49.0853C65.4914 49.021 66.0075 48.978 66.5325 48.9576Z" fill="#634E42"/>
<path d="M125.46 47.1323C123.15 47.1969 120.889 47.7912 118.858 48.8678C118.505 47.571 118.306 46.2392 118.263 44.8985C118.106 39.9356 119.958 35.8624 122.402 35.791C124.846 35.7196 126.964 39.6958 127.122 44.6478C127.148 45.4921 127.115 46.3369 127.024 47.1763C126.503 47.1345 125.981 47.1198 125.46 47.1323Z" fill="#634E42"/>
<path d="M41.1897 44.1005C41.1897 44.1005 41.2089 49.7706 45.2359 49.1623C49.2629 48.5539 49.8908 42.9178 49.8908 42.9178C49.8908 42.9178 54.3863 41.6785 54.2292 37.3202C54.2292 37.3202 62.0488 25.5021 48.083 25.3379C48.083 25.3379 35.8156 21.2825 38.325 34.7757C38.3226 34.7981 30.0115 41.9507 41.1897 44.1005Z" fill="#EFEFEF"/>
<path d="M150.694 41.1101C150.694 41.1101 150.99 46.7621 147.267 46.4391C143.544 46.1161 142.64 40.4571 142.64 40.4571C142.64 40.4571 138.4 39.4766 138.338 35.1122C138.338 35.1122 130.487 23.7506 143.302 22.7991C143.302 22.7991 154.325 18.0296 152.794 31.6706C152.797 31.6368 160.826 38.3064 150.694 41.1101Z" fill="#EFEFEF"/>
<path d="M97.8264 57.0541L100.28 135.097L99.0334 135.364L97.7794 135.165C91.6738 134.103 76.5704 130.558 75.4587 121.56C75.4587 121.56 52.5186 119.912 51.3141 108.604C51.3141 108.604 28.4734 97.4995 37.9034 80.2307C37.9034 80.2307 36.0282 47.7496 42.627 41.8847L43.5846 45.1153C43.5846 45.1153 55.4959 52.8594 54.096 62.1353C54.096 62.1353 66.6781 59.454 71.6802 68.142C71.6802 68.142 82.7437 55.5463 90.6011 55.6864C92.5974 55.6549 94.5916 55.8423 96.5472 56.245C98.0318 56.5891 97.8264 57.0541 97.8264 57.0541Z" fill="#EFEFEF"/>
<path d="M145.009 106.654C144.51 118.047 121.905 121.044 121.905 121.044C121.361 130.124 106.63 134.559 100.661 135.985L99.4242 136.255L98.1813 136.058L95.8312 57.812C95.8312 57.812 95.579 57.3637 97.0429 56.8292C98.9538 56.3128 100.915 56.0052 102.892 55.912C110.658 55.3183 122.368 67.2843 122.368 67.2843C126.726 58.306 139.418 60.1951 139.418 60.1951C137.46 50.986 148.779 42.5285 148.779 42.5285L149.519 39.276C156.415 44.7521 156.541 77.4036 156.541 77.4036C166.94 94.1496 145.009 106.654 145.009 106.654Z" fill="#EFEFEF"/>
<path d="M112.588 23.9174C112.588 23.9174 109.206 14.8588 119.297 12.0246C129.387 9.1905 132.227 19.9111 132.227 19.9111C132.227 19.9111 125.06 15.448 120.713 16.6557C116.367 17.8633 115.134 18.8978 112.588 23.9174Z" fill="#EFEFEF"/>
<path d="M57.2217 21.9225C57.2217 21.9225 58.0426 12.0426 68.4988 13.4109C78.9549 14.7793 76.959 25.9273 76.959 25.9273C76.959 25.9273 72.328 18.9087 67.8336 18.3241C63.3391 17.7395 61.7418 18.2338 57.2217 21.9225Z" fill="#EFEFEF"/>
<path d="M108.958 49.8727C108.519 49.8904 108.082 49.9435 107.652 50.0317C105.857 48.0763 102.525 46.8153 98.7133 46.8975C94.9013 46.9797 91.6517 48.4708 89.9705 50.5327C89.5345 50.4768 89.0951 50.4526 88.6556 50.4604C85.8052 50.5448 83.5415 52.1176 83.5973 53.978C83.6532 55.8385 86.0065 57.26 88.857 57.1755C89.296 57.1591 89.733 57.106 90.1633 57.0166C91.9686 58.9731 95.2898 60.233 99.1018 60.1508C102.914 60.0686 106.165 58.5667 107.846 56.5047C108.277 56.5879 108.715 56.6339 109.154 56.6422C112.005 56.5468 114.268 54.9849 114.212 53.1245C114.156 51.2641 111.863 49.7939 108.958 49.8727Z" fill="#FFD3AE"/>
<path d="M36.6444 129.61C36.6444 129.61 12.9531 119.596 21.6517 95.9516C21.6517 95.9516 12.4572 81.3758 16.0025 77.3501C19.5478 73.3244 31.6924 76.6381 31.6924 76.6381C31.6924 76.6381 29.5619 72.4017 36.688 71.2785C43.8141 70.1554 34.9203 99.5339 54.0687 109.779C66.9954 116.659 52.5823 135.327 36.6444 129.61Z" fill="#FFE0C2"/>
<path d="M34.5895 22.4098L34.2887 22.8027C34.1967 22.9277 34.0722 23.025 33.9287 23.084C33.7852 23.143 33.6283 23.1615 33.475 23.1374C33.3217 23.1134 33.178 23.0477 33.0595 22.9475C32.941 22.8473 32.8523 22.7166 32.8031 22.5694C31.8796 19.7557 30.2325 17.2343 28.027 15.258C27.8733 15.1182 27.673 15.0408 27.4653 15.0408C27.2576 15.0408 27.0573 15.1182 26.9036 15.258C24.6989 17.2362 23.0502 19.7568 22.1214 22.5694C22.0754 22.718 21.9892 22.8509 21.8723 22.9533C21.7553 23.0558 21.6123 23.1239 21.459 23.1499C21.3057 23.176 21.1482 23.1591 21.004 23.101C20.8597 23.043 20.7344 22.9461 20.6419 22.8211L20.3411 22.4098C20.2622 22.3044 20.1598 22.2188 20.0421 22.1598C19.9243 22.1008 19.7944 22.0701 19.6628 22.0701C19.5311 22.0701 19.4012 22.1008 19.2834 22.1598C19.1657 22.2188 19.0633 22.3044 18.9844 22.4098C9.03325 35.6576 16.9708 44.7308 16.9708 44.7308H37.9597C37.9597 44.7308 45.8973 35.6576 35.9462 22.4098C35.8673 22.3044 35.7649 22.2188 35.6472 22.1598C35.5294 22.1008 35.3995 22.0701 35.2678 22.0701C35.1361 22.0701 35.0063 22.1008 34.8885 22.1598C34.7708 22.2188 34.6684 22.3044 34.5895 22.4098Z" fill="#EC631D"/>
<path d="M37.9596 44.7307H35.2585C35.2585 44.7307 42.926 35.9889 33.7791 23.1463C33.9843 23.1071 34.1666 22.9906 34.2886 22.821L34.5894 22.4281C34.6683 22.3226 34.7707 22.237 34.8884 22.1781C35.0062 22.1191 35.136 22.0884 35.2677 22.0884C35.3994 22.0884 35.5293 22.1191 35.6471 22.1781C35.7648 22.237 35.8672 22.3226 35.9461 22.4281C45.8972 35.6636 37.9596 44.7307 37.9596 44.7307Z" fill="#DD4429"/>
<path d="M41.7723 45.4553C41.7691 45.2631 41.6909 45.0798 41.5544 44.9444C41.4179 44.8091 41.2339 44.7325 41.0417 44.7309H13.8894C13.6972 44.7325 13.5132 44.8091 13.3767 44.9444C13.2402 45.0798 13.162 45.2631 13.1588 45.4553C13.0852 52.4905 19.531 55.0504 19.531 55.0504H35.4001C35.4001 55.0504 41.8459 52.4905 41.7723 45.4553Z" fill="#B7C1CA"/>
<path d="M41.7721 45.4553C41.8457 52.4905 35.3999 55.0504 35.3999 55.0504H32.6497C32.6497 55.0504 39.0894 52.4905 39.0157 45.4553C39.0157 45.2632 38.9394 45.0789 38.8035 44.9431C38.6677 44.8072 38.4834 44.7309 38.2913 44.7309H41.0415C41.2338 44.7325 41.4177 44.8091 41.5542 44.9444C41.6907 45.0798 41.7689 45.2631 41.7721 45.4553Z" fill="#A3AEB7"/>
<path d="M27.4627 55.0503H19.6172L22.9813 82.4421C23.3128 85.1493 25.1668 87.1506 27.3461 87.1506H27.6223C29.8016 87.1506 31.6556 85.1493 31.9871 82.4421L35.3328 55.0503H27.4627Z" fill="#B7C1CA"/>
<path d="M35.3141 55.0503L31.9684 82.4421C31.6369 85.1493 29.7829 87.1506 27.6036 87.1506H27.3274C26.924 87.1492 26.5236 87.0807 26.1426 86.948C27.7755 86.3771 29.0463 84.6398 29.3164 82.4421L32.6621 55.0503H35.3141Z" fill="#A3AEB7"/>
<path d="M26.8239 31.3603C18.5793 37.3519 24.043 44.7308 24.043 44.7308H30.8879C30.8879 44.7308 36.3515 37.3641 28.1069 31.3603C27.919 31.2285 27.695 31.1578 27.4654 31.1578C27.2359 31.1578 27.0119 31.2285 26.8239 31.3603Z" fill="#F9AF2F"/>
<path d="M30.8881 44.7308H28.6106C28.6106 44.7308 33.8471 37.6588 26.3269 31.7409C26.4865 31.612 26.6523 31.4892 26.8242 31.3603C27.0121 31.2285 27.2361 31.1578 27.4657 31.1578C27.6952 31.1578 27.9192 31.2285 28.1072 31.3603C36.3517 37.3519 30.8881 44.7308 30.8881 44.7308Z" fill="#F18415"/>
<path d="M35.6644 67.0457H19.2981C18.909 67.0457 18.5237 66.969 18.1643 66.8199C17.8049 66.6708 17.4784 66.4523 17.2036 66.1769C16.9288 65.9015 16.7109 65.5746 16.5626 65.2149C16.4143 64.8552 16.3383 64.4697 16.3391 64.0806C16.3391 63.2959 16.6509 62.5432 17.2058 61.9883C17.7607 61.4334 18.5133 61.1217 19.2981 61.1217H35.6644C36.4492 61.1217 37.2018 61.4334 37.7567 61.9883C38.3116 62.5432 38.6233 63.2959 38.6233 64.0806C38.6241 64.4697 38.5482 64.8552 38.3999 65.2149C38.2515 65.5746 38.0337 65.9015 37.7589 66.1769C37.484 66.4523 37.1575 66.6708 36.7982 66.8199C36.4388 66.969 36.0535 67.0457 35.6644 67.0457Z" fill="#30B5AB"/>
<path d="M38.6234 64.0806C38.6234 64.866 38.3118 65.6192 37.7571 66.1751C37.2023 66.731 36.4497 67.0441 35.6644 67.0457H33.4851C34.2474 67.011 34.9669 66.6838 35.494 66.1321C36.0211 65.5804 36.3153 64.8468 36.3153 64.0837C36.3153 63.3207 36.0211 62.587 35.494 62.0353C34.9669 61.4836 34.2474 61.1564 33.4851 61.1217H35.6644C36.4492 61.1217 37.2018 61.4334 37.7567 61.9883C38.3116 62.5432 38.6234 63.2959 38.6234 64.0806Z" fill="#11877C"/>
<path d="M46.157 143.963C39.7657 169.55 38.0751 204.747 37.6359 220.532C37.5096 225.052 41.5586 228.775 46.5962 228.775H145.785C150.82 228.775 154.869 225.052 154.745 220.532C154.344 206.223 152.928 175.966 147.897 151.374L46.157 143.963Z" fill="#21BAAF"/>
<path d="M145.785 223.313H46.5962C42.1482 223.313 38.4722 220.428 37.7603 216.659C37.7101 218.068 37.67 219.385 37.6359 220.583C37.5096 225.075 41.5586 228.775 46.5962 228.775H145.785C150.82 228.775 154.869 225.075 154.745 220.583C154.711 219.387 154.669 218.068 154.621 216.659C153.907 220.428 150.231 223.313 145.785 223.313Z" fill="#1E8E83"/>
<path d="M46.2866 144.251L147.877 151.664C147.877 151.664 158.975 156.897 160.148 165.889C161.322 174.881 149.595 193.92 125.457 193.869C87.1615 193.789 87.4538 175.305 75.4369 161.982C64.3871 149.733 46.2866 144.251 46.2866 144.251Z" fill="#2FD3C3"/>
<path d="M125.703 194.446H125.607C95.9523 194.382 88.9174 183.153 82.1069 172.294C80.007 168.946 77.837 165.491 75.0259 162.376C64.222 150.423 46.3511 144.923 46.1728 144.869C46.0077 144.83 45.8668 144.723 45.7847 144.575C45.7027 144.427 45.6872 144.251 45.742 144.091C45.8927 143.758 46.2718 143.595 46.6176 143.713C46.802 143.769 65.0515 149.384 76.0978 161.612C78.9811 164.801 81.1812 168.308 83.3111 171.699C90.2358 182.739 96.7738 193.166 125.623 193.226H125.713C135.984 193.226 145.279 189.567 151.897 182.917C157.984 176.797 160.178 169.997 159.653 165.97C158.533 157.407 147.844 152.283 147.738 152.231C147.582 152.168 147.461 152.041 147.406 151.882C147.351 151.724 147.366 151.549 147.449 151.403C147.647 151.096 148.044 150.985 148.373 151.145C148.84 151.365 159.812 156.627 161.012 165.827C161.573 170.125 159.289 177.329 152.917 183.733C146.026 190.641 136.369 194.446 125.703 194.446Z" fill="#566068"/>
<path fill-rule="evenodd" clip-rule="evenodd" d="M48.5946 144.028L46.4361 157.237C46.2674 158.261 45.1287 158.907 44.0296 158.598L41.5238 157.874C40.5041 157.58 39.9684 156.571 40.3553 155.669C41.9345 151.991 45.5909 143.48 45.6663 143.386L48.5946 144.028ZM45.7534 146.52L43.4441 152.274L45.922 152.987L46.7989 146.821L45.7534 146.52Z" fill="#566068"/>
<path d="M169.305 125.217C169.305 125.217 176.489 149.619 153.002 158.837C153.002 158.837 147.63 175.408 142.334 175.475C137.039 175.541 131.972 164.227 131.972 164.227C131.972 164.227 130.083 168.664 124.755 164.072C119.426 159.48 148.875 133.247 148.58 115.057C148.285 96.8658 164.02 106.394 169.305 125.217Z" fill="#FFE0C2"/>
</svg>
