<svg width="69" height="75" viewBox="0 0 69 75" fill="none" xmlns="http://www.w3.org/2000/svg">
<path d="M21.974 11.0387H9.50146L10.122 7.16907C10.3225 5.91926 11.4008 5 12.6665 5H18.8088C20.0745 5 21.153 5.91926 21.3533 7.16907L21.974 11.0387Z" fill="#7F9AE6"/>
<path opacity="0.2" d="M15.9756 5H12.6665C11.4008 5 10.3223 5.91926 10.122 7.16907L9.50146 11.0387H19.3298C15.8606 9.5611 14.6304 7.51986 15.9756 5Z" fill="#254A74"/>
<path d="M47.2922 11.0387H59.7647L59.1442 7.16907C58.9437 5.91926 57.8654 5 56.5997 5H50.4574C49.1917 5 48.1132 5.91926 47.9129 7.16907L47.2922 11.0387Z" fill="#7F9AE6"/>
<path opacity="0.2" d="M53.7666 5H50.4575C49.1918 5 48.1133 5.91926 47.913 7.16907L47.2925 11.0387H57.1208C53.6515 9.5611 52.4213 7.51986 53.7666 5Z" fill="#254A74"/>
<path d="M68.1558 40.1917L64.3861 16.8637C63.6371 12.2287 59.6356 8.82175 54.9403 8.82175H51.3762C49.1934 8.82175 47.0567 9.44856 45.2199 10.6277L44.3718 11.1721C42.9664 12.0743 41.3316 12.554 39.6615 12.554H29.6041C27.934 12.554 26.2991 12.0743 24.8938 11.1721L24.0457 10.6277C22.2089 9.44856 20.0721 8.82175 17.8894 8.82175H14.3252C9.62998 8.82175 5.62843 12.2285 4.87944 16.8637L1.1103 40.1917C0.279192 45.3352 4.25066 50 9.4609 50C13.5648 50 17.0767 47.0542 17.7907 43.013L19.907 31.0364H49.3592L51.4755 43.013C52.1895 47.0542 55.7014 50 59.8053 50C65.0154 50.0001 68.987 45.3352 68.1558 40.1917Z" fill="#6B7BAB"/>
<path d="M27.4162 21.7369C28.8868 21.7369 30.079 20.7875 30.079 19.6164C30.079 18.4453 28.8868 17.4959 27.4162 17.4959C25.9456 17.4959 24.7534 18.4453 24.7534 19.6164C24.7534 20.7875 25.9456 21.7369 27.4162 21.7369Z" fill="#E38892"/>
<path d="M41.8498 21.7369C43.3204 21.7369 44.5126 20.7875 44.5126 19.6164C44.5126 18.4453 43.3204 17.4959 41.8498 17.4959C40.3792 17.4959 39.187 18.4453 39.187 19.6164C39.187 20.7875 40.3792 21.7369 41.8498 21.7369Z" fill="#E38892"/>
<path d="M28.9685 18.4853C28.4243 18.4853 27.9832 18.0443 27.9832 17.5V16.5598C27.9832 16.0155 28.4243 15.5745 28.9685 15.5745C29.5127 15.5745 29.9538 16.0155 29.9538 16.5598V17.5C29.9538 18.0441 29.5127 18.4853 28.9685 18.4853Z" fill="#495059"/>
<path d="M40.2978 18.4853C39.7537 18.4853 39.3125 18.0443 39.3125 17.5V16.5598C39.3125 16.0155 39.7537 15.5745 40.2978 15.5745C40.842 15.5745 41.2832 16.0155 41.2832 16.5598V17.5C41.2832 18.0441 40.842 18.4853 40.2978 18.4853Z" fill="#495059"/>
<path d="M34.6331 19.2071C33.7759 19.2071 32.9608 18.8359 32.3968 18.1888C32.0393 17.7785 32.082 17.1561 32.4923 16.7985C32.9025 16.441 33.5249 16.4839 33.8824 16.894C34.072 17.1116 34.3457 17.2364 34.633 17.2364C34.9205 17.2364 35.194 17.1116 35.3836 16.894C35.7412 16.4837 36.3635 16.441 36.7738 16.7985C37.1841 17.1561 37.2268 17.7785 36.8693 18.1888C36.3055 18.8359 35.4904 19.2071 34.6331 19.2071Z" fill="#495059"/>
<path opacity="0.2" d="M26.3709 11.9308C25.858 11.726 25.363 11.4731 24.8942 11.1721L24.0461 10.6277C22.2093 9.44856 20.0725 8.82175 17.8898 8.82175H14.3256C9.63038 8.82175 5.62883 12.2285 4.87983 16.8637L1.1103 40.1917C0.279192 45.3352 4.25066 50 9.4609 50C13.5648 50 17.0767 47.0543 17.7907 43.013L19.907 31.0364H35.9996C28.3624 25.9415 26.1323 16.802 26.3709 11.9308Z" fill="#254A74"/>
<path d="M24.7732 37.8041C28.5107 37.8041 31.5406 34.7743 31.5406 31.0368C31.5406 27.2993 28.5107 24.2694 24.7732 24.2694C21.0357 24.2694 18.0059 27.2993 18.0059 31.0368C18.0059 34.7743 21.0357 37.8041 24.7732 37.8041Z" fill="#7F9AE6"/>
<path opacity="0.2" d="M30.7503 34.2095C21.0917 36.5914 19.6614 27.5438 22.479 24.6691C19.871 25.6089 18.0061 28.1047 18.0061 31.0365C18.0061 34.7739 21.0358 37.8035 24.7731 37.8035C27.3636 37.8035 29.6131 36.3474 30.7503 34.2095Z" fill="#254A74"/>
<path d="M24.7732 34.6429C26.7646 34.6429 28.3789 33.0285 28.3789 31.0372C28.3789 29.0458 26.7646 27.4315 24.7732 27.4315C22.7818 27.4315 21.1675 29.0458 21.1675 31.0372C21.1675 33.0285 22.7818 34.6429 24.7732 34.6429Z" fill="#BBE0F1"/>
<path d="M44.4934 37.8041C48.2309 37.8041 51.2608 34.7743 51.2608 31.0368C51.2608 27.2993 48.2309 24.2694 44.4934 24.2694C40.7559 24.2694 37.7261 27.2993 37.7261 31.0368C37.7261 34.7743 40.7559 37.8041 44.4934 37.8041Z" fill="#7F9AE6"/>
<path opacity="0.2" d="M50.4703 34.2095C40.8116 36.5914 39.3813 27.5438 42.199 24.6691C39.591 25.6089 37.7261 28.1047 37.7261 31.0365C37.7261 34.7739 40.7557 37.8035 44.493 37.8035C47.0836 37.8035 49.333 36.3474 50.4703 34.2095Z" fill="#254A74"/>
<path d="M44.4929 34.6429C46.4843 34.6429 48.0986 33.0286 48.0986 31.0372C48.0986 29.0458 46.4843 27.4315 44.4929 27.4315C42.5015 27.4315 40.8872 29.0458 40.8872 31.0372C40.8872 33.0286 42.5015 34.6429 44.4929 34.6429Z" fill="#BBE0F1"/>
<path d="M55.0967 17.7133C56.4372 17.7133 57.5239 16.6266 57.5239 15.2861C57.5239 13.9455 56.4372 12.8588 55.0967 12.8588C53.7561 12.8588 52.6694 13.9455 52.6694 15.2861C52.6694 16.6266 53.7561 17.7133 55.0967 17.7133Z" fill="#BBE0F1"/>
<path d="M55.0967 25.4385C56.4372 25.4385 57.5239 24.3518 57.5239 23.0113C57.5239 21.6708 56.4372 20.5841 55.0967 20.5841C53.7561 20.5841 52.6694 21.6708 52.6694 23.0113C52.6694 24.3518 53.7561 25.4385 55.0967 25.4385Z" fill="#BBE0F1"/>
<path d="M58.9592 21.5756C60.2997 21.5756 61.3865 20.4889 61.3865 19.1484C61.3865 17.8078 60.2997 16.7211 58.9592 16.7211C57.6187 16.7211 56.532 17.8078 56.532 19.1484C56.532 20.4889 57.6187 21.5756 58.9592 21.5756Z" fill="#BBE0F1"/>
<path d="M51.2341 21.5756C52.5746 21.5756 53.6614 20.4889 53.6614 19.1484C53.6614 17.8078 52.5746 16.7211 51.2341 16.7211C49.8936 16.7211 48.8069 17.8078 48.8069 19.1484C48.8069 20.4889 49.8936 21.5756 51.2341 21.5756Z" fill="#BBE0F1"/>
<path d="M14.1687 17.7129C12.8282 17.7129 11.7415 16.6262 11.7415 15.2856V14.2996C11.7415 13.5036 12.3867 12.8584 13.1827 12.8584H15.1547C15.9507 12.8584 16.5959 13.5036 16.5959 14.2996V15.2856C16.5959 16.6261 15.5093 17.7129 14.1687 17.7129Z" fill="#BBE0F1"/>
<path d="M12.7334 19.1481C12.7334 20.4885 11.6467 21.5753 10.3061 21.5753H9.32014C8.52411 21.5753 7.87891 20.9301 7.87891 20.1341V18.1621C7.87891 17.366 8.52411 16.7208 9.32014 16.7208H10.3061C11.6467 16.7208 12.7334 17.8076 12.7334 19.1481Z" fill="#BBE0F1"/>
<path d="M14.1687 20.5839C15.5092 20.5839 16.5959 21.6706 16.5959 23.0112V23.9972C16.5959 24.7932 15.9507 25.4384 15.1547 25.4384H13.1827C12.3867 25.4384 11.7415 24.7932 11.7415 23.9972V23.0112C11.7415 21.6707 12.8282 20.5839 14.1687 20.5839Z" fill="#BBE0F1"/>
<path d="M15.6045 19.1481C15.6045 17.8076 16.6913 16.7208 18.0317 16.7208H19.0177C19.8138 16.7208 20.459 17.366 20.459 18.1621V20.1341C20.459 20.9301 19.8138 21.5753 19.0177 21.5753H18.0317C16.6911 21.5753 15.6045 20.4887 15.6045 19.1481Z" fill="#BBE0F1"/>
<path d="M20.9306 68.814H21.7946V71.271C21.4826 71.529 21.1196 71.727 20.7056 71.865C20.2916 72.003 19.8596 72.072 19.4096 72.072C18.7736 72.072 18.2006 71.934 17.6906 71.658C17.1806 71.376 16.7786 70.992 16.4846 70.506C16.1966 70.014 16.0526 69.462 16.0526 68.85C16.0526 68.238 16.1966 67.686 16.4846 67.194C16.7786 66.702 17.1806 66.318 17.6906 66.042C18.2066 65.766 18.7856 65.628 19.4276 65.628C19.9316 65.628 20.3876 65.712 20.7956 65.88C21.2096 66.042 21.5606 66.282 21.8486 66.6L21.2906 67.158C20.7866 66.672 20.1776 66.429 19.4636 66.429C18.9836 66.429 18.5516 66.534 18.1676 66.744C17.7896 66.948 17.4926 67.236 17.2766 67.608C17.0606 67.974 16.9526 68.388 16.9526 68.85C16.9526 69.306 17.0606 69.72 17.2766 70.092C17.4926 70.458 17.7896 70.746 18.1676 70.956C18.5516 71.166 18.9806 71.271 19.4546 71.271C20.0186 71.271 20.5106 71.136 20.9306 70.866V68.814ZM29.0318 70.425H25.6838L24.9908 72H24.0638L26.9168 65.7H27.8078L30.6698 72H29.7248L29.0318 70.425ZM28.7168 69.705L27.3578 66.618L25.9988 69.705H28.7168ZM38.9506 72L38.9416 67.41L36.6646 71.235H36.2506L33.9736 67.437V72H33.1096V65.7H33.8476L36.4756 70.128L39.0676 65.7H39.8056L39.8146 72H38.9506ZM47.7773 71.217V72H43.2053V65.7H47.6513V66.483H44.1053V68.418H47.2643V69.183H44.1053V71.217H47.7773ZM52.5706 72.072C52.0966 72.072 51.6376 72 51.1936 71.856C50.7556 71.706 50.4106 71.514 50.1586 71.28L50.4916 70.578C50.7316 70.794 51.0376 70.971 51.4096 71.109C51.7876 71.241 52.1746 71.307 52.5706 71.307C53.0926 71.307 53.4826 71.22 53.7406 71.046C53.9986 70.866 54.1276 70.629 54.1276 70.335C54.1276 70.119 54.0556 69.945 53.9116 69.813C53.7736 69.675 53.5996 69.57 53.3896 69.498C53.1856 69.426 52.8946 69.345 52.5166 69.255C52.0426 69.141 51.6586 69.027 51.3646 68.913C51.0766 68.799 50.8276 68.625 50.6176 68.391C50.4136 68.151 50.3116 67.83 50.3116 67.428C50.3116 67.092 50.3986 66.789 50.5726 66.519C50.7526 66.249 51.0226 66.033 51.3826 65.871C51.7426 65.709 52.1896 65.628 52.7236 65.628C53.0956 65.628 53.4616 65.676 53.8216 65.772C54.1816 65.868 54.4906 66.006 54.7486 66.186L54.4516 66.906C54.1876 66.738 53.9056 66.612 53.6056 66.528C53.3056 66.438 53.0116 66.393 52.7236 66.393C52.2136 66.393 51.8296 66.486 51.5716 66.672C51.3196 66.858 51.1936 67.098 51.1936 67.392C51.1936 67.608 51.2656 67.785 51.4096 67.923C51.5536 68.055 51.7306 68.16 51.9406 68.238C52.1566 68.31 52.4476 68.388 52.8136 68.472C53.2876 68.586 53.6686 68.7 53.9566 68.814C54.2446 68.928 54.4906 69.102 54.6946 69.336C54.9046 69.57 55.0096 69.885 55.0096 70.281C55.0096 70.611 54.9196 70.914 54.7396 71.19C54.5596 71.46 54.2866 71.676 53.9206 71.838C53.5546 71.994 53.1046 72.072 52.5706 72.072Z" fill="black"/>
</svg>
