<svg width="149" height="33" viewBox="0 0 149 33" fill="none" xmlns="http://www.w3.org/2000/svg">
<path d="M33.1433 4.57151H45.177C45.7996 4.57151 46.3145 4.7739 46.7216 5.17867C47.1527 5.55963 47.3682 6.05965 47.3682 6.67871C47.3682 7.27396 47.1527 7.76207 46.7216 8.14304C46.3145 8.50019 45.7996 8.67876 45.177 8.67876H35.119L35.4423 8.0716V15.0361L35.1549 14.7503H43.5605C44.1832 14.7503 44.698 14.9527 45.1051 15.3575C45.5362 15.7385 45.7517 16.2385 45.7517 16.8575C45.7517 17.4528 45.5362 17.9409 45.1051 18.3219C44.698 18.679 44.1832 18.8576 43.5605 18.8576H35.2627L35.4423 18.5719V25.7863L35.1549 25.4649H45.177C45.7996 25.4649 46.3145 25.6792 46.7216 26.1078C47.1527 26.5126 47.3682 26.9888 47.3682 27.5364C47.3682 28.1316 47.1527 28.6198 46.7216 29.0007C46.3145 29.3817 45.7996 29.5722 45.177 29.5722H33.1433C32.5207 29.5722 31.9939 29.3698 31.5628 28.965C31.1557 28.5364 30.9521 28.0126 30.9521 27.3935V6.75014C30.9521 6.13108 31.1557 5.61916 31.5628 5.21439C31.9939 4.7858 32.5207 4.57151 33.1433 4.57151Z" fill="#22BAAF"/>
<path d="M63.9734 10.1788L56.2144 28.3221C56.0467 28.7745 55.7833 29.1317 55.4241 29.3936C55.0888 29.6317 54.7176 29.7507 54.3105 29.7507C53.664 29.7507 53.185 29.5722 52.8737 29.215C52.5624 28.8579 52.4067 28.4174 52.4067 27.8935C52.4067 27.6793 52.4426 27.4531 52.5145 27.215L61.4589 5.85726C61.6505 5.38106 61.9378 5.012 62.321 4.75009C62.7281 4.48818 63.1592 4.38103 63.6142 4.42865C64.0452 4.42865 64.4403 4.55961 64.7996 4.82152C65.1827 5.05962 65.4581 5.40487 65.6257 5.85726L74.4624 26.7864C74.5821 27.0959 74.642 27.3816 74.642 27.6435C74.642 28.2864 74.4265 28.7983 73.9954 29.1793C73.5883 29.5603 73.1333 29.7507 72.6304 29.7507C72.1993 29.7507 71.8042 29.6198 71.445 29.3579C71.1097 29.096 70.8463 28.7388 70.6547 28.2864L62.9316 10.3931L63.9734 10.1788ZM57.3279 23.9649L59.3036 19.8576H69.0023L69.6849 23.9649H57.3279Z" fill="#22BAAF"/>
<path d="M94.7821 25.3935C95.4047 25.3935 95.9196 25.5959 96.3267 26.0006C96.7577 26.3816 96.9733 26.8816 96.9733 27.5007C96.9733 28.0959 96.7577 28.5959 96.3267 29.0007C95.9196 29.3817 95.4047 29.5722 94.7821 29.5722H83.1076C82.485 29.5722 81.9582 29.3698 81.5271 28.965C81.12 28.5364 80.9164 28.0126 80.9164 27.3935V6.75014C80.9164 6.13108 81.132 5.61916 81.563 5.21439C81.9941 4.7858 82.5449 4.57151 83.2154 4.57151C83.7901 4.57151 84.293 4.7858 84.7241 5.21439C85.1791 5.61916 85.4066 6.13108 85.4066 6.75014V26.0006L84.6163 25.3935H94.7821Z" fill="#22BAAF"/>
<path d="M109.255 29.5722C108.585 29.5722 108.034 29.3698 107.603 28.965C107.172 28.5364 106.956 28.0126 106.956 27.3935V6.67871H111.626V27.3935C111.626 28.0126 111.399 28.5364 110.944 28.965C110.513 29.3698 109.95 29.5722 109.255 29.5722ZM101.317 8.67876C100.694 8.67876 100.167 8.48828 99.7361 8.10732C99.329 7.72636 99.1255 7.22634 99.1255 6.60728C99.1255 5.98822 99.329 5.50011 99.7361 5.14296C100.167 4.762 100.694 4.57151 101.317 4.57151H117.266C117.888 4.57151 118.403 4.762 118.81 5.14296C119.241 5.52392 119.457 6.02393 119.457 6.643C119.457 7.26206 119.241 7.76207 118.81 8.14304C118.403 8.50019 117.888 8.67876 117.266 8.67876H101.317Z" fill="#22BAAF"/>
<path d="M128.76 4.57151C129.334 4.57151 129.837 4.7858 130.268 5.21439C130.723 5.61916 130.951 6.13108 130.951 6.75014V27.3935C130.951 28.0126 130.723 28.5364 130.268 28.965C129.813 29.3698 129.287 29.5722 128.688 29.5722C128.017 29.5722 127.478 29.3698 127.071 28.965C126.664 28.5364 126.461 28.0126 126.461 27.3935V6.75014C126.461 6.13108 126.676 5.61916 127.107 5.21439C127.538 4.7858 128.089 4.57151 128.76 4.57151ZM144.673 4.57151C145.343 4.57151 145.882 4.7858 146.289 5.21439C146.696 5.61916 146.9 6.13108 146.9 6.75014V27.3935C146.9 28.0126 146.684 28.5364 146.253 28.965C145.846 29.3698 145.295 29.5722 144.601 29.5722C144.026 29.5722 143.511 29.3698 143.056 28.965C142.625 28.5364 142.41 28.0126 142.41 27.3935V6.75014C142.41 6.13108 142.637 5.61916 143.092 5.21439C143.547 4.7858 144.074 4.57151 144.673 4.57151ZM128.652 14.9646H144.673V19.0719H128.652V14.9646Z" fill="#22BAAF"/>
<path d="M33.1433 4.57151H45.177C45.7996 4.57151 46.3145 4.7739 46.7216 5.17867C47.1527 5.55963 47.3682 6.05965 47.3682 6.67871C47.3682 7.27396 47.1527 7.76207 46.7216 8.14304C46.3145 8.50019 45.7996 8.67876 45.177 8.67876H35.119L35.4423 8.0716V15.0361L35.1549 14.7503H43.5605C44.1832 14.7503 44.698 14.9527 45.1051 15.3575C45.5362 15.7385 45.7517 16.2385 45.7517 16.8575C45.7517 17.4528 45.5362 17.9409 45.1051 18.3219C44.698 18.679 44.1832 18.8576 43.5605 18.8576H35.2627L35.4423 18.5719V25.7863L35.1549 25.4649H45.177C45.7996 25.4649 46.3145 25.6792 46.7216 26.1078C47.1527 26.5126 47.3682 26.9888 47.3682 27.5364C47.3682 28.1316 47.1527 28.6198 46.7216 29.0007C46.3145 29.3817 45.7996 29.5722 45.177 29.5722H33.1433C32.5207 29.5722 31.9939 29.3698 31.5628 28.965C31.1557 28.5364 30.9521 28.0126 30.9521 27.3935V6.75014C30.9521 6.13108 31.1557 5.61916 31.5628 5.21439C31.9939 4.7858 32.5207 4.57151 33.1433 4.57151Z" stroke="#22BAAF" stroke-width="2"/>
<path d="M63.9734 10.1788L56.2144 28.3221C56.0467 28.7745 55.7833 29.1317 55.4241 29.3936C55.0888 29.6317 54.7176 29.7507 54.3105 29.7507C53.664 29.7507 53.185 29.5722 52.8737 29.215C52.5624 28.8579 52.4067 28.4174 52.4067 27.8935C52.4067 27.6793 52.4426 27.4531 52.5145 27.215L61.4589 5.85726C61.6505 5.38106 61.9378 5.012 62.321 4.75009C62.7281 4.48818 63.1592 4.38103 63.6142 4.42865C64.0452 4.42865 64.4403 4.55961 64.7996 4.82152C65.1827 5.05962 65.4581 5.40487 65.6257 5.85726L74.4624 26.7864C74.5821 27.0959 74.642 27.3816 74.642 27.6435C74.642 28.2864 74.4265 28.7983 73.9954 29.1793C73.5883 29.5603 73.1333 29.7507 72.6304 29.7507C72.1993 29.7507 71.8042 29.6198 71.445 29.3579C71.1097 29.096 70.8463 28.7388 70.6547 28.2864L62.9316 10.3931L63.9734 10.1788ZM57.3279 23.9649L59.3036 19.8576H69.0023L69.6849 23.9649H57.3279Z" stroke="#22BAAF" stroke-width="2"/>
<path d="M94.7821 25.3935C95.4047 25.3935 95.9196 25.5959 96.3267 26.0006C96.7577 26.3816 96.9733 26.8816 96.9733 27.5007C96.9733 28.0959 96.7577 28.5959 96.3267 29.0007C95.9196 29.3817 95.4047 29.5722 94.7821 29.5722H83.1076C82.485 29.5722 81.9582 29.3698 81.5271 28.965C81.12 28.5364 80.9164 28.0126 80.9164 27.3935V6.75014C80.9164 6.13108 81.132 5.61916 81.563 5.21439C81.9941 4.7858 82.5449 4.57151 83.2154 4.57151C83.7901 4.57151 84.293 4.7858 84.7241 5.21439C85.1791 5.61916 85.4066 6.13108 85.4066 6.75014V26.0006L84.6163 25.3935H94.7821Z" stroke="#22BAAF" stroke-width="2"/>
<path d="M109.255 29.5722C108.585 29.5722 108.034 29.3698 107.603 28.965C107.172 28.5364 106.956 28.0126 106.956 27.3935V6.67871H111.626V27.3935C111.626 28.0126 111.399 28.5364 110.944 28.965C110.513 29.3698 109.95 29.5722 109.255 29.5722ZM101.317 8.67876C100.694 8.67876 100.167 8.48828 99.7361 8.10732C99.329 7.72636 99.1255 7.22634 99.1255 6.60728C99.1255 5.98822 99.329 5.50011 99.7361 5.14296C100.167 4.762 100.694 4.57151 101.317 4.57151H117.266C117.888 4.57151 118.403 4.762 118.81 5.14296C119.241 5.52392 119.457 6.02393 119.457 6.643C119.457 7.26206 119.241 7.76207 118.81 8.14304C118.403 8.50019 117.888 8.67876 117.266 8.67876H101.317Z" stroke="#22BAAF" stroke-width="2"/>
<path d="M128.76 4.57151C129.334 4.57151 129.837 4.7858 130.268 5.21439C130.723 5.61916 130.951 6.13108 130.951 6.75014V27.3935C130.951 28.0126 130.723 28.5364 130.268 28.965C129.813 29.3698 129.287 29.5722 128.688 29.5722C128.017 29.5722 127.478 29.3698 127.071 28.965C126.664 28.5364 126.461 28.0126 126.461 27.3935V6.75014C126.461 6.13108 126.676 5.61916 127.107 5.21439C127.538 4.7858 128.089 4.57151 128.76 4.57151ZM144.673 4.57151C145.343 4.57151 145.882 4.7858 146.289 5.21439C146.696 5.61916 146.9 6.13108 146.9 6.75014V27.3935C146.9 28.0126 146.684 28.5364 146.253 28.965C145.846 29.3698 145.295 29.5722 144.601 29.5722C144.026 29.5722 143.511 29.3698 143.056 28.965C142.625 28.5364 142.41 28.0126 142.41 27.3935V6.75014C142.41 6.13108 142.637 5.61916 143.092 5.21439C143.547 4.7858 144.074 4.57151 144.673 4.57151ZM128.652 14.9646H144.673V19.0719H128.652V14.9646Z" stroke="#22BAAF" stroke-width="2"/>
<path d="M19.4925 0.999985C17.2965 0.999985 15.5164 2.76994 15.5164 4.95327V12.5705H3.97607V20.4771H15.5164V28.0943C15.5164 30.2776 17.2964 32.0476 19.4925 32.0476C21.6885 32.0476 23.4686 30.2776 23.4686 28.0943V4.95327C23.4686 2.76994 21.6885 0.999985 19.4925 0.999985V0.999985Z" fill="#22BAAF"/>
<path d="M3.97609 32.0475C1.78011 32.0475 0 30.2776 0 28.0942V6.82737C0 4.64404 1.78005 2.87408 3.97609 2.87408C6.17214 2.87408 7.95219 4.64404 7.95219 6.82737V28.0942C7.95219 30.2776 6.17208 32.0475 3.97609 32.0475Z" fill="#219B92"/>
</svg>
