<svg width="67" height="64" viewBox="0 0 67 64" fill="none" xmlns="http://www.w3.org/2000/svg">
<path d="M31.3973 7.08243H35.4313V14.8088H31.3973V7.08243Z" fill="#4C5699"/>
<path d="M45.6556 3.4269L31.3442 0.0553858C30.2213 -0.209113 29.1102 0.50699 29.1102 1.49545V8.23835C29.1102 9.22668 30.2213 9.94291 31.3442 9.67841L45.6556 6.30703C47.3763 5.90152 47.3763 3.83228 45.6556 3.4269Z" fill="#FF8E9E"/>
<path d="M4.03339 35.67V64H33.4142V27.9437L4.03339 35.67Z" fill="#FF8F71"/>
<path d="M62.795 35.67L33.4147 27.9437V64H62.795V35.67Z" fill="#FAD5CB"/>
<path d="M13.221 20.2172C11.3269 20.2172 9.54188 21.0658 8.39745 22.5105L0.410917 32.592C-0.590039 33.8555 0.351484 35.6699 2.00809 35.6699H33.4293V20.2172H13.221Z" fill="#EA5B70"/>
<path d="M66.4182 32.592L58.4317 22.5106C57.2871 21.0658 55.5022 20.2172 53.6081 20.2172H33.4294V35.6699H64.8206H64.821C66.4778 35.6699 67.4191 33.8555 66.4182 32.592Z" fill="#FF8E9E"/>
<path d="M10.562 38.7976C9.15944 38.8454 8.06799 39.9902 8.06799 41.3343V46.3373H13.2449V41.2748C13.2449 39.8758 12.0346 38.7475 10.562 38.7976Z" fill="#7CE3FF"/>
<path d="M56.0783 38.7966C54.6757 38.8444 53.5842 39.9892 53.5842 41.3333V46.3363H58.7611V41.2739C58.7611 39.8748 57.5508 38.7465 56.0783 38.7966Z" fill="#7CE3FF"/>
<path d="M10.562 50.2012C9.15944 50.249 8.06799 51.3938 8.06799 52.7379V57.7411H13.2449V52.6784C13.2449 51.2794 12.0346 50.151 10.562 50.2012Z" fill="#7CE3FF"/>
<path d="M56.0783 50.0216C54.6757 50.0694 53.5842 51.2142 53.5842 52.5583V57.5615H58.7611V52.4989C58.7611 51.0998 57.5508 49.9715 56.0783 50.0216Z" fill="#7CE3FF"/>
<path d="M36.6284 18.0624C35.7857 16.9981 34.6141 16.3877 33.414 16.3877C32.2139 16.3877 31.0421 16.9981 30.1995 18.0624L17.2782 34.3824V64H49.5498V34.3824L36.6284 18.0624Z" fill="#FFB39D"/>
<path d="M49.5529 38.2457C48.3338 38.2457 47.129 37.7185 46.3355 36.7164L33.4142 20.3964L20.4928 36.7164C19.1467 38.4164 16.6162 38.7497 14.8411 37.4606C13.0658 36.1714 12.7178 33.7483 14.0639 32.0481L26.9853 15.7282C28.5974 13.6922 30.9406 12.5244 33.4142 12.5244C35.8878 12.5244 38.231 13.6922 39.843 15.7282L52.7644 32.0481C54.1105 33.7483 53.7625 36.1714 51.9872 37.4606C51.2585 37.9898 50.4021 38.2457 49.5529 38.2457Z" fill="#EA5B70"/>
<path d="M33.4131 38.2458C30.4474 38.2458 28.0345 35.9352 28.0345 33.095C28.0345 30.2548 30.4474 27.944 33.4131 27.944C36.3789 27.944 38.7917 30.2547 38.7917 33.095C38.7917 35.9353 36.3789 38.2458 33.4131 38.2458Z" fill="#EFEDFF"/>
<path d="M35.3794 34.0607H33.4296C32.8727 34.0607 32.4211 33.6284 32.4211 33.0949V30.7126C32.4211 30.1791 32.8727 29.7468 33.4296 29.7468C33.9866 29.7468 34.4381 30.1791 34.4381 30.7126V32.1291H35.3794C35.9363 32.1291 36.3879 32.5614 36.3879 33.0949C36.3879 33.6284 35.9363 34.0607 35.3794 34.0607Z" fill="#313D40"/>
<path d="M35.8266 49.8711C35.6958 49.863 35.5643 49.8574 35.4314 49.8574H31.3975C28.0556 49.8574 25.3466 52.4518 25.3466 55.6522V63.9998H36.104H41.4823V55.6522C41.4823 52.5792 38.9841 50.0662 35.8266 49.8711Z" fill="#CE857A"/>
<path d="M33.4146 61.4244V52.4329C33.4146 51.1002 34.4716 50.0041 35.8266 49.8711C35.6958 49.863 35.5643 49.8574 35.4314 49.8574H31.3975C28.0556 49.8574 25.3466 52.4518 25.3466 55.6522V63.9998H36.104C34.6186 63.9998 33.4146 62.8468 33.4146 61.4244Z" fill="#C77464"/>
<path d="M22.71 49.6723C24.89 49.6723 26.6572 48.3245 26.6572 46.662C26.6572 44.9994 24.89 43.6517 22.71 43.6517C20.53 43.6517 18.7628 44.9994 18.7628 46.662C18.7628 48.3245 20.53 49.6723 22.71 49.6723Z" fill="#FF8E9E"/>
<path d="M44.1049 49.6723C46.2848 49.6723 48.0521 48.3245 48.0521 46.662C48.0521 44.9994 46.2848 43.6517 44.1049 43.6517C41.9249 43.6517 40.1577 44.9994 40.1577 46.662C40.1577 48.3245 41.9249 49.6723 44.1049 49.6723Z" fill="#FF8E9E"/>
<path d="M25.0111 44.7297C24.4542 44.7297 24.0026 44.2974 24.0026 43.7639V42.2187C24.0026 41.6852 24.4542 41.2529 25.0111 41.2529C25.5681 41.2529 26.0196 41.6852 26.0196 42.2187V43.7639C26.0196 44.2974 25.5682 44.7297 25.0111 44.7297Z" fill="#313D40"/>
<path d="M41.8053 44.7297C41.2483 44.7297 40.7968 44.2974 40.7968 43.7639V42.2187C40.7968 41.6852 41.2483 41.2529 41.8053 41.2529C42.3622 41.2529 42.8138 41.6852 42.8138 42.2187V43.7639C42.8138 44.2974 42.3622 44.7297 41.8053 44.7297Z" fill="#313D40"/>
<path d="M33.4083 45.6498C32.2683 45.6498 31.1843 45.1769 30.4342 44.3525C30.0683 43.9505 30.112 43.3404 30.532 42.99C30.9519 42.6395 31.5889 42.6814 31.9549 43.0837C32.3218 43.487 32.8516 43.7183 33.4085 43.7183C33.9653 43.7183 34.4951 43.487 34.862 43.0836C35.228 42.6814 35.8649 42.6397 36.2849 42.99C36.7049 43.3405 36.7486 43.9505 36.3827 44.3526C35.6324 45.1769 34.5483 45.6498 33.4083 45.6498Z" fill="#313D40"/>
</svg>
