<svg width="821" height="315" viewBox="0 0 821 315" fill="none" xmlns="http://www.w3.org/2000/svg">
<path d="M729.933 -24.471C691.146 -16.416 652.659 -35.3407 615.31 -48.4262C573.857 -62.9191 530.368 -70.4949 486.999 -77.2922C318.463 -103.703 140.853 -118.196 -18.248 -56.6908C-33.2236 -50.8816 -48.3789 -44.1742 -59.9101 -32.9451C-81.445 -11.9843 -86.327 20.3552 -89.5018 50.2693C-95.0428 104.139 -112.864 154.025 -88.5434 202.445C-54.4889 270.328 21.9765 310.932 97.8728 313.837C173.769 316.741 248.138 286.019 309.148 240.773C355.603 206.308 398.014 162.17 454.052 147.767C484.513 139.922 516.471 141.778 547.919 141.539C608.72 141.239 671.198 133.065 724.212 103.3C777.226 73.5358 819.097 18.6784 820.056 -42.0781C779.202 -30.7592 722.774 -20.5184 681.921 -9.13964" fill="#22BAAF" fill-opacity="0.6"/>
</svg>
