<svg width="833" height="284" viewBox="0 0 833 284" fill="none" xmlns="http://www.w3.org/2000/svg">
<path d="M934.208 86.5496C864.601 32.6504 777.802 -0.707273 689.716 0.0113831C601.63 0.73004 513.064 37.0222 454.719 102.899C417.31 145.24 390.024 200.606 338.538 223.933C288.011 246.84 228.438 231.928 174.226 243.726C89.8237 262.111 32.6468 341.463 0 421.414C26.8063 452.436 70.1457 461.539 111.149 462.137L454.779 467.198C513.453 468.036 572.727 468.845 630.053 456.208C700.612 440.589 765.3 405.299 816.619 354.429C841.059 330.084 862.325 302.057 875.863 270.316C902.879 206.505 907.371 150.36 934.208 86.5496Z" fill="#F4C222" fill-opacity="0.6"/>
</svg>
