<svg width="76" height="46" viewBox="0 0 76 46" fill="none" xmlns="http://www.w3.org/2000/svg">
<path d="M53.7911 46.0001H70.8579C73.6352 46.0001 75.8867 43.7486 75.8867 40.9712V23.9045C75.8867 21.1271 73.6352 18.8756 70.8579 18.8756L53.7911 18.8756C51.0138 18.8756 48.7623 21.1271 48.7623 23.9045V40.9712C48.7623 43.7486 51.0138 46.0001 53.7911 46.0001Z" fill="#C92987"/>
<path d="M62.7622 23.6099C63.8607 23.5906 64.9495 23.8172 65.949 24.273C66.8609 24.702 67.6638 25.3317 68.2976 26.1151C68.9466 26.9386 69.437 27.8756 69.7437 28.8782C70.0737 29.9805 70.2352 31.1263 70.2226 32.2768C70.2487 33.795 69.9537 35.3016 69.3568 36.6978C68.8219 37.9602 67.9485 39.0503 66.8332 39.8477C65.6319 40.6537 64.2082 41.0628 62.7622 41.0174H56.8216C56.6217 41.0186 56.4235 40.9802 56.2386 40.9042C56.0536 40.8283 55.8856 40.7164 55.7443 40.575C55.6029 40.4337 55.491 40.2657 55.4151 40.0807C55.3391 39.8958 55.3007 39.6976 55.3019 39.4977V25.1204C55.2994 24.9206 55.337 24.7223 55.4126 24.5373C55.4882 24.3523 55.6002 24.1843 55.742 24.0435C55.8837 23.9026 56.0523 23.7916 56.2378 23.7171C56.4232 23.6426 56.6218 23.6062 56.8216 23.6099H62.7622ZM62.5136 38.153C63.4387 38.1931 64.3485 37.9061 65.0832 37.3425C65.7571 36.7809 66.2584 36.0401 66.5293 35.2057C66.8473 34.272 67.003 33.2907 66.9898 32.3045C66.9942 31.5568 66.9076 30.8115 66.7319 30.0848C66.5725 29.4277 66.2981 28.8041 65.9214 28.2427C65.5529 27.6815 65.0453 27.2254 64.448 26.9187C63.8508 26.612 63.1844 26.4653 62.5136 26.4927H58.1663L58.415 26.2717V38.4293L58.2676 38.153H62.5136Z" fill="white"/>
<path d="M36.1838 25.8903L52.6242 25.8903C55.2337 25.8903 57.3491 23.7749 57.3491 21.1654V4.72492C57.3491 2.11543 55.2337 2.28882e-05 52.6242 2.28882e-05L36.1838 2.28882e-05C33.5743 2.28882e-05 31.4589 2.11543 31.4589 4.72492L31.4589 21.1654C31.4589 23.7749 33.5743 25.8903 36.1838 25.8903Z" fill="#1171B8"/>
<path d="M50.6532 4.76191C50.8493 4.85816 51.0179 5.00231 51.1435 5.18101C51.2691 5.3597 51.3475 5.56719 51.3716 5.78426C51.4092 6.00806 51.3964 6.2374 51.3343 6.45565C51.2721 6.67391 51.1622 6.87559 51.0124 7.04607C50.922 7.18731 50.8001 7.3057 50.6563 7.39199C50.5125 7.47827 50.3507 7.53011 50.1835 7.54343C49.8282 7.58035 49.4698 7.51315 49.152 7.35002C48.7468 7.16636 48.324 7.02441 47.8901 6.92634C47.4368 6.82434 46.9732 6.77489 46.5086 6.77898C45.6904 6.76357 44.8771 6.90747 44.1139 7.20265C43.4163 7.45987 42.7864 7.87247 42.2718 8.4092C41.7674 8.93558 41.3812 9.5636 41.139 10.2513C40.8964 11.0189 40.7904 11.8232 40.8258 12.6275C40.7984 13.5207 40.939 14.4112 41.2403 15.2525C41.5031 15.9473 41.9149 16.576 42.4468 17.0945C42.9685 17.5987 43.5986 17.9768 44.2889 18.1998C45.0157 18.4448 45.7785 18.5662 46.5454 18.559C46.9964 18.5607 47.4466 18.5206 47.8901 18.4393C48.3438 18.357 48.7819 18.2048 49.1888 17.9879C49.5075 17.828 49.8667 17.767 50.2204 17.813C50.5633 17.8698 50.8706 18.0581 51.0769 18.3379C51.2317 18.509 51.3447 18.7137 51.407 18.9358C51.4693 19.158 51.4793 19.3915 51.4361 19.6182C51.3921 19.8205 51.3007 20.0095 51.1694 20.1697C51.0381 20.3298 50.8707 20.4564 50.6809 20.5392C50.2511 20.7535 49.8044 20.9322 49.3454 21.0734C48.893 21.2133 48.4314 21.3211 47.9638 21.3958C47.4947 21.4703 47.0204 21.5072 46.5454 21.5063C45.3909 21.5154 44.2438 21.3221 43.156 20.9353C42.1151 20.5821 41.1519 20.0318 40.3193 19.3142C39.4705 18.5462 38.7981 17.6036 38.3482 16.5511C37.8178 15.3115 37.5482 13.9759 37.5562 12.6275C37.5437 11.4196 37.7691 10.221 38.2193 9.09998C38.6388 8.06316 39.2657 7.12292 40.0614 6.33688C40.8795 5.5415 41.8467 4.9155 42.9074 4.49481C44.0463 4.05218 45.2591 3.83025 46.481 3.84088C47.2036 3.8393 47.9239 3.92277 48.627 4.08956C49.3269 4.23171 50.0072 4.45744 50.6532 4.76191Z" fill="white"/>
<path d="M23.1273 44.7658H38.9414C41.7239 44.7658 43.9795 42.5102 43.9795 39.7278V23.9136C43.9795 21.1312 41.7239 18.8756 38.9414 18.8756L23.1273 18.8756C20.3449 18.8756 18.0893 21.1312 18.0893 23.9136L18.0893 39.7278C18.0893 42.5102 20.3449 44.7658 23.1273 44.7658Z" fill="#EA5A57"/>
<path d="M32.5304 22.9004C33.8191 22.8003 35.0965 23.203 36.0948 24.0241C36.5047 24.4661 36.8193 24.9878 37.019 25.5566C37.2186 26.1255 37.2991 26.7293 37.2553 27.3306C37.2814 28.0641 37.0781 28.7875 36.6736 29.4C36.2691 30.0125 35.6837 30.4836 34.9988 30.7476C34.1204 31.0961 33.1803 31.2622 32.2357 31.2358L32.337 30.1121C32.9321 30.1228 33.5246 30.1938 34.1054 30.3239C34.7801 30.477 35.4287 30.7284 36.0303 31.07C36.7206 31.461 37.2875 32.0375 37.6668 32.7343C38.0461 33.431 38.2226 34.2201 38.1763 35.012C38.2128 35.9381 38.0298 36.8596 37.6421 37.7014C37.3295 38.3552 36.8457 38.9121 36.2422 39.3132C35.6816 39.6874 35.0573 39.9558 34.4001 40.1053C33.7702 40.2386 33.1282 40.3065 32.4844 40.3079H26.2674C26.0676 40.3117 25.869 40.2752 25.6836 40.2007C25.4981 40.1262 25.3295 40.0153 25.1878 39.8744C25.046 39.7335 24.934 39.5656 24.8584 39.3806C24.7828 39.1956 24.7452 38.9973 24.7477 38.7974V24.4385C24.7465 24.2386 24.7849 24.0405 24.8609 23.8555C24.9368 23.6706 25.0487 23.5026 25.1901 23.3612C25.3314 23.2199 25.4994 23.108 25.6844 23.032C25.8693 22.9561 26.0675 22.9176 26.2674 22.9188L32.5304 22.9004ZM32.0883 25.8385H27.6581L27.9805 25.4425V29.9647L27.6858 29.7345H32.162C32.6342 29.7374 33.0918 29.5707 33.4514 29.2648C33.6469 29.0962 33.8002 28.8844 33.8994 28.6462C33.9985 28.4079 34.0407 28.1498 34.0225 27.8924C34.0613 27.6249 34.0388 27.352 33.9569 27.0944C33.875 26.8368 33.7357 26.6012 33.5494 26.4052C33.3632 26.2092 33.135 26.0581 32.8819 25.9631C32.6288 25.8681 32.3575 25.8318 32.0883 25.8569V25.8385ZM32.2817 32.6542H27.7595L27.9805 32.4515V37.7014L27.7318 37.4527H32.4659C33.1355 37.4966 33.796 37.2786 34.308 36.8449C34.5472 36.6051 34.7313 36.3161 34.8474 35.998C34.9635 35.6799 35.0089 35.3402 34.9803 35.0028C35.0313 34.4299 34.8744 33.8577 34.5383 33.391C34.26 33.0713 33.8848 32.8513 33.4699 32.7647C33.0786 32.6877 32.6805 32.6507 32.2817 32.6542Z" fill="white"/>
<path d="M5.11182 28.6974L22.0128 28.6974C24.8359 28.6974 27.1245 26.4088 27.1245 23.5857L27.1245 6.6847C27.1245 3.86157 24.8359 1.57297 22.0128 1.57297L5.11182 1.57297C2.28869 1.57297 9.15527e-05 3.86157 9.15527e-05 6.6847L9.15527e-05 23.5857C9.15527e-05 26.4088 2.28869 28.6974 5.11182 28.6974Z" fill="#F3C21F"/>
<path d="M13.8797 10.4978L8.55617 23.1251C8.45388 23.4151 8.268 23.6683 8.02197 23.8528C7.79647 24.0236 7.52197 24.1172 7.23909 24.1199C7.05562 24.1351 6.87107 24.1091 6.69895 24.0437C6.52684 23.9784 6.37152 23.8754 6.24438 23.7422C6.02046 23.4887 5.90184 23.1593 5.91281 22.8212C5.91491 22.6612 5.9429 22.5025 5.9957 22.3515L12.185 7.47679C12.2986 7.16236 12.5122 6.89383 12.7929 6.71233C13.0614 6.52536 13.3891 6.44343 13.714 6.48207C14.0111 6.4844 14.3003 6.57761 14.5429 6.74917C14.8021 6.92654 14.9987 7.18116 15.1047 7.47679L21.2204 22.0567C21.2989 22.2437 21.3426 22.4435 21.3493 22.6462C21.359 22.845 21.3252 23.0436 21.2505 23.2281C21.1757 23.4125 21.0618 23.5786 20.9164 23.7146C20.6698 23.9584 20.3418 24.1027 19.9954 24.1199C19.7016 24.1228 19.4157 24.0253 19.1849 23.8435C18.9348 23.6491 18.7409 23.3916 18.6231 23.0975L13.1613 10.6359L13.8797 10.4978ZM9.27458 20.0949L10.6469 17.2397H17.3612L17.831 20.0949H9.27458Z" fill="white"/>
</svg>
