<svg width="54" height="51" viewBox="0 0 54 51" fill="none" xmlns="http://www.w3.org/2000/svg">
<g clip-path="url(#clip0)">
<path d="M22.4727 50.7325L43.0139 16.861C43.479 16.0941 42.8194 15.1504 41.9018 15.2699L28.2383 17.0484L31.503 0.634622C31.613 0.0812932 30.8681 -0.235763 30.513 0.213176L10.3165 25.744C9.72817 26.4876 10.3511 27.5449 11.3199 27.4473L26.3838 25.9288L21.4454 50.3637C21.3263 50.9531 22.1579 51.2516 22.4727 50.7325Z" fill="#FFDC64"/>
<path d="M16.6323 23.9348C16.2551 23.9637 16.0045 23.5687 16.205 23.2614L31.3054 0.123623C31.0808 -0.0466096 30.7271 -0.0575665 30.513 0.213171L10.3165 25.744C9.72817 26.4877 10.3511 27.5449 11.3199 27.4473L26.3838 25.9288L21.4454 50.3637C21.3788 50.6933 21.611 50.9252 21.8823 50.9807L30.3447 25.3366C30.7414 24.1346 29.7406 22.9304 28.4285 23.031L16.6323 23.9348Z" fill="#FFC850"/>
</g>
<defs>
<clipPath id="clip0">
<rect width="53.2544" height="50.9999" fill="white"/>
</clipPath>
</defs>
</svg>
