<svg width="601" height="374" viewBox="0 0 601 374" fill="none" xmlns="http://www.w3.org/2000/svg">
<path d="M40.5555 345.118V364.203C40.5332 369.467 34.4938 373.73 27.037 373.745C19.594 373.706 13.5738 369.457 13.5186 364.203V345.118H40.5555Z" fill="#7F8C8D"/>
<path d="M107.352 345.118V364.203C107.33 369.467 101.291 373.73 93.8339 373.745C86.3908 373.706 80.3706 369.457 80.3154 364.203V345.118H107.352Z" fill="#7F8C8D"/>
<path d="M107.286 0C114.684 0.022093 120.675 6.01339 120.697 13.4108V335.27C120.675 342.667 114.684 348.659 107.286 348.681H13.4108C6.01339 348.659 0.022093 342.667 0 335.27V13.4108C0.022093 6.01339 6.01339 0.022093 13.4108 0H107.286Z" fill="#5E6366"/>
<path d="M80.4654 53.643H40.233C36.5297 53.643 33.5276 50.6409 33.5276 46.9376C33.5276 43.2343 36.5297 40.2322 40.233 40.2322H80.4654C84.1687 40.2322 87.1708 43.2343 87.1708 46.9376C87.1708 50.6409 84.1687 53.643 80.4654 53.643Z" fill="#3F3F3F"/>
<path d="M80.4647 80.4645H40.2323C36.529 80.4645 33.5269 77.4624 33.5269 73.7591C33.5269 70.0558 36.529 67.0537 40.2323 67.0537H80.4647C84.1679 67.0537 87.1701 70.0558 87.1701 73.7591C87.1701 77.4624 84.1679 80.4645 80.4647 80.4645Z" fill="#3F3F3F"/>
<path d="M80.4647 107.286H40.2323C36.529 107.286 33.5269 104.284 33.5269 100.58C33.5269 96.8771 36.529 93.875 40.2323 93.875H80.4647C84.1679 93.875 87.1701 96.8771 87.1701 100.58C87.1701 104.284 84.1679 107.286 80.4647 107.286Z" fill="#3F3F3F"/>
<path d="M80.4647 221.278C76.7614 221.278 73.7593 218.276 73.7593 214.573V194.457C73.7593 190.753 76.7614 187.751 80.4647 187.751C84.168 187.751 87.1701 190.753 87.1701 194.457V214.573C87.1701 218.276 84.168 221.278 80.4647 221.278Z" fill="#95A5A5"/>
<path d="M46.9376 328.565H26.8214C23.1181 328.565 20.116 325.563 20.116 321.859V295.038C20.116 291.334 23.1181 288.332 26.8214 288.332C30.5247 288.332 33.5268 291.334 33.5268 295.038V315.154H46.9376C50.6409 315.154 53.643 318.156 53.643 321.859C53.643 325.563 50.6409 328.565 46.9376 328.565Z" fill="#3F3F3F"/>
<path d="M80.4648 194.457C87.8713 194.457 93.8756 188.452 93.8756 181.046C93.8756 173.639 87.8713 167.635 80.4648 167.635C73.0582 167.635 67.054 173.639 67.054 181.046C67.054 188.452 73.0582 194.457 80.4648 194.457Z" fill="#3F3F3F"/>
<path d="M160.631 345.118V364.203C160.609 369.467 154.747 373.73 147.51 373.745C140.286 373.706 134.443 369.457 134.389 364.203V345.118H160.631Z" fill="#7F8C8D"/>
<path d="M228.223 345.118V364.203C228.201 369.467 222.162 373.73 214.705 373.745C207.262 373.706 201.242 369.457 201.187 364.203V345.118H228.223Z" fill="#7F8C8D"/>
<path d="M227.983 3.05176e-05H134.108C126.701 3.05176e-05 120.697 6.00425 120.697 13.4108V335.27C120.697 342.677 126.701 348.681 134.108 348.681H227.983C235.39 348.681 241.394 342.677 241.394 335.27V13.4108C241.394 6.00425 235.39 3.05176e-05 227.983 3.05176e-05Z" fill="#919699"/>
<path d="M201.162 53.643H160.93C157.227 53.643 154.225 50.6409 154.225 46.9376C154.225 43.2343 157.227 40.2322 160.93 40.2322H201.162C204.866 40.2322 207.868 43.2343 207.868 46.9376C207.868 50.6409 204.866 53.643 201.162 53.643Z" fill="#3F3F3F"/>
<path d="M201.162 80.465H160.93C157.226 80.465 154.224 77.4629 154.224 73.7596C154.224 70.0563 157.226 67.0542 160.93 67.0542H201.162C204.865 67.0542 207.867 70.0563 207.867 73.7596C207.867 77.4629 204.865 80.465 201.162 80.465Z" fill="#3F3F3F"/>
<path d="M201.162 107.286H160.93C157.226 107.286 154.224 104.284 154.224 100.581C154.224 96.8776 157.226 93.8755 160.93 93.8755H201.162C204.865 93.8755 207.867 96.8776 207.867 100.581C207.867 104.284 204.865 107.286 201.162 107.286Z" fill="#3F3F3F"/>
<path d="M201.162 221.278C197.459 221.278 194.457 218.276 194.457 214.573V194.457C194.457 190.753 197.459 187.751 201.162 187.751C204.865 187.751 207.867 190.753 207.867 194.457V214.573C207.867 218.276 204.865 221.278 201.162 221.278Z" fill="#95A5A5"/>
<path d="M201.162 194.457C208.568 194.457 214.573 188.452 214.573 181.046C214.573 173.639 208.568 167.635 201.162 167.635C193.755 167.635 187.751 173.639 187.751 181.046C187.751 188.452 193.755 194.457 201.162 194.457Z" fill="#3F3F3F"/>
<path d="M281.502 345.118V364.203C281.48 369.467 275.44 373.73 267.984 373.745C260.54 373.706 254.52 369.457 254.465 364.203V345.118H281.502Z" fill="#7F8C8D"/>
<path d="M348.299 345.118V364.203C348.277 369.467 342.237 373.73 334.781 373.745C327.338 373.706 321.317 369.457 321.262 364.203V345.118H348.299Z" fill="#7F8C8D"/>
<path d="M348.233 3.05176e-05C355.631 0.0221235 361.622 6.01342 361.644 13.4108V335.27C361.622 342.667 355.631 348.659 348.233 348.681H254.358C246.96 348.659 240.969 342.667 240.947 335.27V13.4108C240.969 6.01342 246.96 0.0221235 254.358 3.05176e-05H348.233Z" fill="#5E6366"/>
<path d="M321.412 53.643H281.179C277.476 53.643 274.474 50.6409 274.474 46.9376C274.474 43.2343 277.476 40.2322 281.179 40.2322H321.412C325.115 40.2322 328.117 43.2343 328.117 46.9376C328.117 50.6409 325.115 53.643 321.412 53.643Z" fill="#3F3F3F"/>
<path d="M321.411 80.4645H281.179C277.475 80.4645 274.473 77.4624 274.473 73.7591C274.473 70.0559 277.475 67.0537 281.179 67.0537H321.411C325.114 67.0537 328.117 70.0559 328.117 73.7591C328.117 77.4624 325.114 80.4645 321.411 80.4645Z" fill="#3F3F3F"/>
<path d="M321.411 107.286H281.179C277.475 107.286 274.473 104.284 274.473 100.58C274.473 96.8772 277.475 93.8751 281.179 93.8751H321.411C325.114 93.8751 328.117 96.8772 328.117 100.58C328.117 104.284 325.114 107.286 321.411 107.286Z" fill="#3F3F3F"/>
<path d="M321.411 221.278C317.708 221.278 314.706 218.276 314.706 214.573V194.457C314.706 190.753 317.708 187.751 321.411 187.751C325.115 187.751 328.117 190.753 328.117 194.457V214.573C328.117 218.276 325.115 221.278 321.411 221.278Z" fill="#95A5A5"/>
<path d="M287.884 328.565H267.768C264.065 328.565 261.063 325.563 261.063 321.859V295.038C261.063 291.334 264.065 288.332 267.768 288.332C271.471 288.332 274.474 291.334 274.474 295.038V315.154H287.884C291.588 315.154 294.59 318.156 294.59 321.859C294.59 325.563 291.588 328.565 287.884 328.565Z" fill="#3F3F3F"/>
<path d="M321.411 194.457C328.818 194.457 334.822 188.452 334.822 181.046C334.822 173.639 328.818 167.635 321.411 167.635C314.005 167.635 308 173.639 308 181.046C308 188.452 314.005 194.457 321.411 194.457Z" fill="#3F3F3F"/>
<path d="M401.578 345.118V364.203C401.556 369.467 395.694 373.73 388.457 373.745C381.233 373.706 375.39 369.457 375.336 364.203V345.118H401.578Z" fill="#7F8C8D"/>
<path d="M469.17 345.118V364.203C469.148 369.467 463.108 373.73 455.652 373.745C448.208 373.706 442.188 369.457 442.133 364.203V345.118H469.17Z" fill="#7F8C8D"/>
<path d="M468.93 3.05176e-05H375.055C367.648 3.05176e-05 361.644 6.00425 361.644 13.4108V335.27C361.644 342.677 367.648 348.681 375.055 348.681H468.93C476.337 348.681 482.341 342.677 482.341 335.27V13.4108C482.341 6.00425 476.337 3.05176e-05 468.93 3.05176e-05Z" fill="#919699"/>
<path d="M442.108 53.643H401.876C398.173 53.643 395.171 50.6409 395.171 46.9376C395.171 43.2343 398.173 40.2322 401.876 40.2322H442.108C445.812 40.2322 448.814 43.2343 448.814 46.9376C448.814 50.6409 445.812 53.643 442.108 53.643Z" fill="#3F3F3F"/>
<path d="M442.108 80.465H401.876C398.173 80.465 395.17 77.4629 395.17 73.7596C395.17 70.0563 398.173 67.0542 401.876 67.0542H442.108C445.812 67.0542 448.814 70.0563 448.814 73.7596C448.814 77.4629 445.812 80.465 442.108 80.465Z" fill="#3F3F3F"/>
<path d="M442.108 107.286H401.876C398.173 107.286 395.17 104.284 395.17 100.581C395.17 96.8776 398.173 93.8755 401.876 93.8755H442.108C445.812 93.8755 448.814 96.8776 448.814 100.581C448.814 104.284 445.812 107.286 442.108 107.286Z" fill="#3F3F3F"/>
<path d="M442.108 221.278C438.405 221.278 435.403 218.276 435.403 214.573V194.457C435.403 190.753 438.405 187.751 442.108 187.751C445.812 187.751 448.814 190.753 448.814 194.457V214.573C448.814 218.276 445.812 221.278 442.108 221.278Z" fill="#95A5A5"/>
<path d="M442.109 194.457C449.515 194.457 455.519 188.452 455.519 181.046C455.519 173.639 449.515 167.635 442.109 167.635C434.702 167.635 428.698 173.639 428.698 181.046C428.698 188.452 434.702 194.457 442.109 194.457Z" fill="#3F3F3F"/>
<path d="M520.858 345.118V364.203C520.836 369.467 514.797 373.73 507.34 373.745C499.897 373.706 493.876 369.457 493.821 364.203V345.118H520.858Z" fill="#7F8C8D"/>
<path d="M587.655 345.118V364.203C587.633 369.467 581.594 373.73 574.137 373.745C566.694 373.706 560.674 369.457 560.618 364.203V345.118H587.655Z" fill="#7F8C8D"/>
<path d="M587.589 3.05176e-05C594.987 0.0221235 600.978 6.01342 601 13.4108V335.27C600.978 342.667 594.987 348.659 587.589 348.681H493.714C486.316 348.659 480.325 342.667 480.303 335.27V13.4108C480.325 6.01342 486.316 0.0221235 493.714 3.05176e-05H587.589Z" fill="#5E6366"/>
<path d="M560.768 53.643H520.535C516.832 53.643 513.83 50.6409 513.83 46.9376C513.83 43.2343 516.832 40.2322 520.535 40.2322H560.768C564.471 40.2322 567.473 43.2343 567.473 46.9376C567.473 50.6409 564.471 53.643 560.768 53.643Z" fill="#3F3F3F"/>
<path d="M560.767 80.4645H520.535C516.832 80.4645 513.83 77.4624 513.83 73.7591C513.83 70.0559 516.832 67.0537 520.535 67.0537H560.767C564.471 67.0537 567.473 70.0559 567.473 73.7591C567.473 77.4624 564.471 80.4645 560.767 80.4645Z" fill="#3F3F3F"/>
<path d="M560.767 107.286H520.535C516.832 107.286 513.83 104.284 513.83 100.58C513.83 96.8772 516.832 93.8751 520.535 93.8751H560.767C564.471 93.8751 567.473 96.8772 567.473 100.58C567.473 104.284 564.471 107.286 560.767 107.286Z" fill="#3F3F3F"/>
<path d="M560.768 221.278C557.064 221.278 554.062 218.276 554.062 214.573V194.457C554.062 190.753 557.064 187.751 560.768 187.751C564.471 187.751 567.473 190.753 567.473 194.457V214.573C567.473 218.276 564.471 221.278 560.768 221.278Z" fill="#95A5A5"/>
<path d="M527.241 328.565H507.124C503.421 328.565 500.419 325.563 500.419 321.859V295.038C500.419 291.334 503.421 288.332 507.124 288.332C510.828 288.332 513.83 291.334 513.83 295.038V315.154H527.241C530.944 315.154 533.946 318.156 533.946 321.859C533.946 325.563 530.944 328.565 527.241 328.565Z" fill="#3F3F3F"/>
<path d="M560.767 194.457C568.174 194.457 574.178 188.452 574.178 181.046C574.178 173.639 568.174 167.635 560.767 167.635C553.361 167.635 547.357 173.639 547.357 181.046C547.357 188.452 553.361 194.457 560.767 194.457Z" fill="#3F3F3F"/>
</svg>
