<svg width="203" height="30" viewBox="0 0 203 30" fill="none" xmlns="http://www.w3.org/2000/svg">
<path d="M13.7909 22.2997C14.2858 22.5154 14.7153 22.8516 15.0378 23.2758C15.3056 23.6192 15.45 24.0388 15.4489 24.4698C15.4308 24.8907 15.2689 25.2935 14.9888 25.6146C14.6912 25.9728 14.2311 26.2445 13.6084 26.4295C13.2821 26.5104 12.9467 26.551 12.6099 26.5504C12.1815 26.5624 11.5875 26.5684 10.8277 26.5684H7.94586C6.78023 26.5684 5.3421 26.5798 3.63148 26.6027C3.2051 26.6266 2.76492 26.6385 2.314 26.6385C1.87668 26.6453 1.45413 26.4845 1.13763 26.1907C0.821961 25.91 0.603811 25.5407 0.513402 25.134C0.380169 24.6457 0.296436 24.1458 0.263404 23.6415C0.227617 23.1181 0.214324 22.5982 0.223527 22.0818C0.235796 21.5624 0.241931 21.1281 0.241931 20.7818C0.241931 20.0853 0.247555 19.2892 0.258802 18.3937C0.27005 17.4982 0.283342 16.5748 0.298679 15.6236C0.310949 14.6863 0.317084 13.7669 0.317084 12.8654V10.4773C0.317084 9.25044 0.328843 8.26189 0.35236 7.51164C0.358326 6.9187 0.409592 6.32702 0.505733 5.74149C0.55022 5.39858 0.692026 5.07452 0.91524 4.80567C1.13999 4.58489 1.40951 4.41207 1.70664 4.29821C2.00544 4.1787 2.33054 4.13505 2.65142 4.17134C2.98746 4.20462 3.31414 4.29878 3.61461 4.44895C3.91091 4.60018 4.16752 4.81568 4.3646 5.0788C4.56339 5.33276 4.67114 5.64314 4.67135 5.96238C4.71838 8.7385 4.71838 11.4902 4.67135 14.2176C4.62431 16.945 4.6008 19.6738 4.6008 22.4042C6.09772 22.4042 7.58902 22.3868 9.07469 22.3519C10.5604 22.3171 12.0609 22.2768 13.5762 22.231L13.7909 22.2997Z" fill="#21B85C"/>
<path d="M30.7219 21.3638C31.119 21.3781 31.5057 21.4917 31.8446 21.6937C32.1517 21.8775 32.4181 22.119 32.6283 22.4041C32.8323 22.6855 32.9556 23.0147 32.9857 23.3579C33.0174 23.7361 32.937 24.1152 32.7541 24.4504C32.6419 24.666 32.4907 24.8601 32.3077 25.0235C32.1397 25.2072 31.9249 25.3446 31.6851 25.422C30.1582 25.8625 28.5856 26.1359 26.9964 26.237C25.412 26.3411 23.8212 26.3121 22.2419 26.1504C21.7894 26.1041 21.2971 26.0579 20.7618 26.0116C20.2619 25.9765 19.7785 25.8228 19.3538 25.5638C19.0052 25.3601 18.7189 25.0692 18.5248 24.7215C18.3306 24.3737 18.2356 23.9817 18.2496 23.5862V8.81009C17.9895 8.62408 17.7714 8.38807 17.6089 8.1167C17.4464 7.84533 17.3429 7.54437 17.3048 7.23248C17.2699 6.92857 17.3126 6.62098 17.429 6.33696C17.5583 6.03757 17.7707 5.77915 18.0425 5.59069C18.5209 5.21869 19.0834 4.96288 19.6836 4.84442C20.2971 4.71805 20.9029 4.6081 21.5011 4.51457C22.7277 4.33012 23.967 4.23731 25.2081 4.23696C26.4422 4.23696 27.7014 4.22551 28.9857 4.20263C29.4267 4.19903 29.8672 4.17013 30.3047 4.11606C30.748 4.05247 31.2004 4.09395 31.6237 4.23696C32.0524 4.38082 32.4266 4.64714 32.6973 5.00113C32.9484 5.32487 33.1072 5.70744 33.1574 6.11009C33.205 6.50586 33.124 6.90618 32.9258 7.25487C32.6903 7.6543 32.3186 7.96105 31.8752 8.12203C31.2689 8.35559 30.6187 8.46189 29.9673 8.43397C29.2914 8.41208 28.6442 8.40064 28.0256 8.39964C27.1227 8.39964 26.2199 8.41109 25.317 8.43397C24.4105 8.45759 23.5059 8.52734 22.6069 8.64293V13.4549C23.4621 13.5011 24.3192 13.5011 25.1744 13.4549C26.0251 13.4091 26.8763 13.3494 27.728 13.2758C28.1069 13.2534 28.4949 13.219 28.8691 13.1713C29.2593 13.125 29.6538 13.125 30.044 13.1713C30.5175 13.215 30.9539 13.44 31.2571 13.7967C31.5361 14.1299 31.715 14.5318 31.774 14.9579C31.8314 15.3929 31.7506 15.8345 31.5424 16.2235C31.3256 16.6378 30.9566 16.9575 30.5087 17.119C29.9807 17.3091 29.4296 17.4315 28.8691 17.4832C28.1789 17.5638 27.454 17.6215 26.6943 17.6564C25.9346 17.6912 25.1887 17.7131 24.4566 17.722C23.7188 17.722 23.1023 17.7101 22.6023 17.6877V21.9534C23.9148 22.1157 25.2416 22.1392 26.5593 22.0235C27.8824 21.9086 29.1936 21.688 30.4795 21.3638H30.7219Z" fill="#F3C122"/>
<path d="M54.9944 24.6594C54.9391 25.1313 54.7548 25.5802 54.4607 25.9594C54.2106 26.291 53.8715 26.5492 53.4806 26.7056C53.1043 26.845 52.692 26.8634 52.3042 26.7579C51.8871 26.6534 51.5021 26.3817 51.1447 25.9429C50.8458 25.5944 50.6652 25.1642 50.6279 24.7116C50.5928 24.2602 50.5277 23.8115 50.4331 23.3683C50.1803 22.0405 49.8349 20.731 49.3993 19.4489C47.9249 19.4718 46.4633 19.4832 45.0144 19.4832C43.5655 19.4832 42.1162 19.4947 40.6663 19.5176C40.4516 20.1146 40.2675 20.7275 40.1141 21.3564C39.9608 21.9852 39.812 22.5982 39.6678 23.1952C39.5482 23.6579 39.4424 24.137 39.3473 24.634C39.2596 25.1166 39.0379 25.5667 38.7062 25.9355C38.2972 26.3962 37.8631 26.6564 37.404 26.7161C36.9742 26.7791 36.535 26.6997 36.1571 26.4907C35.7707 26.2637 35.4609 25.9317 35.266 25.5355C35.0344 25.0795 34.9535 24.5649 35.0344 24.0623C35.1051 23.3449 35.2485 22.636 35.4623 21.9459C35.676 21.2494 35.8805 20.5559 36.0758 19.8653C37.1369 15.9136 38.5217 12.051 40.2169 8.31458C40.3595 7.99069 40.5068 7.67875 40.6617 7.37726C40.8166 7.07577 40.9684 6.78025 41.108 6.48174C41.2736 6.15836 41.4398 5.8101 41.6065 5.43696C41.7662 5.07724 41.963 4.73419 42.1939 4.41308C42.415 4.10675 42.6859 3.83754 42.996 3.61607C43.3299 3.38925 43.7302 3.27355 44.1371 3.28622C44.6885 3.27628 45.2218 3.47786 45.6218 3.84741C47.2282 5.40877 48.5737 7.20512 49.6095 9.17129C50.6519 11.1414 51.5917 13.1614 52.4254 15.2235C52.9244 15.2016 53.4116 15.2016 53.887 15.2235C54.1328 15.2403 54.3727 15.3042 54.5931 15.4115C54.8134 15.5189 55.0097 15.6675 55.1708 15.8489C55.477 16.1266 55.683 16.493 55.7582 16.8937C55.8184 17.2549 55.7814 17.6251 55.6508 17.9683C55.5183 18.3147 55.2977 18.6228 55.0097 18.8638C54.699 19.1248 54.3246 19.3037 53.9223 19.3832C54.1606 20.1942 54.3686 21.021 54.5465 21.8638C54.7245 22.7066 54.8727 23.5564 54.9913 24.4131L54.9944 24.6594ZM47.723 15.2235C47.2721 14.1837 46.791 13.1489 46.2797 12.1191C45.7752 11.1034 45.1965 10.1243 44.5482 9.1892C44.0747 10.2071 43.63 11.221 43.2138 12.231C42.7977 13.2409 42.4117 14.2643 42.0558 15.3011C43.1724 15.2793 44.1525 15.2678 44.996 15.2668C45.8396 15.2658 46.7485 15.2514 47.723 15.2235Z" fill="#22B9AE"/>
<path d="M62.2308 24.7982C62.1745 25.3472 61.9072 25.8552 61.4823 26.2206C61.0903 26.5715 60.6107 26.8164 60.0912 26.931C59.6296 27.0393 59.1434 26.9838 58.7201 26.7743C58.3029 26.5673 58.0831 26.1514 58.0606 25.5265C57.941 22.8668 57.8817 20.1091 57.8827 17.2534V8.74594C57.536 8.63187 57.2361 8.41269 57.0268 8.12057C56.8375 7.8461 56.721 7.5302 56.6879 7.20117C56.6547 6.85276 56.6992 6.50148 56.8183 6.17132C56.9308 5.83986 57.1131 5.53486 57.3535 5.27579C57.6642 4.96401 58.0273 4.70609 58.4271 4.51311C58.9065 4.26977 59.4008 4.05544 59.9072 3.87132C60.4409 3.67231 60.9696 3.50465 61.4931 3.36833C62.0145 3.22953 62.4547 3.12654 62.8121 3.05639C64.3057 2.75637 65.8471 2.76247 67.3381 3.0743C68.7818 3.35391 70.1486 3.92712 71.3488 4.75639C72.4879 5.55471 73.3784 6.64343 73.9224 7.90266C74.493 9.19619 74.5523 10.6763 74.1003 12.343C73.9537 12.8162 73.7749 13.2794 73.5651 13.7295C73.3589 14.18 73.1082 14.6098 72.8166 15.0131C72.4192 15.6079 71.9386 16.1459 71.3887 16.6116C70.8306 17.0857 70.2358 17.5174 69.6096 17.9027C70.0622 18.3667 70.4901 18.8529 70.8918 19.3594C71.2937 19.8655 71.7475 20.3306 72.2461 20.7474C72.4363 20.9086 72.7154 21.1639 73.085 21.5101C73.4546 21.8564 73.8089 22.2265 74.1586 22.6206C74.4843 22.9901 74.7875 23.3778 75.0666 23.7818C75.3289 24.1639 75.447 24.4818 75.424 24.7355C75.4026 25.1414 75.2833 25.5366 75.0757 25.8893C74.8681 26.2419 74.5781 26.5421 74.2292 26.7653C73.9156 26.9608 73.5509 27.0644 73.1786 27.0639C72.7671 27.0538 72.3688 26.921 72.0375 26.6833C71.5933 26.3443 71.1871 25.9605 70.8258 25.5385C70.4455 25.0997 70.0769 24.6947 69.72 24.3236C68.9368 23.4927 68.1699 22.6544 67.4194 21.8086C66.6689 20.9629 65.902 20.1365 65.1188 19.3295C64.6422 19.4217 64.1602 19.4855 63.6756 19.5206C63.1878 19.5549 62.7078 19.5952 62.2323 19.6415V24.7982H62.2308ZM68.6111 8.00863C67.6645 7.45544 66.5939 7.13429 65.4915 7.07281C64.3844 6.9997 63.2739 7.1522 62.2308 7.52057V15.3653C63.2901 15.298 64.3438 15.1649 65.3857 14.9668C66.435 14.7637 67.4187 14.3178 68.2538 13.6668C68.72 13.3069 69.1132 12.8655 69.4133 12.3653C69.6993 11.899 69.8812 11.3793 69.947 10.84C70.0067 10.3217 69.9335 9.7971 69.7338 9.31311C69.5017 8.77901 69.1107 8.32471 68.6111 8.00863Z" fill="#A584E1"/>
<path d="M92.8485 5.0952C92.9742 4.66146 93.2136 4.26697 93.5433 3.95043C93.8345 3.6671 94.1974 3.46371 94.5954 3.36087C94.9798 3.26953 95.3836 3.294 95.7534 3.43102C96.1762 3.59397 96.5331 3.88628 96.7702 4.26386C96.8736 4.39291 96.963 4.53195 97.0371 4.67878C97.1131 4.81687 97.1556 4.97003 97.1613 5.12655C97.2094 8.43202 97.192 11.733 97.1092 15.0295C97.0264 18.3261 96.8883 21.6285 96.6951 24.937C96.7081 25.1691 96.6686 25.4012 96.5793 25.6168C96.49 25.8324 96.3531 26.0263 96.1782 26.1848C95.8484 26.4784 95.4411 26.6768 95.0019 26.7579C94.5521 26.8375 94.0883 26.7893 93.666 26.6191C93.2293 26.4589 92.872 26.1422 92.6675 25.734C92.6571 25.7256 92.6486 25.7151 92.6425 25.7033C92.6364 25.6915 92.6329 25.6786 92.6322 25.6654V25.734C91.0883 23.2614 89.4605 20.8853 87.7488 18.6057C86.0372 16.3261 84.256 14.0659 82.4053 11.8251V22.3355C82.4053 23.0519 82.3936 23.6355 82.37 24.0863C82.3465 24.537 82.3169 24.8897 82.2811 25.1445C82.2542 25.369 82.2028 25.5902 82.1277 25.8042C81.913 26.3594 81.5863 26.729 81.1477 26.9131C80.7282 27.096 80.2599 27.1446 79.8102 27.0519C79.3502 26.9541 78.9365 26.7105 78.6339 26.3594C78.2954 25.9735 78.1176 25.4784 78.1354 24.9713V15.2937C78.1354 14.3226 78.1293 13.4151 78.117 12.5713C78.1047 11.7275 78.0966 11.0171 78.0925 10.44C78.0925 9.65491 78.0807 8.87481 78.0572 8.09968C78.0337 7.32456 78.0337 6.54396 78.0572 5.75789C78.0473 5.39941 78.1548 5.04715 78.3639 4.75192C78.5605 4.47903 78.8241 4.25839 79.1308 4.11013C79.4423 3.95736 79.7826 3.86798 80.1308 3.84744C80.4816 3.82274 80.8337 3.87003 81.1645 3.98625C81.497 4.10921 81.7961 4.30478 82.0388 4.55789C82.3353 4.84744 82.6262 5.15988 82.9114 5.4952C83.1967 5.83053 83.4641 6.16585 83.7136 6.50117C83.9636 6.8355 84.1737 7.10714 84.3378 7.3161C84.9513 8.0564 85.664 8.90615 86.4758 9.86535C87.2877 10.8246 88.0356 11.732 88.7197 12.5877C89.4099 13.4663 90.0811 14.345 90.7335 15.2236C91.3858 16.1022 92.0218 16.9813 92.6414 17.8609C92.712 15.7564 92.7595 13.6634 92.7841 11.5818C92.8086 9.50018 92.8204 7.40764 92.8194 5.30416L92.8485 5.0952Z" fill="#EB5858"/>
<path fill-rule="evenodd" clip-rule="evenodd" d="M102.827 5.89978C103.029 5.89978 103.192 6.05892 103.192 6.25523V23.709C103.192 23.9053 103.029 24.0644 102.827 24.0644C102.625 24.0644 102.462 23.9053 102.462 23.709V6.25523C102.462 6.05892 102.625 5.89978 102.827 5.89978Z" fill="white"/>
<path fill-rule="evenodd" clip-rule="evenodd" d="M107.962 5.89978C108.164 5.89978 108.327 6.05892 108.327 6.25523V23.709C108.327 23.9053 108.164 24.0644 107.962 24.0644C107.76 24.0644 107.597 23.9053 107.597 23.709V6.25523C107.597 6.05892 107.76 5.89978 107.962 5.89978Z" fill="white"/>
<path fill-rule="evenodd" clip-rule="evenodd" d="M105.395 1.13702C105.596 1.13702 105.76 1.29616 105.76 1.49247V28.4701C105.76 28.6664 105.596 28.8255 105.395 28.8255C105.193 28.8255 105.029 28.6664 105.029 28.4701V1.49247C105.029 1.29616 105.193 1.13702 105.395 1.13702Z" fill="white"/>
<path d="M129.117 2.7583L125.738 12.5119H124.621L121.686 4.19347L118.736 12.5119H117.633L114.254 2.7583H115.343L118.235 11.1464L121.227 2.7583H122.215L125.165 11.1882L128.1 2.7583H129.117Z" fill="white"/>
<path d="M131.059 2.7583H132.119V12.5119H131.059V2.7583Z" fill="white"/>
<path d="M137.327 3.65005H133.805V2.7583H141.909V3.65005H138.387V12.5119H137.327V3.65005Z" fill="white"/>
<path d="M151.978 2.7583V12.5119H150.933V8.01129H144.661V12.5119H143.602V2.7583H144.661V7.1056H150.933V2.7583H151.978Z" fill="white"/>
<path d="M118.451 25.7531C117.643 25.7531 116.859 25.6489 116.099 25.4403C115.349 25.2223 114.745 24.9427 114.287 24.6015L115.091 22.8669C115.529 23.1797 116.05 23.4309 116.654 23.6204C117.258 23.81 117.862 23.9048 118.466 23.9048C119.138 23.9048 119.635 23.81 119.956 23.6204C120.277 23.4214 120.438 23.1607 120.438 22.8384C120.438 22.6015 120.341 22.4072 120.146 22.2555C119.961 22.0944 119.717 21.9664 119.415 21.8716C119.123 21.7768 118.724 21.6726 118.217 21.5588C117.438 21.3787 116.8 21.1986 116.303 21.0185C115.807 20.8384 115.378 20.5493 115.018 20.1512C114.667 19.7531 114.492 19.2223 114.492 18.5588C114.492 17.9806 114.652 17.4593 114.974 16.9948C115.295 16.5209 115.777 16.1465 116.42 15.8716C117.073 15.5967 117.867 15.4593 118.802 15.4593C119.454 15.4593 120.092 15.5351 120.716 15.6868C121.339 15.8384 121.885 16.0564 122.352 16.3408L121.622 18.0896C120.677 17.5683 119.732 17.3076 118.787 17.3076C118.125 17.3076 117.633 17.4119 117.311 17.6204C117 17.829 116.844 18.1038 116.844 18.4451C116.844 18.7863 117.024 19.0422 117.385 19.2128C117.755 19.374 118.315 19.5351 119.065 19.6963C119.844 19.8764 120.482 20.0564 120.979 20.2365C121.475 20.4166 121.899 20.701 122.25 21.0896C122.61 21.4782 122.79 22.0043 122.79 22.6678C122.79 23.2365 122.625 23.7579 122.294 24.2318C121.972 24.6963 121.485 25.0659 120.833 25.3408C120.18 25.6157 119.386 25.7531 118.451 25.7531Z" fill="white"/>
<path d="M129.361 25.7531C128.299 25.7531 127.34 25.5304 126.482 25.0849C125.635 24.6394 124.968 24.028 124.481 23.2508C124.003 22.464 123.765 21.5825 123.765 20.6062C123.765 19.6299 124.003 18.7531 124.481 17.9759C124.968 17.1891 125.635 16.573 126.482 16.1275C127.34 15.682 128.299 15.4593 129.361 15.4593C130.422 15.4593 131.377 15.682 132.224 16.1275C133.072 16.573 133.739 17.1891 134.226 17.9759C134.713 18.7531 134.956 19.6299 134.956 20.6062C134.956 21.5825 134.713 22.464 134.226 23.2508C133.739 24.028 133.072 24.6394 132.224 25.0849C131.377 25.5304 130.422 25.7531 129.361 25.7531ZM129.361 23.791C129.965 23.791 130.51 23.6583 130.997 23.3929C131.484 23.1181 131.864 22.7389 132.137 22.2555C132.419 21.7721 132.56 21.2223 132.56 20.6062C132.56 19.9901 132.419 19.4403 132.137 18.9569C131.864 18.4735 131.484 18.0991 130.997 17.8337C130.51 17.5588 129.965 17.4214 129.361 17.4214C128.757 17.4214 128.211 17.5588 127.724 17.8337C127.237 18.0991 126.852 18.4735 126.57 18.9569C126.297 19.4403 126.161 19.9901 126.161 20.6062C126.161 21.2223 126.297 21.7721 126.57 22.2555C126.852 22.7389 127.237 23.1181 127.724 23.3929C128.211 23.6583 128.757 23.791 129.361 23.791Z" fill="white"/>
<path d="M141.63 25.7531C140.588 25.7531 139.643 25.5351 138.795 25.0991C137.958 24.6536 137.295 24.0422 136.808 23.265C136.331 22.4782 136.092 21.592 136.092 20.6062C136.092 19.6204 136.331 18.7389 136.808 17.9617C137.295 17.1749 137.958 16.5636 138.795 16.1275C139.643 15.682 140.592 15.4593 141.644 15.4593C142.531 15.4593 143.329 15.6109 144.04 15.9143C144.761 16.2176 145.365 16.6536 145.852 17.2223L144.333 18.5873C143.641 17.81 142.784 17.4214 141.761 17.4214C141.128 17.4214 140.563 17.5588 140.066 17.8337C139.57 18.0991 139.18 18.4735 138.898 18.9569C138.625 19.4403 138.488 19.9901 138.488 20.6062C138.488 21.2223 138.625 21.7721 138.898 22.2555C139.18 22.7389 139.57 23.1181 140.066 23.3929C140.563 23.6583 141.128 23.791 141.761 23.791C142.784 23.791 143.641 23.3977 144.333 22.6109L145.852 23.9759C145.365 24.5541 144.761 24.9948 144.04 25.2982C143.32 25.6015 142.516 25.7531 141.63 25.7531Z" fill="white"/>
<path d="M153.967 25.5825L151.994 22.81H151.877H149.817V25.5825H147.451V15.6299H151.877C152.783 15.6299 153.567 15.7768 154.23 16.0707C154.902 16.3645 155.418 16.7816 155.778 17.3218C156.139 17.8621 156.319 18.5019 156.319 19.2413C156.319 19.9806 156.134 20.6204 155.764 21.1607C155.403 21.6915 154.887 22.0991 154.215 22.3835L156.509 25.5825H153.967ZM153.923 19.2413C153.923 18.682 153.738 18.2555 153.368 17.9617C152.998 17.6583 152.457 17.5067 151.746 17.5067H149.817V20.9759H151.746C152.457 20.9759 152.998 20.8242 153.368 20.5209C153.738 20.2176 153.923 19.791 153.923 19.2413Z" fill="white"/>
<path d="M164.93 23.4498H160.181L159.275 25.5825H156.85L161.409 15.6299H163.746L168.319 25.5825H165.836L164.93 23.4498ZM164.185 21.701L162.563 17.8906L160.941 21.701H164.185Z" fill="white"/>
<path d="M170.985 17.5067H167.713V15.6299H176.625V17.5067H173.352V25.5825H170.985V17.5067Z" fill="white"/>
<path d="M185.817 23.7342V25.5825H177.898V15.6299H185.627V17.4782H180.251V19.6394H184.999V21.4309H180.251V23.7342H185.817Z" fill="white"/>
<path d="M191.061 25.7531C190.252 25.7531 189.468 25.6489 188.709 25.4403C187.959 25.2223 187.355 24.9427 186.897 24.6015L187.701 22.8669C188.139 23.1797 188.66 23.4309 189.264 23.6204C189.868 23.81 190.472 23.9048 191.076 23.9048C191.748 23.9048 192.244 23.81 192.566 23.6204C192.887 23.4214 193.048 23.1607 193.048 22.8384C193.048 22.6015 192.951 22.4072 192.756 22.2555C192.571 22.0944 192.327 21.9664 192.025 21.8716C191.733 21.7768 191.334 21.6726 190.827 21.5588C190.048 21.3787 189.41 21.1986 188.913 21.0185C188.416 20.8384 187.988 20.5493 187.627 20.1512C187.277 19.7531 187.102 19.2223 187.102 18.5588C187.102 17.9806 187.262 17.4593 187.584 16.9948C187.905 16.5209 188.387 16.1465 189.03 15.8716C189.683 15.5967 190.477 15.4593 191.412 15.4593C192.064 15.4593 192.702 15.5351 193.326 15.6868C193.949 15.8384 194.494 16.0564 194.962 16.3408L194.231 18.0896C193.287 17.5683 192.342 17.3076 191.397 17.3076C190.735 17.3076 190.243 17.4119 189.921 17.6204C189.61 17.829 189.454 18.1038 189.454 18.4451C189.454 18.7863 189.634 19.0422 189.994 19.2128C190.365 19.374 190.925 19.5351 191.675 19.6963C192.454 19.8764 193.092 20.0564 193.589 20.2365C194.085 20.4166 194.509 20.701 194.86 21.0896C195.22 21.4782 195.4 22.0043 195.4 22.6678C195.4 23.2365 195.235 23.7579 194.903 24.2318C194.582 24.6963 194.095 25.0659 193.442 25.3408C192.79 25.6157 191.996 25.7531 191.061 25.7531Z" fill="white"/>
</svg>
