<svg width="51" height="30" viewBox="0 0 51 30" fill="none" xmlns="http://www.w3.org/2000/svg">
<mask id="mask0_926_8933" style="mask-type:alpha" maskUnits="userSpaceOnUse" x="0" y="0" width="51" height="30">
<rect x="0.5" width="50" height="30" fill="#C4C4C4"/>
</mask>
<g mask="url(#mask0_926_8933)">
<path d="M30.5559 7.98282H22.4443V22.5579H30.5559V7.98282Z" fill="#FF5F00"/>
<path d="M22.9592 15.2704C22.9592 12.309 24.3498 9.68241 26.4871 7.98284C24.9163 6.74678 22.9335 6 20.7704 6C15.6459 6 11.5 10.1459 11.5 15.2704C11.5 20.3948 15.6459 24.5408 20.7704 24.5408C22.9335 24.5408 24.9163 23.794 26.4871 22.5579C24.3498 20.8841 22.9592 18.2318 22.9592 15.2704Z" fill="#EB001B"/>
<path d="M41.4998 15.2704C41.4998 20.3948 37.3539 24.5408 32.2294 24.5408C30.0663 24.5408 28.0835 23.794 26.5127 22.5579C28.6758 20.8584 30.0406 18.2318 30.0406 15.2704C30.0406 12.309 28.65 9.68241 26.5127 7.98284C28.0835 6.74678 30.0663 6 32.2294 6C37.3539 6 41.4998 10.1717 41.4998 15.2704Z" fill="#F79E1B"/>
</g>
</svg>
