<svg width="104" height="33" viewBox="0 0 104 33" fill="none" xmlns="http://www.w3.org/2000/svg">
<path d="M26.8523 4.27735C25.4657 3.71358 23.8696 4.0253 22.8083 5.06676L14.5716 13.15H9.01575L11.9476 20.8751C13.3958 22.2963 15.7466 22.2971 17.1956 20.8751L21.7215 16.4335V28.9584C21.7215 30.9696 23.3827 32.6 25.4322 32.6C27.4817 32.6 29.143 30.9696 29.143 28.9584V7.64173C29.143 6.16886 28.2388 4.84095 26.8523 4.27735Z" fill="#CC5B1D"/>
<path d="M14.5716 13.1501L6.33476 5.06683C5.27324 4.02555 3.67788 3.71354 2.29081 4.27742C0.904196 4.84102 0 6.16894 0 7.64181V28.9042C0 30.9056 1.62239 32.5739 3.6617 32.5998C5.73367 32.6261 7.42156 30.9857 7.42156 28.9585V20.1669V16.4334L11.9476 20.8751V19.3669C11.9476 17.0352 12.8915 14.7989 14.5716 13.1501Z" fill="#EC722F"/>
<path d="M43.1092 13.2832L35.8459 30.0472C35.689 30.4652 35.4424 30.7952 35.1061 31.0372C34.7923 31.2572 34.4448 31.3672 34.0637 31.3672C33.4584 31.3672 33.0101 31.2022 32.7186 30.8722C32.4272 30.5422 32.2815 30.1352 32.2815 29.6512C32.2815 29.4532 32.3151 29.2442 32.3824 29.0242L40.7554 9.29021C40.9347 8.85021 41.2037 8.50921 41.5624 8.26721C41.9435 8.02521 42.347 7.92621 42.773 7.97021C43.1765 7.97021 43.5464 8.09121 43.8827 8.33321C44.2413 8.55321 44.4991 8.87221 44.6561 9.29021L52.9282 28.6282C53.0403 28.9142 53.0963 29.1782 53.0963 29.4202C53.0963 30.0142 52.8946 30.4872 52.4911 30.8392C52.11 31.1912 51.684 31.3672 51.2132 31.3672C50.8097 31.3672 50.4398 31.2462 50.1036 31.0042C49.7897 30.7622 49.5431 30.4322 49.3638 30.0142L42.1341 13.4812L43.1092 13.2832ZM36.8883 26.0212L38.7378 22.2262H47.817L48.4559 26.0212H36.8883Z" fill="#CC5B1D"/>
<path d="M65.2647 31.2022C64.637 31.2022 64.1214 31.0152 63.7179 30.6412C63.3143 30.2452 63.1126 29.7612 63.1126 29.1892V10.0492H67.484V29.1892C67.484 29.7612 67.2711 30.2452 66.8451 30.6412C66.4416 31.0152 65.9148 31.2022 65.2647 31.2022ZM57.8332 11.8972C57.2504 11.8972 56.7572 11.7212 56.3536 11.3692C55.9725 11.0172 55.782 10.5552 55.782 9.98321C55.782 9.41121 55.9725 8.96021 56.3536 8.63021C56.7572 8.27821 57.2504 8.10221 57.8332 8.10221H72.7634C73.3463 8.10221 73.8282 8.27821 74.2093 8.63021C74.6129 8.98221 74.8146 9.44421 74.8146 10.0162C74.8146 10.5882 74.6129 11.0502 74.2093 11.4022C73.8282 11.7322 73.3463 11.8972 72.7634 11.8972H57.8332Z" fill="#CC5B1D"/>
<path d="M83.5231 8.10221C84.0611 8.10221 84.5319 8.30021 84.9354 8.69621C85.3614 9.07021 85.5743 9.54321 85.5743 10.1152V29.1892C85.5743 29.7612 85.3614 30.2452 84.9354 30.6412C84.5095 31.0152 84.0163 31.2022 83.4559 31.2022C82.8282 31.2022 82.3238 31.0152 81.9427 30.6412C81.5616 30.2452 81.371 29.7612 81.371 29.1892V10.1152C81.371 9.54321 81.5728 9.07021 81.9763 8.69621C82.3798 8.30021 82.8954 8.10221 83.5231 8.10221ZM98.4197 8.10221C99.0474 8.10221 99.5518 8.30021 99.9329 8.69621C100.314 9.07021 100.505 9.54321 100.505 10.1152V29.1892C100.505 29.7612 100.303 30.2452 99.8992 30.6412C99.5181 31.0152 99.0025 31.2022 98.3524 31.2022C97.8144 31.2022 97.3324 31.0152 96.9065 30.6412C96.503 30.2452 96.3012 29.7612 96.3012 29.1892V10.1152C96.3012 9.54321 96.5142 9.07021 96.9401 8.69621C97.3661 8.30021 97.8592 8.10221 98.4197 8.10221ZM83.4222 17.7052H98.4197V21.5002H83.4222V17.7052Z" fill="#CC5B1D"/>
<path d="M43.1092 13.2832L35.8459 30.0472C35.689 30.4652 35.4424 30.7952 35.1061 31.0372C34.7923 31.2572 34.4448 31.3672 34.0637 31.3672C33.4584 31.3672 33.0101 31.2022 32.7186 30.8722C32.4272 30.5422 32.2815 30.1352 32.2815 29.6512C32.2815 29.4532 32.3151 29.2442 32.3824 29.0242L40.7554 9.29021C40.9347 8.85021 41.2037 8.50921 41.5624 8.26721C41.9435 8.02521 42.347 7.92621 42.773 7.97021C43.1765 7.97021 43.5464 8.09121 43.8827 8.33321C44.2413 8.55321 44.4991 8.87221 44.6561 9.29021L52.9282 28.6282C53.0403 28.9142 53.0963 29.1782 53.0963 29.4202C53.0963 30.0142 52.8946 30.4872 52.4911 30.8392C52.11 31.1912 51.684 31.3672 51.2132 31.3672C50.8097 31.3672 50.4398 31.2462 50.1036 31.0042C49.7897 30.7622 49.5431 30.4322 49.3638 30.0142L42.1341 13.4812L43.1092 13.2832ZM36.8883 26.0212L38.7378 22.2262H47.817L48.4559 26.0212H36.8883Z" stroke="#CC5B1D" stroke-width="2"/>
<path d="M65.2647 31.2022C64.637 31.2022 64.1214 31.0152 63.7179 30.6412C63.3143 30.2452 63.1126 29.7612 63.1126 29.1892V10.0492H67.484V29.1892C67.484 29.7612 67.2711 30.2452 66.8451 30.6412C66.4416 31.0152 65.9148 31.2022 65.2647 31.2022ZM57.8332 11.8972C57.2504 11.8972 56.7572 11.7212 56.3536 11.3692C55.9725 11.0172 55.782 10.5552 55.782 9.98321C55.782 9.41121 55.9725 8.96021 56.3536 8.63021C56.7572 8.27821 57.2504 8.10221 57.8332 8.10221H72.7634C73.3463 8.10221 73.8282 8.27821 74.2093 8.63021C74.6129 8.98221 74.8146 9.44421 74.8146 10.0162C74.8146 10.5882 74.6129 11.0502 74.2093 11.4022C73.8282 11.7322 73.3463 11.8972 72.7634 11.8972H57.8332Z" stroke="#CC5B1D" stroke-width="2"/>
<path d="M83.5231 8.10221C84.0611 8.10221 84.5319 8.30021 84.9354 8.69621C85.3614 9.07021 85.5743 9.54321 85.5743 10.1152V29.1892C85.5743 29.7612 85.3614 30.2452 84.9354 30.6412C84.5095 31.0152 84.0163 31.2022 83.4559 31.2022C82.8282 31.2022 82.3238 31.0152 81.9427 30.6412C81.5616 30.2452 81.371 29.7612 81.371 29.1892V10.1152C81.371 9.54321 81.5728 9.07021 81.9763 8.69621C82.3798 8.30021 82.8954 8.10221 83.5231 8.10221ZM98.4197 8.10221C99.0474 8.10221 99.5518 8.30021 99.9329 8.69621C100.314 9.07021 100.505 9.54321 100.505 10.1152V29.1892C100.505 29.7612 100.303 30.2452 99.8992 30.6412C99.5181 31.0152 99.0025 31.2022 98.3524 31.2022C97.8144 31.2022 97.3324 31.0152 96.9065 30.6412C96.503 30.2452 96.3012 29.7612 96.3012 29.1892V10.1152C96.3012 9.54321 96.5142 9.07021 96.9401 8.69621C97.3661 8.30021 97.8592 8.10221 98.4197 8.10221ZM83.4222 17.7052H98.4197V21.5002H83.4222V17.7052Z" stroke="#CC5B1D" stroke-width="2"/>
</svg>
