<svg width="71" height="60" viewBox="0 0 71 60" fill="none" xmlns="http://www.w3.org/2000/svg">
<path d="M40.923 7.55114L62.7975 9.44626C63.7943 9.53262 64.7162 10.014 65.3604 10.7844C66.0045 11.5549 66.3182 12.5513 66.2324 13.5545L63.9009 40.8135C63.8065 41.9176 63.2801 42.9386 62.4377 43.6521C61.5952 44.3656 60.5056 44.7131 59.4086 44.618L37.9119 42.7556C37.4183 42.7129 36.938 42.5727 36.4982 42.3431C36.0585 42.1135 35.668 41.799 35.349 41.4175C35.0301 41.036 34.7889 40.595 34.6393 40.1197C34.4897 39.6444 34.4345 39.1441 34.477 38.6474L36.841 11.0082C36.9268 10.0049 37.4051 9.07712 38.1706 8.4288C38.9361 7.78049 39.9262 7.46478 40.923 7.55114Z" fill="#22BAAF"/>
<path opacity="0.45" d="M61.2452 15.0084C62.8824 17.5108 63.9711 20.3356 64.4387 23.2946C64.6583 24.4899 64.8379 25.7152 65.0874 26.9205L66.1552 14.4359C66.2632 13.192 65.876 11.9558 65.0789 10.9991C64.2817 10.0423 63.1397 9.44326 61.9039 9.33351L54.6187 8.70074C57.2419 10.3133 59.4994 12.4621 61.2452 15.0084Z" fill="white"/>
<g style="mix-blend-mode:multiply">
<path d="M43.0821 34.8152C39.6703 31.9055 37.119 28.1077 35.7071 23.8371L34.5195 37.7279C34.4171 38.9685 34.8068 40.1995 35.6034 41.1518C36.4 42.1041 37.5388 42.7003 38.7709 42.8102L58.8601 44.5478C60.0944 44.6537 61.32 44.2627 62.2685 43.4607C63.2169 42.6587 63.8107 41.511 63.9198 40.2691L64.1294 37.738C57.0937 40.3494 49.2895 40.0481 43.0821 34.8152Z" fill="#CDC3FF"/>
</g>
<g opacity="0.31">
<path opacity="0.31" d="M57.6626 43.2924L40.2181 41.7858C39.5793 41.729 38.958 41.5458 38.3898 41.2468C37.8216 40.9478 37.3177 40.5388 36.9069 40.0432C36.4961 39.5477 36.1866 38.9754 35.9962 38.3592C35.8057 37.743 35.738 37.095 35.797 36.4524L37.793 13.6024C37.9046 12.3106 38.5213 11.1163 39.5075 10.282C40.4937 9.44762 41.7687 9.04151 43.0523 9.15289L60.4969 10.6595C61.7812 10.7719 62.9688 11.3922 63.7993 12.3844C64.6299 13.3766 65.0358 14.6598 64.9279 15.9527L62.9319 38.8027C62.8804 39.4463 62.703 40.0732 62.4099 40.6476C62.1169 41.222 61.714 41.7324 61.2244 42.1496C60.7347 42.5668 60.168 42.8825 59.5568 43.0786C58.9456 43.2747 58.3018 43.3474 57.6626 43.2924ZM42.9725 9.56469C41.7902 9.46722 40.6175 9.84452 39.7107 10.6142C38.8038 11.3839 38.2364 12.4834 38.1323 13.6727L36.1363 36.5227C36.0367 37.7116 36.4093 38.8918 37.1724 39.8048C37.9356 40.7179 39.0271 41.2893 40.2081 41.394L57.6626 42.9006C58.8439 43.0009 60.0166 42.6259 60.9238 41.8579C61.831 41.0898 62.3988 39.9912 62.5028 38.8027L64.4988 15.9527C64.5984 14.7638 64.2258 13.5836 63.4627 12.6705C62.6995 11.7575 61.608 11.1861 60.427 11.0813L42.9725 9.56469Z" fill="#0F0B49"/>
</g>
<path opacity="0.44" d="M60.0874 17.7906L41.575 16.1835C40.8423 16.117 40.1647 15.7644 39.6872 15.2012C39.2097 14.638 38.9702 13.909 39.0202 13.1704C39.0863 12.433 39.4367 11.751 39.9962 11.2704C40.5558 10.7898 41.2802 10.5488 42.0141 10.5991L60.5265 12.2061C61.2592 12.2727 61.9368 12.6253 62.4143 13.1885C62.8919 13.7517 63.1313 14.4807 63.0813 15.2193C63.0152 15.9567 62.6648 16.6387 62.1053 17.1193C61.5457 17.5999 60.8213 17.8408 60.0874 17.7906Z" fill="#0F0B49"/>
<path d="M43.5004 21.477C43.6598 20.5365 43.0315 19.644 42.097 19.4835C41.1625 19.3231 40.2757 19.9555 40.1163 20.896C39.9569 21.8366 40.5852 22.7291 41.5197 22.8895C42.4542 23.0499 43.341 22.4175 43.5004 21.477Z" fill="#CE2489"/>
<path d="M49.1799 21.8283C49.1492 22.168 49.0192 22.491 48.8064 22.7564C48.5935 23.0219 48.3074 23.218 47.9839 23.3201C47.6605 23.4221 47.3143 23.4255 46.989 23.3299C46.6637 23.2342 46.3737 23.0437 46.1558 22.7825C45.9379 22.5212 45.8017 22.2009 45.7643 21.8618C45.727 21.5228 45.7903 21.1802 45.9461 20.8773C46.102 20.5744 46.3434 20.3247 46.6401 20.1597C46.9367 19.9947 47.2753 19.9217 47.6131 19.9501C47.8388 19.969 48.0586 20.0327 48.2597 20.1376C48.4609 20.2424 48.6394 20.3862 48.7851 20.5608C48.9307 20.7354 49.0406 20.9373 49.1084 21.1548C49.1761 21.3724 49.2004 21.6013 49.1799 21.8283Z" fill="#CE2489"/>
<path d="M54.8181 22.4565C54.9773 21.5159 54.3488 20.6236 53.4143 20.4633C52.4798 20.303 51.5931 20.9356 51.4338 21.8761C51.2746 22.8167 51.9031 23.7091 52.8376 23.8693C53.7722 24.0296 54.6589 23.397 54.8181 22.4565Z" fill="#CE2489"/>
<path d="M61.2354 22.873C61.2066 23.2153 61.0776 23.5414 60.8647 23.81C60.6518 24.0786 60.3646 24.2776 60.0393 24.3819C59.7141 24.4862 59.3654 24.4912 59.0373 24.3961C58.7093 24.301 58.4166 24.1102 58.1963 23.8478C57.976 23.5853 57.8379 23.2631 57.7995 22.9217C57.7611 22.5803 57.8242 22.2351 57.9807 21.9297C58.1372 21.6244 58.3801 21.3726 58.6788 21.2062C58.9774 21.0398 59.3184 20.9662 59.6586 20.9948C59.8852 21.0124 60.1061 21.0752 60.3084 21.1795C60.5106 21.2838 60.6903 21.4275 60.837 21.6022C60.9837 21.7769 61.0945 21.9792 61.1628 22.1974C61.2312 22.4155 61.2559 22.6452 61.2354 22.873Z" fill="#F5C40D"/>
<path d="M60.7459 28.5678C60.7189 28.9111 60.591 29.2386 60.3786 29.5087C60.1662 29.7787 59.8789 29.9792 59.553 30.0846C59.2272 30.1899 58.8776 30.1955 58.5487 30.1005C58.2197 30.0055 57.9263 29.8143 57.7055 29.5511C57.4848 29.2879 57.3467 28.9646 57.3089 28.6223C57.2711 28.2799 57.3352 27.934 57.4931 27.6285C57.651 27.3229 57.8956 27.0715 58.1958 26.9061C58.496 26.7407 58.8383 26.6688 59.1791 26.6996C59.6321 26.7405 60.0508 26.9597 60.3442 27.3095C60.6376 27.6593 60.7819 28.1115 60.7459 28.5678Z" fill="#F5C40D"/>
<path d="M60.2569 34.2728C60.2344 34.6139 60.1119 34.9405 59.9049 35.2115C59.6979 35.4824 59.4157 35.6855 59.094 35.7949C58.7723 35.9044 58.4256 35.9154 58.0977 35.8265C57.7698 35.7376 57.4754 35.5528 57.2519 35.2955C57.0284 35.0382 56.8857 34.72 56.842 34.381C56.7982 34.0421 56.8553 33.6977 57.0061 33.3915C57.1568 33.0852 57.3944 32.8309 57.6889 32.6606C57.9833 32.4903 58.3213 32.4117 58.6601 32.4348C59.113 32.4683 59.5344 32.68 59.8333 33.024C60.1322 33.368 60.2843 33.8167 60.2569 34.2728Z" fill="#F5C40D"/>
<path d="M59.7676 39.9779C59.7388 40.3182 59.6104 40.6424 59.3986 40.9093C59.1868 41.1762 58.9012 41.3739 58.5777 41.4775C58.2543 41.581 57.9076 41.5858 57.5815 41.4911C57.2555 41.3964 56.9646 41.2066 56.7456 40.9455C56.5267 40.6845 56.3896 40.364 56.3516 40.0246C56.3136 39.6852 56.3765 39.342 56.5322 39.0385C56.6879 38.735 56.9296 38.4848 57.2266 38.3195C57.5236 38.1542 57.8626 38.0812 58.2008 38.1097C58.4256 38.1287 58.6445 38.1921 58.845 38.2963C59.0454 38.4005 59.2235 38.5434 59.369 38.7169C59.5145 38.8904 59.6246 39.0911 59.693 39.3075C59.7614 39.5238 59.7868 39.7517 59.7676 39.9779Z" fill="#F5C40D"/>
<path d="M43.0217 27.0411C42.991 27.3808 42.861 27.7038 42.6482 27.9692C42.4353 28.2347 42.1492 28.4309 41.8258 28.5329C41.5023 28.635 41.1561 28.6384 40.8308 28.5427C40.5055 28.447 40.2155 28.2565 39.9976 27.9953C39.7797 27.734 39.6434 27.4137 39.6061 27.0746C39.5688 26.7356 39.6321 26.393 39.7879 26.0901C39.9438 25.7872 40.1853 25.5375 40.4819 25.3725C40.7785 25.2075 41.1171 25.1345 41.4549 25.1629C41.6806 25.1818 41.9004 25.2455 42.1015 25.3504C42.3027 25.4552 42.4812 25.599 42.6269 25.7736C42.7725 25.9482 42.8824 26.1501 42.9502 26.3676C43.0179 26.5852 43.0422 26.8141 43.0217 27.0411Z" fill="#CE2489"/>
<path d="M48.6778 27.6769C48.8415 26.7371 48.2171 25.8417 47.2834 25.677C46.3496 25.5123 45.4599 26.1407 45.2963 27.0804C45.1327 28.0202 45.757 28.9156 46.6908 29.0803C47.6245 29.245 48.5142 28.6166 48.6778 27.6769Z" fill="#CE2489"/>
<path d="M54.359 28.0153C54.3302 28.3557 54.2017 28.6798 53.9899 28.9467C53.7782 29.2136 53.4925 29.4114 53.1691 29.5149C52.8456 29.6185 52.499 29.6232 52.1729 29.5286C51.8468 29.4339 51.5559 29.244 51.337 28.983C51.118 28.722 50.9809 28.4015 50.9429 28.062C50.9049 27.7226 50.9678 27.3795 51.1235 27.076C51.2793 26.7725 51.5209 26.5222 51.8179 26.3569C52.1149 26.1916 52.4539 26.1186 52.7921 26.1472C53.017 26.1661 53.2359 26.2295 53.4363 26.3337C53.6368 26.4379 53.8148 26.5809 53.9604 26.7544C54.1059 26.9279 54.216 27.1285 54.2844 27.3449C54.3528 27.5613 54.3781 27.7891 54.359 28.0153Z" fill="#CE2489"/>
<path d="M42.543 32.7461C42.514 33.0889 42.3845 33.4152 42.1711 33.6838C41.9576 33.9525 41.6698 34.1513 41.344 34.2552C41.0182 34.359 40.669 34.3632 40.3409 34.2672C40.0127 34.1712 39.7202 33.9794 39.5004 33.7159C39.2807 33.4525 39.1435 33.1293 39.1064 32.7874C39.0693 32.4455 39.1338 32.1002 39.2919 31.7952C39.4499 31.4902 39.6943 31.2393 39.9941 31.0742C40.294 30.9091 40.6357 30.8373 40.9761 30.8679C41.2019 30.8868 41.4216 30.9506 41.6228 31.0554C41.8239 31.1602 42.0025 31.3041 42.1481 31.4787C42.2938 31.6533 42.4037 31.8552 42.4714 32.0727C42.5392 32.2902 42.5635 32.5191 42.543 32.7461Z" fill="#CE2489"/>
<path d="M48.2018 33.2281C48.1718 33.5703 48.0412 33.8957 47.8266 34.1628C47.612 34.4299 47.3231 34.6266 46.9969 34.7276C46.6707 34.8287 46.322 34.8296 45.9953 34.7302C45.6686 34.6308 45.3787 34.4357 45.1628 34.1697C44.9468 33.9037 44.8145 33.579 44.7828 33.237C44.7511 32.8949 44.8214 32.5512 44.9848 32.2496C45.1482 31.948 45.3972 31.7023 45.7 31.5438C46.0028 31.3853 46.3457 31.3213 46.6849 31.3599C47.1299 31.4106 47.5376 31.6343 47.821 31.9834C48.1044 32.3324 48.2411 32.7791 48.2018 33.2281Z" fill="#CE2489"/>
<path d="M53.8702 33.7202C53.8414 34.0605 53.713 34.3846 53.5012 34.6516C53.2894 34.9185 53.0037 35.1162 52.6803 35.2198C52.3569 35.3233 52.0102 35.3281 51.6841 35.2334C51.358 35.1387 51.0671 34.9489 50.8482 34.6878C50.6293 34.4268 50.4921 34.1063 50.4541 33.7669C50.4162 33.4274 50.479 33.0843 50.6347 32.7808C50.7905 32.4773 51.0321 32.2271 51.3291 32.0618C51.6261 31.8964 51.9652 31.8234 52.3034 31.852C52.5282 31.871 52.7471 31.9344 52.9475 32.0386C53.148 32.1428 53.3261 32.2857 53.4716 32.4592C53.6171 32.6327 53.7272 32.8334 53.7956 33.0498C53.864 33.2661 53.8894 33.4939 53.8702 33.7202Z" fill="#CE2489"/>
<path d="M42.0545 38.4611C42.0274 38.8045 41.8996 39.132 41.6872 39.402C41.4748 39.6721 41.1874 39.8725 40.8616 39.9779C40.5358 40.0833 40.1862 40.0888 39.8573 39.9938C39.5283 39.8988 39.2348 39.7076 39.0141 39.4444C38.7934 39.1812 38.6553 38.8579 38.6175 38.5156C38.5797 38.1733 38.6438 37.8274 38.8017 37.5218C38.9596 37.2163 39.2042 36.9648 39.5044 36.7994C39.8046 36.634 40.1468 36.5622 40.4877 36.5929C40.9407 36.6338 41.3594 36.853 41.6528 37.2028C41.9461 37.5526 42.0905 38.0048 42.0545 38.4611Z" fill="#CE2489"/>
<path d="M47.6825 38.9332C47.6554 39.2766 47.5275 39.604 47.3151 39.8741C47.1027 40.1442 46.8154 40.3446 46.4896 40.45C46.1637 40.5554 45.8142 40.5609 45.4852 40.4659C45.1563 40.3709 44.8628 40.1797 44.642 39.9165C44.4213 39.6533 44.2832 39.33 44.2454 38.9877C44.2076 38.6454 44.2718 38.2995 44.4297 37.9939C44.5876 37.6883 44.8322 37.4369 45.1323 37.2715C45.4325 37.1061 45.7748 37.0343 46.1156 37.065C46.5686 37.1059 46.9873 37.3251 47.2807 37.6749C47.5741 38.0247 47.7185 38.4769 47.6825 38.9332Z" fill="#CE2489"/>
<path d="M53.3809 39.4655C53.3519 39.8062 53.223 40.1306 53.0107 40.3975C52.7983 40.6645 52.512 40.8621 52.188 40.9651C51.8641 41.0682 51.517 41.0722 51.1907 40.9766C50.8645 40.881 50.5738 40.6901 50.3554 40.4281C50.1371 40.1661 50.0009 39.8447 49.9642 39.5048C49.9274 39.1648 49.9918 38.8215 50.149 38.5184C50.3063 38.2152 50.5494 37.9659 50.8476 37.8019C51.1458 37.6379 51.4856 37.5667 51.824 37.5973C52.2763 37.6381 52.694 37.8576 52.9858 38.2078C53.2776 38.5579 53.4197 39.0101 53.3809 39.4655Z" fill="#CE2489"/>
<path d="M51.9439 14.7774C52.3734 14.4726 52.7803 14.1369 53.1615 13.773C53.6505 13.321 53.7503 13.1603 53.6704 12.8891C53.5906 12.6179 53.3112 12.5677 53.0018 12.5978C52.9077 12.6013 52.8184 12.6408 52.7523 12.7083C52.7169 12.7374 52.6887 12.7742 52.6696 12.816C52.6506 12.8578 52.6413 12.9034 52.6425 12.9494V13.1402C52.6425 13.1402 52.6425 13.1402 52.5527 13.2005C52.3232 13.2005 52.2234 13.1 52.2832 12.8188C52.3431 12.5376 52.6126 12.3367 53.1215 12.3568C53.2794 12.3517 53.4363 12.3826 53.5806 12.4472C53.7866 12.4993 53.9672 12.624 54.0896 12.7987C54.1067 12.8984 54.1067 13.0003 54.0896 13.1C54.0924 13.1739 54.0786 13.2476 54.0492 13.3154C54.0198 13.3832 53.9757 13.4435 53.9199 13.4917C53.5285 13.8963 53.1118 14.2754 52.6725 14.6267C52.519 14.7237 52.3723 14.8311 52.2333 14.9481H52.5228C52.9218 14.9617 53.319 15.0088 53.7104 15.0887C53.9299 15.149 54.0397 15.2293 53.9798 15.2796C53.9199 15.3298 53.7802 15.2796 53.2812 15.2796C52.8554 15.2134 52.4245 15.1865 51.9938 15.1992C51.8485 15.2241 51.7 15.2241 51.5547 15.1992C51.5148 15.1088 51.6046 15.0184 51.9439 14.7774Z" fill="#0F0B49"/>
<path d="M55.9356 15.119C55.9356 15.119 55.9356 14.8277 55.9356 14.4963L54.9377 14.4059C54.8179 14.4059 54.748 14.3356 54.748 14.2954C54.748 14.2552 54.8179 14.195 54.9476 14.1849L55.9456 14.2552V13.9439C55.9456 13.8434 55.9456 13.5923 56.0454 13.6024C56.3348 13.6024 56.3747 13.743 56.3847 13.8535C56.3947 13.964 56.3847 14.0845 56.3847 14.2854H57.0434C57.213 14.2854 57.6821 14.2854 57.6721 14.3858C57.6621 14.4862 57.4526 14.5365 57.253 14.5365H56.3847C56.3773 14.7451 56.3573 14.953 56.3248 15.1592C56.3096 15.1881 56.2865 15.2119 56.2582 15.2279C56.2299 15.244 56.1976 15.2515 56.1652 15.2496C56.1194 15.2477 56.0747 15.2348 56.0348 15.2121C55.9949 15.1894 55.9609 15.1575 55.9356 15.119Z" fill="#0F0B49"/>
<path d="M58.7102 15.36C59.1409 15.0528 59.551 14.7173 59.9377 14.3556C60.4267 13.9037 60.5165 13.743 60.4467 13.4818C60.3763 13.3696 60.2737 13.2817 60.1525 13.2296C60.0313 13.1776 59.8972 13.164 59.7681 13.1905C59.6751 13.1903 59.5857 13.2263 59.5186 13.291C59.4831 13.3195 59.4554 13.3565 59.4379 13.3986C59.4205 13.4408 59.4139 13.4866 59.4188 13.532C59.4082 13.5952 59.4082 13.6597 59.4188 13.7229C59.4188 13.7229 59.4188 13.7731 59.319 13.7831C59.0994 13.7831 58.9896 13.6827 59.0495 13.4015C59.1094 13.1202 59.3789 12.9294 59.8978 12.9394C60.0551 12.9402 60.2109 12.9708 60.3569 13.0298C60.5588 13.0849 60.7353 13.2093 60.8558 13.3814C60.8733 13.4844 60.8733 13.5897 60.8558 13.6927C60.8586 13.7652 60.8447 13.8373 60.8153 13.9035C60.7859 13.9697 60.7417 14.0282 60.6862 14.0744C60.3017 14.469 59.8952 14.8412 59.4687 15.1893L59.0296 15.5107H59.309C59.7074 15.5259 60.1043 15.5696 60.4966 15.6413C60.7161 15.7116 60.8359 15.7819 60.766 15.8421C60.6962 15.9024 60.5764 15.8924 60.0675 15.8421C59.6406 15.7859 59.2105 15.759 58.7801 15.7618C58.6353 15.7921 58.4858 15.7921 58.341 15.7618C58.2811 15.6915 58.3709 15.6011 58.7102 15.36Z" fill="#0F0B49"/>
<path d="M8.74108 23.9406L8.67416 23.4451L8.17878 23.5129L7.17283 23.6505L6.67744 23.7183L6.74436 24.2138L11.3262 58.1412L11.3931 58.6367L11.8885 58.5689L12.8944 58.4313L13.3898 58.3635L13.3229 57.868L8.74108 23.9406Z" fill="white" stroke="white"/>
<path d="M19.12 53.4689L13.6519 29.2378L19.6738 28.8547L24.6805 52.842L19.12 53.4689Z" fill="#21B95C"/>
<path d="M23.2153 36.0651L25.6379 51.8205L30.6562 50.9033L28.4759 35.0434C26.7108 35.3452 24.9573 35.7284 23.2153 36.0651Z" fill="#F4C222"/>
<path d="M32.6636 46.0731L34.1171 51.2049L37.9587 50.8218L36.3898 45.7248C34.9477 45.748 34.1056 46.015 32.6636 46.0731Z" fill="#21B95C"/>
<path d="M52.9388 48.1323L52.8744 47.6364L52.3787 47.7017L6.82913 53.6963L6.33341 53.7615L6.39783 54.2574L6.52946 55.2705L6.59388 55.7663L7.08961 55.7011L52.6392 49.7064L53.1349 49.6412L53.0705 49.1454L52.9388 48.1323Z" fill="white" stroke="white"/>
<path d="M45.7642 55.3711L68.9451 57.5562L70.5 21.9741L45.7642 55.3711ZM53.7471 50.7718L66.2431 33.9016L65.4561 51.8691L53.7471 50.7718Z" fill="#F4C222"/>
<g opacity="0.58">
<path opacity="0.58" d="M48.3926 51.6216L48.2617 51.9076L50.0701 52.7459L50.201 52.4599L48.3926 51.6216Z" fill="#0F0B49"/>
</g>
<g opacity="0.58">
<path opacity="0.58" d="M50.4766 48.6691L50.3457 48.9551L52.1541 49.7934L52.285 49.5074L50.4766 48.6691Z" fill="#0F0B49"/>
</g>
<g opacity="0.58">
<path opacity="0.58" d="M52.8975 45.6907L52.7666 45.9767L54.575 46.815L54.7059 46.529L52.8975 45.6907Z" fill="#0F0B49"/>
</g>
<g opacity="0.58">
<path opacity="0.58" d="M54.9121 42.7784L54.7812 43.0644L56.5898 43.9024L56.7206 43.6163L54.9121 42.7784Z" fill="#0F0B49"/>
</g>
<g opacity="0.58">
<path opacity="0.58" d="M56.7818 40.2571L56.6509 40.5431L58.4593 41.3814L58.5902 41.0954L56.7818 40.2571Z" fill="#0F0B49"/>
</g>
<g opacity="0.58">
<path opacity="0.58" d="M58.8648 37.4352L58.7339 37.7212L60.5423 38.5594L60.6732 38.2734L58.8648 37.4352Z" fill="#0F0B49"/>
</g>
<g opacity="0.58">
<path opacity="0.58" d="M60.7368 34.777L60.606 35.063L62.4144 35.9013L62.5453 35.6153L60.7368 34.777Z" fill="#0F0B49"/>
</g>
<g opacity="0.58">
<path opacity="0.58" d="M62.5025 32.5501L62.3716 32.8361L64.18 33.6743L64.3109 33.3883L62.5025 32.5501Z" fill="#0F0B49"/>
</g>
<g opacity="0.58">
<path opacity="0.58" d="M64.0513 30.4855L63.9204 30.7715L65.7288 31.6098L65.8597 31.3238L64.0513 30.4855Z" fill="#0F0B49"/>
</g>
<g opacity="0.58">
<path opacity="0.58" d="M65.8374 28.0229L65.7065 28.3089L67.515 29.1472L67.6459 28.8612L65.8374 28.0229Z" fill="#0F0B49"/>
</g>
<g opacity="0.58">
<path opacity="0.58" d="M67.3448 25.8882L67.2139 26.1742L69.0223 27.0125L69.1532 26.7265L67.3448 25.8882Z" fill="#0F0B49"/>
</g>
<path d="M23.8487 23.8375L3.1215 7.43952C2.90464 7.26826 2.72338 7.05568 2.58815 6.81399C2.45293 6.57231 2.3664 6.30629 2.33352 6.0312C2.30065 5.75612 2.32208 5.47739 2.39659 5.21104C2.4711 4.94469 2.59722 4.69595 2.7677 4.47914L4.5731 2.16125C4.74252 1.94359 4.95313 1.76192 5.19281 1.62667C5.43249 1.49141 5.69653 1.40523 5.96975 1.3731C6.24298 1.34097 6.52002 1.36351 6.78494 1.43942C7.04985 1.51533 7.29743 1.64311 7.51346 1.81544L28.2061 18.1897L28.3349 18.3923L32.2954 24.3848L33.4321 26.1295C33.4878 26.2285 33.5127 26.3419 33.5037 26.455C33.4947 26.5682 33.4522 26.6759 33.3816 26.7643C33.311 26.8526 33.2157 26.9176 33.1079 26.9507C33.0001 26.9838 32.8847 26.9836 32.7768 26.9501L30.8352 26.2663L24.1151 23.8551L23.8487 23.8375Z" fill="#FFBE06"/>
<path d="M5.18655 9.06462L3.12553 7.4476C2.90846 7.27615 2.72702 7.06332 2.59166 6.82136C2.4563 6.57939 2.36969 6.31307 2.33678 6.03766C2.30388 5.76226 2.32533 5.48321 2.39991 5.21655C2.4745 4.94989 2.60073 4.70088 2.77138 4.48381L4.57855 2.16325C4.74814 1.94534 4.95894 1.76346 5.19886 1.62805C5.43877 1.49264 5.70307 1.40636 5.97656 1.37419C6.25005 1.34202 6.52736 1.36459 6.79254 1.44058C7.05772 1.51658 7.30554 1.64451 7.52178 1.81704L9.54817 3.4103L5.18655 9.06462Z" fill="#F72872"/>
<path d="M24.0661 23.9126C24.3965 23.1607 23.3898 22.5337 23.8944 21.7488C24.399 20.9639 25.4542 21.6877 25.9814 20.9818C26.5086 20.2759 25.5904 19.4428 26.2247 18.7469C26.8591 18.0509 27.722 18.9097 28.3635 18.4093L32.2913 24.3818L33.4285 26.1276C33.4842 26.2266 33.5091 26.3401 33.5001 26.4533C33.4911 26.5666 33.4486 26.6744 33.378 26.7628C33.3074 26.8512 33.212 26.9162 33.1041 26.9493C32.9962 26.9825 32.8809 26.9823 32.7729 26.9487L30.8304 26.2645L24.0661 23.9126Z" fill="#FFDC9C"/>
<g opacity="0.3">
<path opacity="0.3" d="M23.8461 23.8388L3.12097 7.44382C2.90413 7.27259 2.72289 7.06005 2.58767 6.81842C2.45245 6.57679 2.36593 6.31082 2.33304 6.0358C2.30016 5.76078 2.32158 5.48212 2.39607 5.21583C2.47056 4.94955 2.59665 4.70088 2.7671 4.48412L3.92564 2.99318C3.75519 3.20993 3.6291 3.4586 3.55461 3.72489C3.48012 3.99117 3.4587 4.26983 3.49159 4.54485C3.52447 4.81987 3.61101 5.08585 3.74623 5.32748C3.88145 5.56911 4.06268 5.78164 4.27952 5.95287L24.7857 22.1851C24.9001 22.2948 25.0315 22.3849 25.1747 22.4518L33.1698 26.9818C33.0959 27.0287 33.0121 27.0576 32.925 27.0662C32.838 27.0748 32.7501 27.0629 32.6683 27.0315L30.7269 26.3478L24.0075 23.9368L23.8461 23.8388Z" fill="#390075"/>
</g>
<g opacity="0.55">
<path opacity="0.55" d="M32.9763 27.0441C32.9637 26.9635 32.9336 26.8865 32.8882 26.8187L31.7602 25.0802L27.8492 19.0719L27.7204 18.8693L7.02951 2.49743C6.8135 2.32513 6.56594 2.19736 6.30105 2.12145C6.03616 2.04555 5.75915 2.023 5.48596 2.05511C5.21276 2.08723 4.94877 2.17337 4.70912 2.30859C4.46947 2.44381 4.2589 2.62543 4.08951 2.84304L4.61018 2.18433C4.77958 1.96672 4.99015 1.7851 5.22979 1.64988C5.46944 1.51466 5.73346 1.42852 6.00665 1.39641C6.27984 1.36429 6.55684 1.38683 6.82173 1.46274C7.08662 1.53864 7.33418 1.66642 7.55019 1.83872L28.2411 18.2106L28.3699 18.4132L32.2957 24.3809L33.4323 26.1253C33.4949 26.2111 33.5328 26.3126 33.5419 26.4186C33.551 26.5245 33.5308 26.6309 33.4837 26.7259C33.4365 26.8208 33.3642 26.9008 33.2747 26.957C33.1852 27.0131 33.0819 27.0433 32.9763 27.0441Z" fill="white"/>
</g>
<path d="M9.57277 3.42708L5.1748 9.06534L6.95347 10.4737L11.3514 4.83546L9.57277 3.42708Z" fill="#3F3F3F"/>
<path d="M30.8201 26.3467C30.9075 25.9364 31.0858 25.5516 31.3419 25.221C31.598 24.8904 31.9251 24.6225 32.2989 24.4374L33.4363 26.1836C33.492 26.2827 33.517 26.3961 33.508 26.5094C33.4989 26.6227 33.4564 26.7305 33.3858 26.8189C33.3152 26.9074 33.2198 26.9724 33.1119 27.0055C33.004 27.0387 32.8886 27.0385 32.7806 27.0049L30.8201 26.3467Z" fill="#3F3F3F"/>
</svg>
