<svg width="68" height="68" viewBox="0 0 68 68" fill="none" xmlns="http://www.w3.org/2000/svg">
<g clip-path="url(#clip0)">
<path d="M54.1695 11.9571C54.8665 11.1473 54.7741 9.92666 53.9629 9.23085C48.0459 4.15516 40.488 1.35999 32.6811 1.35999C26.0891 1.35999 19.7153 3.3357 14.33 6.99084C13.8467 4.94181 10.7177 5.13823 10.518 7.25221L10.1605 11.0376C10.0616 12.0679 10.8745 13.0463 11.9061 13.1438L15.6923 13.5013C17.6518 13.6878 18.594 10.9858 16.8921 9.93383C21.5561 6.87662 27.0273 5.22642 32.6811 5.22642C39.5623 5.22642 46.2236 7.68996 51.4385 12.1634C52.2497 12.8592 53.4724 12.7667 54.1695 11.9571Z" fill="#F4C222"/>
<path d="M67.286 30.2469L64.2962 27.8969C63.4444 27.2271 62.1643 27.4004 61.5248 28.2858L59.2244 31.2114C58.0198 32.7433 59.6989 34.9448 61.5036 34.1822C61.4469 46.6653 53.03 57.995 41.0731 61.6271C38.7086 62.3454 39.9068 66.023 42.2008 65.3261C55.9682 61.1438 65.584 47.9441 65.3736 33.5621C67.3661 34.3525 68.9873 31.5842 67.286 30.2469Z" fill="#F4C222"/>
<path d="M24.9317 62.3957L23.3322 59.07C22.5561 57.4564 19.7998 57.7776 19.6558 59.7696C8.30967 54.0366 1.99577 41.1209 4.36328 28.6419C4.82932 26.1845 1.02331 25.4671 0.55754 27.9226C-2.16976 42.3028 5.31302 57.2023 18.5324 63.5273C16.8937 64.9575 18.7301 67.6439 20.6472 66.7226L24.0746 65.0749C24.9233 64.6899 25.5165 63.5034 24.9317 62.3957Z" fill="#F4C222"/>
<path d="M41.8297 20.3613L57.9389 24.7891L52.5436 44.4195L36.4345 39.9916L41.8297 20.3613Z" fill="#F07272"/>
<path d="M36.4416 39.9977C36.0208 39.8821 35.6269 39.6847 35.2824 39.4168C34.9378 39.1489 34.6495 38.8157 34.4339 38.4363C34.2182 38.0569 34.0794 37.6387 34.0255 37.2056C33.9715 36.7725 34.0035 36.3331 34.1194 35.9123L39.2057 17.4018C39.3212 16.9812 39.5185 16.5874 39.7862 16.243C40.0539 15.8986 40.3868 15.6103 40.7659 15.3946C41.145 15.1789 41.5629 15.04 41.9958 14.9858C42.4286 14.9316 42.8678 14.9632 43.2885 15.0787L36.4416 39.9977Z" fill="#EC5858"/>
<path d="M52.3729 42.886L36.6529 38.5401C36.1488 38.3906 35.7234 38.0495 35.468 37.5899C35.2127 37.1303 35.1476 36.5889 35.2869 36.0819C35.4263 35.5749 35.7588 35.1428 36.2131 34.8782C36.6675 34.6136 37.2075 34.5377 37.7172 34.6668L37.8932 34.7153L57.4988 21.0885L57.2409 25.1448L53.4372 39.011L52.3729 42.886Z" fill="white"/>
<path d="M46.241 15.892L58.0253 19.1323L53.2137 36.6438L41.4267 33.4043L46.241 15.892Z" fill="#DE44A0"/>
<path d="M53.4583 35.7926L44.718 33.3912C44.2246 33.2554 43.8052 32.9293 43.5522 32.4844C43.2991 32.0395 43.2331 31.5124 43.3686 31.0188L47.4355 16.2213L43.2884 15.0814L37.8967 34.7143L52.645 38.7636L53.4583 35.7926Z" fill="#CE2489"/>
<path d="M52.6415 38.7661L52.373 42.8859L57.241 25.1438L57.4989 21.0875L52.6415 38.7661Z" fill="#FAF58C"/>
<g filter="url(#filter0_d)">
<path d="M43.6336 19.2983C43.7624 19.3256 43.8747 19.3882 43.9705 19.4862C44.0688 19.5847 44.1392 19.7045 44.1818 19.8456C44.2244 19.9867 44.2292 20.1353 44.1961 20.2914C44.1635 20.445 44.0992 20.5777 44.003 20.6894C43.9068 20.8011 43.7936 20.8833 43.6633 20.9359C43.5361 20.9866 43.408 20.9984 43.2791 20.971L42.5951 20.8261L42.6465 20.7671L42.4834 21.5366C42.4698 21.601 42.4384 21.6513 42.3893 21.6875C42.3407 21.7213 42.2842 21.7313 42.2198 21.7176C42.1578 21.7045 42.1115 21.6727 42.0808 21.6222C42.0506 21.5691 42.0423 21.5104 42.056 21.446L42.5112 19.2974C42.5249 19.233 42.5572 19.1841 42.6083 19.1509C42.6623 19.1158 42.7216 19.105 42.786 19.1187L43.6336 19.2983ZM43.3689 20.5473C43.416 20.5573 43.466 20.5471 43.5191 20.5169C43.5721 20.4867 43.62 20.4438 43.6629 20.3882C43.7063 20.33 43.7353 20.2663 43.75 20.1969C43.7652 20.125 43.7645 20.0549 43.7479 19.9867C43.7313 19.9184 43.7046 19.861 43.6679 19.8144C43.6317 19.7653 43.5901 19.7357 43.543 19.7257L42.8516 19.5792L42.9103 19.5218L42.7095 20.4697L42.6812 20.4016L43.3689 20.5473Z" fill="white"/>
<path d="M44.4336 22.1867C44.3692 22.1731 44.3203 22.1407 44.2871 22.0896C44.2545 22.0361 44.245 21.9771 44.2586 21.9127L44.5839 20.3774C44.5976 20.313 44.6299 20.2642 44.681 20.231C44.7325 20.1953 44.7906 20.1843 44.855 20.198C44.9194 20.2116 44.968 20.2452 45.0007 20.2987C45.0339 20.3498 45.0436 20.4075 45.03 20.472L44.9559 20.8214L44.9827 20.5668C45.0226 20.5131 45.0683 20.4684 45.1199 20.4327C45.1744 20.3951 45.2321 20.3672 45.293 20.349C45.3543 20.3284 45.4175 20.3171 45.4826 20.3154C45.5477 20.3137 45.6113 20.3194 45.6732 20.3325C45.7476 20.3482 45.8051 20.3824 45.8457 20.4351C45.8888 20.4882 45.9043 20.5433 45.8923 20.6003C45.8749 20.6821 45.8413 20.7371 45.7913 20.7653C45.7418 20.7911 45.6923 20.7987 45.6427 20.7882C45.5956 20.7783 45.5541 20.7604 45.5181 20.7346C45.4846 20.7094 45.4431 20.6916 45.3935 20.6811C45.3489 20.6716 45.3007 20.673 45.2489 20.6854C45.2001 20.6957 45.1511 20.719 45.102 20.7552C45.0554 20.792 45.0126 20.8412 44.9736 20.9028C44.9377 20.9625 44.9103 21.037 44.8914 21.1262L44.7047 22.0072C44.691 22.0716 44.6584 22.1217 44.6068 22.1574C44.5558 22.1906 44.498 22.2004 44.4336 22.1867Z" fill="white"/>
<path d="M47.8177 20.7869C47.8821 20.8005 47.9309 20.8329 47.9641 20.8839C47.9973 20.935 48.0068 20.994 47.9927 21.0609L47.6595 22.6333C47.6458 22.6977 47.6132 22.7478 47.5616 22.7835C47.5106 22.8167 47.4528 22.8264 47.3884 22.8128C47.324 22.7991 47.2751 22.7668 47.2419 22.7157C47.2093 22.6622 47.1997 22.6032 47.2134 22.5388L47.252 22.3566L47.3267 22.4074C47.3199 22.4396 47.2941 22.4756 47.2494 22.5153C47.2053 22.5526 47.1488 22.5872 47.0798 22.6192C47.0109 22.6512 46.9321 22.6747 46.8435 22.6896C46.7579 22.7025 46.668 22.699 46.5739 22.679C46.4029 22.6428 46.2572 22.5666 46.1368 22.4505C46.0169 22.3319 45.9323 22.1871 45.8831 22.0161C45.8369 21.8432 45.835 21.6563 45.8776 21.4556C45.9206 21.2524 45.9981 21.0823 46.11 20.9455C46.2248 20.8067 46.3596 20.7084 46.5143 20.6505C46.6695 20.5902 46.8301 20.5776 46.9961 20.6128C47.1027 20.6354 47.1972 20.6722 47.2796 20.7233C47.3619 20.7745 47.4301 20.8316 47.484 20.8948C47.5405 20.9586 47.5805 21.0201 47.6042 21.0795C47.6308 21.137 47.6405 21.1831 47.6331 21.2177L47.4891 21.2377L47.5466 20.9664C47.5602 20.9019 47.5926 20.8531 47.6436 20.8199C47.6952 20.7842 47.7532 20.7732 47.8177 20.7869ZM46.7163 22.282C46.8253 22.3051 46.9265 22.298 47.0198 22.2608C47.1132 22.2236 47.1921 22.1627 47.2567 22.078C47.3237 21.9938 47.3696 21.8934 47.3942 21.7769C47.4194 21.658 47.4185 21.5464 47.3914 21.4423C47.3667 21.3387 47.3193 21.2509 47.249 21.1791C47.1788 21.1072 47.0892 21.0598 46.9801 21.0367C46.8736 21.0141 46.7736 21.0214 46.6803 21.0586C46.5869 21.0958 46.5068 21.1565 46.4397 21.2407C46.3752 21.3254 46.3303 21.4272 46.3051 21.5462C46.2804 21.6626 46.2804 21.7727 46.305 21.8763C46.3322 21.9805 46.3808 22.0685 46.4511 22.1403C46.5213 22.2122 46.6097 22.2594 46.7163 22.282Z" fill="white"/>
<path d="M49.3903 21.1201C49.5315 21.15 49.651 21.1909 49.7488 21.2426C49.8491 21.295 49.9219 21.3544 49.9674 21.421C50.0158 21.4857 50.0322 21.5552 50.0164 21.6295C50.0059 21.6791 49.9811 21.723 49.9419 21.7613C49.9032 21.7971 49.8554 21.809 49.7984 21.7969C49.7587 21.7885 49.7263 21.7765 49.7012 21.7608C49.679 21.7432 49.6599 21.7236 49.6437 21.702C49.6276 21.6805 49.6074 21.6594 49.5833 21.6387C49.5617 21.6186 49.5256 21.5993 49.4752 21.5809C49.4277 21.5604 49.3916 21.5476 49.3668 21.5424C49.2404 21.5156 49.1268 21.52 49.0261 21.5556C48.9278 21.5918 48.8451 21.6519 48.7781 21.7361C48.7116 21.8178 48.6654 21.9194 48.6397 22.0408C48.6145 22.1598 48.6155 22.2713 48.6426 22.3755C48.6727 22.4777 48.7242 22.565 48.7969 22.6374C48.8721 22.7102 48.9654 22.7585 49.0769 22.7821C49.1389 22.7953 49.193 22.8028 49.2391 22.8049C49.2853 22.8069 49.3249 22.8036 49.3577 22.795C49.3966 22.7826 49.4321 22.7681 49.4641 22.7515C49.4961 22.735 49.5393 22.7325 49.5938 22.7441C49.6583 22.7577 49.7034 22.7893 49.7291 22.8388C49.7554 22.8858 49.7623 22.939 49.7497 22.9985C49.7365 23.0604 49.6898 23.1101 49.6093 23.1474C49.5295 23.1823 49.4291 23.2038 49.3083 23.2118C49.1905 23.2179 49.0659 23.2071 48.9345 23.1792C48.7388 23.1377 48.5784 23.0572 48.4536 22.9375C48.3293 22.8154 48.244 22.6678 48.1978 22.4949C48.1541 22.3225 48.1527 22.1396 48.1936 21.9463C48.2367 21.7431 48.3154 21.5733 48.4297 21.437C48.5471 21.2988 48.688 21.2017 48.8526 21.146C49.0202 21.0883 49.1994 21.0796 49.3903 21.1201Z" fill="white"/>
<path d="M50.4438 21.421L51.3248 21.6076C51.3843 21.6202 51.4296 21.6506 51.4609 21.6986C51.4921 21.7467 51.5014 21.8004 51.4888 21.8599C51.4768 21.9169 51.4467 21.961 51.3987 21.9923C51.3511 22.0211 51.2976 22.0291 51.2381 22.0165L50.3571 21.8299C50.2977 21.8173 50.2523 21.7869 50.221 21.7389C50.1898 21.6908 50.1805 21.6371 50.1931 21.5776C50.2052 21.5206 50.235 21.4777 50.2825 21.4489C50.3305 21.4177 50.3843 21.4084 50.4438 21.421ZM50.94 21.0406C51.0044 21.0542 51.0517 21.0876 51.0819 21.1406C51.1151 21.1916 51.1249 21.2494 51.1113 21.3138L50.7608 22.968C50.7534 23.0027 50.7536 23.0325 50.7612 23.0575C50.7714 23.0829 50.7866 23.103 50.8068 23.1176C50.8294 23.1328 50.8544 23.1432 50.8817 23.149C50.9114 23.1553 50.9397 23.1561 50.9666 23.1515C50.994 23.1443 51.0238 23.1442 51.056 23.151C51.0907 23.1583 51.1183 23.181 51.1387 23.219C51.1616 23.2575 51.1671 23.3053 51.155 23.3623C51.1403 23.4317 51.0898 23.4805 51.0035 23.5089C50.9197 23.5377 50.8344 23.543 50.7477 23.5246C50.6957 23.5135 50.6382 23.4975 50.5754 23.4764C50.5155 23.4534 50.4605 23.4197 50.4103 23.3754C50.3631 23.3292 50.3283 23.2674 50.3059 23.1901C50.2834 23.1129 50.285 23.0135 50.3107 22.8921L50.6652 21.2193C50.6788 21.1549 50.7112 21.106 50.7622 21.0728C50.8163 21.0377 50.8756 21.0269 50.94 21.0406Z" fill="white"/>
<path d="M51.9971 23.5524C51.9835 23.6168 51.9508 23.6669 51.8993 23.7025C51.8482 23.7357 51.7905 23.7455 51.726 23.7319C51.6616 23.7182 51.6128 23.6859 51.5796 23.6348C51.5469 23.5813 51.5374 23.5223 51.551 23.4579L51.8763 21.9226C51.89 21.8582 51.9223 21.8094 51.9734 21.7761C52.025 21.7405 52.083 21.7295 52.1474 21.7431C52.2119 21.7568 52.2604 21.7904 52.2931 21.8439C52.3263 21.8949 52.3361 21.9527 52.3224 22.0171L51.9971 23.5524ZM52.1949 21.5007C52.1106 21.4828 52.0541 21.4566 52.0251 21.422C51.9962 21.3874 51.9891 21.3354 52.0038 21.266L52.0188 21.1954C52.034 21.1235 52.0628 21.0791 52.1053 21.0622C52.1507 21.0433 52.213 21.0423 52.2923 21.0591C52.3791 21.0775 52.4369 21.104 52.4658 21.1386C52.4947 21.1732 52.5019 21.2252 52.4872 21.2946L52.4722 21.3652C52.457 21.4371 52.4279 21.4827 52.3849 21.5021C52.3425 21.519 52.2792 21.5185 52.1949 21.5007Z" fill="white"/>
<path d="M53.7029 22.0338C53.8442 22.0638 53.9637 22.1046 54.0615 22.1564C54.1617 22.2087 54.2346 22.2682 54.28 22.3348C54.3285 22.3994 54.3448 22.4689 54.3291 22.5433C54.3186 22.5929 54.2937 22.6368 54.2545 22.6751C54.2159 22.7109 54.1681 22.7228 54.1111 22.7107C54.0714 22.7023 54.039 22.6903 54.0138 22.6746C53.9917 22.6569 53.9725 22.6374 53.9564 22.6158C53.9402 22.5943 53.9201 22.5732 53.896 22.5525C53.8744 22.5324 53.8383 22.5131 53.7878 22.4946C53.7404 22.4742 53.7043 22.4614 53.6795 22.4561C53.5531 22.4294 53.4395 22.4338 53.3387 22.4694C53.2404 22.5055 53.1578 22.5657 53.0907 22.6499C53.0242 22.7316 52.9781 22.8332 52.9524 22.9546C52.9272 23.0736 52.9281 23.1851 52.9553 23.2893C52.9854 23.3915 53.0368 23.4788 53.1095 23.5511C53.1847 23.624 53.2781 23.6723 53.3896 23.6959C53.4515 23.7091 53.5056 23.7166 53.5518 23.7186C53.598 23.7207 53.6375 23.7174 53.6704 23.7088C53.7093 23.6963 53.7447 23.6818 53.7767 23.6653C53.8087 23.6488 53.852 23.6463 53.9065 23.6579C53.9709 23.6715 54.016 23.7031 54.0418 23.7526C54.0681 23.7996 54.0749 23.8528 54.0623 23.9123C54.0492 23.9742 54.0024 24.0239 53.922 24.0612C53.8421 24.0961 53.7418 24.1175 53.6209 24.1256C53.5031 24.1317 53.3785 24.1208 53.2472 24.093C53.0514 24.0515 52.8911 23.971 52.7663 23.8513C52.642 23.7291 52.5567 23.5816 52.5105 23.4087C52.4667 23.2363 52.4653 23.0534 52.5063 22.8601C52.5494 22.6569 52.6281 22.4871 52.7424 22.3508C52.8597 22.2125 53.0007 22.1155 53.1653 22.0598C53.3329 22.0021 53.5121 21.9934 53.7029 22.0338Z" fill="white"/>
<path d="M55.2309 24.5133C55.0203 24.4687 54.8461 24.3865 54.7083 24.2667C54.5736 24.1449 54.4801 23.9995 54.4279 23.8305C54.3781 23.662 54.3735 23.4823 54.4139 23.2915C54.4612 23.0685 54.5459 22.8883 54.6682 22.7511C54.7935 22.6119 54.9382 22.5157 55.1023 22.4624C55.2663 22.4091 55.4302 22.3998 55.5937 22.4345C55.7201 22.4613 55.8335 22.5125 55.934 22.5882C56.037 22.6644 56.1222 22.7575 56.1895 22.8676C56.2573 22.9752 56.3034 23.0937 56.3278 23.2231C56.3546 23.3531 56.3538 23.485 56.3255 23.6188C56.3104 23.6778 56.2766 23.7211 56.2241 23.7489C56.1716 23.7766 56.1157 23.7841 56.0562 23.7715L54.6362 23.4707L54.6034 23.0753L55.9677 23.3644L55.8701 23.4214L55.8914 23.321C55.9017 23.2481 55.8893 23.1781 55.8543 23.1112C55.8218 23.0447 55.7742 22.988 55.7117 22.9411C55.6521 22.8922 55.5839 22.8597 55.5071 22.8434C55.4327 22.8276 55.3612 22.8228 55.2926 22.829C55.224 22.8352 55.1611 22.8568 55.1041 22.8939C55.047 22.931 54.9964 22.9864 54.9524 23.0599C54.9083 23.1334 54.8734 23.2309 54.8477 23.3523C54.8193 23.4862 54.8224 23.6059 54.857 23.7117C54.8946 23.8154 54.9515 23.9013 55.0277 23.9692C55.107 24.0352 55.1961 24.0787 55.2953 24.0997C55.387 24.1191 55.4616 24.1272 55.5193 24.1239C55.577 24.1206 55.624 24.1124 55.6604 24.0994C55.6999 24.0844 55.7348 24.0724 55.7652 24.0633C55.8145 24.0505 55.859 24.0483 55.8987 24.0567C55.9532 24.0682 55.9939 24.0962 56.0207 24.1408C56.05 24.1858 56.0594 24.2331 56.0489 24.2827C56.0347 24.3496 55.9871 24.403 55.9062 24.4428C55.8302 24.4837 55.7295 24.5128 55.6041 24.5303C55.4792 24.5452 55.3548 24.5396 55.2309 24.5133Z" fill="white"/>
</g>
<path d="M9.59125 25.9276L24.9962 19.4637L32.8738 38.2304L17.4689 44.6943L9.59125 25.9276Z" fill="#784ACC"/>
<path d="M17.468 44.6977C16.6558 45.0383 15.7417 45.0424 14.9266 44.7091C14.1114 44.3758 13.462 43.7324 13.1211 42.9204L5.69948 25.2241C5.35836 24.4127 5.35339 23.499 5.68567 22.6839C6.01795 21.8688 6.66029 21.219 7.47149 20.8773L17.468 44.6977Z" fill="#A685E2"/>
<path d="M31.7787 37.1343L16.7347 43.4213C16.4908 43.5277 16.2281 43.5846 15.962 43.5886C15.6958 43.5927 15.4315 43.5438 15.1845 43.4448C14.9374 43.3458 14.7125 43.1987 14.5227 43.012C14.333 42.8254 14.1822 42.6028 14.0792 42.3574C13.9762 42.112 13.923 41.8485 13.9227 41.5824C13.9224 41.3162 13.975 41.0526 14.0774 40.807C14.1799 40.5613 14.3301 40.3385 14.5194 40.1513C14.7087 39.9642 14.9333 39.8166 15.1802 39.7171L15.3483 39.6458L22.3544 16.828L24.6555 20.1775L30.2242 33.4301L31.7787 37.1343Z" fill="white"/>
<path d="M10.6889 19.5269L21.5692 14.96L28.6114 31.7276L17.7312 36.2945L10.6889 19.5269Z" fill="#A684E1"/>
<path d="M31.0956 36.0524L18.622 41.2874C18.5338 41.3245 18.4344 41.3251 18.3458 41.2889C18.2571 41.2528 18.1865 41.1829 18.1493 41.0946C18.1122 41.0064 18.1117 40.907 18.1478 40.8183C18.184 40.7297 18.2539 40.659 18.3421 40.6219L30.8166 35.3869L31.0956 36.0524Z" fill="#3F3F3F"/>
<path d="M18.6008 40.5101L21.2707 39.3895L22.997 43.5022L20.3271 44.6254L18.6008 40.5101Z" fill="#784ACC"/>
<path d="M19.8993 34.3931L28.2541 30.8869L29.4512 33.7293L15.3518 39.6457L7.47504 20.8772L11.4363 19.2135L13.7312 24.6783L14.9363 27.548L17.3738 33.3579C17.4716 33.5917 17.6145 33.804 17.7944 33.9826C17.9743 34.1611 18.1876 34.3025 18.4221 34.3987C18.6566 34.4948 18.9078 34.5438 19.1613 34.5428C19.4147 34.5419 19.6655 34.491 19.8993 34.3931Z" fill="#8E64D9"/>
<path d="M29.4477 33.7294L31.7787 37.1343L24.6555 20.1775L22.3544 16.828L29.4477 33.7294Z" fill="white"/>
<g filter="url(#filter1_d)">
<path d="M15.4534 21.3457L15.3601 23.5518C15.3605 23.6058 15.3471 23.6536 15.32 23.6951C15.2945 23.7332 15.2605 23.7602 15.218 23.7762C15.1507 23.8015 15.0937 23.8016 15.0472 23.7764C15.0006 23.7511 14.967 23.7111 14.9464 23.6561C14.9379 23.6337 14.9328 23.6086 14.9309 23.5808L15.0209 20.9913C15.0221 20.9338 15.0375 20.8839 15.0671 20.8414C15.0992 20.798 15.1399 20.7699 15.1892 20.757C15.2341 20.7401 15.2805 20.7384 15.3283 20.7517C15.3776 20.7617 15.4199 20.7871 15.4552 20.8279L17.2015 22.6754C17.2262 22.7031 17.2437 22.7307 17.254 22.7582C17.2793 22.8256 17.2771 22.8877 17.2472 22.9445C17.2197 23.0004 17.1798 23.0382 17.1274 23.058C17.0825 23.0749 17.0361 23.0766 16.9884 23.0632C16.9431 23.0489 16.9016 23.0218 16.8638 22.9819L15.3533 21.409L15.4534 21.3457ZM15.3044 23.0514L15.3483 22.5434L16.3592 22.1631L16.5923 22.5669L15.3044 23.0514Z" fill="white"/>
<path d="M17.9468 22.4677C17.9712 22.5326 17.9706 22.5955 17.9451 22.6564C17.9186 22.7148 17.8729 22.7562 17.808 22.7806C17.7431 22.805 17.6815 22.8039 17.6231 22.7775C17.5638 22.7485 17.5219 22.7016 17.4975 22.6367L16.9159 21.0905C16.8914 21.0256 16.8925 20.9639 16.9189 20.9055C16.9445 20.8446 16.9897 20.802 17.0546 20.7776C17.1195 20.7532 17.1816 20.7555 17.2409 20.7844C17.2993 20.8109 17.3407 20.8566 17.3651 20.9215L17.9468 22.4677ZM16.9593 20.5356C16.8744 20.5676 16.8094 20.5764 16.7641 20.5621C16.7188 20.5478 16.6831 20.5057 16.6568 20.4358L16.63 20.3646C16.6028 20.2923 16.6032 20.2365 16.6312 20.1975C16.6608 20.155 16.7156 20.1188 16.7955 20.0887C16.8828 20.0559 16.9491 20.0466 16.9944 20.0609C17.0397 20.0752 17.0754 20.1173 17.1017 20.1872L17.1285 20.2583C17.1557 20.3307 17.1558 20.3877 17.1287 20.4292C17.1006 20.4682 17.0442 20.5037 16.9593 20.5356Z" fill="white"/>
</g>
<path d="M28.3194 34.1725L44.9175 32.2719L47.2339 52.498L30.6357 54.3985L28.3194 34.1725Z" fill="#21B85C"/>
<path d="M30.6446 54.4015C30.211 54.4512 29.7719 54.415 29.3523 54.2949C28.9327 54.1749 28.5409 53.9733 28.1993 53.7017C27.8577 53.4301 27.5729 53.0938 27.3613 52.7121C27.1498 52.3304 27.0155 51.9108 26.9661 51.4772L24.7808 32.4053C24.7311 31.972 24.7672 31.5331 24.8871 31.1137C25.007 30.6943 25.2084 30.3026 25.4797 29.961C25.751 29.6195 26.0869 29.3347 26.4683 29.123C26.8497 28.9112 27.269 28.7767 27.7024 28.727L30.6446 54.4015Z" fill="#26B824"/>
<path d="M46.5035 51.1389L30.2969 52.9702C29.7734 53.0196 29.2515 52.8617 28.8431 52.5306C28.4347 52.1994 28.1725 51.7214 28.1126 51.199C28.0528 50.6766 28.2001 50.1516 28.523 49.7367C28.8458 49.3217 29.3185 49.0499 29.8396 48.9796L30.021 48.9588L43.1288 29.0025L44.4025 32.8623L46.0455 47.1466L46.5035 51.1389Z" fill="white"/>
<path d="M30.7451 28.3803L42.8876 26.9912L44.9551 45.0336L32.8105 46.4245L30.7451 28.3803Z" fill="#22BAAF"/>
<path d="M44.8647 44.1526L35.8594 45.1847C35.3509 45.2428 34.8402 45.0966 34.4394 44.7782C34.0387 44.4598 33.7808 43.9954 33.7224 43.4869L31.9763 28.2404L27.7033 28.7295L30.0239 48.9566L45.2182 47.2125L44.8647 44.1526Z" fill="#54D052"/>
<path d="M45.216 47.2162L46.5035 51.1387L44.4023 32.8613L43.1286 29.0015L45.216 47.2162Z" fill="#FAF58C"/>
<g filter="url(#filter2_d)">
<path d="M30.0787 31.1953C30.1493 31.2239 30.1927 31.2743 30.209 31.3465C30.2278 31.4186 30.2149 31.4866 30.17 31.5506C30.1399 31.6003 30.0976 31.6299 30.0432 31.6395C29.9914 31.6489 29.937 31.6427 29.8801 31.621C29.8152 31.5972 29.7469 31.5803 29.6751 31.5703C29.606 31.56 29.5336 31.5579 29.4579 31.564C29.317 31.5752 29.1921 31.6075 29.0834 31.6608C28.9773 31.7139 28.8884 31.7853 28.8168 31.8751C28.7449 31.9622 28.6926 32.0636 28.6597 32.1792C28.6295 32.2945 28.6198 32.4201 28.6306 32.5558C28.6433 32.7151 28.6765 32.8516 28.7303 32.9656C28.7866 33.0793 28.8584 33.1721 28.9455 33.2439C29.0327 33.3158 29.1326 33.367 29.2454 33.3974C29.3579 33.4252 29.4781 33.434 29.6061 33.4238C29.6765 33.4182 29.7465 33.4061 29.8159 33.3874C29.8854 33.3687 29.9514 33.3398 30.0139 33.3007C30.0667 33.2702 30.1194 33.2568 30.1723 33.2605C30.2277 33.264 30.2756 33.2877 30.3159 33.3318C30.3733 33.3929 30.3969 33.4593 30.3869 33.531C30.3793 33.6 30.344 33.6527 30.2813 33.6892C30.2161 33.7285 30.1479 33.7629 30.0767 33.7922C30.0079 33.8187 29.9374 33.8401 29.8651 33.8563C29.7931 33.8752 29.7192 33.8876 29.6435 33.8937C29.4555 33.9086 29.2743 33.8929 29.0999 33.8463C28.928 33.7996 28.7709 33.7228 28.6284 33.616C28.4885 33.5089 28.3738 33.3709 28.2841 33.2021C28.1943 33.0306 28.1401 32.8287 28.1216 32.5964C28.1056 32.3954 28.1248 32.2073 28.1791 32.0323C28.2361 31.857 28.3224 31.703 28.4379 31.5703C28.5558 31.4349 28.6982 31.3263 28.8651 31.2447C29.0317 31.1605 29.2169 31.1103 29.4205 31.0941C29.5353 31.085 29.6486 31.0891 29.7603 31.1064C29.872 31.1238 29.9782 31.1534 30.0787 31.1953Z" fill="white"/>
<path d="M31.7138 31.5419C31.9017 31.5269 32.0472 31.556 32.1502 31.6293C32.2559 31.7023 32.3324 31.8052 32.3797 31.938C32.4269 32.0683 32.457 32.2156 32.4701 32.38L32.5499 33.3824C32.5553 33.4503 32.5377 33.5095 32.4971 33.56C32.4562 33.6079 32.4019 33.6346 32.334 33.64C32.2662 33.6454 32.2083 33.6276 32.1604 33.5868C32.1122 33.5434 32.0855 33.4877 32.0801 33.4198L32.0002 32.4175C31.9934 32.3313 31.9768 32.2552 31.9505 32.1889C31.924 32.1201 31.8817 32.067 31.8235 32.0296C31.7654 31.9922 31.6854 31.9776 31.5836 31.9857C31.4844 31.9936 31.4013 32.0212 31.3341 32.0686C31.267 32.116 31.2179 32.1764 31.187 32.2498C31.1585 32.3203 31.1476 32.3987 31.1545 32.4848L31.2343 33.4872C31.2397 33.5551 31.2221 33.6143 31.1815 33.6648C31.1406 33.7127 31.0863 33.7393 31.0184 33.7447C30.9506 33.7502 30.8927 33.7324 30.8448 33.6916C30.7966 33.6481 30.7699 33.5925 30.7645 33.5246L30.5717 31.1049C30.5663 31.037 30.584 30.9791 30.6249 30.9312C30.6655 30.8807 30.7198 30.8527 30.7876 30.8473C30.8555 30.8419 30.9135 30.8609 30.9616 30.9044C31.0095 30.9452 31.0362 30.9996 31.0416 31.0674L31.1189 32.0385L31.0593 32.0314C31.0792 31.9851 31.1081 31.9356 31.1459 31.8826C31.1835 31.8271 31.2306 31.7748 31.2871 31.7256C31.3436 31.6764 31.4073 31.6359 31.4784 31.604C31.5492 31.5694 31.6276 31.5488 31.7138 31.5419Z" fill="white"/>
<path d="M35.007 32.375C35.024 32.589 34.9908 32.7821 34.9073 32.9543C34.8263 33.1236 34.7084 33.2604 34.5539 33.3646C34.4019 33.4687 34.2268 33.5286 34.0284 33.5444C33.83 33.5602 33.6462 33.5289 33.4771 33.4504C33.3106 33.3717 33.1726 33.2553 33.0632 33.1012C32.9561 32.9442 32.894 32.7587 32.877 32.5446C32.8599 32.3306 32.8919 32.1389 32.973 31.9696C33.0565 31.7974 33.1742 31.6594 33.3262 31.5553C33.4805 31.4484 33.6569 31.3871 33.8553 31.3713C34.0537 31.3555 34.2362 31.3883 34.4029 31.4695C34.5721 31.548 34.7101 31.6657 34.8172 31.8227C34.9267 31.9768 34.99 32.1609 35.007 32.375ZM34.5371 32.4124C34.5265 32.2793 34.49 32.1666 34.4275 32.0744C34.3674 31.9794 34.2894 31.9081 34.1937 31.8605C34.1006 31.8128 33.9992 31.7933 33.8896 31.802C33.78 31.8107 33.6816 31.8462 33.5947 31.9083C33.5103 31.9701 33.4446 32.0529 33.3977 32.1564C33.3532 32.2572 33.3362 32.3741 33.3468 32.5072C33.3572 32.6377 33.3925 32.7505 33.4526 32.8455C33.5151 32.9378 33.5929 33.0077 33.686 33.0555C33.7818 33.103 33.8844 33.1224 33.9941 33.1137C34.1037 33.105 34.2007 33.0697 34.2851 33.0078C34.3721 32.9457 34.4378 32.8643 34.4824 32.7635C34.5293 32.66 34.5475 32.5429 34.5371 32.4124Z" fill="white"/>
<path d="M37.4121 32.1834C37.4292 32.3975 37.3959 32.5906 37.3125 32.7627C37.2314 32.932 37.1136 33.0688 36.959 33.1731C36.807 33.2771 36.6319 33.337 36.4335 33.3528C36.2351 33.3686 36.0514 33.3373 35.8822 33.2588C35.7157 33.1801 35.5777 33.0637 35.4683 32.9096C35.3612 32.7526 35.2991 32.5671 35.2821 32.3531C35.265 32.139 35.2971 31.9473 35.3781 31.778C35.4616 31.6059 35.5793 31.4678 35.7313 31.3637C35.8856 31.2569 36.062 31.1955 36.2604 31.1797C36.4588 31.1639 36.6413 31.1967 36.808 31.278C36.9772 31.3564 37.1153 31.4742 37.2223 31.6311C37.3318 31.7853 37.3951 31.9694 37.4121 32.1834ZM36.9423 32.2208C36.9317 32.0877 36.8951 31.975 36.8326 31.8828C36.7725 31.7878 36.6946 31.7165 36.5988 31.669C36.5057 31.6212 36.4043 31.6017 36.2947 31.6104C36.1851 31.6192 36.0868 31.6546 35.9998 31.7167C35.9154 31.7786 35.8497 31.8613 35.8028 31.9648C35.7583 32.0656 35.7413 32.1825 35.7519 32.3156C35.7623 32.4462 35.7976 32.5589 35.8577 32.654C35.9202 32.7462 35.998 32.8162 36.0911 32.8639C36.1869 32.9115 36.2896 32.9309 36.3992 32.9221C36.5088 32.9134 36.6058 32.8781 36.6902 32.8162C36.7772 32.7541 36.843 32.6727 36.8875 32.5719C36.9344 32.4684 36.9526 32.3514 36.9423 32.2208Z" fill="white"/>
<path d="M37.7407 32.8823C37.7117 32.8478 37.6962 32.8017 37.6942 32.7441C37.6922 32.6865 37.7222 32.6342 37.7842 32.5872C37.8238 32.5578 37.8674 32.5438 37.9148 32.5453C37.962 32.5442 38.0095 32.564 38.0574 32.6048C38.1392 32.6745 38.2235 32.7269 38.3103 32.762C38.3972 32.7971 38.5033 32.8097 38.6286 32.7997C38.6675 32.794 38.7102 32.7853 38.7565 32.7738C38.8027 32.7596 38.8415 32.7355 38.8729 32.7014C38.9067 32.6646 38.921 32.6122 38.9156 32.5444C38.911 32.487 38.8878 32.4428 38.8459 32.412C38.8041 32.3812 38.7496 32.3566 38.6824 32.3384C38.6179 32.3198 38.5457 32.3033 38.4657 32.2886C38.3829 32.2716 38.2973 32.2521 38.2089 32.2303C38.123 32.2082 38.0431 32.1778 37.9691 32.139C37.8949 32.0977 37.8326 32.0409 37.7822 31.9687C37.7318 31.8966 37.702 31.8031 37.6928 31.6882C37.6825 31.5577 37.7102 31.4438 37.776 31.3467C37.8418 31.2495 37.9301 31.1715 38.041 31.1128C38.1546 31.0538 38.2753 31.0193 38.4032 31.0091C38.4841 31.0026 38.5698 31.0063 38.6602 31.0201C38.7504 31.0313 38.8377 31.0559 38.9222 31.0938C39.0064 31.1291 39.0788 31.1799 39.1392 31.246C39.171 31.2828 39.1917 31.3285 39.2013 31.3829C39.2109 31.4373 39.19 31.4888 39.1388 31.5376C39.1021 31.572 39.0576 31.59 39.0052 31.5916C38.9525 31.5905 38.908 31.5757 38.8716 31.547C38.8226 31.4931 38.759 31.4523 38.6806 31.4243C38.6048 31.3962 38.5186 31.386 38.422 31.3937C38.3828 31.3968 38.3402 31.4055 38.294 31.4197C38.2503 31.431 38.2127 31.4537 38.1812 31.4878C38.1496 31.5192 38.1364 31.5675 38.1416 31.6328C38.1464 31.6928 38.1698 31.7395 38.2118 31.773C38.2537 31.8038 38.3082 31.8283 38.3753 31.8466C38.4449 31.8621 38.5183 31.8773 38.5957 31.8921C38.6756 31.9068 38.7572 31.9252 38.8404 31.9475C38.9236 31.9698 39.001 32.0017 39.0727 32.0433C39.1443 32.0848 39.204 32.1418 39.2518 32.2142C39.2994 32.284 39.3277 32.3763 39.3369 32.4911C39.3475 32.6242 39.3174 32.7409 39.2465 32.8411C39.1757 32.9413 39.0835 33.0209 38.97 33.0799C38.8563 33.1362 38.7381 33.1693 38.6154 33.179C38.4614 33.1913 38.3053 33.1775 38.1472 33.1375C37.9888 33.095 37.8533 33.0099 37.7407 32.8823Z" fill="white"/>
<path d="M40.7471 33.0092C40.5252 33.0269 40.3284 32.9966 40.1567 32.9184C39.9874 32.8373 39.852 32.7207 39.7505 32.5685C39.6517 32.4161 39.5943 32.2394 39.5783 32.0385C39.5596 31.8035 39.5907 31.6001 39.6715 31.4282C39.7548 31.2534 39.8699 31.1155 40.0169 31.0145C40.1638 30.9135 40.3234 30.8561 40.4957 30.8424C40.6288 30.8318 40.7563 30.8492 40.8781 30.8947C41.0026 30.9399 41.1143 31.0072 41.2134 31.0965C41.3122 31.1832 41.3927 31.2871 41.4549 31.4083C41.5197 31.5292 41.5577 31.6601 41.569 31.8011C41.5713 31.8639 41.5506 31.9168 41.5067 31.9597C41.4629 32.0026 41.4096 32.0266 41.3469 32.0315L39.8512 32.1507L39.7026 31.7685L41.1396 31.654L41.0597 31.7392L41.0512 31.6335C41.04 31.5582 41.0072 31.4925 40.9528 31.4364C40.901 31.3801 40.8373 31.3379 40.7615 31.3098C40.6881 31.2789 40.6109 31.2666 40.53 31.2731C40.4517 31.2793 40.3794 31.2956 40.3132 31.3219C40.247 31.3482 40.1911 31.3881 40.1454 31.4416C40.0998 31.4952 40.0659 31.5649 40.0439 31.6507C40.0218 31.7365 40.0159 31.8434 40.0261 31.9713C40.0373 32.1122 40.0756 32.23 40.1409 32.3246C40.2086 32.4164 40.2903 32.4848 40.3858 32.5297C40.4837 32.5718 40.5849 32.5887 40.6893 32.5804C40.7859 32.5727 40.8623 32.5588 40.9184 32.5385C40.9746 32.5183 41.0188 32.4964 41.0511 32.4728C41.0858 32.4464 41.1169 32.4242 41.1443 32.4063C41.1894 32.379 41.2329 32.3637 41.2746 32.3604C41.3321 32.3558 41.3806 32.3717 41.4203 32.4079C41.4625 32.444 41.4858 32.4881 41.4899 32.5403C41.4955 32.6108 41.4641 32.6776 41.3956 32.7409C41.3323 32.8037 41.2411 32.8622 41.1219 32.9163C41.0025 32.9679 40.8776 32.9988 40.7471 33.0092Z" fill="white"/>
</g>
</g>
<defs>
<filter id="filter0_d" x="41" y="19" width="16.6712" height="7.69686" filterUnits="userSpaceOnUse" color-interpolation-filters="sRGB">
<feFlood flood-opacity="0" result="BackgroundImageFix"/>
<feColorMatrix in="SourceAlpha" type="matrix" values="0 0 0 0 0 0 0 0 0 0 0 0 0 0 0 0 0 0 127 0"/>
<feOffset dy="1"/>
<feGaussianBlur stdDeviation="0.5"/>
<feColorMatrix type="matrix" values="0 0 0 0 0 0 0 0 0 0 0 0 0 0 0 0 0 0 0.25 0"/>
<feBlend mode="normal" in2="BackgroundImageFix" result="effect1_dropShadow"/>
<feBlend mode="normal" in="SourceGraphic" in2="effect1_dropShadow" result="shape"/>
</filter>
<filter id="filter1_d" x="13" y="20" width="6.05093" height="5.85084" filterUnits="userSpaceOnUse" color-interpolation-filters="sRGB">
<feFlood flood-opacity="0" result="BackgroundImageFix"/>
<feColorMatrix in="SourceAlpha" type="matrix" values="0 0 0 0 0 0 0 0 0 0 0 0 0 0 0 0 0 0 127 0"/>
<feOffset dy="1"/>
<feGaussianBlur stdDeviation="0.5"/>
<feColorMatrix type="matrix" values="0 0 0 0 0 0 0 0 0 0 0 0 0 0 0 0 0 0 0.25 0"/>
<feBlend mode="normal" in2="BackgroundImageFix" result="effect1_dropShadow"/>
<feBlend mode="normal" in="SourceGraphic" in2="effect1_dropShadow" result="shape"/>
</filter>
<filter id="filter2_d" x="27" y="30" width="15.6594" height="6.00597" filterUnits="userSpaceOnUse" color-interpolation-filters="sRGB">
<feFlood flood-opacity="0" result="BackgroundImageFix"/>
<feColorMatrix in="SourceAlpha" type="matrix" values="0 0 0 0 0 0 0 0 0 0 0 0 0 0 0 0 0 0 127 0"/>
<feOffset dy="1"/>
<feGaussianBlur stdDeviation="0.5"/>
<feColorMatrix type="matrix" values="0 0 0 0 0 0 0 0 0 0 0 0 0 0 0 0 0 0 0.25 0"/>
<feBlend mode="normal" in2="BackgroundImageFix" result="effect1_dropShadow"/>
<feBlend mode="normal" in="SourceGraphic" in2="effect1_dropShadow" result="shape"/>
</filter>
<clipPath id="clip0">
<rect width="68" height="68" fill="white"/>
</clipPath>
</defs>
</svg>
