<svg width="209" height="33" viewBox="0 0 209 33" fill="none" xmlns="http://www.w3.org/2000/svg">
<path d="M2.268 0.281982C2.604 0.281982 2.952 0.377982 3.312 0.569983C3.696 0.737982 3.984 0.965982 4.176 1.25398L12.924 14.718L11.124 14.646L20.088 1.25398C20.544 0.605982 21.132 0.281982 21.852 0.281982C22.428 0.281982 22.944 0.485982 23.4 0.893983C23.856 1.30198 24.084 1.82998 24.084 2.47798V23.322C24.084 23.946 23.88 24.474 23.472 24.906C23.064 25.314 22.524 25.518 21.852 25.518C21.18 25.518 20.628 25.314 20.196 24.906C19.788 24.474 19.584 23.946 19.584 23.322V6.36598L20.988 6.68998L13.644 17.886C13.428 18.15 13.152 18.378 12.816 18.57C12.504 18.762 12.18 18.846 11.844 18.822C11.532 18.846 11.208 18.762 10.872 18.57C10.56 18.378 10.296 18.15 10.08 17.886L3.204 7.01398L4.14 5.10598V23.322C4.14 23.946 3.948 24.474 3.564 24.906C3.18 25.314 2.676 25.518 2.052 25.518C1.452 25.518 0.96 25.314 0.576 24.906C0.192 24.474 0 23.946 0 23.322V2.47798C0 1.87798 0.216 1.36198 0.648 0.929982C1.104 0.497982 1.644 0.281982 2.268 0.281982Z" fill="#3F3F3F"/>
<path d="M43.4476 6.25798C44.0716 6.25798 44.5876 6.47398 44.9956 6.90598C45.4036 7.31398 45.6076 7.82998 45.6076 8.45398V23.754C45.6076 25.962 45.1876 27.714 44.3476 29.01C43.5316 30.33 42.4276 31.278 41.0356 31.854C39.6436 32.43 38.0836 32.718 36.3556 32.718C35.5876 32.718 34.7716 32.658 33.9076 32.538C33.0436 32.418 32.3356 32.238 31.7836 31.998C31.0636 31.686 30.5596 31.29 30.2716 30.81C30.0076 30.354 29.9596 29.862 30.1276 29.334C30.3436 28.638 30.6916 28.158 31.1716 27.894C31.6516 27.654 32.1556 27.63 32.6836 27.822C33.0676 27.942 33.5716 28.122 34.1956 28.362C34.8196 28.626 35.5396 28.758 36.3556 28.758C37.4596 28.758 38.3716 28.602 39.0916 28.29C39.8356 28.002 40.3876 27.498 40.7476 26.778C41.1316 26.082 41.3236 25.122 41.3236 23.898V21.486L42.0796 22.35C41.6716 23.142 41.1556 23.802 40.5316 24.33C39.9316 24.834 39.2116 25.218 38.3716 25.482C37.5316 25.746 36.5716 25.878 35.4916 25.878C34.2196 25.878 33.1036 25.59 32.1436 25.014C31.2076 24.414 30.4756 23.598 29.9476 22.566C29.4196 21.51 29.1556 20.31 29.1556 18.966V8.45398C29.1556 7.82998 29.3596 7.31398 29.7676 6.90598C30.1756 6.47398 30.6916 6.25798 31.3156 6.25798C31.9396 6.25798 32.4556 6.47398 32.8636 6.90598C33.2716 7.31398 33.4756 7.82998 33.4756 8.45398V17.67C33.4756 19.23 33.8116 20.334 34.4836 20.982C35.1796 21.606 36.1396 21.918 37.3636 21.918C38.2036 21.918 38.9116 21.762 39.4876 21.45C40.0636 21.114 40.5076 20.634 40.8196 20.01C41.1316 19.362 41.2876 18.582 41.2876 17.67V8.45398C41.2876 7.82998 41.4916 7.31398 41.8996 6.90598C42.3076 6.47398 42.8236 6.25798 43.4476 6.25798Z" fill="#3F3F3F"/>
<path d="M71.1775 0.317982C72.4255 0.317982 73.5895 0.677982 74.6695 1.39798C75.7735 2.11798 76.6615 3.08998 77.3335 4.31398C78.0055 5.53798 78.3415 6.90598 78.3415 8.41798C78.3415 9.90598 78.0055 11.262 77.3335 12.486C76.6615 13.71 75.7735 14.694 74.6695 15.438C73.5895 16.158 72.4255 16.518 71.1775 16.518H64.5535L64.9135 15.87V23.322C64.9135 23.946 64.7215 24.474 64.3375 24.906C63.9535 25.314 63.4495 25.518 62.8255 25.518C62.2255 25.518 61.7335 25.314 61.3495 24.906C60.9655 24.474 60.7735 23.946 60.7735 23.322V2.51398C60.7735 1.88998 60.9775 1.37398 61.3855 0.965982C61.8175 0.533982 62.3455 0.317982 62.9695 0.317982H71.1775ZM71.1775 12.414C71.6335 12.414 72.0775 12.222 72.5095 11.838C72.9415 11.454 73.3015 10.962 73.5895 10.362C73.8775 9.73798 74.0215 9.08998 74.0215 8.41798C74.0215 7.72198 73.8775 7.07398 73.5895 6.47398C73.3015 5.87398 72.9415 5.39398 72.5095 5.03398C72.0775 4.64998 71.6335 4.45798 71.1775 4.45798H64.4815L64.9135 3.80998V12.99L64.5175 12.414H71.1775Z" fill="#3F3F3F"/>
<path d="M84.2845 25.518C83.6605 25.518 83.1445 25.314 82.7365 24.906C82.3285 24.474 82.1245 23.946 82.1245 23.322V8.45398C82.1245 7.82998 82.3285 7.31398 82.7365 6.90598C83.1445 6.47398 83.6605 6.25798 84.2845 6.25798C84.9085 6.25798 85.4245 6.47398 85.8325 6.90598C86.2405 7.31398 86.4445 7.82998 86.4445 8.45398V11.838L86.1925 9.42598C86.4565 8.84998 86.7925 8.34598 87.2005 7.91398C87.6325 7.45798 88.1125 7.08598 88.6405 6.79798C89.1685 6.48598 89.7325 6.25798 90.3325 6.11398C90.9325 5.96998 91.5325 5.89798 92.1325 5.89798C92.8525 5.89798 93.4525 6.10198 93.9325 6.50998C94.4365 6.91798 94.6885 7.39798 94.6885 7.94998C94.6885 8.74198 94.4845 9.31798 94.0765 9.67798C93.6685 10.014 93.2245 10.182 92.7445 10.182C92.2885 10.182 91.8685 10.098 91.4845 9.92998C91.1245 9.76198 90.7045 9.67798 90.2245 9.67798C89.7925 9.67798 89.3485 9.78598 88.8925 10.002C88.4605 10.194 88.0525 10.506 87.6685 10.938C87.3085 11.37 87.0085 11.91 86.7685 12.558C86.5525 13.182 86.4445 13.926 86.4445 14.79V23.322C86.4445 23.946 86.2405 24.474 85.8325 24.906C85.4245 25.314 84.9085 25.518 84.2845 25.518Z" fill="#3F3F3F"/>
<path d="M115.449 15.906C115.449 17.874 115.005 19.614 114.117 21.126C113.253 22.614 112.077 23.778 110.589 24.618C109.125 25.458 107.481 25.878 105.657 25.878C103.833 25.878 102.177 25.458 100.689 24.618C99.2248 23.778 98.0488 22.614 97.1608 21.126C96.2968 19.614 95.8648 17.874 95.8648 15.906C95.8648 13.938 96.2968 12.21 97.1608 10.722C98.0488 9.20998 99.2248 8.03398 100.689 7.19398C102.177 6.32998 103.833 5.89798 105.657 5.89798C107.481 5.89798 109.125 6.32998 110.589 7.19398C112.077 8.03398 113.253 9.20998 114.117 10.722C115.005 12.21 115.449 13.938 115.449 15.906ZM111.129 15.906C111.129 14.682 110.877 13.626 110.373 12.738C109.893 11.826 109.233 11.118 108.393 10.614C107.577 10.11 106.665 9.85798 105.657 9.85798C104.649 9.85798 103.725 10.11 102.885 10.614C102.069 11.118 101.409 11.826 100.905 12.738C100.425 13.626 100.185 14.682 100.185 15.906C100.185 17.106 100.425 18.162 100.905 19.074C101.409 19.962 102.069 20.658 102.885 21.162C103.725 21.666 104.649 21.918 105.657 21.918C106.665 21.918 107.577 21.666 108.393 21.162C109.233 20.658 109.893 19.962 110.373 19.074C110.877 18.162 111.129 17.106 111.129 15.906Z" fill="#3F3F3F"/>
<path d="M126.89 5.89798C127.898 5.89798 128.822 6.05398 129.662 6.36598C130.502 6.67798 131.222 7.07398 131.822 7.55398C132.446 8.03398 132.926 8.52598 133.262 9.02998C133.622 9.50998 133.802 9.91798 133.802 10.254L132.866 10.722V8.09398C132.866 7.46998 133.07 6.95398 133.478 6.54598C133.886 6.11398 134.402 5.89798 135.026 5.89798C135.65 5.89798 136.166 6.10198 136.574 6.50998C136.982 6.91798 137.186 7.44598 137.186 8.09398V24.114C137.186 26.202 136.73 27.87 135.818 29.118C134.93 30.39 133.754 31.302 132.29 31.854C130.826 32.43 129.254 32.718 127.574 32.718C127.094 32.718 126.47 32.658 125.702 32.538C124.934 32.418 124.202 32.274 123.506 32.106C122.81 31.938 122.282 31.782 121.922 31.638C121.202 31.326 120.698 30.93 120.41 30.45C120.146 29.994 120.098 29.502 120.266 28.974C120.482 28.278 120.83 27.798 121.31 27.534C121.79 27.294 122.294 27.27 122.822 27.462C123.062 27.534 123.458 27.678 124.01 27.894C124.562 28.11 125.162 28.302 125.81 28.47C126.482 28.662 127.07 28.758 127.574 28.758C129.374 28.758 130.706 28.398 131.57 27.678C132.434 26.958 132.866 25.962 132.866 24.69V21.558L133.298 21.882C133.298 22.194 133.13 22.578 132.794 23.034C132.482 23.466 132.038 23.898 131.462 24.33C130.91 24.762 130.25 25.134 129.482 25.446C128.714 25.734 127.898 25.878 127.034 25.878C125.33 25.878 123.794 25.458 122.426 24.618C121.058 23.754 119.978 22.578 119.186 21.09C118.394 19.578 117.998 17.85 117.998 15.906C117.998 13.938 118.394 12.21 119.186 10.722C119.978 9.20998 121.046 8.03398 122.39 7.19398C123.734 6.32998 125.234 5.89798 126.89 5.89798ZM127.574 9.85798C126.494 9.85798 125.546 10.122 124.73 10.65C123.914 11.178 123.278 11.898 122.822 12.81C122.366 13.722 122.138 14.754 122.138 15.906C122.138 17.034 122.366 18.054 122.822 18.966C123.278 19.878 123.914 20.598 124.73 21.126C125.546 21.654 126.494 21.918 127.574 21.918C128.678 21.918 129.638 21.654 130.454 21.126C131.27 20.598 131.906 19.878 132.362 18.966C132.818 18.054 133.046 17.034 133.046 15.906C133.046 14.754 132.818 13.722 132.362 12.81C131.906 11.898 131.27 11.178 130.454 10.65C129.638 10.122 128.678 9.85798 127.574 9.85798Z" fill="#3F3F3F"/>
<path d="M144.038 25.518C143.414 25.518 142.898 25.314 142.49 24.906C142.082 24.474 141.878 23.946 141.878 23.322V8.45398C141.878 7.82998 142.082 7.31398 142.49 6.90598C142.898 6.47398 143.414 6.25798 144.038 6.25798C144.662 6.25798 145.178 6.47398 145.586 6.90598C145.994 7.31398 146.198 7.82998 146.198 8.45398V11.838L145.946 9.42598C146.21 8.84998 146.546 8.34598 146.954 7.91398C147.386 7.45798 147.866 7.08598 148.394 6.79798C148.922 6.48598 149.486 6.25798 150.086 6.11398C150.686 5.96998 151.286 5.89798 151.886 5.89798C152.606 5.89798 153.206 6.10198 153.686 6.50998C154.19 6.91798 154.442 7.39798 154.442 7.94998C154.442 8.74198 154.238 9.31798 153.83 9.67798C153.422 10.014 152.978 10.182 152.498 10.182C152.042 10.182 151.622 10.098 151.238 9.92998C150.878 9.76198 150.458 9.67798 149.978 9.67798C149.546 9.67798 149.102 9.78598 148.646 10.002C148.214 10.194 147.806 10.506 147.422 10.938C147.062 11.37 146.762 11.91 146.522 12.558C146.306 13.182 146.198 13.926 146.198 14.79V23.322C146.198 23.946 145.994 24.474 145.586 24.906C145.178 25.314 144.662 25.518 144.038 25.518Z" fill="#3F3F3F"/>
<path d="M165.591 25.878C163.551 25.878 161.775 25.458 160.263 24.618C158.775 23.754 157.623 22.59 156.807 21.126C156.015 19.662 155.619 18.006 155.619 16.158C155.619 13.998 156.051 12.162 156.915 10.65C157.803 9.11398 158.955 7.93798 160.371 7.12198C161.787 6.30598 163.287 5.89798 164.871 5.89798C166.095 5.89798 167.247 6.14998 168.327 6.65398C169.431 7.15798 170.403 7.85398 171.243 8.74198C172.083 9.60598 172.743 10.614 173.223 11.766C173.727 12.918 173.979 14.142 173.979 15.438C173.955 16.014 173.727 16.482 173.295 16.842C172.863 17.202 172.359 17.382 171.783 17.382H158.031L156.951 13.782H170.163L169.371 14.502V13.53C169.323 12.834 169.071 12.21 168.615 11.658C168.183 11.106 167.631 10.674 166.959 10.362C166.311 10.026 165.615 9.85798 164.871 9.85798C164.151 9.85798 163.479 9.95398 162.855 10.146C162.231 10.338 161.691 10.662 161.235 11.118C160.779 11.574 160.419 12.186 160.155 12.954C159.891 13.722 159.759 14.694 159.759 15.87C159.759 17.166 160.023 18.27 160.551 19.182C161.103 20.07 161.799 20.754 162.639 21.234C163.503 21.69 164.415 21.918 165.375 21.918C166.263 21.918 166.971 21.846 167.499 21.702C168.027 21.558 168.447 21.39 168.759 21.198C169.095 20.982 169.395 20.802 169.659 20.658C170.091 20.442 170.499 20.334 170.883 20.334C171.411 20.334 171.843 20.514 172.179 20.874C172.539 21.234 172.719 21.654 172.719 22.134C172.719 22.782 172.383 23.37 171.711 23.898C171.087 24.426 170.211 24.894 169.083 25.302C167.955 25.686 166.791 25.878 165.591 25.878Z" fill="#3F3F3F"/>
<path d="M176.485 22.53C176.245 22.194 176.137 21.762 176.161 21.234C176.185 20.706 176.497 20.25 177.097 19.866C177.481 19.626 177.889 19.53 178.321 19.578C178.753 19.602 179.173 19.818 179.581 20.226C180.277 20.922 181.009 21.462 181.777 21.846C182.545 22.23 183.505 22.422 184.657 22.422C185.017 22.398 185.413 22.35 185.845 22.278C186.277 22.182 186.649 21.99 186.961 21.702C187.297 21.39 187.465 20.922 187.465 20.298C187.465 19.77 187.285 19.35 186.925 19.038C186.565 18.726 186.085 18.462 185.485 18.246C184.909 18.03 184.261 17.826 183.541 17.634C182.797 17.418 182.029 17.178 181.237 16.914C180.469 16.65 179.761 16.314 179.113 15.906C178.465 15.474 177.937 14.91 177.529 14.214C177.121 13.518 176.917 12.642 176.917 11.586C176.917 10.386 177.253 9.36598 177.925 8.52598C178.597 7.68598 179.461 7.03798 180.517 6.58198C181.597 6.12598 182.725 5.89798 183.901 5.89798C184.645 5.89798 185.425 5.99398 186.241 6.18598C187.057 6.35398 187.837 6.64198 188.581 7.04998C189.325 7.43398 189.949 7.94998 190.453 8.59798C190.717 8.95798 190.873 9.38998 190.921 9.89398C190.969 10.398 190.741 10.854 190.237 11.262C189.877 11.55 189.457 11.682 188.977 11.658C188.497 11.61 188.101 11.442 187.789 11.154C187.381 10.626 186.829 10.206 186.133 9.89398C185.461 9.58198 184.681 9.42598 183.793 9.42598C183.433 9.42598 183.037 9.47398 182.605 9.56998C182.197 9.64198 181.837 9.82198 181.525 10.11C181.213 10.374 181.057 10.806 181.057 11.406C181.057 11.958 181.237 12.402 181.597 12.738C181.957 13.05 182.437 13.314 183.037 13.53C183.661 13.722 184.321 13.914 185.017 14.106C185.737 14.298 186.469 14.526 187.213 14.79C187.957 15.054 188.641 15.402 189.265 15.834C189.889 16.266 190.393 16.83 190.777 17.526C191.161 18.198 191.353 19.062 191.353 20.118C191.353 21.342 190.993 22.386 190.273 23.25C189.553 24.114 188.653 24.774 187.573 25.23C186.493 25.662 185.389 25.878 184.261 25.878C182.845 25.878 181.429 25.638 180.013 25.158C178.597 24.654 177.421 23.778 176.485 22.53Z" fill="#3F3F3F"/>
<path d="M193.872 22.53C193.632 22.194 193.524 21.762 193.548 21.234C193.572 20.706 193.884 20.25 194.484 19.866C194.868 19.626 195.276 19.53 195.708 19.578C196.14 19.602 196.56 19.818 196.968 20.226C197.664 20.922 198.396 21.462 199.164 21.846C199.932 22.23 200.892 22.422 202.044 22.422C202.404 22.398 202.8 22.35 203.232 22.278C203.664 22.182 204.036 21.99 204.348 21.702C204.684 21.39 204.852 20.922 204.852 20.298C204.852 19.77 204.672 19.35 204.312 19.038C203.952 18.726 203.472 18.462 202.872 18.246C202.296 18.03 201.648 17.826 200.928 17.634C200.184 17.418 199.416 17.178 198.624 16.914C197.856 16.65 197.148 16.314 196.5 15.906C195.852 15.474 195.324 14.91 194.916 14.214C194.508 13.518 194.304 12.642 194.304 11.586C194.304 10.386 194.64 9.36598 195.312 8.52598C195.984 7.68598 196.848 7.03798 197.904 6.58198C198.984 6.12598 200.112 5.89798 201.288 5.89798C202.032 5.89798 202.812 5.99398 203.628 6.18598C204.444 6.35398 205.224 6.64198 205.968 7.04998C206.712 7.43398 207.336 7.94998 207.84 8.59798C208.104 8.95798 208.26 9.38998 208.308 9.89398C208.356 10.398 208.128 10.854 207.624 11.262C207.264 11.55 206.844 11.682 206.364 11.658C205.884 11.61 205.488 11.442 205.176 11.154C204.768 10.626 204.216 10.206 203.52 9.89398C202.848 9.58198 202.068 9.42598 201.18 9.42598C200.82 9.42598 200.424 9.47398 199.992 9.56998C199.584 9.64198 199.224 9.82198 198.912 10.11C198.6 10.374 198.444 10.806 198.444 11.406C198.444 11.958 198.624 12.402 198.984 12.738C199.344 13.05 199.824 13.314 200.424 13.53C201.048 13.722 201.708 13.914 202.404 14.106C203.124 14.298 203.856 14.526 204.6 14.79C205.344 15.054 206.028 15.402 206.652 15.834C207.276 16.266 207.78 16.83 208.164 17.526C208.548 18.198 208.74 19.062 208.74 20.118C208.74 21.342 208.38 22.386 207.66 23.25C206.94 24.114 206.04 24.774 204.96 25.23C203.88 25.662 202.776 25.878 201.648 25.878C200.232 25.878 198.816 25.638 197.4 25.158C195.984 24.654 194.808 23.778 193.872 22.53Z" fill="#3F3F3F"/>
</svg>
