<svg width="47" height="53" viewBox="0 0 47 53" fill="none" xmlns="http://www.w3.org/2000/svg">
<path d="M0.00563 46.4624C0.00563 45.5999 -0.0146943 44.7777 0.0218894 43.9581C0.0300191 43.7703 0.204808 43.5624 0.353853 43.4135C1.95676 41.82 3.57186 40.244 5.15445 38.6344C5.37506 38.3965 5.50367 38.0892 5.51758 37.7665C5.54106 33.0531 5.54603 28.3397 5.53248 23.6263C5.53248 20.6646 6.07446 17.829 7.47006 15.1866C9.85613 10.6543 13.5673 7.71811 18.4912 6.23728C19.4871 5.93683 19.353 6.19302 19.3381 5.1374C19.3191 3.80412 19.4316 2.53388 20.3733 1.45813C21.441 0.237524 23.1143 -0.296325 24.6089 0.163751C26.2605 0.673456 27.4461 2.06039 27.5897 3.6834C27.6444 4.2791 27.6611 4.87762 27.6399 5.47541C27.6223 5.89525 27.7754 6.04413 28.1819 6.14607C31.8538 7.14134 34.9498 9.05139 37.3955 11.9567C39.5546 14.4868 40.9107 17.5917 41.2937 20.8819C41.4121 21.9594 41.4682 23.0427 41.4617 24.1266C41.4807 28.6522 41.4807 33.1783 41.4617 37.7048C41.4525 37.888 41.4841 38.0709 41.5544 38.2406C41.6247 38.4103 41.7318 38.5626 41.8682 38.6867C43.4725 40.2453 45.0614 41.8196 46.635 43.4095C46.8353 43.6392 46.9543 43.9275 46.9737 44.2304C47.0211 44.9547 46.99 45.6844 46.99 46.4516L0.00563 46.4624Z" fill="#FFD063"/>
<path d="M28.9827 47.518C28.8661 50.0786 27.0627 53.1932 23.4897 52.9906C20.1416 52.8002 17.9181 50.1054 18.0184 47.518H28.9827Z" fill="#FF9945"/>
</svg>
