<svg width="118" height="117" viewBox="0 0 118 117" fill="none" xmlns="http://www.w3.org/2000/svg">
<circle cx="59" cy="58.5" r="58.5" fill="#1771B9"/>
<mask id="mask0_731_11013" style="mask-type:alpha" maskUnits="userSpaceOnUse" x="0" y="0" width="118" height="117">
<circle cx="59" cy="58.5" r="58.5" fill="#EC5858"/>
</mask>
<g mask="url(#mask0_731_11013)">
<path d="M-nan -nanL70.8333 31.0315C70.3127 31.0318 69.7972 30.9296 69.3161 30.7307C68.8351 30.5318 68.398 30.2401 68.0298 29.8723C67.6616 29.5046 67.3695 29.0679 67.1702 28.5873C66.971 28.1066 66.8684 27.5915 66.8684 27.0712V19.8275C66.8866 18.6716 66.6744 17.5236 66.2444 16.4504C65.8143 15.3772 65.1749 14.4002 64.3634 13.5763C63.5519 12.7525 62.5845 12.0982 61.5175 11.6516C60.4505 11.205 59.3053 10.975 58.1485 10.975C56.9917 10.975 55.8465 11.205 54.7795 11.6516C53.7126 12.0982 52.7452 12.7525 51.9336 13.5763C51.1221 14.4002 50.4827 15.3772 50.0527 16.4504C49.6226 17.5236 49.4105 18.6716 49.4286 19.8275V27.0712C49.4045 28.1059 48.9763 29.09 48.2356 29.8133C47.4949 30.5365 46.5004 30.9414 45.4649 30.9414C44.4293 30.9414 43.4348 30.5365 42.6941 29.8133C41.9534 29.09 41.5252 28.1059 41.5011 27.0712V19.8275C41.476 17.6267 41.8882 15.4429 42.7135 13.4024C43.5389 11.3619 44.7612 9.50541 46.3095 7.94032C47.8579 6.37523 49.7015 5.1327 51.7337 4.28468C53.7659 3.43665 55.9463 3 58.1485 3C60.3507 3 62.5311 3.43665 64.5633 4.28468C66.5955 5.1327 68.4392 6.37523 69.9875 7.94032C71.5358 9.50541 72.7581 11.3619 73.5835 13.4024C74.4089 15.4429 74.821 17.6267 74.796 19.8275V27.0712C74.796 28.1215 74.3785 29.1289 73.6353 29.8716C72.8922 30.6143 71.8842 31.0315 70.8333 31.0315L-nan -nanZ" fill="#CE2489"/>
<path d="M21.1087 76.4168C19.8523 70.5983 13.3182 67.4227 9.8703 72.275C7.64834 75.4021 6.35276 79.0914 6.13201 82.9203L5.24615 98.248C5.13492 100.179 5.41944 102.113 6.08227 103.931C6.7451 105.748 7.77229 107.411 9.1009 108.818C10.4295 110.225 12.0315 111.346 13.8089 112.112C15.5862 112.879 17.5014 113.274 19.4371 113.275C24.3906 113.275 28.0804 108.703 27.0349 103.861L21.1087 76.4168Z" fill="#21B95C"/>
<path d="M96.368 76.4168C97.6244 70.5983 104.158 67.4227 107.606 72.275C109.828 75.4021 111.124 79.0914 111.345 82.9203L112.231 98.248C112.342 100.179 112.057 102.113 111.394 103.931C110.732 105.748 109.704 107.411 108.376 108.818C107.047 110.225 105.445 111.346 103.668 112.112C101.891 112.879 99.9753 113.274 98.0396 113.275C93.0861 113.275 89.3963 108.703 90.4418 103.861L96.368 76.4168Z" fill="#21B95C"/>
<path d="M-nan -nanL46.0535 36.426C47.1047 36.426 48.1129 36.0088 48.8563 35.2662C49.5998 34.5235 50.0178 33.5162 50.0184 32.4657V25.222C50.0148 22.9125 48.2983 19.8904 46.0126 20.2209C45.5608 20.2862 45.1096 20.3563 44.6592 20.4312C43.4515 20.632 42.4612 21.5298 42.2778 22.7402C42.1535 23.56 42.0909 24.3888 42.0908 25.2198V32.4635C42.0905 32.9838 42.1928 33.499 42.3918 33.9797C42.5909 34.4605 42.8827 34.8973 43.2507 35.2653C43.6187 35.6333 44.0556 35.9252 44.5366 36.1243C45.0175 36.3235 45.533 36.426 46.0535 36.426L-nan -nanZ" fill="#AA1A77"/>
<path d="M-nan -nanL67.4586 25.222V32.4657C67.4828 33.5004 67.911 34.4845 68.6517 35.2078C69.3924 35.931 70.3869 36.3359 71.4224 36.3359C72.458 36.3359 73.4524 35.931 74.1932 35.2078C74.9339 34.4845 75.3621 33.5004 75.3862 32.4657V25.222C75.3861 24.3914 75.3235 23.5629 75.1994 22.7435C75.016 21.5323 74.0252 20.6338 72.8168 20.4328C71.7601 20.2569 70.6992 20.1074 69.6353 19.9845C68.0375 19.7998 66.9273 21.821 67.2652 23.3935C67.3935 23.9906 67.4592 24.6033 67.4586 25.222L-nan -nanZ" fill="#AA1A77"/>
<path d="M90.4497 102.664C95.9726 102.664 100.463 98.1479 100.366 92.6259C99.3258 33.3497 88.3968 24.9941 58.7371 24.9941C29.0774 24.9941 18.1484 33.3497 17.1079 92.6259C17.0109 98.1479 21.5016 102.664 27.0244 102.664H90.4497Z" fill="#F7CB52"/>
<path d="M90.4497 102.664C95.9726 102.664 100.464 98.1858 100.367 92.6638C100.246 85.7922 99.9915 79.6048 99.5893 74.0365C99.4594 72.2381 98.8522 70.4886 97.6594 69.1364C94.3278 65.3594 89.896 62.4299 84.442 60.4113C77.6733 57.9079 69.2642 56.6917 58.7306 56.6917C48.1971 56.6917 39.7879 57.9079 33.0214 60.4113C27.568 62.4296 23.135 65.3588 19.8044 69.1352C18.6112 70.488 18.0046 72.2386 17.8752 74.0378C17.4746 79.6065 17.2192 85.7936 17.0976 92.6638C16.9999 98.1858 21.4908 102.664 27.0137 102.664H90.4497Z" fill="#F4C223"/>
<path d="M45.5437 53.3942C43.45 54.7003 42.0478 56.8313 41.5119 59.2401L38.7844 71.5002C38.7356 71.7196 38.6943 71.939 38.6695 72.1623C38.5758 73.0048 38.3709 75.4442 38.5603 79.4652C38.7507 83.5063 41.6842 86.8023 45.697 87.3163C52.3054 88.1628 63.5586 88.7527 77.8624 86.2241C82.211 85.4553 85.3249 81.691 85.1839 77.2772C84.9123 68.7776 83.4665 55.1247 77.3309 48.0017C70.0336 39.5301 52.7183 48.9183 45.5437 53.3942Z" fill="#75B1C9"/>
<path d="M42.2073 55.3529C42.0632 55.4053 41.8625 55.9248 41.6308 56.7395C39.7898 63.2107 45.7 69.2014 52.2718 67.7599C64.3624 65.1079 69.8748 61.7658 72.3024 58.9292C74.8645 55.9354 71.2288 53.1364 67.2979 53.4111C58.2352 54.0446 42.7689 55.1499 42.2073 55.3529Z" fill="#FFD3AE"/>
<ellipse cx="36.5668" cy="32.805" rx="4.49969" ry="4.49969" transform="rotate(-24.22 36.5668 32.805)" fill="#FFE0C2"/>
<ellipse cx="37.4626" cy="32.7638" rx="3.61184" ry="3.61184" transform="rotate(-78.44 37.4626 32.7638)" fill="#FFD3AE"/>
<ellipse cx="83.2338" cy="31.4012" rx="4.49969" ry="4.49969" transform="rotate(-24.22 83.2338 31.4012)" fill="#FFE0C2"/>
<ellipse cx="82.3468" cy="31.4314" rx="3.61184" ry="3.61184" transform="rotate(-46.72 82.3468 31.4314)" fill="#FFD3AE"/>
<path d="M36.3605 37.7354C36.2313 36.7208 36.1873 35.7001 36.096 34.6814C35.6651 29.8721 36.0927 15.2718 57.0385 14.6355C80.3175 13.9283 83.4565 31.8445 83.7888 34.4393C83.8163 34.6539 83.8395 34.8535 83.8523 35.0695C83.9772 37.1796 83.645 49.0723 60.3883 49.7853C40.0505 50.4088 36.8296 41.4171 36.3605 37.7354Z" fill="#FFE0C2"/>
<path d="M47.0416 29.7308C47.4571 29.7202 47.8716 29.7496 48.2791 29.8177C49.1259 29.9592 50.0473 29.4955 50.0148 28.6375C49.9457 26.5671 49.0524 24.9121 48.0152 24.9401C46.9781 24.968 46.2025 26.6666 46.2721 28.7325C46.2768 28.8649 46.2849 28.9971 46.2965 29.129C46.3288 29.4982 46.6713 29.7452 47.0416 29.7308Z" fill="#634E42"/>
<path d="M71.9473 28.9595C71.5421 28.9709 71.1405 29.0208 70.7479 29.1078C69.8972 29.2964 68.9335 28.8864 68.9055 28.0154C68.8391 25.9178 69.6219 24.1963 70.6549 24.1661C71.6878 24.1359 72.5833 25.8165 72.6501 27.9095C72.6543 28.0457 72.6549 28.182 72.6518 28.3181C72.6435 28.6865 72.3156 28.9507 71.9473 28.9595Z" fill="#634E42"/>
<path d="M33.8722 26.0433C34.0891 27.8584 36.2334 30.0905 38.0409 29.8175C38.53 29.7436 38.9004 29.4943 39.18 29.1764C40.0542 28.1826 40.6374 27.2693 41.4253 26.2059C41.8269 25.6638 42.0553 24.5153 42.3262 23.8976C42.8706 22.6568 43.3717 20.5249 40.7863 19.9148C39.7867 19.679 38.7458 19.5207 37.7188 19.5069C36.4081 19.4892 34.7632 20.0179 34.9998 22.8627C35.0481 23.4434 34.8834 23.9215 34.5215 24.3782C34.1675 24.8248 33.8008 25.4455 33.8722 26.0433Z" fill="#EFEFEF"/>
<path d="M84.7773 24.5677C84.7727 26.353 82.9431 28.8208 81.1645 28.6665C80.7045 28.6266 80.3463 28.3939 80.0697 28.0846C79.2023 27.1146 78.5956 26.2614 77.8206 25.216C77.4432 24.7069 77.1878 23.6061 76.9138 23.0347C76.3579 21.8759 75.7592 19.8425 77.8421 19.0145C78.8799 18.602 80.0146 18.3433 81.1313 18.3337C82.4015 18.3228 83.8841 19.005 83.5002 22.4245C83.5011 22.4158 84.7802 23.4746 84.7773 24.5677Z" fill="#EFEFEF"/>
<path d="M60.2328 33.036C60.2871 33.1001 60.2696 33.1965 60.2722 33.2804L61.2976 65.8927C61.3021 66.0346 61.2044 66.1594 61.0656 66.1891L60.7783 66.2507L-nan -nanL60.7783 66.2507L60.2484 66.1669C59.2432 65.9921 57.661 65.658 56.076 65.0905C52.0299 63.6418 48.4215 60.6172 44.4606 58.9495C41.602 57.7459 38.7771 54.221 36.5977 52.0141C34.9779 50.3738 33.59 48.1013 34.0751 45.3437C34.3644 43.6995 34.8855 42.0691 34.8536 40.4C34.7852 36.8155 34.8786 30.4161 36.2666 27.6704C36.5089 27.191 37.1133 27.3328 37.266 27.8478C37.3155 28.015 37.4225 28.1587 37.5645 28.2599C38.1163 28.6533 39.5826 29.7771 40.643 31.3061C41.8162 32.998 42.746 34.9579 44.7903 35.2022C46.7948 35.4418 50.6261 36.2775 52.1915 35.0026C53.7377 33.7432 55.6302 32.5466 57.2144 32.5748C58.0582 32.5615 58.901 32.6407 59.7276 32.8109L-nan -nanL59.7276 32.8109C60.0406 32.8835 60.1759 32.9688 60.2328 33.036Z" fill="#EFEFEF"/>
<path d="M83.9823 50.964C81.9701 53.2854 79.4141 56.9692 76.6671 58.3448C72.839 60.2618 69.4508 63.4977 65.5192 65.1924C63.9882 65.8523 62.4468 66.2791 61.4656 66.5136L60.943 66.6276L-nan -nanL60.943 66.6276L60.6556 66.582C60.5176 66.5601 60.4146 66.4431 60.4104 66.3034L59.4286 33.6129C59.4258 33.5213 59.3999 33.4177 59.4534 33.3433C59.5073 33.2683 59.6368 33.1674 59.9365 33.0581L-nan -nanL59.9365 33.0581C60.7442 32.8398 61.573 32.7098 62.4086 32.6704C63.9665 32.5513 65.8999 33.6281 67.5015 34.7923C69.1304 35.9764 72.9191 34.9157 74.9015 34.5615C76.8996 34.2045 77.6647 32.2232 78.6949 30.4743C79.6533 28.8472 81.0684 27.6079 81.5952 27.178C81.7278 27.0698 81.8236 26.9222 81.8616 26.7553C81.9795 26.2381 82.5668 26.0625 82.8332 26.5212C84.3861 29.1944 84.8677 35.6518 85.0168 39.2414C85.0852 40.8865 85.6875 42.461 86.0784 44.0604C86.7544 46.8257 85.5016 49.2112 83.9823 50.964Z" fill="#EFEFEF"/>
<path d="M69.9418 16.0784C68.1686 16.5711 66.232 15.8968 67.7421 14.8449C68.1563 14.5563 68.6811 14.307 69.3431 14.1211C70.1089 13.906 70.7758 13.8756 71.3548 13.9706C73.1864 14.2709 71.7301 15.5815 69.9418 16.0784Z" fill="#EFEFEF"/>
<path d="M47.5912 16.7834C45.7545 16.5445 44.2548 15.1493 46.0644 14.7543C46.5748 14.6429 47.1725 14.6153 47.8724 14.7068C48.6911 14.814 49.3292 15.063 49.8254 15.3976C51.3637 16.4348 49.431 17.0227 47.5912 16.7834Z" fill="#EFEFEF"/>
<path d="M64.9726 30.1178C64.6275 30.1317 64.2833 30.0209 64.0083 29.8119C63.2061 29.2025 61.9959 28.8312 60.6426 28.8604C59.2887 28.8895 58.1026 29.3393 57.3367 29.9993C57.0743 30.2255 56.7381 30.3601 56.3917 30.3662C55.187 30.4019 54.2302 31.0666 54.2538 31.853C54.2774 32.6393 55.2721 33.2401 56.4768 33.2044C56.8221 33.1915 57.1666 33.3009 57.4418 33.5098C58.2456 34.1198 59.453 34.4911 60.8068 34.4619C62.1611 34.4327 63.3478 33.9795 64.1138 33.3182C64.3733 33.0942 64.7126 32.9725 65.0553 32.979C66.2606 32.9387 67.2168 32.2785 67.1932 31.4922C67.1696 30.7059 66.2002 30.0845 64.9726 30.1178Z" fill="#FFD3AE"/>
<path d="M34.6744 63.9089C34.4981 63.8526 34.3242 63.7835 34.1576 63.7028C32.9316 63.1088 27.6201 60.2099 27.2782 54.4223C27.0951 51.3223 26.938 48.1117 25.8644 45.1979C25.3429 43.7825 25.09 42.4059 25.6844 41.731C26.2901 41.0432 27.4896 40.8623 28.704 40.8908C30.115 40.924 33.033 39.3846 34.4272 39.1648C37.4391 38.6901 33.6801 51.107 41.7732 55.4373C47.1648 58.3069 41.3034 66.0281 34.6744 63.9089Z" fill="#FFE0C2"/>
<path d="M35.1396 20.0454L34.9697 20.213C34.9177 20.2663 34.8474 20.3078 34.7663 20.3329C34.6853 20.3581 34.5967 20.366 34.5101 20.3557C34.4235 20.3455 34.3423 20.3174 34.2754 20.2747C34.2085 20.232 34.1584 20.1762 34.1306 20.1135C33.609 18.9133 32.6787 17.8378 31.4329 16.9949C31.3461 16.9353 31.233 16.9022 31.1157 16.9022C30.9983 16.9022 30.8852 16.9353 30.7984 16.9949C29.5531 17.8386 28.6219 18.9138 28.0973 20.1135C28.0713 20.1768 28.0226 20.2335 27.9566 20.2772C27.8905 20.3209 27.8097 20.3499 27.7232 20.3611C27.6366 20.3722 27.5476 20.365 27.4661 20.3402C27.3847 20.3154 27.3139 20.2741 27.2616 20.2208L27.0917 20.0454C27.0472 20.0004 26.9894 19.9639 26.9228 19.9387C26.8563 19.9136 26.783 19.9005 26.7086 19.9005C26.6342 19.9005 26.5609 19.9136 26.4943 19.9387C26.4278 19.9639 26.37 20.0004 26.3255 20.0454C23.8409 22.5432 23.3307 24.6931 23.5348 26.3146C23.8344 28.6949 26.5081 29.5661 28.9072 29.5661H33.3241C35.7232 29.5661 38.3969 28.6949 38.6966 26.3146C38.9007 24.6931 38.3904 22.5432 35.9059 20.0454C35.8613 20.0004 35.8035 19.9639 35.737 19.9387C35.6705 19.9136 35.5971 19.9005 35.5227 19.9005C35.4483 19.9005 35.375 19.9136 35.3085 19.9387C35.242 19.9639 35.1841 20.0004 35.1396 20.0454Z" fill="#EC631D"/>
<path d="M37.1744 29.4405C37.0905 29.5254 36.9773 29.5661 36.858 29.5661C36.3965 29.5661 36.118 28.9221 36.3651 28.5324C37.2771 27.0944 38.1917 24.2507 34.9059 20.6028C34.8143 20.5011 34.8751 20.3199 34.9694 20.2208L35.1393 20.0532C35.1839 20.0082 35.2417 19.9717 35.3082 19.9466C35.3747 19.9214 35.4481 19.9083 35.5225 19.9083C35.5969 19.9083 35.6702 19.9214 35.7367 19.9466C35.8032 19.9717 35.8611 20.0082 35.9056 20.0532C40.9359 25.1057 37.8733 28.7341 37.1744 29.4405Z" fill="#DD4429"/>
<path d="M39.1971 29.875C39.1952 29.793 39.1511 29.7149 39.074 29.6571C38.9969 29.5994 38.893 29.5667 38.7844 29.566H23.4481C23.3396 29.5667 23.2357 29.5994 23.1586 29.6571C23.0815 29.7149 23.0373 29.793 23.0355 29.875C23.011 31.645 24.2676 32.7509 25.3025 33.3603C26.1409 33.8539 27.129 33.9677 28.1019 33.9677H34.1306C35.1036 33.9677 36.0916 33.8539 36.93 33.3603C37.965 32.7509 39.2216 31.645 39.1971 29.875Z" fill="#B7C1CA"/>
<path d="M-nan -nanL39.1965 29.875C39.2359 32.718 35.9702 33.8476 35.6265 33.9585C35.6058 33.9652 35.5863 33.9677 35.5646 33.9677C35.3073 33.9677 35.2007 33.465 35.4213 33.3326C36.446 32.7177 37.6638 31.6186 37.6396 29.875C37.6396 29.7931 37.5965 29.7145 37.5198 29.6565C37.4431 29.5986 37.339 29.566 37.2305 29.566H38.7839C38.8924 29.5667 38.9964 29.5994 39.0735 29.6571C39.1505 29.7149 39.1947 29.793 39.1965 29.875L-nan -nanZ" fill="#A3AEB7"/>
<path d="M31.1149 33.9678C28.792 33.9678 27.022 36.0488 27.3949 38.3416L28.5837 45.6514C28.771 46.8061 29.8181 47.6597 31.049 47.6597H31.2051C32.436 47.6597 33.4832 46.8061 33.6704 45.6514L34.8504 38.3559C35.2225 36.0549 33.4459 33.9678 31.1149 33.9678Z" fill="#B7C1CA"/>
<path d="M34.6809 33.9678C35.1363 33.9678 35.4835 34.3756 35.4108 34.8252L33.6597 45.6514C33.4725 46.8061 32.4253 47.6597 31.1944 47.6597H31.0383C30.8551 47.6592 30.8343 47.408 30.9929 47.3162C31.6034 46.9628 32.0458 46.3638 32.1618 45.6514L33.951 34.5891C34.0089 34.231 34.3181 33.9678 34.6809 33.9678Z" fill="#A3AEB7"/>
<path d="M30.7529 23.863C28.2729 25.224 27.9889 26.7529 28.2653 27.8848C28.5588 29.0867 29.8793 29.566 31.1164 29.566C32.3522 29.566 33.6714 29.0878 33.965 27.8873C34.2417 26.7561 33.9581 25.2271 31.4776 23.863C31.3715 23.8068 31.2449 23.7766 31.1153 23.7766C30.9856 23.7766 30.8591 23.8068 30.7529 23.863Z" fill="#F9AF2F"/>
<path d="M33.1759 29.4216C33.0974 29.5168 32.9794 29.566 32.856 29.566C32.449 29.566 32.1969 29.0322 32.3826 28.67C32.9192 27.6231 33.2625 25.8262 30.7512 24.1981C30.6276 24.1181 30.6254 23.9355 30.7535 23.863C30.8597 23.8068 30.9862 23.7766 31.1159 23.7766C31.2455 23.7766 31.372 23.8068 31.4782 23.863C35.5439 26.0943 33.7075 28.7766 33.1759 29.4216Z" fill="#F18415"/>
<path d="M-nan -nanL35.7464 39.0842H26.5023C26.2826 39.0842 26.065 39.0515 25.862 38.9879C25.659 38.9243 25.4746 38.8311 25.3193 38.7136C25.1641 38.5961 25.0411 38.4567 24.9573 38.3033C24.8735 38.1498 24.8306 37.9854 24.8311 37.8195L-nan -nanL24.8311 37.8195C24.8311 37.4848 25.0071 37.1637 25.3206 36.927C25.634 36.6903 26.0591 36.5574 26.5023 36.5574H35.7464C36.1897 36.5574 36.6148 36.6903 36.9282 36.927C37.2416 37.1637 37.4177 37.4848 37.4177 37.8195L-nan -nanL37.4177 37.8195C37.4182 37.9854 37.3753 38.1498 37.2915 38.3033C37.2077 38.4567 37.0847 38.5961 36.9294 38.7136C36.7742 38.8311 36.5898 38.9243 36.3868 38.9879C36.1838 39.0515 35.9662 39.0842 35.7464 39.0842L-nan -nanZ" fill="#30B5AB"/>
<path d="M-nan -nanL37.4188 37.8195C37.4188 38.1545 37.2428 38.4757 36.9295 38.7129C36.6162 38.95 36.1911 39.0835 35.7475 39.0842H34.5166C34.9471 39.0694 35.3535 38.9298 35.6513 38.6945C35.949 38.4592 36.1152 38.1463 36.1152 37.8208C36.1152 37.4953 35.949 37.1824 35.6513 36.9471C35.3535 36.7118 34.9471 36.5722 34.5166 36.5574H35.7475C36.1908 36.5574 36.6159 36.6903 36.9293 36.927C37.2427 37.1637 37.4188 37.4848 37.4188 37.8195L-nan -nanZ" fill="#11877C"/>
<path d="M58.7849 62.2227C17.8506 62.2227 17.0723 81.7427 17.0723 102.664C17.0723 116.259 34.7034 118.619 47.0323 118.604C54.8674 118.595 62.7018 118.595 70.5354 118.604C82.8729 118.619 100.495 116.259 100.495 102.664C100.498 81.7448 99.7214 62.2227 58.7849 62.2227Z" fill="#EC5858"/>
<path d="M70.5462 110.681C66.6272 110.681 62.7068 110.681 58.7849 110.681H47.0237H46.9205C39.9841 110.681 34.2153 109.869 30.2354 108.328C25.002 106.304 25.002 103.936 25.002 102.664C25.002 92.5921 25.3008 84.4674 29.0485 79.177C33.3488 73.1001 43.0825 70.1519 58.7849 70.1519C74.4874 70.1519 84.2167 73.1065 88.5213 79.177C92.2712 84.4674 92.5657 92.6029 92.5657 102.664C92.5657 103.936 92.5657 106.304 87.3323 108.328C83.3545 109.867 77.5857 110.681 70.6494 110.681H70.5462Z" fill="#21BAAF"/>
<path d="M88.7046 61.4126C88.7163 61.4534 88.7265 61.4884 88.7377 61.5293C88.9225 62.2036 90.6123 68.9372 85.7283 73.3802C83.5128 75.3956 81.2673 77.5212 79.8304 80.149C79.0301 81.6125 78.0576 82.8847 77.091 82.8967C76.182 82.908 75.2887 82.1508 74.5425 81.2351C73.6498 80.1395 70.5855 78.9528 69.5096 78.0364C67.2116 76.079 79.9117 64.8974 79.7846 57.1436C79.6578 49.4098 86.4082 53.4303 88.7046 61.4126Z" fill="#FFE0C2"/>
</g>
</svg>
