<svg width="110" height="110" viewBox="0 0 110 110" fill="none" xmlns="http://www.w3.org/2000/svg">
<path d="M16.3376 39.8433C19.1098 38.3543 21.8947 36.8811 24.6575 35.3668C33.8793 30.3086 43.0979 25.2378 52.3134 20.1544C52.5504 20.0216 52.816 19.9331 53.0657 19.8383C53.0657 20.1544 53.0973 20.4705 53.0973 20.7867V89.1919C53.0973 89.508 53.0783 89.8242 53.0657 90.1403C49.225 88.0538 45.3749 85.9831 41.5406 83.8808C33.423 79.4233 25.3097 74.9595 17.2006 70.4894C16.9256 70.3408 16.6253 70.2428 16.3344 70.1195C15.3292 69.4872 15.1364 68.5388 15.1427 67.3913C15.1828 59.1169 15.1828 50.8458 15.1427 42.5778C15.1364 41.4271 15.3261 40.4882 16.3376 39.8433ZM47.7267 79.3886C48.1382 79.3391 48.5246 79.1643 48.8333 78.8877C49.1421 78.6112 49.3583 78.2463 49.4526 77.8427C49.6771 76.9638 49.2472 76.2177 48.4506 75.7751C45.141 73.9416 41.8124 72.1333 38.506 70.3028C35.1995 68.4724 31.8994 66.6167 28.5803 64.7989C27.5182 64.2173 26.4529 64.5777 25.8681 65.6146C25.3466 66.5408 25.6026 67.4165 26.7026 68.0899C27.9133 68.8297 29.1714 69.4904 30.4105 70.1764C35.6558 73.0743 40.8999 75.9701 46.143 78.8638C46.5729 79.1104 47.0028 79.417 47.7267 79.3886Z" fill="#99E2FF"/>
<path d="M53.0664 90.1372C53.0664 89.821 53.098 89.5049 53.098 89.1888V20.7709C53.098 20.4547 53.0791 20.1386 53.0664 19.8225C53.8061 17.6664 55.0073 15.9688 57.3591 15.3428C58.1635 15.1338 59.004 15.1036 59.8214 15.2543C60.6387 15.405 61.4132 15.7329 62.0902 16.2151C62.7672 16.6972 63.3304 17.3218 63.7402 18.045C64.1499 18.7682 64.3963 19.5724 64.462 20.401C64.4841 20.676 64.4778 20.9542 64.4778 21.2293C64.4778 43.7359 64.4778 66.2395 64.4778 88.7398C64.4778 92.2995 61.9805 94.9234 58.6456 94.8065C56.2559 94.7211 54.5711 93.4977 53.5595 91.329C53.373 90.9465 53.2308 90.5386 53.0664 90.1372Z" fill="#2E81FF"/>
<path d="M16.3374 39.8433C15.3258 40.4756 15.1362 41.424 15.1425 42.5747C15.1825 50.8448 15.1825 59.1159 15.1425 67.3881C15.1425 68.5357 15.329 69.4714 16.3342 70.1163C11.5926 70.1163 6.82263 70.1543 2.06527 70.148C0.740795 70.148 0.0137567 69.4208 0.00111253 68.1057C-0.00520954 66.2563 0.0169177 64.4101 0.0295619 62.5797C3.05784 62.5797 6.08927 62.5797 9.11755 62.5797C10.5527 62.5797 11.3303 61.9253 11.3682 60.7429C11.403 59.5005 10.6001 58.7924 9.11755 58.7892C6.08927 58.7892 3.05784 58.7892 0.0295619 58.7892C0.0295619 53.1589 -0.00520954 47.5254 0.00111253 41.895C-0.00520954 40.5546 0.72499 39.818 2.04314 39.818C6.80683 39.818 11.5705 39.8338 16.3374 39.8433Z" fill="#2E81FF"/>
<path d="M86.9021 47.2258C87.1076 52.5179 84.6894 56.3558 80.2639 57.7183C78.7534 58.1924 77.1482 58.2807 75.5947 57.9752C74.0413 57.6697 72.5891 56.9801 71.3705 55.9693C70.1519 54.9585 69.2058 53.6586 68.6183 52.1883C68.0309 50.718 67.8209 49.124 68.0075 47.5517C68.1941 45.9794 68.7713 44.4788 69.6865 43.1869C70.6017 41.8949 71.8258 40.8526 73.247 40.1551C74.6683 39.4577 76.2416 39.1271 77.8234 39.1937C79.4052 39.2603 80.9451 39.7219 82.3028 40.5364C82.5715 40.6976 82.8433 40.8525 83.1152 41.0138C85.1604 42.6008 86.3173 44.7378 86.9021 47.2258Z" fill="#F7A82A"/>
<path d="M109.643 47.1784C109.985 51.6233 108.407 55.1008 104.358 57.1714C102.885 57.8923 101.249 58.2179 99.6124 58.1165C97.9754 58.0151 96.3928 57.49 95.0197 56.5929C93.6466 55.6957 92.5301 54.4572 91.7796 52.9986C91.0292 51.5401 90.6705 49.9116 90.7387 48.2726C90.8069 46.6337 91.2996 45.0407 92.1687 43.6495C93.0377 42.2584 94.2533 41.1169 95.6962 40.3369C97.1391 39.557 98.7598 39.1653 100.4 39.2003C102.039 39.2352 103.642 39.6957 105.05 40.5364L105.866 41.0138C107.898 42.5945 109.062 44.6968 109.643 47.1784Z" fill="#F7A82A"/>
<path d="M109.642 47.1784C109.073 44.6968 107.897 42.5945 105.864 41.0138C105.864 33.8628 105.864 26.7118 105.908 19.5609C105.908 18.8306 105.652 18.701 105.011 18.8085C99.2545 19.779 93.5014 20.7464 87.7388 21.6758C86.8916 21.8118 86.9233 22.3081 86.9233 22.9404C86.9233 30.5276 86.9233 38.1148 86.9233 45.7021C86.9233 46.2142 86.9043 46.7263 86.8948 47.2416C86.31 44.7537 85.1531 42.6166 83.1016 41.0296C83.1016 34.3107 83.1121 27.5928 83.1332 20.876C83.1332 19.0709 83.5125 18.5935 85.3206 18.2869C92.591 17.0476 99.8614 15.821 107.132 14.607C108.617 14.3573 109.661 15.0907 109.661 16.5039C109.692 26.7087 109.654 36.942 109.642 47.1784Z" fill="#FFE181"/>
<path d="M0.0292969 58.7861C3.05757 58.7861 6.08901 58.7861 9.11729 58.7861C10.5998 58.7861 11.4027 59.4974 11.3679 60.7398C11.3363 61.9221 10.5524 62.5733 9.11729 62.5765C6.08901 62.5765 3.05757 62.5765 0.0292969 62.5765V58.7861Z" fill="#0D55C1"/>
<path d="M47.7261 79.3886C47.018 79.417 46.5881 79.1104 46.1456 78.8638C40.8772 75.9743 35.6267 73.0754 30.3941 70.1669C29.155 69.4809 27.8969 68.8202 26.6862 68.0804C25.5862 67.4071 25.3301 66.5314 25.8517 65.6051C26.4365 64.5682 27.5018 64.2078 28.5639 64.7895C31.883 66.6073 35.1768 68.463 38.4896 70.2934C41.8023 72.1238 45.1277 73.9321 48.4342 75.7657C49.2308 76.2083 49.6607 76.9543 49.4362 77.8332C49.3446 78.2363 49.1314 78.6016 48.8256 78.8797C48.5198 79.1579 48.136 79.3355 47.7261 79.3886Z" fill="#2A92BC"/>
</svg>
