<svg width="66" height="75" viewBox="0 0 66 75" fill="none" xmlns="http://www.w3.org/2000/svg">
<path d="M14.9761 9.87961V13.1326H50.1134V9.87961H14.9761Z" fill="#D4D4FF"/>
<path d="M14.9761 22.8916H50.1134V19.6386H14.9761V22.8916Z" fill="#D4D4FF"/>
<path d="M14.9761 32.6507H50.1134V29.3976H14.9761V32.6507Z" fill="#D4D4FF"/>
<path d="M40.137 14.2169C41.6675 14.2169 42.9081 13.0032 42.9081 11.5061C42.9081 10.0089 41.6675 8.79523 40.137 8.79523C38.6066 8.79523 37.366 10.0089 37.366 11.5061C37.366 13.0032 38.6066 14.2169 40.137 14.2169Z" fill="#EC5858"/>
<path d="M24.9517 14.2169C26.4822 14.2169 27.7228 13.0032 27.7228 11.5061C27.7228 10.0089 26.4822 8.79523 24.9517 8.79523C23.4213 8.79523 22.1807 10.0089 22.1807 11.5061C22.1807 13.0032 23.4213 14.2169 24.9517 14.2169Z" fill="#EC5858"/>
<path d="M30.4937 14.2169C32.0242 14.2169 33.2648 13.0032 33.2648 11.5061C33.2648 10.0089 32.0242 8.79523 30.4937 8.79523C28.9633 8.79523 27.7227 10.0089 27.7227 11.5061C27.7227 13.0032 28.9633 14.2169 30.4937 14.2169Z" fill="#EC5858"/>
<path d="M40.137 23.9759C41.6675 23.9759 42.9081 22.7623 42.9081 21.2651C42.9081 19.7679 41.6675 18.5543 40.137 18.5543C38.6066 18.5543 37.366 19.7679 37.366 21.2651C37.366 22.7623 38.6066 23.9759 40.137 23.9759Z" fill="#CE2489"/>
<path d="M21.0721 23.9759C22.6025 23.9759 23.8432 22.7623 23.8432 21.2651C23.8432 19.7679 22.6025 18.5543 21.0721 18.5543C19.5417 18.5543 18.301 19.7679 18.301 21.2651C18.301 22.7623 19.5417 23.9759 21.0721 23.9759Z" fill="#CE2489"/>
<path d="M32.544 23.9759C34.0745 23.9759 35.3151 22.7623 35.3151 21.2651C35.3151 19.7679 34.0745 18.5543 32.544 18.5543C31.0136 18.5543 29.7729 19.7679 29.7729 21.2651C29.7729 22.7623 31.0136 23.9759 32.544 23.9759Z" fill="#CE2489"/>
<path d="M44.0164 33.735C45.5469 33.735 46.7875 32.5213 46.7875 31.0241C46.7875 29.527 45.5469 28.3133 44.0164 28.3133C42.486 28.3133 41.2454 29.527 41.2454 31.0241C41.2454 32.5213 42.486 33.735 44.0164 33.735Z" fill="#A685E2"/>
<path d="M24.9517 33.735C26.4822 33.735 27.7228 32.5213 27.7228 31.0241C27.7228 29.527 26.4822 28.3133 24.9517 28.3133C23.4213 28.3133 22.1807 29.527 22.1807 31.0241C22.1807 32.5213 23.4213 33.735 24.9517 33.735Z" fill="#A685E2"/>
<path d="M38.4742 33.735C40.0046 33.735 41.2453 32.5213 41.2453 31.0241C41.2453 29.527 40.0046 28.3133 38.4742 28.3133C36.9438 28.3133 35.7031 29.527 35.7031 31.0241C35.7031 32.5213 36.9438 33.735 38.4742 33.735Z" fill="#A685E2"/>
<path d="M50.1134 5C48.2768 5 46.7881 6.45637 46.7881 8.25301V43.4939H53.4387C53.4387 42.8907 53.4387 9.15301 53.4387 8.25301C53.4387 6.45637 51.9498 5 50.1134 5Z" fill="#F4C222"/>
<path d="M53.4385 36.9879H11.6506C7.97758 36.9879 5 39.9007 5 43.494C5 47.0871 7.97758 50 11.6506 50H53.4385C57.1115 50 60.0891 47.0871 60.0891 43.494C60.0891 39.9007 57.1115 36.9879 53.4385 36.9879Z" fill="#F4C222"/>
<path d="M31.2782 36.9879H11.6506C7.97758 36.9879 5 39.9007 5 43.494C5 47.0871 7.97758 50 11.6506 50H31.2782C27.6052 46.4068 27.6052 40.5811 31.2782 36.9879Z" fill="#CFA10C"/>
<path d="M14.9757 5C13.1391 5 11.6504 6.45637 11.6504 8.25301V43.4939H18.301C18.301 42.8907 18.301 9.15301 18.301 8.25301C18.301 6.45637 16.8121 5 14.9757 5Z" fill="#F4C222"/>
<path d="M11.6504 24.6806V43.4939H18.301C18.301 43.1809 18.301 29.1804 18.301 24.6806C16.4645 26.4772 13.4868 26.4772 11.6504 24.6806Z" fill="#CFA10C"/>
<path d="M23.726 46.6319C25.523 46.6319 26.9798 45.497 26.9798 44.0971C26.9798 42.6971 25.523 41.5622 23.726 41.5622C21.9289 41.5622 20.4722 42.6971 20.4722 44.0971C20.4722 45.497 21.9289 46.6319 23.726 46.6319Z" fill="#FF8E9E"/>
<path d="M41.3632 46.6319C43.1602 46.6319 44.617 45.497 44.617 44.0971C44.617 42.6971 43.1602 41.5622 41.3632 41.5622C39.5662 41.5622 38.1094 42.6971 38.1094 44.0971C38.1094 45.497 39.5662 46.6319 41.3632 46.6319Z" fill="#FF8E9E"/>
<path d="M25.6226 39.5427C25.1634 39.5427 24.7913 39.9068 24.7913 40.3559V41.6571C24.7913 42.1063 25.1634 42.4704 25.6226 42.4704C26.0818 42.4704 26.4539 42.1063 26.4539 41.6571V40.3559C26.4539 39.9068 26.0817 39.5427 25.6226 39.5427Z" fill="#313D40"/>
<path d="M39.4666 39.5427C39.0074 39.5427 38.6353 39.9068 38.6353 40.3559V41.6571C38.6353 42.1063 39.0074 42.4704 39.4666 42.4704C39.9258 42.4704 40.2979 42.1063 40.2979 41.6571V40.3559C40.2979 39.9068 39.9258 39.5427 39.4666 39.5427Z" fill="#313D40"/>
<path d="M34.9155 41.0053C34.5693 40.7102 34.0443 40.7454 33.7427 41.0841C33.4402 41.4237 33.0035 41.6184 32.5445 41.6184C32.0855 41.6184 31.6489 41.4237 31.3462 41.0841C31.0446 40.7454 30.5195 40.7102 30.1734 41.0053C29.8273 41.3003 29.7911 41.814 30.0927 42.1527C30.711 42.8469 31.6047 43.2451 32.5444 43.2451C33.484 43.2451 34.3777 42.8469 34.996 42.1527C35.2978 41.8141 35.2617 41.3004 34.9155 41.0053Z" fill="#313D40"/>
<path d="M5.54946 65.7C6.36546 65.7 7.00746 65.895 7.47546 66.285C7.94346 66.675 8.17746 67.212 8.17746 67.896C8.17746 68.58 7.94346 69.117 7.47546 69.507C7.00746 69.897 6.36546 70.092 5.54946 70.092H3.99246V72H3.09246V65.7H5.54946ZM5.52246 69.309C6.09246 69.309 6.52746 69.189 6.82746 68.949C7.12746 68.703 7.27746 68.352 7.27746 67.896C7.27746 67.44 7.12746 67.092 6.82746 66.852C6.52746 66.606 6.09246 66.483 5.52246 66.483H3.99246V69.309H5.52246ZM15.2117 72L13.8527 70.065C13.6847 70.077 13.5527 70.083 13.4567 70.083H11.8997V72H10.9997V65.7H13.4567C14.2727 65.7 14.9147 65.895 15.3827 66.285C15.8507 66.675 16.0847 67.212 16.0847 67.896C16.0847 68.382 15.9647 68.796 15.7247 69.138C15.4847 69.48 15.1427 69.729 14.6987 69.885L16.1927 72H15.2117ZM13.4297 69.318C13.9997 69.318 14.4347 69.195 14.7347 68.949C15.0347 68.703 15.1847 68.352 15.1847 67.896C15.1847 67.44 15.0347 67.092 14.7347 66.852C14.4347 66.606 13.9997 66.483 13.4297 66.483H11.8997V69.318H13.4297ZM21.8828 72.072C21.2468 72.072 20.6738 71.934 20.1638 71.658C19.6538 71.376 19.2518 70.989 18.9578 70.497C18.6698 70.005 18.5258 69.456 18.5258 68.85C18.5258 68.244 18.6698 67.695 18.9578 67.203C19.2518 66.711 19.6538 66.327 20.1638 66.051C20.6738 65.769 21.2468 65.628 21.8828 65.628C22.5128 65.628 23.0828 65.769 23.5928 66.051C24.1028 66.327 24.5018 66.711 24.7898 67.203C25.0778 67.689 25.2218 68.238 25.2218 68.85C25.2218 69.462 25.0778 70.014 24.7898 70.506C24.5018 70.992 24.1028 71.376 23.5928 71.658C23.0828 71.934 22.5128 72.072 21.8828 72.072ZM21.8828 71.271C22.3448 71.271 22.7588 71.166 23.1248 70.956C23.4968 70.746 23.7878 70.458 23.9978 70.092C24.2138 69.72 24.3218 69.306 24.3218 68.85C24.3218 68.394 24.2138 67.983 23.9978 67.617C23.7878 67.245 23.4968 66.954 23.1248 66.744C22.7588 66.534 22.3448 66.429 21.8828 66.429C21.4208 66.429 21.0008 66.534 20.6228 66.744C20.2508 66.954 19.9568 67.245 19.7408 67.617C19.5308 67.983 19.4258 68.394 19.4258 68.85C19.4258 69.306 19.5308 69.72 19.7408 70.092C19.9568 70.458 20.2508 70.746 20.6228 70.956C21.0008 71.166 21.4208 71.271 21.8828 71.271ZM32.4623 68.814H33.3263V71.271C33.0143 71.529 32.6513 71.727 32.2373 71.865C31.8233 72.003 31.3913 72.072 30.9413 72.072C30.3053 72.072 29.7323 71.934 29.2223 71.658C28.7123 71.376 28.3103 70.992 28.0163 70.506C27.7283 70.014 27.5843 69.462 27.5843 68.85C27.5843 68.238 27.7283 67.686 28.0163 67.194C28.3103 66.702 28.7123 66.318 29.2223 66.042C29.7383 65.766 30.3173 65.628 30.9593 65.628C31.4633 65.628 31.9193 65.712 32.3273 65.88C32.7413 66.042 33.0923 66.282 33.3803 66.6L32.8223 67.158C32.3183 66.672 31.7093 66.429 30.9953 66.429C30.5153 66.429 30.0833 66.534 29.6993 66.744C29.3213 66.948 29.0243 67.236 28.8083 67.608C28.5923 67.974 28.4843 68.388 28.4843 68.85C28.4843 69.306 28.5923 69.72 28.8083 70.092C29.0243 70.458 29.3213 70.746 29.6993 70.956C30.0833 71.166 30.5123 71.271 30.9863 71.271C31.5503 71.271 32.0423 71.136 32.4623 70.866V68.814ZM40.7615 72L39.4025 70.065C39.2345 70.077 39.1025 70.083 39.0065 70.083H37.4495V72H36.5495V65.7H39.0065C39.8225 65.7 40.4645 65.895 40.9325 66.285C41.4005 66.675 41.6345 67.212 41.6345 67.896C41.6345 68.382 41.5145 68.796 41.2745 69.138C41.0345 69.48 40.6925 69.729 40.2485 69.885L41.7425 72H40.7615ZM38.9795 69.318C39.5495 69.318 39.9845 69.195 40.2845 68.949C40.5845 68.703 40.7345 68.352 40.7345 67.896C40.7345 67.44 40.5845 67.092 40.2845 66.852C39.9845 66.606 39.5495 66.483 38.9795 66.483H37.4495V69.318H38.9795ZM49.1606 71.217V72H44.5886V65.7H49.0346V66.483H45.4886V68.418H48.6476V69.183H45.4886V71.217H49.1606ZM53.9539 72.072C53.4799 72.072 53.0209 72 52.5769 71.856C52.1389 71.706 51.7939 71.514 51.5419 71.28L51.8749 70.578C52.1149 70.794 52.4209 70.971 52.7929 71.109C53.1709 71.241 53.5579 71.307 53.9539 71.307C54.4759 71.307 54.8659 71.22 55.1239 71.046C55.3819 70.866 55.5109 70.629 55.5109 70.335C55.5109 70.119 55.4389 69.945 55.2949 69.813C55.1569 69.675 54.9829 69.57 54.7729 69.498C54.5689 69.426 54.2779 69.345 53.8999 69.255C53.4259 69.141 53.0419 69.027 52.7479 68.913C52.4599 68.799 52.2109 68.625 52.0009 68.391C51.7969 68.151 51.6949 67.83 51.6949 67.428C51.6949 67.092 51.7819 66.789 51.9559 66.519C52.1359 66.249 52.4059 66.033 52.7659 65.871C53.1259 65.709 53.5729 65.628 54.1069 65.628C54.4789 65.628 54.8449 65.676 55.2049 65.772C55.5649 65.868 55.8739 66.006 56.1319 66.186L55.8349 66.906C55.5709 66.738 55.2889 66.612 54.9889 66.528C54.6889 66.438 54.3949 66.393 54.1069 66.393C53.5969 66.393 53.2129 66.486 52.9549 66.672C52.7029 66.858 52.5769 67.098 52.5769 67.392C52.5769 67.608 52.6489 67.785 52.7929 67.923C52.9369 68.055 53.1139 68.16 53.3239 68.238C53.5399 68.31 53.8309 68.388 54.1969 68.472C54.6709 68.586 55.0519 68.7 55.3399 68.814C55.6279 68.928 55.8739 69.102 56.0779 69.336C56.2879 69.57 56.3929 69.885 56.3929 70.281C56.3929 70.611 56.3029 70.914 56.1229 71.19C55.9429 71.46 55.6699 71.676 55.3039 71.838C54.9379 71.994 54.4879 72.072 53.9539 72.072ZM61.0437 72.072C60.5697 72.072 60.1107 72 59.6667 71.856C59.2287 71.706 58.8837 71.514 58.6317 71.28L58.9647 70.578C59.2047 70.794 59.5107 70.971 59.8827 71.109C60.2607 71.241 60.6477 71.307 61.0437 71.307C61.5657 71.307 61.9557 71.22 62.2137 71.046C62.4717 70.866 62.6007 70.629 62.6007 70.335C62.6007 70.119 62.5287 69.945 62.3847 69.813C62.2467 69.675 62.0727 69.57 61.8627 69.498C61.6587 69.426 61.3677 69.345 60.9897 69.255C60.5157 69.141 60.1317 69.027 59.8377 68.913C59.5497 68.799 59.3007 68.625 59.0907 68.391C58.8867 68.151 58.7847 67.83 58.7847 67.428C58.7847 67.092 58.8717 66.789 59.0457 66.519C59.2257 66.249 59.4957 66.033 59.8557 65.871C60.2157 65.709 60.6627 65.628 61.1967 65.628C61.5687 65.628 61.9347 65.676 62.2947 65.772C62.6547 65.868 62.9637 66.006 63.2217 66.186L62.9247 66.906C62.6607 66.738 62.3787 66.612 62.0787 66.528C61.7787 66.438 61.4847 66.393 61.1967 66.393C60.6867 66.393 60.3027 66.486 60.0447 66.672C59.7927 66.858 59.6667 67.098 59.6667 67.392C59.6667 67.608 59.7387 67.785 59.8827 67.923C60.0267 68.055 60.2037 68.16 60.4137 68.238C60.6297 68.31 60.9207 68.388 61.2867 68.472C61.7607 68.586 62.1417 68.7 62.4297 68.814C62.7177 68.928 62.9637 69.102 63.1677 69.336C63.3777 69.57 63.4827 69.885 63.4827 70.281C63.4827 70.611 63.3927 70.914 63.2127 71.19C63.0327 71.46 62.7597 71.676 62.3937 71.838C62.0277 71.994 61.5777 72.072 61.0437 72.072Z" fill="black"/>
</svg>
