<svg width="214" height="214" viewBox="0 0 214 214" fill="none" xmlns="http://www.w3.org/2000/svg">
<circle cx="107" cy="107" r="106.5" fill="white" stroke="black"/>
<path d="M97.8543 114.48C97.8543 112.848 98.3823 111.504 99.4383 110.448C100.59 109.296 101.982 108.72 103.614 108.72C107.838 108.528 111.63 107.616 114.99 105.984C118.35 104.256 120.99 101.856 122.91 98.784C124.926 95.616 125.934 91.872 125.934 87.552C125.934 83.52 125.022 79.968 123.198 76.896C121.47 73.824 119.07 71.424 115.998 69.696C113.022 67.968 109.662 67.104 105.918 67.104C102.366 67.104 99.0543 67.872 95.9823 69.408C92.9103 70.944 90.2703 72.96 88.0623 75.456C87.0063 76.512 85.7583 77.232 84.3183 77.616C82.9743 78 81.5823 77.712 80.1423 76.752C78.5103 75.6 77.5983 74.256 77.4063 72.72C77.3103 71.088 77.8863 69.6 79.1343 68.256C82.3023 64.416 86.2383 61.392 90.9423 59.184C95.6463 56.88 100.638 55.728 105.918 55.728C111.774 55.728 117.102 57.072 121.902 59.76C126.702 62.448 130.542 66.192 133.422 70.992C136.302 75.696 137.742 81.216 137.742 87.552C137.742 91.776 136.974 95.664 135.438 99.216C133.998 102.768 131.934 105.936 129.246 108.72C126.558 111.408 123.438 113.568 119.886 115.2C116.334 116.832 112.494 117.84 108.366 118.224C108.078 118.224 108.078 118.224 108.366 118.224C108.654 118.128 108.942 117.984 109.23 117.792V129.6C109.23 131.232 108.702 132.624 107.646 133.776C106.59 134.928 105.246 135.504 103.614 135.504C101.886 135.504 100.494 134.928 99.4383 133.776C98.3823 132.624 97.8543 131.232 97.8543 129.6V114.48ZM103.326 162C101.31 162 99.7743 161.424 98.7183 160.272C97.6623 159.024 97.1343 157.392 97.1343 155.376V152.496C97.1343 150.48 97.6623 148.896 98.7183 147.744C99.7743 146.592 101.31 146.016 103.326 146.016H104.622C106.638 146.016 108.174 146.592 109.23 147.744C110.286 148.896 110.814 150.48 110.814 152.496V155.376C110.814 157.392 110.286 159.024 109.23 160.272C108.174 161.424 106.638 162 104.622 162H103.326Z" fill="black"/>
</svg>
