<svg width="33" height="54" viewBox="0 0 33 54" fill="none" xmlns="http://www.w3.org/2000/svg">
<path d="M10.5633 30.744C10.5633 29.736 10.8993 28.872 11.5713 28.152C12.2913 27.432 13.1553 27.072 14.1633 27.072C16.2273 27.024 18.0753 26.64 19.7073 25.92C21.3393 25.2 22.6353 24.12 23.5953 22.68C24.5553 21.24 25.0353 19.44 25.0353 17.28C25.0353 15.408 24.6033 13.8 23.7393 12.456C22.9233 11.064 21.7953 9.984 20.3553 9.216C18.9153 8.4 17.2833 7.992 15.4593 7.992C13.8753 7.992 12.4113 8.304 11.0673 8.928C9.7233 9.552 8.5233 10.368 7.4673 11.376C6.8433 11.952 6.0753 12.384 5.1633 12.672C4.2993 12.912 3.4113 12.696 2.4993 12.024C1.5393 11.352 1.0113 10.512 0.915301 9.504C0.819301 8.496 1.1793 7.56 1.9953 6.696C3.6273 4.872 5.6193 3.432 7.9713 2.376C10.3233 1.32 12.8193 0.791998 15.4593 0.791998C18.5793 0.791998 21.4113 1.512 23.9553 2.952C26.4993 4.392 28.5153 6.336 30.0033 8.784C31.4913 11.232 32.2353 14.064 32.2353 17.28C32.2353 19.488 31.8753 21.504 31.1553 23.328C30.4353 25.152 29.4033 26.736 28.0593 28.08C26.7153 29.424 25.1553 30.504 23.3793 31.32C21.6513 32.136 19.7553 32.664 17.6913 32.904C17.5953 32.952 17.5473 32.976 17.5473 32.976C17.5953 32.976 17.6673 32.976 17.7633 32.976V37.296C17.7633 38.304 17.4033 39.168 16.6833 39.888C16.0113 40.56 15.1713 40.896 14.1633 40.896C13.1073 40.896 12.2433 40.56 11.5713 39.888C10.8993 39.168 10.5633 38.304 10.5633 37.296V30.744ZM13.9473 54C12.7473 54 11.8113 53.664 11.1393 52.992C10.5153 52.32 10.2033 51.384 10.2033 50.184V48.888C10.2033 47.64 10.5153 46.704 11.1393 46.08C11.8113 45.408 12.7473 45.072 13.9473 45.072H14.6673C15.9153 45.072 16.8513 45.408 17.4753 46.08C18.0993 46.704 18.4113 47.64 18.4113 48.888V50.184C18.4113 51.384 18.0993 52.32 17.4753 52.992C16.8513 53.664 15.9153 54 14.6673 54H13.9473Z" fill="black"/>
</svg>
