<svg width="130" height="32" viewBox="0 0 130 32" fill="none" xmlns="http://www.w3.org/2000/svg">
<path d="M26.3472 27.3082C26.3472 27.9143 26.1276 28.4272 25.6885 28.8468C25.2494 29.2431 24.741 29.4412 24.1632 29.4412C23.516 29.4412 22.996 29.2431 22.6031 28.8468C22.2102 28.4272 22.0138 27.9143 22.0138 27.3082V7.09621C22.0138 6.49008 22.2218 5.98886 22.6378 5.59255C23.0538 5.17293 23.5854 4.96311 24.2325 4.96311C24.7872 4.96311 25.2725 5.17293 25.6885 5.59255C26.1276 5.98886 26.3472 6.49008 26.3472 7.09621V27.3082Z" fill="#21B95C"/>
<path d="M36.7956 4.96311H48.4092C49.0101 4.96311 49.507 5.16127 49.8999 5.55758C50.3159 5.93058 50.5239 6.42014 50.5239 7.02627C50.5239 7.60908 50.3159 8.08699 49.8999 8.45999C49.507 8.80968 49.0101 8.98452 48.4092 8.98452H38.7023L39.0143 8.39005V15.209L38.737 14.9292H46.8491C47.45 14.9292 47.9469 15.1274 48.3398 15.5237C48.7558 15.8967 48.9638 16.3862 48.9638 16.9924C48.9638 17.5752 48.7558 18.0531 48.3398 18.4261C47.9469 18.7758 47.45 18.9506 46.8491 18.9506H38.841L39.0143 18.6709V25.7346L38.737 25.4198H48.4092C49.0101 25.4198 49.507 25.6297 49.8999 26.0493C50.3159 26.4456 50.5239 26.9118 50.5239 27.448C50.5239 28.0308 50.3159 28.5087 49.8999 28.8817C49.507 29.2547 49.0101 29.4412 48.4092 29.4412H36.7956C36.1947 29.4412 35.6863 29.2431 35.2702 28.8468C34.8774 28.4272 34.6809 27.9143 34.6809 27.3082V7.09621C34.6809 6.49008 34.8774 5.98886 35.2702 5.59255C35.6863 5.17293 36.1947 4.96311 36.7956 4.96311Z" fill="#21B95C"/>
<path d="M76.0482 4.96311C76.6029 4.96311 77.0536 5.14961 77.4002 5.52261C77.7469 5.89561 77.9202 6.36186 77.9202 6.92136V27.3082C77.9202 27.9143 77.7122 28.4272 77.2962 28.8468C76.9033 29.2431 76.4064 29.4412 75.8055 29.4412C75.5051 29.4412 75.1931 29.3946 74.8695 29.3014C74.5691 29.1848 74.338 29.0333 74.1762 28.8468L60.5519 11.3974L61.4533 10.8379V27.483C61.4533 28.0425 61.2684 28.5087 60.8986 28.8817C60.5519 29.2547 60.0897 29.4412 59.5119 29.4412C58.9572 29.4412 58.5065 29.2547 58.1599 28.8817C57.8132 28.5087 57.6399 28.0425 57.6399 27.483V7.09621C57.6399 6.49008 57.8363 5.98886 58.2292 5.59255C58.6452 5.17293 59.1537 4.96311 59.7546 4.96311C60.0781 4.96311 60.4132 5.03305 60.7599 5.17293C61.1066 5.28949 61.3608 5.47599 61.5226 5.73243L74.7308 22.7272L74.1415 23.1469V6.92136C74.1415 6.36186 74.3148 5.89561 74.6615 5.52261C75.0082 5.14961 75.4704 4.96311 76.0482 4.96311Z" fill="#21B95C"/>
<path d="M103.24 6.15205C103.84 6.45511 104.187 6.93302 104.28 7.58577C104.395 8.23852 104.233 8.83299 103.794 9.36918C103.494 9.7888 103.101 10.0219 102.616 10.0686C102.153 10.1152 101.68 10.0219 101.194 9.7888C100.64 9.53236 100.05 9.33421 99.4262 9.19433C98.8253 9.05446 98.1897 8.98452 97.5195 8.98452C96.2714 8.98452 95.1505 9.18268 94.1567 9.57899C93.186 9.9753 92.354 10.5465 91.6607 11.2925C90.9673 12.0151 90.4358 12.8777 90.066 13.8801C89.7193 14.8826 89.546 15.9899 89.546 17.2022C89.546 18.6242 89.7424 19.8598 90.1353 20.9089C90.5513 21.9579 91.1176 22.8322 91.834 23.5315C92.5505 24.2309 93.3941 24.7554 94.3647 25.1051C95.3354 25.4315 96.387 25.5947 97.5195 25.5947C98.1435 25.5947 98.7675 25.5364 99.3915 25.4198C100.016 25.3033 100.616 25.0935 101.194 24.7904C101.68 24.5573 102.153 24.4757 102.616 24.5456C103.101 24.6156 103.505 24.8603 103.829 25.28C104.291 25.8628 104.453 26.4689 104.314 27.0983C104.199 27.7045 103.852 28.1474 103.274 28.4272C102.673 28.7302 102.049 28.9867 101.402 29.1965C100.778 29.383 100.143 29.5228 99.4955 29.6161C98.8484 29.7327 98.1897 29.7909 97.5195 29.7909C95.8554 29.7909 94.2723 29.5228 92.77 28.9867C91.2909 28.4505 89.962 27.6578 88.7833 26.6088C87.6277 25.5597 86.7148 24.2542 86.0446 22.6923C85.3743 21.107 85.0392 19.277 85.0392 17.2022C85.0392 15.4071 85.3397 13.7519 85.9406 12.2366C86.5646 10.7213 87.4313 9.4158 88.5406 8.32011C89.6731 7.20111 91.002 6.33855 92.5274 5.73243C94.0527 5.10299 95.7168 4.78827 97.5195 4.78827C98.5364 4.78827 99.5302 4.90483 100.501 5.13796C101.472 5.37108 102.384 5.70911 103.24 6.15205Z" fill="#21B95C"/>
<path d="M113.222 4.96311H124.836C125.437 4.96311 125.933 5.16127 126.326 5.55758C126.742 5.93058 126.95 6.42014 126.95 7.02627C126.95 7.60908 126.742 8.08699 126.326 8.45999C125.933 8.80968 125.437 8.98452 124.836 8.98452H115.129L115.441 8.39005V15.209L115.163 14.9292H123.276C123.877 14.9292 124.373 15.1274 124.766 15.5237C125.182 15.8967 125.39 16.3862 125.39 16.9924C125.39 17.5752 125.182 18.0531 124.766 18.4261C124.373 18.7758 123.877 18.9506 123.276 18.9506H115.267L115.441 18.6709V25.7346L115.163 25.4198H124.836C125.437 25.4198 125.933 25.6297 126.326 26.0493C126.742 26.4456 126.95 26.9118 126.95 27.448C126.95 28.0308 126.742 28.5087 126.326 28.8817C125.933 29.2547 125.437 29.4412 124.836 29.4412H113.222C112.621 29.4412 112.113 29.2431 111.697 28.8468C111.304 28.4272 111.107 27.9143 111.107 27.3082V7.09621C111.107 6.49008 111.304 5.98886 111.697 5.59255C112.113 5.17293 112.621 4.96311 113.222 4.96311Z" fill="#21B95C"/>
<path d="M26.3472 27.3082C26.3472 27.9143 26.1276 28.4272 25.6885 28.8468C25.2494 29.2431 24.741 29.4412 24.1632 29.4412C23.516 29.4412 22.996 29.2431 22.6031 28.8468C22.2102 28.4272 22.0138 27.9143 22.0138 27.3082V7.09621C22.0138 6.49008 22.2218 5.98886 22.6378 5.59255C23.0538 5.17293 23.5854 4.96311 24.2325 4.96311C24.7872 4.96311 25.2725 5.17293 25.6885 5.59255C26.1276 5.98886 26.3472 6.49008 26.3472 7.09621V27.3082Z" stroke="#21B95C" stroke-width="2"/>
<path d="M36.7956 4.96311H48.4092C49.0101 4.96311 49.507 5.16127 49.8999 5.55758C50.3159 5.93058 50.5239 6.42014 50.5239 7.02627C50.5239 7.60908 50.3159 8.08699 49.8999 8.45999C49.507 8.80968 49.0101 8.98452 48.4092 8.98452H38.7023L39.0143 8.39005V15.209L38.737 14.9292H46.8491C47.45 14.9292 47.9469 15.1274 48.3398 15.5237C48.7558 15.8967 48.9638 16.3862 48.9638 16.9924C48.9638 17.5752 48.7558 18.0531 48.3398 18.4261C47.9469 18.7758 47.45 18.9506 46.8491 18.9506H38.841L39.0143 18.6709V25.7346L38.737 25.4198H48.4092C49.0101 25.4198 49.507 25.6297 49.8999 26.0493C50.3159 26.4456 50.5239 26.9118 50.5239 27.448C50.5239 28.0308 50.3159 28.5087 49.8999 28.8817C49.507 29.2547 49.0101 29.4412 48.4092 29.4412H36.7956C36.1947 29.4412 35.6863 29.2431 35.2702 28.8468C34.8774 28.4272 34.6809 27.9143 34.6809 27.3082V7.09621C34.6809 6.49008 34.8774 5.98886 35.2702 5.59255C35.6863 5.17293 36.1947 4.96311 36.7956 4.96311Z" stroke="#21B95C" stroke-width="2"/>
<path d="M76.0482 4.96311C76.6029 4.96311 77.0536 5.14961 77.4002 5.52261C77.7469 5.89561 77.9202 6.36186 77.9202 6.92136V27.3082C77.9202 27.9143 77.7122 28.4272 77.2962 28.8468C76.9033 29.2431 76.4064 29.4412 75.8055 29.4412C75.5051 29.4412 75.1931 29.3946 74.8695 29.3014C74.5691 29.1848 74.338 29.0333 74.1762 28.8468L60.5519 11.3974L61.4533 10.8379V27.483C61.4533 28.0425 61.2684 28.5087 60.8986 28.8817C60.5519 29.2547 60.0897 29.4412 59.5119 29.4412C58.9572 29.4412 58.5065 29.2547 58.1599 28.8817C57.8132 28.5087 57.6399 28.0425 57.6399 27.483V7.09621C57.6399 6.49008 57.8363 5.98886 58.2292 5.59255C58.6452 5.17293 59.1537 4.96311 59.7546 4.96311C60.0781 4.96311 60.4132 5.03305 60.7599 5.17293C61.1066 5.28949 61.3608 5.47599 61.5226 5.73243L74.7308 22.7272L74.1415 23.1469V6.92136C74.1415 6.36186 74.3148 5.89561 74.6615 5.52261C75.0082 5.14961 75.4704 4.96311 76.0482 4.96311Z" stroke="#21B95C" stroke-width="2"/>
<path d="M103.24 6.15205C103.84 6.45511 104.187 6.93302 104.28 7.58577C104.395 8.23852 104.233 8.83299 103.794 9.36918C103.494 9.7888 103.101 10.0219 102.616 10.0686C102.153 10.1152 101.68 10.0219 101.194 9.7888C100.64 9.53236 100.05 9.33421 99.4262 9.19433C98.8253 9.05446 98.1897 8.98452 97.5195 8.98452C96.2714 8.98452 95.1505 9.18268 94.1567 9.57899C93.186 9.9753 92.354 10.5465 91.6607 11.2925C90.9673 12.0151 90.4358 12.8777 90.066 13.8801C89.7193 14.8826 89.546 15.9899 89.546 17.2022C89.546 18.6242 89.7424 19.8598 90.1353 20.9089C90.5513 21.9579 91.1176 22.8322 91.834 23.5315C92.5505 24.2309 93.3941 24.7554 94.3647 25.1051C95.3354 25.4315 96.387 25.5947 97.5195 25.5947C98.1435 25.5947 98.7675 25.5364 99.3915 25.4198C100.016 25.3033 100.616 25.0935 101.194 24.7904C101.68 24.5573 102.153 24.4757 102.616 24.5456C103.101 24.6156 103.505 24.8603 103.829 25.28C104.291 25.8628 104.453 26.4689 104.314 27.0983C104.199 27.7045 103.852 28.1474 103.274 28.4272C102.673 28.7302 102.049 28.9867 101.402 29.1965C100.778 29.383 100.143 29.5228 99.4955 29.6161C98.8484 29.7327 98.1897 29.7909 97.5195 29.7909C95.8554 29.7909 94.2723 29.5228 92.77 28.9867C91.2909 28.4505 89.962 27.6578 88.7833 26.6088C87.6277 25.5597 86.7148 24.2542 86.0446 22.6923C85.3743 21.107 85.0392 19.277 85.0392 17.2022C85.0392 15.4071 85.3397 13.7519 85.9406 12.2366C86.5646 10.7213 87.4313 9.4158 88.5406 8.32011C89.6731 7.20111 91.002 6.33855 92.5274 5.73243C94.0527 5.10299 95.7168 4.78827 97.5195 4.78827C98.5364 4.78827 99.5302 4.90483 100.501 5.13796C101.472 5.37108 102.384 5.70911 103.24 6.15205Z" stroke="#21B95C" stroke-width="2"/>
<path d="M113.222 4.96311H124.836C125.437 4.96311 125.933 5.16127 126.326 5.55758C126.742 5.93058 126.95 6.42014 126.95 7.02627C126.95 7.60908 126.742 8.08699 126.326 8.45999C125.933 8.80968 125.437 8.98452 124.836 8.98452H115.129L115.441 8.39005V15.209L115.163 14.9292H123.276C123.877 14.9292 124.373 15.1274 124.766 15.5237C125.182 15.8967 125.39 16.3862 125.39 16.9924C125.39 17.5752 125.182 18.0531 124.766 18.4261C124.373 18.7758 123.877 18.9506 123.276 18.9506H115.267L115.441 18.6709V25.7346L115.163 25.4198H124.836C125.437 25.4198 125.933 25.6297 126.326 26.0493C126.742 26.4456 126.95 26.9118 126.95 27.448C126.95 28.0308 126.742 28.5087 126.326 28.8817C125.933 29.2547 125.437 29.4412 124.836 29.4412H113.222C112.621 29.4412 112.113 29.2431 111.697 28.8468C111.304 28.4272 111.107 27.9143 111.107 27.3082V7.09621C111.107 6.49008 111.304 5.98886 111.697 5.59255C112.113 5.17293 112.621 4.96311 113.222 4.96311Z" stroke="#21B95C" stroke-width="2"/>
<path d="M17.6807 17.1311C15.9795 14.1658 12.8637 13.2158 10.5887 12.522C10.0194 12.3485 9.11551 12.0728 8.5124 11.8074C7.86396 11.5221 7.62501 10.9052 7.70993 10.3006H4.65491V16.7743L10.4374 20.6641C11.8375 21.2796 11.3356 23.4376 9.7766 23.6882L6.11197 27.1997L9.47571 31.4725C14.7006 31.4725 18.9514 27.1847 18.9514 21.9144C18.9515 20.2343 18.5121 18.5803 17.6807 17.1311Z" fill="#21B95C"/>
<path d="M9.17949 8.78355C9.9396 8.66331 10.6491 9.01176 11.0221 9.66161C12.0862 11.5163 14.4393 12.1497 16.278 11.0765C18.1168 10.0033 18.7448 7.62964 17.6807 5.77493C16.8706 4.36283 15.7256 3.20812 14.3821 2.38763H7.80066V9.93776C8.0041 9.37792 8.48795 8.89293 9.17949 8.78355Z" fill="#21B95C"/>
<path d="M7.70995 10.3006C7.72715 10.1781 7.7576 10.0563 7.8007 9.93777C8.71101 6.53747 11.1358 3.74099 14.3821 2.38763C12.9234 1.49676 11.2306 1 9.47573 1C4.25083 1 0 5.2878 0 10.5581C0 12.2376 0.439228 13.8912 1.27021 15.3402C2.97126 18.3062 6.08725 19.2563 8.36253 19.9501C8.93141 20.1236 9.83424 20.3989 10.4374 20.6641C7.91801 17.937 6.83143 14.0714 7.70995 10.3006Z" fill="#2BA45A"/>
<path d="M9.77663 23.6882C9.01501 23.8105 8.30334 23.462 7.92958 22.8109C6.86585 20.9562 4.51307 20.3224 2.67368 21.3958C0.835014 22.469 0.206869 24.8427 1.27096 26.6974C2.96064 29.6428 6.10453 31.4725 9.47575 31.4725C7.99085 29.1025 8.29173 26.0581 9.77663 23.6882Z" fill="#2BA45A"/>
</svg>
