<svg width="71" height="67" viewBox="0 0 71 67" fill="none" xmlns="http://www.w3.org/2000/svg">
<path opacity="0.22" d="M69.9903 28.355L60.6346 24.542C60.3851 24.4676 60.1165 24.4924 59.8848 24.6111C59.6531 24.7298 59.476 24.9333 59.3905 25.1792V25.1792C59.2768 25.4159 59.2597 25.6876 59.3428 25.9368C59.4258 26.186 59.6026 26.393 59.8356 26.5142L60.5638 26.8076L52.796 45.8831C52.796 45.8831 50.2169 51.6077 54.3435 53.3878H54.4548H54.566C58.7634 54.996 60.9178 49.0893 60.9178 49.0893L68.6855 30.0239L69.1912 30.2262C69.4408 30.3005 69.7093 30.2757 69.941 30.1571C70.1728 30.0384 70.3498 29.8349 70.4353 29.589V29.589C70.5198 29.364 70.5215 29.1162 70.4399 28.8901C70.3584 28.664 70.199 28.4743 69.9903 28.355V28.355Z" fill="white"/>
<path d="M59.6435 32.2492L53.5749 47.0869C53.3469 47.4784 53.2057 47.9144 53.1607 48.3652C53.1157 48.8161 53.168 49.2713 53.314 49.7002C53.4601 50.1291 53.6965 50.5217 54.0074 50.8513C54.3182 51.181 54.6961 51.4401 55.1157 51.6112C55.5353 51.7822 55.9867 51.8612 56.4394 51.8428C56.8921 51.8244 57.3356 51.709 57.7399 51.5045C58.1442 51.3 58.4999 51.011 58.7829 50.6572C59.0659 50.3034 59.2697 49.8929 59.3805 49.4536L65.4491 34.616L59.6435 32.2492Z" fill="#F4C222"/>
<path d="M55.8607 41.524L53.6052 47.0565C53.3772 47.4481 53.236 47.8841 53.1909 48.3349C53.1459 48.7858 53.1982 49.241 53.3443 49.6699C53.4904 50.0988 53.7268 50.4914 54.0376 50.821C54.3484 51.1507 54.7264 51.4098 55.146 51.5809C55.5655 51.7519 56.0169 51.8309 56.4696 51.8125C56.9224 51.7941 57.3659 51.6787 57.7702 51.4742C58.1745 51.2697 58.5301 50.9807 58.8132 50.6269C59.0962 50.2731 59.3 49.8626 59.4108 49.4233L62.1922 42.5759C60.0378 42.495 57.9543 41.8072 55.8607 41.524Z" fill="#CC5B1D"/>
<path opacity="0.56" d="M60.6039 34.9498C60.5491 35.0413 60.4692 35.1151 60.3737 35.1625C60.2782 35.2098 60.1711 35.2287 60.0651 35.217C59.9592 35.2052 59.8588 35.1632 59.776 35.096C59.6933 35.0288 59.6315 34.9393 59.5982 34.838C59.5649 34.7367 59.5613 34.628 59.588 34.5248C59.6147 34.4216 59.6705 34.3282 59.7488 34.2558C59.827 34.1834 59.9245 34.135 60.0295 34.1164C60.1344 34.0977 60.2425 34.1097 60.3409 34.1508C60.4795 34.2242 60.5843 34.3484 60.6333 34.4973C60.6823 34.6463 60.6718 34.8084 60.6039 34.9498V34.9498Z" fill="white"/>
<path opacity="0.56" d="M62.4247 39.6832C62.37 39.7747 62.2901 39.8485 62.1946 39.8959C62.099 39.9432 61.9919 39.9622 61.8859 39.9504C61.78 39.9386 61.6796 39.8966 61.5968 39.8294C61.514 39.7622 61.4523 39.6727 61.419 39.5714C61.3857 39.4701 61.3821 39.3614 61.4088 39.2582C61.4355 39.155 61.4913 39.0616 61.5696 38.9892C61.6479 38.9168 61.7453 38.8684 61.8503 38.8498C61.9552 38.8311 62.0634 38.8431 62.1617 38.8842C62.3022 38.9556 62.4087 39.0798 62.458 39.2295C62.5072 39.3792 62.4953 39.5423 62.4247 39.6832V39.6832Z" fill="white"/>
<path opacity="0.56" d="M63.0214 28.1429C62.9666 28.2344 62.8867 28.3082 62.7912 28.3556C62.6957 28.4029 62.5886 28.4218 62.4826 28.4101C62.3767 28.3983 62.2763 28.3563 62.1935 28.2891C62.1107 28.2219 62.049 28.1324 62.0157 28.0311C61.9823 27.9298 61.9788 27.8211 62.0055 27.7179C62.0322 27.6147 62.088 27.5213 62.1663 27.4489C62.2445 27.3765 62.342 27.3281 62.4469 27.3095C62.5519 27.2908 62.66 27.3028 62.7584 27.3439C62.8989 27.4153 63.0054 27.5395 63.0546 27.6892C63.1039 27.8389 63.0919 28.002 63.0214 28.1429V28.1429Z" fill="white"/>
<path opacity="0.56" d="M59.4208 40.3406C59.3668 40.4323 59.2876 40.5065 59.1927 40.5546C59.0978 40.6026 58.991 40.6224 58.8851 40.6116C58.7793 40.6008 58.6787 40.5599 58.5954 40.4937C58.5121 40.4275 58.4496 40.3388 58.4151 40.2381C58.3807 40.1374 58.3759 40.029 58.4013 39.9256C58.4266 39.8223 58.4811 39.7284 58.5582 39.6551C58.6353 39.5817 58.7319 39.5321 58.8364 39.512C58.9409 39.4918 59.0489 39.5021 59.1477 39.5416C59.2881 39.6132 59.3951 39.7367 59.446 39.8858C59.497 40.0349 59.488 40.198 59.4208 40.3406V40.3406Z" fill="white"/>
<path opacity="0.56" d="M65.2165 31.7435C65.1571 31.9083 65.0647 32.0591 64.9449 32.1868C64.825 32.3145 64.6804 32.4163 64.5198 32.4861C64.3592 32.5558 64.186 32.592 64.0109 32.5924C63.8358 32.5927 63.6625 32.5573 63.5015 32.4882C63.3406 32.4192 63.1955 32.318 63.0752 32.1908C62.9548 32.0636 62.8617 31.9131 62.8017 31.7487C62.7416 31.5842 62.7157 31.4092 62.7257 31.2344C62.7357 31.0596 62.7814 30.8886 62.8599 30.7321C62.9193 30.5674 63.0117 30.4166 63.1315 30.2889C63.2514 30.1612 63.396 30.0593 63.5566 29.9896C63.7172 29.9198 63.8904 29.8837 64.0655 29.8833C64.2406 29.8829 64.414 29.9184 64.5749 29.9874C64.7358 30.0565 64.8809 30.1577 65.0012 30.2849C65.1216 30.4121 65.2147 30.5625 65.2748 30.727C65.3349 30.8914 65.3607 31.0665 65.3507 31.2413C65.3406 31.4161 65.295 31.587 65.2165 31.7435V31.7435Z" fill="white"/>
<path opacity="0.45" d="M54.8495 52.9936H54.7686C54.7342 52.9744 54.7086 52.9425 54.6973 52.9048C54.686 52.867 54.6898 52.8263 54.7079 52.7913C54.7216 52.7563 54.7478 52.7276 54.7815 52.7108C54.8151 52.6939 54.8538 52.6902 54.89 52.7003C55.4939 52.9474 56.1604 52.9973 56.7944 52.8429C57.4283 52.6885 57.9972 52.3377 58.4199 51.8406C58.9883 51.3064 59.4725 50.6891 59.8561 50.0099L67.4721 31.2379C67.4744 31.2161 67.4817 31.1951 67.4934 31.1766C67.5051 31.1581 67.521 31.1425 67.5397 31.1312C67.5585 31.1199 67.5796 31.113 67.6015 31.1113C67.6233 31.1095 67.6453 31.1128 67.6656 31.1209C67.6859 31.129 67.7041 31.1418 67.7187 31.1581C67.7333 31.1745 67.7439 31.194 67.7496 31.2152C67.7554 31.2363 67.7562 31.2585 67.7519 31.28C67.7476 31.3015 67.7384 31.3217 67.725 31.339L60.0989 50.0605C60.0685 50.1616 57.8333 54.2073 54.8495 52.9936Z" fill="white"/>
<path opacity="0.45" d="M69.6366 29.033L64.2963 26.8584C64.2796 26.8499 64.2648 26.8381 64.2527 26.8238C64.2406 26.8095 64.2315 26.7929 64.2258 26.775C64.2202 26.7571 64.2181 26.7383 64.2198 26.7196C64.2215 26.701 64.2269 26.6828 64.2356 26.6662C64.2402 26.6472 64.2487 26.6294 64.2606 26.6138C64.2724 26.5982 64.2874 26.5853 64.3045 26.5758C64.3216 26.5663 64.3405 26.5604 64.36 26.5586C64.3795 26.5567 64.3991 26.559 64.4177 26.5651L69.758 28.7397C69.7761 28.7481 69.7921 28.7603 69.8052 28.7754C69.8182 28.7905 69.8279 28.8081 69.8336 28.8272C69.8394 28.8463 69.841 28.8664 69.8384 28.8862C69.8358 28.906 69.8291 28.925 69.8187 28.942C69.813 28.9601 69.8037 28.9768 69.7914 28.9913C69.7791 29.0057 69.764 29.0176 69.747 29.0261C69.73 29.0345 69.7115 29.0395 69.6925 29.0407C69.6736 29.0419 69.6546 29.0393 69.6366 29.033V29.033Z" fill="white"/>
<path d="M43.6668 16.7778C43.6668 17.2272 43.5335 17.6666 43.2839 18.0402C43.0342 18.4139 42.6793 18.7052 42.264 18.8772C41.8488 19.0492 41.3919 19.0942 40.9511 19.0065C40.5103 18.9188 40.1054 18.7024 39.7876 18.3846C39.4698 18.0668 39.2534 17.6619 39.1657 17.2211C39.0781 16.7803 39.1231 16.3234 39.295 15.9082C39.467 15.4929 39.7583 15.138 40.132 14.8883C40.5057 14.6387 40.945 14.5054 41.3944 14.5054C41.6933 14.5037 41.9896 14.5613 42.266 14.6749C42.5425 14.7885 42.7936 14.9559 43.005 15.1672C43.2163 15.3786 43.3836 15.6297 43.4973 15.9062C43.6109 16.1826 43.6685 16.4789 43.6668 16.7778Z" fill="#EC5858"/>
<path d="M43.3378 22.2821C44.5928 22.2821 45.6102 21.2647 45.6102 20.0097C45.6102 18.7547 44.5928 17.7373 43.3378 17.7373C42.0828 17.7373 41.0654 18.7547 41.0654 20.0097C41.0654 21.2647 42.0828 22.2821 43.3378 22.2821Z" fill="#CE2489"/>
<path d="M41.3938 20.0731C41.3839 20.5202 41.2422 20.9545 40.9865 21.3215C40.7309 21.6885 40.3726 21.9719 39.9566 22.1361C39.5406 22.3004 39.0854 22.3383 38.648 22.245C38.2105 22.1517 37.8104 21.9314 37.4976 21.6117C37.1848 21.2919 36.9734 20.887 36.8897 20.4477C36.8061 20.0083 36.8539 19.554 37.0273 19.1417C37.2007 18.7294 37.4918 18.3775 37.8644 18.1299C38.2369 17.8824 38.6742 17.7503 39.1214 17.7502C39.4246 17.7484 39.7251 17.8076 40.0049 17.9243C40.2848 18.0411 40.5383 18.2129 40.7503 18.4297C40.9623 18.6464 41.1286 18.9036 41.2391 19.186C41.3497 19.4683 41.4023 19.77 41.3938 20.0731Z" fill="#F4C222"/>
<path d="M40.7509 36.4844C36.7995 36.4844 33.6938 28.6826 33.6938 18.7345C33.6938 8.7865 36.7995 0.984619 40.7509 0.984619C44.7024 0.984619 47.808 8.77388 47.808 18.7345C47.808 28.6952 44.7024 36.4844 40.7509 36.4844ZM40.7509 1.47697C37.1403 1.47697 34.1988 9.21573 34.1988 18.7345C34.1988 28.2533 37.1403 35.9795 40.7509 35.9795C44.3615 35.9795 47.3156 28.2407 47.3156 18.7345C47.3156 9.22835 44.3741 1.46435 40.7509 1.46435V1.47697Z" fill="white"/>
<path d="M40.7504 25.7662C30.8024 25.7662 23.0005 22.6733 23.0005 18.7218C23.0005 14.7704 30.8024 11.6648 40.7504 11.6648C50.6984 11.6648 58.5003 14.7704 58.5003 18.7218C58.5003 22.6733 50.6984 25.7662 40.7504 25.7662ZM40.7504 12.1571C31.2316 12.1571 23.4928 15.0986 23.4928 18.7218C23.4928 22.345 31.2316 25.2739 40.7504 25.2739C50.2692 25.2739 58.0585 22.3324 58.0585 18.7218C58.0585 15.1113 50.2692 12.1571 40.7504 12.1571Z" fill="white"/>
<path d="M51.2151 31.0813C49.9266 31.0464 48.6503 30.821 47.4278 30.4122C43.4177 29.0315 39.6888 26.9403 36.4193 24.2388C33.0427 21.6698 30.1562 18.5139 27.8979 14.922C26.0547 11.7659 25.7012 9.20316 26.9006 7.68824C28.0999 6.17331 30.6879 5.94607 34.1722 7.01915C42.1745 9.95523 49.0212 15.3857 53.7021 22.5093C55.5453 25.6654 55.8988 28.2408 54.7121 29.7431C54.2734 30.2227 53.7289 30.5934 53.1219 30.8257C52.5148 31.0581 51.8619 31.1455 51.2151 31.0813ZM30.2839 6.8424C29.7197 6.78903 29.1508 6.86601 28.6211 7.06739C28.0914 7.26876 27.615 7.58916 27.2288 8.00385C26.1683 9.34203 26.5471 11.7028 28.2766 14.6695C30.5068 18.2075 33.3496 21.3197 36.6718 23.8601C39.9005 26.5175 43.577 28.578 47.5288 29.9451C50.8112 30.955 53.2098 30.7783 54.2702 29.4401C55.3307 28.1019 54.9646 25.7285 53.2224 22.7618C50.9917 19.2278 48.1488 16.1199 44.8272 13.5838C41.6016 10.922 37.9243 8.86093 33.9702 7.49887C32.7813 7.09637 31.5386 6.87507 30.2839 6.8424Z" fill="white"/>
<path d="M31.4706 32.8613C30.5864 32.9031 29.7181 32.6152 29.0341 32.0533C27.5949 30.7909 27.4813 28.1903 28.7311 24.7564C30.3143 20.8202 32.5888 17.1989 35.4473 14.0636C38.1908 10.8237 41.4914 8.10028 45.1933 6.02181C48.4378 4.34277 51.0132 4.11553 52.465 5.39059C55.4317 7.99122 52.6165 15.8941 46.0518 23.3804C43.3119 26.6224 40.0158 29.3499 36.3184 31.4347C34.8356 32.2814 33.1756 32.77 31.4706 32.8613V32.8613ZM50.0158 5.0876C48.4027 5.18716 46.8343 5.6581 45.4332 6.46367C41.7897 8.51588 38.5408 11.2005 35.8386 14.3918C33.0221 17.4803 30.7778 21.0455 29.2108 24.9205C28.0367 28.1524 28.0872 30.551 29.3749 31.6872C30.6626 32.8234 33.0486 32.5583 36.1037 30.9676C39.7457 28.9238 42.9911 26.2428 45.6857 23.0521C51.9979 15.9067 54.8636 8.14271 52.1494 5.7567C51.5502 5.26637 50.7889 5.01861 50.0158 5.06236V5.0876Z" fill="white"/>
<path d="M40.7503 3.20656C41.6357 3.20656 42.3536 2.48874 42.3536 1.60327C42.3536 0.717791 41.6357 -3.05176e-05 40.7503 -3.05176e-05C39.8648 -3.05176e-05 39.147 0.717791 39.147 1.60327C39.147 2.48874 39.8648 3.20656 40.7503 3.20656Z" fill="#1771B9"/>
<path d="M54.0686 31.3717C54.9541 31.3717 55.6719 30.6539 55.6719 29.7684C55.6719 28.8829 54.9541 28.1651 54.0686 28.1651C53.1831 28.1651 52.4653 28.8829 52.4653 29.7684C52.4653 30.6539 53.1831 31.3717 54.0686 31.3717Z" fill="#1771B9"/>
<path d="M29.2239 18.5704C30.1094 18.5704 30.8272 17.8526 30.8272 16.9671C30.8272 16.0816 30.1094 15.3638 29.2239 15.3638C28.3384 15.3638 27.6206 16.0816 27.6206 16.9671C27.6206 17.8526 28.3384 18.5704 29.2239 18.5704Z" fill="#1771B9"/>
<path d="M40.9943 37.3889C41.6438 37.3889 42.1703 36.8624 42.1703 36.2129C42.1703 35.5635 41.6438 35.037 40.9943 35.037C40.3449 35.037 39.8184 35.5635 39.8184 36.2129C39.8184 36.8624 40.3449 37.3889 40.9943 37.3889Z" fill="#1771B9"/>
<path d="M50.1102 52.3545L34.9201 57.9102C34.4173 58.0941 34.1588 58.6508 34.3427 59.1535L34.5007 59.5855C34.6846 60.0883 35.2413 60.3468 35.744 60.1629L50.9341 54.6071C51.4368 54.4232 51.6953 53.8666 51.5115 53.3638L51.3535 52.9318C51.1696 52.4291 50.6129 52.1706 50.1102 52.3545Z" fill="#1771B9"/>
<path d="M34.4014 57.1902V64.2576C34.4014 64.2576 48.4396 61.8213 52.6163 57.3449L48.749 52.066L34.4014 57.1902Z" fill="#1771B9"/>
<g style="mix-blend-mode:multiply" opacity="0.61">
<path d="M39.6705 58.5534C43.3348 57.2772 46.97 55.9333 50.6053 54.5604L48.7877 52.066L34.4014 57.1902V60.2453C36.1706 59.6942 37.9399 59.1625 39.6705 58.5534Z" fill="#0F0B49"/>
</g>
<path opacity="0.61" d="M36.2095 46.1008L38.1334 49.8811L39.1583 49.243L37.6404 45.3757L36.2095 46.1008Z" fill="#0F0B49"/>
<path opacity="0.61" d="M39.3125 44.6894L41.2365 48.4697L42.2613 47.8316L40.7531 43.9643L39.3125 44.6894Z" fill="#0F0B49"/>
<path opacity="0.61" d="M41.9912 43.4225L44.2826 47.0094L45.2301 46.2649L43.3544 42.562L41.9912 43.4225Z" fill="#0F0B49"/>
<path d="M35.0387 42.8714L30.8041 32.7005C30.8041 32.7005 30.3787 30.4478 33.2018 29.3166C36.0249 28.1854 36.9724 30.4478 36.9724 30.4478L41.2071 39.7679C41.2071 39.7679 40.3659 42.446 35.0387 42.8714Z" fill="#1771B9"/>
<path d="M34.5752 41.4599L33.6084 47.5316C33.6084 47.5316 41.7974 47.1062 45.2103 41.3149L40.5502 38.3467L34.5752 41.4599Z" fill="#1771B9"/>
<path d="M31.7521 33.2711C31.7521 33.2711 21.5812 36.9353 22.5673 47.1063C23.5535 57.2773 33.0187 57.2773 33.4441 57.4126L34.1499 55.5757C34.1499 55.5757 26.2413 54.0287 25.9609 46.9613C25.8408 44.5103 26.4463 42.0784 27.7017 39.97C28.9572 37.8616 30.8067 36.1703 33.0187 35.108L31.7521 33.2711Z" fill="#1771B9"/>
<path d="M52.2121 56.9175L34.3336 63.4565C33.7419 63.6729 33.4377 64.3281 33.6541 64.9198L33.8401 65.4283C34.0565 66.02 34.7116 66.3243 35.3034 66.1079L53.1818 59.5688C53.7736 59.3524 54.0778 58.6972 53.8614 58.1055L53.6754 57.597C53.459 57.0053 52.8038 56.701 52.2121 56.9175Z" fill="#1771B9"/>
<path d="M34.9543 57.666C35.1784 56.2796 34.2361 54.9742 32.8498 54.7501C31.4635 54.5261 30.158 55.4683 29.934 56.8547C29.7099 58.241 30.6522 59.5465 32.0385 59.7705C33.4248 59.9945 34.7303 59.0523 34.9543 57.666Z" fill="#F5C40D"/>
<path opacity="0.55" d="M37.824 34.3827C37.7679 34.3832 37.7132 34.3655 37.6679 34.3325C37.6226 34.2994 37.5892 34.2526 37.5726 34.199C36.8668 32.159 35.9773 30.9505 34.9718 30.7088C34.6588 30.65 34.3365 30.6638 34.0298 30.7493C33.723 30.8348 33.44 30.9896 33.2025 31.2019C33.1782 31.2273 33.1489 31.2476 33.1165 31.2614C33.0841 31.2752 33.0492 31.2824 33.014 31.2824C32.9788 31.2824 32.9439 31.2752 32.9115 31.2614C32.8791 31.2476 32.8498 31.2273 32.8255 31.2019C32.7764 31.1514 32.749 31.0837 32.749 31.0133C32.749 30.943 32.7764 30.8753 32.8255 30.8248C33.1269 30.55 33.4887 30.3499 33.8817 30.2408C34.2747 30.1316 34.6879 30.1164 35.0879 30.1964C36.2964 30.4864 37.3019 31.782 38.0657 34.0637C38.0879 34.1317 38.0832 34.2057 38.0527 34.2704C38.0221 34.3351 37.968 34.3856 37.9013 34.4117L37.824 34.3827Z" fill="#CDC3FF"/>
<path opacity="0.55" d="M43.8948 41.7307C43.8539 41.7433 43.8101 41.7433 43.7691 41.7307L40.5206 40.0387C40.4843 40.0255 40.4512 40.0045 40.4236 39.9774C40.396 39.9503 40.3746 39.9175 40.3607 39.8814C40.3469 39.8453 40.3409 39.8066 40.3433 39.768C40.3456 39.7294 40.3562 39.6917 40.3744 39.6576C40.3925 39.6234 40.4177 39.5935 40.4484 39.5699C40.4791 39.5463 40.5144 39.5296 40.5521 39.5208C40.5898 39.512 40.6289 39.5114 40.6668 39.519C40.7048 39.5267 40.7406 39.5423 40.772 39.565L44.0205 41.2569C44.0831 41.2917 44.13 41.3492 44.1516 41.4175C44.1732 41.4859 44.1678 41.5599 44.1365 41.6243C44.1081 41.6605 44.0711 41.6892 44.029 41.7077C43.9868 41.7263 43.9407 41.7342 43.8948 41.7307V41.7307Z" fill="#CDC3FF"/>
<path opacity="0.57" d="M33.1099 58.841C33.9725 58.4818 34.3806 57.4912 34.0213 56.6286C33.6621 55.766 32.6716 55.358 31.809 55.7172C30.9464 56.0764 30.5383 57.067 30.8975 57.9296C31.2568 58.7922 32.2473 59.2003 33.1099 58.841Z" fill="white"/>
<path opacity="0.55" d="M40.9755 61.5311C40.9129 61.5303 40.8525 61.5077 40.8047 61.4674C40.7568 61.427 40.7244 61.3713 40.713 61.3097C40.7016 61.2482 40.7119 61.1846 40.7421 61.1298C40.7724 61.0749 40.8207 61.0323 40.8788 61.009L51.9586 57.0451C52.0267 57.0252 52.0997 57.0309 52.1638 57.0612C52.228 57.0915 52.2788 57.1442 52.3067 57.2094C52.3288 57.2775 52.3242 57.3514 52.2936 57.4161C52.2631 57.4808 52.2089 57.5314 52.1423 57.5575L41.0625 61.5601C41.0311 61.5601 41.0006 61.55 40.9755 61.5311V61.5311Z" fill="#CDC3FF"/>
<path d="M47.3596 49.2171L38.1485 52.7124C37.8839 52.8128 37.7508 53.1087 37.8512 53.3733L37.937 53.5993C38.0374 53.8639 38.3333 53.997 38.5979 53.8965L47.8089 50.4013C48.0735 50.3009 48.2066 50.005 48.1062 49.7404L48.0204 49.5144C47.92 49.2498 47.6242 49.1167 47.3596 49.2171Z" fill="#CDC3FF"/>
<g style="mix-blend-mode:overlay" opacity="0.48">
<path d="M41.3236 51.5052L40.4051 51.8532C40.1537 52.3947 39.912 52.9458 39.6606 53.4872L40.6951 53.1005C40.8982 52.5687 41.1109 52.0369 41.3236 51.5052Z" fill="white"/>
</g>
<g style="mix-blend-mode:overlay" opacity="0.48">
<path d="M45.4235 49.9488L44.0506 50.4612C43.8379 51.0026 43.6155 51.5344 43.4028 52.0758L44.9304 51.4957C45.0851 50.9736 45.2495 50.4612 45.4235 49.9488Z" fill="white"/>
</g>
<path opacity="0.22" d="M16.7596 45.8269C14.5215 46.0562 12.2804 45.4218 10.4947 44.0533C8.70902 42.6849 7.51371 40.6858 7.15333 38.4651C6.69994 36.2276 7.08506 33.9016 8.2354 31.9297C9.4838 29.8352 11.4807 28.5519 13.4514 27.1889C14.5203 26.5235 15.4474 25.6536 16.1794 24.6292C16.9114 23.6047 17.434 22.4458 17.7172 21.219C18.2871 18.6756 18.5863 16.0791 18.6096 13.4728L15.6056 12.8535C15.5066 12.8335 15.4045 12.8338 15.3056 12.8544C15.2067 12.875 15.1129 12.9155 15.0301 12.9734C14.9473 13.0313 14.8771 13.1054 14.8238 13.1912C14.7704 13.2771 14.7351 13.3728 14.7199 13.4727V13.4727C14.697 13.572 14.6953 13.6749 14.7147 13.7749C14.7342 13.8749 14.7744 13.9697 14.8327 14.0532C14.8911 14.1366 14.9663 14.207 15.0535 14.2596C15.1407 14.3122 15.238 14.3459 15.3391 14.3585L16.4287 14.5817L13.9233 26.5466C8.75691 26.7287 4.41773 29.655 3.53198 33.9966C2.43801 39.2961 6.90978 44.6867 13.5098 46.0417C20.1099 47.3966 26.3437 44.1985 27.4257 38.9039C27.4705 38.6762 27.5033 38.4534 27.5362 38.2306C26.5413 40.3141 25.0277 42.1069 23.1406 43.4371C21.2535 44.7673 19.0562 45.5902 16.7596 45.8269V45.8269Z" fill="white"/>
<path opacity="0.47" d="M24.669 15.5406L19.1467 14.4138C19.0874 14.4023 19.0351 14.3679 19.0012 14.3179C18.9673 14.2679 18.9547 14.2065 18.9661 14.1472C18.9775 14.0879 19.012 14.0356 19.062 14.0018C19.112 13.9679 19.1734 13.9553 19.2327 13.9667L24.7515 15.102C24.7828 15.1059 24.8129 15.1162 24.84 15.1324C24.867 15.1486 24.8904 15.1702 24.9087 15.1959C24.9269 15.2216 24.9396 15.2507 24.946 15.2816C24.9524 15.3125 24.9523 15.3443 24.9458 15.3751C24.9392 15.406 24.9263 15.4351 24.9079 15.4607C24.8895 15.4862 24.866 15.5077 24.8389 15.5237C24.8117 15.5398 24.7816 15.55 24.7503 15.5537C24.719 15.5575 24.6872 15.5547 24.6571 15.5455L24.669 15.5406Z" fill="white"/>
<path opacity="0.22" d="M20.8187 27.9251L23.2854 15.9344L24.3632 16.1625C24.5551 16.1988 24.7537 16.1593 24.9172 16.0524C25.0807 15.9454 25.1964 15.7793 25.24 15.5888C25.2787 15.3966 25.2402 15.1969 25.1329 15.0328C25.0255 14.8688 24.858 14.7535 24.6663 14.712L15.5886 12.8466C15.4895 12.8266 15.3874 12.8269 15.2885 12.8475C15.1896 12.8681 15.0958 12.9086 15.013 12.9665C14.9302 13.0244 14.86 13.0985 14.8067 13.1843C14.7533 13.2701 14.718 13.3659 14.7028 13.4658C14.6799 13.5651 14.6782 13.668 14.6976 13.768C14.7171 13.868 14.7573 13.9628 14.8156 14.0462C14.874 14.1297 14.9492 14.2 15.0364 14.2526C15.1236 14.3052 15.2209 14.3389 15.322 14.3516L16.4116 14.5748L13.923 26.5466C8.75665 26.7287 4.41747 29.655 3.53172 33.9966C2.43775 39.2962 6.90952 44.6867 13.5096 46.0417C20.1096 47.3966 26.3434 44.1985 27.4255 38.9039C28.3335 34.5321 25.4959 30.1212 20.8187 27.9251Z" fill="white"/>
<g opacity="0.47">
<path opacity="0.47" d="M20.0008 28.0701C19.9421 28.0552 19.891 28.0192 19.8572 27.9689C19.8234 27.9186 19.8094 27.8576 19.8178 27.7976L21.985 17.249C21.9977 17.1903 22.0331 17.139 22.0835 17.1063C22.1339 17.0736 22.1951 17.0622 22.2539 17.0745C22.283 17.0793 22.3109 17.0899 22.3357 17.1058C22.3606 17.1217 22.382 17.1424 22.3986 17.1667C22.4152 17.1911 22.4268 17.2185 22.4325 17.2475C22.4382 17.2764 22.4381 17.3062 22.432 17.335L20.2733 27.8871C20.2584 27.9458 20.2224 27.997 20.1721 28.0307C20.1218 28.0645 20.0608 28.0785 20.0008 28.0701V28.0701Z" fill="white"/>
</g>
<g opacity="0.47">
<path opacity="0.47" d="M25.3752 42.0363L25.3247 42.0154C25.2979 42.0019 25.2741 41.9832 25.2545 41.9604C25.235 41.9376 25.2202 41.9112 25.2109 41.8826C25.2016 41.8541 25.1981 41.824 25.2005 41.7941C25.2029 41.7642 25.2112 41.7351 25.2249 41.7084C25.7789 40.7396 26.1302 39.6684 26.2577 38.5597C26.3851 37.451 26.286 36.328 25.9663 35.2588C24.7728 31.684 21.0658 29.8095 21.0321 29.7956C20.9774 29.768 20.9355 29.7201 20.9153 29.6622C20.8951 29.6043 20.8982 29.5408 20.9239 29.4851C20.9375 29.4583 20.9562 29.4345 20.9789 29.4149C21.0017 29.3954 21.0282 29.3806 21.0567 29.3713C21.0852 29.362 21.1153 29.3585 21.1452 29.3609C21.1752 29.3633 21.2043 29.3716 21.231 29.3853C21.3993 29.4548 25.1499 31.3669 26.3971 35.1215C26.737 36.2467 26.8444 37.4293 26.7128 38.5973C26.5812 39.7653 26.2134 40.8943 25.6318 41.9156C25.6089 41.9618 25.5711 41.9989 25.5245 42.0208C25.4779 42.0427 25.4253 42.0481 25.3752 42.0363V42.0363Z" fill="white"/>
</g>
<path d="M19.6721 38.0775C16.977 38.1294 14.3012 37.6124 11.8194 36.5602C9.73264 35.699 7.7094 34.5883 5.625 33.8167C5.53319 34.0796 5.45855 34.3481 5.40156 34.6206C4.52409 39.1331 8.20235 43.6546 13.6974 44.7997C19.1925 45.9448 24.402 43.2004 25.3299 38.7088C25.4073 38.3142 25.4507 37.9137 25.4596 37.5117C23.5434 37.8155 21.6108 38.0045 19.6721 38.0775V38.0775Z" fill="#FE487C"/>
<path d="M5.625 33.8167C5.625 33.8167 9.55549 31.1649 25.4596 37.5117C25.4596 37.5117 16.7078 42.9696 5.625 33.8167Z" fill="#FE9BB8"/>
<path d="M11.7684 36.0862C11.7455 36.1936 11.6912 36.2918 11.6125 36.3684C11.5338 36.445 11.4341 36.4965 11.3261 36.5164C11.2181 36.5364 11.1067 36.5238 11.0058 36.4804C10.9049 36.437 10.8192 36.3646 10.7594 36.2725C10.6996 36.1804 10.6686 36.0726 10.6701 35.9628C10.6716 35.8529 10.7056 35.746 10.7679 35.6556C10.8301 35.5651 10.9178 35.4951 11.0199 35.4545C11.1219 35.4139 11.2337 35.4044 11.3411 35.4273C11.4851 35.458 11.6111 35.5447 11.6912 35.6683C11.7713 35.7918 11.7991 35.9422 11.7684 36.0862V36.0862Z" fill="white"/>
<path d="M13.0122 30.7106C12.9672 30.9336 12.8354 31.1295 12.6459 31.2554C12.4564 31.3813 12.2246 31.4267 12.0016 31.3817C11.7786 31.3366 11.5826 31.2049 11.4568 31.0153C11.3309 30.8258 11.2855 30.5941 11.3305 30.3711C11.3883 30.1551 11.5234 29.968 11.7103 29.8454C11.8971 29.7227 12.1225 29.6731 12.3436 29.7059C12.4539 29.7271 12.5588 29.7701 12.6524 29.8323C12.7459 29.8945 12.8261 29.9747 12.8883 30.0682C12.9506 30.1617 12.9936 30.2666 13.0148 30.3769C13.0361 30.4872 13.0352 30.6006 13.0122 30.7106V30.7106Z" fill="white"/>
<path d="M19.8175 36.6506C19.7714 36.8732 19.6387 37.0683 19.4488 37.193C19.2588 37.3178 19.027 37.3619 18.8045 37.3158C18.5819 37.2696 18.3868 37.137 18.2621 36.947C18.1373 36.757 18.0932 36.5252 18.1393 36.3027C18.1622 36.1925 18.2065 36.0879 18.2698 35.9948C18.333 35.9018 18.414 35.8221 18.5081 35.7603C18.6022 35.6985 18.7075 35.6559 18.818 35.6348C18.9286 35.6138 19.0422 35.6147 19.1524 35.6376C19.2626 35.6604 19.3672 35.7047 19.4603 35.768C19.5533 35.8313 19.633 35.9123 19.6948 36.0063C19.7565 36.1004 19.7992 36.2057 19.8202 36.3163C19.8413 36.4268 19.8404 36.5404 19.8175 36.6506V36.6506Z" fill="white"/>
<path d="M17.5299 26.755C17.5087 26.8631 17.4558 26.9624 17.378 27.0403C17.3002 27.1182 17.2009 27.1713 17.0929 27.1927C16.9849 27.2141 16.8729 27.2028 16.7713 27.1604C16.6696 27.118 16.5829 27.0464 16.5221 26.9546C16.4613 26.8627 16.4291 26.7549 16.4298 26.6448C16.4304 26.5346 16.4638 26.4272 16.5256 26.3361C16.5875 26.245 16.6751 26.1743 16.7772 26.1331C16.8793 26.0918 16.9914 26.0819 17.0992 26.1045C17.2421 26.1345 17.3674 26.2196 17.448 26.3414C17.5286 26.4631 17.5581 26.6117 17.5299 26.755V26.755Z" fill="white"/>
<path d="M21.327 32.2514C21.3041 32.3588 21.2499 32.457 21.1711 32.5336C21.0924 32.6102 20.9928 32.6617 20.8848 32.6817C20.7768 32.7016 20.6653 32.6891 20.5644 32.6457C20.4635 32.6022 20.3778 32.5299 20.318 32.4377C20.2583 32.3456 20.2272 32.2378 20.2287 32.128C20.2302 32.0182 20.2643 31.9113 20.3265 31.8208C20.3888 31.7303 20.4765 31.6604 20.5785 31.6197C20.6805 31.5791 20.7923 31.5696 20.8997 31.5925C21.0426 31.6254 21.167 31.7125 21.2467 31.8355C21.3265 31.9584 21.3553 32.1076 21.327 32.2514V32.2514Z" fill="white"/>
<path d="M16.7849 32.9272C16.7781 33.0052 16.755 33.0808 16.717 33.1493C16.6789 33.2177 16.6269 33.2773 16.5642 33.3241C16.5015 33.371 16.4296 33.4041 16.3533 33.4213C16.2769 33.4384 16.1978 33.4392 16.1211 33.4236C16.0444 33.408 15.9718 33.3764 15.9082 33.3308C15.8446 33.2852 15.7913 33.2267 15.7519 33.1591C15.7125 33.0915 15.6878 33.0163 15.6795 32.9384C15.6712 32.8606 15.6794 32.7819 15.7037 32.7075C15.7459 32.5779 15.8343 32.4684 15.952 32.3997C16.0698 32.3311 16.2086 32.3082 16.3422 32.3353C16.4758 32.3624 16.5947 32.4378 16.6763 32.5469C16.7579 32.6561 16.7966 32.7914 16.7849 32.9272V32.9272Z" fill="white"/>
<path d="M7.61562 37.6318C7.60188 37.7031 7.57403 37.771 7.53373 37.8314C7.49342 37.8919 7.44146 37.9437 7.38088 37.9838C7.32031 38.0239 7.25234 38.0515 7.18096 38.065C7.10958 38.0785 7.03622 38.0777 6.96517 38.0625C6.83558 38.0203 6.72604 37.9319 6.65741 37.8141C6.58878 37.6964 6.56585 37.5575 6.59299 37.424C6.62013 37.2904 6.69544 37.1715 6.80458 37.0899C6.91373 37.0082 7.04909 36.9696 7.18487 36.9813C7.25621 36.9951 7.32409 37.0229 7.38453 37.0632C7.44497 37.1035 7.49677 37.1555 7.53688 37.2161C7.57699 37.2766 7.60462 37.3446 7.61814 37.416C7.63166 37.4874 7.63081 37.5607 7.61562 37.6318V37.6318Z" fill="white"/>
<path d="M16.6007 41.4383C16.5795 41.5464 16.5266 41.6457 16.4488 41.7236C16.371 41.8016 16.2717 41.8546 16.1637 41.876C16.0557 41.8974 15.9437 41.8862 15.8421 41.8438C15.7404 41.8014 15.6537 41.7297 15.5929 41.6379C15.5321 41.5461 15.5 41.4382 15.5006 41.3281C15.5012 41.218 15.5346 41.1105 15.5964 41.0194C15.6583 40.9283 15.7459 40.8576 15.848 40.8164C15.9501 40.7752 16.0622 40.7652 16.17 40.7879C16.3129 40.8179 16.4382 40.903 16.5188 41.0247C16.5994 41.1464 16.6289 41.295 16.6007 41.4383Z" fill="white"/>
</svg>
