<svg width="50" height="50" viewBox="0 0 50 50" fill="none" xmlns="http://www.w3.org/2000/svg">
<path d="M47.8192 20.0783H44.0808C43.5236 20.0783 43.0089 19.7811 42.7303 19.2986L38.8027 12.4959C38.5242 12.0135 38.5242 11.419 38.8027 10.9365L40.672 7.69881C41.2742 6.65574 40.9168 5.32196 39.8737 4.71981L35.1263 1.97889C34.0832 1.37664 32.7494 1.73407 32.1473 2.77713L30.278 6.01473C29.9995 6.49715 29.4847 6.79442 28.9276 6.79442H21.0726C20.5154 6.79442 20.0007 6.49725 19.7222 6.01473L17.8529 2.77713C17.2507 1.73407 15.917 1.37674 14.8739 1.97889L10.1265 4.71981C9.0834 5.32205 8.72598 6.65574 9.32822 7.69881L11.1975 10.9365C11.476 11.4189 11.476 12.0134 11.1975 12.4959L7.26992 19.2986C6.99141 19.781 6.47656 20.0783 5.91953 20.0783H2.18076C0.976367 20.0783 0 21.0548 0 22.2592V27.741C0 28.9454 0.976367 29.9218 2.18076 29.9218H5.91924C6.47637 29.9218 6.99111 30.219 7.26963 30.7014L11.1972 37.5042C11.4757 37.9866 11.4757 38.581 11.1972 39.0635L9.32793 42.3012C8.72568 43.3443 9.08311 44.6781 10.1262 45.2803L14.8736 48.0212C15.9167 48.6234 17.2505 48.266 17.8526 47.2229L19.7219 43.9853C20.0004 43.5028 20.5152 43.2056 21.0723 43.2056H28.9273C29.4845 43.2056 29.9992 43.5028 30.2777 43.9853L32.147 47.2229C32.7492 48.266 34.0829 48.6233 35.126 48.0212L39.8734 45.2803C40.9165 44.678 41.2738 43.3443 40.6717 42.3012L38.8027 39.0635C38.5242 38.581 38.5242 37.9866 38.8027 37.5041L42.7303 30.7013C43.0088 30.2189 43.5236 29.9217 44.0808 29.9217H47.8192C49.0236 29.9217 50 28.9453 50 27.7409V22.2591C50 21.0548 49.0236 20.0783 47.8192 20.0783ZM25 30.3453C22.0479 30.3453 19.6547 27.9521 19.6547 25C19.6547 22.0478 22.0479 19.6548 25 19.6548C27.9521 19.6548 30.3453 22.0479 30.3453 25.0001C30.3453 27.9522 27.9521 30.3453 25 30.3453Z" fill="#5E6366"/>
<path d="M25 14.1788C19.0237 14.1788 14.1788 19.0236 14.1788 25C14.1788 30.9763 19.0237 35.8212 25 35.8212C30.9764 35.8212 35.8212 30.9763 35.8212 25C35.8212 19.0236 30.9764 14.1788 25 14.1788ZM25 30.3453C22.0479 30.3453 19.6547 27.9521 19.6547 25C19.6547 22.0478 22.0479 19.6548 25 19.6548C27.9522 19.6548 30.3453 22.0479 30.3453 25.0001C30.3453 27.9522 27.9522 30.3453 25 30.3453Z" fill="#3F3F3F"/>
<path opacity="0.2" d="M17.8527 47.223L19.722 43.9854C20.0005 43.503 20.5153 43.2057 21.0724 43.2057H28.9274C29.4846 43.2057 29.9993 43.5029 30.2778 43.9854L32.1471 47.223C32.7493 48.266 34.083 48.6234 35.1261 48.0212L39.8735 45.2803C40.519 44.9076 40.9016 44.2546 40.9569 43.5639C32.4279 40.6241 27.0546 35.8288 24.0976 30.2681C21.5754 29.8391 19.6546 27.6446 19.6546 25.0001C19.6546 23.4655 20.3022 22.0829 21.3381 21.108C20.8277 16.2778 21.6066 11.3227 23.3003 6.79456H21.0724C20.5152 6.79456 20.0005 6.49739 19.722 6.01487L17.8527 2.77727C17.2505 1.7342 15.9168 1.37688 14.8737 1.97903L10.1263 4.71995C9.0832 5.32219 8.72578 6.65588 9.32803 7.69895L11.1973 10.9366C11.4758 11.4191 11.4758 12.0135 11.1973 12.496L7.26973 19.2988C6.99121 19.7812 6.47637 20.0784 5.91924 20.0784H2.18076C0.976367 20.0783 0 21.0548 0 22.2592V27.741C0 28.9454 0.976367 29.9218 2.18076 29.9218H5.91924C6.47637 29.9218 6.99111 30.2191 7.26973 30.7015L11.1973 37.5042C11.4758 37.9866 11.4758 38.5811 11.1973 39.0636L9.32803 42.3013C8.72578 43.3444 9.0832 44.6782 10.1263 45.2803L14.8737 48.0212C15.9168 48.6235 17.2506 48.2659 17.8527 47.223Z" fill="#3F3F3F"/>
<g opacity="0.15">
<path opacity="0.15" d="M32.9881 11.8955C32.8638 11.8955 32.7379 11.8638 32.6225 11.7972C32.2722 11.595 32.1522 11.147 32.3545 10.7967L34.0419 7.87408C34.244 7.52369 34.692 7.40377 35.0424 7.60602C35.3926 7.80826 35.5127 8.25621 35.3104 8.60651L33.623 11.5293C33.4874 11.7642 33.2412 11.8955 32.9881 11.8955Z" fill="#3F3F3F"/>
<path opacity="0.15" d="M17.0118 11.8954C16.7587 11.8954 16.5125 11.7641 16.3768 11.5291L14.6894 8.60646C14.4872 8.25617 14.6072 7.80822 14.9575 7.60598C15.3077 7.40383 15.7557 7.52365 15.958 7.87404L17.6454 10.7967C17.8476 11.147 17.7276 11.5949 17.3773 11.7972C17.2621 11.8638 17.1361 11.8954 17.0118 11.8954Z" fill="#3F3F3F"/>
<path opacity="0.15" d="M34.6768 42.492C34.4237 42.492 34.1775 42.3607 34.0419 42.1257L32.3545 39.2031C32.1522 38.8528 32.2722 38.4048 32.6225 38.2026C32.9726 38.0004 33.4208 38.1203 33.623 38.4707L35.3104 41.3933C35.5127 41.7436 35.3926 42.1915 35.0424 42.3938C34.927 42.4605 34.801 42.492 34.6768 42.492Z" fill="#3F3F3F"/>
<path opacity="0.15" d="M15.323 42.492C15.1987 42.492 15.0728 42.4604 14.9575 42.3938C14.6072 42.1915 14.4872 41.7436 14.6894 41.3933L16.3768 38.4707C16.5791 38.1203 17.027 38.0004 17.3773 38.2026C17.7276 38.4048 17.8476 38.8528 17.6454 39.2031L15.958 42.1257C15.8223 42.3607 15.5762 42.492 15.323 42.492Z" fill="#3F3F3F"/>
<path opacity="0.15" d="M9.02248 25.7324H5.64758C5.24309 25.7324 4.91516 25.4046 4.91516 25C4.91516 24.5954 5.24309 24.2675 5.64758 24.2675H9.02239C9.42688 24.2675 9.75481 24.5954 9.75481 25C9.75481 25.4046 9.42698 25.7324 9.02248 25.7324Z" fill="#3F3F3F"/>
<path opacity="0.15" d="M44.3522 25.7324H40.9774C40.5729 25.7324 40.245 25.4046 40.245 25C40.245 24.5954 40.5729 24.2675 40.9774 24.2675H44.3522C44.7567 24.2675 45.0846 24.5954 45.0846 25C45.0846 25.4046 44.7568 25.7324 44.3522 25.7324Z" fill="#3F3F3F"/>
</g>
</svg>
