<svg width="244" height="36" viewBox="0 0 244 36" fill="none" xmlns="http://www.w3.org/2000/svg">
<path d="M26.2802 32.1427C26.2802 32.7041 26.0755 33.1792 25.6663 33.5679C25.257 33.935 24.7831 34.1185 24.2445 34.1185C23.6414 34.1185 23.1567 33.935 22.7905 33.5679C22.4243 33.1792 22.2412 32.7041 22.2412 32.1427V13.4207C22.2412 12.8592 22.4351 12.395 22.8228 12.0279C23.2106 11.6392 23.706 11.4448 24.3092 11.4448C24.8261 11.4448 25.2785 11.6392 25.6663 12.0279C26.0755 12.395 26.2802 12.8592 26.2802 13.4207V32.1427Z" fill="#F4C222"/>
<path d="M44.7105 34.4424C43.0734 34.4424 41.5439 34.1401 40.1222 33.5355C38.7005 32.9308 37.4511 32.0995 36.3741 31.0414C35.297 29.9617 34.4461 28.72 33.8214 27.3164C33.2183 25.9128 32.9167 24.4012 32.9167 22.7817C32.9167 21.1621 33.2183 19.6505 33.8214 18.2469C34.4461 16.8433 35.297 15.6125 36.3741 14.5544C37.4511 13.4747 38.7005 12.6325 40.1222 12.0279C41.5439 11.4232 43.0734 11.1209 44.7105 11.1209C45.7229 11.1209 46.703 11.2289 47.6508 11.4448C48.5987 11.6608 49.4711 11.9847 50.2681 12.4166C50.5912 12.5893 50.8282 12.8268 50.979 13.1292C51.1513 13.4099 51.2374 13.7014 51.2374 14.0037C51.2374 14.522 51.0651 14.9862 50.7205 15.3965C50.3758 15.8068 49.9342 16.0119 49.3957 16.0119C49.2234 16.0119 49.0403 15.9904 48.8464 15.9472C48.6741 15.904 48.5017 15.8392 48.3294 15.7528C47.7909 15.5153 47.22 15.3317 46.6169 15.2022C46.0137 15.0726 45.3783 15.0078 44.7105 15.0078C43.3103 15.0078 42.0286 15.3641 40.8654 16.0767C39.7237 16.7677 38.8082 17.7071 38.1189 18.8947C37.4511 20.0608 37.1172 21.3565 37.1172 22.7817C37.1172 24.1853 37.4511 25.4809 38.1189 26.6686C38.8082 27.8562 39.7237 28.8064 40.8654 29.519C42.0286 30.21 43.3103 30.5555 44.7105 30.5555C45.3567 30.5555 46.0676 30.4907 46.8431 30.3612C47.6185 30.2316 48.254 30.0588 48.7494 29.8429L48.4586 30.8146V25.2758L49.0079 25.7616H45.4213C44.8613 25.7616 44.3874 25.5781 43.9996 25.211C43.6334 24.8439 43.4503 24.3796 43.4503 23.8182C43.4503 23.2567 43.6334 22.7925 43.9996 22.4254C44.3874 22.0583 44.8613 21.8747 45.4213 21.8747H50.7205C51.2805 21.8747 51.7437 22.0691 52.1099 22.4578C52.4761 22.8249 52.6592 23.2891 52.6592 23.8506V30.7175C52.6592 31.1493 52.5515 31.5056 52.336 31.7864C52.1422 32.0671 51.916 32.2938 51.6575 32.4666C50.6666 33.0712 49.5788 33.5571 48.394 33.9242C47.2308 34.2697 46.003 34.4424 44.7105 34.4424Z" fill="#F4C222"/>
<path d="M61.5219 11.4448C62.0389 11.4448 62.4913 11.6392 62.879 12.0279C63.2883 12.395 63.4929 12.8592 63.4929 13.4207V32.1427C63.4929 32.7041 63.2883 33.1792 62.879 33.5679C62.4697 33.935 61.9958 34.1185 61.4573 34.1185C60.8541 34.1185 60.3695 33.935 60.0033 33.5679C59.6371 33.1792 59.454 32.7041 59.454 32.1427V13.4207C59.454 12.8592 59.6478 12.395 60.0356 12.0279C60.4233 11.6392 60.9188 11.4448 61.5219 11.4448ZM75.836 11.4448C76.4392 11.4448 76.9238 11.6392 77.29 12.0279C77.6562 12.395 77.8393 12.8592 77.8393 13.4207V32.1427C77.8393 32.7041 77.6455 33.1792 77.2577 33.5679C76.8915 33.935 76.3961 34.1185 75.7714 34.1185C75.2544 34.1185 74.7913 33.935 74.382 33.5679C73.9942 33.1792 73.8004 32.7041 73.8004 32.1427V13.4207C73.8004 12.8592 74.005 12.395 74.4143 12.0279C74.8236 11.6392 75.2975 11.4448 75.836 11.4448ZM61.425 20.8706H75.836V24.5956H61.425V20.8706Z" fill="#F4C222"/>
<path d="M93.2439 34.1185C92.6408 34.1185 92.1453 33.935 91.7576 33.5679C91.3699 33.1792 91.176 32.7041 91.176 32.1427V13.3559H95.3765V32.1427C95.3765 32.7041 95.1719 33.1792 94.7626 33.5679C94.3749 33.935 93.8686 34.1185 93.2439 34.1185ZM86.1031 15.1698C85.543 15.1698 85.0691 14.997 84.6813 14.6515C84.3151 14.306 84.132 13.8525 84.132 13.2911C84.132 12.7297 84.3151 12.287 84.6813 11.9631C85.0691 11.6176 85.543 11.4448 86.1031 11.4448H100.449C101.01 11.4448 101.473 11.6176 101.839 11.9631C102.227 12.3086 102.42 12.7621 102.42 13.3235C102.42 13.8849 102.227 14.3384 101.839 14.6839C101.473 15.0078 101.01 15.1698 100.449 15.1698H86.1031Z" fill="#F4C222"/>
<path d="M26.2802 32.1427C26.2802 32.7041 26.0755 33.1792 25.6663 33.5679C25.257 33.935 24.7831 34.1185 24.2445 34.1185C23.6414 34.1185 23.1567 33.935 22.7905 33.5679C22.4243 33.1792 22.2412 32.7041 22.2412 32.1427V13.4207C22.2412 12.8592 22.4351 12.395 22.8228 12.0279C23.2106 11.6392 23.706 11.4448 24.3092 11.4448C24.8261 11.4448 25.2785 11.6392 25.6663 12.0279C26.0755 12.395 26.2802 12.8592 26.2802 13.4207V32.1427Z" stroke="#F4C222" stroke-width="2"/>
<path d="M44.7105 34.4424C43.0734 34.4424 41.5439 34.1401 40.1222 33.5355C38.7005 32.9308 37.4511 32.0995 36.3741 31.0414C35.297 29.9617 34.4461 28.72 33.8214 27.3164C33.2183 25.9128 32.9167 24.4012 32.9167 22.7817C32.9167 21.1621 33.2183 19.6505 33.8214 18.2469C34.4461 16.8433 35.297 15.6125 36.3741 14.5544C37.4511 13.4747 38.7005 12.6325 40.1222 12.0279C41.5439 11.4232 43.0734 11.1209 44.7105 11.1209C45.7229 11.1209 46.703 11.2289 47.6508 11.4448C48.5987 11.6608 49.4711 11.9847 50.2681 12.4166C50.5912 12.5893 50.8282 12.8268 50.979 13.1292C51.1513 13.4099 51.2374 13.7014 51.2374 14.0037C51.2374 14.522 51.0651 14.9862 50.7205 15.3965C50.3758 15.8068 49.9342 16.0119 49.3957 16.0119C49.2234 16.0119 49.0403 15.9904 48.8464 15.9472C48.6741 15.904 48.5017 15.8392 48.3294 15.7528C47.7909 15.5153 47.22 15.3317 46.6169 15.2022C46.0137 15.0726 45.3783 15.0078 44.7105 15.0078C43.3103 15.0078 42.0286 15.3641 40.8654 16.0767C39.7237 16.7677 38.8082 17.7071 38.1189 18.8947C37.4511 20.0608 37.1172 21.3565 37.1172 22.7817C37.1172 24.1853 37.4511 25.4809 38.1189 26.6686C38.8082 27.8562 39.7237 28.8064 40.8654 29.519C42.0286 30.21 43.3103 30.5555 44.7105 30.5555C45.3567 30.5555 46.0676 30.4907 46.8431 30.3612C47.6185 30.2316 48.254 30.0588 48.7494 29.8429L48.4586 30.8146V25.2758L49.0079 25.7616H45.4213C44.8613 25.7616 44.3874 25.5781 43.9996 25.211C43.6334 24.8439 43.4503 24.3796 43.4503 23.8182C43.4503 23.2567 43.6334 22.7925 43.9996 22.4254C44.3874 22.0583 44.8613 21.8747 45.4213 21.8747H50.7205C51.2805 21.8747 51.7437 22.0691 52.1099 22.4578C52.4761 22.8249 52.6592 23.2891 52.6592 23.8506V30.7175C52.6592 31.1493 52.5515 31.5056 52.336 31.7864C52.1422 32.0671 51.916 32.2938 51.6575 32.4666C50.6666 33.0712 49.5788 33.5571 48.394 33.9242C47.2308 34.2697 46.003 34.4424 44.7105 34.4424Z" stroke="#F4C222" stroke-width="2"/>
<path d="M61.5219 11.4448C62.0389 11.4448 62.4913 11.6392 62.879 12.0279C63.2883 12.395 63.4929 12.8592 63.4929 13.4207V32.1427C63.4929 32.7041 63.2883 33.1792 62.879 33.5679C62.4697 33.935 61.9958 34.1185 61.4573 34.1185C60.8541 34.1185 60.3695 33.935 60.0033 33.5679C59.6371 33.1792 59.454 32.7041 59.454 32.1427V13.4207C59.454 12.8592 59.6478 12.395 60.0356 12.0279C60.4233 11.6392 60.9188 11.4448 61.5219 11.4448ZM75.836 11.4448C76.4392 11.4448 76.9238 11.6392 77.29 12.0279C77.6562 12.395 77.8393 12.8592 77.8393 13.4207V32.1427C77.8393 32.7041 77.6455 33.1792 77.2577 33.5679C76.8915 33.935 76.3961 34.1185 75.7714 34.1185C75.2544 34.1185 74.7913 33.935 74.382 33.5679C73.9942 33.1792 73.8004 32.7041 73.8004 32.1427V13.4207C73.8004 12.8592 74.005 12.395 74.4143 12.0279C74.8236 11.6392 75.2975 11.4448 75.836 11.4448ZM61.425 20.8706H75.836V24.5956H61.425V20.8706Z" stroke="#F4C222" stroke-width="2"/>
<path d="M93.2439 34.1185C92.6408 34.1185 92.1453 33.935 91.7576 33.5679C91.3699 33.1792 91.176 32.7041 91.176 32.1427V13.3559H95.3765V32.1427C95.3765 32.7041 95.1719 33.1792 94.7626 33.5679C94.3749 33.935 93.8686 34.1185 93.2439 34.1185ZM86.1031 15.1698C85.543 15.1698 85.0691 14.997 84.6813 14.6515C84.3151 14.306 84.132 13.8525 84.132 13.2911C84.132 12.7297 84.3151 12.287 84.6813 11.9631C85.0691 11.6176 85.543 11.4448 86.1031 11.4448H100.449C101.01 11.4448 101.473 11.6176 101.839 11.9631C102.227 12.3086 102.42 12.7621 102.42 13.3235C102.42 13.8849 102.227 14.3384 101.839 14.6839C101.473 15.0078 101.01 15.1698 100.449 15.1698H86.1031Z" stroke="#F4C222" stroke-width="2"/>
<path d="M169.712 22.7817C169.712 24.4012 169.443 25.9128 168.904 27.3164C168.366 28.72 167.601 29.9617 166.61 31.0414C165.641 32.0995 164.478 32.9308 163.12 33.5355C161.785 34.1401 160.32 34.4424 158.726 34.4424C157.132 34.4424 155.667 34.1401 154.332 33.5355C152.996 32.9308 151.833 32.0995 150.842 31.0414C149.873 29.9617 149.119 28.72 148.58 27.3164C148.042 25.9128 147.772 24.4012 147.772 22.7817C147.772 21.1621 148.042 19.6505 148.58 18.2469C149.119 16.8433 149.873 15.6125 150.842 14.5544C151.833 13.4747 152.996 12.6325 154.332 12.0279C155.667 11.4232 157.132 11.1209 158.726 11.1209C160.32 11.1209 161.785 11.4232 163.12 12.0279C164.478 12.6325 165.641 13.4747 166.61 14.5544C167.601 15.6125 168.366 16.8433 168.904 18.2469C169.443 19.6505 169.712 21.1621 169.712 22.7817ZM165.511 22.7817C165.511 21.3349 165.221 20.0284 164.639 18.8624C164.057 17.6747 163.26 16.7353 162.248 16.0443C161.236 15.3533 160.062 15.0078 158.726 15.0078C157.39 15.0078 156.216 15.3533 155.204 16.0443C154.192 16.7353 153.395 17.6639 152.813 18.83C152.253 19.996 151.973 21.3133 151.973 22.7817C151.973 24.2285 152.253 25.5457 152.813 26.7334C153.395 27.8994 154.192 28.828 155.204 29.519C156.216 30.21 157.39 30.5555 158.726 30.5555C160.062 30.5555 161.236 30.21 162.248 29.519C163.26 28.828 164.057 27.8994 164.639 26.7334C165.221 25.5457 165.511 24.2285 165.511 22.7817Z" fill="#F4C222"/>
<path d="M178.656 34.1185C178.052 34.1185 177.514 33.935 177.04 33.5679C176.566 33.1792 176.329 32.7041 176.329 32.1427V13.4207C176.329 12.8592 176.512 12.395 176.878 12.0279C177.266 11.6392 177.74 11.4448 178.3 11.4448H187.606C188.726 11.4448 189.771 11.7471 190.74 12.3518C191.731 12.9348 192.528 13.7554 193.131 14.8135C193.734 15.85 194.036 17.0485 194.036 18.4089C194.036 19.2295 193.864 20.0284 193.519 20.8058C193.196 21.5832 192.743 22.285 192.162 22.9112C191.602 23.5375 190.966 24.0233 190.255 24.3688L190.288 23.6238C190.891 23.9477 191.386 24.3364 191.774 24.7899C192.183 25.2218 192.496 25.6968 192.711 26.2151C192.948 26.7118 193.088 27.2516 193.131 27.8347C193.217 28.3745 193.271 28.8496 193.293 29.2599C193.336 29.6701 193.4 30.0156 193.487 30.2964C193.594 30.5771 193.788 30.793 194.068 30.9442C194.542 31.2249 194.833 31.6352 194.941 32.175C195.07 32.6933 194.951 33.1576 194.585 33.5679C194.348 33.8486 194.047 34.0321 193.68 34.1185C193.314 34.1833 192.948 34.1833 192.582 34.1185C192.216 34.0321 191.914 33.9242 191.677 33.7946C191.311 33.5787 190.945 33.2655 190.579 32.8553C190.212 32.4234 189.911 31.8511 189.674 31.1385C189.458 30.4259 189.351 29.5082 189.351 28.3853C189.351 28.0182 189.286 27.6835 189.157 27.3812C189.028 27.0573 188.844 26.7873 188.608 26.5714C188.371 26.3339 188.069 26.1611 187.703 26.0532C187.337 25.9236 186.906 25.8588 186.41 25.8588H179.883L180.368 25.1138V32.1427C180.368 32.7041 180.217 33.1792 179.916 33.5679C179.614 33.935 179.194 34.1185 178.656 34.1185ZM179.916 22.5225H187.444C187.832 22.5225 188.209 22.3498 188.575 22.0043C188.941 21.6372 189.243 21.1513 189.48 20.5467C189.717 19.9205 189.835 19.2402 189.835 18.5061C189.835 17.5559 189.577 16.7677 189.06 16.1415C188.564 15.4937 188.026 15.1698 187.444 15.1698H179.98L180.368 14.1333V23.2999L179.916 22.5225Z" fill="#F4C222"/>
<path d="M211.113 11.4448C212.664 11.4448 214.043 11.7363 215.249 12.3194C216.456 12.9024 217.468 13.723 218.287 14.7811C219.127 15.8176 219.751 17.0269 220.161 18.4089C220.592 19.7693 220.807 21.2269 220.807 22.7817C220.807 24.8763 220.43 26.7873 219.676 28.5149C218.922 30.2208 217.823 31.5812 216.38 32.5961C214.959 33.611 213.203 34.1185 211.113 34.1185H203.391C202.831 34.1185 202.357 33.935 201.969 33.5679C201.603 33.1792 201.42 32.7041 201.42 32.1427V13.4207C201.42 12.8592 201.603 12.395 201.969 12.0279C202.357 11.6392 202.831 11.4448 203.391 11.4448H211.113ZM210.79 30.3935C212.147 30.3935 213.257 30.048 214.118 29.357C214.98 28.6444 215.605 27.7159 215.992 26.5714C216.402 25.4053 216.606 24.1421 216.606 22.7817C216.606 21.7667 216.488 20.8058 216.251 19.8989C216.036 18.9703 215.691 18.1605 215.217 17.4695C214.743 16.7569 214.14 16.1955 213.408 15.7852C212.675 15.3749 211.803 15.1698 210.79 15.1698H205.136L205.459 14.8783V30.7498L205.265 30.3935H210.79Z" fill="#F4C222"/>
<path d="M234.696 34.4424C233.188 34.4424 231.831 34.2589 230.625 33.8918C229.418 33.5031 228.266 32.8337 227.167 31.8835C226.887 31.646 226.672 31.3761 226.521 31.0738C226.37 30.7714 226.295 30.4691 226.295 30.1668C226.295 29.6701 226.467 29.2383 226.812 28.8712C227.178 28.4825 227.63 28.2881 228.169 28.2881C228.578 28.2881 228.944 28.4177 229.268 28.6768C230.086 29.3462 230.894 29.8537 231.691 30.1992C232.509 30.5447 233.511 30.7175 234.696 30.7175C235.493 30.7175 236.225 30.5987 236.893 30.3612C237.561 30.102 238.099 29.7673 238.509 29.357C238.918 28.9251 239.123 28.4393 239.123 27.8994C239.123 27.2516 238.929 26.701 238.541 26.2475C238.153 25.794 237.561 25.4161 236.764 25.1138C235.967 24.7899 234.954 24.5416 233.727 24.3688C232.563 24.1961 231.54 23.9369 230.657 23.5914C229.774 23.2243 229.031 22.7709 228.427 22.231C227.846 21.6696 227.404 21.0218 227.103 20.2876C226.801 19.5318 226.65 18.6896 226.65 17.7611C226.65 16.3575 227.006 15.159 227.717 14.1657C228.449 13.1723 229.429 12.4165 230.657 11.8983C231.885 11.38 233.242 11.1209 234.728 11.1209C236.128 11.1209 237.421 11.3369 238.606 11.7687C239.812 12.179 240.792 12.7081 241.546 13.3559C242.171 13.8525 242.483 14.4248 242.483 15.0726C242.483 15.5477 242.3 15.9796 241.934 16.3682C241.568 16.7569 241.137 16.9513 240.641 16.9513C240.318 16.9513 240.027 16.8541 239.769 16.6598C239.424 16.3575 238.961 16.0767 238.379 15.8176C237.798 15.5369 237.184 15.3101 236.538 15.1374C235.891 14.943 235.288 14.8459 234.728 14.8459C233.802 14.8459 233.016 14.9646 232.369 15.2022C231.745 15.4397 231.271 15.7636 230.948 16.1739C230.625 16.5842 230.463 17.0593 230.463 17.5991C230.463 18.2469 230.646 18.7868 231.012 19.2187C231.4 19.6289 231.949 19.9636 232.66 20.2228C233.371 20.4603 234.222 20.6762 235.213 20.8706C236.505 21.1081 237.636 21.3888 238.606 21.7128C239.597 22.0367 240.415 22.4578 241.061 22.976C241.708 23.4727 242.192 24.1097 242.515 24.8871C242.838 25.6429 243 26.5714 243 27.6727C243 29.0763 242.612 30.2856 241.837 31.3005C241.061 32.3154 240.038 33.0928 238.767 33.6326C237.518 34.1725 236.161 34.4424 234.696 34.4424Z" fill="#F4C222"/>
<path d="M169.712 22.7817C169.712 24.4012 169.443 25.9128 168.904 27.3164C168.366 28.72 167.601 29.9617 166.61 31.0414C165.641 32.0995 164.478 32.9308 163.12 33.5355C161.785 34.1401 160.32 34.4424 158.726 34.4424C157.132 34.4424 155.667 34.1401 154.332 33.5355C152.996 32.9308 151.833 32.0995 150.842 31.0414C149.873 29.9617 149.119 28.72 148.58 27.3164C148.042 25.9128 147.772 24.4012 147.772 22.7817C147.772 21.1621 148.042 19.6505 148.58 18.2469C149.119 16.8433 149.873 15.6125 150.842 14.5544C151.833 13.4747 152.996 12.6325 154.332 12.0279C155.667 11.4232 157.132 11.1209 158.726 11.1209C160.32 11.1209 161.785 11.4232 163.12 12.0279C164.478 12.6325 165.641 13.4747 166.61 14.5544C167.601 15.6125 168.366 16.8433 168.904 18.2469C169.443 19.6505 169.712 21.1621 169.712 22.7817ZM165.511 22.7817C165.511 21.3349 165.221 20.0284 164.639 18.8624C164.057 17.6747 163.26 16.7353 162.248 16.0443C161.236 15.3533 160.062 15.0078 158.726 15.0078C157.39 15.0078 156.216 15.3533 155.204 16.0443C154.192 16.7353 153.395 17.6639 152.813 18.83C152.253 19.996 151.973 21.3133 151.973 22.7817C151.973 24.2285 152.253 25.5457 152.813 26.7334C153.395 27.8994 154.192 28.828 155.204 29.519C156.216 30.21 157.39 30.5555 158.726 30.5555C160.062 30.5555 161.236 30.21 162.248 29.519C163.26 28.828 164.057 27.8994 164.639 26.7334C165.221 25.5457 165.511 24.2285 165.511 22.7817Z" stroke="#F4C222" stroke-width="2"/>
<path d="M178.656 34.1185C178.052 34.1185 177.514 33.935 177.04 33.5679C176.566 33.1792 176.329 32.7041 176.329 32.1427V13.4207C176.329 12.8592 176.512 12.395 176.878 12.0279C177.266 11.6392 177.74 11.4448 178.3 11.4448H187.606C188.726 11.4448 189.771 11.7471 190.74 12.3518C191.731 12.9348 192.528 13.7554 193.131 14.8135C193.734 15.85 194.036 17.0485 194.036 18.4089C194.036 19.2295 193.864 20.0284 193.519 20.8058C193.196 21.5832 192.743 22.285 192.162 22.9112C191.602 23.5375 190.966 24.0233 190.255 24.3688L190.288 23.6238C190.891 23.9477 191.386 24.3364 191.774 24.7899C192.183 25.2218 192.496 25.6968 192.711 26.2151C192.948 26.7118 193.088 27.2516 193.131 27.8347C193.217 28.3745 193.271 28.8496 193.293 29.2599C193.336 29.6701 193.4 30.0156 193.487 30.2964C193.594 30.5771 193.788 30.793 194.068 30.9442C194.542 31.2249 194.833 31.6352 194.941 32.175C195.07 32.6933 194.951 33.1576 194.585 33.5679C194.348 33.8486 194.047 34.0321 193.68 34.1185C193.314 34.1833 192.948 34.1833 192.582 34.1185C192.216 34.0321 191.914 33.9242 191.677 33.7946C191.311 33.5787 190.945 33.2655 190.579 32.8553C190.212 32.4234 189.911 31.8511 189.674 31.1385C189.458 30.4259 189.351 29.5082 189.351 28.3853C189.351 28.0182 189.286 27.6835 189.157 27.3812C189.028 27.0573 188.844 26.7873 188.608 26.5714C188.371 26.3339 188.069 26.1611 187.703 26.0532C187.337 25.9236 186.906 25.8588 186.41 25.8588H179.883L180.368 25.1138V32.1427C180.368 32.7041 180.217 33.1792 179.916 33.5679C179.614 33.935 179.194 34.1185 178.656 34.1185ZM179.916 22.5225H187.444C187.832 22.5225 188.209 22.3498 188.575 22.0043C188.941 21.6372 189.243 21.1513 189.48 20.5467C189.717 19.9205 189.835 19.2402 189.835 18.5061C189.835 17.5559 189.577 16.7677 189.06 16.1415C188.564 15.4937 188.026 15.1698 187.444 15.1698H179.98L180.368 14.1333V23.2999L179.916 22.5225Z" stroke="#F4C222" stroke-width="2"/>
<path d="M211.113 11.4448C212.664 11.4448 214.043 11.7363 215.249 12.3194C216.456 12.9024 217.468 13.723 218.287 14.7811C219.127 15.8176 219.751 17.0269 220.161 18.4089C220.592 19.7693 220.807 21.2269 220.807 22.7817C220.807 24.8763 220.43 26.7873 219.676 28.5149C218.922 30.2208 217.823 31.5812 216.38 32.5961C214.959 33.611 213.203 34.1185 211.113 34.1185H203.391C202.831 34.1185 202.357 33.935 201.969 33.5679C201.603 33.1792 201.42 32.7041 201.42 32.1427V13.4207C201.42 12.8592 201.603 12.395 201.969 12.0279C202.357 11.6392 202.831 11.4448 203.391 11.4448H211.113ZM210.79 30.3935C212.147 30.3935 213.257 30.048 214.118 29.357C214.98 28.6444 215.605 27.7159 215.992 26.5714C216.402 25.4053 216.606 24.1421 216.606 22.7817C216.606 21.7667 216.488 20.8058 216.251 19.8989C216.036 18.9703 215.691 18.1605 215.217 17.4695C214.743 16.7569 214.14 16.1955 213.408 15.7852C212.675 15.3749 211.803 15.1698 210.79 15.1698H205.136L205.459 14.8783V30.7498L205.265 30.3935H210.79Z" stroke="#F4C222" stroke-width="2"/>
<path d="M234.696 34.4424C233.188 34.4424 231.831 34.2589 230.625 33.8918C229.418 33.5031 228.266 32.8337 227.167 31.8835C226.887 31.646 226.672 31.3761 226.521 31.0738C226.37 30.7714 226.295 30.4691 226.295 30.1668C226.295 29.6701 226.467 29.2383 226.812 28.8712C227.178 28.4825 227.63 28.2881 228.169 28.2881C228.578 28.2881 228.944 28.4177 229.268 28.6768C230.086 29.3462 230.894 29.8537 231.691 30.1992C232.509 30.5447 233.511 30.7175 234.696 30.7175C235.493 30.7175 236.225 30.5987 236.893 30.3612C237.561 30.102 238.099 29.7673 238.509 29.357C238.918 28.9251 239.123 28.4393 239.123 27.8994C239.123 27.2516 238.929 26.701 238.541 26.2475C238.153 25.794 237.561 25.4161 236.764 25.1138C235.967 24.7899 234.954 24.5416 233.727 24.3688C232.563 24.1961 231.54 23.9369 230.657 23.5914C229.774 23.2243 229.031 22.7709 228.427 22.231C227.846 21.6696 227.404 21.0218 227.103 20.2876C226.801 19.5318 226.65 18.6896 226.65 17.7611C226.65 16.3575 227.006 15.159 227.717 14.1657C228.449 13.1723 229.429 12.4165 230.657 11.8983C231.885 11.38 233.242 11.1209 234.728 11.1209C236.128 11.1209 237.421 11.3369 238.606 11.7687C239.812 12.179 240.792 12.7081 241.546 13.3559C242.171 13.8525 242.483 14.4248 242.483 15.0726C242.483 15.5477 242.3 15.9796 241.934 16.3682C241.568 16.7569 241.137 16.9513 240.641 16.9513C240.318 16.9513 240.027 16.8541 239.769 16.6598C239.424 16.3575 238.961 16.0767 238.379 15.8176C237.798 15.5369 237.184 15.3101 236.538 15.1374C235.891 14.943 235.288 14.8459 234.728 14.8459C233.802 14.8459 233.016 14.9646 232.369 15.2022C231.745 15.4397 231.271 15.7636 230.948 16.1739C230.625 16.5842 230.463 17.0593 230.463 17.5991C230.463 18.2469 230.646 18.7868 231.012 19.2187C231.4 19.6289 231.949 19.9636 232.66 20.2228C233.371 20.4603 234.222 20.6762 235.213 20.8706C236.505 21.1081 237.636 21.3888 238.606 21.7128C239.597 22.0367 240.415 22.4578 241.061 22.976C241.708 23.4727 242.192 24.1097 242.515 24.8871C242.838 25.6429 243 26.5714 243 27.6727C243 29.0763 242.612 30.2856 241.837 31.3005C241.061 32.3154 240.038 33.0928 238.767 33.6326C237.518 34.1725 236.161 34.4424 234.696 34.4424Z" stroke="#F4C222" stroke-width="2"/>
<path d="M133.69 17.2722C133.217 16.0186 132.02 15.1892 130.682 15.1892C129.345 15.1892 128.148 16.0186 127.675 17.2722L126.434 20.5591L122.766 10.8401C121.991 8.7862 119.715 7.69237 117.656 8.44276C115.564 9.20515 114.504 11.5318 115.289 13.6123L122.706 33.2643C123.293 34.818 124.777 35.846 126.434 35.846C128.091 35.846 129.575 34.8181 130.162 33.2643L130.682 31.8854H134.931V20.5591L133.69 17.2722Z" fill="#EEB707"/>
<path d="M143.709 8.44276C141.65 7.69237 139.374 8.78625 138.599 10.8401L130.682 31.8854L131.203 33.2643C131.789 34.818 133.274 35.846 134.931 35.846C136.588 35.846 138.072 34.818 138.659 33.2643L146.076 13.6123C146.861 11.5318 145.801 9.20514 143.709 8.44276Z" fill="#F4C222"/>
<path d="M16.4793 22.7158C14.8937 19.9691 11.9896 19.0891 9.86926 18.4464C9.33864 18.2857 8.49613 18.0304 7.93401 17.7846C7.32962 17.5203 7.10692 16.9488 7.18606 16.3888H4.33862V22.3853L9.72825 25.9883C11.0332 26.5585 10.5654 28.5574 9.1123 28.7895L5.69668 32.0422L8.83186 36C13.7017 36 17.6637 32.0283 17.6637 27.1465C17.6638 25.5902 17.2542 24.0582 16.4793 22.7158Z" fill="#FFC200"/>
<path d="M8.55577 14.9836C9.26423 14.8722 9.92556 15.195 10.2732 15.7969C11.265 17.5149 13.4582 18.1016 15.172 17.1075C16.8858 16.1134 17.4712 13.9148 16.4794 12.1968C15.7243 10.8888 14.6571 9.81918 13.4049 9.05917H7.27063V16.0527C7.46025 15.5342 7.91122 15.0849 8.55577 14.9836Z" fill="#FFC200"/>
<path d="M7.18607 16.3888C7.2021 16.2754 7.23049 16.1626 7.27065 16.0527C8.11911 12.9031 10.3792 10.3128 13.4049 9.05918C12.0453 8.23397 10.4675 7.77383 8.83187 7.77383C3.96199 7.77383 0 11.7455 0 16.6274C0 18.183 0.409383 19.7148 1.1839 21.0569C2.76937 23.8043 5.67363 24.6843 7.79431 25.327C8.32453 25.4877 9.16602 25.7427 9.7282 25.9883C7.38 23.4622 6.36725 19.8817 7.18607 16.3888Z" fill="#E0AB00"/>
<path d="M9.11235 28.7895C8.40247 28.9028 7.73917 28.58 7.3908 27.9769C6.39935 26.259 4.20644 25.6719 2.49203 26.6661C0.778297 27.6602 0.192834 29.8589 1.18462 31.5769C2.75949 34.3052 5.68976 36 8.83191 36C7.44791 33.8047 7.72835 30.9848 9.11235 28.7895Z" fill="#E0AB00"/>
</svg>
