<svg width="179" height="122" viewBox="0 0 179 122" fill="none" xmlns="http://www.w3.org/2000/svg">
<path d="M66.7128 93.6534C67.7723 93.9142 68.8845 93.8644 69.9164 93.51C70.9483 93.1555 71.8564 92.5114 72.5321 91.6545C73.1085 91.0048 73.5339 90.2353 73.7778 89.4015C74.5357 86.4403 72.7029 82.5039 70.75 80.3421C73.1197 77.4355 74.845 73.0985 72.5048 69.6251C72.4462 69.4182 72.2398 69.253 72.0967 69.086C72.2177 66.9285 71.8824 64.7697 71.1127 62.7505C70.343 60.7314 69.1562 58.8972 67.6298 57.3679C67.5769 57.31 67.5116 57.2648 67.4388 57.2356C67.366 57.2064 67.2875 57.194 67.2093 57.1992C67.131 57.2045 67.055 57.2274 66.9868 57.2661C66.9186 57.3048 66.86 57.3584 66.8153 57.4228C64.9253 59.9446 63.9534 63.0368 64.0607 66.1871C61.9226 66.167 59.8385 66.8582 58.136 68.152C56.4358 66.0364 54.4087 64.2059 52.1313 62.7299C52.0676 62.6846 51.9946 62.6542 51.9177 62.6409C51.8407 62.6276 51.7617 62.6317 51.6865 62.653C51.6114 62.6743 51.542 62.7121 51.4834 62.7638C51.4248 62.8155 51.3786 62.8797 51.3481 62.9516C50.5542 64.8237 50.2924 66.8788 50.5916 68.8904C50.8907 70.9021 51.7391 72.7922 53.0434 74.3525C53.3931 74.7752 53.7768 75.1686 54.1905 75.5288C54.158 76.2148 54.2131 76.9022 54.3546 77.5743C55.0683 80.9972 58.052 82.6276 61.2068 83.2834C60.3779 86.8396 63.1455 92.5554 66.7128 93.6534Z" fill="#1E1E1E"/>
<path d="M67.8445 69.0123C67.1492 68.9952 66.4713 69.231 65.9368 69.676C65.4022 70.121 65.0473 70.745 64.9379 71.4321C64.6933 72.4152 64.8225 73.4542 65.3004 74.3476C65.4422 74.8073 65.69 75.2274 66.0238 75.5739C66.3575 75.9204 66.768 76.1837 67.222 76.3426C67.711 76.454 68.2176 76.4636 68.7103 76.3708C69.2031 76.278 69.6714 76.0847 70.0863 75.8031C70.5471 75.4104 70.8886 74.8965 71.0723 74.3195C71.256 73.7426 71.2744 73.1256 71.1256 72.5387C71.0952 71.6541 70.7466 70.8102 70.1437 70.1622C69.5408 69.5143 68.7243 69.1059 67.8445 69.0123Z" fill="white"/>
<path d="M60.2163 72.2895C59.805 72.1285 59.3569 72.0859 58.9226 72.1665C58.4884 72.2471 58.0855 72.4477 57.7594 72.7455C57.021 73.1497 56.4592 73.8139 56.1829 74.6091C55.9066 75.4044 55.9355 76.2741 56.2641 77.0493C57.0888 79.0036 60.442 80.5294 61.8208 78.2388C62.2618 77.2139 62.3162 76.0637 61.9738 75.0016C61.9421 74.4357 61.7632 73.8879 61.455 73.4122C61.1467 72.9366 60.7198 72.5496 60.2163 72.2895Z" fill="white"/>
<path d="M68.0066 77.9248C68.0711 78.3147 68.0478 78.7141 67.9385 79.0939C67.8697 79.3878 67.7267 79.6592 67.5232 79.8821L67.2884 80.1243C66.8438 80.4911 66.3279 80.7617 65.7734 80.9187C65.2188 81.0757 64.6376 81.1158 64.0667 81.0364L63.8601 80.9831C63.6088 80.9321 63.3723 80.8251 63.1681 80.67C62.9639 80.5149 62.7973 80.3158 62.6806 80.0874C62.6053 79.8213 62.5216 79.5256 62.3428 79.2888L62.9635 79.1131L63.9093 78.8453C64.6778 78.6277 65.5645 78.3767 66.2889 78.0598L67.3825 77.7502C67.5586 77.7155 67.7316 77.6665 67.8997 77.6037C67.9229 77.6291 67.9689 77.7917 68.0066 77.9248Z" fill="#E7001F"/>
<path d="M67.5217 79.8824C67.5887 80.1189 67.5522 80.3847 67.5748 80.6338C67.5395 80.5874 67.523 80.5293 67.5288 80.4712C67.4911 80.3381 67.4535 80.2051 67.42 80.0868C67.0925 79.3811 66.7502 78.6796 66.4121 77.9928L67.5057 77.6832L67.5217 79.8824Z" fill="white"/>
<path d="M63.8863 78.8201C63.9542 79.5674 64.0032 80.3041 64.0521 81.0408C64.0856 81.159 64.1191 81.2773 64.1525 81.3956C64.0986 81.3548 64.0559 81.3009 64.0284 81.2391L63.9489 80.9582C63.6465 80.3412 63.3547 79.7052 63.0523 79.0882L63.8863 78.8201Z" fill="white"/>
<path d="M61.4731 83.7188C59.5292 83.3741 57.7008 82.5531 56.1513 81.3291C52.8085 79.1814 50.174 76.094 48.5785 72.4545C47.4043 68.5807 46.4595 64.6411 45.749 60.6561C41.2258 60.8327 36.7004 60.3608 32.3105 59.2549C34.3306 61.2568 36.0521 63.5391 37.4218 66.0318C38.4504 68.0134 38.9201 70.2377 38.7805 72.4659C38.6505 73.9239 38.0951 74.161 39.5115 74.766C40.3792 75.1185 41.2124 75.5508 42.0002 76.0575C43.6405 77.1205 45.066 78.483 46.2022 80.0738C46.526 80.541 49.0654 84.5488 48.4674 84.9736C50.1349 83.7031 52.4991 84.1037 54.5318 84.63C57.1358 85.314 59.7355 86.0951 62.2567 86.9941L61.4731 83.7188Z" fill="#1E1E1E"/>
<path d="M70.2 80.881C71.8379 79.7869 73.184 78.3095 74.1215 76.5769C76.2966 73.2599 77.456 69.3796 77.4576 65.4123C76.9559 61.3916 76.2212 57.4034 75.2572 53.4678C79.4682 51.8109 83.4147 49.5477 86.9716 46.7498C85.9321 49.4012 85.2804 52.1889 85.0368 55.0266C84.8972 57.2548 85.3669 59.4791 86.3955 61.4606C87.1057 62.7287 87.7007 62.688 86.6558 63.8461C86.0142 64.5299 85.4263 65.2623 84.8975 66.0367C83.8294 67.6836 83.0868 69.52 82.7098 71.4467C82.5967 72.0057 81.9445 76.6936 82.6425 76.8473C80.6034 76.3547 78.6171 77.6835 76.9769 78.9943C74.8632 80.6626 72.8274 82.4366 70.8568 84.272L70.2 80.881Z" fill="#1E1E1E"/>
<path d="M69.2594 71.3583C69.0417 71.1106 68.7644 70.9226 68.4538 70.8121C68.1431 70.7016 67.8094 70.6723 67.4844 70.7271C65.8439 71.1915 66.1343 73.3449 66.5325 74.5257C66.725 75.2057 67.8248 74.9742 67.6027 74.3025C67.4093 73.8234 67.2978 73.3151 67.2728 72.799C67.1849 72.4886 67.2919 71.8515 67.6867 71.7237C68.7212 71.4308 69.0107 73.0735 69.1084 73.7006C69.1644 73.8187 69.2605 73.9132 69.3795 73.9673C69.4986 74.0214 69.6329 74.0315 69.7587 73.9959C69.8845 73.9603 69.9935 73.8812 70.0666 73.7728C70.1396 73.6643 70.1719 73.5335 70.1577 73.4035C70.0508 72.6525 69.7401 71.9451 69.2594 71.3583Z" fill="black"/>
<path d="M58.3008 73.8699C56.7527 74.5477 56.8911 76.7281 57.8316 77.8512C58.2629 78.4157 59.0747 77.6749 58.6329 77.1293C58.1911 76.5837 57.9371 75.1226 58.8302 74.8378C59.7233 74.553 60.0758 76.3056 60.1928 76.8314C60.3097 77.3572 61.4218 77.2819 61.263 76.6082C60.9304 75.377 60.0304 73.1566 58.3008 73.8699Z" fill="black"/>
<path d="M177.339 99.0467C176.645 100.144 175.641 101.01 174.454 101.534C173.267 102.059 171.951 102.219 170.673 101.993C169.395 101.767 168.213 101.167 167.277 100.268C166.341 99.3683 165.693 98.211 165.416 96.9426C165.139 95.6743 165.246 94.3523 165.722 93.1446C166.198 91.9369 167.022 90.8981 168.09 90.1602C169.158 89.4223 170.421 89.0187 171.718 89.0006C173.016 88.9826 174.29 89.3509 175.377 90.0587C176.82 90.9976 177.835 92.4675 178.203 94.1499C178.57 95.8323 178.26 97.5916 177.339 99.0467Z" fill="#404040"/>
<path opacity="0.2" d="M177.28 99.1366L166.289 91.9762C165.85 92.6818 165.55 93.4648 165.405 94.2831L175.558 100.964C176.246 100.474 176.831 99.8527 177.28 99.1366Z" fill="black"/>
<path d="M165.718 91.7382L165.516 92.0533C165.248 92.4711 165.369 93.0271 165.786 93.2953L176.346 100.077C176.764 100.345 177.32 100.224 177.588 99.8062L177.79 99.4911C178.058 99.0734 177.937 98.5173 177.519 98.2492L166.959 91.4674C166.542 91.1993 165.986 91.3205 165.718 91.7382Z" fill="#585859"/>
<path d="M159.236 114.446C158.217 116.139 157.169 117.817 156.031 119.42C155.822 119.783 155.494 120.063 155.103 120.214C154.712 120.364 154.28 120.375 153.882 120.245C153.484 120.115 153.142 119.852 152.914 119.5C152.687 119.148 152.587 118.728 152.632 118.311C152.76 117.293 152.985 116.29 153.306 115.315C154.114 111.45 153.306 107.346 148.724 107.031C148.62 107.036 148.522 107.078 148.446 107.15C148.371 107.221 148.324 107.317 148.313 107.42C148.302 107.523 148.328 107.626 148.387 107.712C148.446 107.797 148.534 107.859 148.634 107.885C151.733 108.095 152.886 110.207 152.752 113.098C152.673 114.245 152.472 115.38 152.153 116.484C151.757 117.433 151.684 118.485 151.943 119.48C152.097 119.886 152.347 120.249 152.673 120.536C152.998 120.824 153.389 121.027 153.811 121.129C154.233 121.231 154.674 121.228 155.095 121.121C155.516 121.014 155.904 120.805 156.226 120.513C157.14 119.508 157.915 118.384 158.532 117.173C159.011 116.439 159.475 115.675 159.924 114.926C160.209 114.446 159.52 113.937 159.236 114.417V114.446Z" fill="#404040"/>
<path d="M161.362 117.038C161.287 117.14 161.176 117.211 161.052 117.236C160.927 117.261 160.797 117.238 160.688 117.173L156.81 114.671C156.703 114.6 156.625 114.492 156.592 114.368C156.559 114.244 156.572 114.112 156.63 113.997L165.076 98.7472C165.196 98.5225 165.405 98.5974 165.615 98.7472L171.5 102.462C171.725 102.597 171.904 102.762 171.74 102.972L161.362 117.038Z" fill="#EC5858"/>
<path d="M165.001 107.376L163.938 106.686C163.754 106.561 163.625 106.37 163.578 106.153C163.53 105.936 163.568 105.708 163.683 105.518L164.911 103.616C165.036 103.431 165.228 103.303 165.446 103.258C165.665 103.213 165.892 103.255 166.079 103.376L167.142 104.065C167.235 104.124 167.314 104.201 167.377 104.292C167.439 104.382 167.482 104.484 167.505 104.591C167.527 104.699 167.528 104.81 167.506 104.917C167.485 105.025 167.443 105.127 167.382 105.218L166.154 107.121C166.034 107.307 165.846 107.438 165.63 107.486C165.414 107.533 165.188 107.494 165.001 107.376ZM165.884 103.676C165.775 103.608 165.643 103.585 165.517 103.613C165.391 103.641 165.281 103.717 165.211 103.825L163.998 105.713C163.961 105.766 163.936 105.825 163.923 105.888C163.91 105.951 163.91 106.015 163.923 106.078C163.935 106.141 163.96 106.201 163.996 106.254C164.032 106.307 164.079 106.352 164.132 106.387L165.196 107.076C165.303 107.143 165.432 107.165 165.556 107.137C165.679 107.109 165.787 107.033 165.854 106.926L167.082 105.024C167.118 104.972 167.143 104.914 167.156 104.852C167.169 104.79 167.169 104.727 167.156 104.665C167.144 104.604 167.119 104.545 167.083 104.493C167.047 104.442 167.001 104.398 166.948 104.365L165.884 103.676Z" fill="#404040"/>
<path d="M164.995 103.713L163.771 105.614C163.574 105.92 163.662 106.328 163.968 106.525L165.026 107.207C165.332 107.404 165.739 107.315 165.936 107.009L167.16 105.107C167.357 104.801 167.269 104.394 166.963 104.197L165.906 103.515C165.6 103.318 165.192 103.406 164.995 103.713Z" fill="#404040"/>
<path d="M165.224 97.3573L164.69 98.1893C164.619 98.3007 164.651 98.449 164.762 98.5205L172.02 103.182C172.132 103.253 172.28 103.221 172.351 103.11L172.885 102.278C172.957 102.166 172.925 102.018 172.813 101.947L165.555 97.2851C165.444 97.2136 165.295 97.2459 165.224 97.3573Z" fill="#585859"/>
<path opacity="0.1" d="M171.724 102.178L165 97.8184L164.746 98.2228C164.723 98.2438 164.705 98.2693 164.693 98.2977C164.68 98.3261 164.674 98.3567 164.674 98.3876C164.674 98.4185 164.68 98.4491 164.693 98.4775C164.705 98.5058 164.723 98.5313 164.746 98.5524L171.993 103.211C172.014 103.234 172.04 103.252 172.068 103.264C172.097 103.277 172.127 103.283 172.158 103.283C172.189 103.283 172.22 103.277 172.248 103.264C172.276 103.252 172.302 103.234 172.323 103.211L172.503 102.942L171.933 102.447L171.724 102.178Z" fill="black"/>
<path d="M51.8521 14.0847C57.2962 17.3513 61.3081 22.5511 63.0863 28.6454L63.4537 30.055L66.1185 40.7798L62.7276 41.6179L60.1673 31.4864C59.9365 30.5326 59.7057 29.5788 59.4221 28.6143C57.6446 23.4091 53.9574 19.0722 49.1058 16.4801C44.2543 13.8881 38.6003 13.2344 33.2867 14.6511C27.9731 16.0678 23.3963 19.4493 20.4815 24.112C17.5667 28.7747 16.5313 34.3708 17.5846 39.7691C17.6998 40.3307 17.8361 40.8923 17.9936 41.4753L20.4695 51.5006L17.0786 52.3386L14.5607 42.1649C14.4453 41.688 14.3193 41.2217 14.2145 40.7342C13.2138 35.9358 13.6336 30.9501 15.4226 26.3876C17.2116 21.825 20.2921 17.8835 24.2872 15.0455C28.2822 12.2075 33.0185 10.5961 37.9162 10.4085C42.8139 10.2209 47.6605 11.4654 51.8629 13.9895L51.8521 14.0847Z" fill="#7F60C6"/>
<path fill-rule="evenodd" clip-rule="evenodd" d="M54.9029 32.0545C56.3184 31.7085 57.7928 31.678 59.2217 31.9649C60.6505 32.2519 61.999 32.8493 63.1716 33.715C64.3443 34.5807 65.3124 35.6934 66.0076 36.9745C66.7028 38.2556 67.1079 39.6736 67.1944 41.1284C67.281 42.5832 67.0467 44.0391 66.5082 45.393C65.9698 46.747 65.1403 47.966 64.0785 48.9637C63.0166 49.9615 61.7484 50.7136 60.3636 51.1668C58.9787 51.62 57.5111 51.7633 56.0645 51.5866L51.5738 33.6128C52.5844 32.8952 53.7208 32.3738 54.924 32.0757L54.9029 32.0545Z" fill="#A685E2"/>
<path fill-rule="evenodd" clip-rule="evenodd" d="M57.6781 31.7654C58.3 31.7963 58.9172 31.8902 59.5202 32.0457L63.8221 49.214C63.3632 49.614 62.8657 49.9674 62.3369 50.269L57.7099 31.7337L57.6781 31.7654Z" fill="#7F60C6"/>
<path fill-rule="evenodd" clip-rule="evenodd" d="M52.2971 32.0896L56.3239 31.0627C56.8633 30.9336 57.4318 31.022 57.9067 31.3086C58.3816 31.5953 58.7248 32.0572 58.8621 32.5946L62.9221 48.9892C63.0527 49.5258 62.9662 50.0922 62.6815 50.5654C62.3969 51.0385 61.937 51.3802 61.4018 51.5162L57.3539 52.5219C57.088 52.5884 56.8117 52.6019 56.5406 52.5614C56.2696 52.5209 56.0092 52.4273 55.7744 52.286C55.5395 52.1446 55.3349 51.9583 55.1722 51.7377C55.0095 51.5172 54.8919 51.2667 54.8263 51.0006L50.7133 34.5741C50.58 34.0345 50.6663 33.464 50.9534 32.9882C51.2405 32.5124 51.7048 32.1701 52.2443 32.0365L52.2971 32.0896Z" fill="#BFB8D3"/>
<g style="mix-blend-mode:multiply" opacity="0.45">
<path fill-rule="evenodd" clip-rule="evenodd" d="M55.6353 31.2412L53.5372 31.765L58.6467 52.2504L60.7449 51.7265L55.6353 31.2412Z" fill="#334D5C"/>
</g>
<path fill-rule="evenodd" clip-rule="evenodd" d="M51.56 30.2025L50.8182 30.3911C50.095 30.5748 49.4736 31.0367 49.0894 31.6762C48.7051 32.3158 48.589 33.0814 48.7663 33.8063L52.7532 49.7877L53.3723 52.2569C53.5551 52.9781 54.0159 53.5977 54.6539 53.9805C55.292 54.3632 56.0555 54.4779 56.7776 54.2995L57.5194 54.1109C57.8786 54.0217 58.2166 53.8626 58.5142 53.6427C58.8117 53.4227 59.063 53.1462 59.2536 52.829C59.4441 52.5118 59.5703 52.1602 59.6248 51.7941C59.6794 51.4281 59.6612 51.0548 59.5714 50.6958L58.8054 47.633L54.9759 32.2558C54.792 31.5325 54.3299 30.9109 53.6902 30.5264C53.0505 30.1419 52.2849 30.0255 51.56 30.2025Z" fill="#404040"/>
<path fill-rule="evenodd" clip-rule="evenodd" d="M23.038 40.0697C20.505 40.7313 18.3355 42.3651 17.0002 44.6166C15.6649 46.8682 15.2715 49.5559 15.9055 52.0964C16.5394 54.6368 18.1496 56.8252 20.3865 58.1866C22.6234 59.548 25.3066 59.9725 27.8538 59.3681C29.052 59.0597 30.1837 58.5352 31.1934 57.8204L26.7028 39.8467C25.4779 39.6897 24.2346 39.7654 23.038 40.0697Z" fill="#A685E2"/>
<path fill-rule="evenodd" clip-rule="evenodd" d="M20.4408 41.0474C19.916 41.3553 19.4191 41.7083 18.9557 42.1025L23.2361 59.3766C23.8402 59.5268 24.4569 59.6206 25.0782 59.657L20.3984 41.0685L20.4408 41.0474Z" fill="#7F60C6"/>
<path fill-rule="evenodd" clip-rule="evenodd" d="M25.3608 38.7946L21.3129 39.8003C20.7777 39.9363 20.3178 40.2779 20.0331 40.7511C19.7485 41.2242 19.662 41.7906 19.7925 42.3273L23.8949 58.7644C24.0311 59.2996 24.3729 59.7596 24.8461 60.0444C25.3194 60.3293 25.8858 60.416 26.4225 60.2857L30.4704 59.2799C31.0056 59.144 31.4655 58.8023 31.7501 58.3292C32.0348 57.856 32.1213 57.2896 31.9908 56.7529L27.8884 40.3159C27.8227 40.0498 27.7051 39.7993 27.5424 39.5787C27.3798 39.3582 27.1751 39.1719 26.9403 39.0305C26.7055 38.8892 26.4451 38.7956 26.174 38.7551C25.903 38.7146 25.6266 38.728 25.3608 38.7946Z" fill="#BFB8D3"/>
<g style="mix-blend-mode:multiply" opacity="0.45">
<path fill-rule="evenodd" clip-rule="evenodd" d="M22.001 39.6219L24.0992 39.0981L29.2193 59.5941L27.1211 60.1179L22.001 39.6219Z" fill="#334D5C"/>
</g>
<path fill-rule="evenodd" clip-rule="evenodd" d="M25.122 36.7923L25.8531 36.6142C26.578 36.4372 27.3436 36.5536 27.9833 36.9381C28.623 37.3226 29.0851 37.9442 29.269 38.6675L33.2878 54.6171L33.8963 57.097C34.0749 57.8192 33.9604 58.5826 33.5779 59.2206C33.1955 59.8585 32.576 60.319 31.8549 60.5016L31.1131 60.6902C30.3883 60.8672 29.6227 60.7508 28.983 60.3663C28.3432 59.9818 27.8812 59.3602 27.6972 58.6369L26.9207 55.5636L23.1231 40.1546C22.9457 39.4297 23.0619 38.6641 23.4462 38.0246C23.8304 37.385 24.4518 36.9231 25.175 36.7395L25.122 36.7923Z" fill="#404040"/>
<path fill-rule="evenodd" clip-rule="evenodd" d="M83.5216 51.997C83.75 52.1668 84.0051 52.2973 84.2764 52.3833C84.5 53.3334 85.0615 54.1696 85.8561 54.7361C86.7539 55.4079 87.7116 55.9956 88.717 56.4919C89.7702 57.0187 90.8584 57.4752 91.9466 57.9142L93.5614 58.5287L94.3688 58.7921H94.5092C94.5023 58.8622 94.5023 58.9328 94.5092 59.0028L94.6672 59.3189L94.79 59.5998L94.9304 60.0212C94.7715 60.1479 94.6246 60.2889 94.4916 60.4426C93.352 61.6864 92.5697 63.2152 92.2274 64.8674C92.2021 64.9721 92.2146 65.0825 92.2628 65.1789C92.311 65.2753 92.3917 65.3515 92.4907 65.3941C92.5894 65.4397 92.7016 65.4469 92.8053 65.4145C92.9091 65.382 92.9971 65.3122 93.0524 65.2185C93.049 65.1776 93.049 65.1365 93.0524 65.0956H93.1577C93.2644 65.0295 93.3643 64.9531 93.4561 64.8674L94.0002 64.3582L94.8778 63.5329C94.6402 64.7233 94.3236 65.8964 93.93 67.0446C93.4563 68.266 93.1607 69.5492 93.0524 70.8548C93.0321 71.7733 93.1444 72.69 93.3859 73.5764C93.5577 74.6066 93.8281 75.6179 94.1933 76.5965C94.6409 77.8309 95.2299 79.0093 95.9485 80.1082C96.0003 80.1873 96.0754 80.2485 96.1634 80.2831C96.2515 80.3177 96.3481 80.324 96.4399 80.3013C96.522 80.2854 96.5963 80.2421 96.6505 80.1784C96.6802 80.1634 96.7055 80.1409 96.7239 80.1132C96.7424 80.0855 96.7534 80.0535 96.7558 80.0204C96.817 79.6841 96.8522 79.3436 96.8612 79.002C96.8612 78.6859 96.8612 78.3699 96.8612 78.0538V77.3515L97.142 77.5271C97.6993 77.8624 98.287 78.1446 98.8972 78.3699C100.033 78.7661 101.211 79.0312 102.408 79.16C103.71 79.3465 105.028 79.3877 106.339 79.2829C107.567 79.2115 108.784 79.0174 109.973 78.7035C110.568 78.558 111.154 78.3762 111.728 78.1592L112.254 77.9485L112.553 78.2118C112.745 78.3695 112.922 78.5459 113.079 78.7386C113.176 78.8297 113.264 78.9296 113.342 79.0371L113.448 79.16L113.851 79.8097V79.915C113.836 80.0021 113.836 80.0913 113.851 80.1784C113.851 80.1784 113.851 80.3189 113.992 80.3364C114.023 80.4304 114.085 80.511 114.168 80.5652C114.251 80.6194 114.35 80.6439 114.448 80.6349C114.566 80.6161 114.673 80.5534 114.747 80.4593C114.793 80.4154 114.829 80.3613 114.852 80.3013C114.905 80.1967 114.941 80.084 114.957 79.9677V79.6341L115.063 79.002L115.221 77.6324C115.221 77.1583 115.326 76.6667 115.361 76.1751C116.031 76.1288 116.692 75.993 117.327 75.7712C118.13 75.481 118.873 75.0466 119.521 74.4894C120.164 73.9297 120.684 73.242 121.048 72.4702C121.751 70.7075 122.086 68.819 122.031 66.9217C122.031 66.4476 122.031 65.9736 122.031 65.4995V64.8147V64.446V64.3055C122.101 63.8473 122.206 63.3952 122.347 62.9535C122.377 62.8386 122.418 62.7269 122.47 62.6199V62.4443V62.3214C122.47 62.3214 122.557 62.1633 122.61 62.0756C122.702 61.8982 122.808 61.728 122.926 61.5664L123.119 61.3557L123.54 60.9343C123.676 60.8208 123.823 60.7208 123.979 60.6358C124.29 60.4347 124.635 60.2919 124.997 60.2144C125.172 60.1971 125.348 60.1971 125.524 60.2144C125.717 60.2144 125.91 60.2144 126.103 60.2144C126.296 60.2144 126.401 59.9334 126.208 59.8456C126.001 59.7375 125.774 59.6718 125.541 59.6525C125.325 59.6351 125.108 59.6351 124.892 59.6525C124.46 59.7194 124.04 59.8496 123.646 60.0388C122.97 60.3962 122.373 60.8859 121.89 61.4786C121.308 62.1812 120.873 62.9931 120.609 63.8665C120.182 65.5945 119.912 67.3575 119.802 69.1341C119.68 70.059 119.45 70.9665 119.117 71.8381C118.929 72.2432 118.706 72.631 118.45 72.997C118.22 73.2801 117.961 73.539 117.678 73.7695C117.326 74.0233 116.95 74.2409 116.555 74.4192C116.108 74.5953 115.643 74.719 115.168 74.7879H115.045C115.142 72.185 115.036 69.5785 114.729 66.9919C114.729 66.6408 114.729 66.272 114.729 65.9209V65.4292C114.729 65.201 114.729 64.9552 114.729 64.7093L115.73 65.3063L116.203 65.6048L116.432 65.9209C116.489 66.0065 116.575 66.0691 116.674 66.0977C116.774 66.1262 116.88 66.1189 116.974 66.0769C117.068 66.035 117.145 65.9612 117.19 65.8684C117.235 65.7756 117.246 65.6699 117.221 65.5697C117.046 64.9651 116.817 64.3775 116.537 63.8139C116.054 62.8448 115.465 61.9321 114.782 61.0923C114.448 60.6709 114.08 60.267 113.729 59.8632V59.7754C113.729 59.5823 113.606 59.3891 113.553 59.196C112.722 56.6083 111.49 54.1673 109.902 51.9619C110.324 51.8916 110.745 51.8038 111.166 51.6985C112.262 51.4142 113.278 50.8792 114.132 50.1358C114.548 49.7584 114.878 49.2972 115.102 48.7827C115.326 48.2681 115.438 47.7119 115.431 47.1508C115.326 44.7102 113.027 43.2353 110.938 42.5329C108.765 41.8224 106.423 41.8224 104.251 42.5329C103.244 42.858 102.292 43.3314 101.425 43.9376L101.249 44.0605C101.203 44.0511 101.155 44.0511 101.109 44.0605C100.84 43.9209 100.558 43.8091 100.266 43.7269C99.2773 43.4201 98.2187 43.4201 97.2297 43.7269C96.2852 44.0767 95.4581 44.6852 94.8427 45.4828C94.8369 45.5235 94.8369 45.5649 94.8427 45.6057C94.7217 45.6425 94.6126 45.7106 94.5263 45.8031C94.44 45.8956 94.3797 46.0092 94.3512 46.1324C93.0873 46.3307 91.8424 46.6362 90.6302 47.0455C89.3768 47.4545 88.1611 47.9715 86.9969 48.5906C86.5406 48.854 86.0667 49.1174 85.6279 49.4159C85.3785 49.2314 85.0847 49.1164 84.7763 49.0824C84.468 49.0485 84.1562 49.0969 83.8727 49.2227C83.6635 49.3083 83.4728 49.4335 83.311 49.5915C83.0342 49.7339 82.7976 49.9436 82.6228 50.2013C82.448 50.459 82.3407 50.7564 82.3105 51.0664C82.4011 51.3219 82.5637 51.5457 82.7786 51.7108C82.9935 51.8759 83.2515 51.9753 83.5216 51.997Z" fill="white"/>
<path fill-rule="evenodd" clip-rule="evenodd" d="M82.7671 50.6272C82.7588 51.038 82.8948 51.4387 83.1513 51.7595C83.4079 52.0803 83.7688 52.301 84.1712 52.3831C84.5677 52.474 84.9833 52.4243 85.3472 52.2426C85.6974 52.0468 85.9699 51.737 86.1195 51.3647C86.2779 50.9766 86.3842 50.5692 86.4355 50.1531C86.4442 50.0245 86.4442 49.8955 86.4355 49.7669C86.4732 49.7095 86.4933 49.6424 86.4933 49.5737C86.4933 49.5051 86.4732 49.4379 86.4355 49.3806C86.3184 49.1773 86.1618 48.9995 85.9749 48.8577C85.7879 48.716 85.5745 48.6132 85.3472 48.5553C84.8752 48.4402 84.3777 48.4962 83.9431 48.7133C83.5839 48.8855 83.2818 49.1575 83.0733 49.497C82.8647 49.8364 82.7584 50.2289 82.7671 50.6272Z" fill="#F6ACC4"/>
<path fill-rule="evenodd" clip-rule="evenodd" d="M94.2803 66.1489C94.017 75.8587 112.376 80.5995 115.817 69.3445C115.905 71.0993 115.905 72.8573 115.817 74.6121H115.939C116.414 74.5431 116.88 74.4194 117.326 74.2434C117.721 74.0651 118.098 73.8474 118.449 73.5937C118.732 73.3632 118.991 73.1043 119.222 72.8211C119.477 72.4551 119.701 72.0674 119.889 71.6623C120.221 70.7907 120.451 69.8832 120.573 68.9582C120.696 67.9925 120.766 67.0092 120.889 66.0435C121.469 66.8349 121.946 67.6962 122.311 68.6071C122.257 70.0394 121.942 71.4497 121.381 72.7684C121.017 73.5403 120.497 74.2279 119.854 74.7877C119.206 75.3449 118.463 75.7792 117.66 76.0694C117.025 76.2912 116.364 76.427 115.694 76.4733C115.694 76.9649 115.694 77.4566 115.553 77.9307L115.395 79.3002L115.29 79.9323V80.2659C115.274 80.3822 115.238 80.495 115.185 80.5995C115.162 80.6595 115.126 80.7136 115.079 80.7576C115.006 80.8516 114.899 80.9144 114.781 80.9332C114.682 80.9422 114.584 80.9176 114.501 80.8634C114.418 80.8092 114.356 80.7286 114.325 80.6346C114.325 80.6346 114.219 80.6347 114.184 80.4766C114.168 80.3895 114.168 80.3003 114.184 80.2132V80.1079L113.781 79.4582L113.675 79.3353C113.597 79.2279 113.509 79.1279 113.412 79.0368C113.254 78.8442 113.078 78.6677 112.885 78.5101L112.587 78.2467L112.06 78.4574C111.487 78.6744 110.901 78.8562 110.305 79.0017C108.997 79.2382 107.667 79.3324 106.338 79.2826C105.133 79.3707 103.921 79.3354 102.723 79.1773C101.526 79.0485 100.349 78.7834 99.2124 78.3872C98.6022 78.1619 98.0145 77.8797 97.4572 77.5444L97.1763 77.3688V78.0711C97.1763 78.3872 97.1763 78.7032 97.1763 79.0193C97.1674 79.3609 97.1322 79.7014 97.071 80.0377C97.0686 80.0709 97.0576 80.1028 97.0391 80.1305C97.0207 80.1582 96.9954 80.1807 96.9657 80.1957C96.9115 80.2594 96.8372 80.3027 96.7551 80.3186C96.6633 80.3413 96.5667 80.335 96.4786 80.3004C96.3906 80.2657 96.3154 80.2046 96.2636 80.1255C95.5451 79.0266 94.9561 77.8482 94.5084 76.6138C94.1433 75.6353 93.8729 74.6239 93.701 73.5937C93.4596 72.7073 93.3473 71.7906 93.3676 70.8721C93.4071 69.5523 93.6376 68.2453 94.0521 66.9917L94.3329 66.1313L94.2803 66.1489ZM117.326 65.9206C117.488 65.6627 117.69 65.4317 117.923 65.2358V65.429C117.953 65.5317 117.945 65.6419 117.9 65.7389C117.854 65.8359 117.775 65.913 117.677 65.9557C117.619 65.9735 117.558 65.9795 117.498 65.9735C117.438 65.9675 117.379 65.9495 117.326 65.9206Z" fill="#E6E7E8"/>
<path fill-rule="evenodd" clip-rule="evenodd" d="M96.5981 68.379C96.6338 67.4298 96.7751 66.4875 97.0194 65.5696C97.0768 65.2897 97.1531 65.014 97.2476 64.7444C97.6719 63.6527 98.3959 62.7032 99.3362 62.0053C100.278 61.3112 101.364 60.8372 102.513 60.6182C103.745 60.3462 105.02 60.3462 106.252 60.6182C106.896 60.8008 107.494 61.118 108.007 61.5488L108.147 61.6541C108.725 62.0768 109.194 62.6304 109.516 63.2695C109.978 64.2033 110.332 65.1872 110.569 66.2018C110.834 67.2716 110.987 68.3661 111.026 69.4676C111.076 70.5564 110.994 71.6472 110.78 72.7159C110.723 72.9786 110.646 73.2368 110.552 73.4885C110.466 73.981 110.284 74.4517 110.016 74.8736C109.748 75.2955 109.399 75.6602 108.99 75.9467C108.13 76.4451 107.171 76.7507 106.182 76.8422C105.017 77.0067 103.835 77.0067 102.671 76.8422C101.703 76.7191 100.77 76.406 99.9232 75.9209C99.0768 75.4357 98.3345 74.7882 97.739 74.0153C96.7446 72.315 96.3433 70.3323 96.5981 68.379Z" fill="#F6ACC4"/>
<path fill-rule="evenodd" clip-rule="evenodd" d="M93.9476 49.7666C94.0529 49.5383 94.3338 49.4857 94.5619 49.433C94.7337 49.381 94.91 49.3457 95.0885 49.3276C95.4738 49.2922 95.8616 49.2922 96.2469 49.3276C96.6162 49.3477 96.9816 49.4125 97.3352 49.5208C97.5158 49.5548 97.6923 49.6078 97.8617 49.6788L98.0899 49.8017L98.283 49.9773V50.0826C98.213 50.0906 98.1423 50.0906 98.0724 50.0826H97.3352C96.9841 50.0826 96.6506 50.0826 96.2996 50.0826H95.7906H95.6151H95.3518L94.8603 50.188C94.6322 50.188 94.3864 50.346 94.1582 50.188C94.0867 50.145 94.0289 50.0826 93.9916 50.008C93.9543 49.9333 93.9391 49.8496 93.9476 49.7666Z" fill="#404041"/>
<path fill-rule="evenodd" clip-rule="evenodd" d="M113.36 82.127C113.509 82.3431 113.712 82.5156 113.95 82.6267C114.187 82.7378 114.45 82.7835 114.711 82.7591C115.004 82.7903 115.298 82.7288 115.554 82.5835H115.659C115.91 82.7254 116.196 82.7924 116.484 82.7767C116.759 82.7666 117.024 82.6681 117.239 82.4958C117.353 82.3954 117.437 82.2646 117.481 82.1186C117.524 81.9726 117.526 81.8172 117.485 81.6705C117.36 81.3946 117.142 81.171 116.87 81.0384L116.291 80.5643L115.729 80.1605L115.449 80.0025L115.22 79.8971H115.115C114.988 79.8195 114.842 79.7784 114.694 79.7784C114.545 79.7784 114.399 79.8195 114.273 79.8971C114.032 80.0822 113.819 80.301 113.641 80.5468C113.462 80.7637 113.342 81.0231 113.293 81.3C113.244 81.5769 113.267 81.8617 113.36 82.127Z" fill="#E392AB"/>
<path fill-rule="evenodd" clip-rule="evenodd" d="M93.0174 80.3011C93.2801 80.1476 93.5562 80.0183 93.8423 79.9148C94.5166 79.6517 95.2267 79.4919 95.9486 79.4407H96.1241H96.2821C96.4006 79.4137 96.525 79.4332 96.6295 79.4953C96.7341 79.5574 96.8108 79.6573 96.8437 79.7743C97.0017 80.266 96.598 80.7049 96.3347 81.0737C95.8082 81.7584 94.9832 82.6364 94.0178 82.373C93.7767 82.3042 93.5623 82.1633 93.4035 81.9691C93.3229 81.8913 93.2626 81.7948 93.228 81.6882C92.9121 81.6882 92.5961 81.6004 92.4908 81.2493C92.4453 81.054 92.474 80.8488 92.5713 80.6736C92.6686 80.4984 92.8276 80.3656 93.0174 80.3011Z" fill="#E392AB"/>
<path fill-rule="evenodd" clip-rule="evenodd" d="M116.871 66.3948C116.823 66.3975 116.775 66.3849 116.735 66.3589C116.694 66.3329 116.663 66.2948 116.646 66.2501C116.628 66.2053 116.625 66.1562 116.637 66.1096C116.649 66.0631 116.676 66.0216 116.713 65.991C116.8 65.8329 117.011 65.7451 117.134 65.6222C117.092 65.3959 117.092 65.1637 117.134 64.9374C117.145 64.8907 117.169 64.8479 117.203 64.8139C117.238 64.7798 117.28 64.7557 117.327 64.7443H117.45C117.731 64.6214 117.994 64.955 118.152 65.1833C118.329 65.3622 118.482 65.5628 118.608 65.7802C118.733 65.9967 118.833 66.2264 118.907 66.465C118.917 66.5936 118.917 66.7227 118.907 66.8513C118.916 66.9153 118.916 66.9804 118.907 67.0445C118.918 67.126 118.918 67.2088 118.907 67.2903C118.892 67.3327 118.868 67.3713 118.837 67.4033C118.806 67.4353 118.767 67.4597 118.725 67.4749C118.683 67.4901 118.638 67.4956 118.594 67.491C118.549 67.4864 118.506 67.4718 118.468 67.4483C118.475 67.5008 118.475 67.5539 118.468 67.6063C118.426 67.6575 118.379 67.7045 118.327 67.7468C118.293 67.7819 118.249 67.8059 118.201 67.8157C118.153 67.8255 118.103 67.8206 118.057 67.8017C118.012 67.7828 117.973 67.7507 117.946 67.7097C117.92 67.6686 117.905 67.6204 117.906 67.5712C117.869 67.4392 117.869 67.2994 117.906 67.1674C117.872 67.2477 117.821 67.3202 117.758 67.3806C117.694 67.4409 117.62 67.4879 117.538 67.5186C117.49 67.5403 117.438 67.5492 117.386 67.5443C117.334 67.5394 117.284 67.5209 117.241 67.4907C117.198 67.4604 117.164 67.4195 117.143 67.372C117.121 67.3245 117.112 67.2721 117.116 67.22C117.121 67.0303 117.169 66.8441 117.257 66.6757C117.265 66.5823 117.265 66.4883 117.257 66.3948C117.198 66.4271 117.131 66.444 117.064 66.444C116.996 66.444 116.93 66.4271 116.871 66.3948Z" fill="#F6ACC4"/>
<path fill-rule="evenodd" clip-rule="evenodd" d="M91.3667 65.9207L91.5774 65.6222C91.7154 65.4458 91.8681 65.2813 92.0337 65.1306C92.0882 65.0414 92.153 64.9588 92.2268 64.8848C92.3042 64.7646 92.4108 64.6661 92.5367 64.5986C92.6626 64.531 92.8036 64.4965 92.9464 64.4985C92.9958 64.475 93.0498 64.4629 93.1044 64.4629C93.1591 64.4629 93.213 64.475 93.2624 64.4985C93.2914 64.5127 93.3154 64.5354 93.3311 64.5637C93.3468 64.5919 93.3534 64.6243 93.3501 64.6565C93.4796 64.8373 93.5584 65.0495 93.5783 65.271C93.6345 65.5043 93.5967 65.7503 93.473 65.9558C93.4504 65.9884 93.4202 66.0151 93.385 66.0334C93.3499 66.0518 93.3108 66.0614 93.2711 66.0614C93.2315 66.0614 93.1924 66.0518 93.1573 66.0334C93.1221 66.0151 93.0919 65.9884 93.0693 65.9558L92.9815 66.0787C92.989 66.1075 92.989 66.1377 92.9815 66.1665C92.973 66.2189 92.973 66.2722 92.9815 66.3246V66.623C92.99 66.7224 92.99 66.8222 92.9815 66.9215C92.9667 66.9777 92.9336 67.0274 92.8876 67.0628C92.8416 67.0983 92.7851 67.1175 92.727 67.1175C92.6689 67.1175 92.6125 67.0983 92.5665 67.0628C92.5204 67.0274 92.4874 66.9777 92.4725 66.9215C92.4478 67.0685 92.3876 67.2071 92.297 67.3254C92.28 67.3545 92.2557 67.3787 92.2264 67.3955C92.1971 67.4123 92.164 67.4212 92.1303 67.4212C92.0965 67.4212 92.0634 67.4123 92.0341 67.3955C92.0048 67.3787 91.9805 67.3545 91.9635 67.3254C91.8682 67.0646 91.8682 66.7785 91.9635 66.5177C91.9696 66.4711 91.9696 66.4239 91.9635 66.3772C91.9263 66.4258 91.8785 66.4653 91.8237 66.4926C91.769 66.52 91.7088 66.5346 91.6476 66.5352C91.5906 66.5386 91.5338 66.5254 91.484 66.4974C91.4342 66.4694 91.3935 66.4277 91.3667 66.3772C91.3298 66.3068 91.3105 66.2285 91.3105 66.149C91.3105 66.0694 91.3298 65.9911 91.3667 65.9207Z" fill="#F6ACC4"/>
<path fill-rule="evenodd" clip-rule="evenodd" d="M96.9844 72.2592C98.6742 73.7995 100.72 74.8961 102.938 75.4508C105.156 76.0055 107.476 76.0008 109.692 75.4372C109.498 75.6371 109.287 75.8193 109.06 75.9816C108.2 76.48 107.242 76.7855 106.252 76.877C105.087 77.0416 103.906 77.0416 102.741 76.877C101.774 76.7539 100.84 76.4408 99.9935 75.9557C99.1471 75.4706 98.4048 74.823 97.8093 74.0501C97.4456 73.4982 97.1674 72.8944 96.9844 72.2592Z" fill="#E392AB"/>
<path d="M152.435 68.9352C153.086 69.3284 153.832 69.5362 154.593 69.5362C155.353 69.5362 156.099 69.3284 156.75 68.9352C158.042 68.1457 159.268 67.2538 160.416 66.2681C160.914 65.7882 161.536 65.4581 162.212 65.3154C162.889 65.1726 163.591 65.2231 164.24 65.4609C164.485 65.6082 164.697 65.803 164.866 66.0337C165.034 66.2645 165.154 66.5265 165.219 66.8045C165.285 67.0825 165.294 67.3707 165.246 67.6523C165.199 67.9338 165.095 68.203 164.942 68.4439C164.065 69.7424 162.153 69.6371 160.767 70.3215C159.381 71.0058 158.452 72.6201 157.031 73.3922C155.352 74.0471 153.505 74.1394 151.769 73.6554C151.19 73.5501 150.453 73.2343 150.576 72.6552L152.435 68.9352Z" fill="#EE772A"/>
<path d="M157.049 88.3772L159.575 87.9385C159.951 87.8176 160.348 87.777 160.741 87.8193C161.134 87.8617 161.514 87.9859 161.855 88.1842C162.178 88.5149 162.369 88.9513 162.395 89.4125C162.421 89.8737 162.279 90.3287 161.996 90.6934C161.384 91.3999 160.589 91.9224 159.698 92.2025C157.142 93.1891 154.451 93.7808 151.717 93.9572L157.049 88.3772Z" fill="#EE772A"/>
<path d="M145.823 53.7746C144.681 52.2844 143.152 51.137 141.403 50.4582C140.21 49.9845 137.193 49.0545 136.017 49.9845C134.842 50.9145 135.649 53.915 136.017 55.0029C136.526 56.8925 137.582 58.5896 139.052 59.881C139.367 60.164 139.729 60.3897 140.122 60.5478L145.823 53.7746Z" fill="#EE772A"/>
<path d="M160.172 51.6512C160.343 50.0871 160.155 48.5046 159.624 47.0238C159.092 45.5431 158.229 44.2031 157.102 43.1057C155.804 41.8599 155.085 41.9125 153.875 43.2286C152.611 44.6017 151.858 46.3683 151.743 48.2314C151.628 50.0945 152.158 51.9403 153.243 53.4586L160.172 51.6512Z" fill="#EE772A"/>
<path d="M142.087 60.6354L139.368 64.5308C136.176 69.1107 132.913 73.8659 131.861 79.3406C130.808 84.8154 132.668 91.2727 137.579 93.8872C139.836 94.9542 142.31 95.4828 144.806 95.4314C147.737 95.6547 150.68 95.1671 153.383 94.0101C154.726 93.415 155.894 92.4871 156.778 91.3141C157.662 90.1412 158.232 88.762 158.435 87.3071C158.68 84.0784 156.681 81.2006 155.067 78.3756C152.358 73.4881 150.882 68.0127 150.769 62.4252L142.087 60.6354Z" fill="#F49E5A"/>
<path d="M142.56 69.9527C144.737 71.1716 147.235 71.6922 149.717 71.4442C150.46 71.4723 151.198 71.3155 151.865 70.9878C152.533 70.6601 153.108 70.1718 153.541 69.5666C153.8 68.8012 153.834 67.9773 153.638 67.1932C153.442 66.4091 153.025 65.698 152.436 65.1447C151.101 63.6481 149.367 62.5641 147.437 62.0201C145.507 61.476 143.462 61.4948 141.543 62.074C136.824 63.583 139.421 68.0751 142.56 69.9527Z" fill="#E74041"/>
<path d="M161.067 64.1622C160.049 65.454 158.793 66.5382 157.366 67.3558C153.068 69.9352 147.754 70.8652 143.421 68.742C141.171 67.5723 139.384 65.6739 138.352 63.3569C137.319 61.0399 137.103 58.4412 137.738 55.9852C138.438 53.5246 139.825 51.3148 141.737 49.6156C144.444 47.3407 147.885 46.125 151.42 46.1939C160.435 46.229 168.96 53.5637 161.067 64.1622Z" fill="#F49E5A"/>
<path d="M136.649 92.2026C135.509 93.0449 131.299 90.7286 130.247 90.2022C128.392 89.3897 126.73 88.1937 125.37 86.6928C124.127 85.0021 123.44 82.966 123.406 80.8671C123.344 80.1256 123.344 79.3802 123.406 78.6387V78.1122C123.54 76.9312 123.745 75.7593 124.02 74.6028C124.23 73.6377 124.476 72.6902 124.704 71.7251C124.932 70.76 125.072 70.0757 125.213 69.2509V68.9C125.277 68.6348 125.273 68.3577 125.203 68.094C125.133 67.8304 124.997 67.5887 124.809 67.3909C124.592 67.2396 124.337 67.1543 124.072 67.1453H123.844C123.683 67.1617 123.524 67.197 123.371 67.2506C122.741 67.4742 122.149 67.7938 121.617 68.1981C121.196 68.4964 120.792 68.7947 120.354 69.0579C119.871 69.4098 119.294 69.6094 118.697 69.6313C118.101 69.6532 117.511 69.4963 117.004 69.1807C115.881 68.2157 116.302 66.3907 117.004 65.0747C117.77 63.5616 118.797 62.1954 120.038 61.0389C120.847 60.3016 121.804 59.7453 122.845 59.407C124.283 59.0003 125.818 59.1185 127.177 59.7404C127.793 60.0061 128.353 60.3873 128.826 60.8634C129.544 61.6287 130.067 62.5555 130.352 63.5657C130.869 65.6049 131.035 67.7174 130.843 69.8124C130.843 69.9879 130.843 70.1809 130.843 70.374C130.843 71.3917 130.65 72.4094 130.527 73.4272C130.352 75.0064 130.141 76.5681 130.071 78.1473C130.071 78.7439 130.071 79.323 130.071 79.9021C130.071 80.4811 130.071 81.0426 130.212 81.6568C130.372 83.2269 130.875 84.7428 131.684 86.0979C132.493 87.4529 133.589 88.6143 134.895 89.5003C135.456 89.939 138.052 91.22 136.649 92.2026Z" fill="#EE772A"/>
<path d="M157.698 60.5299C157.991 61.0333 158.154 61.6016 158.172 62.1836C158.191 62.7656 158.064 63.3431 157.804 63.8639C157.42 63.8369 157.063 63.6594 156.81 63.3701C156.557 63.0809 156.429 62.7033 156.453 62.3197C156.567 61.4993 156.637 60.6734 156.664 59.8456C157.313 60.1439 156.997 60.2141 157.698 60.5299Z" fill="#E74041"/>
<path d="M155.839 58.6351C156.095 59.0581 156.253 59.5328 156.301 60.0246C156.35 60.5165 156.288 61.0129 156.12 61.4777C155.965 61.793 155.705 62.0444 155.385 62.1885C155.065 62.3326 154.704 62.3605 154.366 62.2674C153.945 62.0568 153.576 62.6709 153.997 62.8991C154.488 63.1302 155.049 63.1645 155.565 62.9948C156.08 62.8251 156.511 62.4643 156.769 61.9866C157.042 61.4021 157.12 60.7449 156.99 60.1127C156.861 59.4806 156.531 58.907 156.05 58.4772L155.927 58.5825L155.839 58.6351Z" fill="#1D1D1B"/>
<path d="M156.049 58.7402C156.174 59.2133 156.404 59.6519 156.723 60.0227C157.042 60.3936 157.442 60.6871 157.891 60.881C158.3 61.0219 158.749 60.9959 159.139 60.8088C159.53 60.6216 159.831 60.2883 159.978 59.8808C160.136 59.3719 159.364 59.1789 159.189 59.6702C159.013 60.1615 158.259 60.3019 157.768 60.1089C157.277 59.9159 156.698 59.1613 156.207 58.6174C156.19 58.6073 156.17 58.6022 156.15 58.6027C156.13 58.6032 156.111 58.6093 156.095 58.6203C156.078 58.6313 156.065 58.6468 156.057 58.6649C156.049 58.683 156.046 58.703 156.049 58.7227V58.7402Z" fill="#1D1D1B"/>
<path d="M153.12 49.9665C153.114 50.2779 153.007 50.5787 152.813 50.8228C152.62 51.0669 152.352 51.2408 152.05 51.3176C151.121 51.458 150.524 50.4227 149.963 49.7033C149.319 48.8508 148.413 48.2342 147.384 47.9486C147.384 48.8961 148.104 49.7033 148.718 50.3525C149.331 51.0018 149.823 52.1072 149.261 52.9144C148.7 53.7216 147.384 53.4408 146.648 52.8091C145.911 52.1774 145.473 51.2299 144.718 50.5982C143.864 49.9366 142.817 49.573 141.736 49.5629C144.444 47.288 147.884 46.0723 151.419 46.1412C151.888 46.7597 152.293 47.424 152.629 48.124C152.96 48.6811 153.13 49.3188 153.12 49.9665Z" fill="#EE772A"/>
<path d="M157.453 53.5986C157.401 53.3109 157.443 53.0142 157.573 52.7522C157.702 52.4901 157.912 52.2764 158.172 52.1422C158.408 52.0508 158.668 52.0445 158.909 52.1246C159.149 52.2047 159.353 52.3661 159.487 52.5809C159.557 52.7019 159.672 52.7902 159.807 52.8264C159.942 52.8626 160.086 52.8437 160.207 52.7739C160.327 52.7041 160.416 52.5891 160.452 52.4542C160.488 52.3193 160.469 52.1755 160.399 52.0545C160.148 51.5992 159.727 51.2613 159.228 51.1136C158.729 50.9658 158.192 51.0202 157.733 51.2649C157.532 51.3868 157.358 51.5478 157.22 51.7383C157.083 51.9289 156.985 52.1452 156.933 52.3743C156.88 52.6034 156.875 52.8408 156.916 53.0722C156.957 53.3036 157.044 53.5244 157.172 53.7215C157.172 53.8794 157.505 53.7215 157.453 53.5986Z" fill="#1D1D1B"/>
<path d="M148.629 57.4765C148.293 57.0437 147.828 56.7301 147.3 56.5816C146.773 56.4332 146.212 56.4578 145.7 56.6517C145.481 56.7429 145.283 56.8776 145.117 57.0477C144.952 57.2177 144.823 57.4195 144.737 57.641C144.652 57.8624 144.613 58.0988 144.621 58.336C144.63 58.5731 144.687 58.806 144.788 59.0206C145.051 59.547 145.875 59.0206 145.595 58.5468C145.314 58.0731 145.84 57.494 146.296 57.3536C147.033 57.1431 147.682 57.5993 148.349 57.8098C148.542 57.8098 148.752 57.6344 148.629 57.4765Z" fill="#1D1D1B"/>
<path d="M155.839 57.3013C155.102 57.3013 153.506 58.2488 154.278 59.056C154.437 59.2379 154.659 59.3532 154.9 59.3792C155.14 59.4052 155.381 59.34 155.576 59.1964C156.045 58.8717 156.386 58.394 156.541 57.8452C156.573 57.7196 156.554 57.5864 156.488 57.4746C156.422 57.3629 156.315 57.2816 156.19 57.2486C155.984 57.1782 155.765 57.1561 155.549 57.1839C155.333 57.2118 155.126 57.2889 154.945 57.4093C154.763 57.5296 154.612 57.6901 154.503 57.8783C154.393 58.0664 154.328 58.2773 154.313 58.4945C154.31 58.6143 154.352 58.731 154.429 58.8225C154.507 58.9141 154.615 58.9741 154.733 58.9914C154.852 59.0086 154.973 58.9819 155.073 58.9162C155.173 58.8506 155.246 58.7505 155.278 58.6349C155.286 58.5601 155.309 58.4879 155.347 58.4231C155.386 58.3582 155.437 58.3023 155.499 58.2591C155.56 58.2159 155.63 58.1863 155.704 58.1725C155.778 58.1586 155.854 58.1607 155.927 58.1786L155.594 57.582C155.545 57.8461 155.43 58.0935 155.26 58.3015C155.26 58.3015 154.927 58.67 154.839 58.5296C154.752 58.3892 155.19 58.0733 155.26 58.0207C155.469 57.8514 155.699 57.7099 155.944 57.5996C156.155 57.5996 156.05 57.2135 155.839 57.2135V57.3013Z" fill="#1D1D1B"/>
<path d="M160.61 56.4941C161.047 56.3015 161.464 56.0664 161.855 55.7922L163.17 55.0377C164.048 54.5464 164.925 54.0551 165.854 53.6164C166.784 53.1777 165.854 52.1073 165.24 52.5636C164.626 53.0198 163.486 53.6866 162.732 54.3183L161.557 55.1781C161.131 55.4553 160.736 55.779 160.382 56.1432C160.259 56.3011 160.382 56.6169 160.61 56.5292V56.4941Z" fill="#EE772A"/>
<path d="M161.364 57.8804C162.137 57.6057 162.893 57.2833 163.627 56.9153C164.399 56.5819 165.188 56.3187 165.995 56.038C166.058 56.0103 166.115 55.9705 166.163 55.9207C166.211 55.8709 166.249 55.8121 166.274 55.7477C166.3 55.6834 166.312 55.6147 166.311 55.5455C166.309 55.4764 166.294 55.4082 166.267 55.3449C166.239 55.2815 166.199 55.2242 166.149 55.1762C166.1 55.1283 166.041 55.0906 165.977 55.0653C165.912 55.0401 165.844 55.0277 165.774 55.029C165.705 55.0303 165.637 55.0452 165.574 55.0729L163.346 56.1608C162.573 56.4788 161.832 56.8726 161.136 57.3365C160.908 57.5295 161.031 57.9857 161.364 57.8804Z" fill="#EE772A"/>
<path d="M149.262 60.8457C148.869 60.8483 148.478 60.9135 148.105 61.0387L146.807 61.4072C145.982 61.688 145.193 62.0214 144.386 62.3548C143.579 62.6881 144.158 63.5304 144.754 63.197C145.536 62.7956 146.345 62.4496 147.175 62.1617L148.368 61.7406C148.752 61.6649 149.124 61.535 149.473 61.3546C149.52 61.3212 149.555 61.2742 149.575 61.2198C149.594 61.1655 149.596 61.1065 149.581 61.0509C149.566 60.9953 149.533 60.9458 149.489 60.9091C149.445 60.8724 149.39 60.8502 149.332 60.8457H149.262Z" fill="#EE772A"/>
<path d="M149.892 62.0389C149.541 61.9161 149.261 62.0389 148.945 62.267C148.629 62.4951 148.208 62.6881 147.858 62.8987L145.63 64.2674C145.069 64.6183 145.63 65.5132 146.156 65.1623L148.401 63.6708L149.506 62.8987C149.637 62.8218 149.75 62.7178 149.838 62.5938C149.926 62.4697 149.986 62.3284 150.015 62.1793C150.015 62.1449 150.003 62.1116 149.98 62.0857C149.958 62.0598 149.926 62.0432 149.892 62.0389Z" fill="#EE772A"/>
<path d="M124.038 67.1451C123.876 67.1616 123.717 67.1969 123.564 67.2504C122.934 67.474 122.343 67.7937 121.81 68.198C121.81 67.8119 121.81 67.4259 121.722 67.0399C121.587 66.1696 121.399 65.3083 121.161 64.4604C120.88 63.4778 120.6 62.4952 120.337 61.5125L120.231 61.0387C121.04 60.3015 121.997 59.7451 123.038 59.4069C123.126 59.9333 123.231 60.4597 123.336 60.9861C123.564 62.0038 123.81 63.004 123.968 64.0393C124.116 65.0679 124.14 66.1108 124.038 67.1451Z" fill="#F49E5A"/>
<path d="M130.511 63.5655C129.827 64.1796 129.161 64.8289 128.512 65.4781C127.863 66.1274 127.231 66.8468 126.6 67.5487C126.214 67.9698 125.845 68.4261 125.459 68.8472C125.524 68.582 125.52 68.3049 125.45 68.0412C125.379 67.7776 125.244 67.5359 125.056 67.3381C124.839 67.1868 124.583 67.1015 124.319 67.0925C124.495 66.7591 124.688 66.4432 124.863 66.1274C125.355 65.3281 125.887 64.555 126.459 63.8111C127.257 62.7654 128.119 61.7692 129.038 60.8281C129.742 61.609 130.247 62.5479 130.511 63.5655Z" fill="#F49E5A"/>
<path d="M130.966 70.4089C130.966 71.4267 130.773 72.4444 130.65 73.4621C130.224 73.7296 129.771 73.953 129.3 74.1289C128.237 74.4928 127.125 74.6939 126.002 74.7255C125.477 74.7784 124.948 74.7784 124.423 74.7255H124.16C124.371 73.7604 124.616 72.8129 124.844 71.8478H124.949H125.195H126.002C126.814 71.9093 127.63 71.8442 128.422 71.6548C128.791 71.5495 129.159 71.4618 129.528 71.3214L129.791 71.1986L130.247 70.9353C130.58 70.6546 130.755 70.5493 130.966 70.4089Z" fill="#F49E5A"/>
<path d="M130.317 81.6393C129.063 82.2393 127.659 82.4531 126.283 82.2534C125.322 82.079 124.425 81.6487 123.687 81.0076L123.459 80.797C123.398 80.0555 123.398 79.3101 123.459 78.5685C124.085 79.1504 124.875 79.5242 125.722 79.6389H125.845H126.09H126.581H127.283H127.529L128.037 79.4985H128.283H128.441C128.754 79.3567 129.053 79.1863 129.335 78.9897H129.44H129.563L130.002 78.6036L130.16 78.4633C130.16 79.0599 130.16 79.6389 130.16 80.218C130.16 80.797 130.247 81.0602 130.317 81.6393Z" fill="#F49E5A"/>
<path d="M154.033 93.5889C157.278 91.3779 159.804 87.4123 158.383 83.4291C158.104 82.5677 157.648 81.7744 157.044 81.1004C156.44 80.4264 155.701 79.8867 154.875 79.516C153.879 79.1438 152.809 79.0102 151.752 79.126C150.695 79.2418 149.68 79.6038 148.788 80.1828C146.668 81.6671 144.915 83.618 143.666 85.8857C143.368 86.3419 144.105 86.763 144.386 86.3068C145.456 84.4722 146.833 82.8343 148.455 81.4638C149.207 80.8467 150.085 80.4013 151.028 80.1589C151.97 79.9164 152.954 79.8827 153.91 80.06C154.701 80.2986 155.427 80.713 156.034 81.2722C156.642 81.8313 157.115 82.5207 157.418 83.2887C158.095 84.8999 158.163 86.7019 157.611 88.3598C156.927 90.4294 155.66 92.2573 153.963 93.624L154.033 93.5889Z" fill="#E28241"/>
<path d="M146.647 73.4971C147.887 76.0132 149.623 78.2517 151.752 80.0773C152.103 80.3931 152.646 79.8492 152.278 79.5509C150.157 77.7778 148.281 75.7302 146.7 73.462L146.647 73.4971Z" fill="#E28241"/>
<path d="M119.579 44.373C120.027 45.484 120.424 46.0312 120.574 46.0312C123.193 45.2021 126.392 44.0579 128.729 43.0961C128.514 42.4826 128.298 41.8691 128.099 41.2721C125.547 42.2836 122.463 43.4278 119.579 44.373Z" fill="#58A3E0"/>
<path d="M167.086 24.9551C166.622 24.3913 162.826 27.3761 153.924 28.4208L139.636 36.712C139.636 36.712 140.332 38.1049 154.156 36.6125C167.981 35.1201 169.44 27.7078 167.086 24.9551Z" fill="#195C93"/>
<path d="M167.086 24.9553C166.655 24.4413 163.34 26.9783 155.715 28.1723C155.4 28.1723 152.3 31.9862 153.477 34.059C154.389 35.7172 158.765 36.1152 163.423 33.9263C168.711 31.4722 168.744 26.8789 167.086 24.9553Z" fill="#2072C4"/>
<path d="M167.086 24.9553C166.92 24.7397 166.29 24.9553 165.13 25.5025C166.605 27.5421 166.406 31.9033 161.317 34.2745C160.306 34.759 159.244 35.1316 158.151 35.3856C159.987 35.2207 161.778 34.7264 163.439 33.9263C168.71 31.4721 168.744 26.8788 167.086 24.9553Z" fill="#64A9E2"/>
<path d="M153.958 28.421C154.107 28.8355 150.494 31.8701 144.178 35.568C140.415 26.9783 132.741 18.0901 127.32 17.9907C127.314 17.93 127.314 17.8689 127.32 17.8082C147.56 7.80908 153.643 27.625 153.958 28.421Z" fill="#E6F0FF"/>
<path d="M153.957 28.4207C154.04 28.6529 152.913 29.7307 150.758 31.306C147.542 33.6441 145.056 30.5101 142.918 27.177C141.163 24.5825 138.853 22.4117 136.155 20.8226C133.457 19.2335 130.438 18.2659 127.319 17.9904V17.8743C147.542 7.72596 153.642 27.6248 153.957 28.4207Z" fill="white"/>
<path d="M144.145 35.568C139.459 38.3138 134.584 40.7243 129.558 42.7814C125.463 31.1737 124.916 23.0815 127.287 17.9078C132.707 18.0902 140.382 26.9784 144.145 35.568Z" fill="#195C93"/>
<path d="M143.101 36.2477C139.135 38.577 135.008 40.6217 130.752 42.3666C127.271 32.5499 126.807 25.635 128.829 21.307C133.387 21.4065 139.902 28.9515 143.101 36.2477Z" fill="#2072C4"/>
<path d="M130.055 40.4432C130.254 41.0733 130.469 41.72 130.701 42.3667C134.974 40.624 139.118 38.5792 143.1 36.2479C142.868 35.7338 142.636 35.2363 142.387 34.7223C138.857 36.5463 134.696 38.5196 130.055 40.4432Z" fill="#64A9E2"/>
<path d="M127.287 17.9904C124.917 23.0811 125.464 31.2562 129.558 42.8639C126.79 43.9915 123.839 45.0859 120.739 46.0809C119.828 46.3793 108.092 27.7408 127.022 18.0733L127.287 17.9904Z" fill="#195C93"/>
<path d="M125.132 20.6936C123.126 24.9884 125.265 33.3791 128.729 43.1296C126.392 44.0913 123.193 45.2355 120.573 46.0646C119.811 46.3134 112.302 28.1225 125.132 20.6936Z" fill="#2072C4"/>
<path d="M129.094 17.1284C129.343 17.6259 128.762 18.3887 127.834 18.7867C126.906 19.1846 125.961 19.1515 125.729 18.6374C125.497 18.1234 126.06 17.3772 126.989 16.9792C127.917 16.5812 128.779 16.6144 129.094 17.1284Z" fill="#195C93"/>
<path d="M128.348 18.0237C128.447 18.2559 128.182 18.6207 127.751 18.8197C127.32 19.0187 126.873 18.9855 126.757 18.8197C126.641 18.6538 126.922 18.2227 127.353 18.0237C127.784 17.8247 128.232 17.7916 128.348 18.0237Z" fill="#2072C4"/>
</svg>
