<svg width="53" height="65" viewBox="0 0 53 65" fill="none" xmlns="http://www.w3.org/2000/svg">
<path d="M48.2727 0H4.72727C2.11647 0 0 2.11647 0 4.72727V53.8258C0 56.4366 2.11647 58.553 4.72727 58.553H48.2727C50.8835 58.553 53 56.4366 53 53.8258V4.72727C53 2.11647 50.8835 0 48.2727 0Z" fill="#95B0DD"/>
<path opacity="0.83" d="M46.8328 1.12122H6.02977C3.41479 1.12122 1.29492 3.24108 1.29492 5.85606V51.9167C1.29492 54.5317 3.41479 56.6515 6.02977 56.6515H46.8328C49.4478 56.6515 51.5677 54.5317 51.5677 51.9167V5.85606C51.5677 3.24108 49.4478 1.12122 46.8328 1.12122Z" fill="white"/>
<path d="M20.4318 7.0531C20.6351 7.15193 20.8573 7.20606 21.0833 7.21185C21.3093 7.21764 21.534 7.17496 21.7421 7.08668C21.9502 6.9984 22.1371 6.86656 22.29 6.70004C22.4429 6.53352 22.5584 6.33617 22.6287 6.12128C22.8114 5.68913 22.8264 5.20444 22.6709 4.7618C22.5154 4.31916 22.2006 3.95035 21.7878 3.72734C20.7604 3.22996 19.6611 2.8976 18.5302 2.74249C18.4621 3.96219 18.3787 5.16674 18.3105 6.38643C19.0466 6.50312 19.7613 6.72776 20.4318 7.0531Z" fill="#7EADCE"/>
<path d="M14.1807 2.88638C14.6579 4.00759 14.9382 5.21213 15.3625 6.37122C16.3319 6.22738 17.3173 6.22738 18.2867 6.37122C18.3549 5.15153 18.4382 3.94698 18.5064 2.72728C17.0652 2.54966 15.6049 2.60336 14.1807 2.88638Z" fill="#C2E3EA"/>
<path d="M12.4456 7.09099L12.6198 7.03796C11.741 6.09856 10.9001 5.14402 10.0062 4.23492C8.40566 4.96074 7.0673 6.16156 6.17285 7.67432C7.36225 8.00008 8.44558 8.38644 9.60467 8.76523C10.4269 8.01839 11.3939 7.44852 12.4456 7.09099Z" fill="#1871B9"/>
<path d="M9.07497 10.9317C8.96698 10.7512 8.89773 10.5503 8.87165 10.3416C8.84556 10.1329 8.86321 9.92108 8.92346 9.71959C9.07922 9.35596 9.31182 9.03032 9.60527 8.76504C8.47649 8.38625 7.33255 8.00747 6.17346 7.67413C6.05068 7.90368 5.94435 8.14165 5.85527 8.38625C5.61025 9.08756 5.51336 9.83207 5.57073 10.5727C5.62811 11.3134 5.8385 12.0341 6.18861 12.6893C6.32214 12.9506 6.47141 13.2036 6.63558 13.4469C7.62043 12.8787 8.58255 12.2499 9.55224 11.6211C9.36575 11.4115 9.20548 11.18 9.07497 10.9317Z" fill="#C2E3EA"/>
<path d="M11.1893 12.9092C10.5859 12.5561 10.035 12.12 9.5529 11.6137C8.5832 12.2425 7.62108 12.8713 6.63623 13.4395C7.41817 14.511 8.4139 15.4087 9.56047 16.0758C9.81047 16.2349 10.068 16.3864 10.318 16.538C11.0377 15.591 11.6968 14.5834 12.3862 13.6061C12.0226 13.394 11.5908 13.1592 11.1893 12.9092Z" fill="#7EADCE"/>
<path d="M12.3934 13.606C11.704 14.5833 11.0449 15.5909 10.3252 16.5378C11.8516 17.4268 13.4795 18.1288 15.1737 18.6287C15.507 17.4697 15.9313 16.356 16.2116 15.1515C14.8855 14.7793 13.605 14.261 12.3934 13.606Z" fill="#1871B9"/>
<path d="M21.5067 15.7196C20.924 15.7575 20.3394 15.7575 19.7567 15.7196C19.7567 16.9393 19.6809 18.159 19.6733 19.3636C20.3546 19.4014 21.0375 19.4014 21.7188 19.3636C22.892 19.2677 24.0536 19.0622 25.1885 18.7499C24.8097 17.606 24.5067 16.4242 24.1582 15.2726C23.2887 15.4967 22.4016 15.6462 21.5067 15.7196Z" fill="#C2E3EA"/>
<path d="M24.1436 15.3031C24.492 16.4546 24.7951 17.6364 25.1739 18.7804L25.3254 18.7349C25.3181 18.6872 25.3181 18.6387 25.3254 18.591C25.3181 18.6387 25.3181 18.6872 25.3254 18.7349C27.0952 18.2456 28.809 17.5727 30.439 16.7273C29.8026 15.7122 29.136 14.7122 28.4769 13.697C27.0923 14.3817 25.6399 14.92 24.1436 15.3031Z" fill="#7EBEE2"/>
<path d="M31.9614 11.8031C30.8381 12.4981 29.68 13.1353 28.4917 13.7122C29.1508 14.7122 29.8175 15.7122 30.4538 16.7425C31.4639 16.2374 32.5043 15.6541 33.575 14.9925L34.8402 14.2046L35.1584 14.0076C34.4765 13.0379 33.8326 12.0455 33.1735 11.0682L31.9614 11.8031Z" fill="#C2E3EA"/>
<path d="M33.2339 11.0226C33.893 11.9999 34.5369 12.9923 35.2187 13.962C36.3225 13.2336 37.4713 12.5757 38.6581 11.9923C38.1971 10.8864 37.6287 9.82827 36.9612 8.83325C35.6807 9.4963 34.4365 10.2271 33.2339 11.0226Z" fill="#1871B9"/>
<path d="M47.6666 9.04541C45.9333 7.73806 43.7616 7.15171 41.606 7.40904C41.606 8.62874 41.606 9.84844 41.606 11.0681C42.8558 10.8769 44.134 11.0948 45.2499 11.6893C46.1226 10.8588 47.0599 10.0989 48.0529 9.41662C47.9469 9.27268 47.8105 9.15904 47.6666 9.04541Z" fill="#7EBEE2"/>
<path d="M48.0755 9.39386C47.0825 10.0761 46.1452 10.8361 45.2725 11.6666C45.4415 11.7637 45.6035 11.8726 45.7573 11.9923C46.1923 12.339 46.5513 12.7714 46.812 13.2628C47.0727 13.7541 47.2294 14.2939 47.2725 14.8484C48.3634 14.6514 49.4467 14.4393 50.53 14.2575C50.3105 12.3977 49.4412 10.6752 48.0755 9.39386Z" fill="#1871B9"/>
<path d="M50.5305 14.2804C49.4472 14.4622 48.3639 14.6743 47.2729 14.8713C47.3032 15.2284 47.2673 15.5879 47.1669 15.9319C46.8965 16.7149 46.4139 17.4073 45.7729 17.9319C46.8394 18.5092 47.9428 19.0153 49.076 19.4471C49.6253 18.7375 50.0411 17.9341 50.3032 17.0759C50.5658 16.1687 50.6431 15.218 50.5305 14.2804Z" fill="#C2E3EA"/>
<path d="M45.484 22.5378L45.7416 22.3636C45.7416 22.3636 45.6734 22.3106 45.5825 22.3106C45.6734 22.3106 45.7189 22.3106 45.7416 22.3636C45.9916 22.1969 46.2492 22.0227 46.4992 21.8409C47.4728 21.1704 48.3409 20.3584 49.0749 19.4318C47.9417 19.0001 46.8383 18.4939 45.7719 17.9166C45.4318 18.2322 45.0698 18.5233 44.6886 18.7878C44.2492 19.106 43.8022 19.4015 43.3477 19.6818C43.9453 20.7143 44.6624 21.6729 45.484 22.5378Z" fill="#7EADCE"/>
<path d="M40.3711 21.2121C39.3016 21.6559 38.1999 22.018 37.0757 22.2954C37.3886 23.4651 37.6215 24.6547 37.7727 25.856C39.0513 25.5371 40.3047 25.1244 41.5227 24.6212C41.0417 23.52 40.6564 22.3794 40.3711 21.2121Z" fill="#C2E3EA"/>
<path d="M33.1281 22.9546C31.9014 23.0617 30.6694 23.0946 29.4387 23.0531C29.45 24.2696 29.369 25.4852 29.1963 26.6894C30.6138 26.7421 32.0332 26.7067 33.4463 26.5834C33.4084 25.3561 33.2948 24.1516 33.166 22.9546H33.1281Z" fill="#7EBEE2"/>
<path d="M37.0751 22.2954C35.7906 22.6136 34.4838 22.8339 33.166 22.9545C33.2948 24.1515 33.4084 25.356 33.4463 26.5833C34.9056 26.4425 36.3518 26.1892 37.7721 25.8257C37.6196 24.6346 37.3867 23.4551 37.0751 22.2954Z" fill="#7EADCE"/>
<path d="M25.8407 26.4015C26.9619 26.5454 28.0756 26.6439 29.1589 26.6893H29.1968C29.3695 25.4851 29.4505 24.2695 29.4392 23.053C28.3028 23.053 27.2195 22.9166 26.2347 22.7878L25.4771 22.6742C25.4771 23.8863 25.3028 25.0833 25.1968 26.303L25.8407 26.4015Z" fill="#7EADCE"/>
<path d="M25.1664 26.3257C25.2724 25.106 25.4088 23.909 25.4467 22.6969C24.0073 22.4848 22.5603 22.2196 21.1437 21.9393C21.0911 23.1518 20.8875 24.353 20.5376 25.5151C22.0527 25.7954 23.6058 26.0833 25.1664 26.3257Z" fill="#7EBEE2"/>
<path d="M17.0291 24.8863C18.12 25.0681 19.2109 25.2651 20.2791 25.462H20.3776C20.4245 25.2928 20.5224 25.142 20.6579 25.0302C20.5224 25.142 20.4245 25.2928 20.3776 25.462H20.5367C20.8866 24.3 21.0902 23.0988 21.1428 21.8863L20.8246 21.8257C19.5594 21.5908 18.264 21.3484 16.9609 21.1363C17.1276 22.3181 16.9685 23.6742 17.0291 24.8863Z" fill="#1871B9"/>
<path d="M14.0749 24.4546C15.0522 24.5682 16.0446 24.7197 17.0294 24.8864C16.9688 23.6743 17.1279 22.3182 16.9612 21.1894C16.1128 21.0606 15.2643 20.9394 14.4158 20.8409C13.8097 20.7652 13.2188 20.7121 12.6431 20.6743C12.788 21.8886 12.8613 23.1104 12.8628 24.3333L14.0749 24.4546Z" fill="#C2E3EA"/>
<path d="M8.05208 24.3333C8.71117 24.2652 9.39299 24.2349 10.1051 24.2273C9.74905 23.0076 9.34754 21.7803 8.99148 20.6212C8.58239 20.6212 8.18087 20.6667 7.78693 20.7045C6.48068 20.8236 5.23901 21.3272 4.21875 22.1515C5.10511 22.9091 5.91572 23.8409 6.78693 24.6742C7.1875 24.4931 7.61474 24.378 8.05208 24.3333Z" fill="#7EADCE"/>
<path d="M6.06707 25.1742C6.25575 24.9572 6.49156 24.7862 6.75647 24.6742C5.88526 23.8409 5.07465 22.9394 4.18829 22.1515C3.64206 22.6082 3.21771 23.1934 2.95328 23.8545C2.68884 24.5155 2.59258 25.2319 2.67313 25.9394C2.75058 26.7435 2.94453 27.532 3.24889 28.2803C4.25647 27.7424 5.23374 27.1894 6.24132 26.6818C6.09346 26.3264 5.99901 25.9512 5.96101 25.5682C5.94848 25.4987 5.95149 25.4274 5.96983 25.3593C5.98817 25.2912 6.02138 25.228 6.06707 25.1742Z" fill="#1871B9"/>
<path d="M8.90107 28.7045C8.21925 29.7272 7.60562 30.8181 6.9541 31.8484C7.60254 32.1192 8.27811 32.3199 8.96925 32.4469C10.1788 32.6637 11.4078 32.7526 12.6359 32.712C12.4292 31.5056 12.3202 30.2845 12.3102 29.0605C11.1629 29.0969 10.0161 28.9771 8.90107 28.7045Z" fill="#7EADCE"/>
<path d="M16.5077 28.7349H16.4623L16.0986 28.7728C16.422 29.9486 16.6749 31.1426 16.8562 32.3486C18.336 32.1667 19.8183 32.0076 21.3032 31.8713C20.9774 30.7046 20.6971 29.5001 20.4017 28.3031C19.1138 28.4395 17.8108 28.5986 16.5077 28.7349Z" fill="#7EBEE2"/>
<path d="M20.416 28.3105C20.7115 29.5075 20.9918 30.7121 21.3175 31.8787C22.6206 31.7575 23.916 31.6515 25.219 31.5605C25.0221 30.3787 25.0524 29.1287 24.8781 27.9393C23.3857 28.0454 21.8706 28.1666 20.416 28.3105Z" fill="#C2E3EA"/>
<path d="M24.9009 27.9395C25.0751 29.1289 25.0448 30.3789 25.2418 31.5607C26.4539 31.4774 27.6585 31.4092 28.863 31.3486C28.7797 30.1592 28.7342 28.9622 28.56 27.7198C27.3175 27.7804 26.0978 27.841 24.9009 27.9395Z" fill="#7EADCE"/>
<path d="M32.326 27.5833C31.0608 27.5833 29.8032 27.659 28.5381 27.7196C28.7123 28.962 28.7578 30.159 28.8411 31.3484C30.0684 31.2954 31.2957 31.2499 32.5229 31.2196C32.3818 30.0128 32.316 28.7983 32.326 27.5833Z" fill="#C2E3EA"/>
<path d="M36.4994 27.5228H36.454C35.0828 27.5228 33.704 27.5228 32.3252 27.5834C32.3153 28.7984 32.381 30.0129 32.5222 31.2197C33.7949 31.1819 35.0676 31.1667 36.31 31.1667C36.4843 29.9546 36.5373 28.7273 36.81 27.5228H36.4994Z" fill="#7EBEE2"/>
<path d="M36.8398 27.5228C36.5671 28.7273 36.5141 29.9546 36.3398 31.1667H36.4989C37.8553 31.1491 39.2101 31.2633 40.5444 31.5076C40.8626 30.3409 41.2338 29.1743 41.4914 28.0076C39.9612 27.6897 38.4027 27.5272 36.8398 27.5228Z" fill="#7EADCE"/>
<path d="M43.9318 28.7879C43.1459 28.4547 42.3287 28.2009 41.4924 28.0303C41.2348 29.197 40.8636 30.3637 40.5454 31.5303C41.2812 31.6742 41.9998 31.8951 42.6894 32.1894C43.1892 32.4085 43.6559 32.6967 44.0757 33.0455C45.0569 32.4063 45.9774 31.6785 46.8257 30.8712C46.0192 29.98 45.0329 29.2699 43.9318 28.7879Z" fill="#1871B9"/>
<path d="M46.4088 41.5606C47.1852 40.9014 47.8006 40.0734 48.2077 39.1397C48.6147 38.2061 48.8027 37.1917 48.7572 36.1742C48.7572 36.0378 48.7572 35.9166 48.7572 35.7878C47.6436 35.7424 46.5375 35.6363 45.4163 35.553C45.4485 35.7866 45.4687 36.0218 45.4769 36.2575C45.4957 36.6765 45.4273 37.0949 45.276 37.4861C45.1248 37.8773 44.8939 38.2329 44.5981 38.5303C45.2345 39.5227 45.8027 40.5681 46.3784 41.5606H46.4088Z" fill="#C2E3EA"/>
<path d="M46.3626 41.5909C45.7868 40.5605 45.2187 39.5151 44.5823 38.5605L44.5065 38.6212C43.5444 39.3787 42.0065 39.159 40.3626 38.8181C40.3626 40.0227 40.1884 41.2499 40.0596 42.4545C41.8778 42.7954 44.3474 43.1287 46.3626 41.5909Z" fill="#7EBEE2"/>
<path d="M39.4919 42.303L40.06 42.4166C40.1888 41.2121 40.3328 39.9848 40.3631 38.7803L40.1282 38.7272C38.7722 38.4393 37.3858 38.1439 35.9691 37.856C35.7616 39.0514 35.4627 40.2291 35.0752 41.3787C36.5828 41.6818 38.06 41.9924 39.4919 42.303Z" fill="#7EADCE"/>
<path d="M34.9472 41.3485H35.076C35.4635 40.1988 35.7623 39.0211 35.9699 37.8258C34.4547 37.5227 32.8941 37.2197 31.3108 36.9394C31.168 38.147 30.9144 39.3389 30.5532 40.5C32.0608 40.7879 33.5153 41.0682 34.9472 41.3485Z" fill="#1871B9"/>
<path d="M21.5448 39.2802C21.6887 38.0681 21.8705 36.8711 21.9311 35.659C20.363 35.5075 18.7796 35.3939 17.1963 35.3257C17.272 36.5454 17.2569 37.7575 17.2948 38.9772C18.7114 39.0378 20.1357 39.1439 21.5448 39.2802Z" fill="#1871B9"/>
<path d="M12.8402 38.9167C14.3553 38.9167 15.8099 38.9167 17.2947 38.9773C17.2568 37.7576 17.2947 36.5455 17.1962 35.3258C15.7215 35.2652 14.2467 35.25 12.772 35.2803C12.7795 36.4925 12.8326 37.6894 12.8402 38.9167Z" fill="#7EADCE"/>
<path d="M10.4317 39.2652C11.136 39.0034 11.8855 38.8849 12.6362 38.9167H12.8408C12.8408 37.7046 12.7423 36.4924 12.7726 35.2803H12.568C11.3802 35.2413 10.1983 35.4637 9.10593 35.9318C8.55828 36.204 8.06122 36.5678 7.63623 37.0076C8.47714 37.8485 9.3332 38.6212 10.1893 39.4091C10.2656 39.3539 10.3467 39.3058 10.4317 39.2652Z" fill="#C2E3EA"/>
<path d="M10.1894 39.4091C9.33333 38.6516 8.47727 37.8485 7.63636 37.0076C6.98572 37.703 6.48995 38.5285 6.18176 39.4295C5.87358 40.3306 5.75998 41.2867 5.84848 42.2349C6.92074 41.9591 8.01219 41.7641 9.11363 41.6516C9.11058 41.2206 9.20589 40.7946 9.39231 40.406C9.57872 40.0174 9.85133 39.6765 10.1894 39.4091Z" fill="#7EADCE"/>
<path d="M9.19565 42.2349C9.14518 42.0495 9.1172 41.8587 9.11232 41.6667C8.01087 41.7792 6.91943 41.9742 5.84717 42.25C5.87906 42.6065 5.94502 42.9591 6.04414 43.3031C6.26281 44.1661 6.67915 44.9664 7.26028 45.6409C7.84141 46.3154 8.57141 46.8455 9.39262 47.1894C10.0138 46.1288 10.6123 45.0657 11.1881 44C10.7238 43.9225 10.2907 43.7158 9.93831 43.4036C9.58596 43.0915 9.32859 42.6864 9.19565 42.2349Z" fill="#7EBEE2"/>
<path d="M11.188 44.0153C10.6123 45.086 10.0138 46.1491 9.39258 47.2047C9.89477 47.4158 10.4179 47.5732 10.9532 47.6744C11.792 47.8326 12.6453 47.9012 13.4986 47.8789C13.8019 46.6683 14.0371 45.4416 14.2032 44.2047C13.1943 44.2952 12.1776 44.2313 11.188 44.0153Z" fill="#1871B9"/>
<path d="M18.5674 43.8334C17.9513 43.8789 17.3376 43.9319 16.7265 43.9925L16.1583 44.0456C15.4917 44.1137 14.8326 44.1743 14.2038 44.2046C14.0502 45.4409 13.8276 46.6675 13.5371 47.8789C14.5901 47.8789 15.6053 47.7653 16.5068 47.6668L17.0523 47.6137C17.5295 47.5683 18.0144 47.5228 18.4992 47.4925C18.4197 46.2731 18.4425 45.0491 18.5674 43.8334Z" fill="#C2E3EA"/>
<path d="M21.9539 43.6743C21.8706 44.8864 21.8706 46.1061 21.8706 47.3182C23.5373 47.2652 25.1964 47.2728 26.8555 47.3182C26.9842 46.1061 27.0827 44.894 27.113 43.6819C25.4009 43.6289 23.6812 43.6213 21.9539 43.6743Z" fill="#7EADCE"/>
<path d="M27.113 43.6742C27.113 44.8863 26.9843 46.0984 26.8555 47.3106C28.3706 47.3106 29.8858 47.409 31.4009 47.4924C31.4009 46.2575 31.2494 45.0454 31.1433 43.8333C29.8176 43.75 28.4691 43.7045 27.113 43.6742Z" fill="#1871B9"/>
<path d="M31.1582 43.8334C31.2643 45.0456 31.4158 46.2577 31.4158 47.4925C32.6431 47.5607 33.8476 47.6365 35.0521 47.7274C35.1279 46.5001 35.3097 45.2956 35.3931 44.0986C33.9915 44.0001 32.5824 43.9092 31.1582 43.8334Z" fill="#7EADCE"/>
<path d="M37.0215 44.2197L35.3624 44.0984C35.2791 45.2954 35.0972 46.5 35.0215 47.7272L36.8018 47.856C37.2891 47.8795 37.7747 47.9301 38.2563 48.0075C38.7789 46.8742 39.392 45.7848 40.0897 44.75C39.0954 44.4362 38.0634 44.2578 37.0215 44.2197Z" fill="#C2E3EA"/>
<path d="M40.9533 45.1137C40.6833 44.9753 40.405 44.8539 40.12 44.7501C39.4223 45.7849 38.8092 46.8743 38.2866 48.0076C38.7178 48.0732 39.1367 48.2034 39.529 48.394C39.9182 48.5842 40.2212 48.9143 40.3775 49.3182C41.4609 49.0607 42.5518 48.8561 43.6427 48.6289C43.474 47.8838 43.1464 47.184 42.6822 46.5773C42.2181 45.9706 41.6283 45.4713 40.9533 45.1137Z" fill="#7EBEE2"/>
<path d="M27.0676 51.3713C25.6585 51.1895 24.1585 51.0077 22.5222 50.8486C22.3555 52.0531 22.1964 53.2577 22.0601 54.4622C23.9161 54.6289 25.5676 54.841 27.1131 55.0304C27.1661 53.8108 27.151 52.5892 27.0676 51.3713Z" fill="#7EADCE"/>
<path d="M17.863 50.5228C16.6888 50.4698 15.4312 50.4319 14.0751 50.4243C13.6216 50.4658 13.1999 50.6752 12.8928 51.0116C12.5858 51.348 12.4155 51.787 12.4155 52.2425C12.4155 52.698 12.5858 53.137 12.8928 53.4734C13.1999 53.8098 13.6216 54.0192 14.0751 54.0607C15.416 54.0607 16.6585 54.1137 17.8176 54.1667C17.7494 52.947 17.9236 51.7501 17.863 50.5228Z" fill="#7EBEE2"/>
<path d="M22.4998 50.8485C21.0907 50.7197 19.568 50.606 17.8634 50.5227C17.924 51.75 17.7498 52.9469 17.7877 54.1666C19.3028 54.2348 20.7422 54.3409 22.0377 54.4621C22.174 53.2576 22.3331 52.0833 22.4998 50.8485Z" fill="#1871B9"/>
<path d="M32.029 51.9319C30.5139 51.8031 29.0442 51.6137 27.4836 51.4167L27.0669 51.3713C27.1351 52.59 27.1351 53.8116 27.0669 55.0304C28.6881 55.2349 30.2639 55.4319 31.9381 55.5682C32.0668 54.3606 32.0972 53.1445 32.029 51.9319Z" fill="#C2E3EA"/>
<path d="M36.9157 55.7804C36.7263 54.5531 36.4536 53.3485 36.1581 52.1364C34.643 52.1364 33.3324 52.0455 32.0142 51.9319C32.0979 53.1458 32.0827 54.3644 31.9688 55.5758C33.4233 55.697 34.9384 55.7804 36.6051 55.7804H36.9157Z" fill="#7EBEE2"/>
<path d="M39.2425 51.9999L39.0455 52.0833C38.0304 52.1287 37.0834 52.1439 36.1743 52.1363C36.4546 53.3484 36.7273 54.553 36.9319 55.7802C37.6895 55.7802 38.538 55.7802 39.4016 55.7121C39.5142 55.7055 39.6259 55.6877 39.7349 55.659C40.5634 55.4122 41.318 54.9646 41.9319 54.356C41.0304 53.5984 40.1289 52.8408 39.2425 51.9999Z" fill="#7EADCE"/>
<path d="M43.7644 50.5075C43.8203 49.8787 43.7794 49.2451 43.6432 48.6287C42.5523 48.856 41.4614 49.0605 40.3781 49.3181C40.4714 49.5827 40.505 49.8647 40.4765 50.1439C40.4475 50.5333 40.3186 50.9086 40.1023 51.2337C39.886 51.5588 39.5896 51.8227 39.2417 51.9999C40.1281 52.8408 41.0296 53.5984 41.9311 54.356C42.9808 53.3323 43.6309 51.9677 43.7644 50.5075Z" fill="#1871B9"/>
<path d="M21.9545 43.6742C20.8282 43.7045 19.6994 43.7575 18.5681 43.8333C18.4305 45.0479 18.3951 46.2719 18.4621 47.4924C19.5984 47.4015 20.7348 47.3484 21.8712 47.3181C21.8712 46.106 21.8712 44.8863 21.9545 43.6742Z" fill="#7EADCE"/>
<path d="M25.7646 39.7728C25.9843 38.5682 26.2116 37.3788 26.3631 36.1894C24.901 35.9849 23.4237 35.8031 21.9313 35.6591C21.8707 36.8712 21.6889 38.0682 21.5449 39.2803C22.9641 39.4167 24.3707 39.5808 25.7646 39.7728Z" fill="#7EADCE"/>
<path d="M30.575 40.5303C30.9362 39.3692 31.1898 38.1773 31.3326 36.9697C29.7114 36.6819 28.0598 36.4167 26.3856 36.2122C26.2341 37.4016 26.0068 38.5909 25.7871 39.7955C27.3932 40.0076 28.9891 40.2526 30.575 40.5303Z" fill="#C2E3EA"/>
<path d="M44.0752 33.0152C44.8243 33.6549 45.2989 34.5581 45.401 35.5379C46.5222 35.6212 47.6282 35.7273 48.7419 35.7727C48.6825 33.9677 48.006 32.2377 46.8252 30.8712C45.9756 31.668 45.0551 32.3856 44.0752 33.0152Z" fill="#7EADCE"/>
<path d="M12.311 29.0606C12.3211 30.2846 12.4301 31.5057 12.6368 32.7121H12.8186C14.3338 32.6667 15.7201 32.5 16.8186 32.3637H16.8716C16.6904 31.1577 16.4374 29.9637 16.1141 28.7879C14.7807 28.9318 13.5383 29.0455 12.311 29.0606Z" fill="#1871B9"/>
<path d="M6.26391 26.6742C5.25633 27.1818 4.27906 27.7348 3.27148 28.2727C3.61448 29.0849 4.11712 29.8199 4.74958 30.4341C5.38204 31.0484 6.13144 31.5293 6.9533 31.8484C7.60482 30.8181 8.21845 29.7272 8.90027 28.7045C8.33337 28.594 7.8 28.353 7.3424 28.0006C6.8848 27.6482 6.51555 27.1941 6.26391 26.6742Z" fill="#C2E3EA"/>
<path d="M12.8634 24.3334C12.862 23.1104 12.7886 21.8886 12.6437 20.6743C11.4289 20.5794 10.2093 20.5617 8.99219 20.6213C9.37855 21.8107 9.74976 23.0076 10.1361 24.2273C10.977 24.2198 11.8861 24.2576 12.8634 24.3334Z" fill="#7EBEE2"/>
<path d="M45.4838 22.5379C44.6626 21.6753 43.9456 20.7192 43.3474 19.6894C42.3963 20.2719 41.4008 20.7785 40.3701 21.2045C40.6554 22.3718 41.0407 23.5124 41.5216 24.6136C42.9026 24.0433 44.2287 23.3485 45.4838 22.5379Z" fill="#7EBEE2"/>
<path d="M41.6125 7.38635C40.7256 7.4751 39.8514 7.66315 39.0065 7.94696C38.2857 8.19277 37.5821 8.48635 36.9004 8.82575C37.568 9.82077 38.1363 10.8789 38.5974 11.9848C39.043 11.7733 39.5009 11.5886 39.9686 11.4318C40.5072 11.2475 41.063 11.118 41.6277 11.0454C41.6352 9.84847 41.6428 8.62878 41.6125 7.38635Z" fill="#7EADCE"/>
<path d="M16.2117 15.1515C15.8935 16.3257 15.5072 17.4697 15.1738 18.6288C16.6378 19.0617 18.1488 19.3161 19.6738 19.3863C19.6738 18.1818 19.7269 16.9621 19.7572 15.7424C18.557 15.6781 17.3678 15.4799 16.2117 15.1515Z" fill="#7EADCE"/>
<path d="M15.3629 6.37126C14.969 5.21217 14.6584 4.00763 14.1811 2.88641C13.2454 3.06408 12.3257 3.31744 11.4311 3.64399C10.9457 3.82007 10.4703 4.02239 10.0068 4.25005C10.9008 5.15914 11.7417 6.11369 12.6205 7.05308C13.51 6.7364 14.4286 6.50803 15.3629 6.37126Z" fill="#7EBEE2"/>
<path d="M7.99963 54.1667C9.30922 54.1667 10.3708 53.1051 10.3708 51.7955C10.3708 50.4859 9.30922 49.4243 7.99963 49.4243C6.69005 49.4243 5.62842 50.4859 5.62842 51.7955C5.62842 53.1051 6.69005 54.1667 7.99963 54.1667Z" fill="#7EBEE2"/>
<path d="M26.2789 9.78021C27.5885 9.78021 28.6501 8.71858 28.6501 7.40899C28.6501 6.09941 27.5885 5.03778 26.2789 5.03778C24.9693 5.03778 23.9077 6.09941 23.9077 7.40899C23.9077 8.71858 24.9693 9.78021 26.2789 9.78021Z" fill="#1871B9"/>
<path d="M37.6582 25.1592C37.6582 25.3031 36.6431 25.4243 35.3855 25.4243C34.1279 25.4243 33.1128 25.3031 33.1128 25.1592C33.1128 25.0153 34.1279 24.894 35.3855 24.894C36.6431 24.894 37.6582 25.0153 37.6582 25.1592Z" fill="url(#paint0_linear)"/>
<path d="M37.6582 23.947H33.1279V25.1591H37.6582V23.947Z" fill="url(#paint1_linear)"/>
<path d="M37.6582 23.947C37.6582 24.0985 36.6431 24.2121 35.3855 24.2121C34.1279 24.2121 33.1128 24.0985 33.1128 23.947C33.1128 23.7955 34.1279 23.6818 35.3855 23.6818C36.6431 23.6818 37.6582 23.803 37.6582 23.947Z" fill="url(#paint2_linear)"/>
<path d="M35.3942 17.4622C35.2704 17.4618 35.1503 17.5047 35.0548 17.5836C34.9594 17.6625 34.8945 17.7723 34.8715 17.894L33.7124 23.9546C34.2643 24.0757 34.8307 24.1165 35.3942 24.0758C35.9552 24.1163 36.5191 24.0755 37.0685 23.9546L35.9094 17.894C35.8866 17.7736 35.8229 17.6647 35.729 17.586C35.635 17.5073 35.5168 17.4635 35.3942 17.4622Z" fill="url(#paint3_linear)"/>
<path d="M30.0446 62.7425H34.181C34.4005 62.7523 34.6158 62.6802 34.7852 62.5402C34.9546 62.4002 35.0659 62.2023 35.0976 61.9849L35.6355 56.1288C35.6396 56.0106 35.6197 55.8928 35.5768 55.7825C35.5339 55.6723 35.469 55.5719 35.3861 55.4876C35.3031 55.4032 35.2039 55.3367 35.0944 55.2919C34.9849 55.2472 34.8674 55.2252 34.7491 55.2273H30.0446C29.8127 55.217 29.5862 55.2988 29.4144 55.455C29.2427 55.6111 29.1397 55.8288 29.1279 56.0606V61.9319C29.1454 62.1596 29.2509 62.3716 29.422 62.5229C29.5931 62.6742 29.8164 62.753 30.0446 62.7425Z" fill="#2F2F30"/>
<path d="M26.2109 62.7424H30.3472C30.5667 62.7522 30.7821 62.6802 30.9515 62.5402C31.1208 62.4002 31.2322 62.2023 31.2639 61.9848L31.7942 56.1288C31.7975 56.0085 31.7759 55.8889 31.7307 55.7775C31.6855 55.666 31.6177 55.5651 31.5316 55.4811C31.4455 55.3971 31.3429 55.3319 31.2303 55.2895C31.1178 55.2471 30.9976 55.2285 30.8775 55.2348H26.2109C25.9782 55.2245 25.7509 55.3061 25.5779 55.462C25.405 55.618 25.3003 55.8357 25.2866 56.0682V61.9318C25.306 62.1602 25.413 62.3722 25.5854 62.5234C25.7577 62.6745 25.9819 62.753 26.2109 62.7424Z" fill="#2F2F30"/>
<path d="M26.4158 62.2575H30.0143C30.2081 62.2705 30.3995 62.2086 30.5489 62.0846C30.6984 61.9605 30.7945 61.7838 30.8173 61.5909L31.2795 56.4924C31.2795 56.2915 31.1996 56.0988 31.0576 55.9567C30.9155 55.8146 30.7228 55.7348 30.5219 55.7348H26.4158C26.3157 55.7287 26.2153 55.7425 26.1206 55.7755C26.0258 55.8084 25.9386 55.8599 25.8639 55.9268C25.7892 55.9938 25.7285 56.0749 25.6854 56.1655C25.6423 56.2561 25.6176 56.3543 25.6128 56.4545V61.553C25.6264 61.7527 25.7185 61.9389 25.869 62.0709C26.0194 62.2029 26.216 62.27 26.4158 62.2575Z" fill="white"/>
<path d="M32.2113 62.197L34.2341 62.2955C34.4689 62.2955 34.6735 62.0227 34.7113 61.6515L35.2113 56.5682C35.2568 56.1515 35.0674 55.8106 34.8023 55.8106L32.5295 55.697C32.2795 55.697 32.0674 56 32.0447 56.4015L31.8098 61.4924C31.7795 61.8561 31.9689 62.1894 32.2113 62.197Z" fill="#E0E0E0"/>
<path d="M26.4992 61.9318C26.859 61.9318 27.1507 61.6401 27.1507 61.2803C27.1507 60.9205 26.859 60.6288 26.4992 60.6288C26.1393 60.6288 25.8477 60.9205 25.8477 61.2803C25.8477 61.6401 26.1393 61.9318 26.4992 61.9318Z" fill="#2F2F30"/>
<path d="M26.4992 57.2652C26.859 57.2652 27.1507 56.9736 27.1507 56.6137C27.1507 56.2539 26.859 55.9622 26.4992 55.9622C26.1393 55.9622 25.8477 56.2539 25.8477 56.6137C25.8477 56.9736 26.1393 57.2652 26.4992 57.2652Z" fill="#2F2F30"/>
<path d="M30.2487 57.2652C30.6085 57.2652 30.9002 56.9736 30.9002 56.6137C30.9002 56.2539 30.6085 55.9622 30.2487 55.9622C29.8889 55.9622 29.5972 56.2539 29.5972 56.6137C29.5972 56.9736 29.8889 57.2652 30.2487 57.2652Z" fill="#2F2F30"/>
<path d="M28.2335 59.4621C28.5934 59.4621 28.8851 59.1705 28.8851 58.8106C28.8851 58.4508 28.5934 58.1591 28.2335 58.1591C27.8737 58.1591 27.582 58.4508 27.582 58.8106C27.582 59.1705 27.8737 59.4621 28.2335 59.4621Z" fill="#2F2F30"/>
<path d="M29.8405 61.9318C30.2003 61.9318 30.492 61.6401 30.492 61.2803C30.492 60.9205 30.2003 60.6288 29.8405 60.6288C29.4807 60.6288 29.189 60.9205 29.189 61.2803C29.189 61.6401 29.4807 61.9318 29.8405 61.9318Z" fill="#2F2F30"/>
<path d="M33.5373 59.3181C33.8093 59.3181 34.0298 59.0807 34.0298 58.7878C34.0298 58.4949 33.8093 58.2575 33.5373 58.2575C33.2654 58.2575 33.0449 58.4949 33.0449 58.7878C33.0449 59.0807 33.2654 59.3181 33.5373 59.3181Z" fill="#2F2F30"/>
<path d="M34.0447 62.0682C34.3166 62.0682 34.5371 61.8308 34.5371 61.5379C34.5371 61.2451 34.3166 61.0076 34.0447 61.0076C33.7727 61.0076 33.5522 61.2451 33.5522 61.5379C33.5522 61.8308 33.7727 62.0682 34.0447 62.0682Z" fill="#2F2F30"/>
<path d="M32.697 57.0378C32.969 57.0378 33.1894 56.8004 33.1894 56.5075C33.1894 56.2146 32.969 55.9772 32.697 55.9772C32.4251 55.9772 32.2046 56.2146 32.2046 56.5075C32.2046 56.8004 32.4251 57.0378 32.697 57.0378Z" fill="#2F2F30"/>
<path d="M38.7497 64.3864H42.886C43.1056 64.3962 43.3209 64.3241 43.4903 64.1841C43.6597 64.0441 43.771 63.8462 43.8027 63.6288L44.3406 57.7803C44.345 57.6594 44.3241 57.539 44.2794 57.4266C44.2347 57.3142 44.1671 57.2124 44.0808 57.1276C43.9946 57.0428 43.8917 56.9769 43.7786 56.9341C43.6655 56.8912 43.5447 56.8724 43.4239 56.8788H38.7497C38.5178 56.8685 38.2913 56.9503 38.1195 57.1064C37.9478 57.2626 37.8448 57.4803 37.833 57.7121V63.5606C37.8467 63.7911 37.9505 64.0069 38.1221 64.1614C38.2936 64.3159 38.519 64.3967 38.7497 64.3864Z" fill="#2F2F30"/>
<path d="M34.9159 64.3864H39.0523C39.2718 64.3962 39.4872 64.3241 39.6565 64.1841C39.8259 64.0441 39.9373 63.8462 39.969 63.6288L40.4993 57.7803C40.5036 57.6594 40.4828 57.539 40.4381 57.4266C40.3934 57.3142 40.3257 57.2124 40.2395 57.1276C40.1533 57.0428 40.0504 56.9769 39.9373 56.9341C39.8242 56.8912 39.7034 56.8724 39.5826 56.8788H34.9159C34.6845 56.8684 34.4582 56.9489 34.2855 57.1033C34.1128 57.2576 34.0073 57.4734 33.9917 57.7045V63.553C34.0054 63.7855 34.11 64.0032 34.283 64.1592C34.4559 64.3151 34.6833 64.3967 34.9159 64.3864Z" fill="#2F2F30"/>
<path d="M35.1131 63.9016H38.7192C38.9117 63.9126 39.1012 63.8497 39.249 63.7259C39.3968 63.602 39.4918 63.4264 39.5146 63.2349L39.9767 58.144C39.9769 58.0413 39.9561 57.9396 39.9157 57.8451C39.8752 57.7506 39.816 57.6653 39.7416 57.5945C39.6672 57.5236 39.5792 57.4686 39.4828 57.4329C39.3865 57.3971 39.2839 57.3813 39.1813 57.3864H35.1131C35.0098 57.3802 34.9064 57.3952 34.8092 57.4305C34.712 57.4658 34.623 57.5206 34.5478 57.5916C34.4725 57.6626 34.4126 57.7482 34.3718 57.8432C34.3309 57.9382 34.3099 58.0406 34.3101 58.144V63.2425C34.3347 63.434 34.4316 63.6089 34.5808 63.7314C34.7301 63.8539 34.9205 63.9148 35.1131 63.9016Z" fill="white"/>
<path d="M40.923 63.8409L42.9382 63.9394C43.173 63.9394 43.3776 63.6666 43.4154 63.2954L43.9154 58.2121C43.9609 57.7954 43.7715 57.4545 43.5064 57.4545L41.2336 57.3409C40.9912 57.3409 40.7715 57.6439 40.7564 58.0454L40.5139 63.1363C40.4836 63.5 40.673 63.8333 40.923 63.8409Z" fill="#E0E0E0"/>
<path d="M35.2038 63.5757C35.5636 63.5757 35.8553 63.284 35.8553 62.9242C35.8553 62.5644 35.5636 62.2727 35.2038 62.2727C34.8439 62.2727 34.5522 62.5644 34.5522 62.9242C34.5522 63.284 34.8439 63.5757 35.2038 63.5757Z" fill="#2F2F30"/>
<path d="M35.2038 58.9091C35.5636 58.9091 35.8553 58.6174 35.8553 58.2576C35.8553 57.8978 35.5636 57.6061 35.2038 57.6061C34.8439 57.6061 34.5522 57.8978 34.5522 58.2576C34.5522 58.6174 34.8439 58.9091 35.2038 58.9091Z" fill="#2F2F30"/>
<path d="M38.9533 58.9091C39.3131 58.9091 39.6048 58.6174 39.6048 58.2576C39.6048 57.8978 39.3131 57.6061 38.9533 57.6061C38.5935 57.6061 38.3018 57.8978 38.3018 58.2576C38.3018 58.6174 38.5935 58.9091 38.9533 58.9091Z" fill="#2F2F30"/>
<path d="M35.1364 61.106C35.4962 61.106 35.7879 60.8143 35.7879 60.4545C35.7879 60.0947 35.4962 59.803 35.1364 59.803C34.7766 59.803 34.4849 60.0947 34.4849 60.4545C34.4849 60.8143 34.7766 61.106 35.1364 61.106Z" fill="#2F2F30"/>
<path d="M38.5377 61.106C38.8976 61.106 39.1893 60.8143 39.1893 60.4545C39.1893 60.0947 38.8976 59.803 38.5377 59.803C38.1779 59.803 37.8862 60.0947 37.8862 60.4545C37.8862 60.8143 38.1779 61.106 38.5377 61.106Z" fill="#2F2F30"/>
<path d="M38.5451 63.5757C38.9049 63.5757 39.1966 63.284 39.1966 62.9242C39.1966 62.5644 38.9049 62.2727 38.5451 62.2727C38.1852 62.2727 37.8936 62.5644 37.8936 62.9242C37.8936 63.284 38.1852 63.5757 38.5451 63.5757Z" fill="#2F2F30"/>
<path d="M43.2869 58.7727C43.5588 58.7727 43.7793 58.5353 43.7793 58.2424C43.7793 57.9495 43.5588 57.7121 43.2869 57.7121C43.0149 57.7121 42.7944 57.9495 42.7944 58.2424C42.7944 58.5353 43.0149 58.7727 43.2869 58.7727Z" fill="#2F2F30"/>
<path d="M42.7493 63.7121C43.0212 63.7121 43.2417 63.4747 43.2417 63.1818C43.2417 62.8889 43.0212 62.6515 42.7493 62.6515C42.4773 62.6515 42.2568 62.8889 42.2568 63.1818C42.2568 63.4747 42.4773 63.7121 42.7493 63.7121Z" fill="#2F2F30"/>
<path d="M41.3171 63.5454C41.5891 63.5454 41.8096 63.308 41.8096 63.0151C41.8096 62.7222 41.5891 62.4848 41.3171 62.4848C41.0452 62.4848 40.8247 62.7222 40.8247 63.0151C40.8247 63.308 41.0452 63.5454 41.3171 63.5454Z" fill="#2F2F30"/>
<path d="M41.4011 58.6819C41.6731 58.6819 41.8935 58.4445 41.8935 58.1516C41.8935 57.8587 41.6731 57.6213 41.4011 57.6213C41.1292 57.6213 40.9087 57.8587 40.9087 58.1516C40.9087 58.4445 41.1292 58.6819 41.4011 58.6819Z" fill="#2F2F30"/>
<defs>
<linearGradient id="paint0_linear" x1="36.1204" y1="31.8637" x2="35.484" y2="26.0077" gradientUnits="userSpaceOnUse">
<stop stop-color="#E2473D"/>
<stop offset="1" stop-color="#E9615A"/>
</linearGradient>
<linearGradient id="paint1_linear" x1="309.023" y1="84.9167" x2="308.748" y2="75.4443" gradientUnits="userSpaceOnUse">
<stop stop-color="#E2473D"/>
<stop offset="1" stop-color="#E9615A"/>
</linearGradient>
<linearGradient id="paint2_linear" x1="306.113" y1="44.5811" x2="306.294" y2="41.2361" gradientUnits="userSpaceOnUse">
<stop stop-color="#E2473D"/>
<stop offset="1" stop-color="#E9615A"/>
</linearGradient>
<linearGradient id="paint3_linear" x1="234.136" y1="291.568" x2="244.902" y2="228.694" gradientUnits="userSpaceOnUse">
<stop stop-color="#E2473D"/>
<stop offset="1" stop-color="#E9615A"/>
</linearGradient>
</defs>
</svg>
