<svg width="125" height="181" viewBox="0 0 125 181" fill="none" xmlns="http://www.w3.org/2000/svg">
<path d="M102.207 161.879L100.824 176.585L106.876 180.709H88.0241L82.144 158.422" fill="#FFE0C2"/>
<path d="M30.0631 161.879L31.4469 176.585L25.3945 180.709H44.2464L50.1319 158.422" fill="#FFE0C2"/>
<path d="M20.667 140.949C20.667 140.949 23.5047 169.143 42.2058 167.759C60.9069 166.375 67.0131 172.95 83.7219 172.95C100.431 172.95 121.043 170.354 113.02 140.949C104.997 111.543 59.3076 120.907 59.3076 120.907" fill="#75B1C9"/>
<path d="M28.7869 81.4637L20.5429 113.815C20.5429 113.815 18.7929 123.324 20.5429 142.354C20.5429 142.354 61.7413 129.899 112.874 142.354C112.874 142.354 117.414 90.8116 99.3589 68.6643C81.3039 46.517 28.7869 81.4637 28.7869 81.4637Z" fill="#75B1C9"/>
<path d="M28.9487 81.3776C27.3333 81.9161 21.4102 110.993 21.4102 110.993C104.388 102.723 92.5313 78.3676 92.5313 78.3676C92.5313 78.3676 30.5642 80.8391 28.9487 81.3776Z" fill="#FFD3AE"/>
<path d="M122.621 101.522C122.621 101.522 125.932 122.522 105.11 127.525C105.11 127.525 98.7235 140.658 94.2596 140.087C89.7957 139.516 86.7964 129.581 86.7964 129.581C86.7964 129.581 84.7017 133.017 80.7332 128.628C76.7647 124.24 104.507 105.824 106.311 90.7093C108.114 75.5944 120.289 85.3084 122.621 101.522Z" fill="#FFE0C2"/>
<path d="M22.8417 44.677C27.4246 42.7788 29.6009 37.5248 27.7026 32.9419C25.8043 28.359 20.5503 26.1828 15.9674 28.081C11.3846 29.9793 9.20829 35.2333 11.1066 39.8162C13.0049 44.399 18.2589 46.5753 22.8417 44.677Z" fill="#FFE0C2"/>
<path d="M28.185 38.0291C29.0997 34.1535 26.6995 30.2702 22.8239 29.3555C18.9484 28.4408 15.0651 30.841 14.1504 34.7166C13.2357 38.5922 15.6359 42.4754 19.5115 43.3902C23.387 44.3049 27.2703 41.9046 28.185 38.0291Z" fill="#FFD3AE"/>
<path d="M116.038 44.6744C120.62 42.7762 122.797 37.5222 120.898 32.9393C119 28.3564 113.746 26.1802 109.163 28.0785C104.58 29.9767 102.404 35.2307 104.302 39.8136C106.201 44.3964 111.455 46.5727 116.038 44.6744Z" fill="#FFE0C2"/>
<path d="M115.926 41.4764C118.742 38.6607 118.742 34.0955 115.926 31.2798C113.111 28.464 108.545 28.464 105.73 31.2798C102.914 34.0955 102.914 38.6607 105.73 41.4764C108.545 44.2921 113.111 44.2921 115.926 41.4764Z" fill="#FFD3AE"/>
<path d="M19.4016 42.9308C19.4016 42.9308 11.9653 1.46857 61.8816 1.46857C111.798 1.46857 113.925 42.9308 113.925 42.9308C113.925 42.9308 117.252 71.292 66.4693 71.292C15.6862 71.292 19.4016 42.9308 19.4016 42.9308Z" fill="#FFE0C2"/>
<path d="M40.4881 30.7991C42.4267 30.7982 44.3387 31.25 46.072 32.1183C46.3345 31.0049 46.4646 29.8644 46.4597 28.7206C46.4597 24.4936 44.7958 21.0635 42.7443 21.0635C40.6927 21.0635 39.0288 24.5205 39.0288 28.7206C39.0283 29.4412 39.0786 30.1609 39.1796 30.8744C39.6104 30.826 40.0465 30.7991 40.4881 30.7991Z" fill="#634E42"/>
<path d="M90.0055 30.7991C88.0668 30.7982 86.1548 31.25 84.4215 32.1183C84.1591 31.0049 84.0289 29.8644 84.0338 28.7206C84.0338 24.4936 85.6977 21.0635 87.7493 21.0635C89.8008 21.0635 91.4647 24.4936 91.4647 28.7206C91.4653 29.4412 91.4149 30.1609 91.3139 30.8744C90.8832 30.826 90.447 30.7991 90.0055 30.7991Z" fill="#634E42"/>
<path d="M19.0082 25.7536C19.0082 25.7536 18.8682 30.4006 22.0559 30.0021C25.2437 29.6037 25.906 24.9567 25.906 24.9567C25.906 24.9567 29.4868 24.0305 29.4868 20.4443C29.4868 20.4443 35.9969 10.8864 24.9744 10.4879C24.9744 10.4879 15.4166 6.90174 17.0105 18.0535C16.9943 18.0588 10.2526 23.7612 19.0082 25.7536Z" fill="#EFEFEF"/>
<path d="M111.227 25.7536C111.227 25.7536 111.362 30.4006 108.179 30.0021C104.997 29.6037 104.329 24.9567 104.329 24.9567C104.329 24.9567 100.743 24.0305 100.743 20.4443C100.743 20.4443 94.2383 10.8864 105.255 10.4879C105.255 10.4879 114.813 6.90174 113.225 18.0535C113.214 18.0588 119.972 23.7612 111.227 25.7536Z" fill="#EFEFEF"/>
<path d="M66.8192 38.8061V104.634L65.7423 104.833L64.6977 104.634C59.636 103.584 47.1274 100.24 46.4381 92.6262C46.4381 92.6262 27.344 90.677 26.6386 81.1191C26.6386 81.1191 7.87288 71.2005 16.1923 56.888C16.1923 56.888 15.4815 29.4529 21.1462 24.6713L21.857 27.4175C21.857 27.4175 31.614 34.213 30.1979 41.9939C30.1979 41.9939 40.8165 40.05 44.7366 47.4863C44.7366 47.4863 54.2944 37.1315 60.8422 37.4384C62.5074 37.4617 64.1651 37.6675 65.7854 38.0523V38.0523C67.0131 38.4238 66.8192 38.8061 66.8192 38.8061Z" fill="#EFEFEF"/>
<path d="M104.878 81.1191C104.173 90.677 85.073 92.6262 85.073 92.6262C84.3838 100.24 71.8751 103.584 66.8188 104.634L65.7419 104.833L64.6973 104.634V38.8061C64.6973 38.8061 64.498 38.4238 65.7419 38.0522C67.3712 37.6674 69.038 37.4633 70.712 37.4438C77.2598 37.1368 86.823 47.4916 86.823 47.4916C90.7162 40.0554 101.335 41.9992 101.335 41.9992C99.9186 34.213 109.654 27.3959 109.654 27.3959L110.37 24.6497C116.03 29.4313 115.324 56.8664 115.324 56.8664C123.638 71.2005 104.878 81.1191 104.878 81.1191Z" fill="#EFEFEF"/>
<path d="M75.4939 33.5237C75.1184 33.5225 74.7435 33.5549 74.3739 33.6206C72.8823 31.9083 70.0661 30.756 66.8353 30.756C63.6044 30.756 60.7667 31.9083 59.2967 33.6206C58.927 33.5552 58.5521 33.5227 58.1767 33.5237C55.7428 33.5237 53.772 34.7999 53.772 36.3776C53.772 37.9553 55.7428 39.2315 58.1767 39.2315C58.552 39.2298 58.9266 39.1974 59.2967 39.1346C60.7829 40.8415 63.6044 41.9939 66.8353 41.9939C70.0661 41.9939 72.8984 40.8415 74.3739 39.1346C74.7439 39.1976 75.1185 39.23 75.4939 39.2315C77.9224 39.2315 79.8932 37.9499 79.8932 36.3776C79.8932 34.8053 77.9224 33.5237 75.4939 33.5237Z" fill="#FFD3AE"/>
<path d="M80.0441 11.0587C80.0441 11.0587 77.5672 3.19707 85.8704 1.00011C94.1736 -1.19685 96.1875 8.00023 96.1875 8.00023C96.1875 8.00023 90.4851 4.03708 86.9096 4.98479C83.3342 5.9325 82.3111 6.78867 80.0441 11.0587Z" fill="#EFEFEF"/>
<path d="M33.752 7.28944C33.752 7.28944 34.6943 -0.927623 43.1752 0.445477C51.6561 1.81858 49.7445 11.0587 49.7445 11.0587C49.7445 11.0587 46.1529 5.13555 42.5021 4.52708C38.8513 3.91861 37.5536 4.30093 33.752 7.28944Z" fill="#EFEFEF"/>
<path d="M12.2021 96.7401C12.2021 96.7401 -5.31971 84.6946 5.3797 66.1389C5.3797 66.1389 0.24269 52.4671 3.72659 49.624C7.2105 46.7809 16.4883 51.444 16.4883 51.444C16.4883 51.444 15.4114 47.5562 21.3346 47.6747C27.2578 47.7932 15.4922 71.1628 29.3309 82.6753C38.6841 90.4939 24.1562 103.988 12.2021 96.7401Z" fill="#FFE0C2"/>
<path d="M19.7064 12.2527L19.4427 12.6042C19.0754 13.094 18.3115 12.9625 18.124 12.3798C17.6155 10.7987 16.4506 8.21287 13.8793 5.8834C13.596 5.62672 13.1598 5.62672 12.8765 5.8834C10.3052 8.213 9.14016 10.7987 8.63178 12.3798C8.44443 12.9625 7.68037 13.094 7.31305 12.6042L7.04935 12.2527C6.74761 11.8503 6.14575 11.8538 5.84338 12.2556C-3.00154 24.012 4.05157 32.0726 4.05157 32.0726H13.3778H22.7041C22.7041 32.0726 29.7572 24.0119 20.9123 12.2556C20.61 11.8538 20.0082 11.8503 19.7064 12.2527Z" fill="#FF4F19"/>
<path d="M22.7041 32.0727H20.3141C20.3141 32.0727 27.1146 24.302 18.9873 12.8908C19.1591 12.8585 19.3232 12.7656 19.4434 12.604L19.7069 12.2526C20.0079 11.8508 20.6099 11.8533 20.9123 12.2552C29.7577 24.0127 22.7041 32.0727 22.7041 32.0727Z" fill="#E23D17"/>
<path d="M26.0909 32.7152C26.0871 32.36 25.7993 32.0728 25.4441 32.0728H17.1758H13.3784H13.3776H10.4344H1.3119C0.95672 32.0728 0.668869 32.3601 0.665114 32.7152C0.599284 38.961 6.32515 41.2451 6.32515 41.2451H10.4344H13.378H17.1758H20.431C20.4309 41.2451 26.1567 38.961 26.0909 32.7152Z" fill="#B7C1CA"/>
<path d="M26.091 32.7148C26.1568 38.961 20.43 41.2451 20.43 41.2451H17.9844C17.9844 41.2451 23.71 38.961 23.6442 32.7148C23.6403 32.3595 23.3522 32.0728 22.9969 32.0728H25.4437C25.799 32.0728 26.0871 32.3595 26.091 32.7148Z" fill="#A3AEB7"/>
<path d="M13.3781 41.2451H13.3777H6.40186L9.37849 65.5859C9.67272 67.9926 11.3185 69.769 13.2538 69.769H13.5021C15.4374 69.769 17.0833 67.9926 17.3775 65.586L20.3541 41.2452H13.3781V41.2451Z" fill="#B7C1CA"/>
<path d="M20.354 41.2451L17.3775 65.5854C17.0829 67.9922 15.4372 69.7685 13.5019 69.7685H13.2539C12.8895 69.7685 12.5369 69.7052 12.1997 69.5877C13.6517 69.0787 14.7822 67.54 15.0211 65.5854L17.9977 41.2451H20.354Z" fill="#A3AEB7"/>
<path d="M12.8092 20.1929C5.47948 25.5146 10.3342 32.0727 10.3342 32.0727H13.3777H16.4213C16.4213 32.0727 21.276 25.5146 13.9463 20.1929C13.6124 19.9502 13.1433 19.9502 12.8092 20.1929Z" fill="#FF961D"/>
<path d="M16.4216 32.0728H14.3934C14.3934 32.0728 19.0468 25.7877 12.3638 20.5285C12.5072 20.4162 12.6557 20.3038 12.8094 20.1926C13.1427 19.9497 13.613 19.9497 13.9463 20.1926C21.2764 25.5151 16.4216 32.0728 16.4216 32.0728Z" fill="#EF8318"/>
<path d="M20.6637 51.9012H6.09216C4.63864 51.9012 3.46045 50.7229 3.46045 49.2695C3.46045 47.8161 4.63876 46.6378 6.09216 46.6378H20.6638C22.1173 46.6378 23.2955 47.8161 23.2955 49.2695C23.2954 50.7229 22.1172 51.9012 20.6637 51.9012Z" fill="#FF961D"/>
<path d="M23.296 49.269C23.296 49.9964 23.0014 50.6539 22.5248 51.1292C22.0494 51.606 21.3906 51.9004 20.6646 51.9004H18.7267C19.4527 51.9004 20.1116 51.606 20.587 51.1292C21.0637 50.6538 21.3582 49.9962 21.3582 49.269C21.3582 47.8156 20.18 46.6374 18.7266 46.6374H20.6644C22.1178 46.6374 23.296 47.8156 23.296 49.269Z" fill="#EF8318"/>
</svg>
