<svg width="61" height="61" viewBox="0 0 61 61" fill="none" xmlns="http://www.w3.org/2000/svg">
<path d="M30.5 0.5C13.9291 0.5 0.5 13.9291 0.5 30.5C0.5 39.4409 4.40945 47.4724 10.622 52.9764C15.9252 57.6535 22.8819 60.5 30.5 60.5C38.1299 60.5 45.0866 57.6535 50.378 52.9646C56.5905 47.4724 60.5 39.4409 60.5 30.5C60.5 13.9291 47.0709 0.5 30.5 0.5Z" fill="#22BAAF"/>
<mask id="mask0_1944_5880" style="mask-type:alpha" maskUnits="userSpaceOnUse" x="0" y="0" width="61" height="61">
<path d="M30.5 0.5C13.9291 0.5 0.5 13.9291 0.5 30.5C0.5 39.4409 4.40945 47.4724 10.622 52.9764C15.9252 57.6535 22.8819 60.5 30.5 60.5C38.1299 60.5 45.0866 57.6535 50.378 52.9646C56.5905 47.4724 60.5 39.4409 60.5 30.5C60.5 13.9291 47.0709 0.5 30.5 0.5Z" fill="white"/>
</mask>
<g mask="url(#mask0_1944_5880)">
<path d="M42.9562 61.529L42.4807 66.5826L44.5605 68H38.0822L36.0615 60.3411" fill="#FFE0C2"/>
<path d="M18.1639 61.529L18.6395 66.5826L16.5596 68H23.0379L25.0604 60.3411" fill="#FFE0C2"/>
<path d="M14.9351 54.3365C14.9351 54.3365 15.9102 64.0253 22.3368 63.5498C28.7633 63.0742 30.8617 65.3336 36.6036 65.3336C42.3455 65.3336 49.4289 64.4417 46.6718 54.3365C43.9146 44.2313 28.2137 47.4492 28.2137 47.4492" fill="#3F85A2"/>
<path d="M17.7255 33.8948L14.8925 45.0121C14.8925 45.0121 14.2911 48.28 14.8925 54.8194C14.8925 54.8194 29.0502 50.5394 46.6218 54.8194C46.6218 54.8194 48.1818 37.1071 41.9773 29.4963C35.7728 21.8855 17.7255 33.8948 17.7255 33.8948Z" fill="#3F85A2"/>
<path d="M17.781 33.8651C17.2259 34.0501 15.1904 44.0424 15.1904 44.0424C43.7055 41.2002 39.6309 32.8307 39.6309 32.8307C39.6309 32.8307 18.3362 33.68 17.781 33.8651Z" fill="#FFD3AE"/>
<path d="M49.9712 40.7876C49.9712 40.7876 51.1092 48.0043 43.9536 49.7233C43.9536 49.7233 41.759 54.2365 40.225 54.0404C38.691 53.8442 37.6603 50.4302 37.6603 50.4302C37.6603 50.4302 36.9405 51.6108 35.5767 50.1027C34.2129 48.5946 43.7463 42.2661 44.3662 37.0719C44.9861 31.8778 49.1699 35.216 49.9712 40.7876Z" fill="#FFE0C2"/>
<path d="M15.6824 21.2532C17.2573 20.6008 18.0051 18.7953 17.3528 17.2205C16.7005 15.6456 14.895 14.8977 13.3201 15.55C11.7452 16.2024 10.9973 18.0079 11.6497 19.5828C12.302 21.1576 14.1075 21.9055 15.6824 21.2532Z" fill="#FFE0C2"/>
<path d="M17.5186 18.9687C17.8329 17.6369 17.0081 16.3024 15.6762 15.988C14.3444 15.6737 13.01 16.4985 12.6956 17.8304C12.3813 19.1622 13.2061 20.4966 14.5379 20.811C15.8697 21.1253 17.2042 20.3005 17.5186 18.9687Z" fill="#FFD3AE"/>
<path d="M47.7088 21.2522C49.2836 20.5999 50.0315 18.7944 49.3792 17.2195C48.7268 15.6446 46.9213 14.8967 45.3464 15.5491C43.7716 16.2014 43.0237 18.0069 43.676 19.5818C44.3284 21.1567 46.1339 21.9045 47.7088 21.2522Z" fill="#FFE0C2"/>
<path d="M47.6706 20.1534C48.6382 19.1858 48.6382 17.617 47.6706 16.6494C46.703 15.6817 45.1342 15.6817 44.1666 16.6494C43.199 17.617 43.199 19.1858 44.1666 20.1534C45.1342 21.121 46.703 21.121 47.6706 20.1534Z" fill="#FFD3AE"/>
<path d="M14.5001 20.6531C14.5001 20.6531 11.9447 6.40479 29.0982 6.40479C46.2517 6.40479 46.9826 20.6531 46.9826 20.6531C46.9826 20.6531 48.1261 30.3993 30.6747 30.3993C13.2233 30.3993 14.5001 20.6531 14.5001 20.6531Z" fill="#FFE0C2"/>
<path d="M21.7466 16.484C22.4128 16.4837 23.0698 16.639 23.6655 16.9374C23.7557 16.5547 23.8004 16.1628 23.7987 15.7697C23.7987 14.3172 23.2269 13.1384 22.5219 13.1384C21.8169 13.1384 21.2451 14.3264 21.2451 15.7697C21.2449 16.0174 21.2622 16.2647 21.2969 16.5099C21.445 16.4933 21.5948 16.484 21.7466 16.484Z" fill="#634E42"/>
<path d="M38.7629 16.484C38.0967 16.4837 37.4396 16.639 36.844 16.9374C36.7538 16.5547 36.7091 16.1628 36.7107 15.7697C36.7107 14.3172 37.2825 13.1384 37.9875 13.1384C38.6925 13.1384 39.2643 14.3172 39.2643 15.7697C39.2645 16.0174 39.2472 16.2647 39.2125 16.5099C39.0645 16.4933 38.9146 16.484 38.7629 16.484Z" fill="#634E42"/>
<path d="M14.3651 14.7502C14.3651 14.7502 14.317 16.3471 15.4125 16.2102C16.5079 16.0733 16.7355 14.4763 16.7355 14.4763C16.7355 14.4763 17.9661 14.1581 17.9661 12.9257C17.9661 12.9257 20.2032 9.64117 16.4154 9.50424C16.4154 9.50424 13.1309 8.27186 13.6786 12.1041C13.6731 12.1059 11.3563 14.0656 14.3651 14.7502Z" fill="#EFEFEF"/>
<path d="M46.0556 14.7502C46.0556 14.7502 46.1019 16.3471 45.0083 16.2102C43.9147 16.0733 43.6852 14.4763 43.6852 14.4763C43.6852 14.4763 42.4528 14.1581 42.4528 12.9257C42.4528 12.9257 40.2175 9.64117 44.0035 9.50424C44.0035 9.50424 47.288 8.27186 46.7421 12.1041C46.7384 12.1059 49.0607 14.0656 46.0556 14.7502Z" fill="#EFEFEF"/>
<path d="M30.795 19.2357V41.8572L30.4249 41.9256L30.066 41.8572C28.3266 41.4963 24.028 40.3472 23.7912 37.7307C23.7912 37.7307 17.2295 37.0609 16.9871 33.7763C16.9871 33.7763 10.5384 30.3679 13.3973 25.4494C13.3973 25.4494 13.153 16.0215 15.0997 14.3783L15.344 15.322C15.344 15.322 18.6969 17.6573 18.2103 20.3311C18.2103 20.3311 21.8593 19.6631 23.2064 22.2186C23.2064 22.2186 26.4909 18.6602 28.7411 18.7657C29.3133 18.7737 29.8829 18.8444 30.4398 18.9766C30.8617 19.1043 30.795 19.2357 30.795 19.2357Z" fill="#EFEFEF"/>
<path d="M43.8739 33.7763C43.6315 37.0608 37.0681 37.7307 37.0681 37.7307C36.8312 40.3472 32.5327 41.4963 30.7951 41.8571L30.425 41.9256L30.066 41.8571V19.2356C30.066 19.2356 29.9976 19.1042 30.425 18.9766C30.9849 18.8443 31.5577 18.7742 32.133 18.7675C34.3831 18.662 37.6695 22.2204 37.6695 22.2204C39.0073 19.6649 42.6564 20.3329 42.6564 20.3329C42.1697 17.6572 45.5153 15.3146 45.5153 15.3146L45.7614 14.3708C47.7062 16.014 47.4638 25.442 47.4638 25.442C50.3208 30.3678 43.8739 33.7763 43.8739 33.7763Z" fill="#EFEFEF"/>
<path d="M33.7762 17.4204C33.6471 17.4199 33.5183 17.4311 33.3913 17.4537C32.8787 16.8652 31.9109 16.4692 30.8007 16.4692C29.6904 16.4692 28.7152 16.8652 28.2101 17.4537C28.083 17.4312 27.9542 17.42 27.8252 17.4204C26.9888 17.4204 26.3115 17.8589 26.3115 18.4011C26.3115 18.9433 26.9888 19.3818 27.8252 19.3818C27.9542 19.3812 28.0829 19.3701 28.2101 19.3485C28.7208 19.9351 29.6904 20.3311 30.8007 20.3311C31.9109 20.3311 32.8842 19.9351 33.3913 19.3485C33.5184 19.3702 33.6472 19.3813 33.7762 19.3818C34.6107 19.3818 35.288 18.9414 35.288 18.4011C35.288 17.8608 34.6107 17.4204 33.7762 17.4204Z" fill="#FFD3AE"/>
<path d="M35.3398 9.70033C35.3398 9.70033 34.4886 6.9987 37.342 6.24373C40.1953 5.48875 40.8874 8.64929 40.8874 8.64929C40.8874 8.64929 38.9278 7.28737 37.6991 7.61305C36.4704 7.93872 36.1188 8.23294 35.3398 9.70033Z" fill="#EFEFEF"/>
<path d="M19.4316 8.40507C19.4316 8.40507 19.7555 5.58131 22.6699 6.05317C25.5843 6.52503 24.9274 9.70037 24.9274 9.70037C24.9274 9.70037 23.6932 7.6649 22.4386 7.4558C21.184 7.2467 20.738 7.37808 19.4316 8.40507Z" fill="#EFEFEF"/>
<path d="M12.0261 39.1445C12.0261 39.1445 6.00482 35.0051 9.68163 28.6285C9.68163 28.6285 7.91632 23.9303 9.11355 22.9532C10.3108 21.9762 13.4991 23.5787 13.4991 23.5787C13.4991 23.5787 13.129 22.2427 15.1644 22.2834C17.1999 22.3241 13.1567 30.355 17.9123 34.3112C21.1265 36.998 16.1341 41.6352 12.0261 39.1445Z" fill="#FFE0C2"/>
<path d="M14.6049 10.1106L14.5143 10.2315C14.388 10.3997 14.1255 10.3546 14.0611 10.1543C13.8864 9.61097 13.486 8.72238 12.6024 7.92187C12.5051 7.83366 12.3552 7.83366 12.2578 7.92187C11.3742 8.72242 10.9738 9.61097 10.7991 10.1543C10.7348 10.3546 10.4722 10.3997 10.346 10.2315L10.2553 10.1106C10.1516 9.97237 9.94482 9.97358 9.84091 10.1116C6.8014 14.1517 9.22517 16.9217 9.22517 16.9217H12.4301H15.635C15.635 16.9217 18.0588 14.1516 15.0193 10.1116C14.9154 9.97358 14.7086 9.97237 14.6049 10.1106Z" fill="#FF4F19"/>
<path d="M15.6352 16.9217H14.8138C14.8138 16.9217 17.1508 14.2513 14.3579 10.3299C14.417 10.3188 14.4733 10.2868 14.5146 10.2313L14.6052 10.1106C14.7086 9.9725 14.9155 9.97336 15.0194 10.1115C18.0591 14.1519 15.6352 16.9217 15.6352 16.9217Z" fill="#E23D17"/>
<path d="M16.7989 17.1425C16.7976 17.0205 16.6987 16.9218 16.5767 16.9218H13.7353H12.4303H12.4301H11.4186H8.28374C8.16168 16.9218 8.06276 17.0205 8.06147 17.1425C8.03885 19.2889 10.0065 20.0738 10.0065 20.0738H11.4186H12.4302H13.7353H14.8539C14.8539 20.0738 16.8215 19.2889 16.7989 17.1425Z" fill="#B7C1CA"/>
<path d="M16.799 17.1424C16.8216 19.2889 14.8536 20.0738 14.8536 20.0738H14.0132C14.0132 20.0738 15.9808 19.2889 15.9581 17.1424C15.9568 17.0203 15.8578 16.9218 15.7357 16.9218H16.5766C16.6987 16.9218 16.7977 17.0203 16.799 17.1424Z" fill="#A3AEB7"/>
<path d="M12.4303 20.0737H12.4302H10.033L11.0559 28.4383C11.157 29.2654 11.7225 29.8759 12.3876 29.8759H12.4729C13.138 29.8759 13.7036 29.2654 13.8047 28.4384L14.8276 20.0738H12.4303V20.0737Z" fill="#B7C1CA"/>
<path d="M14.8273 20.0737L13.8045 28.4382C13.7032 29.2653 13.1377 29.8757 12.4726 29.8757H12.3874C12.2622 29.8757 12.141 29.8539 12.0251 29.8135C12.5241 29.6386 12.9126 29.1099 12.9947 28.4382L14.0176 20.0737H14.8273Z" fill="#A3AEB7"/>
<path d="M12.2348 12.8393C9.71594 14.6681 11.3842 16.9217 11.3842 16.9217H12.4301H13.4761C13.4761 16.9217 15.1444 14.6681 12.6255 12.8393C12.5108 12.7559 12.3496 12.7559 12.2348 12.8393Z" fill="#FF961D"/>
<path d="M13.476 16.9218H12.779C12.779 16.9218 14.3781 14.7619 12.0815 12.9547C12.1308 12.916 12.1819 12.8774 12.2347 12.8392C12.3492 12.7557 12.5109 12.7557 12.6254 12.8392C15.1443 14.6683 13.476 16.9218 13.476 16.9218Z" fill="#EF8318"/>
<path d="M14.934 23.7356H9.92659C9.4271 23.7356 9.02222 23.3307 9.02222 22.8313C9.02222 22.3318 9.42714 21.9269 9.92659 21.9269H14.9341C15.4336 21.9269 15.8385 22.3318 15.8385 22.8313C15.8384 23.3307 15.4335 23.7356 14.934 23.7356Z" fill="#FF961D"/>
<path d="M15.8383 22.8311C15.8383 23.0811 15.7371 23.307 15.5733 23.4704C15.4099 23.6342 15.1835 23.7354 14.934 23.7354H14.2681C14.5176 23.7354 14.744 23.6342 14.9074 23.4704C15.0712 23.307 15.1724 23.081 15.1724 22.8311C15.1724 22.3316 14.7675 21.9268 14.2681 21.9268H14.934C15.4335 21.9268 15.8383 22.3316 15.8383 22.8311Z" fill="#EF8318"/>
</g>
</svg>
