<svg width="308" height="61" viewBox="0 0 308 61" fill="none" xmlns="http://www.w3.org/2000/svg">
<g clip-path="url(#clip0)">
<path d="M170.883 7.51953V32.7221" stroke="#3F3F3F" stroke-width="2" stroke-miterlimit="10" stroke-linecap="round"/>
<path d="M178.237 7.51953V32.7221" stroke="#3F3F3F" stroke-width="2" stroke-miterlimit="10" stroke-linecap="round"/>
<path d="M174.56 0.642303V39.597" stroke="#3F3F3F" stroke-width="2" stroke-miterlimit="10" stroke-linecap="round"/>
<path d="M207.667 3.32318L202.615 18.0473H200.943L196.55 5.48913L192.124 18.0473H190.474L185.422 3.32318H187.052L191.382 15.987L195.863 3.32318H197.343L201.758 16.0495L206.151 3.33396L207.667 3.32318Z" fill="#3F3F3F"/>
<path d="M211.092 3.32318H212.677V18.0473H211.092V3.32318Z" fill="#3F3F3F"/>
<path d="M221.022 4.67016H215.75V3.32318H227.887V4.67016H222.615V18.0473H221.027L221.022 4.67016Z" fill="#3F3F3F"/>
<path d="M243.491 3.32318V18.0473H241.925V11.2521H232.535V18.0473H230.949V3.32318H232.535V9.88568H241.925V3.32318H243.491Z" fill="#3F3F3F"/>
<path d="M187.889 36.5127C186.93 36.2659 186.026 35.8488 185.22 35.2821L186.4 32.7153C187.096 33.2068 187.868 33.5852 188.686 33.836C189.545 34.1117 190.443 34.2536 191.347 34.2562C192.333 34.2562 193.062 34.114 193.543 33.8252C193.756 33.7157 193.935 33.551 194.06 33.3488C194.185 33.1467 194.251 32.9149 194.25 32.6786C194.251 32.5134 194.214 32.3501 194.142 32.2008C194.07 32.0516 193.964 31.9202 193.833 31.8166C193.515 31.5657 193.151 31.377 192.761 31.2605C192.322 31.1168 191.736 30.9624 191.004 30.7972C190.052 30.5859 189.114 30.3189 188.194 29.9976C187.467 29.7304 186.821 29.2853 186.319 28.7045C185.799 28.114 185.538 27.3288 185.537 26.3489C185.527 25.5214 185.774 24.7107 186.244 24.0235C186.776 23.2817 187.517 22.708 188.377 22.3726C189.479 21.9408 190.659 21.7347 191.845 21.767C192.792 21.7657 193.736 21.8787 194.655 22.1032C195.501 22.2969 196.311 22.6198 197.055 23.0601L195.983 25.6463C194.724 24.9094 193.289 24.5103 191.823 24.489C190.852 24.489 190.135 24.6427 189.671 24.9502C189.456 25.0769 189.279 25.2562 189.156 25.4705C189.034 25.6847 188.97 25.9265 188.972 26.1722C188.972 26.6765 189.24 27.0515 189.776 27.2972C190.567 27.6188 191.39 27.86 192.232 28.017C193.183 28.2292 194.12 28.4962 195.039 28.8166C195.761 29.0785 196.406 29.5125 196.915 30.0795C197.438 30.6542 197.699 31.4322 197.699 32.4135C197.705 33.2355 197.455 34.0396 196.981 34.7174C196.439 35.4597 195.691 36.033 194.826 36.3683C193.713 36.8065 192.521 37.0163 191.322 36.9847C190.161 36.9868 189.005 36.8279 187.889 36.5127Z" fill="#3F3F3F"/>
<path d="M203.669 35.9916C202.453 35.3663 201.437 34.4236 200.733 33.2674C200.037 32.0805 199.672 30.7355 199.672 29.3666C199.672 27.9976 200.037 26.6526 200.733 25.4657C201.438 24.3101 202.454 23.3675 203.669 22.7416C204.973 22.0912 206.415 21.7522 207.877 21.7522C209.339 21.7522 210.781 22.0912 212.084 22.7416C213.308 23.382 214.332 24.3367 215.045 25.5036C215.759 26.6705 216.136 28.0058 216.136 29.3666C216.136 30.7274 215.759 32.0626 215.045 33.2295C214.332 34.3964 213.308 35.3511 212.084 35.9916C210.781 36.6419 209.339 36.9809 207.877 36.9809C206.415 36.9809 204.973 36.6419 203.669 35.9916ZM210.283 33.4786C210.992 33.0866 211.576 32.5091 211.97 31.8105C212.37 31.0586 212.579 30.2232 212.579 29.3752C212.579 28.5272 212.37 27.6917 211.97 26.9398C211.578 26.2402 210.996 25.6612 210.288 25.2674C209.55 24.8743 208.725 24.6684 207.886 24.6684C207.047 24.6684 206.221 24.8743 205.484 25.2674C204.776 25.6612 204.193 26.2402 203.801 26.9398C203.4 27.6928 203.191 28.5299 203.191 29.3795C203.191 30.2291 203.4 31.0661 203.801 31.8191C204.193 32.5188 204.776 33.0977 205.484 33.4916C206.221 33.8846 207.047 34.0906 207.886 34.0906C208.725 34.0906 209.55 33.8846 210.288 33.4916L210.283 33.4786Z" fill="#3F3F3F"/>
<path d="M222.277 36.0063C221.069 35.382 220.061 34.4431 219.362 33.2929C218.666 32.0982 218.301 30.7463 218.301 29.3705C218.301 27.9947 218.666 26.6428 219.362 25.4481C220.061 24.2979 221.069 23.359 222.277 22.7347C223.562 22.0702 224.997 21.7337 226.45 21.7563C227.656 21.7402 228.853 21.9692 229.965 22.4287C230.991 22.8622 231.898 23.5267 232.614 24.3684L230.384 26.3878C229.927 25.841 229.351 25.402 228.698 25.1036C228.044 24.8051 227.331 24.6547 226.61 24.6636C225.743 24.6478 224.885 24.8543 224.124 25.2628C223.406 25.6506 222.815 26.2305 222.419 26.9352C222.017 27.6877 221.806 28.5249 221.806 29.3748C221.806 30.2247 222.017 31.0619 222.419 31.8145C222.815 32.5191 223.406 33.0991 224.124 33.4869C224.886 33.8944 225.743 34.1009 226.61 34.086C227.333 34.0942 228.048 33.9413 228.702 33.6389C229.355 33.3365 229.931 32.8925 230.384 32.3403L232.614 34.3597C231.901 35.2135 230.988 35.885 229.954 36.3166C228.834 36.777 227.63 37.0059 226.417 36.989C224.975 37.0067 223.551 36.6688 222.277 36.0063Z" fill="#3F3F3F"/>
<path d="M245.055 36.7328L242.162 32.6379H238.966V36.7328H235.493V22.0086H241.991C243.178 21.9794 244.359 22.1998 245.452 22.6552C246.374 23.0421 247.16 23.6848 247.715 24.5043C248.257 25.3545 248.533 26.3422 248.508 27.3448C248.548 28.3383 248.272 29.3194 247.719 30.1523C247.166 30.9852 246.362 31.6286 245.419 31.9935L248.787 36.7349L245.055 36.7328ZM244.176 25.4483C243.634 25.0058 242.841 24.7845 241.797 24.7845H238.966V29.9181H241.797C242.841 29.9181 243.634 29.694 244.176 29.2457C244.719 28.7953 244.991 28.1681 244.991 27.3513C244.991 26.5345 244.719 25.8901 244.176 25.4483Z" fill="#3F3F3F"/>
<path d="M261.67 33.5775H254.702L253.384 36.7327H249.826L256.515 22.0086H259.946L266.656 36.7327H263.01L261.67 33.5775ZM260.572 30.9913L258.193 25.3534L255.814 30.9913H260.572Z" fill="#3F3F3F"/>
<path d="M271.104 24.7844H266.3V22.0086H279.379V24.7844H274.573V36.7327H271.1L271.104 24.7844Z" fill="#3F3F3F"/>
<path d="M293.399 33.9978V36.7327H281.78V22.0086H293.12V24.7435H285.23V27.9396H292.198V30.5905H285.23V33.9978H293.399Z" fill="#3F3F3F"/>
<path d="M298.19 36.5131C297.231 36.2663 296.327 35.8492 295.521 35.2825L296.701 32.7157C297.399 33.2056 298.174 33.5818 298.994 33.83C299.853 34.1057 300.75 34.2476 301.654 34.2502C302.638 34.2502 303.367 34.108 303.851 33.8192C304.064 33.7097 304.243 33.545 304.367 33.3428C304.492 33.1407 304.558 32.9089 304.558 32.6726C304.559 32.5074 304.522 32.3441 304.45 32.1948C304.377 32.0456 304.272 31.9142 304.141 31.8106C303.823 31.5597 303.459 31.371 303.069 31.2545C302.629 31.1108 302.044 30.9564 301.311 30.7912C300.359 30.5799 299.421 30.3129 298.502 29.9916C297.775 29.7244 297.129 29.2793 296.626 28.6985C296.106 28.108 295.846 27.3228 295.844 26.3429C295.835 25.5154 296.082 24.7047 296.551 24.0175C297.084 23.2757 297.825 22.702 298.684 22.3666C299.791 21.931 300.976 21.7234 302.168 21.7567C303.115 21.7554 304.059 21.8683 304.977 22.0929C305.824 22.2904 306.634 22.6169 307.378 23.0606L306.306 25.6468C305.047 24.9101 303.612 24.511 302.146 24.4894C301.175 24.4894 300.457 24.6432 299.991 24.9506C299.777 25.0778 299.601 25.2573 299.479 25.4715C299.357 25.6856 299.293 25.9272 299.295 26.1726C299.295 26.6769 299.563 27.0519 300.099 27.2976C300.89 27.6207 301.713 27.8633 302.555 28.0218C303.505 28.2343 304.443 28.5012 305.362 28.8213C306.084 29.0833 306.729 29.5173 307.238 30.0843C307.76 30.659 308.022 31.437 308.022 32.4183C308.028 33.2403 307.777 34.0444 307.304 34.7222C306.762 35.4645 306.014 36.0378 305.149 36.3731C304.038 36.8075 302.849 37.0151 301.654 36.983C300.482 36.9888 299.316 36.8306 298.19 36.5131Z" fill="#3F3F3F"/>
<path d="M5.5443 49.0988C6.26613 49.0855 6.97618 49.2795 7.58711 49.6569C8.18903 50.035 8.67793 50.5631 9.00391 51.1871C9.35089 51.8856 9.53121 52.6525 9.53121 53.4296C9.53121 54.2066 9.35089 54.9735 9.00391 55.672C8.67671 56.3025 8.18571 56.837 7.58052 57.2216C6.97817 57.5989 6.27648 57.7952 5.56187 57.7862C5.17837 57.7884 4.79706 57.7294 4.43283 57.6117C3.74364 57.3917 3.13358 56.9817 2.67556 56.4306C2.45061 56.1621 2.26775 55.8621 2.13301 55.5406L2.43833 55.325V60.4974C2.4389 60.5622 2.42638 60.6263 2.4015 60.6863C2.37661 60.7462 2.33986 60.8007 2.29336 60.8466C2.24687 60.8956 2.19035 60.9343 2.1275 60.9603C2.06466 60.9863 1.99691 60.999 1.92873 60.9974C1.86054 60.999 1.79279 60.9863 1.72995 60.9603C1.6671 60.9343 1.61058 60.8956 1.56409 60.8466C1.51759 60.8007 1.48084 60.7462 1.45595 60.6863C1.43107 60.6263 1.41855 60.5622 1.41912 60.4974V49.6483C1.41564 49.5137 1.46431 49.3828 1.55531 49.2819C1.6025 49.2315 1.6604 49.1919 1.72493 49.1658C1.78945 49.1397 1.85902 49.1279 1.92873 49.1311C1.99691 49.1296 2.06466 49.1422 2.1275 49.1682C2.19035 49.1942 2.24687 49.233 2.29336 49.2819C2.34098 49.3306 2.37832 49.388 2.4032 49.4509C2.42808 49.5138 2.44002 49.5809 2.43833 49.6483V51.4457L2.19671 51.3121C2.30618 50.9771 2.47578 50.664 2.69753 50.3875C3.14322 49.84 3.75105 49.4417 4.43722 49.2475C4.79721 49.1467 5.16996 49.0967 5.5443 49.0988ZM5.45863 50.0298C4.88941 50.0191 4.32954 50.1728 3.84854 50.4716C3.38004 50.7677 3.00083 51.1815 2.75025 51.6699C2.47532 52.2153 2.33891 52.818 2.35267 53.4263C2.34202 54.0365 2.47824 54.6405 2.75025 55.1893C2.99488 55.6885 3.37485 56.112 3.84854 56.4134C4.32911 56.7132 4.88928 56.8669 5.45863 56.8552C6.02034 56.8663 6.57262 56.7125 7.04456 56.4134C7.51548 56.1089 7.89471 55.6862 8.14285 55.1893C8.42138 54.6423 8.56152 54.0376 8.55141 53.4263C8.56289 52.8197 8.42261 52.2196 8.14285 51.6785C7.89117 51.1885 7.51236 50.7722 7.04456 50.4716C6.57217 50.1735 6.0202 50.0197 5.45863 50.0298Z" fill="#3F3F3F"/>
<path d="M12.5668 57.6696C12.4972 57.6732 12.4277 57.6618 12.3632 57.6361C12.2986 57.6104 12.2406 57.571 12.1933 57.5209C12.1046 57.4247 12.056 57.2993 12.0571 57.1696V49.7148C12.0564 49.5836 12.1085 49.4573 12.2021 49.3636C12.2499 49.3164 12.3067 49.2789 12.3693 49.2534C12.4319 49.2278 12.499 49.2147 12.5668 49.2147C12.6345 49.2147 12.7016 49.2278 12.7642 49.2534C12.8268 49.2789 12.8836 49.3164 12.9314 49.3636C13.025 49.4573 13.0771 49.5836 13.0764 49.7148V52.2105L12.8216 52.2601C12.857 51.862 12.9571 51.472 13.1181 51.1049C13.2821 50.7192 13.5083 50.3619 13.7881 50.0467C14.0709 49.726 14.413 49.4606 14.7963 49.2644C15.204 49.0603 15.6566 48.9574 16.1142 48.9649C16.3187 48.9646 16.521 49.0072 16.7073 49.0899C16.7926 49.1201 16.8662 49.1755 16.9181 49.2484C16.97 49.3213 16.9977 49.4082 16.9973 49.4972C17.0019 49.5668 16.9922 49.6366 16.9688 49.7025C16.9454 49.7684 16.9088 49.829 16.8611 49.8808C16.8195 49.9236 16.7693 49.9576 16.7138 49.9806C16.6582 50.0036 16.5985 50.0151 16.5382 50.0144C16.4226 50.011 16.3093 49.9823 16.2065 49.9304C16.0596 49.8687 15.9005 49.84 15.7408 49.8463C15.4049 49.8522 15.0769 49.9476 14.7919 50.1222C14.46 50.3158 14.1662 50.5661 13.9242 50.8614C13.6623 51.1736 13.4532 51.5251 13.3048 51.9023C13.1578 52.2711 13.0833 52.6638 13.0851 53.0597V57.1696C13.0849 57.2353 13.0711 57.3002 13.0447 57.3606C13.0183 57.4209 12.9797 57.4754 12.9314 57.5209C12.8845 57.5692 12.8279 57.6074 12.7651 57.6331C12.7023 57.6587 12.6347 57.6711 12.5668 57.6696Z" fill="#3F3F3F"/>
<path d="M25.8496 49.1658C25.9176 49.164 25.9852 49.1763 26.0481 49.2019C26.1109 49.2276 26.1675 49.2659 26.2142 49.3145C26.3086 49.4138 26.3598 49.5452 26.357 49.6809V57.1701C26.3571 57.2357 26.3437 57.3006 26.3177 57.3609C26.2917 57.4213 26.2535 57.4759 26.2054 57.5214C26.1596 57.5687 26.1043 57.6063 26.0431 57.6319C25.982 57.6574 25.9161 57.6704 25.8496 57.6701C25.78 57.6737 25.7105 57.6623 25.646 57.6366C25.5814 57.6109 25.5234 57.5716 25.4761 57.5214C25.3875 57.4252 25.3388 57.2998 25.34 57.1701V55.1895L25.6277 55.058C25.6215 55.3904 25.5318 55.7162 25.3663 56.0063C25.1777 56.343 24.9335 56.6467 24.6436 56.905C24.3276 57.1897 23.9634 57.4179 23.5673 57.5796C23.1398 57.753 22.6812 57.8402 22.2186 57.8361C21.4939 57.8455 20.7827 57.6429 20.1758 57.2542C19.5624 56.8579 19.0698 56.306 18.7502 55.6572C18.3974 54.9476 18.2198 54.1664 18.2318 53.377C18.2147 52.5833 18.3957 51.7976 18.759 51.0882C19.0835 50.4542 19.5749 49.917 20.1824 49.5322C20.683 49.2256 21.2493 49.0373 21.8368 48.9823C22.4242 48.9274 23.0167 49.0071 23.5673 49.2154C23.9779 49.3732 24.3549 49.6049 24.6788 49.8986C24.9887 50.1794 25.2421 50.515 25.4256 50.8878C25.6032 51.2487 25.6956 51.6443 25.6958 52.0451L25.34 51.7951V49.6809C25.3369 49.5463 25.3855 49.4156 25.4761 49.3145C25.5234 49.2644 25.5814 49.225 25.646 49.1993C25.7105 49.1736 25.78 49.1622 25.8496 49.1658ZM22.3197 56.8964C22.8864 56.9059 23.4427 56.7458 23.9144 56.4374C24.39 56.1214 24.7695 55.685 25.0127 55.1744C25.2845 54.6102 25.4212 53.9924 25.4124 53.3684C25.4222 52.7574 25.2853 52.1527 25.0127 51.6033C24.7626 51.1012 24.3842 50.6713 23.9144 50.3555C23.4442 50.0431 22.8874 49.8805 22.3197 49.8899C21.7576 49.883 21.2059 50.0389 20.7337 50.3382C20.2613 50.6448 19.8819 51.0706 19.6354 51.571C19.3612 52.1313 19.2251 52.747 19.2379 53.3684C19.2282 53.9916 19.3618 54.6089 19.6288 55.1744C19.8674 55.6879 20.2479 56.1254 20.7271 56.4374C21.1991 56.7434 21.7539 56.9033 22.3197 56.8964Z" fill="#3F3F3F"/>
<path d="M33.1946 48.9652C33.6974 48.9605 34.1986 49.0191 34.6861 49.1397C35.0791 49.2294 35.4516 49.3902 35.7844 49.6139C35.9016 49.681 36.0007 49.7748 36.0734 49.8873C36.146 49.9998 36.19 50.1278 36.2018 50.2604C36.1981 50.3799 36.1532 50.4947 36.0744 50.5859C36.0383 50.6345 35.9911 50.6741 35.9365 50.7015C35.8819 50.7288 35.8215 50.7431 35.7602 50.7432C35.6357 50.7502 35.5125 50.7152 35.411 50.6441C35.3231 50.5727 35.2408 50.4949 35.165 50.4113C35.0636 50.3066 34.9428 50.2217 34.8091 50.1613C34.6049 50.0778 34.3921 50.0164 34.1743 49.9781C33.8697 49.9204 33.5598 49.8929 33.2496 49.8962C32.6449 49.8883 32.0506 50.0498 31.5362 50.3617C31.029 50.6689 30.6136 51.1025 30.3325 51.6182C30.0346 52.1623 29.8834 52.7722 29.8932 53.3897C29.8832 54.0128 30.0255 54.6292 30.3083 55.1872C30.5713 55.7051 30.9769 56.1403 31.4791 56.4436C32.0023 56.755 32.6048 56.9142 33.2166 56.9027C33.5741 56.9139 33.9314 56.8747 34.2776 56.7863C34.4997 56.7216 34.7134 56.6319 34.9146 56.5191C35.0971 56.4306 35.261 56.3092 35.3978 56.1613C35.4426 56.1048 35.5004 56.0595 35.5664 56.0292C35.6325 55.9988 35.7049 55.9843 35.7778 55.9867C35.8376 55.9836 35.8974 55.9932 35.9531 56.0147C36.0089 56.0363 36.0592 56.0694 36.1007 56.1117C36.182 56.2009 36.2245 56.3177 36.2193 56.4372C36.2193 56.6139 36.0875 56.81 35.8218 57.0277C35.492 57.2773 35.1203 57.4684 34.7235 57.5923C34.204 57.7623 33.6587 57.8439 33.1112 57.8337C32.3319 57.849 31.5642 57.6472 30.897 57.2518C30.2609 56.8665 29.745 56.317 29.4055 55.6635C29.0402 54.9599 28.8562 54.1792 28.8696 53.3897C28.8609 52.6193 29.0473 51.8587 29.4121 51.1764C29.7645 50.521 30.2855 49.9675 30.9234 49.5708C31.6043 49.1564 32.3936 48.946 33.1946 48.9652Z" fill="#3F3F3F"/>
<path d="M38.0296 49.1982H41.9835C42.047 49.1965 42.1101 49.2083 42.1685 49.2329C42.2269 49.2574 42.2792 49.2941 42.3217 49.3404C42.4111 49.4319 42.46 49.5543 42.4579 49.6809C42.4586 49.7401 42.4468 49.7987 42.4234 49.8532C42.4 49.9078 42.3654 49.9569 42.3217 49.9978C42.2776 50.0415 42.2249 50.0759 42.1667 50.0989C42.1085 50.1219 42.0462 50.133 41.9835 50.1314H38.0296C37.9646 50.1323 37.9001 50.1202 37.84 50.0957C37.7799 50.0712 37.7256 50.035 37.6804 49.9891C37.6351 49.9474 37.599 49.897 37.5744 49.841C37.5499 49.785 37.5373 49.7247 37.5376 49.6637C37.5356 49.6015 37.5473 49.5397 37.5719 49.4824C37.5966 49.4251 37.6336 49.3737 37.6804 49.3318C37.7744 49.244 37.8998 49.196 38.0296 49.1982ZM39.7869 46.8512C39.8551 46.8497 39.9228 46.8623 39.9857 46.8883C40.0485 46.9143 40.105 46.9531 40.1515 47.0021C40.198 47.048 40.2348 47.1024 40.2596 47.1624C40.2845 47.2223 40.2971 47.2865 40.2965 47.3512V55.7068C40.2818 55.9462 40.3255 56.1856 40.4239 56.4051C40.4902 56.5449 40.6079 56.6549 40.7534 56.7133C40.8832 56.762 41.0208 56.7875 41.1597 56.7887C41.2438 56.7899 41.3273 56.7752 41.4058 56.7456C41.4848 56.7182 41.568 56.7044 41.6518 56.7047C41.7017 56.7042 41.7511 56.7143 41.7966 56.7344C41.8421 56.7545 41.8826 56.7841 41.9154 56.821C41.9896 56.9035 42.0289 57.0107 42.0252 57.1206C42.0207 57.2039 41.9932 57.2844 41.9456 57.3535C41.898 57.4226 41.8321 57.4777 41.755 57.5128C41.5582 57.6217 41.335 57.6761 41.1092 57.6702C41.0082 57.6702 40.8544 57.6702 40.6523 57.6443C40.4329 57.6248 40.2195 57.5633 40.0241 57.4633C39.79 57.3379 39.603 57.1423 39.4903 56.9051C39.3265 56.5443 39.2513 56.1509 39.2707 55.7564V47.3512C39.2701 47.2865 39.2826 47.2223 39.3075 47.1624C39.3324 47.1024 39.3692 47.048 39.4157 47.0021C39.4616 46.9536 39.5175 46.9152 39.5795 46.8892C39.6415 46.8632 39.7084 46.8503 39.7759 46.8512H39.7869Z" fill="#3F3F3F"/>
<path d="M45.2498 47.9006C45.0571 47.915 44.8659 47.8581 44.7138 47.7411C44.652 47.6822 44.6041 47.6109 44.5733 47.5319C44.5426 47.453 44.5298 47.3685 44.5359 47.2842V47.1182C44.5303 47.0324 44.545 46.9465 44.5789 46.8672C44.6128 46.788 44.665 46.7175 44.7314 46.6613C44.8845 46.5479 45.0736 46.4914 45.2652 46.5018C45.4467 46.4909 45.6256 46.5479 45.766 46.6613C45.8278 46.7202 45.8757 46.7915 45.9064 46.8705C45.9372 46.9494 45.95 47.034 45.9439 47.1182V47.2842C45.95 47.3685 45.9372 47.453 45.9064 47.5319C45.8757 47.6109 45.8278 47.6822 45.766 47.7411C45.6205 47.8561 45.4362 47.913 45.2498 47.9006ZM45.7572 57.1678C45.7549 57.2994 45.7008 57.4249 45.6062 57.5182C45.5116 57.6114 45.3838 57.665 45.2498 57.6678C45.1817 57.6699 45.114 57.6577 45.0511 57.632C44.9882 57.6064 44.9317 57.5679 44.8851 57.5191C44.7915 57.4253 44.7394 57.2991 44.7402 57.1678V49.5148C44.7396 49.4501 44.7521 49.3859 44.777 49.326C44.8019 49.266 44.8386 49.2115 44.8851 49.1656C44.9312 49.1161 44.9876 49.077 45.0506 49.0509C45.1135 49.0249 45.1815 49.0126 45.2498 49.0148C45.318 49.013 45.3858 49.0255 45.4487 49.0515C45.5116 49.0775 45.5681 49.1165 45.6144 49.1656C45.7069 49.2591 45.7582 49.3845 45.7572 49.5148V57.1678Z" fill="#3F3F3F"/>
<path d="M52.5664 48.9651C53.0691 48.9604 53.5704 49.0191 54.0579 49.1397C54.4508 49.2293 54.8233 49.3901 55.1561 49.6138C55.2737 49.6805 55.3731 49.7742 55.4458 49.8868C55.5185 49.9994 55.5623 50.1275 55.5735 50.2604C55.5698 50.3799 55.5249 50.4946 55.4461 50.5858C55.4101 50.6345 55.3628 50.6741 55.3083 50.7014C55.2537 50.7288 55.1933 50.743 55.132 50.7431C55.0081 50.7505 54.8854 50.7155 54.7849 50.644C54.696 50.5738 54.6137 50.4959 54.5389 50.4112C54.4362 50.307 54.3149 50.2223 54.1809 50.1612C53.9767 50.0778 53.7638 50.0163 53.546 49.978C53.2414 49.9203 52.9316 49.8929 52.6213 49.8961C52.0167 49.8883 51.4223 50.0497 50.908 50.3617C50.4007 50.6689 49.9854 51.1024 49.7042 51.6181C49.4063 52.1623 49.2551 52.7721 49.2649 53.3897C49.2549 54.0128 49.3973 54.6291 49.6801 55.1871C49.943 55.705 50.3486 56.1403 50.8508 56.4436C51.374 56.7549 51.9766 56.9141 52.5883 56.9026C52.9458 56.9139 53.3031 56.8747 53.6493 56.7862C53.8714 56.7215 54.0851 56.6318 54.2863 56.519C54.4688 56.4305 54.6327 56.3091 54.7695 56.1612C54.8146 56.1046 54.8728 56.0592 54.9392 56.0288C55.0057 55.9985 55.0785 55.984 55.1517 55.9867C55.2112 55.9837 55.2706 55.9934 55.326 56.0149C55.3813 56.0365 55.4313 56.0695 55.4724 56.1117C55.5537 56.2008 55.5962 56.3176 55.5911 56.4371C55.5911 56.6138 55.4593 56.8099 55.1935 57.0276C54.8638 57.2772 54.4921 57.4683 54.0952 57.5923C53.5757 57.7622 53.0304 57.8438 52.4829 57.8336C51.7036 57.8489 50.9359 57.6471 50.2687 57.2517C49.6326 56.8664 49.1167 56.3169 48.7773 55.6634C48.413 54.9595 48.229 54.179 48.2413 53.3897C48.2322 52.6189 48.4195 51.8581 48.7861 51.1763C49.1385 50.519 49.6613 49.9645 50.3017 49.5686C50.981 49.1562 51.7678 48.9465 52.5664 48.9651Z" fill="#3F3F3F"/>
<path d="M61.8118 57.8362C61.0068 57.8523 60.2113 57.6629 59.5032 57.2866C58.846 56.932 58.3051 56.4013 57.9437 55.7564C57.5575 55.0511 57.3645 54.2595 57.3835 53.459C57.3582 52.6198 57.5541 51.7883 57.9524 51.0452C58.2979 50.4138 58.8071 49.883 59.4286 49.5064C60.006 49.1536 60.6725 48.9663 61.3528 48.9655C61.848 48.9649 62.3392 49.0525 62.8025 49.2241C63.2672 49.3931 63.6917 49.6534 64.0502 49.9892C64.4216 50.3429 64.72 50.7637 64.9288 51.2284C65.1658 51.7644 65.2877 52.3425 65.2868 52.9267C65.2879 52.991 65.2747 53.0547 65.2481 53.1135C65.2216 53.1723 65.1823 53.2248 65.1331 53.2672C65.0863 53.3128 65.0308 53.3489 64.9697 53.3733C64.9086 53.3977 64.8432 53.41 64.7772 53.4094H57.9678L57.7657 52.5107H64.4477L64.2281 52.7112V52.3706C64.1856 51.8868 64.0035 51.4248 63.7031 51.0387C63.4209 50.6836 63.0574 50.3987 62.6422 50.2069C62.2358 50.0204 61.7926 49.9241 61.344 49.9245C60.9866 49.928 60.6329 49.996 60.3006 50.125C59.9366 50.2621 59.607 50.4746 59.3341 50.7478C59.0289 51.0578 58.7893 51.4241 58.629 51.8254C58.4384 52.3224 58.3467 52.8506 58.3588 53.3814C58.3504 53.9985 58.4895 54.609 58.7652 55.1637C59.027 55.6847 59.4327 56.123 59.936 56.4288C60.4952 56.7524 61.1365 56.9138 61.7855 56.8943C62.1433 56.8981 62.4991 56.842 62.8377 56.7284C63.1382 56.6278 63.4212 56.4824 63.6767 56.2974C63.9018 56.1318 64.1041 55.9384 64.2786 55.7219C64.3764 55.6339 64.502 55.5814 64.6345 55.5732C64.6935 55.5723 64.752 55.5837 64.8062 55.6068C64.8604 55.6298 64.9089 55.6639 64.9486 55.7069C65.0292 55.7866 65.0749 55.8941 65.076 56.0064C65.0755 56.0732 65.0601 56.1391 65.0309 56.1994C65.0017 56.2597 64.9593 56.313 64.9068 56.3556C64.5367 56.7793 64.0898 57.1322 63.5889 57.3965C63.0446 57.6898 62.4328 57.8412 61.8118 57.8362Z" fill="#3F3F3F"/>
<path d="M69.1222 57.6205C69.1213 57.8687 69.0721 58.1145 68.9772 58.3446C68.881 58.5778 68.75 58.7957 68.5884 58.9911C68.4417 59.1745 68.2668 59.3345 68.0701 59.4653C67.9108 59.5748 67.722 59.6355 67.5275 59.6398C67.4186 59.6413 67.312 59.6097 67.2222 59.5493C67.1774 59.5185 67.1414 59.4771 67.1175 59.4288C67.0937 59.3805 67.0828 59.327 67.086 59.2735C67.086 59.0967 67.1519 58.9933 67.2815 58.9653C67.4243 58.9325 67.5634 58.8855 67.6966 58.8252C67.8494 58.7411 67.9755 58.6173 68.0613 58.4674C68.1453 58.3223 68.1892 58.1581 68.1887 57.9911C68.1935 57.8825 68.1576 57.7759 68.0876 57.6916C68.0541 57.6532 68.0122 57.6229 67.9651 57.6027C67.9179 57.5825 67.8667 57.5731 67.8152 57.5752C67.7349 57.576 67.6551 57.5876 67.578 57.6097C67.5001 57.6316 67.426 57.665 67.3584 57.7088C67.3013 57.6527 67.2498 57.5914 67.2046 57.5256C67.1584 57.4507 67.1405 57.3622 67.1541 57.2756C67.1662 57.1424 67.2226 57.0167 67.3144 56.9179C67.4168 56.81 67.542 56.7254 67.6813 56.67C67.8195 56.6094 67.9691 56.5778 68.1206 56.5774C68.2536 56.5728 68.3862 56.5946 68.5104 56.6417C68.6346 56.6887 68.7479 56.7599 68.8432 56.8511C68.941 56.9537 69.0161 57.075 69.0641 57.2073C69.1121 57.3397 69.1319 57.4803 69.1222 57.6205Z" fill="#3F3F3F"/>
<path d="M80.7068 49.0988C81.4293 49.0854 82.1401 49.2794 82.7518 49.6569C83.3526 50.0363 83.8412 50.564 84.1686 51.1871C84.5141 51.886 84.6936 52.6528 84.6936 53.4296C84.6936 54.2064 84.5141 54.9731 84.1686 55.672C83.8405 56.3025 83.3488 56.837 82.743 57.2216C82.1408 57.5993 81.439 57.7956 80.7243 57.7863C80.3416 57.7882 79.961 57.7293 79.5975 57.6117C79.2505 57.5012 78.9219 57.3415 78.6222 57.1375C78.3291 56.9389 78.0659 56.701 77.8402 56.4307C77.616 56.1615 77.4332 55.8617 77.2977 55.5406L77.603 55.325V60.4975C77.604 60.6277 77.5527 60.7531 77.4602 60.8466C77.4125 60.8944 77.3556 60.9323 77.2928 60.9582C77.23 60.9841 77.1626 60.9975 77.0945 60.9975C77.0263 60.9975 76.9589 60.9841 76.8961 60.9582C76.8333 60.9323 76.7764 60.8944 76.7287 60.8466C76.6362 60.7531 76.5849 60.6277 76.586 60.4975V49.6483C76.5816 49.5135 76.6304 49.3823 76.7222 49.2819C76.7692 49.2314 76.8271 49.1917 76.8917 49.1656C76.9562 49.1395 77.0259 49.1277 77.0956 49.1311C77.1637 49.1298 77.2314 49.1426 77.2942 49.1686C77.357 49.1946 77.4135 49.2332 77.4602 49.2819C77.5548 49.3811 77.606 49.5126 77.603 49.6483V51.4457L77.3657 51.3121C77.4734 50.9764 77.6432 50.663 77.8666 50.3875C78.0851 50.117 78.3452 49.8814 78.6376 49.6893C78.935 49.4946 79.2609 49.3456 79.6041 49.2475C79.9627 49.1473 80.3339 49.0972 80.7068 49.0988ZM80.6233 50.0298C80.0534 50.0191 79.4928 50.1727 79.011 50.4716C78.5428 50.7681 78.1637 51.1818 77.9127 51.6699C77.6378 52.2153 77.5014 52.818 77.5151 53.4263C77.5045 54.0365 77.6407 54.6405 77.9127 55.1893C78.1581 55.688 78.5379 56.1113 79.011 56.4134C79.4924 56.7132 80.0532 56.8669 80.6233 56.8552C81.185 56.8661 81.7372 56.7123 82.2092 56.4134C82.679 56.1076 83.0579 55.6853 83.3075 55.1893C83.5854 54.6422 83.7247 54.0375 83.7139 53.4263C83.726 52.8199 83.5865 52.2198 83.3075 51.6785C83.0545 51.1894 82.6759 50.7735 82.2092 50.4716C81.7342 50.1721 81.179 50.0183 80.6145 50.0298H80.6233Z" fill="#3F3F3F"/>
<path d="M88.3422 57.1697C88.3419 57.2354 88.3282 57.3004 88.3018 57.3607C88.2754 57.4211 88.2368 57.4756 88.1885 57.521C88.1426 57.5683 88.0874 57.6059 88.0262 57.6315C87.965 57.657 87.8991 57.6701 87.8326 57.6697C87.7646 57.6715 87.697 57.6592 87.6341 57.6336C87.5713 57.608 87.5147 57.5696 87.468 57.521C87.3744 57.4272 87.3222 57.301 87.323 57.1697V45.8529C87.3221 45.7526 87.352 45.6544 87.4088 45.5709C87.4655 45.4875 87.5466 45.4228 87.6413 45.3851C87.7361 45.3475 87.8402 45.3387 87.9401 45.3598C88.04 45.381 88.1312 45.4311 88.2016 45.5038C88.2481 45.5497 88.2849 45.6041 88.3098 45.6641C88.3347 45.724 88.3472 45.7882 88.3466 45.8529L88.3422 57.1697Z" fill="#3F3F3F"/>
<path d="M98.587 49.1655C98.655 49.1637 98.7226 49.176 98.7855 49.2017C98.8483 49.2273 98.9049 49.2656 98.9516 49.3142C99.0474 49.4127 99.0995 49.5445 99.0966 49.6806V57.1698C99.0938 57.3016 99.0392 57.4272 98.9442 57.5203C98.8492 57.6135 98.7212 57.6671 98.587 57.6698C98.5174 57.6734 98.4479 57.662 98.3834 57.6363C98.3188 57.6106 98.2608 57.5713 98.2135 57.5211C98.1249 57.4249 98.0762 57.2995 98.0774 57.1698V55.1892L98.3673 55.0578C98.3613 55.3905 98.2707 55.7164 98.1037 56.006C97.916 56.3427 97.6725 56.6464 97.3832 56.9047C97.0664 57.1894 96.7015 57.4177 96.3047 57.5793C95.8773 57.7528 95.4186 57.8401 94.956 57.8358C94.2313 57.8452 93.5201 57.6426 92.9132 57.2539C92.2998 56.8576 91.8072 56.3057 91.4876 55.6569C91.1356 54.9471 90.9587 54.166 90.9714 53.3767C90.9536 52.5832 91.1339 51.7975 91.4964 51.0879C91.8224 50.4543 92.3144 49.9172 92.922 49.5319C93.4221 49.2251 93.9881 49.0368 94.5752 48.9818C95.1624 48.9269 95.7545 49.0067 96.3047 49.2151C96.7153 49.373 97.0923 49.6047 97.4162 49.8983C97.7268 50.1786 97.9803 50.5143 98.163 50.8875C98.3413 51.2483 98.4344 51.6439 98.4354 52.0448L98.0774 51.7948V49.6806C98.0743 49.546 98.1229 49.4153 98.2135 49.3142C98.2608 49.2641 98.3188 49.2247 98.3834 49.199C98.4479 49.1733 98.5174 49.1619 98.587 49.1655ZM95.0593 56.8961C95.626 56.9053 96.1822 56.7452 96.654 56.4371C97.1296 56.1211 97.5091 55.6847 97.7523 55.1741C98.0233 54.6097 98.1593 53.992 98.1498 53.3681C98.1603 52.7573 98.0241 52.1526 97.7523 51.603C97.5022 51.1009 97.1238 50.671 96.654 50.3552C96.1837 50.0431 95.6269 49.8805 95.0593 49.8897C94.497 49.8816 93.945 50.0377 93.4733 50.3379C93.0003 50.6438 92.6208 51.0699 92.375 51.5707C92.1001 52.1308 91.9631 52.7465 91.9753 53.3681C91.9656 53.9913 92.0992 54.6086 92.3662 55.1741C92.6048 55.6876 92.9853 56.1251 93.4645 56.4371C93.9373 56.7431 94.4928 56.9031 95.0593 56.8961Z" fill="#3F3F3F"/>
<path d="M108.443 49.0145C108.511 49.0126 108.579 49.025 108.642 49.051C108.705 49.0771 108.761 49.1161 108.808 49.1654C108.854 49.2113 108.891 49.2657 108.916 49.3257C108.941 49.3856 108.953 49.4498 108.953 49.5145V56.855C108.979 57.6461 108.791 58.4299 108.408 59.1266C108.07 59.721 107.563 60.2062 106.949 60.5231C106.304 60.8484 105.588 61.012 104.863 60.9994C104.408 61.0028 103.955 60.9492 103.514 60.8399C103.158 60.7577 102.817 60.6202 102.506 60.4326C102.381 60.3653 102.276 60.2682 102.2 60.1503C102.167 60.0986 102.148 60.0392 102.144 59.978C102.141 59.9168 102.155 59.8558 102.183 59.8011C102.202 59.7343 102.235 59.6722 102.281 59.6191C102.326 59.5659 102.383 59.5229 102.446 59.4929C102.503 59.4663 102.566 59.4525 102.629 59.4525C102.692 59.4525 102.754 59.4663 102.811 59.4929C103.002 59.5921 103.281 59.7085 103.641 59.8572C104.036 60.007 104.457 60.0802 104.88 60.0727C105.445 60.0867 106.005 59.9544 106.501 59.6891C106.96 59.4336 107.329 59.0482 107.56 58.5835C107.822 58.0459 107.95 57.4549 107.933 56.8593V55.661L108.052 56.0619C107.878 56.4117 107.633 56.7227 107.332 56.9757C107.017 57.245 106.655 57.4567 106.264 57.6007C105.854 57.749 105.42 57.8221 104.983 57.8162C104.393 57.8383 103.807 57.6972 103.294 57.4089C102.854 57.1434 102.507 56.7514 102.301 56.2861C102.076 55.7538 101.967 55.1812 101.981 54.605V49.5145C101.978 49.3856 102.026 49.2608 102.115 49.1654C102.162 49.1146 102.219 49.0747 102.284 49.0486C102.349 49.0225 102.418 49.0108 102.488 49.0145C102.556 49.0126 102.624 49.025 102.687 49.051C102.75 49.0771 102.806 49.1161 102.853 49.1654C102.899 49.2113 102.936 49.2657 102.961 49.3257C102.986 49.3856 102.998 49.4498 102.998 49.5145V54.4714C102.998 55.2501 103.17 55.8493 103.514 56.2688C103.859 56.6998 104.423 56.9024 105.203 56.9024C105.672 56.9063 106.135 56.7889 106.543 56.5619C106.942 56.3404 107.284 56.0331 107.545 55.6632C107.796 55.3146 107.932 54.8984 107.933 54.4714V49.5145C107.933 49.4498 107.945 49.3856 107.97 49.3257C107.995 49.2657 108.032 49.2113 108.078 49.1654C108.125 49.1161 108.181 49.0771 108.244 49.051C108.307 49.025 108.375 49.0126 108.443 49.0145Z" fill="#3F3F3F"/>
<path d="M113.344 57.6204C113.343 57.8687 113.293 58.1145 113.199 58.3446C113.102 58.5779 112.97 58.7958 112.808 58.9911C112.662 59.1749 112.488 59.335 112.291 59.4653C112.132 59.5746 111.943 59.6353 111.749 59.6398C111.64 59.6413 111.533 59.6097 111.444 59.5493C111.398 59.5188 111.362 59.4774 111.338 59.429C111.314 59.3807 111.304 59.3271 111.307 59.2735C111.307 59.0967 111.373 58.9933 111.503 58.9653C111.646 58.9325 111.785 58.8855 111.918 58.8252C112.068 58.7415 112.193 58.6201 112.279 58.4735C112.366 58.327 112.411 58.1605 112.41 57.9911C112.414 57.8827 112.378 57.7765 112.309 57.6916C112.275 57.6534 112.233 57.6231 112.186 57.6029C112.139 57.5828 112.088 57.5733 112.037 57.5752C111.956 57.576 111.876 57.5876 111.799 57.6097C111.721 57.6312 111.647 57.6646 111.58 57.7088C111.523 57.6527 111.471 57.5914 111.426 57.5256C111.379 57.451 111.361 57.3622 111.375 57.2756C111.387 57.1421 111.443 57.0162 111.536 56.9179C111.637 56.81 111.762 56.7254 111.9 56.67C112.039 56.6098 112.188 56.5782 112.34 56.5773C112.472 56.5728 112.605 56.5947 112.729 56.6417C112.852 56.6888 112.965 56.76 113.06 56.8511C113.159 56.9534 113.234 57.0746 113.283 57.2069C113.332 57.3392 113.352 57.48 113.344 57.6204Z" fill="#3F3F3F"/>
<path d="M124.355 48.965C124.831 48.9612 125.304 49.0491 125.746 49.2236C126.155 49.3844 126.536 49.6093 126.872 49.8895C127.172 50.1334 127.427 50.4248 127.628 50.7516C127.796 51.0146 127.89 51.3165 127.9 51.6266L127.621 51.2279V49.6805C127.619 49.5444 127.671 49.4126 127.766 49.3141C127.814 49.2669 127.871 49.2295 127.934 49.2039C127.996 49.1784 128.063 49.1652 128.131 49.1652C128.199 49.1652 128.266 49.1784 128.329 49.2039C128.391 49.2295 128.448 49.2669 128.496 49.3141C128.59 49.4134 128.641 49.5448 128.638 49.6805V56.896C128.665 57.6812 128.472 58.4584 128.081 59.1438C127.721 59.7409 127.193 60.223 126.56 60.5318C125.883 60.8577 125.136 61.0209 124.381 61.0081C123.961 61.0043 123.543 60.9537 123.134 60.8572C122.746 60.7751 122.371 60.6462 122.016 60.4736C121.704 60.3184 121.526 60.1589 121.48 59.9908C121.408 59.9106 121.369 59.8069 121.37 59.6999C121.374 59.6516 121.39 59.605 121.415 59.5632C121.44 59.5215 121.474 59.4857 121.515 59.4585C121.563 59.4204 121.623 59.3976 121.685 59.3934C121.747 59.3892 121.809 59.4036 121.862 59.4348C121.992 59.4951 122.183 59.5749 122.431 59.6762L122.881 59.8249C123.108 59.8992 123.34 59.9575 123.575 59.9994C123.847 60.051 124.123 60.0762 124.399 60.0749C125.417 60.0749 126.208 59.7875 126.774 59.2128C127.061 58.9107 127.284 58.5553 127.43 58.1674C127.575 57.7796 127.641 57.3671 127.621 56.9542V55.3572L127.808 55.4068C127.715 55.7872 127.542 56.1441 127.299 56.4542C127.065 56.7495 126.785 57.0057 126.468 57.2128C126.154 57.4165 125.81 57.5734 125.449 57.6783C125.097 57.7823 124.731 57.8353 124.364 57.8357C123.618 57.8449 122.885 57.6429 122.253 57.2538C121.624 56.8645 121.112 56.3186 120.768 55.6719C120.411 54.9643 120.226 54.1855 120.226 53.396C120.226 52.6065 120.411 51.8277 120.768 51.1201C121.108 50.4737 121.617 49.9283 122.244 49.5404C122.877 49.153 123.61 48.9532 124.355 48.965ZM124.456 49.8982C123.871 49.8902 123.297 50.049 122.802 50.3551C122.31 50.6612 121.911 51.0924 121.649 51.6029C121.366 52.1576 121.223 52.7713 121.234 53.3917C121.224 54.0148 121.366 54.6311 121.649 55.1891C121.909 55.7037 122.308 56.1383 122.802 56.4456C123.297 56.7523 123.871 56.9118 124.456 56.9046C125.043 56.9132 125.62 56.7569 126.119 56.4542C126.61 56.1499 127.008 55.7219 127.272 55.215C127.551 54.6466 127.696 54.0237 127.696 53.3928C127.696 52.7618 127.551 52.139 127.272 51.5706C127.009 51.0646 126.61 50.6385 126.119 50.3378C125.618 50.041 125.042 49.8886 124.456 49.8982Z" fill="#3F3F3F"/>
<path d="M132.258 57.6697C132.189 57.6733 132.119 57.6618 132.055 57.6361C131.99 57.6104 131.932 57.5711 131.885 57.5209C131.797 57.4245 131.749 57.2991 131.751 57.1697V49.7149C131.749 49.5839 131.801 49.4576 131.894 49.3636C131.941 49.3164 131.998 49.279 132.061 49.2534C132.123 49.2279 132.19 49.2147 132.258 49.2147C132.326 49.2147 132.393 49.2279 132.456 49.2534C132.518 49.279 132.575 49.3164 132.623 49.3636C132.716 49.4574 132.769 49.5836 132.768 49.7149V52.2106L132.513 52.2602C132.551 51.8624 132.651 51.4728 132.81 51.105C132.972 50.7208 133.194 50.3638 133.469 50.0468C133.752 49.7255 134.095 49.46 134.479 49.2645C134.887 49.0599 135.339 48.957 135.797 48.9649C136.002 48.9648 136.205 49.0074 136.392 49.0899C136.477 49.1205 136.55 49.176 136.602 49.2489C136.653 49.3218 136.681 49.4085 136.68 49.4972C136.685 49.5669 136.675 49.6367 136.652 49.7026C136.628 49.7685 136.591 49.8291 136.544 49.8809C136.502 49.9237 136.452 49.9576 136.397 49.9806C136.341 50.0036 136.281 50.0151 136.221 50.0145C136.106 50.011 135.993 49.9823 135.891 49.9304C135.744 49.8688 135.584 49.8401 135.424 49.8464C135.088 49.8523 134.76 49.9476 134.475 50.1222C134.144 50.3166 133.851 50.5669 133.609 50.8615C133.349 51.1748 133.14 51.526 132.99 51.9024C132.844 52.2714 132.769 52.6639 132.77 53.0597V57.1697C132.767 57.3014 132.713 57.427 132.618 57.5202C132.523 57.6133 132.395 57.6669 132.26 57.6697H132.258Z" fill="#3F3F3F"/>
<path d="M146.339 53.4093C146.352 54.2019 146.156 54.9844 145.77 55.6808C145.41 56.333 144.879 56.8791 144.232 57.2627C143.568 57.6383 142.814 57.836 142.048 57.836C141.281 57.836 140.528 57.6383 139.863 57.2627C139.216 56.8793 138.685 56.3331 138.326 55.6808C137.953 54.9778 137.759 54.1972 137.759 53.405C137.759 52.6127 137.953 51.8321 138.326 51.1291C138.689 50.4795 139.219 49.9342 139.863 49.5472C140.526 49.1663 141.28 48.9655 142.048 48.9655C142.816 48.9655 143.57 49.1663 144.232 49.5472C144.876 49.9343 145.406 50.4796 145.77 51.1291C146.158 51.8279 146.354 52.6137 146.339 53.4093ZM145.322 53.4093C145.333 52.7823 145.187 52.1623 144.898 51.6032C144.63 51.0936 144.229 50.6629 143.736 50.3554C143.23 50.0456 142.643 49.8869 142.047 49.8985C141.457 49.8891 140.877 50.0479 140.377 50.3554C139.882 50.6638 139.479 51.0941 139.206 51.6032C138.909 52.1599 138.758 52.7807 138.767 53.4093C138.757 54.0352 138.908 54.6534 139.206 55.2067C139.48 55.7129 139.883 56.1402 140.377 56.4459C140.877 56.7541 141.457 56.9136 142.047 56.905C142.643 56.916 143.23 56.7565 143.736 56.4459C144.228 56.1408 144.629 55.7132 144.898 55.2067C145.188 54.651 145.334 54.0336 145.322 53.4093Z" fill="#3F3F3F"/>
<path d="M159.147 48.9826C159.275 48.9837 159.399 49.0313 159.494 49.1162C159.547 49.1609 159.589 49.2169 159.617 49.28C159.645 49.3432 159.657 49.4117 159.654 49.4804C159.654 49.5197 159.649 49.5588 159.639 49.5968C159.63 49.6314 159.618 49.6653 159.604 49.6981L156.992 57.3532C156.945 57.4538 156.869 57.538 156.772 57.5946C156.686 57.6539 156.58 57.6806 156.476 57.6701C156.377 57.6654 156.281 57.6331 156.2 57.577C156.119 57.5209 156.056 57.4432 156.019 57.3532L153.627 51.8274L153.932 51.8942L151.81 57.3532C151.775 57.445 151.713 57.5243 151.631 57.5808C151.55 57.6373 151.453 57.6684 151.353 57.6701C151.246 57.6801 151.138 57.6535 151.048 57.5946C150.952 57.5411 150.88 57.4553 150.844 57.3532L148.164 49.6981C148.133 49.6301 148.116 49.5569 148.113 49.4826C148.111 49.4164 148.123 49.3505 148.148 49.289C148.173 49.2275 148.211 49.1716 148.258 49.1248C148.309 49.0775 148.368 49.0407 148.434 49.0166C148.499 48.9925 148.569 48.9817 148.638 48.9847C148.738 48.9843 148.836 49.0128 148.919 49.0666C149.006 49.1275 149.069 49.2158 149.097 49.3166L151.514 56.4071L151.193 56.3899L153.389 50.9826C153.423 50.8866 153.487 50.8038 153.573 50.7467C153.658 50.6896 153.761 50.6612 153.864 50.6658C153.966 50.6629 154.067 50.6915 154.152 50.7477C154.235 50.8075 154.299 50.8888 154.338 50.9826L156.662 56.4071L156.289 56.4244L158.681 49.3123C158.705 49.2117 158.766 49.123 158.851 49.0624C158.937 49.0019 159.042 48.9736 159.147 48.9826Z" fill="#3F3F3F"/>
<path d="M22.3108 32.2844C23.1245 32.6389 23.8312 33.1934 24.3624 33.8943C24.8036 34.4652 25.0407 35.1628 25.0368 35.8792C25.0058 36.5778 24.7374 37.2462 24.2746 37.7779C23.784 38.3713 23.032 38.8218 22.0187 39.1292C21.4816 39.2626 20.9297 39.3299 20.3756 39.3297C19.6727 39.3483 18.696 39.3577 17.4454 39.3577H12.6986C10.7832 39.3577 8.41893 39.3771 5.60584 39.4159C4.90294 39.4547 4.17806 39.4741 3.43562 39.4741C2.71637 39.4826 2.02237 39.2141 1.50263 38.7262C1.03256 38.3397 0.690629 37.7549 0.476828 36.9719C0.257982 36.163 0.120405 35.3351 0.0660677 34.4999C0.00749224 33.6378 -0.012277 32.7758 0.00676005 31.9137C0.0265293 31.0516 0.0375122 30.3318 0.0375122 29.7585C0.0375122 28.6091 0.0470307 27.2866 0.0660677 25.7909C0.0851047 24.2952 0.104874 22.7693 0.125375 21.2133C0.145877 19.6615 0.155395 18.1378 0.153931 16.6422V12.6745C0.153931 10.6429 0.175897 9.00422 0.219828 7.75853C0.23227 6.77568 0.320384 5.79516 0.483418 4.82534C0.619606 4.11701 0.844389 3.59976 1.15777 3.27361C1.524 2.91092 1.96309 2.62689 2.44716 2.43956C2.9392 2.24488 3.47335 2.1752 4.00014 2.23698C4.55242 2.29061 5.0892 2.44714 5.58168 2.69818C6.06629 2.94528 6.48644 3.29851 6.80957 3.73051C7.1351 4.15296 7.31028 4.66859 7.30819 5.19818C7.38434 9.79589 7.38434 14.3584 7.30819 18.8857C7.23204 23.413 7.1925 27.9389 7.18958 32.4633C9.65121 32.4633 12.1033 32.4345 14.5459 32.3771C16.9885 32.3196 19.4604 32.2528 21.9616 32.1766L22.3108 32.2844Z" fill="#21B85C"/>
<path d="M50.1525 30.7326C50.8057 30.756 51.4418 30.9438 51.9998 31.2779C52.5043 31.584 52.9424 31.9846 53.2892 32.4568C53.6236 32.924 53.826 33.4698 53.8757 34.0387C53.9113 34.5512 53.8299 35.065 53.6372 35.5427C53.4445 36.0203 53.1455 36.4497 52.762 36.7994C52.4846 37.1038 52.131 37.3319 51.7362 37.4611C49.2261 38.1911 46.6409 38.6443 44.0284 38.8124C41.4202 38.9846 38.8017 38.9363 36.202 38.668C35.4595 38.5904 34.649 38.5135 33.7704 38.4374C32.9478 38.3797 32.1525 38.1235 31.4552 37.6917C30.8815 37.3538 30.4105 36.8714 30.091 36.2946C29.7716 35.7178 29.6154 35.0676 29.6386 34.4115V9.91366C29.21 9.60584 28.8507 9.21464 28.5831 8.76447C28.3156 8.3143 28.1454 7.81484 28.0834 7.29728C28.0244 6.78962 28.0953 6.27554 28.2899 5.80159C28.498 5.30652 28.8426 4.87814 29.285 4.56452C30.0719 3.94888 30.9962 3.52494 31.9824 3.32745C32.9972 3.11912 33.9937 2.93736 34.9719 2.78219C36.9917 2.47612 39.0324 2.32194 41.0762 2.32098C43.1088 2.32098 45.1801 2.30231 47.2903 2.26495C48.0153 2.25878 48.7392 2.21057 49.4583 2.12055C50.187 2.01664 50.9303 2.08537 51.6264 2.32098C52.3273 2.56184 52.9391 3.0023 53.3836 3.58607C53.7967 4.12397 54.0595 4.75842 54.1458 5.42659C54.2205 6.08445 54.0847 6.74881 53.757 7.32745C53.4261 7.94095 52.8499 8.42012 52.0283 8.76495C51.0315 9.152 49.9626 9.32825 48.8916 9.28219C47.7816 9.24483 46.7141 9.22544 45.689 9.224C44.2041 9.224 42.7192 9.24268 41.2343 9.28004C39.7444 9.31994 38.2576 9.43503 36.7797 9.62486V17.6206C38.1852 17.696 39.5938 17.696 40.9993 17.6206C42.4081 17.543 43.8153 17.4467 45.2211 17.3318C45.845 17.2944 46.4703 17.2369 47.097 17.1593C47.7391 17.0839 48.388 17.0839 49.03 17.1593C49.8081 17.232 50.5252 17.6039 51.0245 18.1938C51.483 18.747 51.7764 19.4138 51.8724 20.1206C51.9689 20.842 51.8362 21.575 51.4924 22.2197C51.14 22.9121 50.5321 23.4469 49.7922 23.7154C48.9246 24.0313 48.0184 24.2341 47.097 24.3188C45.9621 24.4539 44.7701 24.5501 43.521 24.6076C42.2719 24.6651 41.041 24.6938 39.8285 24.6938C38.616 24.6938 37.5997 24.6744 36.7797 24.6356V31.7089C38.9378 31.9785 41.1193 32.0175 43.286 31.8253C45.4619 31.6356 47.6182 31.2702 49.7329 30.7326H50.1525Z" fill="#F3C122"/>
<path d="M90.06 36.2069C89.968 36.9893 89.6647 37.7333 89.1813 38.3621C88.7708 38.9128 88.2127 39.341 87.569 39.5991C86.9507 39.83 86.2732 39.8602 85.6361 39.6853C84.9507 39.5129 84.3152 39.0625 83.7294 38.3341C83.2367 37.757 82.9396 37.0436 82.8794 36.2931C82.8212 35.5486 82.714 34.8086 82.5587 34.0776C82.1422 31.8764 81.5742 29.7055 80.8585 27.5797C78.4335 27.6185 76.0297 27.6379 73.6471 27.6379C71.2646 27.6379 68.8813 27.6566 66.4973 27.694C66.1458 28.6925 65.8427 29.7091 65.5879 30.7435C65.3331 31.778 65.0893 32.7938 64.8564 33.791C64.6617 34.5582 64.4859 35.3535 64.3292 36.1767C64.1836 36.9761 63.8183 37.7213 63.2727 38.3319C62.6093 39.0991 61.8962 39.5302 61.1332 39.625C60.4261 39.7318 59.7029 39.6004 59.0816 39.2522C58.4467 38.8761 57.9375 38.3263 57.6165 37.6703C57.237 36.9132 57.1044 36.0599 57.2365 35.2263C57.3536 34.0371 57.589 32.8619 57.9394 31.7177C58.2908 30.5683 58.6233 29.4188 58.9366 28.2694C60.6818 21.7145 62.9581 15.3069 65.7438 9.10776C65.9781 8.57185 66.2227 8.0546 66.4775 7.55604C66.7301 7.0582 66.9739 6.5582 67.209 6.06035C67.4813 5.52299 67.7552 4.94828 68.0305 4.33621C68.2936 3.74033 68.6174 3.17207 68.997 2.64009C69.3601 2.13167 69.8052 1.68472 70.3149 1.31682C70.864 0.941538 71.522 0.750294 72.1908 0.771558C73.1033 0.747147 73.9885 1.07798 74.6532 1.69182C77.2977 4.28344 79.513 7.26486 81.2187 10.528C82.9365 13.8068 84.4799 17.1516 85.8491 20.5625C86.6706 20.5259 87.4702 20.5259 88.2522 20.5625C88.6564 20.5897 89.0512 20.6953 89.4135 20.8732C89.7759 21.0512 90.0987 21.2979 90.3631 21.5991C90.8657 22.057 91.2046 22.6616 91.3296 23.3233C91.4273 23.9231 91.3668 24.5374 91.1539 25.1078C90.9366 25.685 90.5739 26.1988 90.0995 26.6013C89.5883 27.0337 88.9727 27.3305 88.3115 27.4634C88.6996 28.8068 89.0415 30.1774 89.3373 31.5754C89.6331 32.9734 89.874 34.3793 90.06 35.7931V36.2069ZM78.1128 20.5517C77.3689 18.8276 76.5774 17.1121 75.7383 15.4052C74.9096 13.7211 73.9598 12.097 72.8959 10.5453C72.111 12.232 71.3788 13.9095 70.6993 15.5776C70.0198 17.2457 69.3843 18.9425 68.7927 20.6681C70.629 20.6293 72.2399 20.6099 73.6252 20.6099C75.0105 20.6099 76.5063 20.5905 78.1128 20.5517Z" fill="#22B9AE"/>
<path d="M101.968 36.4223C101.879 37.337 101.439 38.1844 100.738 38.793C100.093 39.3748 99.3051 39.7812 98.4512 39.9718C97.6908 40.1517 96.89 40.0592 96.1931 39.7111C95.5092 39.3662 95.1482 38.6766 95.1101 37.6421C94.9154 33.2326 94.8173 28.6601 94.8158 23.9244V9.79727C94.2461 9.60962 93.7531 9.24688 93.41 8.76279C93.0983 8.30802 92.9066 7.78446 92.8521 7.23908C92.7967 6.66573 92.8671 6.08739 93.0585 5.54296C93.241 4.98936 93.5404 4.47972 93.9372 4.04727C94.445 3.5302 95.0393 3.10232 95.6944 2.78218C96.483 2.38108 97.2957 2.02769 98.1283 1.72399C99.0069 1.39928 99.8767 1.12126 100.738 0.88994C101.597 0.661492 102.319 0.486923 102.906 0.372699C105.362 -0.125524 107.898 -0.115982 110.35 0.400716C112.723 0.869426 114.969 1.82413 116.94 3.20244C118.822 4.52812 120.293 6.33931 121.19 8.4352C122.126 10.5818 122.223 13.0358 121.482 15.7973C121.241 16.5817 120.947 17.3499 120.604 18.0968C120.264 18.8434 119.851 19.5558 119.371 20.224C118.718 21.1992 117.931 22.0811 117.032 22.8447C116.112 23.6264 115.133 24.3375 114.102 24.9718C114.845 25.7421 115.549 26.5484 116.211 27.3878C116.872 28.2263 117.618 28.9968 118.438 29.6874C118.752 29.9568 119.209 30.3792 119.815 30.9524C120.421 31.5257 121.008 32.1421 121.572 32.793C122.108 33.4064 122.606 34.0497 123.066 34.7197C123.497 35.3533 123.692 35.8806 123.653 36.3016C123.619 36.9756 123.424 37.6324 123.084 38.2186C122.743 38.8047 122.266 39.3035 121.691 39.6744C121.175 39.9972 120.574 40.1671 119.962 40.1637C119.285 40.1465 118.63 39.9253 118.086 39.53C117.356 38.9684 116.688 38.3327 116.094 37.6335C115.467 36.905 114.862 36.2341 114.278 35.6205C112.987 34.2398 111.727 32.8497 110.497 31.4503C109.267 30.0509 108.006 28.6802 106.715 27.3382C105.931 27.4925 105.139 27.5983 104.342 27.655C103.541 27.7139 102.75 27.7807 101.968 27.8555V36.4223ZM112.465 8.59037C110.909 7.67299 109.149 7.14047 107.336 7.03865C105.515 6.91798 103.688 7.17197 101.972 7.78434V20.7822C103.714 20.6704 105.447 20.4494 107.161 20.1205C108.886 19.7829 110.504 19.0438 111.879 17.9654C112.644 17.3686 113.29 16.6379 113.783 15.8102C114.254 15.0368 114.554 14.1746 114.662 13.28C114.76 12.4211 114.639 11.5518 114.31 10.7499C113.93 9.8651 113.287 9.11285 112.465 8.59037Z" fill="#A584E1"/>
<path d="M152.318 3.75806C152.524 3.03866 152.918 2.38478 153.462 1.86151C153.94 1.3914 154.537 1.05382 155.191 0.883063C155.823 0.730546 156.487 0.771152 157.095 0.999442C157.79 1.26841 158.376 1.75275 158.765 2.37875C158.934 2.59356 159.082 2.82461 159.204 3.06841C159.33 3.29887 159.4 3.55484 159.408 3.81625C159.486 9.29901 159.457 14.7724 159.32 20.2365C159.184 25.7006 158.959 31.1733 158.646 36.6546C158.646 37.5382 158.363 38.2257 157.796 38.7257C157.254 39.2118 156.585 39.5402 155.863 39.674C155.123 39.8063 154.361 39.7262 153.666 39.4434C152.949 39.1786 152.362 38.6542 152.026 37.9779C151.991 37.949 151.97 37.9079 151.966 37.8637V37.9779C149.424 33.8773 146.747 29.9377 143.936 26.1589C141.124 22.3802 138.195 18.6323 135.149 14.9154V32.3421C135.149 33.5296 135.127 34.4973 135.09 35.2451C135.053 35.993 135.002 36.5792 134.943 36.9994C134.896 37.372 134.807 37.7384 134.679 38.0921C134.328 39.0131 133.79 39.6266 133.067 39.9326C132.378 40.2355 131.609 40.3162 130.87 40.1632C130.114 40 129.434 39.5934 128.94 39.0081C128.383 38.369 128.09 37.5487 128.118 36.7085V20.6675C128.118 19.0584 128.108 17.5497 128.089 16.1417C128.07 14.7336 128.061 13.5584 128.061 12.6158C128.061 11.3127 128.041 10.0196 128.002 8.73651C127.962 7.45347 127.962 6.16036 128.002 4.8572C127.982 4.2619 128.157 3.67609 128.5 3.18479C128.823 2.73172 129.256 2.36559 129.761 2.12013C130.273 1.86965 130.831 1.72305 131.402 1.6891C131.979 1.64957 132.558 1.7281 133.102 1.9197C133.648 2.12335 134.139 2.44785 134.536 2.86798C135.026 3.34786 135.504 3.8651 135.973 4.4197C136.443 4.97574 136.882 5.53393 137.291 6.0878C137.699 6.64168 138.044 7.09427 138.319 7.4391C139.334 8.66755 140.505 10.077 141.833 11.6675C143.162 13.2581 144.392 14.7624 145.526 16.1805C146.656 17.6388 147.76 19.0957 148.836 20.5512C149.912 22.0066 150.958 23.4642 151.973 24.924C152.089 21.4341 152.167 17.9642 152.208 14.5145C152.249 11.0648 152.268 7.59499 152.265 4.10505L152.318 3.75806Z" fill="#EB5858"/>
</g>
<defs>
<clipPath id="clip0">
<rect width="308" height="61" fill="white"/>
</clipPath>
</defs>
</svg>
