<svg width="85" height="62" viewBox="0 0 85 62" fill="none" xmlns="http://www.w3.org/2000/svg">
<path d="M9.45819 18.7566C6.40801 20.308 3.88638 22.729 2.21216 25.7136C0.537942 28.6981 -0.213667 32.1121 0.0523787 35.5237C0.318425 38.9354 1.59018 42.1916 3.70681 44.8805C5.82345 47.5695 8.68991 49.5703 11.9437 50.6301C15.1975 51.69 18.6925 51.7611 21.9867 50.8346C25.281 49.9081 28.2265 48.0256 30.4508 45.425C32.6752 42.8245 34.0784 39.6228 34.4831 36.2247C34.8878 32.8267 34.2757 29.385 32.7244 26.3348C31.6943 24.3095 30.2754 22.5069 28.5487 21.03C26.822 19.5531 24.8213 18.4307 22.6608 17.727C20.5003 17.0233 18.2224 16.7521 15.9571 16.9287C13.6918 17.1054 11.4835 17.7265 9.45819 18.7566Z" fill="#F2F2F2"/>
<path d="M31.8252 26.6151L29.3507 29.5149L23.0774 26.0738L19.6556 20.4385L22.6134 18.2443L26.5475 19.5782C25.8498 19.1339 25.1195 18.7429 24.363 18.4086L22.8164 17.9833V17.79C18.9712 16.4917 14.7909 16.5944 11.0141 18.08L11.7874 20.2355L7.14772 25.8901L2.45001 28.2776L1.88938 26.3444C1.76694 26.5893 1.65095 26.831 1.5414 27.0694L2.17936 28.7609L1.44474 35.5852L0.536133 38.485C0.603795 38.746 0.681124 39.007 0.758452 39.2583L1.6284 36.0878L5.96846 38.9876L9.23559 45.6572L8.63629 48.2091L6.70308 47.8224C7.04139 48.0834 7.38937 48.3347 7.74701 48.5667L8.37531 48.6344V48.9823L8.95527 49.311C8.95527 49.195 8.84894 49.079 8.80061 48.9533L14.8806 51.3022C16.3023 51.5069 17.7441 51.5329 19.1723 51.3795L21.5695 50.6449L25.6679 49.3207C26.2447 49.0138 26.8002 48.6682 27.3305 48.2864L21.3858 50.0456L18.6117 46.5272L22.8647 40.3892L29.5536 38.3303L31.6995 42.5544L28.9253 46.9911C30.7859 45.3177 32.2603 43.2596 33.2461 40.9595L32.0861 42.0614L29.9403 37.8374L29.689 30.0562L32.1635 27.1564L33.739 28.7029C33.474 27.8945 33.151 27.1063 32.7724 26.3444C31.9549 24.7393 30.8917 23.2717 29.6213 21.9947L31.8252 26.6151ZM18.0704 46.2758L9.69956 45.5026L6.43243 38.833L9.82522 32.7434H18.051L22.3234 40.1959L18.0704 46.2758ZM18.0704 32.0377H9.84455L7.52469 26.0255L12.1451 20.3708L19.0853 20.5545L22.5071 26.1898L18.0704 32.0377Z" fill="#313131"/>
<path d="M58.9494 39.6794C69.16 38.1862 76.2268 28.6984 74.7336 18.4878C73.2404 8.27729 63.7526 1.21047 53.542 2.70367C43.3315 4.19687 36.2647 13.6846 37.7579 23.8952C39.2511 34.1057 48.7388 41.1726 58.9494 39.6794Z" fill="#F08344"/>
<path d="M73.9791 19.0175C74.2016 18.5255 74.3984 18.0221 74.5688 17.5096C74.4206 16.833 74.2466 16.1661 74.0468 15.5088C73.8496 16.5779 73.5251 17.6196 73.0802 18.6116C72.312 20.5842 71.8365 22.6586 71.6689 24.7689C71.089 24.8269 70.4124 24.8752 69.6391 24.8945C70.1608 21.3457 69.9536 17.7278 69.0301 14.2618C67.809 9.87193 65.1764 6.00623 61.5389 3.26187C60.6371 2.99508 59.7161 2.79796 58.7841 2.67224C60.9937 3.88311 62.9365 5.52684 64.4967 7.50527C67.0389 10.7047 69.8034 16.3014 68.6435 24.9042C67.6769 24.9042 66.5459 24.9042 65.3667 24.8462C65.4318 23.4505 65.2885 22.0529 64.9414 20.6994C64.2744 18.1089 61.7129 15.4218 59.683 13.6239C57.0879 11.3509 54.2365 9.38828 51.1866 7.77592C49.3411 6.69003 47.2278 6.14412 45.0873 6.20035C44.4619 6.66326 43.8677 7.16699 43.3087 7.70826C43.3087 7.70826 45.6093 5.96837 50.7129 8.67487C56.4449 11.6713 62.9888 17.0843 63.9748 20.9508C64.3032 22.2118 64.4369 23.5157 64.3711 24.8172C58.3375 24.4951 52.3353 23.736 46.4115 22.5457C40.2833 21.2794 38.3404 19.6458 37.7121 18.7469C37.6541 19.1915 37.6154 19.6362 37.5864 20.1001C38.7947 21.2021 41.2499 22.4973 46.1989 23.5123C52.1535 24.7184 58.1883 25.4873 64.2551 25.8128C64.0056 27.7466 63.1138 29.5406 61.7226 30.9068C59.5477 32.9947 53.9897 35.8752 48.8571 35.4305C45.9572 35.1792 42.6031 33.1203 41.0275 32.0571C41.6481 32.9191 42.3401 33.7275 43.0961 34.4736C44.846 35.4758 46.7723 36.1321 48.7701 36.4068C49.1664 36.4068 49.553 36.4551 49.9493 36.4551C54.5326 36.3143 58.9295 34.6087 62.4089 31.6221C63.9879 30.0682 64.9903 28.0225 65.2507 25.8225C66.285 25.8225 67.2516 25.8805 68.1505 25.8805H68.4985C67.6285 31.0518 65.5407 34.8892 62.2832 37.2961C60.4841 38.6024 58.406 39.4727 56.2129 39.8382C57.8653 39.838 59.5102 39.6169 61.1039 39.181C61.7021 38.8608 62.277 38.499 62.8245 38.0984C66.3333 35.5078 68.5661 31.3901 69.4651 25.8515C70.248 25.8515 70.9343 25.7935 71.5433 25.7355C71.4001 27.3002 71.3517 28.8722 71.3983 30.4428C71.3983 30.9358 71.4563 31.4094 71.5046 31.8927C71.8139 31.4481 72.1136 30.9745 72.3939 30.5008V30.4042C72.3457 28.7917 72.3941 27.1778 72.5389 25.5711C73.1962 25.4716 73.8432 25.3131 74.4721 25.0975C74.5494 24.7205 74.6268 24.3339 74.6848 23.9472C74.0357 24.2399 73.3494 24.4416 72.6452 24.5465C72.8233 22.6492 73.2725 20.7873 73.9791 19.0175Z" fill="#231F20"/>
<g style="mix-blend-mode:multiply" opacity="0.4">
<path d="M70.7607 14.2426C70.7607 17.0606 70.2057 19.851 69.1273 22.4545C68.0489 25.058 66.4683 27.4236 64.4757 29.4162C62.483 31.4088 60.1175 32.9894 57.514 34.0678C54.9105 35.1462 52.1201 35.7013 49.3021 35.7013C47.3756 35.7009 45.4578 35.4441 43.5991 34.9377C47.1557 38.1199 51.7956 39.8198 56.5662 39.6883C61.3368 39.5568 65.876 37.6039 69.2518 34.2305C72.6277 30.8571 74.5839 26.3193 74.7189 21.5489C74.8539 16.7784 73.1575 12.1372 69.9778 8.57831C70.4913 10.4228 70.7547 12.328 70.7607 14.2426Z" fill="#E7401E"/>
</g>
<path d="M61.5379 29.5343C61.5379 25.9772 58.6961 25.9772 58.6961 25.9772C58.6961 25.9772 55.8639 25.9772 55.8639 29.5247C55.8639 32.5405 56.8885 32.4245 56.9078 34.812C56.9272 37.1995 53.3797 43.0572 53.4377 49.7847C53.4957 56.5123 55.2743 58.7645 55.2743 58.7645V59.4798H62.1275V58.7645C62.1275 58.7645 63.8964 56.522 63.9544 49.7847C64.0124 43.0475 60.4746 37.1415 60.4843 34.812C60.4939 32.4825 61.5379 32.5502 61.5379 29.5343Z" fill="white"/>
<path d="M56.6758 36.204C56.5211 36.7549 56.2988 37.3929 56.0571 38.1372H61.3445C61.0931 37.4219 60.8708 36.7839 60.7258 36.204H56.6758Z" fill="#CA1517"/>
<path d="M56.8889 34.3479H60.504C60.5593 33.6784 60.7328 33.0239 61.0163 32.4147H56.3862C56.6614 33.0262 56.8314 33.6798 56.8889 34.3479Z" fill="#CA1517"/>
<g style="mix-blend-mode:multiply">
<path d="M61.5392 29.5344C61.5771 29.0348 61.5107 28.5328 61.3443 28.0603C61.1779 27.5877 60.9151 27.1549 60.5726 26.7892C60.8316 28.2987 60.7757 29.8455 60.4082 31.3323C59.7026 33.2655 58.4074 33.3332 58.6974 36.3876C58.9873 39.4421 60.9496 41.7523 61.0172 47.9869C61.0849 54.2215 60.2343 57.5563 59.7896 58.1363C59.345 58.7162 56.7351 58.6196 55.1982 58.6582C55.2204 58.6962 55.2463 58.7318 55.2756 58.7646V59.4799H62.1288V58.7646C62.1288 58.7646 63.8977 56.522 63.9557 49.7848C64.0137 43.0476 60.4759 37.1416 60.4856 34.8121C60.4952 32.4826 61.5392 32.5502 61.5392 29.5344Z" fill="#C5C5C4"/>
</g>
<path d="M81.663 29.5343C81.663 25.9772 78.8308 25.9772 78.8308 25.9772C78.8308 25.9772 75.9987 25.9772 75.9987 29.5247C75.9987 32.5405 77.0233 32.4245 77.0426 34.812C77.0619 37.1995 73.5145 43.0572 73.5725 49.7847C73.6305 56.5123 75.409 58.7645 75.409 58.7645V59.4798H82.2623V58.7645C82.2623 58.7645 84.0312 56.522 84.0892 49.7847C84.1471 43.0475 80.6094 37.1512 80.6094 34.8217C80.6094 32.4922 81.663 32.5502 81.663 29.5343Z" fill="white"/>
<path d="M76.8109 36.204C76.6563 36.7549 76.4339 37.3929 76.1826 38.1372H81.4796C81.2283 37.4219 81.006 36.7839 80.861 36.204H76.8109Z" fill="#CA1517"/>
<path d="M77.0231 34.3479H80.6093C80.6646 33.6784 80.8381 33.0239 81.1216 32.4147H76.5205C76.7957 33.0262 76.9657 33.6798 77.0231 34.3479Z" fill="#CA1517"/>
<g style="mix-blend-mode:multiply">
<path d="M81.6627 29.5344C81.7006 29.0348 81.6343 28.5328 81.4679 28.0603C81.3015 27.5877 81.0387 27.1549 80.6961 26.7892C80.9552 28.2987 80.8992 29.8455 80.5318 31.3323C79.8262 33.2655 78.5309 33.3332 78.8209 36.3876C79.1109 39.4421 81.0731 41.7523 81.1407 47.9869C81.2084 54.2215 80.3578 57.5563 79.9132 58.1363C79.4685 58.7162 76.8587 58.6196 75.3218 58.6582C75.3439 58.6962 75.3698 58.7318 75.3991 58.7646V59.4799H82.2523V58.7646C82.2523 58.7646 84.0212 56.522 84.0792 49.7848C84.1372 43.0476 80.6091 37.1513 80.6091 34.8217C80.6091 32.4922 81.6627 32.5502 81.6627 29.5344Z" fill="#C5C5C4"/>
</g>
<path d="M71.9678 26.4991C71.9678 22.507 68.778 22.507 68.778 22.507C68.778 22.507 65.5882 22.507 65.5882 26.4991C65.5882 29.8919 66.7384 29.8242 66.7674 32.4437C66.7964 35.0632 62.7947 41.7231 62.901 49.3013C63.0073 56.8795 64.9599 59.412 64.9599 59.412V60.2143H72.6927V59.412C72.6927 59.412 74.6259 56.9085 74.6936 49.3013C74.7613 41.6941 70.7692 35.0729 70.8272 32.4437C70.8852 29.8146 71.9678 29.8919 71.9678 26.4991Z" fill="white"/>
<path d="M66.4967 34.0001C66.3227 34.6284 66.0811 35.3437 65.8008 36.146H71.7551C71.4748 35.3437 71.2331 34.6284 71.0591 34.0001H66.4967Z" fill="#CA1517"/>
<path d="M66.7397 31.9121H70.8188C70.8782 31.1715 71.0715 30.4477 71.3891 29.7759H66.1694C66.4871 30.4477 66.6803 31.1715 66.7397 31.9121Z" fill="#CA1517"/>
<g style="mix-blend-mode:multiply">
<path d="M71.9687 26.4993C72.0119 25.9369 71.938 25.3716 71.7517 24.8392C71.5653 24.3068 71.2706 23.8188 70.8861 23.4061C71.1776 25.1083 71.115 26.8522 70.7024 28.5291C69.9098 30.675 68.4503 30.7717 68.7692 34.2128C69.0882 37.6539 71.3017 40.2444 71.3791 47.2813C71.4564 54.3182 70.5091 58.0493 69.9775 58.6969C69.4459 59.3445 66.5364 59.2479 64.8062 59.2865L64.8931 59.4122V60.2145H72.626V59.4122C72.626 59.4122 74.6269 56.9087 74.6945 49.3015C74.7622 41.6943 70.7701 35.0731 70.8281 32.4439C70.8861 29.8147 71.9687 29.8921 71.9687 26.4993Z" fill="#C5C5C4"/>
</g>
<path d="M69.7646 38.6783C67.5408 38.6783 65.3669 39.3379 63.5181 40.5736C61.6692 41.8093 60.2283 43.5655 59.3777 45.6202C58.5272 47.6749 58.3051 49.9357 58.7397 52.1167C59.1742 54.2976 60.2458 56.3006 61.819 57.8724C63.3921 59.4442 65.3961 60.5141 67.5774 60.9468C69.7587 61.3794 72.0193 61.1554 74.0733 60.3031C76.1272 59.4508 77.8823 58.0084 79.1164 56.1585C80.3504 54.3085 81.0081 52.1341 81.0062 49.9103C81.0062 48.4345 80.7154 46.9731 80.1503 45.6098C79.5852 44.2464 78.757 43.0078 77.713 41.9647C76.669 40.9216 75.4297 40.0944 74.0658 39.5306C72.702 38.9667 71.2404 38.6771 69.7646 38.6783Z" fill="#2F2F30"/>
<path d="M72.123 46.1213C71.8758 46.2792 71.683 46.5093 71.5709 46.7804C71.4588 47.0515 71.4328 47.3506 71.4964 47.637C71.5599 47.9234 71.71 48.1833 71.9263 48.3816C72.1426 48.5798 72.4145 48.7068 72.7054 48.7453C72.9962 48.7837 73.2919 48.7318 73.5522 48.5966C73.8126 48.4615 74.0251 48.2495 74.161 47.9894C74.2968 47.7294 74.3494 47.4339 74.3117 47.143C74.2739 46.852 74.1476 46.5797 73.9499 46.363C73.7394 46.0891 73.4289 45.9098 73.0864 45.8645C72.744 45.8192 72.3975 45.9116 72.123 46.1213Z" fill="#CDCCCC"/>
<path d="M77.3911 45.1161C77.622 44.8618 77.7442 44.5273 77.7315 44.184C77.7189 43.8408 77.5724 43.5162 77.3234 43.2796C77.1099 43.0099 76.7999 42.8339 76.4589 42.7888C76.118 42.7437 75.7728 42.8331 75.4965 43.0379C75.2735 43.3053 75.1557 43.6449 75.1651 43.9929C75.1745 44.341 75.3105 44.6737 75.5477 44.9286C75.7848 45.1836 76.1068 45.3433 76.4533 45.3778C76.7998 45.4123 77.147 45.3193 77.4298 45.1161H77.3911Z" fill="#CDCCCC"/>
<path d="M76.6565 47.5614C76.408 47.7184 76.2138 47.948 76.1005 48.2192C75.9871 48.4903 75.96 48.7898 76.0228 49.077C76.0857 49.3641 76.2355 49.6249 76.4518 49.8238C76.6681 50.0228 76.9404 50.1504 77.2317 50.1891C77.5231 50.2279 77.8193 50.1759 78.0801 50.0404C78.3409 49.9048 78.5536 49.6922 78.6893 49.4315C78.825 49.1708 78.8771 48.8747 78.8385 48.5833C78.8 48.2919 78.6726 48.0195 78.4737 47.8031C78.2619 47.5341 77.9535 47.3584 77.6142 47.3132C77.2748 47.2681 76.9312 47.3571 76.6565 47.5614Z" fill="#CDCCCC"/>
<g style="mix-blend-mode:multiply" opacity="0.32">
<path d="M78.7734 43.8015C78.7711 45.9342 78.2798 48.038 77.3372 49.9512C76.3946 51.8643 75.0258 53.5358 73.3361 54.8371C71.6464 56.1385 69.6808 57.035 67.5904 57.4578C65.5 57.8806 63.3404 57.8184 61.2778 57.276C62.2032 58.4235 63.3455 59.3775 64.6396 60.0835C65.9336 60.7896 67.3541 61.2338 68.8198 61.3909C70.2856 61.5479 71.7679 61.4148 73.1822 60.999C74.5965 60.5832 75.915 59.8929 77.0625 58.9675C78.21 58.0422 79.164 56.8998 79.8701 55.6058C80.5761 54.3117 81.0203 52.8913 81.1774 51.4255C81.3345 49.9598 81.2013 48.4775 80.7855 47.0632C80.3697 45.6489 79.6794 44.3304 78.7541 43.1829C78.7637 43.3762 78.7734 43.5985 78.7734 43.8015Z" fill="black"/>
</g>
<path d="M38.4181 25.6582C34.8993 25.6639 31.4613 26.7127 28.5385 28.6719C25.6157 30.6312 23.3394 33.413 21.9972 36.6657C20.6551 39.9185 20.3074 43.4961 20.998 46.9463C21.6887 50.3966 23.3868 53.5647 25.8776 56.0501C28.3685 58.5355 31.5402 60.2267 34.992 60.9099C38.4438 61.5931 42.0206 61.2376 45.2704 59.8884C48.5202 58.5392 51.297 56.2569 53.25 53.3298C55.2029 50.4028 56.2442 46.9624 56.2423 43.4437C56.2398 41.1055 55.7767 38.7908 54.8796 36.6315C53.9825 34.4723 52.6688 32.511 51.0137 30.8594C49.3586 29.2079 47.3943 27.8985 45.2332 27.0061C43.072 26.1136 40.7562 25.6556 38.4181 25.6582Z" fill="#821810"/>
<path d="M37.6332 25.0106C34.1449 25.0087 30.7345 26.0416 27.8334 27.9786C24.9323 29.9156 22.671 32.6697 21.3357 35.8922C20.0003 39.1148 19.6509 42.6611 20.3317 46.0823C21.0125 49.5035 22.6928 52.6459 25.1601 55.1119C27.6273 57.5778 30.7707 59.2564 34.1923 59.9353C37.6139 60.6142 41.1599 60.2628 44.3818 58.9257C47.6036 57.5886 50.3564 55.3258 52.2919 52.4236C54.2273 49.5215 55.2583 46.1105 55.2545 42.6222C55.2519 37.9504 53.3942 33.4709 50.0899 30.1683C46.7856 26.8658 42.305 25.0106 37.6332 25.0106Z" fill="#CA1517"/>
<path d="M37.6347 27.3691C34.6152 27.3672 31.663 28.2609 29.1515 29.9373C26.6401 31.6136 24.6824 33.9973 23.526 36.7865C22.3696 39.5758 22.0665 42.6454 22.6551 45.607C23.2437 48.5686 24.6975 51.289 26.8327 53.4242C28.9678 55.5593 31.6882 57.0131 34.6498 57.6017C37.6114 58.1903 40.681 57.8872 43.4703 56.7308C46.2596 55.5744 48.6432 53.6167 50.3195 51.1053C51.9959 48.5938 52.8896 45.6416 52.8877 42.6221C52.8852 38.5776 51.2773 34.6994 48.4174 31.8394C45.5574 28.9795 41.6793 27.3716 37.6347 27.3691Z" fill="white"/>
<path d="M37.6348 29.7084C35.078 29.7065 32.578 30.4631 30.4513 31.8824C28.3245 33.3017 26.6666 35.32 25.6873 37.6819C24.7079 40.0437 24.4512 42.643 24.9495 45.1508C25.4479 47.6587 26.6789 49.9623 28.4869 51.7703C30.2948 53.5782 32.5985 54.8093 35.1063 55.3076C37.6141 55.806 40.2134 55.5492 42.5753 54.5699C44.9371 53.5905 46.9554 51.9326 48.3747 49.8059C49.794 47.6791 50.5506 45.1791 50.5487 42.6223C50.5461 39.1981 49.1848 35.9149 46.7635 33.4936C44.3422 31.0724 41.059 29.711 37.6348 29.7084Z" fill="#CA1517"/>
<path d="M37.6336 32.2214C35.5765 32.2214 33.5657 32.8314 31.8553 33.9743C30.1449 35.1171 28.8118 36.7415 28.0246 38.6419C27.2374 40.5424 27.0314 42.6337 27.4328 44.6512C27.8341 46.6687 28.8246 48.5219 30.2792 49.9765C31.7338 51.4311 33.587 52.4216 35.6045 52.8229C37.6221 53.2243 39.7133 53.0183 41.6138 52.2311C43.5142 51.4439 45.1386 50.1108 46.2814 48.4004C47.4243 46.69 48.0343 44.6792 48.0343 42.6221C48.0343 39.8637 46.9385 37.2182 44.988 35.2677C43.0375 33.3172 40.392 32.2214 37.6336 32.2214Z" fill="white"/>
<path d="M37.6335 34.7444C36.0727 34.7425 34.5464 35.2037 33.2478 36.0696C31.9492 36.9356 30.9368 38.1674 30.3386 39.609C29.7404 41.0507 29.5834 42.6374 29.8874 44.1683C30.1915 45.6992 30.9429 47.1055 32.0465 48.2092C33.1502 49.3129 34.5565 50.0643 36.0874 50.3683C37.6184 50.6723 39.2051 50.5153 40.6467 49.9171C42.0884 49.319 43.3201 48.3065 44.1861 47.0079C45.052 45.7093 45.5132 44.1831 45.5113 42.6222C45.5113 40.5329 44.6814 38.5291 43.204 37.0518C41.7266 35.5744 39.7228 34.7444 37.6335 34.7444Z" fill="#CA1517"/>
<path d="M37.6346 37.3542C36.5904 37.3542 35.5696 37.664 34.7015 38.2443C33.8334 38.8247 33.1569 39.6495 32.7577 40.6144C32.3586 41.5793 32.2546 42.641 32.4591 43.665C32.6635 44.6891 33.1671 45.6294 33.9062 46.3671C34.6452 47.1049 35.5865 47.6067 36.6109 47.8093C37.6353 48.0118 38.6968 47.9059 39.661 47.505C40.6252 47.1041 41.4488 46.4261 42.0275 45.5569C42.6063 44.6878 42.9142 43.6664 42.9123 42.6222C42.9097 41.2241 42.3525 39.8842 41.3631 38.8966C40.3736 37.9089 39.0326 37.3542 37.6346 37.3542Z" fill="white"/>
<path d="M37.6337 39.8769C37.0885 39.8769 36.5555 40.0387 36.1022 40.3419C35.649 40.645 35.2959 41.0758 35.0877 41.5798C34.8795 42.0837 34.8255 42.6381 34.9326 43.1727C35.0396 43.7074 35.303 44.1982 35.6892 44.5831C36.0754 44.968 36.5672 45.2296 37.1022 45.3348C37.6372 45.44 38.1915 45.3841 38.6947 45.1741C39.1979 44.9641 39.6274 44.6095 39.929 44.1552C40.2305 43.7009 40.3905 43.1673 40.3885 42.6221C40.3885 42.2608 40.3172 41.903 40.1787 41.5693C40.0401 41.2356 39.837 40.9326 39.5811 40.6775C39.3252 40.4225 39.0214 40.2205 38.6872 40.0831C38.353 39.9457 37.995 39.8756 37.6337 39.8769Z" fill="#CA1517"/>
<g style="mix-blend-mode:multiply" opacity="0.5">
<path d="M48.4804 46.8077L47.2335 47.5616L38.7467 43.5405L37.0068 43.4536L46.6729 48.2866C46.6729 48.2866 48.9638 51.3314 50.636 51.3314C52.3082 51.3314 52.1632 50.8771 52.2212 50.4808C52.2792 50.0845 53.4295 48.8085 53.0815 48.0063C52.7335 47.204 48.5288 46.827 48.4804 46.8077Z" fill="#010101"/>
</g>
<g style="mix-blend-mode:multiply" opacity="0.5">
<path d="M54.6463 43.3762C51.3019 41.907 49.4266 43.5695 49.4266 43.5695L40.0989 42.4869L38.417 42.9509L49.127 44.4588C49.127 44.4588 51.6402 46.711 53.2931 46.4404C54.946 46.1697 54.946 45.5317 54.8783 45.1451C54.8106 44.7585 55.4776 43.7725 54.6463 43.3762Z" fill="#010101"/>
</g>
<g style="mix-blend-mode:multiply" opacity="0.5">
<path d="M52.7323 34.7444C49.0786 34.8701 48.112 37.1899 48.112 37.1899L39.2385 40.2638L37.9336 41.443L48.2279 38.1179C48.2279 38.1179 51.4757 39.0845 52.8387 38.1179C54.2016 37.1513 53.9406 36.581 53.7086 36.262C53.4766 35.943 53.6216 34.6768 52.7323 34.7444Z" fill="#010101"/>
</g>
<path d="M46.1302 35.0729L39.8086 39.326L40.4176 40.138L46.4202 35.4982L49.8903 33.1977L49.5037 32.6854L46.1302 35.0729Z" fill="#010101"/>
<path d="M38.0219 40.6697C37.4806 41.124 37.6546 41.501 37.6546 41.501C37.8962 41.675 38.1475 41.6846 38.5245 41.4236L40.4577 40.1381L39.8488 39.3261C39.8488 39.3261 38.5632 40.2154 38.0219 40.6697Z" fill="#54B14C"/>
<path d="M49.6781 30.5202C49.0402 30.5202 47.3293 31.9411 46.6817 33.1494C46.32 33.7274 46.1414 34.4013 46.1693 35.0826L50.3741 31.4095C50.3741 31.4095 50.2871 30.5589 49.6781 30.5202Z" fill="#319E3B"/>
<path d="M51.1196 32.4825L46.4219 35.4983C47.0778 35.7341 47.7913 35.7577 48.4614 35.566C49.805 35.276 51.6802 34.0387 51.8252 33.4201C51.9702 32.8015 51.1196 32.4825 51.1196 32.4825Z" fill="#319E3B"/>
<path d="M50.3166 32.0669L46.4502 35.4983C47.6272 35.2099 48.7522 34.7403 49.785 34.1064C50.9836 33.2364 51.5152 32.7821 51.3122 32.4052C51.1092 32.0282 50.3166 32.0669 50.3166 32.0669Z" fill="#54B14C"/>
<path d="M48.4121 32.3182C47.5147 33.1333 46.7485 34.0821 46.1406 35.131L50.529 32.3376C50.529 32.3376 50.79 31.6223 50.471 31.371C50.152 31.1196 49.5817 31.3999 48.4121 32.3182Z" fill="#54B14C"/>
<path d="M48.4984 39.9931L41.0942 41.8297L41.3939 42.7963L48.6144 40.4958L52.6645 39.5195L52.4809 38.9009L48.4984 39.9931Z" fill="#010101"/>
<path d="M38.9584 42.4771C38.3011 42.7187 38.3398 43.1344 38.3398 43.1344C38.4944 43.376 38.7264 43.4727 39.1711 43.3664L41.3943 42.7961L41.0946 41.8295C41.0946 41.8295 39.6254 42.2354 38.9584 42.4771Z" fill="#54B14C"/>
<path d="M53.3512 36.9191C52.7712 36.6582 50.664 37.4411 49.6394 38.369C49.0882 38.7963 48.683 39.3839 48.4795 40.0509L53.6895 38.0307C53.6895 38.0307 53.9408 37.1705 53.3512 36.9191Z" fill="#319E3B"/>
<path d="M54.0669 39.2681L48.6152 40.4763C49.1622 40.9297 49.8393 41.1972 50.5484 41.2399C51.9114 41.4333 54.1056 40.9113 54.4149 40.37C54.7242 39.8287 54.0669 39.2681 54.0669 39.2681Z" fill="#319E3B"/>
<path d="M53.4579 38.6011L48.6152 40.4763C49.8215 40.6087 51.041 40.5532 52.2303 40.312C53.6609 39.9061 54.3085 39.6644 54.2505 39.2294C54.1925 38.7945 53.4579 38.6011 53.4579 38.6011Z" fill="#54B14C"/>
<path d="M51.6106 38.1758C50.4877 38.6408 49.4416 39.273 48.5078 40.051L53.5438 38.9297C53.5438 38.9297 54.0368 38.3401 53.8435 37.9631C53.6502 37.5861 52.9929 37.7215 51.6106 38.1758Z" fill="#54B14C"/>
<path d="M39.4509 43.2987L39.2383 44.2943L46.6618 45.8409L50.6636 46.9815L50.8086 46.3435L46.7971 45.3382L39.4509 43.2987Z" fill="#010101"/>
<path d="M36.4062 43.0765C36.4062 43.3665 36.5802 43.5791 37.0249 43.6951L39.2384 44.3427L39.4511 43.3761C39.4511 43.3761 37.9721 43.0088 37.2762 42.8928C36.5802 42.7768 36.4062 43.0765 36.4062 43.0765Z" fill="#54B14C"/>
<path d="M48.5959 44.4876C47.9079 44.5889 47.269 44.9033 46.769 45.3866L52.2884 46.1888C52.2884 46.1888 52.9263 45.5605 52.5493 45.0482C52.1724 44.5359 49.9395 44.188 48.5959 44.4876Z" fill="#319E3B"/>
<path d="M46.6631 45.8314C46.915 46.4811 47.3604 47.0378 47.939 47.4263C49.0313 48.2672 51.1965 48.8858 51.7571 48.5862C52.3177 48.2865 52.0084 47.4456 52.0084 47.4456L46.6631 45.8314Z" fill="#319E3B"/>
<path d="M46.6631 45.8314C47.6486 46.539 48.7377 47.09 49.8915 47.4649C51.3318 47.8129 52.0181 47.9192 52.1824 47.4649C52.3467 47.0106 51.8054 46.4983 51.8054 46.4983L46.6631 45.8314Z" fill="#54B14C"/>
<path d="M50.3745 45.3093C49.1742 45.162 47.9585 45.1979 46.769 45.4156L51.7374 46.9332C51.7374 46.9332 52.4527 46.6625 52.472 46.2276C52.4913 45.7926 51.8341 45.5703 50.3745 45.3093Z" fill="#54B14C"/>
<path d="M17.9353 49.8525L18.3606 51.3604H18.0706L17.7807 49.8331H17.5197L17.7613 51.312H17.394L17.2104 49.8138H16.9494L17.0364 51.2927H16.6594V49.9008H16.3887V51.2927H16.0118L16.0988 49.8138H15.8378L15.6541 51.312H15.2675L15.4995 49.8331H15.2385L14.8808 51.3604H14.6005L15.0162 49.8525L14.7648 49.7751L11.7974 58.4166L12.1067 58.7936L12.561 58.6582L13.9626 53.6222H14.3782L13.2763 58.6293L13.6242 58.9676L14.0592 58.7742L14.8808 53.6222H15.2868L14.6779 58.6679L15.0548 58.9772L15.4705 58.7452L15.8474 53.6222H16.2921L16.1374 58.6969L16.5337 58.9676L16.93 58.6969L16.7754 53.6222H17.22L17.5293 58.7452L17.9546 58.9772L18.3316 58.6679L17.713 53.6222H18.119L18.9406 58.7742L19.3852 58.9676L19.7235 58.6293L18.5733 53.6222H18.9889L20.3905 58.6582L20.8545 58.7936L21.1541 58.4166L18.1963 49.7751L17.9353 49.8525ZM14.4749 53.3033H14.0786L14.5232 51.6794H14.8808L14.4749 53.3033ZM15.3448 53.3033H14.9582L15.2095 51.6794H15.5381L15.3448 53.3033ZM16.2534 53.3033H15.8474L15.9441 51.6794H16.3307L16.2534 53.3033ZM16.7174 53.3033V51.6794H17.104L17.2007 53.3033H16.7174ZM17.626 53.3033L17.4327 51.6794H17.7807L18.0416 53.3033H17.626ZM18.9019 53.3033H18.5056L18.148 51.6794H18.4476L18.9019 53.3033Z" fill="white"/>
<path d="M15.0068 49.9685V49.8525L14.7651 49.7751C14.8381 49.8485 14.9192 49.9133 15.0068 49.9685Z" fill="#DBDBDB"/>
<path d="M15.7109 50.2487H16.0009V49.8717H15.7399L15.7109 50.2487Z" fill="#DBDBDB"/>
<path d="M15.1807 50.0843C15.265 50.1332 15.3563 50.1691 15.4513 50.1907L15.4996 49.8813H15.2387L15.1807 50.0843Z" fill="#DBDBDB"/>
<path d="M17.9357 49.8525L18.4287 51.341H18.0711L17.7811 49.8331H17.5201L17.9067 51.3024H17.3944L17.2108 49.8041H16.9498L17.1431 51.283H16.6598V49.8911H16.3892V50.1425C16.6695 50.0845 16.5148 49.9975 16.5535 50.4324C16.5921 50.8674 16.6888 57.0923 16.7178 58.7646L16.9208 58.6196L16.7661 53.5449H17.3558L17.7811 58.9192L17.8971 58.9772L18.274 58.6679L17.6554 53.6222H18.1967L19.1633 58.8806L19.3663 58.9676L19.7046 58.6293L18.5737 53.6222H19.0667L20.5359 58.7066L20.8549 58.7936L21.1545 58.4166L18.1967 49.7751L17.9357 49.8525ZM16.7178 53.3033V51.6794H17.1721L17.3268 53.2936L16.7178 53.3033ZM17.6264 53.3033L17.4331 51.6794H17.8777L18.187 53.2839L17.6264 53.3033ZM18.9797 53.3033H18.506L18.1484 51.6794H18.4964L18.9797 53.3033Z" fill="#DBDBDB"/>
<path d="M16.5146 46.9235C16.2734 46.926 16.0351 46.9761 15.8132 47.0707C15.5914 47.1653 15.3903 47.3027 15.2216 47.4751C15.0528 47.6474 14.9197 47.8513 14.8297 48.0751C14.7398 48.2989 14.6948 48.5382 14.6974 48.7794C14.6974 48.8857 14.6974 49.3884 14.6974 49.485H18.2835C18.2835 49.3884 18.2835 48.8857 18.2835 48.7794C18.2888 48.3005 18.1069 47.8384 17.7765 47.4917C17.446 47.145 16.9932 46.9411 16.5146 46.9235Z" fill="white"/>
<path d="M17.4122 47.1653C17.2286 47.059 17.6055 47.5616 17.5765 48.1319C17.5282 49.2435 16.9966 48.9632 16.9966 49.4368H18.3015C18.3015 49.3402 18.3015 48.8375 18.3015 48.7312C18.2975 48.4164 18.2138 48.1077 18.0583 47.8339C17.9028 47.5601 17.6806 47.3301 17.4122 47.1653Z" fill="#DBDBDB"/>
<path d="M18.3117 49.4852H14.7256V49.9685H18.3117V49.4852Z" fill="#A31916"/>
<path d="M18.3015 49.4852H16.9966V49.9685H18.3015V49.4852Z" fill="#74160E"/>
</svg>
