<svg width="150" height="80" viewBox="0 0 150 80" fill="none" xmlns="http://www.w3.org/2000/svg">
<path d="M107.062 56.1543C107.062 57.215 107.922 58.0749 108.983 58.0749C110.043 58.0749 110.903 57.215 110.903 56.1543V47.8634H107.062V56.1543Z" fill="#C77464"/>
<path d="M124.732 47.8625V56.1535C124.732 57.2142 125.592 58.0741 126.652 58.0741C127.713 58.0741 128.573 57.2142 128.573 56.1535V47.8625H124.732Z" fill="#CE857A"/>
<path d="M130.934 8.70316C129.139 8.22878 127.325 7.85491 125.5 7.5786C118.582 6.53138 111.503 6.90538 104.701 8.70316C102.622 9.25295 101.173 11.1343 101.173 13.2855V29.9985H116.537H134.463V13.2855C134.463 11.1343 133.014 9.25295 130.934 8.70316V8.70316Z" fill="#CE857A"/>
<path d="M120.066 8.70316C121.861 8.22878 123.675 7.85491 125.5 7.5786C118.582 6.53138 111.503 6.90538 104.701 8.70316C102.622 9.25295 101.173 11.1343 101.173 13.2855V29.9985H116.537V13.2855C116.537 11.1343 117.986 9.25295 120.066 8.70316V8.70316Z" fill="#C77464"/>
<path d="M97.5229 49.2061L100.404 46.6454L103.285 49.2061V59.8971C103.285 60.9578 102.425 61.8177 101.364 61.8177H99.4435C98.3828 61.8177 97.5229 60.9578 97.5229 59.8971V49.2061Z" fill="#CE857A"/>
<path d="M132.349 49.2044L135.23 46.6437L138.111 49.2044V59.8954C138.111 60.9561 137.251 61.816 136.19 61.816H134.27C133.209 61.816 132.349 60.9561 132.349 59.8954V49.2044Z" fill="#E8B5B1"/>
<path d="M138.111 49.2047H97.5236C93.2808 49.2047 89.8413 45.7652 89.8413 41.5225V29.9991L117.818 26.1578L145.794 29.999V41.5223C145.794 45.7652 142.354 49.2047 138.111 49.2047Z" fill="#FFCE71"/>
<path d="M145.794 22.3165H89.8411C87.7197 22.3165 86 24.0362 86 26.1577C86 28.279 87.7197 29.9988 89.8411 29.9988H145.794C147.915 29.9988 149.635 28.279 149.635 26.1577C149.635 24.0362 147.915 22.3165 145.794 22.3165Z" fill="#E8B5B1"/>
<path d="M107.19 22.3165H89.8411C87.7197 22.3165 86 24.0362 86 26.1577C86 28.279 87.7197 29.9988 89.8411 29.9988H107.19C105.069 27.8773 105.069 24.4379 107.19 22.3165Z" fill="#CE857A"/>
<path d="M107.19 41.522V29.9987H107.191C97.6921 29.9987 90.1119 29.9987 89.8418 29.9987H89.8413V41.522C89.8413 45.7648 93.2808 49.2043 97.5236 49.2043H114.873C110.63 49.2043 107.19 45.7649 107.19 41.522Z" fill="#FFB357"/>
<path d="M109.815 12.8251C109.285 12.8251 108.855 13.2549 108.855 13.7854V15.3218C108.855 15.8523 109.285 16.2821 109.815 16.2821C110.346 16.2821 110.776 15.8523 110.776 15.3218V13.7854C110.776 13.2549 110.346 12.8251 109.815 12.8251Z" fill="#313D40"/>
<path d="M125.806 12.8235C125.276 12.8235 124.846 13.2533 124.846 13.7838V15.3202C124.846 15.8507 125.276 16.2805 125.806 16.2805C126.337 16.2805 126.767 15.8507 126.767 15.3202V13.7838C126.767 13.2533 126.337 12.8235 125.806 12.8235Z" fill="#313D40"/>
<path d="M120.55 14.5507C120.15 14.2021 119.544 14.2437 119.195 14.6436C118.846 15.0447 118.341 15.2747 117.811 15.2747C117.281 15.2747 116.776 15.0447 116.427 14.6437C116.078 14.244 115.472 14.2024 115.072 14.5506C114.672 14.8991 114.631 15.5058 114.979 15.9055C115.693 16.7251 116.726 17.1951 117.811 17.1951C118.896 17.1951 119.928 16.7251 120.643 15.9056C120.991 15.5059 120.95 14.8993 120.55 14.5507V14.5507Z" fill="#313D40"/>
<path d="M21.062 56.1543C21.062 57.215 21.9219 58.0749 22.9826 58.0749C24.0432 58.0749 24.9031 57.215 24.9031 56.1543V47.8634H21.062V56.1543Z" fill="#C77464"/>
<path d="M38.7319 47.8625V56.1535C38.7319 57.2142 39.5918 58.0741 40.6525 58.0741C41.7132 58.0741 42.5731 57.2142 42.5731 56.1535V47.8625H38.7319Z" fill="#CE857A"/>
<path d="M44.9341 8.70316C43.1394 8.22878 41.3253 7.85491 39.5 7.5786C32.5822 6.53138 25.5033 6.90538 18.7014 8.70316C16.6216 9.25295 15.1729 11.1343 15.1729 13.2855V29.9985H30.5374H48.4626V13.2855C48.4626 11.1343 47.0139 9.25295 44.9341 8.70316V8.70316Z" fill="#CE857A"/>
<path d="M34.0658 8.70316C35.8605 8.22878 37.6748 7.85491 39.5 7.5786C32.5822 6.53138 25.5033 6.90538 18.7014 8.70316C16.6216 9.25295 15.1729 11.1343 15.1729 13.2855V29.9985H30.5374V13.2855C30.5374 11.1343 31.9861 9.25295 34.0658 8.70316V8.70316Z" fill="#C77464"/>
<path d="M11.5229 49.2061L14.4038 46.6454L17.2846 49.2061V59.8971C17.2846 60.9578 16.4247 61.8177 15.3641 61.8177H13.4435C12.3828 61.8177 11.5229 60.9578 11.5229 59.8971V49.2061Z" fill="#CE857A"/>
<path d="M46.3491 49.2044L49.23 46.6437L52.1108 49.2044V59.8954C52.1108 60.9561 51.2509 61.816 50.1902 61.816H48.2697C47.209 61.816 46.3491 60.9561 46.3491 59.8954V49.2044Z" fill="#E8B5B1"/>
<path d="M52.1115 49.2047H11.5236C7.28078 49.2047 3.84131 45.7652 3.84131 41.5225V29.9991L31.8175 26.1578L59.7937 29.999V41.5223C59.7937 45.7652 56.3542 49.2047 52.1115 49.2047Z" fill="#FFCE71"/>
<path d="M59.7935 22.3165H3.84113C1.71967 22.3165 0 24.0362 0 26.1577C0 28.279 1.71967 29.9988 3.84113 29.9988H59.7935C61.915 29.9988 63.6346 28.279 63.6346 26.1577C63.6346 24.0362 61.915 22.3165 59.7935 22.3165Z" fill="#E8B5B1"/>
<path d="M21.1902 22.3165H3.84113C1.71967 22.3165 0 24.0362 0 26.1577C0 28.279 1.71967 29.9988 3.84113 29.9988H21.1902C19.0689 27.8773 19.0689 24.4379 21.1902 22.3165Z" fill="#CE857A"/>
<path d="M21.1904 41.522V29.9987H21.1909C11.6921 29.9987 4.11185 29.9987 3.84182 29.9987H3.84131V41.522C3.84131 45.7648 7.28078 49.2043 11.5236 49.2043H28.8726C24.6299 49.2043 21.1904 45.7649 21.1904 41.522Z" fill="#FFB357"/>
<path d="M23.8153 12.8251C23.2848 12.8251 22.855 13.2549 22.855 13.7854V15.3218C22.855 15.8523 23.2848 16.2821 23.8153 16.2821C24.3457 16.2821 24.7755 15.8523 24.7755 15.3218V13.7854C24.7755 13.2549 24.3457 12.8251 23.8153 12.8251Z" fill="#313D40"/>
<path d="M39.8065 12.8235C39.276 12.8235 38.8462 13.2533 38.8462 13.7838V15.3202C38.8462 15.8507 39.276 16.2805 39.8065 16.2805C40.3369 16.2805 40.7668 15.8507 40.7668 15.3202V13.7838C40.7668 13.2533 40.3369 12.8235 39.8065 12.8235Z" fill="#313D40"/>
<path d="M34.5502 14.5507C34.1503 14.2021 33.5437 14.2437 33.1954 14.6436C32.8458 15.0447 32.3412 15.2747 31.811 15.2747C31.2808 15.2747 30.7765 15.0447 30.4269 14.6437C30.0783 14.244 29.4718 14.2024 29.072 14.5506C28.6722 14.8991 28.6307 15.5058 28.9789 15.9055C29.6933 16.7251 30.7255 17.1951 31.8109 17.1951C32.8963 17.1951 33.9284 16.7251 34.6428 15.9056C34.9915 15.5059 34.95 14.8993 34.5502 14.5507V14.5507Z" fill="#313D40"/>
<g filter="url(#filter0_d_933_15271)">
<path d="M64.4272 63.9749C64.4272 65.0356 65.2871 65.8955 66.3478 65.8955C67.4085 65.8955 68.2684 65.0356 68.2684 63.9749V55.684H64.4272V63.9749Z" fill="#C77464"/>
<path d="M82.0972 55.6831V63.974C82.0972 65.0347 82.9571 65.8946 84.0177 65.8946C85.0784 65.8946 85.9383 65.0347 85.9383 63.974V55.6831H82.0972Z" fill="#CE857A"/>
<path d="M88.2994 16.5237C86.5047 16.0493 84.6905 15.6755 82.8652 15.3992C75.9475 14.3519 68.8685 14.7259 62.0667 16.5237C59.9868 17.0735 58.5381 18.9549 58.5381 21.106V37.819H73.9026H91.8278V21.106C91.8278 18.9549 90.3791 17.0735 88.2994 16.5237V16.5237Z" fill="#CE857A"/>
<path d="M77.431 16.5237C79.2258 16.0493 81.04 15.6755 82.8652 15.3992C75.9475 14.3519 68.8685 14.7259 62.0667 16.5237C59.9868 17.0735 58.5381 18.9549 58.5381 21.106V37.819H73.9026V21.106C73.9026 18.9549 75.3513 17.0735 77.431 16.5237V16.5237Z" fill="#C77464"/>
<path d="M54.8882 57.0267L57.769 54.4659L60.6499 57.0267V67.7177C60.6499 68.7784 59.79 69.6383 58.7293 69.6383H56.8087C55.7481 69.6383 54.8882 68.7784 54.8882 67.7177V57.0267Z" fill="#CE857A"/>
<path d="M89.7144 57.025L92.5952 54.4642L95.476 57.025V67.716C95.476 68.7767 94.6161 69.6366 93.5555 69.6366H91.6349C90.5743 69.6366 89.7144 68.7767 89.7144 67.716V57.025Z" fill="#E8B5B1"/>
<path d="M95.4767 57.0253H54.8888C50.646 57.0253 47.2065 53.5858 47.2065 49.343V37.8196L75.1827 33.9784L103.159 37.8195V49.3429C103.159 53.5858 99.7195 57.0253 95.4767 57.0253Z" fill="#FFCE71"/>
<path d="M103.159 30.1371H47.2064C45.0849 30.1371 43.3652 31.8568 43.3652 33.9782C43.3652 36.0995 45.0849 37.8193 47.2064 37.8193H103.159C105.28 37.8193 107 36.0995 107 33.9782C107 31.8568 105.28 30.1371 103.159 30.1371Z" fill="#E8B5B1"/>
<path d="M64.5554 30.1371H47.2064C45.0849 30.1371 43.3652 31.8568 43.3652 33.9782C43.3652 36.0995 45.0849 37.8193 47.2064 37.8193H64.5554C62.4341 35.6979 62.4341 32.2584 64.5554 30.1371Z" fill="#CE857A"/>
<path d="M64.5556 49.3426V37.8192H64.5561C55.0573 37.8192 47.4771 37.8192 47.2071 37.8192H47.2065V49.3426C47.2065 53.5854 50.646 57.0248 54.8888 57.0248H72.2379C67.9951 57.0248 64.5556 53.5855 64.5556 49.3426Z" fill="#FFB357"/>
<path d="M67.1805 20.6456C66.65 20.6456 66.2202 21.0755 66.2202 21.6059V23.1424C66.2202 23.6728 66.65 24.1026 67.1805 24.1026C67.711 24.1026 68.1408 23.6728 68.1408 23.1424V21.6059C68.1408 21.0755 67.711 20.6456 67.1805 20.6456Z" fill="#313D40"/>
<path d="M83.1717 20.644C82.6412 20.644 82.2114 21.0739 82.2114 21.6043V23.1408C82.2114 23.6712 82.6412 24.1011 83.1717 24.1011C83.7022 24.1011 84.132 23.6712 84.132 23.1408V21.6043C84.132 21.0739 83.7022 20.644 83.1717 20.644Z" fill="#313D40"/>
<path d="M77.9155 22.3713C77.5155 22.0227 76.909 22.0643 76.5606 22.4641C76.211 22.8653 75.7064 23.0952 75.1762 23.0952C74.646 23.0952 74.1417 22.8653 73.7922 22.4643C73.4435 22.0645 72.837 22.0229 72.4373 22.3712C72.0374 22.7197 71.9959 23.3263 72.3442 23.7261C73.0585 24.5456 74.0907 25.0157 75.1761 25.0157C76.2615 25.0157 77.2936 24.5456 78.008 23.7262C78.3567 23.3265 78.3152 22.7198 77.9155 22.3713V22.3713Z" fill="#313D40"/>
</g>
<defs>
<filter id="filter0_d_933_15271" x="31.3652" y="0.820557" width="87.6348" height="78.8177" filterUnits="userSpaceOnUse" color-interpolation-filters="sRGB">
<feFlood flood-opacity="0" result="BackgroundImageFix"/>
<feColorMatrix in="SourceAlpha" type="matrix" values="0 0 0 0 0 0 0 0 0 0 0 0 0 0 0 0 0 0 127 0" result="hardAlpha"/>
<feOffset dy="-2"/>
<feGaussianBlur stdDeviation="6"/>
<feComposite in2="hardAlpha" operator="out"/>
<feColorMatrix type="matrix" values="0 0 0 0 0 0 0 0 0 0 0 0 0 0 0 0 0 0 0.25 0"/>
<feBlend mode="normal" in2="BackgroundImageFix" result="effect1_dropShadow_933_15271"/>
<feBlend mode="normal" in="SourceGraphic" in2="effect1_dropShadow_933_15271" result="shape"/>
</filter>
</defs>
</svg>
