<svg width="1074" height="618" viewBox="0 0 1074 618" fill="none" xmlns="http://www.w3.org/2000/svg">
<path d="M155.755 594.267C155.074 589.341 156.605 580.875 160.412 567.634C152.873 567.634 146.524 564.278 138.825 564.407C136.698 576.863 133.455 597.311 133.455 597.311L133.104 613.446L186.775 613.855C186.775 613.855 186.328 614.092 170.504 603.981C169.334 603.238 156.414 599 155.755 594.267Z" fill="#F7A491"/>
<path d="M133.518 617.081H188.923C190.975 616.889 191.475 615.216 190.762 614.182C189.295 612.051 178.491 606.958 171.227 603.527C158.466 604.87 136.081 599.617 134.071 596.655C130.583 606.489 132.381 616.825 133.518 617.081Z" fill="#3C8F7C"/>
<path d="M88.1294 594.275C87.4488 589.347 86.3003 583.183 87.9911 566.776C80.4515 566.776 73.2734 565.367 65.5636 565.485C65.5636 578.298 65.8294 597.309 65.8294 597.309L65.4785 613.446L119.149 613.855C119.149 613.855 118.703 614.092 102.879 603.979C101.741 603.247 88.7887 599.008 88.1294 594.275Z" fill="#F7A491"/>
<path d="M64.824 617.081H120.224C122.276 616.889 122.776 615.216 122.064 614.182C120.596 612.051 109.793 606.958 102.53 603.527C89.77 604.87 67.3867 599.617 65.377 596.655C61.8786 606.489 63.6862 616.825 64.824 617.081Z" fill="#3C8F7C"/>
<path d="M127.737 124.036L148.116 102.546C148.116 102.546 169.912 114.548 195.311 126.024C202.294 113.818 213.674 73.7815 214.307 71.8366C214.94 69.8917 200.953 45.8441 204.075 45.2532C207.196 44.6622 211.25 58.1473 214.554 56.7397C217.858 55.3321 226.353 24.1605 228.337 25.869C232.059 29.0925 223.875 45.2854 225.838 46.4674C227.801 47.6493 232.767 28.48 236.564 29.2752C240.361 30.0703 230.128 46.7252 231.287 48.3263C232.445 49.9273 243.085 34.3576 245.231 37.9357C246.421 39.8913 235.416 51.5176 237.722 52.8177C240.028 54.1179 249.907 46.8005 251.087 49.1751C252.267 51.5498 241.83 54.0212 238.934 60.017C236.038 66.0127 230.729 68.4089 228.97 79.7343C227.211 91.0596 222.448 151.727 210.103 156.616C199.323 160.871 127.737 124.036 127.737 124.036Z" fill="#F7A491"/>
<path d="M140.243 240.812L123.734 250.051L90.1673 301.575L150.241 443.419C150.241 443.419 143.483 464.75 141.273 475.399C138.977 486.555 133.324 582.248 133.324 582.248L158.93 582.679C158.93 582.679 183.217 480.805 187.294 447.769C192.293 407.616 161.838 311.987 161.838 311.987C156.152 292.476 143.901 252.333 143.901 252.333C143.901 252.333 140.951 242.524 140.243 240.812Z" fill="#355389"/>
<path d="M82.3298 221.461C83.0435 230.428 81.2754 239.419 77.2227 247.432C73.0772 255.874 65.9187 262.525 60.7902 272.821C51.0781 292.378 45.8321 320.171 49.4541 338.024C49.4541 338.024 69.5193 415.355 68.6859 443.623C68.3974 454.048 64.8502 472.828 62.5851 485.517C60.5872 496.74 61.2817 580.001 61.2817 580.001L88.3878 580.529L110.205 443.968L119.426 322.586L139.544 240.834L82.3298 221.461Z" fill="#466EB6"/>
<path d="M146.335 41.3245C143.704 28.8385 140.987 16.3097 128.624 7.32365C118.625 0.00171999 107.888 -2.03811 96.4978 2.14891C64.2216 13.8941 81.5254 39.6067 41.5277 67.0156C29.0792 75.5292 24.3522 78.5031 15.4222 89.851C2.92027 105.73 -3.91356 127.04 2.37485 144.604C15.3688 180.838 55.6125 191.327 76.7022 183.587C115.919 169.276 148.58 119.353 150.751 105.73C153.072 91.193 148.035 49.3872 146.335 41.3245Z" fill="#13375B"/>
<path d="M149.458 138.04C158.609 142.256 175.197 148.574 175.197 148.574L184.628 118.881C131.307 88.6846 135.489 93.5547 95.4579 94.209C63.4783 94.6596 50.0807 88.5773 22.5418 162.562C22.5418 162.562 43.5059 171.938 51.0077 174.941C54.2412 165.802 60.0723 147.555 63.4783 157.96C68.5852 173.588 72.4062 189.602 74.9034 205.846C76.5094 215.501 79.9909 227.912 78.137 237.781C78.137 237.781 99.9202 242.243 116.551 242.962H116.691C124.619 242.849 132.519 242.019 140.296 240.484C140.296 240.484 143.53 171.831 145.297 168.988C147.227 165.77 155.375 155.579 148.445 140.25C147.237 137.493 147.572 137.171 149.458 138.04Z" fill="#50BFA5"/>
<path d="M101.715 62.8243C101.715 62.8243 99.2065 83.3344 97.7183 90.5237C96.2089 98.0045 93.8384 121.57 109.124 125.434C124.41 129.299 119.68 99.7964 119.935 92.1969C120.19 84.5974 124.516 58.053 124.516 58.053L101.715 62.8243Z" fill="#F7A491"/>
<path d="M100.901 70.4605C101.061 70.5467 101.199 70.6545 101.359 70.7408C109.813 75.6577 117.181 74.8813 122.653 71.0535C123.633 64.4869 124.517 59.128 124.517 59.128L101.732 63.937C101.732 63.937 101.402 66.6326 100.901 70.4605Z" fill="#F47458"/>
<path d="M104.919 10.1869C98.964 12.2048 93.9232 16.2936 90.7071 21.7153C85.5166 30.708 82.916 56.5152 102.051 67.5279C121.187 78.5405 134.767 60.8988 134.157 44.3852C133.547 27.8716 128.999 6.05047 104.919 10.1869Z" fill="#F7A491"/>
<path d="M139.528 36.8436C139.747 41.3085 137.787 45.0144 135.123 45.1484C132.46 45.2823 130.119 41.7997 129.9 37.3348C129.681 32.8699 131.641 29.164 134.293 29.03C136.945 28.8961 139.297 32.3899 139.528 36.8436Z" fill="#F7A491"/>
<path d="M109.489 9.67548C109.489 9.67548 99.0829 36.807 88.8939 39.7016C78.7049 42.5962 79.4962 55.9028 79.4962 55.9028C79.4962 55.9028 78.1846 25.045 87.5173 17.4844C96.85 9.92389 109.489 9.67548 109.489 9.67548Z" fill="#13375B"/>
<path d="M92.6515 44.8248C94.2244 49.1223 93.1939 53.4965 90.3409 54.5818C87.4879 55.6671 83.8972 53.058 82.3135 48.7605C80.7297 44.463 81.8036 40.0449 84.6349 38.9486C87.4662 37.8523 91.0785 40.5163 92.6515 44.8248Z" fill="#F7A491"/>
<path d="M110.703 258.143C111.079 258.143 112.768 257.971 114.156 258.003C115.36 258.028 116.561 258.136 117.75 258.326C118.412 257.8 119.134 257.356 119.902 257.002C120.505 256.733 121.473 256.626 122.151 256.325C122.829 256.023 123.41 255.41 124.066 255.12C125.756 254.388 127.294 254.216 127.832 255.12C128.263 255.851 118.826 261.575 118.826 261.575C110.089 261.575 100.943 266.071 80.7041 252.871C69.1372 247.826 13.003 220.102 11.8409 214.056C11.2061 210.667 19.814 184.407 26.9047 164.483C32.2847 166.914 43.873 172.014 50.329 174.757C44.4003 187.301 37.4171 203.954 38.1488 205.955C38.3425 206.483 39.0419 207.44 76.9919 232.291C77.9495 232.904 78.9287 233.561 79.9186 234.206L88.5265 239.789L99.3509 238.714C99.3509 238.714 116.502 239.897 117.008 241.844C117.234 242.737 115.813 243.189 114.06 243.436V243.436L113.285 243.544V243.544C111.402 243.77 109.411 243.802 108.981 243.974C108.064 244.281 107.192 244.708 106.388 245.244C117.072 249.547 116.255 248.052 119.805 247.826C120.688 247.761 121.635 248.009 122.474 247.944C123.916 247.826 125.056 246.965 126.175 246.868C127.334 246.796 128.48 247.144 129.403 247.847C129.78 248.224 129.07 248.772 127.703 249.386C119.45 252.968 112.639 251.591 110.423 252.129C108.949 252.484 111.639 253.033 115.803 252.592C117.067 252.697 118.337 252.697 119.601 252.592C120.526 252.387 121.366 251.785 122.28 251.516C123.195 251.247 123.969 251.333 124.669 251.193C125.594 251.021 126.885 250.322 127.617 250.236C130.361 249.924 131.695 250.408 132.007 250.666C132.642 251.225 120.171 256.045 120.171 256.045C120.171 256.045 111.563 257.282 109.68 257.282C109.605 257.282 108.454 257.798 110.703 258.143Z" fill="#F7A491"/>
<path d="M255.206 331.238C255.206 331.238 249.218 405.077 249.218 411.49C249.218 417.903 274.856 419.712 274.856 419.712L282.688 343.945L255.206 331.238Z" fill="#466EB6"/>
<path d="M292.25 313.888C292.25 313.888 275.602 305.017 261.888 313.149C248.174 321.28 244.437 369.033 244.437 369.033L288.382 374.279L292.25 313.888Z" fill="#86B1F2"/>
<path d="M394.642 557.206C394.642 557.206 386.318 591.61 380.075 597.004C373.832 602.398 353.557 612.741 358.873 613.822C364.188 614.903 403.477 615.864 402.395 609.233C401.313 602.602 400.183 598.422 400.183 598.422L410.588 573.856L394.642 557.206Z" fill="#F47458"/>
<path d="M355.15 615.658C364.84 616.588 393.139 617.575 401.374 616.553C401.374 616.553 402.924 616.262 401.83 609.851C401.566 608.295 401.302 606.866 401.037 605.6C393.572 607.505 377.282 603.463 370.839 602.639C363.83 605.879 355.932 610.711 353.383 611.117C349.717 611.709 349.717 615.136 355.15 615.658Z" fill="#13375B"/>
<path d="M483.778 586.106C483.778 586.106 484.66 594.713 484.66 598.506C484.66 602.298 481.084 613.01 482.753 614.65C484.421 616.291 531.318 616.077 531.318 614.543C531.318 613.01 523.033 608.326 511.756 605.116C500.479 601.906 496.664 589.458 499.585 582.313L483.778 586.106Z" fill="#F47458"/>
<path d="M532.513 615.689C532.513 614.227 524.832 609.743 514.893 606.661C504.299 610.287 489.591 607.289 484.075 606.225C482.386 610.71 481.851 614.964 482.719 615.895C484.36 617.502 532.513 617.249 532.513 615.689Z" fill="#13375B"/>
<path d="M433.554 442.428L425.246 449.939C425.246 449.939 415.831 475.758 415.348 477.461C414.595 479.861 384.291 579.357 384.291 579.357L405.404 587.096C405.404 587.096 426.293 545.536 429.823 531.103C433.354 516.67 467.965 456.274 467.965 456.274L433.554 442.428Z" fill="#86B1F2"/>
<path d="M470.355 457.048L481.1 588.292H505.793C505.793 588.292 514.636 490.104 511.531 455.58L470.355 457.048Z" fill="#86B1F2"/>
<path d="M344.208 367.106C344.208 367.106 351.368 401.799 357.753 408.035C361.334 411.559 371.168 425.934 378.734 425.934C384.701 425.934 388.281 426.369 389.332 426.369C391.718 426.369 389.045 440.462 386.837 442.659C386.837 442.659 386.109 444.82 381.717 444.82C377.326 444.82 354.006 429.105 346.989 422.188C339.971 415.27 326.915 377.488 326.915 377.488L344.208 367.106Z" fill="#F7A491"/>
<path d="M458.61 321.673C451.139 330.811 444.162 340.354 437.71 350.26C425.806 368.262 395.39 418.14 392.139 421.441C391.106 422.314 390.016 423.116 388.876 423.841C388.876 423.841 384.609 422.905 382.316 423.769C380.022 424.633 377.043 429.026 378.107 430.106C379.171 431.186 383.273 427.573 384.526 427.621C385.779 427.669 385.897 427.621 385.897 428.342C385.897 429.062 380.814 431.87 379.36 432.266C377.906 432.662 374.088 438.627 374.821 440.667C375.554 442.707 375.495 443.343 377.303 443.343C379.112 443.343 379.431 444.819 380.98 444.819C382.528 444.819 382.907 442.851 384.656 443.619C386.406 444.387 386.879 444.207 392.293 440.871C397.707 437.535 407.826 425.101 412.897 419.953C417.968 414.804 464.379 363.474 464.379 363.474L458.61 321.673Z" fill="#F47458"/>
<path d="M480.528 244.369C480.528 244.369 469.43 240.371 462.252 251.531C455.074 262.691 458.959 261.644 455.465 267.23C451.971 272.816 442.863 271.675 442.863 280.319C442.863 288.963 446.937 290.327 446.937 290.327C444.803 294.67 444.949 299.776 447.328 303.992C451.402 310.918 461.541 316.928 470.045 315.928C470.045 315.928 482.802 322.878 495.606 319.597C508.409 316.316 503.897 316.316 509.179 316.316C514.462 316.316 528.58 309.19 526.211 298.794C526.211 298.794 534.834 288.622 526.472 280.319C518.11 272.017 516.523 263.573 511.678 252.401C506.834 241.229 486.343 241.664 480.528 244.369Z" fill="#184655"/>
<path d="M319.743 318.086C321.444 318.657 328.409 323.473 332.461 331.073C336.513 338.673 347.236 370.391 347.236 370.391L329.597 376.67L319.743 318.086Z" fill="#50BFA5"/>
<path d="M233.965 580.548C233.965 580.548 231.092 590.541 228.801 592.77C226.51 594.999 218.957 603.665 220.824 607.957C222.691 612.248 268.782 618.401 270.527 616.694C272.273 614.987 262.563 607.743 257.059 603.298C251.555 598.852 247.603 593.399 249.919 586.783C252.234 580.168 252.222 580.856 252.222 580.156C252.222 579.457 233.965 580.548 233.965 580.548Z" fill="#F7A491"/>
<path d="M270.349 616.279C272.399 614.755 266.034 607.937 256.807 602.679C252.308 602.745 247.815 602.293 243.421 601.331C236.591 599.642 231.346 593.769 229.796 591.878C229.653 592.079 218.662 602.513 220.808 607.582C222.644 611.836 266.248 619.316 270.349 616.279Z" fill="#355389"/>
<path d="M309.308 585.605C309.308 585.605 310.157 596.001 308.421 598.702C306.686 601.404 300.641 612.088 304.015 615.438C307.062 618.439 349.34 616.506 350.664 614.441C351.987 612.376 344.752 606.194 338.379 603C332.007 599.807 326.945 595.257 327.71 588.222C328.474 581.187 328.632 581.823 328.486 581.175C328.341 580.527 309.308 585.605 309.308 585.605Z" fill="#F7A491"/>
<path d="M355.288 615.477C357.49 614.123 347.777 605.651 337.459 602.559C333.018 603.56 328.473 604.069 323.912 604.076C316.764 603.901 310.268 599.408 308.309 597.856C308.212 598.078 298.632 611.486 302.914 614.917C306.265 617.635 351.95 617.519 355.288 615.477Z" fill="#355389"/>
<path d="M311.376 438.703L284.839 516.376L254.42 588.291L228.898 581.819C228.898 581.819 238.101 531.968 246.75 516.317C253.287 504.468 257.853 436.45 257.853 436.45L311.376 438.703Z" fill="#F47458"/>
<path d="M299.865 451.845L309.378 588.292H331.874C331.874 588.292 341.644 445.328 338.09 431.735C334.536 418.141 297.031 421.203 297.031 421.203L299.865 451.845Z" fill="#B75742"/>
<path d="M320.016 317.718C320.016 317.718 292.025 309.202 287.721 309.741C283.005 310.352 271.532 316.52 271.532 316.52C271.532 316.52 272.24 365.866 270.212 379.819C268.184 393.772 254 438.506 254 438.506C254 438.506 273.973 450.268 307.565 446.447C341.157 442.627 338.834 434.386 338.834 434.386C338.834 434.386 335.639 384.981 332.455 363.219C329.272 341.457 320.016 317.718 320.016 317.718Z" fill="#96D9C9"/>
<path d="M513.376 325.493C502.881 322.887 492.176 321.236 481.391 320.562C472.577 320.059 460.743 321.954 460.743 321.954C460.743 321.954 449.963 346.404 446.776 366.439C443.59 386.473 426.128 450.681 426.128 450.681C426.128 450.681 461.608 478.37 513.388 460.11L513.376 325.493Z" fill="#F7A491"/>
<path d="M471.276 303.267C471.276 303.267 471.747 318.91 470.274 320.427C468.8 321.943 466.734 324.337 468.909 328.08C471.083 331.822 480.517 329.439 484.926 327.297C487.648 325.87 490.02 323.861 491.872 321.413L489.661 296.565L471.276 303.267Z" fill="#F47458"/>
<path d="M477.975 309.562C483.293 307.977 487.814 304.569 490.676 299.989L490.355 296.565L471.551 303.164C471.551 303.164 471.674 306.932 471.612 310.912C473.793 310.777 475.939 310.322 477.975 309.562Z" fill="#B75742"/>
<path d="M226.39 249.941C225.571 254.111 228.091 258.211 232.193 259.383C239.523 261.795 244.066 236.183 248.233 231.118C252.4 226.053 265.036 224.667 271.602 234.736C275.236 240.307 276.339 242.73 276.629 243.78C276.859 244.636 276.532 244.587 276.532 244.587L274.546 248.326C274.546 248.326 268.198 244.539 265.799 251.497C263.4 258.455 270.463 269.983 264.406 279.509C258.349 289.036 247.227 282.295 247.227 282.295C238.008 288.457 227.396 279.051 223.992 270.14C220.588 261.228 226.39 249.941 226.39 249.941Z" fill="#F7CC7F"/>
<path d="M297.421 283.413L296.457 293.841L287.469 309.878C287.469 309.878 305.187 332.148 310.65 326.83C311.825 325.611 314.962 302.073 314.962 302.073L297.421 283.413Z" fill="#F7A491"/>
<path d="M296.515 293.792L294.641 297.336C300.308 302.597 306.821 306.787 313.884 309.717C314.505 305.42 314.962 301.985 314.962 301.985L297.476 283.413L296.515 293.792Z" fill="#F48C7F"/>
<path d="M317.726 251.217C320.087 253.315 322.286 255.586 324.306 258.01C334.832 272.58 326.31 301.335 320.817 303.723C312.499 307.324 301.671 302.523 289.43 294.254C277.189 285.985 273.35 272.7 284.577 261.118C295.804 249.537 317.726 251.217 317.726 251.217Z" fill="#F7A491"/>
<path d="M277.249 248.154L280.561 245.011C293.424 245.011 303.68 237.263 318.116 245.011C327.645 250.153 323.726 257.39 323.726 257.39C288.446 257.39 301.179 285.171 296.855 296.229C292.531 307.286 265.517 283.421 277.249 248.154Z" fill="#F7CC7F"/>
<path d="M301.393 280.32C301.393 280.32 300.869 271.067 295.003 272.891C289.136 274.715 293.754 288.678 298.585 288.183C303.415 287.688 301.393 280.32 301.393 280.32Z" fill="#F7A491"/>
<path d="M493.48 280.34C493.48 280.34 493.943 271.096 499.83 272.882C505.717 274.668 501.233 288.644 496.348 288.185C491.463 287.726 493.48 280.34 493.48 280.34Z" fill="#F47458"/>
<path d="M275.666 241.568C275.666 241.568 281.162 244.936 283.375 244.656C285.588 244.376 280.043 251.477 277.019 252.207C273.994 252.936 275.125 250.176 274.462 249.155C273.798 248.133 271.523 248.936 270.995 248.219C269.778 246.589 273.085 241.884 275.666 241.568Z" fill="#50BFA5"/>
<path d="M374.728 442.836C374.728 442.836 379.796 434.995 381.452 434.627C383.108 434.259 381.072 439.977 381.072 441.032C381.072 442.087 384.077 432.971 385.734 432.971C387.39 432.971 387.623 434.198 386.961 436.504C386.298 438.811 384.703 441.854 385.452 441.854C386.2 441.854 388.347 431.719 389.599 432.971C390.85 434.222 390.359 442.492 388.016 444.848C385.672 447.204 378.802 445.719 374.728 442.836Z" fill="#F7A491"/>
<path fill-rule="evenodd" clip-rule="evenodd" d="M447.6 366.593C447.476 366.731 447.37 366.849 447.281 366.94L446.122 369.303C445.463 371.518 445.926 373.907 447.369 375.733C449.226 377.986 451.806 378.742 454.548 379.387C454.257 379.464 453.833 379.502 453.308 379.549C451.742 379.689 449.282 379.91 446.808 381.47C439.428 386.122 443.255 397.169 451.258 394.112C454.034 393.044 456.053 390.914 457.491 389.395C457.661 389.216 457.822 389.046 457.976 388.887C456.665 390.974 455.678 393.24 455.047 395.61C452.953 405.658 465.044 407.229 467.686 398.35C468.593 395.479 468.179 392.945 467.827 390.797C467.778 390.493 467.729 390.198 467.686 389.91H467.761C475.415 406.279 489.55 389.277 479.391 382.98C477.797 382.041 476.046 381.385 474.218 381.043C474.462 381.017 474.721 380.992 474.995 380.966C477.322 380.743 480.626 380.427 483.292 377.974C489.001 372.676 484.676 362.689 476.536 366.794C474.445 367.965 472.587 369.496 471.052 371.312C471.238 370.935 471.419 370.576 471.592 370.231C472.97 367.488 473.902 365.632 473.969 362.787C474.168 354.627 463.137 353.835 460.968 362.628C460.433 365.248 460.492 367.95 461.142 370.545C460.96 370.254 460.769 369.91 460.559 369.531C459.519 367.657 458.021 364.957 454.91 363.944C451.087 362.71 448.677 365.393 447.6 366.593ZM467.4 381.823C466.34 383.784 463.698 385.148 461.616 384.088C459.447 383.199 458.6 380.337 459.834 377.889C461.167 375.343 463.76 374.393 465.854 375.343C467.948 376.293 468.871 379.095 467.4 381.823Z" fill="#F7CC7F"/>
<path d="M475.699 250.115C475.699 250.115 466.616 249.922 461.983 256.829C457.35 263.735 452.297 283.466 459.962 297.074C467.627 310.682 477.411 307.307 481.515 305.921C485.619 304.535 493.518 301.486 497.535 288.758C501.552 276.03 498.595 247.415 475.699 250.115Z" fill="#F47458"/>
<path d="M276.799 314.776C276.799 314.776 283.111 313.834 288.524 334.235C294.658 357.37 288.051 381.353 277.887 387.395C267.723 393.438 263.562 392.296 263.562 392.296L265.17 406.56C265.17 406.56 295.154 399.87 299.231 374.332C305.921 332.469 286.231 310.912 286.231 310.912C284.586 311.157 282.959 311.511 281.362 311.973C279.78 312.804 278.255 313.741 276.799 314.776Z" fill="#466EB6"/>
<path d="M261.172 363.519V393.484C261.172 398.705 267.213 434.044 274.624 446.15C282.035 458.257 292.08 471.757 294.165 472.525C296.25 473.293 300.766 476.139 303.102 473.813C305.437 471.486 307.296 472.561 310.251 471.297C313.206 470.033 309.858 465.887 305.759 461.848C301.66 457.808 300.79 456.828 301.469 456.143C302.149 455.458 305.473 459.237 307.224 458.659C308.976 458.08 306.152 451.997 301.565 449.871C296.977 447.745 289.649 443.587 288.982 441.355C288.315 439.123 288.303 439.713 288.303 439.135C288.303 438.556 283.132 403.465 283.132 396.614C283.132 389.763 281.082 367.416 281.082 367.416L261.172 363.519Z" fill="#F7A491"/>
<path d="M274.385 314.57C268.428 315.747 263.656 320.286 262.095 326.259C259.595 334.909 252.978 359.489 254.134 371.491C254.134 371.491 282.323 375.227 282.323 374.05C282.323 372.872 288.491 342.093 285.413 328.614C282.724 316.816 278.961 313.993 274.385 314.57Z" fill="#50BFA5"/>
<path d="M314.962 315.695L335.282 386.235V386.235C334.387 377.02 333.406 368.219 332.413 361.828C329.102 340.362 319.475 316.935 319.475 316.935L314.962 315.695Z" fill="#466EB6"/>
<path d="M432.105 459.167H487.09V385.04L432.105 387.929V459.167V459.167Z" fill="#3C8F7C"/>
<path d="M432.105 381.453H484.686C486.148 381.631 487.207 382.953 487.08 384.442V384.442C487.207 385.93 486.148 387.253 484.686 387.431H432.105V387.431C435.779 385.705 435.756 383.069 432.105 381.453Z" fill="#3C8F7C"/>
<path d="M433.3 382.648H482.967C484.017 382.746 484.784 383.545 484.692 384.447V384.447C484.783 385.347 484.015 386.143 482.967 386.235H433.312C434.989 385.129 434.989 383.765 433.3 382.648Z" fill="#FAE0B2"/>
<path d="M513.813 326.455C513.813 326.455 509.758 330.551 505.408 346.079C501.059 361.608 498.854 397.971 495.094 401.758C491.334 405.545 466.732 425.276 462.288 424.588C457.844 423.899 447.918 412.253 444.83 412.253C441.742 412.253 442.131 415.067 443.651 416.622C445.172 418.177 447.07 419.982 446.15 420.896L445.243 421.822C445.243 421.822 431.486 418.177 429.176 419.542C426.865 420.908 431.392 424.101 431.392 426.44C431.392 428.779 430.826 428.731 431.109 431.296C431.392 433.86 432.016 435.914 433.231 437.125C434.445 438.336 449.628 442.764 464.481 440.686C482.667 438.34 499.277 429.087 510.913 414.817C524.328 398.102 521.64 345.569 521.334 340.333C520.627 327.037 513.813 326.455 513.813 326.455Z" fill="#F47458"/>
<path d="M614.372 316.891C615.306 316.819 622.428 328.504 626.875 346.436C631.323 364.367 640.834 397.462 640.834 397.462C640.834 397.462 656.213 429.077 660.389 433.313C664.564 437.549 668.586 433.169 672.786 434.517C674.075 434.926 678.074 438.452 678.074 438.452C678.074 438.452 685.278 454.313 684.213 455.397C683.149 456.48 672.005 459.536 664.257 456.973C656.508 454.41 620.487 411.47 620.487 411.47C620.487 411.47 591.15 318.479 614.372 316.891Z" fill="#F48C7F"/>
<path d="M754.712 331.325L751.213 327.651C751.213 327.651 744.809 339.298 737.431 355.809C730.054 372.319 721.218 392.672 718.206 395.71C715.193 398.748 689.859 434.038 682.197 437.472C674.535 440.907 676.895 439.406 670.74 438.673C666.114 438.109 666.624 441.495 669.625 443.068C670.879 443.619 672.072 444.303 673.183 445.109C676.848 447.739 679.979 451.473 682.28 453.647C683.17 454.499 681.319 456.048 680.276 454.979C679.232 453.911 675.531 448.183 674.013 448.183C672.495 448.183 673.503 452.086 674.167 453.334C674.832 454.583 673.361 454.223 672.056 451.125C670.752 448.027 669.791 444.941 667.905 445.373C666.375 445.734 667.312 450.02 667.727 451.665C667.288 450.092 666.079 446.19 664.916 446.19C663.457 446.19 662.805 446.334 662.805 449.252C662.768 452.672 664.401 455.889 667.17 457.849C670.526 460.419 679.896 458.702 683.774 457.153C686.408 456.084 689.029 451.761 691.662 450.32C703.439 443.884 715.549 436.212 730.541 415.967C748.889 391.207 756.041 369.137 756.041 369.137L754.712 331.325Z" fill="#F4C0B8"/>
<path d="M748.003 611.008C746.825 604.959 746.825 598.738 748.003 592.689C749.95 582.639 760.513 531.415 760.513 520.775C760.513 510.135 765.603 494.549 765.603 494.549L734.536 486.666L731.406 517.201C731.406 517.201 729.745 588.429 726.913 591.281C724.081 594.134 712.084 598.358 708.332 598.358C704.126 598.358 697.471 598.647 697.471 600.765C697.45 601.963 697.649 603.155 698.056 604.28L748.003 611.008Z" fill="#F4C0B8"/>
<path d="M784.887 490.477L788.708 516.854C788.708 516.854 797.797 594.169 795.697 596.289C793.597 598.409 784.081 604.648 779.714 605.142C775.347 605.636 769.189 608.635 769.189 610.996C769.189 615.813 818.325 611.899 818.325 611.899C819.29 609.05 819.29 605.955 818.325 603.106C816.771 597.891 816.771 590.495 816.771 589.315C816.771 588.135 816.865 589.11 816.865 587.243V584.774C816.865 584.774 822.798 547.906 816.486 524.635L814.243 479.492L784.887 490.477Z" fill="#F4C0B8"/>
<path d="M579.08 235.781C579.08 235.781 567.481 235.663 559.526 240.077C551.572 244.492 549.375 255.014 549.254 263.239C549.068 273.947 552.639 284.392 559.369 292.827C566.141 301.183 578.042 304.934 578.042 304.934L611.55 283.986C614.056 276.624 614.473 268.733 612.757 261.156C609.908 248.137 610.645 233.757 579.08 235.781Z" fill="#184655"/>
<path d="M636.507 575.794C636.507 575.794 647.419 591.93 648.205 594.173C648.992 596.415 654.34 611.008 654.34 611.008L696.274 590.044L664.192 580.009L657.759 565.575L636.507 575.794Z" fill="#F48C7F"/>
<path d="M581.522 466.137L615.596 538.086L637.992 583.509C637.992 583.509 657.866 575.736 662.804 570.727L646.721 513.494L628.399 447.228L589.883 443.624L581.522 466.137Z" fill="#355389"/>
<path d="M548.263 583.492C548.263 583.492 549.899 594.106 549.899 594.803C549.899 595.501 547.401 605.718 547.039 608.471C546.796 610.105 546.796 611.765 547.039 613.399L588.694 603.783C588.694 603.783 582.511 599.888 576.99 596.943C571.47 593.998 570.658 579.922 570.658 579.922L548.263 583.492Z" fill="#F48C7F"/>
<path d="M543.271 446.664C543.271 446.664 550.055 489.736 549.105 504.189C547.738 524.886 542.296 532.831 546.182 587.096H573.807C573.807 587.096 575.756 557.938 580.034 535.384C584.311 512.829 593.651 474.959 593.651 474.959L609.014 440.037L543.271 446.664Z" fill="#86B1F2"/>
<path d="M558.187 284.446C559.595 288.638 563.153 291.302 566.145 290.418C569.137 289.534 570.407 285.378 568.987 281.185C567.566 276.993 564.021 274.33 561.041 275.214C558.061 276.098 556.779 280.242 558.187 284.446Z" fill="#F48C7F"/>
<path d="M605.471 277.265C605.839 281.556 608.534 284.842 611.478 284.596C614.423 284.351 616.513 280.667 616.145 276.411C615.776 272.155 613.081 268.834 610.137 269.079C607.192 269.325 605.103 272.985 605.471 277.265Z" fill="#F48C7F"/>
<path d="M1012.95 290.529C1019.2 283.72 1032.37 255.407 1036.82 247.353C1036.73 246.551 1036.37 241.86 1039.87 234.992C1042.35 230.145 1042.98 220.225 1045.62 222.439C1048.26 224.652 1044.43 233.209 1046.9 232.73C1049.36 232.251 1058.62 214.66 1061.1 216.611C1063.58 218.561 1053.78 234.465 1055.98 234.01C1058.18 233.556 1065.53 217.999 1068.97 220.763C1072.41 223.528 1058.72 238.175 1060.54 239.659C1062.36 241.142 1070.81 231.653 1073.64 233.879C1076.47 236.105 1061.57 246.24 1062.85 245.965C1064.14 245.69 1073.4 243.284 1073.86 245.199C1074.37 247.353 1051.42 256.173 1049.28 260.612V260.612C1045.22 272.579 1038.07 294.418 1028.63 305.439C1017.04 318.937 983.807 356.345 983.807 356.345L970.006 330.019C970.006 330.019 1005.53 298.594 1012.95 290.529Z" fill="#966259"/>
<path d="M1047.7 236.785C1048.64 237.979 1049.31 239.33 1049.67 240.763C1050.58 243.893 1050 247.233 1048.06 249.937C1049.6 245.648 1049.47 240.997 1047.7 236.785L1047.7 236.785Z" fill="#6B4744"/>
<path d="M546.709 325.256C546.709 325.256 549.885 408.721 546.709 424.319C543.534 439.917 542.076 450.016 542.076 450.016C542.076 450.016 585.978 458.737 628.14 447.261C624.025 427.635 620.943 407.8 618.908 387.84C616.015 357.542 613.71 317.445 613.71 317.445C613.71 317.445 597.715 316.247 585.402 317.373C557.412 319.961 546.709 325.256 546.709 325.256Z" fill="#FAE0B2"/>
<path d="M572.021 296.565L570.764 319.193C570.764 319.193 572.907 331.682 585.356 332.418C597.806 333.154 594.179 306.466 594.179 306.466L593.437 296.565H572.021Z" fill="#F48C7F"/>
<path d="M593.779 313.303H594.67C594.632 310.962 594.47 308.625 594.183 306.3L593.446 296.565H572.149L571.959 299.833C574.692 304.351 582.501 313.303 593.779 313.303Z" fill="#F27A6A"/>
<path d="M549.052 600.176C549.052 600.176 550.512 598.688 555.659 599.136C560.807 599.583 586.591 602.462 587.704 602.462C588.817 602.462 603.552 613.785 604.223 615.842C604.893 617.898 572.346 616.555 572.346 616.555H547.567C546.251 611.08 546.773 605.318 549.052 600.176V600.176Z" fill="#3C8F7C"/>
<path d="M649.977 599.891C649.151 600.448 648.6 601.335 648.46 602.329C649.192 606.333 650.309 610.255 651.794 614.04C652.29 615.288 653.291 616.261 654.542 616.713C655.794 617.164 657.176 617.052 658.34 616.404L703.263 591.324C703.263 591.324 706.537 588.449 685.357 587.096L649.977 599.891Z" fill="#3C8F7C"/>
<path d="M546.586 324.064C546.586 324.064 540.36 326.845 536.706 335.527C533.053 344.209 521.317 383.414 529.211 406.87C529.211 406.87 532.736 424.703 551.027 436.972C569.318 449.242 601.155 452.132 602.952 450.29C604.75 448.447 604.832 445.233 604.832 443.174C604.832 441.115 609.014 440.091 609.014 437.273C609.014 434.456 601.966 433.974 593.824 433.974C593.824 433.974 592.379 433.83 594.153 432.445C595.927 431.06 598.194 429.338 597.807 426.738C597.419 424.137 595.763 424.245 594.2 425.847C592.638 427.448 587.469 431.759 583.334 430.53C579.198 429.302 554.786 408.748 550.745 402.246C550.745 402.198 552.355 325.461 546.586 324.064Z" fill="#F48C7F"/>
<path d="M752.911 327.464C752.911 327.464 766.24 320.075 780.402 318.409C794.564 316.743 814.855 322.062 814.855 322.062L826.565 491.102C826.565 491.102 773.976 516.091 734.524 491.102C734.524 491.102 745.116 420.135 745.116 410.188V400.204L752.911 327.464Z" fill="#50BFA5"/>
<path d="M697.401 601.464C695.99 601.295 694.654 602.154 694.183 603.532C693.572 604.971 693.913 606.65 695.032 607.717C697.138 609.884 733.877 616.075 746.701 615.78C748.065 615.78 750.015 611.583 748.005 610.376C744.871 608.493 707.091 602.584 697.401 601.464Z" fill="#13375B"/>
<path d="M709.423 598.046L712.392 604.329L718.985 606.225C718.985 606.225 715.923 594.983 713.245 595.481C711.685 595.751 710.302 596.679 709.423 598.046H709.423Z" fill="#13375B"/>
<path d="M768.71 611.008C767.421 611.004 766.276 611.862 765.869 613.137C765.424 614.106 765.544 615.254 766.179 616.1C767.743 617.731 820.238 616.611 820.238 616.611C820.238 616.611 821.504 612.539 819.224 611.718C817.708 611.182 777.841 611.033 768.71 611.008Z" fill="#13375B"/>
<path d="M785.471 601.784C784.967 600.892 781.146 601.784 779.947 604.074L784.866 611.008H790.705L785.471 601.784Z" fill="#13375B"/>
<path d="M901.021 567.594C901.021 567.594 898.897 585.991 895.44 594.012C891.983 602.033 880.591 607.161 870.568 609.061C860.545 610.962 863.882 612.647 865.358 614.07C866.835 615.492 910.252 616.52 917.923 615.134C917.923 615.134 914.97 600.072 914.97 597.729C914.97 595.386 926.974 558.402 926.974 558.402L901.021 567.594Z" fill="#966259"/>
<path d="M917.411 616.074C917.411 616.074 916.811 612.993 916.152 609.383C907.757 610.514 888.631 608.54 879.037 607.421C876.099 608.528 872.526 608.865 869.588 609.455C859.574 611.428 860.33 614.064 862.836 615.893C864.515 617.133 909.748 617.482 917.411 616.074Z" fill="#F47458"/>
<path d="M987.653 564.352C987.653 564.352 986.426 586.891 988.881 595.001C991.446 603.348 995.117 604.78 1005.18 607.499C1015.25 610.218 1011.32 614.439 1009.81 615.846C1008.3 617.254 973.732 617.409 965.9 616.025C965.9 616.025 968.907 600.999 968.907 598.662C968.907 596.324 965.225 558.402 965.225 558.402L987.653 564.352Z" fill="#966259"/>
<path d="M965.225 616.003C965.225 616.003 965.819 612.947 966.473 609.367C974.797 610.489 993.763 608.531 1003.28 607.421C1006.28 608.087 1009.23 608.928 1012.13 609.94C1021.65 613.425 1020.79 614.368 1019.27 615.824C1017.75 617.28 972.811 617.399 965.225 616.003Z" fill="#F47458"/>
<path d="M814.624 322.868C814.624 322.868 803.281 336.397 809.101 359.025C814.921 381.653 828.991 417.69 846.356 437.792C849.166 441.049 855.673 447.909 858.577 449.861C861.481 451.812 873.809 453.189 873.809 453.189C873.809 453.189 879.238 436.332 877.685 434.763C876.132 433.195 863.094 433.051 859.549 429.471C856.005 425.892 821.618 322.868 814.624 322.868Z" fill="#F4C0B8"/>
<path d="M923.388 321.673C923.388 321.673 920.109 323.716 917.78 329.784C915.452 335.853 903.335 385.716 901.648 392.943C900.293 398.534 888.022 414.936 881.927 422.809C880.134 425.198 878.744 427.085 877.876 427.085C872.531 427.085 863.621 430.072 863.621 432.294C863.621 434.516 865.724 434.755 869.228 433.978C872.733 433.202 870.072 437.001 868.812 438.279C867.553 439.557 862.16 446.797 864.06 448.72C865.961 450.643 870.523 451.993 872.661 451.993C873.849 451.993 876.225 451.862 880.49 448.326C884.054 445.351 889.447 439.27 893.356 435.758C907.421 423.143 918.992 396.647 921.13 390.59C923.269 384.533 923.388 321.673 923.388 321.673Z" fill="#966259"/>
<path d="M877.677 440.915C877.677 440.915 879.16 441.058 879.16 443.894C879.16 446.731 876.64 451.11 874.939 452.783C873.238 454.457 857.644 450.41 857.644 450.41C857.644 450.41 863.313 450.552 865.254 448.178C866.111 447.122 867.751 442.173 869.379 442.173C871.007 442.173 869.234 448.879 869.234 448.879C869.234 448.879 872.406 440.037 873.974 440.037C875.542 440.037 875.747 441.639 875.011 444.333C874.276 447.027 876.676 440.132 877.677 440.915Z" fill="#F4C0B8"/>
<path d="M889.918 571.352C906.012 575.314 922.517 577.388 939.095 577.531C965.222 577.531 1016.62 564.298 1016.62 564.298C1016.62 564.298 1002.44 530.191 997.569 504.012C992.698 477.833 989.149 432.863 989.149 432.863H911.162L906.351 464.001L889.918 571.352Z" fill="#466EB6"/>
<path d="M924.505 321.946C924.505 321.946 919.542 327.84 919.542 346.111C919.542 364.381 918.673 391.799 917.195 401.235C915.717 410.67 911.434 434.091 911.434 434.091C911.434 434.091 924.117 444.895 956.957 441.906C989.797 438.916 991.522 434.439 991.522 434.439C991.522 434.439 986.911 358.487 986.911 350.528C986.911 342.569 979.871 319.545 979.871 319.545C979.871 319.545 960.888 317.552 952.252 318.225C943.617 318.897 924.505 321.946 924.505 321.946Z" fill="#FAE0B2"/>
<path d="M908.827 250.997C908.827 250.997 894.808 254.953 895.963 269.273C897.034 282.48 903.567 281.817 903.567 281.817C903.567 281.817 898.807 300.543 913.206 305.968C926.796 311.085 931.913 305.968 931.913 305.968C931.913 305.968 937.804 321.509 957.963 315.515C978.122 309.522 976.325 297.334 976.325 297.334C976.325 297.334 984.905 300.697 994.841 284.991C1004.78 269.285 999.113 257.973 985.964 250.997C985.964 250.997 990.343 231.003 970.232 227.804C950.12 224.606 945.241 235.586 945.241 235.586C945.241 235.586 941.671 223.327 920.251 231.761C906.197 237.292 908.827 250.997 908.827 250.997Z" fill="#13375B"/>
<path d="M964.724 280.984C963.182 285.165 964.289 289.418 967.213 290.382C970.136 291.346 973.744 288.828 975.287 284.647C976.829 280.466 975.722 276.213 972.798 275.249C969.875 274.285 966.267 276.815 964.724 280.984Z" fill="#966259"/>
<path d="M918.747 284.825C919.417 289.09 922.271 292.195 925.195 291.738C928.119 291.281 929.893 287.461 929.223 283.196C928.554 278.931 925.7 275.837 922.776 276.283C919.851 276.728 918.078 280.56 918.747 284.825Z" fill="#966259"/>
<path d="M942.513 303.707L943.293 321.098C943.616 325.107 946.71 328.319 950.665 328.749C957.64 329.647 964.027 324.183 964.027 318.705C964.123 318.013 960.641 294.174 960.641 294.174L942.513 303.707Z" fill="#966259"/>
<path d="M960.931 294.174L942.513 303.603L942.793 309.717C946.123 309.717 951.039 309.477 954.991 307.158C958.047 305.369 960.392 302.606 961.638 299.327C961.248 296.312 960.931 294.174 960.931 294.174Z" fill="#6B4744"/>
<path d="M669.976 437.765C669.976 437.765 674.291 440.563 676.853 439.949C679.416 439.335 678.146 438.025 676.947 436.809C675.587 435.721 674.104 434.797 672.527 434.059L669.976 437.765Z" fill="#F48C7F"/>
<path d="M583.423 247.76C576.269 248.806 571.039 253.809 567.24 259.917C559.713 272.027 565.833 289.852 567.901 293.94C569.969 298.028 578.241 308.521 590.493 308.521C602.745 308.521 611.305 297.434 612.339 286.643C613.722 272.181 609.802 254.178 595.879 249.151C591.902 247.699 587.628 247.222 583.423 247.76Z" fill="#F48C7F"/>
<path d="M780.117 248.613C775.762 248.613 771.463 249.609 767.542 251.526C760.89 254.737 753.955 269.184 753.955 282.027C753.955 289.851 750.528 293.074 747.844 294.405C747.164 294.739 746.676 295.374 746.526 296.123C746.376 296.871 746.58 297.648 747.079 298.222C749.704 301.231 752.436 304.537 755.874 306.546C768.92 314.204 782.048 314.442 796.707 311.731C808.575 309.732 819.521 304.021 828.004 295.404C828.746 294.618 829.082 293.527 828.913 292.455C828.745 291.382 828.091 290.45 827.144 289.934C824.377 288.424 821.116 285.178 819.868 278.245C817.56 265.249 812.791 242.335 780.117 248.613Z" fill="#13375B"/>
<path d="M798.146 282.861C797.222 287.114 798.758 291.13 801.61 291.709C804.462 292.288 807.442 289.417 808.366 285.176C809.29 280.935 807.765 276.907 804.901 276.317C802.037 275.726 799.069 278.608 798.146 282.861Z" fill="#F4C0B8"/>
<ellipse cx="759.029" cy="278.033" rx="5.37901" ry="7.7714" fill="#F4C0B8"/>
<path d="M770.686 305.555L769.189 325.608C769.866 328.573 772.401 330.798 775.51 331.157C781.143 332.133 793.096 324.012 793.096 319.761L790.273 296.565L770.686 305.555Z" fill="#F4C0B8"/>
<path d="M771.58 315.662C780.038 316.098 786.859 312.146 791.901 304.943L790.942 296.565L772.224 305.695L771.58 315.662Z" fill="#F7A491"/>
<path d="M757.757 288.758C759.11 296.23 761.353 309.384 773.324 310.733C785.296 312.082 794.28 305.755 799.949 294.32C805.617 282.885 804.288 267.797 801.168 260.325C798.669 254.356 787.892 254.667 782.601 254.75C764.84 255.049 754.77 272.201 757.757 288.758Z" fill="#F4C0B8"/>
<path d="M775.166 252.328C775.461 259.046 778.281 265.405 783.06 270.129C791.134 278.215 807.379 282.439 807.379 282.439L809.296 287C809.296 287 811.862 272.518 805.752 262.791C799.642 253.064 775.166 252.328 775.166 252.328Z" fill="#13375B"/>
<path d="M951.995 249.119C957.829 251.081 962.77 254.991 965.947 260.162C971.16 268.764 974.318 293.493 956.217 304.046C938.117 314.598 926.025 297.669 924.752 281.888C923.259 263.248 931.581 245.948 951.995 249.119Z" fill="#966259"/>
</svg>
