<svg width="42" height="42" viewBox="0 0 42 42" fill="none" xmlns="http://www.w3.org/2000/svg">
<circle cx="14.5976" cy="27.4024" r="14.5976" fill="#FFD3BC"/>
<path d="M25.2559 36.7561C25.0693 36.6302 24.8214 36.4355 24.5729 36.1594C24.1314 35.6688 23.6781 34.9115 23.572 33.7927H27.1913C26.7453 34.7089 26.2574 35.4576 25.8539 36.0053C25.6154 36.3292 25.4072 36.5818 25.2559 36.7561Z" fill="#313D40" stroke="#313D40"/>
<path d="M23.0362 31.2836C24.4434 31.2836 25.5838 30.3574 25.5838 29.2145C25.5838 28.0716 24.4434 27.1463 23.0362 27.1463C21.6291 27.1463 20.4878 28.0724 20.4878 29.2145C20.4878 30.3566 21.6282 31.2836 23.0362 31.2836Z" fill="#FFBF9D"/>
<path d="M25.6446 24.5854C25.5716 24.5865 25.4996 24.6021 25.4327 24.6311C25.3657 24.6601 25.3051 24.702 25.2544 24.7544C25.2036 24.8068 25.1637 24.8687 25.1369 24.9366C25.1101 25.0044 25.0969 25.0769 25.0981 25.1499V26.1619C25.0952 26.2354 25.1072 26.3087 25.1334 26.3774C25.1596 26.4462 25.1993 26.5089 25.2503 26.5619C25.3013 26.6149 25.3625 26.6571 25.4301 26.6859C25.4978 26.7147 25.5706 26.7295 25.6442 26.7295C25.7177 26.7295 25.7905 26.7147 25.8582 26.6859C25.9258 26.6571 25.987 26.6149 26.038 26.5619C26.089 26.5089 26.1288 26.4462 26.1549 26.3774C26.1811 26.3087 26.1931 26.2354 26.1902 26.1619V25.1499C26.1927 25.0027 26.1365 24.8605 26.0342 24.7547C25.9319 24.6488 25.7918 24.5879 25.6446 24.5854V24.5854Z" fill="#313D40"/>
<path d="M38.1265 17.2866H34.5252L29.4832 22.3285V17.2866H13.6372C12.8731 17.2866 12.1403 16.983 11.6 16.4427C11.0596 15.9024 10.7561 15.1696 10.7561 14.4055V2.8811C10.7561 2.11698 11.0596 1.38416 11.6 0.843854C12.1403 0.303543 12.8731 0 13.6372 0H38.1265C38.8906 0 39.6235 0.303543 40.1638 0.843854C40.7041 1.38416 41.0076 2.11698 41.0076 2.8811V14.4055C41.0076 15.1696 40.7041 15.9024 40.1638 16.4427C39.6235 16.983 38.8906 17.2866 38.1265 17.2866Z" fill="#8ECAE6"/>
<path d="M19.3994 2.8811H20.84V14.4055H19.3994V2.8811Z" fill="#1771B9"/>
<path d="M22.2805 5.76221H23.7211V11.5244H22.2805V5.76221Z" fill="#1771B9"/>
<path d="M25.1616 7.20274H26.6022V10.0838H25.1616V7.20274Z" fill="#1771B9"/>
<path d="M16.5183 5.76221H17.9589V11.5244H16.5183V5.76221Z" fill="#1771B9"/>
<path d="M13.6372 7.20274H15.0778V10.0838H13.6372V7.20274Z" fill="#1771B9"/>
<path d="M30.9238 2.8811H32.3644V14.4055H30.9238V2.8811Z" fill="#1771B9"/>
<path d="M33.8049 5.76221H35.2455V11.5244H33.8049V5.76221Z" fill="#1771B9"/>
<path d="M36.686 7.20274H38.1266V10.0838H36.686V7.20274Z" fill="#1771B9"/>
<path d="M28.0427 5.76221H29.4833V11.5244H28.0427V5.76221Z" fill="#1771B9"/>
<path d="M31.3211 36.0108L30.3025 34.9922C30.9305 34.3626 31.2832 33.5097 31.2832 32.6204C31.2832 31.7312 30.9305 30.8782 30.3025 30.2486L31.3211 29.23C32.219 30.1299 32.7232 31.3492 32.7232 32.6204C32.7232 33.8916 32.219 35.1109 31.3211 36.0108V36.0108Z" fill="white"/>
<path d="M33.4818 38.1717L32.4631 37.153C33.6635 35.95 34.3377 34.3199 34.3377 32.6204C34.3377 30.9209 33.6635 29.2909 32.4631 28.0878L33.4818 27.0692C34.9518 28.5427 35.7773 30.5391 35.7773 32.6204C35.7773 34.7018 34.9518 36.6982 33.4818 38.1717V38.1717Z" fill="white"/>
<path d="M35.6427 40.3325L34.624 39.3138C36.3992 37.5386 37.3965 35.1309 37.3965 32.6204C37.3965 30.1099 36.3992 27.7022 34.624 25.927L35.6427 24.9083C37.688 26.9537 38.8371 29.7278 38.8371 32.6204C38.8371 35.513 37.688 38.2871 35.6427 40.3325V40.3325Z" fill="white"/>
</svg>
