<svg width="51" height="74" viewBox="0 0 51 74" fill="none" xmlns="http://www.w3.org/2000/svg">
<path d="M4.21352 66.7C5.02952 66.7 5.67152 66.895 6.13952 67.285C6.60752 67.675 6.84152 68.212 6.84152 68.896C6.84152 69.58 6.60752 70.117 6.13952 70.507C5.67152 70.897 5.02952 71.092 4.21352 71.092H2.65652V73H1.75652V66.7H4.21352ZM4.18652 70.309C4.75652 70.309 5.19152 70.189 5.49152 69.949C5.79152 69.703 5.94152 69.352 5.94152 68.896C5.94152 68.44 5.79152 68.092 5.49152 67.852C5.19152 67.606 4.75652 67.483 4.18652 67.483H2.65652V70.309H4.18652ZM13.8758 73L12.5168 71.065C12.3488 71.077 12.2168 71.083 12.1208 71.083H10.5638V73H9.66375V66.7H12.1208C12.9368 66.7 13.5788 66.895 14.0468 67.285C14.5148 67.675 14.7488 68.212 14.7488 68.896C14.7488 69.382 14.6288 69.796 14.3888 70.138C14.1488 70.48 13.8068 70.729 13.3628 70.885L14.8568 73H13.8758ZM12.0938 70.318C12.6638 70.318 13.0988 70.195 13.3988 69.949C13.6988 69.703 13.8488 69.352 13.8488 68.896C13.8488 68.44 13.6988 68.092 13.3988 67.852C13.0988 67.606 12.6638 67.483 12.0938 67.483H10.5638V70.318H12.0938ZM20.5468 73.072C19.9108 73.072 19.3378 72.934 18.8278 72.658C18.3178 72.376 17.9158 71.989 17.6218 71.497C17.3338 71.005 17.1898 70.456 17.1898 69.85C17.1898 69.244 17.3338 68.695 17.6218 68.203C17.9158 67.711 18.3178 67.327 18.8278 67.051C19.3378 66.769 19.9108 66.628 20.5468 66.628C21.1768 66.628 21.7468 66.769 22.2568 67.051C22.7668 67.327 23.1658 67.711 23.4538 68.203C23.7418 68.689 23.8858 69.238 23.8858 69.85C23.8858 70.462 23.7418 71.014 23.4538 71.506C23.1658 71.992 22.7668 72.376 22.2568 72.658C21.7468 72.934 21.1768 73.072 20.5468 73.072ZM20.5468 72.271C21.0088 72.271 21.4228 72.166 21.7888 71.956C22.1608 71.746 22.4518 71.458 22.6618 71.092C22.8778 70.72 22.9858 70.306 22.9858 69.85C22.9858 69.394 22.8778 68.983 22.6618 68.617C22.4518 68.245 22.1608 67.954 21.7888 67.744C21.4228 67.534 21.0088 67.429 20.5468 67.429C20.0848 67.429 19.6648 67.534 19.2868 67.744C18.9148 67.954 18.6208 68.245 18.4048 68.617C18.1948 68.983 18.0898 69.394 18.0898 69.85C18.0898 70.306 18.1948 70.72 18.4048 71.092C18.6208 71.458 18.9148 71.746 19.2868 71.956C19.6648 72.166 20.0848 72.271 20.5468 72.271ZM27.6614 67.483V69.679H30.8204V70.453H27.6614V73H26.7614V66.7H31.2074V67.483H27.6614ZM33.9743 66.7H34.8743V73H33.9743V66.7ZM38.2604 66.7H39.1604V72.217H42.5714V73H38.2604V66.7ZM49.6762 72.217V73H45.1042V66.7H49.5502V67.483H46.0042V69.418H49.1632V70.183H46.0042V72.217H49.6762Z" fill="black"/>
<ellipse cx="25.5" cy="26.25" rx="22.5" ry="23.25" fill="white"/>
<path d="M31.3451 38.5928C31.2258 38.4381 31.1002 38.2891 30.9703 38.1444C30.8775 38.041 30.7812 37.9413 30.6831 37.8432C30.3018 38.4562 29.7754 38.9767 29.1428 39.301C27.6397 40.0716 25.8795 39.9045 24.3045 39.4752C22.9255 39.0993 21.5913 38.5159 20.3245 37.8391C20.2258 37.9378 20.129 38.0396 20.0346 38.1448C19.9045 38.2896 19.7782 38.4379 19.659 38.5927C18.7565 39.7638 18.1703 41.2106 18.0378 42.7909C18.0189 43.0167 18.0093 43.2452 18.0093 43.4759V44.6569H32.9948V43.476C32.9948 41.6296 32.3765 39.9312 31.3451 38.5928Z" fill="#8288CB"/>
<path d="M20.3065 37.8551C20.2132 37.949 20.1217 38.0456 20.0322 38.1452C19.9022 38.29 19.7759 38.4384 19.6567 38.5932C18.7541 39.7642 18.168 41.2111 18.0355 42.7914C18.0166 43.0171 18.007 43.2456 18.007 43.4764V44.6573H20.9842V43.4764C20.9842 42.5026 21.1579 41.5699 21.4725 40.7086C21.5295 40.5525 21.5912 40.3989 21.6574 40.2478C21.107 39.5183 20.6731 38.6709 20.3065 37.8551Z" fill="#676FB2"/>
<path d="M26.9872 35.8203C26.5181 35.7214 26.0209 35.6656 25.4998 35.6656C23.4657 35.6656 21.4886 36.5237 20.0325 38.1449C20.3538 39.0825 20.8413 39.9509 21.4727 40.7082C21.5722 40.8275 21.6744 40.9447 21.7809 41.0583C22.618 41.9509 23.6597 42.6403 24.7934 43.0518C25.2506 43.2178 25.749 43.2178 26.2063 43.0518C27.3402 42.6402 28.3823 41.9506 29.2198 41.0575C30.0026 40.2227 30.5962 39.2295 30.9682 38.1443C29.9232 36.9805 28.5422 36.1481 26.9872 35.8203Z" fill="#88C5FD"/>
<path d="M26.9872 35.8203C26.5181 35.7214 26.0209 35.6656 25.4998 35.6656C23.4657 35.6656 21.4886 36.5237 20.0325 38.1449C20.3538 39.0825 20.8413 39.9509 21.4727 40.7082C22.3762 38.2352 24.4514 36.3557 26.9872 35.8203Z" fill="#64B3FB"/>
<path d="M25.4997 34.48L21.8379 36.6646C22.0618 37.7609 22.581 38.7466 23.3114 39.5255C23.9128 40.1668 24.6573 40.668 25.4997 40.9738C26.3422 40.6679 27.0871 40.1665 27.6888 39.5249C28.4192 38.746 28.9384 37.7604 29.1623 36.6644L25.4997 34.48Z" fill="#EFEDFF"/>
<path d="M21.8379 36.6646C22.0618 37.7609 22.581 38.7466 23.3114 39.5255C23.9128 40.1668 24.6573 40.668 25.4997 40.9738V34.48L21.8379 36.6646Z" fill="#D4D4FF"/>
<path d="M25.4997 40.9737C26.3422 40.6679 27.0871 40.1665 27.6888 39.5248C27.0873 38.8835 26.3429 38.3823 25.5005 38.0765C24.658 38.3824 23.9131 38.8838 23.3114 39.5254C23.9128 40.1668 24.6574 40.668 25.4997 40.9737Z" fill="#676FB2"/>
<path d="M11.4686 26.2703C13.3952 26.2703 14.957 24.6564 14.957 22.6656C14.957 20.6748 13.3952 19.0609 11.4686 19.0609C9.54203 19.0609 7.98022 20.6748 7.98022 22.6656C7.98022 24.6564 9.54203 26.2703 11.4686 26.2703Z" fill="#FFBF9D"/>
<path d="M39.5308 26.2703C41.4573 26.2703 43.0192 24.6565 43.0192 22.6657C43.0192 20.6748 41.4573 19.061 39.5308 19.061C37.6042 19.061 36.0424 20.6748 36.0424 22.6657C36.0424 24.6565 37.6042 26.2703 39.5308 26.2703Z" fill="#FFBF9D"/>
<path d="M29.4333 36.5858C35.2677 34.8284 39.531 29.2618 39.531 22.6656C39.531 15.4767 34.4679 9.50984 27.8254 8.36491C27.069 8.23459 26.2921 8.16675 25.4998 8.16675C17.7508 8.16675 11.4689 14.658 11.4689 22.6656C11.4689 29.2618 15.7322 34.8284 21.5664 36.5859C22.8145 36.9619 24.1342 37.1643 25.4998 37.1643C26.2921 37.1643 27.069 37.0962 27.8255 36.9656C28.3727 36.8709 28.9093 36.7437 29.4333 36.5858Z" fill="#FFD4BD"/>
<path d="M16.12 22.6656C16.12 15.4769 21.1834 9.51006 27.8254 8.36498C27.069 8.23459 26.2921 8.16675 25.4998 8.16675C17.7508 8.16675 11.4689 14.6581 11.4689 22.6656C11.4689 29.2618 15.7322 34.8284 21.5664 36.5859C22.8145 36.9619 24.1342 37.1643 25.4998 37.1643C26.2921 37.1643 27.069 37.0962 27.8255 36.9656C21.1834 35.8204 16.12 29.8541 16.12 22.6656Z" fill="#FFBF9D"/>
<path d="M18.1564 28.6043C19.5298 28.6043 20.6432 27.7003 20.6432 26.5852C20.6432 25.4701 19.5298 24.5661 18.1564 24.5661C16.783 24.5661 15.6696 25.4701 15.6696 26.5852C15.6696 27.7003 16.783 28.6043 18.1564 28.6043Z" fill="#FFBF9D"/>
<path d="M32.8206 28.604C34.194 28.604 35.3074 27.7 35.3074 26.5849C35.3074 25.4698 34.194 24.5659 32.8206 24.5659C31.4471 24.5659 30.3337 25.4698 30.3337 26.5849C30.3337 27.7 31.4471 28.604 32.8206 28.604Z" fill="#FFBF9D"/>
<path d="M20.5259 23.9878C20.2316 23.9878 19.993 24.2343 19.993 24.5384V25.526C19.993 25.8301 20.2316 26.0767 20.5259 26.0767C20.8202 26.0767 21.0588 25.8301 21.0588 25.526V24.5384C21.0588 24.2343 20.8202 23.9878 20.5259 23.9878Z" fill="#313D40"/>
<path d="M30.473 23.9875C30.1787 23.9875 29.9401 24.234 29.9401 24.5381V25.5257C29.9401 25.8298 30.1787 26.0764 30.473 26.0764C30.7673 26.0764 31.0058 25.8298 31.0058 25.5257V24.5381C31.0058 24.234 30.7673 23.9875 30.473 23.9875Z" fill="#313D40"/>
<path d="M27.161 25.0811C26.9391 24.8813 26.6026 24.9052 26.4092 25.1345C26.1795 25.4067 25.8481 25.5629 25.4996 25.5629C25.1512 25.5629 24.8197 25.4067 24.5901 25.1345C24.3967 24.9052 24.0602 24.8814 23.8382 25.0811C23.6163 25.281 23.5932 25.6288 23.7865 25.858C24.2187 26.3704 24.843 26.6642 25.4995 26.6642C26.1561 26.6642 26.7805 26.3704 27.2126 25.858C27.406 25.6288 27.3829 25.281 27.161 25.0811Z" fill="#313D40"/>
<path d="M30.4414 44.3633C31.03 44.3633 31.5072 43.8702 31.5072 43.262C31.5072 42.6537 31.03 42.1606 30.4414 42.1606C29.8528 42.1606 29.3756 42.6537 29.3756 43.262C29.3756 43.8702 29.8528 44.3633 30.4414 44.3633Z" fill="#88C5FD"/>
<path d="M39.5312 22.6646C39.531 19.727 38.6854 16.9932 37.2319 14.7095C36.5858 13.6943 35.8193 12.7683 34.9538 11.9524L31.9045 19.2951C33.8626 21.3797 36.6177 22.6642 39.5312 22.6646Z" fill="#D6948C"/>
<path d="M36.87 9.55257C35.967 10.1626 35.0102 10.6927 34.0081 11.1356C32.2325 9.73443 30.1233 8.76102 27.8254 8.36498C27.069 8.23459 26.2921 8.16675 25.4998 8.16675C21.4986 8.16675 17.8884 9.89765 15.3323 12.6742C12.9382 15.2748 11.4689 18.7928 11.4689 22.6654L24.2021 22.6625C31.1548 22.5269 36.9368 17.6061 38.7652 11.0012C39.086 9.84207 37.8466 8.89288 36.87 9.55257Z" fill="#CE857A"/>
<path d="M27.8254 8.36498C27.069 8.23459 26.2921 8.16675 25.4998 8.16675C21.4986 8.16675 17.8884 9.89765 15.3323 12.6742C12.9382 15.2748 11.4689 18.7928 11.4689 22.6654L19.1669 22.6637C18.5572 21.7137 18.377 20.5389 18.6634 19.4382C19.3794 16.6866 20.9924 14.3046 23.1927 12.6724C24.632 11.6047 26.3219 10.8573 28.1761 10.5377L32.0878 9.86329C30.7769 9.14127 29.3429 8.62651 27.8254 8.36498Z" fill="#C77464"/>
</svg>
