<svg width="117" height="106" viewBox="0 0 117 106" fill="none" xmlns="http://www.w3.org/2000/svg">
<path d="M108 3.35208V78.7934C107.091 81.321 105.25 82.148 102.617 82.1428C79.5443 82.0875 56.4705 82.0772 33.3958 82.1117C26.4983 82.1117 19.599 82.1117 12.6979 82.1117C11.7518 82.1461 10.8142 81.922 9.98698 81.4636C8.94531 80.8492 8.48698 79.807 8 78.7882V3.3469C8.92187 0.777745 10.8151 0 13.4688 0C34.1354 0.0622196 54.8021 0.0337023 75.4687 0.0337023C84.8108 0.0337023 94.151 0.0337023 103.49 0.0337023C105.628 0.0337023 106.984 0.969589 107.773 2.92432C107.841 3.07728 107.927 3.21209 108 3.35208ZM62.0365 68.7215C61.6016 68.9134 61.1406 68.8486 60.6875 68.8486C52.0069 68.8486 43.3264 68.8486 34.6458 68.8486C34.256 68.836 33.8657 68.8429 33.4766 68.8693C32.2865 68.9886 31.5964 69.7663 31.612 70.9433C31.6276 72.2395 32.4688 72.9706 34.0339 72.9706C43.362 72.9706 52.691 72.9706 62.0208 72.9706L62.0755 73.9324C62.1458 75.2131 63.0625 76.1412 64.2786 76.1646C65.4948 76.1879 66.4505 75.2676 66.5677 73.9998C66.5964 73.681 66.6042 73.3595 66.6198 73.0406C66.8151 73.0406 67.0104 73.0666 67.2057 73.0666C77.7422 73.0666 88.2804 73.0666 98.8203 73.0666C99.21 73.0682 99.5987 73.0264 99.9792 72.9421C100.43 72.8519 100.836 72.6084 101.127 72.2532C101.418 71.8981 101.575 71.4533 101.573 70.9952C101.62 69.5952 100.685 68.7345 99.013 68.7345C88.2144 68.7345 77.4158 68.7345 66.6172 68.7345C66.599 68.3768 66.6016 68.019 66.5573 67.6664C66.4963 67.0966 66.2238 66.5699 65.7932 66.1896C65.3625 65.8093 64.8048 65.6028 64.2292 65.6106C63.0339 65.665 62.1458 66.5776 62.0755 67.8297C62.0651 68.1382 62.0495 68.4416 62.0365 68.7215ZM58 6.40862H17.2917C15 6.40862 14.4062 7.0023 14.4062 9.28368V56.8195C14.4062 59.0568 15.0599 59.7049 17.3177 59.7049H98.6589C100.961 59.7049 101.594 59.0671 101.594 56.7443V9.30702C101.594 6.97378 101.01 6.40862 98.6328 6.40862H58ZM19.6849 75.8016V75.7368C20.8516 75.7368 22.0286 75.8146 23.1875 75.7161C24.4115 75.6124 25.125 74.8035 25.1536 73.5799C25.1953 71.8014 25.1953 70.0221 25.1536 68.2419C25.1224 66.9872 24.3385 66.0954 23.112 66.0539C20.9062 65.9813 18.6849 65.9787 16.4844 66.0539C15.1589 66.098 14.4349 66.9535 14.4167 68.2782C14.3958 69.9608 14.401 71.6485 14.4167 73.3258C14.4297 74.9461 15.1302 75.7031 16.7604 75.7913C17.7318 75.8457 18.7083 75.8016 19.6849 75.8016Z" fill="#EED370"/>
<path d="M58 6.40862H98.625C101.003 6.40862 101.586 6.97896 101.586 9.30701V56.7495C101.586 59.0827 100.953 59.7101 98.651 59.7101H17.3177C15.0599 59.7101 14.4062 59.0619 14.4062 56.8246V9.28368C14.4062 7.00229 15 6.41121 17.2917 6.40862H58ZM57.9479 48.1113C61.9661 48.1341 65.8291 46.5682 68.6884 43.7577C71.5478 40.9471 73.1697 37.1217 73.1979 33.1216C73.2318 24.8075 66.4271 17.9503 58.1276 17.9322C49.6667 17.9141 42.8177 24.613 42.7917 32.9453C42.7814 34.9341 43.1661 36.9053 43.9239 38.7456C44.6816 40.5858 45.7973 42.2588 47.2068 43.6683C48.6163 45.0777 50.2918 46.1959 52.137 46.9584C53.9821 47.7209 55.9605 48.1127 57.9583 48.1113H57.9479Z" fill="#72CAED"/>
<path d="M66.6221 68.7527C77.4207 68.7527 88.2193 68.7527 99.0179 68.7527C100.69 68.7527 101.622 69.6134 101.578 71.0133C101.58 71.4715 101.422 71.9162 101.132 72.2714C100.841 72.6265 100.435 72.8701 99.9841 72.9602C99.6036 73.0446 99.2149 73.0863 98.8252 73.0847C88.287 73.0847 77.7488 73.0847 67.2106 73.0847C67.0153 73.0847 66.82 73.0665 66.6247 73.0588C66.6247 71.6208 66.6238 70.1854 66.6221 68.7527Z" fill="#ECF4FA"/>
<path d="M62.0263 72.981C52.6982 72.981 43.3692 72.981 34.0393 72.981C32.4768 72.981 31.6331 72.2629 31.6174 70.9537C31.6018 69.7793 32.2919 69.0015 33.482 68.8797C33.8712 68.8533 34.2614 68.8464 34.6513 68.8589C43.3319 68.8589 52.0124 68.8589 60.693 68.8589C61.1461 68.8589 61.607 68.9238 62.0419 68.7293C62.1145 70.1458 62.1092 71.5651 62.0263 72.981Z" fill="#EF786A"/>
<path d="M19.6853 75.8016C18.7088 75.8016 17.7322 75.8457 16.7609 75.8016C15.1254 75.7135 14.4171 74.9565 14.4171 73.3362C14.4171 71.6536 14.4015 69.9659 14.4171 68.2886C14.4353 66.9638 15.1593 66.1083 16.4848 66.0643C18.6931 65.9891 20.9119 65.9917 23.1124 66.0643C24.339 66.1057 25.1228 66.9975 25.1541 68.2523C25.1957 70.0307 25.1957 71.8101 25.1541 73.5902C25.1254 74.8139 24.4119 75.6227 23.1879 75.7264C22.0291 75.825 20.8442 75.7472 19.6853 75.7472V75.8016ZM18.3103 70.8396C18.3103 71.4238 18.3103 72.0071 18.3103 72.5895C18.3103 73.2843 18.628 73.3673 19.1645 73.0225C19.9735 72.4798 20.7817 71.9354 21.589 71.3892C22.0734 71.06 22.0473 70.7333 21.5734 70.4144C20.7661 69.87 19.9562 69.3256 19.1541 68.7734C18.6124 68.4027 18.3103 68.4856 18.3077 69.1882L18.3103 70.8396Z" fill="#F2F9FA"/>
<path d="M62.0264 72.981C62.1045 71.5614 62.1045 70.1386 62.0264 68.719C62.0394 68.4286 62.055 68.1382 62.0706 67.8479C62.1436 66.5957 63.029 65.6832 64.2243 65.6287C64.7999 65.621 65.3577 65.8275 65.7883 66.2078C66.219 66.588 66.4915 67.1147 66.5524 67.6846C66.5967 68.0371 66.5941 68.3949 66.6123 68.7527C66.6123 70.1872 66.6123 71.62 66.6123 73.051C66.5967 73.3699 66.5889 73.6913 66.5602 74.0102C66.443 75.278 65.4665 76.1983 64.2712 76.1749C63.0758 76.1516 62.1383 75.2235 62.068 73.9428L62.0264 72.981Z" fill="#60727D"/>
<path d="M57.9579 48.1113C55.9601 48.1127 53.9817 47.7209 52.1365 46.9584C50.2914 46.1959 48.6159 45.0777 47.2063 43.6683C45.7968 42.2588 44.6811 40.5858 43.9234 38.7456C43.1657 36.9053 42.7809 34.9341 42.7912 32.9453C42.8173 24.613 49.6636 17.9089 58.1376 17.9322C66.437 17.9504 73.2417 24.8075 73.2079 33.1216C73.1796 37.1217 71.5578 40.9471 68.6984 43.7577C65.8391 46.5682 61.9761 48.1341 57.9579 48.1113ZM53.9423 32.9893V38.8172C53.9423 39.3902 54.0021 39.9476 54.5881 40.2301C55.1089 40.4894 55.5881 40.2664 56.0412 39.9579C58.8615 38.0421 61.6923 36.1418 64.5126 34.2234C65.7157 33.4041 65.7105 32.6679 64.4917 31.8409C61.7001 29.9397 58.9041 28.0455 56.1037 26.1582C55.6402 25.8445 55.174 25.5204 54.5803 25.8393C53.9865 26.1582 53.9397 26.7544 53.9397 27.3533C53.9449 29.2328 53.9423 31.1098 53.9423 32.9893Z" fill="#F2F9FC"/>
<path d="M18.3096 70.8396V69.1882C18.3096 68.4856 18.6143 68.4104 19.1559 68.7734C19.958 69.3256 20.7679 69.87 21.5752 70.4144C22.0492 70.7333 22.0752 71.06 21.5908 71.3892C20.7835 71.9371 19.9754 72.4815 19.1663 73.0225C18.6299 73.3776 18.3122 73.2817 18.3122 72.5895C18.3104 72.0071 18.3096 71.4238 18.3096 70.8396Z" fill="#EF796C"/>
<path d="M53.9424 32.9893C53.9424 31.1098 53.9424 29.2328 53.9424 27.3533C53.9424 26.7544 53.9632 26.1685 54.583 25.8393C55.2028 25.51 55.6429 25.8393 56.1064 26.1582C58.9033 28.0507 61.6993 29.9449 64.4945 31.8409C65.7132 32.6731 65.7184 33.3964 64.5153 34.2234C61.695 36.1418 58.8643 38.0421 56.0439 39.9579C55.5908 40.2664 55.1221 40.4764 54.5908 40.2302C54.0049 39.9476 53.9424 39.3902 53.945 38.8172L53.9424 32.9893Z" fill="#EF796C"/>
<path d="M15.0465 95.3429L11.7705 105.143H10.3005L7.62647 97.3169L4.95247 105.143H3.45447L0.178469 95.3429H1.62047L4.26647 103.309L7.02447 95.3429H8.31247L11.0145 103.351L13.7165 95.3429H15.0465ZM18.7045 97.6529C19.7312 97.6529 20.5152 97.9049 21.0565 98.4089C21.6072 98.9129 21.8825 99.6642 21.8825 100.663V105.143H20.6085V104.163C20.3845 104.508 20.0625 104.774 19.6425 104.961C19.2318 105.138 18.7418 105.227 18.1725 105.227C17.3418 105.227 16.6745 105.026 16.1705 104.625C15.6758 104.224 15.4285 103.696 15.4285 103.043C15.4285 102.39 15.6665 101.867 16.1425 101.475C16.6185 101.074 17.3745 100.873 18.4105 100.873H20.5385V100.607C20.5385 100.028 20.3705 99.5849 20.0345 99.2769C19.6985 98.9689 19.2038 98.8149 18.5505 98.8149C18.1118 98.8149 17.6825 98.8895 17.2625 99.0389C16.8425 99.1789 16.4878 99.3702 16.1985 99.6129L15.6385 98.6049C16.0212 98.2969 16.4785 98.0635 17.0105 97.9049C17.5425 97.7369 18.1072 97.6529 18.7045 97.6529ZM18.3965 104.191C18.9098 104.191 19.3532 104.079 19.7265 103.855C20.0998 103.622 20.3705 103.295 20.5385 102.875V101.839H18.4665C17.3278 101.839 16.7585 102.222 16.7585 102.987C16.7585 103.36 16.9032 103.654 17.1925 103.869C17.4818 104.084 17.8832 104.191 18.3965 104.191ZM28.5417 104.709C28.3457 104.877 28.103 105.008 27.8137 105.101C27.5244 105.185 27.2257 105.227 26.9177 105.227C26.171 105.227 25.5924 105.026 25.1817 104.625C24.771 104.224 24.5657 103.65 24.5657 102.903V98.8289H23.3057V97.7229H24.5657V96.0989H25.9097V97.7229H28.0377V98.8289H25.9097V102.847C25.9097 103.248 26.0077 103.556 26.2037 103.771C26.409 103.986 26.6984 104.093 27.0717 104.093C27.4824 104.093 27.8324 103.976 28.1217 103.743L28.5417 104.709ZM33.1545 105.227C32.3985 105.227 31.7218 105.064 31.1245 104.737C30.5365 104.41 30.0745 103.962 29.7385 103.393C29.4025 102.814 29.2345 102.161 29.2345 101.433C29.2345 100.705 29.4025 100.056 29.7385 99.4869C30.0745 98.9082 30.5365 98.4602 31.1245 98.1429C31.7218 97.8162 32.3985 97.6529 33.1545 97.6529C33.8265 97.6529 34.4238 97.7882 34.9465 98.0589C35.4785 98.3295 35.8892 98.7215 36.1785 99.2349L35.1565 99.8929C34.9232 99.5382 34.6338 99.2722 34.2885 99.0949C33.9432 98.9175 33.5605 98.8289 33.1405 98.8289C32.6552 98.8289 32.2165 98.9362 31.8245 99.1509C31.4418 99.3655 31.1385 99.6735 30.9145 100.075C30.6998 100.467 30.5925 100.92 30.5925 101.433C30.5925 101.956 30.6998 102.418 30.9145 102.819C31.1385 103.211 31.4418 103.514 31.8245 103.729C32.2165 103.944 32.6552 104.051 33.1405 104.051C33.5605 104.051 33.9432 103.962 34.2885 103.785C34.6338 103.608 34.9232 103.342 35.1565 102.987L36.1785 103.631C35.8892 104.144 35.4785 104.541 34.9465 104.821C34.4238 105.092 33.8265 105.227 33.1545 105.227ZM41.7848 97.6529C42.7275 97.6529 43.4742 97.9282 44.0248 98.4789C44.5848 99.0202 44.8648 99.8182 44.8648 100.873V105.143H43.5208V101.027C43.5208 100.308 43.3482 99.7669 43.0028 99.4029C42.6575 99.0389 42.1628 98.8569 41.5188 98.8569C40.7908 98.8569 40.2168 99.0715 39.7968 99.5009C39.3768 99.9209 39.1668 100.528 39.1668 101.321V105.143H37.8228V94.7549H39.1668V98.7729C39.4468 98.4182 39.8108 98.1429 40.2588 97.9469C40.7162 97.7509 41.2248 97.6529 41.7848 97.6529ZM55.2839 104.709C55.0879 104.877 54.8452 105.008 54.5559 105.101C54.2666 105.185 53.9679 105.227 53.6599 105.227C52.9132 105.227 52.3346 105.026 51.9239 104.625C51.5132 104.224 51.3079 103.65 51.3079 102.903V98.8289H50.0479V97.7229H51.3079V96.0989H52.6519V97.7229H54.7799V98.8289H52.6519V102.847C52.6519 103.248 52.7499 103.556 52.9459 103.771C53.1512 103.986 53.4406 104.093 53.8139 104.093C54.2246 104.093 54.5746 103.976 54.8639 103.743L55.2839 104.709ZM60.8708 97.6529C61.8134 97.6529 62.5601 97.9282 63.1108 98.4789C63.6708 99.0202 63.9508 99.8182 63.9508 100.873V105.143H62.6068V101.027C62.6068 100.308 62.4341 99.7669 62.0888 99.4029C61.7434 99.0389 61.2488 98.8569 60.6048 98.8569C59.8768 98.8569 59.3028 99.0715 58.8828 99.5009C58.4628 99.9209 58.2528 100.528 58.2528 101.321V105.143H56.9088V94.7549H58.2528V98.7729C58.5328 98.4182 58.8968 98.1429 59.3448 97.9469C59.8021 97.7509 60.3108 97.6529 60.8708 97.6529ZM73.1851 101.475C73.1851 101.578 73.1757 101.713 73.1571 101.881H67.1371C67.2211 102.534 67.5057 103.062 67.9911 103.463C68.4857 103.855 69.0971 104.051 69.8251 104.051C70.7117 104.051 71.4257 103.752 71.9671 103.155L72.7091 104.023C72.3731 104.415 71.9531 104.714 71.4491 104.919C70.9544 105.124 70.3991 105.227 69.7831 105.227C68.9991 105.227 68.3037 105.068 67.6971 104.751C67.0904 104.424 66.6191 103.972 66.2831 103.393C65.9564 102.814 65.7931 102.161 65.7931 101.433C65.7931 100.714 65.9517 100.066 66.2691 99.4869C66.5957 98.9082 67.0391 98.4602 67.5991 98.1429C68.1684 97.8162 68.8077 97.6529 69.5171 97.6529C70.2264 97.6529 70.8564 97.8162 71.4071 98.1429C71.9671 98.4602 72.4011 98.9082 72.7091 99.4869C73.0264 100.066 73.1851 100.728 73.1851 101.475ZM69.5171 98.7869C68.8731 98.7869 68.3317 98.9829 67.8931 99.3749C67.4637 99.7669 67.2117 100.28 67.1371 100.915H71.8971C71.8224 100.29 71.5657 99.7809 71.1271 99.3889C70.6977 98.9875 70.1611 98.7869 69.5171 98.7869ZM85.3771 97.7229L82.1291 105.143H80.7571L77.5091 97.7229H78.9091L81.4571 103.673L84.0611 97.7229H85.3771ZM86.6314 97.7229H87.9754V105.143H86.6314V97.7229ZM87.3034 96.2949C87.0421 96.2949 86.8228 96.2109 86.6454 96.0429C86.4774 95.8749 86.3934 95.6695 86.3934 95.4269C86.3934 95.1842 86.4774 94.9789 86.6454 94.8109C86.8228 94.6335 87.0421 94.5449 87.3034 94.5449C87.5648 94.5449 87.7794 94.6289 87.9474 94.7969C88.1248 94.9555 88.2134 95.1562 88.2134 95.3989C88.2134 95.6509 88.1248 95.8655 87.9474 96.0429C87.7794 96.2109 87.5648 96.2949 87.3034 96.2949ZM97.5416 94.7549V105.143H96.2536V103.967C95.9549 104.378 95.5769 104.69 95.1196 104.905C94.6622 105.12 94.1582 105.227 93.6076 105.227C92.8889 105.227 92.2449 105.068 91.6756 104.751C91.1062 104.434 90.6582 103.99 90.3316 103.421C90.0142 102.842 89.8556 102.18 89.8556 101.433C89.8556 100.686 90.0142 100.028 90.3316 99.4589C90.6582 98.8895 91.1062 98.4462 91.6756 98.1289C92.2449 97.8115 92.8889 97.6529 93.6076 97.6529C94.1396 97.6529 94.6296 97.7555 95.0776 97.9609C95.5256 98.1569 95.8989 98.4509 96.1976 98.8429V94.7549H97.5416ZM93.7196 104.051C94.1862 104.051 94.6109 103.944 94.9936 103.729C95.3762 103.505 95.6749 103.197 95.8896 102.805C96.1042 102.404 96.2116 101.946 96.2116 101.433C96.2116 100.92 96.1042 100.467 95.8896 100.075C95.6749 99.6735 95.3762 99.3655 94.9936 99.1509C94.6109 98.9362 94.1862 98.8289 93.7196 98.8289C93.2436 98.8289 92.8142 98.9362 92.4316 99.1509C92.0582 99.3655 91.7596 99.6735 91.5356 100.075C91.3209 100.467 91.2136 100.92 91.2136 101.433C91.2136 101.946 91.3209 102.404 91.5356 102.805C91.7596 103.197 92.0582 103.505 92.4316 103.729C92.8142 103.944 93.2436 104.051 93.7196 104.051ZM106.791 101.475C106.791 101.578 106.781 101.713 106.763 101.881H100.743C100.827 102.534 101.111 103.062 101.597 103.463C102.091 103.855 102.703 104.051 103.431 104.051C104.317 104.051 105.031 103.752 105.573 103.155L106.315 104.023C105.979 104.415 105.559 104.714 105.055 104.919C104.56 105.124 104.005 105.227 103.389 105.227C102.605 105.227 101.909 105.068 101.303 104.751C100.696 104.424 100.225 103.972 99.8885 103.393C99.5619 102.814 99.3985 102.161 99.3985 101.433C99.3985 100.714 99.5572 100.066 99.8745 99.4869C100.201 98.9082 100.645 98.4602 101.205 98.1429C101.774 97.8162 102.413 97.6529 103.123 97.6529C103.832 97.6529 104.462 97.8162 105.013 98.1429C105.573 98.4602 106.007 98.9082 106.315 99.4869C106.632 100.066 106.791 100.728 106.791 101.475ZM103.123 98.7869C102.479 98.7869 101.937 98.9829 101.499 99.3749C101.069 99.7669 100.817 100.28 100.743 100.915H105.503C105.428 100.29 105.171 99.7809 104.733 99.3889C104.303 98.9875 103.767 98.7869 103.123 98.7869ZM111.835 105.227C111.097 105.227 110.435 105.064 109.847 104.737C109.259 104.41 108.797 103.962 108.461 103.393C108.134 102.814 107.971 102.161 107.971 101.433C107.971 100.705 108.134 100.056 108.461 99.4869C108.797 98.9082 109.259 98.4602 109.847 98.1429C110.435 97.8162 111.097 97.6529 111.835 97.6529C112.572 97.6529 113.23 97.8162 113.809 98.1429C114.397 98.4602 114.854 98.9082 115.181 99.4869C115.517 100.056 115.685 100.705 115.685 101.433C115.685 102.161 115.517 102.814 115.181 103.393C114.854 103.962 114.397 104.41 113.809 104.737C113.23 105.064 112.572 105.227 111.835 105.227ZM111.835 104.051C112.311 104.051 112.735 103.944 113.109 103.729C113.491 103.505 113.79 103.197 114.005 102.805C114.219 102.404 114.327 101.946 114.327 101.433C114.327 100.92 114.219 100.467 114.005 100.075C113.79 99.6735 113.491 99.3655 113.109 99.1509C112.735 98.9362 112.311 98.8289 111.835 98.8289C111.359 98.8289 110.929 98.9362 110.547 99.1509C110.173 99.3655 109.875 99.6735 109.651 100.075C109.436 100.467 109.329 100.92 109.329 101.433C109.329 101.946 109.436 102.404 109.651 102.805C109.875 103.197 110.173 103.505 110.547 103.729C110.929 103.944 111.359 104.051 111.835 104.051Z" fill="white"/>
</svg>
