<svg width="42" height="31" viewBox="0 0 42 31" fill="none" xmlns="http://www.w3.org/2000/svg">
<path d="M13.734 5.25253C13.734 8.1534 11.3823 10.5047 8.48146 10.5047C5.5809 10.5047 3.22925 8.1534 3.22925 5.25253C3.22925 2.35165 5.5809 0 8.48146 0C11.3823 0 13.734 2.35165 13.734 5.25253Z" fill="#C6CACC"/>
<path d="M11.1808 7.53016C8.43211 7.53016 6.20382 5.3022 6.20382 2.55353C6.20382 1.73995 6.40025 0.972835 6.74631 0.2948C4.69843 1.01161 3.22925 2.95984 3.22925 5.25253C3.22925 8.1534 5.58058 10.5047 8.48146 10.5047C10.7741 10.5047 12.7224 9.03555 13.4392 6.98767C12.7612 7.33374 11.994 7.53016 11.1808 7.53016Z" fill="#919699"/>
<path d="M10.5518 5.25256C10.5518 6.39587 9.62483 7.32288 8.4812 7.32288C7.3379 7.32288 6.41089 6.39587 6.41089 5.25256C6.41089 4.10894 7.3379 3.18193 8.4812 3.18193C9.62483 3.18193 10.5518 4.10894 10.5518 5.25256Z" fill="#3F3F3F"/>
<path d="M6.57559 4.44247C6.46985 4.69113 6.41089 4.9651 6.41089 5.25253C6.41089 6.39583 7.3379 7.32284 8.4812 7.32284C8.76895 7.32284 9.0426 7.2642 9.29126 7.15814C8.0624 6.65346 7.08027 5.67133 6.57559 4.44247Z" fill="black"/>
<path d="M28.4003 5.25253C28.4003 8.1534 26.0487 10.5047 23.1478 10.5047C20.2469 10.5047 17.8953 8.1534 17.8953 5.25253C17.8953 2.35165 20.2469 0 23.1478 0C26.0487 0 28.4003 2.35165 28.4003 5.25253Z" fill="#C6CACC"/>
<path d="M25.8471 7.53016C23.0981 7.53016 20.8702 5.3022 20.8702 2.55353C20.8702 1.73995 21.0666 0.972835 21.4123 0.2948C19.3648 1.01161 17.8953 2.95984 17.8953 5.25253C17.8953 8.1534 20.2469 10.5047 23.1478 10.5047C25.4405 10.5047 27.3887 9.03555 28.1055 6.98767C27.4275 7.33374 26.6604 7.53016 25.8471 7.53016Z" fill="#919699"/>
<path d="M25.2183 5.25256C25.2183 6.39587 24.2916 7.32288 23.148 7.32288C22.0046 7.32288 21.0776 6.39587 21.0776 5.25256C21.0776 4.10894 22.0046 3.18193 23.148 3.18193C24.2916 3.18193 25.2183 4.10894 25.2183 5.25256Z" fill="#3F3F3F"/>
<path d="M21.2423 4.44247C21.1363 4.69113 21.0776 4.9651 21.0776 5.25253C21.0776 6.39583 22.0046 7.32284 23.148 7.32284C23.4354 7.32284 23.709 7.2642 23.958 7.15814C22.7291 6.65346 21.747 5.67133 21.2423 4.44247Z" fill="black"/>
<path d="M38.9974 12.7484L31.6294 15.7947V23.6944L38.9974 26.7407C40.4275 27.3319 41.9999 26.2806 41.9999 24.7329V14.7559C41.9999 13.2082 40.4275 12.1572 38.9974 12.7484Z" fill="#3F3F3F"/>
<path d="M34.041 14.7975L31.6294 15.7947V23.6944L36.7775 25.823C34.5719 23.0371 34.1294 18.8561 34.041 14.7975Z" fill="black"/>
<path d="M38.997 12.7484L37.9719 13.1723V26.3168L38.997 26.7407C40.4271 27.3319 41.9994 26.2806 41.9994 24.7329V14.7559C41.9994 13.2082 40.4271 12.1572 38.997 12.7484Z" fill="#BEBFC0"/>
<path d="M27.3537 29.3302C19.7399 30.8862 11.8896 30.8862 4.27553 29.3302C1.78705 28.8216 0 26.6321 0 24.0924V15.6349C0 13.0948 1.78705 10.9056 4.27553 10.3971C11.8896 8.84107 19.7399 8.84107 27.3537 10.3971C29.8422 10.9056 31.6292 13.0948 31.6292 15.6349V24.0924C31.6296 26.6321 29.8422 28.8216 27.3537 29.3302Z" fill="#C6CACC"/>
<path d="M27.3537 29.3301C28.2666 29.1436 29.0844 28.7303 29.7547 28.1573C14.9825 28.2124 12.2537 16.1238 12.7635 9.31142C9.9177 9.46235 7.08059 9.8238 4.27553 10.397C1.78705 10.9056 0 13.0948 0 15.6348V24.0923C0 26.6324 1.78705 28.8216 4.27553 29.3301C11.8896 30.8861 19.7399 30.8861 27.3537 29.3301Z" fill="#919699"/>
<path d="M12.1262 17.3597V22.3674C12.1262 23.5508 13.3714 24.3201 14.4298 23.7911L19.1866 21.4125C20.4632 20.7742 20.4632 18.9526 19.1866 18.3143L14.4298 15.936C13.3714 15.4067 12.1262 16.1764 12.1262 17.3597Z" fill="#EC5858"/>
<path d="M14.4298 23.7911L16.5552 22.7282C14.8621 20.6634 13.837 18.2291 13.2756 15.8303C12.6335 16.0187 12.1262 16.6045 12.1262 17.3597V22.3674C12.1262 23.5508 13.3714 24.3201 14.4298 23.7911Z" fill="#A52525"/>
</svg>
