<svg width="176" height="534" viewBox="0 0 176 534" fill="none" xmlns="http://www.w3.org/2000/svg">
<path d="M171 521H5V4.21007C5 1.88302 5.65364 0 6.45824 0H169.542C170.346 0 171 1.88302 171 4.21007V521Z" fill="#724629"/>
<path d="M171 521H157V0H169.188C170.188 0 171 1.88302 171 4.21007V521Z" fill="#5F351A"/>
<path d="M174.502 534H1.49787C0.669947 534 0 533.226 0 532.27V521.031C0 520.077 0.669947 519.301 1.49787 519.301H174.502C175.33 519.301 176 520.077 176 521.031V532.27C176 533.226 175.33 534 174.502 534Z" fill="#5E6366"/>
<path d="M154.823 519.303V534H173.257C174.771 534 175.999 533.227 175.999 532.271V521.033C175.999 520.079 174.771 519.303 173.257 519.303H154.823Z" fill="#3F3F3F"/>
<rect x="17" y="390" width="140" height="14" fill="#5C2B0C"/>
<rect x="17" y="260" width="140" height="14" fill="#5C2B0C"/>
<rect x="17" y="130" width="140" height="14" fill="#5C2B0C"/>
<rect x="17" y="404" width="140" height="116" fill="#844E2B"/>
<circle cx="88.7532" cy="460.748" r="12.7484" fill="#F4C222"/>
<path d="M85.4759 448.364C85.4759 448.364 82.4332 449.53 81.1051 450.55C79.7769 451.569 78.2997 453.106 77.4627 454.556C76.6256 456.006 76.2845 457.74 76.066 459.4C75.8475 461.06 75.9581 462.747 76.3914 464.364C76.8247 465.981 77.5722 467.497 78.5914 468.825C79.6105 470.153 80.8813 471.268 82.3311 472.105C83.781 472.942 85.3815 473.485 87.0413 473.703C88.7011 473.922 92.0322 473.154 92.0322 473.154C92.0322 473.154 90.5554 471.704 88.1414 471.386C86.7039 471.197 85.3178 470.727 84.0622 470.002C82.8066 469.277 81.7061 468.312 80.8235 467.161C79.9409 466.011 79.2934 464.698 78.9182 463.298C78.543 461.898 78.4472 460.437 78.6365 458.999C78.8257 457.562 79.2962 456.176 80.0211 454.92C80.7461 453.665 81.7112 452.564 82.8615 451.681C84.2322 450.63 85.4759 448.364 85.4759 448.364Z" fill="#C89800"/>
<rect x="17" y="274" width="140" height="116" fill="#844E2B"/>
<circle cx="88.7532" cy="330.748" r="12.7484" fill="#F4C222"/>
<path d="M85.4759 318.364C85.4759 318.364 82.4332 319.53 81.1051 320.55C79.7769 321.569 78.2997 323.106 77.4627 324.556C76.6256 326.006 76.2845 327.74 76.066 329.4C75.8475 331.06 75.9581 332.747 76.3914 334.364C76.8247 335.981 77.5722 337.497 78.5914 338.825C79.6105 340.153 80.8813 341.268 82.3311 342.105C83.781 342.942 85.3815 343.485 87.0413 343.703C88.7011 343.922 92.0322 343.154 92.0322 343.154C92.0322 343.154 90.5554 341.704 88.1414 341.386C86.7039 341.197 85.3178 340.727 84.0622 340.002C82.8066 339.277 81.7061 338.312 80.8235 337.161C79.9409 336.011 79.2934 334.698 78.9182 333.298C78.543 331.898 78.4472 330.437 78.6365 328.999C78.8257 327.562 79.2962 326.176 80.0211 324.92C80.7461 323.665 81.7112 322.564 82.8615 321.681C84.2322 320.63 85.4759 318.364 85.4759 318.364Z" fill="#C89800"/>
<rect x="17" y="144" width="140" height="116" fill="#844E2B"/>
<circle cx="88.7532" cy="200.748" r="12.7484" fill="#F4C222"/>
<path d="M85.4759 188.364C85.4759 188.364 82.4332 189.53 81.1051 190.55C79.7769 191.569 78.2997 193.106 77.4627 194.556C76.6256 196.006 76.2845 197.74 76.066 199.4C75.8475 201.06 75.9581 202.747 76.3914 204.364C76.8247 205.981 77.5722 207.497 78.5914 208.825C79.6105 210.153 80.8813 211.268 82.3311 212.105C83.781 212.942 85.3815 213.485 87.0413 213.703C88.7011 213.922 92.0322 213.154 92.0322 213.154C92.0322 213.154 90.5554 211.704 88.1414 211.386C86.7039 211.197 85.3178 210.727 84.0622 210.002C82.8066 209.277 81.7061 208.312 80.8235 207.161C79.9409 206.011 79.2934 204.698 78.9182 203.298C78.543 201.898 78.4472 200.437 78.6365 198.999C78.8257 197.562 79.2962 196.176 80.0211 194.92C80.7461 193.665 81.7112 192.564 82.8615 191.681C84.2322 190.63 85.4759 188.364 85.4759 188.364Z" fill="#C89800"/>
<rect x="17" y="14" width="140" height="116" fill="#844E2B"/>
<circle cx="88.7532" cy="70.7484" r="12.7484" fill="#F4C222"/>
<path d="M85.4759 58.3642C85.4759 58.3642 82.4332 59.5304 81.1051 60.5496C79.7769 61.5687 78.2997 63.1064 77.4627 64.5562C76.6256 66.0061 76.2845 67.7404 76.066 69.4002C75.8475 71.06 75.9581 72.7466 76.3914 74.3637C76.8247 75.9808 77.5722 77.4967 78.5914 78.8249C79.6105 80.1531 80.8813 81.2675 82.3311 82.1046C83.781 82.9417 85.3815 83.485 87.0413 83.7035C88.7011 83.922 92.0322 83.1542 92.0322 83.1542C92.0322 83.1542 90.5554 81.7043 88.1414 81.3865C86.7039 81.1972 85.3178 80.7267 84.0622 80.0018C82.8066 79.2769 81.7061 78.3117 80.8235 77.1615C79.9409 76.0112 79.2934 74.6984 78.9182 73.298C78.543 71.8975 78.4472 70.4369 78.6365 68.9994C78.8257 67.562 79.2962 66.1759 80.0211 64.9203C80.7461 63.6646 81.7112 62.5641 82.8615 61.6815C84.2322 60.6297 85.4759 58.3642 85.4759 58.3642Z" fill="#C89800"/>
</svg>
