<svg width="673" height="729" viewBox="0 0 673 729" fill="none" xmlns="http://www.w3.org/2000/svg">
<ellipse cx="260.5" cy="198.5" rx="260.5" ry="198.5" fill="#1771B9"/>
<path d="M463.164 305.551L348.636 362.288L511.428 422.133L463.164 305.551Z" fill="#1771B9"/>
<path d="M159.4 76.85C160.066 76.85 160.683 77.1 161.25 77.6C161.816 78.0667 162.1 78.7167 162.1 79.55C162.1 79.7833 162.05 80.0667 161.95 80.4L151.7 110.4C151.533 110.9 151.233 111.283 150.8 111.55C150.366 111.817 149.916 111.967 149.45 112C148.983 112 148.516 111.867 148.05 111.6C147.583 111.333 147.233 110.933 147 110.4L139.1 91.9L139.55 92.1L131.75 110.4C131.483 110.933 131.116 111.333 130.65 111.6C130.216 111.867 129.75 112 129.25 112C128.816 111.967 128.383 111.817 127.95 111.55C127.516 111.283 127.216 110.9 127.05 110.4L116.8 80.4C116.7 80.0667 116.65 79.7833 116.65 79.55C116.65 78.7167 116.95 78.0667 117.55 77.6C118.15 77.1 118.766 76.85 119.4 76.85C119.933 76.85 120.416 77 120.85 77.3C121.316 77.5667 121.633 77.9667 121.8 78.5L130.45 104.3H129.55L137.15 85.7C137.383 85.2 137.7 84.8 138.1 84.5C138.533 84.2 139.016 84.0667 139.55 84.1C140.083 84.0667 140.55 84.2 140.95 84.5C141.383 84.8 141.7 85.2 141.9 85.7L149.1 103.75L148.35 104.15L156.95 78.5C157.116 77.9667 157.433 77.5667 157.9 77.3C158.366 77 158.866 76.85 159.4 76.85ZM176.426 112.5C173.692 112.5 171.292 111.933 169.226 110.8C167.192 109.633 165.609 108.05 164.476 106.05C163.376 104.017 162.826 101.7 162.826 99.1C162.826 96.1667 163.409 93.6667 164.576 91.6C165.776 89.5 167.326 87.9 169.226 86.8C171.159 85.6667 173.192 85.1 175.326 85.1C176.926 85.1 178.459 85.4333 179.926 86.1C181.426 86.7333 182.742 87.6333 183.876 88.8C185.009 89.9333 185.909 91.2833 186.576 92.85C187.242 94.3833 187.592 96.0667 187.626 97.9C187.592 98.5667 187.326 99.1167 186.826 99.55C186.326 99.9833 185.742 100.2 185.076 100.2H165.676L164.476 95.95H183.276L182.326 96.85V95.6C182.226 94.4333 181.826 93.4167 181.126 92.55C180.426 91.65 179.559 90.9667 178.526 90.5C177.526 90 176.459 89.75 175.326 89.75C174.326 89.75 173.359 89.9167 172.426 90.25C171.492 90.55 170.676 91.05 169.976 91.75C169.276 92.45 168.709 93.3833 168.276 94.55C167.842 95.6833 167.626 97.1 167.626 98.8C167.626 100.633 168.009 102.233 168.776 103.6C169.542 104.967 170.576 106.033 171.876 106.8C173.176 107.533 174.626 107.9 176.226 107.9C177.426 107.9 178.426 107.783 179.226 107.55C180.026 107.283 180.692 106.967 181.226 106.6C181.759 106.233 182.226 105.883 182.626 105.55C183.159 105.25 183.659 105.1 184.126 105.1C184.726 105.1 185.226 105.317 185.626 105.75C186.026 106.15 186.226 106.633 186.226 107.2C186.226 107.933 185.859 108.6 185.126 109.2C184.226 110.067 182.976 110.833 181.376 111.5C179.809 112.167 178.159 112.5 176.426 112.5ZM196.939 109.45C196.939 110.183 196.689 110.8 196.189 111.3C195.722 111.767 195.139 112 194.439 112C193.739 112 193.139 111.767 192.639 111.3C192.172 110.8 191.939 110.183 191.939 109.45V77.55C191.939 76.8167 192.189 76.2167 192.689 75.75C193.189 75.25 193.789 75 194.489 75C195.222 75 195.806 75.25 196.239 75.75C196.706 76.2167 196.939 76.8167 196.939 77.55V109.45ZM213.843 85.1C215.643 85.1 217.226 85.3 218.593 85.7C219.993 86.0667 221.093 86.6 221.893 87.3C222.693 87.9667 223.093 88.75 223.093 89.65C223.093 90.2167 222.909 90.75 222.543 91.25C222.209 91.7167 221.726 91.95 221.093 91.95C220.593 91.95 220.176 91.8667 219.843 91.7C219.543 91.5333 219.259 91.3333 218.993 91.1C218.726 90.8667 218.393 90.6333 217.993 90.4C217.626 90.2 217.076 90.0333 216.343 89.9C215.643 89.7667 215.009 89.7 214.443 89.7C212.676 89.7 211.143 90.1 209.843 90.9C208.576 91.7 207.576 92.7833 206.843 94.15C206.143 95.5167 205.793 97.0667 205.793 98.8C205.793 100.533 206.143 102.083 206.843 103.45C207.576 104.817 208.559 105.9 209.793 106.7C211.059 107.5 212.526 107.9 214.193 107.9C215.193 107.9 216.009 107.833 216.643 107.7C217.309 107.533 217.859 107.333 218.293 107.1C218.826 106.8 219.259 106.5 219.593 106.2C219.926 105.867 220.409 105.7 221.043 105.7C221.776 105.7 222.326 105.933 222.693 106.4C223.093 106.833 223.293 107.383 223.293 108.05C223.293 108.783 222.843 109.5 221.943 110.2C221.076 110.867 219.909 111.417 218.443 111.85C216.976 112.283 215.359 112.5 213.593 112.5C210.993 112.5 208.726 111.9 206.793 110.7C204.893 109.5 203.409 107.867 202.343 105.8C201.309 103.733 200.793 101.4 200.793 98.8C200.793 96.1667 201.343 93.8333 202.443 91.8C203.543 89.7333 205.076 88.1 207.043 86.9C209.009 85.7 211.276 85.1 213.843 85.1ZM251.625 98.85C251.625 101.517 251.025 103.883 249.825 105.95C248.658 107.983 247.075 109.583 245.075 110.75C243.075 111.917 240.825 112.5 238.325 112.5C235.858 112.5 233.608 111.917 231.575 110.75C229.575 109.583 227.975 107.983 226.775 105.95C225.608 103.883 225.025 101.517 225.025 98.85C225.025 96.15 225.608 93.7833 226.775 91.75C227.975 89.6833 229.575 88.0667 231.575 86.9C233.608 85.7 235.858 85.1 238.325 85.1C240.825 85.1 243.075 85.7 245.075 86.9C247.075 88.0667 248.658 89.6833 249.825 91.75C251.025 93.7833 251.625 96.15 251.625 98.85ZM246.625 98.85C246.625 97.0167 246.258 95.4333 245.525 94.1C244.792 92.7333 243.792 91.6667 242.525 90.9C241.292 90.1 239.892 89.7 238.325 89.7C236.792 89.7 235.392 90.1 234.125 90.9C232.892 91.6667 231.892 92.7333 231.125 94.1C230.392 95.4333 230.025 97.0167 230.025 98.85C230.025 100.617 230.392 102.183 231.125 103.55C231.892 104.917 232.892 105.983 234.125 106.75C235.392 107.517 236.792 107.9 238.325 107.9C239.892 107.9 241.292 107.517 242.525 106.75C243.792 105.983 244.792 104.917 245.525 103.55C246.258 102.183 246.625 100.617 246.625 98.85ZM268.745 85.25C271.212 85.25 273.112 85.8667 274.445 87.1C275.778 88.3 276.662 89.9333 277.095 92L276.295 91.75L276.645 90.95C277.078 90.0833 277.728 89.2167 278.595 88.35C279.495 87.45 280.562 86.7167 281.795 86.15C283.028 85.55 284.345 85.25 285.745 85.25C288.045 85.25 289.828 85.75 291.095 86.75C292.362 87.7167 293.245 89.0333 293.745 90.7C294.245 92.3333 294.495 94.1667 294.495 96.2V109.45C294.495 110.183 294.262 110.8 293.795 111.3C293.328 111.767 292.728 112 291.995 112C291.295 112 290.695 111.767 290.195 111.3C289.728 110.8 289.495 110.183 289.495 109.45V96.25C289.495 95.0833 289.328 94.0167 288.995 93.05C288.695 92.0833 288.145 91.3167 287.345 90.75C286.578 90.15 285.512 89.85 284.145 89.85C282.845 89.85 281.678 90.15 280.645 90.75C279.645 91.3167 278.862 92.0833 278.295 93.05C277.728 94.0167 277.445 95.0833 277.445 96.25V109.45C277.445 110.183 277.212 110.8 276.745 111.3C276.278 111.767 275.678 112 274.945 112C274.212 112 273.612 111.767 273.145 111.3C272.678 110.8 272.445 110.183 272.445 109.45V96.2C272.445 95.0333 272.278 93.9667 271.945 93C271.645 92.0333 271.112 91.2667 270.345 90.7C269.578 90.1333 268.512 89.85 267.145 89.85C265.845 89.85 264.695 90.1333 263.695 90.7C262.695 91.2667 261.912 92.0333 261.345 93C260.812 93.9667 260.545 95.0333 260.545 96.2V109.45C260.545 110.183 260.295 110.8 259.795 111.3C259.328 111.767 258.745 112 258.045 112C257.312 112 256.712 111.767 256.245 111.3C255.778 110.8 255.545 110.183 255.545 109.45V88.25C255.545 87.5167 255.778 86.9167 256.245 86.45C256.712 85.95 257.312 85.7 258.045 85.7C258.745 85.7 259.328 85.95 259.795 86.45C260.295 86.9167 260.545 87.5167 260.545 88.25V91.2L259.595 91.75C259.828 91.0167 260.212 90.2667 260.745 89.5C261.278 88.7333 261.945 88.0333 262.745 87.4C263.578 86.7667 264.495 86.25 265.495 85.85C266.495 85.45 267.578 85.25 268.745 85.25ZM311.992 112.5C309.259 112.5 306.859 111.933 304.792 110.8C302.759 109.633 301.176 108.05 300.042 106.05C298.942 104.017 298.392 101.7 298.392 99.1C298.392 96.1667 298.976 93.6667 300.142 91.6C301.342 89.5 302.892 87.9 304.792 86.8C306.726 85.6667 308.759 85.1 310.892 85.1C312.492 85.1 314.026 85.4333 315.492 86.1C316.992 86.7333 318.309 87.6333 319.442 88.8C320.576 89.9333 321.476 91.2833 322.142 92.85C322.809 94.3833 323.159 96.0667 323.192 97.9C323.159 98.5667 322.892 99.1167 322.392 99.55C321.892 99.9833 321.309 100.2 320.642 100.2H301.242L300.042 95.95H318.842L317.892 96.85V95.6C317.792 94.4333 317.392 93.4167 316.692 92.55C315.992 91.65 315.126 90.9667 314.092 90.5C313.092 90 312.026 89.75 310.892 89.75C309.892 89.75 308.926 89.9167 307.992 90.25C307.059 90.55 306.242 91.05 305.542 91.75C304.842 92.45 304.276 93.3833 303.842 94.55C303.409 95.6833 303.192 97.1 303.192 98.8C303.192 100.633 303.576 102.233 304.342 103.6C305.109 104.967 306.142 106.033 307.442 106.8C308.742 107.533 310.192 107.9 311.792 107.9C312.992 107.9 313.992 107.783 314.792 107.55C315.592 107.283 316.259 106.967 316.792 106.6C317.326 106.233 317.792 105.883 318.192 105.55C318.726 105.25 319.226 105.1 319.692 105.1C320.292 105.1 320.792 105.317 321.192 105.75C321.592 106.15 321.792 106.633 321.792 107.2C321.792 107.933 321.426 108.6 320.692 109.2C319.792 110.067 318.542 110.833 316.942 111.5C315.376 112.167 313.726 112.5 311.992 112.5ZM339.171 86H350.921C351.588 86 352.138 86.2333 352.571 86.7C353.038 87.1333 353.271 87.6833 353.271 88.35C353.271 88.9833 353.038 89.5167 352.571 89.95C352.138 90.3833 351.588 90.6 350.921 90.6H339.171C338.505 90.6 337.938 90.3833 337.471 89.95C337.038 89.4833 336.821 88.9333 336.821 88.3C336.821 87.6333 337.038 87.0833 337.471 86.65C337.938 86.2167 338.505 86 339.171 86ZM344.421 79.5C345.155 79.5 345.755 79.75 346.221 80.25C346.688 80.7167 346.921 81.3167 346.921 82.05V105.25C346.921 105.85 347.021 106.333 347.221 106.7C347.421 107.067 347.688 107.317 348.021 107.45C348.388 107.583 348.755 107.65 349.121 107.65C349.488 107.65 349.805 107.583 350.071 107.45C350.371 107.317 350.721 107.25 351.121 107.25C351.521 107.25 351.888 107.433 352.221 107.8C352.555 108.167 352.721 108.667 352.721 109.3C352.721 110.1 352.288 110.75 351.421 111.25C350.555 111.75 349.621 112 348.621 112C348.055 112 347.388 111.95 346.621 111.85C345.855 111.75 345.105 111.5 344.371 111.1C343.671 110.7 343.088 110.067 342.621 109.2C342.155 108.3 341.921 107.05 341.921 105.45V82.05C341.921 81.3167 342.155 80.7167 342.621 80.25C343.121 79.75 343.721 79.5 344.421 79.5ZM382.064 98.85C382.064 101.517 381.464 103.883 380.264 105.95C379.098 107.983 377.514 109.583 375.514 110.75C373.514 111.917 371.264 112.5 368.764 112.5C366.298 112.5 364.048 111.917 362.014 110.75C360.014 109.583 358.414 107.983 357.214 105.95C356.048 103.883 355.464 101.517 355.464 98.85C355.464 96.15 356.048 93.7833 357.214 91.75C358.414 89.6833 360.014 88.0667 362.014 86.9C364.048 85.7 366.298 85.1 368.764 85.1C371.264 85.1 373.514 85.7 375.514 86.9C377.514 88.0667 379.098 89.6833 380.264 91.75C381.464 93.7833 382.064 96.15 382.064 98.85ZM377.064 98.85C377.064 97.0167 376.698 95.4333 375.964 94.1C375.231 92.7333 374.231 91.6667 372.964 90.9C371.731 90.1 370.331 89.7 368.764 89.7C367.231 89.7 365.831 90.1 364.564 90.9C363.331 91.6667 362.331 92.7333 361.564 94.1C360.831 95.4333 360.464 97.0167 360.464 98.85C360.464 100.617 360.831 102.183 361.564 103.55C362.331 104.917 363.331 105.983 364.564 106.75C365.831 107.517 367.231 107.9 368.764 107.9C370.331 107.9 371.731 107.517 372.964 106.75C374.231 105.983 375.231 104.917 375.964 103.55C376.698 102.183 377.064 100.617 377.064 98.85ZM57.2311 170.1C57.9311 170.1 58.5144 170.333 58.9811 170.8C59.4811 171.267 59.7311 171.85 59.7311 172.55C59.7311 173.25 59.4811 173.833 58.9811 174.3C58.5144 174.767 57.9311 175 57.2311 175H40.4311C39.6977 175 39.0811 174.767 38.5811 174.3C38.1144 173.8 37.8811 173.183 37.8811 172.45V142.55C37.8811 141.817 38.1311 141.217 38.6311 140.75C39.1311 140.25 39.7811 140 40.5811 140C41.2477 140 41.8311 140.25 42.3311 140.75C42.8644 141.217 43.1311 141.817 43.1311 142.55V170.95L42.0811 170.1H57.2311ZM75.4189 175.5C72.6856 175.5 70.2856 174.933 68.2189 173.8C66.1856 172.633 64.6023 171.05 63.4689 169.05C62.3689 167.017 61.8189 164.7 61.8189 162.1C61.8189 159.167 62.4023 156.667 63.5689 154.6C64.7689 152.5 66.3189 150.9 68.2189 149.8C70.1523 148.667 72.1856 148.1 74.3189 148.1C75.9189 148.1 77.4523 148.433 78.9189 149.1C80.4189 149.733 81.7356 150.633 82.8689 151.8C84.0023 152.933 84.9023 154.283 85.5689 155.85C86.2356 157.383 86.5856 159.067 86.6189 160.9C86.5856 161.567 86.3189 162.117 85.8189 162.55C85.3189 162.983 84.7356 163.2 84.0689 163.2H64.6689L63.4689 158.95H82.2689L81.3189 159.85V158.6C81.2189 157.433 80.8189 156.417 80.1189 155.55C79.4189 154.65 78.5523 153.967 77.5189 153.5C76.5189 153 75.4523 152.75 74.3189 152.75C73.3189 152.75 72.3523 152.917 71.4189 153.25C70.4856 153.55 69.6689 154.05 68.9689 154.75C68.2689 155.45 67.7023 156.383 67.2689 157.55C66.8356 158.683 66.6189 160.1 66.6189 161.8C66.6189 163.633 67.0023 165.233 67.7689 166.6C68.5356 167.967 69.5689 169.033 70.8689 169.8C72.1689 170.533 73.6189 170.9 75.2189 170.9C76.4189 170.9 77.4189 170.783 78.2189 170.55C79.0189 170.283 79.6856 169.967 80.2189 169.6C80.7523 169.233 81.2189 168.883 81.6189 168.55C82.1523 168.25 82.6523 168.1 83.1189 168.1C83.7189 168.1 84.2189 168.317 84.6189 168.75C85.0189 169.15 85.2189 169.633 85.2189 170.2C85.2189 170.933 84.8523 171.6 84.1189 172.2C83.2189 173.067 81.9689 173.833 80.3689 174.5C78.8023 175.167 77.1523 175.5 75.4189 175.5ZM112.078 148.3C112.778 148.3 113.361 148.55 113.828 149.05C114.328 149.517 114.578 150.117 114.578 150.85V172.45C114.578 173.183 114.328 173.8 113.828 174.3C113.361 174.767 112.778 175 112.078 175C111.344 175 110.744 174.767 110.278 174.3C109.811 173.8 109.578 173.183 109.578 172.45V168.85L110.578 169C110.578 169.6 110.328 170.267 109.828 171C109.361 171.733 108.711 172.45 107.878 173.15C107.044 173.817 106.061 174.383 104.928 174.85C103.794 175.283 102.578 175.5 101.278 175.5C98.9775 175.5 96.9109 174.917 95.0775 173.75C93.2442 172.55 91.7942 170.917 90.7275 168.85C89.6609 166.783 89.1275 164.433 89.1275 161.8C89.1275 159.1 89.6609 156.733 90.7275 154.7C91.7942 152.633 93.2275 151.017 95.0275 149.85C96.8609 148.683 98.8942 148.1 101.128 148.1C102.561 148.1 103.878 148.333 105.078 148.8C106.311 149.267 107.378 149.867 108.278 150.6C109.178 151.333 109.878 152.117 110.378 152.95C110.878 153.75 111.128 154.517 111.128 155.25L109.578 155.4V150.85C109.578 150.15 109.811 149.55 110.278 149.05C110.744 148.55 111.344 148.3 112.078 148.3ZM101.878 170.9C103.444 170.9 104.811 170.5 105.978 169.7C107.178 168.9 108.111 167.817 108.778 166.45C109.444 165.05 109.778 163.5 109.778 161.8C109.778 160.067 109.444 158.517 108.778 157.15C108.111 155.783 107.178 154.7 105.978 153.9C104.811 153.1 103.444 152.7 101.878 152.7C100.344 152.7 98.9775 153.1 97.7775 153.9C96.5775 154.7 95.6442 155.783 94.9775 157.15C94.3109 158.517 93.9775 160.067 93.9775 161.8C93.9775 163.5 94.3109 165.05 94.9775 166.45C95.6442 167.817 96.5609 168.9 97.7275 169.7C98.9275 170.5 100.311 170.9 101.878 170.9ZM122.538 175C121.805 175 121.205 174.767 120.738 174.3C120.271 173.8 120.038 173.183 120.038 172.45V151.25C120.038 150.517 120.271 149.917 120.738 149.45C121.205 148.95 121.805 148.7 122.538 148.7C123.238 148.7 123.821 148.95 124.288 149.45C124.788 149.917 125.038 150.517 125.038 151.25V156.85L124.538 154.7C124.805 153.767 125.205 152.9 125.738 152.1C126.305 151.3 126.971 150.6 127.738 150C128.505 149.4 129.355 148.933 130.288 148.6C131.255 148.267 132.255 148.1 133.288 148.1C134.155 148.1 134.905 148.333 135.538 148.8C136.171 149.267 136.488 149.85 136.488 150.55C136.488 151.45 136.255 152.117 135.788 152.55C135.321 152.95 134.805 153.15 134.238 153.15C133.738 153.15 133.255 153.05 132.788 152.85C132.321 152.617 131.771 152.5 131.138 152.5C130.438 152.5 129.721 152.683 128.988 153.05C128.255 153.417 127.588 153.967 126.988 154.7C126.388 155.4 125.905 156.233 125.538 157.2C125.205 158.167 125.038 159.25 125.038 160.45V172.45C125.038 173.183 124.788 173.8 124.288 174.3C123.821 174.767 123.238 175 122.538 175ZM152.987 148.1C155.353 148.1 157.187 148.6 158.487 149.6C159.787 150.567 160.687 151.883 161.187 153.55C161.72 155.183 161.987 157.017 161.987 159.05V172.45C161.987 173.183 161.737 173.8 161.237 174.3C160.77 174.767 160.187 175 159.487 175C158.753 175 158.153 174.767 157.687 174.3C157.22 173.8 156.987 173.183 156.987 172.45V159.1C156.987 157.9 156.82 156.833 156.487 155.9C156.153 154.933 155.57 154.167 154.737 153.6C153.937 153 152.803 152.7 151.337 152.7C149.97 152.7 148.77 153 147.737 153.6C146.703 154.167 145.887 154.933 145.287 155.9C144.72 156.833 144.437 157.9 144.437 159.1V172.45C144.437 173.183 144.187 173.8 143.687 174.3C143.22 174.767 142.637 175 141.937 175C141.203 175 140.603 174.767 140.137 174.3C139.67 173.8 139.437 173.183 139.437 172.45V151.25C139.437 150.517 139.67 149.917 140.137 149.45C140.603 148.95 141.203 148.7 141.937 148.7C142.637 148.7 143.22 148.95 143.687 149.45C144.187 149.917 144.437 150.517 144.437 151.25V154.05L143.537 154.55C143.77 153.817 144.17 153.083 144.737 152.35C145.337 151.583 146.053 150.883 146.887 150.25C147.72 149.583 148.653 149.067 149.687 148.7C150.72 148.3 151.82 148.1 152.987 148.1ZM210.495 148.45C211.128 148.45 211.678 148.7 212.145 149.2C212.645 149.667 212.895 150.283 212.895 151.05C212.895 151.217 212.878 151.383 212.845 151.55C212.811 151.717 212.761 151.867 212.695 152L205.045 173.4C204.845 173.967 204.495 174.4 203.995 174.7C203.495 174.967 202.978 175.067 202.445 175C201.478 174.933 200.761 174.4 200.295 173.4L194.645 158.4L195.795 158.5L190.595 173.4C190.128 174.4 189.411 174.933 188.445 175C187.945 175.067 187.428 174.967 186.895 174.7C186.395 174.4 186.045 173.967 185.845 173.4L178.145 152C178.011 151.7 177.945 151.383 177.945 151.05C177.945 150.35 178.161 149.75 178.595 149.25C179.061 148.717 179.678 148.45 180.445 148.45C180.978 148.45 181.445 148.583 181.845 148.85C182.278 149.117 182.578 149.517 182.745 150.05L189.145 168.1L187.995 168L193.195 154.35C193.628 153.317 194.395 152.8 195.495 152.8C196.095 152.8 196.561 152.933 196.895 153.2C197.228 153.467 197.495 153.85 197.695 154.35L202.995 168.05L201.645 168.2L208.095 150.05C208.428 148.983 209.228 148.45 210.495 148.45ZM221.179 172.45C221.179 173.183 220.946 173.8 220.479 174.3C220.013 174.767 219.413 175 218.679 175C217.979 175 217.379 174.767 216.879 174.3C216.413 173.8 216.179 173.183 216.179 172.45V151.05C216.179 150.317 216.413 149.717 216.879 149.25C217.379 148.75 217.979 148.5 218.679 148.5C219.413 148.5 220.013 148.75 220.479 149.25C220.946 149.717 221.179 150.317 221.179 151.05V172.45ZM218.629 145.2C217.663 145.2 216.963 145.033 216.529 144.7C216.096 144.333 215.879 143.733 215.879 142.9V142.1C215.879 141.267 216.113 140.683 216.579 140.35C217.046 140.017 217.746 139.85 218.679 139.85C219.679 139.85 220.396 140.033 220.829 140.4C221.263 140.733 221.479 141.3 221.479 142.1V142.9C221.479 143.767 221.246 144.367 220.779 144.7C220.346 145.033 219.629 145.2 218.629 145.2ZM226.055 149H237.805C238.472 149 239.022 149.233 239.455 149.7C239.922 150.133 240.155 150.683 240.155 151.35C240.155 151.983 239.922 152.517 239.455 152.95C239.022 153.383 238.472 153.6 237.805 153.6H226.055C225.389 153.6 224.822 153.383 224.355 152.95C223.922 152.483 223.705 151.933 223.705 151.3C223.705 150.633 223.922 150.083 224.355 149.65C224.822 149.217 225.389 149 226.055 149ZM231.305 142.5C232.039 142.5 232.639 142.75 233.105 143.25C233.572 143.717 233.805 144.317 233.805 145.05V168.25C233.805 168.85 233.905 169.333 234.105 169.7C234.305 170.067 234.572 170.317 234.905 170.45C235.272 170.583 235.639 170.65 236.005 170.65C236.372 170.65 236.689 170.583 236.955 170.45C237.255 170.317 237.605 170.25 238.005 170.25C238.405 170.25 238.772 170.433 239.105 170.8C239.439 171.167 239.605 171.667 239.605 172.3C239.605 173.1 239.172 173.75 238.305 174.25C237.439 174.75 236.505 175 235.505 175C234.939 175 234.272 174.95 233.505 174.85C232.739 174.75 231.989 174.5 231.255 174.1C230.555 173.7 229.972 173.067 229.505 172.2C229.039 171.3 228.805 170.05 228.805 168.45V145.05C228.805 144.317 229.039 143.717 229.505 143.25C230.005 142.75 230.605 142.5 231.305 142.5ZM257.442 148.25C259.742 148.25 261.526 148.75 262.792 149.75C264.059 150.717 264.942 152.033 265.442 153.7C265.976 155.367 266.242 157.2 266.242 159.2V172.45C266.242 173.183 265.992 173.8 265.492 174.3C265.026 174.767 264.442 175 263.742 175C263.009 175 262.409 174.767 261.942 174.3C261.476 173.8 261.242 173.183 261.242 172.45V159.2C261.242 158.033 261.076 156.967 260.742 156C260.442 155.033 259.892 154.267 259.092 153.7C258.326 153.133 257.242 152.85 255.842 152.85C254.542 152.85 253.376 153.133 252.342 153.7C251.342 154.267 250.559 155.033 249.992 156C249.459 156.967 249.192 158.033 249.192 159.2V172.45C249.192 173.183 248.942 173.8 248.442 174.3C247.976 174.767 247.392 175 246.692 175C245.959 175 245.359 174.767 244.892 174.3C244.426 173.8 244.192 173.183 244.192 172.45V140.55C244.192 139.817 244.426 139.217 244.892 138.75C245.359 138.25 245.959 138 246.692 138C247.392 138 247.976 138.25 248.442 138.75C248.942 139.217 249.192 139.817 249.192 140.55V154.2L248.292 154.7C248.526 153.967 248.909 153.217 249.442 152.45C250.009 151.683 250.692 150.983 251.492 150.35C252.326 149.717 253.242 149.217 254.242 148.85C255.242 148.45 256.309 148.25 257.442 148.25ZM295.412 175.5C293.012 175.5 290.879 175.167 289.012 174.5C287.146 173.833 285.362 172.733 283.662 171.2C283.296 170.933 283.012 170.617 282.812 170.25C282.646 169.85 282.562 169.45 282.562 169.05C282.562 168.417 282.796 167.85 283.262 167.35C283.729 166.85 284.312 166.6 285.012 166.6C285.546 166.6 286.046 166.783 286.512 167.15C287.779 168.317 289.096 169.2 290.462 169.8C291.862 170.4 293.496 170.7 295.362 170.7C296.696 170.7 297.912 170.483 299.012 170.05C300.146 169.617 301.046 169.033 301.712 168.3C302.379 167.567 302.712 166.717 302.712 165.75C302.712 164.55 302.362 163.567 301.662 162.8C300.996 162 300.012 161.35 298.712 160.85C297.446 160.317 295.912 159.867 294.112 159.5C292.446 159.2 290.946 158.783 289.612 158.25C288.312 157.717 287.196 157.05 286.262 156.25C285.329 155.417 284.612 154.433 284.112 153.3C283.612 152.167 283.362 150.85 283.362 149.35C283.362 147.317 283.896 145.567 284.962 144.1C286.029 142.633 287.479 141.5 289.312 140.7C291.146 139.9 293.212 139.5 295.512 139.5C297.612 139.5 299.579 139.833 301.412 140.5C303.246 141.133 304.729 142 305.862 143.1C306.662 143.8 307.062 144.55 307.062 145.35C307.062 145.95 306.812 146.517 306.312 147.05C305.846 147.55 305.296 147.8 304.662 147.8C304.196 147.8 303.796 147.667 303.462 147.4C302.929 146.833 302.212 146.333 301.312 145.9C300.412 145.433 299.446 145.05 298.412 144.75C297.412 144.45 296.446 144.3 295.512 144.3C294.012 144.3 292.729 144.517 291.662 144.95C290.596 145.35 289.779 145.917 289.212 146.65C288.646 147.35 288.362 148.183 288.362 149.15C288.362 150.283 288.679 151.217 289.312 151.95C289.979 152.683 290.896 153.283 292.062 153.75C293.229 154.183 294.562 154.583 296.062 154.95C297.896 155.35 299.529 155.8 300.962 156.3C302.429 156.8 303.662 157.45 304.662 158.25C305.662 159.017 306.429 159.983 306.962 161.15C307.496 162.317 307.762 163.767 307.762 165.5C307.762 167.5 307.196 169.25 306.062 170.75C304.929 172.25 303.429 173.417 301.562 174.25C299.729 175.083 297.679 175.5 295.412 175.5ZM336.86 161.85C336.86 164.517 336.26 166.883 335.06 168.95C333.894 170.983 332.31 172.583 330.31 173.75C328.31 174.917 326.06 175.5 323.56 175.5C321.094 175.5 318.844 174.917 316.81 173.75C314.81 172.583 313.21 170.983 312.01 168.95C310.844 166.883 310.26 164.517 310.26 161.85C310.26 159.15 310.844 156.783 312.01 154.75C313.21 152.683 314.81 151.067 316.81 149.9C318.844 148.7 321.094 148.1 323.56 148.1C326.06 148.1 328.31 148.7 330.31 149.9C332.31 151.067 333.894 152.683 335.06 154.75C336.26 156.783 336.86 159.15 336.86 161.85ZM331.86 161.85C331.86 160.017 331.494 158.433 330.76 157.1C330.027 155.733 329.027 154.667 327.76 153.9C326.527 153.1 325.127 152.7 323.56 152.7C322.027 152.7 320.627 153.1 319.36 153.9C318.127 154.667 317.127 155.733 316.36 157.1C315.627 158.433 315.26 160.017 315.26 161.85C315.26 163.617 315.627 165.183 316.36 166.55C317.127 167.917 318.127 168.983 319.36 169.75C320.627 170.517 322.027 170.9 323.56 170.9C325.127 170.9 326.527 170.517 327.76 169.75C329.027 168.983 330.027 167.917 330.76 166.55C331.494 165.183 331.86 163.617 331.86 161.85ZM352.23 148.1C354.03 148.1 355.614 148.3 356.98 148.7C358.38 149.067 359.48 149.6 360.28 150.3C361.08 150.967 361.48 151.75 361.48 152.65C361.48 153.217 361.297 153.75 360.93 154.25C360.597 154.717 360.114 154.95 359.48 154.95C358.98 154.95 358.564 154.867 358.23 154.7C357.93 154.533 357.647 154.333 357.38 154.1C357.114 153.867 356.78 153.633 356.38 153.4C356.014 153.2 355.464 153.033 354.73 152.9C354.03 152.767 353.397 152.7 352.83 152.7C351.064 152.7 349.53 153.1 348.23 153.9C346.964 154.7 345.964 155.783 345.23 157.15C344.53 158.517 344.18 160.067 344.18 161.8C344.18 163.533 344.53 165.083 345.23 166.45C345.964 167.817 346.947 168.9 348.18 169.7C349.447 170.5 350.914 170.9 352.58 170.9C353.58 170.9 354.397 170.833 355.03 170.7C355.697 170.533 356.247 170.333 356.68 170.1C357.214 169.8 357.647 169.5 357.98 169.2C358.314 168.867 358.797 168.7 359.43 168.7C360.164 168.7 360.714 168.933 361.08 169.4C361.48 169.833 361.68 170.383 361.68 171.05C361.68 171.783 361.23 172.5 360.33 173.2C359.464 173.867 358.297 174.417 356.83 174.85C355.364 175.283 353.747 175.5 351.98 175.5C349.38 175.5 347.114 174.9 345.18 173.7C343.28 172.5 341.797 170.867 340.73 168.8C339.697 166.733 339.18 164.4 339.18 161.8C339.18 159.167 339.73 156.833 340.83 154.8C341.93 152.733 343.464 151.1 345.43 149.9C347.397 148.7 349.664 148.1 352.23 148.1ZM367.513 175C366.779 175 366.179 174.767 365.713 174.3C365.246 173.8 365.013 173.183 365.013 172.45V151.25C365.013 150.517 365.246 149.917 365.713 149.45C366.179 148.95 366.779 148.7 367.513 148.7C368.213 148.7 368.796 148.95 369.263 149.45C369.763 149.917 370.013 150.517 370.013 151.25V156.85L369.513 154.7C369.779 153.767 370.179 152.9 370.713 152.1C371.279 151.3 371.946 150.6 372.713 150C373.479 149.4 374.329 148.933 375.263 148.6C376.229 148.267 377.229 148.1 378.263 148.1C379.129 148.1 379.879 148.333 380.513 148.8C381.146 149.267 381.463 149.85 381.463 150.55C381.463 151.45 381.229 152.117 380.763 152.55C380.296 152.95 379.779 153.15 379.213 153.15C378.713 153.15 378.229 153.05 377.763 152.85C377.296 152.617 376.746 152.5 376.113 152.5C375.413 152.5 374.696 152.683 373.963 153.05C373.229 153.417 372.563 153.967 371.963 154.7C371.363 155.4 370.879 156.233 370.513 157.2C370.179 158.167 370.013 159.25 370.013 160.45V172.45C370.013 173.183 369.763 173.8 369.263 174.3C368.796 174.767 368.213 175 367.513 175ZM405.175 148.3C405.875 148.3 406.459 148.55 406.925 149.05C407.425 149.517 407.675 150.117 407.675 150.85V172.45C407.675 173.183 407.425 173.8 406.925 174.3C406.459 174.767 405.875 175 405.175 175C404.442 175 403.842 174.767 403.375 174.3C402.909 173.8 402.675 173.183 402.675 172.45V168.85L403.675 169C403.675 169.6 403.425 170.267 402.925 171C402.459 171.733 401.809 172.45 400.975 173.15C400.142 173.817 399.159 174.383 398.025 174.85C396.892 175.283 395.675 175.5 394.375 175.5C392.075 175.5 390.009 174.917 388.175 173.75C386.342 172.55 384.892 170.917 383.825 168.85C382.759 166.783 382.225 164.433 382.225 161.8C382.225 159.1 382.759 156.733 383.825 154.7C384.892 152.633 386.325 151.017 388.125 149.85C389.959 148.683 391.992 148.1 394.225 148.1C395.659 148.1 396.975 148.333 398.175 148.8C399.409 149.267 400.475 149.867 401.375 150.6C402.275 151.333 402.975 152.117 403.475 152.95C403.975 153.75 404.225 154.517 404.225 155.25L402.675 155.4V150.85C402.675 150.15 402.909 149.55 403.375 149.05C403.842 148.55 404.442 148.3 405.175 148.3ZM394.975 170.9C396.542 170.9 397.909 170.5 399.075 169.7C400.275 168.9 401.209 167.817 401.875 166.45C402.542 165.05 402.875 163.5 402.875 161.8C402.875 160.067 402.542 158.517 401.875 157.15C401.209 155.783 400.275 154.7 399.075 153.9C397.909 153.1 396.542 152.7 394.975 152.7C393.442 152.7 392.075 153.1 390.875 153.9C389.675 154.7 388.742 155.783 388.075 157.15C387.409 158.517 387.075 160.067 387.075 161.8C387.075 163.5 387.409 165.05 388.075 166.45C388.742 167.817 389.659 168.9 390.825 169.7C392.025 170.5 393.409 170.9 394.975 170.9ZM412.786 149H424.536C425.202 149 425.752 149.233 426.186 149.7C426.652 150.133 426.886 150.683 426.886 151.35C426.886 151.983 426.652 152.517 426.186 152.95C425.752 153.383 425.202 153.6 424.536 153.6H412.786C412.119 153.6 411.552 153.383 411.086 152.95C410.652 152.483 410.436 151.933 410.436 151.3C410.436 150.633 410.652 150.083 411.086 149.65C411.552 149.217 412.119 149 412.786 149ZM418.036 142.5C418.769 142.5 419.369 142.75 419.836 143.25C420.302 143.717 420.536 144.317 420.536 145.05V168.25C420.536 168.85 420.636 169.333 420.836 169.7C421.036 170.067 421.302 170.317 421.636 170.45C422.002 170.583 422.369 170.65 422.736 170.65C423.102 170.65 423.419 170.583 423.686 170.45C423.986 170.317 424.336 170.25 424.736 170.25C425.136 170.25 425.502 170.433 425.836 170.8C426.169 171.167 426.336 171.667 426.336 172.3C426.336 173.1 425.902 173.75 425.036 174.25C424.169 174.75 423.236 175 422.236 175C421.669 175 421.002 174.95 420.236 174.85C419.469 174.75 418.719 174.5 417.986 174.1C417.286 173.7 416.702 173.067 416.236 172.2C415.769 171.3 415.536 170.05 415.536 168.45V145.05C415.536 144.317 415.769 143.717 416.236 143.25C416.736 142.75 417.336 142.5 418.036 142.5ZM442.679 175.5C439.945 175.5 437.545 174.933 435.479 173.8C433.445 172.633 431.862 171.05 430.729 169.05C429.629 167.017 429.079 164.7 429.079 162.1C429.079 159.167 429.662 156.667 430.829 154.6C432.029 152.5 433.579 150.9 435.479 149.8C437.412 148.667 439.445 148.1 441.579 148.1C443.179 148.1 444.712 148.433 446.179 149.1C447.679 149.733 448.995 150.633 450.129 151.8C451.262 152.933 452.162 154.283 452.829 155.85C453.495 157.383 453.845 159.067 453.879 160.9C453.845 161.567 453.579 162.117 453.079 162.55C452.579 162.983 451.995 163.2 451.329 163.2H431.929L430.729 158.95H449.529L448.579 159.85V158.6C448.479 157.433 448.079 156.417 447.379 155.55C446.679 154.65 445.812 153.967 444.779 153.5C443.779 153 442.712 152.75 441.579 152.75C440.579 152.75 439.612 152.917 438.679 153.25C437.745 153.55 436.929 154.05 436.229 154.75C435.529 155.45 434.962 156.383 434.529 157.55C434.095 158.683 433.879 160.1 433.879 161.8C433.879 163.633 434.262 165.233 435.029 166.6C435.795 167.967 436.829 169.033 438.129 169.8C439.429 170.533 440.879 170.9 442.479 170.9C443.679 170.9 444.679 170.783 445.479 170.55C446.279 170.283 446.945 169.967 447.479 169.6C448.012 169.233 448.479 168.883 448.879 168.55C449.412 168.25 449.912 168.1 450.379 168.1C450.979 168.1 451.479 168.317 451.879 168.75C452.279 169.15 452.479 169.633 452.479 170.2C452.479 170.933 452.112 171.6 451.379 172.2C450.479 173.067 449.229 173.833 447.629 174.5C446.062 175.167 444.412 175.5 442.679 175.5ZM456.242 170.9C455.942 170.433 455.809 169.9 455.842 169.3C455.875 168.667 456.225 168.133 456.892 167.7C457.359 167.4 457.842 167.283 458.342 167.35C458.875 167.383 459.375 167.633 459.842 168.1C460.775 169.133 461.809 169.95 462.942 170.55C464.109 171.15 465.509 171.45 467.142 171.45C467.809 171.417 468.492 171.317 469.192 171.15C469.892 170.95 470.492 170.617 470.992 170.15C471.492 169.65 471.742 168.933 471.742 168C471.742 167.167 471.475 166.5 470.942 166C470.409 165.5 469.709 165.1 468.842 164.8C467.975 164.467 467.042 164.167 466.042 163.9C464.975 163.6 463.892 163.267 462.792 162.9C461.725 162.533 460.759 162.067 459.892 161.5C459.025 160.9 458.309 160.133 457.742 159.2C457.209 158.267 456.942 157.117 456.942 155.75C456.942 154.183 457.375 152.833 458.242 151.7C459.142 150.567 460.292 149.683 461.692 149.05C463.125 148.417 464.675 148.1 466.342 148.1C467.309 148.1 468.325 148.233 469.392 148.5C470.459 148.733 471.492 149.117 472.492 149.65C473.492 150.183 474.359 150.883 475.092 151.75C475.425 152.183 475.609 152.7 475.642 153.3C475.709 153.9 475.442 154.433 474.842 154.9C474.442 155.233 473.959 155.383 473.392 155.35C472.825 155.317 472.359 155.133 471.992 154.8C471.359 154 470.542 153.383 469.542 152.95C468.542 152.483 467.409 152.25 466.142 152.25C465.509 152.25 464.842 152.35 464.142 152.55C463.475 152.717 462.909 153.033 462.442 153.5C461.975 153.967 461.742 154.65 461.742 155.55C461.742 156.383 462.009 157.05 462.542 157.55C463.109 158.05 463.842 158.467 464.742 158.8C465.642 159.133 466.625 159.433 467.692 159.7C468.725 159.967 469.742 160.283 470.742 160.65C471.775 161.017 472.692 161.5 473.492 162.1C474.325 162.667 474.992 163.417 475.492 164.35C476.025 165.25 476.292 166.4 476.292 167.8C476.292 169.433 475.809 170.833 474.842 172C473.909 173.133 472.709 174 471.242 174.6C469.809 175.2 468.292 175.5 466.692 175.5C464.792 175.5 462.892 175.167 460.992 174.5C459.125 173.8 457.542 172.6 456.242 170.9Z" fill="white"/>
<path d="M631.251 693.09L628.681 720.4L639.921 728.06H604.911L593.991 686.67" fill="#FFE0C2"/>
<path d="M497.271 693.09L499.841 720.4L488.601 728.06H523.611L534.541 686.67" fill="#FFE0C2"/>
<path d="M479.821 654.22C479.821 654.22 485.091 706.58 519.821 704.01C554.551 701.44 565.891 713.65 596.921 713.65C627.951 713.65 666.231 708.83 651.331 654.22C636.431 599.61 551.581 617 551.581 617" fill="#75B1C9"/>
<path d="M494.901 543.75L479.591 603.83C479.591 603.83 476.341 621.49 479.591 656.83C479.591 656.83 556.101 633.7 651.061 656.83C651.061 656.83 659.491 561.11 625.961 519.98C592.431 478.85 494.901 543.75 494.901 543.75Z" fill="#75B1C9"/>
<path d="M495.201 543.59C492.201 544.59 481.201 598.59 481.201 598.59C635.301 583.23 613.281 538 613.281 538C613.281 538 498.201 542.59 495.201 543.59Z" fill="#FFD3AE"/>
<path d="M669.161 581C669.161 581 675.311 620 636.641 629.29C636.641 629.29 624.781 653.68 616.491 652.62C608.201 651.56 602.631 633.11 602.631 633.11C602.631 633.11 598.741 639.49 591.371 631.34C584.001 623.19 635.521 588.99 638.871 560.92C642.221 532.85 664.831 550.89 669.161 581Z" fill="#FFE0C2"/>
<path d="M483.86 475.433C492.371 471.908 496.413 462.15 492.887 453.64C489.362 445.129 479.605 441.087 471.094 444.612C462.583 448.138 458.541 457.895 462.067 466.406C465.592 474.917 475.349 478.958 483.86 475.433Z" fill="#FFE0C2"/>
<path d="M493.783 463.087C495.482 455.89 491.024 448.678 483.827 446.979C476.63 445.28 469.418 449.738 467.719 456.935C466.021 464.133 470.478 471.344 477.675 473.043C484.873 474.742 492.085 470.284 493.783 463.087Z" fill="#FFD3AE"/>
<path d="M656.935 475.428C665.446 471.903 669.488 462.146 665.962 453.635C662.437 445.124 652.68 441.082 644.169 444.608C635.658 448.133 631.616 457.89 635.142 466.401C638.667 474.912 648.424 478.953 656.935 475.428Z" fill="#FFE0C2"/>
<path d="M656.729 469.489C661.958 464.26 661.958 455.782 656.729 450.553C651.5 445.324 643.022 445.324 637.793 450.553C632.564 455.782 632.564 464.26 637.793 469.489C643.022 474.718 651.5 474.718 656.729 469.489Z" fill="#FFD3AE"/>
<path d="M477.471 472.19C477.471 472.19 463.661 395.19 556.361 395.19C649.061 395.19 653.011 472.19 653.011 472.19C653.011 472.19 659.191 524.86 564.881 524.86C470.571 524.86 477.471 472.19 477.471 472.19Z" fill="#FFE0C2"/>
<path d="M516.631 449.66C520.232 449.659 523.783 450.497 527.001 452.11C527.489 450.042 527.73 447.924 527.721 445.8C527.721 437.95 524.631 431.58 520.821 431.58C517.011 431.58 513.921 438 513.921 445.8C513.92 447.138 514.014 448.475 514.201 449.8C515.001 449.71 515.811 449.66 516.631 449.66Z" fill="#634E42"/>
<path d="M608.591 449.66C604.991 449.659 601.44 450.497 598.221 452.11C597.734 450.042 597.492 447.924 597.501 445.8C597.501 437.95 600.591 431.58 604.401 431.58C608.211 431.58 611.301 437.95 611.301 445.8C611.302 447.138 611.209 448.475 611.021 449.8C610.221 449.71 609.411 449.66 608.591 449.66Z" fill="#634E42"/>
<path d="M476.741 440.29C476.741 440.29 476.481 448.92 482.401 448.18C488.321 447.44 489.551 438.81 489.551 438.81C489.551 438.81 496.201 437.09 496.201 430.43C496.201 430.43 508.291 412.68 487.821 411.94C487.821 411.94 470.071 405.28 473.031 425.99C473.001 426 460.481 436.59 476.741 440.29Z" fill="#EFEFEF"/>
<path d="M648.001 440.29C648.001 440.29 648.251 448.92 642.341 448.18C636.431 447.44 635.191 438.81 635.191 438.81C635.191 438.81 628.531 437.09 628.531 430.43C628.531 430.43 616.451 412.68 636.911 411.94C636.911 411.94 654.661 405.28 651.711 425.99C651.691 426 664.241 436.59 648.001 440.29Z" fill="#EFEFEF"/>
<path d="M565.531 464.53V586.78L563.531 587.15L561.591 586.78C552.191 584.83 528.961 578.62 527.681 564.48C527.681 564.48 492.221 560.86 490.911 543.11C490.911 543.11 456.061 524.69 471.511 498.11C471.511 498.11 470.191 447.16 480.711 438.28L482.031 443.38C482.031 443.38 500.151 456 497.521 470.45C497.521 470.45 517.241 466.84 524.521 480.65C524.521 480.65 542.271 461.42 554.431 461.99C557.524 462.033 560.602 462.416 563.611 463.13C565.891 463.82 565.531 464.53 565.531 464.53Z" fill="#EFEFEF"/>
<path d="M636.211 543.11C634.901 560.86 599.431 564.48 599.431 564.48C598.151 578.62 574.921 584.83 565.531 586.78L563.531 587.15L561.591 586.78V464.53C561.591 464.53 561.221 463.82 563.531 463.13C566.557 462.415 569.652 462.036 572.761 462C584.921 461.43 602.681 480.66 602.681 480.66C609.911 466.85 629.631 470.46 629.631 470.46C627.001 456 645.081 443.34 645.081 443.34L646.411 438.24C656.921 447.12 655.611 498.07 655.611 498.07C671.051 524.69 636.211 543.11 636.211 543.11Z" fill="#EFEFEF"/>
<path d="M581.642 454.72C580.944 454.718 580.248 454.778 579.562 454.9C576.792 451.72 571.562 449.58 565.562 449.58C559.562 449.58 554.292 451.72 551.562 454.9C550.875 454.778 550.179 454.718 549.482 454.72C544.962 454.72 541.302 457.09 541.302 460.02C541.302 462.95 544.962 465.32 549.482 465.32C550.179 465.317 550.874 465.257 551.562 465.14C554.322 468.31 559.562 470.45 565.562 470.45C571.562 470.45 576.822 468.31 579.562 465.14C580.249 465.257 580.944 465.317 581.642 465.32C586.152 465.32 589.812 462.94 589.812 460.02C589.812 457.1 586.152 454.72 581.642 454.72Z" fill="#FFD3AE"/>
<path d="M590.091 413C590.091 413 585.491 398.4 600.911 394.32C616.331 390.24 620.071 407.32 620.071 407.32C620.071 407.32 609.481 399.96 602.841 401.72C596.201 403.48 594.301 405.07 590.091 413Z" fill="#EFEFEF"/>
<path d="M504.122 406C504.122 406 505.872 390.74 521.622 393.29C537.372 395.84 533.822 413 533.822 413C533.822 413 527.152 402 520.372 400.87C513.592 399.74 511.182 400.45 504.122 406Z" fill="#EFEFEF"/>
<path d="M478.479 579.557C478.479 579.557 440.754 567.891 449.461 529.078C449.461 529.078 432.794 507.68 437.398 500.713C442.002 493.746 461.029 496.882 461.029 496.882C461.029 496.882 456.97 490.586 467.536 487.52C478.103 484.455 470.168 532.392 501.068 545.149C521.974 553.838 503.68 585.796 478.479 579.557Z" fill="#FFE0C2"/>
<path d="M467.929 406.415L467.39 407.133C466.639 408.135 465.077 407.866 464.694 406.675C463.654 403.442 461.273 398.156 456.016 393.394C455.437 392.869 454.545 392.869 453.966 393.394C448.709 398.156 446.327 403.442 445.288 406.675C444.905 407.866 443.343 408.135 442.592 407.133L442.053 406.415C441.436 405.592 440.206 405.599 439.588 406.421C421.505 430.455 435.924 446.934 435.924 446.934H454.991H474.057C474.057 446.934 488.476 430.455 470.394 406.421C469.776 405.599 468.546 405.592 467.929 406.415Z" fill="#FF4F19"/>
<path d="M474.057 446.934H469.171C469.171 446.934 483.074 431.048 466.458 407.719C466.81 407.653 467.145 407.463 467.391 407.133L467.93 406.414C468.545 405.593 469.776 405.598 470.394 406.42C488.477 430.456 474.057 446.934 474.057 446.934Z" fill="#E23D17"/>
<path d="M480.981 448.248C480.973 447.521 480.385 446.934 479.659 446.934H462.755H454.992H454.99H448.973H430.323C429.597 446.934 429.009 447.522 429.001 448.248C428.867 461.016 440.572 465.686 440.572 465.686H448.973H454.991H462.755H469.41C469.41 465.686 481.115 461.016 480.981 448.248Z" fill="#B7C1CA"/>
<path d="M480.982 448.247C481.116 461.016 469.408 465.686 469.408 465.686H464.409C464.409 465.686 476.114 461.016 475.979 448.247C475.971 447.52 475.382 446.934 474.656 446.934H479.658C480.385 446.934 480.974 447.52 480.982 448.247Z" fill="#A3AEB7"/>
<path d="M454.991 465.686H454.99H440.729L446.814 515.447C447.416 520.368 450.78 523.999 454.737 523.999H455.245C459.201 523.999 462.566 520.368 463.167 515.448L469.253 465.686H454.991V465.686Z" fill="#B7C1CA"/>
<path d="M469.253 465.686L463.168 515.446C462.566 520.367 459.201 523.998 455.245 523.998H454.738C453.993 523.998 453.272 523.869 452.583 523.628C455.551 522.588 457.862 519.442 458.351 515.446L464.436 465.686H469.253Z" fill="#A3AEB7"/>
<path d="M453.828 422.647C438.844 433.527 448.769 446.934 448.769 446.934H454.991H461.213C461.213 446.934 471.138 433.527 456.153 422.647C455.47 422.151 454.512 422.151 453.828 422.647Z" fill="#FF961D"/>
<path d="M461.214 446.934H457.067C457.067 446.934 466.581 434.085 452.918 423.334C453.211 423.104 453.515 422.874 453.829 422.647C454.51 422.15 455.472 422.15 456.153 422.647C471.139 433.528 461.214 446.934 461.214 446.934Z" fill="#EF8318"/>
<path d="M469.886 487.471H440.096C437.124 487.471 434.716 485.062 434.716 482.091C434.716 479.119 437.125 476.71 440.096 476.71H469.886C472.857 476.71 475.266 479.119 475.266 482.091C475.266 485.062 472.857 487.471 469.886 487.471Z" fill="#FF961D"/>
<path d="M475.266 482.09C475.266 483.577 474.664 484.921 473.69 485.893C472.718 486.867 471.371 487.469 469.887 487.469H465.925C467.409 487.469 468.756 486.867 469.728 485.893C470.703 484.921 471.305 483.576 471.305 482.09C471.305 479.118 468.896 476.71 465.925 476.71H469.887C472.858 476.71 475.266 479.118 475.266 482.09Z" fill="#EF8318"/>
</svg>
