<svg width="868" height="507" viewBox="0 0 868 507" fill="none" xmlns="http://www.w3.org/2000/svg">
<path d="M539.732 77.9862L551.451 66.6399C547.786 46.1286 528.545 36.2533 515.878 34.9106C481.758 31.2858 464.367 54.7529 457.047 92.3845C443.688 161.072 460.51 449.491 460.51 449.491C461.765 441.829 554.424 152.191 552.051 72.6155L539.732 77.9862Z" fill="#48D77F"/>
<path d="M104.039 327.889L102.775 337.223L99.751 326.427C91.2667 323.755 83.891 322.839 78.0499 324.168C25.8381 336.036 116.06 407.858 116.06 407.858C116.06 407.858 87.3039 389.803 59.4503 378.365L59.0976 387.828L55.5471 377.155C33.9056 368.682 13.8262 364.782 9.81311 376.999C6.03821 388.52 13.6384 399.422 26.7177 409.132L41.7532 409.659L32.8886 413.357C63.0969 432.714 113.059 446.553 130.308 449.701C113.815 447.112 73.4733 441.86 49.5733 447.02L53.3207 453.266L43.8834 448.542C35.5182 451.245 30.3185 455.713 30.882 462.747C31.9494 476.202 90.3184 481.045 90.3184 481.045L303.536 479.07L304.723 479.661C304.723 479.661 172.775 353.079 104.039 327.889Z" fill="#21B95C"/>
<path d="M844.469 447.987C839.727 425.964 791.588 419.493 730.223 431.564C752.076 424.094 782.092 407.098 797.635 399.326L787.007 392.557L808.36 393.552C825.828 383.324 834.56 373.274 828.856 364.187C824.596 357.4 815.246 354.564 802.574 354.61L795.908 366.556L797.283 354.775C765.32 356.608 758.068 351.402 714.945 368.838C741.892 354.843 745.786 350.508 747.554 344.885L732.963 338.502H750.064C763.886 323.623 785.798 294.198 776.722 280.634C769.214 269.444 736.261 284.978 715.224 293.048L706.282 313.179L708.114 295.981C641.229 325.121 663.906 301.741 663.906 301.741C663.906 301.741 733.719 157.282 692.593 160.531C676.358 161.809 658.894 171.598 641.742 187.284L641.284 201.641L636.181 192.531C623.692 204.775 611.328 219.609 599.531 235.528C615.538 201.897 627.678 168.867 628.883 144.272L616.665 142.792L628.722 134.401C627.586 121.978 622.666 112.58 612.688 107.612C597.401 99.9914 581.353 111.521 565.552 134.434L569.456 155.11L559.652 143.525C503.079 235.753 451.352 462.807 451.352 462.807L447.28 475.125L613.481 483.332C613.481 483.332 854.053 492.465 844.469 447.987Z" fill="#26B824"/>
<path d="M865.084 484.423H2.74871C2.01971 484.423 1.32056 484.133 0.80508 483.617C0.289596 483.102 0 482.402 0 481.673C0 480.944 0.289596 480.245 0.80508 479.729C1.32056 479.213 2.01971 478.924 2.74871 478.924H865.084C865.813 478.924 866.513 479.213 867.028 479.729C867.544 480.245 867.833 480.944 867.833 481.673C867.833 482.402 867.544 483.102 867.028 483.617C866.513 484.133 865.813 484.423 865.084 484.423Z" fill="#1771B9"/>
<path d="M600.058 386.596H210.254C195.365 386.596 183.298 375.643 183.298 362.13V347.585C183.298 334.071 195.365 323.119 210.254 323.119H600.058C582.228 340.807 581.916 367.839 599.339 385.858L600.058 386.596Z" fill="#F4C222"/>
<path d="M594.597 330.414H398.44C391.957 330.415 385.74 332.99 381.154 337.573C376.568 342.156 373.988 348.372 373.981 354.857C373.981 361.346 376.558 367.569 381.145 372.157C385.732 376.745 391.953 379.323 398.44 379.323H594.611C590.127 371.955 587.754 363.496 587.751 354.87C587.749 346.244 590.117 337.784 594.597 330.414Z" fill="#FAE0B2"/>
<path d="M582.503 253.725C583.36 252.259 582.045 250.559 580.089 250.559H269.653C245.323 250.559 225.596 266.84 225.596 286.926C225.596 307.011 245.323 323.292 269.653 323.292H580.171C582.155 323.292 583.456 321.583 582.595 320.112C570.299 299.092 570.331 274.654 582.503 253.725Z" fill="#A685E2"/>
<path d="M580.029 258.386H371.745C364.357 258.387 357.272 261.324 352.048 266.549C346.824 271.775 343.888 278.862 343.887 286.252V288.342C343.887 292.001 344.608 295.625 346.008 299.006C347.408 302.387 349.46 305.459 352.047 308.046C354.634 310.634 357.705 312.687 361.085 314.087C364.464 315.487 368.087 316.208 371.745 316.208H580.474C571.142 297.677 571.036 276.909 580.029 258.386Z" fill="#FAE0B2"/>
<path d="M204.701 247.328H405.041C422.807 247.328 437.21 231.793 437.21 212.629C437.21 193.465 422.807 177.93 405.041 177.93H204.701C220.016 197.177 220.612 225.387 206.131 245.358L204.701 247.328Z" fill="#FAE0B2"/>
<path d="M434.572 212.643C434.572 193.479 420.003 177.944 402.045 177.944H201.059C200.828 177.937 200.6 177.883 200.389 177.786C200.178 177.69 199.989 177.552 199.832 177.381C199.675 177.211 199.554 177.011 199.475 176.793C199.396 176.575 199.362 176.343 199.373 176.111C199.363 175.653 199.535 175.208 199.851 174.876C200.166 174.543 200.601 174.348 201.059 174.333H519.878C539.71 174.333 555.785 191.477 555.785 212.625C555.785 233.773 539.71 250.921 519.878 250.921H201.059C200.6 250.905 200.166 250.71 199.85 250.376C199.535 250.042 199.363 249.598 199.373 249.138C199.362 248.907 199.396 248.675 199.475 248.457C199.554 248.239 199.675 248.039 199.832 247.868C199.989 247.698 200.178 247.56 200.389 247.463C200.6 247.367 200.828 247.313 201.059 247.305H402.031C420.003 247.328 434.572 231.794 434.572 212.643Z" fill="#466EB6"/>
<path d="M448.769 287.526H427.333C422.72 287.526 418.982 288.956 418.982 290.734V291.004H448.76L448.769 287.526Z" fill="#974214"/>
<path d="M467.057 295.536C467.057 291.114 461.459 287.526 454.55 287.526H427.063C432.299 287.526 436.546 290.248 436.546 293.602L436.418 379.479L451.595 368.448L467.089 379.492L467.057 295.536Z" fill="#CC5B1D"/>
<path d="M760.331 386.467H181.113C176.836 386.467 172.601 387.31 168.65 388.947C164.699 390.584 161.108 392.984 158.084 396.009C155.06 399.034 152.661 402.625 151.024 406.578C149.388 410.53 148.545 414.766 148.545 419.045V446.443C148.545 455.083 151.977 463.37 158.084 469.479C164.192 475.588 172.476 479.021 181.113 479.021H760.331L760.029 478.704C748.108 466.294 741.475 449.735 741.531 432.525C741.588 415.314 748.329 398.799 760.331 386.467Z" fill="#CC5B1D"/>
<path d="M750.096 400.169H440.444C436.168 400.169 431.933 401.011 427.982 402.649C424.031 404.286 420.441 406.686 417.417 409.711C414.393 412.736 411.995 416.327 410.359 420.28C408.723 424.232 407.881 428.468 407.881 432.746C407.881 437.024 408.724 441.26 410.361 445.212C411.997 449.164 414.396 452.755 417.42 455.78C420.445 458.804 424.035 461.204 427.986 462.84C431.938 464.477 436.172 465.319 440.449 465.318H750.073C744.484 455.371 741.551 444.151 741.555 432.741C741.559 421.33 744.5 410.112 750.096 400.169Z" fill="#FAE0B2"/>
<path d="M598.047 432.911H572.937C570.343 432.911 567.855 433.941 566.021 435.776C564.187 437.611 563.156 440.099 563.156 442.694V443.57H598.047V432.911Z" fill="#8D175D"/>
<path d="M573.964 432.948C579.965 432.948 588.931 438.025 593.984 444.299L653.539 506.339H688.526L631.902 447.896C625.237 439.647 613.422 432.925 605.505 432.929L573.964 432.948Z" fill="#CE2489"/>
<path d="M153.937 194.392C139.094 196.637 134.44 216.021 146.639 224.879C148.822 226.489 150.352 228.832 150.95 231.478L153.071 240.551C153.354 241.757 154.081 242.813 155.106 243.507C156.132 244.202 157.381 244.485 158.605 244.3L164.227 243.448C165.45 243.262 166.559 242.622 167.334 241.656C168.108 240.69 168.49 239.468 168.405 238.233C167.745 228.884 166.829 225.484 169.916 221.36C178.951 209.294 168.78 192.146 153.937 194.392Z" fill="#F7CC7F"/>
<path d="M157.176 237.21C156.817 237.259 156.454 237.164 156.165 236.946C155.876 236.728 155.684 236.404 155.632 236.046L152.883 216.263L148.247 212.29C148.015 212.043 147.883 211.72 147.875 211.381C147.868 211.042 147.985 210.713 148.206 210.455C148.426 210.198 148.733 210.031 149.069 209.987C149.405 209.942 149.745 210.023 150.025 210.215L155.444 214.861L158.353 235.67C158.4 236.031 158.303 236.395 158.082 236.683C157.862 236.972 157.536 237.161 157.176 237.21Z" fill="#FAE0B2"/>
<path d="M164.062 237.013C164.419 236.952 164.737 236.753 164.948 236.459C165.159 236.164 165.246 235.799 165.189 235.441L161.982 215.736L165.234 210.576C165.353 210.425 165.439 210.25 165.486 210.063C165.533 209.877 165.54 209.682 165.508 209.493C165.475 209.303 165.402 209.122 165.295 208.962C165.188 208.802 165.049 208.667 164.886 208.564C164.723 208.461 164.54 208.394 164.35 208.367C164.159 208.339 163.965 208.352 163.78 208.404C163.595 208.457 163.422 208.547 163.274 208.67C163.126 208.794 163.006 208.946 162.921 209.119L159.123 215.14L162.495 235.881C162.554 236.238 162.752 236.557 163.046 236.769C163.339 236.981 163.704 237.068 164.062 237.013Z" fill="#FAE0B2"/>
<path d="M150.877 231.253C150.877 231.326 150.923 231.399 150.941 231.477L153.062 240.551C153.345 241.757 154.072 242.812 155.097 243.506C156.123 244.201 157.372 244.484 158.596 244.299L164.217 243.447C165.441 243.261 166.55 242.622 167.324 241.655C168.098 240.689 168.481 239.467 168.395 238.232C168.102 234.071 167.759 231.092 167.74 228.7L150.877 231.253Z" fill="#48D77F"/>
<path d="M151.142 49.9274L145.26 41.4222H134.92C134.654 41.424 134.392 41.3507 134.165 41.2108C133.939 41.0709 133.756 40.8699 133.638 40.6309C133.52 40.3919 133.471 40.1245 133.498 39.8592C133.525 39.594 133.625 39.3416 133.789 39.131L140.06 30.8825L136.854 21.053C136.77 20.7997 136.759 20.5279 136.822 20.2687C136.885 20.0095 137.02 19.7733 137.211 19.5873C137.403 19.4013 137.642 19.2729 137.903 19.2168C138.164 19.1608 138.435 19.1793 138.686 19.2704L148.439 22.6935L156.791 16.5988C157.005 16.4422 157.258 16.3487 157.522 16.3286C157.787 16.3086 158.051 16.3629 158.286 16.4855C158.521 16.608 158.717 16.7938 158.852 17.022C158.987 17.2501 159.055 17.5115 159.049 17.7765L158.811 28.1192L167.19 34.1773C167.404 34.3334 167.571 34.5462 167.671 34.7917C167.771 35.0372 167.8 35.3058 167.756 35.5671C167.712 35.8285 167.595 36.0724 167.42 36.2713C167.245 36.4702 167.018 36.6163 166.764 36.6931L156.832 39.713L153.657 49.5562C153.575 49.8073 153.425 50.0306 153.223 50.2009C153.021 50.3713 152.776 50.4819 152.515 50.5205C152.253 50.559 151.987 50.524 151.744 50.4192C151.502 50.3144 151.293 50.1441 151.142 49.9274Z" fill="#CC5B1D"/>
<path d="M695.695 65.3427L691.375 59.0968H683.779C683.584 59.0972 683.393 59.0431 683.228 58.9407C683.062 58.8383 682.928 58.6916 682.842 58.5172C682.755 58.3427 682.719 58.1475 682.737 57.9535C682.755 57.7596 682.828 57.5746 682.945 57.4196L687.554 51.3798L685.19 44.1578C685.13 43.9726 685.122 43.7742 685.169 43.585C685.215 43.3958 685.313 43.2233 685.452 43.087C685.591 42.9507 685.766 42.856 685.956 42.8136C686.146 42.7712 686.344 42.7829 686.528 42.8472L693.693 45.363L699.827 40.8858C699.984 40.7702 700.171 40.7009 700.366 40.6859C700.56 40.6709 700.755 40.7107 700.928 40.8009C701.101 40.8911 701.246 41.028 701.345 41.1961C701.444 41.3642 701.495 41.5567 701.49 41.7519L701.311 49.3498L707.464 53.7994C707.618 53.9145 707.737 54.0699 707.808 54.2484C707.88 54.4269 707.9 54.6216 707.868 54.8111C707.836 55.0006 707.752 55.1775 707.626 55.3224C707.5 55.4673 707.336 55.5746 707.153 55.6324L699.878 57.8137L697.546 65.0861C697.484 65.2699 697.372 65.4328 697.222 65.5565C697.073 65.6802 696.892 65.7599 696.7 65.7865C696.507 65.8132 696.312 65.7858 696.134 65.7074C695.957 65.629 695.805 65.5027 695.695 65.3427Z" fill="#CE2489"/>
<path d="M491.158 11.053L481.611 9.44456L476.013 17.5877L465.435 15.0306L462.15 25.5383L450.06 23.1692L445.841 32.4763L433.838 32.1005L433.976 27.5547L442.955 27.8342L447.403 18.0184L459.026 20.2914L462.37 9.60953L474.043 12.4324L479.504 4.4817L488.359 5.97102L490.851 0L495.048 1.7551L491.158 11.053Z" fill="#F48C7F"/>
<path d="M317.382 53.8518L310.386 55.9964L305.69 45.1267L295.08 47.001L290.233 39.4398L286.408 41.8915L292.886 52.0097L302.942 50.2271L307.83 61.5413L318.353 58.3106L317.382 53.8518Z" fill="#26B824"/>
<path d="M97.5886 118.298L87.1206 124.659L97.978 173.449C98.1961 174.426 98.644 175.338 99.2846 176.108C99.9252 176.878 100.74 177.485 101.662 177.877C102.583 178.27 103.585 178.437 104.584 178.365C105.583 178.293 106.55 177.983 107.406 177.463C108.539 176.774 109.426 175.744 109.94 174.522C110.454 173.299 110.569 171.945 110.269 170.653L107.617 159.197L118.612 152.511L127.692 160.113C128.702 160.961 129.953 161.47 131.268 161.569C132.583 161.667 133.896 161.351 135.022 160.663L135.219 160.544C136.073 160.021 136.791 159.302 137.312 158.447C137.834 157.591 138.144 156.624 138.217 155.624C138.29 154.625 138.124 153.622 137.732 152.7C137.341 151.778 136.735 150.962 135.965 150.321L97.5886 118.298ZM104.667 147.695L102.665 138.731L109.71 144.625L104.667 147.695Z" fill="#CE2489"/>
<path d="M729.074 164.463C729.61 163.088 729.426 158.13 736.298 153.373C739.125 151.439 741.443 149.794 742.07 147.535C743.152 143.635 739.051 141.766 734.965 141.784C733.949 141.785 732.972 141.388 732.243 140.68C731.514 139.971 731.09 139.006 731.062 137.99C731.028 136.959 731.401 135.956 732.101 135.198C732.8 134.44 733.77 133.988 734.8 133.939C737.497 133.82 740.195 134.129 742.794 134.855C751.563 137.289 754.201 143.246 752.671 148.759C751.27 153.799 747.229 156.265 743.93 158.354C738.378 161.883 738.383 165.815 737.906 166.915L729.074 164.463ZM724.804 173.17C725.78 169.646 728.927 167.804 732.39 168.761C735.977 169.76 737.599 172.931 736.692 176.469C735.73 179.924 732.619 181.849 729.037 180.855C725.454 179.86 723.842 176.602 724.804 173.151V173.17Z" fill="#EC5858"/>
<path d="M219.993 44.3597C222.678 44.5797 227.923 45.6658 232.747 47.0451C238.648 48.7315 242.102 50.3399 244.686 53.0665C246.016 54.2889 246.978 55.8586 247.463 57.5986C247.949 59.3386 247.939 61.1797 247.435 62.9143C246.344 66.727 243.11 69.6461 237.778 70.0447L237.741 70.1685C242.249 72.918 244.81 77.615 243.238 83.137C242.742 84.8887 241.849 86.5025 240.629 87.8535C239.409 89.2044 237.894 90.2562 236.202 90.9272C232.386 92.5128 226.783 92.4212 218.28 90.0107C214.769 89.0437 211.331 87.8309 207.991 86.3814L219.993 44.3597ZM224.895 63.478L228.07 64.3945C233.146 65.8426 236.472 64.532 237.379 61.3563C238.286 58.1806 236.321 55.6969 231.941 54.4459C230.569 54.031 229.165 53.7245 227.745 53.5293L224.895 63.478ZM219.471 82.4542C220.682 82.9317 221.921 83.3327 223.182 83.6548C227.562 84.9058 231.886 84.3605 233.187 79.8559C234.424 75.5392 231.043 72.7163 226.219 71.337L222.921 70.4205L219.471 82.4542Z" fill="#22BAAF"/>
<path d="M634.151 62.8637C634.416 64.008 634.22 65.2108 633.605 66.2117C632.991 67.2125 632.006 67.931 630.866 68.2115C628.15 68.8389 625.379 69.1951 622.592 69.2746C605.738 69.8428 596.704 59.6513 596.232 45.748C595.673 29.1043 607.227 19.4398 621.983 18.9403C624.523 18.8428 627.067 19.0056 629.574 19.426C630.169 19.5305 630.737 19.7545 631.243 20.0845C631.749 20.4144 632.183 20.8435 632.518 21.3459C632.854 21.8482 633.084 22.4134 633.196 23.0073C633.307 23.6012 633.297 24.2115 633.166 24.8013L633.129 24.9571C632.888 26.0847 632.22 27.0754 631.266 27.7219C630.311 28.3684 629.144 28.6207 628.007 28.4261C626.289 28.1217 624.543 27.9988 622.799 28.0595C614.044 28.3573 607.42 33.8701 607.786 44.7261C608.116 54.4914 614.113 60.4487 623.949 60.1187C625.609 60.0527 627.262 59.8442 628.887 59.4955C630.033 59.2564 631.227 59.4774 632.212 60.1109C633.197 60.7444 633.893 61.7396 634.151 62.882V62.8637Z" fill="#F4C222"/>
<path d="M34.9197 213.468C34.3698 211.759 34.5137 209.902 35.3201 208.298C36.1266 206.694 37.5311 205.472 39.2306 204.894C42.8955 203.689 46.194 205.476 47.5775 209.105C48.961 212.735 47.4217 216.387 43.6285 217.753C39.8353 219.118 36.1886 217.235 34.9197 213.468ZM33.7331 202.891L22.3809 175.772C22.1587 175.241 22.0467 174.67 22.0519 174.094C22.0571 173.518 22.1793 172.949 22.4112 172.422C22.643 171.895 22.9795 171.42 23.4004 171.027C23.8213 170.634 24.3177 170.331 24.8594 170.136L27.6081 169.137C28.1488 168.943 28.7232 168.86 29.2966 168.895C29.87 168.929 30.4305 169.079 30.9443 169.336C31.4581 169.593 31.9145 169.951 32.2859 170.39C32.6574 170.828 32.9362 171.337 33.1055 171.886L41.7181 200.009L33.7331 202.891Z" fill="#1771B9"/>
<path d="M95.1002 348.31C96.5566 348.257 97.9324 347.626 98.9258 346.557C99.9192 345.488 100.449 344.068 100.399 342.607L99.9902 331.201L89.0234 331.59L89.4326 342.997C89.4564 343.719 89.6219 344.429 89.9197 345.087C90.2175 345.745 90.6417 346.338 91.168 346.831C91.6944 347.325 92.3126 347.71 92.9873 347.963C93.662 348.217 94.38 348.335 95.1002 348.31Z" fill="#EFB7A4"/>
<path d="M119.51 316.628C120.234 313.82 120.392 310.896 119.975 308.025C118.082 295.17 105.224 286.423 91.2312 288.484C77.2383 290.544 67.6862 302.369 69.3514 315.054C81.9454 315.38 105.794 316.191 119.51 316.628Z" fill="#893F0E"/>
<path d="M67.8742 316.158C68.0291 316.517 68.2537 316.841 68.535 317.112C68.8162 317.383 69.1484 317.595 69.5121 317.736C69.8758 317.876 70.2639 317.943 70.6535 317.932C71.0431 317.921 71.4265 317.832 71.7814 317.67C72.419 317.24 72.8625 316.576 73.0166 315.821C73.1707 315.066 73.0231 314.28 72.6055 313.633C72.4486 313.276 72.2229 312.953 71.9413 312.684C71.6597 312.414 71.3279 312.203 70.9648 312.063C70.6017 311.922 70.2145 311.855 69.8255 311.865C69.4366 311.875 69.0535 311.962 68.6982 312.121C68.0606 312.551 67.6171 313.215 67.463 313.97C67.3089 314.725 67.4565 315.511 67.8742 316.158Z" fill="#F9CABC"/>
<path d="M71.9711 315.703C71.9711 315.703 69.7625 311.964 69.1272 313.905C68.1507 316.783 70.2745 315.066 70.2745 315.066C70.2745 315.066 70.6827 314.71 71.9711 315.703Z" fill="#DA9D9B"/>
<path d="M120.457 314.678C120.628 315.038 120.718 315.43 120.72 315.828C120.722 316.226 120.637 316.62 120.47 316.981C120.303 317.342 120.058 317.662 119.753 317.917C119.449 318.172 119.092 318.357 118.708 318.457C118.324 318.558 117.922 318.573 117.532 318.5C117.141 318.427 116.772 318.269 116.449 318.037C116.127 317.804 115.859 317.503 115.666 317.155C115.473 316.808 115.358 316.421 115.331 316.024C115.16 315.665 115.07 315.272 115.068 314.874C115.066 314.476 115.152 314.082 115.319 313.721C115.486 313.36 115.73 313.041 116.035 312.786C116.339 312.53 116.697 312.346 117.081 312.245C117.465 312.144 117.866 312.129 118.257 312.202C118.647 312.275 119.017 312.433 119.339 312.666C119.662 312.898 119.929 313.199 120.122 313.547C120.316 313.895 120.43 314.281 120.457 314.678Z" fill="#F9CABC"/>
<path d="M117.153 317.141C117.153 317.141 116.242 312.953 118.023 313.91C120.687 315.365 117.986 315.541 117.986 315.541C117.986 315.541 117.396 315.535 117.153 317.141Z" fill="#DA9D9B"/>
<path d="M71.5386 320.842C72.5869 325.329 74.9389 329.404 78.2972 332.551C81.6555 335.699 85.8692 337.776 90.4053 338.522C94.9415 339.268 99.5963 338.648 103.781 336.741C107.966 334.833 111.492 331.725 113.915 327.808C116.337 323.891 117.547 319.341 117.39 314.735C117.234 310.129 115.719 305.672 113.036 301.93C110.353 298.187 106.624 295.326 102.319 293.709C98.015 292.091 93.3289 291.79 88.8538 292.844C82.8557 294.256 77.6623 297.998 74.4154 303.248C71.1684 308.499 70.1337 314.827 71.5386 320.842Z" fill="#F9CABC"/>
<path d="M70.9874 311.525L90.7313 311.112L94.2101 302.583L95.7413 310.854L102.373 311.226L103.002 302.987L105.123 311.634L118.551 312.372C118.551 312.372 117.499 291.21 95.0725 291.298C72.6462 291.386 70.9874 311.525 70.9874 311.525Z" fill="#893F0E"/>
<path d="M73.4117 464.098L72.5524 471.874L67.9692 471.566C66.0255 471.422 64.1022 473.392 63.7544 476.1L80.3274 477.843L82.1074 464.262L73.4117 464.098Z" fill="#F9CABC"/>
<path d="M73.5961 471.833L81.3506 472.735L80.8391 478.562L63.6318 476.367C63.6956 474.993 64.2959 473.701 65.3029 472.768C66.3099 471.835 67.6426 471.337 69.0129 471.381L73.5961 471.833Z" fill="#141312"/>
<path d="M109.156 464.734L109.32 472.551H113.903C115.026 472.759 116.034 473.373 116.735 474.277C117.436 475.181 117.783 476.311 117.709 477.454L101.054 477.72L100.46 464.037L109.156 464.734Z" fill="#F9CABC"/>
<path d="M108.379 472.427L100.583 472.632V478.479L117.893 477.822C117.96 476.448 117.48 475.104 116.56 474.085C115.639 473.066 114.352 472.455 112.983 472.386L108.379 472.427Z" fill="#141312"/>
<path d="M71.5501 392.029L70.4248 465.596H85.0336L91.3763 410.041L94.8546 410.513L97.6781 464.509H112.225C112.021 441.798 114.046 413.221 115.499 394.572L71.5501 392.029Z" fill="#F2564D"/>
<path d="M84.2023 348.419C84.9372 345.841 87.2922 344.064 89.9723 344.064H98.609C101.323 344.064 103.699 345.886 104.403 348.507L116.475 393.427C117.536 397.375 114.422 401.206 110.34 400.974L77.3578 399.101C73.5197 398.882 70.8739 395.162 71.928 391.465L84.2023 348.419Z" fill="#1771B9"/>
<path d="M102.302 354.196C102.302 354.196 118.014 379.505 125.205 380.774C129.612 381.042 131.973 379.505 130.704 376.121C130.704 376.121 117.168 352.857 113.573 348.108C111.246 346.089 109.977 346.512 109.131 346.935C108.285 347.358 102.302 354.196 102.302 354.196Z" fill="#E8BAAF"/>
<path d="M103.341 357.63C103.341 357.63 94.2147 353.852 94.8764 351.248C95.2341 349.716 100.212 352.39 100.212 352.39C100.212 352.39 94.3336 345.399 96.768 345.725C98.1793 345.92 100.355 349.177 100.355 349.177C100.355 349.177 97.488 342.573 99.537 343.051C100.654 343.317 102.159 348.277 102.159 348.277C102.159 348.277 101.735 341.027 103.28 342.507C103.962 344.242 104.415 346.058 104.63 347.908C104.63 347.908 105.638 342.901 106.597 343.97C107.555 345.04 109.077 356.98 109.077 356.98C108.355 357.75 107.381 358.239 106.331 358.358C105.281 358.477 104.221 358.219 103.341 357.63Z" fill="#F9CABC"/>
<path d="M103.632 357.51C103.632 357.51 125.218 387.72 130.944 380.497C135.253 375.066 108.285 354.126 108.285 354.126L103.632 357.51Z" fill="#F9CABC"/>
<path d="M86.1295 354.196C86.1295 354.196 70.4175 379.505 63.2268 380.774C58.82 381.042 56.4589 379.505 57.7279 376.121C57.7279 376.121 71.2636 352.857 74.8589 348.108C77.1854 346.089 78.4544 346.512 79.3004 346.935C80.1463 347.358 86.1295 354.196 86.1295 354.196Z" fill="#E8BAAF"/>
<path d="M85.0907 357.63C85.0907 357.63 94.2169 353.852 93.5553 351.248C93.1976 349.716 88.2195 352.39 88.2195 352.39C88.2195 352.39 94.0981 345.399 91.6637 345.725C90.2524 345.92 88.0765 349.177 88.0765 349.177C88.0765 349.177 90.9436 342.573 88.8946 343.051C87.7772 343.317 86.2728 348.277 86.2728 348.277C86.2728 348.277 86.6971 341.027 85.1515 342.507C84.47 344.242 84.0161 346.058 83.8013 347.908C83.8013 347.908 82.7933 342.901 81.835 343.97C80.8767 345.04 79.3544 356.98 79.3544 356.98C80.077 357.75 81.0502 358.239 82.1006 358.358C83.1511 358.477 84.2106 358.219 85.0907 357.63Z" fill="#F9CABC"/>
<path d="M84.7992 357.51C84.7992 357.51 63.2135 387.72 57.4879 380.497C53.1785 375.066 80.1462 354.126 80.1462 354.126L84.7992 357.51Z" fill="#F9CABC"/>
<path d="M107.607 350.423V351.432C106.972 351.656 106.347 351.886 105.728 352.126C94.9312 356.322 84.9195 362.31 76.1142 369.836L75.7939 370.205L75.7352 370.114C74.3227 367.298 73.5913 364.19 73.6002 361.04C73.6062 355.358 75.991 349.937 80.1762 346.094C80.3524 345.923 80.5392 345.763 80.7101 345.603C87.6491 342.08 95.1645 343.959 100.46 346.329H100.492C102.053 347.028 103.567 347.829 105.023 348.726L105.451 348.992L105.547 349.051C106.875 349.83 107.607 350.423 107.607 350.423Z" fill="#E56353"/>
<path d="M108.168 354.496C108.168 360.025 107.068 374.72 96.2377 381.43C96.0616 381.43 95.8801 381.462 95.7039 381.472C95.2449 381.505 94.7858 381.521 94.3214 381.521C86.5067 381.542 79.3422 377.173 75.7834 370.215L75.7354 370.114L76.1036 369.847C76.4613 369.441 86.779 357.874 105.648 352.019C106.288 351.816 106.934 351.624 107.596 351.442L108.098 352.345C108.098 352.345 108.098 352.718 108.146 353.38C108.162 353.684 108.168 354.063 108.168 354.496Z" fill="#FCD462"/>
<path d="M114.348 366.324C112.057 374.647 104.836 380.67 96.2374 381.43C96.0613 381.43 95.8798 381.462 95.7036 381.472C100.064 378.425 107.174 370.973 108.103 354.464C108.103 354.106 108.141 353.738 108.157 353.396C108.157 353.289 108.157 353.177 108.157 353.065L109.811 352.665C110.156 353.028 110.477 353.413 110.772 353.818C111.718 355.097 112.494 356.493 113.083 357.971C114.153 360.618 114.586 363.479 114.348 366.324Z" fill="#44C4A1"/>
<path d="M107.607 348.71L105.6 349.041L105.53 348.982L105.109 348.71C103.661 347.795 102.144 346.996 100.572 346.318H100.54C91.1185 342.305 83.4269 344.653 80.1816 346.094C80.3578 345.924 80.5446 345.763 80.7155 345.603C87.6579 339.675 97.6429 338.931 105.386 343.767C105.52 343.847 105.653 343.933 105.781 344.023C106.689 345.165 107.285 346.522 107.511 347.963C107.548 348.189 107.569 348.417 107.575 348.646C107.607 348.678 107.607 348.71 107.607 348.71Z" fill="#27A2DB"/>
<path d="M114.348 366.324C114.418 364.781 114.492 361.157 113.105 357.976C112.467 356.54 111.684 355.173 110.767 353.898C110.473 353.492 110.164 353.086 109.833 352.67L109.528 350.658L109.699 350.61L110.196 350.492C110.649 350.385 111.263 350.257 111.882 350.172C113.955 353.418 115.055 357.189 115.053 361.04C114.971 362.818 114.735 364.586 114.348 366.324Z" fill="#E56353"/>
<path d="M111.888 350.162L110.201 350.482L109.694 350.578L108.397 350.824C108.397 350.824 108.082 349.874 107.607 348.614L107.319 347.845C106.794 346.427 106.157 345.053 105.413 343.735C105.546 343.815 105.68 343.901 105.808 343.991C108.241 345.59 110.307 347.686 111.872 350.141L111.888 350.162Z" fill="#FCD462"/>
<path d="M105.834 347.845C104.655 348.379 104.639 350.359 105.797 352.243C106.955 354.127 108.845 355.2 110.025 354.656C111.204 354.111 111.226 352.136 110.067 350.258C108.909 348.379 107.014 347.3 105.834 347.845Z" fill="#EBF0F3"/>
<path d="M79.5033 325.029C82.2742 325.023 84.5166 323.261 84.5118 321.094C84.5071 318.928 82.2569 317.176 79.486 317.182C76.715 317.188 74.4726 318.95 74.4774 321.117C74.4822 323.284 76.7323 325.035 79.5033 325.029Z" fill="#FFBF9D"/>
<path d="M109.143 325.113C111.913 325.07 114.132 323.278 114.098 321.111C114.064 318.945 111.79 317.224 109.02 317.267C106.249 317.31 104.03 319.102 104.064 321.269C104.098 323.436 106.372 325.157 109.143 325.113Z" fill="#FFBF9D"/>
<path d="M117.519 313.013C116.878 311.903 115.459 311.522 114.349 312.163C114.212 312.242 113.874 312.438 113.445 312.685C113.269 312.194 113.021 311.766 112.692 311.431C109.904 308.587 99.4293 308.559 96.6877 311.444C96.4839 311.658 96.3131 311.91 96.1737 312.194C95.4777 311.731 94.6902 311.504 93.9065 311.503C93.1228 311.504 92.3353 311.731 91.6393 312.194L90.1504 314.215L91.7714 316.765C92.0612 315.974 93.051 315.374 93.9065 315.373C94.8678 315.375 96.0012 316.131 96.1173 317.067L96.1174 317.055C96.5804 318.752 97.461 320.557 98.6498 321.413C101.205 323.254 108.751 323.343 111.307 321.394C112.14 320.759 112.834 319.539 113.275 318.143L116.67 316.183C117.78 315.542 118.16 314.123 117.519 313.013Z" fill="#FF8E9E"/>
<path d="M91.6394 312.194C91.5 311.91 91.3291 311.658 91.1254 311.444C88.3838 308.56 77.9088 308.588 75.1207 311.431C74.792 311.766 74.5441 312.195 74.3676 312.685C73.9395 312.438 73.6013 312.243 73.4642 312.164C72.3543 311.523 70.9347 311.903 70.2938 313.013C69.6528 314.123 70.0332 315.543 71.1433 316.184L74.5381 318.144C74.9788 319.54 75.6729 320.76 76.5061 321.395C79.0626 323.343 86.608 323.255 89.1636 321.413C90.3523 320.557 91.2329 318.753 91.6959 317.056C91.699 317.044 91.7018 317.033 91.7049 317.021C91.7277 316.937 91.7501 316.852 91.7717 316.766C92.1469 315.268 92.3096 313.56 91.6394 312.194Z" fill="#EA5B70"/>
<path d="M88.5198 315.319C88.2928 316.641 87.67 318.199 87.1285 318.589C85.7482 319.583 79.8682 319.611 78.6178 318.627C78.0993 318.219 77.6101 316.554 77.5195 315.223C77.4606 314.355 78.0015 313.557 78.8354 313.31C81.0898 312.645 84.74 312.577 87.1673 313.226C88.0891 313.473 88.6811 314.379 88.5198 315.319Z" fill="#B9F0FF"/>
<path d="M110.294 315.223C110.203 316.554 109.714 318.219 109.196 318.627C107.945 319.61 102.065 319.583 100.685 318.589C100.144 318.199 99.5205 316.641 99.2936 315.319C99.1322 314.378 99.7241 313.473 100.646 313.226C103.073 312.577 106.723 312.645 108.978 313.31C109.812 313.556 110.353 314.355 110.294 315.223Z" fill="#B9F0FF"/>
<path d="M83.4423 313.545C82.8486 313.543 82.3658 314.021 82.3641 314.612L82.3587 316.531C82.357 317.122 82.837 317.602 83.4308 317.604C84.0245 317.606 84.5072 317.128 84.5089 316.537L84.5144 314.618C84.5161 314.027 84.0361 313.547 83.4423 313.545Z" fill="#313D40"/>
<path d="M103.511 313.603C102.917 313.601 102.435 314.079 102.433 314.67L102.428 316.589C102.426 317.18 102.906 317.66 103.5 317.662C104.093 317.664 104.576 317.186 104.578 316.595L104.583 314.676C104.585 314.085 104.105 313.604 103.511 313.603Z" fill="#313D40"/>
<path d="M97.693 322.194C97.2464 321.804 96.5673 321.849 96.1758 322.293C95.711 322.821 95.0414 323.122 94.3384 323.12C93.6354 323.118 92.9676 322.813 92.5058 322.283C92.1168 321.836 91.4381 321.788 90.9891 322.175C90.5404 322.562 90.4918 323.237 90.8806 323.684C91.7497 324.682 93.0076 325.257 94.3322 325.261C95.6567 325.264 96.9181 324.697 97.7926 323.704C98.1843 323.259 98.1394 322.583 97.693 322.194Z" fill="#313D40"/>
<path d="M92.5913 315.972L92.3357 318.508L94.448 318.189C94.5495 318.173 94.6434 318.128 94.7179 318.06C94.7924 317.993 94.8441 317.906 94.8666 317.811C94.8891 317.715 94.8813 317.616 94.8443 317.525C94.8072 317.433 94.7425 317.355 94.6583 317.298L92.5913 315.972Z" fill="#F3AE8A"/>
<path d="M339.76 159.165L355.311 103.383H390.842L410.638 161.687L339.76 159.165Z" fill="#A685E2"/>
<path d="M398.09 87.3155C398.09 77.7773 391.387 63.9555 374.109 63.9554C353.376 63.9553 346.851 80.0809 346.851 87.3155V113.868H398.09V87.3155Z" fill="#6F3A1D"/>
<path d="M394.909 95.736C393.821 100.198 391.433 104.237 388.048 107.341C384.663 110.445 380.433 112.475 375.894 113.174C371.355 113.873 366.71 113.21 362.548 111.268C358.386 109.326 354.894 106.193 352.514 102.265C350.133 98.3371 348.972 93.7914 349.176 89.2032C349.38 84.6149 350.941 80.1905 353.661 76.4899C356.381 72.7893 360.138 69.9789 364.456 68.4145C368.775 66.8502 373.46 66.6022 377.919 67.7019C383.883 69.1774 389.02 72.9558 392.204 78.21C395.388 83.4643 396.361 89.7661 394.909 95.736Z" fill="#F9D2BC"/>
<path d="M357.851 85.3237L359.828 77.7101L360.326 85.3081L375.055 86.398L379.041 77.8502L381.89 85.8998L389.271 84.841L389.706 79.5784L390.812 84.8255L397.694 82.8637C397.694 82.8637 389.488 62.5918 372.004 64.5691C366.986 65.1197 362.205 66.9964 358.152 70.0064C354.1 73.0164 350.922 77.0511 348.945 81.6959L348.213 83.829L357.851 85.3237Z" fill="#6E3A1D"/>
<path d="M357.83 101.69C360.601 101.684 362.844 99.9224 362.839 97.7554C362.834 95.5885 360.584 93.8368 357.813 93.8429C355.042 93.849 352.8 95.6106 352.805 97.7775C352.809 99.9445 355.059 101.696 357.83 101.69Z" fill="#FFBF9D"/>
<path d="M387.469 101.774C390.24 101.731 392.458 99.9391 392.424 97.7724C392.39 95.6057 390.117 93.8845 387.346 93.9279C384.576 93.9714 382.357 95.7631 382.391 97.9298C382.425 100.096 384.699 101.818 387.469 101.774Z" fill="#FFBF9D"/>
<path d="M361.769 90.2059C361.176 90.2042 360.693 90.6819 360.691 91.2729L360.686 93.192C360.684 93.783 361.164 94.2635 361.758 94.2652C362.352 94.2668 362.834 93.7891 362.836 93.1981L362.842 91.279C362.843 90.688 362.363 90.2076 361.769 90.2059Z" fill="#313D40"/>
<path d="M381.838 90.2632C381.245 90.2615 380.762 90.7392 380.76 91.3302L380.755 93.2493C380.753 93.8403 381.233 94.3208 381.827 94.3225C382.421 94.3242 382.903 93.8464 382.905 93.2555L382.91 91.3363C382.912 90.7454 382.432 90.2649 381.838 90.2632Z" fill="#313D40"/>
<path d="M376.02 98.8542C375.573 98.4647 374.894 98.5091 374.502 98.9536C374.038 99.4813 373.368 99.7829 372.665 99.7809C371.962 99.7789 371.294 99.4735 370.832 98.9432C370.444 98.4965 369.765 98.4483 369.316 98.8351C368.867 99.2222 368.819 99.8979 369.207 100.345C370.076 101.343 371.334 101.917 372.659 101.921C373.983 101.925 375.245 101.357 376.119 100.364C376.511 99.9198 376.466 99.2438 376.02 98.8542Z" fill="#313D40"/>
<path d="M370.918 92.6327L370.663 95.169L372.775 94.85C372.877 94.8331 372.971 94.7881 373.045 94.7207C373.12 94.6532 373.171 94.5664 373.194 94.4711C373.216 94.3758 373.208 94.2763 373.171 94.1851C373.134 94.0939 373.07 94.0152 372.985 93.9588L370.918 92.6327Z" fill="#F3AE8A"/>
<path d="M337.959 153.728L349.932 154.259L394.016 157.364L409.266 157.21L374.565 167.399L337.959 153.728Z" fill="#B2B0A5"/>
<path d="M336.038 167.177C336.038 167.177 322.624 166.079 321.715 169.458C320.806 172.837 336.09 175.342 336.09 175.342L336.038 167.177Z" fill="#FEC75D"/>
<path d="M405.321 174.535L334.992 175.255L334.015 166.37C334.015 166.37 400.329 157.605 411.479 157.176C427.912 156.421 416.093 172.168 405.321 174.535Z" fill="#054E40"/>
<path d="M406.195 162.321C406.195 162.321 419.918 161.206 420.673 164.62C421.428 168.033 405.904 170.469 405.904 170.469L406.195 162.321Z" fill="#FEC75D"/>
<path d="M341.391 150.211L408.083 160.606L407.86 170.898C407.86 170.898 345.524 172.236 339.675 169.474C326.93 163.487 326.073 150.314 341.391 150.211Z" fill="#13705F"/>
<rect x="335.007" y="107.101" width="75.2921" height="43.1449" rx="5" fill="#C4C4C4"/>
<circle cx="372.653" cy="128.673" r="5.49886" fill="white"/>
<path d="M339.837 139.635C339.837 139.635 342.856 138.228 343.371 136.873C344.263 134.523 336.647 138.726 336.647 138.726C336.647 138.726 339.631 135.878 338.191 135.158C336.372 134.249 333.13 137.971 332.616 140.304C331.569 145.296 336.338 147.011 340.746 147.165C341.687 147.252 342.635 147.2 343.56 147.011C344.863 146.308 339.134 144.421 339.134 144.421C339.134 144.421 344.64 144.558 345.429 144.043C347.265 142.86 339.82 141.865 339.82 141.865C339.82 141.865 345.635 141.247 346.167 140.15C347.127 138.297 339.837 139.635 339.837 139.635Z" fill="#F9CABC"/>
<path d="M406.69 138.944C406.69 138.944 403.568 137.572 403.053 136.165C402.093 133.781 409.915 137.967 409.915 137.967C409.915 137.967 406.793 135.102 408.199 134.33C410.052 133.352 413.448 137.126 414.014 139.596C415.181 144.742 410.309 146.578 405.781 146.766C404.871 146.86 403.953 146.826 403.053 146.663C401.698 145.96 407.565 143.919 407.565 143.919C407.565 143.919 401.904 144.159 401.081 143.644C399.177 142.444 406.81 141.311 406.81 141.311C406.81 141.311 400.823 140.78 400.257 139.699C399.159 137.709 406.69 138.944 406.69 138.944Z" fill="#F9CABC"/>
<path d="M744.921 459.086L742.844 473.331H738.576C737.524 473.512 736.574 474.074 735.909 474.909C735.243 475.744 734.906 476.794 734.963 477.86L750.537 478.254L752.165 461.594L744.921 459.086Z" fill="#F9CABC"/>
<path d="M743.668 473.237L750.949 473.499V478.946L734.72 478.254C734.659 476.97 735.106 475.714 735.964 474.757C736.823 473.801 738.024 473.221 739.306 473.144L743.668 473.237Z" fill="#141312"/>
<path d="M806.019 444.561L818.223 452.235L816.538 456.147C816.276 457.182 816.405 458.276 816.898 459.222C817.392 460.168 818.217 460.899 819.215 461.276L825.86 447.219L811.278 438.945L806.019 444.561Z" fill="#F9CABC"/>
<path d="M818.484 451.393L821.667 444.841L826.627 447.106L819.364 461.575C818.178 461.093 817.229 460.162 816.725 458.984C816.22 457.807 816.2 456.478 816.669 455.286L818.484 451.393Z" fill="#141312"/>
<path d="M783.425 391.325C783.425 391.325 789.228 417.287 818.073 440.91L812.121 454.2C812.121 454.2 779.757 438.645 766.71 413.019L762.33 413.731L754.674 466.76H738.576L741.178 396.603L783.425 391.325Z" fill="#C7BBBA"/>
<path d="M797.82 367.328L774.216 353.215L743.668 353.907L716.357 366.168L720.513 376.351L741.571 369.837L737.416 401.583L785.784 398.101L778.278 368.994L792.728 375.19L797.82 367.328Z" fill="#89A8C5"/>
<path d="M758.417 359.092C757.71 359.063 757.016 358.895 756.375 358.596C755.734 358.298 755.159 357.876 754.682 357.353C754.205 356.831 753.836 356.22 753.597 355.554C753.358 354.889 753.253 354.183 753.288 353.477L753.793 342.246L764.538 342.751L764.032 353.982C763.964 355.404 763.335 356.741 762.282 357.699C761.229 358.657 759.839 359.158 758.417 359.092Z" fill="#EFB7A4"/>
<path d="M782.302 318.805C783.897 331.288 774.003 342.81 760.234 344.525C746.466 346.24 733.932 337.615 732.423 325.115C730.914 312.615 740.79 301.11 754.508 299.361C768.225 297.612 780.725 306.322 782.302 318.805Z" fill="#282426"/>
<path d="M784.498 323.503C784.421 323.886 784.263 324.248 784.033 324.564C783.803 324.88 783.507 325.142 783.166 325.332C782.824 325.522 782.446 325.635 782.056 325.664C781.667 325.693 781.276 325.637 780.91 325.499C780.544 325.362 780.213 325.146 779.939 324.868C779.665 324.59 779.455 324.255 779.323 323.887C779.191 323.52 779.141 323.128 779.176 322.739C779.211 322.349 779.33 321.973 779.525 321.634C779.601 321.251 779.76 320.889 779.99 320.573C780.22 320.258 780.516 319.996 780.857 319.806C781.198 319.616 781.577 319.503 781.966 319.474C782.356 319.445 782.747 319.501 783.113 319.639C783.478 319.776 783.81 319.991 784.084 320.27C784.358 320.548 784.568 320.883 784.7 321.25C784.832 321.618 784.882 322.01 784.847 322.399C784.812 322.788 784.693 323.165 784.498 323.503Z" fill="#F9CABC"/>
<path d="M780.365 323.624C780.365 323.624 782.08 319.646 782.954 321.48C784.309 324.19 781.977 322.784 781.977 322.784C781.977 322.784 781.514 322.441 780.365 323.624Z" fill="#DA9D9B"/>
<path d="M731.823 329.213C731.68 329.967 731.837 330.747 732.259 331.387C732.682 332.027 733.337 332.478 734.086 332.642C734.861 332.657 735.61 332.37 736.176 331.842C736.743 331.314 737.081 330.587 737.121 329.813C737.264 329.06 737.108 328.28 736.685 327.64C736.263 326.999 735.607 326.549 734.858 326.384C734.081 326.361 733.327 326.645 732.759 327.175C732.191 327.704 731.854 328.437 731.823 329.213Z" fill="#F9CABC"/>
<path d="M735.458 331.218C735.458 331.218 735.801 326.915 734.138 328.115C731.686 329.915 734.412 329.83 734.412 329.83C734.412 329.83 734.995 329.641 735.458 331.218Z" fill="#DA9D9B"/>
<path d="M780.605 332.317C779.506 336.82 777.097 340.896 773.681 344.029C770.264 347.161 765.996 349.21 761.415 349.915C756.834 350.621 752.147 349.951 747.946 347.992C743.746 346.032 740.222 342.87 737.819 338.906C735.417 334.942 734.245 330.355 734.451 325.724C734.657 321.094 736.232 316.629 738.978 312.894C741.723 309.159 745.514 306.323 749.872 304.745C754.23 303.166 758.958 302.916 763.458 304.025C769.477 305.514 774.661 309.328 777.874 314.63C781.088 319.933 782.07 326.292 780.605 332.317Z" fill="#F9CABC"/>
<path d="M733.452 326.298C735.239 326.345 737.009 325.938 738.596 325.115C740.789 323.914 742.69 322.246 744.166 320.228C745.642 318.21 746.655 315.892 747.135 313.439C747.87 315.127 748.984 316.624 750.39 317.814C751.797 319.003 753.458 319.853 755.245 320.297C758.566 321.35 762.067 321.711 765.533 321.36L780.64 319.903C780.64 319.903 776.799 301.436 757.595 300.853C754.031 300.772 750.492 301.455 747.214 302.857C743.937 304.259 740.998 306.347 738.596 308.98C734.875 313.027 731.069 318.737 733.452 326.298Z" fill="#282426"/>
<path d="M708.159 345.372L758.661 367.216L802.855 345.016L801.376 400.029L758.212 411.447L705.744 394.339L708.159 345.372Z" fill="#F2564D"/>
<path d="M745.366 337.117C748.127 336.876 750.212 334.931 750.024 332.773C749.836 330.614 747.445 329.059 744.685 329.299C741.924 329.54 739.839 331.485 740.027 333.644C740.215 335.803 742.606 337.358 745.366 337.117Z" fill="#FFBF9D"/>
<path d="M774.906 334.692C777.663 334.414 779.721 332.441 779.504 330.285C779.287 328.129 776.876 326.607 774.119 326.884C771.362 327.162 769.303 329.135 769.52 331.291C769.738 333.447 772.149 334.97 774.906 334.692Z" fill="#FFBF9D"/>
<path d="M748.319 325.34C747.727 325.389 747.286 325.906 747.335 326.495L747.492 328.407C747.54 328.996 748.059 329.434 748.651 329.386C749.242 329.337 749.683 328.82 749.635 328.231L749.478 326.319C749.429 325.73 748.91 325.292 748.319 325.34Z" fill="#313D40"/>
<path d="M768.321 323.699C767.729 323.748 767.288 324.265 767.337 324.854L767.494 326.766C767.542 327.355 768.061 327.793 768.653 327.745C769.244 327.696 769.685 327.179 769.637 326.59L769.48 324.678C769.431 324.089 768.912 323.651 768.321 323.699Z" fill="#313D40"/>
<path d="M763.25 332.751C762.772 332.401 762.099 332.503 761.747 332.979C761.328 333.544 760.687 333.901 759.986 333.959C759.285 334.016 758.594 333.768 758.089 333.279C757.664 332.867 756.983 332.876 756.569 333.3C756.154 333.723 756.163 334.401 756.588 334.813C757.539 335.734 758.841 336.2 760.161 336.092C761.481 335.983 762.69 335.311 763.477 334.248C763.83 333.772 763.728 333.102 763.25 332.751Z" fill="#313D40"/>
<path d="M757.641 326.984L757.601 329.533L759.679 329.036C759.778 329.011 759.868 328.958 759.937 328.885C760.005 328.811 760.049 328.72 760.064 328.623C760.078 328.526 760.062 328.428 760.017 328.34C759.972 328.253 759.901 328.18 759.813 328.131L757.641 326.984Z" fill="#F3AE8A"/>
<path d="M709.601 346.195L711.94 344.005L758.119 364.67L798.4 344.118L801.807 345.54L758.661 367.216L709.601 346.195Z" fill="white"/>
<path d="M711.116 344.698L758.249 365.494L799.766 344.773" stroke="#AFA39E" stroke-width="0.06" stroke-miterlimit="10"/>
<path d="M710.367 345.165L758.492 366.523L801.9 344.716" stroke="#AFA39E" stroke-width="0.06" stroke-miterlimit="10"/>
<path d="M799.654 374.834C799.654 374.834 796.865 374.703 796.023 373.805C794.581 372.27 801.844 373.112 801.844 373.112C801.844 373.112 798.606 371.858 799.504 370.829C800.403 369.799 804.334 371.409 805.494 373.131C807.909 376.669 804.745 379.533 801.357 381.011C800.65 381.378 799.893 381.643 799.111 381.798C797.876 381.667 801.732 378.372 801.732 378.372C800.13 379.134 798.447 379.712 796.715 380.094C794.843 379.739 800.459 376.613 800.459 376.613C800.459 376.613 795.742 377.979 794.993 377.324C793.589 376.126 799.654 374.834 799.654 374.834Z" fill="#F9CABC"/>
<path d="M708.627 369.312C708.627 369.312 711.472 368.638 712.146 367.553C713.325 365.681 706.062 367.983 706.062 367.983C706.062 367.983 709.113 366.111 707.934 365.175C706.53 364.09 703.086 366.729 702.319 368.713C700.559 372.813 704.34 375.115 708.103 375.976C708.89 376.219 709.711 376.339 710.536 376.332C711.79 375.957 707.185 373.337 707.185 373.337C708.973 373.799 710.806 374.063 712.651 374.123C714.523 373.412 708.234 371.278 708.234 371.278C708.234 371.278 713.325 371.764 713.961 370.941C715.122 369.443 708.627 369.312 708.627 369.312Z" fill="#F9CABC"/>
</svg>
