<svg width="1600" height="902" viewBox="0 0 1600 902" fill="none" xmlns="http://www.w3.org/2000/svg">
<path d="M1600 0H0V902H1600V0Z" fill="url(#paint0_linear)"/>
<path fill-rule="evenodd" clip-rule="evenodd" d="M1.32422 88.1405C150.938 81.3091 704.989 83.6194 396.038 94.932C131.845 104.631 629.594 108.874 694.532 108.714L946.982 107.798C1091.53 107.28 993.87 89.2359 1021.11 79.3175C1069.09 61.8507 1427.75 58.5844 1427.75 79.3175C1427.75 85.6111 1391.18 91.4466 1389.67 96.7843C1385.41 111.742 1571.3 106.902 1599.81 106.882V24.2881H1.32422V88.1405Z" fill="#009ADD"/>
<path fill-rule="evenodd" clip-rule="evenodd" d="M1.0896 143.294C95.5785 141.852 190.245 138.589 280.356 150.54C450.134 173.021 609.867 129.301 818.756 129.301C986.756 129.301 1039.33 151.641 1220.49 151.641C1241.18 151.641 1385.82 149.039 1298.85 141.632C815.245 100.233 1848.07 119.391 1519.8 149.459C1349.09 165.034 1259.96 190.778 1055.69 190.778C1020.13 190.778 872.401 188.776 858.845 200.787C843.845 214.16 945.645 208.614 961.29 210.796C1162.76 239.643 674.312 232.216 595.712 232.216C517.934 232.216 440.778 215.441 386.823 215.441C314.89 215.441 231.134 222.868 362.734 235.459C450.734 243.947 173.845 261.764 1.11182 271.013L1.0896 143.294Z" fill="#009ADD"/>
<path fill-rule="evenodd" clip-rule="evenodd" d="M1.32422 668.27C150.817 675.103 704.357 672.792 395.721 661.457C131.74 651.775 629.09 647.512 693.976 647.691L946.178 648.608C1090.61 649.126 993.029 667.174 1020.25 677.075C1068.19 694.526 1426.6 697.813 1426.6 677.075C1426.6 670.78 1390.07 664.963 1388.56 659.624C1384.3 644.664 1570.04 649.504 1598.52 649.524V732.117H1.32422V668.27Z" fill="#009ADD"/>
<path fill-rule="evenodd" clip-rule="evenodd" d="M1.32422 547.298C150.813 540.465 704.404 542.776 395.71 554.111C131.736 563.793 629.072 568.056 693.956 567.876L946.196 566.96C1090.63 566.442 993.046 548.394 1020.26 538.493C1068.2 521.042 1426.61 517.755 1426.61 538.493C1426.61 544.788 1390.07 550.605 1388.56 555.944C1384.3 570.924 1570.04 566.064 1598.52 566.044V483.451H1.32422V547.298Z" fill="#009ADD"/>
<path fill-rule="evenodd" clip-rule="evenodd" d="M1.0896 766.234C95.5785 764.792 190.245 761.529 280.356 773.46C450.134 795.961 609.934 752.241 818.667 752.241C986.667 752.241 1039.25 774.581 1220.4 774.581C1241.09 774.581 1385.73 771.979 1298.76 764.572C815.156 723.173 1847.98 742.331 1519.71 772.399C1349.09 788.014 1259.96 813.758 1055.69 813.758C1020.13 813.758 872.401 811.756 858.845 823.767C843.845 837.14 945.645 831.594 961.29 833.777C1162.76 862.583 674.312 855.076 595.712 855.076C517.934 855.076 440.778 838.301 386.823 838.301C314.89 838.301 231.134 845.728 362.734 858.419C450.734 866.907 173.845 884.724 1.11182 893.973L1.0896 766.234Z" fill="#009ADD"/>
<path fill-rule="evenodd" clip-rule="evenodd" d="M1.0896 296.556C95.5785 295.095 190.245 291.832 280.356 303.783C450.134 326.304 609.867 282.543 818.756 282.543C986.756 282.543 1039.33 304.904 1220.49 304.904C1241.18 304.904 1385.82 302.282 1298.85 294.895C815.245 253.516 1848.07 272.674 1519.8 302.722C1349.18 318.336 1260.05 344.08 1055.78 344.08C1020.22 344.08 872.49 342.079 858.934 354.09C843.934 367.462 945.734 361.937 961.378 364.099C1162.76 392.886 674.312 385.379 595.712 385.379C517.934 385.379 440.778 368.603 386.823 368.603C314.89 368.603 231.134 376.05 362.734 388.742C450.734 397.21 173.845 415.027 1.11182 424.295L1.0896 296.556Z" fill="#009ADD"/>
<path fill-rule="evenodd" clip-rule="evenodd" d="M1.32422 45.0866C247.67 51.4079 328.062 33.7402 468.127 33.7402C488.092 33.7402 513.381 32.6035 530.995 35.2158C542.53 36.9108 414.888 45.3259 414.777 45.4655C474.827 58.846 589.315 46.4426 660.545 47.659C704.513 48.3968 746.506 52.0461 791.982 52.0461C822.328 52.0461 824.99 47.32 845.332 44.7277C948.817 16.6108 996.866 36.4721 1098.71 34.478C1178.73 32.9226 1262.76 33.0223 1342.57 33.0223C1397.36 41.5571 1392.35 50.5704 1462.58 50.5704C1506.44 50.5704 1545.99 45.2262 1592.13 46.9212L1598.52 47.1804V24.2881H1.32422V45.0866Z" fill="#20B3ED"/>
<path fill-rule="evenodd" clip-rule="evenodd" d="M1.32422 500.76C247.67 507.101 328.062 489.433 468.127 489.433C488.092 489.433 513.381 488.297 530.995 490.909C542.53 492.604 414.888 501.019 414.777 501.139C474.827 514.539 589.315 502.136 660.545 503.332C704.513 504.09 746.506 507.739 791.982 507.739C822.328 507.739 824.99 503.013 845.332 500.421C948.817 472.304 996.866 492.146 1098.71 490.171C1178.73 488.616 1262.76 488.696 1342.57 488.696C1397.36 497.25 1392.35 506.264 1462.58 506.264C1506.44 506.264 1545.99 500.92 1592.13 502.615L1598.52 502.874V479.981H1.32422V500.76Z" fill="#20B3ED"/>
<path fill-rule="evenodd" clip-rule="evenodd" d="M0.0400391 712.475C246.584 706.153 327.04 723.801 467.218 723.801C487.199 723.801 512.509 724.958 530.136 722.345C541.681 720.65 413.936 712.235 413.825 712.096C473.923 698.715 588.503 711.119 659.791 709.902C703.794 709.164 745.82 705.515 791.333 705.515C821.704 705.515 824.368 710.221 844.727 712.833C948.295 740.95 996.383 721.089 1098.31 723.083C1178.39 724.639 1262.49 724.539 1342.36 724.539C1397.2 715.984 1392.18 706.971 1462.47 706.971C1506.36 706.971 1545.95 712.335 1592.13 710.64L1598.52 710.381V733.273H0.0400391V712.475Z" fill="#20B3ED"/>
<defs>
<linearGradient id="paint0_linear" x1="521.244" y1="-238.943" x2="983.926" y2="1172.2" gradientUnits="userSpaceOnUse">
<stop stop-color="#005FD2"/>
<stop offset="0.69" stop-color="#00A1F1"/>
<stop offset="1" stop-color="#00BEFF"/>
</linearGradient>
</defs>
</svg>
