<svg width="239" height="311" viewBox="0 0 239 311" fill="none" xmlns="http://www.w3.org/2000/svg">
<line y1="-2" x2="24.3721" y2="-2" transform="matrix(0.706897 -0.707316 0.706897 0.707316 213.792 291.47)" stroke="#74401D" stroke-width="4"/>
<line y1="-2" x2="24.3721" y2="-2" transform="matrix(0.706898 0.707316 -0.706898 0.707316 211.488 274.266)" stroke="#74401D" stroke-width="4"/>
<path d="M16.1571 8.18615L15.6604 8.24365L15.7177 8.74036L16.2525 13.38L16.3211 13.9748L16.8941 13.801L16.7492 13.3225L16.8941 13.801L16.8943 13.8009L16.8951 13.8007L16.8985 13.7997L16.9124 13.7955L16.9685 13.7787C17.0181 13.7639 17.0917 13.7421 17.1873 13.7142C17.3784 13.6584 17.657 13.5782 18.0057 13.481C18.7032 13.2865 19.6804 13.0244 20.798 12.754C23.0413 12.2113 25.8207 11.6425 28.0391 11.5102C30.2948 11.3758 33.2664 11.2831 35.6781 11.224C36.8831 11.1945 37.9467 11.1734 38.7091 11.1597C39.0903 11.1528 39.3961 11.1478 39.6065 11.1445L39.8481 11.1409L39.9106 11.14L39.9265 11.1397L39.9304 11.1397L39.9314 11.1397L39.9317 11.1397L39.9251 10.6397L39.9317 11.1397L40.4852 11.1321L40.4218 10.5822L39.8869 5.94256L39.8296 5.44585L39.333 5.50335L16.1571 8.18615Z" fill="#2FE12C" stroke="#13702D"/>
<path d="M195.17 6.53712L194.707 6.34821L194.518 6.81106L192.751 11.1344L192.525 11.6887L193.111 11.8124L193.214 11.3233L193.111 11.8124L193.111 11.8125L193.112 11.8126L193.115 11.8134L193.129 11.8164L193.187 11.8287C193.237 11.8397 193.312 11.856 193.409 11.8776C193.604 11.9208 193.887 11.9847 194.239 12.0675C194.944 12.2332 195.926 12.4744 197.036 12.7759C199.263 13.381 201.973 14.2216 203.981 15.1746C206.022 16.1435 208.671 17.494 210.813 18.6042C211.883 19.1588 212.825 19.6528 213.5 20.0081C213.837 20.1857 214.107 20.3287 214.293 20.4272L214.507 20.5404L214.562 20.5697L214.576 20.5771L214.579 20.579L214.58 20.5795L214.58 20.5796L214.816 20.1383L214.581 20.5796L215.069 20.8396L215.279 20.3272L217.045 16.0039L217.234 15.541L216.771 15.3521L195.17 6.53712Z" fill="#2FE12C" stroke="#13702D"/>
<path d="M43.5894 7.00001L43.8068 6.54973L43.2827 6.29694L43.1114 6.85304L41.7366 11.3165L41.5894 11.7943L42.0673 11.9413L64.1306 18.726L64.6085 18.8729L64.7557 18.3951L66.1305 13.9317L66.302 13.3749L65.7256 13.2901L65.6526 13.7847L65.7256 13.2901L65.7254 13.2901L65.7245 13.29L65.7211 13.2894L65.7069 13.2873L65.6504 13.2789C65.6006 13.2714 65.5267 13.2602 65.4309 13.2455C65.2394 13.216 64.9606 13.1724 64.6122 13.116C63.9154 13.0031 62.9409 12.8391 61.8308 12.6346C59.6059 12.2246 56.8536 11.6549 54.7001 11.0112C52.5505 10.3687 49.8319 9.25653 47.6381 8.29819C46.544 7.82023 45.5854 7.38277 44.9005 7.06485C44.5581 6.90591 44.2842 6.77692 44.0962 6.68775C44.0021 6.64317 43.9296 6.60856 43.8806 6.58514L43.8252 6.55857L43.8113 6.55187L43.8078 6.55022L43.807 6.54983L43.8068 6.54974L43.5894 7.00001Z" fill="#2FE12C" stroke="#13702D"/>
<path d="M165.282 7.51031L165.188 8.00153L165.76 8.11006L165.781 7.52857L165.954 2.86142L165.973 2.36176L165.473 2.3435L142.406 1.50035L141.906 1.48209L141.887 1.98175L141.715 6.6489L141.693 7.23107L142.272 7.16382L142.214 6.66717L142.272 7.16381L142.272 7.16379L142.273 7.16369L142.276 7.16329L142.291 7.16165L142.347 7.1552C142.397 7.14954 142.472 7.14122 142.568 7.13067C142.761 7.10957 143.041 7.07952 143.392 7.04385C144.095 6.97249 145.078 6.87869 146.204 6.78895C148.459 6.60911 151.265 6.4471 153.511 6.51148C155.754 6.57574 158.668 6.94638 161.035 7.30426C162.215 7.48275 163.255 7.65721 163.998 7.78703C164.37 7.85193 164.668 7.90565 164.873 7.9431C164.975 7.96182 165.054 7.97648 165.108 7.98643L165.168 7.99774L165.183 8.00061L165.187 8.00131L165.188 8.00148L165.188 8.00152L165.282 7.51031Z" fill="#2FE12C" stroke="#13702D"/>
<path d="M191.006 11.264L190.854 11.7401L191.408 11.9176L191.5 11.3431L192.241 6.73193L192.321 6.23827L191.827 6.15915L169.035 2.50644L168.541 2.42732L168.462 2.92098L167.721 7.53214L167.628 8.10732L168.211 8.11122L168.214 7.61127L168.211 8.11122L168.211 8.11122L168.212 8.11122L168.215 8.11125L168.23 8.11136L168.287 8.11188C168.337 8.11238 168.412 8.11319 168.509 8.11448C168.703 8.11704 168.985 8.12147 169.338 8.12893C170.043 8.14383 171.031 8.17082 172.159 8.21912C174.419 8.31591 177.224 8.49763 179.446 8.83579C181.664 9.17333 184.511 9.89689 186.816 10.5411C187.966 10.8623 188.976 11.1623 189.699 11.382C190.06 11.4918 190.349 11.5815 190.548 11.6436C190.647 11.6747 190.724 11.6989 190.776 11.7153L190.834 11.7339L190.849 11.7386L190.852 11.7398L190.853 11.74L190.854 11.7401L191.006 11.264Z" fill="#2FE12C" stroke="#13702D"/>
<path d="M91.2144 9.65894L91.1654 9.16131L90.5849 9.21864L90.7302 9.78369L91.8933 14.3069L92.0178 14.7911L92.502 14.6664L114.465 9.0075L114.95 8.88275L114.825 8.39851L113.662 3.87531L113.516 3.30959L112.98 3.54086L113.178 4.00006L112.98 3.54087L112.98 3.54095L112.979 3.54127L112.976 3.54263L112.963 3.54819L112.911 3.57027C112.866 3.58973 112.798 3.61853 112.711 3.65564C112.535 3.72986 112.279 3.83732 111.959 3.96993C111.318 4.23521 110.418 4.60091 109.384 5.00237C107.312 5.80701 104.716 6.74874 102.583 7.31666C100.454 7.88351 97.6051 8.34496 95.2743 8.66546C94.1119 8.8253 93.0839 8.94935 92.3466 9.03342C91.978 9.07545 91.6822 9.10747 91.4788 9.12896C91.3771 9.13971 91.2985 9.14782 91.2455 9.15323L91.1854 9.15932L91.1703 9.16083L91.1666 9.1612L91.1657 9.16128L91.1655 9.1613L91.2144 9.65894Z" fill="#2FE12C" stroke="#13702D"/>
<path d="M66.2144 14.6148L66.2114 14.1147L65.628 14.1184L65.7207 14.6944L66.4629 19.3054L66.5424 19.7991L67.036 19.7194L89.4267 16.1047L89.9203 16.025L89.8409 15.5314L89.0987 10.9204L89.0059 10.3437L88.4504 10.5246L88.6051 11.0001L88.4504 10.5246L88.4502 10.5247L88.4494 10.525L88.4462 10.526L88.4328 10.5304L88.3794 10.5476C88.3323 10.5628 88.2623 10.5853 88.1716 10.6141C87.9901 10.6719 87.7257 10.7554 87.3944 10.858C86.7317 11.0632 85.8022 11.3446 84.7355 11.6492C82.5977 12.2598 79.9264 12.9588 77.75 13.3281C75.5777 13.6967 72.6988 13.8942 70.3484 13.9989C69.1763 14.0512 68.1413 14.0801 67.3993 14.096C67.0284 14.104 66.7309 14.1087 66.5264 14.1113C66.4242 14.1127 66.3452 14.1135 66.2918 14.114L66.2314 14.1146L66.2163 14.1147L66.2125 14.1147L66.2117 14.1147L66.2115 14.1147L66.2144 14.6148Z" fill="#2FE12C" stroke="#13702D"/>
<path d="M139.148 6.66065L139.103 7.1587L139.684 7.21044L139.647 6.62821L139.346 1.96756L139.314 1.46859L138.815 1.50104L116.182 2.97263L115.683 3.00507L115.715 3.50404L116.016 8.16469L116.054 8.74761L116.624 8.62023L116.515 8.13225L116.624 8.62022L116.624 8.62018L116.625 8.62001L116.628 8.61926L116.642 8.6162L116.697 8.60411C116.745 8.59346 116.817 8.57775 116.91 8.55761C117.096 8.51733 117.367 8.45934 117.707 8.3887C118.386 8.24738 119.338 8.05555 120.429 7.8536C122.615 7.44882 125.341 7.00674 127.542 6.84583C129.74 6.68522 132.624 6.76207 134.974 6.88103C136.146 6.94035 137.179 7.00984 137.919 7.06448C138.289 7.0918 138.586 7.1154 138.789 7.13215C138.891 7.14052 138.97 7.14718 139.023 7.15174L139.083 7.15694L139.099 7.15827L139.102 7.1586L139.103 7.15868L139.103 7.15869L139.148 6.66065Z" fill="#2FE12C" stroke="#13702D"/>
<path d="M227.833 79.4551L228.07 79.015L227.63 78.7775L223.52 76.5598L222.993 76.2755L222.808 76.8449L223.283 77L222.808 76.8449L222.807 76.845L222.807 76.8458L222.806 76.8492L222.802 76.863L222.783 76.9186C222.767 76.9677 222.743 77.0405 222.711 77.1349C222.647 77.3235 222.554 77.5979 222.434 77.9394C222.194 78.6227 221.849 79.5739 221.431 80.645C220.592 82.795 219.467 85.3995 218.305 87.2941C217.124 89.2205 215.499 91.7099 214.166 93.7211C213.501 94.726 212.909 95.6101 212.484 96.243C212.271 96.5595 212.1 96.8131 211.982 96.9875L211.847 97.1877L211.812 97.2395L211.803 97.2526L211.801 97.2559L211.8 97.2567L211.8 97.2569L212.214 97.5377L211.8 97.2569L211.49 97.7151L211.977 97.9779L216.087 100.196L216.527 100.433L216.764 99.9929L227.833 79.4551Z" fill="#2FE12C" stroke="#13702D"/>
<mask id="path-12-outside-1_4596_10201" maskUnits="userSpaceOnUse" x="126.945" y="148.257" width="27.7383" height="16.7231" fill="black">
<rect fill="white" x="126.945" y="148.257" width="27.7383" height="16.7231"/>
<path d="M152.214 156.5L130.214 162L129.214 157C129.214 157 136.529 156.426 140.714 155.5C144.899 154.574 150.409 152 150.409 152L152.214 156.5Z"/>
</mask>
<path d="M152.214 156.5L130.214 162L129.214 157C129.214 157 136.529 156.426 140.714 155.5C144.899 154.574 150.409 152 150.409 152L152.214 156.5Z" fill="#FFF129"/>
<path d="M152.214 156.5L152.456 157.47L153.57 157.192L153.142 156.127L152.214 156.5ZM130.214 162L129.234 162.197L129.439 163.225L130.456 162.97L130.214 162ZM129.214 157L129.137 156.003L128.013 156.091L128.234 157.197L129.214 157ZM150.409 152L151.337 151.627L150.943 150.647L149.986 151.094L150.409 152ZM151.972 155.53L129.972 161.03L130.456 162.97L152.456 157.47L151.972 155.53ZM131.195 161.803L130.195 156.803L128.234 157.197L129.234 162.197L131.195 161.803ZM149.481 152.373L151.286 156.873L153.142 156.127L151.337 151.627L149.481 152.373ZM129.214 157C129.292 157.997 129.292 157.997 129.292 157.997C129.292 157.997 129.293 157.997 129.293 157.997C129.293 157.997 129.293 157.997 129.294 157.997C129.295 157.997 129.296 157.997 129.298 157.997C129.302 157.996 129.307 157.996 129.315 157.995C129.329 157.994 129.35 157.992 129.378 157.99C129.434 157.986 129.515 157.979 129.62 157.97C129.83 157.952 130.135 157.926 130.513 157.892C131.269 157.823 132.32 157.722 133.504 157.591C135.86 157.332 138.781 156.952 140.93 156.477L140.499 154.523C138.463 154.974 135.634 155.344 133.286 155.603C132.118 155.732 131.079 155.832 130.333 155.9C129.959 155.934 129.66 155.96 129.453 155.977C129.35 155.986 129.271 155.992 129.217 155.996C129.19 155.999 129.17 156 129.156 156.001C129.15 156.002 129.145 156.002 129.141 156.003C129.14 156.003 129.138 156.003 129.138 156.003C129.137 156.003 129.137 156.003 129.137 156.003C129.137 156.003 129.137 156.003 129.137 156.003C129.137 156.003 129.137 156.003 129.214 157ZM140.93 156.477C143.103 155.996 145.587 155.096 147.502 154.332C148.465 153.947 149.295 153.592 149.885 153.332C150.18 153.203 150.415 153.097 150.577 153.023C150.659 152.986 150.721 152.957 150.764 152.937C150.786 152.927 150.802 152.92 150.814 152.915C150.819 152.912 150.824 152.91 150.827 152.908C150.828 152.908 150.829 152.907 150.83 152.907C150.831 152.907 150.831 152.906 150.831 152.906C150.831 152.906 150.832 152.906 150.832 152.906C150.832 152.906 150.832 152.906 150.409 152C149.986 151.094 149.986 151.094 149.986 151.094C149.986 151.094 149.986 151.094 149.986 151.094C149.986 151.094 149.986 151.094 149.986 151.094C149.985 151.094 149.984 151.095 149.983 151.095C149.981 151.096 149.977 151.098 149.972 151.1C149.963 151.105 149.948 151.112 149.928 151.121C149.888 151.139 149.828 151.167 149.751 151.202C149.595 151.273 149.368 151.375 149.081 151.501C148.507 151.753 147.698 152.1 146.761 152.474C144.874 153.228 142.51 154.078 140.499 154.523L140.93 156.477Z" fill="#F4C222" mask="url(#path-12-outside-1_4596_10201)"/>
<path d="M213.996 105.011L214.287 104.605L213.881 104.314L210.084 101.594L209.598 101.245L209.341 101.786L209.793 102L209.341 101.786L209.341 101.786L209.341 101.787L209.34 101.79L209.333 101.803L209.308 101.856C209.286 101.903 209.252 101.972 209.209 102.062C209.122 102.241 208.994 102.501 208.832 102.824C208.508 103.472 208.045 104.372 207.495 105.381C206.39 107.408 204.945 109.849 203.553 111.582C202.137 113.343 200.21 115.607 198.634 117.433C197.847 118.346 197.148 119.148 196.646 119.722C196.395 120.009 196.193 120.239 196.054 120.397L195.895 120.578L195.853 120.625L195.843 120.637L195.84 120.64L195.84 120.641L195.84 120.641L196.214 120.972L195.839 120.641L195.473 121.056L195.923 121.379L199.72 124.099L200.126 124.39L200.417 123.983L213.996 105.011Z" fill="#2FE12C" stroke="#13702D"/>
<path d="M50.2414 156.5L49.7414 156.498L49.7388 156.998L49.7145 161.668L49.7114 162.267L50.3011 162.163L50.2145 161.67L50.3011 162.163L50.3013 162.163L50.3021 162.163L50.3055 162.162L50.3199 162.159L50.3776 162.15C50.4286 162.141 50.5043 162.128 50.6025 162.112C50.7989 162.079 51.0851 162.033 51.4429 161.978C52.1588 161.869 53.1603 161.725 54.3022 161.591C56.5943 161.32 59.4218 161.088 61.6402 161.222C63.8957 161.359 66.857 161.623 69.2585 161.853C70.4583 161.967 71.5169 162.074 72.2754 162.151C72.6546 162.19 72.9588 162.222 73.1681 162.244L73.4085 162.269L73.4706 162.276L73.4864 162.277L73.4903 162.278L73.4913 162.278L73.4915 162.278L73.5449 161.781L73.4916 162.278L74.042 162.337L74.0449 161.783L74.0691 157.113L74.0717 156.613L73.5717 156.61L50.2414 156.5Z" fill="#FB8500" stroke="#CC5B1D"/>
<path d="M25.1096 161.411L24.6207 161.516L24.7255 162.005L25.7043 166.572L25.8297 167.157L26.3834 166.929L26.1931 166.467L26.3834 166.929L26.3835 166.929L26.3843 166.929L26.3876 166.927L26.4011 166.922L26.4552 166.9C26.5032 166.88 26.5744 166.851 26.6668 166.814C26.8516 166.741 27.1212 166.634 27.459 166.504C28.1346 166.243 29.082 165.888 30.1685 165.511C32.3491 164.755 35.0608 163.922 37.2563 163.577C39.4886 163.226 42.4374 162.848 44.8323 162.557C46.0289 162.412 47.0855 162.288 47.843 162.201C48.2218 162.158 48.5257 162.123 48.7348 162.1L48.975 162.073L49.0371 162.066L49.0529 162.064L49.0568 162.064L49.0578 162.064L49.058 162.064L49.0034 161.567L49.0581 162.064L49.6082 162.003L49.4922 161.462L48.5135 156.895L48.4087 156.406L47.9198 156.511L25.1096 161.411Z" fill="#FB8500" stroke="#CC5B1D"/>
<path d="M1.95504 176.169L1.54723 176.459L1.83633 176.867L4.53671 180.677L4.8829 181.166L5.3017 180.738L4.94452 180.388L5.30171 180.738L5.30182 180.738L5.30239 180.737L5.30487 180.735L5.31509 180.724L5.35616 180.682C5.39253 180.646 5.44662 180.591 5.51696 180.521C5.65766 180.38 5.86334 180.176 6.12232 179.923C6.6404 179.417 7.37108 178.717 8.22092 177.942C9.92664 176.388 12.0899 174.552 13.9713 173.369C15.8843 172.166 18.445 170.656 20.5311 169.444C21.5734 168.839 22.4958 168.309 23.1576 167.93C23.4885 167.741 23.7542 167.589 23.9371 167.485L24.1472 167.366L24.2015 167.335L24.2153 167.327L24.2188 167.325L24.2196 167.325L24.2198 167.325L23.9736 166.889L24.2199 167.324L24.7015 167.052L24.3814 166.6L21.6811 162.79L21.392 162.382L20.9841 162.671L1.95504 176.169Z" fill="#FB8500" stroke="#CC5B1D"/>
<path d="M175.214 138.847L174.954 138.42L174.457 138.722L174.831 139.168L177.834 142.746L178.155 143.129L178.538 142.807L196.213 127.961L196.596 127.639L196.274 127.256L193.272 123.679L192.898 123.232L192.513 123.67L192.889 124L192.513 123.67L192.513 123.671L192.513 123.671L192.51 123.674L192.501 123.685L192.463 123.727C192.43 123.765 192.38 123.821 192.316 123.894C192.187 124.038 191.999 124.249 191.763 124.511C191.29 125.035 190.623 125.764 189.849 126.586C188.297 128.232 186.324 130.234 184.614 131.693C182.908 133.149 180.498 134.829 178.502 136.151C177.507 136.81 176.619 137.378 175.981 137.781C175.661 137.982 175.404 138.142 175.227 138.251C175.139 138.306 175.07 138.348 175.024 138.377L174.972 138.409L174.958 138.417L174.955 138.419L174.954 138.419L174.954 138.42L175.214 138.847Z" fill="#2FE12C" stroke="#13702D"/>
<path d="M103.263 158.952L103.305 158.454L102.726 158.405L102.764 158.986L103.074 163.646L103.107 164.144L103.606 164.111L126.638 162.568L127.136 162.535L127.103 162.036L126.793 157.376L126.755 156.795L126.186 156.921L126.294 157.409L126.186 156.921L126.186 156.921L126.185 156.922L126.182 156.922L126.168 156.925L126.112 156.938C126.063 156.948 125.989 156.964 125.895 156.985C125.705 157.026 125.429 157.085 125.084 157.156C124.393 157.3 123.424 157.495 122.314 157.7C120.089 158.112 117.315 158.563 115.074 158.73C112.836 158.898 109.9 158.83 107.509 158.719C106.316 158.663 105.264 158.597 104.511 158.544C104.134 158.518 103.833 158.496 103.625 158.479C103.521 158.471 103.441 158.465 103.387 158.461L103.326 158.456L103.31 158.454L103.307 158.454L103.306 158.454L103.306 158.454L103.263 158.952Z" fill="#FB8500" stroke="#CC5B1D"/>
<path d="M76.4165 158.288L76.5085 157.797L75.9366 157.69L75.9168 158.271L75.758 162.939L75.741 163.439L76.2407 163.455L99.3106 164.229L99.8103 164.246L99.8273 163.746L99.9861 159.079L100.006 158.497L99.4274 158.566L99.4864 159.062L99.4274 158.566L99.4272 158.566L99.4264 158.566L99.4229 158.566L99.4086 158.568L99.3519 158.574C99.3019 158.58 99.2276 158.589 99.1313 158.6C98.9388 158.621 98.6583 158.652 98.3073 158.689C97.6052 158.762 96.6217 158.859 95.4968 158.952C93.2421 159.139 90.4367 159.309 88.1898 159.252C85.947 159.194 83.0321 158.832 80.6639 158.481C79.4828 158.306 78.4432 158.135 77.6989 158.008C77.3269 157.944 77.0288 157.891 76.8239 157.854C76.7215 157.836 76.6424 157.821 76.589 157.811L76.5286 157.8L76.5134 157.798L76.5096 157.797L76.5088 157.797L76.5086 157.797L76.4165 158.288Z" fill="#FB8500" stroke="#CC5B1D"/>
<path d="M153.702 150.704L153.539 150.231L152.988 150.422L153.26 150.938L155.443 155.067L155.677 155.509L156.119 155.275L176.164 144.664L176.606 144.43L176.372 143.988L174.189 139.859L173.916 139.343L173.448 139.692L173.748 140.093L173.448 139.692L173.448 139.692L173.448 139.693L173.445 139.695L173.434 139.703L173.389 139.737C173.349 139.766 173.29 139.81 173.213 139.867C173.06 139.98 172.836 140.144 172.555 140.347C171.993 140.754 171.204 141.319 170.291 141.95C168.462 143.214 166.157 144.734 164.214 145.782C162.275 146.829 159.612 147.94 157.42 148.794C156.326 149.219 155.355 149.579 154.658 149.832C154.309 149.959 154.029 150.059 153.836 150.127C153.74 150.161 153.665 150.187 153.615 150.205L153.558 150.225L153.543 150.23L153.54 150.231L153.539 150.231L153.539 150.231L153.702 150.704Z" fill="#2FE12C" stroke="#13702D"/>
<path d="M202.09 298.233L202.574 298.106L202.448 297.623L201.267 293.104L201.116 292.525L200.573 292.777L200.784 293.23L200.573 292.777L200.573 292.777L200.572 292.777L200.569 292.779L200.556 292.785L200.503 292.809C200.456 292.831 200.386 292.863 200.295 292.904C200.114 292.986 199.849 293.105 199.517 293.25C198.854 293.54 197.923 293.936 196.855 294.361C194.71 295.213 192.037 296.166 189.859 296.608C187.645 297.057 184.716 297.566 182.336 297.962C181.147 298.16 180.097 298.33 179.344 298.451C178.968 298.511 178.666 298.559 178.458 298.592L178.219 298.629L178.157 298.639L178.142 298.641L178.138 298.642L178.137 298.642L178.136 298.642L178.213 299.136L178.136 298.642L177.589 298.727L177.729 299.263L178.909 303.782L179.036 304.265L179.519 304.139L202.09 298.233Z" fill="#FB8500" stroke="#CC5B1D"/>
<path d="M11.9046 240.165L11.6106 239.76L11.206 240.054L7.42694 242.798L6.94246 243.15L7.37525 243.564L7.72093 243.203L7.37525 243.564L7.37537 243.564L7.37596 243.565L7.37851 243.567L7.38904 243.577L7.43117 243.618C7.46838 243.654 7.52355 243.707 7.59478 243.777C7.73725 243.916 7.94395 244.119 8.19984 244.375C8.71176 244.887 9.41991 245.61 10.2043 246.451C11.7786 248.138 13.639 250.28 14.8436 252.148C16.0684 254.047 17.6083 256.59 18.844 258.662C19.4614 259.697 20.0021 260.613 20.3884 261.271C20.5815 261.599 20.7361 261.863 20.8423 262.045L20.9641 262.254L20.9956 262.308L21.0036 262.321L21.0056 262.325L21.0061 262.326L21.0062 262.326L21.4385 262.075L21.0062 262.326L21.2846 262.804L21.7325 262.479L25.5116 259.735L25.9161 259.441L25.6222 259.037L11.9046 240.165Z" fill="#FB8500" stroke="#CC5B1D"/>
<path d="M146.452 297.116L146.587 296.635L146.027 296.478L145.956 297.055L145.386 301.691L145.325 302.187L145.821 302.248L168.733 305.055L169.229 305.115L169.29 304.619L169.86 299.984L169.931 299.406L169.349 299.423L169.364 299.923L169.349 299.423L169.349 299.423L169.348 299.423L169.344 299.423L169.33 299.424L169.273 299.425C169.222 299.427 169.148 299.429 169.051 299.431C168.857 299.436 168.575 299.442 168.222 299.447C167.516 299.458 166.528 299.468 165.399 299.462C163.137 299.448 160.328 299.371 158.094 299.115C155.865 298.86 152.994 298.242 150.666 297.683C149.505 297.405 148.484 297.142 147.754 296.95C147.389 296.853 147.097 296.774 146.896 296.72C146.796 296.692 146.718 296.671 146.666 296.656L146.607 296.64L146.592 296.636L146.588 296.635L146.587 296.635L146.587 296.635L146.452 297.116Z" fill="#FB8500" stroke="#CC5B1D"/>
<path d="M52.731 284.676L52.8904 284.202L52.3389 284.017L52.2384 284.59L51.4323 289.191L51.346 289.683L51.8385 289.769L74.5768 293.743L75.0693 293.829L75.1556 293.336L75.9618 288.736L76.0623 288.162L75.4798 288.15L75.4692 288.65L75.4798 288.15L75.4796 288.15L75.4788 288.15L75.4753 288.15L75.4609 288.15L75.4039 288.148C75.3535 288.147 75.2787 288.145 75.1819 288.143C74.9882 288.137 74.7061 288.129 74.3534 288.117C73.648 288.092 72.6606 288.051 71.5336 287.987C69.2749 287.858 66.4731 287.637 64.256 287.267C62.0429 286.898 59.2067 286.135 56.9103 285.458C55.765 285.121 54.7592 284.807 54.0399 284.577C53.6803 284.462 53.3925 284.368 53.1948 284.303C53.0959 284.271 53.0196 284.245 52.9681 284.228L52.9098 284.209L52.8951 284.204L52.8915 284.203L52.8906 284.203L52.8904 284.202L52.731 284.676Z" fill="#FB8500" stroke="#CC5B1D"/>
<path d="M29.7173 266.483L30.1131 266.178L29.7573 265.717L29.3555 266.138L26.1303 269.516L25.785 269.878L26.1468 270.223L42.8493 286.155L43.2111 286.5L43.5564 286.139L46.7816 282.761L47.1839 282.339L46.7062 282.006L46.4198 282.416L46.7062 282.006L46.7061 282.006L46.7054 282.005L46.7025 282.003L46.6908 281.995L46.644 281.962C46.6028 281.933 46.5417 281.89 46.4626 281.834C46.3045 281.722 46.0746 281.559 45.7882 281.352C45.2153 280.94 44.4169 280.357 43.5153 279.678C41.7085 278.317 39.5013 276.577 37.8627 275.038C36.2271 273.503 34.2925 271.292 32.7586 269.454C31.9935 268.538 31.3317 267.718 30.8611 267.127C30.6259 266.832 30.4386 266.594 30.3102 266.43C30.246 266.348 30.1966 266.285 30.1633 266.242L30.1256 266.194L30.1161 266.181L30.1138 266.178L30.1132 266.178L30.1131 266.178L29.7173 266.483Z" fill="#FB8500" stroke="#CC5B1D"/>
<path d="M136.819 299.514L136.69 299.997L137.254 300.146L137.316 299.566L137.81 294.922L137.863 294.425L137.366 294.372L114.811 291.983L114.314 291.93L114.261 292.428L113.767 297.072L113.705 297.653L114.289 297.624L114.264 297.124L114.289 297.624L114.289 297.624L114.29 297.624L114.293 297.624L114.307 297.623L114.363 297.62C114.413 297.618 114.486 297.615 114.581 297.611C114.772 297.603 115.049 297.591 115.395 297.579C116.089 297.555 117.059 297.528 118.169 297.514C120.392 297.486 123.153 297.512 125.35 297.727C127.543 297.942 130.373 298.507 132.668 299.023C133.813 299.28 134.819 299.524 135.539 299.703C135.899 299.793 136.188 299.866 136.386 299.917C136.485 299.943 136.561 299.963 136.613 299.976L136.671 299.992L136.686 299.996L136.689 299.997L136.69 299.997L136.69 299.997L136.819 299.514Z" fill="#FB8500" stroke="#CC5B1D"/>
<path d="M107.043 295.716L106.94 296.205L107.511 296.326L107.543 295.743L107.798 291.08L107.825 290.581L107.326 290.554L84.6787 289.325L84.1794 289.298L84.1521 289.797L83.8969 294.46L83.865 295.044L84.4462 294.985L84.3961 294.487L84.4462 294.985L84.4464 294.985L84.4472 294.985L84.4506 294.984L84.4646 294.983L84.5205 294.978C84.5698 294.973 84.6429 294.966 84.7377 294.957C84.9272 294.939 85.2034 294.914 85.549 294.884C86.2401 294.824 87.2082 294.747 88.3152 294.676C90.534 294.534 93.2929 294.419 95.498 294.521C97.699 294.622 100.554 295.042 102.873 295.439C104.029 295.637 105.047 295.829 105.775 295.971C106.139 296.042 106.431 296.101 106.631 296.142C106.732 296.162 106.809 296.178 106.861 296.189L106.92 296.201L106.935 296.204L106.939 296.205L106.94 296.205L106.94 296.205L107.043 295.716Z" fill="#FB8500" stroke="#CC5B1D"/>
</svg>
