<svg width="178" height="263" viewBox="0 0 178 263" fill="none" xmlns="http://www.w3.org/2000/svg">
<line y1="-1" x2="12.4468" y2="-1" transform="matrix(0.715726 -0.698381 0.697956 0.71614 115.992 245.603)" stroke="#CC5B1D" stroke-width="2"/>
<line y1="-1" x2="12.4468" y2="-1" transform="matrix(0.697957 0.71614 -0.715727 0.69838 114.926 236.803)" stroke="#CC5B1D" stroke-width="2"/>
<path d="M109.984 249.025L110.275 248.952L110.203 248.661L109.629 246.346L109.543 245.997L109.215 246.145L109.215 246.145L109.215 246.145L109.214 246.145L109.213 246.146L109.206 246.149L109.179 246.161C109.155 246.171 109.119 246.187 109.073 246.208C108.98 246.248 108.844 246.307 108.674 246.379C108.333 246.523 107.856 246.719 107.308 246.929C106.208 247.35 104.84 247.818 103.729 248.029C102.596 248.244 101.098 248.485 99.8802 248.672C99.2719 248.766 98.7347 248.846 98.3495 248.903C98.1569 248.931 98.0024 248.953 97.896 248.969L97.7739 248.986L97.7423 248.991L97.7343 248.992L97.7323 248.992L97.7318 248.992L97.7317 248.992L97.774 249.289L97.7317 248.992L97.4029 249.039L97.4828 249.362L98.0565 251.677L98.1286 251.968L98.4198 251.896L109.984 249.025Z" fill="#FB8500" stroke="#BF5F29" stroke-width="0.6"/>
<path d="M13.2615 218.082L13.0882 217.838L12.8433 218.011L10.8958 219.388L10.6025 219.595L10.8591 219.847L10.8591 219.847L10.8591 219.847L10.8594 219.847L10.8607 219.848L10.8659 219.854L10.8871 219.875C10.9058 219.893 10.9336 219.921 10.9695 219.957C11.0412 220.028 11.1453 220.133 11.2742 220.266C11.5321 220.53 11.8887 220.903 12.2834 221.337C13.0762 222.209 14.0103 223.312 14.6112 224.27C15.224 225.247 15.9938 226.555 16.6115 227.621C16.9201 228.153 17.1902 228.625 17.3832 228.963C17.4797 229.132 17.5569 229.267 17.61 229.361L17.6709 229.468L17.6866 229.496L17.6906 229.503L17.6916 229.505L17.6918 229.505L17.6919 229.505L17.9531 229.358L17.6919 229.505L17.8553 229.794L18.1265 229.603L20.0739 228.226L20.3188 228.052L20.1455 227.808L13.2615 218.082Z" fill="#FB8500" stroke="#BF5F29" stroke-width="0.6"/>
<path d="M81.5679 248.054L81.6525 247.766L81.3175 247.668L81.2706 248.014L80.9497 250.377L80.9093 250.675L81.2066 250.715L92.8886 252.295L93.1859 252.335L93.2263 252.038L93.5472 249.675L93.5942 249.328L93.2447 249.335L93.2499 249.634L93.2447 249.335L93.2446 249.335L93.2442 249.335L93.2424 249.335L93.2351 249.335L93.206 249.335L93.0928 249.337C92.9939 249.338 92.8499 249.339 92.6698 249.34C92.3096 249.341 91.8052 249.339 91.2292 249.329C90.0744 249.307 88.6422 249.25 87.506 249.105C86.3722 248.961 84.912 248.628 83.727 248.328C83.1363 248.178 82.6172 248.037 82.2459 247.934C82.0602 247.883 81.9116 247.841 81.8095 247.812L81.6925 247.778L81.6624 247.769L81.6549 247.767L81.6531 247.766L81.6526 247.766L81.6525 247.766L81.5679 248.054Z" fill="#FB8500" stroke="#BF5F29" stroke-width="0.6"/>
<path d="M33.7882 241.1L33.8874 240.817L33.5579 240.702L33.4934 241.045L33.0522 243.389L32.9967 243.684L33.2915 243.739L44.8776 245.914L45.1724 245.97L45.2279 245.675L45.6691 243.331L45.7337 242.987L45.3844 242.976L45.3742 243.275L45.3844 242.976L45.3843 242.976L45.3839 242.976L45.3821 242.975L45.3748 242.975L45.3457 242.974L45.2326 242.97C45.1338 242.966 44.9899 242.96 44.81 242.951C44.4502 242.934 43.9466 242.907 43.3719 242.867C42.2196 242.787 40.7922 242.656 39.6649 242.453C38.54 242.251 37.0986 241.844 35.9306 241.484C35.3483 241.304 34.837 241.137 34.4714 241.016C34.2887 240.955 34.1424 240.905 34.0419 240.871L33.9268 240.831L33.8972 240.821L33.8898 240.818L33.888 240.817L33.8876 240.817L33.8875 240.817L33.7882 241.1Z" fill="#FB8500" stroke="#BF5F29" stroke-width="0.6"/>
<path d="M22.1525 231.662L22.3922 231.482L22.1823 231.203L21.938 231.452L20.2694 233.157L20.0595 233.371L20.2739 233.581L28.701 241.824L28.9155 242.034L29.1254 241.819L30.794 240.115L31.0386 239.865L30.7545 239.662L30.5796 239.905L30.7545 239.662L30.7544 239.662L30.7541 239.661L30.7526 239.66L30.7467 239.656L30.7231 239.639L30.6314 239.573C30.5515 239.515 30.4352 239.43 30.2904 239.322C30.0007 239.108 29.597 238.806 29.1413 238.454C28.2276 237.747 27.1132 236.845 26.2881 236.051C25.4648 235.258 24.4925 234.119 23.7211 233.171C23.3366 232.698 23.0041 232.275 22.7677 231.971C22.6496 231.819 22.5555 231.696 22.4911 231.612L22.4174 231.515L22.3985 231.49L22.3937 231.484L22.3926 231.482L22.3923 231.482L22.3922 231.482L22.1525 231.662Z" fill="#FB8500" stroke="#BF5F29" stroke-width="0.6"/>
<path d="M76.6333 249.217L76.5526 249.506L76.8898 249.6L76.9312 249.252L77.2133 246.884L77.2488 246.586L76.9509 246.55L65.4486 245.186L65.1507 245.15L65.1152 245.448L64.8331 247.817L64.7916 248.165L65.1419 248.152L65.131 247.852L65.1419 248.152L65.142 248.152L65.1424 248.152L65.1441 248.152L65.1513 248.151L65.1798 248.15L65.2911 248.147C65.3882 248.144 65.5296 248.14 65.7066 248.136C66.0605 248.128 66.5561 248.12 67.1222 248.12C68.2573 248.12 69.6651 248.152 70.7831 248.275C71.8987 248.399 73.3378 248.705 74.5065 248.983C75.089 249.121 75.601 249.252 75.9673 249.348C76.1504 249.396 76.297 249.436 76.3977 249.463L76.5132 249.495L76.5428 249.503L76.5503 249.505L76.5521 249.505L76.5525 249.506L76.5526 249.506L76.6333 249.217Z" fill="#FB8500" stroke="#BF5F29" stroke-width="0.6"/>
<path d="M61.4524 247.086L61.3866 247.379L61.7282 247.456L61.7517 247.106L61.912 244.727L61.9321 244.427L61.6328 244.407L50.0756 243.635L49.7763 243.615L49.7561 243.914L49.5959 246.294L49.5723 246.643L49.9215 246.612L49.8952 246.314L49.9215 246.612L49.9216 246.612L49.922 246.612L49.9237 246.612L49.9308 246.612L49.9593 246.609L50.0702 246.6C50.167 246.592 50.3081 246.581 50.4846 246.568C50.8377 246.542 51.3322 246.509 51.8976 246.48C53.0312 246.421 54.4387 246.38 55.5616 246.446C56.682 246.512 58.135 246.744 59.3163 246.962C59.9052 247.071 60.4233 247.175 60.794 247.252C60.9794 247.291 61.1278 247.323 61.2298 247.345L61.3467 247.37L61.3767 247.377L61.3843 247.379L61.3861 247.379L61.3865 247.379L61.3866 247.379L61.4524 247.086Z" fill="#FB8500" stroke="#BF5F29" stroke-width="0.6"/>
<path d="M44.0297 3.72699L43.7565 3.60303L43.6324 3.87617L42.7267 5.87L42.5781 6.19707L42.9265 6.28481L42.9265 6.28481L42.9266 6.28483L42.9269 6.28491L42.9285 6.28531L42.935 6.28697L42.9614 6.29373C42.9848 6.29974 43.0196 6.30874 43.0646 6.32057C43.1547 6.34424 43.2857 6.37922 43.4491 6.42431C43.7758 6.51452 44.2311 6.64502 44.7447 6.80604C45.7767 7.12956 47.0264 7.57091 47.9446 8.05082C48.8825 8.5411 50.0983 9.22115 51.0817 9.77992C51.573 10.059 52.0054 10.3074 52.315 10.486C52.4698 10.5753 52.5939 10.6471 52.6792 10.6966L52.7771 10.7535L52.8025 10.7682L52.8089 10.7719L52.8105 10.7729L52.8109 10.7731L52.811 10.7731L52.9621 10.514L52.811 10.7732L53.0979 10.9403L53.2353 10.6379L54.1411 8.64412L54.2651 8.37098L53.9919 8.24703L44.0297 3.72699Z" fill="#2FE12C" stroke="#13702D" stroke-width="0.6"/>
<path d="M118.995 49.8203L118.815 49.5801L118.575 49.7596L116.82 51.0704L116.533 51.2854L116.796 51.5302L116.796 51.5302L116.796 51.5302L116.796 51.5305L116.797 51.5316L116.802 51.5362L116.822 51.5548C116.84 51.5714 116.866 51.596 116.899 51.6281C116.967 51.6922 117.065 51.786 117.186 51.9042C117.429 52.1407 117.765 52.4744 118.138 52.8629C118.886 53.6436 119.769 54.6325 120.342 55.4954C120.928 56.3769 121.665 57.5585 122.258 58.522C122.554 59.0033 122.813 59.4293 122.999 59.7349C123.091 59.8877 123.165 60.0105 123.216 60.0949L123.275 60.192L123.29 60.217L123.294 60.2234L123.295 60.225L123.295 60.2254L123.295 60.2255L123.552 60.0712L123.295 60.2255L123.466 60.5102L123.732 60.3114L125.486 59.0007L125.726 58.8211L125.547 58.5809L118.995 49.8203Z" fill="#2FE12C" stroke="#13702D" stroke-width="0.6"/>
<path d="M55.6305 10.0001L55.8815 9.83577L55.6901 9.54379L55.4301 9.77682L53.7995 11.2385L53.5761 11.4388L53.7764 11.6621L61.0046 19.7183L61.2049 19.9416L61.4283 19.7413L63.059 18.2796L63.3193 18.0463L63.0491 17.8245L62.8586 18.0563L63.0491 17.8245L63.049 17.8245L63.0487 17.8242L63.0474 17.8232L63.0423 17.819L63.0217 17.802L62.9417 17.7357C62.872 17.6777 62.7706 17.5929 62.6444 17.4862C62.3919 17.2728 62.0402 16.9718 61.6439 16.6218C60.8492 15.92 59.8829 15.0281 59.1754 14.2519C58.4695 13.4776 57.6475 12.3766 56.9975 11.4619C56.6736 11.006 56.3943 10.5991 56.1961 10.3062C56.097 10.1598 56.0182 10.0419 55.9642 9.96077L55.9025 9.86766L55.8867 9.84368L55.8827 9.83767L55.8818 9.8362L55.8815 9.83585L55.8815 9.83578L55.6305 10.0001Z" fill="#2FE12C" stroke="#13702D" stroke-width="0.6"/>
<path d="M106.067 40.7449L105.867 40.9686L106.127 41.2011L106.318 40.9087L107.515 39.0748L107.679 38.8235L107.428 38.6597L98.3607 32.7488L98.1094 32.5849L97.9454 32.8362L96.7486 34.6701L96.5576 34.9629L96.876 35.1071L96.9999 34.834L96.876 35.1072L96.8761 35.1072L96.8764 35.1073L96.8779 35.108L96.884 35.1108L96.9082 35.1218L97.0027 35.1652C97.085 35.2032 97.2049 35.2588 97.3544 35.3292C97.6536 35.47 98.0712 35.6697 98.5446 35.9052C99.4939 36.3774 100.658 36.9888 101.542 37.5554C102.425 38.1207 103.504 38.9714 104.368 39.6867C104.799 40.0432 105.174 40.364 105.441 40.5956C105.575 40.7114 105.682 40.8049 105.755 40.8693L105.838 40.9432L105.86 40.9623L105.865 40.9671L105.867 40.9682L105.867 40.9685L105.867 40.9686L106.067 40.7449Z" fill="#2FE12C" stroke="#13702D" stroke-width="0.6"/>
<path d="M116.278 49.6476L116.052 49.8452L116.282 50.1078L116.507 49.8409L117.919 48.1667L118.112 47.9374L117.883 47.7441L109.605 40.7706L109.376 40.5773L109.182 40.8066L107.771 42.4808L107.545 42.748L107.844 42.9301L108 42.6741L107.844 42.9301L107.844 42.9301L107.844 42.9303L107.845 42.9312L107.851 42.9346L107.874 42.9486L107.962 43.0031C108.039 43.0509 108.152 43.1207 108.291 43.2089C108.571 43.3851 108.961 43.6343 109.402 43.9259C110.287 44.5104 111.368 45.2594 112.176 45.9297C112.983 46.5984 113.95 47.5744 114.721 48.39C115.105 48.7964 115.438 49.1606 115.675 49.4231C115.793 49.5543 115.888 49.6601 115.953 49.7329L116.027 49.8166L116.046 49.8381L116.05 49.8435L116.052 49.8448L116.052 49.8451L116.052 49.8452L116.278 49.6476Z" fill="#2FE12C" stroke="#13702D" stroke-width="0.6"/>
<path d="M75.6251 23L75.7538 22.729L75.4375 22.579L75.3376 22.9145L74.7124 25.0133L74.6268 25.3008L74.9143 25.3863L85.1081 28.4174L85.3957 28.5029L85.4813 28.2154L86.1065 26.1166L86.2065 25.7807L85.8592 25.7338L85.8189 26.0311L85.8592 25.7338L85.8591 25.7338L85.8587 25.7338L85.8571 25.7335L85.8507 25.7327L85.8247 25.7291L85.7236 25.7149C85.6354 25.7024 85.5068 25.6839 85.3462 25.6598C85.0248 25.6116 84.5754 25.5413 84.0634 25.453C83.0367 25.2758 81.7689 25.0278 80.778 24.7418C79.7895 24.4565 78.5363 23.9552 77.5226 23.5212C77.0174 23.3049 76.5748 23.1066 76.2585 22.9625C76.1004 22.8904 75.9739 22.8319 75.8871 22.7915L75.7877 22.745L75.7622 22.7329L75.7558 22.7299L75.7542 22.7292L75.7539 22.729L75.7538 22.729L75.6251 23Z" fill="#2FE12C" stroke="#13702D" stroke-width="0.6"/>
<path d="M63.8153 19L63.9684 18.7419L63.6672 18.5635L63.5368 18.8884L62.7213 20.9208L62.6096 21.1992L62.888 21.3108L72.7598 25.2667L73.0383 25.3783L73.15 25.0999L73.9656 23.0675L74.0961 22.7422L73.7545 22.6636L73.6871 22.9559L73.7545 22.6636L73.7544 22.6636L73.7541 22.6635L73.7525 22.6631L73.7461 22.6616L73.7206 22.6557L73.6213 22.6323C73.5345 22.6117 73.4082 22.5814 73.2505 22.5427C72.935 22.4651 72.4939 22.3538 71.9922 22.2188C70.9861 21.9479 69.7465 21.5843 68.7861 21.2083C67.828 20.8333 66.6263 20.2189 65.6568 19.6935C65.1736 19.4317 64.7511 19.1935 64.4494 19.0209C64.2986 18.9346 64.1781 18.8647 64.0954 18.8165L64.0007 18.761L63.9763 18.7467L63.9703 18.7431L63.9688 18.7422L63.9684 18.742L63.9684 18.742L63.8153 19Z" fill="#2FE12C" stroke="#13702D" stroke-width="0.6"/>
<path d="M95.4513 33.8213L95.2744 34.0636L95.5573 34.2699L95.7179 33.9588L96.7228 32.0131L96.8605 31.7465L96.5938 31.609L87.1424 26.7333L86.8758 26.5958L86.7382 26.8624L85.7333 28.8081L85.5724 29.1195L85.905 29.2302L85.9999 28.9456L85.905 29.2302L85.9051 29.2303L85.9054 29.2304L85.907 29.2309L85.9132 29.2329L85.938 29.2413L86.0347 29.274C86.1191 29.3027 86.2419 29.3449 86.3952 29.3985C86.702 29.5056 87.1305 29.6583 87.6171 29.8404C88.5929 30.2056 89.7924 30.6853 90.7127 31.1508C91.6308 31.6151 92.7688 32.3409 93.684 32.956C94.1401 33.2626 94.5381 33.5398 94.822 33.7403C94.964 33.8405 95.0773 33.9215 95.1551 33.9774L95.2441 34.0416L95.2669 34.0582L95.2726 34.0623L95.274 34.0633L95.2744 34.0636L95.2744 34.0636L95.4513 33.8213Z" fill="#2FE12C" stroke="#13702D" stroke-width="0.6"/>
<path d="M152.32 116.275L152.394 115.984L152.103 115.91L149.361 115.213L149.013 115.125L148.988 115.483L149.287 115.504L148.988 115.483L148.988 115.483L148.988 115.484L148.988 115.486L148.987 115.495L148.985 115.53C148.983 115.561 148.979 115.608 148.974 115.668C148.965 115.788 148.95 115.963 148.93 116.181C148.89 116.618 148.828 117.228 148.74 117.919C148.564 119.306 148.287 121.002 147.884 122.286C147.474 123.592 146.886 125.294 146.4 126.672C146.157 127.361 145.94 127.968 145.783 128.402C145.705 128.619 145.642 128.794 145.599 128.913L145.549 129.051L145.536 129.087L145.532 129.096L145.532 129.098L145.531 129.098L145.531 129.099L145.813 129.202L145.531 129.099L145.417 129.411L145.739 129.492L148.481 130.189L148.772 130.263L148.846 129.972L152.32 116.275Z" fill="#2FE12C" stroke="#13702D" stroke-width="0.6"/>
<path d="M147.959 133.328L148.069 133.049L147.79 132.939L145.159 131.901L144.825 131.769L144.755 132.122L145.049 132.18L144.755 132.122L144.755 132.122L144.755 132.122L144.754 132.124L144.752 132.133L144.745 132.168C144.739 132.198 144.73 132.244 144.717 132.303C144.693 132.421 144.656 132.593 144.609 132.807C144.513 133.235 144.375 133.832 144.2 134.506C143.85 135.86 143.361 137.507 142.798 138.73C142.226 139.974 141.428 141.588 140.771 142.893C140.443 143.546 140.151 144.12 139.941 144.531C139.836 144.737 139.751 144.902 139.693 145.015L139.626 145.145L139.608 145.179L139.604 145.187L139.603 145.189L139.603 145.19L139.603 145.19L139.869 145.328L139.603 145.19L139.45 145.485L139.759 145.607L142.391 146.645L142.67 146.755L142.78 146.476L147.959 133.328Z" fill="#2FE12C" stroke="#13702D" stroke-width="0.6"/>
<path d="M59.3517 187.727L59.0604 187.799L59.1319 188.09L59.8063 190.837L59.8919 191.186L60.2199 191.04L60.0976 190.766L60.2199 191.04L60.22 191.04L60.2205 191.039L60.2224 191.039L60.2305 191.035L60.2629 191.021C60.2916 191.008 60.3342 190.989 60.3895 190.965C60.5001 190.917 60.6614 190.848 60.8636 190.763C61.268 190.593 61.8353 190.361 62.4863 190.114C63.793 189.617 65.4201 189.063 66.7434 188.815C68.0887 188.563 69.8673 188.281 71.312 188.062C72.0339 187.952 72.6714 187.859 73.1285 187.793C73.357 187.76 73.5404 187.733 73.6666 187.715L73.8115 187.695L73.849 187.689L73.8585 187.688L73.8609 187.688L73.8615 187.688L73.8616 187.688L73.82 187.39L73.8617 187.688L74.1905 187.641L74.1114 187.319L73.437 184.572L73.3655 184.28L73.0741 184.352L59.3517 187.727Z" fill="#FB8500" stroke="#CC5B1D" stroke-width="0.6"/>
<path d="M45.3122 194.318L45.043 194.45L45.1754 194.72L46.4238 197.258L46.5823 197.58L46.8712 197.367L46.693 197.126L46.8712 197.367L46.8713 197.367L46.8717 197.366L46.8734 197.365L46.8805 197.36L46.9091 197.339C46.9344 197.32 46.972 197.293 47.0208 197.258C47.1185 197.187 47.2612 197.085 47.4404 196.958C47.7989 196.705 48.3032 196.357 48.886 195.976C50.0556 195.21 51.5259 194.32 52.7651 193.794C54.0249 193.258 55.7015 192.602 57.0656 192.078C57.7471 191.816 58.3497 191.587 58.7819 191.425C58.998 191.343 59.1715 191.278 59.2909 191.234L59.428 191.182L59.4635 191.169L59.4725 191.166L59.4747 191.165L59.4753 191.165L59.4754 191.165L59.371 190.883L59.4755 191.165L59.7867 191.049L59.6402 190.751L58.3918 188.212L58.2594 187.943L57.9903 188.076L45.3122 194.318Z" fill="#FB8500" stroke="#CC5B1D" stroke-width="0.6"/>
<path d="M33.8864 206.402L33.6914 206.629L33.9192 206.825L36.0675 208.665L36.3403 208.899L36.5215 208.589L36.2626 208.437L36.5215 208.589L36.5216 208.588L36.5218 208.588L36.5229 208.586L36.5274 208.579L36.5454 208.548C36.5613 208.521 36.585 208.481 36.616 208.429C36.6779 208.326 36.7686 208.175 36.8834 207.989C37.1132 207.615 37.4393 207.096 37.8244 206.516C38.5972 205.351 39.5975 203.953 40.5286 202.981C41.4752 201.992 42.7568 200.727 43.8037 199.708C44.3268 199.198 44.7905 198.751 45.1235 198.431C45.2899 198.271 45.4237 198.143 45.5158 198.054L45.6216 197.953L45.649 197.927L45.656 197.921L45.6577 197.919L45.6581 197.918L45.6582 197.918L45.4514 197.701L45.6583 197.918L45.8987 197.689L45.6465 197.473L43.4982 195.633L43.2703 195.438L43.0753 195.665L33.8864 206.402Z" fill="#FB8500" stroke="#CC5B1D" stroke-width="0.6"/>
<path d="M130.167 158.926L129.954 158.715L129.709 158.964L129.992 159.169L132.283 160.828L132.526 161.004L132.702 160.761L140.896 149.432L141.072 149.189L140.829 149.013L138.538 147.354L138.255 147.149L138.095 147.46L138.362 147.597L138.095 147.46L138.095 147.46L138.095 147.461L138.094 147.463L138.09 147.47L138.074 147.501L138.012 147.621C137.958 147.725 137.878 147.876 137.778 148.065C137.577 148.442 137.293 148.969 136.959 149.566C136.29 150.762 135.427 152.229 134.637 153.338C133.849 154.446 132.681 155.788 131.704 156.859C131.216 157.393 130.778 157.858 130.462 158.188C130.305 158.354 130.177 158.486 130.089 158.576C130.045 158.621 130.011 158.656 129.988 158.68L129.962 158.706L129.956 158.713L129.954 158.715L129.954 158.715L129.954 158.715L130.167 158.926Z" fill="#2FE12C" stroke="#13702D" stroke-width="0.6"/>
<path d="M90.8621 181.347L90.8139 181.05L90.4693 181.107L90.5766 181.439L91.4459 184.131L91.538 184.416L91.8235 184.324L105.126 180.022L105.412 179.929L105.32 179.644L104.45 176.952L104.343 176.619L104.031 176.776L104.165 177.044L104.031 176.776L104.03 176.776L104.03 176.776L104.028 176.777L104.02 176.781L103.989 176.797L103.869 176.856C103.764 176.908 103.61 176.984 103.418 177.077C103.033 177.263 102.492 177.52 101.871 177.805C100.624 178.374 99.0609 179.048 97.7688 179.478C96.479 179.906 94.7437 180.299 93.3223 180.586C92.6134 180.729 91.9858 180.846 91.5355 180.926C91.3104 180.966 91.1297 180.997 91.0054 181.018C90.9433 181.029 90.8952 181.037 90.8628 181.042L90.8261 181.048L90.8168 181.05L90.8146 181.05L90.814 181.05L90.8139 181.05L90.8621 181.347Z" fill="#FB8500" stroke="#CC5B1D" stroke-width="0.6"/>
<path d="M74.9922 184.915L74.9739 184.616L74.6255 184.637L74.6989 184.978L75.2939 187.744L75.357 188.037L75.6503 187.974L89.3175 185.027L89.6108 184.964L89.5477 184.67L88.9527 181.905L88.8792 181.563L88.5526 181.688L88.6594 181.968L88.5526 181.688L88.5525 181.688L88.552 181.688L88.55 181.689L88.5419 181.692L88.5096 181.704L88.3836 181.751C88.2737 181.793 88.1135 181.852 87.9127 181.925C87.511 182.072 86.9475 182.274 86.3003 182.495C85.0033 182.937 83.3802 183.451 82.0515 183.748C80.7252 184.045 78.9592 184.262 77.5163 184.405C76.7966 184.477 76.1605 184.529 75.7044 184.564C75.4764 184.582 75.2935 184.594 75.1677 184.603C75.1048 184.607 75.0562 184.61 75.0234 184.613L74.9863 184.615L74.9769 184.616L74.9746 184.616L74.9741 184.616L74.974 184.616L74.9922 184.915Z" fill="#FB8500" stroke="#CC5B1D" stroke-width="0.6"/>
<path d="M119.278 169.064L119.114 168.812L118.821 169.004L119.055 169.264L120.946 171.368L121.147 171.591L121.37 171.39L131.581 162.201L131.804 162L131.604 161.777L129.712 159.673L129.478 159.413L129.257 159.685L129.489 159.874L129.257 159.685L129.257 159.685L129.256 159.685L129.255 159.687L129.25 159.693L129.228 159.72L129.144 159.822C129.071 159.911 128.964 160.04 128.829 160.201C128.559 160.523 128.178 160.971 127.735 161.477C126.847 162.489 125.716 163.722 124.73 164.624C123.745 165.525 122.344 166.571 121.182 167.395C120.602 167.807 120.085 168.161 119.712 168.413C119.526 168.539 119.376 168.639 119.273 168.707C119.221 168.742 119.181 168.768 119.154 168.786L119.124 168.806L119.116 168.811L119.114 168.812L119.114 168.812L119.114 168.812L119.278 169.064Z" fill="#2FE12C" stroke="#13702D" stroke-width="0.6"/>
<path d="M119.634 172.769L119.973 172.599L119.731 172.308L117.73 169.908L117.549 169.691L117.322 169.859L117.5 170.1L117.322 169.859L117.322 169.859L117.321 169.859L117.319 169.861L117.313 169.866L117.286 169.885L117.184 169.96C117.094 170.026 116.965 170.119 116.806 170.234C116.488 170.463 116.05 170.773 115.572 171.1C114.605 171.762 113.507 172.467 112.886 172.723C112.228 172.993 110.475 173.745 108.89 174.427C108.097 174.768 107.345 175.093 106.791 175.332L106.128 175.618L105.945 175.697L105.897 175.718L105.885 175.723L105.882 175.724L105.881 175.725L105.881 175.725L106 176L105.881 175.725L105.567 175.861L105.743 176.155L107.243 178.655L107.386 178.893L107.634 178.769L119.634 172.769Z" fill="#FFF129" stroke="#F4C222" stroke-width="0.6"/>
</svg>
