<svg width="143" height="104" viewBox="0 0 143 104" fill="none" xmlns="http://www.w3.org/2000/svg">
<path d="M65.5196 22.4711C49.1286 24.0287 32.9088 29.2152 18.9149 39.8531C13.6536 43.8559 7.59839 50.4443 6.46207 59.0418C5.62151 65.6925 6.46206 74.4302 9.80876 80.193C11.8272 83.9299 15.0153 86.901 18.8838 88.6504C34.73 94.678 50.2649 80.0529 64.2899 74.2589C75.9644 69.4305 88.4173 71.9226 100.543 70.2404C110.941 68.7919 128.562 63.4963 129.932 46.3791C130.383 40.9745 129.839 34.4796 126.134 30.8039C122.772 27.4864 118.024 27.0503 114.179 26.3649C102.157 24.1003 89.9906 22.6795 77.7701 22.1129C73.6832 21.957 69.5905 22.0767 65.5196 22.4711Z" fill="#00D8E7"/>
<g opacity="0.3">
<path opacity="0.3" d="M67.5743 17.8764C48.755 19.6364 30.2158 25.9132 14.2762 39.2456C8.31443 44.2453 1.44981 52.5469 0.26679 63.4963C-0.589342 71.9693 0.562543 83.1367 4.48518 90.535C7.14698 95.5502 11.0541 99.74 15.0545 101.438C33.3757 109.381 50.9809 91.0022 67.0139 83.8532C80.354 77.8879 94.7059 81.2677 108.622 79.3364C120.561 77.6698 140.719 71.2217 142.027 49.4163C142.431 42.532 141.7 34.246 137.357 29.5111C133.434 25.2435 128.017 24.5893 123.534 23.6393C109.699 20.5508 95.649 18.5202 81.5059 17.5649C76.8608 17.3223 72.204 17.4264 67.5743 17.8764Z" fill="#2A81BC"/>
</g>
<path d="M63.7606 25.7419C49.6535 26.8547 36.155 31.9656 24.8455 40.4761C20.4559 43.8871 15.3969 49.4942 14.4941 56.8457C13.7936 62.5151 14.4941 69.9912 17.3427 74.9286C19.0222 78.1147 21.7023 80.6596 24.97 82.1711C38.2479 87.3576 51.2144 74.8975 62.9512 69.9757C72.7266 65.8794 83.187 68.0287 93.3205 66.627C102.022 65.4121 116.763 60.9264 117.884 46.3791C118.226 41.7066 117.775 36.2085 114.646 33.0779C111.829 30.2432 107.859 29.8538 104.637 29.2464C94.5375 27.2616 84.3116 25.9865 74.0342 25.4304C70.6066 25.2902 67.1734 25.3943 63.7606 25.7419Z" fill="#E2B045"/>
<path d="M66.1267 23.6548C54.594 24.5368 43.5839 28.8306 34.4965 35.9904C30.9475 38.8563 26.8536 43.6067 26.1687 49.8368C25.6239 54.6496 26.2777 61.0043 28.5659 65.2096C29.9118 67.9066 32.0969 70.093 34.7923 71.4397C45.6107 75.9098 56.0866 65.3965 65.613 61.2691C73.5206 57.8269 82.0196 59.7115 90.2696 58.5745C97.3522 57.5777 109.307 53.902 110.147 41.4418C110.412 37.5324 110.007 32.8131 107.455 30.1341C105.151 27.72 101.913 27.3617 99.2824 26.8477C91.0738 25.1249 82.7493 24.0109 74.3767 23.5146C71.627 23.3616 68.8697 23.4085 66.1267 23.6548Z" fill="#FFEA96"/>
<path d="M53.4137 29.8623L51.25 35.4694L54.3632 39.4411L56.7448 37.7434L53.4137 29.8623Z" fill="#916245"/>
<path d="M54.3165 39.5501L51.2032 35.5628L53.4603 29.691V29.8779L56.7915 37.8212L54.3165 39.5501ZM51.3745 35.4694L54.3787 39.3165L56.6358 37.759L53.3981 30.1271L51.3745 35.4694Z" fill="#6E452B"/>
<path d="M54.0208 44.5342H49.7401L49.8802 41.2011L48.3236 40.251V31.8404L55.2194 30.0025L54.6901 37.3229L54.0208 44.5342Z" fill="#96A499"/>
<path d="M45.0858 29.2081L45.1792 41.4192L40.5094 42.011L40.9297 28.4294L45.0858 29.2081Z" fill="#57564A"/>
<path d="M49.7401 44.5809L46.3623 42.011L45.0703 35.7809L46.2689 29.7689L48.6816 33.3823L49.1486 38.2262L51.0477 38.7714L49.7401 44.5809Z" fill="#57564A"/>
<path d="M44.5721 43.7866L40.8829 42.0733L42.891 32.7281L44.8367 32.8839L44.9924 30.2361L46.0197 34.5348L44.5721 43.7866Z" fill="#96A499"/>
<path d="M62.8467 25.8283L63.7184 28.7409L59.9514 27.8998L62.8467 25.8283Z" fill="#57564A"/>
<path d="M61.1967 45.1105L54.083 44.5342L54.799 37.3696L55.3283 30.0492L58.4415 27.9622L61.3056 37.3073L61.1967 45.1105Z" fill="#57564A"/>
<path d="M64.3099 28.5851L59.033 30.1427L58.457 34.5037L59.858 39.7059L61.1811 45.1728L63.5783 43.5218L64.2787 38.2885L64.3099 28.5851Z" fill="#96A499"/>
<path d="M64.8702 42.1823L62.3486 42.8521L62.94 38.3508L60.7141 32.7126L63.0646 28.04V32.7126L65.8042 34.7373L64.8702 42.1823Z" fill="#96A499"/>
<path d="M56.2466 22.0435L61.6636 25.2988L59.1108 27.417L63.0801 28.0556L57.6009 31.1706L54.0829 29.5352L51.7325 31.451L56.5268 35.3136L53.5537 36.8712L47.4985 32.9151L45.0858 29.3016L40.8518 28.5229L42.0348 25.9685L40.3693 25.1274L44.0895 24.1929L44.9301 22.8534L49.491 21L56.2466 22.0435Z" fill="#B8C8BA"/>
<path d="M36.7424 40.2977L38.7505 30.9526V26.1554L40.3071 25.0651L41.9726 25.9062L40.7896 28.4605L41.4278 31.046L40.1981 36.3572L36.7424 40.2977Z" fill="#57564A"/>
<path d="M53.5537 36.7777L52.8376 43.9423L54.8924 45.4999L57.6164 45.3908L56.5268 35.2669L53.5537 36.7777Z" fill="#96A499"/>
<path d="M54.7368 37.3696L56.0755 46.0606L54.0208 44.503L54.7368 37.3696Z" fill="#57564A"/>
<path d="M45.4752 46.8705C45.0549 46.8705 43.3893 47.4467 44.0431 44.8612C44.4011 43.989 45.6931 44.3005 45.6931 44.3005C45.6931 44.3005 45.5219 42.1979 48.9308 42.3536C49.2889 41.4814 52.5266 39.6591 53.6007 42.8365C53.9515 42.6937 54.3291 42.629 54.7074 42.6467C55.0857 42.6643 55.4556 42.764 55.7917 42.9388C56.1277 43.1135 56.4218 43.3593 56.6535 43.6589C56.8853 43.9586 57.0493 44.305 57.1341 44.6743C58.4573 45.422 58.395 44.5809 58.5662 46.6835C58.7374 48.7862 58.6907 48.3657 58.3016 48.8174C57.9124 49.2691 50.7209 49.4092 49.8804 49.4871C49.0398 49.565 48.5417 48.7395 48.137 48.7707C47.7478 49.2223 46.0511 49.3625 45.9889 48.5214C45.9266 47.2287 45.8955 46.8237 45.4752 46.8705Z" fill="#4AA836"/>
<path d="M34.5789 42.1979C34.1587 42.1979 32.4931 42.7742 33.1469 40.1887C33.5049 39.3165 34.7969 39.628 34.7969 39.628C34.7969 39.628 34.6256 37.5253 38.0346 37.6811C38.3926 36.8089 41.6304 34.9866 42.7044 38.1639C43.0552 38.0212 43.4328 37.9564 43.8111 37.9741C44.1894 37.9918 44.5594 38.0914 44.8954 38.2662C45.2314 38.441 45.5255 38.6867 45.7573 38.9864C45.9891 39.286 46.1531 39.6325 46.2379 40.0018C47.561 40.7494 47.4987 39.9083 47.67 42.011C47.8412 44.1136 47.7945 43.6931 47.4053 44.1448C47.0162 44.5965 39.8247 44.7367 38.9841 44.8145C38.1436 44.8924 37.6455 44.0669 37.2407 44.0981C36.8516 44.5498 35.1549 44.6899 35.0926 43.8489C35.0304 42.5561 34.9992 42.1512 34.5789 42.1979Z" fill="#4AA836"/>
<path d="M70.2921 34.1373C70.7689 34.3912 71.3166 34.4789 71.8487 34.3865C72.353 34.3058 72.8203 34.072 73.1874 33.7167C73.1874 33.7167 73.1874 21.8484 67.2879 17.3939C67.2879 17.3939 66.9765 17.5652 67.0077 17.7988C66.8987 17.7988 72.3313 23.5772 70.2921 34.1373Z" fill="#B7703B"/>
<path d="M70.5724 22.4091C71.9733 25.7111 74.0125 33.6233 70.2922 34.1373C70.7689 34.3912 71.3167 34.4789 71.8488 34.3865C72.3531 34.3058 72.8204 34.072 73.1875 33.7167C73.1875 33.7167 73.1875 21.8484 67.2879 17.3939C67.1918 17.451 67.1116 17.5313 67.0544 17.6275C67.0544 17.6275 68.7356 18.1882 70.5724 22.4091Z" fill="#994D08"/>
<path d="M70.4011 31.6452C70.6246 31.8155 70.878 31.9424 71.1483 32.019C71.4197 32.0816 71.7018 32.0816 71.9733 32.019C72.2531 31.9853 72.5231 31.8952 72.7672 31.7542C73.0059 31.6116 73.2168 31.4269 73.3898 31.2091L73.2497 30.4615C72.9932 30.9518 72.5587 31.3253 72.0356 31.505C71.5257 31.6781 70.969 31.6502 70.479 31.4271L70.4011 31.6452Z" fill="#D18316"/>
<path d="M73.2964 28.8105C72.9492 29.256 72.4396 29.5455 71.8793 29.6156C71.319 29.6857 70.7539 29.5306 70.3077 29.1843V28.4367C70.4875 28.6446 70.7066 28.815 70.9523 28.9379C71.1981 29.0609 71.4657 29.134 71.7398 29.1532C72.0193 29.1766 72.3006 29.1446 72.5677 29.0591C72.8348 28.9736 73.0824 28.8362 73.2964 28.6548V28.8105Z" fill="#D18316"/>
<path d="M70.4323 29.9319C70.8744 30.303 71.4396 30.4944 72.0161 30.4685C72.5926 30.4425 73.1384 30.201 73.5455 29.7918L73.4054 29.4491C73.0738 29.8878 72.5846 30.1803 72.0413 30.2646C71.4981 30.3489 70.9433 30.2184 70.4945 29.9008L70.4323 29.9319Z" fill="#B66612"/>
<path d="M72.2379 23.5305C71.891 23.9714 71.3845 24.258 70.828 24.3279C70.2715 24.3979 69.7099 24.2457 69.2648 23.9043V23.1567C69.4445 23.3646 69.6636 23.5349 69.9094 23.6579C70.1551 23.7808 70.4227 23.854 70.6968 23.8731C70.9763 23.8965 71.2577 23.8646 71.5248 23.7791C71.7919 23.6935 72.0395 23.5561 72.2534 23.3747L72.2379 23.5305Z" fill="#D18316"/>
<path d="M71.3662 22.0508C71.1945 22.2697 70.9814 22.4527 70.7391 22.5891C70.4967 22.7256 70.2299 22.813 69.9538 22.8463C69.6777 22.8795 69.3977 22.858 69.1299 22.783C68.8622 22.708 68.6118 22.5809 68.3931 22.4091V21.6614C68.5705 21.8721 68.789 22.0442 69.0353 22.1674C69.2815 22.2906 69.5503 22.3622 69.8251 22.3779C70.1046 22.4013 70.3859 22.3693 70.653 22.2838C70.9202 22.1983 71.1678 22.0609 71.3818 21.8795L71.3662 22.0508Z" fill="#D18316"/>
<path d="M69.6072 24.9634C70.0493 25.3345 70.6146 25.5259 71.191 25.5C71.7675 25.474 72.3133 25.2325 72.7204 24.8233L72.5803 24.465C72.2514 24.9027 71.765 25.1948 71.2243 25.2791C70.6836 25.3635 70.1314 25.2335 69.685 24.9167L69.6072 24.9634Z" fill="#B66612"/>
<path d="M69.3582 23.2034C69.9391 23.3145 70.5405 23.2151 71.0549 22.9231C71.5707 22.6368 71.9639 22.1714 72.1601 21.6148L71.9577 21.35C71.7777 21.8876 71.4281 22.3522 70.9615 22.6739C70.5078 22.9962 69.9609 23.1604 69.4049 23.1411L69.3582 23.2034Z" fill="#B66612"/>
<path d="M70.619 19.9326C70.619 19.9326 69.5138 22.0508 67.8171 21.2565L67.677 20.5089C67.677 20.5089 69.0935 21.6147 70.5567 19.808L70.619 19.9326Z" fill="#D18316"/>
<path d="M68.6266 21.6148C69.2181 21.72 69.8277 21.6036 70.3388 21.2877C70.8511 20.9795 71.2372 20.4992 71.4285 19.9326L71.2261 19.6523C71.0613 20.2017 70.7226 20.6827 70.261 21.0229C69.8077 21.3551 69.2658 21.5448 68.7044 21.568L68.6266 21.6148Z" fill="#B66612"/>
<path d="M69.6695 18.7801C69.3226 19.221 68.8161 19.5075 68.2596 19.5775C67.7032 19.6475 67.1415 19.4953 66.6964 19.1539V18.4062C67.0558 18.8225 67.5648 19.08 68.1129 19.1227C68.6772 19.1683 69.2366 18.9892 69.6695 18.6243V18.7801Z" fill="#D18316"/>
<path d="M67.6615 19.9326C68.2375 20.051 68.8368 19.959 69.3508 19.6733C69.8649 19.3875 70.2596 18.927 70.4634 18.3751L70.261 18.1103C70.0804 18.6474 69.7314 19.1118 69.2658 19.4345C68.8003 19.7572 68.2431 19.921 67.6771 19.9015L67.6615 19.9326Z" fill="#B66612"/>
<path d="M69.1091 17.2537C69.1091 17.2537 68.0039 19.3564 66.3072 18.562L66.1671 17.83C66.1671 17.83 67.5681 18.9358 69.0313 17.1291L69.1091 17.2537Z" fill="#D18316"/>
<path d="M67.0699 18.9202C67.6646 19.0181 68.2746 18.9011 68.7908 18.59C69.307 18.279 69.6957 17.7942 69.8874 17.2225L69.6695 16.9578C69.4969 17.5034 69.1597 17.9821 68.7044 18.3284C68.2534 18.6629 67.7091 18.8481 67.1478 18.8579L67.0699 18.9202Z" fill="#B66612"/>
<path d="M72.3313 25.5085C72.3313 25.5085 71.3974 27.7358 69.8563 26.7546L69.7318 25.9291C69.7318 25.9291 70.9926 27.2374 72.2691 25.3372L72.3313 25.5085Z" fill="#D18316"/>
<path d="M70.1831 27.3931C70.4148 27.5327 70.6754 27.6169 70.9449 27.6393C71.2144 27.6616 71.4853 27.6215 71.7368 27.5221C71.9883 27.4227 72.2135 27.2666 72.3948 27.0659C72.5762 26.8653 72.7089 26.6255 72.7826 26.3652L72.6114 26.0225C72.5453 26.2697 72.4301 26.5009 72.2725 26.7024C72.115 26.9039 71.9184 27.0715 71.6945 27.1951C71.4707 27.3188 71.2242 27.3959 70.9698 27.4219C70.7154 27.4479 70.4585 27.4222 70.2142 27.3464L70.1831 27.3931Z" fill="#B66612"/>
<path d="M73.2963 32.1125C72.8717 32.5027 72.3163 32.7195 71.7397 32.7199C71.1623 32.7241 70.6052 32.5068 70.1831 32.1125L70.2765 31.7543C70.6393 32.1685 71.1454 32.4301 71.693 32.4863C72.2464 32.5488 72.8029 32.3985 73.2496 32.0658L73.2963 32.1125Z" fill="#B66612"/>
<path d="M66.2449 16.3036C65.9654 15.29 65.8446 14.2392 65.8869 13.1885C66.0112 13.4532 66.1856 13.6913 66.4006 13.8895C66.2356 13.5289 66.0901 13.1598 65.9647 12.7836C66.0425 12.3163 66.4161 11.0703 66.4161 11.0703C66.4699 11.1594 66.5325 11.2429 66.6029 11.3195C66.6144 11.1796 66.6144 11.0389 66.6029 10.899C66.8099 10.24 67.2182 9.6626 67.7704 9.24801V10.5408C67.8488 10.0144 67.9633 9.49397 68.1128 8.98323C68.4168 8.74922 68.7592 8.57003 69.1246 8.45368C69.0772 8.64804 69.0459 8.84601 69.0312 9.04554C69.0683 8.83615 69.131 8.63213 69.218 8.43811C69.6383 8.34391 70.077 8.37642 70.4789 8.53156L69.5293 10.0891C69.3011 10.0193 69.0572 10.0193 68.8289 10.0891C69.0157 10.0891 69.4515 10.2293 69.4515 10.2293L69.0001 11.4441H68.6888L68.9223 11.5843L68.7355 12.2852C68.4737 12.3952 68.2234 12.5309 67.9883 12.6901L68.5954 12.6123C68.3136 13.4131 68.1001 14.2363 67.9572 15.0732C67.7808 15.1438 67.6176 15.2439 67.4746 15.3691H67.8949C67.7104 16.1706 67.6268 16.9921 67.6458 17.8144C67.0359 17.363 66.5751 16.7391 66.3227 16.0233L66.2449 16.3036Z" fill="url(#paint0_linear_4615_4789)"/>
<path opacity="0.3" d="M66.8364 13.4066C66.4785 14.997 66.7283 16.6639 67.5369 18.0792C66.9288 17.6129 66.4779 16.9716 66.2449 16.2413C65.9654 15.2277 65.8446 14.1769 65.8869 13.1263C66.0112 13.391 66.1856 13.629 66.4006 13.8271C66.2356 13.4666 66.0901 13.0975 65.9647 12.7213C66.0425 12.254 66.4161 11.008 66.4161 11.008C66.4699 11.0971 66.5325 11.1806 66.6029 11.2572C66.6144 11.1173 66.6144 10.9766 66.6029 10.8367C66.8099 10.1777 67.2182 9.60031 67.7704 9.18571V10.4785C67.8488 9.95207 67.9633 9.43168 68.1128 8.92094C68.4168 8.68693 68.7592 8.50773 69.1246 8.39138C69.0772 8.58574 69.0459 8.78369 69.0312 8.98323C69.0683 8.77383 69.131 8.56981 69.218 8.37579C69.6383 8.28159 70.077 8.31411 70.4789 8.46924C69.5326 8.89777 68.7085 9.55637 68.0817 10.385C67.4659 11.2256 67.0651 12.2041 66.9142 13.2353L66.8364 13.4066Z" fill="url(#paint1_linear_4615_4789)"/>
<path d="M65.1087 16.4282C64.3982 16.6342 63.7401 16.99 63.1785 17.4717C63.4188 17.4729 63.6566 17.5205 63.879 17.6119C63.5855 17.6293 63.2939 17.671 63.0073 17.7365C62.7448 18.0914 62.5106 18.4663 62.3068 18.8579H62.5558L62.2601 18.9825C61.9942 19.5116 61.9016 20.1111 61.9955 20.6958C62.1511 20.54 62.6959 20.1195 62.6959 20.1195C62.4501 20.4141 62.2264 20.7264 62.0266 21.054C62.076 21.4258 62.1647 21.7913 62.2912 22.1443C62.3775 22.0247 62.4767 21.9151 62.587 21.8172C62.499 21.9515 62.421 22.0921 62.3535 22.2378C62.5284 22.6328 62.7889 22.9839 63.1162 23.2657L63.4898 21.7082C63.317 21.5248 63.1844 21.3073 63.1007 21.0696C63.2121 21.2538 63.3605 21.4129 63.5365 21.5368L63.9723 20.6335L63.8323 20.3376L64.0346 20.4622L64.3459 20.0105C64.2565 19.7412 64.1889 19.4651 64.1436 19.185L64.4549 19.7457C64.7523 19.1909 65.1071 18.6689 65.5134 18.1882C65.45 18.0135 65.4184 17.8289 65.42 17.643L65.669 18.0013C66.0061 17.5058 66.4276 17.0734 66.9143 16.7241C66.3728 16.4287 65.7494 16.3193 65.1398 16.4126L65.1087 16.4282Z" fill="url(#paint2_linear_4615_4789)"/>
<path opacity="0.5" d="M63.77 18.1882C64.1138 17.6929 64.5805 17.2957 65.1242 17.0356C65.6656 16.7724 66.2677 16.6595 66.8676 16.7086C66.3205 16.4131 65.6922 16.3037 65.0775 16.3971C64.3623 16.6029 63.699 16.9586 63.1318 17.4406C63.3724 17.4389 63.6108 17.4866 63.8323 17.5808C63.544 17.5993 63.2577 17.641 62.9761 17.7054C62.7136 18.0602 62.4794 18.4352 62.2756 18.8268C62.3528 18.8121 62.432 18.8121 62.5091 18.8268L62.229 18.9514C61.9655 19.4813 61.8679 20.0784 61.9488 20.6647L62.6492 20.0884C62.4137 20.3872 62.1954 20.6992 61.9955 21.0229C62.0448 21.3947 62.1335 21.7602 62.2601 22.1132C62.3373 21.9866 62.4376 21.8756 62.5558 21.7861C62.4643 21.921 62.3811 22.0615 62.3068 22.2066C62.4917 22.5999 62.7568 22.95 63.0851 23.2346C62.7905 22.3905 62.6946 21.4897 62.8049 20.6024C62.9342 19.7334 63.2647 18.9067 63.77 18.1882Z" fill="url(#paint3_linear_4615_4789)"/>
<path d="M65.7157 14.637C64.8638 13.9497 63.9209 13.3836 62.9138 12.9549C63.1179 13.2052 63.2856 13.4831 63.412 13.7804C63.2563 13.5779 62.478 12.877 62.478 12.877C61.8917 12.7532 61.2994 12.6597 60.7035 12.5967C60.7696 12.6898 60.8269 12.7889 60.8747 12.8926C60.7657 12.7992 60.5011 12.6278 60.5011 12.6278C59.8108 12.5508 59.1156 12.7219 58.5398 13.1107C58.8511 13.2197 59.7695 13.6402 59.7695 13.6402C59.2714 13.5156 58.7577 13.4222 58.2129 13.3443C57.8883 13.5702 57.6042 13.8493 57.3723 14.1698C57.5756 14.2031 57.7742 14.2606 57.9638 14.3411H57.3256C57.0926 14.7421 56.9792 15.2015 56.9987 15.665L58.8511 15.3846C58.8708 15.1279 58.9686 14.8833 59.1313 14.6838C59.0068 14.8395 59.1313 15.3846 59.1313 15.3846H60.4233L60.6101 15.1043V15.3846L61.3105 15.5092C61.4947 15.2887 61.7036 15.0901 61.9332 14.9174L61.6686 15.5092C62.5287 15.5692 63.3825 15.6994 64.2214 15.8986C64.3569 15.7615 64.5085 15.6412 64.6728 15.5404L64.5638 15.9921C65.3944 16.1421 66.2008 16.4041 66.961 16.7708C66.7442 15.9538 66.3019 15.2143 65.6846 14.637H65.7157Z" fill="url(#paint4_linear_4615_4789)"/>
<path opacity="0.5" d="M62.7426 14.014C64.4569 14.3625 65.9818 15.3334 67.0233 16.7397C66.7925 15.9303 66.3395 15.2018 65.7157 14.637C64.8638 13.9497 63.9209 13.3836 62.9138 12.9549C63.1179 13.2052 63.2856 13.4831 63.412 13.7804C63.2563 13.5779 62.478 12.877 62.478 12.877C61.8917 12.7532 61.2994 12.6597 60.7035 12.5967C60.7696 12.6898 60.8269 12.7889 60.8747 12.8926C60.7657 12.7992 60.5011 12.6278 60.5011 12.6278C59.8108 12.5508 59.1156 12.7219 58.5398 13.1107C58.8511 13.2197 59.7695 13.6402 59.7695 13.6402C59.2714 13.5156 58.7577 13.4222 58.2129 13.3443C57.8883 13.5702 57.6042 13.8493 57.3723 14.1698C57.5756 14.2031 57.7742 14.2606 57.9638 14.3411H57.3256C57.0926 14.7421 56.9792 15.2015 56.9987 15.665C57.704 14.8771 58.6171 14.3042 59.6332 14.0122C60.6492 13.7201 61.7269 13.7208 62.7426 14.014Z" fill="url(#paint5_linear_4615_4789)"/>
<path d="M66.2917 14.31C65.9158 13.3651 65.4243 12.4705 64.8285 11.6466C64.8285 11.6466 64.7506 11.3663 64.8285 11.6466C64.8595 11.9313 64.8595 12.2186 64.8285 12.5033C64.7474 12.1151 64.6328 11.7346 64.486 11.3663C64.2058 11.0547 63.2719 10.2916 63.2719 10.2916C63.2873 10.3896 63.2873 10.4895 63.2719 10.5875C63.2719 10.4629 63.1006 10.2137 63.1006 10.2137C62.5979 9.82838 61.9898 9.6056 61.3573 9.57511C61.544 9.80874 62.0577 10.6031 62.0577 10.6031C61.7153 10.2397 61.3572 9.897 60.9837 9.57511C60.586 9.5409 60.1854 9.57781 59.8006 9.68412C59.9592 9.81163 60.0959 9.96421 60.2054 10.1358C60.0488 9.98956 59.8824 9.85427 59.7072 9.73087C59.2354 9.89055 58.8194 10.1825 58.5087 10.5719L60.3922 11.3818C60.574 11.1696 60.8198 11.022 61.0926 10.9613C60.8903 10.9613 60.6101 11.4909 60.6101 11.4909L61.7153 12.2385L62.011 12.0983L61.9176 12.3787L62.4624 12.8615C62.73 12.7732 63.0068 12.7157 63.2874 12.6902L62.7738 13.064C63.4613 13.5543 64.1022 14.107 64.6884 14.715C64.8522 14.6498 65.0259 14.6129 65.2021 14.6059L64.9219 14.9641C65.5184 15.5412 66.0412 16.1899 66.4785 16.8955C66.5749 16.0121 66.4738 15.1184 66.1827 14.2788L66.2917 14.31Z" fill="url(#paint6_linear_4615_4789)"/>
<path opacity="0.5" d="M64.2837 12.3475C65.4992 13.5937 66.2939 15.1896 66.5563 16.911C66.6635 16.0351 66.5731 15.1463 66.2917 14.31C65.9158 13.3651 65.4243 12.4705 64.8285 11.6466C64.8285 11.6466 64.7506 11.3663 64.8285 11.6466C64.8595 11.9313 64.8595 12.2186 64.8285 12.5033C64.7474 12.1151 64.6328 11.7346 64.486 11.3663C64.2058 11.0547 63.2719 10.2916 63.2719 10.2916C63.2873 10.3896 63.2873 10.4895 63.2719 10.5875C63.2719 10.4629 63.1006 10.2137 63.1006 10.2137C62.5979 9.82838 61.9898 9.6056 61.3573 9.57511C61.544 9.80874 62.0577 10.6031 62.0577 10.6031C61.7153 10.2397 61.3572 9.897 60.9837 9.57511C60.586 9.5409 60.1854 9.57781 59.8007 9.68412C59.9592 9.81163 60.0959 9.96421 60.2054 10.1358C60.0488 9.98956 59.8824 9.85427 59.7072 9.73087C59.2354 9.89055 58.8194 10.1825 58.5087 10.5719C59.5402 10.3488 60.6115 10.3917 61.6219 10.6965C62.6127 10.9931 63.5158 11.5278 64.2525 12.2541L64.2837 12.3475Z" fill="url(#paint7_linear_4615_4789)"/>
<path d="M64.7973 15.4625C63.8252 15.2587 62.8268 15.2114 61.8398 15.3223C62.1029 15.4353 62.341 15.5994 62.5403 15.8051C62.1851 15.6625 61.8211 15.5428 61.4506 15.4469C60.9058 15.6182 60.361 15.8207 59.894 16.0388C59.9862 16.0812 60.0705 16.1391 60.1431 16.2101C60.0032 16.2196 59.8627 16.2196 59.7228 16.2101C59.0725 16.4758 58.5261 16.9459 58.1662 17.5496C58.462 17.5496 59.3959 17.4405 59.3959 17.4405C58.92 17.5681 58.4522 17.7242 57.995 17.9078C57.7892 18.2384 57.6417 18.6019 57.5591 18.9825C57.7345 18.9172 57.9177 18.8753 58.1039 18.8579L57.5591 19.0915C57.4818 19.5349 57.5416 19.9913 57.7304 20.3998L59.287 19.294C59.2092 19.0456 59.2092 18.7793 59.287 18.5308C59.287 18.7177 59.4738 19.1694 59.4738 19.1694L60.5945 18.6087V18.2972L60.7502 18.5152L61.4039 18.266C61.4967 17.9949 61.6059 17.7296 61.7308 17.4717V18.1103C62.4715 17.7561 63.2425 17.4694 64.0346 17.2536C64.0951 17.0674 64.1788 16.8895 64.2837 16.7241V17.1758C65.0274 16.923 65.8029 16.7762 66.5874 16.7397C66.1146 16.1482 65.4658 15.7227 64.7351 15.5248L64.7973 15.4625Z" fill="url(#paint8_linear_4615_4789)"/>
<path opacity="0.5" d="M62.0577 16.3035C62.8096 16.0555 63.6034 15.9602 64.3926 16.0232C65.1831 16.0881 65.9516 16.3161 66.6497 16.6929C66.1748 16.1004 65.5274 15.6704 64.7973 15.4625C63.8252 15.2587 62.8268 15.2114 61.8398 15.3223C62.1029 15.4353 62.341 15.5994 62.5403 15.8051C62.1851 15.6625 61.8211 15.5428 61.4506 15.4469C60.9058 15.6182 60.361 15.8207 59.894 16.0388C59.9862 16.0812 60.0705 16.1391 60.1431 16.2101C60.0032 16.2196 59.8627 16.2196 59.7228 16.2101C59.0725 16.4758 58.5261 16.9459 58.1662 17.5496C58.462 17.5496 59.3959 17.4405 59.3959 17.4405C58.92 17.5681 58.4522 17.7242 57.995 17.9078C57.7892 18.2384 57.6417 18.6019 57.5591 18.9825C57.7345 18.9172 57.9177 18.8753 58.1039 18.8579L57.5591 19.0915C57.4818 19.5349 57.5416 19.9913 57.7304 20.3998C58.0505 19.4206 58.6118 18.5379 59.3627 17.8329C60.1135 17.1279 61.0296 16.6233 62.0266 16.3659L62.0577 16.3035Z" fill="url(#paint9_linear_4615_4789)"/>
<path d="M67.2879 16.1634C67.4555 15.3733 67.7388 14.6123 68.1285 13.905C68.1289 14.1417 68.1603 14.3774 68.2219 14.6059C68.2219 14.4034 68.3464 13.6091 68.3464 13.6091C68.6623 13.2115 69 12.8319 69.3582 12.4721C69.3425 12.5649 69.3425 12.6596 69.3582 12.7524C69.3582 12.6278 69.4827 12.3786 69.4827 12.3786C69.9844 11.9264 70.6061 11.6289 71.2728 11.522C71.086 11.7868 70.6346 12.6434 70.6346 12.6434C70.9519 12.2277 71.295 11.8323 71.662 11.4597C72.0963 11.3657 72.5419 11.3342 72.9851 11.3662C72.8319 11.5319 72.6914 11.709 72.5648 11.8958C72.6893 11.7556 73.1096 11.3974 73.1096 11.3974C73.6329 11.4955 74.1182 11.7383 74.5106 12.0983L72.4559 13.1885C72.2342 13.0181 71.9707 12.9105 71.6931 12.877C71.911 12.877 72.2379 13.3131 72.2379 13.3131L71.1794 14.1386L70.8525 14.0452L70.9926 14.2788L70.4945 14.7617C70.2308 14.7307 69.9644 14.7307 69.7007 14.7617L70.2299 15.0109C69.6665 15.4492 69.1453 15.9393 68.6733 16.4749H68.2219L68.5021 16.7397C68.0795 17.1675 67.7228 17.6556 67.4436 18.1882C67.224 17.5747 67.165 16.9152 67.2724 16.2725L67.2879 16.1634Z" fill="url(#paint10_linear_4615_4789)"/>
<path opacity="0.5" d="M68.7512 14.4502C67.897 15.4449 67.4422 16.7214 67.4747 18.0324C67.2584 17.4346 67.1943 16.7923 67.2879 16.1634C67.4556 15.3733 67.7388 14.6123 68.1285 13.905C68.1289 14.1417 68.1603 14.3774 68.2219 14.6059C68.2219 14.4034 68.3464 13.6091 68.3464 13.6091C68.6623 13.2115 69.0001 12.8319 69.3582 12.4721C69.3426 12.5649 69.3426 12.6596 69.3582 12.7524C69.3582 12.6278 69.4828 12.3786 69.4828 12.3786C69.9844 11.9264 70.6061 11.6289 71.2728 11.522C71.086 11.7868 70.6346 12.6434 70.6346 12.6434C70.9519 12.2277 71.295 11.8323 71.662 11.4597C72.0963 11.3657 72.5419 11.3342 72.9851 11.3662C72.8319 11.5319 72.6914 11.709 72.5648 11.8958C72.6894 11.7556 73.1096 11.3974 73.1096 11.3974C73.6329 11.4955 74.1182 11.7383 74.5106 12.0983C73.4486 12.0277 72.3844 12.1981 71.3974 12.5967C70.3996 13.0056 69.5099 13.64 68.7978 14.4502H68.7512Z" fill="url(#paint11_linear_4615_4789)"/>
<path d="M67.9105 16.4282C68.3772 15.8464 68.9605 15.3689 69.6228 15.0264C69.5227 15.2482 69.4596 15.485 69.436 15.7273C69.582 15.4588 69.7431 15.1988 69.9186 14.9485C70.3334 14.8508 70.7548 14.7831 71.1794 14.746C71.1635 14.8283 71.1635 14.9129 71.1794 14.9952C71.2441 14.915 71.3172 14.8419 71.3974 14.7772C71.9545 14.7494 72.5041 14.9144 72.954 15.2445L72.1757 15.6961C72.5209 15.5871 72.8751 15.5089 73.2342 15.4625C73.5401 15.657 73.8177 15.8929 74.0592 16.1634C73.9181 16.1812 73.7811 16.2234 73.6544 16.288H74.1059C74.3688 16.6397 74.5545 17.0431 74.6507 17.4717L73.2186 17.1914C73.1441 16.9483 73.0165 16.7248 72.845 16.5372C72.9515 16.7301 73.0202 16.9415 73.0473 17.1602H72.0978L71.8955 16.911V17.1602L71.3818 17.2381C71.1902 17.0496 70.9875 16.8728 70.7747 16.7085L71.1172 17.2381C70.5007 17.2657 69.8895 17.365 69.2959 17.534C69.1698 17.4081 69.0287 17.2982 68.8757 17.2069L69.078 17.6119C68.5248 17.7287 67.9974 17.9451 67.5214 18.2505C67.5184 17.6215 67.6968 17.005 68.0351 16.4749L67.9105 16.4282Z" fill="url(#paint12_linear_4615_4789)"/>
<path opacity="0.5" d="M69.9808 15.9142C69.4015 16.0726 68.8681 16.3662 68.4242 16.7708C67.9673 17.1957 67.6293 17.7326 67.4435 18.3284C67.4105 17.6735 67.5848 17.0249 67.9416 16.4749C68.4083 15.8931 68.9916 15.4156 69.6539 15.0731C69.5487 15.2931 69.4853 15.5308 69.4671 15.774C69.6131 15.5055 69.7742 15.2455 69.9497 14.9952C70.3645 14.8975 70.7859 14.8298 71.2105 14.7928C71.1946 14.8751 71.1946 14.9597 71.2105 15.042C71.2752 14.9617 71.3482 14.8886 71.4284 14.8239C71.9855 14.7962 72.5352 14.9612 72.985 15.2912L72.2067 15.7429C72.552 15.6338 72.9062 15.5556 73.2652 15.5092C73.5711 15.7038 73.8488 15.9396 74.0902 16.2101C73.9491 16.2279 73.8122 16.2701 73.6855 16.3347H74.1369C74.3999 16.6864 74.5856 17.0899 74.6817 17.5185C74.1138 16.8848 73.389 16.412 72.5803 16.1478C71.766 15.8816 70.8952 15.8386 70.0586 16.0232L69.9808 15.9142Z" fill="url(#paint13_linear_4615_4789)"/>
<path d="M75.46 34.2774C74.8616 34.5873 74.1811 34.7017 73.5143 34.6045C72.8476 34.523 72.2251 34.228 71.7397 33.7634C71.7397 33.7634 71.7397 17.9545 79.5227 11.9581C79.5227 11.9581 79.943 12.1917 79.8963 12.4876C79.9742 12.5032 72.7515 20.213 75.46 34.2774Z" fill="#B7703B"/>
<path d="M75.0864 18.6398C73.1874 23.0476 70.51 33.6388 75.46 34.2151C74.8616 34.525 74.1811 34.6394 73.5143 34.5422C72.855 34.4781 72.2334 34.2053 71.7397 33.7634C71.7397 33.7634 71.7397 17.9545 79.5227 11.9581C79.6563 12.0325 79.7688 12.1397 79.8496 12.2696C79.8496 12.2696 77.5303 13.0172 75.0864 18.6398Z" fill="#994D08"/>
<path d="M75.3199 30.9599C74.7256 31.4154 73.9759 31.6184 73.2331 31.5252C72.4903 31.4319 71.814 31.0498 71.3506 30.4615L71.5374 29.4802C71.853 30.1332 72.4118 30.6365 73.094 30.882C73.7916 31.127 74.5575 31.0879 75.2265 30.773L75.3199 30.9599Z" fill="#D18316"/>
<path d="M71.5686 27.1907C72.0347 27.7811 72.7151 28.1633 73.4616 28.2537C74.2081 28.3442 74.9601 28.1356 75.5535 27.6735V26.6767C75.0659 27.2233 74.3848 27.5585 73.6544 27.6112C73.2905 27.6435 72.9239 27.6023 72.5762 27.4899C72.2286 27.3775 71.9071 27.1963 71.6309 26.9571L71.5686 27.1907Z" fill="#D18316"/>
<path d="M75.2732 28.6859C74.6816 29.1644 73.9353 29.4096 73.1753 29.3752C72.4153 29.3407 71.6942 29.0291 71.1482 28.499L71.3506 28.0317C71.7882 28.6161 72.4365 29.0065 73.1574 29.12C73.8784 29.2334 74.6152 29.0609 75.2109 28.6392L75.2732 28.6859Z" fill="#B66612"/>
<path d="M72.8761 20.1507C73.3371 20.7425 74.0138 21.1273 74.7578 21.2207C75.5019 21.3141 76.2526 21.1086 76.8454 20.6491V19.6523C76.3488 20.1979 75.6655 20.537 74.9308 20.6024C74.1949 20.6512 73.4689 20.4109 72.9072 19.9326L72.8761 20.1507Z" fill="#D18316"/>
<path d="M74.028 18.1882C74.4889 18.78 75.1656 19.1648 75.9097 19.2582C76.6537 19.3516 77.4045 19.1461 77.9973 18.6866V17.6742C77.5134 18.2292 76.8306 18.5714 76.0966 18.6268C75.3626 18.6821 74.6363 18.4463 74.0747 17.9701L74.028 18.1882Z" fill="#D18316"/>
<path d="M76.4095 22.0508C75.816 22.5273 75.0687 22.7698 74.3087 22.7325C73.5486 22.6952 72.8286 22.3807 72.2845 21.8484L72.4869 21.3967C72.9268 21.9786 73.5762 22.366 74.297 22.4765C75.0179 22.587 75.7534 22.4119 76.3473 21.9885L76.4095 22.0508Z" fill="#B66612"/>
<path d="M76.7054 19.7457C75.9294 19.9029 75.1228 19.7758 74.4327 19.3875C73.7139 19.0214 73.1585 18.3989 72.8761 17.643L73.1407 17.2848C73.3854 18.0007 73.855 18.6181 74.4794 19.0448C75.0981 19.4784 75.8416 19.6972 76.5964 19.6678L76.7054 19.7457Z" fill="#B66612"/>
<path d="M75.0398 15.3691C75.0398 15.3691 76.503 18.1726 78.7757 17.1135L78.9469 16.1323C78.9469 16.1323 77.1101 17.5964 75.1332 15.1822L75.0398 15.3691Z" fill="#D18316"/>
<path d="M77.7639 17.5963C76.9762 17.7287 76.1671 17.5735 75.4843 17.1589C74.8014 16.7444 74.2901 16.0981 74.0436 15.3379L74.3082 14.9952C74.5376 15.723 74.9895 16.3604 75.6002 16.8175C76.2138 17.2697 76.9551 17.5152 77.7172 17.5185L77.7639 17.5963Z" fill="#B66612"/>
<path d="M76.3007 13.8271C76.5288 14.1207 76.8128 14.3662 77.1361 14.5495C77.4595 14.7329 77.8159 14.8503 78.1849 14.8952C78.5539 14.9401 78.928 14.9115 79.2859 14.811C79.6438 14.7106 79.9782 14.5403 80.27 14.3099V13.3131C79.7812 13.8656 79.0963 14.2056 78.361 14.2609C77.6256 14.3161 76.8976 14.0823 76.3318 13.609L76.3007 13.8271Z" fill="#D18316"/>
<path d="M78.9624 15.3846C78.1885 15.5523 77.38 15.4304 76.6898 15.0419C75.9718 14.6673 75.4175 14.0406 75.1332 13.282L75.3978 12.9237C75.6344 13.6454 76.0998 14.2701 76.7235 14.703C77.3472 15.1359 78.0951 15.3534 78.8535 15.3223L78.9624 15.3846Z" fill="#B66612"/>
<path d="M77.0479 11.7712C77.0479 11.7712 78.5111 14.5747 80.7992 13.5156L80.9549 12.5344C80.9549 12.5344 79.1181 13.9985 77.1412 11.5843L77.0479 11.7712Z" fill="#D18316"/>
<path d="M79.7719 13.9984C78.9842 14.1308 78.1752 13.9756 77.4923 13.561C76.8094 13.1465 76.2981 12.5002 76.0516 11.74L76.3318 11.3973C76.5501 12.1306 77.0043 12.7712 77.6238 13.2196C78.2364 13.6738 78.9784 13.9194 79.7408 13.9205L79.7719 13.9984Z" fill="#B66612"/>
<path d="M72.7048 22.7517C72.7048 22.7517 73.9501 25.7266 76.0048 24.4183L76.1761 23.3125C76.1761 23.3125 74.5105 25.0725 72.7982 22.5181L72.7048 22.7517Z" fill="#D18316"/>
<path d="M75.6002 25.2905C75.2915 25.4734 74.9449 25.5832 74.5872 25.6114C74.2295 25.6396 73.87 25.5855 73.5365 25.4532C73.2029 25.3209 72.904 25.1139 72.6627 24.8481C72.4214 24.5823 72.2442 24.2648 72.1445 23.9199L72.378 23.4682C72.4674 23.7963 72.6217 24.1031 72.8318 24.3704C73.0419 24.6376 73.3036 24.86 73.6012 25.0241C73.8989 25.1883 74.2264 25.2909 74.5645 25.326C74.9025 25.361 75.2441 25.3278 75.5691 25.2282L75.6002 25.2905Z" fill="#B66612"/>
<path d="M71.3818 31.5829C71.951 32.0866 72.6845 32.3646 73.4443 32.3646C74.2041 32.3646 74.9377 32.0866 75.5068 31.5829L75.3823 31.1157C74.894 31.6606 74.2213 32.0052 73.4939 32.0829C72.7666 32.1606 72.0363 31.9658 71.4441 31.5362L71.3818 31.5829Z" fill="#B66612"/>
<path d="M80.8615 10.5252C81.2162 9.19493 81.3787 7.82076 81.3441 6.44445C81.3441 6.44445 81.4686 6.07064 81.3441 6.44445C81.1603 6.78566 80.9239 7.09577 80.6436 7.36338C80.7837 7.0986 81.204 5.88374 81.204 5.88374C81.1106 5.2763 80.5969 3.59417 80.5969 3.59417C80.5373 3.71983 80.4586 3.83544 80.3634 3.93683C80.4043 3.74644 80.4354 3.55408 80.4568 3.36053C80.1884 2.48381 79.642 1.71838 78.9002 1.18001V2.89327C78.7913 2.22353 78.6356 1.56939 78.4644 0.91523C78.0618 0.606206 77.6089 0.369095 77.1257 0.214348C77.1848 0.459695 77.2212 0.709941 77.2346 0.961954C77.2346 0.759476 76.9856 0.167601 76.9856 0.167601C76.4256 0.0364888 75.839 0.0799724 75.3044 0.292206L76.5653 2.4416C76.8837 2.33588 77.2276 2.33588 77.546 2.4416C77.2969 2.34815 76.7054 2.64408 76.7054 2.64408L77.3125 4.20161L77.7172 4.31062L77.4214 4.49754L77.6549 5.43204C78.0072 5.56763 78.3417 5.74544 78.6512 5.9616L77.8417 5.86815C78.2176 6.93385 78.509 8.0275 78.7134 9.13896C78.9456 9.24046 79.1609 9.37703 79.3516 9.54391H78.7757C79.0295 10.6044 79.1446 11.6934 79.1181 12.7836C79.9279 12.1851 80.5361 11.3538 80.8615 10.4006V10.5252Z" fill="url(#paint14_linear_4615_4789)"/>
<path opacity="0.3" d="M80.0365 6.64692C80.5504 8.7947 80.2217 11.0579 79.1181 12.9705C79.9339 12.3547 80.5378 11.5001 80.8459 10.5252C81.2014 9.19511 81.3639 7.82081 81.3285 6.44446C81.3285 6.44446 81.453 6.07065 81.3285 6.44446C81.1446 6.78567 80.9083 7.09578 80.628 7.36339C80.7681 7.08304 81.1884 5.80587 81.1884 5.80587C81.095 5.18286 80.5813 3.5163 80.5813 3.5163C80.518 3.6398 80.4396 3.75491 80.3478 3.85896C80.3478 3.67206 80.4412 3.28266 80.4412 3.28266C80.1697 2.40744 79.624 1.6429 78.8846 1.10213V2.81542C78.76 2.14568 78.62 1.47595 78.4332 0.821786C78.0306 0.512761 77.5777 0.275627 77.0945 0.12088C77.1587 0.365772 77.2003 0.616032 77.219 0.86851C77.219 0.666031 76.97 0.0741561 76.97 0.0741561C76.41 -0.0569561 75.8234 -0.0134724 75.2888 0.198761C76.5656 0.777142 77.6725 1.67376 78.5038 2.80277C79.3351 3.93179 79.8628 5.25541 80.0365 6.64692Z" fill="url(#paint15_linear_4615_4789)"/>
<path d="M81.204 12.3008C82.1524 12.5855 83.032 13.0626 83.7879 13.7025C83.7879 13.7025 84.0681 13.7025 83.7879 13.7025C83.4722 13.7012 83.1596 13.7648 82.8695 13.8894C83.2617 13.9236 83.6515 13.9809 84.037 14.0608C84.3829 14.5614 84.6999 15.0815 84.9865 15.6183C84.8736 15.5948 84.757 15.5948 84.6441 15.6183L85.0332 15.774C85.3761 16.4795 85.5008 17.2713 85.3912 18.048C85.1889 17.8456 84.4417 17.2848 84.4417 17.2848C84.7603 17.6853 85.0515 18.1068 85.3134 18.5464C85.2623 19.0471 85.1472 19.5391 84.971 20.0105C84.8667 19.8443 84.7351 19.6968 84.5818 19.5744C84.6951 19.7558 84.799 19.943 84.8931 20.1351C84.6594 20.6691 84.3144 21.147 83.8813 21.5369L83.3677 19.5277C83.6063 19.2856 83.7872 18.9928 83.8969 18.671C83.7414 18.9147 83.5406 19.1262 83.3054 19.2941L82.7294 18.0792L82.9007 17.6898L82.6361 17.8455L82.2313 17.2537C82.3506 16.8985 82.4391 16.5338 82.496 16.1634L82.0912 16.8643C81.7126 16.0961 81.2534 15.3704 80.7214 14.6993C80.7978 14.4727 80.8449 14.2371 80.8615 13.9985L80.5191 14.4813C80.0748 13.8162 79.5098 13.2404 78.8535 12.7836C79.56 12.3616 80.3885 12.1915 81.204 12.3008Z" fill="url(#paint16_linear_4615_4789)"/>
<path opacity="0.5" d="M82.9317 14.6837C82.4886 14.0105 81.8694 13.4718 81.1416 13.1262C80.4189 12.7844 79.6189 12.6393 78.8223 12.7057C79.5447 12.297 80.3853 12.1486 81.2039 12.2852C82.1523 12.5698 83.0319 13.047 83.7878 13.6869C83.7878 13.6869 84.068 13.6869 83.7878 13.6869C83.4722 13.6856 83.1595 13.7492 82.8694 13.8738C83.2616 13.908 83.6514 13.9652 84.0369 14.0451C84.3828 14.5458 84.6998 15.0658 84.9864 15.6027C84.8735 15.5792 84.7569 15.5792 84.644 15.6027L85.0331 15.7584C85.376 16.4639 85.5007 17.2556 85.3912 18.0324C85.1888 17.8299 84.4416 17.2692 84.4416 17.2692C84.7602 17.6697 85.0514 18.0912 85.3133 18.5308C85.2622 19.0315 85.1471 19.5235 84.9709 19.9949C84.8666 19.8287 84.735 19.6812 84.5817 19.5588C84.695 19.7402 84.7989 19.9274 84.893 20.1195C84.6593 20.6535 84.3144 21.1314 83.8812 21.5213C84.2774 20.3881 84.3979 19.1767 84.2327 17.9876C84.0676 16.7985 83.6216 15.6659 82.9317 14.6837Z" fill="url(#paint17_linear_4615_4789)"/>
<path d="M80.3634 9.91775C81.4888 8.99036 82.7484 8.23936 84.0992 7.69047C84.0992 7.69047 84.4105 7.37897 84.0992 7.69047C83.8233 8.01576 83.6024 8.38407 83.4454 8.78076C83.6478 8.51598 84.6751 7.56587 84.6751 7.56587C85.4624 7.40587 86.2573 7.28631 87.0567 7.20764C86.9545 7.32735 86.8658 7.45792 86.7921 7.59702C86.9478 7.47242 87.3058 7.2388 87.3058 7.2388C88.2221 7.146 89.1419 7.37747 89.9053 7.89296C89.5162 8.03313 88.3487 8.59384 88.3487 8.59384C89.0204 8.42516 89.7013 8.29515 90.3879 8.20446C90.8274 8.48605 91.2124 8.84488 91.5242 9.26359C91.2516 9.30299 90.9849 9.37624 90.7303 9.48164C90.9482 9.48164 91.5709 9.38819 91.5709 9.38819C91.8928 9.91694 92.05 10.5297 92.0223 11.1482L89.5317 10.79C89.5068 10.4379 89.3767 10.1014 89.1582 9.8243C89.3138 10.0268 89.2516 10.7588 89.2516 10.7588L87.5082 10.8367L87.2747 10.4629L87.1813 10.8522L86.2317 10.9924C85.9707 10.7129 85.6898 10.4526 85.3912 10.2137L85.7492 11.008C84.6007 11.0853 83.4605 11.2573 82.3402 11.522C82.1599 11.3351 81.9558 11.1728 81.7332 11.0392L81.8888 11.6466C80.8103 11.8579 79.7637 12.2087 78.7756 12.6901C79.0756 11.6112 79.6747 10.6392 80.5035 9.88659L80.3634 9.91775Z" fill="url(#paint18_linear_4615_4789)"/>
<path opacity="0.5" d="M84.3171 9.07667C82.04 9.55164 80.0174 10.8491 78.6355 12.7213C78.9468 11.6436 79.5502 10.6733 80.3789 9.91775C81.5089 8.99684 82.7675 8.24645 84.1147 7.69047C84.1147 7.69047 84.4416 7.37897 84.1147 7.69047C83.8491 8.02019 83.634 8.38766 83.4765 8.78076C83.6789 8.51598 84.6907 7.56587 84.6907 7.56587C85.3133 7.39454 87.0723 7.20764 87.0723 7.20764C86.9803 7.33148 86.8971 7.46159 86.8232 7.59702C86.9789 7.47242 87.3369 7.2388 87.3369 7.2388C88.2532 7.146 89.173 7.37747 89.9365 7.89296C89.5473 8.03313 88.302 8.59384 88.302 8.59384C88.9737 8.42516 89.6546 8.29515 90.3412 8.20446C90.7794 8.48208 91.1599 8.8417 91.4619 9.26359C91.1948 9.30513 90.9335 9.37833 90.6836 9.48164C90.9015 9.48164 91.5242 9.38819 91.5242 9.38819C91.8461 9.91694 92.0033 10.5297 91.9756 11.1482C91.0108 10.1347 89.7864 9.40558 88.436 9.04031C87.0856 8.67504 85.6609 8.6876 84.3171 9.07667Z" fill="url(#paint19_linear_4615_4789)"/>
<path d="M79.5227 9.48161C80.0154 8.21397 80.6694 7.01517 81.4685 5.91486C81.4685 5.91486 81.5775 5.54106 81.4685 5.91486C81.4142 6.29713 81.4142 6.68517 81.4685 7.06744C81.4685 6.75594 81.9044 5.50992 81.9044 5.50992C82.3985 5.01584 82.918 4.54796 83.461 4.10815C83.4447 4.23743 83.4447 4.36825 83.461 4.49753C83.5229 4.32439 83.6011 4.1575 83.6944 3.99911C84.3631 3.45747 85.1858 3.14127 86.0449 3.09574C85.7959 3.40725 85.0954 4.46638 85.0954 4.46638C85.5473 3.98303 86.0309 3.53035 86.543 3.11133C87.0661 3.06618 87.593 3.11362 88.0996 3.25151C87.8934 3.42943 87.7057 3.6277 87.5393 3.84335C87.7105 3.6876 88.2553 3.3138 88.2553 3.3138C88.8699 3.53238 89.4098 3.92131 89.8119 4.43522L87.3058 5.52548C87.0754 5.2476 86.7659 5.04658 86.4185 4.94921C86.6831 4.94921 87.0412 5.65009 87.0412 5.65009L85.6091 6.6469L85.1888 6.46001L85.3289 6.83382L84.6284 7.47239C84.2655 7.35 83.8892 7.27158 83.5077 7.23877L84.2081 7.7216C83.2889 8.37642 82.4295 9.11133 81.6397 9.91772C81.4174 9.82634 81.1796 9.77875 80.9393 9.77755L81.3128 10.2604C80.4903 11.0194 79.7778 11.8896 79.1958 12.8459C79.0507 11.6873 79.1677 10.5109 79.5383 9.40373L79.5227 9.48161Z" fill="url(#paint20_linear_4615_4789)"/>
<path opacity="0.5" d="M82.2625 6.86495C80.6569 8.5256 79.6024 10.6414 79.2427 12.9237C79.0978 11.76 79.2148 10.5786 79.5851 9.46602C80.0813 8.20488 80.7351 7.01168 81.5309 5.91486C81.5309 5.91486 81.6398 5.54106 81.5309 5.91486C81.4766 6.29713 81.4766 6.68517 81.5309 7.06744C81.5309 6.75593 81.9667 5.50991 81.9667 5.50991C82.4608 5.01584 82.9804 4.54796 83.5233 4.10815C83.507 4.23743 83.507 4.36825 83.5233 4.49753C83.5853 4.32439 83.6634 4.1575 83.7568 3.99911C84.4255 3.45747 85.2482 3.14127 86.1073 3.09574C85.8582 3.40725 85.1577 4.46637 85.1577 4.46637C85.6097 3.98303 86.0933 3.53035 86.6054 3.11133C87.1285 3.06618 87.6554 3.11362 88.162 3.25151C87.9558 3.42943 87.768 3.6277 87.6016 3.84335C87.7728 3.6876 88.3176 3.3138 88.3176 3.3138C88.9343 3.52844 89.4752 3.91811 89.8742 4.43522C88.5109 4.14589 87.0963 4.21022 85.7648 4.62211C84.4416 5.04445 83.2437 5.78827 82.278 6.78707L82.2625 6.86495Z" fill="url(#paint21_linear_4615_4789)"/>
<path d="M81.5775 11.0236C82.8712 10.7472 84.2006 10.6789 85.5157 10.8211C85.5157 10.8211 85.8893 10.6965 85.5157 10.8211C85.1736 10.9768 84.8624 11.1931 84.5973 11.4597C84.8619 11.3195 86.0605 10.9769 86.0605 10.9769C86.7844 11.211 87.4962 11.4813 88.1931 11.7868C88.0669 11.8386 87.951 11.9124 87.8506 12.0048C88.0371 11.9904 88.2245 11.9904 88.411 12.0048C89.2431 12.3632 89.9329 12.9877 90.3723 13.7804C89.9987 13.7804 88.7379 13.6247 88.7379 13.6247C89.3707 13.7942 89.9942 13.997 90.6058 14.2321C90.8766 14.6815 91.0761 15.1701 91.1973 15.6806C90.9538 15.6014 90.7038 15.5441 90.4501 15.5093C90.6525 15.5093 91.1973 15.8208 91.1973 15.8208C91.2887 16.4126 91.2076 17.0183 90.9638 17.5652L89.0025 16.0855C89.0956 15.7545 89.0956 15.4042 89.0025 15.0732C89.0025 15.3379 88.7379 15.9298 88.7379 15.9298L87.2591 15.1822L87.1813 14.7617L86.9789 15.042L86.1072 14.7305C85.9953 14.3741 85.8602 14.0255 85.7025 13.687V14.5436C84.6981 14.0748 83.6568 13.6893 82.5893 13.391C82.5069 13.1432 82.3917 12.9074 82.2468 12.6901L82.169 13.2976C81.1664 12.9488 80.1167 12.7545 79.0558 12.7213C79.697 11.9476 80.5704 11.4014 81.5464 11.1638L81.5775 11.0236Z" fill="url(#paint22_linear_4615_4789)"/>
<path opacity="0.5" d="M85.22 12.145C84.2194 11.8051 83.1602 11.6726 82.1068 11.7556C81.0533 11.8434 80.0299 12.1511 79.1025 12.659C79.7311 11.8858 80.5946 11.339 81.562 11.1015C82.8556 10.8251 84.185 10.7568 85.5002 10.899C85.5002 10.899 85.8738 10.7744 85.5002 10.899C85.158 11.0546 84.8469 11.271 84.5818 11.5376C84.8464 11.3974 86.045 11.0547 86.045 11.0547C86.7689 11.2889 87.4807 11.5592 88.1775 11.8647C88.0514 11.9165 87.9354 11.9903 87.8351 12.0827C88.0216 12.0683 88.209 12.0683 88.3955 12.0827C89.2276 12.4411 89.9174 13.0656 90.3568 13.8583C89.9832 13.8583 88.8002 13.7025 88.8002 13.7025C89.4228 13.8738 90.0455 14.0763 90.6525 14.31C90.9233 14.7593 91.1229 15.248 91.2441 15.7585C91.0006 15.6793 90.7505 15.6219 90.4969 15.5871C90.6992 15.5871 91.2441 15.8986 91.2441 15.8986C91.3354 16.4905 91.2544 17.0961 91.0106 17.6431C90.5908 16.3406 89.8461 15.1666 88.8469 14.2321C87.8605 13.2837 86.6418 12.6122 85.3134 12.2852L85.22 12.145Z" fill="url(#paint23_linear_4615_4789)"/>
<path d="M79.5227 10.4006C79.2935 9.34323 78.9107 8.32521 78.3864 7.37896C78.3997 7.70557 78.3576 8.03207 78.2619 8.34462C78.2619 8.07984 78.1062 7.02074 78.1062 7.02074C77.8105 6.6002 76.7676 5.46321 76.7676 5.46321C76.7826 5.58736 76.7826 5.71288 76.7676 5.83703C76.7269 5.66569 76.6695 5.49874 76.5963 5.33861C75.9668 4.70133 75.1575 4.27199 74.277 4.10817C74.5105 4.45083 75.1331 5.6657 75.1331 5.6657C74.9308 5.33862 73.7322 4.10817 73.7322 4.10817C73.1518 3.96819 72.5529 3.92086 71.9577 3.96797C72.1753 4.17928 72.3685 4.4144 72.5336 4.66888C72.3779 4.49755 71.8331 4.0147 71.8331 4.0147C71.133 4.10795 70.4798 4.41845 69.9652 4.9025L72.6893 6.35099C72.9811 6.11968 73.3313 5.9741 73.701 5.93047C73.4053 5.93047 73.0006 6.52232 73.0006 6.52232L74.4015 7.6126L74.8218 7.50357L74.6506 7.7995L75.3043 8.43809C75.6532 8.37289 76.0082 8.34676 76.3628 8.36021L75.6624 8.70287C76.4103 9.28767 77.0985 9.94502 77.7171 10.6653C77.9088 10.6078 78.1085 10.5815 78.3086 10.5875L77.935 10.9301C78.4942 11.5074 78.9662 12.1633 79.336 12.877C79.6041 12.0801 79.6683 11.2287 79.5227 10.4006Z" fill="url(#paint24_linear_4615_4789)"/>
<path opacity="0.5" d="M77.5147 8.01753C78.6523 9.34019 79.2571 11.0392 79.2114 12.7836C79.496 11.9909 79.5815 11.1405 79.4605 10.3071C79.2307 9.25979 78.8478 8.25213 78.3242 7.31665C78.3374 7.64326 78.2953 7.96975 78.1996 8.28231C78.1996 8.01753 78.044 6.9584 78.044 6.9584C77.7482 6.53787 76.7053 5.40087 76.7053 5.40087C76.7203 5.52502 76.7203 5.65054 76.7053 5.77469C76.6646 5.60335 76.6073 5.43643 76.5341 5.27629C75.9045 4.63902 75.0952 4.20965 74.2147 4.04583C74.4482 4.38849 75.0709 5.60336 75.0709 5.60336C74.8685 5.27628 73.6699 4.04583 73.6699 4.04583C73.0895 3.90585 72.4906 3.85854 71.8954 3.90566C72.113 4.11696 72.3062 4.35206 72.4713 4.60654C72.3157 4.43522 71.7709 3.95239 71.7709 3.95239C71.0708 4.04564 70.4175 4.35611 69.903 4.84016C71.3392 4.74665 72.7775 4.98654 74.1058 5.54107C75.4435 6.08475 76.6294 6.94526 77.5614 8.04869L77.5147 8.01753Z" fill="url(#paint25_linear_4615_4789)"/>
<path d="M78.6355 10.6653C78.0262 9.91165 77.2685 9.29137 76.4096 8.84303C76.5328 9.15219 76.6115 9.47734 76.6431 9.80869C76.4489 9.44979 76.2359 9.10146 76.0049 8.76515C75.453 8.62637 74.8908 8.53262 74.3237 8.4848C74.3713 8.5939 74.4027 8.70932 74.4171 8.82746L74.1058 8.51594C73.354 8.48984 72.6147 8.71447 72.0044 9.15453C72.3675 9.33288 72.7208 9.53045 73.0629 9.7464C72.6031 9.61646 72.135 9.51759 71.6619 9.45046C71.2619 9.71617 70.9005 10.0359 70.5879 10.4006C70.7737 10.4322 70.9527 10.4954 71.1171 10.5875C70.9615 10.5875 70.5101 10.5875 70.5101 10.5875C70.1702 11.0518 69.9315 11.5825 69.8096 12.145L71.7242 11.7712C71.8309 11.4503 72.0002 11.1539 72.2223 10.899C72.0829 11.1563 71.9882 11.4354 71.9421 11.7245H73.2185L73.4832 11.3818V11.7245L74.1836 11.8335C74.4335 11.5836 74.6986 11.3495 74.9775 11.1326L74.5417 11.8335C75.3581 11.8706 76.1677 12.0012 76.9544 12.2229C77.1193 12.0513 77.308 11.9044 77.5148 11.7868L77.2501 12.3163C78.0138 12.472 78.7421 12.7677 79.3982 13.1885C79.413 12.3196 79.1633 11.4668 78.6822 10.7432L78.6355 10.6653Z" fill="url(#paint26_linear_4615_4789)"/>
<path opacity="0.5" d="M75.8803 10.0112C76.6651 10.2043 77.3893 10.5903 77.9873 11.1343C78.5853 11.6782 79.0381 12.3629 79.3049 13.1262C79.3349 12.2523 79.1017 11.3894 78.6355 10.6498C78.0247 9.90171 77.2671 9.28681 76.4096 8.84303C76.5329 9.15219 76.6115 9.47734 76.6431 9.80869C76.4489 9.44979 76.2359 9.10146 76.0049 8.76515C75.453 8.62636 74.8908 8.53262 74.3237 8.4848C74.3713 8.5939 74.4027 8.70932 74.4171 8.82746L74.1058 8.51594C73.354 8.48984 72.6148 8.71447 72.0044 9.15453C72.3675 9.33288 72.7208 9.53045 73.0629 9.7464C72.6031 9.61646 72.135 9.51759 71.6619 9.45046C71.2619 9.71617 70.9005 10.0359 70.5879 10.4006C70.7737 10.4322 70.9527 10.4954 71.1171 10.5875C70.9615 10.5875 70.5101 10.5875 70.5101 10.5875C70.1702 11.0518 69.9315 11.5825 69.8096 12.145C70.5398 11.2806 71.4876 10.627 72.5549 10.2519C73.6222 9.87674 74.7702 9.79364 75.8803 10.0112Z" fill="url(#paint27_linear_4615_4789)"/>
<path d="M105.144 43.3385C105.322 43.475 105.543 43.4812 105.749 43.5336C106.315 43.6793 106.578 44.0108 106.579 44.5898C106.579 45.1854 106.579 45.7814 106.579 46.3776C106.579 46.9288 106.309 47.2048 105.757 47.2256C105.685 47.2256 105.613 47.2256 105.541 47.2256C95.7082 47.2256 85.8754 47.2272 76.0423 47.2302C75.5998 47.2318 75.2313 47.1431 75 46.7368V43.2807C75.2243 42.9484 75.5397 42.8297 75.9344 42.8444C76.0986 42.8505 76.2782 42.8991 76.4316 42.7819C76.4825 42.7819 76.5342 42.7904 76.5858 42.7881C77.4871 42.7434 78.3852 42.8397 79.2841 42.859C80.0358 42.8752 80.7867 42.9731 81.5376 43.034H81.5985C81.9624 43.1186 82.335 43.1607 82.7086 43.1597C82.751 43.2152 82.8135 43.2113 82.8744 43.2198C83.8311 43.3539 84.7825 43.5158 85.7269 43.7201C86.4022 43.8659 87.0714 44.0447 87.766 44.0825C88.3016 44.1664 88.8429 44.2086 89.385 44.2089C90.3772 44.202 91.3709 44.239 92.3608 44.1411C92.8673 44.0917 93.3715 44.02 93.8765 43.9591C94.2619 43.9098 94.6474 43.8713 95.0259 43.8096C95.8285 43.6801 96.6295 43.539 97.4313 43.4025L98.8714 43.1566C99.2445 43.1959 99.6076 43.0726 99.9792 43.0941H100.045C100.322 43.0941 100.604 43.125 100.876 43.0841C101.707 42.9585 102.527 43.1011 103.352 43.1381C103.952 43.1682 104.536 43.3432 105.144 43.3385ZM101.644 45.013C101.644 44.9161 101.616 44.8212 101.563 44.7401C101.51 44.659 101.434 44.5953 101.345 44.557C101.256 44.5187 101.158 44.5075 101.063 44.5247C100.967 44.542 100.879 44.5869 100.809 44.654C100.739 44.721 100.69 44.8072 100.669 44.9017C100.648 44.9962 100.655 45.095 100.689 45.1856C100.724 45.2761 100.784 45.3546 100.863 45.4111C100.941 45.4676 101.035 45.4997 101.132 45.5033C101.198 45.5081 101.265 45.4989 101.328 45.4762C101.391 45.4535 101.448 45.4179 101.497 45.3718C101.545 45.3256 101.583 45.2698 101.608 45.208C101.633 45.1462 101.646 45.0798 101.644 45.013ZM78.0838 45.9358C78.1471 45.9392 78.2104 45.9296 78.2698 45.9074C78.3292 45.8853 78.3835 45.8512 78.4292 45.8073C78.4749 45.7633 78.511 45.7104 78.5354 45.6519C78.5598 45.5934 78.5719 45.5305 78.571 45.4671C78.56 45.334 78.5016 45.2092 78.4064 45.1156C78.3111 45.0219 78.1854 44.9655 78.0522 44.9567C77.7854 44.9567 77.5958 45.1672 77.5896 45.4625C77.5857 45.7901 77.7376 45.9366 78.0838 45.9358ZM84.9991 45.5033C85.2157 45.4987 85.4617 45.2389 85.4686 45.0146C85.4686 44.7679 85.2034 44.5111 84.9467 44.5173C84.7061 44.5227 84.4533 44.7802 84.4579 45.0161C84.4602 45.2682 84.7277 45.5087 84.9968 45.5033H84.9991Z" fill="#FFD997"/>
<path d="M75 23.7318C75.4525 23.3232 75.9806 23.489 76.4871 23.553C76.6506 23.5738 76.7269 23.7326 76.7277 23.9061C76.7277 24.1219 76.7277 24.3378 76.7277 24.5529C76.7331 24.8034 76.8626 24.9592 77.1085 25.0023C77.3216 25.0386 77.5392 25.0386 77.7523 25.0023C78.0128 24.9592 78.1424 24.7942 78.1424 24.5298C78.1424 24.3447 78.1424 24.1597 78.1424 23.9747C78.1485 23.684 78.3012 23.5083 78.5872 23.4936C78.8645 23.4793 79.1424 23.4793 79.4198 23.4936C79.7089 23.5075 79.8615 23.6786 79.8693 23.9701C79.8739 24.1543 79.8693 24.3393 79.8693 24.5244C79.8693 24.8065 80.0127 24.9746 80.2848 25.0062C80.4787 25.0286 80.6745 25.0286 80.8684 25.0062C81.1405 24.9754 81.2862 24.8088 81.2855 24.5259C81.2855 24.3409 81.2855 24.1558 81.2855 23.9716C81.2932 23.6817 81.4474 23.509 81.7342 23.4936C82.0115 23.4793 82.2894 23.4793 82.5668 23.4936C82.8536 23.5083 83.0108 23.6817 83.0116 23.9739C83.0116 25.6592 83.0116 27.3447 83.0116 29.0305C83.0116 29.4738 82.6608 29.8138 82.2052 29.8338C81.9994 29.8423 81.7935 29.8338 81.5885 29.8338H81.4759C81.3988 29.7405 81.2855 29.7745 81.1876 29.7745C79.7351 29.7745 78.2827 29.7745 76.8302 29.7745C76.7323 29.7745 76.6228 29.7405 76.5419 29.8338H76.4286C76.3171 29.828 76.2054 29.828 76.094 29.8338C75.5828 29.8862 75.2105 29.6974 75 29.2171V23.7318ZM81.3525 26.9968C81.3549 26.9332 81.3444 26.8697 81.3216 26.8103C81.2988 26.7509 81.2643 26.6967 81.2199 26.651C81.1756 26.6054 81.1225 26.5691 81.0638 26.5446C81.0051 26.52 80.9421 26.5075 80.8784 26.508C80.8129 26.5044 80.7472 26.514 80.6854 26.5361C80.6236 26.5582 80.5668 26.5924 80.5184 26.6368C80.47 26.6811 80.4309 26.7347 80.4034 26.7943C80.3759 26.8539 80.3607 26.9185 80.3585 26.9841C80.3562 27.0497 80.3672 27.1151 80.3906 27.1765C80.4139 27.2378 80.4494 27.2939 80.4947 27.3414C80.54 27.3889 80.5944 27.4268 80.6546 27.453C80.7148 27.4792 80.7796 27.4932 80.8453 27.494C81.1375 27.501 81.3433 27.2997 81.3525 26.9968Z" fill="#EFCB7B"/>
<path d="M98.8683 43.1596L97.4282 43.4055C96.6264 43.542 95.8254 43.6831 95.0229 43.8126C94.642 43.8743 94.2566 43.9128 93.8734 43.9622C93.8734 43.202 93.8734 42.4426 93.8734 41.6833C93.8753 41.2927 93.796 40.906 93.6406 40.5477C93.4852 40.1894 93.257 39.8673 92.9706 39.6017C92.2066 38.867 91.2653 38.5733 90.2022 38.7892C88.8068 39.0713 87.7429 40.3757 87.7629 41.7472C87.7745 42.5274 87.7629 43.3076 87.7629 44.0878C87.0691 44.05 86.3991 43.8712 85.7238 43.7255C84.7794 43.5212 83.8281 43.3593 82.8713 43.2251C82.8104 43.2167 82.748 43.2205 82.7056 43.165V32.1298L85.4463 32.1198C86.1401 32.1198 86.5302 31.7289 86.5364 31.0335C86.5415 30.3869 86.5474 29.7404 86.5541 29.0938H95.0206C95.0267 29.7507 95.0326 30.4075 95.0383 31.0643C95.0452 31.7189 95.4415 32.1159 96.0976 32.1198C97.0227 32.1251 97.9478 32.1267 98.8691 32.1298C98.8691 35.8066 98.8688 39.4833 98.8683 43.1596ZM91.6099 36.9266C92.3346 36.9189 92.8966 36.3992 92.9606 35.7254C92.993 35.3893 92.8403 35.1573 92.5528 35.1048C92.2914 35.057 92.0501 35.2305 91.9815 35.5412C91.9376 35.7393 91.8821 35.9051 91.6431 35.902C91.4041 35.8989 91.3524 35.7239 91.3154 35.5296C91.2661 35.2636 91.0911 35.1002 90.8274 35.1002C90.5638 35.1002 90.388 35.2544 90.3371 35.5235C90.2993 35.7247 90.2415 35.9159 89.9802 35.902C89.7404 35.8889 89.7011 35.7123 89.6625 35.5165C89.6415 35.3938 89.5761 35.283 89.4787 35.2054C89.3813 35.1278 89.2588 35.0887 89.1344 35.0956C88.8685 35.1187 88.6873 35.3315 88.6819 35.626C88.6703 36.3121 89.2709 36.9104 89.9802 36.9258C90.2885 36.932 90.5545 36.6945 90.8213 36.6945C91.088 36.6945 91.3493 36.942 91.6099 36.9266ZM95.7506 36.38H95.167C95.1462 36.38 95.1262 36.38 95.1054 36.38C94.7762 36.4 94.5726 36.5688 94.5495 36.8425C94.5225 37.1509 94.6729 37.3691 95.0283 37.3945C95.5075 37.4265 95.9884 37.4265 96.4676 37.3945C96.5347 37.391 96.6005 37.3742 96.6611 37.3451C96.7217 37.316 96.7759 37.2752 96.8207 37.225C96.8654 37.1748 96.8997 37.1163 96.9217 37.0527C96.9437 36.9892 96.9529 36.922 96.9487 36.8549C96.9248 36.5966 96.692 36.3923 96.3951 36.3777C96.1801 36.373 95.965 36.38 95.7506 36.38ZM85.915 36.38C85.6899 36.38 85.464 36.3723 85.2396 36.38C85.1052 36.3802 84.9756 36.4304 84.8759 36.5206C84.7762 36.6109 84.7135 36.7349 84.7 36.8687C84.6938 36.9989 84.7387 37.1263 84.8251 37.2238C84.9115 37.3213 85.0326 37.3812 85.1626 37.3907C85.6508 37.4419 86.143 37.4419 86.6312 37.3907C86.9773 37.3514 87.113 37.1594 87.0938 36.8572C87.0776 36.5704 86.8933 36.4 86.5595 36.3815C86.3444 36.3707 86.1293 36.3807 85.915 36.38ZM95.2333 35.1087C95.2279 35.4841 95.4423 35.7501 95.7452 35.7432C96.0482 35.7362 96.2456 35.4895 96.2471 35.1264C96.2487 34.7633 96.0606 34.5243 95.7491 34.5189C95.4376 34.5135 95.2387 34.7348 95.2333 35.1087ZM86.4099 35.121C86.4099 34.7356 86.2241 34.5166 85.9065 34.5174C85.5889 34.5181 85.4046 34.7448 85.4023 35.1241C85.4023 35.4895 85.6058 35.7409 85.9096 35.7409C86.2133 35.7409 86.4099 35.4942 86.4099 35.121ZM84.9297 39.7605C84.9297 39.4668 84.7408 39.2733 84.461 39.2741C84.3943 39.2729 84.3281 39.2848 84.266 39.3093C84.204 39.3338 84.1474 39.3703 84.0996 39.4167C84.0517 39.4632 84.0135 39.5186 83.9871 39.5798C83.9608 39.6411 83.9468 39.707 83.946 39.7736C83.9506 39.9949 84.2328 40.2593 84.4656 40.2601C84.5291 40.2585 84.5917 40.2443 84.6496 40.2182C84.7076 40.1921 84.7597 40.1546 84.8029 40.1081C84.8462 40.0615 84.8797 40.0068 84.9014 39.9471C84.9232 39.8874 84.9328 39.824 84.9297 39.7605ZM93.2644 31.072C93.3278 31.0733 93.3908 31.0618 93.4497 31.0382C93.5086 31.0147 93.5622 30.9795 93.6073 30.9349C93.6524 30.8902 93.688 30.837 93.7121 30.7783C93.7363 30.7196 93.7484 30.6567 93.7477 30.5933C93.7393 30.3535 93.4864 30.1045 93.2435 30.0945C92.9791 30.0837 92.7571 30.3258 92.7625 30.6203C92.7679 30.8963 92.9668 31.0751 93.2644 31.072Z" fill="#F9D182"/>
<path d="M105.144 43.3384C104.538 43.343 103.954 43.168 103.351 43.1402C102.526 43.1032 101.705 42.9606 100.874 43.0863C100.603 43.1271 100.321 43.0955 100.043 43.0963C100.043 39.5844 100.042 36.0728 100.039 32.5614C100.039 32.4342 100.091 32.2931 99.9801 32.1806C99.9801 32.1621 99.9801 32.1428 99.9801 32.1243L100.003 31.0673H105.128C105.136 31.1591 105.15 31.25 105.15 31.3418C105.15 35.2797 105.15 39.2172 105.15 43.1541C105.15 43.2158 105.144 43.2806 105.144 43.3384ZM103.926 33.4295C103.93 33.1327 103.752 32.9291 103.482 32.9214C103.349 32.9206 103.221 32.969 103.121 33.0574C103.021 33.1458 102.958 33.2679 102.943 33.4002C102.932 33.65 103.187 33.9044 103.453 33.9082C103.731 33.9129 103.922 33.7209 103.926 33.4295ZM102.177 39.2115C102.416 39.2115 102.668 38.9617 102.673 38.7251C102.678 38.4884 102.414 38.2216 102.16 38.2247C101.919 38.2247 101.668 38.4737 101.663 38.7112C101.658 38.9486 101.922 39.2154 102.177 39.2123V39.2115Z" fill="#EFCB7B"/>
<path d="M76.4316 42.7841C76.4316 38.9494 76.4316 35.1148 76.4316 31.2801C76.4348 31.2089 76.4417 31.1378 76.4525 31.0673H81.5754L81.5985 32.1243C81.5985 32.1428 81.5985 32.1621 81.5985 32.1806C81.4921 32.2823 81.5391 32.4118 81.5391 32.5306C81.536 36.0332 81.536 39.5351 81.5391 43.0362C80.7882 42.9753 80.0373 42.8774 79.2857 42.8612C78.386 42.8419 77.4878 42.7455 76.5874 42.7902C76.5342 42.7926 76.4825 42.7864 76.4316 42.7841ZM80.6124 40.2669C80.6136 40.17 80.5861 40.0749 80.5335 39.9935C80.4809 39.912 80.4055 39.8479 80.3166 39.8091C80.2278 39.7703 80.1295 39.7585 80.034 39.7752C79.9385 39.7919 79.8501 39.8364 79.7797 39.9031C79.7093 39.9697 79.6602 40.0557 79.6383 40.1501C79.6165 40.2446 79.623 40.3434 79.657 40.4342C79.691 40.5249 79.7509 40.6037 79.8294 40.6606C79.9079 40.7176 80.0014 40.7501 80.0982 40.7542C80.1647 40.759 80.2315 40.7499 80.2943 40.7275C80.357 40.7051 80.4144 40.6699 80.4628 40.624C80.5112 40.5782 80.5495 40.5227 80.5753 40.4612C80.601 40.3998 80.6137 40.3336 80.6124 40.2669ZM77.652 33.8442C77.652 34.1403 77.8301 34.3361 78.1061 34.34C78.1724 34.3438 78.2389 34.3344 78.3015 34.3124C78.3642 34.2903 78.4219 34.256 78.4711 34.2114C78.5204 34.1669 78.5604 34.113 78.5886 34.0529C78.6169 33.9927 78.6329 33.9276 78.6358 33.8612C78.645 33.6477 78.3682 33.3578 78.1508 33.3539C78.0851 33.3505 78.0194 33.3607 77.9579 33.384C77.8964 33.4073 77.8404 33.4432 77.7935 33.4893C77.7466 33.5354 77.7098 33.5908 77.6854 33.6519C77.6611 33.713 77.6497 33.7785 77.652 33.8442Z" fill="#EFCB7B"/>
<path d="M99.9846 29.837C99.7795 29.837 99.5737 29.8431 99.3678 29.837C99.2599 29.8359 99.1532 29.8133 99.054 29.7707C98.9548 29.7281 98.865 29.6661 98.7899 29.5885C98.7149 29.511 98.6559 29.4192 98.6166 29.3187C98.5772 29.2181 98.5582 29.1108 98.5607 29.0028C98.5576 27.3376 98.5576 25.6726 98.5607 24.0079C98.5607 23.664 98.721 23.5037 99.0679 23.4937C99.3038 23.4875 99.5403 23.4875 99.7772 23.4937C100.124 23.5029 100.282 23.664 100.288 24.0048C100.288 24.1282 100.288 24.2515 100.288 24.3749C100.284 24.6154 100.271 24.8806 100.558 24.9646C100.895 25.0625 101.252 25.1065 101.56 24.8875C101.707 24.785 101.708 24.6031 101.701 24.435C101.658 23.5276 101.769 23.469 102.644 23.4914C102.757 23.4914 102.871 23.4852 102.983 23.4914C103.269 23.5153 103.422 23.6825 103.428 23.974C103.433 24.159 103.428 24.344 103.428 24.529C103.428 24.7935 103.558 24.9585 103.818 25.0016C104.032 25.0379 104.249 25.0379 104.462 25.0016C104.708 24.9585 104.837 24.8027 104.843 24.5529C104.848 24.3579 104.843 24.1621 104.843 23.967C104.851 23.6586 104.985 23.5099 105.29 23.4937C105.568 23.4794 105.845 23.4794 106.123 23.4937C106.409 23.5083 106.57 23.6833 106.57 23.9724C106.573 25.6479 106.573 27.3232 106.57 28.9982C106.57 29.4854 106.22 29.8208 105.73 29.8347C105.535 29.84 105.339 29.8347 105.144 29.8347H105.036C104.955 29.7414 104.845 29.7753 104.747 29.7753C103.295 29.7753 101.843 29.7753 100.39 29.7753C100.292 29.7753 100.183 29.7414 100.102 29.8347L99.9846 29.837ZM104.727 26.6615C104.727 26.3839 104.532 26.1989 104.237 26.1989C103.943 26.1989 103.744 26.3793 103.741 26.6561C103.741 26.912 104 27.1772 104.246 27.168C104.492 27.1587 104.727 26.9043 104.727 26.6615ZM100.657 27.8025C100.36 27.8025 100.164 27.9859 100.163 28.265C100.163 28.5086 100.407 28.7638 100.647 28.7715C100.887 28.7792 101.143 28.5202 101.149 28.2758C101.149 28.2121 101.136 28.1491 101.111 28.0905C101.086 28.0319 101.049 27.979 101.003 27.9348C100.957 27.8907 100.903 27.8562 100.844 27.8335C100.784 27.8107 100.721 27.8002 100.657 27.8025Z" fill="#EFCB7B"/>
<path d="M94.9673 24.4697C95.1168 24.573 95.2857 24.5168 95.4452 24.5245C95.8307 24.5453 96.0836 24.7696 96.0905 25.1566C96.1018 25.8119 96.1018 26.467 96.0905 27.1218C96.0828 27.5072 95.8284 27.7293 95.4391 27.7478C95.3003 27.7539 95.1507 27.7 95.0251 27.8048L94.921 27.8002C94.8293 27.7015 94.709 27.7424 94.6018 27.7424C92.0608 27.7424 89.5198 27.7424 86.9788 27.7424C86.8716 27.7424 86.7475 27.7015 86.6596 27.8002L86.5555 27.8048C86.4299 27.7 86.2803 27.7539 86.1415 27.7478C85.7522 27.7293 85.4978 27.5065 85.4901 27.1218C85.4778 26.4675 85.4778 25.8124 85.4901 25.1566C85.497 24.7712 85.7476 24.5453 86.1354 24.5245C86.2949 24.5168 86.4638 24.573 86.6133 24.4697H86.7182C86.8092 24.5707 86.9294 24.5299 87.0374 24.5299C89.5393 24.5299 92.0408 24.5299 94.5417 24.5299C94.6496 24.5299 94.773 24.5707 94.8609 24.4697H94.9673ZM88.2601 26.5251C88.2567 26.5856 88.2657 26.6462 88.2863 26.7033C88.3069 26.7603 88.3389 26.8126 88.3802 26.857C88.4215 26.9014 88.4713 26.937 88.5267 26.9617C88.5821 26.9864 88.6419 26.9997 88.7026 27.0007C89.0225 27.0107 89.2423 26.8126 89.2423 26.515C89.2423 26.2984 88.967 26.0193 88.7488 26.0178C88.4636 26.0116 88.2639 26.2198 88.2601 26.5251Z" fill="#EFCB7B"/>
<path d="M99.9784 32.1245C99.9784 32.143 99.9784 32.1622 99.9784 32.1807V43.0972C99.6069 43.0757 99.2437 43.199 98.8706 43.1597C98.8706 39.4833 98.8706 35.8067 98.8706 32.1298L99.9784 32.1245Z" fill="#E5BD6C"/>
<path d="M81.5993 32.1792C81.5993 32.1607 81.5993 32.1414 81.5993 32.1229L82.7094 32.1283V43.1628C82.3358 43.1638 81.9632 43.1217 81.5993 43.0371C81.5987 39.4183 81.5987 35.799 81.5993 32.1792Z" fill="#E5BD6C"/>
<path d="M87.4653 23.4875C88.1803 22.658 88.8947 21.829 89.6085 21.0005C89.8221 20.7522 90.0349 20.5032 90.2515 20.2573C90.5306 19.9412 91.0101 19.9042 91.2823 20.2141C92.2336 21.2981 93.1703 22.3959 94.1124 23.4891L87.4653 23.4875ZM92.0224 22.8839C92.017 22.5925 91.8196 22.3758 91.5598 22.3766C91.3131 22.3766 91.0332 22.6472 91.0371 22.8808C91.0356 22.947 91.048 23.0128 91.0735 23.0738C91.0991 23.1349 91.1372 23.1899 91.1854 23.2353C91.2336 23.2807 91.2908 23.3154 91.3534 23.3372C91.4159 23.359 91.4823 23.3674 91.5482 23.3619C91.8373 23.3572 92.027 23.1668 92.0224 22.8839Z" fill="#E8D186"/>
<path d="M94.9196 27.801L95.0237 27.8056C95.0237 28.2353 95.0237 28.6647 95.0237 29.0938H86.5573C86.5573 28.6642 86.5573 28.2347 86.5573 27.8056L86.6613 27.801H94.9196Z" fill="#D6B06E"/>
<path d="M87.4653 23.4876H94.1124L94.9673 24.4698H94.8617H86.7183H86.6127L87.4653 23.4876Z" fill="#E5BD6C"/>
<path d="M81.5754 31.0673H76.4494L76.4286 29.8338H81.5939C81.5872 30.246 81.581 30.6572 81.5754 31.0673Z" fill="#D6B06E"/>
<path d="M105.036 29.8371H105.149L105.128 31.0706H100.002C99.9963 30.6594 99.9904 30.2483 99.9847 29.8371H105.036Z" fill="#D6B06E"/>
<path d="M87.766 44.0854C87.766 43.3052 87.7753 42.525 87.766 41.7448C87.746 40.3733 88.8099 39.0689 90.2053 38.7867C91.2684 38.5709 92.2097 38.8638 92.9737 39.5993C93.2601 39.8648 93.4883 40.187 93.6437 40.5453C93.7991 40.9036 93.8784 41.2903 93.8765 41.6808C93.8765 42.4402 93.8765 43.1996 93.8765 43.9597C93.3715 44.0206 92.8673 44.0923 92.3608 44.1417C91.3709 44.2396 90.3772 44.2026 89.385 44.2095C88.8429 44.21 88.3017 44.1685 87.766 44.0854Z" fill="#CCA771"/>
<path d="M101.644 45.013C101.643 45.1113 101.613 45.2072 101.558 45.2883C101.503 45.3695 101.424 45.4323 101.333 45.4687C101.242 45.5051 101.142 45.5134 101.046 45.4925C100.95 45.4717 100.862 45.4227 100.794 45.3517C100.726 45.2807 100.681 45.1911 100.664 45.0943C100.647 44.9974 100.66 44.8978 100.7 44.8082C100.741 44.7186 100.807 44.643 100.89 44.5912C100.974 44.5393 101.071 44.5136 101.169 44.5173C101.233 44.518 101.296 44.5314 101.355 44.5569C101.413 44.5823 101.466 44.6192 101.511 44.6653C101.555 44.7115 101.589 44.766 101.612 44.8257C101.635 44.8854 101.646 44.9491 101.644 45.013Z" fill="#D6B06E"/>
<path d="M78.0836 45.9356C77.7398 45.9356 77.5879 45.7899 77.5917 45.4623C77.5917 45.167 77.7853 44.9589 78.0543 44.9565C78.1876 44.9653 78.3133 45.0217 78.4085 45.1154C78.5038 45.209 78.5622 45.3338 78.5732 45.4669C78.5741 45.5305 78.5619 45.5936 78.5374 45.6523C78.5129 45.711 78.4765 45.764 78.4305 45.808C78.3846 45.852 78.3301 45.886 78.2704 45.908C78.2107 45.9299 78.1471 45.9394 78.0836 45.9356Z" fill="#D6B06E"/>
<path d="M84.9969 45.5033C84.7278 45.5087 84.4572 45.2682 84.4572 45.0161C84.4526 44.7802 84.7055 44.5227 84.946 44.5173C85.2027 44.5111 85.471 44.7678 85.4679 45.0145C85.4625 45.2389 85.2135 45.4987 84.9969 45.5033Z" fill="#D6B06E"/>
<path d="M99.9785 43.0973V32.1792C100.09 32.2918 100.038 32.4328 100.038 32.56C100.042 36.0714 100.043 39.5831 100.042 43.0949L99.9785 43.0973Z" fill="#EBD99E"/>
<path d="M81.5992 32.1792C81.5992 35.798 81.5992 39.4168 81.5992 43.0356H81.5376C81.5376 39.534 81.5376 36.0321 81.5376 32.53C81.5399 32.4105 81.4929 32.2825 81.5992 32.1792Z" fill="#EBD99E"/>
<path d="M81.3525 26.997C81.3433 27.2999 81.1374 27.5011 80.8452 27.4942C80.7796 27.4934 80.7148 27.4794 80.6546 27.4532C80.5944 27.427 80.54 27.389 80.4947 27.3415C80.4493 27.2941 80.4139 27.238 80.3905 27.1766C80.3671 27.1153 80.3562 27.0499 80.3584 26.9843C80.3606 26.9186 80.3759 26.8541 80.4034 26.7945C80.4308 26.7348 80.4699 26.6813 80.5184 26.6369C80.5668 26.5926 80.6236 26.5584 80.6854 26.5363C80.7472 26.5142 80.8128 26.5046 80.8784 26.5082C80.942 26.5077 81.0051 26.5202 81.0638 26.5447C81.1225 26.5693 81.1756 26.6056 81.2199 26.6512C81.2642 26.6969 81.2988 26.7511 81.3216 26.8105C81.3444 26.8699 81.3549 26.9334 81.3525 26.997Z" fill="#D6B06E"/>
<path d="M81.476 29.837H76.542C76.6229 29.7437 76.7324 29.7776 76.8303 29.7776C78.2828 29.7776 79.7352 29.7776 81.1877 29.7776C81.2856 29.7776 81.3989 29.7437 81.476 29.837Z" fill="#E9D289"/>
<path d="M91.6099 36.9267C91.3493 36.9421 91.0864 36.69 90.8212 36.6954C90.556 36.7008 90.2915 36.9352 89.9801 36.9267C89.2708 36.9113 88.6695 36.3099 88.6818 35.6269C88.6872 35.3324 88.8684 35.1196 89.1344 35.0965C89.2587 35.0896 89.3813 35.1287 89.4786 35.2063C89.576 35.2839 89.6415 35.3947 89.6625 35.5174C89.701 35.7117 89.7396 35.8882 89.9801 35.9029C90.2414 35.9168 90.2993 35.7256 90.337 35.5244C90.3879 35.2514 90.5683 35.1011 90.8274 35.1011C91.0864 35.1011 91.266 35.2645 91.3154 35.5305C91.3524 35.7248 91.4017 35.9006 91.643 35.9029C91.8843 35.9052 91.9375 35.7402 91.9815 35.5421C92.0501 35.2337 92.2898 35.0579 92.5527 35.1057C92.8403 35.1582 92.9929 35.3902 92.9605 35.7263C92.8966 36.3994 92.3345 36.919 91.6099 36.9267Z" fill="#3C424A"/>
<path d="M95.7507 36.38C95.965 36.38 96.1801 36.373 96.3952 36.38C96.692 36.3923 96.9248 36.5989 96.9487 36.8572C96.9529 36.9243 96.9437 36.9915 96.9218 37.0551C96.8998 37.1186 96.8654 37.1771 96.8207 37.2273C96.776 37.2775 96.7218 37.3183 96.6612 37.3474C96.6006 37.3765 96.5348 37.3933 96.4677 37.3968C95.9884 37.4288 95.5076 37.4288 95.0283 37.3968C94.6729 37.3714 94.5226 37.1563 94.5496 36.8449C94.5727 36.5727 94.7762 36.4039 95.1054 36.3823C95.1262 36.3823 95.1463 36.3823 95.1671 36.3823L95.7507 36.38Z" fill="#E55D5B"/>
<path d="M85.9149 36.3799C86.1293 36.3799 86.3444 36.3707 86.5587 36.3799C86.8925 36.3984 87.0768 36.5688 87.0929 36.8556C87.1107 37.164 86.975 37.3497 86.6304 37.3891C86.1422 37.4403 85.6499 37.4403 85.1617 37.3891C85.0318 37.3796 84.9107 37.3197 84.8243 37.2222C84.7379 37.1247 84.693 36.9973 84.6992 36.8671C84.7127 36.7333 84.7754 36.6093 84.8751 36.519C84.9747 36.4288 85.1043 36.3786 85.2388 36.3784C85.4639 36.3722 85.6898 36.3799 85.9149 36.3799Z" fill="#E55D5B"/>
<path d="M95.2334 35.1087C95.2388 34.7387 95.4346 34.5151 95.7491 34.5205C96.0637 34.5259 96.2495 34.7556 96.2472 35.128C96.2448 35.5003 96.0429 35.737 95.7453 35.7447C95.4477 35.7524 95.228 35.4803 95.2334 35.1087Z" fill="#3C424A"/>
<path d="M86.41 35.121C86.41 35.4925 86.2111 35.7377 85.9096 35.7377C85.6082 35.7377 85.4001 35.4887 85.4024 35.121C85.4024 34.7417 85.5936 34.515 85.9066 34.5142C86.2196 34.5135 86.41 34.7378 86.41 35.121Z" fill="#3C424A"/>
<path d="M84.9298 39.7605C84.9329 39.8239 84.9233 39.8872 84.9017 39.9468C84.88 40.0064 84.8466 40.061 84.8035 40.1075C84.7605 40.1541 84.7085 40.1915 84.6508 40.2177C84.593 40.2439 84.5306 40.2583 84.4672 40.2601C84.236 40.2601 83.9523 39.9949 83.9476 39.7736C83.9484 39.707 83.9624 39.6411 83.9888 39.5798C84.0151 39.5186 84.0533 39.4632 84.1012 39.4167C84.1491 39.3703 84.2056 39.3338 84.2677 39.3093C84.3297 39.2848 84.3959 39.2728 84.4626 39.2741C84.7409 39.2718 84.9283 39.4668 84.9298 39.7605Z" fill="#D6B06E"/>
<path d="M93.2643 31.0721C92.9667 31.0721 92.7678 30.8963 92.7624 30.6203C92.757 30.3266 92.9791 30.0807 93.2435 30.0946C93.4863 30.1046 93.7392 30.3536 93.7477 30.5934C93.7483 30.6568 93.7362 30.7197 93.7121 30.7784C93.688 30.8371 93.6523 30.8903 93.6072 30.9349C93.5622 30.9796 93.5086 31.0147 93.4497 31.0383C93.3908 31.0618 93.3277 31.0733 93.2643 31.0721Z" fill="#D6B06E"/>
<path d="M103.926 33.4294C103.922 33.7201 103.731 33.9128 103.452 33.9082C103.186 33.9043 102.931 33.6499 102.942 33.4002C102.957 33.2678 103.02 33.1457 103.12 33.0573C103.22 32.969 103.348 32.9205 103.482 32.9214C103.756 32.9291 103.93 33.1326 103.926 33.4294Z" fill="#D6B06E"/>
<path d="M102.176 39.2125C101.922 39.2125 101.657 38.9581 101.663 38.7122C101.669 38.4662 101.919 38.2288 102.159 38.2257C102.414 38.2257 102.678 38.4809 102.673 38.726C102.667 38.9712 102.416 39.2094 102.176 39.2125Z" fill="#D6B06E"/>
<path d="M80.6124 40.2672C80.6112 40.3654 80.5808 40.461 80.5249 40.5418C80.4691 40.6226 80.3904 40.6849 80.2989 40.7208C80.2075 40.7566 80.1074 40.7643 80.0116 40.7429C79.9157 40.7215 79.8284 40.672 79.7608 40.6007C79.6933 40.5294 79.6485 40.4396 79.6324 40.3427C79.6162 40.2458 79.6293 40.1463 79.67 40.0569C79.7107 39.9675 79.7771 39.8923 79.8608 39.8409C79.9445 39.7895 80.0417 39.7642 80.1398 39.7684C80.2038 39.7694 80.267 39.7831 80.3256 39.8089C80.3842 39.8346 80.4371 39.8718 80.4811 39.9183C80.5251 39.9648 80.5594 40.0196 80.582 40.0795C80.6045 40.1394 80.6149 40.2032 80.6124 40.2672Z" fill="#D6B06E"/>
<path d="M77.652 33.8443C77.6497 33.7786 77.6611 33.7131 77.6854 33.6519C77.7098 33.5908 77.7466 33.5355 77.7935 33.4893C77.8404 33.4432 77.8964 33.4074 77.9579 33.3841C78.0194 33.3608 78.0851 33.3505 78.1508 33.354C78.3682 33.354 78.645 33.6477 78.6358 33.8613C78.6326 33.9274 78.6164 33.9923 78.588 34.0522C78.5596 34.1121 78.5196 34.1657 78.4703 34.21C78.4211 34.2543 78.3635 34.2884 78.301 34.3103C78.2385 34.3322 78.1723 34.3416 78.1061 34.3377C77.8301 34.3377 77.6513 34.1403 77.652 33.8443Z" fill="#D6B06E"/>
<path d="M104.727 26.6616C104.727 26.9044 104.485 27.1588 104.246 27.1673C104.007 27.1758 103.738 26.9114 103.741 26.6554C103.741 26.3786 103.94 26.1975 104.237 26.1982C104.534 26.199 104.727 26.384 104.727 26.6616Z" fill="#D6B06E"/>
<path d="M100.657 27.8024C100.72 27.8001 100.784 27.8106 100.843 27.8333C100.903 27.856 100.957 27.8904 101.003 27.9345C101.049 27.9785 101.086 28.0314 101.111 28.0899C101.136 28.1484 101.149 28.2113 101.149 28.275C101.143 28.5193 100.882 28.7776 100.647 28.7707C100.412 28.7637 100.163 28.5078 100.163 28.2642C100.164 27.9858 100.364 27.8024 100.657 27.8024Z" fill="#D6B06E"/>
<path d="M105.036 29.837H100.102C100.179 29.7437 100.292 29.7776 100.39 29.7776C101.843 29.7776 103.295 29.7776 104.748 29.7776C104.846 29.7776 104.955 29.7437 105.036 29.837Z" fill="#E9D289"/>
<path d="M88.2601 26.525C88.2639 26.2166 88.4636 26.0147 88.7527 26.0177C88.9709 26.0177 89.2476 26.2984 89.2461 26.515C89.2461 26.8126 89.0225 27.0107 88.7064 27.0007C88.6455 27.0001 88.5853 26.9873 88.5294 26.9628C88.4736 26.9383 88.4233 26.9028 88.3815 26.8583C88.3398 26.8139 88.3075 26.7614 88.2867 26.7041C88.2658 26.6468 88.2567 26.5859 88.2601 26.525Z" fill="#D6B06E"/>
<path d="M94.9196 27.8009H86.6582C86.7499 27.7023 86.8702 27.7431 86.9774 27.7431C89.5184 27.7431 92.0594 27.7431 94.6004 27.7431C94.7076 27.7431 94.8279 27.7023 94.9196 27.8009Z" fill="#E5D49D"/>
<path d="M86.7183 24.4697H94.8602C94.7692 24.5707 94.6489 24.5299 94.541 24.5299C92.0395 24.5299 89.5381 24.5299 87.0367 24.5299C86.9287 24.5322 86.8085 24.573 86.7183 24.4697Z" fill="#E5D49D"/>
<path d="M92.0223 22.8839C92.027 23.1668 91.8373 23.3572 91.5474 23.3619C91.4814 23.3675 91.4149 23.3592 91.3523 23.3374C91.2897 23.3157 91.2324 23.281 91.1841 23.2356C91.1358 23.1902 91.0976 23.1351 91.072 23.074C91.0464 23.0129 91.034 22.947 91.0355 22.8808C91.0355 22.6495 91.3115 22.3766 91.5582 22.3766C91.8196 22.3758 92.0169 22.5925 92.0223 22.8839Z" fill="#D6B06E"/>
<path d="M43.091 63.8346C43.6004 63.9027 44.1068 63.9837 44.591 64.1666C44.7555 64.228 44.909 64.2967 44.9415 64.4925C44.974 64.6883 44.8464 64.7994 44.7046 64.9025H44.5008C44.1362 64.7301 43.7465 64.6515 43.3525 64.5852C43.0996 64.5393 42.8401 64.5438 42.589 64.5982C42.3378 64.6527 42.0998 64.7561 41.8886 64.9025H41.6431C41.4369 64.7798 41.2037 64.7319 40.9754 64.673C40.3002 64.4974 39.6392 64.4974 39.0297 64.9025H38.7842C38.4571 64.6036 38.4939 64.3667 38.8978 64.158C39.154 64.0324 39.424 63.9372 39.7024 63.8745C39.9565 63.8376 40.21 63.807 40.4629 63.8745C40.8459 63.8935 41.2123 63.9923 41.5762 64.1034C41.6376 64.1224 41.699 64.1648 41.7702 64.1353C41.9746 64.05 42.1802 63.9659 42.3839 63.8812L43.091 63.8346Z" fill="#F09C22"/>
<path d="M38.6971 61.7575C37.8992 62.0221 37.1013 62.2884 36.3034 62.5505C34.3258 63.1995 32.3468 63.8468 30.3664 64.4925C29.9147 64.6398 29.5612 64.4716 29.3997 64.0438C29.7441 63.9211 30.0884 63.7983 30.4333 63.6756C31.2963 63.3736 32.1605 63.0741 33.0228 62.7709C33.2542 62.6899 33.364 62.4922 33.2959 62.2977C33.2278 62.1031 33.0345 62.0135 32.7994 62.0957C32.1285 62.332 31.462 62.5806 30.7875 62.8059C30.4481 62.9194 30.1203 63.0704 29.768 63.1447C29.2156 63.0833 28.9087 62.7021 29.0241 62.224C29.0941 61.9319 29.2942 61.7637 29.5765 61.6778C30.5123 61.3935 31.4291 61.0499 32.3213 60.6491C33.4715 60.1317 34.5818 59.5443 35.5368 58.7053C35.9143 58.371 36.2392 57.9816 36.5004 57.5502C36.7907 57.0751 37.0601 56.5853 37.4008 56.1422C38.0145 55.3443 38.8186 54.8042 39.7331 54.4083C39.951 54.4083 40.0983 54.5716 40.2793 54.6538C40.8606 54.9214 41.4719 55.0018 42.1034 54.9791C42.1034 55.5432 42.1219 56.1085 42.1034 56.6719C42.0421 58.5746 41.2178 60.0703 39.6877 61.1886C39.3759 61.4151 39.0303 61.5734 38.6971 61.7575ZM39.1316 56.0403C39.0039 56.0403 38.9542 56.0643 38.8419 56.1631C38.4006 56.5664 38.0262 57.0373 37.7328 57.5582C37.4296 58.0786 37.1277 58.6016 36.7048 59.0404C36.0897 59.6728 35.3889 60.2158 34.6229 60.6534C34.4038 60.781 34.3295 60.9793 34.424 61.1603C34.5247 61.3537 34.7309 61.4059 34.9684 61.2721C35.3491 61.0503 35.7165 60.8066 36.0689 60.5423C36.8365 59.9937 37.4894 59.3002 37.9906 58.5009C38.3975 57.843 38.7333 57.1261 39.3783 56.6394C39.5091 56.5412 39.5072 56.3754 39.4428 56.2263C39.3875 56.0913 39.2752 56.0403 39.1341 56.0403H39.1316ZM41.0294 56.7425V56.5995C41.0294 56.3257 40.9318 56.2067 40.7084 56.2036C40.4555 56.2005 40.3401 56.322 40.3358 56.6019C40.3319 56.7509 40.3188 56.8995 40.2965 57.0469C40.1609 58.0952 39.6582 58.9324 38.8517 59.6026C38.5976 59.8131 38.2944 59.9383 38.0231 60.1176C37.839 60.2372 37.8065 60.3931 37.9035 60.573C38.0004 60.7528 38.2048 60.8007 38.4368 60.6853C39.1863 60.3256 39.8237 59.7685 40.2805 59.0738C40.7372 58.3792 40.9961 57.5732 41.0294 56.7425Z" fill="#349B31"/>
<path d="M42.8332 44.8778C43.2733 45.0307 43.7195 45.17 44.1534 45.3412C44.2489 45.3785 44.3352 45.4361 44.4063 45.51C44.4773 45.5839 44.5316 45.6723 44.5652 45.7691C44.5988 45.866 44.611 45.969 44.6009 46.071C44.5909 46.173 44.5588 46.2716 44.507 46.3601C44.1829 46.9076 43.8318 47.4385 43.4887 47.9761C43.4273 48.0768 43.3224 48.1332 43.2303 48.202C43.0999 48.2355 42.9675 48.2607 42.8338 48.2775C41.9199 48.3428 41.0237 48.563 40.1836 48.9287C39.6208 49.1668 39.1341 49.5424 38.5774 49.788C38.4371 49.7989 38.2963 49.7729 38.1692 49.7125C37.6647 49.4964 37.1528 49.2969 36.6434 49.0919C36.0837 48.8667 35.9278 48.3775 36.2604 47.8779C36.49 47.5336 36.7244 47.1923 36.957 46.8499C37.0485 46.8652 37.0381 46.9511 37.0589 47.0088C37.1344 47.2175 37.1964 47.4317 37.2725 47.6404C37.2885 47.6868 37.3139 47.7295 37.347 47.7657C37.3801 47.802 37.4203 47.8311 37.4651 47.8513C37.5099 47.8715 37.5583 47.8823 37.6074 47.8831C37.6565 47.8838 37.7052 47.8746 37.7506 47.8558C37.9096 47.7987 37.9912 47.6054 37.9305 47.42C37.7259 46.7928 37.5197 46.1657 37.3118 45.5389C37.7061 45.1373 38.1742 44.8156 38.6903 44.5912C39.5263 44.2229 40.3923 43.9652 41.3209 44.0038C41.4829 44.0112 41.6444 44.0308 41.8064 44.045C41.9469 44.6649 42.1685 45.2596 42.3968 45.85C42.4864 46.082 42.7332 46.0906 42.921 45.9243C43.0695 45.793 43.0437 45.6414 43.0002 45.4787C42.9492 45.2768 42.8363 45.0927 42.8332 44.8778ZM39.4121 45.742C39.2139 45.7469 39.1052 45.8353 39.0555 45.9949C38.9996 46.171 39.0751 46.3018 39.2157 46.3957C39.3219 46.4663 39.5017 46.5 39.5324 46.5902C39.5631 46.6805 39.4416 46.8143 39.3937 46.9327C39.3747 46.9744 39.3641 47.0194 39.3625 47.0651C39.3609 47.1109 39.3683 47.1565 39.3844 47.1994C39.4005 47.2423 39.4249 47.2816 39.4562 47.315C39.4875 47.3485 39.525 47.3754 39.5668 47.3943C39.7337 47.4741 39.9148 47.4145 40.0234 47.247C40.0928 47.1402 40.1057 46.9554 40.2167 46.9315C40.318 46.9094 40.4457 47.0199 40.5647 47.0647C40.644 47.0954 40.7317 47.0961 40.8115 47.0667C40.8912 47.0373 40.9575 46.9799 40.998 46.9051C41.0384 46.8303 41.0502 46.7434 41.0311 46.6606C41.012 46.5778 40.9634 46.5048 40.8943 46.4552C40.7833 46.3791 40.5985 46.3466 40.5586 46.249C40.5107 46.1318 40.6679 46.0035 40.7065 45.866C40.7328 45.7842 40.7287 45.6957 40.6949 45.6167C40.661 45.5378 40.5998 45.4737 40.5224 45.4364C40.445 45.3994 40.3568 45.3922 40.2744 45.4162C40.1921 45.4402 40.1216 45.4937 40.0762 45.5665C40.0245 45.6462 39.9805 45.7307 39.9448 45.8187C39.9043 45.9182 39.8559 45.9317 39.7607 45.8801C39.6435 45.8194 39.5306 45.7334 39.4121 45.742Z" fill="#474F5D"/>
<path d="M38.5774 49.7904C39.1341 49.5449 39.6208 49.1669 40.1837 48.9312C41.0236 48.5646 41.9198 48.3436 42.8339 48.2775C42.9675 48.2608 43.1 48.2356 43.2304 48.202C43.6969 48.4506 44.1302 48.7415 44.4665 49.1583C44.5125 49.2154 44.5531 49.2773 44.596 49.3375C44.3483 49.3008 44.0963 49.3024 43.8491 49.3424C42.8173 49.5186 42.0771 50.4693 42.125 51.4071C42.1385 51.6618 42.2422 51.7803 42.4963 51.7932C42.6044 51.7981 42.7136 51.7932 42.8222 51.7975L42.8259 52.1424C42.8296 52.6807 43.1733 53.0839 43.7091 53.1858C44.0712 53.2564 44.4364 53.1944 44.7998 53.2232C44.6562 53.5203 44.4278 53.7523 44.2118 53.9947C43.9111 54.2678 43.572 54.4953 43.2052 54.6699C42.8517 54.8307 42.4755 54.9043 42.1005 54.9804C41.4689 55.0032 40.8576 54.9227 40.2763 54.6551C40.0922 54.5717 39.948 54.4096 39.7301 54.4096C39.7559 54.3243 39.6792 54.3084 39.635 54.2746C38.2847 53.2238 37.8514 51.5366 38.5369 49.9641C38.5596 49.9083 38.6008 49.8567 38.5774 49.7904ZM41.1325 52.4849C41.3893 52.4728 41.6317 52.3627 41.8097 52.1772C41.9877 51.9918 42.0878 51.7452 42.0894 51.4881C42.1753 50.9529 41.7027 50.3766 41.0399 50.3698C40.4666 50.3643 39.9572 50.8928 39.9781 51.4617C40.0001 52.073 40.5059 52.5205 41.1325 52.4849Z" fill="#3CBC39"/>
<path d="M42.0992 54.9805C42.4755 54.9044 42.8517 54.8307 43.204 54.6699C43.5708 54.4953 43.9099 54.2678 44.2106 53.9948C44.7145 54.6509 45.0754 55.3751 45.2092 56.1957C45.4467 57.6528 45.1564 58.9871 44.2351 60.1625C43.8073 60.7102 43.2704 61.1631 42.6584 61.4925C42.6105 61.5183 42.5589 61.5391 42.5387 61.5962C42.2932 61.6245 42.0845 61.7448 41.8678 61.8466L40.8797 62.0449L40.1542 62.0504C39.7295 62.0645 39.3207 61.9706 38.915 61.862C38.8389 61.8417 38.7536 61.8313 38.6996 61.7595C39.0304 61.5754 39.3747 61.417 39.6816 61.1918C41.2117 60.0735 42.0354 58.5753 42.0974 56.6751C42.1176 56.1098 42.1005 55.5445 42.0992 54.9805ZM44.221 57.0562C44.2456 56.715 44.1787 56.3307 44.0627 55.9514C44.0448 55.8745 44.0004 55.8062 43.9372 55.7588C43.8739 55.7115 43.796 55.6879 43.7171 55.6924C43.5385 55.6924 43.4176 55.8078 43.3728 55.987C43.3464 56.0914 43.398 56.1865 43.4231 56.2829C43.5437 56.7467 43.56 57.2314 43.471 57.7022C43.382 58.1731 43.1898 58.6184 42.9082 59.0061C42.7738 59.1989 42.81 59.3965 42.9873 59.5242C43.1647 59.6518 43.3556 59.5984 43.517 59.3609C43.9755 58.6833 44.2443 57.9437 44.221 57.0562Z" fill="#F7E8AE"/>
<path d="M42.8221 51.7949C42.7135 51.7949 42.6042 51.7949 42.4962 51.7906C42.2421 51.7777 42.1384 51.6593 42.1249 51.4046C42.077 50.4667 42.8172 49.516 43.8489 49.3399C44.0964 49.3015 44.3484 49.3015 44.5959 49.3399C45.527 49.5547 46.1463 50.1144 46.3144 51.0584C46.4826 52.0024 46.1407 52.8089 45.4809 53.4858C45.3613 53.6086 45.2759 53.584 45.206 53.4245C45.1734 53.3508 45.1446 53.2759 45.1102 53.2023C45.0562 53.0415 45.0077 52.8794 44.9476 52.7217C44.7733 52.2626 44.4688 51.9398 43.9741 51.8342C43.5948 51.7495 43.2069 51.809 42.8221 51.7949Z" fill="#EEC21A"/>
<path d="M29.7679 63.1497C30.1202 63.0754 30.4479 62.9244 30.7873 62.8109C31.4625 62.5856 32.1284 62.337 32.7992 62.1007C33.0343 62.0185 33.2246 62.1007 33.2958 62.3027C33.367 62.5046 33.254 62.6949 33.0227 62.7759C32.1634 63.0791 31.2961 63.3786 30.4332 63.6806C30.0882 63.8033 29.7439 63.9261 29.3996 64.0488C29.2615 63.7634 29.4291 63.4001 29.6261 63.2546C29.6746 63.219 29.7206 63.1822 29.7679 63.1497Z" fill="#257F20"/>
<path d="M42.8221 51.7949C43.207 51.8066 43.5949 51.747 43.9766 51.8287C44.4713 51.9342 44.7745 52.2583 44.9501 52.7162C45.0114 52.8739 45.0587 53.036 45.1127 53.1968L44.7997 53.2232C44.4363 53.1943 44.0712 53.2563 43.709 53.1857C43.1732 53.0814 42.8295 52.6781 42.8258 52.1423L42.8221 51.7949Z" fill="#F09A1F"/>
<path d="M41.8678 61.8473C42.0845 61.7454 42.2974 61.6251 42.5386 61.5969L43.091 63.8346L42.384 63.8837C42.2121 63.2049 42.0401 62.5261 41.8678 61.8473Z" fill="#EEC31C"/>
<path d="M37.3119 45.5415C37.5165 46.1688 37.7227 46.7958 37.9306 47.4227C37.992 47.6068 37.9097 47.8014 37.7508 47.8585C37.7054 47.8772 37.6566 47.8865 37.6075 47.8857C37.5584 47.8849 37.51 47.8741 37.4652 47.854C37.4204 47.8338 37.3802 47.8047 37.3471 47.7684C37.314 47.7321 37.2887 47.6895 37.2726 47.643C37.1965 47.4344 37.1345 47.2202 37.059 47.0115C37.0382 46.9538 37.0486 46.8678 36.9572 46.8525C36.9572 46.7034 36.8958 46.5628 36.9019 46.41C36.9012 46.2438 36.9377 46.0796 37.0086 45.9293C37.0796 45.7791 37.1832 45.6466 37.3119 45.5415Z" fill="#3A404B"/>
<path d="M40.1542 62.0484L40.8791 62.0428C40.8128 62.319 40.7398 62.5952 40.6815 62.8708C40.6115 63.2072 40.474 63.5282 40.4624 63.8768C40.2095 63.8068 39.956 63.8375 39.7019 63.8768C39.8529 63.2663 40.0037 62.6568 40.1542 62.0484Z" fill="#EEC31C"/>
<path d="M42.8331 44.8779C42.8362 45.0927 42.9491 45.2768 43 45.4787C43.0418 45.6414 43.0694 45.793 42.9209 45.9243C42.7331 46.0907 42.4863 46.0821 42.3967 45.8501C42.1684 45.2596 41.9499 44.6649 41.8063 44.045C42.328 44.1014 42.6416 44.4139 42.8331 44.8779Z" fill="#3A404B"/>
<path d="M39.1342 56.0402C39.2753 56.0402 39.3877 56.093 39.4453 56.2244C39.5098 56.3735 39.5116 56.5392 39.3809 56.6374C38.7358 57.1241 38.3989 57.841 37.9932 58.499C37.492 59.2983 36.8391 59.9918 36.0715 60.5403C35.7191 60.8047 35.3516 61.0483 34.971 61.2701C34.7359 61.4033 34.5272 61.3517 34.4266 61.1584C34.3321 60.9743 34.4063 60.7791 34.6255 60.6514C35.3914 60.2138 36.0922 59.6709 36.7073 59.0385C37.1302 58.5972 37.4322 58.0767 37.7354 57.5562C38.0288 57.0353 38.4031 56.5644 38.8445 56.1611C38.9568 56.0642 39.004 56.0402 39.1342 56.0402Z" fill="#77D346"/>
<path d="M41.0295 56.7425C40.9962 57.5732 40.7374 58.3792 40.2806 59.0738C39.8238 59.7685 39.1865 60.3256 38.4369 60.6853C38.2049 60.8007 38.0012 60.7534 37.9036 60.573C37.806 60.3926 37.8422 60.2373 38.0233 60.1176C38.2945 59.9384 38.5977 59.8107 38.8518 59.6026C39.6583 58.9324 40.161 58.0952 40.2966 57.0469C40.3189 56.8996 40.332 56.7509 40.3359 56.6019C40.3359 56.3221 40.4556 56.2005 40.7085 56.2036C40.9319 56.2036 41.0289 56.3264 41.0295 56.5995V56.7425Z" fill="#77D346"/>
<path d="M39.412 45.7421C39.5304 45.7335 39.6434 45.8194 39.7612 45.8814C39.8569 45.9323 39.9054 45.9188 39.9453 45.82C39.981 45.732 40.025 45.6475 40.0767 45.5678C40.122 45.495 40.1926 45.4415 40.2749 45.4175C40.3572 45.3935 40.4455 45.4007 40.5229 45.4377C40.6003 45.475 40.6615 45.5391 40.6953 45.618C40.7292 45.697 40.7333 45.7855 40.707 45.8673C40.6683 46.0042 40.5112 46.1331 40.5591 46.2503C40.5996 46.346 40.7837 46.3786 40.8942 46.4553C40.9639 46.5046 41.0131 46.5777 41.0326 46.6608C41.0521 46.7439 41.0404 46.8313 40.9998 46.9064C40.9592 46.9815 40.8926 47.0391 40.8124 47.0684C40.7322 47.0977 40.6441 47.0966 40.5646 47.0654C40.4455 47.0206 40.3191 46.9101 40.2166 46.9322C40.1055 46.9561 40.0939 47.1409 40.0233 47.2476C39.9146 47.4152 39.7336 47.4747 39.5666 47.395C39.5249 47.3761 39.4873 47.3491 39.456 47.3157C39.4248 47.2823 39.4004 47.243 39.3843 47.2001C39.3682 47.1572 39.3608 47.1116 39.3623 47.0658C39.3639 47.0201 39.3745 46.9751 39.3936 46.9334C39.4414 46.8149 39.5623 46.6787 39.5323 46.5909C39.5022 46.5032 39.3217 46.4682 39.2156 46.3964C39.075 46.3018 38.9995 46.1717 39.0554 45.9956C39.1057 45.8354 39.2137 45.747 39.412 45.7421Z" fill="#FBFBFC"/>
<path d="M42.0895 51.4881C42.0878 51.745 41.9876 51.9915 41.8096 52.1768C41.6316 52.3621 41.3893 52.4721 41.1327 52.4842L41.0246 52.4314C40.8707 52.3647 40.7426 52.2498 40.6594 52.1041C40.5762 51.9584 40.5425 51.7897 40.5632 51.6232C40.5839 51.4567 40.658 51.3015 40.7744 51.1806C40.8908 51.0598 41.0432 50.9799 41.2088 50.9529C41.5341 50.8915 41.8661 51.0658 42.0324 51.3825C42.0484 51.4206 42.0729 51.4543 42.0895 51.4881Z" fill="#FBFBFC"/>
<path d="M42.0893 51.488C42.0696 51.4536 42.0482 51.4199 42.0279 51.3849C41.8616 51.0657 41.5295 50.8939 41.2042 50.9553C41.0387 50.9822 40.8863 51.0621 40.7699 51.183C40.6535 51.3038 40.5794 51.4591 40.5587 51.6256C40.5379 51.7921 40.5717 51.9608 40.6549 52.1065C40.7381 52.2522 40.8662 52.367 41.0201 52.4338L41.1281 52.4866C40.5015 52.5222 39.9957 52.0748 39.9736 51.4641C39.9528 50.8951 40.4647 50.3667 41.0355 50.3722C41.7045 50.3771 42.1752 50.9534 42.0893 51.488Z" fill="#4A505E"/>
<path d="M44.2208 57.0562C44.2472 57.9437 43.979 58.6833 43.5168 59.3609C43.3548 59.5984 43.1658 59.6524 42.9871 59.5242C42.8085 59.3959 42.7736 59.1989 42.908 59.0062C43.1896 58.6184 43.3818 58.1731 43.4708 57.7023C43.5598 57.2314 43.5435 56.7467 43.4229 56.2829C43.3978 56.1865 43.3462 56.0914 43.3726 55.987C43.4174 55.8078 43.5383 55.6949 43.7169 55.6924C43.7958 55.6879 43.8737 55.7115 43.937 55.7589C44.0002 55.8063 44.0446 55.8745 44.0625 55.9514C44.1754 56.3308 44.2423 56.715 44.2208 57.0562Z" fill="#E2BF5D"/>
<defs>
<linearGradient id="paint0_linear_4615_4789" x1="3059.32" y1="8223.41" x2="3078.8" y2="8276.84" gradientUnits="userSpaceOnUse">
<stop stop-color="#005826"/>
<stop offset="0.5" stop-color="#00A651"/>
<stop offset="1" stop-color="#72BF44"/>
</linearGradient>
<linearGradient id="paint1_linear_4615_4789" x1="3058.48" y1="8208.38" x2="3077.36" y2="8260.09" gradientUnits="userSpaceOnUse">
<stop stop-color="#00A651"/>
<stop offset="0.5" stop-color="#8DC63F"/>
<stop offset="1" stop-color="#BBD976"/>
</linearGradient>
<linearGradient id="paint2_linear_4615_4789" x1="1769.22" y1="2791.31" x2="1939.36" y2="2833.8" gradientUnits="userSpaceOnUse">
<stop stop-color="#005826"/>
<stop offset="0.5" stop-color="#00A651"/>
<stop offset="1" stop-color="#72BF44"/>
</linearGradient>
<linearGradient id="paint3_linear_4615_4789" x1="1755.05" y1="2779.6" x2="1891.36" y2="2813.67" gradientUnits="userSpaceOnUse">
<stop stop-color="#005826"/>
<stop offset="0.5" stop-color="#00A651"/>
<stop offset="1" stop-color="#72BF44"/>
</linearGradient>
<linearGradient id="paint4_linear_4615_4789" x1="70477.6" y1="-21288" x2="70721" y2="-21742.8" gradientUnits="userSpaceOnUse">
<stop stop-color="#005826"/>
<stop offset="0.5" stop-color="#00A651"/>
<stop offset="1" stop-color="#72BF44"/>
</linearGradient>
<linearGradient id="paint5_linear_4615_4789" x1="71061.9" y1="-21171.7" x2="71294.4" y2="-21612.2" gradientUnits="userSpaceOnUse">
<stop stop-color="#00A651"/>
<stop offset="0.5" stop-color="#8DC63F"/>
<stop offset="1" stop-color="#BBD976"/>
</linearGradient>
<linearGradient id="paint6_linear_4615_4789" x1="8506.83" y1="14920.1" x2="8572.13" y2="15035.3" gradientUnits="userSpaceOnUse">
<stop stop-color="#00A651"/>
<stop offset="1" stop-color="#8DC63F"/>
</linearGradient>
<linearGradient id="paint7_linear_4615_4789" x1="8475.57" y1="14862.8" x2="8530.01" y2="14958.7" gradientUnits="userSpaceOnUse">
<stop stop-color="#004B24"/>
<stop offset="0.5" stop-color="#00A651"/>
<stop offset="1" stop-color="#72BF44"/>
</linearGradient>
<linearGradient id="paint8_linear_4615_4789" x1="44986.2" y1="-4797" x2="45528.3" y2="-5047.67" gradientUnits="userSpaceOnUse">
<stop stop-color="#00A651"/>
<stop offset="1" stop-color="#8DC63F"/>
</linearGradient>
<linearGradient id="paint9_linear_4615_4789" x1="45161.4" y1="-4778.25" x2="45687.8" y2="-5023.25" gradientUnits="userSpaceOnUse">
<stop stop-color="#00A651"/>
<stop offset="1" stop-color="#8DC63F"/>
</linearGradient>
<linearGradient id="paint10_linear_4615_4789" x1="-4150.46" y1="-55176.2" x2="-4176.88" y2="-55509.5" gradientUnits="userSpaceOnUse">
<stop stop-color="#005826"/>
<stop offset="0.5" stop-color="#00A651"/>
<stop offset="1" stop-color="#72BF44"/>
</linearGradient>
<linearGradient id="paint11_linear_4615_4789" x1="-4113.97" y1="-53793.8" x2="-4138.43" y2="-54108.8" gradientUnits="userSpaceOnUse">
<stop stop-color="#00A651"/>
<stop offset="0.5" stop-color="#8DC63F"/>
<stop offset="1" stop-color="#BBD976"/>
</linearGradient>
<linearGradient id="paint12_linear_4615_4789" x1="-36665.8" y1="-15372.5" x2="-36760.6" y2="-15544.8" gradientUnits="userSpaceOnUse">
<stop stop-color="#00A651"/>
<stop offset="1" stop-color="#8DC63F"/>
</linearGradient>
<linearGradient id="paint13_linear_4615_4789" x1="-37219.6" y1="-15487.9" x2="-37311.9" y2="-15656.6" gradientUnits="userSpaceOnUse">
<stop stop-color="#00A651"/>
<stop offset="1" stop-color="#8DC63F"/>
</linearGradient>
<linearGradient id="paint14_linear_4615_4789" x1="-14661" y1="-84605.6" x2="-15083.8" y2="-85162.4" gradientUnits="userSpaceOnUse">
<stop stop-color="#005826"/>
<stop offset="0.5" stop-color="#00A651"/>
<stop offset="1" stop-color="#72BF44"/>
</linearGradient>
<linearGradient id="paint15_linear_4615_4789" x1="-14606.5" y1="-86214.2" x2="-15025.9" y2="-86755" gradientUnits="userSpaceOnUse">
<stop stop-color="#00A651"/>
<stop offset="0.5" stop-color="#8DC63F"/>
<stop offset="1" stop-color="#BBD976"/>
</linearGradient>
<linearGradient id="paint16_linear_4615_4789" x1="4545.05" y1="1335.89" x2="4142.22" y2="1435.01" gradientUnits="userSpaceOnUse">
<stop stop-color="#005826"/>
<stop offset="0.5" stop-color="#00A651"/>
<stop offset="1" stop-color="#72BF44"/>
</linearGradient>
<linearGradient id="paint17_linear_4615_4789" x1="4597.5" y1="1322.98" x2="4273.76" y2="1402.87" gradientUnits="userSpaceOnUse">
<stop stop-color="#005826"/>
<stop offset="0.5" stop-color="#00A651"/>
<stop offset="1" stop-color="#72BF44"/>
</linearGradient>
<linearGradient id="paint18_linear_4615_4789" x1="-106064" y1="-33154.4" x2="-106629" y2="-34222.8" gradientUnits="userSpaceOnUse">
<stop stop-color="#005826"/>
<stop offset="0.5" stop-color="#00A651"/>
<stop offset="1" stop-color="#72BF44"/>
</linearGradient>
<linearGradient id="paint19_linear_4615_4789" x1="-106888" y1="-33369" x2="-107438" y2="-34411.4" gradientUnits="userSpaceOnUse">
<stop stop-color="#00A651"/>
<stop offset="0.5" stop-color="#8DC63F"/>
<stop offset="1" stop-color="#BBD976"/>
</linearGradient>
<linearGradient id="paint20_linear_4615_4789" x1="-72366.3" y1="-115868" x2="-73052.4" y2="-117193" gradientUnits="userSpaceOnUse">
<stop stop-color="#00A651"/>
<stop offset="1" stop-color="#8DC63F"/>
</linearGradient>
<linearGradient id="paint21_linear_4615_4789" x1="-72407.1" y1="-116702" x2="-72987.4" y2="-117816" gradientUnits="userSpaceOnUse">
<stop stop-color="#004B24"/>
<stop offset="0.5" stop-color="#00A651"/>
<stop offset="1" stop-color="#72BF44"/>
</linearGradient>
<linearGradient id="paint22_linear_4615_4789" x1="-57129.5" y1="-6377.3" x2="-58413.8" y2="-6978.61" gradientUnits="userSpaceOnUse">
<stop stop-color="#00A651"/>
<stop offset="1" stop-color="#8DC63F"/>
</linearGradient>
<linearGradient id="paint23_linear_4615_4789" x1="-56844" y1="-6334.8" x2="-58084" y2="-6915.34" gradientUnits="userSpaceOnUse">
<stop stop-color="#00A651"/>
<stop offset="1" stop-color="#8DC63F"/>
</linearGradient>
<linearGradient id="paint24_linear_4615_4789" x1="10711.1" y1="-99676.5" x2="10771.3" y2="-100448" gradientUnits="userSpaceOnUse">
<stop stop-color="#005826"/>
<stop offset="0.5" stop-color="#00A651"/>
<stop offset="1" stop-color="#72BF44"/>
</linearGradient>
<linearGradient id="paint25_linear_4615_4789" x1="10688.1" y1="-99252.6" x2="10746.2" y2="-99997" gradientUnits="userSpaceOnUse">
<stop stop-color="#00A651"/>
<stop offset="0.5" stop-color="#8DC63F"/>
<stop offset="1" stop-color="#BBD976"/>
</linearGradient>
<linearGradient id="paint26_linear_4615_4789" x1="77531.4" y1="-31786.5" x2="77757.5" y2="-32198.2" gradientUnits="userSpaceOnUse">
<stop stop-color="#00A651"/>
<stop offset="1" stop-color="#8DC63F"/>
</linearGradient>
<linearGradient id="paint27_linear_4615_4789" x1="76412.5" y1="-31207.6" x2="76626.8" y2="-31599.3" gradientUnits="userSpaceOnUse">
<stop stop-color="#00A651"/>
<stop offset="1" stop-color="#8DC63F"/>
</linearGradient>
</defs>
</svg>
