<svg width="133" height="111" viewBox="0 0 133 111" fill="none" xmlns="http://www.w3.org/2000/svg">
<path d="M69.1225 2.14778C65.4182 1.3898 61.7138 0.602666 57.9354 0.179949C52.5716 -0.446838 46.5261 0.340299 43.9924 6.1563C41.6216 11.5787 46.6299 14.2608 50.5713 16.0537C53.5347 17.3802 62.6177 19.8144 61.5064 24.7121C60.2914 29.9888 49.9785 27.4233 46.778 27.5254C38.4062 27.7878 45.3852 33.9098 48.1116 37.3062C49.8897 39.5509 52.7642 43.574 48.5857 44.5069C39.3694 46.5622 25.7523 42.4808 23.1889 55.2789C22.5073 58.6315 21.1589 62.8149 17.7658 64.3746C13.3206 66.4299 7.79376 66.0509 3.64492 68.9517C-1.45222 72.5229 -0.548348 79.7382 2.37066 84.4172C4.54654 87.5064 7.43585 90.044 10.8016 91.8221C17.5034 95.7555 24.9232 98.3603 32.6423 99.4893C36.8208 100.145 41.0733 100.597 45.2963 100.845C56.4981 101.501 68.1001 100.524 78.9167 103.862C84.488 105.582 93.6006 113.045 99.5423 108.833C104.639 105.218 103.336 97.0113 102.847 91.7492C101.854 81.0792 101.128 67.975 108.877 59.3603C111.367 56.6054 115.189 55.7745 117.53 52.9321C119.872 50.0897 119.309 46.4602 117.205 43.4866C113.085 37.656 114.078 33.4143 120.524 30.222C124.584 28.2105 132.081 26.6362 132.111 20.6744C132.111 17.7591 128.451 14.9459 126.48 13.4591C113.589 3.7512 96.7271 4.93189 81.4505 4.02815C77.3004 3.69462 73.1803 3.06618 69.1225 2.14778Z" fill="#00D8E7"/>
<path d="M71.0636 3.83863C67.7889 3.21184 64.5291 2.57047 61.1952 2.23521C56.4685 1.78334 51.1343 2.65792 48.8969 8.15324C46.8077 13.2842 51.2232 15.6747 54.6905 17.2635C57.2687 18.4442 65.2996 20.5141 64.3217 25.1057C63.2549 30.0762 54.157 27.9043 51.3269 28.0209C43.9183 28.4582 50.0971 34.0265 52.4975 37.1458C54.0681 39.2011 56.5871 42.9035 52.9124 43.8655C44.7777 45.9937 32.7757 42.4953 30.5087 54.5209C29.9012 57.6694 28.701 61.6051 25.7079 63.1502C21.7517 65.1763 16.9212 64.9577 13.2613 67.7563C8.81616 71.211 9.54223 77.9598 12.1204 82.2599C14.002 85.0556 16.5441 87.3613 19.5291 88.9796C25.4067 92.5014 31.9679 94.7753 38.7915 95.6556C42.4952 96.1775 46.2246 96.5035 49.9638 96.6323C59.8321 96.9967 70.0708 95.816 79.5983 98.7021C84.5028 100.16 92.5338 106.952 97.7791 102.871C102.224 99.3727 101.128 91.72 100.743 86.8369C99.8683 76.8958 99.2608 64.637 106.077 56.4159C108.27 53.7775 111.648 52.9175 113.723 50.2063C115.797 47.4951 115.293 44.1133 113.441 41.373C109.811 36.0234 110.685 32.0295 116.404 28.8809C119.99 26.9131 126.599 25.266 126.628 19.6832C126.628 17.0012 123.413 14.4211 121.679 13.0801C110.315 4.33422 95.438 5.79186 81.969 5.28168C78.3018 5.07504 74.656 4.59262 71.0636 3.83863Z" fill="#E2B045"/>
<path d="M74.842 8.22609C72.2846 7.59334 69.6922 7.10665 67.0777 6.76844C63.329 6.3603 59.0171 7.19113 56.8835 12.3366C54.8979 17.1323 58.2615 19.3625 60.9434 20.8347C62.9289 21.9279 69.1966 23.8375 68.1298 28.1229C66.9592 32.7728 59.8321 30.7758 57.5799 30.9362C51.653 31.3735 56.2167 36.5481 57.9207 39.4634C59.0468 41.3729 60.8841 44.8275 57.8318 45.7459C51.2085 47.7574 41.8588 44.5214 39.2805 55.7745C38.6138 58.6897 37.3988 62.4068 34.9095 63.8498C31.62 65.7593 27.7972 65.5553 24.7004 68.2228C20.8923 71.4587 21.085 77.7557 22.863 81.7788C24.1061 84.3055 26.0017 86.4668 28.3602 88.0467C32.7475 91.267 37.8709 93.3792 43.2812 94.198C46.2226 94.6791 49.192 94.9762 52.1716 95.0871C60.0247 95.3787 68.2631 94.2562 75.7014 96.9237C79.5094 98.2939 85.4956 104.606 89.9408 100.772C93.7488 97.4922 93.3191 90.3352 93.2895 85.7436C93.2895 76.4439 93.4969 65.0014 99.4831 57.2904C101.395 54.8124 104.136 53.9961 105.958 51.4598C106.806 50.2586 107.288 48.8446 107.349 47.3834C107.409 45.9223 107.045 44.4745 106.299 43.2096C103.736 38.2244 104.699 34.4637 109.426 31.5484C112.389 29.6826 117.797 28.1375 118.168 22.9191C118.345 20.412 115.93 18.0068 114.641 16.7533C106.121 8.57589 94.1637 10.0044 83.4508 9.58169C80.545 9.39086 77.6632 8.93708 74.842 8.22609Z" fill="#FFEA96"/>
<path d="M35.4428 82.0161C35.9363 82.2736 36.4985 82.3684 37.0491 82.2868C37.5969 82.1992 38.1046 81.9452 38.5033 81.5593C38.5033 81.5593 38.5033 68.667 32.0948 63.8282C32.0948 63.8282 31.7566 64.0144 31.7905 64.2682C31.8243 64.5219 37.6578 70.545 35.4428 82.0161Z" fill="#B7703B"/>
<path d="M35.747 69.2761C37.2688 72.8629 39.4839 81.4577 35.4427 82.0161C35.9362 82.2736 36.4984 82.3684 37.049 82.2868C37.5968 82.1992 38.1045 81.9452 38.5032 81.5593C38.5032 81.5593 38.5032 68.667 32.0947 63.8282C31.9903 63.8903 31.9031 63.9776 31.8411 64.0821C31.8411 64.0821 33.7518 64.6911 35.747 69.2761Z" fill="#994D08"/>
<path d="M35.561 79.3091C35.8038 79.4942 36.079 79.6319 36.3726 79.7152C36.6675 79.7832 36.9739 79.7832 37.2688 79.7152C37.5727 79.6786 37.8661 79.5807 38.1312 79.4275C38.3905 79.2726 38.6196 79.072 38.8075 78.8353L38.6553 78.0233C38.3767 78.5559 37.9047 78.9615 37.3364 79.1568C36.7826 79.3448 36.1779 79.3146 35.6456 79.0722L35.561 79.3091Z" fill="#D18316"/>
<path d="M38.7061 76.2298C38.329 76.7138 37.7753 77.0283 37.1667 77.1044C36.5581 77.1805 35.9442 77.012 35.4596 76.6359V75.8237C35.6549 76.0496 35.8929 76.2346 36.1598 76.3682C36.4268 76.5018 36.7175 76.5812 37.0152 76.602C37.3188 76.6275 37.6244 76.5928 37.9146 76.4999C38.2047 76.407 38.4737 76.2577 38.7061 76.0606V76.2298Z" fill="#D18316"/>
<path d="M35.5947 77.448C36.075 77.851 36.689 78.059 37.3152 78.0308C37.9415 78.0026 38.5343 77.7403 38.9765 77.2957L38.8243 76.9235C38.4641 77.4001 37.9327 77.7177 37.3426 77.8093C36.7525 77.9009 36.1499 77.7591 35.6624 77.4141L35.5947 77.448Z" fill="#B66612"/>
<path d="M37.5565 70.4944C37.1797 70.9734 36.6294 71.2846 36.0249 71.3606C35.4205 71.4366 34.8104 71.2713 34.3269 70.9005V70.0883C34.5222 70.3142 34.7601 70.4992 35.0271 70.6327C35.294 70.7663 35.5847 70.8458 35.8825 70.8666C36.186 70.892 36.4917 70.8573 36.7818 70.7644C37.072 70.6715 37.3409 70.5222 37.5733 70.3252L37.5565 70.4944Z" fill="#D18316"/>
<path d="M36.6094 68.887C36.4229 69.1248 36.1914 69.3235 35.9282 69.4717C35.6649 69.62 35.3751 69.7149 35.0752 69.7511C34.7752 69.7872 34.4711 69.7638 34.1802 69.6823C33.8893 69.6008 33.6173 69.4628 33.3798 69.2761V68.464C33.5725 68.6928 33.8099 68.8798 34.0774 69.0136C34.3449 69.1475 34.6368 69.2253 34.9354 69.2423C35.2389 69.2677 35.5446 69.233 35.8347 69.1401C36.1249 69.0472 36.3938 68.8979 36.6263 68.7009L36.6094 68.887Z" fill="#D18316"/>
<path d="M34.6985 72.0509C35.1788 72.4539 35.7928 72.6619 36.419 72.6337C37.0452 72.6055 37.6381 72.3432 38.0803 71.8986L37.9281 71.5095C37.5709 71.9849 37.0425 72.3022 36.4551 72.3938C35.8678 72.4854 35.2679 72.3442 34.783 72.0002L34.6985 72.0509Z" fill="#B66612"/>
<path d="M34.4281 70.1391C35.0591 70.2598 35.7124 70.1519 36.2712 69.8346C36.8315 69.5237 37.2586 69.0181 37.4717 68.4134L37.2519 68.1258C37.0564 68.7098 36.6766 69.2145 36.1697 69.5639C35.6769 69.914 35.0828 70.0923 34.4788 70.0715L34.4281 70.1391Z" fill="#B66612"/>
<path d="M35.7976 66.586C35.7976 66.586 34.5971 68.8871 32.754 68.0242L32.6018 67.212C32.6018 67.212 34.1405 68.4133 35.7299 66.4507L35.7976 66.586Z" fill="#D18316"/>
<path d="M33.6332 68.4133C34.2757 68.5277 34.9379 68.4012 35.4932 68.058C36.0496 67.7232 36.469 67.2016 36.6768 66.5861L36.457 66.2816C36.278 66.8784 35.91 67.4009 35.4086 67.7704C34.9161 68.1312 34.3276 68.3373 33.7177 68.3626L33.6332 68.4133Z" fill="#B66612"/>
<path d="M34.7661 65.334C34.3893 65.8131 33.839 66.1243 33.2346 66.2003C32.6301 66.2763 32.02 66.1109 31.5365 65.7401V64.928C31.9269 65.3802 32.4799 65.6599 33.0752 65.7063C33.6881 65.7558 34.2958 65.5612 34.7661 65.1648V65.334Z" fill="#D18316"/>
<path d="M32.5852 66.5861C33.2109 66.7148 33.8619 66.6148 34.4202 66.3044C34.9786 65.994 35.4073 65.4937 35.6287 64.8942L35.4089 64.6066C35.2127 65.1901 34.8336 65.6945 34.3279 66.0451C33.8222 66.3956 33.217 66.5735 32.6021 66.5523L32.5852 66.5861Z" fill="#B66612"/>
<path d="M34.1577 63.676C34.1577 63.676 32.9572 65.9601 31.1141 65.0972L30.9619 64.302C30.9619 64.302 32.4837 65.5033 34.0732 63.5406L34.1577 63.676Z" fill="#D18316"/>
<path d="M31.9426 65.4864C32.5885 65.5927 33.2512 65.4655 33.812 65.1276C34.3727 64.7897 34.795 64.2632 35.0032 63.6422L34.7665 63.3546C34.579 63.9472 34.2127 64.4673 33.7181 64.8435C33.2281 65.2069 32.6369 65.408 32.0272 65.4187L31.9426 65.4864Z" fill="#B66612"/>
<path d="M37.6578 72.643C37.6578 72.643 36.6433 75.0623 34.9693 73.9965L34.834 73.0998C34.834 73.0998 36.2036 74.5209 37.5901 72.4568L37.6578 72.643Z" fill="#D18316"/>
<path d="M35.3241 74.6902C35.5757 74.8418 35.8589 74.9333 36.1516 74.9575C36.4443 74.9818 36.7387 74.9383 37.0118 74.8303C37.285 74.7223 37.5296 74.5527 37.7266 74.3347C37.9236 74.1167 38.0678 73.8563 38.1479 73.5735L37.9619 73.2013C37.8901 73.4698 37.7649 73.721 37.5937 73.9399C37.4226 74.1587 37.2091 74.3408 36.9659 74.4751C36.7227 74.6094 36.455 74.6932 36.1787 74.7214C35.9024 74.7497 35.6232 74.7218 35.3579 74.6394L35.3241 74.6902Z" fill="#B66612"/>
<path d="M38.7059 79.8166C38.2446 80.2405 37.6413 80.4759 37.015 80.4764C36.3878 80.481 35.7826 80.2449 35.3241 79.8166L35.4255 79.4275C35.8197 79.8775 36.3694 80.1616 36.9643 80.2227C37.5654 80.2906 38.1699 80.1273 38.6552 79.7659L38.7059 79.8166Z" fill="#B66612"/>
<path d="M31.0464 62.644C30.7428 61.543 30.6116 60.4015 30.6575 59.2602C30.7925 59.5477 30.982 59.8063 31.2155 60.0215C31.0363 59.6299 30.8783 59.2289 30.7421 58.8203C30.7421 58.3127 31.2324 56.9592 31.2324 56.9592C31.2908 57.056 31.3588 57.1467 31.4354 57.2299C31.4199 57.0756 31.3916 56.9228 31.3508 56.7731C31.5756 56.0573 32.0191 55.4301 32.6189 54.9797V56.384C32.7042 55.8122 32.8285 55.2469 32.9909 54.6921C33.3211 54.4379 33.693 54.2432 34.09 54.1169C34.0384 54.328 34.0045 54.543 33.9885 54.7598C34.0288 54.5323 34.0969 54.3107 34.1914 54.0999C34.648 53.9976 35.1246 54.0329 35.5611 54.2014L34.5296 55.8933C34.2817 55.8175 34.0167 55.8175 33.7687 55.8933C33.9716 55.8933 34.4451 56.0456 34.4451 56.0456L33.9547 57.3653L33.6165 57.4499L33.8702 57.6021L33.6673 58.3635C33.3829 58.483 33.1111 58.6304 32.8557 58.8034H33.5151C33.209 59.6733 32.9771 60.5675 32.8218 61.4766C32.6302 61.5533 32.453 61.662 32.2977 61.798H32.7542C32.5538 62.6687 32.463 63.561 32.4837 64.4543C31.8212 63.9639 31.3206 63.2862 31.0464 62.5086V62.644Z" fill="url(#paint0_linear_4615_5184)"/>
<path opacity="0.3" d="M31.689 59.497C31.3001 61.2246 31.5715 63.0352 32.4498 64.5727C31.7893 64.0662 31.2995 63.3695 31.0464 62.5762C30.7428 61.4752 30.6116 60.3337 30.6575 59.1924C30.7925 59.48 30.982 59.7386 31.2155 59.9538C31.0363 59.5622 30.8783 59.1611 30.7421 58.7525C30.7421 58.245 31.2324 56.8915 31.2324 56.8915C31.2908 56.9883 31.3588 57.0789 31.4354 57.1622C31.4199 57.0078 31.3916 56.855 31.3508 56.7054C31.5756 55.9896 32.0191 55.3623 32.6189 54.912V56.3162C32.7042 55.7444 32.8285 55.1791 32.9909 54.6243C33.3211 54.3701 33.693 54.1755 34.09 54.0491C34.0384 54.2602 34.0045 54.4753 33.9885 54.692C34.0288 54.4646 34.0969 54.243 34.1914 54.0322C34.648 53.9299 35.1246 53.9652 35.5611 54.1337C34.5332 54.5992 33.6381 55.3146 32.9571 56.2147C32.2882 57.1278 31.8529 58.1908 31.689 59.3109V59.497Z" fill="url(#paint1_linear_4615_5184)"/>
<path d="M29.8121 62.7793C29.0403 63.0031 28.3254 63.3897 27.7154 63.9129C27.9764 63.9142 28.2348 63.9659 28.4763 64.0652C28.1575 64.0841 27.8408 64.1294 27.5294 64.2005C27.2443 64.586 26.9898 64.9933 26.7685 65.4186H27.039L26.7178 65.554C26.429 66.1288 26.3284 66.7799 26.4303 67.4151C26.5994 67.2459 27.1912 66.7891 27.1912 66.7891C26.9242 67.1091 26.6812 67.4484 26.4642 67.8042C26.5178 68.208 26.6141 68.6051 26.7516 68.9885C26.8453 68.8587 26.9531 68.7395 27.0728 68.6332C26.9773 68.7791 26.8925 68.9318 26.8192 69.09C27.0092 69.5191 27.2922 69.9006 27.6477 70.2067L28.0536 68.5148C27.8659 68.3156 27.7219 68.0793 27.6309 67.8211C27.7519 68.0213 27.9131 68.1941 28.1043 68.3287L28.5778 67.3474L28.4256 67.026L28.6453 67.1613L28.9835 66.6707C28.8864 66.3781 28.8129 66.0783 28.7637 65.774L29.1019 66.383C29.425 65.7804 29.8104 65.2133 30.2517 64.6911C30.1828 64.5014 30.1485 64.3008 30.1503 64.099L30.4208 64.4881C30.7869 63.9499 31.2447 63.4802 31.7735 63.1008C31.1853 62.7799 30.5081 62.661 29.8459 62.7624L29.8121 62.7793Z" fill="url(#paint2_linear_4615_5184)"/>
<path opacity="0.5" d="M28.3578 64.6912C28.7312 64.1532 29.2382 63.7217 29.8289 63.4392C30.417 63.1533 31.071 63.0306 31.7226 63.0839C31.1284 62.7629 30.4458 62.6442 29.7782 62.7456C29.0012 62.9691 28.2808 63.3555 27.6646 63.8791C27.9259 63.8772 28.1849 63.9291 28.4255 64.0314C28.1124 64.0515 27.8013 64.0968 27.4955 64.1667C27.2103 64.5522 26.9559 64.9595 26.7346 65.3849H26.9882L26.6839 65.5202C26.3978 66.0959 26.2917 66.7445 26.3795 67.3813L27.1404 66.7553C26.8846 67.0799 26.6474 67.4189 26.4302 67.7705C26.4838 68.1743 26.5802 68.5713 26.7177 68.9548C26.8016 68.8173 26.9106 68.6967 27.0389 68.5995C26.9395 68.7461 26.8491 68.8986 26.7684 69.0563C26.9693 69.4834 27.2573 69.8638 27.6138 70.1729C27.2938 69.256 27.1897 68.2775 27.3095 67.3136C27.45 66.3697 27.809 65.4717 28.3578 64.6912Z" fill="url(#paint3_linear_4615_5184)"/>
<path d="M30.4715 60.8337C29.546 60.087 28.5217 59.4721 27.4278 59.0065C27.6495 59.2784 27.8317 59.5802 27.9689 59.9032C27.7998 59.6832 26.9544 58.9218 26.9544 58.9218C26.3175 58.7874 25.6741 58.6857 25.0268 58.6173C25.0986 58.7184 25.1609 58.8261 25.2128 58.9388C25.0944 58.8373 24.807 58.6511 24.807 58.6511C24.0571 58.5674 23.3019 58.7533 22.6764 59.1756C23.0146 59.294 24.0123 59.7509 24.0123 59.7509C23.4712 59.6155 22.9132 59.514 22.3214 59.4294C21.9688 59.6749 21.6601 59.978 21.4083 60.3261C21.6291 60.3623 21.8448 60.4248 22.0508 60.5122H21.3575C21.1044 60.9479 20.9812 61.4469 21.0025 61.9504L23.0146 61.6458C23.0361 61.3669 23.1422 61.1012 23.319 60.8845C23.1837 61.0536 23.319 61.6458 23.319 61.6458H24.7224L24.9253 61.3413V61.6458L25.6862 61.7812C25.8862 61.5416 26.1132 61.3258 26.3626 61.1382L26.0751 61.7812C27.0095 61.8463 27.9369 61.9877 28.8482 62.2041C28.9954 62.0552 29.16 61.9245 29.3385 61.815L29.2202 62.3056C30.1224 62.4686 30.9983 62.7532 31.8241 63.1516C31.5887 62.264 31.1081 61.4607 30.4376 60.8337H30.4715Z" fill="url(#paint4_linear_4615_5184)"/>
<path opacity="0.5" d="M27.2419 60.1569C29.1041 60.5354 30.7604 61.5901 31.8918 63.1178C31.6411 62.2385 31.149 61.4472 30.4715 60.8337C29.546 60.087 28.5218 59.4721 27.4278 59.0065C27.6495 59.2784 27.8317 59.5802 27.9689 59.9032C27.7998 59.6832 26.9544 58.9218 26.9544 58.9218C26.3175 58.7874 25.6741 58.6857 25.0268 58.6173C25.0986 58.7184 25.1609 58.8261 25.2128 58.9388C25.0944 58.8373 24.807 58.6511 24.807 58.6511C24.0571 58.5674 23.3019 58.7533 22.6764 59.1756C23.0146 59.294 24.0123 59.7508 24.0123 59.7508C23.4712 59.6155 22.9132 59.514 22.3214 59.4294C21.9688 59.6749 21.6601 59.978 21.4083 60.3261C21.6291 60.3623 21.8448 60.4248 22.0508 60.5122H21.3575C21.1044 60.9478 20.9812 61.4469 21.0025 61.9503C21.7686 61.0944 22.7605 60.4721 23.8642 60.1549C24.9678 59.8376 26.1386 59.8384 27.2419 60.1569Z" fill="url(#paint5_linear_4615_5184)"/>
<path d="M31.0971 60.4785C30.6889 59.4521 30.155 58.4803 29.5077 57.5853C29.5077 57.5853 29.4232 57.2808 29.5077 57.5853C29.5414 57.8946 29.5414 58.2066 29.5077 58.5159C29.4197 58.0942 29.2952 57.681 29.1357 57.2808C28.8313 56.9424 27.8168 56.1134 27.8168 56.1134C27.8336 56.2199 27.8336 56.3284 27.8168 56.4349C27.8168 56.2995 27.6308 56.0288 27.6308 56.0288C27.0848 55.6103 26.4241 55.3683 25.737 55.3351C25.9399 55.5889 26.4979 56.4518 26.4979 56.4518C26.1259 56.0683 25.737 55.6961 25.3312 55.3351C24.8992 55.298 24.4641 55.3381 24.0461 55.4536C24.2184 55.5921 24.3669 55.7578 24.4858 55.9442C24.3157 55.7853 24.1349 55.6384 23.9447 55.5043C23.4322 55.6778 22.9803 55.9949 22.6427 56.4179L24.6887 57.2977C24.8862 57.0671 25.1532 56.9068 25.4496 56.8409C25.2298 56.8409 24.9254 57.4162 24.9254 57.4162L26.1259 58.2283L26.4472 58.076L26.3458 58.3805L26.9376 58.905C27.2283 58.8091 27.5289 58.7467 27.8337 58.7189L27.2757 59.125C28.0226 59.6576 28.7188 60.2579 29.3555 60.9184C29.5335 60.8476 29.7221 60.8075 29.9135 60.8L29.6092 61.1891C30.2571 61.8159 30.8251 62.5206 31.3 63.2871C31.4048 62.3275 31.295 61.3566 30.9788 60.4446L31.0971 60.4785Z" fill="url(#paint6_linear_4615_5184)"/>
<path opacity="0.5" d="M28.9159 58.3467C30.2362 59.7004 31.0996 61.434 31.3846 63.3039C31.5011 62.3525 31.4028 61.387 31.0971 60.4785C30.6888 59.4521 30.155 58.4803 29.5077 57.5853C29.5077 57.5853 29.4232 57.2808 29.5077 57.5853C29.5414 57.8946 29.5414 58.2066 29.5077 58.5159C29.4196 58.0942 29.2952 57.681 29.1357 57.2808C28.8313 56.9424 27.8168 56.1134 27.8168 56.1134C27.8336 56.2199 27.8336 56.3284 27.8168 56.4349C27.8168 56.2995 27.6308 56.0288 27.6308 56.0288C27.0848 55.6103 26.4241 55.3683 25.737 55.3351C25.9399 55.5889 26.4979 56.4518 26.4979 56.4518C26.1259 56.0683 25.737 55.6961 25.3312 55.3351C24.8992 55.298 24.464 55.3381 24.0461 55.4536C24.2184 55.5921 24.3669 55.7578 24.4858 55.9442C24.3157 55.7853 24.1349 55.6384 23.9447 55.5043C23.4322 55.6778 22.9803 55.9949 22.6427 56.4179C23.7632 56.1755 24.9269 56.2222 26.0245 56.5533C27.1007 56.8754 28.0818 57.4563 28.8821 58.2452L28.9159 58.3467Z" fill="url(#paint7_linear_4615_5184)"/>
<path d="M29.4737 61.7303C28.4177 61.509 27.3332 61.4576 26.261 61.5781C26.5469 61.7008 26.8055 61.8791 27.0219 62.1025C26.6361 61.9475 26.2408 61.8175 25.8383 61.7134C25.2465 61.8995 24.6547 62.1194 24.1474 62.3563C24.2476 62.4024 24.3391 62.4654 24.4179 62.5424C24.2659 62.5527 24.1134 62.5527 23.9614 62.5424C23.2863 62.8462 22.7241 63.3554 22.3551 63.9974C22.6763 63.9974 23.6909 63.879 23.6909 63.879C23.1739 64.0176 22.6657 64.1871 22.1691 64.3866C21.9455 64.7457 21.7854 65.1406 21.6956 65.554C21.8861 65.4831 22.0851 65.4376 22.2875 65.4186L21.6956 65.6724C21.6117 66.154 21.6765 66.6499 21.8816 67.0936L23.5725 65.8924C23.488 65.6225 23.488 65.3332 23.5725 65.0633C23.5725 65.2664 23.7754 65.757 23.7754 65.757L24.9929 65.1479V64.8096L25.1619 65.0464L25.8721 64.7757C25.9729 64.4812 26.0915 64.193 26.2272 63.9129V64.6066C27.0317 64.2218 27.8693 63.9103 28.7297 63.676C28.7955 63.4736 28.8864 63.2804 29.0003 63.1007V63.5914C29.8081 63.3169 30.6505 63.1574 31.5028 63.1177C30.9891 62.4752 30.2843 62.013 29.4906 61.798L29.4737 61.7303Z" fill="url(#paint8_linear_4615_5184)"/>
<path opacity="0.5" d="M26.4977 62.644C27.3145 62.3745 28.1768 62.2709 29.0341 62.3394C29.8928 62.4099 30.7276 62.6576 31.4859 63.0669C30.97 62.4233 30.2668 61.9562 29.4737 61.7303C28.4177 61.509 27.3332 61.4576 26.261 61.5781C26.5469 61.7008 26.8055 61.8791 27.0219 62.1025C26.6361 61.9475 26.2408 61.8175 25.8383 61.7134C25.2465 61.8995 24.6547 62.1194 24.1474 62.3563C24.2476 62.4024 24.3391 62.4654 24.4179 62.5424C24.2659 62.5527 24.1134 62.5527 23.9614 62.5424C23.2863 62.8462 22.7241 63.3554 22.3551 63.9974C22.6763 63.9974 23.6909 63.879 23.6909 63.879C23.1739 64.0176 22.6657 64.1871 22.1691 64.3866C21.9455 64.7457 21.7854 65.1406 21.6956 65.554C21.8861 65.4831 22.0851 65.4376 22.2875 65.4186L21.6956 65.6724C21.6117 66.154 21.6765 66.6499 21.8816 67.0936C22.2293 66.03 22.8392 65.071 23.6547 64.3052C24.4703 63.5394 25.4655 62.9913 26.5485 62.7116L26.4977 62.644Z" fill="url(#paint9_linear_4615_5184)"/>
<path d="M32.1792 62.4918C32.3613 61.6335 32.6689 60.8068 33.0922 60.0385C33.0927 60.2956 33.1268 60.5516 33.1937 60.7999C33.1937 60.5799 33.329 59.7171 33.329 59.7171C33.672 59.2852 34.039 58.8728 34.428 58.482C34.411 58.5828 34.411 58.6857 34.428 58.7865C34.428 58.6512 34.5633 58.3805 34.5633 58.3805C35.1082 57.8892 35.7836 57.5661 36.5078 57.4499C36.3049 57.7376 35.8146 58.6681 35.8146 58.6681C36.1592 58.2165 36.532 57.787 36.9306 57.3822C37.4024 57.2802 37.8863 57.246 38.3678 57.2807C38.2013 57.4607 38.0487 57.653 37.9112 57.856C38.0465 57.7037 38.5031 57.3146 38.5031 57.3146C39.0715 57.4211 39.5987 57.6848 40.0249 58.0759L37.7929 59.2603C37.5521 59.0751 37.2659 58.9582 36.9644 58.9219C37.2011 58.9219 37.5562 59.3956 37.5562 59.3956L36.4064 60.2923L36.0513 60.1908L36.2034 60.4445L35.6624 60.969C35.3759 60.9354 35.0865 60.9354 34.8 60.969L35.3749 61.2397C34.7629 61.7158 34.1968 62.2483 33.684 62.8301H33.1937L33.4981 63.1177C33.0391 63.5824 32.6515 64.1126 32.3482 64.6912C32.1097 64.0248 32.0457 63.3083 32.1623 62.6101L32.1792 62.4918Z" fill="url(#paint10_linear_4615_5184)"/>
<path opacity="0.5" d="M33.7686 60.6307C32.8408 61.7113 32.3468 63.0979 32.3821 64.522C32.1472 63.8726 32.0775 63.1749 32.1792 62.4918C32.3613 61.6335 32.669 60.8069 33.0923 60.0385C33.0927 60.2957 33.1268 60.5516 33.1937 60.7999C33.1937 60.5799 33.329 59.7171 33.329 59.7171C33.6721 59.2852 34.039 58.8728 34.4281 58.482C34.4111 58.5828 34.4111 58.6857 34.4281 58.7865C34.4281 58.6512 34.5634 58.3805 34.5634 58.3805C35.1083 57.8892 35.7836 57.5661 36.5079 57.4499C36.305 57.7376 35.8146 58.6681 35.8146 58.6681C36.1593 58.2165 36.532 57.787 36.9306 57.3822C37.4025 57.2802 37.8864 57.246 38.3679 57.2807C38.2014 57.4607 38.0488 57.653 37.9113 57.856C38.0466 57.7037 38.5032 57.3146 38.5032 57.3146C39.0716 57.4211 39.5987 57.6848 40.0249 58.0759C38.8713 57.9993 37.7153 58.1844 36.6432 58.6173C35.5593 59.0615 34.5928 59.7506 33.8194 60.6307H33.7686Z" fill="url(#paint11_linear_4615_5184)"/>
<path d="M32.8557 62.7794C33.3627 62.1474 33.9963 61.6287 34.7157 61.2567C34.607 61.4977 34.5384 61.7549 34.5128 62.0181C34.6714 61.7264 34.8464 61.4439 35.037 61.1721C35.4876 61.0659 35.9454 60.9924 36.4066 60.9521C36.3893 61.0415 36.3893 61.1335 36.4066 61.2229C36.4769 61.1357 36.5562 61.0563 36.6433 60.986C37.2485 60.9558 37.8456 61.135 38.3342 61.4935L37.4888 61.9842C37.8638 61.8657 38.2485 61.7808 38.6386 61.7304C38.9709 61.9417 39.2724 62.1979 39.5347 62.4918C39.3815 62.5111 39.2328 62.5569 39.0951 62.6271H39.5855C39.8711 63.0092 40.0728 63.4474 40.1773 63.913L38.6217 63.6084C38.5408 63.3443 38.4021 63.1016 38.2158 62.8978C38.3315 63.1073 38.4062 63.337 38.4357 63.5746H37.4042L37.1844 63.3039V63.5746L36.6264 63.6592C36.4183 63.4544 36.1981 63.2623 35.967 63.0839L36.339 63.6592C35.6693 63.6892 35.0054 63.797 34.3606 63.9806C34.2236 63.8438 34.0703 63.7245 33.9041 63.6253L34.1239 64.0652C33.523 64.1921 32.95 64.4272 32.433 64.7589C32.4298 64.0757 32.6235 63.406 32.991 62.8301L32.8557 62.7794Z" fill="url(#paint12_linear_4615_5184)"/>
<path opacity="0.5" d="M35.1047 62.2209C34.4755 62.393 33.896 62.7119 33.4138 63.1514C32.9175 63.6129 32.5503 64.1962 32.3485 64.8433C32.3126 64.132 32.502 63.4274 32.8896 62.83C33.3966 62.1981 34.0302 61.6794 34.7496 61.3073C34.6353 61.5463 34.5665 61.8045 34.5467 62.0687C34.7053 61.777 34.8803 61.4946 35.0709 61.2227C35.5216 61.1165 35.9793 61.043 36.4405 61.0028C36.4232 61.0922 36.4232 61.1841 36.4405 61.2735C36.5108 61.1863 36.5901 61.1069 36.6772 61.0366C37.2824 61.0064 37.8795 61.1857 38.3681 61.5442L37.5227 62.0348C37.8977 61.9163 38.2825 61.8314 38.6725 61.781C39.0049 61.9923 39.3064 62.2486 39.5687 62.5424C39.4154 62.5617 39.2667 62.6075 39.1291 62.6777H39.6194C39.9051 63.0598 40.1068 63.498 40.2113 63.9636C39.5943 63.2752 38.807 62.7617 37.9285 62.4747C37.0439 62.1855 36.0981 62.1388 35.1893 62.3393L35.1047 62.2209Z" fill="url(#paint13_linear_4615_5184)"/>
<path d="M41.0565 82.1684C40.4064 82.5051 39.6672 82.6294 38.9429 82.5237C38.2187 82.4352 37.5425 82.1147 37.0153 81.6101C37.0153 81.6101 37.0153 64.4374 45.4697 57.9236C45.4697 57.9236 45.9262 58.1774 45.8755 58.4989C45.96 58.5158 38.1144 66.8906 41.0565 82.1684Z" fill="#B7703B"/>
<path d="M40.6507 65.1818C38.5878 69.9699 35.6795 81.4747 41.0565 82.1007C40.4064 82.4374 39.6672 82.5616 38.9429 82.456C38.2268 82.3864 37.5515 82.09 37.0153 81.6101C37.0153 81.6101 37.0153 64.4374 45.4697 57.9236C45.6148 58.0045 45.737 58.121 45.8248 58.262C45.8248 58.262 43.3054 59.0741 40.6507 65.1818Z" fill="#994D08"/>
<path d="M40.9042 78.5647C40.2585 79.0595 39.4442 79.2801 38.6373 79.1788C37.8304 79.0775 37.0958 78.6624 36.5924 78.0233L36.7953 76.9574C37.1381 77.6668 37.7452 78.2134 38.4862 78.4801C39.244 78.7463 40.076 78.7037 40.8027 78.3617L40.9042 78.5647Z" fill="#D18316"/>
<path d="M36.8291 74.4704C37.3354 75.1118 38.0745 75.5268 38.8854 75.6251C39.6963 75.7233 40.5131 75.4968 41.1578 74.9949V73.9121C40.6281 74.5058 39.8882 74.8699 39.0949 74.9272C38.6996 74.9623 38.3013 74.9175 37.9236 74.7954C37.546 74.6733 37.1968 74.4765 36.8967 74.2166L36.8291 74.4704Z" fill="#D18316"/>
<path d="M40.8533 76.0944C40.2106 76.6142 39.3999 76.8806 38.5744 76.8432C37.7488 76.8058 36.9655 76.4672 36.3724 75.8914L36.5923 75.3839C37.0677 76.0186 37.7719 76.4427 38.555 76.566C39.3382 76.6892 40.1385 76.5018 40.7857 76.0437L40.8533 76.0944Z" fill="#B66612"/>
<path d="M38.2496 66.823C38.7504 67.4659 39.4854 67.8838 40.2937 67.9853C41.1019 68.0868 41.9174 67.8635 42.5614 67.3644V66.2816C42.0219 66.8743 41.2796 67.2426 40.4816 67.3136C39.6821 67.3667 38.8936 67.1057 38.2834 66.5861L38.2496 66.823Z" fill="#D18316"/>
<path d="M39.5007 64.6911C40.0015 65.334 40.7365 65.752 41.5448 65.8535C42.353 65.955 43.1685 65.7317 43.8125 65.2325V64.1328C43.2868 64.7357 42.5452 65.1074 41.7478 65.1675C40.9505 65.2277 40.1615 64.9714 39.5515 64.4542L39.5007 64.6911Z" fill="#D18316"/>
<path d="M42.0879 68.8871C41.4432 69.4047 40.6313 69.6682 39.8057 69.6276C38.9802 69.5871 38.198 69.2454 37.6071 68.6672L37.8269 68.1765C38.3048 68.8086 39.0101 69.2294 39.7932 69.3495C40.5762 69.4695 41.3751 69.2794 42.0202 68.8195L42.0879 68.8871Z" fill="#B66612"/>
<path d="M42.4092 66.3831C41.5663 66.5539 40.6901 66.4158 39.9405 65.9939C39.1597 65.5963 38.5564 64.9201 38.2496 64.099L38.5371 63.7099C38.8028 64.4875 39.313 65.1582 39.9912 65.6217C40.6633 66.0927 41.471 66.3305 42.2908 66.2985L42.4092 66.3831Z" fill="#B66612"/>
<path d="M40.6 61.6288C40.6 61.6288 42.1894 64.6742 44.6581 63.5237L44.8441 62.4578C44.8441 62.4578 42.8488 64.0482 40.7014 61.4258L40.6 61.6288Z" fill="#D18316"/>
<path d="M43.5591 64.0482C42.7035 64.192 41.8247 64.0234 41.0829 63.5731C40.3411 63.1228 39.7857 62.4208 39.5179 61.595L39.8054 61.2228C40.0545 62.0134 40.5454 62.7057 41.2088 63.2022C41.8754 63.6934 42.6806 63.9601 43.5084 63.9636L43.5591 64.0482Z" fill="#B66612"/>
<path d="M41.9696 59.9539C42.2174 60.2728 42.5258 60.5395 42.8771 60.7386C43.2284 60.9377 43.6156 61.0654 44.0164 61.1141C44.4172 61.1629 44.8236 61.1318 45.2123 61.0227C45.6011 60.9136 45.9644 60.7286 46.2814 60.4784V59.3955C45.7504 59.9957 45.0064 60.3651 44.2076 60.4251C43.4088 60.4851 42.6181 60.2311 42.0035 59.717L41.9696 59.9539Z" fill="#D18316"/>
<path d="M44.8608 61.6458C44.0201 61.828 43.1418 61.6956 42.3921 61.2736C41.644 60.8507 41.0737 60.1718 40.7858 59.3618L41.0732 58.9726C41.3302 59.7566 41.8358 60.4352 42.5133 60.9054C43.1908 61.3757 44.0031 61.6119 44.827 61.5782L44.8608 61.6458Z" fill="#B66612"/>
<path d="M42.7812 57.7206C42.7812 57.7206 44.3707 60.7659 46.8563 59.6155L47.0254 58.5496C47.0254 58.5496 45.0301 60.14 42.8827 57.5175L42.7812 57.7206Z" fill="#D18316"/>
<path d="M45.7402 60.1399C44.8845 60.2837 44.0057 60.1151 43.2639 59.6648C42.5222 59.2145 41.9667 58.5124 41.699 57.6867L42.0034 57.3145C42.2405 58.111 42.7338 58.8068 43.4068 59.294C44.0722 59.7873 44.8782 60.0542 45.7064 60.0553L45.7402 60.1399Z" fill="#B66612"/>
<path d="M38.0636 69.6484C38.0636 69.6484 39.4163 72.88 41.6483 71.4588L41.8343 70.2575C41.8343 70.2575 40.025 72.1694 38.165 69.3947L38.0636 69.6484Z" fill="#D18316"/>
<path d="M41.2088 72.4061C40.8734 72.6048 40.4969 72.724 40.1083 72.7547C39.7197 72.7853 39.3293 72.7265 38.9669 72.5828C38.6045 72.4391 38.2799 72.2142 38.0178 71.9255C37.7557 71.6368 37.5632 71.2919 37.455 70.9172L37.7086 70.4266C37.9059 71.1274 38.3722 71.7217 39.0057 72.0798C39.6392 72.438 40.3886 72.5309 41.0904 72.3384L41.2088 72.4061Z" fill="#B66612"/>
<path d="M36.6263 79.2414C37.2446 79.7885 38.0414 80.0904 38.8668 80.0904C39.6921 80.0904 40.489 79.7885 41.1072 79.2414L40.9719 78.7338C40.4415 79.3258 39.7107 79.7001 38.9206 79.7845C38.1306 79.8688 37.3373 79.6573 36.694 79.1906L36.6263 79.2414Z" fill="#B66612"/>
<path d="M46.9238 56.367C47.3091 54.922 47.4856 53.4293 47.448 51.9343C47.448 51.9343 47.5833 51.5282 47.448 51.9343C47.2483 52.3049 46.9915 52.6418 46.6871 52.9325C46.8393 52.6449 47.2958 51.3252 47.2958 51.3252C47.1943 50.6654 46.6364 48.8381 46.6364 48.8381C46.5716 48.9746 46.4861 49.1002 46.3827 49.2103C46.4271 49.0035 46.461 48.7946 46.4842 48.5844C46.1926 47.632 45.5991 46.8005 44.7933 46.2157V48.0768C44.6749 47.3492 44.5058 46.6387 44.3198 45.9281C43.8826 45.5924 43.3906 45.3348 42.8656 45.1667C42.9298 45.4332 42.9695 45.7051 42.984 45.9788C42.984 45.7589 42.7135 45.1159 42.7135 45.1159C42.1052 44.9735 41.468 45.0208 40.8873 45.2513L42.2569 47.5861C42.6028 47.4713 42.9764 47.4713 43.3222 47.5861C43.0517 47.4846 42.4091 47.806 42.4091 47.806L43.0685 49.4979L43.5082 49.6164L43.1869 49.8194L43.4405 50.8345C43.8232 50.9818 44.1866 51.175 44.5227 51.4098L43.6435 51.3083C44.0518 52.4659 44.3684 53.6539 44.5904 54.8613C44.8426 54.9715 45.0764 55.1199 45.2837 55.3012H44.658C44.9337 56.4532 45.0587 57.6361 45.03 58.8203C45.9096 58.1702 46.5703 57.2672 46.9238 56.2317V56.367Z" fill="url(#paint14_linear_4615_5184)"/>
<path opacity="0.3" d="M46.0276 52.1543C46.5858 54.4873 46.2288 56.9458 45.0299 59.0233C45.9161 58.3545 46.5722 57.4261 46.9069 56.3671C47.2931 54.9223 47.4696 53.4294 47.431 51.9343C47.431 51.9343 47.5663 51.5283 47.431 51.9343C47.2314 52.305 46.9746 52.6418 46.6701 52.9325C46.8223 52.628 47.2789 51.3253 47.2789 51.3253C47.1774 50.6485 46.6194 48.8382 46.6194 48.8382C46.5507 48.9723 46.4655 49.0974 46.3658 49.2104C46.3658 49.0074 46.4672 48.5844 46.4672 48.5844C46.1724 47.6337 45.5795 46.8031 44.7763 46.2157V48.0768C44.6411 47.3493 44.4889 46.6218 44.286 45.9112C43.8487 45.5755 43.3567 45.318 42.8318 45.1499C42.9015 45.4159 42.9468 45.6877 42.9671 45.9619C42.9671 45.742 42.6965 45.0991 42.6965 45.0991C42.0882 44.9567 41.451 45.0039 40.8704 45.2344C42.2461 45.8553 43.4414 46.8163 44.3436 48.0268C45.2458 49.2374 45.8253 50.6578 46.0276 52.1543Z" fill="url(#paint15_linear_4615_5184)"/>
<path d="M47.2959 58.2958C48.3261 58.605 49.2816 59.1234 50.1028 59.8185C50.1028 59.8185 50.4071 59.8185 50.1028 59.8185C49.7598 59.8171 49.4203 59.8861 49.1052 60.0215C49.5312 60.0587 49.9546 60.1208 50.3733 60.2076C50.7464 60.7241 51.0907 61.2606 51.4048 61.8149C51.2821 61.7894 51.1555 61.7894 51.0328 61.8149L51.4555 61.9841C51.828 62.7504 51.9634 63.6105 51.8444 64.4543C51.6246 64.2343 50.813 63.6253 50.813 63.6253C51.159 64.0603 51.4754 64.5181 51.7599 64.9957C51.7043 65.5395 51.5793 66.074 51.3879 66.5861C51.2746 66.4055 51.1317 66.2453 50.9651 66.1123C51.0883 66.3094 51.2011 66.5128 51.3033 66.7215C51.0494 67.3015 50.6747 67.8206 50.2042 68.2442L49.6463 66.0616C49.9054 65.7987 50.102 65.4806 50.2211 65.1311C50.0522 65.3957 49.8341 65.6255 49.5786 65.8078L48.953 64.4881L49.139 64.0652L48.8515 64.2344L48.4119 63.5914C48.5414 63.2056 48.6376 62.8094 48.6994 62.4071L48.2597 63.1685C47.8484 62.334 47.3496 61.5456 46.7717 60.8167C46.8547 60.5705 46.9058 60.3146 46.9239 60.0554L46.5519 60.5799C46.0693 59.8574 45.4556 59.2319 44.7427 58.7357C45.5203 58.3065 46.4196 58.1516 47.2959 58.2958Z" fill="url(#paint16_linear_4615_5184)"/>
<path opacity="0.5" d="M49.1725 60.8845C48.6911 60.1532 48.0186 59.568 47.228 59.1926C46.4429 58.8213 45.5738 58.6637 44.7085 58.7358C45.4932 58.2919 46.4064 58.1306 47.2956 58.2789C48.3258 58.5882 49.2813 59.1065 50.1024 59.8016C50.1024 59.8016 50.4068 59.8016 50.1024 59.8016C49.7595 59.8002 49.42 59.8693 49.1048 60.0047C49.5308 60.0418 49.9543 60.104 50.373 60.1908C50.746 60.7072 51.0904 61.2438 51.4045 61.7981C51.2818 61.7726 51.1551 61.7726 51.0325 61.7981L51.4552 61.9673C51.8277 62.7336 51.963 63.5937 51.8441 64.4374C51.6242 64.2175 50.8126 63.6084 50.8126 63.6084C51.1587 64.0434 51.475 64.5013 51.7595 64.9789C51.704 65.5227 51.579 66.0571 51.3875 66.5692C51.2743 66.3886 51.1314 66.2284 50.9648 66.0955C51.0879 66.2925 51.2008 66.4959 51.303 66.7046C51.0491 67.2846 50.6744 67.8037 50.2039 68.2272C50.6201 67.0082 50.7436 65.7083 50.5644 64.4326C50.3852 63.157 49.9084 61.9415 49.1725 60.8845Z" fill="url(#paint17_linear_4615_5184)"/>
<path d="M46.3826 55.7073C47.6051 54.6999 48.9734 53.8842 50.4408 53.2879C50.4408 53.2879 50.7789 52.9495 50.4408 53.2879C50.141 53.6413 49.9011 54.0413 49.7306 54.4722C49.9504 54.1846 51.0664 53.1525 51.0664 53.1525C51.9215 52.9787 52.785 52.8489 53.6535 52.7634C53.5424 52.8935 53.4461 53.0353 53.366 53.1864C53.5351 53.051 53.924 52.7972 53.924 52.7972C54.9194 52.6964 55.9186 52.9479 56.7478 53.5079C56.3251 53.6601 54.9724 54.2692 54.9724 54.2692C55.702 54.086 56.4416 53.9447 57.1874 53.8462C57.6648 54.1521 58.083 54.5419 58.4218 54.9967C58.1256 55.0395 57.8359 55.1191 57.5594 55.2336C57.7961 55.2336 58.4725 55.1321 58.4725 55.1321C58.8222 55.7064 58.993 56.372 58.9629 57.0439L56.2575 56.6548C56.2304 56.2723 56.089 55.9068 55.8517 55.6058C56.0207 55.8257 55.9531 56.6209 55.9531 56.6209L54.0593 56.7055L53.8056 56.2995L53.7042 56.7225L52.6728 56.8747C52.3892 56.571 52.0841 56.2883 51.7597 56.0288L52.1486 56.8916C50.901 56.9757 49.6625 57.1624 48.4455 57.45C48.2497 57.2469 48.0279 57.0706 47.7861 56.9255L47.9552 57.5853C46.7835 57.8148 45.6467 58.1959 44.5734 58.7189C44.8993 57.5469 45.5499 56.4911 46.4502 55.6735L46.3826 55.7073Z" fill="url(#paint18_linear_4615_5184)"/>
<path opacity="0.5" d="M50.6775 54.7937C48.2039 55.3096 46.0069 56.7189 44.5057 58.7527C44.8439 57.582 45.4993 56.528 46.3995 55.7073C47.627 54.7069 48.9942 53.8918 50.4577 53.2879C50.4577 53.2879 50.8128 52.9495 50.4577 53.2879C50.1692 53.6461 49.9355 54.0452 49.7644 54.4722C49.9843 54.1846 51.0833 53.1525 51.0833 53.1525C51.7597 52.9664 53.6704 52.7634 53.6704 52.7634C53.5705 52.898 53.4801 53.0393 53.3999 53.1864C53.5689 53.051 53.9578 52.7972 53.9578 52.7972C54.9532 52.6964 55.9524 52.9479 56.7816 53.5079C56.3589 53.6601 55.0062 54.2692 55.0062 54.2692C55.7359 54.0859 56.4755 53.9447 57.2213 53.8462C57.6973 54.1478 58.1107 54.5384 58.4387 54.9967C58.1485 55.0418 57.8647 55.1213 57.5933 55.2336C57.83 55.2336 58.5063 55.1321 58.5063 55.1321C58.856 55.7064 59.0268 56.372 58.9967 57.0439C57.9486 55.943 56.6187 55.1509 55.1517 54.7542C53.6848 54.3574 52.1372 54.371 50.6775 54.7937Z" fill="url(#paint19_linear_4615_5184)"/>
<path d="M45.4696 55.2335C46.0048 53.8565 46.7152 52.5543 47.5832 51.3591C47.5832 51.3591 47.7016 50.953 47.5832 51.3591C47.5242 51.7743 47.5242 52.1958 47.5832 52.611C47.5832 52.2727 48.0567 50.9192 48.0567 50.9192C48.5934 50.3825 49.1578 49.8742 49.7476 49.3965C49.7299 49.5369 49.7299 49.679 49.7476 49.8194C49.8148 49.6314 49.8997 49.4501 50.0012 49.2781C50.7275 48.6897 51.6212 48.3462 52.5544 48.2968C52.2839 48.6351 51.523 49.7856 51.523 49.7856C52.0139 49.2606 52.5393 48.7689 53.0955 48.3137C53.6637 48.2646 54.2361 48.3162 54.7864 48.466C54.5624 48.6592 54.3585 48.8746 54.1777 49.1089C54.3637 48.9397 54.9555 48.5336 54.9555 48.5336C55.6231 48.7711 56.2096 49.1936 56.6464 49.7518L53.9241 50.9361C53.6739 50.6342 53.3376 50.4159 52.9602 50.3101C53.2477 50.3947 53.6366 51.0715 53.6366 51.0715L52.081 52.1543L51.6245 51.9512L51.7766 52.3573L51.0157 53.051C50.6215 52.918 50.2128 52.8328 49.7983 52.7972L50.5592 53.3217C49.5607 54.033 48.627 54.8313 47.7692 55.7072C47.5277 55.608 47.2694 55.5563 47.0083 55.555L47.4141 56.0794C46.5206 56.9039 45.7466 57.8492 45.1145 58.888C44.9568 57.6295 45.0839 56.3516 45.4865 55.1489L45.4696 55.2335Z" fill="url(#paint20_linear_4615_5184)"/>
<path opacity="0.5" d="M48.4456 52.3911C46.7015 54.195 45.556 56.4933 45.1652 58.9725C45.0078 57.7085 45.1349 56.4252 45.5372 55.2166C46.0762 53.8466 46.7864 52.5505 47.6508 51.3591C47.6508 51.3591 47.7692 50.953 47.6508 51.3591C47.5919 51.7743 47.5919 52.1958 47.6508 52.611C47.6508 52.2727 48.1243 50.9192 48.1243 50.9192C48.661 50.3825 49.2254 49.8742 49.8152 49.3965C49.7975 49.5369 49.7975 49.679 49.8152 49.8194C49.8825 49.6314 49.9674 49.4501 50.0688 49.2781C50.7951 48.6897 51.6888 48.3462 52.6221 48.2968C52.3515 48.6351 51.5906 49.7856 51.5906 49.7856C52.0815 49.2606 52.6069 48.7689 53.1631 48.3137C53.7313 48.2646 54.3037 48.3162 54.854 48.466C54.63 48.6592 54.4261 48.8746 54.2453 49.1089C54.4313 48.9397 55.0231 48.5336 55.0231 48.5336C55.693 48.7668 56.2805 49.1901 56.714 49.7518C55.233 49.4375 53.6964 49.5074 52.2501 49.9548C50.8127 50.4136 49.5114 51.2216 48.4624 52.3065L48.4456 52.3911Z" fill="url(#paint21_linear_4615_5184)"/>
<path d="M47.7016 56.9084C49.1069 56.6082 50.551 56.5339 51.9796 56.6884C51.9796 56.6884 52.3854 56.5531 51.9796 56.6884C51.6079 56.8575 51.2699 57.0925 50.9819 57.3821C51.2694 57.2299 52.5714 56.8576 52.5714 56.8576C53.3578 57.112 54.1309 57.4056 54.8879 57.7375C54.7508 57.7938 54.6249 57.8739 54.5159 57.9743C54.7185 57.9587 54.922 57.9587 55.1246 57.9743C56.0285 58.3636 56.7778 59.042 57.2551 59.9031C56.8493 59.8185 55.4797 59.7339 55.4797 59.7339C56.1671 59.9181 56.8444 60.1383 57.5087 60.3937C57.8029 60.8818 58.0196 61.4126 58.1513 61.9672C57.8868 61.8812 57.6152 61.8188 57.3396 61.781C57.5594 61.781 58.1513 62.1194 58.1513 62.1194C58.2505 62.7623 58.1625 63.4202 57.8976 64.0144L55.7671 62.407C55.8682 62.0474 55.8682 61.6669 55.7671 61.3073C55.7671 61.5949 55.4797 62.2378 55.4797 62.2378L53.8733 61.4258L53.7888 60.9689L53.569 61.2735L52.6221 60.9351C52.5006 60.548 52.3537 60.1693 52.1825 59.8015V60.7321C51.0914 60.2228 49.9603 59.8041 48.8007 59.4801C48.7112 59.2109 48.5861 58.9548 48.4287 58.7187L48.3442 59.3785C47.2551 58.9997 46.1148 58.7886 44.9624 58.7526C45.6462 57.8807 46.5963 57.2568 47.6678 56.9761L47.7016 56.9084Z" fill="url(#paint22_linear_4615_5184)"/>
<path opacity="0.5" d="M51.6582 58.1266C50.5714 57.7573 49.4207 57.6134 48.2765 57.7036C47.1321 57.7989 46.0204 58.1333 45.0131 58.6849C45.6829 57.8136 46.6224 57.1889 47.6846 56.9084C49.0899 56.6082 50.534 56.5339 51.9626 56.6884C51.9626 56.6884 52.3684 56.5531 51.9626 56.6884C51.5909 56.8575 51.2529 57.0925 50.965 57.3821C51.2524 57.2299 52.5544 56.8576 52.5544 56.8576C53.3408 57.112 54.1139 57.4056 54.8709 57.7375C54.7339 57.7938 54.6079 57.8739 54.4989 57.9743C54.7015 57.9587 54.9051 57.9587 55.1077 57.9743C56.0115 58.3636 56.7608 59.042 57.2381 59.9031C56.8323 59.8185 55.5473 59.7339 55.5473 59.7339C56.2236 59.92 56.9 60.1399 57.5594 60.3937C57.8536 60.8818 58.0703 61.4126 58.202 61.9672C57.9375 61.8812 57.6658 61.8188 57.3903 61.781C57.6101 61.781 58.202 62.1194 58.202 62.1194C58.3012 62.7623 58.2132 63.4202 57.9483 64.0144C57.4923 62.5995 56.6834 61.3243 55.598 60.3091C54.5265 59.2789 53.2026 58.5494 51.7597 58.1943L51.6582 58.1266Z" fill="url(#paint23_linear_4615_5184)"/>
<path d="M45.4697 56.2316C45.2207 55.0831 44.8048 53.9772 44.2354 52.9494C44.2497 53.3041 44.204 53.6588 44.1001 53.9983C44.1001 53.7107 43.931 52.5602 43.931 52.5602C43.6097 52.1034 42.4769 50.8683 42.4769 50.8683C42.4932 51.0032 42.4932 51.1395 42.4769 51.2744C42.4327 51.0883 42.3704 50.9069 42.2909 50.733C41.607 50.0407 40.7279 49.5743 39.7714 49.3964C40.0251 49.7686 40.7014 51.0037 40.7014 51.0037C40.4816 50.6484 39.1796 49.3118 39.1796 49.3118C38.5491 49.1597 37.8986 49.1084 37.252 49.1595C37.4884 49.3891 37.6983 49.6444 37.8777 49.9209C37.7086 49.7347 37.1167 49.2103 37.1167 49.2103C36.3563 49.3116 35.6466 49.6489 35.0876 50.1747L38.0467 51.7481C38.3637 51.4969 38.7442 51.3387 39.1458 51.2913C38.8246 51.2913 38.3849 51.9342 38.3849 51.9342L39.9067 53.1186L40.3633 53.0001L40.1772 53.3216L40.8874 54.0153C41.2664 53.9444 41.652 53.9161 42.0372 53.9307L41.2763 54.3029C42.0887 54.9381 42.8363 55.6522 43.5083 56.4347C43.7166 56.3722 43.9335 56.3436 44.1508 56.3501L43.745 56.7223C44.3525 57.3493 44.8652 58.0618 45.2668 58.8372C45.5441 57.9979 45.6137 57.1038 45.4697 56.2316Z" fill="url(#paint24_linear_4615_5184)"/>
<path opacity="0.5" d="M43.2884 53.6431C44.5242 55.0799 45.1812 56.9254 45.1315 58.8203C45.4406 57.9593 45.5335 57.0355 45.4021 56.1302C45.1525 54.9925 44.7366 53.8979 44.1677 52.8817C44.1821 53.2365 44.1364 53.5912 44.0324 53.9308C44.0324 53.6431 43.8633 52.4926 43.8633 52.4926C43.5421 52.0358 42.4092 50.8008 42.4092 50.8008C42.4255 50.9356 42.4255 51.0719 42.4092 51.2068C42.365 51.0207 42.3027 50.8393 42.2232 50.6654C41.5393 49.9731 40.6602 49.5068 39.7038 49.3288C39.9574 49.701 40.6338 50.9361 40.6338 50.9361C40.414 50.5808 39.1119 49.2442 39.1119 49.2442C38.4814 49.0921 37.8309 49.0408 37.1844 49.0919C37.4207 49.3215 37.6306 49.5769 37.81 49.8533C37.6409 49.6672 37.0491 49.1427 37.0491 49.1427C36.2886 49.244 35.579 49.5813 35.02 50.1071C36.5801 50.0055 38.1425 50.266 39.5854 50.8684C41.0386 51.459 42.3267 52.3938 43.3392 53.5924L43.2884 53.6431Z" fill="url(#paint25_linear_4615_5184)"/>
<path d="M44.5059 56.5193C43.844 55.7006 43.021 55.0268 42.0879 54.5398C42.2218 54.8756 42.3072 55.2288 42.3415 55.5887C42.1306 55.1989 41.8992 54.8205 41.6483 54.4552C41.0488 54.3045 40.4381 54.2026 39.8221 54.1506C39.8738 54.2691 39.9079 54.3945 39.9236 54.5229L39.5854 54.1845C38.7687 54.1562 37.9658 54.4002 37.3027 54.8782C37.6971 55.0719 38.0809 55.2865 38.4525 55.5211C37.953 55.3799 37.4446 55.2726 36.9307 55.1996C36.4962 55.4883 36.1036 55.8355 35.764 56.2317C35.9658 56.266 36.1603 56.3347 36.3389 56.4347C36.1698 56.4347 35.6794 56.4347 35.6794 56.4347C35.3103 56.9391 35.0511 57.5155 34.9186 58.1266L36.9983 57.7205C37.1142 57.372 37.2982 57.0499 37.5394 56.7731C37.388 57.0526 37.2851 57.3558 37.2351 57.6698H38.6216L38.909 57.2976V57.6698L39.67 57.7882C39.9414 57.5168 40.2293 57.2625 40.5323 57.0269L40.0588 57.7882C40.9457 57.8285 41.8251 57.9705 42.6797 58.2112C42.8588 58.0248 43.0638 57.8653 43.2884 57.7375L43.001 58.3127C43.8306 58.4819 44.6217 58.8031 45.3344 59.2601C45.3505 58.3163 45.0792 57.3898 44.5566 56.6039L44.5059 56.5193Z" fill="url(#paint26_linear_4615_5184)"/>
<path opacity="0.5" d="M41.513 55.8087C42.3655 56.0185 43.1522 56.4378 43.8017 57.0287C44.4513 57.6196 44.9432 58.3633 45.233 59.1925C45.2656 58.2431 45.0123 57.3058 44.5059 56.5024C43.8423 55.6898 43.0194 55.0219 42.0879 54.5398C42.2218 54.8756 42.3072 55.2288 42.3416 55.5887C42.1307 55.1989 41.8992 54.8205 41.6483 54.4552C41.0488 54.3045 40.4381 54.2026 39.8221 54.1506C39.8738 54.2691 39.9079 54.3945 39.9236 54.5229L39.5854 54.1845C38.7687 54.1562 37.9658 54.4002 37.3027 54.8782C37.6971 55.0719 38.0809 55.2865 38.4525 55.5211C37.953 55.3799 37.4446 55.2726 36.9307 55.1996C36.4962 55.4883 36.1036 55.8355 35.764 56.2317C35.9658 56.266 36.1603 56.3347 36.3389 56.4347C36.1698 56.4347 35.6794 56.4347 35.6794 56.4347C35.3103 56.9391 35.0511 57.5155 34.9186 58.1266C35.7119 57.1876 36.7414 56.4777 37.9007 56.0702C39.06 55.6627 40.3071 55.5724 41.513 55.8087Z" fill="url(#paint27_linear_4615_5184)"/>
<path d="M32.2627 81.396C32.2044 81.0814 32.211 80.7582 32.2819 80.4463C32.3528 80.1343 32.4866 79.8401 32.6752 79.5818C32.865 79.3323 33.0991 79.12 33.3658 78.9553C33.6405 78.8015 33.9419 78.7013 34.2539 78.66C34.8958 77.3768 35.9482 76.3452 37.2437 75.7294C38.5391 75.1137 40.0032 74.9491 41.4031 75.2618C41.8069 75.2782 42.2014 75.3877 42.556 75.5818C42.9123 75.7677 43.225 76.0275 43.4732 76.3438C43.7228 76.6601 43.9001 77.0272 43.9929 77.4194C44.1005 77.8093 44.1128 78.2193 44.0288 78.6149C44.0288 78.6149 48.7028 78.3686 48.1094 82.026C47.516 85.6834 46.9764 86.1788 46.9764 86.1788L36.2892 85.6874L32.2627 81.396Z" fill="#318420"/>
<path d="M39.0422 85.6044C39.0422 85.6044 36.712 86.0138 37.7527 83.2183C38.2718 82.3085 39.6439 82.8861 39.6439 82.8861C39.6439 82.8861 39.7558 80.55 43.4569 81.2061C44.3845 81.2347 46.3786 78.5156 48.5322 82.3523C48.9343 82.2528 49.3528 82.2386 49.7608 82.3107C50.1716 82.3763 50.5623 82.5339 50.9037 82.7718C51.2481 83.0104 51.535 83.323 51.7432 83.6868C51.9565 84.0433 52.0917 84.4411 52.1398 84.8538C53.4987 85.8517 53.5272 84.9236 53.4293 87.2399C53.3314 89.5562 52.8606 89.5518 52.8606 89.5518L43.5608 89.1302C43.5608 89.1302 42.217 87.6245 41.7449 88.108C41.2728 88.5916 38.9532 87.9714 39.4554 87.0646C39.5207 86.9476 39.5689 86.8218 39.5986 86.6911C39.6003 86.5526 39.5761 86.4151 39.5274 86.2856C39.4898 86.152 39.4265 86.027 39.341 85.9177C39.2534 85.8093 39.1429 85.7216 39.0174 85.661L39.0422 85.6044Z" fill="#3E992E"/>
<path d="M27.4243 85.3637C26.9674 85.3394 25.094 85.773 26.1517 82.9746C26.6538 82.0678 28.026 82.6453 28.026 82.6453C28.026 82.6453 28.1408 80.326 31.839 80.9653C32.3411 80.0584 36.1182 78.4719 36.9003 82.1314C37.3037 82.024 37.7256 82.0056 38.1369 82.0775C38.5481 82.1494 38.9387 82.3099 39.2819 82.5478C39.625 82.7857 39.9123 83.0954 40.124 83.4554C40.3357 83.8155 40.4667 84.2172 40.5079 84.6328C41.8639 85.6138 41.9092 84.6827 41.8143 87.0159C41.7193 89.3491 41.7207 88.8612 41.2427 89.311C40.7646 89.7607 32.8704 88.9181 31.9428 88.8894C31.0152 88.8608 30.5838 87.8915 30.127 87.8672C29.6321 88.3199 27.7799 88.2796 27.8163 87.2978C27.8709 85.8251 27.898 85.3849 27.4243 85.3637Z" fill="#4AA836"/>
<path d="M70.803 57.0788C70.8702 57.06 70.9535 57.0788 70.9956 57H71.9289C72.5236 57.1935 73.0709 57.4586 73.4516 57.9853C73.6509 58.2513 73.7949 58.5547 73.875 58.8774C73.9551 59.2 73.9697 59.5355 73.9179 59.8639C73.8661 60.1923 73.749 60.507 73.5736 60.7894C73.3981 61.0718 73.1678 61.3161 72.8962 61.508C72.8246 61.5599 72.7547 61.6128 72.684 61.6647C72.3024 61.8427 71.8899 61.9452 71.4694 61.9666C71.2195 61.903 70.9437 61.9728 70.7144 61.8125C71.3288 61.6047 71.7766 61.1972 72.1009 60.6454C72.6669 59.6871 72.3642 58.2477 71.4864 57.5598C71.2643 57.3869 70.9454 57.3583 70.803 57.0788Z" fill="#F8C475"/>
<path d="M99.379 82.1024C96.6794 82.2896 94.0631 82.8987 91.4781 83.669C90.1104 84.0765 88.775 84.5933 87.3705 84.8799C85.129 85.3411 82.8222 85.3894 80.5633 85.0223C79.1083 84.7976 77.6842 84.4051 76.3196 83.8526C76.4477 83.7352 76.3903 83.5839 76.3903 83.4441C76.3903 77.5434 76.3903 71.6423 76.3903 65.7409C76.3903 65.0244 76.3903 64.2989 76.3975 63.5779C78.0126 64.1934 79.6971 64.6082 81.4133 64.813C84.1416 65.1367 86.9077 64.8494 89.5112 63.972C91.7504 63.2196 94.0147 62.5765 96.3399 62.1591C97.3414 61.9721 98.3533 61.8461 99.37 61.782C99.4005 61.9898 99.5832 62.1295 99.5814 62.3642C99.5724 64.7837 99.5724 67.2021 99.5814 69.6193C99.5858 69.7196 99.5644 69.8194 99.5195 69.9092C99.4745 69.999 99.4073 70.0759 99.3243 70.1325C98.8622 70.4549 98.4036 70.7863 97.919 71.0738C97.6163 71.253 97.5419 71.4966 97.5867 71.8002C97.6288 72.0797 97.816 72.2481 98.0874 72.3153C98.386 72.3887 98.6872 72.4571 98.9911 72.5204C99.4041 72.6099 99.5769 72.8133 99.5796 73.2369C99.5679 73.4587 99.5697 73.6809 99.585 73.9024C99.6342 74.3001 99.4372 74.5581 99.1416 74.7694C98.8899 74.9486 98.6266 75.1125 98.3794 75.2979C97.9951 75.5854 98.0157 76.216 98.4143 76.4256C98.6321 76.5346 98.8554 76.632 99.0834 76.7175C99.4605 76.868 99.5787 77.0337 99.5796 77.4466C99.5796 78.5788 99.5796 79.7109 99.5796 80.8431C99.5796 81.273 99.6101 81.7092 99.379 82.1024ZM85.7986 68.0814C85.2433 67.7804 84.8805 67.9784 84.8707 68.5865C84.7811 68.6519 84.6915 68.7164 84.602 68.7818C81.9624 70.7254 81.4671 74.5366 83.5218 77.0346C83.6893 77.2424 83.8684 77.349 84.1434 77.332C84.5079 77.3123 84.8743 77.3266 85.2397 77.3257C85.3239 77.6741 85.1949 78.0423 85.3131 78.3844C85.3131 79.0831 85.3131 79.7826 85.306 80.4821C85.306 80.7347 85.366 80.9425 85.6159 81.0545C85.8658 81.1664 86.0637 81.0688 86.2429 80.8888C86.3437 80.7852 86.4654 80.7042 86.5999 80.6511C86.7344 80.5979 86.8786 80.5739 87.023 80.5806C87.6894 80.586 88.3555 80.586 89.0213 80.5806C89.1656 80.5743 89.3096 80.5983 89.444 80.6513C89.5784 80.7042 89.7002 80.7848 89.8014 80.8879C89.9806 81.067 90.1758 81.1664 90.4284 81.0545C90.681 80.9425 90.7392 80.7356 90.7374 80.4821C90.7311 79.7835 90.7374 79.0839 90.7374 78.3844C90.8431 78.0369 90.7311 77.6768 90.801 77.3266C91.0097 77.3266 91.2238 77.2971 91.428 77.3329C92.1132 77.4538 92.5655 77.1645 92.8611 76.5698C93.4684 76.5536 93.6627 76.1981 93.3671 75.6454C93.7431 74.6594 93.8662 73.5949 93.7254 72.549C93.3546 69.8736 90.9031 67.6971 88.2035 67.6541C87.3828 67.6514 86.5682 67.7961 85.7986 68.0814Z" fill="#E85858"/>
<path d="M99.379 82.1024C99.6101 81.7092 99.5796 81.2757 99.5787 80.8485C99.5787 79.7163 99.5787 78.5842 99.5787 77.452C99.5787 77.0391 99.4596 76.8734 99.0825 76.7229C98.8545 76.6374 98.6312 76.54 98.4134 76.431C98.0149 76.2214 97.9943 75.5908 98.3785 75.3033C98.6257 75.1179 98.8891 74.954 99.1407 74.7748C99.4363 74.5635 99.6334 74.3055 99.5841 73.9078C99.5689 73.6863 99.5671 73.4641 99.5787 73.2423C99.5787 72.8205 99.3996 72.6153 98.9903 72.5258C98.6875 72.4625 98.3863 72.3941 98.0865 72.3207C97.8178 72.2544 97.6279 72.0851 97.5858 71.8056C97.5411 71.502 97.6154 71.2584 97.9181 71.0792C98.4027 70.7917 98.8613 70.4603 99.3235 70.1379C99.4064 70.0813 99.4736 70.0044 99.5186 69.9146C99.5636 69.8248 99.5849 69.725 99.5805 69.6246C99.5769 67.2051 99.5769 64.7868 99.5805 62.3696C99.5805 62.1349 99.4014 61.9952 99.3691 61.7874C99.8645 61.6978 100.364 61.7301 100.861 61.7489C101.22 61.7623 101.443 62.0355 101.448 62.4278C101.457 63.1381 101.448 63.8493 101.448 64.5596C101.448 66.1915 101.442 67.8234 101.453 69.4554C101.453 69.8136 101.333 70.0662 101.031 70.2615C100.6 70.5302 100.185 70.8329 99.7588 71.1124C99.4981 71.2835 99.3817 71.5145 99.439 71.82C99.4963 72.1254 99.7077 72.2606 99.989 72.3269C100.29 72.3986 100.593 72.4622 100.892 72.5392C101.269 72.6359 101.445 72.8393 101.444 73.2226C101.444 74.6557 101.598 74.3359 100.518 75.1268C100.42 75.1994 100.316 75.2639 100.22 75.3391C99.8062 75.6616 99.8618 76.2169 100.335 76.4525C100.572 76.5716 100.819 76.6692 101.059 76.7821C101.179 76.8305 101.28 76.9148 101.349 77.0232C101.418 77.1317 101.452 77.259 101.446 77.3875C101.446 78.7311 101.451 80.0746 101.446 81.4181C101.446 81.823 101.208 82.0594 100.808 82.0774C100.333 82.089 99.8555 82.0917 99.379 82.1024Z" fill="#E23D3D"/>
<path d="M76.4002 63.5779C76.4002 64.2945 76.393 65.02 76.393 65.741C76.393 71.6418 76.393 77.5428 76.393 83.4442C76.393 83.5812 76.4503 83.7353 76.3223 83.8526C75.8914 83.7201 75.4947 83.5114 75.0907 83.3152C74.9205 83.2337 74.8318 83.085 74.7548 82.9247C74.745 82.5861 74.7342 82.2476 74.7244 81.9099C74.7244 81.7657 74.7333 81.6215 74.7333 81.4773C74.7333 76.1569 74.7333 70.8359 74.7333 65.5144C74.7333 65.1382 74.7279 64.7611 74.7253 64.3849C74.7503 64.0267 74.6751 63.637 74.9752 63.3415C75.0839 63.2565 75.2152 63.2053 75.3527 63.1941C75.4902 63.183 75.628 63.2124 75.749 63.2788C75.9631 63.3836 76.1825 63.4794 76.4002 63.5779Z" fill="#E24040"/>
<path d="M70.2584 81.9054C70.2584 76.0697 70.2584 70.2337 70.2584 64.3975H71.4613V81.9099L70.2584 81.9054Z" fill="#C76D3D"/>
<path d="M70.8031 57.0788C70.9455 57.3582 71.2644 57.3869 71.4865 57.5597C72.3643 58.2476 72.667 59.687 72.1009 60.6454C71.7767 61.1971 71.3288 61.6047 70.7162 61.8107L70.2684 61.6665C69.6503 61.2338 69.2016 60.6955 69.044 59.9288C68.8335 58.9042 69.3995 57.7102 70.3436 57.2687C70.4959 57.2033 70.6508 57.1433 70.8031 57.0788Z" fill="#FBD69F"/>
<path d="M72.7046 82.9417C72.6993 84.0165 72.6912 85.0914 72.6894 86.1662C72.6894 87.4622 72.6742 88.7583 72.6939 90.0535C72.7046 90.753 72.5954 91.1883 71.6298 91.113L71.4641 91.1023L71.4561 82.9381C71.8718 82.9089 72.2891 82.9101 72.7046 82.9417Z" fill="#9E552E"/>
<path d="M71.456 82.9354L71.4641 91.0996C71.3199 91.0996 71.1766 91.1112 71.0324 91.1094C70.5227 91.1014 70.263 90.8407 70.2621 90.3203C70.2567 87.862 70.254 85.403 70.254 82.9435C70.6541 82.9144 71.0556 82.9117 71.456 82.9354Z" fill="#C76D3D"/>
<path d="M71.4614 64.3966H70.2603C70.1519 64.3912 70.0417 64.3912 69.9334 64.3805C69.6378 64.35 69.4273 64.1431 69.4174 63.878C69.4076 63.6129 69.6234 63.3782 69.9334 63.3406C70.0417 63.3289 70.1519 63.3289 70.2603 63.3227H71.4614H72.6903L74.9725 63.3424C74.6724 63.6379 74.7477 64.024 74.7226 64.3858L72.6894 64.3984L71.4614 64.3966Z" fill="#5E5757"/>
<path d="M71.456 82.9354C71.0556 82.9117 70.6541 82.9144 70.254 82.9435C70.1439 82.9435 70.0337 82.9435 69.9235 82.9327C69.6244 82.9086 69.4166 82.6981 69.4183 82.4249C69.4218 82.2911 69.4765 82.1638 69.5712 82.0692C69.6659 81.9747 69.7933 81.9202 69.9271 81.917C70.0373 81.9081 70.1474 81.909 70.2576 81.9054H71.4587H72.6948L74.7217 81.9117C74.7315 82.2493 74.7423 82.5879 74.7521 82.9265L72.7046 82.9408C72.2891 82.9086 71.8718 82.9068 71.456 82.9354Z" fill="#5B5555"/>
<path d="M71.4614 63.3271H70.2603C70.2603 62.7736 70.2623 62.2204 70.2665 61.6674L70.7144 61.8116C70.9437 61.972 71.2195 61.9012 71.4694 61.9657C71.467 62.4171 71.4644 62.8709 71.4614 63.3271Z" fill="#C76D3D"/>
<path d="M71.4614 63.3271C71.4614 62.8727 71.4647 62.4186 71.4713 61.9648C71.8918 61.9434 72.3042 61.8409 72.6858 61.6629C72.6858 62.2165 72.6873 62.7703 72.6903 63.3244L71.4614 63.3271Z" fill="#9E552E"/>
<path d="M90.7339 78.3863C90.7339 79.0858 90.7339 79.7854 90.7339 80.484C90.7339 80.7375 90.6756 80.9462 90.4248 81.0563C90.1741 81.1665 89.977 81.068 89.7979 80.8897C89.6966 80.7867 89.5749 80.7061 89.4405 80.6531C89.3061 80.6002 89.162 80.5762 89.0177 80.5825C88.3513 80.5879 87.6852 80.5879 87.0195 80.5825C86.875 80.5758 86.7308 80.5998 86.5964 80.6529C86.4619 80.706 86.3402 80.787 86.2393 80.8906C86.0602 81.0698 85.8667 81.1701 85.6123 81.0563C85.358 80.9426 85.3006 80.7366 85.3024 80.484C85.3087 79.7845 85.3078 79.0849 85.3096 78.3863C85.4887 78.3863 85.6679 78.3961 85.8416 78.38C86.1909 78.3469 86.3943 78.1301 86.379 77.8256C86.3638 77.5211 86.1524 77.3285 85.7995 77.3213C85.6114 77.3213 85.4233 77.3213 85.2344 77.3276C84.8689 77.3276 84.5026 77.3142 84.138 77.3339C83.864 77.3491 83.6902 77.2398 83.5164 77.0347C81.4608 74.5366 81.957 70.7255 84.5966 68.7819C84.6862 68.7165 84.7758 68.652 84.8653 68.5866C84.9249 68.6785 84.9908 68.7662 85.0624 68.849C86.3564 70.1394 87.6503 71.4289 88.9443 72.7175C88.9604 72.8071 88.8879 72.8536 88.8386 72.911C88.4337 73.3714 88.3836 73.8443 88.6827 74.3683C88.8924 74.7309 89.2289 75.003 89.6274 75.132C90.0259 75.2611 90.4581 75.2378 90.8404 75.0669C90.9488 75.0185 91.0375 74.9173 91.1727 74.937C91.7236 75.4923 92.2341 76.0898 92.8575 76.5716C92.5611 77.1664 92.1087 77.4557 91.4244 77.3348C91.2211 77.2989 91.007 77.3294 90.7975 77.3285C90.5879 77.3276 90.3568 77.3124 90.1382 77.3285C90.0206 77.3287 89.907 77.3719 89.819 77.4499C89.7309 77.5279 89.6743 77.6354 89.6599 77.7521C89.6134 78.0047 89.7056 78.1946 89.9546 78.3128C90.2036 78.4311 90.475 78.3585 90.7339 78.3863ZM84.6432 73.9491C84.641 74.0979 84.6682 74.2458 84.7235 74.384C84.7787 74.5223 84.8608 74.6483 84.9649 74.7546C85.0691 74.861 85.1934 74.9456 85.3305 75.0037C85.4676 75.0617 85.6148 75.092 85.7637 75.0929C86.06 75.0883 86.3431 74.9695 86.5539 74.7613C86.7647 74.553 86.8869 74.2713 86.895 73.975C86.8976 73.6787 86.7833 73.3933 86.5769 73.1807C86.3705 72.9681 86.0886 72.8454 85.7924 72.8393C85.6428 72.8325 85.4934 72.8562 85.3533 72.909C85.2132 72.9618 85.0853 73.0426 84.9775 73.1464C84.8696 73.2503 84.784 73.375 84.726 73.513C84.6679 73.651 84.6385 73.7994 84.6396 73.9491H84.6432ZM89.376 78.6702C89.3818 78.5598 89.3818 78.4492 89.376 78.3388C89.3438 78.0406 89.1279 77.8408 88.8484 77.8516C88.5475 77.8632 88.3881 78.0406 88.3415 78.3245C88.331 78.4346 88.3286 78.5454 88.3343 78.6559C88.3343 79.2255 88.5036 79.4889 88.8673 79.4808C89.2309 79.4728 89.3751 79.2184 89.3724 78.6702H89.376ZM87.7127 78.6657C87.7127 78.5663 87.719 78.4669 87.7127 78.3675C87.6885 78.0603 87.4933 77.8605 87.2138 77.8507C87.1472 77.8462 87.0804 77.8551 87.0173 77.877C86.9541 77.8988 86.8961 77.9331 86.8465 77.9777C86.7968 78.0224 86.7567 78.0766 86.7284 78.1371C86.7001 78.1976 86.6843 78.2631 86.6818 78.3299C86.6558 78.5605 86.6558 78.7934 86.6818 79.024C86.6853 79.0884 86.7017 79.1514 86.73 79.2093C86.7584 79.2672 86.7981 79.3188 86.8468 79.361C86.8956 79.4033 86.9523 79.4352 87.0137 79.455C87.075 79.4748 87.1397 79.4821 87.204 79.4763C87.4986 79.4683 87.6643 79.2838 87.7055 78.9971C87.7144 78.8869 87.7156 78.7762 87.7091 78.6657H87.7127Z" fill="#FDF3F3"/>
<path d="M85.7987 68.0814C86.568 67.7979 87.382 67.6547 88.2018 67.6586C90.9014 67.7016 93.3529 69.8782 93.7237 72.5536C93.8645 73.5994 93.7414 74.6639 93.3654 75.6499C92.7949 75.186 92.3327 74.6101 91.7828 74.1273C91.7741 73.9944 91.7871 73.861 91.8213 73.7323C91.9646 72.7909 91.3305 72.1021 90.4079 72.189C90.2431 72.2042 90.089 72.292 89.918 72.2616C88.6318 70.967 87.3447 69.6733 86.0567 68.3806C85.9644 68.2856 85.8847 68.1817 85.7987 68.0814Z" fill="#FEF3F3"/>
<path d="M85.7987 68.0814C85.8882 68.1818 85.9644 68.2874 86.0566 68.3806C87.3416 69.674 88.6281 70.9661 89.9161 72.2571C89.6185 72.4608 89.2905 72.6162 88.9443 72.7175C87.6503 71.4289 86.3582 70.1394 85.0678 68.849C84.9962 68.7662 84.9303 68.6785 84.8707 68.5866C84.8806 67.9784 85.2433 67.7805 85.7987 68.0814Z" fill="#5E5757"/>
<path d="M91.7809 74.1228C92.3308 74.6074 92.793 75.1833 93.3636 75.6455C93.6591 76.1981 93.4648 76.5537 92.8575 76.5698C92.2305 76.0879 91.7236 75.495 91.1727 74.9352L91.7809 74.1228Z" fill="#5E5757"/>
<path d="M85.2397 77.332C85.4287 77.332 85.6168 77.3231 85.8049 77.3258C86.1578 77.3329 86.371 77.521 86.3844 77.83C86.3979 78.139 86.1945 78.3513 85.847 78.3845C85.6679 78.4006 85.4887 78.3889 85.315 78.3907C85.195 78.0396 85.3239 77.676 85.2397 77.332Z" fill="#EFD8D5"/>
<path d="M90.7339 78.3862C90.475 78.3585 90.2108 78.431 89.9547 78.3092C89.6985 78.1874 89.6134 78.0011 89.66 77.7485C89.6744 77.6317 89.7309 77.5242 89.819 77.4462C89.9071 77.3682 90.0206 77.3251 90.1383 77.3248C90.3568 77.3123 90.5781 77.3248 90.7975 77.3248C90.7276 77.6786 90.8396 78.0387 90.7339 78.3862Z" fill="#EFD8D5"/>
<path d="M72.6894 64.4002C72.6894 70.1684 72.6894 75.9372 72.6894 81.7066C72.6894 81.7729 72.6894 81.8391 72.6956 81.9063H71.4596V64.3939L72.6894 64.4002Z" fill="#9E552E"/>
<path d="M91.7809 74.1228L91.1727 74.937C91.0375 74.9173 90.9488 75.0185 90.8404 75.0669C90.458 75.2378 90.0258 75.261 89.6274 75.132C89.2289 75.003 88.8923 74.7309 88.6827 74.3682C88.3835 73.8443 88.4337 73.3713 88.8385 72.911C88.8878 72.8536 88.9604 72.8106 88.9442 72.7175C89.2904 72.6162 89.6184 72.4608 89.9161 72.2571C90.0871 72.2876 90.2412 72.1998 90.406 72.1846C91.3286 72.095 91.9627 72.7865 91.8194 73.7278C91.7852 73.8565 91.7722 73.9899 91.7809 74.1228Z" fill="#756F6F"/>
<path d="M84.6397 73.949C84.6389 73.7995 84.6685 73.6515 84.7268 73.5138C84.785 73.3761 84.8707 73.2517 84.9785 73.1482C85.0863 73.0446 85.2141 72.9641 85.354 72.9114C85.4939 72.8588 85.6431 72.8352 85.7924 72.842C86.0887 72.8481 86.3706 72.9707 86.577 73.1834C86.7834 73.396 86.8976 73.6814 86.895 73.9777C86.8863 74.2735 86.7638 74.5545 86.5531 74.7622C86.3423 74.9699 86.0596 75.0883 85.7637 75.0928C85.6146 75.0925 85.4669 75.0625 85.3294 75.0047C85.1919 74.9468 85.0672 74.8622 84.9627 74.7558C84.8581 74.6494 84.7757 74.5233 84.7202 74.3848C84.6648 74.2463 84.6374 74.0982 84.6397 73.949Z" fill="#5E5757"/>
<path d="M89.3724 78.6702C89.3724 79.2184 89.213 79.4763 88.8619 79.4808C88.5108 79.4853 88.3289 79.2255 88.3289 78.6559C88.3232 78.5454 88.3256 78.4346 88.3361 78.3245C88.3827 78.0405 88.5421 77.8632 88.8431 77.8515C89.1225 77.8408 89.3384 78.0405 89.3706 78.3388C89.377 78.4492 89.3776 78.5598 89.3724 78.6702Z" fill="#7A7373"/>
<path d="M87.7091 78.6657C87.7168 78.7761 87.7168 78.8868 87.7091 78.9971C87.6679 79.2837 87.5022 79.4682 87.2076 79.4763C87.1433 79.4821 87.0786 79.4748 87.0173 79.455C86.9559 79.4352 86.8992 79.4032 86.8504 79.361C86.8017 79.3188 86.762 79.2672 86.7336 79.2093C86.7053 79.1514 86.6888 79.0884 86.6854 79.024C86.6594 78.7933 86.6594 78.5605 86.6854 78.3298C86.6879 78.2631 86.7037 78.1976 86.732 78.1371C86.7603 78.0766 86.8004 78.0224 86.85 77.9777C86.8997 77.933 86.9577 77.8988 87.0208 77.8769C87.0839 77.8551 87.1508 77.8462 87.2174 77.8506C87.4969 77.8605 87.6921 78.0602 87.7163 78.3675C87.7244 78.4669 87.7163 78.5663 87.7163 78.6657H87.7091Z" fill="#7A7373"/>
<path d="M105.003 10.9029V10.9872C104.968 11.0277 104.937 11.0716 104.911 11.1182C103.218 14.9918 101.525 18.8656 99.8327 22.7399L96.6914 22.7328C97.0834 22.4849 97.5811 22.4656 97.9447 22.1579C97.6603 21.0367 97.3759 19.9151 97.0916 18.7932C97.0778 18.7317 97.0515 18.6737 97.0143 18.6228C96.9771 18.5719 96.9297 18.5293 96.8752 18.4977C95.8058 17.868 94.7607 17.1987 93.6598 16.6228C93.2627 16.3598 92.8687 16.0906 92.4238 15.9119C91.394 15.2111 90.291 14.6322 89.2287 13.9883C89.0703 13.8929 88.9047 13.9457 88.7402 13.9883C87.7794 14.2361 86.8176 14.4799 85.8569 14.7307C85.7289 14.7643 85.5684 14.7571 85.5105 14.9247C85.5613 15.3723 85.6118 15.8208 85.6619 16.2704C83.0677 15.9473 80.4375 16.0644 77.8823 16.6167C77.3643 16.2105 76.9225 15.7189 76.3589 15.3746C75.2264 15.7677 74.091 16.1516 72.9637 16.5588C72.2314 16.8229 71.4768 17.025 70.776 17.3713C70.7354 17.5186 70.6846 17.6638 70.6562 17.8131C70.3447 19.4584 70.036 21.1003 69.7299 22.7388H67.1716C65.9661 19.9764 64.7667 17.2129 63.552 14.4545C63.0442 13.2957 62.5831 12.1186 62.0001 10.9872V10.9029L65.6909 10.8877C65.8727 10.8877 66.0544 10.9019 66.2362 10.9019H100.767C100.949 10.9019 101.13 10.8927 101.311 10.8877L105.003 10.9029Z" fill="#805333"/>
<path d="M73.5904 2H93.4121C93.5169 2.03429 93.6242 2.06044 93.733 2.0782C95.0422 2.19398 96.3025 2.50781 97.4705 3.11717C98.3409 3.57014 99.1594 4.10638 99.7333 4.93715C99.5931 4.94223 99.454 4.95239 99.3138 4.95239H67.2205C68.3803 3.53967 69.9118 2.75155 71.6587 2.34734C72.2955 2.20312 72.9465 2.11375 73.5904 2Z" fill="#E47E25"/>
<path d="M99.7332 4.93207C99.1593 4.1013 98.3408 3.56506 97.4704 3.1121C96.3024 2.50273 95.042 2.19804 93.7329 2.0782C93.6241 2.06044 93.5168 2.03429 93.412 2H97.7791C97.8241 2.03105 97.8734 2.05534 97.9254 2.07211C101.543 2.68148 103.81 4.78176 104.8 8.29477C104.886 8.59945 104.864 8.92953 105.003 9.22304V10.9029L101.311 10.8876C101.311 10.5697 101.311 10.2508 101.306 9.93295C101.306 9.24335 101.327 8.55172 101.134 7.87735C100.941 6.76627 100.522 5.75777 99.7332 4.93207Z" fill="#EFC31A"/>
<path d="M73.5903 2C72.9464 2.11375 72.2954 2.20312 71.6606 2.34734C69.9117 2.75155 68.3802 3.53967 67.2153 4.94528C66.506 5.78053 66.0404 6.79497 65.8696 7.87735C65.8402 8.01141 65.8056 8.14446 65.7823 8.2836C65.637 9.1489 65.7213 10.0223 65.6909 10.8917L62.0001 10.9029V9.22304C62.031 9.17831 62.0552 9.12941 62.0722 9.0778C62.6816 5.45918 64.7819 3.19334 68.2969 2.20312C68.6016 2.1168 68.9317 2.14015 69.2252 2H73.5903Z" fill="#EFC31A"/>
<path d="M69.9432 22.8556L69.8417 22.2462C70.6643 22.1091 71.489 21.9822 72.3269 22.0431C73.8178 22.1447 74.9147 21.5109 75.6977 20.2648C76.3191 19.2567 77.2559 18.482 78.3627 18.0609C79.557 17.5978 80.8144 17.4566 82.0768 17.4007C82.9238 17.3621 83.7667 17.3134 84.6097 17.2128C86.6135 16.9732 88.3461 16.116 89.9803 14.9785C90.678 14.4951 91.3006 13.9111 92.0115 13.4551C92.3405 13.7283 92.6117 14.0716 92.633 14.491C92.6615 15.0415 92.9733 15.2019 93.4283 15.269C93.5026 15.2823 93.5762 15.2995 93.6487 15.3208C94.3948 15.6029 95.1204 15.9369 95.82 16.3201C96.5469 16.784 97.2185 17.3291 97.8218 17.9451C98.3245 18.591 98.8374 19.2339 99.2091 19.9672C99.5026 20.5441 99.7809 21.129 100.066 21.71C100.092 22.1162 100.379 22.4575 100.346 22.8769H98.8618H87.0451L81.6532 22.8668C81.18 22.0543 80.4965 22.0665 79.9978 22.8871C79.6576 22.882 79.3184 22.8729 78.9822 22.8718C75.9685 22.8644 72.9555 22.859 69.9432 22.8556ZM81.8259 17.7643L81.8015 17.7095C81.8015 17.7186 81.7965 17.7308 81.8015 17.7349C81.8116 17.7441 81.8229 17.752 81.835 17.7582C82.1143 18.3493 82.094 18.9394 81.835 19.5305C81.8222 19.5342 81.8099 19.5397 81.7985 19.5467C81.7934 19.5467 81.7985 19.564 81.7985 19.5731L81.832 19.5234C82.4129 19.3395 82.9959 19.2004 83.6164 19.5152C83.3707 18.9059 83.393 18.3554 83.5961 17.7481C82.9735 18.1238 82.4007 17.8811 81.8249 17.7643H81.8259Z" fill="#FED326"/>
<path d="M92.0114 13.4602C91.2944 13.9142 90.6759 14.4982 89.9802 14.9836C88.3461 16.1171 86.6134 16.9742 84.6096 17.218C83.7667 17.3195 82.9237 17.3673 82.0767 17.4059C80.8143 17.4617 79.557 17.6029 78.3626 18.066C77.2558 18.4871 76.319 19.2618 75.6976 20.2699C74.9146 21.516 73.8177 22.1488 72.3268 22.0482C71.4889 21.9924 70.6642 22.1193 69.8416 22.2514C69.6151 22.163 69.4536 21.9538 69.1794 21.9467C68.6716 21.9345 68.3862 22.2189 68.2958 22.8607L66.3926 22.8668C66.4362 22.3692 66.7044 21.9467 66.8516 21.4846L66.9451 21.3089C67.3522 20.6422 67.8518 20.0367 68.4289 19.5102C68.8565 19.2462 69.2789 18.9719 69.7167 18.7231C69.8467 18.65 69.9066 18.6053 69.8477 18.4519C69.6903 18.0457 69.7796 17.6395 69.8477 17.2332C70.2621 16.3496 70.9456 15.8327 71.9195 15.7098C72.3197 15.721 72.7391 15.6468 73.1119 15.8185C73.5598 16.0216 73.833 15.8906 74.161 15.5453C75.5829 14.0543 77.3622 13.447 79.4036 13.5668C79.6666 14.3214 79.4036 15.0039 79.0349 15.7717C80.1033 15.1492 81.0986 15.1847 82.1214 15.6702C81.8065 15.0435 81.6501 14.425 81.7659 13.7588C82.6312 13.5658 83.4996 13.3972 84.3913 13.3911C84.4735 13.7456 84.2948 14.0594 84.177 14.5083C84.8351 14.0716 85.4292 14.2382 86.0244 14.4068C86.0345 14.422 86.0457 14.4372 86.0559 14.4535C86.0559 14.4454 86.0559 14.4332 86.0508 14.4291C86.0402 14.4225 86.029 14.417 86.0173 14.4129C85.9289 14.1082 85.7562 13.8106 85.8345 13.4683C86.3321 13.4602 86.8094 13.5872 87.2868 13.7009C87.4371 13.7365 87.5397 13.7527 87.6402 13.5993C88.5411 12.2506 90.5022 12.3187 91.6966 13.1555C91.7707 13.2083 91.853 13.25 91.9322 13.2967C91.9606 13.3526 91.984 13.4064 92.0114 13.4602Z" fill="#FED946"/>
<path d="M99.8307 22.7398C100.951 22.7446 102.07 22.7497 103.189 22.7551C104.374 22.7612 104.969 23.4477 104.883 24.6309C104.686 27.3385 104.515 30.0472 104.332 32.7558C104.117 35.9523 103.903 39.1491 103.688 42.3462C103.659 42.7921 103.641 43.241 103.586 43.6848C103.491 44.4567 102.921 44.9635 102.143 45C102.042 45 101.948 45 101.85 45C89.6177 45 77.3853 45 65.1526 45C64.6915 45 64.2589 44.9452 63.9004 44.6253C63.7567 44.5022 63.639 44.3516 63.5543 44.1825C63.4695 44.0133 63.4194 43.8289 63.4068 43.6401C63.3012 42.133 63.1966 40.6258 63.093 39.1186C62.879 35.9499 62.6657 32.7809 62.4531 29.6115C62.3363 27.8849 62.2114 26.1503 62.1048 24.4186C62.0459 23.4487 62.6969 22.7683 63.6881 22.7551C64.849 22.7398 66.0108 22.7419 67.1717 22.7368H71.0929L73.5964 22.7419H77.2801L79.0523 22.7723L79.0411 27.2075C78.3302 27.2075 77.6193 27.2004 76.9022 27.1994C73.8689 27.1994 70.8353 27.1994 67.8013 27.1994C67.0904 27.1994 66.7563 27.5366 66.804 28.1866C66.8886 29.3423 66.9743 30.4981 67.061 31.6539C67.0823 32.055 67.0975 32.4582 67.128 32.8594C67.2072 33.94 67.2925 35.0196 67.3758 36.0992C67.4398 37.2438 67.4835 38.3894 67.5789 39.532C67.648 40.3912 67.8572 40.5476 68.7266 40.5476H98.2809C98.3642 40.5476 98.4485 40.5476 98.5328 40.5476C99.0792 40.5303 99.3453 40.3201 99.392 39.7798C99.5027 38.555 99.6012 37.3291 99.6276 36.0982C99.7911 34.6215 99.849 33.1356 99.9424 31.6539C100.028 30.4981 100.116 29.3423 100.197 28.1866C100.242 27.5569 99.9252 27.2014 99.2833 27.2014C95.5093 27.1974 91.7353 27.1974 87.9612 27.2014C87.9572 25.7234 87.9528 24.2453 87.948 22.7673L91.5545 22.7368L96.6894 22.7256L99.8307 22.7398Z" fill="#F19B1F"/>
<path d="M65.6909 10.8877C65.7214 10.0183 65.6371 9.14487 65.7823 8.27957C65.8057 8.14449 65.8402 8.01144 65.8697 7.87332H101.134C101.327 8.54769 101.304 9.23932 101.306 9.92892C101.306 10.2468 101.306 10.5657 101.312 10.8836C101.13 10.8836 100.949 10.8978 100.767 10.8978H66.2363C66.0545 10.9019 65.8727 10.8927 65.6909 10.8877Z" fill="#CA8152"/>
<path d="M91.5544 22.7438L87.9479 22.7743L87.7021 22.7408C88.0326 21.0582 88.3623 19.375 88.6914 17.6912C88.8539 16.8644 88.861 16.8533 88.1206 16.4216C87.2543 15.9138 86.4204 15.3502 85.5084 14.9246C85.5663 14.7571 85.7268 14.7642 85.8547 14.7306C86.8155 14.4798 87.7773 14.236 88.7381 13.9882C88.9026 13.9456 89.0681 13.8928 89.2266 13.9882C90.2899 14.6321 91.3919 15.207 92.4217 15.9118L89.056 16.8177C89.0569 16.8594 89.0701 16.8998 89.094 16.934C89.1178 16.9681 89.1512 16.9945 89.19 17.0097C90.8604 17.9962 92.5317 18.9813 94.2041 19.9651C94.2813 20.0108 94.3686 20.1185 94.46 20.026C94.5514 19.9336 94.46 19.8412 94.4377 19.7498C94.1784 18.7071 93.9184 17.6647 93.6577 16.6227C94.7586 17.1986 95.8037 17.8679 96.8731 18.4976C96.9276 18.5292 96.975 18.5718 97.0122 18.6227C97.0494 18.6736 97.0757 18.7316 97.0895 18.7931C97.3752 19.9143 97.6595 21.0359 97.9426 22.1578C96.9544 21.583 95.9601 21.0193 94.981 20.4313C94.6764 20.2485 94.4499 20.1946 94.1818 20.4871C93.9786 20.7116 93.7075 20.8751 93.4779 21.0792C92.8432 21.6399 92.1343 22.1182 91.5544 22.7438Z" fill="#D14B48"/>
<path d="M77.8802 16.6167C78.3251 17.1134 78.8775 17.4881 79.362 17.937C79.8464 18.3859 80.3878 18.7333 80.8265 19.2167C80.7351 19.3609 80.5756 19.3822 80.4324 19.432C79.6301 19.7116 78.8274 19.9899 78.0244 20.2668C77.8508 20.3268 77.672 20.3836 77.6385 20.6C77.5278 21.3109 77.3338 22.0157 77.28 22.7399H73.5964C73.4328 22.4504 73.0886 22.3438 72.9189 22.0574C72.9514 21.2043 73.1932 20.3857 73.3343 19.5508C74.0453 19.3 74.7562 19.043 75.4671 18.8023C75.555 18.7804 75.634 18.7322 75.6937 18.6641C75.7534 18.5961 75.7909 18.5114 75.8013 18.4215C75.981 17.4059 76.1679 16.3902 76.3527 15.3746C76.9205 15.7189 77.3623 16.2186 77.8802 16.6167Z" fill="#D64B45"/>
<path d="M86.5251 22.7429L85.6639 16.2704C85.6131 15.8215 85.5627 15.3729 85.5126 14.9247C86.4266 15.3503 87.2584 15.9149 88.1247 16.4217C88.8651 16.8534 88.858 16.8645 88.6955 17.6912C88.3658 19.3738 88.036 21.057 87.7063 22.7409L86.5251 22.7429Z" fill="#FE5363"/>
<path d="M76.3559 15.3746C76.1711 16.3902 75.9842 17.4059 75.8044 18.4215C75.7941 18.5114 75.7566 18.5961 75.6969 18.6641C75.6372 18.7322 75.5581 18.7804 75.4703 18.8023C74.7594 19.0451 74.0484 19.3 73.3375 19.5508L70.7731 17.3723C71.4738 17.025 72.2284 16.8229 72.9607 16.5599C74.086 16.1516 75.2235 15.7677 76.3559 15.3746Z" fill="#F87A74"/>
<path d="M70.7729 17.3723L73.3343 19.5539C73.1931 20.3887 72.9514 21.2073 72.9189 22.0604L71.0908 22.7378H69.7299C70.0379 21.1 70.3457 19.4588 70.653 17.8141C70.6815 17.6648 70.7343 17.5196 70.7729 17.3723Z" fill="#FE5363"/>
<path d="M93.6576 16.6248C93.9183 17.6668 94.1783 18.7092 94.4376 19.7519C94.461 19.8433 94.5392 19.9489 94.46 20.0281C94.3808 20.1073 94.2812 20.0129 94.204 19.9672C92.5317 18.9841 90.8603 17.9989 89.19 17.0118C89.1512 16.9965 89.1178 16.9702 89.0939 16.9361C89.0701 16.9019 89.0568 16.8615 89.0559 16.8198L92.4216 15.9139C92.8665 16.0906 93.2605 16.3597 93.6576 16.6248Z" fill="#F87A74"/>
<path d="M91.5544 22.7439C92.1344 22.1182 92.8433 21.6399 93.478 21.0762C93.7075 20.8731 93.9767 20.7086 94.1818 20.4841C94.45 20.1916 94.6775 20.2455 94.9811 20.4283C95.9602 21.0194 96.9545 21.583 97.9426 22.1548C97.5791 22.4595 97.0814 22.4818 96.6894 22.7296L91.5544 22.7439Z" fill="#803034"/>
<path d="M101.134 7.87733H65.8696C66.0404 6.79495 66.506 5.78051 67.2153 4.94526H99.3087C99.4488 4.94526 99.588 4.9351 99.7281 4.93002C100.522 5.75775 100.941 6.76625 101.134 7.87733Z" fill="#AF7F65"/>
<path d="M99.6266 36.1012C99.6002 37.3321 99.5017 38.558 99.391 39.7828C99.3412 40.3231 99.0782 40.5333 98.5318 40.5506C98.4475 40.5506 98.3632 40.5506 98.2799 40.5506H68.7236C67.8542 40.5506 67.645 40.3922 67.5759 39.535C67.4835 38.3924 67.4398 37.2468 67.3728 36.1022L99.6266 36.1012Z" fill="#AF8065"/>
<path d="M99.6267 36.1013H67.3759C67.2926 35.0217 67.2073 33.9421 67.1281 32.8615C67.0976 32.4603 67.0824 32.0571 67.061 31.6559C69.1309 31.6559 71.2007 31.6539 73.2705 31.6498C75.5651 31.6498 77.859 31.6454 80.1523 31.6366C80.2142 31.6925 80.2802 31.7443 80.3392 31.8032C81.4106 32.8452 82.6812 33.287 84.168 33.0798C85.2405 32.9305 86.0977 32.3892 86.8502 31.6387C87.0605 31.6437 87.2697 31.6519 87.4789 31.6519L99.9415 31.6569C99.8481 33.1387 99.7902 34.6246 99.6267 36.1013Z" fill="#805333"/>
<path d="M86.8501 31.6386C86.1005 32.3891 85.2403 32.9305 84.1678 33.0797C82.681 33.2829 81.4104 32.8451 80.339 31.8031C80.2801 31.7442 80.214 31.6924 80.1521 31.6366C79.7062 31.0272 79.3132 30.3853 79.1609 29.6287C79.0004 28.8284 79.0684 28.0159 79.041 27.2085C79.0451 25.7298 79.0488 24.2514 79.0522 22.7733L80.2973 22.7408H86.5251H87.7022L87.9479 22.7743C87.952 24.2517 87.9564 25.7298 87.9611 27.2085C88.0068 28.7898 87.9591 30.3467 86.8501 31.6386ZM82.7531 29.3514C82.7531 29.5891 82.745 29.8267 82.7531 30.0624C82.7744 30.5844 83.0578 30.8982 83.4975 30.8992C83.9373 30.9002 84.2257 30.5945 84.243 30.0654C84.2562 29.6592 84.2633 29.2529 84.243 28.8467C84.2305 28.7394 84.2456 28.6306 84.2868 28.5308C84.3281 28.4309 84.3941 28.3432 84.4786 28.2759C84.6246 28.1459 84.7427 27.9876 84.8259 27.8107C84.9091 27.6338 84.9557 27.4419 84.9628 27.2466C84.9699 27.0512 84.9374 26.8564 84.8673 26.674C84.7972 26.4915 84.6909 26.3251 84.5548 26.1848C84.4169 26.0462 84.253 25.9363 84.0725 25.8613C83.8921 25.7863 83.6986 25.7477 83.5031 25.7477C83.3077 25.7477 83.1142 25.7863 82.9337 25.8613C82.7532 25.9363 82.5893 26.0462 82.4514 26.1848C82.3153 26.3251 82.2088 26.4914 82.1384 26.6738C82.068 26.8561 82.0351 27.0508 82.0416 27.2462C82.0482 27.4416 82.094 27.6337 82.1765 27.811C82.2589 27.9882 82.3763 28.1471 82.5215 28.2779C82.7074 28.4455 82.7917 28.6029 82.7582 28.8477C82.7452 29.0153 82.7435 29.1836 82.7531 29.3514Z" fill="#EFC319"/>
<path d="M79.041 27.2085C79.0685 28.021 79.0004 28.8335 79.1609 29.6287C79.3132 30.3854 79.7063 31.0242 80.1521 31.6366C77.8575 31.6413 75.5636 31.6457 73.2703 31.6498C71.2005 31.6498 69.1307 31.6518 67.0609 31.6559C66.9756 30.5001 66.8899 29.3444 66.8039 28.1886C66.7562 27.5386 67.0893 27.2024 67.8013 27.2014C70.8346 27.2014 73.8682 27.2014 76.9022 27.2014C77.6151 27.2014 78.3281 27.2055 79.041 27.2085Z" fill="#AF8065"/>
<path d="M86.8501 31.6386C87.9591 30.3467 88.0069 28.7898 87.9612 27.2085C91.7352 27.2085 95.5092 27.2085 99.2832 27.2085C99.9241 27.2085 100.241 27.564 100.197 28.1936C100.116 29.3494 100.028 30.5052 99.9424 31.6609L87.4788 31.6559C87.2695 31.6559 87.0603 31.6437 86.8501 31.6386Z" fill="#AF8065"/>
<path d="M80.2973 22.7408L79.0522 22.7733L77.2799 22.7429C77.3348 22.0187 77.5277 21.321 77.6384 20.603C77.6719 20.3866 77.8507 20.3298 78.0244 20.2698C78.8274 19.9916 79.63 19.7133 80.4324 19.435C80.5756 19.3852 80.7371 19.3639 80.8264 19.2197C80.9808 19.368 80.8772 19.5335 80.8498 19.6889C80.669 20.7066 80.4842 21.7232 80.2973 22.7408Z" fill="#803034"/>
<path d="M71.0929 22.7378L72.921 22.0604C73.0886 22.3468 73.4349 22.4534 73.5984 22.7429L71.0929 22.7378Z" fill="#803034"/>
<path d="M82.7531 29.3515C82.7419 29.1844 82.7419 29.0168 82.7531 28.8498C82.7866 28.605 82.7023 28.4435 82.5165 28.28C82.3713 28.1491 82.2539 27.9903 82.1714 27.8131C82.089 27.6358 82.0431 27.4437 82.0366 27.2483C82.03 27.0529 82.063 26.8582 82.1334 26.6758C82.2038 26.4935 82.3103 26.3271 82.4464 26.1868C82.5843 26.0483 82.7482 25.9384 82.9286 25.8634C83.1091 25.7884 83.3026 25.7498 83.4981 25.7498C83.6935 25.7498 83.887 25.7884 84.0675 25.8634C84.248 25.9384 84.4119 26.0483 84.5497 26.1868C84.6858 26.3272 84.7922 26.4936 84.8623 26.6761C84.9324 26.8585 84.9649 27.0533 84.9578 27.2487C84.9507 27.444 84.9041 27.6359 84.8209 27.8128C84.7377 27.9897 84.6195 28.1479 84.4736 28.278C84.389 28.3453 84.323 28.433 84.2818 28.5329C84.2406 28.6327 84.2255 28.7414 84.2379 28.8488C84.2613 29.255 84.2542 29.6613 84.2379 30.0675C84.2207 30.5926 83.9333 30.9023 83.4925 30.9013C83.0517 30.9003 82.7694 30.5865 82.748 30.0645C82.745 29.8278 82.7531 29.5891 82.7531 29.3515Z" fill="#2E3137"/>
<path d="M79.9937 18.8348C79.8993 19.3802 80.0283 19.8849 80.2852 20.3988C79.4484 20.0017 78.6338 19.9733 77.7594 20.4831C78.058 19.8545 78.2763 19.2959 78.0641 18.6784C78.0641 18.4082 77.8843 18.2 77.7665 17.8801C78.641 18.395 79.4636 18.3636 80.2812 17.9258L80.2761 17.9177C80.2375 18.2407 79.9927 18.5007 79.9937 18.8348Z" fill="#FEFDFD"/>
<path d="M97.1037 14.7805C97.0397 15.0597 97.1809 15.2994 97.253 15.5533H97.2591C96.7726 15.4101 96.2851 15.274 95.7468 15.6315C95.8484 15.2669 95.9896 15.01 95.9225 14.7175C95.9378 14.5073 95.821 14.3265 95.7925 14.1244L95.8118 14.103C96.2699 14.2716 96.7259 14.3468 97.254 14.036C97.1859 14.3397 97.0468 14.5469 97.1037 14.7805Z" fill="#FEFDFD"/>
<path d="M69.6944 32.5456C69.3755 32.2145 69.34 31.8346 69.5126 31.4284C69.3877 31.3431 69.2689 31.3989 69.1521 31.4071C68.3772 31.145 68.2543 30.7784 68.6605 29.9365C67.7126 29.4821 67.583 28.9385 68.2716 28.3054C67.3372 27.7976 67.2559 27.2766 68.0512 26.6195L67.6073 26.261C67.3534 25.545 67.5454 25.1529 68.2716 24.9508C67.91 24.7223 67.6622 24.4491 67.7637 23.9911C67.8653 23.533 68.1812 23.3512 68.6544 23.3289C68.5062 23.1126 68.3051 22.9541 68.2888 22.6972C68.3772 22.0675 68.6575 21.7892 69.1531 21.8014C69.4212 21.8085 69.5786 22.0127 69.8 22.099C69.8336 22.296 69.8681 22.4941 69.9016 22.6911C69.8112 23.1359 69.5035 23.3685 69.0394 23.4873C69.168 23.5973 69.2622 23.742 69.3107 23.9041C69.3591 24.0662 69.3598 24.2389 69.3126 24.4014C69.2333 24.7345 68.9165 24.8614 68.6483 25.025C69.082 25.4018 69.1023 25.4627 69.0444 26.1665C68.8637 26.3097 68.7397 26.522 68.3944 26.5829C68.7316 26.6926 68.9022 26.8876 69.0993 27.0369C69.2242 27.4797 69.1267 27.8666 68.7428 28.1977C69.1186 28.3105 69.3349 28.5146 69.4446 28.8406C69.5675 29.2083 69.3237 29.4612 69.149 29.7638L69.5837 29.8278C69.796 29.9547 69.9199 30.1589 70.0468 30.361C70.0468 30.5113 70.0468 30.6606 70.0468 30.8109C69.9453 30.9612 69.8935 31.0983 70.1586 31.0841C70.5313 31.0638 70.7679 31.272 70.971 31.5411C70.9635 31.6571 70.9997 31.7716 71.0726 31.8621C71.4606 31.4254 71.9115 31.4182 72.4254 31.7493C72.4427 31.3624 72.6427 31.1227 72.8865 30.9115L73.4329 30.8099L73.4684 30.8546C73.4684 30.8454 73.4684 30.8312 73.4684 30.8272C73.4567 30.8212 73.444 30.8174 73.4309 30.816C73.4471 30.6921 73.3527 30.6129 73.3039 30.5204L73.2521 30.3579C73.3395 29.709 73.508 29.5455 74.2291 29.4012C73.831 28.5156 74.0352 28.1358 74.9888 27.9875C75.2204 27.9509 75.068 27.8707 75.0101 27.8016C74.9837 27.6239 74.9583 27.4462 74.9319 27.2674C75.0619 26.9262 75.2508 26.6053 75.6551 26.6276C76.0765 26.651 76.0968 26.4895 75.9668 26.1767C76.0481 25.551 76.2472 25.3418 76.8616 25.3489C77.1663 25.3489 77.1592 25.22 77.1571 24.9965C77.1571 24.4247 77.4425 24.1353 77.9696 24.1597C78.1128 24.1658 78.255 24.1983 78.4043 24.2196C78.2774 23.3055 78.7994 22.8942 79.6952 23.1847C79.7124 23.2009 79.7409 23.2334 79.7449 23.2304C79.7937 23.1958 79.7612 23.1725 79.7297 23.1501L79.7388 22.7165C80.2273 21.9141 80.8946 21.904 81.3577 22.6972C81.3577 23.0019 81.377 23.3065 81.0957 23.5188C80.7514 23.7808 80.3848 23.7412 80.0059 23.5767C79.9724 24.249 79.8028 24.5192 79.4159 24.6705C79.162 24.7721 78.9467 24.5913 78.7049 24.6248C78.6928 24.6106 78.6816 24.5964 78.6704 24.5811C78.6704 24.5903 78.6704 24.6025 78.6704 24.6065C78.6802 24.6141 78.6912 24.6199 78.7029 24.6238C78.7273 25.4038 78.5069 25.7176 77.9219 25.7278C77.7868 25.7278 77.6517 25.7227 77.5157 25.7186L77.4821 25.676C77.4821 25.6841 77.4821 25.6963 77.4821 25.7003C77.4928 25.7063 77.504 25.7111 77.5157 25.7146L77.604 26.1716C77.4507 26.8165 76.9946 26.9841 76.3782 26.9049C76.4462 27.0542 76.4939 27.1608 76.5417 27.2664C76.5295 27.4147 76.5183 27.563 76.5061 27.7113C76.2756 28.1114 75.9232 28.2577 75.4428 28.1835C75.6053 28.5197 75.7008 28.8325 75.5444 29.1626C75.3768 29.5201 75.0051 29.5526 74.6364 29.6836C74.9045 29.9344 74.8822 30.2239 74.8608 30.5133C74.7786 30.554 74.7776 30.6322 74.7705 30.7083C74.6606 30.8352 74.5241 30.9363 74.3706 31.0042C74.2172 31.0721 74.0506 31.1053 73.8828 31.1014C74.1164 31.5452 74.1601 31.9545 73.763 32.2795C73.3902 32.5842 73.0023 32.4999 72.6397 32.2236C72.4528 32.8746 72.2121 33.1265 71.7835 33.1306C71.355 33.1346 71.0726 32.8726 70.9284 32.3292L70.5932 32.6339C70.4474 32.6925 70.2895 32.7151 70.133 32.6997C69.9766 32.6843 69.8261 32.6315 69.6944 32.5456Z" fill="#E5E2E1"/>
<path d="M74.0118 10.2052C73.8823 10.412 73.813 10.6507 73.8116 10.8946C73.8102 11.1386 73.8767 11.3781 74.0036 11.5864C73.9122 11.7347 73.8269 11.5945 73.7497 11.5712C73.4186 11.4696 73.0926 11.4269 72.7656 11.5823L72.4711 11.6605C72.5963 11.4213 72.6595 11.1544 72.6551 10.8844C72.6507 10.6144 72.5787 10.3498 72.4457 10.1148C72.9829 10.3758 73.4542 10.4052 73.9234 10.1605C73.9407 10.1513 73.9843 10.1889 74.0118 10.2052Z" fill="#FEFDFD"/>
<path d="M67.3199 18.4996C67.1907 18.7063 67.1215 18.9449 67.1201 19.1886C67.1187 19.4323 67.185 19.6717 67.3118 19.8799C67.2204 20.0281 67.1361 19.889 67.0589 19.8656C66.7278 19.7641 66.4008 19.7214 66.0738 19.8768L65.7793 19.955C65.9053 19.716 65.9695 19.4491 65.9657 19.1789C65.962 18.9087 65.8906 18.6437 65.7579 18.4082C66.2962 18.6703 66.7664 18.6997 67.2367 18.4539C67.2489 18.4458 67.2905 18.4834 67.3199 18.4996Z" fill="#FEFDFD"/>
<path d="M92.7955 23.7158C92.6661 23.9223 92.5967 24.1608 92.5951 24.4046C92.5935 24.6483 92.6597 24.8877 92.7863 25.096C92.696 25.2443 92.6106 25.1051 92.5335 25.0818C92.2024 24.9802 91.8753 24.9375 91.5493 25.0929L91.2548 25.1711C91.3798 24.9316 91.4429 24.6646 91.4383 24.3944C91.4337 24.1242 91.3615 23.8595 91.2284 23.6244C91.7667 23.8864 92.2369 23.9158 92.7071 23.6701C92.7244 23.6619 92.765 23.6995 92.7955 23.7158Z" fill="#FEFDFD"/>
<defs>
<linearGradient id="paint0_linear_4615_5184" x1="11031.3" y1="-53036.1" x2="11227" y2="-53289.6" gradientUnits="userSpaceOnUse">
<stop stop-color="#005826"/>
<stop offset="0.5" stop-color="#00A651"/>
<stop offset="1" stop-color="#72BF44"/>
</linearGradient>
<linearGradient id="paint1_linear_4615_5184" x1="11028.6" y1="-53882.9" x2="11222.4" y2="-54129" gradientUnits="userSpaceOnUse">
<stop stop-color="#00A651"/>
<stop offset="0.5" stop-color="#8DC63F"/>
<stop offset="1" stop-color="#BBD976"/>
</linearGradient>
<linearGradient id="paint2_linear_4615_5184" x1="2887.34" y1="1880.33" x2="3072.16" y2="1926.48" gradientUnits="userSpaceOnUse">
<stop stop-color="#005826"/>
<stop offset="0.5" stop-color="#00A651"/>
<stop offset="1" stop-color="#72BF44"/>
</linearGradient>
<linearGradient id="paint3_linear_4615_5184" x1="2870.31" y1="1870.31" x2="3018.38" y2="1907.31" gradientUnits="userSpaceOnUse">
<stop stop-color="#005826"/>
<stop offset="0.5" stop-color="#00A651"/>
<stop offset="1" stop-color="#72BF44"/>
</linearGradient>
<linearGradient id="paint4_linear_4615_5184" x1="78540.7" y1="-23805.2" x2="78805.1" y2="-24299.2" gradientUnits="userSpaceOnUse">
<stop stop-color="#005826"/>
<stop offset="0.5" stop-color="#00A651"/>
<stop offset="1" stop-color="#72BF44"/>
</linearGradient>
<linearGradient id="paint5_linear_4615_5184" x1="79188.2" y1="-23673.4" x2="79440.8" y2="-24151.8" gradientUnits="userSpaceOnUse">
<stop stop-color="#00A651"/>
<stop offset="0.5" stop-color="#8DC63F"/>
<stop offset="1" stop-color="#BBD976"/>
</linearGradient>
<linearGradient id="paint6_linear_4615_5184" x1="49927.2" y1="-74808.5" x2="50245.4" y2="-75421.6" gradientUnits="userSpaceOnUse">
<stop stop-color="#00A651"/>
<stop offset="1" stop-color="#8DC63F"/>
</linearGradient>
<linearGradient id="paint7_linear_4615_5184" x1="50287.9" y1="-74673.3" x2="50552.4" y2="-75187.2" gradientUnits="userSpaceOnUse">
<stop stop-color="#004B24"/>
<stop offset="0.5" stop-color="#00A651"/>
<stop offset="1" stop-color="#72BF44"/>
</linearGradient>
<linearGradient id="paint8_linear_4615_5184" x1="50666.7" y1="-6058.56" x2="51255.6" y2="-6330.86" gradientUnits="userSpaceOnUse">
<stop stop-color="#00A651"/>
<stop offset="1" stop-color="#8DC63F"/>
</linearGradient>
<linearGradient id="paint9_linear_4615_5184" x1="50436" y1="-6038.2" x2="51004.7" y2="-6300.6" gradientUnits="userSpaceOnUse">
<stop stop-color="#00A651"/>
<stop offset="1" stop-color="#8DC63F"/>
</linearGradient>
<linearGradient id="paint10_linear_4615_5184" x1="-3068.52" y1="-61078.6" x2="-3097.22" y2="-61440.7" gradientUnits="userSpaceOnUse">
<stop stop-color="#005826"/>
<stop offset="0.5" stop-color="#00A651"/>
<stop offset="1" stop-color="#72BF44"/>
</linearGradient>
<linearGradient id="paint11_linear_4615_5184" x1="-3034.13" y1="-59550.2" x2="-3060.7" y2="-59892.3" gradientUnits="userSpaceOnUse">
<stop stop-color="#00A651"/>
<stop offset="0.5" stop-color="#8DC63F"/>
<stop offset="1" stop-color="#BBD976"/>
</linearGradient>
<linearGradient id="paint12_linear_4615_5184" x1="-38421.5" y1="-17262.9" x2="-38524.5" y2="-17450.1" gradientUnits="userSpaceOnUse">
<stop stop-color="#00A651"/>
<stop offset="1" stop-color="#8DC63F"/>
</linearGradient>
<linearGradient id="paint13_linear_4615_5184" x1="-39000.7" y1="-17393.5" x2="-39101" y2="-17576.7" gradientUnits="userSpaceOnUse">
<stop stop-color="#00A651"/>
<stop offset="1" stop-color="#8DC63F"/>
</linearGradient>
<linearGradient id="paint14_linear_4615_5184" x1="-14728.6" y1="-94065" x2="-15187.9" y2="-94669.8" gradientUnits="userSpaceOnUse">
<stop stop-color="#005826"/>
<stop offset="0.5" stop-color="#00A651"/>
<stop offset="1" stop-color="#72BF44"/>
</linearGradient>
<linearGradient id="paint15_linear_4615_5184" x1="-14669.4" y1="-95285" x2="-15121.6" y2="-95871.5" gradientUnits="userSpaceOnUse">
<stop stop-color="#00A651"/>
<stop offset="0.5" stop-color="#8DC63F"/>
<stop offset="1" stop-color="#BBD976"/>
</linearGradient>
<linearGradient id="paint16_linear_4615_5184" x1="6232.1" y1="-113.672" x2="5794.85" y2="-5.36026" gradientUnits="userSpaceOnUse">
<stop stop-color="#005826"/>
<stop offset="0.5" stop-color="#00A651"/>
<stop offset="1" stop-color="#72BF44"/>
</linearGradient>
<linearGradient id="paint17_linear_4615_5184" x1="6295.4" y1="-130.212" x2="5944.07" y2="-42.7864" gradientUnits="userSpaceOnUse">
<stop stop-color="#005826"/>
<stop offset="0.5" stop-color="#00A651"/>
<stop offset="1" stop-color="#72BF44"/>
</linearGradient>
<linearGradient id="paint18_linear_4615_5184" x1="-112564" y1="-36922.4" x2="-113178" y2="-38082.9" gradientUnits="userSpaceOnUse">
<stop stop-color="#005826"/>
<stop offset="0.5" stop-color="#00A651"/>
<stop offset="1" stop-color="#72BF44"/>
</linearGradient>
<linearGradient id="paint19_linear_4615_5184" x1="-113440" y1="-37160.5" x2="-114038" y2="-38292.8" gradientUnits="userSpaceOnUse">
<stop stop-color="#00A651"/>
<stop offset="0.5" stop-color="#8DC63F"/>
<stop offset="1" stop-color="#BBD976"/>
</linearGradient>
<linearGradient id="paint20_linear_4615_5184" x1="-76481.3" y1="-127513" x2="-77226.5" y2="-128953" gradientUnits="userSpaceOnUse">
<stop stop-color="#00A651"/>
<stop offset="1" stop-color="#8DC63F"/>
</linearGradient>
<linearGradient id="paint21_linear_4615_5184" x1="-76522.7" y1="-128433" x2="-77153.1" y2="-129643" gradientUnits="userSpaceOnUse">
<stop stop-color="#004B24"/>
<stop offset="0.5" stop-color="#00A651"/>
<stop offset="1" stop-color="#72BF44"/>
</linearGradient>
<linearGradient id="paint22_linear_4615_5184" x1="-59624.7" y1="-8067.21" x2="-61019.9" y2="-8720.39" gradientUnits="userSpaceOnUse">
<stop stop-color="#00A651"/>
<stop offset="1" stop-color="#8DC63F"/>
</linearGradient>
<linearGradient id="paint23_linear_4615_5184" x1="-59314.8" y1="-8021.16" x2="-60661.8" y2="-8651.77" gradientUnits="userSpaceOnUse">
<stop stop-color="#00A651"/>
<stop offset="1" stop-color="#8DC63F"/>
</linearGradient>
<linearGradient id="paint24_linear_4615_5184" x1="13538.8" y1="-109782" x2="13604.2" y2="-110620" gradientUnits="userSpaceOnUse">
<stop stop-color="#005826"/>
<stop offset="0.5" stop-color="#00A651"/>
<stop offset="1" stop-color="#72BF44"/>
</linearGradient>
<linearGradient id="paint25_linear_4615_5184" x1="13521.5" y1="-110273" x2="13585.7" y2="-111089" gradientUnits="userSpaceOnUse">
<stop stop-color="#00A651"/>
<stop offset="0.5" stop-color="#8DC63F"/>
<stop offset="1" stop-color="#BBD976"/>
</linearGradient>
<linearGradient id="paint26_linear_4615_5184" x1="86126.8" y1="-35301.3" x2="86372.4" y2="-35748.6" gradientUnits="userSpaceOnUse">
<stop stop-color="#00A651"/>
<stop offset="1" stop-color="#8DC63F"/>
</linearGradient>
<linearGradient id="paint27_linear_4615_5184" x1="84892.4" y1="-34661.5" x2="85125.2" y2="-35087" gradientUnits="userSpaceOnUse">
<stop stop-color="#00A651"/>
<stop offset="1" stop-color="#8DC63F"/>
</linearGradient>
</defs>
</svg>
