<svg width="143" height="104" viewBox="0 0 143 104" fill="none" xmlns="http://www.w3.org/2000/svg">
<path d="M65.523 22.471C49.132 24.0286 32.9122 29.2151 18.9183 39.853C13.657 43.8558 7.60181 50.4442 6.46549 59.0417C5.62492 65.6924 6.46548 74.4301 9.81218 80.1929C11.8306 83.9298 15.0187 86.9009 18.8872 88.6503C34.7334 94.6779 50.2683 80.0528 64.2933 74.2588C75.9678 69.4304 88.4207 71.9225 100.547 70.2403C110.945 68.7918 128.565 63.4962 129.935 46.379C130.387 40.9744 129.842 34.4795 126.137 30.8038C122.775 27.4863 118.027 27.0502 114.182 26.3648C102.16 24.1002 89.994 22.6794 77.7735 22.1128C73.6866 21.9569 69.5939 22.0766 65.523 22.471Z" fill="#00D8E7"/>
<g opacity="0.3">
<path opacity="0.3" d="M67.5777 17.8763C48.7584 19.6363 30.2193 25.9131 14.2796 39.2456C8.31785 44.2452 1.45323 52.5468 0.270207 63.4963C-0.585925 71.9692 0.565961 83.1367 4.4886 90.5349C7.15039 95.5501 11.0575 99.7399 15.0579 101.438C33.3792 109.381 50.9843 91.0022 67.0174 83.8531C80.3575 77.8878 94.7094 81.2676 108.625 79.3363C120.565 77.6697 140.723 71.2216 142.03 49.4162C142.435 42.5319 141.703 34.2459 137.36 29.511C133.438 25.2434 128.021 24.5893 123.538 23.6392C109.702 20.5508 95.6525 18.5201 81.5093 17.5648C76.8642 17.3222 72.2074 17.4264 67.5777 17.8763Z" fill="#2A81BC"/>
</g>
<path d="M63.7642 25.7418C49.657 26.8546 36.1586 31.9655 24.8491 40.476C20.4594 43.887 15.4005 49.4941 14.4976 56.8456C13.7972 62.515 14.4976 69.9911 17.3462 74.9285C19.0257 78.1146 21.7059 80.6595 24.9736 82.171C38.2514 87.3575 51.2179 74.8974 62.9547 69.9756C72.7302 65.8793 83.1906 68.0286 93.3241 66.6269C102.025 65.412 116.767 60.9263 117.887 46.379C118.23 41.7065 117.778 36.2084 114.65 33.0778C111.832 30.2431 107.863 29.8537 104.641 29.2463C94.5411 27.2615 84.3152 25.9864 74.0378 25.4303C70.6102 25.2901 67.177 25.3942 63.7642 25.7418Z" fill="#E2B045"/>
<path d="M66.1301 23.6548C54.5974 24.5367 43.5873 28.8306 34.4999 35.9904C30.9509 38.8562 26.857 43.6067 26.1721 49.8368C25.6273 54.6495 26.2811 61.0042 28.5693 65.2095C29.9152 67.9065 32.1003 70.0929 34.7957 71.4396C45.6141 75.9097 56.09 65.3964 65.6165 61.269C73.524 57.8269 82.0231 59.7115 90.2731 58.5745C97.3556 57.5777 109.31 53.9019 110.151 41.4417C110.416 37.5323 110.011 32.813 107.458 30.1341C105.154 27.7199 101.916 27.3617 99.2858 26.8477C91.0772 25.1249 82.7527 24.0108 74.3801 23.5146C71.6304 23.3616 68.8731 23.4084 66.1301 23.6548Z" fill="#FFEA96"/>
<path d="M105.144 46.3384C105.322 46.4749 105.543 46.481 105.749 46.5335C106.315 46.6792 106.578 47.0107 106.579 47.5897C106.579 48.1853 106.579 48.7813 106.579 49.3775C106.579 49.9287 106.309 50.2047 105.757 50.2255C105.685 50.2255 105.613 50.2255 105.541 50.2255C95.7082 50.2255 85.8754 50.227 76.0423 50.2301C75.5998 50.2317 75.2313 50.143 75 49.7367V46.2806C75.2243 45.9483 75.5397 45.8296 75.9344 45.8442C76.0986 45.8504 76.2782 45.899 76.4316 45.7818C76.4825 45.7818 76.5342 45.7903 76.5858 45.788C77.4871 45.7433 78.3852 45.8396 79.2841 45.8589C80.0358 45.8751 80.7867 45.973 81.5376 46.0339H81.5985C81.9624 46.1184 82.335 46.1606 82.7086 46.1596C82.751 46.2151 82.8135 46.2112 82.8744 46.2197C83.8311 46.3538 84.7825 46.5157 85.7269 46.72C86.4022 46.8657 87.0714 47.0446 87.766 47.0824C88.3016 47.1663 88.8429 47.2085 89.385 47.2088C90.3772 47.2019 91.3709 47.2389 92.3608 47.141C92.8673 47.0916 93.3715 47.0199 93.8765 46.959C94.2619 46.9097 94.6474 46.8711 95.0259 46.8095C95.8285 46.6799 96.6295 46.5389 97.4313 46.4024L98.8714 46.1565C99.2445 46.1958 99.6076 46.0724 99.9792 46.094H100.045C100.322 46.094 100.604 46.1249 100.876 46.084C101.707 45.9583 102.527 46.101 103.352 46.138C103.952 46.168 104.536 46.343 105.144 46.3384ZM101.644 48.0129C101.644 47.916 101.616 47.8211 101.563 47.74C101.51 47.6589 101.434 47.5952 101.345 47.5569C101.256 47.5186 101.158 47.5074 101.063 47.5246C100.967 47.5419 100.879 47.5868 100.809 47.6538C100.739 47.7209 100.69 47.807 100.669 47.9016C100.648 47.9961 100.655 48.0948 100.689 48.1854C100.724 48.276 100.784 48.3545 100.863 48.411C100.941 48.4675 101.035 48.4996 101.132 48.5032C101.198 48.508 101.265 48.4987 101.328 48.4761C101.391 48.4534 101.448 48.4178 101.497 48.3716C101.545 48.3254 101.583 48.2697 101.608 48.2079C101.633 48.1461 101.646 48.0797 101.644 48.0129ZM78.0838 48.9357C78.1471 48.9391 78.2104 48.9294 78.2698 48.9073C78.3292 48.8852 78.3835 48.8511 78.4292 48.8072C78.4749 48.7632 78.511 48.7103 78.5354 48.6518C78.5598 48.5933 78.5719 48.5304 78.571 48.467C78.56 48.3339 78.5016 48.2091 78.4064 48.1154C78.3111 48.0218 78.1854 47.9654 78.0522 47.9566C77.7854 47.9566 77.5958 48.1671 77.5896 48.4624C77.5857 48.79 77.7376 48.9365 78.0838 48.9357ZM84.9991 48.5032C85.2157 48.4986 85.4617 48.2388 85.4686 48.0144C85.4686 47.7677 85.2034 47.511 84.9467 47.5172C84.7061 47.5226 84.4533 47.7801 84.4579 48.016C84.4602 48.2681 84.7277 48.5086 84.9968 48.5032H84.9991Z" fill="#FFD997"/>
<path d="M75 26.7318C75.4525 26.3232 75.9806 26.4889 76.4871 26.5529C76.6506 26.5737 76.7269 26.7325 76.7277 26.906C76.7277 27.1219 76.7277 27.3377 76.7277 27.5528C76.7331 27.8034 76.8626 27.9591 77.1085 28.0023C77.3216 28.0385 77.5392 28.0385 77.7523 28.0023C78.0128 27.9591 78.1424 27.7941 78.1424 27.5297C78.1424 27.3447 78.1424 27.1596 78.1424 26.9746C78.1485 26.684 78.3012 26.5082 78.5872 26.4935C78.8645 26.4793 79.1424 26.4793 79.4198 26.4935C79.7089 26.5074 79.8615 26.6786 79.8693 26.97C79.8739 27.1542 79.8693 27.3393 79.8693 27.5243C79.8693 27.8065 80.0127 27.9745 80.2848 28.0061C80.4787 28.0285 80.6745 28.0285 80.8684 28.0061C81.1405 27.9753 81.2862 27.8088 81.2855 27.5258C81.2855 27.3408 81.2855 27.1558 81.2855 26.9715C81.2932 26.6816 81.4474 26.509 81.7342 26.4935C82.0115 26.4793 82.2894 26.4793 82.5668 26.4935C82.8536 26.5082 83.0108 26.6816 83.0116 26.9738C83.0116 28.6591 83.0116 30.3446 83.0116 32.0304C83.0116 32.4737 82.6608 32.8137 82.2052 32.8338C81.9994 32.8422 81.7935 32.8338 81.5885 32.8338H81.4759C81.3988 32.7405 81.2855 32.7744 81.1876 32.7744C79.7351 32.7744 78.2827 32.7744 76.8302 32.7744C76.7323 32.7744 76.6228 32.7405 76.5419 32.8338H76.4286C76.3171 32.828 76.2054 32.828 76.094 32.8338C75.5828 32.8862 75.2105 32.6973 75 32.217V26.7318ZM81.3525 29.9967C81.3549 29.9331 81.3444 29.8697 81.3216 29.8103C81.2988 29.7508 81.2643 29.6967 81.2199 29.651C81.1756 29.6053 81.1225 29.5691 81.0638 29.5445C81.0051 29.5199 80.9421 29.5075 80.8784 29.5079C80.8129 29.5043 80.7472 29.5139 80.6854 29.536C80.6236 29.5581 80.5668 29.5923 80.5184 29.6367C80.47 29.681 80.4309 29.7346 80.4034 29.7942C80.3759 29.8539 80.3607 29.9184 80.3585 29.984C80.3562 30.0496 80.3672 30.115 80.3906 30.1764C80.4139 30.2377 80.4494 30.2938 80.4947 30.3413C80.54 30.3888 80.5944 30.4267 80.6546 30.453C80.7148 30.4792 80.7796 30.4931 80.8453 30.4939C81.1375 30.5009 81.3433 30.2997 81.3525 29.9967Z" fill="#EFCB7B"/>
<path d="M98.8683 46.1595L97.4282 46.4055C96.6264 46.5419 95.8254 46.683 95.0229 46.8125C94.642 46.8742 94.2566 46.9127 93.8734 46.9621C93.8734 46.2019 93.8734 45.4426 93.8734 44.6832C93.8753 44.2926 93.796 43.9059 93.6406 43.5476C93.4852 43.1893 93.257 42.8672 92.9706 42.6017C92.2066 41.8669 91.2653 41.5732 90.2022 41.7891C88.8068 42.0712 87.7429 43.3757 87.7629 44.7472C87.7745 45.5274 87.7629 46.3076 87.7629 47.0878C87.0691 47.05 86.3991 46.8711 85.7238 46.7254C84.7794 46.5211 83.8281 46.3592 82.8713 46.2251C82.8104 46.2166 82.748 46.2204 82.7056 46.1649V35.1297L85.4463 35.1197C86.1401 35.1197 86.5302 34.7288 86.5364 34.0334C86.5415 33.3869 86.5474 32.7403 86.5541 32.0937H95.0206C95.0267 32.7506 95.0326 33.4074 95.0383 34.0643C95.0452 34.7188 95.4415 35.1158 96.0976 35.1197C97.0227 35.1251 97.9478 35.1266 98.8691 35.1297C98.8691 38.8066 98.8688 42.4832 98.8683 46.1595ZM91.6099 39.9265C92.3346 39.9188 92.8966 39.3992 92.9606 38.7254C92.993 38.3892 92.8403 38.1572 92.5528 38.1048C92.2914 38.057 92.0501 38.2304 91.9815 38.5411C91.9376 38.7392 91.8821 38.905 91.6431 38.9019C91.4041 38.8988 91.3524 38.7238 91.3154 38.5295C91.2661 38.2636 91.0911 38.1001 90.8274 38.1001C90.5638 38.1001 90.388 38.2543 90.3371 38.5234C90.2993 38.7246 90.2415 38.9158 89.9802 38.9019C89.7404 38.8888 89.7011 38.7123 89.6625 38.5164C89.6415 38.3937 89.5761 38.2829 89.4787 38.2053C89.3813 38.1277 89.2588 38.0886 89.1344 38.0955C88.8685 38.1186 88.6873 38.3314 88.6819 38.6259C88.6703 39.3121 89.2709 39.9103 89.9802 39.9257C90.2885 39.9319 90.5545 39.6944 90.8213 39.6944C91.088 39.6944 91.3493 39.9419 91.6099 39.9265ZM95.7506 39.3799H95.167C95.1462 39.3799 95.1262 39.3799 95.1054 39.3799C94.7762 39.3999 94.5726 39.5688 94.5495 39.8425C94.5225 40.1508 94.6729 40.369 95.0283 40.3945C95.5075 40.4264 95.9884 40.4264 96.4676 40.3945C96.5347 40.3909 96.6005 40.3741 96.6611 40.345C96.7217 40.3159 96.7759 40.2751 96.8207 40.2249C96.8654 40.1747 96.8997 40.1162 96.9217 40.0527C96.9437 39.9891 96.9529 39.9219 96.9487 39.8548C96.9248 39.5965 96.692 39.3922 96.3951 39.3776C96.1801 39.373 95.965 39.3799 95.7506 39.3799ZM85.915 39.3799C85.6899 39.3799 85.464 39.3722 85.2396 39.3799C85.1052 39.3802 84.9756 39.4303 84.8759 39.5206C84.7762 39.6108 84.7135 39.7349 84.7 39.8687C84.6938 39.9988 84.7387 40.1262 84.8251 40.2237C84.9115 40.3212 85.0326 40.3811 85.1626 40.3906C85.6508 40.4419 86.143 40.4419 86.6312 40.3906C86.9773 40.3513 87.113 40.1593 87.0938 39.8571C87.0776 39.5703 86.8933 39.3999 86.5595 39.3814C86.3444 39.3706 86.1293 39.3807 85.915 39.3799ZM95.2333 38.1086C95.2279 38.4841 95.4423 38.75 95.7452 38.7431C96.0482 38.7362 96.2456 38.4895 96.2471 38.1263C96.2487 37.7632 96.0606 37.5242 95.7491 37.5188C95.4376 37.5134 95.2387 37.7347 95.2333 38.1086ZM86.4099 38.1209C86.4099 37.7355 86.2241 37.5165 85.9065 37.5173C85.5889 37.5181 85.4046 37.7447 85.4023 38.124C85.4023 38.4895 85.6058 38.7408 85.9096 38.7408C86.2133 38.7408 86.4099 38.4941 86.4099 38.1209ZM84.9297 42.7605C84.9297 42.4667 84.7408 42.2732 84.461 42.274C84.3943 42.2728 84.3281 42.2847 84.266 42.3092C84.204 42.3337 84.1474 42.3702 84.0996 42.4167C84.0517 42.4631 84.0135 42.5185 83.9871 42.5798C83.9608 42.641 83.9468 42.7069 83.946 42.7736C83.9506 42.9948 84.2328 43.2593 84.4656 43.26C84.5291 43.2585 84.5917 43.2442 84.6496 43.2181C84.7076 43.192 84.7597 43.1546 84.8029 43.108C84.8462 43.0615 84.8797 43.0067 84.9014 42.9471C84.9232 42.8874 84.9328 42.8239 84.9297 42.7605ZM93.2644 34.072C93.3278 34.0732 93.3908 34.0617 93.4497 34.0381C93.5086 34.0146 93.5622 33.9794 93.6073 33.9348C93.6524 33.8902 93.688 33.8369 93.7121 33.7782C93.7363 33.7196 93.7484 33.6567 93.7477 33.5932C93.7393 33.3535 93.4864 33.1044 93.2435 33.0944C92.9791 33.0836 92.7571 33.3257 92.7625 33.6202C92.7679 33.8962 92.9668 34.0751 93.2644 34.072Z" fill="#F9D182"/>
<path d="M105.144 46.3383C104.538 46.3429 103.953 46.1679 103.351 46.1402C102.526 46.1032 101.705 45.9605 100.874 46.0862C100.603 46.1271 100.321 46.0954 100.043 46.0962C100.043 42.5843 100.042 39.0727 100.039 35.5613C100.039 35.4341 100.091 35.293 99.98 35.1805C99.98 35.162 99.98 35.1427 99.98 35.1242L100.003 34.0672H105.128C105.136 34.159 105.15 34.2499 105.15 34.3417C105.15 38.2797 105.15 42.2171 105.15 46.154C105.15 46.2157 105.144 46.2805 105.144 46.3383ZM103.926 36.4294C103.93 36.1326 103.752 35.9291 103.482 35.9213C103.349 35.9205 103.22 35.9689 103.121 36.0573C103.021 36.1457 102.958 36.2678 102.943 36.4001C102.932 36.6499 103.187 36.9043 103.453 36.9081C103.731 36.9128 103.922 36.7208 103.926 36.4294ZM102.176 42.2114C102.416 42.2114 102.668 41.9617 102.673 41.725C102.678 41.4883 102.414 41.2216 102.159 41.2246C101.919 41.2246 101.668 41.4737 101.663 41.7111C101.658 41.9486 101.922 42.2153 102.176 42.2122V42.2114Z" fill="#EFCB7B"/>
<path d="M76.4316 45.784C76.4316 41.9493 76.4316 38.1147 76.4316 34.28C76.4348 34.2088 76.4417 34.1377 76.4525 34.0672H81.5754L81.5985 35.1242C81.5985 35.1427 81.5985 35.162 81.5985 35.1805C81.4921 35.2822 81.5391 35.4118 81.5391 35.5305C81.536 39.0331 81.536 42.535 81.5391 46.0361C80.7882 45.9752 80.0373 45.8773 79.2857 45.8611C78.386 45.8418 77.4878 45.7454 76.5874 45.7901C76.5342 45.7925 76.4825 45.7863 76.4316 45.784ZM80.6124 43.2669C80.6136 43.1699 80.5861 43.0748 80.5335 42.9934C80.4809 42.912 80.4055 42.8478 80.3166 42.809C80.2278 42.7702 80.1295 42.7584 80.034 42.7751C79.9385 42.7918 79.8501 42.8363 79.7797 42.903C79.7093 42.9697 79.6602 43.0556 79.6383 43.15C79.6165 43.2445 79.623 43.3433 79.657 43.4341C79.691 43.5249 79.7509 43.6036 79.8294 43.6605C79.9079 43.7175 80.0014 43.75 80.0982 43.7541C80.1647 43.7589 80.2315 43.7498 80.2943 43.7274C80.357 43.705 80.4144 43.6698 80.4628 43.6239C80.5112 43.5781 80.5495 43.5226 80.5753 43.4612C80.601 43.3997 80.6137 43.3335 80.6124 43.2669ZM77.652 36.8442C77.652 37.1402 77.8301 37.336 78.1061 37.3399C78.1724 37.3437 78.2389 37.3343 78.3015 37.3123C78.3642 37.2902 78.4219 37.2559 78.4711 37.2113C78.5204 37.1668 78.5604 37.1129 78.5886 37.0528C78.6169 36.9926 78.6329 36.9275 78.6358 36.8611C78.645 36.6476 78.3682 36.3577 78.1508 36.3538C78.0851 36.3504 78.0194 36.3606 77.9579 36.3839C77.8964 36.4072 77.8404 36.4431 77.7935 36.4892C77.7466 36.5353 77.7098 36.5907 77.6854 36.6518C77.6611 36.7129 77.6497 36.7784 77.652 36.8442Z" fill="#EFCB7B"/>
<path d="M99.9843 32.8369C99.7793 32.8369 99.5734 32.8431 99.3676 32.8369C99.2596 32.8358 99.1529 32.8133 99.0537 32.7706C98.9545 32.728 98.8648 32.6661 98.7897 32.5885C98.7146 32.5109 98.6557 32.4191 98.6163 32.3186C98.577 32.218 98.558 32.1107 98.5604 32.0027C98.5573 30.3375 98.5573 28.6725 98.5604 27.0078C98.5604 26.664 98.7208 26.5036 99.0677 26.4936C99.3036 26.4874 99.54 26.4874 99.777 26.4936C100.124 26.5028 100.282 26.664 100.287 27.0047C100.287 27.1281 100.287 27.2514 100.287 27.3748C100.283 27.6153 100.27 27.8805 100.558 27.9645C100.895 28.0625 101.252 28.1064 101.56 27.8874C101.707 27.7849 101.708 27.603 101.7 27.4349C101.657 26.5275 101.768 26.4689 102.643 26.4913C102.757 26.4913 102.871 26.4851 102.983 26.4913C103.269 26.5152 103.422 26.6825 103.428 26.9739C103.433 27.1589 103.428 27.3439 103.428 27.529C103.428 27.7934 103.558 27.9584 103.818 28.0015C104.031 28.0378 104.249 28.0378 104.462 28.0015C104.708 27.9584 104.837 27.8026 104.843 27.5529C104.847 27.3578 104.843 27.162 104.843 26.9669C104.851 26.6586 104.985 26.5098 105.29 26.4936C105.567 26.4793 105.845 26.4793 106.123 26.4936C106.409 26.5082 106.57 26.6832 106.57 26.9723C106.573 28.6479 106.573 30.3231 106.57 31.9981C106.57 32.4853 106.22 32.8207 105.729 32.8346C105.534 32.84 105.339 32.8346 105.143 32.8346H105.036C104.955 32.7413 104.845 32.7752 104.747 32.7752C103.295 32.7752 101.842 32.7752 100.39 32.7752C100.292 32.7752 100.182 32.7413 100.102 32.8346L99.9843 32.8369ZM104.727 29.6614C104.727 29.3838 104.531 29.1988 104.237 29.1988C103.942 29.1988 103.743 29.3792 103.74 29.656C103.74 29.9119 104 30.1771 104.246 30.1679C104.492 30.1586 104.727 29.9042 104.727 29.6614ZM100.657 30.8024C100.36 30.8024 100.164 30.9859 100.163 31.2649C100.163 31.5086 100.407 31.7637 100.647 31.7714C100.886 31.7792 101.143 31.5201 101.149 31.2757C101.149 31.212 101.136 31.149 101.111 31.0904C101.086 31.0318 101.049 30.9789 101.003 30.9347C100.957 30.8906 100.903 30.8561 100.843 30.8334C100.784 30.8106 100.72 30.8001 100.657 30.8024Z" fill="#EFCB7B"/>
<path d="M94.9674 27.4696C95.1169 27.5729 95.2858 27.5167 95.4454 27.5244C95.8308 27.5452 96.0837 27.7695 96.0906 28.1565C96.1019 28.8118 96.1019 29.4669 96.0906 30.1217C96.0829 30.5071 95.8285 30.7292 95.4392 30.7477C95.3004 30.7538 95.1509 30.6999 95.0252 30.8047L94.9211 30.8001C94.8294 30.7014 94.7091 30.7423 94.6019 30.7423C92.0609 30.7423 89.5199 30.7423 86.9789 30.7423C86.8717 30.7423 86.7476 30.7014 86.6597 30.8001L86.5556 30.8047C86.43 30.6999 86.2804 30.7538 86.1417 30.7477C85.7523 30.7292 85.4979 30.5064 85.4902 30.1217C85.4779 29.4674 85.4779 28.8124 85.4902 28.1565C85.4971 27.7711 85.7477 27.5452 86.1355 27.5244C86.2951 27.5167 86.4639 27.5729 86.6135 27.4696H86.7183C86.8093 27.5706 86.9296 27.5298 87.0375 27.5298C89.5394 27.5298 92.0409 27.5298 94.5418 27.5298C94.6497 27.5298 94.7731 27.5706 94.861 27.4696H94.9674ZM88.2602 29.525C88.2569 29.5855 88.2658 29.6461 88.2864 29.7032C88.3071 29.7602 88.339 29.8125 88.3803 29.8569C88.4216 29.9013 88.4715 29.9369 88.5269 29.9616C88.5823 29.9863 88.6421 29.9996 88.7027 30.0006C89.0227 30.0107 89.2424 29.8125 89.2424 29.5149C89.2424 29.2983 88.9671 29.0192 88.749 29.0177C88.4637 29.0115 88.2641 29.2197 88.2602 29.525Z" fill="#EFCB7B"/>
<path d="M99.9784 35.1244C99.9784 35.1429 99.9784 35.1621 99.9784 35.1806V46.0971C99.6069 46.0756 99.2437 46.1989 98.8706 46.1596C98.8706 42.4832 98.8706 38.8066 98.8706 35.1297L99.9784 35.1244Z" fill="#E5BD6C"/>
<path d="M81.5995 35.1791C81.5995 35.1606 81.5995 35.1413 81.5995 35.1228L82.7097 35.1282V46.1627C82.336 46.1637 81.9635 46.1216 81.5995 46.037C81.599 42.4182 81.599 38.7989 81.5995 35.1791Z" fill="#E5BD6C"/>
<path d="M87.4653 26.4875C88.1803 25.6579 88.8947 24.8289 89.6085 24.0004C89.8221 23.7522 90.0349 23.5031 90.2515 23.2572C90.5306 22.9411 91.0101 22.9041 91.2823 23.214C92.2336 24.298 93.1703 25.3958 94.1124 26.489L87.4653 26.4875ZM92.0224 25.8838C92.017 25.5924 91.8196 25.3758 91.5598 25.3765C91.3131 25.3765 91.0332 25.6471 91.0371 25.8807C91.0356 25.9469 91.048 26.0127 91.0735 26.0737C91.0991 26.1348 91.1372 26.1898 91.1854 26.2352C91.2336 26.2806 91.2908 26.3153 91.3534 26.3371C91.4159 26.3589 91.4823 26.3673 91.5482 26.3618C91.8373 26.3572 92.027 26.1667 92.0224 25.8838Z" fill="#E8D186"/>
<path d="M94.9195 30.8009L95.0236 30.8055C95.0236 31.2352 95.0236 31.6646 95.0236 32.0937H86.5571C86.5571 31.6641 86.5571 31.2347 86.5571 30.8055L86.6612 30.8009H94.9195Z" fill="#D6B06E"/>
<path d="M87.4655 26.4875H94.1125L94.9675 27.4697H94.8619H86.7184H86.6128L87.4655 26.4875Z" fill="#E5BD6C"/>
<path d="M81.5755 34.0672H76.4495L76.4287 32.8337H81.594C81.5873 33.2459 81.5812 33.6571 81.5755 34.0672Z" fill="#D6B06E"/>
<path d="M105.036 32.837H105.149L105.129 34.0705H100.003C99.9964 33.6594 99.9905 33.2482 99.9849 32.837H105.036Z" fill="#D6B06E"/>
<path d="M87.7659 47.0853C87.7659 46.3051 87.7752 45.5249 87.7659 44.7448C87.7459 43.3733 88.8098 42.0688 90.2052 41.7867C91.2683 41.5708 92.2096 41.8638 92.9736 42.5992C93.26 42.8648 93.4882 43.1869 93.6436 43.5452C93.799 43.9035 93.8782 44.2902 93.8764 44.6808C93.8764 45.4401 93.8764 46.1995 93.8764 46.9597C93.3714 47.0206 92.8672 47.0923 92.3607 47.1416C91.3708 47.2395 90.3771 47.2025 89.3849 47.2095C88.8428 47.2099 88.3015 47.1684 87.7659 47.0853Z" fill="#CCA771"/>
<path d="M101.644 48.0129C101.643 48.1112 101.613 48.207 101.558 48.2882C101.502 48.3694 101.424 48.4322 101.333 48.4686C101.242 48.505 101.141 48.5133 101.045 48.4924C100.949 48.4716 100.862 48.4225 100.794 48.3516C100.726 48.2806 100.681 48.191 100.664 48.0942C100.647 47.9973 100.66 47.8977 100.7 47.8081C100.74 47.7185 100.806 47.6429 100.89 47.5911C100.973 47.5392 101.07 47.5135 101.169 47.5172C101.233 47.5179 101.296 47.5313 101.354 47.5568C101.413 47.5822 101.466 47.619 101.51 47.6652C101.555 47.7114 101.589 47.7659 101.612 47.8256C101.635 47.8853 101.646 47.949 101.644 48.0129Z" fill="#D6B06E"/>
<path d="M78.0837 48.9356C77.7399 48.9356 77.588 48.7899 77.5919 48.4622C77.5919 48.1669 77.7854 47.9588 78.0544 47.9565C78.1877 47.9653 78.3134 48.0216 78.4086 48.1153C78.5039 48.209 78.5623 48.3337 78.5733 48.4668C78.5742 48.5304 78.5621 48.5935 78.5375 48.6522C78.513 48.7109 78.4766 48.7639 78.4307 48.8079C78.3847 48.8519 78.3302 48.8859 78.2705 48.9079C78.2108 48.9299 78.1472 48.9393 78.0837 48.9356Z" fill="#D6B06E"/>
<path d="M84.9968 48.5032C84.7277 48.5086 84.4571 48.2681 84.4571 48.016C84.4525 47.7801 84.7053 47.5226 84.9459 47.5172C85.2026 47.511 85.4709 47.7677 85.4678 48.0144C85.4624 48.2388 85.2134 48.4986 84.9968 48.5032Z" fill="#D6B06E"/>
<path d="M99.9785 46.0972V35.1791C100.09 35.2917 100.038 35.4328 100.038 35.56C100.042 39.0713 100.043 42.583 100.042 46.0949L99.9785 46.0972Z" fill="#EBD99E"/>
<path d="M81.5994 35.1791C81.5994 38.7979 81.5994 42.4167 81.5994 46.0355H81.5377C81.5377 42.5339 81.5377 39.032 81.5377 35.5299C81.54 35.4104 81.493 35.2824 81.5994 35.1791Z" fill="#EBD99E"/>
<path d="M81.3528 29.9969C81.3435 30.2998 81.1377 30.501 80.8455 30.4941C80.7798 30.4933 80.715 30.4793 80.6548 30.4531C80.5946 30.4269 80.5403 30.3889 80.4949 30.3414C80.4496 30.294 80.4142 30.2379 80.3908 30.1765C80.3674 30.1152 80.3565 30.0498 80.3587 29.9842C80.3609 29.9185 80.3762 29.854 80.4036 29.7944C80.4311 29.7347 80.4702 29.6812 80.5186 29.6368C80.567 29.5925 80.6238 29.5583 80.6856 29.5362C80.7475 29.5141 80.8131 29.5045 80.8786 29.5081C80.9423 29.5076 81.0054 29.5201 81.064 29.5446C81.1227 29.5692 81.1759 29.6055 81.2202 29.6511C81.2645 29.6968 81.2991 29.751 81.3219 29.8104C81.3447 29.8698 81.3552 29.9333 81.3528 29.9969Z" fill="#D6B06E"/>
<path d="M81.476 32.8369H76.542C76.6229 32.7436 76.7324 32.7775 76.8303 32.7775C78.2828 32.7775 79.7352 32.7775 81.1877 32.7775C81.2856 32.7775 81.3989 32.7436 81.476 32.8369Z" fill="#E9D289"/>
<path d="M91.6099 39.9266C91.3493 39.942 91.0864 39.6899 90.8212 39.6953C90.556 39.7007 90.2915 39.9351 89.9801 39.9266C89.2708 39.9112 88.6695 39.3098 88.6818 38.6268C88.6872 38.3323 88.8684 38.1195 89.1344 38.0964C89.2587 38.0895 89.3813 38.1286 89.4786 38.2062C89.576 38.2838 89.6415 38.3945 89.6625 38.5173C89.701 38.7116 89.7396 38.8881 89.9801 38.9028C90.2414 38.9166 90.2993 38.7255 90.337 38.5242C90.3879 38.2513 90.5683 38.101 90.8274 38.101C91.0864 38.101 91.266 38.2644 91.3154 38.5304C91.3524 38.7247 91.4017 38.9005 91.643 38.9028C91.8843 38.9051 91.9375 38.7401 91.9815 38.542C92.0501 38.2336 92.2898 38.0578 92.5527 38.1056C92.8403 38.158 92.9929 38.3901 92.9605 38.7262C92.8966 39.3993 92.3345 39.9189 91.6099 39.9266Z" fill="#3C424A"/>
<path d="M95.7506 39.3799C95.9649 39.3799 96.18 39.3729 96.3951 39.3799C96.6919 39.3922 96.9247 39.5988 96.9486 39.8571C96.9528 39.9242 96.9436 39.9914 96.9216 40.055C96.8997 40.1185 96.8653 40.177 96.8206 40.2272C96.7759 40.2774 96.7216 40.3182 96.661 40.3473C96.6004 40.3764 96.5347 40.3932 96.4676 40.3968C95.9883 40.4287 95.5075 40.4287 95.0282 40.3968C94.6728 40.3713 94.5225 40.1562 94.5495 39.8448C94.5726 39.5726 94.7761 39.4038 95.1053 39.3822C95.1261 39.3822 95.1462 39.3822 95.167 39.3822L95.7506 39.3799Z" fill="#E55D5B"/>
<path d="M85.9151 39.3798C86.1294 39.3798 86.3445 39.3706 86.5588 39.3798C86.8926 39.3983 87.0769 39.5687 87.0931 39.8555C87.1108 40.1639 86.9751 40.3497 86.6305 40.389C86.1423 40.4402 85.6501 40.4402 85.1619 40.389C85.0319 40.3795 84.9108 40.3196 84.8244 40.2221C84.738 40.1246 84.6931 39.9972 84.6993 39.867C84.7128 39.7332 84.7755 39.6092 84.8752 39.5189C84.9749 39.4287 85.1045 39.3785 85.239 39.3783C85.4641 39.3721 85.69 39.3798 85.9151 39.3798Z" fill="#E55D5B"/>
<path d="M95.2335 38.1086C95.2389 37.7386 95.4347 37.515 95.7493 37.5204C96.0638 37.5258 96.2496 37.7555 96.2473 38.1279C96.245 38.5003 96.043 38.7369 95.7454 38.7446C95.4478 38.7524 95.2281 38.4802 95.2335 38.1086Z" fill="#3C424A"/>
<path d="M86.41 38.1209C86.41 38.4925 86.2111 38.7376 85.9096 38.7376C85.6082 38.7376 85.4001 38.4886 85.4024 38.1209C85.4024 37.7416 85.5936 37.5149 85.9066 37.5141C86.2196 37.5134 86.41 37.7377 86.41 38.1209Z" fill="#3C424A"/>
<path d="M84.9299 42.7605C84.933 42.8238 84.9235 42.8871 84.9018 42.9467C84.8801 43.0063 84.8467 43.061 84.8037 43.1075C84.7606 43.154 84.7086 43.1915 84.6509 43.2177C84.5931 43.2439 84.5308 43.2583 84.4674 43.26C84.2361 43.26 83.9524 42.9948 83.9478 42.7736C83.9486 42.7069 83.9625 42.641 83.9889 42.5798C84.0152 42.5185 84.0535 42.4631 84.1013 42.4167C84.1492 42.3702 84.2058 42.3337 84.2678 42.3092C84.3298 42.2848 84.3961 42.2728 84.4627 42.274C84.7411 42.2717 84.9284 42.4667 84.9299 42.7605Z" fill="#D6B06E"/>
<path d="M93.2642 34.072C92.9666 34.072 92.7677 33.8962 92.7623 33.6202C92.7569 33.3265 92.9789 33.0806 93.2434 33.0945C93.4862 33.1045 93.7391 33.3535 93.7476 33.5933C93.7482 33.6567 93.7361 33.7196 93.712 33.7783C93.6878 33.837 93.6522 33.8902 93.6071 33.9348C93.562 33.9795 93.5085 34.0146 93.4496 34.0382C93.3906 34.0618 93.3276 34.0733 93.2642 34.072Z" fill="#D6B06E"/>
<path d="M103.925 36.4294C103.922 36.72 103.731 36.9128 103.452 36.9081C103.186 36.9043 102.931 36.6499 102.942 36.4001C102.957 36.2678 103.02 36.1457 103.12 36.0573C103.219 35.9689 103.348 35.9205 103.481 35.9213C103.756 35.929 103.929 36.1326 103.925 36.4294Z" fill="#D6B06E"/>
<path d="M102.177 42.2124C101.922 42.2124 101.657 41.958 101.663 41.7121C101.669 41.4661 101.919 41.2287 102.16 41.2256C102.414 41.2256 102.679 41.4808 102.673 41.7259C102.668 41.9711 102.416 42.2093 102.177 42.2124Z" fill="#D6B06E"/>
<path d="M80.6123 43.2671C80.6111 43.3653 80.5806 43.4609 80.5248 43.5417C80.469 43.6226 80.3903 43.6849 80.2988 43.7207C80.2074 43.7565 80.1073 43.7642 80.0114 43.7428C79.9156 43.7214 79.8283 43.6719 79.7607 43.6006C79.6932 43.5293 79.6484 43.4395 79.6322 43.3426C79.616 43.2457 79.6291 43.1462 79.6698 43.0568C79.7105 42.9674 79.777 42.8922 79.8607 42.8408C79.9444 42.7894 80.0415 42.7642 80.1397 42.7683C80.2037 42.7693 80.2668 42.783 80.3255 42.8088C80.3841 42.8345 80.4369 42.8717 80.481 42.9182C80.525 42.9647 80.5593 43.0195 80.5818 43.0794C80.6044 43.1393 80.6147 43.2031 80.6123 43.2671Z" fill="#D6B06E"/>
<path d="M77.6522 36.8442C77.6498 36.7785 77.6612 36.7129 77.6855 36.6518C77.7099 36.5907 77.7467 36.5353 77.7936 36.4892C77.8405 36.4431 77.8965 36.4073 77.958 36.384C78.0196 36.3607 78.0853 36.3504 78.151 36.3539C78.3684 36.3539 78.6451 36.6476 78.6359 36.8612C78.6327 36.9273 78.6165 36.9922 78.5881 37.0521C78.5597 37.1119 78.5197 37.1656 78.4705 37.2099C78.4212 37.2542 78.3637 37.2883 78.3011 37.3102C78.2386 37.3321 78.1724 37.3414 78.1062 37.3376C77.8302 37.3376 77.6514 37.1402 77.6522 36.8442Z" fill="#D6B06E"/>
<path d="M104.728 29.6615C104.728 29.9043 104.485 30.1587 104.246 30.1672C104.007 30.1757 103.738 29.9113 103.741 29.6553C103.741 29.3786 103.94 29.1974 104.237 29.1982C104.534 29.1989 104.728 29.3839 104.728 29.6615Z" fill="#D6B06E"/>
<path d="M100.657 30.8023C100.721 30.8 100.784 30.8105 100.844 30.8332C100.903 30.8559 100.957 30.8903 101.003 30.9344C101.049 30.9785 101.086 31.0313 101.111 31.0898C101.136 31.1483 101.149 31.2112 101.15 31.2749C101.143 31.5192 100.882 31.7775 100.647 31.7706C100.412 31.7636 100.164 31.5077 100.164 31.2641C100.164 30.9858 100.364 30.8023 100.657 30.8023Z" fill="#D6B06E"/>
<path d="M105.036 32.8369H100.102C100.179 32.7436 100.292 32.7775 100.39 32.7775C101.843 32.7775 103.295 32.7775 104.748 32.7775C104.846 32.7775 104.955 32.7436 105.036 32.8369Z" fill="#E9D289"/>
<path d="M88.26 29.5249C88.2638 29.2165 88.4635 29.0146 88.7526 29.0176C88.9708 29.0176 89.2475 29.2983 89.246 29.5149C89.246 29.8125 89.0224 30.0106 88.7063 30.0006C88.6454 30.0001 88.5851 29.9872 88.5293 29.9627C88.4734 29.9382 88.4231 29.9027 88.3814 29.8582C88.3397 29.8138 88.3074 29.7613 88.2865 29.704C88.2657 29.6467 88.2566 29.5858 88.26 29.5249Z" fill="#D6B06E"/>
<path d="M94.9196 30.8009H86.6582C86.7499 30.7022 86.8702 30.7431 86.9774 30.7431C89.5184 30.7431 92.0594 30.7431 94.6004 30.7431C94.7076 30.7431 94.8279 30.7022 94.9196 30.8009Z" fill="#E5D49D"/>
<path d="M86.7183 27.4696H94.8602C94.7692 27.5706 94.6489 27.5298 94.541 27.5298C92.0395 27.5298 89.5381 27.5298 87.0367 27.5298C86.9287 27.5321 86.8085 27.5729 86.7183 27.4696Z" fill="#E5D49D"/>
<path d="M92.0221 25.8838C92.0267 26.1667 91.8371 26.3571 91.5472 26.3618C91.4812 26.3674 91.4147 26.3591 91.3521 26.3373C91.2895 26.3156 91.2322 26.2809 91.1839 26.2355C91.1356 26.1901 91.0974 26.1351 91.0718 26.0739C91.0462 26.0128 91.0337 25.947 91.0353 25.8807C91.0353 25.6494 91.3113 25.3765 91.558 25.3765C91.8193 25.3757 92.0167 25.5924 92.0221 25.8838Z" fill="#D6B06E"/>
<path d="M53.4171 29.8622L51.2534 35.4693L54.3666 39.441L56.7482 37.7433L53.4171 29.8622Z" fill="#916245"/>
<path d="M54.3202 39.55L51.207 35.5628L53.4641 29.6909V29.8778L56.7952 37.8212L54.3202 39.55ZM51.3783 35.4693L54.3825 39.3164L56.6396 37.7589L53.4018 30.127L51.3783 35.4693Z" fill="#6E452B"/>
<path d="M54.0243 44.5341H49.7437L49.8838 41.201L48.3271 40.2509V31.8403L55.2229 30.0024L54.6937 37.3228L54.0243 44.5341Z" fill="#96A499"/>
<path d="M45.0896 29.2081L45.183 41.4191L40.5132 42.0109L40.9335 28.4293L45.0896 29.2081Z" fill="#57564A"/>
<path d="M49.7435 44.5808L46.3657 42.0109L45.0737 35.7808L46.2723 29.7688L48.6851 33.3822L49.152 38.2261L51.0511 38.7713L49.7435 44.5808Z" fill="#57564A"/>
<path d="M44.5759 43.7865L40.8867 42.0732L42.8947 32.7281L44.8405 32.8838L44.9962 30.236L46.0235 34.5348L44.5759 43.7865Z" fill="#96A499"/>
<path d="M62.8504 25.8282L63.7221 28.7408L59.9551 27.8997L62.8504 25.8282Z" fill="#57564A"/>
<path d="M61.2001 45.1104L54.0864 44.5341L54.8025 37.3695L55.3317 30.0491L58.4449 27.9621L61.3091 37.3072L61.2001 45.1104Z" fill="#57564A"/>
<path d="M64.3138 28.5851L59.0369 30.1426L58.4609 34.5037L59.8619 39.7058L61.185 45.1727L63.5822 43.5217L64.2826 38.2884L64.3138 28.5851Z" fill="#96A499"/>
<path d="M64.8739 42.1823L62.3522 42.852L62.9437 38.3508L60.7178 32.7125L63.0682 28.0399V32.7125L65.8079 34.7373L64.8739 42.1823Z" fill="#96A499"/>
<path d="M56.2504 22.0435L61.6674 25.2987L59.1146 27.4169L63.0839 28.0555L57.6046 31.1706L54.0867 29.5352L51.7362 31.4509L56.5306 35.3136L53.5575 36.8711L47.5023 32.915L45.0896 29.3015L40.8556 28.5228L42.0386 25.9684L40.373 25.1274L44.0933 24.1928L44.9339 22.8534L49.4947 20.9999L56.2504 22.0435Z" fill="#B8C8BA"/>
<path d="M36.7461 40.2977L38.7541 30.9525V26.1553L40.3107 25.0651L41.9763 25.9061L40.7933 28.4605L41.4315 31.046L40.2018 36.3571L36.7461 40.2977Z" fill="#57564A"/>
<path d="M53.5573 36.7776L52.8413 43.9423L54.896 45.4998L57.6201 45.3908L56.5305 35.2668L53.5573 36.7776Z" fill="#96A499"/>
<path d="M54.7405 37.3695L56.0791 46.0605L54.0244 44.503L54.7405 37.3695Z" fill="#57564A"/>
<path d="M37.091 73.8345C37.6004 73.9026 38.1068 73.9836 38.591 74.1666C38.7555 74.2279 38.909 74.2967 38.9415 74.4925C38.974 74.6883 38.8464 74.7993 38.7046 74.9025H38.5008C38.1362 74.73 37.7465 74.6514 37.3525 74.5851C37.0996 74.5393 36.8401 74.5437 36.589 74.5981C36.3378 74.6526 36.0998 74.756 35.8886 74.9025H35.6431C35.4369 74.7797 35.2037 74.7318 34.9754 74.6729C34.3002 74.4974 33.6392 74.4974 33.0297 74.9025H32.7842C32.4571 74.6036 32.4939 74.3666 32.8978 74.158C33.154 74.0323 33.424 73.9371 33.7024 73.8744C33.9565 73.8376 34.21 73.8069 34.4629 73.8744C34.8459 73.8934 35.2123 73.9922 35.5762 74.1033C35.6376 74.1224 35.699 74.1647 35.7702 74.1352C35.9746 74.0499 36.1802 73.9658 36.3839 73.8812L37.091 73.8345Z" fill="#F09C22"/>
<path d="M32.6971 71.7574C31.8992 72.022 31.1013 72.2883 30.3034 72.5504C28.3258 73.1994 26.3468 73.8467 24.3664 74.4924C23.9147 74.6397 23.5612 74.4715 23.3997 74.0437C23.7441 73.921 24.0884 73.7982 24.4333 73.6755C25.2963 73.3735 26.1605 73.074 27.0228 72.7708C27.2542 72.6897 27.364 72.4921 27.2959 72.2975C27.2278 72.103 27.0345 72.0134 26.7994 72.0956C26.1285 72.3319 25.462 72.5805 24.7875 72.8057C24.4481 72.9193 24.1203 73.0703 23.768 73.1445C23.2156 73.0832 22.9087 72.702 23.0241 72.2239C23.0941 71.9317 23.2942 71.7636 23.5765 71.6776C24.5123 71.3934 25.4291 71.0498 26.3213 70.649C27.4715 70.1316 28.5818 69.5442 29.5368 68.7052C29.9143 68.3709 30.2392 67.9814 30.5004 67.5501C30.7907 67.075 31.0601 66.5852 31.4008 66.1421C32.0145 65.3442 32.8186 64.8041 33.7331 64.4082C33.951 64.4082 34.0983 64.5715 34.2793 64.6537C34.8606 64.9213 35.4719 65.0017 36.1034 64.979C36.1034 65.5431 36.1219 66.1083 36.1034 66.6718C36.0421 68.5745 35.2178 70.0702 33.6877 71.1885C33.3759 71.415 33.0303 71.5733 32.6971 71.7574ZM33.1316 66.0402C33.0039 66.0402 32.9542 66.0642 32.8419 66.163C32.4006 66.5662 32.0262 67.0372 31.7328 67.5581C31.4296 68.0785 31.1277 68.6015 30.7048 69.0403C30.0897 69.6727 29.3889 70.2156 28.6229 70.6533C28.4038 70.7809 28.3295 70.9792 28.424 71.1602C28.5247 71.3536 28.7309 71.4057 28.9684 71.2719C29.3491 71.0502 29.7165 70.8065 30.0689 70.5422C30.8365 69.9936 31.4894 69.3001 31.9906 68.5008C32.3975 67.8428 32.7333 67.126 33.3783 66.6393C33.5091 66.541 33.5072 66.3753 33.4428 66.2262C33.3875 66.0912 33.2752 66.0402 33.1341 66.0402H33.1316ZM35.0294 66.7424V66.5994C35.0294 66.3256 34.9318 66.2065 34.7084 66.2035C34.4555 66.2004 34.3401 66.3219 34.3358 66.6018C34.3319 66.7508 34.3188 66.8994 34.2965 67.0468C34.1609 68.0951 33.6582 68.9323 32.8517 69.6025C32.5976 69.813 32.2944 69.9382 32.0231 70.1175C31.839 70.2371 31.8065 70.393 31.9035 70.5729C32.0004 70.7527 32.2048 70.8006 32.4368 70.6852C33.1863 70.3255 33.8237 69.7684 34.2805 69.0737C34.7372 68.379 34.9961 67.5731 35.0294 66.7424Z" fill="#349B31"/>
<path d="M36.8331 54.8778C37.2732 55.0306 37.7194 55.1699 38.1533 55.3411C38.2488 55.3785 38.3351 55.436 38.4061 55.5099C38.4772 55.5838 38.5314 55.6722 38.565 55.769C38.5986 55.8659 38.6108 55.9689 38.6008 56.0709C38.5907 56.1729 38.5587 56.2716 38.5068 56.36C38.1828 56.9075 37.8317 57.4384 37.4886 57.976C37.4272 58.0767 37.3223 58.1332 37.2302 58.2019C37.0998 58.2354 36.9673 58.2607 36.8337 58.2774C35.9198 58.3427 35.0236 58.5629 34.1835 58.9286C33.6207 59.1667 33.1339 59.5424 32.5773 59.7879C32.4369 59.7989 32.2962 59.7728 32.1691 59.7124C31.6646 59.4963 31.1527 59.2969 30.6433 59.0919C30.0835 58.8666 29.9276 58.3774 30.2603 57.8778C30.4898 57.5335 30.7243 57.1923 30.9569 56.8498C31.0484 56.8651 31.0379 56.951 31.0588 57.0087C31.1343 57.2174 31.1963 57.4316 31.2724 57.6403C31.2884 57.6867 31.3138 57.7294 31.3469 57.7657C31.38 57.8019 31.4202 57.8311 31.465 57.8512C31.5097 57.8714 31.5582 57.8822 31.6073 57.883C31.6564 57.8838 31.7051 57.8745 31.7505 57.8557C31.9095 57.7987 31.9911 57.6053 31.9303 57.42C31.7258 56.7927 31.5195 56.1656 31.3117 55.5388C31.706 55.1372 32.1741 54.8155 32.6902 54.5911C33.5261 54.2229 34.3922 53.9651 35.3208 54.0038C35.4828 54.0111 35.6442 54.0308 35.8063 54.0449C35.9468 54.6648 36.1684 55.2595 36.3967 55.85C36.4863 56.082 36.7331 56.0906 36.9209 55.9242C37.0694 55.7929 37.0436 55.6413 37 55.4786C36.9491 55.2767 36.8362 55.0926 36.8331 54.8778ZM33.412 55.7419C33.2137 55.7468 33.1051 55.8352 33.0554 55.9948C32.9995 56.171 33.075 56.3017 33.2156 56.3956C33.3218 56.4662 33.5016 56.4999 33.5323 56.5902C33.563 56.6804 33.4414 56.8142 33.3936 56.9326C33.3745 56.9743 33.3639 57.0193 33.3624 57.0651C33.3608 57.1108 33.3682 57.1565 33.3843 57.1993C33.4004 57.2422 33.4248 57.2815 33.4561 57.3149C33.4873 57.3484 33.5249 57.3753 33.5666 57.3942C33.7336 57.474 33.9147 57.4144 34.0233 57.2469C34.0926 57.1401 34.1055 56.9553 34.2166 56.9314C34.3179 56.9093 34.4456 57.0198 34.5646 57.0646C34.6439 57.0953 34.7316 57.096 34.8114 57.0666C34.8911 57.0372 34.9574 56.9798 34.9978 56.905C35.0383 56.8303 35.0501 56.7433 35.031 56.6605C35.0119 56.5777 34.9633 56.5047 34.8942 56.4551C34.7831 56.379 34.5984 56.3465 34.5585 56.2489C34.5106 56.1317 34.6677 56.0034 34.7064 55.8659C34.7327 55.7841 34.7286 55.6956 34.6947 55.6166C34.6609 55.5377 34.5996 55.4736 34.5223 55.4363C34.4449 55.3993 34.3566 55.3921 34.2743 55.4161C34.192 55.4401 34.1214 55.4936 34.0761 55.5664C34.0244 55.6461 33.9804 55.7306 33.9447 55.8187C33.9042 55.9181 33.8557 55.9316 33.7606 55.88C33.6434 55.8193 33.5304 55.7333 33.412 55.7419Z" fill="#474F5D"/>
<path d="M32.5774 59.7904C33.1341 59.5449 33.6208 59.1668 34.1837 58.9311C35.0236 58.5646 35.9198 58.3435 36.8339 58.2775C36.9675 58.2607 37.1 58.2355 37.2304 58.202C37.6969 58.4505 38.1302 58.7415 38.4665 59.1582C38.5125 59.2153 38.5531 59.2773 38.596 59.3374C38.3483 59.3007 38.0963 59.3024 37.8491 59.3423C36.8173 59.5185 36.0771 60.4692 36.125 61.407C36.1385 61.6618 36.2422 61.7802 36.4963 61.7931C36.6044 61.798 36.7136 61.7931 36.8222 61.7974L36.8259 62.1423C36.8296 62.6806 37.1733 63.0838 37.7091 63.1857C38.0712 63.2563 38.4364 63.1943 38.7998 63.2232C38.6562 63.5202 38.4278 63.7522 38.2118 63.9947C37.9111 64.2677 37.572 64.4952 37.2052 64.6698C36.8517 64.8306 36.4755 64.9043 36.1005 64.9804C35.4689 65.0031 34.8576 64.9227 34.2763 64.6551C34.0922 64.5716 33.948 64.4096 33.7301 64.4096C33.7559 64.3243 33.6792 64.3083 33.635 64.2745C32.2847 63.2238 31.8514 61.5365 32.5369 59.9641C32.5596 59.9082 32.6008 59.8567 32.5774 59.7904ZM35.1325 62.4848C35.3893 62.4727 35.6317 62.3626 35.8097 62.1772C35.9877 61.9917 36.0878 61.7451 36.0894 61.4881C36.1753 60.9529 35.7027 60.3765 35.0399 60.3698C34.4666 60.3643 33.9572 60.8927 33.9781 61.4617C34.0001 62.073 34.5059 62.5204 35.1325 62.4848Z" fill="#3CBC39"/>
<path d="M36.0993 64.9804C36.4756 64.9043 36.8518 64.8306 37.2041 64.6698C37.5709 64.4952 37.91 64.2677 38.2107 63.9947C38.7146 64.6508 39.0755 65.375 39.2093 66.1956C39.4468 67.6527 39.1565 68.987 38.2353 70.1624C37.8075 70.7101 37.2705 71.1631 36.6585 71.4924C36.6106 71.5182 36.5591 71.5391 36.5388 71.5961C36.2933 71.6244 36.0846 71.7447 35.868 71.8466L34.8798 72.0448L34.1543 72.0503C33.7296 72.0644 33.3208 71.9705 32.9151 71.8619C32.839 71.8416 32.7537 71.8312 32.6997 71.7594C33.0305 71.5753 33.3748 71.4169 33.6817 71.1917C35.2118 70.0734 36.0355 68.5752 36.0975 66.675C36.1178 66.1097 36.1006 65.5444 36.0993 64.9804ZM38.2211 67.0561C38.2457 66.7149 38.1788 66.3306 38.0628 65.9513C38.045 65.8744 38.0005 65.8061 37.9373 65.7588C37.8741 65.7114 37.7961 65.6878 37.7172 65.6923C37.5386 65.6923 37.4177 65.8077 37.3729 65.9869C37.3465 66.0913 37.3981 66.1864 37.4232 66.2828C37.5438 66.7466 37.5602 67.2313 37.4711 67.7022C37.3821 68.173 37.1899 68.6183 36.9083 69.006C36.7739 69.1988 36.8101 69.3964 36.9875 69.5241C37.1648 69.6517 37.3557 69.5983 37.5171 69.3608C37.9756 68.6832 38.2445 67.9436 38.2211 67.0561Z" fill="#F7E8AE"/>
<path d="M36.822 61.7948C36.7134 61.7948 36.6041 61.7948 36.4961 61.7905C36.242 61.7776 36.1383 61.6592 36.1248 61.4045C36.0769 60.4666 36.8171 59.5159 37.8488 59.3398C38.0963 59.3014 38.3483 59.3014 38.5958 59.3398C39.5269 59.5546 40.1461 60.1143 40.3143 61.0583C40.4825 62.0023 40.1406 62.8088 39.4808 63.4858C39.3611 63.6085 39.2758 63.584 39.2059 63.4244C39.1733 63.3507 39.1445 63.2758 39.1101 63.2022C39.0561 63.0414 39.0076 62.8794 38.9475 62.7216C38.7731 62.2625 38.4687 61.9397 37.974 61.8341C37.5947 61.7494 37.2068 61.809 36.822 61.7948Z" fill="#EEC21A"/>
<path d="M23.768 73.1496C24.1203 73.0753 24.448 72.9243 24.7874 72.8108C25.4626 72.5855 26.1285 72.3369 26.7994 72.1006C27.0344 72.0184 27.2247 72.1006 27.2959 72.3026C27.3671 72.5045 27.2542 72.6948 27.0228 72.7758C26.1635 73.079 25.2963 73.3785 24.4333 73.6805C24.0884 73.8032 23.744 73.926 23.3997 74.0487C23.2616 73.7633 23.4292 73.4 23.6262 73.2545C23.6747 73.2189 23.7207 73.1821 23.768 73.1496Z" fill="#257F20"/>
<path d="M36.8223 61.7948C37.2071 61.8065 37.595 61.747 37.9768 61.8286C38.4715 61.9342 38.7747 62.2582 38.9502 62.7161C39.0116 62.8738 39.0588 63.0359 39.1128 63.1967L38.7998 63.2231C38.4365 63.1942 38.0713 63.2562 37.7092 63.1856C37.1733 63.0813 36.8296 62.678 36.8259 62.1422L36.8223 61.7948Z" fill="#F09A1F"/>
<path d="M35.8677 71.8472C36.0843 71.7453 36.2973 71.625 36.5385 71.5968L37.0909 73.8346L36.3839 73.8837C36.212 73.2048 36.0399 72.526 35.8677 71.8472Z" fill="#EEC31C"/>
<path d="M31.3118 55.5414C31.5164 56.1687 31.7226 56.7957 31.9305 57.4226C31.9918 57.6067 31.9096 57.8013 31.7506 57.8584C31.7052 57.8771 31.6565 57.8864 31.6074 57.8856C31.5583 57.8848 31.5098 57.874 31.4651 57.8539C31.4203 57.8337 31.3801 57.8046 31.347 57.7683C31.3139 57.732 31.2885 57.6894 31.2725 57.6429C31.1964 57.4343 31.1344 57.2201 31.0589 57.0114C31.0381 56.9537 31.0485 56.8678 30.957 56.8524C30.957 56.7033 30.8957 56.5627 30.9018 56.4099C30.9011 56.2437 30.9376 56.0795 31.0085 55.9292C31.0795 55.779 31.1831 55.6465 31.3118 55.5414Z" fill="#3A404B"/>
<path d="M34.154 72.0483L34.8789 72.0427C34.8126 72.3189 34.7395 72.5951 34.6812 72.8707C34.6113 73.207 34.4738 73.528 34.4621 73.8767C34.2092 73.8067 33.9558 73.8374 33.7017 73.8767C33.8526 73.2662 34.0034 72.6567 34.154 72.0483Z" fill="#EEC31C"/>
<path d="M36.833 54.8778C36.836 55.0926 36.949 55.2767 36.9999 55.4786C37.0417 55.6413 37.0693 55.7929 36.9207 55.9242C36.7329 56.0906 36.4862 56.082 36.3966 55.85C36.1683 55.2595 35.9498 54.6648 35.8062 54.0449C36.3279 54.1014 36.6415 54.4138 36.833 54.8778Z" fill="#3A404B"/>
<path d="M33.134 66.0401C33.2752 66.0401 33.3875 66.0929 33.4452 66.2242C33.5097 66.3734 33.5115 66.5391 33.3808 66.6373C32.7357 67.124 32.3988 67.8409 31.9931 68.4988C31.4918 69.2982 30.839 69.9917 30.0714 70.5402C29.719 70.8046 29.3515 71.0482 28.9709 71.27C28.7358 71.4032 28.5271 71.3516 28.4265 71.1583C28.332 70.9742 28.4062 70.779 28.6253 70.6513C29.3913 70.2137 30.0921 69.6707 30.7072 69.0383C31.1301 68.5971 31.4321 68.0766 31.7353 67.5561C32.0286 67.0352 32.403 66.5643 32.8443 66.161C32.9567 66.064 33.0039 66.0401 33.134 66.0401Z" fill="#77D346"/>
<path d="M35.0293 66.7424C34.9961 67.5731 34.7372 68.3791 34.2805 69.0737C33.8237 69.7684 33.1863 70.3255 32.4368 70.6852C32.2048 70.8006 32.001 70.7533 31.9034 70.5729C31.8059 70.3924 31.8421 70.2372 32.0231 70.1175C32.2944 69.9383 32.5976 69.8106 32.8517 69.6025C33.6582 68.9323 34.1609 68.0951 34.2965 67.0468C34.3188 66.8994 34.3319 66.7508 34.3358 66.6018C34.3358 66.322 34.4555 66.2004 34.7083 66.2035C34.9318 66.2035 35.0287 66.3262 35.0293 66.5994V66.7424Z" fill="#77D346"/>
<path d="M33.4122 55.742C33.5307 55.7334 33.6436 55.8193 33.7614 55.8813C33.8572 55.9323 33.9057 55.9188 33.9456 55.8199C33.9812 55.7319 34.0252 55.6474 34.0769 55.5677C34.1223 55.4949 34.1929 55.4414 34.2752 55.4174C34.3575 55.3934 34.4458 55.4006 34.5231 55.4376C34.6005 55.4749 34.6617 55.539 34.6956 55.6179C34.7294 55.6969 34.7336 55.7854 34.7073 55.8672C34.6686 56.0041 34.5115 56.133 34.5593 56.2502C34.5998 56.3459 34.784 56.3785 34.8945 56.4552C34.9642 56.5045 35.0134 56.5776 35.0328 56.6607C35.0523 56.7438 35.0406 56.8312 35.0001 56.9063C34.9595 56.9814 34.8928 57.0391 34.8126 57.0683C34.7324 57.0976 34.6443 57.0965 34.5649 57.0653C34.4458 57.0205 34.3194 56.91 34.2169 56.9321C34.1058 56.956 34.0941 57.1408 34.0235 57.2476C33.9149 57.4151 33.7338 57.4746 33.5669 57.3949C33.5252 57.376 33.4876 57.349 33.4563 57.3156C33.425 57.2822 33.4006 57.2429 33.3845 57.2C33.3685 57.1571 33.361 57.1115 33.3626 57.0657C33.3642 57.02 33.3748 56.975 33.3938 56.9333C33.4417 56.8149 33.5626 56.6786 33.5325 56.5908C33.5024 56.5031 33.322 56.4681 33.2158 56.3963C33.0753 56.3017 32.9998 56.1716 33.0556 55.9955C33.1059 55.8353 33.214 55.7469 33.4122 55.742Z" fill="#FBFBFC"/>
<path d="M36.0894 61.488C36.0876 61.7449 35.9874 61.9914 35.8094 62.1767C35.6315 62.362 35.3892 62.472 35.1325 62.4841L35.0245 62.4313C34.8706 62.3646 34.7425 62.2497 34.6593 62.104C34.5761 61.9583 34.5423 61.7896 34.5631 61.6231C34.5838 61.4566 34.6579 61.3014 34.7743 61.1805C34.8907 61.0597 35.0431 60.9798 35.2086 60.9528C35.5339 60.8914 35.866 61.0657 36.0323 61.3824C36.0483 61.4205 36.0728 61.4542 36.0894 61.488Z" fill="#FBFBFC"/>
<path d="M36.0894 61.4879C36.0698 61.4536 36.0483 61.4198 36.028 61.3848C35.8617 61.0657 35.5297 60.8938 35.2044 60.9552C35.0388 60.9822 34.8864 61.0621 34.77 61.1829C34.6536 61.3038 34.5795 61.4591 34.5588 61.6255C34.5381 61.792 34.5718 61.9607 34.655 62.1064C34.7382 62.2521 34.8663 62.367 35.0202 62.4337L35.1283 62.4865C34.5016 62.5221 33.9959 62.0747 33.9738 61.464C33.9529 60.895 34.4648 60.3666 35.0356 60.3721C35.7046 60.377 36.1753 60.9533 36.0894 61.4879Z" fill="#4A505E"/>
<path d="M38.2207 67.0561C38.2471 67.9436 37.9789 68.6832 37.5167 69.3608C37.3547 69.5983 37.1656 69.6523 36.987 69.5241C36.8084 69.3958 36.7734 69.1988 36.9079 69.006C37.1894 68.6183 37.3817 68.173 37.4707 67.7022C37.5597 67.2313 37.5434 66.7466 37.4228 66.2828C37.3976 66.1864 37.3461 66.0913 37.3725 65.9869C37.4173 65.8077 37.5382 65.6948 37.7168 65.6923C37.7957 65.6878 37.8736 65.7114 37.9368 65.7588C38.0001 65.8061 38.0445 65.8744 38.0623 65.9513C38.1753 66.3306 38.2422 66.7149 38.2207 67.0561Z" fill="#E2BF5D"/>
<path d="M45.4784 46.8704C45.0581 46.8704 43.3925 47.4467 44.0463 44.8612C44.4043 43.989 45.6963 44.3005 45.6963 44.3005C45.6963 44.3005 45.5251 42.1978 48.934 42.3536C49.292 41.4813 52.5298 39.659 53.6038 42.8364C53.9547 42.6937 54.3323 42.6289 54.7106 42.6466C55.0889 42.6643 55.4588 42.7639 55.7948 42.9387C56.1309 43.1135 56.4249 43.3592 56.6567 43.6589C56.8885 43.9585 57.0525 44.305 57.1373 44.6743C58.4604 45.4219 58.3982 44.5808 58.5694 46.6835C58.7406 48.7861 58.6939 48.3656 58.3048 48.8173C57.9156 49.269 50.7241 49.4092 49.8836 49.487C49.043 49.5649 48.5449 48.7394 48.1402 48.7706C47.751 49.2223 46.0543 49.3624 45.992 48.5214C45.9298 47.2286 45.8986 46.8237 45.4784 46.8704Z" fill="#4AA836"/>
<path d="M34.5824 42.1978C34.1621 42.1978 32.4965 42.7741 33.1503 40.1886C33.5083 39.3164 34.8003 39.6279 34.8003 39.6279C34.8003 39.6279 34.6291 37.5252 38.038 37.681C38.396 36.8088 41.6338 34.9865 42.7078 38.1638C43.0587 38.0211 43.4363 37.9564 43.8146 37.974C44.1929 37.9917 44.5628 38.0914 44.8988 38.2661C45.2349 38.4409 45.5289 38.6866 45.7607 38.9863C45.9925 39.286 46.1565 39.6324 46.2413 40.0017C47.5644 40.7493 47.5022 39.9082 47.6734 42.0109C47.8446 44.1136 47.7979 43.693 47.4088 44.1447C47.0196 44.5964 39.8281 44.7366 38.9876 44.8145C38.147 44.8923 37.6489 44.0669 37.2442 44.098C36.855 44.5497 35.1583 44.6899 35.096 43.8488C35.0338 42.5561 35.0026 42.1511 34.5824 42.1978Z" fill="#4AA836"/>
<path d="M70.2954 34.1372C70.7721 34.3911 71.3199 34.4788 71.852 34.3864C72.3563 34.3057 72.8236 34.0719 73.1907 33.7166C73.1907 33.7166 73.1907 21.8483 67.2912 17.3938C67.2912 17.3938 66.9798 17.5651 67.011 17.7987C66.902 17.7987 72.3346 23.5771 70.2954 34.1372Z" fill="#B7703B"/>
<path d="M70.5755 22.409C71.9765 25.711 74.0157 33.6232 70.2954 34.1372C70.7721 34.3911 71.3198 34.4788 71.852 34.3864C72.3563 34.3057 72.8236 34.0719 73.1906 33.7166C73.1906 33.7166 73.1906 21.8483 67.2911 17.3938C67.195 17.4509 67.1147 17.5312 67.0576 17.6274C67.0576 17.6274 68.7387 18.1881 70.5755 22.409Z" fill="#994D08"/>
<path d="M70.4043 31.6451C70.6277 31.8155 70.8812 31.9423 71.1515 32.0189C71.4229 32.0815 71.705 32.0815 71.9765 32.0189C72.2562 31.9852 72.5263 31.8952 72.7703 31.7542C73.0091 31.6115 73.22 31.4268 73.393 31.209L73.2529 30.4614C72.9964 30.9518 72.5619 31.3252 72.0387 31.505C71.5289 31.678 70.9722 31.6502 70.4821 31.4271L70.4043 31.6451Z" fill="#D18316"/>
<path d="M73.2997 28.8104C72.9525 29.2559 72.4429 29.5455 71.8826 29.6155C71.3223 29.6856 70.7572 29.5305 70.311 29.1842V28.4366C70.4908 28.6445 70.7099 28.8149 70.9556 28.9378C71.2014 29.0608 71.469 29.1339 71.7431 29.1531C72.0226 29.1765 72.3039 29.1445 72.571 29.059C72.8381 28.9735 73.0857 28.8361 73.2997 28.6547V28.8104Z" fill="#D18316"/>
<path d="M70.4355 29.9318C70.8777 30.3029 71.4429 30.4943 72.0194 30.4684C72.5959 30.4424 73.1417 30.2009 73.5488 29.7917L73.4087 29.449C73.0771 29.8877 72.5879 30.1802 72.0446 30.2645C71.5014 30.3488 70.9466 30.2183 70.4978 29.9007L70.4355 29.9318Z" fill="#B66612"/>
<path d="M72.2412 23.5304C71.8943 23.9714 71.3878 24.2579 70.8313 24.3279C70.2748 24.3978 69.7132 24.2456 69.2681 23.9042V23.1566C69.4478 23.3645 69.6669 23.5349 69.9127 23.6578C70.1584 23.7808 70.426 23.8539 70.7001 23.8731C70.9796 23.8965 71.261 23.8645 71.5281 23.779C71.7952 23.6935 72.0428 23.5561 72.2567 23.3747L72.2412 23.5304Z" fill="#D18316"/>
<path d="M71.3696 22.0508C71.1979 22.2697 70.9848 22.4526 70.7425 22.5891C70.5002 22.7256 70.2333 22.8129 69.9572 22.8462C69.6811 22.8795 69.4012 22.858 69.1334 22.783C68.8656 22.7079 68.6152 22.5809 68.3965 22.409V21.6614C68.5739 21.872 68.7925 22.0442 69.0387 22.1674C69.2849 22.2905 69.5537 22.3622 69.8286 22.3778C70.108 22.4013 70.3894 22.3693 70.6565 22.2838C70.9236 22.1982 71.1712 22.0608 71.3852 21.8794L71.3696 22.0508Z" fill="#D18316"/>
<path d="M69.6108 24.9633C70.053 25.3344 70.6182 25.5258 71.1947 25.4999C71.7712 25.4739 72.317 25.2324 72.724 24.8232L72.5839 24.4649C72.2551 24.9026 71.7686 25.1947 71.228 25.279C70.6873 25.3634 70.135 25.2334 69.6887 24.9166L69.6108 24.9633Z" fill="#B66612"/>
<path d="M69.3618 23.2033C69.9427 23.3144 70.5442 23.215 71.0585 22.923C71.5744 22.6367 71.9676 22.1713 72.1637 21.6147L71.9614 21.3499C71.7814 21.8875 71.4318 22.3521 70.9651 22.6738C70.5115 22.9961 69.9646 23.1603 69.4085 23.141L69.3618 23.2033Z" fill="#B66612"/>
<path d="M70.6226 19.9325C70.6226 19.9325 69.5174 22.0508 67.8208 21.2564L67.6807 20.5088C67.6807 20.5088 69.0972 21.6146 70.5604 19.8079L70.6226 19.9325Z" fill="#D18316"/>
<path d="M68.6299 21.6147C69.2214 21.7199 69.831 21.6035 70.3421 21.2876C70.8544 20.9794 71.2405 20.4991 71.4317 19.9325L71.2294 19.6522C71.0646 20.2016 70.7259 20.6826 70.2643 21.0228C69.811 21.355 69.2691 21.5447 68.7077 21.5679L68.6299 21.6147Z" fill="#B66612"/>
<path d="M69.6728 18.78C69.3259 19.2209 68.8194 19.5074 68.2629 19.5774C67.7065 19.6474 67.1448 19.4952 66.6997 19.1538V18.4062C67.0591 18.8224 67.5681 19.0799 68.1162 19.1226C68.6805 19.1682 69.2399 18.9891 69.6728 18.6242V18.78Z" fill="#D18316"/>
<path d="M67.665 19.9325C68.241 20.0509 68.8404 19.9589 69.3544 19.6732C69.8684 19.3875 70.2631 18.9269 70.4669 18.375L70.2646 18.1102C70.0839 18.6473 69.7349 19.1117 69.2694 19.4344C68.8038 19.7571 68.2466 19.9209 67.6806 19.9014L67.665 19.9325Z" fill="#B66612"/>
<path d="M69.1124 17.2536C69.1124 17.2536 68.0072 19.3563 66.3105 18.5619L66.1704 17.8299C66.1704 17.8299 67.5714 18.9357 69.0346 17.129L69.1124 17.2536Z" fill="#D18316"/>
<path d="M67.0732 18.9201C67.6679 19.018 68.2779 18.901 68.7941 18.5899C69.3103 18.2789 69.699 17.7941 69.8907 17.2224L69.6728 16.9577C69.5002 17.5033 69.163 17.982 68.7077 18.3283C68.2567 18.6628 67.7124 18.848 67.1511 18.8578L67.0732 18.9201Z" fill="#B66612"/>
<path d="M72.3349 25.5085C72.3349 25.5085 71.4009 27.7357 69.8599 26.7545L69.7354 25.929C69.7354 25.929 70.9962 27.2373 72.2726 25.3371L72.3349 25.5085Z" fill="#D18316"/>
<path d="M70.1865 27.3931C70.4182 27.5326 70.6789 27.6168 70.9483 27.6392C71.2178 27.6616 71.4888 27.6215 71.7402 27.522C71.9917 27.4226 72.2169 27.2665 72.3982 27.0658C72.5796 26.8652 72.7123 26.6254 72.786 26.3651L72.6148 26.0225C72.5487 26.2696 72.4335 26.5009 72.2759 26.7023C72.1184 26.9038 71.9218 27.0714 71.6979 27.1951C71.4741 27.3187 71.2276 27.3958 70.9732 27.4218C70.7188 27.4478 70.4619 27.4222 70.2177 27.3464L70.1865 27.3931Z" fill="#B66612"/>
<path d="M73.2997 32.1124C72.8751 32.5026 72.3197 32.7194 71.7431 32.7198C71.1657 32.724 70.6086 32.5066 70.1865 32.1124L70.2799 31.7542C70.6427 32.1684 71.1488 32.4299 71.6964 32.4862C72.2498 32.5487 72.8063 32.3984 73.253 32.0657L73.2997 32.1124Z" fill="#B66612"/>
<path d="M66.2486 16.3035C65.969 15.2899 65.8483 14.2391 65.8906 13.1884C66.0148 13.4531 66.1893 13.6912 66.4042 13.8893C66.2393 13.5288 66.0938 13.1596 65.9684 12.7835C66.0462 12.3162 66.4198 11.0702 66.4198 11.0702C66.4736 11.1593 66.5362 11.2428 66.6066 11.3194C66.6181 11.1795 66.6181 11.0388 66.6066 10.8989C66.8136 10.2399 67.2219 9.66249 67.774 9.24789V10.5406C67.8525 10.0142 67.9669 9.49385 68.1165 8.98312C68.4204 8.74911 68.7628 8.56991 69.1283 8.45356C69.0808 8.64792 69.0496 8.8459 69.0349 9.04543C69.0719 8.83604 69.1347 8.63202 69.2217 8.438C69.642 8.34379 70.0807 8.37631 70.4825 8.53144L69.533 10.089C69.3047 10.0192 69.0608 10.0192 68.8325 10.089C69.0193 10.089 69.4552 10.2291 69.4552 10.2291L69.0038 11.444H68.6924L68.9259 11.5842L68.7391 12.2851C68.4774 12.3951 68.2271 12.5308 67.992 12.69L68.599 12.6122C68.3173 13.413 68.1038 14.2362 67.9608 15.073C67.7844 15.1437 67.6213 15.2438 67.4783 15.369H67.8986C67.7141 16.1705 67.6304 16.992 67.6495 17.8143C67.0396 17.3629 66.5788 16.739 66.3264 16.0231L66.2486 16.3035Z" fill="url(#paint0_linear_4596_10052)"/>
<path opacity="0.3" d="M66.8401 13.4065C66.4821 14.9969 66.732 16.6638 67.5406 18.0791C66.9324 17.6128 66.4816 16.9715 66.2486 16.2412C65.969 15.2276 65.8483 14.1768 65.8906 13.1261C66.0148 13.3908 66.1893 13.6289 66.4042 13.827C66.2393 13.4665 66.0938 13.0974 65.9684 12.7212C66.0462 12.2539 66.4198 11.0079 66.4198 11.0079C66.4736 11.097 66.5362 11.1805 66.6066 11.2571C66.6181 11.1172 66.6181 10.9765 66.6066 10.8366C66.8136 10.1776 67.2219 9.6002 67.774 9.18561V10.4784C67.8525 9.95196 67.9669 9.43157 68.1165 8.92083C68.4204 8.68682 68.7628 8.50763 69.1283 8.39128C69.0808 8.58564 69.0496 8.78359 69.0349 8.98312C69.0719 8.77373 69.1347 8.56971 69.2217 8.37569C69.642 8.28149 70.0807 8.314 70.4825 8.46913C69.5363 8.89767 68.7122 9.55626 68.0854 10.3849C67.4696 11.2254 67.0688 12.204 66.9179 13.2352L66.8401 13.4065Z" fill="url(#paint1_linear_4596_10052)"/>
<path d="M65.1122 16.4281C64.4018 16.6341 63.7436 16.99 63.182 17.4716C63.4224 17.4728 63.6602 17.5204 63.8825 17.6118C63.589 17.6293 63.2974 17.6709 63.0108 17.7364C62.7483 18.0913 62.5141 18.4662 62.3103 18.8578H62.5594L62.2636 18.9824C61.9978 19.5115 61.9052 20.111 61.999 20.6957C62.1547 20.54 62.6995 20.1194 62.6995 20.1194C62.4537 20.414 62.2299 20.7264 62.0301 21.0539C62.0795 21.4257 62.1682 21.7912 62.2948 22.1442C62.3811 22.0246 62.4802 21.915 62.5905 21.8171C62.5025 21.9514 62.4245 22.092 62.357 22.2377C62.5319 22.6327 62.7925 22.9838 63.1198 23.2656L63.4933 21.7081C63.3205 21.5247 63.188 21.3072 63.1042 21.0695C63.2156 21.2538 63.364 21.4128 63.54 21.5368L63.9759 20.6334L63.8358 20.3375L64.0382 20.4621L64.3495 20.0104C64.2601 19.7411 64.1924 19.465 64.1471 19.1849L64.4584 19.7456C64.7559 19.1908 65.1106 18.6688 65.5169 18.1881C65.4535 18.0134 65.4219 17.8288 65.4235 17.6429L65.6726 18.0012C66.0096 17.5057 66.4311 17.0733 66.9178 16.724C66.3764 16.4286 65.753 16.3192 65.1433 16.4125L65.1122 16.4281Z" fill="url(#paint2_linear_4596_10052)"/>
<path opacity="0.5" d="M63.7732 18.1881C64.1169 17.6928 64.5837 17.2956 65.1274 17.0355C65.6688 16.7723 66.2709 16.6594 66.8708 16.7084C66.3237 16.413 65.6954 16.3036 65.0807 16.3969C64.3655 16.6027 63.7022 16.9585 63.135 17.4405C63.3756 17.4388 63.614 17.4865 63.8354 17.5807C63.5472 17.5992 63.2609 17.6409 62.9793 17.7053C62.7168 18.0601 62.4826 18.4351 62.2788 18.8267C62.356 18.8119 62.4352 18.8119 62.5123 18.8267L62.2321 18.9513C61.9687 19.4812 61.8711 20.0783 61.9519 20.6645L62.6524 20.0883C62.4169 20.3871 62.1986 20.6991 61.9986 21.0228C62.048 21.3946 62.1367 21.76 62.2633 22.1131C62.3405 21.9865 62.4408 21.8755 62.559 21.786C62.4674 21.9209 62.3843 22.0613 62.31 22.2065C62.4949 22.5997 62.76 22.9499 63.0883 23.2345C62.7937 22.3903 62.6978 21.4895 62.8081 20.6023C62.9374 19.7333 63.2679 18.9066 63.7732 18.1881Z" fill="url(#paint3_linear_4596_10052)"/>
<path d="M65.7192 14.6369C64.8672 13.9496 63.9243 13.3835 62.9173 12.9548C63.1214 13.2051 63.2891 13.483 63.4154 13.7803C63.2597 13.5778 62.4814 12.8769 62.4814 12.8769C61.8951 12.7531 61.3028 12.6596 60.7069 12.5966C60.773 12.6897 60.8303 12.7888 60.8781 12.8925C60.7691 12.7991 60.5045 12.6277 60.5045 12.6277C59.8142 12.5507 59.119 12.7218 58.5432 13.1106C58.8545 13.2196 59.7729 13.6401 59.7729 13.6401C59.2748 13.5155 58.7611 13.4221 58.2163 13.3442C57.8918 13.5701 57.6076 13.8492 57.3757 14.1697C57.579 14.203 57.7776 14.2605 57.9673 14.341H57.3291C57.096 14.742 56.9826 15.2014 57.0022 15.6649L58.8545 15.3846C58.8742 15.1278 58.972 14.8832 59.1347 14.6837C59.0102 14.8394 59.1347 15.3846 59.1347 15.3846H60.4267L60.6135 15.1042V15.3846L61.314 15.5092C61.4981 15.2886 61.707 15.09 61.9366 14.9173L61.672 15.5092C62.5321 15.5691 63.3859 15.6993 64.2248 15.8985C64.3603 15.7614 64.5119 15.6411 64.6762 15.5403L64.5673 15.992C65.3978 16.142 66.2042 16.404 66.9644 16.7708C66.7476 15.9537 66.3053 15.2142 65.688 14.6369H65.7192Z" fill="url(#paint4_linear_4596_10052)"/>
<path opacity="0.5" d="M62.746 14.0139C64.4604 14.3624 65.9852 15.3333 67.0267 16.7396C66.7959 15.9302 66.3429 15.2017 65.7191 14.6369C64.8672 13.9496 63.9243 13.3835 62.9173 12.9548C63.1214 13.2051 63.2891 13.483 63.4154 13.7803C63.2597 13.5778 62.4814 12.8769 62.4814 12.8769C61.8951 12.7531 61.3028 12.6596 60.7069 12.5966C60.773 12.6897 60.8303 12.7888 60.8781 12.8925C60.7691 12.7991 60.5045 12.6277 60.5045 12.6277C59.8142 12.5507 59.119 12.7218 58.5432 13.1106C58.8545 13.2196 59.7729 13.6401 59.7729 13.6401C59.2748 13.5155 58.7611 13.4221 58.2163 13.3442C57.8918 13.5701 57.6076 13.8492 57.3757 14.1697C57.579 14.203 57.7776 14.2605 57.9673 14.341H57.3291C57.096 14.742 56.9826 15.2014 57.0022 15.6649C57.7074 14.877 58.6205 14.3041 59.6366 14.0121C60.6526 13.72 61.7304 13.7207 62.746 14.0139Z" fill="url(#paint5_linear_4596_10052)"/>
<path d="M66.2952 14.3099C65.9194 13.365 65.4279 12.4704 64.832 11.6465C64.832 11.6465 64.7542 11.3662 64.832 11.6465C64.863 11.9312 64.863 12.2184 64.832 12.5032C64.7509 12.115 64.6364 11.7345 64.4896 11.3661C64.2094 11.0546 63.2754 10.2914 63.2754 10.2914C63.2909 10.3895 63.2909 10.4893 63.2754 10.5874C63.2754 10.4628 63.1042 10.2136 63.1042 10.2136C62.6015 9.82826 61.9933 9.60549 61.3608 9.57499C61.5476 9.80862 62.0613 10.603 62.0613 10.603C61.7188 10.2395 61.3608 9.89688 60.9872 9.57499C60.5895 9.54079 60.1889 9.57769 59.8042 9.68401C59.9628 9.81151 60.0995 9.9641 60.2089 10.1357C60.0523 9.98945 59.8859 9.85415 59.7108 9.73076C59.239 9.89043 58.823 10.1824 58.5122 10.5718L60.3957 11.3817C60.5776 11.1694 60.8234 11.0219 61.0962 10.9612C60.8938 10.9612 60.6136 11.4907 60.6136 11.4907L61.7188 12.2384L62.0146 12.0982L61.9212 12.3785L62.466 12.8614C62.7336 12.7731 63.0104 12.7156 63.291 12.69L62.7773 13.0639C63.4648 13.5542 64.1057 14.1068 64.6919 14.7148C64.8557 14.6496 65.0294 14.6128 65.2056 14.6058L64.9254 14.964C65.5219 15.5411 66.0448 16.1898 66.482 16.8954C66.5784 16.012 66.4774 15.1182 66.1862 14.2787L66.2952 14.3099Z" fill="url(#paint6_linear_4596_10052)"/>
<path opacity="0.5" d="M64.2872 12.3474C65.5027 13.5936 66.2975 15.1895 66.5598 16.9109C66.667 16.035 66.5766 15.1462 66.2952 14.3099C65.9194 13.365 65.4279 12.4704 64.832 11.6465C64.832 11.6465 64.7542 11.3662 64.832 11.6465C64.863 11.9312 64.863 12.2184 64.832 12.5032C64.751 12.115 64.6364 11.7345 64.4896 11.3661C64.2094 11.0546 63.2754 10.2914 63.2754 10.2914C63.2909 10.3895 63.2909 10.4893 63.2754 10.5874C63.2754 10.4628 63.1042 10.2136 63.1042 10.2136C62.6015 9.82826 61.9933 9.60549 61.3608 9.57499C61.5476 9.80862 62.0613 10.603 62.0613 10.603C61.7188 10.2395 61.3608 9.89688 60.9872 9.57499C60.5895 9.54079 60.1889 9.57769 59.8042 9.68401C59.9628 9.81151 60.0995 9.9641 60.2089 10.1357C60.0523 9.98945 59.8859 9.85415 59.7108 9.73076C59.239 9.89043 58.823 10.1824 58.5122 10.5718C59.5437 10.3487 60.615 10.3916 61.6254 10.6964C62.6162 10.993 63.5194 11.5277 64.2561 12.2539L64.2872 12.3474Z" fill="url(#paint7_linear_4596_10052)"/>
<path d="M64.8009 15.4624C63.8287 15.2586 62.8304 15.2113 61.8433 15.3223C62.1064 15.4352 62.3445 15.5994 62.5438 15.8051C62.1886 15.6624 61.8247 15.5428 61.4542 15.4469C60.9094 15.6182 60.3646 15.8207 59.8976 16.0387C59.9898 16.0811 60.074 16.1391 60.1466 16.21C60.0067 16.2195 59.8663 16.2195 59.7263 16.21C59.076 16.4757 58.5296 16.9459 58.1697 17.5495C58.4655 17.5495 59.3995 17.4405 59.3995 17.4405C58.9236 17.5681 58.4557 17.7241 57.9985 17.9078C57.7927 18.2383 57.6453 18.6018 57.5627 18.9824C57.738 18.9172 57.9212 18.8753 58.1075 18.8578L57.5627 19.0915C57.4854 19.5349 57.5451 19.9913 57.7339 20.3998L59.2905 19.294C59.2128 19.0455 59.2128 18.7792 59.2905 18.5308C59.2905 18.7177 59.4773 19.1694 59.4773 19.1694L60.598 18.6086V18.2971L60.7537 18.5152L61.4075 18.266C61.5003 17.9948 61.6094 17.7296 61.7344 17.4716V18.1102C62.475 17.756 63.2461 17.4693 64.0381 17.2536C64.0987 17.0673 64.1823 16.8894 64.2872 16.724V17.1757C65.0309 16.923 65.8064 16.7762 66.591 16.7396C66.1181 16.1481 65.4693 15.7226 64.7386 15.5247L64.8009 15.4624Z" fill="url(#paint8_linear_4596_10052)"/>
<path opacity="0.5" d="M62.0613 16.3035C62.8131 16.0554 63.607 15.9601 64.3962 16.0231C65.1867 16.0881 65.9552 16.3161 66.6532 16.6929C66.1783 16.1003 65.531 15.6703 64.8009 15.4624C63.8287 15.2586 62.8304 15.2113 61.8433 15.3223C62.1064 15.4352 62.3445 15.5994 62.5438 15.8051C62.1886 15.6624 61.8247 15.5428 61.4542 15.4469C60.9094 15.6182 60.3646 15.8207 59.8976 16.0387C59.9898 16.0811 60.074 16.1391 60.1466 16.21C60.0067 16.2195 59.8663 16.2195 59.7263 16.21C59.076 16.4757 58.5296 16.9459 58.1697 17.5495C58.4655 17.5495 59.3995 17.4405 59.3995 17.4405C58.9236 17.5681 58.4557 17.7241 57.9985 17.9078C57.7927 18.2383 57.6453 18.6018 57.5627 18.9824C57.738 18.9172 57.9212 18.8753 58.1075 18.8578L57.5627 19.0915C57.4854 19.5349 57.5451 19.9913 57.7339 20.3998C58.054 19.4206 58.6154 18.5378 59.3662 17.8328C60.117 17.1278 61.0332 16.6233 62.0301 16.3658L62.0613 16.3035Z" fill="url(#paint9_linear_4596_10052)"/>
<path d="M67.2913 16.1633C67.459 15.3732 67.7422 14.6122 68.1319 13.9049C68.1323 14.1416 68.1637 14.3772 68.2253 14.6058C68.2253 14.4033 68.3498 13.609 68.3498 13.609C68.6657 13.2114 69.0035 12.8318 69.3616 12.472C69.346 12.5648 69.346 12.6595 69.3616 12.7523C69.3616 12.6277 69.4862 12.3785 69.4862 12.3785C69.9879 11.9263 70.6095 11.6288 71.2762 11.5219C71.0895 11.7867 70.638 12.6433 70.638 12.6433C70.9553 12.2276 71.2984 11.8322 71.6654 11.4596C72.0997 11.3656 72.5453 11.3341 72.9885 11.3661C72.8353 11.5318 72.6948 11.7089 72.5682 11.8957C72.6928 11.7555 73.113 11.3973 73.113 11.3973C73.6363 11.4953 74.1216 11.7381 74.514 12.0982L72.4593 13.1884C72.2376 13.0179 71.9741 12.9103 71.6965 12.8769C71.9145 12.8769 72.2414 13.313 72.2414 13.313L71.1829 14.1385L70.856 14.0451L70.9961 14.2787L70.4979 14.7615C70.2342 14.7306 69.9678 14.7306 69.7041 14.7615L70.2333 15.0108C69.6699 15.4491 69.1488 15.9392 68.6767 16.4748H68.2253L68.5055 16.7396C68.0829 17.1673 67.7262 17.6555 67.447 18.1881C67.2274 17.5746 67.1684 16.9151 67.2758 16.2723L67.2913 16.1633Z" fill="url(#paint10_linear_4596_10052)"/>
<path opacity="0.5" d="M68.7546 14.45C67.9005 15.4448 67.4456 16.7213 67.4781 18.0323C67.2619 17.4345 67.1977 16.7922 67.2914 16.1633C67.459 15.3732 67.7422 14.6122 68.1319 13.9049C68.1323 14.1416 68.1637 14.3772 68.2253 14.6058C68.2253 14.4033 68.3499 13.609 68.3499 13.609C68.6657 13.2114 69.0035 12.8318 69.3616 12.472C69.346 12.5648 69.346 12.6595 69.3616 12.7523C69.3616 12.6277 69.4862 12.3785 69.4862 12.3785C69.9879 11.9263 70.6095 11.6288 71.2763 11.5219C71.0895 11.7867 70.638 12.6433 70.638 12.6433C70.9553 12.2276 71.2985 11.8322 71.6654 11.4596C72.0998 11.3656 72.5453 11.3341 72.9885 11.3661C72.8353 11.5318 72.6948 11.7089 72.5682 11.8957C72.6928 11.7555 73.1131 11.3973 73.1131 11.3973C73.6363 11.4953 74.1216 11.7381 74.514 12.0982C73.452 12.0276 72.3878 12.198 71.4008 12.5966C70.403 13.0055 69.5133 13.6399 68.8013 14.45H68.7546Z" fill="url(#paint11_linear_4596_10052)"/>
<path d="M67.9141 16.4281C68.3808 15.8463 68.9641 15.3688 69.6264 15.0263C69.5262 15.2482 69.4631 15.4849 69.4396 15.7272C69.5856 15.4587 69.7467 15.1987 69.9221 14.9484C70.337 14.8507 70.7584 14.783 71.183 14.746C71.167 14.8283 71.167 14.9129 71.183 14.9952C71.2476 14.9149 71.3207 14.8418 71.4009 14.7771C71.958 14.7494 72.5077 14.9144 72.9575 15.2444L72.1792 15.696C72.5244 15.587 72.8787 15.5088 73.2377 15.4624C73.5436 15.657 73.8212 15.8928 74.0627 16.1633C73.9216 16.1811 73.7847 16.2233 73.658 16.2879H74.1094C74.3724 16.6396 74.558 17.043 74.6542 17.4716L73.2221 17.1913C73.1476 16.9482 73.02 16.7247 72.8485 16.5371C72.9551 16.73 73.0237 16.9414 73.0509 17.1601H72.1014L71.899 16.9109V17.1601L71.3853 17.238C71.1937 17.0495 70.991 16.8727 70.7783 16.7085L71.1207 17.238C70.5042 17.2656 69.893 17.3649 69.2995 17.5339C69.1734 17.408 69.0322 17.2981 68.8792 17.2068L69.0815 17.6118C68.5283 17.7286 68.0009 17.945 67.5249 18.2504C67.522 17.6214 67.7003 17.0049 68.0386 16.4748L67.9141 16.4281Z" fill="url(#paint12_linear_4596_10052)"/>
<path opacity="0.5" d="M69.9841 15.9141C69.4048 16.0725 68.8714 16.3661 68.4275 16.7708C67.9706 17.1956 67.6326 17.7325 67.4468 18.3283C67.4138 17.6734 67.5881 17.0248 67.9449 16.4748C68.4116 15.8931 68.9949 15.4156 69.6572 15.0731C69.552 15.293 69.4886 15.5307 69.4704 15.7739C69.6164 15.5054 69.7775 15.2454 69.953 14.9952C70.3678 14.8974 70.7892 14.8298 71.2138 14.7927C71.1979 14.875 71.1979 14.9596 71.2138 15.0419C71.2785 14.9617 71.3515 14.8886 71.4317 14.8238C71.9888 14.7961 72.5385 14.9611 72.9883 15.2911L72.21 15.7428C72.5553 15.6337 72.9095 15.5555 73.2685 15.5092C73.5744 15.7037 73.8521 15.9395 74.0935 16.21C73.9524 16.2278 73.8155 16.27 73.6888 16.3346H74.1402C74.4032 16.6864 74.5889 17.0898 74.685 17.5184C74.1171 16.8847 73.3923 16.4119 72.5836 16.1477C71.7693 15.8815 70.8985 15.8385 70.0619 16.0231L69.9841 15.9141Z" fill="url(#paint13_linear_4596_10052)"/>
<path d="M75.4634 34.2773C74.865 34.5873 74.1845 34.7016 73.5177 34.6044C72.851 34.5229 72.2285 34.2279 71.7432 33.7634C71.7432 33.7634 71.7432 17.9545 79.5262 11.958C79.5262 11.958 79.9464 12.1916 79.8997 12.4875C79.9776 12.5031 72.755 20.2129 75.4634 34.2773Z" fill="#B7703B"/>
<path d="M75.0898 18.6398C73.1908 23.0476 70.5134 33.6387 75.4634 34.215C74.865 34.525 74.1845 34.6394 73.5177 34.5421C72.8584 34.478 72.2368 34.2052 71.7432 33.7634C71.7432 33.7634 71.7432 17.9545 79.5262 11.958C79.6597 12.0325 79.7722 12.1396 79.8531 12.2695C79.8531 12.2695 77.5337 13.0171 75.0898 18.6398Z" fill="#994D08"/>
<path d="M75.3233 30.9598C74.729 31.4153 73.9793 31.6184 73.2365 31.5251C72.4937 31.4318 71.8174 31.0497 71.354 30.4614L71.5408 29.4802C71.8564 30.1332 72.4152 30.6364 73.0974 30.8819C73.795 31.127 74.5609 31.0878 75.2299 30.7729L75.3233 30.9598Z" fill="#D18316"/>
<path d="M71.5718 27.1906C72.0378 27.7811 72.7183 28.1632 73.4648 28.2536C74.2113 28.3441 74.9632 28.1355 75.5567 27.6734V26.6766C75.0691 27.2232 74.3879 27.5584 73.6576 27.6111C73.2937 27.6434 72.927 27.6022 72.5794 27.4898C72.2318 27.3774 71.9103 27.1962 71.634 26.957L71.5718 27.1906Z" fill="#D18316"/>
<path d="M75.2769 28.6858C74.6852 29.1644 73.9389 29.4096 73.1789 29.3751C72.419 29.3407 71.6979 29.029 71.1519 28.4989L71.3542 28.0317C71.7919 28.616 72.4401 29.0065 73.1611 29.1199C73.8821 29.2334 74.6188 29.0609 75.2146 28.6391L75.2769 28.6858Z" fill="#B66612"/>
<path d="M72.8794 20.1506C73.3404 20.7424 74.0171 21.1272 74.7611 21.2206C75.5052 21.314 76.2559 21.1085 76.8487 20.649V19.6522C76.3521 20.1978 75.6688 20.5369 74.9341 20.6023C74.1982 20.6511 73.4722 20.4108 72.9105 19.9325L72.8794 20.1506Z" fill="#D18316"/>
<path d="M74.0312 18.1881C74.4922 18.7799 75.1689 19.1647 75.913 19.2581C76.657 19.3515 77.4078 19.146 78.0006 18.6865V17.6741C77.5167 18.2291 76.8339 18.5713 76.0999 18.6267C75.3659 18.682 74.6396 18.4462 74.0779 17.97L74.0312 18.1881Z" fill="#D18316"/>
<path d="M76.4131 22.0508C75.8196 22.5273 75.0722 22.7698 74.3122 22.7325C73.5522 22.6952 72.8321 22.3806 72.2881 21.8483L72.4904 21.3966C72.9304 21.9785 73.5798 22.3659 74.3006 22.4764C75.0214 22.5869 75.7569 22.4119 76.3508 21.9885L76.4131 22.0508Z" fill="#B66612"/>
<path d="M76.7087 19.7456C75.9327 19.9029 75.1261 19.7757 74.436 19.3874C73.7172 19.0213 73.1618 18.3989 72.8794 17.643L73.144 17.2847C73.3887 18.0006 73.8583 18.618 74.4827 19.0447C75.1014 19.4783 75.8449 19.6972 76.5997 19.6677L76.7087 19.7456Z" fill="#B66612"/>
<path d="M75.043 15.369C75.043 15.369 76.5062 18.1725 78.7788 17.1134L78.9501 16.1322C78.9501 16.1322 77.1133 17.5962 75.1364 15.1821L75.043 15.369Z" fill="#D18316"/>
<path d="M77.7672 17.5962C76.9795 17.7286 76.1704 17.5734 75.4876 17.1588C74.8047 16.7443 74.2934 16.098 74.0469 15.3378L74.3115 14.9952C74.5409 15.723 74.9928 16.3604 75.6035 16.8175C76.2171 17.2697 76.9584 17.5151 77.7205 17.5184L77.7672 17.5962Z" fill="#B66612"/>
<path d="M76.3042 13.827C76.5323 14.1206 76.8163 14.3661 77.1397 14.5495C77.4631 14.7328 77.8195 14.8503 78.1884 14.8951C78.5574 14.94 78.9316 14.9114 79.2894 14.811C79.6473 14.7105 79.9818 14.5402 80.2736 14.3099V13.313C79.7847 13.8655 79.0999 14.2055 78.3645 14.2608C77.6291 14.3161 76.9011 14.0822 76.3353 13.609L76.3042 13.827Z" fill="#D18316"/>
<path d="M78.966 15.3845C78.192 15.5523 77.3835 15.4303 76.6933 15.0419C75.9754 14.6673 75.421 14.0405 75.1367 13.2819L75.4014 12.9237C75.6379 13.6453 76.1034 14.2701 76.7271 14.703C77.3507 15.1359 78.0986 15.3533 78.857 15.3223L78.966 15.3845Z" fill="#B66612"/>
<path d="M77.0513 11.7711C77.0513 11.7711 78.5145 14.5746 80.8027 13.5155L80.9583 12.5343C80.9583 12.5343 79.1215 13.9983 77.1447 11.5842L77.0513 11.7711Z" fill="#D18316"/>
<path d="M79.7755 13.9984C78.9877 14.1307 78.1787 13.9755 77.4958 13.561C76.813 13.1464 76.3017 12.5001 76.0552 11.7399L76.3354 11.3973C76.5537 12.1305 77.0078 12.7711 77.6273 13.2196C78.2399 13.6737 78.9819 13.9194 79.7443 13.9205L79.7755 13.9984Z" fill="#B66612"/>
<path d="M72.7085 22.7516C72.7085 22.7516 73.9538 25.7265 76.0085 24.4182L76.1797 23.3124C76.1797 23.3124 74.5141 25.0724 72.8019 22.518L72.7085 22.7516Z" fill="#D18316"/>
<path d="M75.6036 25.2904C75.2949 25.4734 74.9483 25.5832 74.5906 25.6114C74.2329 25.6395 73.8735 25.5854 73.5399 25.4531C73.2063 25.3208 72.9074 25.1138 72.6661 24.848C72.4249 24.5823 72.2476 24.2647 72.1479 23.9198L72.3815 23.4681C72.4708 23.7962 72.6251 24.103 72.8352 24.3703C73.0454 24.6375 73.307 24.8599 73.6046 25.024C73.9023 25.1882 74.2298 25.2908 74.5679 25.3259C74.9059 25.361 75.2476 25.3277 75.5725 25.2281L75.6036 25.2904Z" fill="#B66612"/>
<path d="M71.3853 31.5828C71.9544 32.0865 72.688 32.3645 73.4477 32.3645C74.2075 32.3645 74.9411 32.0865 75.5102 31.5828L75.3857 31.1156C74.8975 31.6606 74.2247 32.0052 73.4973 32.0828C72.77 32.1605 72.0397 31.9657 71.4475 31.5361L71.3853 31.5828Z" fill="#B66612"/>
<path d="M80.8647 10.5251C81.2194 9.19486 81.3819 7.82068 81.3473 6.44437C81.3473 6.44437 81.4718 6.07057 81.3473 6.44437C81.1634 6.78558 80.9271 7.09569 80.6468 7.36331C80.7869 7.09853 81.2072 5.88366 81.2072 5.88366C81.1138 5.27623 80.6001 3.5941 80.6001 3.5941C80.5405 3.71975 80.4617 3.83536 80.3666 3.93676C80.4074 3.74636 80.4386 3.55401 80.46 3.36046C80.1916 2.48373 79.6452 1.7183 78.9034 1.17993V2.89319C78.7944 2.22346 78.6388 1.56931 78.4675 0.915154C78.065 0.606129 77.6121 0.369019 77.1289 0.214272C77.188 0.459619 77.2244 0.709864 77.2378 0.961878C77.2378 0.759399 76.9888 0.167525 76.9888 0.167525C76.4288 0.0364125 75.8422 0.0798961 75.3076 0.292129L76.5685 2.44152C76.8868 2.3358 77.2308 2.3358 77.5491 2.44152C77.3001 2.34807 76.7086 2.64401 76.7086 2.64401L77.3157 4.20153L77.7204 4.31055L77.4246 4.49747L77.6581 5.43197C78.0104 5.56756 78.3449 5.74537 78.6543 5.96152L77.8449 5.86807C78.2208 6.93377 78.5122 8.02742 78.7166 9.13888C78.9488 9.24038 79.164 9.37695 79.3548 9.54383H78.7789C79.0326 10.6043 79.1478 11.6933 79.1213 12.7835C79.9311 12.185 80.5393 11.3537 80.8647 10.4005V10.5251Z" fill="url(#paint14_linear_4596_10052)"/>
<path opacity="0.3" d="M80.0396 6.64684C80.5536 8.79462 80.2249 11.0578 79.1213 12.9704C79.9371 12.3547 80.541 11.5 80.8491 10.5251C81.2046 9.19503 81.3671 7.82073 81.3316 6.44437C81.3316 6.44437 81.4562 6.07057 81.3316 6.44437C81.1478 6.78559 80.9114 7.0957 80.6312 7.36331C80.7713 7.08295 81.1915 5.80578 81.1915 5.80578C81.0981 5.18277 80.5844 3.51622 80.5844 3.51622C80.5212 3.63972 80.4427 3.75483 80.351 3.85887C80.351 3.67197 80.4444 3.28257 80.4444 3.28257C80.1729 2.40735 79.6271 1.64281 78.8877 1.10205V2.81533C78.7632 2.1456 78.6231 1.47586 78.4363 0.821702C78.0338 0.512678 77.5809 0.275543 77.0977 0.120796C77.1618 0.365688 77.2035 0.615948 77.2222 0.868426C77.2222 0.665948 76.9731 0.0740722 76.9731 0.0740722C76.4132 -0.05704 75.8265 -0.0135564 75.292 0.198677C76.5687 0.777058 77.6757 1.67368 78.507 2.80269C79.3383 3.93171 79.866 5.25532 80.0396 6.64684Z" fill="url(#paint15_linear_4596_10052)"/>
<path d="M81.2074 12.3007C82.1558 12.5853 83.0354 13.0625 83.7914 13.7024C83.7914 13.7024 84.0716 13.7024 83.7914 13.7024C83.4757 13.7011 83.163 13.7647 82.873 13.8893C83.2651 13.9235 83.6549 13.9807 84.0404 14.0607C84.3863 14.5613 84.7033 15.0813 84.9899 15.6182C84.877 15.5947 84.7604 15.5947 84.6475 15.6182L85.0366 15.7739C85.3795 16.4794 85.5042 17.2712 85.3947 18.0479C85.1923 17.8454 84.4451 17.2847 84.4451 17.2847C84.7637 17.6852 85.0549 18.1067 85.3168 18.5463C85.2657 19.047 85.1506 19.539 84.9744 20.0104C84.8701 19.8442 84.7385 19.6967 84.5852 19.5743C84.6986 19.7557 84.8025 19.9429 84.8965 20.135C84.6628 20.669 84.3179 21.1469 83.8848 21.5368L83.3711 19.5276C83.6097 19.2855 83.7906 18.9927 83.9003 18.6709C83.7448 18.9146 83.544 19.1261 83.3088 19.294L82.7329 18.0791L82.9041 17.6897L82.6395 17.8454L82.2348 17.2536C82.354 16.8984 82.4425 16.5336 82.4994 16.1633L82.0946 16.8642C81.716 16.096 81.2568 15.3703 80.7249 14.6992C80.8012 14.4725 80.8483 14.237 80.8649 13.9984L80.5225 14.4812C80.0782 13.8161 79.5133 13.2403 78.8569 12.7835C79.5634 12.3615 80.3919 12.1914 81.2074 12.3007Z" fill="url(#paint16_linear_4596_10052)"/>
<path opacity="0.5" d="M82.9351 14.6837C82.492 14.0105 81.8728 13.4718 81.145 13.1261C80.4223 12.7843 79.6223 12.6393 78.8257 12.7056C79.5481 12.2969 80.3887 12.1485 81.2073 12.2851C82.1557 12.5698 83.0353 13.047 83.7913 13.6869C83.7913 13.6869 84.0715 13.6869 83.7913 13.6869C83.4756 13.6855 83.163 13.7491 82.8729 13.8738C83.265 13.9079 83.6548 13.9652 84.0403 14.0451C84.3862 14.5457 84.7032 15.0658 84.9898 15.6026C84.8769 15.5791 84.7603 15.5791 84.6474 15.6026L85.0365 15.7584C85.3794 16.4638 85.5041 17.2556 85.3946 18.0323C85.1922 17.8299 84.445 17.2692 84.445 17.2692C84.7636 17.6696 85.0548 18.0911 85.3167 18.5308C85.2656 19.0314 85.1505 19.5235 84.9743 19.9948C84.87 19.8286 84.7384 19.6812 84.5851 19.5587C84.6985 19.7402 84.8024 19.9273 84.8964 20.1194C84.6627 20.6534 84.3178 21.1313 83.8847 21.5212C84.2808 20.388 84.4013 19.1767 84.2361 17.9876C84.071 16.7985 83.625 15.6659 82.9351 14.6837Z" fill="url(#paint17_linear_4596_10052)"/>
<path d="M80.367 9.91764C81.4924 8.99025 82.7521 8.23925 84.1029 7.69036C84.1029 7.69036 84.4142 7.37886 84.1029 7.69036C83.8269 8.01566 83.6061 8.38397 83.4491 8.78065C83.6515 8.51587 84.6788 7.56576 84.6788 7.56576C85.466 7.40576 86.2609 7.2862 87.0604 7.20753C86.9582 7.32724 86.8695 7.45782 86.7958 7.59692C86.9514 7.47231 87.3095 7.23869 87.3095 7.23869C88.2258 7.1459 89.1456 7.37736 89.909 7.89285C89.5198 8.03303 88.3524 8.59373 88.3524 8.59373C89.0241 8.42505 89.7049 8.29504 90.3915 8.20435C90.831 8.48594 91.216 8.84477 91.5279 9.26348C91.2552 9.30288 90.9885 9.37613 90.734 9.48153C90.9519 9.48153 91.5746 9.38809 91.5746 9.38809C91.8965 9.91683 92.0536 10.5296 92.026 11.1481L89.5354 10.7898C89.5105 10.4378 89.3803 10.1013 89.1618 9.82419C89.3175 10.0267 89.2552 10.7587 89.2552 10.7587L87.5118 10.8366L87.2783 10.4628L87.1849 10.8521L86.2354 10.9923C85.9744 10.7128 85.6935 10.4525 85.3949 10.2136L85.7529 11.0079C84.6044 11.0852 83.4642 11.2572 82.3439 11.5219C82.1636 11.335 81.9595 11.1726 81.7368 11.0391L81.8925 11.6465C80.8139 11.8578 79.7674 12.2086 78.7793 12.69C79.0793 11.6111 79.6783 10.6391 80.5071 9.88648L80.367 9.91764Z" fill="url(#paint18_linear_4596_10052)"/>
<path opacity="0.5" d="M84.3208 9.07656C82.0436 9.55153 80.0211 10.849 78.6392 12.7212C78.9504 11.6435 79.5539 10.6732 80.3826 9.91764C81.5125 8.99673 82.7711 8.24634 84.1184 7.69036C84.1184 7.69036 84.4453 7.37886 84.1184 7.69036C83.8528 8.02009 83.6377 8.38756 83.4802 8.78065C83.6826 8.51587 84.6944 7.56576 84.6944 7.56576C85.317 7.39443 87.076 7.20753 87.076 7.20753C86.984 7.33138 86.9008 7.46149 86.8269 7.59692C86.9826 7.47231 87.3406 7.23869 87.3406 7.23869C88.2569 7.1459 89.1767 7.37736 89.9401 7.89285C89.551 8.03303 88.3057 8.59373 88.3057 8.59373C88.9774 8.42505 89.6582 8.29504 90.3448 8.20435C90.783 8.48197 91.1636 8.8416 91.4656 9.26348C91.1984 9.30503 90.9372 9.37822 90.6873 9.48153C90.9052 9.48153 91.5279 9.38809 91.5279 9.38809C91.8498 9.91683 92.0069 10.5296 91.9793 11.1481C91.0144 10.1346 89.7901 9.40547 88.4397 9.0402C87.0892 8.67493 85.6645 8.6875 84.3208 9.07656Z" fill="url(#paint19_linear_4596_10052)"/>
<path d="M79.526 9.48155C80.0187 8.2139 80.6727 7.0151 81.4718 5.9148C81.4718 5.9148 81.5808 5.54099 81.4718 5.9148C81.4175 6.29707 81.4175 6.6851 81.4718 7.06737C81.4718 6.75587 81.9076 5.50985 81.9076 5.50985C82.4018 5.01577 82.9213 4.54789 83.4643 4.10808C83.448 4.23737 83.448 4.36818 83.4643 4.49746C83.5262 4.32432 83.6044 4.15743 83.6977 3.99904C84.3664 3.4574 85.1891 3.1412 86.0482 3.09568C85.7992 3.40718 85.0987 4.46631 85.0987 4.46631C85.5506 3.98296 86.0342 3.53029 86.5463 3.11127C87.0694 3.06611 87.5963 3.11355 88.1029 3.25144C87.8967 3.42936 87.709 3.62763 87.5425 3.84328C87.7138 3.68753 88.2586 3.31373 88.2586 3.31373C88.8732 3.53231 89.4131 3.92124 89.8152 4.43515L87.3091 5.52541C87.0787 5.24753 86.7692 5.04651 86.4218 4.94914C86.6864 4.94914 87.0444 5.65002 87.0444 5.65002L85.6124 6.64683L85.1921 6.45994L85.3322 6.83375L84.6317 7.47232C84.2688 7.34994 83.8925 7.27151 83.5109 7.2387L84.2114 7.72153C83.2922 8.37635 82.4328 9.11126 81.643 9.91765C81.4207 9.82627 81.1829 9.77868 80.9426 9.77748L81.3161 10.2603C80.4936 11.0193 79.7811 11.8896 79.1991 12.8458C79.054 11.6873 79.171 10.5108 79.5416 9.40367L79.526 9.48155Z" fill="url(#paint20_linear_4596_10052)"/>
<path opacity="0.5" d="M82.2656 6.86488C80.6601 8.52553 79.6055 10.6413 79.2458 12.9237C79.101 11.76 79.2179 10.5786 79.5883 9.46595C80.0845 8.20481 80.7383 7.01161 81.534 5.91479C81.534 5.91479 81.643 5.54099 81.534 5.91479C81.4797 6.29706 81.4797 6.6851 81.534 7.06737C81.534 6.75587 81.9699 5.50985 81.9699 5.50985C82.464 5.01577 82.9836 4.54789 83.5265 4.10808C83.5102 4.23736 83.5102 4.36818 83.5265 4.49746C83.5884 4.32432 83.6666 4.15743 83.76 3.99904C84.4286 3.4574 85.2513 3.1412 86.1104 3.09568C85.8614 3.40718 85.1609 4.46631 85.1609 4.46631C85.6129 3.98296 86.0965 3.53029 86.6086 3.11127C87.1316 3.06611 87.6586 3.11355 88.1652 3.25144C87.959 3.42936 87.7712 3.62763 87.6048 3.84328C87.776 3.68753 88.3208 3.31373 88.3208 3.31373C88.9375 3.52837 89.4784 3.91804 89.8774 4.43515C88.5141 4.14582 87.0995 4.21015 85.768 4.62204C84.4448 5.04438 83.2469 5.7882 82.2812 6.787L82.2656 6.86488Z" fill="url(#paint21_linear_4596_10052)"/>
<path d="M81.5808 11.0235C82.8745 10.7471 84.2039 10.6788 85.519 10.821C85.519 10.821 85.8926 10.6964 85.519 10.821C85.1769 10.9767 84.8657 11.193 84.6006 11.4596C84.8652 11.3194 86.0638 10.9767 86.0638 10.9767C86.7877 11.2109 87.4995 11.4812 88.1964 11.7867C88.0702 11.8385 87.9543 11.9123 87.8539 12.0047C88.0404 11.9903 88.2278 11.9903 88.4143 12.0047C89.2464 12.3631 89.9362 12.9876 90.3756 13.7803C90.002 13.7803 88.7412 13.6246 88.7412 13.6246C89.374 13.7941 89.9975 13.9969 90.6091 14.232C90.8799 14.6813 91.0794 15.17 91.2006 15.6805C90.9571 15.6013 90.7071 15.544 90.4534 15.5092C90.6558 15.5092 91.2006 15.8207 91.2006 15.8207C91.292 16.4125 91.2109 17.0182 90.9671 17.5651L89.0058 16.0854C89.0989 15.7544 89.0989 15.4041 89.0058 15.073C89.0058 15.3378 88.7412 15.9297 88.7412 15.9297L87.2624 15.1821L87.1846 14.7615L86.9822 15.0419L86.1105 14.7304C85.9986 14.374 85.8634 14.0254 85.7058 13.6869V14.5435C84.7013 14.0746 83.6601 13.6891 82.5926 13.3909C82.5102 13.143 82.395 12.9073 82.2501 12.69L82.1723 13.2975C81.1697 12.9487 80.12 12.7544 79.0591 12.7212C79.7003 11.9475 80.5737 11.4013 81.5497 11.1637L81.5808 11.0235Z" fill="url(#paint22_linear_4596_10052)"/>
<path opacity="0.5" d="M85.2234 12.1449C84.2229 11.805 83.1636 11.6725 82.1102 11.7555C81.0567 11.8433 80.0333 12.151 79.106 12.6589C79.7345 11.8857 80.598 11.3389 81.5654 11.1014C82.859 10.825 84.1884 10.7567 85.5036 10.8989C85.5036 10.8989 85.8772 10.7743 85.5036 10.8989C85.1615 11.0545 84.8503 11.2709 84.5852 11.5375C84.8498 11.3973 86.0484 11.0546 86.0484 11.0546C86.7724 11.2888 87.4841 11.5591 88.181 11.8645C88.0548 11.9164 87.9389 11.9902 87.8385 12.0826C88.025 12.0682 88.2124 12.0682 88.3989 12.0826C89.231 12.441 89.9208 13.0655 90.3602 13.8582C89.9866 13.8582 88.8036 13.7024 88.8036 13.7024C89.4263 13.8737 90.0489 14.0762 90.656 14.3098C90.9267 14.7592 91.1263 15.2478 91.2475 15.7584C91.004 15.6792 90.754 15.6218 90.5003 15.587C90.7027 15.587 91.2475 15.8985 91.2475 15.8985C91.3388 16.4904 91.2578 17.096 91.014 17.643C90.5942 16.3405 89.8495 15.1665 88.8503 14.232C87.8639 13.2836 86.6452 12.6121 85.3168 12.2851L85.2234 12.1449Z" fill="url(#paint23_linear_4596_10052)"/>
<path d="M79.5263 10.4005C79.2971 9.34314 78.9142 8.32512 78.39 7.37887C78.4032 7.70548 78.3611 8.03198 78.2654 8.34453C78.2654 8.07975 78.1098 7.02065 78.1098 7.02065C77.814 6.60011 76.7711 5.46312 76.7711 5.46312C76.7861 5.58727 76.7861 5.71278 76.7711 5.83693C76.7304 5.6656 76.6731 5.49865 76.5999 5.33851C75.9703 4.70124 75.161 4.2719 74.2805 4.10808C74.514 4.45073 75.1367 5.6656 75.1367 5.6656C74.9343 5.33852 73.7357 4.10808 73.7357 4.10808C73.1553 3.96809 72.5564 3.92077 71.9612 3.96788C72.1788 4.17918 72.372 4.41431 72.5371 4.66879C72.3815 4.49746 71.8367 4.01461 71.8367 4.01461C71.1366 4.10786 70.4833 4.41836 69.9688 4.90241L72.6928 6.3509C72.9846 6.11959 73.3349 5.97401 73.7046 5.93038C73.4088 5.93038 73.0041 6.52223 73.0041 6.52223L74.4051 7.61251L74.8253 7.50348L74.6541 7.79941L75.3079 8.438C75.6567 8.3728 76.0118 8.34667 76.3664 8.36012L75.6659 8.70278C76.4138 9.28758 77.102 9.94493 77.7206 10.6653C77.9124 10.6078 78.1121 10.5815 78.3121 10.5874L77.9385 10.93C78.4978 11.5073 78.9698 12.1632 79.3395 12.8769C79.6076 12.08 79.6718 11.2286 79.5263 10.4005Z" fill="url(#paint24_linear_4596_10052)"/>
<path opacity="0.5" d="M77.518 8.01746C78.6556 9.34012 79.2604 11.0391 79.2147 12.7835C79.4993 11.9909 79.5848 11.1405 79.4638 10.307C79.234 9.25972 78.8511 8.25206 78.3275 7.31658C78.3407 7.64319 78.2986 7.96968 78.2029 8.28224C78.2029 8.01746 78.0473 6.95833 78.0473 6.95833C77.7515 6.5378 76.7086 5.4008 76.7086 5.4008C76.7236 5.52495 76.7236 5.65047 76.7086 5.77462C76.6679 5.60328 76.6106 5.43636 76.5374 5.27622C75.9078 4.63895 75.0985 4.20958 74.218 4.04576C74.4515 4.38842 75.0742 5.60329 75.0742 5.60329C74.8718 5.27621 73.6732 4.04576 73.6732 4.04576C73.0928 3.90578 72.4939 3.85848 71.8987 3.90559C72.1163 4.11689 72.3095 4.35199 72.4746 4.60647C72.319 4.43515 71.7742 3.95232 71.7742 3.95232C71.0741 4.04557 70.4208 4.35604 69.9062 4.84009C71.3425 4.74658 72.7808 4.98647 74.1091 5.541C75.4468 6.08468 76.6327 6.94519 77.5647 8.04862L77.518 8.01746Z" fill="url(#paint25_linear_4596_10052)"/>
<path d="M78.6389 10.6652C78.0296 9.91157 77.272 9.29129 76.413 8.84294C76.5363 9.1521 76.6149 9.47725 76.6465 9.8086C76.4523 9.44971 76.2393 9.10138 76.0083 8.76506C75.4564 8.62628 74.8942 8.53253 74.3271 8.48472C74.3747 8.59382 74.4061 8.70924 74.4205 8.82738L74.1092 8.51585C73.3574 8.48975 72.6182 8.71439 72.0078 9.15444C72.3709 9.33279 72.7242 9.53037 73.0663 9.74631C72.6065 9.61637 72.1384 9.5175 71.6653 9.45038C71.2653 9.71609 70.9039 10.0358 70.5913 10.4005C70.7771 10.4321 70.9561 10.4953 71.1206 10.5874C70.9649 10.5874 70.5135 10.5874 70.5135 10.5874C70.1736 11.0518 69.935 11.5824 69.813 12.1449L71.7276 11.7711C71.8343 11.4502 72.0036 11.1538 72.2257 10.8989C72.0863 11.1562 71.9916 11.4353 71.9455 11.7244H73.222L73.4866 11.3817V11.7244L74.1871 11.8334C74.4369 11.5835 74.702 11.3494 74.9809 11.1325L74.5451 11.8334C75.3615 11.8705 76.1711 12.0012 76.9578 12.2228C77.1227 12.0512 77.3114 11.9043 77.5182 11.7867L77.2535 12.3162C78.0172 12.4719 78.7455 12.7677 79.4017 13.1884C79.4164 12.3195 79.1667 11.4667 78.6856 10.7431L78.6389 10.6652Z" fill="url(#paint26_linear_4596_10052)"/>
<path opacity="0.5" d="M75.8838 10.0111C76.6685 10.2042 77.3927 10.5903 77.9907 11.1342C78.5887 11.6781 79.0416 12.3628 79.3083 13.1261C79.3384 12.2522 79.1051 11.3894 78.6389 10.6497C78.0281 9.90162 77.2705 9.28673 76.413 8.84294C76.5363 9.1521 76.6149 9.47725 76.6465 9.8086C76.4523 9.44971 76.2393 9.10138 76.0083 8.76506C75.4564 8.62628 74.8942 8.53253 74.3272 8.48472C74.3747 8.59382 74.4061 8.70924 74.4205 8.82738L74.1092 8.51585C73.3574 8.48975 72.6182 8.71439 72.0078 9.15444C72.3709 9.33279 72.7242 9.53037 73.0663 9.74631C72.6065 9.61637 72.1384 9.5175 71.6654 9.45038C71.2653 9.71609 70.9039 10.0358 70.5913 10.4005C70.7771 10.4321 70.9561 10.4953 71.1206 10.5874C70.9649 10.5874 70.5135 10.5874 70.5135 10.5874C70.1736 11.0518 69.935 11.5824 69.813 12.1449C70.5433 11.2805 71.4911 10.6269 72.5583 10.2518C73.6256 9.87665 74.7736 9.79356 75.8838 10.0111Z" fill="url(#paint27_linear_4596_10052)"/>
<defs>
<linearGradient id="paint0_linear_4596_10052" x1="3059.32" y1="8223.41" x2="3078.8" y2="8276.84" gradientUnits="userSpaceOnUse">
<stop stop-color="#005826"/>
<stop offset="0.5" stop-color="#00A651"/>
<stop offset="1" stop-color="#72BF44"/>
</linearGradient>
<linearGradient id="paint1_linear_4596_10052" x1="3058.48" y1="8208.38" x2="3077.37" y2="8260.09" gradientUnits="userSpaceOnUse">
<stop stop-color="#00A651"/>
<stop offset="0.5" stop-color="#8DC63F"/>
<stop offset="1" stop-color="#BBD976"/>
</linearGradient>
<linearGradient id="paint2_linear_4596_10052" x1="1769.22" y1="2791.31" x2="1939.36" y2="2833.8" gradientUnits="userSpaceOnUse">
<stop stop-color="#005826"/>
<stop offset="0.5" stop-color="#00A651"/>
<stop offset="1" stop-color="#72BF44"/>
</linearGradient>
<linearGradient id="paint3_linear_4596_10052" x1="1755.06" y1="2779.6" x2="1891.37" y2="2813.67" gradientUnits="userSpaceOnUse">
<stop stop-color="#005826"/>
<stop offset="0.5" stop-color="#00A651"/>
<stop offset="1" stop-color="#72BF44"/>
</linearGradient>
<linearGradient id="paint4_linear_4596_10052" x1="70477.6" y1="-21288" x2="70721" y2="-21742.8" gradientUnits="userSpaceOnUse">
<stop stop-color="#005826"/>
<stop offset="0.5" stop-color="#00A651"/>
<stop offset="1" stop-color="#72BF44"/>
</linearGradient>
<linearGradient id="paint5_linear_4596_10052" x1="71061.9" y1="-21171.7" x2="71294.4" y2="-21612.2" gradientUnits="userSpaceOnUse">
<stop stop-color="#00A651"/>
<stop offset="0.5" stop-color="#8DC63F"/>
<stop offset="1" stop-color="#BBD976"/>
</linearGradient>
<linearGradient id="paint6_linear_4596_10052" x1="8506.84" y1="14920.1" x2="8572.13" y2="15035.3" gradientUnits="userSpaceOnUse">
<stop stop-color="#00A651"/>
<stop offset="1" stop-color="#8DC63F"/>
</linearGradient>
<linearGradient id="paint7_linear_4596_10052" x1="8475.58" y1="14862.8" x2="8530.01" y2="14958.7" gradientUnits="userSpaceOnUse">
<stop stop-color="#004B24"/>
<stop offset="0.5" stop-color="#00A651"/>
<stop offset="1" stop-color="#72BF44"/>
</linearGradient>
<linearGradient id="paint8_linear_4596_10052" x1="44986.2" y1="-4797" x2="45528.3" y2="-5047.67" gradientUnits="userSpaceOnUse">
<stop stop-color="#00A651"/>
<stop offset="1" stop-color="#8DC63F"/>
</linearGradient>
<linearGradient id="paint9_linear_4596_10052" x1="45161.4" y1="-4778.25" x2="45687.8" y2="-5023.25" gradientUnits="userSpaceOnUse">
<stop stop-color="#00A651"/>
<stop offset="1" stop-color="#8DC63F"/>
</linearGradient>
<linearGradient id="paint10_linear_4596_10052" x1="-4150.46" y1="-55176.2" x2="-4176.88" y2="-55509.5" gradientUnits="userSpaceOnUse">
<stop stop-color="#005826"/>
<stop offset="0.5" stop-color="#00A651"/>
<stop offset="1" stop-color="#72BF44"/>
</linearGradient>
<linearGradient id="paint11_linear_4596_10052" x1="-4113.97" y1="-53793.8" x2="-4138.43" y2="-54108.8" gradientUnits="userSpaceOnUse">
<stop stop-color="#00A651"/>
<stop offset="0.5" stop-color="#8DC63F"/>
<stop offset="1" stop-color="#BBD976"/>
</linearGradient>
<linearGradient id="paint12_linear_4596_10052" x1="-36665.8" y1="-15372.5" x2="-36760.6" y2="-15544.8" gradientUnits="userSpaceOnUse">
<stop stop-color="#00A651"/>
<stop offset="1" stop-color="#8DC63F"/>
</linearGradient>
<linearGradient id="paint13_linear_4596_10052" x1="-37219.6" y1="-15487.9" x2="-37311.9" y2="-15656.6" gradientUnits="userSpaceOnUse">
<stop stop-color="#00A651"/>
<stop offset="1" stop-color="#8DC63F"/>
</linearGradient>
<linearGradient id="paint14_linear_4596_10052" x1="-14661" y1="-84605.6" x2="-15083.8" y2="-85162.4" gradientUnits="userSpaceOnUse">
<stop stop-color="#005826"/>
<stop offset="0.5" stop-color="#00A651"/>
<stop offset="1" stop-color="#72BF44"/>
</linearGradient>
<linearGradient id="paint15_linear_4596_10052" x1="-14606.5" y1="-86214.2" x2="-15025.9" y2="-86755" gradientUnits="userSpaceOnUse">
<stop stop-color="#00A651"/>
<stop offset="0.5" stop-color="#8DC63F"/>
<stop offset="1" stop-color="#BBD976"/>
</linearGradient>
<linearGradient id="paint16_linear_4596_10052" x1="4545.06" y1="1335.89" x2="4142.22" y2="1435.01" gradientUnits="userSpaceOnUse">
<stop stop-color="#005826"/>
<stop offset="0.5" stop-color="#00A651"/>
<stop offset="1" stop-color="#72BF44"/>
</linearGradient>
<linearGradient id="paint17_linear_4596_10052" x1="4597.51" y1="1322.98" x2="4273.76" y2="1402.87" gradientUnits="userSpaceOnUse">
<stop stop-color="#005826"/>
<stop offset="0.5" stop-color="#00A651"/>
<stop offset="1" stop-color="#72BF44"/>
</linearGradient>
<linearGradient id="paint18_linear_4596_10052" x1="-106064" y1="-33154.4" x2="-106629" y2="-34222.8" gradientUnits="userSpaceOnUse">
<stop stop-color="#005826"/>
<stop offset="0.5" stop-color="#00A651"/>
<stop offset="1" stop-color="#72BF44"/>
</linearGradient>
<linearGradient id="paint19_linear_4596_10052" x1="-106888" y1="-33369" x2="-107438" y2="-34411.4" gradientUnits="userSpaceOnUse">
<stop stop-color="#00A651"/>
<stop offset="0.5" stop-color="#8DC63F"/>
<stop offset="1" stop-color="#BBD976"/>
</linearGradient>
<linearGradient id="paint20_linear_4596_10052" x1="-72366.3" y1="-115868" x2="-73052.4" y2="-117193" gradientUnits="userSpaceOnUse">
<stop stop-color="#00A651"/>
<stop offset="1" stop-color="#8DC63F"/>
</linearGradient>
<linearGradient id="paint21_linear_4596_10052" x1="-72407.1" y1="-116702" x2="-72987.4" y2="-117816" gradientUnits="userSpaceOnUse">
<stop stop-color="#004B24"/>
<stop offset="0.5" stop-color="#00A651"/>
<stop offset="1" stop-color="#72BF44"/>
</linearGradient>
<linearGradient id="paint22_linear_4596_10052" x1="-57129.5" y1="-6377.3" x2="-58413.8" y2="-6978.61" gradientUnits="userSpaceOnUse">
<stop stop-color="#00A651"/>
<stop offset="1" stop-color="#8DC63F"/>
</linearGradient>
<linearGradient id="paint23_linear_4596_10052" x1="-56844" y1="-6334.8" x2="-58084" y2="-6915.34" gradientUnits="userSpaceOnUse">
<stop stop-color="#00A651"/>
<stop offset="1" stop-color="#8DC63F"/>
</linearGradient>
<linearGradient id="paint24_linear_4596_10052" x1="10711.1" y1="-99676.5" x2="10771.3" y2="-100448" gradientUnits="userSpaceOnUse">
<stop stop-color="#005826"/>
<stop offset="0.5" stop-color="#00A651"/>
<stop offset="1" stop-color="#72BF44"/>
</linearGradient>
<linearGradient id="paint25_linear_4596_10052" x1="10688.1" y1="-99252.6" x2="10746.2" y2="-99997" gradientUnits="userSpaceOnUse">
<stop stop-color="#00A651"/>
<stop offset="0.5" stop-color="#8DC63F"/>
<stop offset="1" stop-color="#BBD976"/>
</linearGradient>
<linearGradient id="paint26_linear_4596_10052" x1="77531.4" y1="-31786.5" x2="77757.5" y2="-32198.2" gradientUnits="userSpaceOnUse">
<stop stop-color="#00A651"/>
<stop offset="1" stop-color="#8DC63F"/>
</linearGradient>
<linearGradient id="paint27_linear_4596_10052" x1="76412.5" y1="-31207.6" x2="76626.8" y2="-31599.3" gradientUnits="userSpaceOnUse">
<stop stop-color="#00A651"/>
<stop offset="1" stop-color="#8DC63F"/>
</linearGradient>
</defs>
</svg>
