<svg width="154" height="115" viewBox="0 0 154 115" fill="none" xmlns="http://www.w3.org/2000/svg">
<g opacity="0.3">
<path opacity="0.3" d="M47.7642 16.5779L40.2613 16.2664C29.1628 15.8458 14.5151 22.7145 6.01606 39.8785C-9.54997 71.4962 12.2425 85.9812 26.0651 89.5324C39.0472 92.8499 51.8425 96.8683 63.4236 104.049C75.0047 111.229 87.193 117.225 102.012 112.802C105.701 111.634 131.696 106.805 133.502 96.1986C135.059 87.1494 120.271 83.8942 122.839 75.9508C124.863 69.7207 131.369 70.3904 134.389 69.9387C141.269 68.9107 158.33 59.1295 151.512 45.8282C146.749 36.4831 134.156 33.0098 126.248 30.253C122.699 29.0225 119.041 28.1192 115.461 26.9822C102.29 22.755 88.7335 19.8437 74.9892 18.2911C66.0698 17.3255 56.8703 16.9517 47.7642 16.5779Z" fill="#2A81BC"/>
</g>
<path d="M48.138 22.1071L42.1762 21.671C33.3814 21.048 21.5512 26.1255 14.3908 39.5358C1.17521 64.2538 18.1889 76.309 29.0851 79.4864C39.2964 82.4612 49.321 85.9968 58.4115 91.9466C67.5021 97.8963 76.9351 103.036 88.812 99.9055C91.7851 99.0645 112.55 95.9183 114.262 87.5388C115.726 80.3897 104.067 77.4305 106.324 71.1848C108.098 66.2786 113.251 66.995 115.663 66.7146C121.158 66.076 134.965 58.7557 129.953 48.0243C126.42 40.4392 116.504 37.3865 110.293 35.0034C107.507 33.9287 104.627 33.1188 101.81 32.122C91.4764 28.4287 80.8031 25.7679 69.946 24.1786C62.7078 23.1818 55.4229 22.6523 48.138 22.1071Z" fill="#00D8E7"/>
<path d="M53.1345 26.6395L48.4647 26.2034C41.6001 25.5648 32.276 29.3184 26.4232 39.7071C15.6671 58.8336 28.6803 68.5681 37.1638 71.247C45.2156 73.4893 52.8753 76.9564 59.8746 81.5267C66.8326 86.3862 74.1642 90.5293 83.5039 88.2708C85.8388 87.6634 102.183 85.5607 103.615 79.0191C104.876 73.4432 95.8321 70.9356 97.7001 66.0761C99.1788 62.2602 103.179 62.961 105.063 62.743C109.375 62.3224 120.302 56.8244 116.566 48.3514C113.935 42.355 106.246 39.785 101.436 37.8226C99.2722 36.9348 97.0307 36.265 94.8515 35.4239C86.8335 32.3604 78.5329 30.0962 70.0704 28.6643C64.5133 27.7298 58.8161 27.2002 53.1345 26.6395Z" fill="#E2B045"/>
<path d="M57.9287 32.0909L54.2862 31.5146C48.9159 30.6891 41.3975 33.1967 36.3074 41.0622C26.9678 55.5472 36.7433 63.8332 43.281 66.3408C49.5026 68.5007 55.36 71.5939 60.6527 75.5147C65.914 79.6733 71.4711 83.3023 78.9273 81.9472C80.7952 81.589 93.715 80.7324 95.1938 75.7171C96.4546 71.4028 89.4499 68.9886 91.1466 65.2661C92.4853 62.338 95.5985 63.0545 97.0928 63.0078C100.502 62.8831 109.359 59.0983 106.822 52.2608C105.031 47.4169 99.0386 45.0339 95.3961 43.2583C93.7461 42.4639 92.0183 41.8098 90.3372 41.0622C84.1627 38.243 77.7229 36.0465 71.1131 34.505C66.8324 33.4926 62.365 32.8073 57.9287 32.0909Z" fill="#FFEA96"/>
<path d="M75.6087 76.3997C75.4724 76.1432 75.3899 75.8616 75.3662 75.5721C75.3425 75.2826 75.3781 74.9913 75.4709 74.7162C75.5673 74.4484 75.7121 74.2006 75.8981 73.9852C76.094 73.7771 76.3276 73.6081 76.5866 73.4872C76.7924 72.2008 77.4222 71.0204 78.3761 70.1338C79.3299 69.2471 80.5529 68.7051 81.8505 68.594C82.2046 68.498 82.5761 68.4852 82.9361 68.5566C83.2954 68.6204 83.637 68.76 83.9382 68.9662C84.2407 69.1721 84.4944 69.4416 84.6817 69.7559C84.8813 70.0642 85.0038 70.4159 85.039 70.7814C85.039 70.7814 89.0194 69.2929 89.5033 72.622C89.9873 75.9511 89.6552 76.5273 89.6552 76.5273L80.2663 79.0175L75.6087 76.3997Z" fill="#318420"/>
<path d="M82.6278 78.1946C82.6278 78.1946 80.7215 79.1848 80.8601 76.4801C81.0614 75.5507 82.4072 75.6765 82.4072 75.6765C82.4072 75.6765 81.8667 73.6229 85.2508 73.1814C86.0619 72.9531 87.116 70.0185 89.9586 72.7893C90.2796 72.5934 90.6382 72.4669 91.0112 72.4181C91.3848 72.3628 91.7661 72.3927 92.1266 72.5056C92.49 72.6182 92.8237 72.8107 93.1033 73.0688C93.3852 73.3194 93.6108 73.627 93.765 73.9713C95.2141 74.4647 94.9855 73.6532 95.5327 75.6857C96.0798 77.7183 95.671 77.8429 95.671 77.8429L87.5026 80.015C87.5026 80.015 85.9282 79.0777 85.6513 79.6253C85.3744 80.1728 83.1965 80.2686 83.3839 79.3463C83.4086 79.2272 83.416 79.1051 83.4061 78.9838C83.3697 78.8635 83.3113 78.751 83.2338 78.6521C83.1648 78.5466 83.0758 78.4557 82.9719 78.3844C82.8665 78.3144 82.7469 78.2687 82.6217 78.2504L82.6278 78.1946Z" fill="#3E992E"/>
<path d="M72.5012 81.1556C72.099 81.2592 70.5949 82.1458 70.7473 79.434C70.9348 78.5117 72.2806 78.6375 72.2806 78.6375C72.2806 78.6375 71.7473 76.5977 75.1242 76.1423C75.3116 75.22 78.1496 72.8156 79.8254 75.7713C80.1454 75.5683 80.5057 75.4372 80.8814 75.3873C81.2571 75.3374 81.6392 75.3697 82.0013 75.4821C82.3633 75.5946 82.6967 75.7844 82.9782 76.0384C83.2597 76.2924 83.4827 76.6045 83.6318 76.9532C85.0737 77.4328 84.8589 76.6141 85.4133 78.6605C85.9676 80.7069 85.8356 80.284 85.5444 80.8039C85.2531 81.3238 78.1871 82.7478 77.376 82.976C76.5649 83.2043 75.9269 82.4826 75.5247 82.5862C75.2196 83.1133 73.6046 83.5837 73.3683 82.7235C73.0138 81.4334 72.9172 81.0448 72.5012 81.1556Z" fill="#4AA836"/>
<path d="M49.5052 39.72C50.035 39.9965 50.6386 40.0982 51.2297 40.0106C51.8178 39.9166 52.3629 39.6439 52.7909 39.2296C52.7909 39.2296 52.7909 25.3887 45.9108 20.1938C45.9108 20.1938 45.5478 20.3937 45.5841 20.6661C45.6204 20.9386 51.8833 27.4049 49.5052 39.72Z" fill="#B7703B"/>
<path d="M49.832 26.0426C51.4658 29.8934 53.8439 39.1206 49.5053 39.72C50.0351 39.9965 50.6387 40.0982 51.2298 40.0106C51.8179 39.9166 52.363 39.6439 52.791 39.2296C52.791 39.2296 52.791 25.3887 45.911 20.1938C45.7989 20.2605 45.7053 20.3542 45.6387 20.4663C45.6387 20.4663 47.69 21.1202 49.832 26.0426Z" fill="#994D08"/>
<path d="M49.6323 36.8138C49.8929 37.0124 50.1885 37.1603 50.5036 37.2497C50.8202 37.3227 51.1492 37.3227 51.4657 37.2497C51.792 37.2104 52.107 37.1053 52.3916 36.9409C52.67 36.7746 52.916 36.5592 53.1177 36.3051L52.9543 35.4333C52.6551 36.0052 52.1485 36.4406 51.5384 36.6503C50.9437 36.8521 50.2946 36.8196 49.7231 36.5595L49.6323 36.8138Z" fill="#D18316"/>
<path d="M53.0089 33.508C52.6039 34.0275 52.0096 34.3652 51.3562 34.4469C50.7028 34.5286 50.0437 34.3477 49.5234 33.9439V33.072C49.7331 33.3145 49.9886 33.5132 50.2752 33.6565C50.5618 33.7999 50.8739 33.8852 51.1936 33.9076C51.5195 33.9349 51.8475 33.8976 52.159 33.7979C52.4705 33.6982 52.7593 33.5379 53.0089 33.3263V33.508Z" fill="#D18316"/>
<path d="M49.6689 34.8158C50.1846 35.2485 50.8438 35.4718 51.5161 35.4415C52.1884 35.4112 52.8248 35.1296 53.2996 34.6523L53.1362 34.2527C52.7495 34.7644 52.179 35.1054 51.5454 35.2037C50.9119 35.302 50.265 35.1499 49.7416 34.7794L49.6689 34.8158Z" fill="#B66612"/>
<path d="M51.7744 27.3504C51.3698 27.8646 50.7791 28.1987 50.1301 28.2803C49.4812 28.3619 48.8262 28.1845 48.3071 27.7863V26.9144C48.5168 27.1569 48.7722 27.3555 49.0588 27.4989C49.3454 27.6423 49.6575 27.7276 49.9772 27.75C50.3031 27.7773 50.6312 27.74 50.9427 27.6403C51.2542 27.5405 51.543 27.3803 51.7925 27.1687L51.7744 27.3504Z" fill="#D18316"/>
<path d="M50.7578 25.6249C50.5576 25.8802 50.3091 26.0935 50.0265 26.2527C49.7438 26.4119 49.4326 26.5138 49.1107 26.5526C48.7887 26.5914 48.4622 26.5663 48.1499 26.4788C47.8376 26.3913 47.5456 26.2431 47.2905 26.0427V25.1708C47.4975 25.4165 47.7523 25.6172 48.0395 25.7609C48.3266 25.9046 48.64 25.9881 48.9606 26.0064C49.2865 26.0337 49.6146 25.9964 49.9261 25.8967C50.2376 25.7969 50.5264 25.6367 50.7759 25.4251L50.7578 25.6249Z" fill="#D18316"/>
<path d="M48.7065 29.0215C49.2222 29.4542 49.8814 29.6775 50.5537 29.6472C51.226 29.6169 51.8624 29.3353 52.3372 28.858L52.1738 28.4402C51.7903 28.9506 51.223 29.2913 50.5924 29.3896C49.9619 29.488 49.3178 29.3364 48.7973 28.967L48.7065 29.0215Z" fill="#B66612"/>
<path d="M48.416 26.969C49.0934 27.0986 49.7948 26.9827 50.3947 26.6421C50.9963 26.3083 51.4548 25.7655 51.6835 25.1164L51.4476 24.8075C51.2377 25.4345 50.83 25.9764 50.2858 26.3515C49.7567 26.7274 49.1189 26.9188 48.4705 26.8964L48.416 26.969Z" fill="#B66612"/>
<path d="M49.8865 23.1546C49.8865 23.1546 48.5976 25.6248 46.6189 24.6985L46.4556 23.8266C46.4556 23.8266 48.1075 25.1163 49.8138 23.0093L49.8865 23.1546Z" fill="#D18316"/>
<path d="M47.563 25.1163C48.2528 25.2391 48.9637 25.1032 49.5598 24.7348C50.1572 24.3754 50.6075 23.8154 50.8305 23.1546L50.5946 22.8276C50.4024 23.4684 50.0073 24.0293 49.469 24.4261C48.9403 24.8134 48.3085 25.0347 47.6537 25.0618L47.563 25.1163Z" fill="#B66612"/>
<path d="M48.7792 21.8105C48.3747 22.3248 47.784 22.6589 47.135 22.7405C46.4861 22.8221 45.8311 22.6446 45.312 22.2464V21.3746C45.7311 21.86 46.3248 22.1603 46.9639 22.2101C47.6219 22.2633 48.2743 22.0544 48.7792 21.6288V21.8105Z" fill="#D18316"/>
<path d="M46.4375 23.1546C47.1092 23.2927 47.8081 23.1854 48.4076 22.8522C49.007 22.519 49.4673 21.9819 49.705 21.3383L49.469 21.0295C49.2584 21.6559 48.8513 22.1974 48.3084 22.5738C47.7655 22.9501 47.1158 23.1411 46.4557 23.1183L46.4375 23.1546Z" fill="#B66612"/>
<path d="M48.1257 20.0304C48.1257 20.0304 46.8369 22.4825 44.8582 21.5562L44.6948 20.7024C44.6948 20.7024 46.3286 21.9921 48.035 19.8851L48.1257 20.0304Z" fill="#D18316"/>
<path d="M45.7476 21.9739C46.441 22.088 47.1524 21.9515 47.7544 21.5887C48.3565 21.226 48.8098 20.6607 49.0333 19.994L48.7792 19.6852C48.5779 20.3215 48.1847 20.8798 47.6536 21.2836C47.1276 21.6738 46.493 21.8897 45.8383 21.9012L45.7476 21.9739Z" fill="#B66612"/>
<path d="M51.8832 29.6572C51.8832 29.6572 50.794 32.2547 48.9968 31.1103L48.8516 30.1476C48.8516 30.1476 50.322 31.6734 51.8105 29.4574L51.8832 29.6572Z" fill="#D18316"/>
<path d="M49.3779 31.855C49.6481 32.0177 49.9521 32.116 50.2664 32.142C50.5806 32.1681 50.8966 32.1214 51.1898 32.0054C51.4831 31.8894 51.7457 31.7074 51.9572 31.4734C52.1687 31.2394 52.3235 30.9598 52.4095 30.6562L52.2098 30.2566C52.1327 30.5448 51.9983 30.8145 51.8146 31.0495C51.6308 31.2845 51.4016 31.4799 51.1405 31.6241C50.8795 31.7683 50.592 31.8582 50.2954 31.8886C49.9987 31.9189 49.699 31.8889 49.4142 31.8005L49.3779 31.855Z" fill="#B66612"/>
<path d="M53.0085 37.3587C52.5133 37.8138 51.8656 38.0666 51.1932 38.0671C50.5198 38.072 49.8702 37.8185 49.3779 37.3587L49.4868 36.9409C49.91 37.424 50.5001 37.729 51.1388 37.7946C51.7841 37.8675 52.4331 37.6922 52.9541 37.3042L53.0085 37.3587Z" fill="#B66612"/>
<path d="M44.7856 18.9224C44.4595 17.7403 44.3187 16.5148 44.368 15.2896C44.5129 15.5983 44.7164 15.8759 44.9671 16.1069C44.7747 15.6865 44.605 15.256 44.4588 14.8173C44.4588 14.2724 44.9852 12.8193 44.9852 12.8193C45.0479 12.9232 45.121 13.0206 45.2031 13.1099C45.1865 12.9442 45.1561 12.7802 45.1123 12.6195C45.3537 11.851 45.8299 11.1776 46.4738 10.6941V12.2017C46.5653 11.5878 46.6987 10.981 46.8732 10.3853C47.2276 10.1124 47.6269 9.90346 48.0531 9.76778C47.9978 9.99444 47.9613 10.2253 47.9442 10.458C47.9874 10.2138 48.0606 9.97586 48.162 9.74959C48.6521 9.63974 49.1639 9.67766 49.6325 9.85857L48.5251 11.675C48.2589 11.5936 47.9744 11.5936 47.7082 11.675C47.926 11.675 48.4344 11.8385 48.4344 11.8385L47.9079 13.2553L47.5448 13.3461L47.8172 13.5095L47.5993 14.3269C47.294 14.4552 47.0022 14.6134 46.728 14.7991H47.4359C47.1073 15.733 46.8583 16.6931 46.6916 17.6691C46.4859 17.7514 46.2956 17.8681 46.1289 18.0142H46.619C46.4039 18.9489 46.3063 19.9069 46.3286 20.8659C45.6173 20.3394 45.0799 19.6119 44.7856 18.777V18.9224Z" fill="url(#paint0_linear_4596_9806)"/>
<path opacity="0.3" d="M45.4754 15.5439C45.0579 17.3986 45.3493 19.3425 46.2922 20.993C45.5831 20.4493 45.0573 19.7013 44.7856 18.8497C44.4595 17.6677 44.3187 16.4422 44.368 15.2169C44.5129 15.5256 44.7164 15.8033 44.9671 16.0343C44.7747 15.6139 44.605 15.1833 44.4588 14.7447C44.4588 14.1998 44.9852 12.7467 44.9852 12.7467C45.0479 12.8506 45.121 12.9479 45.2031 13.0373C45.1865 12.8715 45.1561 12.7075 45.1123 12.5469C45.3537 11.7784 45.8299 11.105 46.4738 10.6215V12.1291C46.5653 11.5152 46.6987 10.9083 46.8732 10.3127C47.2276 10.0398 47.6269 9.83081 48.0531 9.69512C47.9978 9.92178 47.9613 10.1527 47.9442 10.3854C47.9874 10.1412 48.0606 9.90326 48.162 9.67699C48.6521 9.56714 49.1639 9.60505 49.6325 9.78597C48.529 10.2857 47.5679 11.0537 46.8369 12.0201C46.1188 13.0003 45.6513 14.1415 45.4754 15.3441V15.5439Z" fill="url(#paint1_linear_4596_9806)"/>
<path d="M43.4602 19.0677C42.6317 19.308 41.8642 19.723 41.2093 20.2847C41.4896 20.2861 41.7669 20.3416 42.0262 20.4482C41.6839 20.4685 41.3439 20.5171 41.0096 20.5935C40.7035 21.0073 40.4304 21.4446 40.1927 21.9013H40.4832L40.1383 22.0466C39.8282 22.6636 39.7202 23.3627 39.8296 24.0446C40.0112 23.8629 40.6465 23.3725 40.6465 23.3725C40.3599 23.7161 40.099 24.0803 39.866 24.4624C39.9236 24.8959 40.027 25.3222 40.1745 25.7339C40.2752 25.5944 40.3909 25.4665 40.5195 25.3524C40.4168 25.509 40.3258 25.6729 40.2472 25.8428C40.4511 26.3035 40.755 26.713 41.1367 27.0417L41.5724 25.2253C41.3708 25.0114 41.2162 24.7577 41.1185 24.4805C41.2485 24.6954 41.4216 24.8809 41.6268 25.0254L42.1351 23.972L41.9717 23.6268L42.2077 23.7721L42.5708 23.2454C42.4665 22.9313 42.3876 22.6094 42.3348 22.2827L42.6978 22.9366C43.0447 22.2896 43.4584 21.6808 43.9322 21.1202C43.8583 20.9165 43.8214 20.7012 43.8233 20.4845L44.1138 20.9023C44.5068 20.3244 44.9983 19.8202 45.566 19.4128C44.9345 19.0684 44.2075 18.9407 43.4966 19.0495L43.4602 19.0677Z" fill="url(#paint2_linear_4596_9806)"/>
<path opacity="0.5" d="M41.8993 21.1203C42.3002 20.5427 42.8445 20.0794 43.4786 19.7762C44.11 19.4692 44.8121 19.3375 45.5118 19.3947C44.8737 19.0501 44.141 18.9226 43.4242 19.0315C42.5901 19.2715 41.8166 19.6863 41.155 20.2484C41.4356 20.2464 41.7137 20.302 41.9719 20.4119C41.6358 20.4335 41.3019 20.4821 40.9735 20.5572C40.6674 20.9711 40.3943 21.4083 40.1566 21.865H40.4289L40.1022 22.0103C39.795 22.6283 39.6811 23.3246 39.7754 24.0083L40.5923 23.3363C40.3176 23.6847 40.063 24.0486 39.8298 24.4261C39.8874 24.8597 39.9909 25.2858 40.1385 25.6975C40.2285 25.5499 40.3455 25.4205 40.4834 25.3161C40.3766 25.4735 40.2796 25.6372 40.1929 25.8065C40.4086 26.2651 40.7177 26.6735 41.1006 27.0053C40.757 26.0209 40.6452 24.9704 40.7738 23.9356C40.9246 22.9223 41.31 21.9582 41.8993 21.1203Z" fill="url(#paint3_linear_4596_9806)"/>
<path d="M44.1683 16.9789C43.1748 16.1773 42.0751 15.5172 40.9007 15.0172C41.1387 15.3091 41.3343 15.6332 41.4816 15.9799C41.3001 15.7438 40.3924 14.9264 40.3924 14.9264C39.7086 14.782 39.0179 14.6729 38.323 14.5995C38.4001 14.708 38.4669 14.8236 38.5226 14.9446C38.3956 14.8356 38.087 14.6358 38.087 14.6358C37.2819 14.5459 36.4712 14.7455 35.7997 15.1988C36.1627 15.326 37.2338 15.8164 37.2338 15.8164C36.6529 15.6711 36.0538 15.5622 35.4185 15.4713C35.04 15.7348 34.7086 16.0603 34.4382 16.434C34.6753 16.4729 34.9069 16.5399 35.128 16.6338H34.3837C34.112 17.1015 33.9797 17.6372 34.0025 18.1777L36.1628 17.8508C36.1857 17.5514 36.2998 17.2661 36.4895 17.0334C36.3443 17.215 36.4895 17.8508 36.4895 17.8508H37.9962L38.2141 17.5238V17.8508L39.0309 17.9961C39.2456 17.7388 39.4893 17.5072 39.7571 17.3058L39.4485 17.9961C40.4515 18.066 41.4473 18.2179 42.4256 18.4502C42.5837 18.2902 42.7604 18.15 42.952 18.0324L42.825 18.5592C43.7936 18.7341 44.7339 19.0396 45.6205 19.4673C45.3677 18.5145 44.8518 17.6521 44.1319 16.9789H44.1683Z" fill="url(#paint4_linear_4596_9806)"/>
<path opacity="0.5" d="M40.701 16.2524C42.7003 16.6587 44.4785 17.791 45.6931 19.431C45.424 18.4871 44.8957 17.6376 44.1683 16.9789C43.1748 16.1773 42.0751 15.5172 40.9007 15.0172C41.1387 15.3091 41.3343 15.6332 41.4816 15.9799C41.3001 15.7438 40.3924 14.9264 40.3924 14.9264C39.7086 14.782 39.0179 14.6729 38.323 14.5995C38.4001 14.708 38.4669 14.8236 38.5226 14.9446C38.3956 14.8356 38.087 14.6358 38.087 14.6358C37.2819 14.5459 36.4711 14.7455 35.7997 15.1988C36.1627 15.326 37.2338 15.8164 37.2338 15.8164C36.6529 15.6711 36.0538 15.5622 35.4185 15.4713C35.04 15.7348 34.7086 16.0603 34.4382 16.434C34.6753 16.4729 34.9069 16.5399 35.128 16.6338H34.3837C34.112 17.1015 33.9797 17.6372 34.0025 18.1777C34.825 17.2589 35.8899 16.5907 37.0748 16.2502C38.2597 15.9096 39.5165 15.9104 40.701 16.2524Z" fill="url(#paint5_linear_4596_9806)"/>
<path d="M44.8402 16.5975C44.4019 15.4956 43.8287 14.4523 43.1338 13.4915C43.1338 13.4915 43.0431 13.1645 43.1338 13.4915C43.17 13.8235 43.17 14.1585 43.1338 14.4905C43.0393 14.0378 42.9057 13.5941 42.7345 13.1645C42.4077 12.8012 41.3185 11.9112 41.3185 11.9112C41.3365 12.0255 41.3365 12.142 41.3185 12.2563C41.3185 12.111 41.1189 11.8204 41.1189 11.8204C40.5326 11.3711 39.8233 11.1113 39.0857 11.0757C39.3035 11.3482 39.9026 12.2745 39.9026 12.2745C39.5032 11.8628 39.0857 11.4632 38.65 11.0757C38.1862 11.0358 37.719 11.0789 37.2704 11.2029C37.4553 11.3516 37.6147 11.5294 37.7424 11.7296C37.5598 11.559 37.3657 11.4012 37.1614 11.2573C36.6112 11.4436 36.1261 11.784 35.7637 12.2382L37.9602 13.1827C38.1723 12.9351 38.459 12.763 38.7771 12.6922C38.5411 12.6922 38.2144 13.3099 38.2144 13.3099L39.5032 14.1817L39.8481 14.0182L39.7392 14.3452L40.3746 14.9082C40.6866 14.8052 41.0094 14.7382 41.3367 14.7085L40.7376 15.1444C41.5394 15.7162 42.2869 16.3607 42.9705 17.0697C43.1615 16.9937 43.364 16.9508 43.5695 16.9426L43.2427 17.3604C43.9384 18.0333 44.5481 18.7899 45.0581 19.6127C45.1705 18.5825 45.0527 17.5402 44.7131 16.5612L44.8402 16.5975Z" fill="url(#paint6_linear_4596_9806)"/>
<path opacity="0.5" d="M42.4985 14.3089C43.916 15.7622 44.8429 17.6233 45.1489 19.6309C45.2739 18.6094 45.1684 17.5729 44.8402 16.5975C44.4019 15.4956 43.8287 14.4523 43.1338 13.4915C43.1338 13.4915 43.0431 13.1645 43.1338 13.4915C43.17 13.8235 43.17 14.1585 43.1338 14.4905C43.0393 14.0378 42.9057 13.5941 42.7345 13.1645C42.4077 12.8013 41.3185 11.9112 41.3185 11.9112C41.3365 12.0255 41.3365 12.142 41.3185 12.2563C41.3185 12.111 41.1189 11.8204 41.1189 11.8204C40.5326 11.3711 39.8233 11.1113 39.0857 11.0757C39.3035 11.3482 39.9026 12.2745 39.9026 12.2745C39.5032 11.8628 39.0857 11.4632 38.65 11.0757C38.1862 11.0358 37.7191 11.0789 37.2704 11.2029C37.4553 11.3516 37.6147 11.5294 37.7424 11.7296C37.5598 11.559 37.3657 11.4012 37.1614 11.2573C36.6112 11.4436 36.1261 11.784 35.7637 12.2382C36.9666 11.9779 38.216 12.028 39.3943 12.3835C40.5498 12.7293 41.6031 13.353 42.4622 14.1999L42.4985 14.3089Z" fill="url(#paint7_linear_4596_9806)"/>
<path d="M43.0973 17.9416C41.9636 17.7039 40.7993 17.6487 39.6482 17.7781C39.9551 17.9099 40.2327 18.1012 40.4651 18.3412C40.0509 18.1748 39.6265 18.0352 39.1944 17.9234C38.559 18.1232 37.9237 18.3593 37.3791 18.6136C37.4866 18.6631 37.5848 18.7307 37.6695 18.8134C37.5063 18.8245 37.3425 18.8245 37.1794 18.8134C36.4545 19.1396 35.851 19.6862 35.4548 20.3755C35.7997 20.3755 36.8889 20.2484 36.8889 20.2484C36.3339 20.3971 35.7883 20.5791 35.2551 20.7933C35.0151 21.1788 34.8432 21.6028 34.7468 22.0466C34.9513 21.9705 35.165 21.9216 35.3822 21.9013L34.7468 22.1737C34.6567 22.6908 34.7263 23.2231 34.9465 23.6995L36.7618 22.4099C36.6712 22.1201 36.6712 21.8096 36.7618 21.5198C36.7618 21.7378 36.9797 22.2646 36.9797 22.2646L38.2867 21.6106V21.2474L38.4682 21.5017L39.2307 21.211C39.3389 20.8948 39.4662 20.5855 39.6119 20.2847V21.0294C40.4756 20.6164 41.3748 20.282 42.2985 20.0304C42.3691 19.8132 42.4667 19.6057 42.589 19.4128V19.9396C43.4563 19.6448 44.3607 19.4736 45.2756 19.431C44.7242 18.7412 43.9676 18.245 43.1154 18.0142L43.0973 17.9416Z" fill="url(#paint8_linear_4596_9806)"/>
<path opacity="0.5" d="M39.9023 18.9224C40.7792 18.6331 41.7049 18.522 42.6253 18.5954C43.5472 18.6711 44.4434 18.9371 45.2575 19.3765C44.7037 18.6855 43.9487 18.184 43.0973 17.9416C41.9636 17.7039 40.7993 17.6487 39.6482 17.7781C39.9551 17.9099 40.2327 18.1012 40.4651 18.3412C40.0509 18.1748 39.6265 18.0352 39.1944 17.9234C38.559 18.1232 37.9237 18.3593 37.3791 18.6136C37.4866 18.6631 37.5848 18.7307 37.6695 18.8134C37.5063 18.8245 37.3425 18.8245 37.1794 18.8134C36.4545 19.1396 35.851 19.6862 35.4548 20.3755C35.7997 20.3755 36.8889 20.2484 36.8889 20.2484C36.3339 20.3971 35.7883 20.5791 35.2551 20.7933C35.0151 21.1788 34.8432 21.6028 34.7468 22.0466C34.9513 21.9705 35.165 21.9216 35.3822 21.9013L34.7468 22.1737C34.6567 22.6908 34.7263 23.2231 34.9465 23.6995C35.3198 22.5576 35.9745 21.5281 36.8501 20.7059C37.7257 19.8837 38.7941 19.2953 39.9568 18.995L39.9023 18.9224Z" fill="url(#paint9_linear_4596_9806)"/>
<path d="M46.0019 18.7589C46.1973 17.8375 46.5276 16.95 46.9821 16.1251C46.9826 16.4012 47.0192 16.676 47.091 16.9425C47.091 16.7064 47.2363 15.78 47.2363 15.78C47.6046 15.3163 47.9985 14.8736 48.4162 14.454C48.3979 14.5622 48.3979 14.6728 48.4162 14.781C48.4162 14.6357 48.5614 14.345 48.5614 14.345C49.1465 13.8176 49.8715 13.4707 50.649 13.346C50.4312 13.6548 49.9048 14.6538 49.9048 14.6538C50.2748 14.169 50.6749 13.7079 51.1029 13.2734C51.6094 13.1638 52.1289 13.1271 52.6458 13.1644C52.4672 13.3576 52.3033 13.564 52.1557 13.7819C52.301 13.6185 52.7911 13.2007 52.7911 13.2007C53.4013 13.3151 53.9673 13.5982 54.4249 14.0181L52.0286 15.2896C51.7701 15.0908 51.4629 14.9652 51.1392 14.9263C51.3933 14.9263 51.7745 15.4349 51.7745 15.4349L50.5401 16.3976L50.1589 16.2886L50.3222 16.561L49.7414 17.1241C49.4338 17.088 49.1231 17.088 48.8156 17.1241L49.4328 17.4147C48.7757 17.9259 48.1679 18.4975 47.6175 19.1221H47.091L47.4178 19.431C46.925 19.9298 46.509 20.4991 46.1833 21.1202C45.9272 20.4047 45.8585 19.6356 45.9837 18.886L46.0019 18.7589Z" fill="url(#paint10_linear_4596_9806)"/>
<path opacity="0.5" d="M47.7083 16.7609C46.7122 17.921 46.1818 19.4096 46.2198 20.9385C45.9675 20.2413 45.8927 19.4923 46.0019 18.7589C46.1974 17.8375 46.5277 16.95 46.9822 16.1251C46.9826 16.4012 47.0192 16.676 47.0911 16.9425C47.0911 16.7064 47.2363 15.78 47.2363 15.78C47.6046 15.3163 47.9986 14.8737 48.4163 14.454C48.398 14.5622 48.398 14.6728 48.4163 14.781C48.4163 14.6357 48.5615 14.345 48.5615 14.345C49.1465 13.8176 49.8716 13.4707 50.6491 13.346C50.4313 13.6548 49.9048 14.6538 49.9048 14.6538C50.2748 14.169 50.675 13.7079 51.1029 13.2734C51.6095 13.1638 52.129 13.1271 52.6459 13.1644C52.4672 13.3576 52.3034 13.564 52.1558 13.7819C52.301 13.6185 52.7912 13.2007 52.7912 13.2007C53.4014 13.3151 53.9674 13.5982 54.4249 14.0181C53.1864 13.9358 51.9453 14.1345 50.7943 14.5993C49.6307 15.0762 48.5931 15.816 47.7627 16.7609H47.7083Z" fill="url(#paint11_linear_4596_9806)"/>
<path d="M46.7278 19.0678C47.272 18.3893 47.9523 17.8325 48.7247 17.433C48.6079 17.6918 48.5343 17.9679 48.5068 18.2504C48.677 17.9373 48.8649 17.6341 49.0695 17.3422C49.5533 17.2282 50.0448 17.1493 50.54 17.1061C50.5214 17.2021 50.5214 17.3008 50.54 17.3967C50.6154 17.3032 50.7006 17.2179 50.7941 17.1424C51.4438 17.11 52.0848 17.3024 52.6094 17.6873L51.7017 18.2141C52.1043 18.0869 52.5174 17.9957 52.9361 17.9416C53.2929 18.1685 53.6167 18.4436 53.8982 18.759C53.7337 18.7798 53.5741 18.8289 53.4263 18.9043H53.9527C54.2594 19.3145 54.4759 19.785 54.5881 20.2848L52.918 19.9578C52.8312 19.6743 52.6823 19.4137 52.4823 19.1949C52.6065 19.4199 52.6866 19.6665 52.7183 19.9215H51.611L51.375 19.6309V19.9215L50.7759 20.0123C50.5525 19.7925 50.3161 19.5862 50.068 19.3947L50.4673 20.0123C49.7484 20.0445 49.0356 20.1603 48.3434 20.3574C48.1963 20.2105 48.0317 20.0824 47.8533 19.976L48.0893 20.4482C47.4441 20.5845 46.829 20.8368 46.274 21.193C46.2705 20.4595 46.4785 19.7405 46.873 19.1223L46.7278 19.0678Z" fill="url(#paint12_linear_4596_9806)"/>
<path opacity="0.5" d="M49.1423 18.4683C48.4668 18.653 47.8447 18.9954 47.327 19.4673C46.7942 19.9627 46.3999 20.5889 46.1833 21.2837C46.1448 20.52 46.3481 19.7635 46.7642 19.1222C47.3085 18.4437 47.9887 17.8869 48.7611 17.4874C48.6384 17.744 48.5645 18.0212 48.5433 18.3048C48.7135 17.9917 48.9014 17.6885 49.106 17.3966C49.5898 17.2826 50.0812 17.2037 50.5764 17.1605C50.5578 17.2565 50.5578 17.3551 50.5764 17.4511C50.6518 17.3575 50.737 17.2723 50.8305 17.1968C51.4802 17.1644 52.1212 17.3569 52.6458 17.7418L51.7382 18.2685C52.1408 18.1413 52.5539 18.0501 52.9726 17.996C53.3294 18.2229 53.6532 18.498 53.9348 18.8134C53.7702 18.8342 53.6105 18.8833 53.4628 18.9587H53.9892C54.2959 19.3689 54.5124 19.8394 54.6246 20.3392C53.9622 19.6002 53.117 19.0489 52.1739 18.7407C51.2242 18.4303 50.2087 18.3801 49.2331 18.5954L49.1423 18.4683Z" fill="url(#paint13_linear_4596_9806)"/>
<path d="M55.532 39.8834C54.8341 40.2449 54.0405 40.3783 53.2628 40.2649C52.4853 40.1699 51.7594 39.8258 51.1934 39.2841C51.1934 39.2841 51.1934 20.8477 60.2699 13.8546C60.2699 13.8546 60.76 14.1271 60.7056 14.4722C60.7963 14.4904 52.3733 23.4815 55.532 39.8834Z" fill="#B7703B"/>
<path d="M55.0963 21.647C52.8816 26.7873 49.7593 39.1388 55.532 39.8108C54.8341 40.1723 54.0405 40.3056 53.2628 40.1922C52.494 40.1175 51.7691 39.7994 51.1934 39.2841C51.1934 39.2841 51.1934 20.8477 60.2699 13.8546C60.4257 13.9415 60.5568 14.0665 60.6511 14.2179C60.6511 14.2179 57.9463 15.0898 55.0963 21.647Z" fill="#994D08"/>
<path d="M55.3688 36.0146C54.6756 36.5458 53.8014 36.7827 52.9351 36.6739C52.0689 36.5651 51.2802 36.1195 50.7397 35.4334L50.9576 34.289C51.3256 35.0506 51.9773 35.6375 52.7729 35.9238C53.5864 36.2095 54.4796 36.1639 55.2598 35.7966L55.3688 36.0146Z" fill="#D18316"/>
<path d="M50.9937 31.6189C51.5372 32.3074 52.3307 32.753 53.2012 32.8585C54.0718 32.964 54.9488 32.7208 55.6408 32.1819V31.0195C55.0722 31.6569 54.2779 32.0477 53.4262 32.1093C53.0018 32.1469 52.5741 32.0989 52.1687 31.9678C51.7633 31.8367 51.3884 31.6254 51.0662 31.3464L50.9937 31.6189Z" fill="#D18316"/>
<path d="M55.314 33.3627C54.624 33.9207 53.7537 34.2067 52.8674 34.1665C51.9811 34.1264 51.1402 33.7629 50.5034 33.1447L50.7394 32.5998C51.2498 33.2813 52.0058 33.7366 52.8466 33.8689C53.6874 34.0012 54.5466 33.8 55.2414 33.3082L55.314 33.3627Z" fill="#B66612"/>
<path d="M52.519 23.4089C53.0567 24.0991 53.8458 24.5478 54.7135 24.6567C55.5812 24.7657 56.4567 24.526 57.1481 23.9901V22.8276C56.5689 23.464 55.772 23.8594 54.9152 23.9356C54.057 23.9926 53.2104 23.7124 52.5553 23.1546L52.519 23.4089Z" fill="#D18316"/>
<path d="M53.8623 21.1202C54.3999 21.8104 55.189 22.2592 56.0568 22.3681C56.9245 22.4771 57.7999 22.2373 58.4913 21.7015V20.5209C57.927 21.1681 57.1308 21.5671 56.2748 21.6317C55.4187 21.6963 54.5717 21.4212 53.9168 20.8659L53.8623 21.1202Z" fill="#D18316"/>
<path d="M56.6397 25.6248C55.9475 26.1805 55.0759 26.4633 54.1896 26.4198C53.3033 26.3763 52.4636 26.0095 51.8291 25.3887L52.0651 24.8619C52.5782 25.5406 53.3354 25.9923 54.1761 26.1212C55.0167 26.25 55.8744 26.0459 56.567 25.5522L56.6397 25.6248Z" fill="#B66612"/>
<path d="M56.9847 22.9366C56.0798 23.1199 55.1391 22.9716 54.3344 22.5188C53.4961 22.0919 52.8484 21.366 52.519 20.4845L52.8276 20.0667C53.1129 20.9016 53.6606 21.6216 54.3888 22.1192C55.1103 22.6248 55.9774 22.8801 56.8576 22.8458L56.9847 22.9366Z" fill="#B66612"/>
<path d="M55.042 17.8326C55.042 17.8326 56.7484 21.1021 59.3987 19.8669L59.5984 18.7226C59.5984 18.7226 57.4563 20.43 55.1509 17.6146L55.042 17.8326Z" fill="#D18316"/>
<path d="M58.2189 20.43C57.3003 20.5844 56.3568 20.4034 55.5604 19.9199C54.7641 19.4365 54.1678 18.6828 53.8804 17.7963L54.1889 17.3967C54.4564 18.2454 54.9835 18.9887 55.6957 19.5218C56.4113 20.0492 57.2758 20.3354 58.1645 20.3392L58.2189 20.43Z" fill="#B66612"/>
<path d="M56.5127 16.0344C56.7787 16.3768 57.1099 16.6631 57.487 16.8769C57.8641 17.0906 58.2798 17.2277 58.7101 17.28C59.1404 17.3324 59.5767 17.299 59.9941 17.1818C60.4114 17.0647 60.8015 16.8661 61.1418 16.5975V15.435C60.5717 16.0793 59.773 16.4758 58.9154 16.5403C58.0578 16.6047 57.2089 16.332 56.549 15.7801L56.5127 16.0344Z" fill="#D18316"/>
<path d="M59.6166 17.8508C58.714 18.0463 57.7711 17.9042 56.9662 17.4512C56.1631 16.9971 55.5508 16.2683 55.2417 15.3986L55.5503 14.9808C55.8262 15.8225 56.369 16.551 57.0963 17.0559C57.8237 17.5607 58.6958 17.8143 59.5802 17.7781L59.6166 17.8508Z" fill="#B66612"/>
<path d="M57.3838 13.6367C57.3838 13.6367 59.0902 16.9062 61.7587 15.671L61.9403 14.5267C61.9403 14.5267 59.7982 16.2341 57.4927 13.4187L57.3838 13.6367Z" fill="#D18316"/>
<path d="M60.5603 16.2341C59.6417 16.3885 58.6982 16.2075 57.9018 15.724C57.1054 15.2406 56.5092 14.4869 56.2217 13.6003L56.5485 13.2008C56.8031 14.0559 57.3327 14.8029 58.0552 15.3259C58.7696 15.8556 59.6349 16.1421 60.524 16.1433L60.5603 16.2341Z" fill="#B66612"/>
<path d="M52.3188 26.4422C52.3188 26.4422 53.7711 29.9115 56.1673 28.3857L56.367 27.0961C56.367 27.0961 54.4246 29.1486 52.4278 26.1698L52.3188 26.4422Z" fill="#D18316"/>
<path d="M55.6955 29.4029C55.3354 29.6162 54.9313 29.7443 54.5141 29.7772C54.097 29.81 53.6777 29.7469 53.2887 29.5926C52.8997 29.4383 52.5511 29.1969 52.2698 28.887C51.9884 28.577 51.7817 28.2067 51.6655 27.8045L51.9378 27.2777C52.1496 28.0301 52.6502 28.6682 53.3304 29.0527C54.0105 29.4372 54.8151 29.5369 55.5684 29.3302L55.6955 29.4029Z" fill="#B66612"/>
<path d="M50.7759 36.7412C51.4396 37.3285 52.2951 37.6527 53.1812 37.6527C54.0673 37.6527 54.9228 37.3285 55.5865 36.7412L55.4412 36.1962C54.8718 36.8318 54.0872 37.2337 53.239 37.3242C52.3908 37.4148 51.5391 37.1877 50.8485 36.6867L50.7759 36.7412Z" fill="#B66612"/>
<path d="M61.8312 12.1836C62.2448 10.6323 62.4344 9.02969 62.394 7.42463C62.394 7.42463 62.5392 6.9887 62.394 7.42463C62.1796 7.82256 61.9039 8.18421 61.5771 8.49629C61.7405 8.18751 62.2306 6.77076 62.2306 6.77076C62.1216 6.06237 61.5226 4.10067 61.5226 4.10067C61.4531 4.24721 61.3613 4.38203 61.2503 4.50028C61.298 4.27824 61.3343 4.05394 61.3593 3.82822C61.0463 2.80579 60.409 1.91309 59.5439 1.28524V3.28328C59.4169 2.50223 59.2353 1.73937 59.0357 0.976485C58.5662 0.616101 58.038 0.339554 57.4745 0.159089C57.5434 0.445212 57.5859 0.737076 57.6016 1.03097C57.6016 0.794844 57.3111 0.104599 57.3111 0.104599C56.6581 -0.0483036 55.974 0.00243472 55.3506 0.249941L56.821 2.75656C57.1922 2.63327 57.5934 2.63327 57.9646 2.75656C57.6742 2.64758 56.9844 2.99265 56.9844 2.99265L57.6923 4.80903L58.1643 4.93619L57.8194 5.15415L58.0917 6.24399C58.5024 6.40212 58.8926 6.60948 59.2535 6.86156L58.3095 6.75258C58.7479 7.9954 59.0878 9.27082 59.3261 10.567C59.5969 10.6854 59.8479 10.8447 60.0704 11.0393H59.3987C59.6946 12.276 59.8289 13.546 59.7981 14.8173C60.7424 14.1194 61.4517 13.1499 61.8312 12.0383V12.1836Z" fill="url(#paint14_linear_4596_9806)"/>
<path opacity="0.3" d="M60.8692 7.66084C61.4685 10.1656 61.0852 12.8049 59.7982 15.0354C60.7496 14.3173 61.4539 13.3205 61.8132 12.1836C62.2278 10.6325 62.4173 9.0298 62.3759 7.4247C62.3759 7.4247 62.5211 6.98876 62.3759 7.4247C62.1616 7.82262 61.8859 8.18427 61.559 8.49636C61.7224 8.16941 62.2126 6.77082 62.2126 6.77082C62.1036 6.04427 61.5046 4.10073 61.5046 4.10073C61.4308 4.24476 61.3393 4.379 61.2323 4.50034C61.2323 4.28237 61.3412 3.82829 61.3412 3.82829C61.0246 2.80761 60.3881 1.91595 59.5259 1.2853V3.28334C59.3807 2.50229 59.2173 1.72125 58.9994 0.958365C58.53 0.597981 58.0018 0.32149 57.4383 0.141025C57.5131 0.426618 57.5617 0.718416 57.5835 1.01285C57.5835 0.776725 57.293 0.0865355 57.293 0.0865355C56.64 -0.0663675 55.9559 -0.0156846 55.3325 0.231822C56.8095 0.898365 58.0927 1.93003 59.0613 3.22968C60.0299 4.52933 60.6521 6.05422 60.8692 7.66084Z" fill="url(#paint15_linear_4596_9806)"/>
<path d="M62.2308 14.2542C63.3369 14.5862 64.3627 15.1427 65.2442 15.889C65.2442 15.889 65.571 15.889 65.2442 15.889C64.8761 15.8874 64.5115 15.9616 64.1732 16.1069C64.6306 16.1468 65.0852 16.2135 65.5347 16.3067C65.9352 16.8612 66.3049 17.4372 66.6421 18.0323C66.5104 18.0049 66.3744 18.0049 66.2427 18.0323L66.6965 18.2139C67.0964 19.0366 67.2418 19.96 67.114 20.8658C66.878 20.6297 66.0067 19.9758 66.0067 19.9758C66.3782 20.4428 66.7179 20.9344 67.0233 21.4471C66.9636 22.031 66.8294 22.6048 66.6239 23.1545C66.5023 22.9606 66.3489 22.7887 66.1701 22.6459C66.3022 22.8575 66.4234 23.0758 66.5332 23.2998C66.2606 23.9225 65.8583 24.4799 65.3532 24.9346L64.7541 22.5914C65.0324 22.3091 65.2434 21.9677 65.3713 21.5924C65.19 21.8766 64.9558 22.1232 64.6815 22.319L64.0099 20.9022L64.2096 20.4481L63.9009 20.6297L63.4289 19.9395C63.568 19.5253 63.6713 19.0999 63.7376 18.668L63.2656 19.4854C62.824 18.5896 62.2885 17.7432 61.6681 16.9606C61.7572 16.6963 61.8121 16.4216 61.8315 16.1433L61.4321 16.7064C60.914 15.9308 60.2552 15.2592 59.4897 14.7265C60.3246 14.2657 61.29 14.0994 62.2308 14.2542Z" fill="url(#paint16_linear_4596_9806)"/>
<path opacity="0.5" d="M64.2456 17.0334C63.7288 16.2483 63.0068 15.6201 62.158 15.217C61.3152 14.8184 60.3821 14.6492 59.4531 14.7266C60.2956 14.25 61.2759 14.0769 62.2306 14.2361C63.3366 14.5681 64.3624 15.1246 65.244 15.8709C65.244 15.8709 65.5707 15.8709 65.244 15.8709C64.8758 15.8693 64.5113 15.9436 64.173 16.0889C64.6303 16.1288 65.0849 16.1955 65.5344 16.2887C65.9349 16.8431 66.3046 17.4192 66.6418 18.0143C66.5101 17.9868 66.3741 17.9868 66.2424 18.0143L66.6963 18.1959C67.0961 19.0186 67.2415 19.942 67.1137 20.8478C66.8778 20.6117 66.0064 19.9578 66.0064 19.9578C66.378 20.4248 66.7176 20.9163 67.023 21.4291C66.9634 22.013 66.8291 22.5867 66.6236 23.1364C66.502 22.9426 66.3486 22.7706 66.1698 22.6278C66.302 22.8394 66.4232 23.0577 66.5329 23.2818C66.2603 23.9045 65.858 24.4618 65.3529 24.9165C65.7997 23.6078 65.9323 22.2122 65.7399 20.8427C65.5475 19.4731 65.0356 18.1682 64.2456 17.0334Z" fill="url(#paint17_linear_4596_9806)"/>
<path d="M61.2505 11.4753C62.5629 10.3938 64.0319 9.51797 65.6072 8.87785C65.6072 8.87785 65.9703 8.51457 65.6072 8.87785C65.2855 9.2572 65.0279 9.68667 64.8448 10.1493C65.0808 9.8405 66.2789 8.73251 66.2789 8.73251C67.197 8.54592 68.124 8.40651 69.0563 8.31477C68.9371 8.45437 68.8337 8.60665 68.7477 8.76887C68.9293 8.62356 69.3468 8.35108 69.3468 8.35108C70.4154 8.24286 71.4881 8.51283 72.3784 9.11399C71.9245 9.27746 70.4723 9.93133 70.4723 9.93133C71.2556 9.73461 72.0496 9.583 72.8503 9.47723C73.3629 9.80562 73.8118 10.2241 74.1755 10.7124C73.8575 10.7583 73.5465 10.8438 73.2497 10.9667C73.5038 10.9667 74.23 10.8577 74.23 10.8577C74.6054 11.4743 74.7887 12.1889 74.7564 12.9102L71.8519 12.4924C71.8228 12.0818 71.6711 11.6895 71.4163 11.3663C71.5978 11.6024 71.5252 12.4561 71.5252 12.4561L69.492 12.5469L69.2197 12.111L69.1108 12.5651L68.0035 12.7286C67.6991 12.4025 67.3714 12.099 67.0232 11.8204L67.4407 12.7468C66.1013 12.837 64.7717 13.0374 63.4652 13.3461C63.2549 13.1282 63.0169 12.9389 62.7572 12.7831L62.9387 13.4914C61.6809 13.7378 60.4604 14.1469 59.3081 14.7084C59.658 13.4502 60.3565 12.3167 61.3231 11.439L61.2505 11.4753Z" fill="url(#paint18_linear_4596_9806)"/>
<path opacity="0.5" d="M65.8612 10.4944C63.2056 11.0483 60.8469 12.5614 59.2354 14.7447C59.5984 13.488 60.3021 12.3563 61.2685 11.4753C62.5862 10.4013 64.0541 9.52623 65.6253 8.87785C65.6253 8.87785 66.0065 8.51457 65.6253 8.87785C65.3155 9.26237 65.0647 9.69086 64.881 10.1493C65.117 9.8405 66.2969 8.73251 66.2969 8.73251C67.0231 8.5327 69.0744 8.31477 69.0744 8.31477C68.9671 8.4592 68.87 8.61093 68.7839 8.76887C68.9654 8.62356 69.3829 8.35108 69.3829 8.35108C70.4515 8.24287 71.5242 8.51283 72.4145 9.11399C71.9607 9.27746 70.5085 9.93133 70.5085 9.93133C71.2918 9.73461 72.0858 9.583 72.8865 9.47723C73.3975 9.80099 73.8413 10.2204 74.1935 10.7124C73.882 10.7608 73.5773 10.8462 73.2859 10.9667C73.54 10.9667 74.2661 10.8577 74.2661 10.8577C74.6415 11.4743 74.8248 12.1889 74.7926 12.9102C73.6674 11.7283 72.2395 10.878 70.6647 10.452C69.0898 10.026 67.4283 10.0407 65.8612 10.4944Z" fill="url(#paint19_linear_4596_9806)"/>
<path d="M60.2701 10.9666C60.8447 9.48828 61.6073 8.09023 62.5392 6.80706C62.5392 6.80706 62.6663 6.37113 62.5392 6.80706C62.4759 7.25287 62.4759 7.70537 62.5392 8.15117C62.5392 7.78789 63.0475 6.33479 63.0475 6.33479C63.6237 5.7586 64.2297 5.21295 64.8628 4.70005C64.8438 4.85082 64.8438 5.00338 64.8628 5.15415C64.935 4.95223 65.0262 4.75766 65.1351 4.57294C65.9149 3.94128 66.8744 3.5725 67.8762 3.51941C67.5858 3.88269 66.7689 5.11784 66.7689 5.11784C67.2959 4.55416 67.86 4.02625 68.4572 3.53759C69.0672 3.48493 69.6817 3.54026 70.2725 3.70106C70.032 3.90855 69.813 4.13981 69.6189 4.3913C69.8186 4.20966 70.454 3.77373 70.454 3.77373C71.1707 4.02864 71.8003 4.48221 72.2693 5.08153L69.3466 6.35297C69.078 6.0289 68.7171 5.79447 68.3119 5.68091C68.6205 5.77173 69.038 6.49831 69.038 6.49831L67.368 7.66077L66.8778 7.44281L67.0412 7.87872L66.2243 8.62345C65.8011 8.48072 65.3623 8.38926 64.9173 8.351L65.7342 8.91408C64.6622 9.67772 63.6599 10.5348 62.7389 11.4752C62.4796 11.3686 62.2023 11.3131 61.922 11.3117L62.3577 11.8748C61.3985 12.76 60.5675 13.7748 59.8889 14.89C59.7196 13.5389 59.8561 12.1669 60.2883 10.8757L60.2701 10.9666Z" fill="url(#paint20_linear_4596_9806)"/>
<path opacity="0.5" d="M63.4651 7.91508C61.5927 9.85173 60.3628 12.3191 59.9434 14.9808C59.7744 13.6237 59.9109 12.2459 60.3427 10.9484C60.9214 9.47768 61.6839 8.08616 62.6119 6.80706C62.6119 6.80706 62.7389 6.37113 62.6119 6.80706C62.5486 7.25286 62.5486 7.70537 62.6119 8.15117C62.6119 7.78789 63.1202 6.33478 63.1202 6.33478C63.6964 5.7586 64.3023 5.21295 64.9355 4.70005C64.9165 4.85082 64.9165 5.00338 64.9355 5.15415C65.0077 4.95223 65.0989 4.75766 65.2078 4.57294C65.9875 3.94128 66.947 3.5725 67.9489 3.51941C67.6584 3.88269 66.8415 5.11784 66.8415 5.11784C67.3686 4.55416 67.9326 4.02625 68.5297 3.53759C69.1397 3.48493 69.7543 3.54026 70.3451 3.70106C70.1046 3.90855 69.8856 4.13981 69.6916 4.39129C69.8913 4.20966 70.5266 3.77373 70.5266 3.77373C71.2458 4.02405 71.8765 4.47848 72.3419 5.08153C70.752 4.74411 69.1023 4.81914 67.5495 5.29949C66.0064 5.79202 64.6093 6.65943 63.4832 7.82423L63.4651 7.91508Z" fill="url(#paint21_linear_4596_9806)"/>
<path d="M62.6664 12.7649C64.175 12.4426 65.7254 12.3628 67.2591 12.5287C67.2591 12.5287 67.6948 12.3834 67.2591 12.5287C66.8601 12.7102 66.4972 12.9625 66.1881 13.2734C66.4967 13.11 67.8945 12.7104 67.8945 12.7104C68.7387 12.9834 69.5687 13.2987 70.3814 13.6549C70.2343 13.7154 70.0991 13.8014 69.9821 13.9092C70.1996 13.8924 70.418 13.8924 70.6356 13.9092C71.606 14.3272 72.4104 15.0555 72.9229 15.9799C72.4872 15.8891 71.0168 15.7982 71.0168 15.7982C71.7548 15.996 72.4819 16.2324 73.1951 16.5066C73.5109 17.0306 73.7436 17.6005 73.885 18.1959C73.601 18.1035 73.3094 18.0366 73.0136 17.9961C73.2496 17.9961 73.885 18.3594 73.885 18.3594C73.9915 19.0496 73.897 19.7559 73.6127 20.3937L71.3254 18.6681C71.4339 18.2821 71.4339 17.8735 71.3254 17.4875C71.3254 17.7963 71.0168 18.4865 71.0168 18.4865L69.2922 17.6146L69.2015 17.1242L68.9655 17.4512L67.9489 17.0879C67.8185 16.6723 67.6608 16.2657 67.4769 15.8709V16.8699C66.3056 16.3231 65.0913 15.8736 63.8463 15.5258C63.7502 15.2367 63.6159 14.9618 63.4469 14.7084L63.3562 15.4168C62.187 15.01 60.9628 14.7834 59.7256 14.7447C60.4597 13.8087 61.4797 13.1389 62.63 12.8375L62.6664 12.7649Z" fill="url(#paint22_linear_4596_9806)"/>
<path opacity="0.5" d="M66.9139 14.0727C65.7471 13.6763 64.5118 13.5218 63.2833 13.6186C62.0547 13.7209 60.8612 14.0798 59.7798 14.6721C60.499 13.7367 61.5075 13.066 62.6479 12.7649C64.1566 12.4426 65.707 12.3628 67.2407 12.5287C67.2407 12.5287 67.6764 12.3834 67.2407 12.5287C66.8417 12.7102 66.4788 12.9625 66.1697 13.2734C66.4783 13.11 67.876 12.7104 67.876 12.7104C68.7203 12.9834 69.5503 13.2987 70.363 13.6549C70.2159 13.7154 70.0807 13.8014 69.9636 13.9092C70.1812 13.8924 70.3997 13.8924 70.6172 13.9092C71.5876 14.3272 72.392 15.0555 72.9044 15.9799C72.4688 15.8891 71.0891 15.7982 71.0891 15.7982C71.8152 15.9981 72.5414 16.2342 73.2493 16.5066C73.5651 17.0306 73.7978 17.6005 73.9392 18.1959C73.6552 18.1035 73.3636 18.0366 73.0678 17.9961C73.3038 17.9961 73.9392 18.3594 73.9392 18.3594C74.0457 19.0496 73.9512 19.7559 73.6669 20.3937C73.1773 18.8747 72.3088 17.5057 71.1436 16.4158C69.9933 15.3098 68.572 14.5267 67.0229 14.1453L66.9139 14.0727Z" fill="url(#paint23_linear_4596_9806)"/>
<path d="M60.27 12.0383C60.0027 10.8053 59.5562 9.61805 58.9448 8.51453C58.9603 8.89543 58.9112 9.27618 58.7996 9.64068C58.7996 9.33189 58.6181 8.09674 58.6181 8.09674C58.2732 7.60632 57.057 6.28035 57.057 6.28035C57.0745 6.42514 57.0745 6.57154 57.057 6.71633C57.0095 6.51651 56.9426 6.32182 56.8573 6.13507C56.123 5.39188 55.1792 4.89115 54.1525 4.70011C54.4248 5.09971 55.1509 6.4257 55.1509 6.4257C54.9149 6.04426 53.5171 4.60931 53.5171 4.60931C52.8402 4.44606 52.1418 4.3909 51.4477 4.44584C51.7015 4.69226 51.9267 4.96641 52.1193 5.26318C51.9378 5.06338 51.3024 4.50033 51.3024 4.50033C50.486 4.60909 49.7241 4.97119 49.124 5.53569L52.3008 7.22491C52.6411 6.95516 53.0497 6.78533 53.4808 6.73445C53.1359 6.73445 52.6639 7.42469 52.6639 7.42469L54.2977 8.69618L54.7878 8.56902L54.5881 8.91414L55.3506 9.65886C55.7574 9.58282 56.1714 9.55238 56.585 9.56806L55.7681 9.96762C56.6402 10.6496 57.4429 11.4162 58.1643 12.2563C58.3879 12.1892 58.6208 12.1586 58.8541 12.1655L58.4184 12.5651C59.0706 13.2383 59.621 14.0032 60.0522 14.8356C60.3499 13.9345 60.4246 12.9746 60.27 12.0383Z" fill="url(#paint24_linear_4596_9806)"/>
<path opacity="0.5" d="M57.9286 9.25919C59.2552 10.8017 59.9606 12.783 59.9073 14.8173C60.2391 13.893 60.3389 12.9012 60.1977 11.9293C59.9298 10.7079 59.4833 9.53276 58.8726 8.4418C58.888 8.82269 58.8389 9.2035 58.7273 9.568C58.7273 9.25922 58.5458 8.02406 58.5458 8.02406C58.2009 7.53364 56.9847 6.20767 56.9847 6.20767C57.0021 6.35246 57.0021 6.49881 56.9847 6.64359C56.9372 6.44378 56.8703 6.24909 56.7849 6.06233C56.0507 5.31914 55.1069 4.81847 54.0801 4.62743C54.3524 5.02703 55.0786 6.35296 55.0786 6.35296C54.8426 5.97152 53.4448 4.53657 53.4448 4.53657C52.7679 4.37332 52.0695 4.31816 51.3754 4.3731C51.6291 4.61953 51.8544 4.89373 52.047 5.1905C51.8655 4.9907 51.2301 4.42759 51.2301 4.42759C50.4137 4.53635 49.6519 4.89845 49.0518 5.46295C50.7267 5.35389 52.404 5.6336 53.9531 6.28029C55.5132 6.91433 56.8961 7.91789 57.9831 9.2047L57.9286 9.25919Z" fill="url(#paint25_linear_4596_9806)"/>
<path d="M59.2352 12.3471C58.5246 11.4682 57.641 10.7448 56.6393 10.2219C56.783 10.5825 56.8747 10.9616 56.9116 11.3481C56.6852 10.9295 56.4367 10.5233 56.1673 10.1311C55.5237 9.96927 54.868 9.85988 54.2068 9.80412C54.2622 9.93135 54.2989 10.066 54.3157 10.2037L53.9526 9.84049C53.0758 9.81005 52.2138 10.072 51.502 10.5852C51.9254 10.7932 52.3374 11.0236 52.7364 11.2754C52.2001 11.1239 51.6543 11.0086 51.1026 10.9303C50.6361 11.2402 50.2146 11.613 49.85 12.0383C50.0667 12.0751 50.2755 12.1489 50.4672 12.2563C50.2857 12.2563 49.7592 12.2563 49.7592 12.2563C49.3629 12.7978 49.0846 13.4166 48.9424 14.0726L51.1752 13.6367C51.2996 13.2625 51.4971 12.9168 51.7561 12.6195C51.5935 12.9196 51.483 13.2451 51.4294 13.5822H52.9179L53.2265 13.1826V13.5822L54.0434 13.7094C54.3348 13.418 54.6439 13.145 54.9692 12.892L54.4609 13.7094C55.4131 13.7527 56.3572 13.905 57.2747 14.1635C57.4669 13.9634 57.687 13.7921 57.9281 13.6549L57.6196 14.2725C58.5101 14.4541 59.3595 14.7989 60.1247 15.2896C60.1419 14.2763 59.8507 13.2817 59.2896 12.4379L59.2352 12.3471Z" fill="url(#paint26_linear_4596_9806)"/>
<path opacity="0.5" d="M56.0221 11.5842C56.9373 11.8094 57.7818 12.2596 58.4792 12.894C59.1766 13.5283 59.7047 14.3268 60.0158 15.217C60.0508 14.1977 59.7789 13.1915 59.2352 12.3289C58.5228 11.4565 57.6393 10.7395 56.6393 10.2219C56.7831 10.5825 56.8747 10.9616 56.9116 11.3481C56.6852 10.9295 56.4367 10.5233 56.1673 10.1311C55.5237 9.96927 54.8681 9.85988 54.2068 9.80412C54.2622 9.93135 54.2989 10.066 54.3157 10.2037L53.9526 9.84049C53.0758 9.81005 52.2138 10.072 51.502 10.5852C51.9254 10.7932 52.3374 11.0236 52.7364 11.2754C52.2001 11.1239 51.6543 11.0086 51.1026 10.9303C50.6361 11.2402 50.2146 11.613 49.85 12.0383C50.0667 12.0751 50.2755 12.1489 50.4672 12.2562C50.2857 12.2562 49.7592 12.2562 49.7592 12.2562C49.3629 12.7978 49.0846 13.4166 48.9424 14.0726C49.794 13.0646 50.8993 12.3024 52.1439 11.8649C53.3886 11.4274 54.7275 11.3305 56.0221 11.5842Z" fill="url(#paint27_linear_4596_9806)"/>
<path d="M79.8447 60.6068C81.0108 60.4135 81.993 60.7059 82.8284 61.4482C83.4646 62.0041 83.8717 62.7765 83.9705 63.6155C84.08 64.4596 83.8814 65.3148 83.4112 66.0242C82.9409 66.7336 82.2306 67.2496 81.4106 67.4775C79.8006 67.9072 77.8493 67.2388 77.0449 65.0512C76.6797 66.0573 76.0901 66.8211 75.1437 67.2603C74.6997 67.4782 74.2138 67.5974 73.7194 67.6098C73.225 67.6221 72.7338 67.5274 72.2794 67.3319C71.4981 67.0141 70.8574 66.4257 70.4743 65.6742C70.0912 64.9228 69.9915 64.0585 70.1933 63.2396C70.6277 61.3921 72.1386 60.4564 74.5184 60.608C73.8715 59.7523 73.5147 58.8429 73.6567 57.7867C73.7122 57.2885 73.8758 56.8084 74.1362 56.3801C74.3965 55.9517 74.7473 55.5854 75.164 55.3067C75.8202 54.8511 76.612 54.6325 77.409 54.6869C78.206 54.7414 78.9607 55.0656 79.5488 55.6062C80.9189 56.8546 81.031 58.4956 79.8447 60.6068ZM74.4933 58.0182C74.4766 58.3094 74.5148 58.5899 74.8668 58.6209C75.2499 58.6543 75.3156 58.3822 75.3299 58.0636C75.3391 57.8543 75.3966 57.6499 75.4978 57.4665C75.5991 57.2831 75.7413 57.1255 75.9135 57.0062C76.1415 56.8343 76.1808 56.6123 75.9899 56.388C75.7989 56.1636 75.6032 56.197 75.3932 56.3522C75.1264 56.5432 74.9068 56.7926 74.7508 57.0813C74.5949 57.37 74.5068 57.6904 74.4933 58.0182ZM71.0096 63.7277C70.9905 64.0392 71.0514 64.3244 71.4201 64.3459C71.7674 64.3626 71.8462 64.0977 71.8558 63.7993C71.8612 63.5904 71.9153 63.3856 72.0137 63.2013C72.1121 63.0169 72.2521 62.858 72.4227 62.7371C72.6411 62.5689 72.7079 62.3469 72.5169 62.1189C72.326 61.891 72.1076 61.928 71.888 62.0951C71.631 62.2866 71.4192 62.5322 71.2675 62.8145C71.1157 63.0968 71.0277 63.4089 71.0096 63.7289V63.7277ZM78.0856 63.6895C78.0641 64.1359 78.0928 64.4318 78.4806 64.4497C78.8387 64.4665 78.9007 64.2111 78.915 63.9079C78.9214 63.6988 78.9764 63.4941 79.0756 63.3099C79.1749 63.1258 79.3156 62.9673 79.4867 62.8469C79.7135 62.6787 79.7731 62.4626 79.5846 62.2323C79.396 62.002 79.1764 62.0354 78.958 62.2013C78.7157 62.3739 78.5127 62.5959 78.3623 62.8526C78.212 63.1093 78.1177 63.3949 78.0856 63.6907V63.6895ZM77.3051 56.0263C77.2848 55.7554 77.1273 55.6062 76.8754 55.6158C76.7698 55.6231 76.671 55.6708 76.5994 55.7489C76.5279 55.827 76.4891 55.9296 76.4911 56.0355C76.4931 56.1414 76.5357 56.2425 76.6101 56.3179C76.6845 56.3932 76.7851 56.4371 76.8909 56.4405C77.1452 56.4452 77.2943 56.2889 77.3051 56.0275V56.0263ZM73.4204 61.3265C73.1698 61.3623 72.9991 61.4995 73.0039 61.7561C73.001 61.8122 73.0105 61.8682 73.0315 61.9202C73.0526 61.9722 73.0848 62.019 73.1258 62.0573C73.1668 62.0957 73.2157 62.1245 73.2691 62.142C73.3224 62.1594 73.379 62.165 73.4347 62.1583C73.4871 62.1605 73.5394 62.1518 73.5883 62.1327C73.6371 62.1136 73.6815 62.0846 73.7185 62.0474C73.7556 62.0103 73.7845 61.9658 73.8034 61.9169C73.8223 61.868 73.8309 61.8157 73.8285 61.7633C73.8357 61.5067 73.6722 61.3671 73.4204 61.3277V61.3265ZM80.4773 61.4458C80.2278 61.4792 80.0584 61.6165 80.0667 61.8755C80.0647 61.9317 80.0748 61.9877 80.0963 62.0397C80.1178 62.0916 80.1503 62.1384 80.1916 62.1766C80.2328 62.2149 80.2818 62.2439 80.3352 62.2615C80.3886 62.2791 80.4452 62.2851 80.5012 62.2789C80.5536 62.2797 80.6056 62.2698 80.654 62.2498C80.7024 62.2297 80.7462 62.1998 80.7826 62.1621C80.8189 62.1244 80.8472 62.0796 80.8655 62.0305C80.8838 61.9813 80.8918 61.929 80.889 61.8767C80.895 61.6081 80.7339 61.4792 80.4773 61.4422V61.4458Z" fill="#343454"/>
<path d="M62.1468 52.9114C62.3509 53.4078 62.8295 53.6752 63.1302 54.0965C63.6303 54.797 64.1602 55.4725 64.4716 56.2865C64.4394 56.4619 64.4096 56.6361 64.375 56.8104C64.1542 57.9382 63.4787 58.4812 62.3461 58.4359C62.2829 58.2855 62.216 58.1375 62.1563 57.9859C61.0691 55.2135 58.2299 53.0641 54.5839 53.563C51.2553 54.0189 48.8445 56.666 48.5319 60.0566C47.9089 60.0566 47.2847 60.0566 46.6617 60.0685C46.2741 60.0614 45.8963 60.1912 45.5948 60.4349C44.9443 60.972 44.8322 61.7393 44.6639 62.4888C44.2283 62.138 44.196 61.6439 44.2557 61.1605C44.4156 59.8668 44.7068 58.6041 45.2522 57.4107C45.3458 57.2417 45.3989 57.0534 45.4074 56.8605L46.9422 54.4569C47.7099 53.5739 48.5792 52.7848 49.532 52.1058C49.9938 51.8671 50.4402 51.5914 50.9188 51.3981C54.2604 50.0471 57.5341 50.1425 60.7051 51.9339C61.2111 52.2251 61.593 52.6953 62.1468 52.9114Z" fill="#F7E6DC"/>
<path d="M48.5311 60.0565C48.8438 56.6635 51.2545 54.0188 54.5831 53.5629C58.2291 53.0641 61.0683 55.2135 62.1556 57.9859C62.2152 58.1375 62.2821 58.2854 62.3453 58.4358C62.569 59.3403 62.6555 60.2733 62.6019 61.2034C62.5506 61.9255 62.2833 62.5867 62.1388 63.2813C61.6794 64.0785 61.2306 64.8757 60.5683 65.5381C57.1956 68.9108 51.455 68.0085 49.2937 63.7586C49.2113 63.5892 49.1636 63.3887 48.9965 63.2693C48.7089 62.2191 48.4487 61.1629 48.5311 60.0565ZM59.8212 63.0187C59.9906 63.0103 60.0276 62.8647 60.0801 62.749C60.7091 61.3479 60.7771 59.9336 60.1529 58.5122C60.0813 58.3487 60.0551 58.1243 59.8128 58.0849C59.53 57.2113 58.8736 56.6898 58.1002 56.2816C58.0449 56.1922 57.9607 56.1244 57.8615 56.0895C56.8924 55.5823 55.7793 55.4206 54.706 55.6312C54.1391 55.7338 53.5126 55.8019 53.1044 56.3079C52.3501 56.5132 51.9634 57.1505 51.4861 57.6816C51.3906 57.7878 51.2868 57.9071 51.3273 58.0766C51.259 58.1286 51.1976 58.1892 51.1447 58.2568C50.6471 59.1819 50.4704 60.2459 50.6423 61.2822C50.7342 61.9052 50.8535 62.5425 51.3226 63.0306C51.6584 63.8283 52.2914 64.4639 53.0877 64.8029C53.1116 64.8387 53.1271 64.8876 53.1593 64.9091C54.4446 65.7839 56.8435 65.7386 58.1014 64.8184C58.5788 64.6406 58.9141 64.2921 59.2376 63.9281C59.4786 63.6584 59.7949 63.4304 59.8212 63.0187Z" fill="#BC5F66"/>
<path d="M60.4536 40.8599L68.7016 37.6436C68.8448 37.9109 68.8555 38.214 68.9164 38.5017C69.285 40.1246 69.8139 41.707 70.4953 43.2254C69.9977 43.4641 69.5024 43.7027 69.0011 43.9295C67.5105 44.6062 66.0175 45.2626 64.5293 45.9584C63.7905 46.3045 63.0207 46.5849 62.3202 47.0098C61.9871 46.347 61.7078 45.6586 61.4848 44.9511C61.0193 43.6168 60.6088 42.2646 60.4536 40.8599Z" fill="#5B5B81"/>
<path d="M47.5522 46.4751C50.7205 44.9881 53.9201 43.5723 57.1512 42.2276C57.1831 42.3094 57.2098 42.3931 57.2312 42.4783C57.631 44.5071 58.1489 46.5133 58.9521 48.4312C58.9461 48.4579 58.9425 48.485 58.9414 48.5124C58.1366 48.8711 57.2393 48.9676 56.3767 48.7881C56.0311 48.704 55.6796 48.647 55.3252 48.6174C52.9252 48.467 50.6946 48.9635 48.7194 50.3992C48.1548 49.15 47.7622 47.8299 47.5522 46.4751Z" fill="#5B5B81"/>
<path d="M62.3145 47.0086C63.015 46.5837 63.7848 46.3032 64.5235 45.9571C66.0058 45.2625 67.5072 44.6061 68.9954 43.9283C69.4967 43.7003 69.992 43.4592 70.4896 43.2241C70.5116 43.2277 70.5331 43.2333 70.5541 43.2408C70.6161 43.39 70.6734 43.544 70.7414 43.6872C71.2523 44.6592 71.883 45.5633 72.6187 46.3784C69.8177 47.8392 66.9713 49.2081 64.1249 50.5782C63.4228 49.441 62.8172 48.2469 62.3145 47.0086Z" fill="#343453"/>
<path d="M71.8091 36.4786L76.5077 34.7911C76.5877 34.9319 76.6784 35.0679 76.7464 35.2135C77.4068 36.6059 78.0648 37.9983 78.7204 39.3906C78.7144 39.4193 78.7108 39.4485 78.7096 39.4778C77.9864 39.8215 77.2691 40.1759 76.5411 40.5077C75.504 40.9851 74.4597 41.4362 73.4179 41.8993C72.5323 40.1986 71.889 38.4216 71.8091 36.4786Z" fill="#5B5B81"/>
<path d="M62.3144 47.0085C62.8171 48.2472 63.4227 49.4417 64.1249 50.5793C64.2049 50.738 64.2968 50.8908 64.3636 51.0567C64.4961 51.3921 64.4674 51.7584 64.1798 51.953C63.5568 52.3719 62.9326 52.8182 62.1509 52.9077C61.5972 52.6917 61.2153 52.2215 60.7116 51.9303C60.0558 50.8257 59.466 49.6831 58.9453 48.5087C58.9465 48.4814 58.9501 48.4542 58.9561 48.4275C59.4895 48.3213 59.9502 48.042 60.4288 47.8057C60.9074 47.5694 61.0983 47.1434 60.9324 46.623C60.8417 46.3402 60.7116 46.0716 60.6066 45.7876C59.9235 44.0107 59.5295 42.1359 59.4394 40.2344C59.9944 40.0805 60.233 40.4493 60.4515 40.8503C60.6126 42.2597 61.0231 43.6072 61.4814 44.9402C61.7032 45.6509 61.9817 46.3425 62.3144 47.0085Z" fill="#E67B41"/>
<path d="M62.1421 63.2813C62.2865 62.5867 62.5538 61.9256 62.6052 61.2035C62.6576 60.2732 62.5699 59.3402 62.345 58.4359C63.4788 58.4777 64.1543 57.9382 64.3739 56.8104C64.4085 56.6362 64.4383 56.4619 64.4705 56.2865C64.9411 56.9899 65.5107 57.6218 66.1616 58.1626C67.0245 58.9145 67.4446 59.9289 67.6021 61.0532C67.6715 61.4333 67.7011 61.8197 67.6905 62.206C67.6499 62.7849 67.2023 63.2801 66.6474 63.2897C65.146 63.3016 63.6446 63.2861 62.1421 63.2813Z" fill="#D2A1A7"/>
<path d="M46.9413 54.4569L45.4065 56.8605C44.4338 56.3258 44.0937 56.2327 43.0458 56.2029C42.0589 56.1755 41.3869 55.6527 41.1244 54.7051C40.8153 53.5916 41.0731 52.6058 42.0016 52.1416C42.6771 51.8038 43.0112 51.3813 43.0518 50.6665C43.061 50.6075 43.077 50.5499 43.0995 50.4946C43.2368 50.5507 43.2786 50.6891 43.3454 50.8001C43.8956 51.7155 44.6749 52.1965 45.7669 52.0998C46.162 52.8863 46.4508 53.7217 46.9413 54.4569Z" fill="#343454"/>
<path d="M71.8092 36.4787C71.8892 38.4217 72.5325 40.1987 73.4192 41.9018C73.9145 43.0158 74.536 44.0694 75.2714 45.0418C75.5101 45.7686 75.4194 46.0121 74.7499 46.3713L74.3919 46.5599C73.5111 47.0253 73.3488 47.0086 72.6148 46.3796C71.88 45.5646 71.2505 44.6604 70.7411 43.6884C70.6671 43.5452 70.6217 43.3912 70.5537 43.242C70.7661 43.1358 70.9762 43.0272 71.1886 42.9222C72.1434 42.4448 72.2794 42.1632 71.9047 41.1702C71.2638 39.4636 70.9965 37.6913 70.907 35.8832C71.4249 35.74 71.5741 35.839 71.8092 36.4787Z" fill="#E67B41"/>
<path d="M75.2717 45.0418C74.5365 44.0709 73.9151 43.0189 73.4194 41.9066C74.4613 41.4435 75.5056 40.9876 76.5427 40.515C77.2707 40.1832 77.988 39.8288 78.7112 39.485C79.2077 40.4494 79.6684 41.4304 80.0932 42.4281C78.5215 43.3626 76.8936 44.1956 75.2717 45.0418Z" fill="#343453"/>
<path d="M78.7219 39.3931C78.0647 38.0007 77.4067 36.6084 76.7479 35.216C76.6787 35.0704 76.588 34.9344 76.5092 34.7935C76.4102 34.0369 76.5749 33.7564 77.2719 33.5034C77.495 33.4223 77.7206 33.3435 77.9474 33.2755C78.6479 33.0654 79.3127 33.2755 79.7077 33.8841C81.0718 35.9774 82.0684 38.2438 82.8107 40.6224C82.9635 41.1117 82.93 41.5891 82.5541 41.9901C82.5165 41.9292 82.4857 41.8643 82.4622 41.7967C82.2797 40.9541 82.0031 40.1346 81.6375 39.3537C81.3022 38.6377 80.8308 38.4897 80.1135 38.8143C79.6576 39.0184 79.2208 39.2809 78.7219 39.3931ZM77.8101 34.013C77.4294 34.013 77.1191 34.2624 77.1979 34.556C77.3495 35.1495 77.6132 35.7086 77.9748 36.203C78.192 36.493 78.4892 36.3582 78.747 36.2352C78.7932 36.2181 78.8353 36.1915 78.8705 36.157C78.9057 36.1226 78.9333 36.0811 78.9514 36.0352C78.9696 35.9894 78.9778 35.9403 78.9757 35.8911C78.9736 35.8418 78.9611 35.7936 78.9391 35.7495C78.747 35.2817 78.5513 34.8138 78.3424 34.3543C78.3018 34.248 78.2282 34.1575 78.1324 34.0961C78.0366 34.0346 77.9237 34.0055 77.8101 34.013Z" fill="#FDB665"/>
<path d="M59.4352 40.244C59.5252 42.1455 59.9193 44.0203 60.6024 45.7971C60.7074 46.0752 60.8411 46.3437 60.9282 46.6325C61.0941 47.1529 60.9127 47.5742 60.4245 47.8153C59.9364 48.0563 59.4853 48.3308 58.9518 48.437C58.1486 46.5132 57.6307 44.513 57.2309 42.4781C57.2094 42.393 57.1827 42.3093 57.1509 42.2275C57.1127 41.2727 57.2607 41.0496 58.1462 40.707C58.5723 40.5423 58.9864 40.3442 59.4352 40.244Z" fill="#FDB564"/>
<path d="M70.9097 35.8832C70.9992 37.6913 71.2678 39.4636 71.9074 41.1702C72.2798 42.1632 72.1461 42.4448 71.1914 42.9222C70.9789 43.0272 70.7689 43.1358 70.5565 43.2421C70.5355 43.2345 70.514 43.2289 70.492 43.2253C69.8106 41.7069 69.2817 40.1246 68.9131 38.5016C68.8522 38.214 68.8415 37.9109 68.6982 37.6436C68.7173 36.8738 68.9059 36.6029 69.6112 36.3463C70.0409 36.1887 70.4789 36.0372 70.9097 35.8832Z" fill="#FDB564"/>
<path d="M44.6021 48.1673C44.5794 48.0062 44.5484 47.8462 44.5376 47.6899C44.5018 47.1624 44.657 46.6981 45.1344 46.4344C45.6425 46.1606 46.1876 45.962 46.7527 45.8448C46.8174 47.2033 47.0581 48.5476 47.4688 49.8441C47.7075 50.6139 47.5881 51.1629 47.0176 51.5961C46.6648 51.8728 46.2284 52.0213 45.78 52.0174C45.2501 50.7738 44.916 49.4741 44.6021 48.1673Z" fill="#FDB564"/>
<path d="M48.5311 60.0566C48.4487 61.1629 48.7089 62.2191 48.9965 63.2694C47.9335 63.3266 46.8682 63.3266 45.8052 63.2694C45.5589 63.2637 45.3197 63.1863 45.1168 63.0466C44.9139 62.9068 44.7562 62.7109 44.6631 62.4829C44.8302 61.7334 44.9424 60.966 45.5928 60.4289C45.8943 60.1852 46.2721 60.0555 46.6597 60.0625C47.2839 60.0578 47.9081 60.0602 48.5311 60.0566Z" fill="#D2A1A7"/>
<path d="M45.7838 52.0127C46.2322 52.0166 46.6686 51.868 47.0214 51.5914C47.5943 51.1581 47.7148 50.6092 47.4725 49.8394C47.0618 48.5429 46.8211 47.1986 46.7565 45.8401C47.2589 45.7554 47.3962 46.1289 47.5561 46.475C47.766 47.8298 48.1587 49.1498 48.7233 50.3991C48.9142 51.0054 49.2257 51.5556 49.5348 52.1057C48.582 52.7847 47.7127 53.5739 46.945 54.4569C46.4509 53.7217 46.1621 52.8863 45.7671 52.0998C45.7743 52.0699 45.7743 52.0413 45.7838 52.0127Z" fill="#E67C41"/>
<path d="M78.7217 39.3932C79.2206 39.2822 79.6574 39.0184 80.1157 38.812C80.8318 38.4874 81.3091 38.6342 81.6397 39.3514C82.0053 40.1323 82.2819 40.9518 82.4644 41.7944C82.4879 41.862 82.5187 41.9268 82.5563 41.9878C82.1756 42.5845 81.555 42.8065 80.9201 42.9425C80.5549 43.0189 80.3066 42.7038 80.093 42.427C79.6658 41.4284 79.2059 40.4462 78.7134 39.4803C78.7137 39.4511 78.7165 39.4219 78.7217 39.3932Z" fill="#E67B41"/>
<path d="M45.7837 52.0126C45.7765 52.0413 45.7718 52.0699 45.767 52.0997C44.675 52.1964 43.8956 51.7155 43.3455 50.8001C43.2786 50.6891 43.2369 50.5506 43.0996 50.4946C43.3705 49.5924 43.8915 48.7855 44.6022 48.1673C44.916 49.4741 45.2502 50.7738 45.7837 52.0126Z" fill="#5B5B81"/>
<path d="M74.4934 58.0181C74.5065 57.6892 74.5946 57.3677 74.751 57.0781C74.9074 56.7886 75.1279 56.5386 75.3957 56.3473C75.6033 56.1921 75.8134 56.1754 75.9924 56.3831C76.1714 56.5907 76.144 56.8294 75.916 57.0013C75.7438 57.1206 75.6016 57.2782 75.5003 57.4616C75.3991 57.645 75.3416 57.8494 75.3324 58.0587C75.3181 58.3773 75.2525 58.6554 74.8694 58.616C74.5149 58.5909 74.4767 58.3105 74.4934 58.0181Z" fill="#F8F8F9"/>
<path d="M71.0099 63.7288C71.0282 63.409 71.1163 63.0971 71.2681 62.815C71.4198 62.5329 71.6315 62.2876 71.8883 62.0961C72.1079 61.929 72.3287 61.8944 72.5173 62.12C72.7058 62.3455 72.6366 62.5699 72.423 62.7382C72.2525 62.859 72.1125 63.0179 72.0141 63.2023C71.9157 63.3867 71.8616 63.5914 71.8561 63.8004C71.8466 64.0987 71.7678 64.3637 71.4205 64.347C71.0517 64.3291 70.9908 64.0402 71.0099 63.7288Z" fill="#F8F8F9"/>
<path d="M78.0863 63.6906C78.1185 63.395 78.2129 63.1096 78.3633 62.8531C78.5136 62.5966 78.7166 62.3748 78.9587 62.2023C79.1771 62.0365 79.3967 62.0007 79.5853 62.2334C79.7738 62.4661 79.7142 62.6797 79.4874 62.848C79.3163 62.9683 79.1756 63.1269 79.0763 63.311C78.9771 63.4952 78.9221 63.6999 78.9157 63.909C78.9014 64.2085 78.8394 64.4675 78.4813 64.4508C78.0935 64.4329 78.0648 64.1369 78.0863 63.6906Z" fill="#F8F8F9"/>
<path d="M77.3052 56.0275C77.2945 56.2888 77.1453 56.4452 76.8911 56.4416C76.7853 56.4383 76.6847 56.3944 76.6103 56.319C76.5359 56.2436 76.4933 56.1425 76.4913 56.0366C76.4893 55.9307 76.5281 55.8281 76.5996 55.75C76.6711 55.6719 76.7699 55.6243 76.8756 55.6169C77.1274 55.6074 77.2814 55.7566 77.3052 56.0275Z" fill="#F8F8F9"/>
<path d="M73.4204 61.3277C73.6722 61.3671 73.8357 61.5067 73.8286 61.7645C73.8309 61.8169 73.8224 61.8692 73.8034 61.9181C73.7845 61.9671 73.7556 62.0115 73.7186 62.0487C73.6815 62.0858 73.6372 62.1148 73.5883 62.1339C73.5395 62.153 73.4872 62.1617 73.4347 62.1595C73.379 62.1662 73.3225 62.1606 73.2691 62.1432C73.2158 62.1258 73.1669 62.0969 73.1259 62.0586C73.0848 62.0203 73.0526 61.9735 73.0316 61.9214C73.0105 61.8694 73.0011 61.8134 73.0039 61.7573C72.9991 61.5007 73.1698 61.3599 73.4204 61.3277Z" fill="#F8F8F9"/>
<path d="M80.4773 61.4422C80.7338 61.4756 80.895 61.608 80.889 61.873C80.8918 61.9253 80.8838 61.9777 80.8655 62.0268C80.8471 62.0759 80.8189 62.1207 80.7825 62.1584C80.7461 62.1962 80.7024 62.226 80.654 62.2461C80.6056 62.2662 80.5535 62.2761 80.5011 62.2752C80.4452 62.2814 80.3886 62.2755 80.3352 62.2578C80.2818 62.2402 80.2328 62.2113 80.1915 62.173C80.1503 62.1347 80.1178 62.088 80.0963 62.036C80.0747 61.984 80.0646 61.928 80.0667 61.8718C80.0583 61.6128 80.2278 61.4792 80.4773 61.4422Z" fill="#F8F8F9"/>
<path d="M49.5313 52.1058C49.2222 51.5556 48.9107 51.0055 48.7197 50.3992C50.6949 48.967 52.9255 48.467 55.3255 48.6174C55.6799 48.6469 56.0314 48.704 56.3769 48.788C57.2396 48.9675 58.1369 48.8711 58.9417 48.5123C59.4624 49.686 60.0522 50.8277 60.708 51.9316C57.5334 50.1414 54.2633 50.0447 50.9217 51.3957C50.4395 51.5914 49.9931 51.8683 49.5313 52.1058Z" fill="#343454"/>
<path d="M51.3274 58.0706C51.2868 57.9012 51.3906 57.7818 51.4861 57.6756C51.9635 57.1445 52.3502 56.5072 53.1044 56.3019C53.8372 57.0395 54.5784 57.7699 55.298 58.5194C55.5152 58.7449 55.6465 58.7402 55.8625 58.5194C56.5977 57.7639 57.3531 57.0275 58.1002 56.284C58.8736 56.6922 59.5324 57.2137 59.8129 58.0873C59.0634 58.8332 58.3186 59.5839 57.5608 60.3215C57.3734 60.5029 57.3913 60.6163 57.568 60.7881C58.3246 61.5257 59.0705 62.2764 59.8212 63.0211C59.795 63.4328 59.4787 63.6608 59.2376 63.9317C58.9142 64.2957 58.5729 64.6478 58.1014 64.822C57.3436 64.0689 56.5774 63.323 55.8339 62.5544C55.625 62.3384 55.5152 62.3623 55.3195 62.564C54.5855 63.3206 53.8336 64.0594 53.0877 64.8053C52.291 64.4657 51.6579 63.8292 51.3226 63.0306C52.0721 62.2859 52.8168 61.5364 53.5747 60.8013C53.7692 60.6127 53.7787 60.4933 53.5747 60.2988C52.8156 59.5696 52.0769 58.8153 51.3274 58.0706Z" fill="#75212C"/>
<path d="M59.8207 63.0189C59.07 62.2742 58.3241 61.5235 57.5675 60.7859C57.3909 60.6141 57.373 60.5007 57.5603 60.3193C58.3182 59.5817 59.0629 58.8311 59.8124 58.0851C60.0511 58.1245 60.0809 58.3489 60.1525 58.5124C60.7767 59.9338 60.7087 61.3481 60.0797 62.7492C60.0272 62.8649 59.9902 63.0105 59.8207 63.0189Z" fill="#D09EA4"/>
<path d="M58.0998 56.2817C57.3527 57.0252 56.5972 57.7616 55.8621 58.5171C55.6461 58.7402 55.5148 58.745 55.2976 58.5171C54.5815 57.7676 53.8368 57.0372 53.104 56.2996C53.5181 55.7936 54.1387 55.7256 54.7056 55.6229C55.78 55.4139 56.8936 55.5777 57.8623 56.0872C57.9614 56.123 58.0452 56.1916 58.0998 56.2817Z" fill="#D09EA4"/>
<path d="M51.3272 58.0709C52.0767 58.8156 52.8154 59.5699 53.578 60.3003C53.7785 60.4948 53.769 60.6141 53.578 60.8027C52.8154 61.5379 52.0719 62.2874 51.3224 63.0309C50.8534 62.5428 50.734 61.9054 50.6421 61.2825C50.4702 60.2462 50.6469 59.1821 51.1446 58.2571C51.1971 58.1873 51.2585 58.1247 51.3272 58.0709Z" fill="#D19FA5"/>
<path d="M77.8105 34.013C77.9238 34.0058 78.0365 34.0351 78.1321 34.0965C78.2276 34.1579 78.301 34.2483 78.3416 34.3544C78.5516 34.8138 78.7473 35.2817 78.9383 35.7495C78.9603 35.7936 78.9728 35.8418 78.9749 35.8911C78.977 35.9403 78.9687 35.9894 78.9506 36.0353C78.9325 36.0811 78.9049 36.1226 78.8697 36.157C78.8344 36.1915 78.7924 36.2181 78.7461 36.2353C78.4883 36.3546 78.1912 36.493 77.974 36.203C77.6123 35.7086 77.3486 35.1496 77.197 34.5561C77.1195 34.2684 77.4298 34.0142 77.8105 34.013Z" fill="#FCFBFB"/>
<path d="M102.493 51C102.762 51.0673 103.038 51.094 103.305 51.1715C103.979 51.3675 104.558 51.7263 105.092 52.1713C105.875 52.8241 106.517 53.6201 107.265 54.3089C107.402 54.4346 107.53 54.5737 107.699 54.6589C107.715 54.7144 107.765 54.7395 107.805 54.7708C108.216 55.0885 108.66 55.3426 109.164 55.474C109.709 55.6161 110.26 55.7727 110.812 55.4904C110.677 55.8009 110.469 56.0678 110.299 56.3572C110.202 56.522 110.091 56.6785 109.986 56.8387C109.93 56.7755 109.852 56.7724 109.778 56.7689C109.399 56.7438 109.025 56.6678 108.667 56.543C107.758 56.2423 107.012 55.688 106.328 55.0351C105.712 54.4449 105.157 53.791 104.52 53.2198C103.962 52.7194 103.348 52.3293 102.591 52.2098C101.9 52.1009 101.229 52.1661 100.59 52.4628C99.9135 52.7769 99.3756 53.2737 98.8735 53.8075C98.4028 54.3053 97.9229 54.7934 97.4265 55.2656C97.2713 55.4249 97.0968 55.5642 96.907 55.6803C96.8239 55.668 96.7977 55.5946 96.7664 55.5366C96.6689 55.3564 96.5806 55.1711 96.4877 54.9889C96.4327 54.8812 96.3388 54.7908 96.3409 54.6574C96.481 54.5342 96.6242 54.4141 96.7613 54.2873C97.5025 53.6001 98.1431 52.8097 98.9228 52.161C99.4479 51.7237 100.019 51.3716 100.68 51.1756C100.952 51.0945 101.234 51.0663 101.509 51H102.493Z" fill="#949BB4"/>
<path d="M93 54.9725C93.326 54.5573 93.7956 54.4793 94.2761 54.4469C94.9624 54.4007 95.6359 54.5054 96.3027 54.6604C96.0089 54.9465 95.6575 55.1666 95.2719 55.3061C94.5872 55.5627 93.8921 55.8352 93.1571 55.4575L93 55.2188V54.9725Z" fill="#474756"/>
<path d="M96.9068 55.6803C97.0965 55.5642 97.271 55.4249 97.4263 55.2656C97.9226 54.7934 98.4016 54.3053 98.8728 53.8064C99.3748 53.2727 99.9127 52.7759 100.589 52.4618C101.228 52.1651 101.899 52.1025 102.591 52.2087C103.347 52.3283 103.961 52.7184 104.519 53.2188C105.156 53.79 105.71 54.4439 106.328 55.0341C107.013 55.687 107.758 56.2413 108.667 56.543C109.025 56.6682 109.399 56.7445 109.778 56.7699C109.853 56.7735 109.932 56.7766 109.987 56.8397C109.572 57.51 109.161 58.1828 108.742 58.8506C108.64 59.0257 108.492 59.1704 108.315 59.2696C108.138 59.3688 107.938 59.4191 107.735 59.4151C107.666 59.4151 107.596 59.4228 107.526 59.4264L107.135 59.4028C107.153 59.3478 107.174 59.294 107.199 59.2416C107.263 59.1241 107.222 59.0287 107.145 58.9388C107.069 58.849 106.956 58.8393 106.841 58.8362C104.599 58.8151 102.356 58.8875 100.117 58.7977C99.4343 58.77 98.8451 58.4728 98.3333 58.0278C97.9611 57.7055 97.7086 57.2934 97.4786 56.8623C97.2753 56.4917 97.1065 56.0981 96.8657 55.7444L96.9068 55.6803Z" fill="#5B5D6E"/>
<path d="M101.721 68.9973H101.121C101.121 68.8921 101.126 68.7869 101.121 68.6822C101.114 68.5338 101 68.4374 100.841 68.4374C100.681 68.4374 100.567 68.5338 100.561 68.6822C100.556 68.7848 100.561 68.8921 100.561 68.9973H99.961C99.961 68.9039 99.961 68.8105 99.961 68.7171C99.9579 68.5313 99.8501 68.4445 99.6628 68.4327C99.5488 68.425 99.5006 68.5292 99.3984 68.5523V67.647C99.3984 67.376 99.4431 67.3185 99.7064 67.2492C99.8876 67.2015 99.9754 67.0906 99.9595 66.93C99.9436 66.7693 99.8311 66.6805 99.6386 66.68C99.2644 66.68 98.8907 66.68 98.5171 66.68C98.5171 66.4983 98.5171 66.3167 98.5171 66.135C98.5171 65.8932 98.613 65.7993 98.86 65.7993C99.1069 65.7993 99.3604 65.7993 99.6089 65.748C100.626 65.5288 101.444 64.5224 101.408 63.4569C101.381 62.6501 101.031 62.0496 100.398 61.5948C99.9364 61.2633 99.4087 61.1411 98.8435 61.1581C98.7955 61.1595 98.7477 61.1501 98.7039 61.1305C98.66 61.1108 98.6211 61.0815 98.5902 61.0447C98.5593 61.0079 98.5371 60.9646 98.5253 60.918C98.5136 60.8714 98.5125 60.8228 98.5222 60.7757C98.5365 60.7254 98.5458 60.6739 98.5499 60.6217C98.5412 60.1891 98.88 59.9935 99.1957 59.9971C99.7932 60.0038 100.391 59.9971 100.988 59.9971C101.688 60.6763 102.379 61.3661 103.058 62.0665C102.501 62.8559 102.408 63.7063 102.846 64.5588C103.364 65.5653 104.483 66.0282 105.58 65.7049C105.853 65.6243 106.08 65.4585 106.332 65.3405C106.726 65.7177 107.116 66.0985 107.486 66.4989C107.335 66.6662 107.123 66.6703 106.928 66.6764C106.446 66.6908 105.963 66.6816 105.481 66.6816H104.328C104.266 66.6769 104.204 66.6944 104.153 66.731C104.103 66.7675 104.067 66.8207 104.052 66.8812C104.031 66.9431 104.032 67.0104 104.055 67.0714C104.079 67.1324 104.123 67.1833 104.18 67.2153C104.24 67.2538 104.323 67.2579 104.394 67.2795C104.503 67.3118 104.595 67.3821 104.6 67.4915C104.611 67.8441 104.604 68.1966 104.604 68.5744C104.576 68.5578 104.55 68.5388 104.526 68.5174C104.435 68.4081 104.31 68.4148 104.205 68.4569C104.149 68.4774 104.103 68.5165 104.073 68.5675C104.043 68.6184 104.031 68.6782 104.04 68.7366C104.045 68.8241 104.045 68.9118 104.04 68.9994H103.442C103.442 68.8967 103.446 68.7889 103.442 68.6842C103.435 68.5359 103.321 68.4394 103.162 68.4394C103.002 68.4394 102.888 68.5354 102.881 68.6842C102.877 68.7869 102.881 68.8941 102.881 68.9994H102.281C102.281 68.8967 102.286 68.7889 102.281 68.6842C102.275 68.5359 102.161 68.4394 102.001 68.4394C101.842 68.4394 101.728 68.5359 101.721 68.6842C101.716 68.7869 101.721 68.8921 101.721 68.9973ZM101.99 67.2487C102.144 67.2487 102.295 67.2487 102.447 67.2487C102.747 67.2487 102.84 67.1578 102.809 66.854C102.771 66.4886 102.72 66.1237 102.655 65.7618C102.629 65.6163 102.553 65.4843 102.441 65.3881C102.329 65.292 102.187 65.2376 102.039 65.2342C101.709 65.2229 101.438 65.3959 101.366 65.7079C101.273 66.1179 101.214 66.5349 101.19 66.9546C101.18 67.1471 101.282 67.2415 101.481 67.2472C101.65 67.2523 101.82 67.2487 101.99 67.2487Z" fill="#F9EAC7"/>
<path d="M100.991 59.9955C100.394 59.9955 99.7965 60.0042 99.199 59.9955C98.8834 59.9919 98.5446 60.1875 98.5533 60.6201C98.5492 60.6723 98.5399 60.7238 98.5256 60.7741C98.5159 60.8212 98.5169 60.8698 98.5287 60.9164C98.5405 60.963 98.5627 61.0063 98.5936 61.0431C98.6245 61.0799 98.6634 61.1092 98.7072 61.1289C98.7511 61.1485 98.7989 61.1579 98.8469 61.1565C99.4116 61.1395 99.9403 61.2591 100.402 61.5932C101.035 62.048 101.384 62.6485 101.411 63.4553C101.447 64.5208 100.63 65.5272 99.6123 65.7464C99.3638 65.8003 99.1143 65.7977 98.8633 65.7977C98.6123 65.7977 98.522 65.8916 98.5204 66.1334C98.5204 66.315 98.5204 66.4967 98.5204 66.6784C98.0518 66.6784 97.5831 66.6651 97.1155 66.6784C96.5129 66.6969 95.9518 66.2196 95.9118 65.6191C95.9015 65.4682 95.8871 65.3173 95.8871 65.1659C95.8871 64.1769 95.8774 63.1874 95.8871 62.1983C95.8964 61.4557 95.9862 60.7218 96.2434 60.0181C96.3158 59.8205 96.401 59.6286 96.48 59.4335C97.7684 59.4315 99.0569 59.4287 100.345 59.4253C100.374 59.4241 100.403 59.4292 100.429 59.4402C100.456 59.4512 100.48 59.4678 100.499 59.489C100.663 59.6619 100.828 59.8277 100.991 59.9955ZM97.3588 63.482C97.366 64.4417 98.1113 65.227 99.0995 65.2244C100.088 65.2218 100.824 64.4571 100.837 63.4953C100.849 62.5335 100.062 61.7549 99.1046 61.7477C98.6439 61.7491 98.2024 61.9318 97.8756 62.2565C97.5488 62.5811 97.3631 63.0214 97.3588 63.482Z" fill="#F4DBB3"/>
<path d="M100.991 59.9956C100.828 59.8283 100.663 59.662 100.501 59.4932C100.482 59.472 100.458 59.4554 100.431 59.4444C100.405 59.4334 100.376 59.4283 100.347 59.4295C99.059 59.4329 97.7706 59.4357 96.4822 59.4377C96.3138 59.427 96.1424 59.4341 95.9781 59.39C95.6906 59.3211 95.4416 59.1421 95.2846 58.8916C94.8586 58.2096 94.4371 57.5249 94.0142 56.8413C94.0332 56.8043 94.0686 56.8033 94.104 56.7997C94.6535 56.75 95.1925 56.6188 95.7035 56.4106C96.1129 56.2283 96.5026 56.0048 96.8666 55.7434C97.1069 56.0971 97.2773 56.4902 97.477 56.8659C97.7069 57.297 97.9595 57.7091 98.3316 58.0315C98.8449 58.4744 99.4327 58.7716 100.115 58.8013C102.357 58.8932 104.6 58.8188 106.839 58.8398C106.954 58.8398 107.064 58.8455 107.144 58.9425C107.224 59.0395 107.261 59.1277 107.198 59.2453C107.173 59.2976 107.151 59.3514 107.133 59.4064C106.977 59.4285 106.819 59.4378 106.661 59.4341C104.936 59.4341 103.212 59.4341 101.486 59.4341H101.316L101.849 60.0069C102.392 60.5705 102.946 61.1236 103.51 61.6662L103.865 62.045C103.772 62.2174 103.608 62.3257 103.479 62.4648L103.061 62.065C102.381 61.3649 101.691 60.6752 100.991 59.9956Z" fill="#484756"/>
<path d="M103.51 61.6626C102.944 61.1209 102.39 60.5678 101.849 60.0033L107.732 60.0002C107.907 60.4108 107.989 60.8439 108.047 61.2833C108.126 61.8766 108.077 62.4735 108.083 63.0683C108.091 63.9106 108.083 64.7523 108.083 65.5945C108.084 65.7706 108.029 65.9424 107.924 66.0841L106.744 64.8965C107.318 64.1133 107.396 63.2664 106.962 62.4145C106.398 61.3089 105.109 60.8722 103.97 61.3582C103.8 61.4301 103.626 61.5029 103.51 61.6626Z" fill="#F9EAC7"/>
<path d="M96.8659 55.7445C96.5019 56.0059 96.1121 56.2294 95.7027 56.4117C95.1917 56.6196 94.6527 56.7503 94.1033 56.7997C94.0678 56.8033 94.0324 56.8044 94.0134 56.8413C93.7116 56.3891 93.4241 55.9303 93.1572 55.4576C93.8923 55.8354 94.5873 55.5603 95.2721 55.3062C95.6577 55.1667 96.0091 54.9466 96.3028 54.6606L96.3408 54.6575C96.3408 54.7909 96.4327 54.8812 96.4876 54.989C96.5805 55.1712 96.6688 55.3565 96.7663 55.5366C96.7976 55.5946 96.8238 55.668 96.907 55.6804C96.8931 55.7019 96.8793 55.7219 96.8659 55.7445Z" fill="#7E8398"/>
<path d="M107.732 60.0003L101.848 60.0034L101.316 59.4306H101.489C103.214 59.4306 104.939 59.4306 106.664 59.4306C106.822 59.4342 106.98 59.425 107.136 59.4029L107.528 59.4265C107.586 59.6226 107.7 59.796 107.732 60.0003Z" fill="#F3DBB3"/>
<path d="M110.812 55.4904C110.26 55.7727 109.709 55.6162 109.164 55.474C108.66 55.3426 108.215 55.0885 107.805 54.7709C107.764 54.7395 107.715 54.7144 107.699 54.659C108.467 54.4896 109.239 54.3685 110.027 54.4788C110.236 54.5042 110.439 54.5649 110.628 54.6585C111.06 54.8817 111.108 55.106 110.812 55.4904Z" fill="#474756"/>
<path d="M104.042 68.9972C104.046 68.9097 104.046 68.822 104.042 68.7345C104.033 68.676 104.044 68.6163 104.074 68.5654C104.104 68.5144 104.15 68.4753 104.206 68.4547C104.311 68.4132 104.436 68.406 104.527 68.5153C104.551 68.5366 104.577 68.5557 104.605 68.5723C104.605 68.1945 104.612 67.8419 104.601 67.4893C104.597 67.378 104.506 67.3097 104.396 67.2774C104.324 67.2558 104.242 67.2517 104.181 67.2132C104.124 67.1812 104.08 67.1303 104.057 67.0693C104.033 67.0083 104.032 66.941 104.053 66.8791C104.068 66.8186 104.104 66.7654 104.154 66.7288C104.205 66.6923 104.267 66.6748 104.329 66.6794H105.486C105.486 67.2517 105.486 67.824 105.486 68.3967C105.486 68.7704 105.257 68.9983 104.886 68.9988C104.601 69.0003 104.322 68.9983 104.042 68.9972Z" fill="#F4DBB4"/>
<path d="M98.5186 66.6806C98.8923 66.6806 99.266 66.6806 99.6402 66.6806C99.8327 66.6806 99.9451 66.771 99.961 66.9306C99.9769 67.0902 99.8891 67.2021 99.7079 67.2498C99.4436 67.3191 99.3999 67.3766 99.3999 67.6476V68.5529C99.5026 68.5299 99.5503 68.4257 99.6643 68.4334C99.8517 68.4452 99.9595 68.5319 99.9625 68.7177C99.9625 68.8111 99.9625 68.9045 99.9625 68.9979C99.6705 68.9979 99.3784 69.0025 99.0863 68.9979C99.0116 68.9998 98.9374 68.9865 98.868 68.9588C98.7986 68.9311 98.7356 68.8896 98.6828 68.8368C98.63 68.784 98.5885 68.721 98.5608 68.6516C98.5331 68.5823 98.5198 68.508 98.5217 68.4334C98.517 67.8488 98.5191 67.2647 98.5186 66.6806Z" fill="#F4DBB4"/>
<path d="M106.742 64.896L107.923 66.0837C107.832 66.2782 107.707 66.4378 107.487 66.4973C107.117 66.097 106.727 65.7162 106.333 65.3389C106.202 65.1993 106.069 65.0601 105.937 64.9212C106.043 64.759 106.202 64.645 106.326 64.4993L106.742 64.896Z" fill="#4B4B58"/>
<path d="M100.56 68.9972C100.56 68.892 100.556 68.7868 100.56 68.6821C100.567 68.5338 100.681 68.4373 100.84 68.4373C101 68.4373 101.114 68.5338 101.121 68.6821C101.125 68.7847 101.121 68.892 101.121 68.9972H100.56Z" fill="#F4DBB4"/>
<path d="M101.722 68.9972C101.722 68.892 101.716 68.7868 101.722 68.6821C101.728 68.5338 101.842 68.4373 102.002 68.4373C102.162 68.4373 102.275 68.5338 102.282 68.6821C102.287 68.7847 102.282 68.8925 102.282 68.9972H101.722Z" fill="#F4DBB4"/>
<path d="M102.881 68.9972C102.881 68.892 102.877 68.7868 102.881 68.6821C102.888 68.5333 103.002 68.4373 103.162 68.4373C103.321 68.4373 103.435 68.5338 103.442 68.6821C103.447 68.7847 103.442 68.8925 103.442 68.9972H102.881Z" fill="#F4DBB4"/>
<path d="M105.939 64.9211C106.071 65.0601 106.204 65.1993 106.336 65.3389C106.084 65.457 105.856 65.6227 105.584 65.7033C104.487 66.0267 103.368 65.5637 102.85 64.5573C102.412 63.7048 102.504 62.8543 103.061 62.065L103.478 62.4612C103.447 62.5238 103.418 62.5869 103.384 62.6485C103.025 63.3214 103.1 64.0312 103.609 64.6373C104 65.1028 104.76 65.3769 105.445 65.1362C105.616 65.0756 105.76 64.9602 105.939 64.9211Z" fill="#F3DAB3"/>
<path d="M101.99 67.2487C101.821 67.2487 101.651 67.2523 101.481 67.2487C101.282 67.243 101.179 67.1486 101.19 66.9561C101.214 66.536 101.274 66.1187 101.367 65.7084C101.439 65.3964 101.71 65.2234 102.04 65.2347C102.188 65.2381 102.33 65.2925 102.442 65.3886C102.554 65.4848 102.63 65.6168 102.656 65.7623C102.72 66.1242 102.771 66.4891 102.81 66.8545C102.841 67.1583 102.748 67.2471 102.448 67.2492C102.294 67.2492 102.143 67.2492 101.991 67.2492L101.99 67.2487Z" fill="#A08773"/>
<path d="M97.3589 63.482C97.3632 63.0215 97.5488 62.5813 97.8755 62.2567C98.2022 61.9321 98.6436 61.7493 99.1041 61.7478C100.061 61.755 100.849 62.5402 100.836 63.4954C100.823 64.4505 100.084 65.2219 99.0995 65.2245C98.1155 65.227 97.3661 64.4418 97.3589 63.482Z" fill="#A08773"/>
<path d="M105.939 64.9211C105.76 64.958 105.616 65.075 105.445 65.1361C104.76 65.3768 104 65.1028 103.609 64.6373C103.1 64.0311 103.025 63.3213 103.384 62.6485C103.418 62.5869 103.447 62.5237 103.478 62.4611C103.608 62.322 103.771 62.2137 103.864 62.0413C103.961 62.0516 104.028 61.9859 104.102 61.9448C105.191 61.3423 106.611 62.1609 106.645 63.4055C106.656 63.8084 106.525 64.161 106.328 64.4992C106.204 64.645 106.046 64.7589 105.939 64.9211Z" fill="#5B5D6E"/>
<path d="M106.328 64.4982C106.525 64.16 106.656 63.8074 106.645 63.4045C106.61 62.1599 105.19 61.3413 104.102 61.9438C104.028 61.9849 103.96 62.0506 103.864 62.0403L103.509 61.6615C103.623 61.5019 103.799 61.429 103.968 61.3572C105.108 60.8711 106.399 61.3059 106.961 62.4134C107.396 63.2669 107.318 64.1123 106.742 64.8949L106.328 64.4982Z" fill="#F3DAB3"/>
<defs>
<linearGradient id="paint0_linear_4596_9806" x1="12070.8" y1="-56484.1" x2="12281" y2="-56756.2" gradientUnits="userSpaceOnUse">
<stop stop-color="#005826"/>
<stop offset="0.5" stop-color="#00A651"/>
<stop offset="1" stop-color="#72BF44"/>
</linearGradient>
<linearGradient id="paint1_linear_4596_9806" x1="12068" y1="-57384.1" x2="12276.1" y2="-57648.3" gradientUnits="userSpaceOnUse">
<stop stop-color="#00A651"/>
<stop offset="0.5" stop-color="#8DC63F"/>
<stop offset="1" stop-color="#BBD976"/>
</linearGradient>
<linearGradient id="paint2_linear_4596_9806" x1="3348.16" y1="2331.71" x2="3546.58" y2="2381.26" gradientUnits="userSpaceOnUse">
<stop stop-color="#005826"/>
<stop offset="0.5" stop-color="#00A651"/>
<stop offset="1" stop-color="#72BF44"/>
</linearGradient>
<linearGradient id="paint3_linear_4596_9806" x1="3329.51" y1="2320.11" x2="3488.48" y2="2359.84" gradientUnits="userSpaceOnUse">
<stop stop-color="#005826"/>
<stop offset="0.5" stop-color="#00A651"/>
<stop offset="1" stop-color="#72BF44"/>
</linearGradient>
<linearGradient id="paint4_linear_4596_9806" x1="84808.1" y1="-25385.9" x2="85091.9" y2="-25916.2" gradientUnits="userSpaceOnUse">
<stop stop-color="#005826"/>
<stop offset="0.5" stop-color="#00A651"/>
<stop offset="1" stop-color="#72BF44"/>
</linearGradient>
<linearGradient id="paint5_linear_4596_9806" x1="85506" y1="-25246.1" x2="85777.2" y2="-25759.8" gradientUnits="userSpaceOnUse">
<stop stop-color="#00A651"/>
<stop offset="0.5" stop-color="#8DC63F"/>
<stop offset="1" stop-color="#BBD976"/>
</linearGradient>
<linearGradient id="paint6_linear_4596_9806" x1="53995.2" y1="-79976.6" x2="54336.9" y2="-80634.7" gradientUnits="userSpaceOnUse">
<stop stop-color="#00A651"/>
<stop offset="1" stop-color="#8DC63F"/>
</linearGradient>
<linearGradient id="paint7_linear_4596_9806" x1="54386.8" y1="-79830.8" x2="54670.8" y2="-80382.4" gradientUnits="userSpaceOnUse">
<stop stop-color="#004B24"/>
<stop offset="0.5" stop-color="#00A651"/>
<stop offset="1" stop-color="#72BF44"/>
</linearGradient>
<linearGradient id="paint8_linear_4596_9806" x1="54839.8" y1="-6283.17" x2="55471.9" y2="-6575.51" gradientUnits="userSpaceOnUse">
<stop stop-color="#00A651"/>
<stop offset="1" stop-color="#8DC63F"/>
</linearGradient>
<linearGradient id="paint9_linear_4596_9806" x1="54591.4" y1="-6261.31" x2="55201.9" y2="-6543.03" gradientUnits="userSpaceOnUse">
<stop stop-color="#00A651"/>
<stop offset="1" stop-color="#8DC63F"/>
</linearGradient>
<linearGradient id="paint10_linear_4596_9806" x1="-2934.29" y1="-65263.3" x2="-2965.09" y2="-65652" gradientUnits="userSpaceOnUse">
<stop stop-color="#005826"/>
<stop offset="0.5" stop-color="#00A651"/>
<stop offset="1" stop-color="#72BF44"/>
</linearGradient>
<linearGradient id="paint11_linear_4596_9806" x1="-2898.6" y1="-63630.3" x2="-2927.12" y2="-63997.6" gradientUnits="userSpaceOnUse">
<stop stop-color="#00A651"/>
<stop offset="0.5" stop-color="#8DC63F"/>
<stop offset="1" stop-color="#BBD976"/>
</linearGradient>
<linearGradient id="paint12_linear_4596_9806" x1="-40896.4" y1="-18397.5" x2="-41006.9" y2="-18598.4" gradientUnits="userSpaceOnUse">
<stop stop-color="#00A651"/>
<stop offset="1" stop-color="#8DC63F"/>
</linearGradient>
<linearGradient id="paint13_linear_4596_9806" x1="-41512.6" y1="-18536.3" x2="-41620.2" y2="-18733" gradientUnits="userSpaceOnUse">
<stop stop-color="#00A651"/>
<stop offset="1" stop-color="#8DC63F"/>
</linearGradient>
<linearGradient id="paint14_linear_4596_9806" x1="-15509.4" y1="-100369" x2="-16002.5" y2="-101018" gradientUnits="userSpaceOnUse">
<stop stop-color="#005826"/>
<stop offset="0.5" stop-color="#00A651"/>
<stop offset="1" stop-color="#72BF44"/>
</linearGradient>
<linearGradient id="paint15_linear_4596_9806" x1="-15445.9" y1="-101668" x2="-15931.3" y2="-102298" gradientUnits="userSpaceOnUse">
<stop stop-color="#00A651"/>
<stop offset="0.5" stop-color="#8DC63F"/>
<stop offset="1" stop-color="#BBD976"/>
</linearGradient>
<linearGradient id="paint16_linear_4596_9806" x1="7016.56" y1="312.786" x2="6547.14" y2="429.067" gradientUnits="userSpaceOnUse">
<stop stop-color="#005826"/>
<stop offset="0.5" stop-color="#00A651"/>
<stop offset="1" stop-color="#72BF44"/>
</linearGradient>
<linearGradient id="paint17_linear_4596_9806" x1="7086.03" y1="295.085" x2="6708.85" y2="388.944" gradientUnits="userSpaceOnUse">
<stop stop-color="#005826"/>
<stop offset="0.5" stop-color="#00A651"/>
<stop offset="1" stop-color="#72BF44"/>
</linearGradient>
<linearGradient id="paint18_linear_4596_9806" x1="-120202" y1="-39399.9" x2="-120860" y2="-40645.8" gradientUnits="userSpaceOnUse">
<stop stop-color="#005826"/>
<stop offset="0.5" stop-color="#00A651"/>
<stop offset="1" stop-color="#72BF44"/>
</linearGradient>
<linearGradient id="paint19_linear_4596_9806" x1="-121138" y1="-39654.1" x2="-121779" y2="-40869.7" gradientUnits="userSpaceOnUse">
<stop stop-color="#00A651"/>
<stop offset="0.5" stop-color="#8DC63F"/>
<stop offset="1" stop-color="#BBD976"/>
</linearGradient>
<linearGradient id="paint20_linear_4596_9806" x1="-81586.9" y1="-136433" x2="-82387" y2="-137978" gradientUnits="userSpaceOnUse">
<stop stop-color="#00A651"/>
<stop offset="1" stop-color="#8DC63F"/>
</linearGradient>
<linearGradient id="paint21_linear_4596_9806" x1="-81630.7" y1="-137416" x2="-82307.5" y2="-138715" gradientUnits="userSpaceOnUse">
<stop stop-color="#004B24"/>
<stop offset="0.5" stop-color="#00A651"/>
<stop offset="1" stop-color="#72BF44"/>
</linearGradient>
<linearGradient id="paint22_linear_4596_9806" x1="-63418.6" y1="-8351.47" x2="-64916.4" y2="-9052.72" gradientUnits="userSpaceOnUse">
<stop stop-color="#00A651"/>
<stop offset="1" stop-color="#8DC63F"/>
</linearGradient>
<linearGradient id="paint23_linear_4596_9806" x1="-63085.6" y1="-8302.02" x2="-64531.8" y2="-8979.04" gradientUnits="userSpaceOnUse">
<stop stop-color="#00A651"/>
<stop offset="1" stop-color="#8DC63F"/>
</linearGradient>
<linearGradient id="paint24_linear_4596_9806" x1="15006.6" y1="-117440" x2="15076.9" y2="-118340" gradientUnits="userSpaceOnUse">
<stop stop-color="#005826"/>
<stop offset="0.5" stop-color="#00A651"/>
<stop offset="1" stop-color="#72BF44"/>
</linearGradient>
<linearGradient id="paint25_linear_4596_9806" x1="14987.5" y1="-117966" x2="15056.4" y2="-118841" gradientUnits="userSpaceOnUse">
<stop stop-color="#00A651"/>
<stop offset="0.5" stop-color="#8DC63F"/>
<stop offset="1" stop-color="#BBD976"/>
</linearGradient>
<linearGradient id="paint26_linear_4596_9806" x1="92934.4" y1="-37700.5" x2="93198.2" y2="-38180.7" gradientUnits="userSpaceOnUse">
<stop stop-color="#00A651"/>
<stop offset="1" stop-color="#8DC63F"/>
</linearGradient>
<linearGradient id="paint27_linear_4596_9806" x1="91604.9" y1="-37016.9" x2="91854.8" y2="-37473.8" gradientUnits="userSpaceOnUse">
<stop stop-color="#00A651"/>
<stop offset="1" stop-color="#8DC63F"/>
</linearGradient>
</defs>
</svg>
