<svg width="30" height="30" viewBox="0 0 30 30" fill="none" xmlns="http://www.w3.org/2000/svg">
<path d="M14.0617 0H15.9366C16.4475 0.066793 16.9607 0.117181 17.4681 0.202722C20.2857 0.684335 22.7782 1.862 24.9126 3.7615C27.5228 6.08343 29.1545 8.96783 29.768 12.4147C29.8652 12.9602 29.9227 13.5127 29.9982 14.0617V15.9366C29.9769 16.0108 29.9607 16.0863 29.9496 16.1627C29.7738 18.4765 29.1094 20.6431 27.899 22.6223C25.5178 26.5227 22.0798 28.9214 17.5794 29.7703C17.0357 29.8729 16.4826 29.9244 15.9342 30H14.0617C13.6955 29.9549 13.3287 29.9156 12.9643 29.8635C9.99024 29.4364 7.36012 28.2493 5.10908 26.2567C2.49185 23.9382 0.858934 21.0556 0.234361 17.6122C0.133586 17.058 0.0773392 16.4955 0 15.9366V14.0617C0.0656212 13.5607 0.117181 13.0563 0.199207 12.5582C0.72652 9.43831 2.09871 6.73847 4.32104 4.48626C6.56212 2.21178 9.2643 0.784524 12.4159 0.23026C12.9613 0.134758 13.5127 0.0755815 14.0617 0ZM28.1234 14.9856C28.1105 7.75326 22.228 1.87489 14.9991 1.87489C7.77025 1.87489 1.86434 7.77962 1.87489 15.012C1.88544 22.2444 7.77259 28.1234 14.9991 28.1234C22.2333 28.1234 28.1357 22.2163 28.1234 14.9856Z" fill="white"/>
<path d="M15.0974 4.99536C17.9214 4.99536 20.3389 7.39756 20.3066 10.3095C20.2885 11.9407 19.5309 13.2589 18.3146 14.2936C17.8177 14.7149 17.2131 15.0213 16.6283 15.3237C16.1456 15.5727 15.9399 15.8088 15.9381 16.3601C15.9381 16.731 15.9422 17.1019 15.9381 17.4733C15.9288 18.0223 15.528 18.4366 15.0071 18.4413C14.4863 18.4459 14.0697 18.0264 14.0697 17.4839C14.0644 16.9671 14.0299 16.4439 14.0914 15.9336C14.2273 14.8139 14.8425 14.023 15.896 13.6105C16.6808 13.3039 17.3544 12.7667 17.8277 12.0696C19.2766 10.0037 17.8898 7.56337 15.9751 7.02024C13.792 6.40153 11.695 7.9155 11.5538 10.2169C11.545 10.4382 11.4848 10.6545 11.3781 10.8485C11.1625 11.2053 10.7371 11.3296 10.3527 11.2059C9.92327 11.0677 9.66606 10.7062 9.68891 10.2175C9.78441 8.17271 10.723 6.63648 12.5065 5.62989C13.2758 5.19222 14.1201 5.00767 15.0974 4.99536Z" fill="white"/>
<path d="M14.9879 23.7415C14.742 23.7392 14.5024 23.6642 14.2993 23.5257C14.0961 23.3873 13.9386 23.1917 13.8466 22.9638C13.7546 22.7358 13.7323 22.4857 13.7825 22.245C13.8327 22.0044 13.9532 21.784 14.1287 21.6118C14.3041 21.4397 14.5267 21.3234 14.7682 21.2777C15.0098 21.2321 15.2595 21.2591 15.4857 21.3553C15.7119 21.4516 15.9044 21.6128 16.039 21.8185C16.1736 22.0242 16.2441 22.2652 16.2417 22.5111C16.2417 22.6746 16.2091 22.8366 16.1458 22.9874C16.0825 23.1382 15.9898 23.2749 15.8731 23.3895C15.7563 23.504 15.6179 23.5942 15.4659 23.6546C15.3139 23.715 15.1514 23.7446 14.9879 23.7415Z" fill="white"/>
</svg>
