<svg width="37" height="30" viewBox="0 0 37 30" fill="none" xmlns="http://www.w3.org/2000/svg">
<path d="M0.00195312 0.318057C0.196739 0.0630468 0.455514 0 0.769806 0C8.07382 0.00690064 15.3772 0.00878264 22.68 0.00564598C23.2879 0.00564598 23.4328 0.149618 23.4328 0.748092C23.4328 1.50089 23.4252 2.25369 23.4412 3.00648C23.4446 3.07872 23.4622 3.14958 23.4931 3.21498C23.5239 3.28038 23.5674 3.33904 23.621 3.38759C24.6321 4.18574 25.4707 5.18074 26.0861 6.31238C26.7015 7.44401 27.0809 8.68875 27.2013 9.97126C27.3218 11.2538 27.1807 12.5474 26.7867 13.7738C26.3928 15.0002 25.754 16.134 24.9092 17.1064C24.8932 17.1243 24.8828 17.1459 24.8951 17.1271L26.2238 18.4511C26.2972 18.3626 26.412 18.2008 26.5503 18.0615C26.9022 17.7058 27.161 17.7058 27.5129 18.0549C28.1133 18.6515 28.7121 19.25 29.3093 19.8503C31.2722 21.8132 33.2364 23.7752 35.2018 25.7363C35.5961 26.1277 35.9659 26.5258 36.1428 27.0687V27.7745C35.9339 28.4332 35.5594 28.9582 34.8696 29.1681C34.1225 29.3949 33.4864 29.1794 32.9415 28.6317C31.1436 26.83 29.3454 25.0336 27.5468 23.2426C26.6905 22.3863 25.8342 21.5297 24.9779 20.6728C24.5723 20.2672 24.5695 20.0348 24.9779 19.6377C25.1028 19.5255 25.2338 19.4203 25.3703 19.3224L24.0378 18.0107C23.6915 18.228 23.4083 18.4812 23.4205 19.0618C23.4666 21.2261 23.4394 23.3904 23.4384 25.5546C23.445 25.672 23.4422 25.7897 23.4299 25.9066C23.4192 26.0319 23.3614 26.1484 23.2682 26.2328C23.1749 26.3171 23.0532 26.363 22.9275 26.3611C22.8081 26.3708 22.6893 26.3365 22.5936 26.2645C22.4978 26.1925 22.4318 26.0879 22.408 25.9706C22.3822 25.844 22.3733 25.7146 22.3817 25.5857C22.3817 23.5977 22.3817 21.61 22.3817 19.6226V19.1785L22.0429 19.3394C18.916 20.8196 15.8436 20.7019 12.8268 19.0006C12.5964 18.8716 12.338 18.8009 12.074 18.7945C9.54554 18.7795 7.01614 18.7851 4.48768 18.7842C4.34703 18.7892 4.20626 18.7785 4.068 18.7522C3.94951 18.7327 3.84296 18.6686 3.77018 18.5731C3.6974 18.4776 3.6639 18.3578 3.67654 18.2384C3.67215 18.1128 3.71701 17.9904 3.80157 17.8974C3.88614 17.8044 4.00369 17.7481 4.12916 17.7406C4.25791 17.7269 4.38745 17.7222 4.51685 17.7265H11.1283C11.0398 17.6145 10.9984 17.5505 10.9457 17.4959C9.80932 16.3427 8.99609 14.911 8.58761 13.3443C8.51515 13.062 8.39376 13.0093 8.13028 13.0121C6.86088 13.0262 5.58959 13.03 4.32019 13.0065C4.21329 13.0018 4.10837 12.976 4.01147 12.9307C3.91457 12.8853 3.82761 12.8212 3.75559 12.742C3.49776 12.407 3.78852 11.9676 4.2562 11.9629C5.13791 11.9544 6.02057 11.9629 6.90228 11.9629H8.30813C8.13638 10.3611 8.35929 8.74154 8.95742 7.24567H4.51874C4.42464 7.24567 4.33054 7.24567 4.23644 7.24567C3.89862 7.22874 3.68219 7.03207 3.67184 6.73848C3.66337 6.42889 3.88262 6.19834 4.23644 6.19364C5.08333 6.18235 5.93023 6.19364 6.77713 6.19364C7.58921 6.19364 8.40035 6.20399 9.21149 6.18423C9.28799 6.17812 9.36229 6.15563 9.42934 6.11828C9.4964 6.08094 9.55464 6.02962 9.60012 5.9678C11.1556 3.48357 13.3641 1.97045 16.2577 1.4896C18.2658 1.15554 20.1892 1.4736 22.0156 2.37225C22.1097 2.4193 22.2038 2.46635 22.2979 2.50964C22.3064 2.50964 22.3196 2.50964 22.3553 2.50211V1.09062H1.06057C1.06057 1.28634 1.05493 1.48301 1.06057 1.67968C1.07093 1.97703 1.03799 2.24898 0.712406 2.37696C0.386821 2.50493 0.190152 2.30356 0.00195312 2.08243V0.318057ZM9.31782 10.8666C9.3182 12.5355 9.81363 14.1668 10.7414 15.5541C11.6692 16.9413 12.9877 18.0221 14.53 18.6598C16.0722 19.2975 17.769 19.4633 19.4056 19.1363C21.0421 18.8094 22.5449 18.0043 23.7237 16.8229C24.9026 15.6416 25.7045 14.1371 26.028 12.4998C26.3515 10.8626 26.1821 9.16616 25.5411 7.62524C24.9002 6.08432 23.8166 4.76816 22.4274 3.84331C21.0382 2.91846 19.4058 2.42649 17.7369 2.42965C16.6299 2.43015 15.5339 2.64884 14.5115 3.07323C13.4891 3.49763 12.5604 4.11939 11.7785 4.90297C10.9966 5.68655 10.3768 6.61658 9.95456 7.63987C9.53233 8.66317 9.31596 9.75965 9.31782 10.8666ZM25.9735 20.158C26.0403 20.2295 26.0939 20.2898 26.1513 20.3462C28.1876 22.3832 30.2243 24.4195 32.2612 26.4552C32.7684 26.9624 33.2662 27.478 33.7875 27.9702C33.8573 28.0428 33.9412 28.1003 34.0342 28.1391C34.1272 28.1779 34.2271 28.1972 34.3278 28.1957C34.4285 28.1942 34.5279 28.172 34.6196 28.1304C34.7114 28.0889 34.7936 28.0289 34.8612 27.9542C35.1435 27.6568 35.1435 27.2371 34.8612 26.9012C34.8 26.8297 34.7313 26.7657 34.6645 26.6989C32.2035 24.2391 29.7428 21.7791 27.2824 19.3187C27.2024 19.2387 27.1149 19.1653 27.0349 19.0909L25.9735 20.158Z" fill="white"/>
<path d="M0.00188199 3.84685C0.0583418 3.79039 0.105392 3.70193 0.172202 3.68311C0.353815 3.63042 0.56648 3.54008 0.723626 3.58901C0.863835 3.63606 0.972991 3.84308 1.04639 4.00211C1.09532 4.10939 1.0605 4.25618 1.0605 4.3851V28.9197H22.3788C22.3788 28.5969 22.3731 28.2939 22.3788 27.9909C22.3882 27.6145 22.6018 27.3849 22.9246 27.3934C23.2473 27.4019 23.4299 27.6183 23.4346 27.9862C23.4402 28.4567 23.4412 28.9272 23.4346 29.3977C23.4289 29.7741 23.2558 29.9623 22.8841 29.9924C22.7902 29.9994 22.6959 30.0016 22.6018 29.999C15.3467 29.999 8.09163 29.999 0.836546 29.999C0.505315 29.999 0.209842 29.9586 0 29.6734L0.00188199 3.84685Z" fill="white"/>
<path d="M11.4303 24.543H4.51867C4.38933 24.5472 4.25985 24.5434 4.13098 24.5317C4.01118 24.5177 3.90005 24.4622 3.81686 24.3749C3.73367 24.2875 3.68366 24.1738 3.6755 24.0535C3.66734 23.9331 3.70155 23.8137 3.7722 23.716C3.84284 23.6182 3.94547 23.5482 4.06229 23.5182C4.18834 23.491 4.31739 23.4803 4.44621 23.4862C9.13614 23.4862 13.8261 23.4862 18.516 23.4862C18.6447 23.4808 18.7736 23.4932 18.899 23.5229C19.0164 23.5473 19.1201 23.6157 19.1888 23.7139C19.2576 23.8122 19.2862 23.9331 19.2688 24.0518C19.2684 24.171 19.2237 24.2859 19.1434 24.3741C19.063 24.4622 18.9528 24.5174 18.8341 24.5288C18.7054 24.5444 18.5758 24.5491 18.4464 24.543H11.4303Z" fill="white"/>
<path d="M17.7604 3.82056C19.5229 3.82206 21.2207 4.48482 22.518 5.67779C23.8154 6.87076 24.6179 8.5071 24.7669 10.2633C24.9159 12.0194 24.4006 13.7676 23.3228 15.1621C22.2449 16.5566 20.6831 17.4959 18.9461 17.7944C16.6341 18.1811 14.5949 17.5459 12.8719 15.9425C12.5708 15.6602 12.5351 15.3468 12.7581 15.1106C12.9811 14.8744 13.2841 14.8763 13.5918 15.1699C14.4196 15.9635 15.4562 16.5049 16.5804 16.731C19.8052 17.4067 23.0479 15.2066 23.6313 11.9451C24.2222 8.64599 22.0071 5.4833 18.7466 4.96857C14.8019 4.34657 11.42 7.4848 11.8124 11.4539C11.882 12.1625 12.2067 12.8438 12.392 13.5439C12.4457 13.7452 12.4965 13.9993 12.4193 14.1715C12.2443 14.562 11.7192 14.5169 11.499 14.1066C11.069 13.307 10.8101 12.4267 10.7387 11.5217C10.4254 7.63724 13.0498 4.3908 16.9154 3.86949C17.1949 3.83279 17.4791 3.83561 17.7604 3.82056Z" fill="white"/>
</svg>
