<svg width="22" height="30" viewBox="0 0 22 30" fill="none" xmlns="http://www.w3.org/2000/svg">
<path d="M20.4939 2.18579H14.9676V0.585938C14.9676 0.262377 14.7052 0 14.3816 0H6.69819C6.37463 0 6.11225 0.262377 6.11225 0.585938V2.18579H0.585938C0.262377 2.18579 0 2.44817 0 2.77173V29.4141C0 29.7376 0.262377 30 0.585938 30H20.4939C20.8174 30 21.0798 29.7376 21.0798 29.4141V2.77173C21.0798 2.44811 20.8174 2.18579 20.4939 2.18579ZM7.28413 1.17188H13.7957V4.54866H7.28413V1.17188ZM19.9079 28.8281H1.17188V3.35767H6.11225V5.13466C6.11225 5.45822 6.37463 5.7206 6.69819 5.7206H14.3816C14.7052 5.7206 14.9676 5.45822 14.9676 5.13466V3.35767H19.9079V28.8281Z" fill="white"/>
<path d="M3.65771 8.7334H12.696C13.0196 8.7334 13.282 8.47102 13.282 8.14746C13.282 7.8239 13.0196 7.56152 12.696 7.56152H3.65771C3.33415 7.56152 3.07178 7.8239 3.07178 8.14746C3.07178 8.47102 3.33415 8.7334 3.65771 8.7334Z" fill="white"/>
<path d="M17.5992 10.5742H3.65771C3.33415 10.5742 3.07178 10.8366 3.07178 11.1602C3.07178 11.4837 3.33415 11.7461 3.65771 11.7461H17.5992C17.9228 11.7461 18.1851 11.4837 18.1851 11.1602C18.1851 10.8366 17.9228 10.5742 17.5992 10.5742Z" fill="white"/>
<path d="M17.5992 13.5872H3.65771C3.33415 13.5872 3.07178 13.8495 3.07178 14.1731C3.07178 14.4967 3.33415 14.759 3.65771 14.759H17.5992C17.9228 14.759 18.1851 14.4967 18.1851 14.1731C18.1851 13.8495 17.9228 13.5872 17.5992 13.5872Z" fill="white"/>
<path d="M17.5992 16.4226H3.65771C3.33415 16.4226 3.07178 16.685 3.07178 17.0085C3.07178 17.3321 3.33415 17.5945 3.65771 17.5945H17.5992C17.9228 17.5945 18.1851 17.3321 18.1851 17.0085C18.1851 16.685 17.9228 16.4226 17.5992 16.4226Z" fill="white"/>
<path d="M15.6499 8.73328H17.5993C17.9229 8.73328 18.1853 8.4709 18.1853 8.14734C18.1853 7.82378 17.9229 7.5614 17.5993 7.5614H15.6499C15.3263 7.5614 15.064 7.82378 15.064 8.14734C15.064 8.4709 15.3263 8.73328 15.6499 8.73328Z" fill="white"/>
<path d="M11.6765 23.0563C11.6765 22.8999 11.6139 22.7499 11.5027 22.6399L9.26833 20.4283C9.04703 20.2092 8.69282 20.2015 8.46227 20.411C7.68846 21.1137 7.24463 22.1128 7.24463 23.1522C7.24463 24.1462 7.63536 25.0803 8.34484 25.7825C8.459 25.8955 8.60801 25.952 8.75703 25.952C8.90604 25.952 9.05505 25.8956 9.16922 25.7825L11.5028 23.4728C11.614 23.3627 11.6765 23.2127 11.6765 23.0563ZM8.80372 24.4954C8.55152 24.0962 8.41657 23.6344 8.41657 23.1522C8.41657 22.6283 8.58217 22.1189 8.88199 21.6947L10.2578 23.0563L8.80372 24.4954Z" fill="white"/>
<path d="M16.6122 20.5219V20.5219L16.6121 20.5218C15.9042 19.8212 14.9636 19.4353 13.9633 19.4353C13.0237 19.4353 12.1246 19.7818 11.4318 20.411C11.3127 20.5191 11.2434 20.6714 11.2399 20.8322C11.2364 20.993 11.2992 21.1481 11.4135 21.2612L13.2272 23.0563L11.3144 24.9497C11.2032 25.0597 11.1406 25.2097 11.1406 25.3661C11.1406 25.5225 11.2032 25.6725 11.3144 25.7825C12.0222 26.4832 12.963 26.8691 13.9634 26.8691C16.0306 26.8691 17.7125 25.2017 17.7125 23.1522C17.7124 22.1582 17.3216 21.2242 16.6122 20.5219ZM12.7312 20.9166C13.106 20.7148 13.5282 20.6072 13.9632 20.6072C14.4496 20.6072 14.9154 20.7394 15.3185 20.9864L14.0601 22.232L12.7312 20.9166ZM13.9632 25.6972C13.4768 25.6972 13.0111 25.5651 12.608 25.3181L14.9278 23.0219L16.1533 21.8089C16.4056 22.2082 16.5405 22.67 16.5405 23.1522C16.5405 24.5555 15.3844 25.6972 13.9632 25.6972Z" fill="white"/>
<path d="M10.833 2.10938H8.84082C8.51726 2.10938 8.25488 2.37175 8.25488 2.69531C8.25488 3.01887 8.51726 3.28125 8.84082 3.28125H10.833C11.1566 3.28125 11.4189 3.01887 11.4189 2.69531C11.4189 2.37175 11.1566 2.10938 10.833 2.10938Z" fill="white"/>
</svg>
