<svg width="220" height="201" viewBox="0 0 220 201" fill="none" xmlns="http://www.w3.org/2000/svg">
<path d="M132.461 138.893L154.958 177.865M66.1983 22H155.006L200 99.9205L155.006 177.865H64.994L20 99.9205L64.994 22H66.1983ZM87.4428 138.893H132.509L155.006 99.9205L132.509 60.9723H87.4428L64.994 99.9205L87.4428 138.893ZM154.886 99.9205H200H154.886ZM87.4428 60.9723L66.1983 22L87.4428 60.9723ZM155.006 22L132.509 60.9723L155.006 22ZM20 99.9205H64.994H20ZM64.994 177.865L87.4428 138.893L64.994 177.865Z" stroke="white" stroke-width="10" stroke-linecap="round" stroke-linejoin="round"/>
<path d="M66.1983 22H155.006L200 99.9205L155.006 177.865H64.994L20 99.9205L64.994 22H66.1983ZM66.1983 22L87.4428 60.9723L66.1983 22ZM87.4428 138.893H132.509L155.006 99.9205L132.509 60.9723H87.4428L64.994 99.9205L87.4428 138.893ZM87.4428 138.893L64.994 177.865L87.4428 138.893ZM132.509 138.893L155.006 177.865M155.006 22L132.509 60.9723L155.006 22ZM155.006 99.9205H200H155.006ZM65.1144 99.9205H20H65.1144Z" stroke="black" stroke-width="4" stroke-linecap="round" stroke-linejoin="round"/>
<path fill-rule="evenodd" clip-rule="evenodd" d="M66.1983 22L87.4428 60.9723L64.994 99.9205H20L64.994 22H66.1983Z" fill="#6776FF"/>
<path fill-rule="evenodd" clip-rule="evenodd" d="M155.005 22L132.508 60.9723L155.005 99.9205L132.508 138.893H87.442L64.9932 99.9205L87.442 60.9723L66.1976 22H155.005Z" fill="#364AFF"/>
<path fill-rule="evenodd" clip-rule="evenodd" d="M87.4428 138.893H132.509L155.006 99.9205L132.509 60.9723L155.006 22L200 99.9205L155.006 177.865H64.994L20 99.9205H64.994L87.4428 138.893Z" fill="#002AD7"/>
<path d="M66.1983 22H155.006L200 99.9205L155.006 177.865H64.994L20 99.9205L64.994 22H66.1983ZM66.1983 22L87.4428 60.9723L66.1983 22ZM87.4428 138.893H132.509L155.006 99.9205L132.509 60.9723H87.4428L64.994 99.9205L87.4428 138.893ZM87.4428 138.893L64.994 177.865L87.4428 138.893ZM132.509 138.893L155.006 177.865M155.006 22L132.509 60.9723L155.006 22ZM155.006 99.9205H200H155.006ZM65.1144 99.9205H20H65.1144Z" stroke="#020E3A" stroke-width="2" stroke-linecap="round" stroke-linejoin="round"/>
</svg>
