<svg width="84" height="70" viewBox="0 0 84 70" fill="none" xmlns="http://www.w3.org/2000/svg">
<path d="M13.97 0C13.97 0 12.6872 1.71266 11.9476 3.45409C9.31284 9.61523 7.13715 15.9682 5.43878 22.4596L4.72873 24.8616L4.22578 27.2936L3.30864 32.1876L2.33232 37.0516C1.99452 38.656 1.75736 40.2806 1.62227 41.9156C0.803442 48.3681 0.378574 54.8658 0.350098 61.3715C0.350098 62.4824 0.350098 63.6233 0.350098 64.7643L66.9172 69.0578C65.8419 55.6587 67.9417 42.193 73.0414 29.7856C73.4238 28.8662 73.7498 27.9236 74.0177 26.9633C74.1656 26.513 74.2544 26.0326 74.3727 25.5222C74.4911 25.0117 74.6982 24.6214 74.8461 24.141C75.4082 22.3095 83.435 2.0416 83.5829 -7.52343e-05C51.8031 -0.000180615 13.97 0 13.97 0Z" fill="#28D764"/>
</svg>
