<svg width="65" height="70" viewBox="0 0 65 70" fill="none" xmlns="http://www.w3.org/2000/svg">
<path d="M39.1047 0.858452C38.6145 1.21372 27.3942 13.044 26.9418 13.4397C26.0129 14.2422 25.1217 15.0851 24.2285 15.9722C21.0593 19.1065 18.0748 22.4724 15.3002 26.0414L14.2308 27.3418L13.2611 28.712L11.3596 31.4927L9.43583 34.2402C8.79299 35.1427 8.19703 36.0824 7.65154 37.0537C5.34903 40.8166 3.23978 44.7047 1.33588 48.6959C1.01332 49.3786 0.682043 50.0798 0.350765 50.781L33.9787 69.8963C37.3058 61.3955 42.3158 53.6397 48.5901 47.2768C49.0574 46.8063 49.5019 46.3078 49.921 45.7839C50.1293 45.5438 50.3153 45.2705 50.5255 44.9861C50.7357 44.7017 50.9575 44.5131 51.1745 44.2545C52.0008 43.268 63.5059 30.7146 64.1762 29.4965L39.1047 0.858452Z" fill="#54A354"/>
</svg>
