<svg width="94" height="124" viewBox="0 0 94 124" fill="none" xmlns="http://www.w3.org/2000/svg">
<path d="M92.6564 83.466C90.4967 79.4127 88.1595 75.4494 86.2956 71.4562L83.3371 65.4513C82.3607 63.4096 81.5619 61.3379 80.6744 59.4463C72.9968 42.3913 68.3399 24.097 66.9172 5.40209L0.350098 0.688232C0.350098 2.78995 0.350098 4.86164 0.350098 6.90332L1.08973 16.331C1.23766 17.8923 1.29683 19.4836 1.50393 21.0149L2.21398 25.6086L3.66366 34.616C4.28495 37.6185 4.96541 40.6209 5.64588 43.6234C6.32634 46.6258 6.94763 49.6283 7.8352 52.3906C9.58073 58.0952 11.1192 63.92 13.2197 69.3845L16.1783 77.6713C17.2433 80.3735 18.4268 83.0156 19.551 85.6878C20.6752 88.36 21.9474 91.1523 23.19 93.7044L26.9769 101.451C29.4029 106.675 32.2135 111.569 34.9058 116.463C36.2371 118.955 37.6868 121.447 39.1957 123.939L93.0706 84.1866C92.9227 83.9464 92.7748 83.7062 92.6564 83.466Z" fill="#28D764"/>
</svg>
