<svg width="50" height="87" viewBox="0 0 50 87" fill="none" xmlns="http://www.w3.org/2000/svg">
<path d="M40.2452 74.5274C40.2906 71.5018 40.2169 68.4876 40.3998 65.5721L40.5934 61.1494C40.6747 59.653 40.8578 58.182 40.942 56.7999C41.8718 44.418 44.7439 32.0222 49.4267 20.1808L15.9209 0.807068C15.3106 2.09872 14.7091 3.37191 14.1163 4.62666L11.7664 10.6037C11.3906 11.5998 10.9595 12.5925 10.6234 13.5848L9.66157 16.5837L7.80571 22.4782C7.25942 24.4772 6.74413 26.4908 6.22884 28.5045C5.71355 30.5181 5.16726 32.5171 4.83021 34.4344C4.0883 38.3724 3.20303 42.3329 2.71687 46.2111L1.86072 52.0362C1.63411 53.9605 1.48693 55.8772 1.30003 57.7978C1.11313 59.7183 0.968865 61.7492 0.87884 63.6252L0.613608 69.3232C0.367686 73.1344 0.419157 76.8378 0.408629 80.5118C0.382538 82.3729 0.418448 84.2633 0.485356 86.1683L40.2529 75.0728C40.2452 74.8885 40.2374 74.7043 40.2452 74.5274Z" fill="#1B8720"/>
</svg>
