<svg width="103" height="109" viewBox="0 0 103 109" fill="none" xmlns="http://www.w3.org/2000/svg">
<path d="M0.692383 38.764C1.07699 39.5746 14.8934 59.7812 15.4851 60.4417C16.3431 62.063 17.3194 63.6543 18.4436 65.2456C21.9554 70.8559 25.8713 76.1949 30.1594 81.2187L31.7275 83.1403L33.473 84.9117L36.9345 88.4246L40.4256 91.9375C41.5567 93.1168 42.7624 94.22 44.035 95.2402C48.8648 99.5032 53.9536 103.454 59.2715 107.07L62.0229 108.961L102.466 55.1874C90.8604 48.6499 80.9686 39.3835 73.6204 28.1653C73.0888 27.3377 72.5058 26.5455 71.8748 25.7933L70.8985 24.6824L70.0109 23.5415C68.7979 22.0403 54.0052 1.41338 52.4372 0.152344L0.692383 38.764Z" fill="#28D764"/>
</svg>
