<svg width="49" height="71" viewBox="0 0 49 71" fill="none" xmlns="http://www.w3.org/2000/svg">
<path d="M0.150413 11.8611C0.116528 12.4545 1.48782 28.2926 1.60602 28.845C1.58475 30.0538 1.6342 31.2735 1.76115 32.5297C1.97196 36.8468 2.47334 41.0973 3.26117 45.2461L3.52472 46.8152L3.92485 48.3359L4.71834 51.3516L5.52733 54.3746C5.77755 55.3794 6.08888 56.3558 6.45934 57.2978C7.75189 61.1132 9.27073 64.8009 11.0069 68.3393L11.8992 70.1828L48.7011 47.1455C44.5191 40.2551 42.0273 32.1118 41.4348 23.3986C41.3966 22.7585 41.3212 22.1273 41.209 21.5089L41.0201 20.5845L40.8864 19.6636C40.6868 18.4408 38.9261 2.10262 38.4707 0.939514L0.150413 11.8611Z" fill="#54A354"/>
</svg>
