<svg width="124" height="90" viewBox="0 0 124 90" fill="none" xmlns="http://www.w3.org/2000/svg">
<path d="M119.962 21.9785C115.465 21.5582 110.909 21.318 106.501 20.6274L99.8443 19.7567C97.655 19.4565 95.4953 18.9761 93.306 18.5857C75.0714 15.612 57.4955 9.40211 41.3836 0.240723L0.94043 54.0748C2.65638 55.2458 4.37233 56.4167 6.11787 57.4376L14.2243 62.0313C15.5852 62.7819 16.9461 63.5926 18.3366 64.2832L22.4786 66.2047L30.7921 70.0779C33.5731 71.1888 36.3837 72.2397 39.1647 73.3205C41.9458 74.4014 44.786 75.5424 47.5966 76.323C53.2178 78.0044 58.8686 79.956 64.4898 81.187L72.9808 83.2287C75.9394 83.8592 78.602 84.3096 81.4127 84.85C84.2233 85.3904 87.0635 85.9609 89.8741 86.3512L98.3059 87.4922C103.927 88.3328 109.519 88.6631 115.11 89.1735C117.891 89.4438 120.732 89.5939 123.601 89.684L120.82 22.2187L119.962 21.9785Z" fill="#28D764"/>
</svg>
