<svg width="73" height="76" viewBox="0 0 73 76" fill="none" xmlns="http://www.w3.org/2000/svg">
<path d="M72.4798 32.9104C70.2458 31.539 67.9286 30.2636 65.8197 28.7481L62.585 26.5653C61.5252 25.8389 60.5332 25.0091 59.4996 24.2273C50.8099 17.8863 43.405 9.7195 37.624 0.101184L0.804682 23.1754C1.36367 24.3198 1.92266 25.4641 2.54075 26.5236L5.45386 31.3532C5.9489 32.1514 6.42651 32.9865 6.95449 33.755L8.56652 35.9612L11.7974 40.3993C12.9318 41.7704 14.0991 43.1119 15.2423 44.4645C16.3854 45.8172 17.5421 47.2213 18.7879 48.3968C21.2447 50.8215 23.6385 53.4196 26.226 55.5675L30.0817 58.9239C31.4486 60.0437 32.7128 60.9796 34.0283 62.0074C35.3439 63.0352 36.6662 64.0888 38.0254 65.0244L42.1116 67.8126C44.8124 69.7206 47.646 71.3076 50.4272 73.0054C51.8058 73.8598 53.2501 74.6551 54.7275 75.4208L72.8595 33.2704L72.4798 32.9104Z" fill="#1B8720"/>
</svg>
