<svg width="123" height="89" viewBox="0 0 123 89" fill="none" xmlns="http://www.w3.org/2000/svg">
<path d="M74.5406 11.0729C66.9926 14.0899 59.2157 16.4797 51.2865 18.2188C43.0346 19.8239 34.68 20.8273 26.2869 21.2212C24.1567 21.4314 21.9378 21.2212 19.7781 21.4014C17.6183 21.5815 15.4586 21.4014 13.2693 21.4014L6.64217 21.1612C4.71912 21.1612 2.76649 21.1612 0.725098 20.8309L3.50611 88.4462L12.0859 88.7465C15.0444 88.7465 18.0029 88.7465 20.784 88.7465C23.565 88.7465 26.5531 88.7465 29.5116 88.5063C41.3808 87.9013 53.1888 86.3958 64.8366 84.0026C76.7117 81.4074 88.3503 77.8017 99.629 73.2238C107.368 69.9887 114.907 66.2788 122.203 62.1147L94.6586 0.444214C88.234 4.51053 81.5077 8.06412 74.5406 11.0729Z" fill="#FFD814"/>
</svg>
