<svg width="74" height="57" viewBox="0 0 74 57" fill="none" xmlns="http://www.w3.org/2000/svg">
<path d="M60.2717 12.3539C55.4413 12.3398 50.6731 11.8835 46.014 10.9897C41.2247 9.93359 36.5564 8.48231 32.0449 6.64695C30.8679 6.24886 29.7664 5.57046 28.5826 5.14659C27.3988 4.72273 26.3196 4.07744 25.1726 3.53554L21.7704 1.74758C20.7629 1.27159 19.74 0.788272 18.7664 0.0800119L0.590739 42.3226L4.99851 44.6308C6.54849 45.3631 8.09847 46.0954 9.55545 46.7838C11.0124 47.4721 12.5779 48.2118 14.1976 48.7965C20.5916 51.3625 27.2149 53.36 34.0121 54.7723C40.987 56.1167 48.1314 56.7815 55.3695 56.7598C60.3636 56.6873 65.3902 56.2732 70.4215 55.5199L73.8977 10.8015C69.3511 11.7103 64.7954 12.2293 60.2717 12.3539V12.3539Z" fill="#FFA300"/>
</svg>
