<svg width="122" height="80" viewBox="0 0 122 80" fill="none" xmlns="http://www.w3.org/2000/svg">
<path d="M2.19264 76.5759C5.15118 76.9962 8.10973 77.4766 10.8908 77.8369C16.8078 78.4074 22.577 79.098 28.4941 79.2481C34.4112 79.3982 40.3282 79.4583 46.2453 79.3982C52.1624 79.3382 58.0795 78.8278 63.9966 77.9871C69.9137 77.1464 75.8307 76.2456 81.7478 75.1647C87.6649 74.0839 93.582 72.4325 99.4991 70.541C107.093 68.1688 114.542 65.3415 121.807 62.074L95.1796 0.403564C90.3681 2.60128 85.4279 4.49641 80.3869 6.07821C76.5408 7.36926 72.5468 8.20995 68.5528 9.08067C64.5587 9.95138 60.4759 10.6119 56.3635 11.0022C52.2512 11.3926 48.0796 11.6928 43.9377 11.9931C39.7957 12.2933 35.5354 12.1732 31.3047 11.9931C27.074 11.8129 22.8432 11.3325 18.5829 10.9722C16.4528 10.732 14.3227 10.3417 12.2221 10.0414H11.305L0.56543 76.3958L2.19264 76.5759Z" fill="#C6CACC"/>
</svg>
