<svg width="76" height="70" viewBox="0 0 76 70" fill="none" xmlns="http://www.w3.org/2000/svg">
<path d="M1.12814 30.1567C2.21289 31.5145 3.27039 32.9027 4.30587 34.1614C6.59808 36.7404 8.77197 39.3228 11.255 41.6891C13.7381 44.0555 16.2621 46.3762 18.8406 48.6363C21.4191 50.8963 24.2021 52.9285 27.1351 54.7937C30.0681 56.6589 33.0283 58.4938 36.0704 60.2375C39.1124 61.9812 42.4135 63.4364 45.8237 64.77C50.1752 66.5098 54.6707 67.9632 59.2865 69.1224L75.8088 27.6236C72.7363 26.8727 69.7457 25.9189 66.854 24.7677C64.6095 23.9319 62.5056 22.8111 60.3882 21.7055C58.2707 20.5999 56.2104 19.3536 54.2601 17.9592C52.3097 16.5647 50.3748 15.1019 48.4525 13.6505C46.5303 12.199 44.748 10.4892 43.0056 8.76044C41.2633 7.03168 39.6573 5.15107 37.984 3.31975C37.1746 2.37371 36.4334 1.35174 35.6641 0.386783L35.2686 0.0317732L0.508339 29.4357L1.12814 30.1567Z" fill="#A9A9A9"/>
</svg>
