<svg width="73" height="70" viewBox="0 0 73 70" fill="none" xmlns="http://www.w3.org/2000/svg">
<path d="M1.68788 39.9548C6.1145 41.7549 10.2784 44.0194 14.1211 46.7162C16.0163 48.0889 17.9096 49.488 19.6436 51.0741C20.5564 51.8213 21.4218 52.6222 22.2364 53.4738C23.0809 54.3019 23.852 55.0581 24.9414 56.1263C29.1558 60.5449 33.2315 65.056 37.197 69.6306L72.6897 40.7814C67.8594 35.13 62.8882 29.5978 57.7354 24.2019C56.7195 23.2057 55.3976 21.9095 54.1491 20.6852C52.9007 19.461 51.6277 18.2127 50.265 17.105C47.6436 14.7345 44.8058 12.6092 41.9108 10.5421C36.0955 6.47484 29.7988 3.05688 23.108 0.335656L22.8264 0.231036L0.0902935 39.3314L1.68788 39.9548Z" fill="#D5D5D5"/>
</svg>
