<svg width="112" height="76" viewBox="0 0 112 76" fill="none" xmlns="http://www.w3.org/2000/svg">
<path d="M22.9362 74.3755C30.5661 71.7067 38.4333 69.7962 46.427 68.6709C50.4211 68.1605 54.4447 67.68 58.4979 67.56C60.5256 67.4046 62.5597 67.3545 64.5925 67.4099C66.6338 67.4099 68.4977 67.4099 71.1308 67.4099C81.6632 67.7101 92.1364 68.2505 102.551 68.9711L111.426 2.10637C98.6452 1.14558 85.8348 0.455022 72.9651 0.0947266C70.5095 0.0947266 67.3143 0.0947266 64.2966 0.0947266C61.2789 0.0947266 58.202 0.0947321 55.1843 0.334929C49.0897 0.545101 43.0247 1.23567 36.9597 2.04633C24.8792 3.76412 12.9901 6.65987 1.45726 10.6934L0.983887 10.8735L20.2144 75.3664L22.9362 74.3755Z" fill="#C6CACC"/>
</svg>
