<svg width="52" height="90" viewBox="0 0 52 90" fill="none" xmlns="http://www.w3.org/2000/svg">
<path d="M51.0532 64.4013C49.971 61.5755 48.7824 58.8045 47.8688 56.0298L46.405 51.8519C45.9244 50.4324 45.5477 48.9988 45.1122 47.6843C41.374 35.8437 39.4339 23.2683 39.3809 10.5347L1.59434 0.500046C1.50779 1.92598 0.903031 7.8314 0.818964 9.21659L0.858548 15.6389C0.879817 16.7033 0.848516 17.785 0.905243 18.8312L1.12676 21.9728L1.59432 28.1348C1.83003 30.1937 2.09995 32.2546 2.36988 34.3155C2.63981 36.3765 2.87551 38.4353 3.27511 40.3406C4.04977 44.2722 4.69971 48.2781 5.6896 52.0592L7.0595 57.7853C7.56424 59.656 8.13989 61.4902 8.68008 63.3426C9.22028 65.195 9.84108 67.1342 10.4547 68.9093L12.3259 74.2978C13.5139 77.9274 14.938 81.3464 16.2936 84.7613C16.961 86.4988 17.6968 88.2404 18.4669 89.9841L51.2631 64.9047C51.1874 64.7366 51.1118 64.5684 51.0532 64.4013Z" fill="#A9A9A9"/>
</svg>
