<svg width="81" height="126" viewBox="0 0 81 126" fill="none" xmlns="http://www.w3.org/2000/svg">
<path d="M69.8964 114.163L69.1271 111.161C68.8905 110.14 68.8017 109.179 68.6242 108.158C68.3579 106.207 67.855 104.255 67.7662 102.303C67.6775 100.352 67.2928 98.3702 67.2041 96.2985L66.9378 90.2936C66.8101 74.6659 70.1256 59.2067 76.6418 45.0465C77.6773 42.7646 78.8311 40.5728 80.0146 38.351L24.8082 0.790283C8.6376 28.0786 0.239808 59.3831 0.548239 91.2243L0.932852 100.802C1.11036 103.985 1.52456 107.137 1.82041 110.29C2.11627 113.443 2.73756 116.565 3.21092 119.688C3.47719 121.219 3.71388 122.69 4.03931 124.311L4.21683 125.152L70.6064 117.406C70.3697 116.325 70.1035 115.244 69.8964 114.163Z" fill="#C6CACC"/>
</svg>
