<svg width="60" height="75" viewBox="0 0 60 75" fill="none" xmlns="http://www.w3.org/2000/svg">
<path d="M0.890359 25.1964C1.07942 25.7599 8.23831 39.9542 8.55334 40.4231C8.9828 41.5532 9.48195 42.6671 10.0666 43.7862C11.8667 47.7158 13.9117 51.4755 16.185 55.0345L17.0127 56.3933L17.9493 57.6564L19.8067 60.1612L21.6812 62.6671C22.2869 63.5069 22.9388 64.2977 23.6327 65.0346C26.2506 68.0964 29.0311 70.9556 31.9579 73.5953L33.4713 74.9753L59.0765 39.9114C52.6334 35.0686 47.2938 28.4345 43.5058 20.5655C43.2324 19.9854 42.9278 19.4274 42.5939 18.8949L42.075 18.107L41.6086 17.3017C40.9689 16.2406 33.2626 1.7269 32.4076 0.816302L0.890359 25.1964Z" fill="#D4D4D4"/>
</svg>
