<svg width="83" height="51" viewBox="0 0 83 51" fill="none" xmlns="http://www.w3.org/2000/svg">
<path d="M74.6974 1.51902L65.9423 2.90677L61.6047 3.63469L57.287 4.11646L48.6566 5.10624C37.462 6.07626 26.3402 6.13969 15.3821 5.29601C13.6371 5.11379 11.8972 4.88758 10.1522 4.70536L0.687089 48.7135C2.51181 48.9638 4.3465 49.1963 6.05157 49.3796C19.1706 50.4289 32.4919 50.3693 45.9022 49.2013L55.7142 47.9612L60.6302 47.3935L65.5063 46.6164L75.2436 45.0538C77.7315 44.6463 80.1995 44.1342 82.6675 43.622L77.4147 0.912633C76.5023 1.17342 75.5899 1.36401 74.6974 1.51902Z" fill="#D5D5D5"/>
</svg>
