<svg width="143" height="118" viewBox="0 0 143 118" fill="none" xmlns="http://www.w3.org/2000/svg">
<path d="M95.3712 3.22341L83.3595 11.3L77.4425 15.3534L71.3479 19.0764L59.1883 26.5525C43.1512 35.8471 26.459 43.9257 9.24814 50.7223C6.46711 51.7431 3.65651 52.7039 0.875488 53.7248L23.745 117.017C26.7035 116.026 29.6621 115.005 32.3839 114.014C53.0218 105.928 73.029 96.2723 92.2352 85.1304L105.963 76.4834L112.886 72.2199L119.572 67.7162L132.915 58.7088C136.317 56.3969 139.601 53.965 142.885 51.533L98.951 0.491211C97.7972 1.48202 96.5842 2.38272 95.3712 3.22341Z" fill="#C6CACC"/>
</svg>
