<svg width="143" height="128" viewBox="0 0 143 128" fill="none" xmlns="http://www.w3.org/2000/svg">
<path d="M78.2635 14.8158C70.7489 21.3611 63.2638 27.9665 55.5715 34.2116C47.8793 40.4568 40.3351 46.9421 32.5245 52.8869L20.8975 61.8943C17.0218 64.8968 13.0573 67.659 9.06329 70.5714C6.31185 72.523 3.59002 74.5347 0.868164 76.5763L44.8025 127.618L47.761 125.456C52.0213 122.304 56.4 119.211 60.6011 115.999L73.0861 106.241C81.4884 99.8153 89.506 93.0598 97.6124 86.3643C105.719 79.6688 113.589 72.8232 121.458 65.9476L142.316 47.9329L94.6539 0.554077L78.2635 14.8158Z" fill="#C6CACC"/>
</svg>
