<svg width="121" height="79" viewBox="0 0 121 79" fill="none" xmlns="http://www.w3.org/2000/svg">
<path d="M118.56 10.3542C95.398 2.76092 71.0659 -0.484732 46.7566 0.776313L37.881 1.22671C34.9225 1.43688 31.9639 1.85722 29.1533 2.15746C26.3426 2.45771 23.2362 2.72792 20.4551 3.26836L11.8754 4.73958L7.58544 5.49019L3.23637 6.48101L0.928711 7.02143L9.80435 74.1564L11.3428 73.706L17.4966 72.2949L20.6031 71.5443L23.7983 71.0038L30.2184 69.8929C32.3485 69.4726 34.4786 69.3825 36.6384 69.0822C38.7981 68.782 40.8987 68.5418 43.0288 68.3917L49.3897 68.0614C65.7049 67.149 82.0474 69.2653 97.614 74.3065C99.4773 74.8326 101.297 75.5052 103.058 76.3182C104.833 77.0688 106.638 77.7293 108.383 78.5099L120.01 10.8346L118.56 10.3542Z" fill="#C6CACC"/>
</svg>
