<svg width="112" height="125" viewBox="0 0 112 125" fill="none" xmlns="http://www.w3.org/2000/svg">
<path d="M110.476 97.0057L108.76 92.6522C108.168 91.211 107.488 89.8299 106.837 88.4187L102.872 80.0418C101.363 77.2495 99.7659 74.4873 98.1682 71.7251C91.701 60.5395 83.9661 50.1604 75.1212 40.7997C57.4701 22.6431 35.8798 8.92696 12.0748 0.746948L0.447754 68.4223L5.35885 70.9744C6.18724 71.4248 7.04523 71.8151 7.87362 72.2955L10.2109 73.8268L14.9446 76.8292L19.2936 80.282L21.5125 81.9935L23.4947 83.915L27.5479 87.7582C32.7226 93.2956 37.2496 99.4212 41.0388 106.013L43.9973 111.057L46.5713 116.612C47.0151 117.543 47.4885 118.443 47.8731 119.374L48.9678 122.196C49.2636 123.007 49.589 123.818 49.9144 124.628L111.186 98.7472C110.92 98.1767 110.712 97.5762 110.476 97.0057Z" fill="#C6CACC"/>
</svg>
