<svg width="79" height="141" viewBox="0 0 79 141" fill="none" xmlns="http://www.w3.org/2000/svg">
<path d="M68.4517 121.543C72.8435 109.262 75.8217 96.5073 77.3273 83.5322C78.605 70.6704 78.5356 57.7075 77.1202 44.8605C75.4943 32.2745 72.6401 19.8835 68.5996 7.87023C67.8008 5.49828 66.8837 3.15638 65.9666 0.844482L4.69546 26.7257C5.10965 27.7765 5.52391 28.8574 5.87894 29.9383C8.37721 37.4358 10.1702 45.1566 11.2339 52.9972C12.0027 60.6336 12.0027 68.3296 11.2339 75.966C10.3051 83.4328 8.56878 90.773 6.05644 97.8539C4.4633 102.084 2.54417 106.18 0.316895 110.104L59.7537 140.279C63.0608 134.237 65.9666 127.978 68.4517 121.543V121.543Z" fill="#C6CACC"/>
</svg>
