<svg width="126" height="112" viewBox="0 0 126 112" fill="none" xmlns="http://www.w3.org/2000/svg">
<path d="M59.5709 97.0582C70.4432 90.7695 80.6712 83.397 90.103 75.0502C99.6597 66.4432 108.189 56.7291 115.517 46.1065C118.989 40.9793 122.189 35.6674 125.103 30.1935L65.6655 0.0187988C64.2454 2.60091 62.7069 5.12294 61.0797 7.58496C56.7328 13.8282 51.7006 19.5496 46.0799 24.6389L41.6716 28.392C40.222 29.653 38.506 30.7039 36.9676 31.8749C34.009 34.3069 30.3404 36.1383 27.0564 38.3301C18.493 43.0555 9.47076 46.8689 0.133789 49.7095L27.5594 111.47C38.616 107.603 49.3257 102.781 59.5709 97.0582V97.0582Z" fill="#C6CACC"/>
</svg>
