<svg width="69" height="59" viewBox="0 0 69 59" fill="none" xmlns="http://www.w3.org/2000/svg">
<path d="M54.0862 1.0064C45.0995 7.26793 36.6966 11.3608 27.859 12.7502C23.3095 13.5245 18.7399 13.7089 14.2347 13.3001L12.5008 13.1833L10.7163 12.9077L7.17128 12.4041L6.48733 12.2422L0.437216 57.5983L3.36287 58.0392L5.9549 58.4011L8.62258 58.5922C15.8615 59.2295 23.2016 58.9202 30.509 57.67C32.3605 57.2903 34.1791 57.0497 36.0635 56.531L41.6145 55.0348L47.0546 53.1138C48.8671 52.4523 50.6124 51.6281 52.3937 50.8753C58.066 48.2608 63.5905 45.1511 68.9174 41.5743L55.0578 0.250705L54.0862 1.0064Z" fill="#A9A9A9"/>
</svg>
