<svg width="70" height="80" viewBox="0 0 70 80" fill="none" xmlns="http://www.w3.org/2000/svg">
<path d="M61.4864 40.8112C57.8102 33.3943 53.1683 26.7296 47.6974 21.0135C46.2813 19.6243 44.9711 18.1007 43.4345 16.884C41.8978 15.6673 40.4454 14.3735 38.932 13.1438C35.8314 10.8959 32.5928 8.87856 29.2337 7.10275C25.9423 5.36027 22.5476 3.83776 19.0649 2.54211L13.8776 0.943143L0.106164 44.5907L3.39101 45.5981C5.42175 46.3627 7.40319 47.2537 9.32711 48.2674C11.1756 49.2425 12.9614 50.3435 14.6761 51.565L17.0382 53.5536C17.8259 54.2109 18.5693 54.9307 19.2637 55.7087C25.098 61.9825 29.1802 70.1082 31.0953 79.2601L69.3005 63.2078C67.5247 55.311 64.9017 47.7928 61.4864 40.8112V40.8112Z" fill="#D5D5D5"/>
</svg>
