<svg width="58" height="91" viewBox="0 0 58 91" fill="none" xmlns="http://www.w3.org/2000/svg">
<path d="M36.4848 79.8392C41.215 72.4026 45.2329 64.4643 48.4586 56.1822C51.5141 47.9452 53.8152 39.4582 55.3221 30.868C56.6778 22.4196 57.308 13.9355 57.2035 5.53913C57.1773 3.87007 57.0652 2.23388 56.9764 0.584708L17.6416 9.37507C17.7159 10.1085 17.7522 10.8512 17.7504 11.5994C17.8057 16.8274 17.4276 22.1068 16.6208 27.3684C15.6969 32.4681 14.3297 37.5076 12.5403 42.4097C10.6758 47.1758 8.36178 51.746 5.64298 56.0318C3.98862 58.5905 2.17163 61.0175 0.209281 63.2896L28.315 90.9697C31.24 87.45 33.9698 83.7309 36.4848 79.8392V79.8392Z" fill="#D5D5D5"/>
</svg>
