<svg width="117" height="102" viewBox="0 0 117 102" fill="none" xmlns="http://www.w3.org/2000/svg">
<path d="M75.9601 1.87112C63.3567 13.881 50.8717 22.5881 36.582 27.5722C29.2492 30.2225 21.6481 32.0351 13.9196 32.9765L10.961 33.3969L7.85457 33.607L1.7008 34.0874H0.487793L8.35751 101.072L13.4462 100.712L17.9432 100.352L22.4993 99.7212C34.9099 98.1806 47.1142 95.2503 58.8893 90.9841C61.8479 89.8131 64.8064 88.8523 67.7649 87.4711L76.4926 83.4479L84.8653 78.8541C87.6463 77.2928 90.2498 75.5214 92.9421 73.84C101.429 68.1747 109.471 61.8506 116.995 54.9245L77.2914 0.459961L75.9601 1.87112Z" fill="#C6CACC"/>
</svg>
