<svg width="75" height="67" viewBox="0 0 75 67" fill="none" xmlns="http://www.w3.org/2000/svg">
<path d="M24.0141 62.4717C31.3441 60.0872 38.5311 56.9008 45.469 52.9595C52.536 48.8693 59.2528 43.9036 65.4834 38.163C68.4439 35.3749 71.29 32.4261 74.0096 29.3291L46.8872 0.363414C45.5693 1.80575 44.2032 3.22985 42.7948 4.57234C39.1317 7.92048 35.1886 10.818 31.0434 13.2074L27.8305 14.956C26.76 15.5536 25.6192 15.9499 24.4991 16.485C22.2589 17.5553 19.9568 18.2091 17.6712 19.1093C11.9419 20.8383 6.13951 21.9116 0.354478 22.3124L3.2633 66.7501C10.2065 65.9869 17.1485 64.5556 24.0141 62.4717V62.4717Z" fill="#A9A9A9"/>
</svg>
