<svg width="129" height="100" viewBox="0 0 129 100" fill="none" xmlns="http://www.w3.org/2000/svg">
<path d="M101.707 30.705C91.2316 22.4243 79.6585 15.6826 67.3293 10.6785C64.1932 9.50757 61.1459 8.09644 57.9211 7.22572C54.6963 6.35501 51.5603 5.3342 48.365 4.43346C41.985 2.96141 35.5238 1.87854 29.0162 1.19076C22.6381 0.513518 16.2281 0.19275 9.8153 0.22995L0.466309 0.740408L4.99287 67.9654L10.9099 67.6351C14.6548 67.6259 18.3976 67.8164 22.1228 68.2056C25.7027 68.5812 29.2585 69.1626 32.7735 69.947L37.803 71.4482C39.4766 71.9407 41.1171 72.5425 42.7142 73.2497C55.9716 78.8309 67.5367 87.8745 76.2344 99.4612L128.038 57.4268C120.335 47.4933 111.496 38.5233 101.707 30.705V30.705Z" fill="#C6CACC"/>
</svg>
