<svg width="79" height="140" viewBox="0 0 79 140" fill="none" xmlns="http://www.w3.org/2000/svg">
<path d="M73.694 120.21C76.7689 107.511 78.3871 94.4944 78.5165 81.4185C78.399 68.4935 76.9112 55.6188 74.0787 43.017C71.0891 30.6892 66.9071 18.6912 61.5936 7.19771C60.5286 4.91584 59.3452 2.72402 58.1913 0.502197L0.115234 33.1389C0.684496 34.1089 1.19813 35.1114 1.65364 36.1414C4.94638 43.3029 7.57128 50.7615 9.49384 58.4196C11.128 65.9162 12.0102 73.5614 12.1269 81.2383C12.0393 88.7675 11.1062 96.262 9.34586 103.577C8.24461 107.96 6.80022 112.247 5.02642 116.397L67.3332 139.786C69.8956 133.418 72.0209 126.877 73.694 120.21V120.21Z" fill="#C6CACC"/>
</svg>
