<svg width="75" height="55" viewBox="0 0 75 55" fill="none" xmlns="http://www.w3.org/2000/svg">
<path d="M72.9153 9.6926C62.1427 11.6718 52.7993 11.9186 44.1794 9.52465C39.7175 8.34597 35.4815 6.62204 31.5498 4.38481L30.0198 3.56061L28.5095 2.57093L25.4911 0.644915L24.9355 0.214387L0.650837 38.9963L3.13148 40.6088L5.34111 42.0113L7.69034 43.2897C14.0159 46.8667 20.8255 49.624 27.9948 51.5112C29.8373 51.9321 31.5924 52.466 33.5225 52.774L39.1949 53.7101L44.9422 54.2137C46.8659 54.3619 48.7959 54.3342 50.729 54.3864C56.9748 54.3549 63.2909 53.8113 69.6207 52.7607L74.1126 9.40695L72.9153 9.6926Z" fill="#A9A9A9"/>
</svg>
